  0
SECTION
  2
HEADER
  9
$ACADVER
  1
AC1014
  9
$ACADMAINTVER
 70
     9
  9
$DWGCODEPAGE
  3
ANSI_1252
  9
$INSBASE
 10
0.0
 20
0.0
 30
0.0
  9
$EXTMIN
 10
-1.831649
 20
-0.700709
 30
0.0
  9
$EXTMAX
 10
5.273071
 20
6.429644
 30
0.0
  9
$LIMMIN
 10
0.0
 20
0.0
  9
$LIMMAX
 10
12.0
 20
9.0
  9
$ORTHOMODE
 70
     1
  9
$REGENMODE
 70
     1
  9
$FILLMODE
 70
     1
  9
$QTEXTMODE
 70
     0
  9
$MIRRTEXT
 70
     1
  9
$DRAGMODE
 70
     2
  9
$LTSCALE
 40
1.0
  9
$OSMODE
 70
   311
  9
$ATTMODE
 70
     1
  9
$TEXTSIZE
 40
0.2
  9
$TRACEWID
 40
0.05
  9
$TEXTSTYLE
  7
STANDARD
  9
$CLAYER
  8
0
  9
$CELTYPE
  6
BYLAYER
  9
$CECOLOR
 62
   256
  9
$CELTSCALE
 40
1.0
  9
$DELOBJ
 70
     1
  9
$DISPSILH
 70
     0
  9
$DIMSCALE
 40
1.0
  9
$DIMASZ
 40
0.18
  9
$DIMEXO
 40
0.0625
  9
$DIMDLI
 40
0.38
  9
$DIMRND
 40
0.0
  9
$DIMDLE
 40
0.0
  9
$DIMEXE
 40
0.18
  9
$DIMTP
 40
0.0
  9
$DIMTM
 40
0.0
  9
$DIMTXT
 40
0.18
  9
$DIMCEN
 40
0.09
  9
$DIMTSZ
 40
0.0
  9
$DIMTOL
 70
     0
  9
$DIMLIM
 70
     0
  9
$DIMTIH
 70
     1
  9
$DIMTOH
 70
     1
  9
$DIMSE1
 70
     0
  9
$DIMSE2
 70
     0
  9
$DIMTAD
 70
     0
  9
$DIMZIN
 70
     0
  9
$DIMBLK
  1

  9
$DIMASO
 70
     1
  9
$DIMSHO
 70
     1
  9
$DIMPOST
  1

  9
$DIMAPOST
  1

  9
$DIMALT
 70
     0
  9
$DIMALTD
 70
     2
  9
$DIMALTF
 40
25.4
  9
$DIMLFAC
 40
1.0
  9
$DIMTOFL
 70
     0
  9
$DIMTVP
 40
0.0
  9
$DIMTIX
 70
     0
  9
$DIMSOXD
 70
     0
  9
$DIMSAH
 70
     0
  9
$DIMBLK1
  1

  9
$DIMBLK2
  1

  9
$DIMSTYLE
  2
STANDARD
  9
$DIMCLRD
 70
     0
  9
$DIMCLRE
 70
     0
  9
$DIMCLRT
 70
     0
  9
$DIMTFAC
 40
1.0
  9
$DIMGAP
 40
0.09
  9
$DIMJUST
 70
     0
  9
$DIMSD1
 70
     0
  9
$DIMSD2
 70
     0
  9
$DIMTOLJ
 70
     1
  9
$DIMTZIN
 70
     0
  9
$DIMALTZ
 70
     0
  9
$DIMALTTZ
 70
     0
  9
$DIMFIT
 70
     3
  9
$DIMUPT
 70
     0
  9
$DIMUNIT
 70
     2
  9
$DIMDEC
 70
     2
  9
$DIMTDEC
 70
     4
  9
$DIMALTU
 70
     2
  9
$DIMALTTD
 70
     2
  9
$DIMTXSTY
  7
STANDARD
  9
$DIMAUNIT
 70
     0
  9
$LUNITS
 70
     2
  9
$LUPREC
 70
     4
  9
$SKETCHINC
 40
0.1
  9
$FILLETRAD
 40
0.0
  9
$AUNITS
 70
     0
  9
$AUPREC
 70
     0
  9
$MENU
  1
.
  9
$ELEVATION
 40
0.0
  9
$PELEVATION
 40
0.0
  9
$THICKNESS
 40
0.0
  9
$LIMCHECK
 70
     0
  9
$BLIPMODE
 70
     0
  9
$CHAMFERA
 40
0.5
  9
$CHAMFERB
 40
0.5
  9
$CHAMFERC
 40
1.0
  9
$CHAMFERD
 40
0.0
  9
$SKPOLY
 70
     0
  9
$TDCREATE
 40
2454179.609729213
  9
$TDUPDATE
 40
2454180.470267210
  9
$TDINDWG
 40
0.1566264236
  9
$TDUSRTIMER
 40
0.1566264236
  9
$USRTIMER
 70
     1
  9
$ANGBASE
 50
0.0
  9
$ANGDIR
 70
     0
  9
$PDMODE
 70
     0
  9
$PDSIZE
 40
0.0
  9
$PLINEWID
 40
0.0
  9
$COORDS
 70
     1
  9
$SPLFRAME
 70
     0
  9
$SPLINETYPE
 70
     6
  9
$SPLINESEGS
 70
     8
  9
$ATTDIA
 70
     0
  9
$ATTREQ
 70
     1
  9
$HANDLING
 70
     1
  9
$HANDSEED
  5
E43
  9
$SURFTAB1
 70
     6
  9
$SURFTAB2
 70
     6
  9
$SURFTYPE
 70
     6
  9
$SURFU
 70
     6
  9
$SURFV
 70
     6
  9
$UCSNAME
  2

  9
$UCSORG
 10
0.0
 20
0.0
 30
0.0
  9
$UCSXDIR
 10
1.0
 20
0.0
 30
0.0
  9
$UCSYDIR
 10
0.0
 20
1.0
 30
0.0
  9
$PUCSNAME
  2

  9
$PUCSORG
 10
0.0
 20
0.0
 30
0.0
  9
$PUCSXDIR
 10
1.0
 20
0.0
 30
0.0
  9
$PUCSYDIR
 10
0.0
 20
1.0
 30
0.0
  9
$USERI1
 70
     0
  9
$USERI2
 70
     0
  9
$USERI3
 70
     0
  9
$USERI4
 70
     0
  9
$USERI5
 70
     0
  9
$USERR1
 40
0.0
  9
$USERR2
 40
0.0
  9
$USERR3
 40
0.0
  9
$USERR4
 40
0.0
  9
$USERR5
 40
0.0
  9
$WORLDVIEW
 70
     1
  9
$SHADEDGE
 70
     3
  9
$SHADEDIF
 70
    70
  9
$TILEMODE
 70
     1
  9
$MAXACTVP
 70
    48
  9
$PINSBASE
 10
0.0
 20
0.0
 30
0.0
  9
$PLIMCHECK
 70
     0
  9
$PEXTMIN
 10
1.000000E+20
 20
1.000000E+20
 30
1.000000E+20
  9
$PEXTMAX
 10
-1.000000E+20
 20
-1.000000E+20
 30
-1.000000E+20
  9
$PLIMMIN
 10
0.0
 20
0.0
  9
$PLIMMAX
 10
12.0
 20
9.0
  9
$UNITMODE
 70
     0
  9
$VISRETAIN
 70
     1
  9
$PLINEGEN
 70
     0
  9
$PSLTSCALE
 70
     1
  9
$TREEDEPTH
 70
  3020
  9
$PICKSTYLE
 70
     1
  9
$CMLSTYLE
  2
STANDARD
  9
$CMLJUST
 70
     0
  9
$CMLSCALE
 40
1.0
  9
$PROXYGRAPHICS
 70
     1
  9
$MEASUREMENT
 70
     0
  0
ENDSEC
  0
SECTION
  2
CLASSES
  0
ENDSEC
  0
SECTION
  2
TABLES
  0
TABLE
  2
VPORT
  5
8
100
AcDbSymbolTable
 70
     4
  0
VPORT
  5
E42
100
AcDbSymbolTableRecord
100
AcDbViewportTableRecord
  2
*ACTIVE
 70
     0
 10
0.0
 20
0.0
 11
1.0
 21
1.0
 12
1.900269
 22
2.59018
 13
0.0
 23
0.0
 14
0.5
 24
0.5
 15
0.5
 25
0.5
 16
0.0
 26
0.0
 36
1.0
 17
0.0
 27
0.0
 37
0.0
 40
8.45088
 41
1.639706
 42
50.0
 43
0.0
 44
0.0
 50
0.0
 51
0.0
 71
     0
 72
   100
 73
     1
 74
     1
 75
     0
 76
     0
 77
     0
 78
     0
  0
ENDTAB
  0
TABLE
  2
LTYPE
  5
5
100
AcDbSymbolTable
 70
     1
  0
LTYPE
  5
12
100
AcDbSymbolTableRecord
100
AcDbLinetypeTableRecord
  2
BYBLOCK
 70
     0
  3

 72
    65
 73
     0
 40
0.0
  0
LTYPE
  5
13
100
AcDbSymbolTableRecord
100
AcDbLinetypeTableRecord
  2
BYLAYER
 70
     0
  3

 72
    65
 73
     0
 40
0.0
  0
LTYPE
  5
14
100
AcDbSymbolTableRecord
100
AcDbLinetypeTableRecord
  2
CONTINUOUS
 70
     0
  3
Solid line
 72
    65
 73
     0
 40
0.0
  0
ENDTAB
  0
TABLE
  2
LAYER
  5
2
100
AcDbSymbolTable
 70
     2
  0
LAYER
  5
E
100
AcDbSymbolTableRecord
100
AcDbLayerTableRecord
  2
0
 70
     0
 62
     7
  6
CONTINUOUS
  0
LAYER
  5
2D
100
AcDbSymbolTableRecord
100
AcDbLayerTableRecord
  2
DEFPOINTS
 70
     0
 62
     7
  6
CONTINUOUS
  0
ENDTAB
  0
TABLE
  2
STYLE
  5
3
100
AcDbSymbolTable
 70
     1
  0
STYLE
  5
F
100
AcDbSymbolTableRecord
100
AcDbTextStyleTableRecord
  2
STANDARD
 70
     0
 40
0.0
 41
1.0
 50
0.0
 71
     0
 42
0.2
  3
txt
  4

  0
ENDTAB
  0
TABLE
  2
VIEW
  5
6
100
AcDbSymbolTable
 70
     0
  0
ENDTAB
  0
TABLE
  2
UCS
  5
7
100
AcDbSymbolTable
 70
     0
  0
ENDTAB
  0
TABLE
  2
APPID
  5
9
100
AcDbSymbolTable
 70
     1
  0
APPID
  5
10
100
AcDbSymbolTableRecord
100
AcDbRegAppTableRecord
  2
ACAD
 70
     0
  0
ENDTAB
  0
TABLE
  2
DIMSTYLE
  5
A
100
AcDbSymbolTable
 70
     1
  0
DIMSTYLE
105
1D
102
{ACAD_REACTORS
330
E03
330
E11
102
}
100
AcDbSymbolTableRecord
100
AcDbDimStyleTableRecord
  2
STANDARD
 70
     0
  3

  4

  5

  6

  7

 40
1.0
 41
0.18
 42
0.0625
 43
0.38
 44
0.18
 45
0.0
 46
0.0
 47
0.0
 48
0.0
140
0.18
141
0.09
142
0.0
143
25.4
144
1.0
145
0.0
146
1.0
147
0.09
 71
     0
 72
     0
 73
     1
 74
     1
 75
     0
 76
     0
 77
     0
 78
     0
170
     0
171
     2
172
     0
173
     0
174
     0
175
     0
176
     0
177
     0
178
     0
270
     2
271
     4
272
     4
273
     2
274
     2
340
F
275
     0
280
     0
281
     0
282
     0
283
     1
284
     0
285
     0
286
     0
287
     3
288
     0
  0
ENDTAB
  0
TABLE
  2
BLOCK_RECORD
  5
1
100
AcDbSymbolTable
 70
     5
  0
BLOCK_RECORD
  5
18
100
AcDbSymbolTableRecord
100
AcDbBlockTableRecord
  2
*MODEL_SPACE
  0
BLOCK_RECORD
  5
15
100
AcDbSymbolTableRecord
100
AcDbBlockTableRecord
  2
*PAPER_SPACE
  0
BLOCK_RECORD
  5
DF6
100
AcDbSymbolTableRecord
100
AcDbBlockTableRecord
  2
*D3
  0
BLOCK_RECORD
  5
E04
100
AcDbSymbolTableRecord
100
AcDbBlockTableRecord
  2
*D4
  0
ENDTAB
  0
ENDSEC
  0
SECTION
  2
BLOCKS
  0
BLOCK
  5
19
100
AcDbEntity
  8
0
100
AcDbBlockBegin
  2
*MODEL_SPACE
 70
     0
 10
0.0
 20
0.0
 30
0.0
  3
*MODEL_SPACE
  1

  0
ENDBLK
  5
1A
100
AcDbEntity
  8
0
100
AcDbBlockEnd
  0
BLOCK
  5
16
100
AcDbEntity
 67
     1
  8
0
100
AcDbBlockBegin
  2
*PAPER_SPACE
 70
     0
 10
0.0
 20
0.0
 30
0.0
  3
*PAPER_SPACE
  1

  0
ENDBLK
  5
17
100
AcDbEntity
 67
     1
  8
0
100
AcDbBlockEnd
  0
BLOCK
  5
E2A
100
AcDbEntity
  8
0
100
AcDbBlockBegin
  2
*D3
 70
     1
 10
0.0
 20
0.0
 30
0.0
  3
*D3
  1

  0
LINE
  5
E2B
100
AcDbEntity
  8
0
  6
BYBLOCK
 62
     0
100
AcDbLine
 10
-1.471649
 20
5.939661
 30
0.0
 11
-1.471649
 21
6.429644
 31
0.0
  0
LINE
  5
E2C
100
AcDbEntity
  8
0
  6
BYBLOCK
 62
     0
100
AcDbLine
 10
0.018964
 20
5.939661
 30
0.0
 11
0.018964
 21
6.429644
 31
0.0
  0
LINE
  5
E2D
100
AcDbEntity
  8
0
  6
BYBLOCK
 62
     0
100
AcDbLine
 10
-1.291649
 20
6.249644
 30
0.0
 11
-1.056342
 21
6.249644
 31
0.0
  0
LINE
  5
E2E
100
AcDbEntity
  8
0
  6
BYBLOCK
 62
     0
100
AcDbLine
 10
-0.161036
 20
6.249644
 30
0.0
 11
-0.396342
 21
6.249644
 31
0.0
  0
SOLID
  5
E2F
100
AcDbEntity
  8
0
  6
BYBLOCK
 62
     0
100
AcDbTrace
 10
-1.291649
 20
6.279644
 30
0.0
 11
-1.291649
 21
6.219644
 31
0.0
 12
-1.471649
 22
6.249644
 32
0.0
 13
-1.471649
 23
6.249644
 33
0.0
  0
SOLID
  5
E30
100
AcDbEntity
  8
0
  6
BYBLOCK
 62
     0
100
AcDbTrace
 10
-0.161036
 20
6.279644
 30
0.0
 11
-0.161036
 21
6.219644
 31
0.0
 12
0.018964
 22
6.249644
 32
0.0
 13
0.018964
 23
6.249644
 33
0.0
  0
MTEXT
  5
E31
100
AcDbEntity
  8
0
  6
BYBLOCK
 62
     0
100
AcDbMText
 10
-0.726342
 20
6.249644
 30
0.0
 40
0.18
 41
0.0
 71
     5
 72
     1
  1
\A1;1.49
  0
POINT
  5
E32
100
AcDbEntity
  8
DEFPOINTS
  6
BYBLOCK
 62
     0
100
AcDbPoint
 10
-1.471649
 20
5.877161
 30
0.0
  0
POINT
  5
E33
100
AcDbEntity
  8
DEFPOINTS
  6
BYBLOCK
 62
     0
100
AcDbPoint
 10
0.018964
 20
5.877161
 30
0.0
  0
POINT
  5
E34
100
AcDbEntity
  8
DEFPOINTS
  6
BYBLOCK
 62
     0
100
AcDbPoint
 10
0.018964
 20
6.249644
 30
0.0
  0
ENDBLK
  5
E35
100
AcDbEntity
  8
0
100
AcDbBlockEnd
  0
BLOCK
  5
E36
100
AcDbEntity
  8
0
100
AcDbBlockBegin
  2
*D4
 70
     1
 10
0.0
 20
0.0
 30
0.0
  3
*D4
  1

  0
LINE
  5
E37
100
AcDbEntity
  8
0
  6
BYBLOCK
 62
     0
100
AcDbLine
 10
0.081464
 20
5.877161
 30
0.0
 11
1.397507
 21
5.877161
 31
0.0
  0
LINE
  5
E38
100
AcDbEntity
  8
0
  6
BYBLOCK
 62
     0
100
AcDbLine
 10
0.081464
 20
-0.700694
 30
0.0
 11
1.397507
 21
-0.700694
 31
0.0
  0
LINE
  5
E39
100
AcDbEntity
  8
0
  6
BYBLOCK
 62
     0
100
AcDbLine
 10
1.217507
 20
5.697161
 30
0.0
 11
1.217507
 21
2.768233
 31
0.0
  0
LINE
  5
E3A
100
AcDbEntity
  8
0
  6
BYBLOCK
 62
     0
100
AcDbLine
 10
1.217507
 20
-0.520694
 30
0.0
 11
1.217507
 21
2.408233
 31
0.0
  0
SOLID
  5
E3B
100
AcDbEntity
  8
0
  6
BYBLOCK
 62
     0
100
AcDbTrace
 10
1.187507
 20
5.697161
 30
0.0
 11
1.247507
 21
5.697161
 31
0.0
 12
1.217507
 22
5.877161
 32
0.0
 13
1.217507
 23
5.877161
 33
0.0
  0
SOLID
  5
E3C
100
AcDbEntity
  8
0
  6
BYBLOCK
 62
     0
100
AcDbTrace
 10
1.187507
 20
-0.520694
 30
0.0
 11
1.247507
 21
-0.520694
 31
0.0
 12
1.217507
 22
-0.700694
 32
0.0
 13
1.217507
 23
-0.700694
 33
0.0
  0
MTEXT
  5
E3D
100
AcDbEntity
  8
0
  6
BYBLOCK
 62
     0
100
AcDbMText
 10
1.217507
 20
2.588233
 30
0.0
 40
0.18
 41
0.0
 71
     5
 72
     1
  1
\A1;6.58
  0
POINT
  5
E3E
100
AcDbEntity
  8
DEFPOINTS
  6
BYBLOCK
 62
     0
100
AcDbPoint
 10
0.018964
 20
5.877161
 30
0.0
  0
POINT
  5
E3F
100
AcDbEntity
  8
DEFPOINTS
  6
BYBLOCK
 62
     0
100
AcDbPoint
 10
0.018964
 20
-0.700694
 30
0.0
  0
POINT
  5
E40
100
AcDbEntity
  8
DEFPOINTS
  6
BYBLOCK
 62
     0
100
AcDbPoint
 10
1.217507
 20
-0.700694
 30
0.0
  0
ENDBLK
  5
E41
100
AcDbEntity
  8
0
100
AcDbBlockEnd
  0
ENDSEC
  0
SECTION
  2
ENTITIES
  0
LINE
  5
6FA
100
AcDbEntity
  8
0
100
AcDbLine
 10
-0.516252
 20
0.449841
 30
0.0
 11
-0.366153
 21
0.389145
 31
0.0
  0
LINE
  5
6FB
100
AcDbEntity
  8
0
100
AcDbLine
 10
-0.516252
 20
0.531514
 30
0.0
 11
-0.366111
 21
0.592227
 31
0.0
  0
LINE
  5
6FD
100
AcDbEntity
  8
0
100
AcDbLine
 10
-0.516252
 20
0.772552
 30
0.0
 11
-0.366153
 21
0.711856
 31
0.0
  0
LINE
  5
6FE
100
AcDbEntity
  8
0
100
AcDbLine
 10
-0.516252
 20
0.208802
 30
0.0
 11
-0.366153
 21
0.269498
 31
0.0
  0
ARC
  5
701
100
AcDbEntity
  8
0
100
AcDbCircle
 10
-0.564987
 20
0.329322
 30
0.0
 40
0.13
100
AcDbArc
 50
67.982876
 51
83.37419
  0
CIRCLE
  5
702
100
AcDbEntity
  8
0
100
AcDbCircle
 10
-0.564987
 20
0.329322
 30
0.0
 40
0.086
  0
ARC
  5
703
100
AcDbEntity
  8
0
100
AcDbCircle
 10
-0.564987
 20
0.652033
 30
0.0
 40
0.13
100
AcDbArc
 50
67.982876
 51
83.37419
  0
CIRCLE
  5
704
100
AcDbEntity
  8
0
100
AcDbCircle
 10
-0.564987
 20
0.652033
 30
0.0
 40
0.086
  0
ARC
  5
70B
100
AcDbEntity
  8
0
100
AcDbCircle
 10
-0.111036
 20
0.490822
 30
0.0
 40
0.13
100
AcDbArc
 50
276.62581
 51
83.37419
  0
ARC
  5
70C
100
AcDbEntity
  8
0
100
AcDbCircle
 10
-0.111036
 20
0.490822
 30
0.0
 40
0.13
100
AcDbArc
 50
247.982879
 51
263.37419
  0
CIRCLE
  5
713
100
AcDbEntity
  8
0
100
AcDbCircle
 10
-0.111036
 20
0.490822
 30
0.0
 40
0.086
  0
LINE
  5
714
100
AcDbEntity
  8
0
100
AcDbLine
 10
-0.159771
 20
0.370302
 30
0.0
 11
-0.30987
 21
0.430998
 31
0.0
  0
ARC
  5
718
100
AcDbEntity
  8
0
100
AcDbCircle
 10
-0.381021
 20
0.329322
 30
0.0
 40
0.061034
100
AcDbArc
 50
312.267861
 51
47.732142
  0
LINE
  5
71B
100
AcDbEntity
  8
0
100
AcDbLine
 10
-0.159771
 20
0.611341
 30
0.0
 11
-0.309912
 21
0.550628
 31
0.0
  0
ARC
  5
71F
100
AcDbEntity
  8
0
100
AcDbCircle
 10
-0.295002
 20
0.490822
 30
0.0
 40
0.061034
100
AcDbArc
 50
132.310372
 51
227.732142
  0
ARC
  5
722
100
AcDbEntity
  8
0
100
AcDbCircle
 10
-0.381021
 20
0.652033
 30
0.0
 40
0.061034
100
AcDbArc
 50
312.310372
 51
47.732142
  0
LINE
  5
738
100
AcDbEntity
  8
0
100
AcDbLine
 10
-0.336053
 20
0.445656
 30
0.0
 11
-0.366153
 21
0.389145
 31
0.0
  0
LINE
  5
739
100
AcDbEntity
  8
0
100
AcDbLine
 10
-0.30987
 20
0.430998
 30
0.0
 11
-0.339969
 21
0.374487
 31
0.0
  0
LINE
  5
73A
100
AcDbEntity
  8
0
100
AcDbLine
 10
-0.366111
 20
0.592227
 30
0.0
 11
-0.336087
 21
0.535957
 31
0.0
  0
LINE
  5
73B
100
AcDbEntity
  8
0
100
AcDbLine
 10
-0.339936
 20
0.606898
 30
0.0
 11
-0.309912
 21
0.550628
 31
0.0
  0
LINE
  5
73D
100
AcDbEntity
  8
0
100
AcDbLine
 10
-0.30987
 20
0.75371
 30
0.0
 11
-0.339969
 21
0.697199
 31
0.0
  0
LINE
  5
73E
100
AcDbEntity
  8
0
100
AcDbLine
 10
-0.126036
 20
0.619953
 30
0.0
 11
-0.126036
 21
0.684401
 31
0.0
  0
LINE
  5
73F
100
AcDbEntity
  8
0
100
AcDbLine
 10
-0.096036
 20
0.619953
 30
0.0
 11
-0.096036
 21
0.684401
 31
0.0
  0
LINE
  5
750
100
AcDbEntity
  8
0
100
AcDbLine
 10
-0.336053
 20
0.768367
 30
0.0
 11
-0.366153
 21
0.711856
 31
0.0
  0
ARC
  5
753
100
AcDbEntity
  8
0
100
AcDbCircle
 10
-0.111036
 20
0.490822
 30
0.0
 40
0.13
100
AcDbArc
 50
96.62581
 51
112.017124
  0
ARC
  5
75B
100
AcDbEntity
  8
0
100
AcDbCircle
 10
-0.564987
 20
0.652033
 30
0.0
 40
0.13
100
AcDbArc
 50
96.62581
 51
173.37419
  0
ARC
  5
75C
100
AcDbEntity
  8
0
100
AcDbCircle
 10
-0.564987
 20
0.652033
 30
0.0
 40
0.13
100
AcDbArc
 50
186.62581
 51
263.37419
  0
ARC
  5
75D
100
AcDbEntity
  8
0
100
AcDbCircle
 10
-0.564987
 20
0.652033
 30
0.0
 40
0.13
100
AcDbArc
 50
276.62581
 51
292.017121
  0
LINE
  5
75E
100
AcDbEntity
  8
0
100
AcDbLine
 10
-0.549987
 20
0.458453
 30
0.0
 11
-0.549987
 21
0.522901
 31
0.0
  0
LINE
  5
75F
100
AcDbEntity
  8
0
100
AcDbLine
 10
-0.579987
 20
0.458453
 30
0.0
 11
-0.579987
 21
0.522901
 31
0.0
  0
ARC
  5
760
100
AcDbEntity
  8
0
100
AcDbCircle
 10
-0.564987
 20
0.329322
 30
0.0
 40
0.13
100
AcDbArc
 50
96.62581
 51
173.37419
  0
ARC
  5
761
100
AcDbEntity
  8
0
100
AcDbCircle
 10
-0.564987
 20
0.329322
 30
0.0
 40
0.13
100
AcDbArc
 50
186.62581
 51
263.37419
  0
ARC
  5
762
100
AcDbEntity
  8
0
100
AcDbCircle
 10
-0.564987
 20
0.329322
 30
0.0
 40
0.13
100
AcDbArc
 50
276.62581
 51
292.017121
  0
LINE
  5
768
100
AcDbEntity
  8
0
100
AcDbLine
 10
-0.126036
 20
0.297242
 30
0.0
 11
-0.126036
 21
0.36169
 31
0.0
  0
LINE
  5
769
100
AcDbEntity
  8
0
100
AcDbLine
 10
-0.096036
 20
0.297242
 30
0.0
 11
-0.096036
 21
0.36169
 31
0.0
  0
LINE
  5
76E
100
AcDbEntity
  8
0
100
AcDbLine
 10
-0.366145
 20
0.269485
 30
0.0
 11
-0.33612
 21
0.213215
 31
0.0
  0
LINE
  5
76F
100
AcDbEntity
  8
0
100
AcDbLine
 10
-0.339969
 20
0.284156
 30
0.0
 11
-0.309945
 21
0.227886
 31
0.0
  0
LINE
  5
770
100
AcDbEntity
  8
0
100
AcDbLine
 10
-0.579987
 20
0.135742
 30
0.0
 11
-0.579987
 21
0.20019
 31
0.0
  0
LINE
  5
771
100
AcDbEntity
  8
0
100
AcDbLine
 10
-0.549987
 20
0.135742
 30
0.0
 11
-0.549987
 21
0.20019
 31
0.0
  0
LINE
  5
772
100
AcDbEntity
  8
0
100
AcDbLine
 10
-0.579987
 20
0.781165
 30
0.0
 11
-0.579987
 21
0.845613
 31
0.0
  0
LINE
  5
773
100
AcDbEntity
  8
0
100
AcDbLine
 10
-0.549987
 20
0.781165
 30
0.0
 11
-0.549987
 21
0.845613
 31
0.0
  0
LINE
  5
77C
100
AcDbEntity
  8
0
100
AcDbLine
 10
-0.758567
 20
0.344322
 30
0.0
 11
-0.694118
 21
0.344322
 31
0.0
  0
LINE
  5
77D
100
AcDbEntity
  8
0
100
AcDbLine
 10
-0.758567
 20
0.314322
 30
0.0
 11
-0.694118
 21
0.314322
 31
0.0
  0
LINE
  5
77E
100
AcDbEntity
  8
0
100
AcDbLine
 10
-0.758567
 20
0.667033
 30
0.0
 11
-0.694118
 21
0.667033
 31
0.0
  0
LINE
  5
77F
100
AcDbEntity
  8
0
100
AcDbLine
 10
-0.758567
 20
0.637033
 30
0.0
 11
-0.694118
 21
0.637033
 31
0.0
  0
LINE
  5
780
100
AcDbEntity
  8
0
100
AcDbLine
 10
-1.326649
 20
0.619665
 30
0.0
 11
-1.326649
 21
0.684113
 31
0.0
  0
LINE
  5
781
100
AcDbEntity
  8
0
100
AcDbLine
 10
-1.356649
 20
0.619665
 30
0.0
 11
-1.356649
 21
0.684113
 31
0.0
  0
ARC
  5
782
100
AcDbEntity
  8
0
100
AcDbCircle
 10
-1.071664
 20
0.652033
 30
0.0
 40
0.061034
100
AcDbArc
 50
132.267855
 51
227.732142
  0
CIRCLE
  5
783
100
AcDbEntity
  8
0
100
AcDbCircle
 10
-0.887698
 20
0.652033
 30
0.0
 40
0.086
  0
LINE
  5
784
100
AcDbEntity
  8
0
100
AcDbLine
 10
-1.292914
 20
0.288341
 30
0.0
 11
-1.142815
 21
0.227645
 31
0.0
  0
LINE
  5
785
100
AcDbEntity
  8
0
100
AcDbLine
 10
-1.292914
 20
0.047302
 30
0.0
 11
-1.142815
 21
0.107998
 31
0.0
  0
LINE
  5
786
100
AcDbEntity
  8
0
100
AcDbLine
 10
-1.292914
 20
0.370014
 30
0.0
 11
-1.142773
 21
0.430727
 31
0.0
  0
LINE
  5
787
100
AcDbEntity
  8
0
100
AcDbLine
 10
-1.292914
 20
0.611052
 30
0.0
 11
-1.142815
 21
0.550356
 31
0.0
  0
ARC
  5
788
100
AcDbEntity
  8
0
100
AcDbCircle
 10
-1.341649
 20
0.167822
 30
0.0
 40
0.13
100
AcDbArc
 50
96.62581
 51
263.37419
  0
ARC
  5
789
100
AcDbEntity
  8
0
100
AcDbCircle
 10
-1.341649
 20
0.167822
 30
0.0
 40
0.13
100
AcDbArc
 50
67.982876
 51
83.37419
  0
CIRCLE
  5
78B
100
AcDbEntity
  8
0
100
AcDbCircle
 10
-1.341649
 20
0.167822
 30
0.0
 40
0.086
  0
LINE
  5
78C
100
AcDbEntity
  8
0
100
AcDbLine
 10
-1.326649
 20
-0.025758
 30
0.0
 11
-1.326649
 21
0.03869
 31
0.0
  0
LINE
  5
78D
100
AcDbEntity
  8
0
100
AcDbLine
 10
-1.356649
 20
-0.025758
 30
0.0
 11
-1.356649
 21
0.03869
 31
0.0
  0
ARC
  5
78E
100
AcDbEntity
  8
0
100
AcDbCircle
 10
-1.341649
 20
0.167822
 30
0.0
 40
0.13
100
AcDbArc
 50
276.62581
 51
292.017121
  0
ARC
  5
790
100
AcDbEntity
  8
0
100
AcDbCircle
 10
-1.341649
 20
0.490533
 30
0.0
 40
0.13
100
AcDbArc
 50
96.62581
 51
263.37419
  0
CIRCLE
  5
791
100
AcDbEntity
  8
0
100
AcDbCircle
 10
-1.341649
 20
0.490533
 30
0.0
 40
0.086
  0
LINE
  5
792
100
AcDbEntity
  8
0
100
AcDbLine
 10
-1.356649
 20
0.296953
 30
0.0
 11
-1.356649
 21
0.361401
 31
0.0
  0
LINE
  5
793
100
AcDbEntity
  8
0
100
AcDbLine
 10
-1.326649
 20
0.296953
 30
0.0
 11
-1.326649
 21
0.361401
 31
0.0
  0
ARC
  5
794
100
AcDbEntity
  8
0
100
AcDbCircle
 10
-1.341649
 20
0.490533
 30
0.0
 40
0.13
100
AcDbArc
 50
276.62581
 51
292.017121
  0
ARC
  5
795
100
AcDbEntity
  8
0
100
AcDbCircle
 10
-1.341649
 20
0.490533
 30
0.0
 40
0.13
100
AcDbArc
 50
67.982876
 51
83.37419
  0
ARC
  5
796
100
AcDbEntity
  8
0
100
AcDbCircle
 10
-0.887698
 20
0.329322
 30
0.0
 40
0.13
100
AcDbArc
 50
276.62581
 51
353.37419
  0
ARC
  5
797
100
AcDbEntity
  8
0
100
AcDbCircle
 10
-1.071664
 20
0.329322
 30
0.0
 40
0.061034
100
AcDbArc
 50
132.310372
 51
227.732142
  0
CIRCLE
  5
798
100
AcDbEntity
  8
0
100
AcDbCircle
 10
-0.887698
 20
0.329322
 30
0.0
 40
0.086
  0
ARC
  5
799
100
AcDbEntity
  8
0
100
AcDbCircle
 10
-0.887698
 20
0.329322
 30
0.0
 40
0.13
100
AcDbArc
 50
247.982879
 51
263.37419
  0
LINE
  5
79A
100
AcDbEntity
  8
0
100
AcDbLine
 10
-1.116631
 20
0.122656
 30
0.0
 11
-1.086607
 21
0.066386
 31
0.0
  0
LINE
  5
79B
100
AcDbEntity
  8
0
100
AcDbLine
 10
-1.142807
 20
0.107985
 30
0.0
 11
-1.112782
 21
0.051715
 31
0.0
  0
LINE
  5
79C
100
AcDbEntity
  8
0
100
AcDbLine
 10
-0.936433
 20
0.208802
 30
0.0
 11
-1.086532
 21
0.269498
 31
0.0
  0
LINE
  5
79D
100
AcDbEntity
  8
0
100
AcDbLine
 10
-1.112715
 20
0.284156
 30
0.0
 11
-1.142815
 21
0.227645
 31
0.0
  0
LINE
  5
79E
100
AcDbEntity
  8
0
100
AcDbLine
 10
-1.086532
 20
0.269498
 30
0.0
 11
-1.116631
 21
0.212987
 31
0.0
  0
ARC
  5
79F
100
AcDbEntity
  8
0
100
AcDbCircle
 10
-1.157683
 20
0.167822
 30
0.0
 40
0.061034
100
AcDbArc
 50
312.267861
 51
47.732142
  0
LINE
  5
7A0
100
AcDbEntity
  8
0
100
AcDbLine
 10
-0.872698
 20
0.135742
 30
0.0
 11
-0.872698
 21
0.20019
 31
0.0
  0
LINE
  5
7A1
100
AcDbEntity
  8
0
100
AcDbLine
 10
-0.902698
 20
0.135742
 30
0.0
 11
-0.902698
 21
0.20019
 31
0.0
  0
ARC
  5
7A2
100
AcDbEntity
  8
0
100
AcDbCircle
 10
-0.887698
 20
0.329322
 30
0.0
 40
0.13
100
AcDbArc
 50
96.62581
 51
112.017124
  0
ARC
  5
7A3
100
AcDbEntity
  8
0
100
AcDbCircle
 10
-0.887698
 20
0.652033
 30
0.0
 40
0.13
100
AcDbArc
 50
247.982879
 51
263.37419
  0
ARC
  5
7A4
100
AcDbEntity
  8
0
100
AcDbCircle
 10
-1.157683
 20
0.490533
 30
0.0
 40
0.061034
100
AcDbArc
 50
312.310372
 51
47.732142
  0
LINE
  5
7A5
100
AcDbEntity
  8
0
100
AcDbLine
 10
-0.936433
 20
0.449841
 30
0.0
 11
-1.086574
 21
0.389128
 31
0.0
  0
LINE
  5
7A6
100
AcDbEntity
  8
0
100
AcDbLine
 10
-1.116598
 20
0.445398
 30
0.0
 11
-1.086574
 21
0.389128
 31
0.0
  0
LINE
  5
7A7
100
AcDbEntity
  8
0
100
AcDbLine
 10
-1.142773
 20
0.430727
 30
0.0
 11
-1.112749
 21
0.374457
 31
0.0
  0
LINE
  5
7A8
100
AcDbEntity
  8
0
100
AcDbLine
 10
-0.936433
 20
0.531514
 30
0.0
 11
-1.086532
 21
0.59221
 31
0.0
  0
LINE
  5
7A9
100
AcDbEntity
  8
0
100
AcDbLine
 10
-1.086532
 20
0.59221
 30
0.0
 11
-1.116631
 21
0.535699
 31
0.0
  0
LINE
  5
7AA
100
AcDbEntity
  8
0
100
AcDbLine
 10
-1.112715
 20
0.606867
 30
0.0
 11
-1.142815
 21
0.550356
 31
0.0
  0
ARC
  5
7AB
100
AcDbEntity
  8
0
100
AcDbCircle
 10
-0.887698
 20
0.329322
 30
0.0
 40
0.13
100
AcDbArc
 50
6.62581
 51
83.37419
  0
LINE
  5
7AC
100
AcDbEntity
  8
0
100
AcDbLine
 10
-0.872698
 20
0.458453
 30
0.0
 11
-0.872698
 21
0.522901
 31
0.0
  0
LINE
  5
7AD
100
AcDbEntity
  8
0
100
AcDbLine
 10
-0.902698
 20
0.458453
 30
0.0
 11
-0.902698
 21
0.522901
 31
0.0
  0
ARC
  5
7AE
100
AcDbEntity
  8
0
100
AcDbCircle
 10
-0.887698
 20
0.652033
 30
0.0
 40
0.13
100
AcDbArc
 50
276.62581
 51
353.37419
  0
ARC
  5
7AF
100
AcDbEntity
  8
0
100
AcDbCircle
 10
-0.887698
 20
0.652033
 30
0.0
 40
0.13
100
AcDbArc
 50
96.62581
 51
112.017124
  0
LINE
  5
7B0
100
AcDbEntity
  8
0
100
AcDbLine
 10
-0.936433
 20
0.772552
 30
0.0
 11
-1.086532
 21
0.711856
 31
0.0
  0
LINE
  5
7B1
100
AcDbEntity
  8
0
100
AcDbLine
 10
-1.142732
 20
0.753455
 30
0.0
 11
-1.112708
 21
0.697185
 31
0.0
  0
LINE
  5
7B2
100
AcDbEntity
  8
0
100
AcDbLine
 10
-1.116557
 20
0.768126
 30
0.0
 11
-1.086532
 21
0.711856
 31
0.0
  0
LINE
  5
7B3
100
AcDbEntity
  8
0
100
AcDbLine
 10
-0.872698
 20
0.781165
 30
0.0
 11
-0.872698
 21
0.845613
 31
0.0
  0
LINE
  5
7B4
100
AcDbEntity
  8
0
100
AcDbLine
 10
-0.902698
 20
0.781165
 30
0.0
 11
-0.902698
 21
0.845613
 31
0.0
  0
ARC
  5
7B5
100
AcDbEntity
  8
0
100
AcDbCircle
 10
-0.887698
 20
0.652033
 30
0.0
 40
0.13
100
AcDbArc
 50
6.62581
 51
83.37419
  0
LINE
  5
7B6
100
AcDbEntity
  8
0
100
AcDbLine
 10
-0.902698
 20
0.736715
 30
0.0
 11
-0.902698
 21
0.738033
 31
0.0
  0
LINE
  5
7B7
100
AcDbEntity
  8
0
100
AcDbLine
 10
-0.872698
 20
0.736715
 30
0.0
 11
-0.872698
 21
0.738033
 31
0.0
  0
ARC
  5
7BA
100
AcDbEntity
  8
0
100
AcDbCircle
 10
-0.295002
 20
0.16811
 30
0.0
 40
0.061034
100
AcDbArc
 50
132.267855
 51
227.732142
  0
CIRCLE
  5
7BB
100
AcDbEntity
  8
0
100
AcDbCircle
 10
-0.111036
 20
0.16811
 30
0.0
 40
0.086
  0
LINE
  5
7BD
100
AcDbEntity
  8
0
100
AcDbLine
 10
-0.159771
 20
0.047591
 30
0.0
 11
-0.30987
 21
0.108287
 31
0.0
  0
LINE
  5
7BE
100
AcDbEntity
  8
0
100
AcDbLine
 10
-0.30987
 20
0.108287
 30
0.0
 11
-0.339969
 21
0.051776
 31
0.0
  0
LINE
  5
7BF
100
AcDbEntity
  8
0
100
AcDbLine
 10
-0.336053
 20
0.122944
 30
0.0
 11
-0.366153
 21
0.066433
 31
0.0
  0
ARC
  5
7C0
100
AcDbEntity
  8
0
100
AcDbCircle
 10
-0.111036
 20
0.16811
 30
0.0
 40
0.13
100
AcDbArc
 50
247.982879
 51
263.37419
  0
ARC
  5
7C1
100
AcDbEntity
  8
0
100
AcDbCircle
 10
-0.111036
 20
0.16811
 30
0.0
 40
0.13
100
AcDbArc
 50
96.62581
 51
112.017124
  0
LINE
  5
7C2
100
AcDbEntity
  8
0
100
AcDbLine
 10
-0.159771
 20
0.288629
 30
0.0
 11
-0.30987
 21
0.227933
 31
0.0
  0
LINE
  5
7C3
100
AcDbEntity
  8
0
100
AcDbLine
 10
-0.36607
 20
0.269532
 30
0.0
 11
-0.336046
 21
0.213262
 31
0.0
  0
LINE
  5
7C4
100
AcDbEntity
  8
0
100
AcDbLine
 10
-0.339895
 20
0.284203
 30
0.0
 11
-0.30987
 21
0.227933
 31
0.0
  0
LINE
  5
7C5
100
AcDbEntity
  8
0
100
AcDbLine
 10
-0.096036
 20
0.297242
 30
0.0
 11
-0.096036
 21
0.36169
 31
0.0
  0
LINE
  5
7C6
100
AcDbEntity
  8
0
100
AcDbLine
 10
-0.126036
 20
0.297242
 30
0.0
 11
-0.126036
 21
0.36169
 31
0.0
  0
LINE
  5
AD5
100
AcDbEntity
  8
0
100
AcDbLine
 10
-0.366145
 20
0.914885
 30
0.0
 11
-0.33612
 21
0.858615
 31
0.0
  0
LINE
  5
AD6
100
AcDbEntity
  8
0
100
AcDbLine
 10
-0.36607
 20
0.914932
 30
0.0
 11
-0.336046
 21
0.858662
 31
0.0
  0
LINE
  5
AD7
100
AcDbEntity
  8
0
100
AcDbLine
 10
-0.339969
 20
0.929556
 30
0.0
 11
-0.309945
 21
0.873286
 31
0.0
  0
LINE
  5
AD8
100
AcDbEntity
  8
0
100
AcDbLine
 10
-0.159771
 20
0.934029
 30
0.0
 11
-0.30987
 21
0.873333
 31
0.0
  0
LINE
  5
AD9
100
AcDbEntity
  8
0
100
AcDbLine
 10
-0.339895
 20
0.929603
 30
0.0
 11
-0.30987
 21
0.873333
 31
0.0
  0
CIRCLE
  5
ADA
100
AcDbEntity
  8
0
100
AcDbCircle
 10
-0.564987
 20
0.974722
 30
0.0
 40
0.086
  0
ARC
  5
ADB
100
AcDbEntity
  8
0
100
AcDbCircle
 10
-0.564987
 20
0.974722
 30
0.0
 40
0.13
100
AcDbArc
 50
186.62581
 51
263.37419
  0
LINE
  5
ADC
100
AcDbEntity
  8
0
100
AcDbLine
 10
-0.516252
 20
0.854202
 30
0.0
 11
-0.366153
 21
0.914898
 31
0.0
  0
LINE
  5
ADD
100
AcDbEntity
  8
0
100
AcDbLine
 10
-0.936433
 20
0.854202
 30
0.0
 11
-1.086532
 21
0.914898
 31
0.0
  0
LINE
  5
ADE
100
AcDbEntity
  8
0
100
AcDbLine
 10
-1.292914
 20
0.933741
 30
0.0
 11
-1.142815
 21
0.873045
 31
0.0
  0
LINE
  5
ADF
100
AcDbEntity
  8
0
100
AcDbLine
 10
-1.112715
 20
0.929556
 30
0.0
 11
-1.142815
 21
0.873045
 31
0.0
  0
LINE
  5
AE0
100
AcDbEntity
  8
0
100
AcDbLine
 10
-1.086532
 20
0.914898
 30
0.0
 11
-1.116631
 21
0.858387
 31
0.0
  0
ARC
  5
AE1
100
AcDbEntity
  8
0
100
AcDbCircle
 10
-0.887698
 20
0.974722
 30
0.0
 40
0.13
100
AcDbArc
 50
276.62581
 51
353.37419
  0
CIRCLE
  5
AE2
100
AcDbEntity
  8
0
100
AcDbCircle
 10
-0.887698
 20
0.974722
 30
0.0
 40
0.086
  0
CIRCLE
  5
AE3
100
AcDbEntity
  8
0
100
AcDbCircle
 10
-1.341649
 20
0.813222
 30
0.0
 40
0.086
  0
CIRCLE
  5
AE4
100
AcDbEntity
  8
0
100
AcDbCircle
 10
-0.111036
 20
0.81351
 30
0.0
 40
0.086
  0
ARC
  5
AE5
100
AcDbEntity
  8
0
100
AcDbCircle
 10
-1.341649
 20
0.813222
 30
0.0
 40
0.13
100
AcDbArc
 50
96.62581
 51
263.37419
  0
ARC
  5
AE6
100
AcDbEntity
  8
0
100
AcDbCircle
 10
-0.111036
 20
0.81351
 30
0.0
 40
0.13
100
AcDbArc
 50
247.982879
 51
83.37419
  0
LINE
  5
AE7
100
AcDbEntity
  8
0
100
AcDbLine
 10
-1.292914
 20
0.692702
 30
0.0
 11
-1.142815
 21
0.753398
 31
0.0
  0
LINE
  5
AE8
100
AcDbEntity
  8
0
100
AcDbLine
 10
-1.326649
 20
0.619642
 30
0.0
 11
-1.326649
 21
0.68409
 31
0.0
  0
LINE
  5
AE9
100
AcDbEntity
  8
0
100
AcDbLine
 10
-1.356649
 20
0.619642
 30
0.0
 11
-1.356649
 21
0.68409
 31
0.0
  0
ARC
  5
AEA
100
AcDbEntity
  8
0
100
AcDbCircle
 10
-1.341649
 20
0.813222
 30
0.0
 40
0.13
100
AcDbArc
 50
276.62581
 51
292.017121
  0
LINE
  5
AEB
100
AcDbEntity
  8
0
100
AcDbLine
 10
-1.116631
 20
0.768056
 30
0.0
 11
-1.086607
 21
0.711786
 31
0.0
  0
LINE
  5
AEC
100
AcDbEntity
  8
0
100
AcDbLine
 10
-1.142807
 20
0.753385
 30
0.0
 11
-1.112782
 21
0.697115
 31
0.0
  0
ARC
  5
AED
100
AcDbEntity
  8
0
100
AcDbCircle
 10
-1.157683
 20
0.813222
 30
0.0
 40
0.061034
100
AcDbArc
 50
312.267861
 51
47.732142
  0
ARC
  5
AEE
100
AcDbEntity
  8
0
100
AcDbCircle
 10
-0.887698
 20
0.974722
 30
0.0
 40
0.13
100
AcDbArc
 50
247.982879
 51
263.37419
  0
LINE
  5
AEF
100
AcDbEntity
  8
0
100
AcDbLine
 10
-0.872698
 20
0.781142
 30
0.0
 11
-0.872698
 21
0.84559
 31
0.0
  0
LINE
  5
AF0
100
AcDbEntity
  8
0
100
AcDbLine
 10
-0.902698
 20
0.781142
 30
0.0
 11
-0.902698
 21
0.84559
 31
0.0
  0
LINE
  5
AF1
100
AcDbEntity
  8
0
100
AcDbLine
 10
-0.579987
 20
0.781142
 30
0.0
 11
-0.579987
 21
0.84559
 31
0.0
  0
LINE
  5
AF2
100
AcDbEntity
  8
0
100
AcDbLine
 10
-0.30987
 20
0.753687
 30
0.0
 11
-0.339969
 21
0.697176
 31
0.0
  0
LINE
  5
AF3
100
AcDbEntity
  8
0
100
AcDbLine
 10
-0.336053
 20
0.768344
 30
0.0
 11
-0.366153
 21
0.711833
 31
0.0
  0
ARC
  5
AF4
100
AcDbEntity
  8
0
100
AcDbCircle
 10
-0.564987
 20
0.974722
 30
0.0
 40
0.13
100
AcDbArc
 50
276.62581
 51
292.017121
  0
LINE
  5
AF5
100
AcDbEntity
  8
0
100
AcDbLine
 10
-0.549987
 20
0.781142
 30
0.0
 11
-0.549987
 21
0.84559
 31
0.0
  0
ARC
  5
AF6
100
AcDbEntity
  8
0
100
AcDbCircle
 10
-0.295002
 20
0.81351
 30
0.0
 40
0.061034
100
AcDbArc
 50
132.267855
 51
227.732142
  0
LINE
  5
AF7
100
AcDbEntity
  8
0
100
AcDbLine
 10
-0.159771
 20
0.692991
 30
0.0
 11
-0.30987
 21
0.753687
 31
0.0
  0
CIRCLE
  5
AF8
100
AcDbEntity
  8
0
100
AcDbCircle
 10
-0.564987
 20
1.297433
 30
0.0
 40
0.086
  0
LINE
  5
AF9
100
AcDbEntity
  8
0
100
AcDbLine
 10
-0.936433
 20
1.417952
 30
0.0
 11
-1.086532
 21
1.357256
 31
0.0
  0
LINE
  5
AFA
100
AcDbEntity
  8
0
100
AcDbLine
 10
-0.936433
 20
1.176914
 30
0.0
 11
-1.086532
 21
1.23761
 31
0.0
  0
LINE
  5
AFB
100
AcDbEntity
  8
0
100
AcDbLine
 10
-0.936433
 20
1.095241
 30
0.0
 11
-1.086574
 21
1.034528
 31
0.0
  0
LINE
  5
AFC
100
AcDbEntity
  8
0
100
AcDbLine
 10
-1.112715
 20
1.252267
 30
0.0
 11
-1.142815
 21
1.195756
 31
0.0
  0
LINE
  5
AFD
100
AcDbEntity
  8
0
100
AcDbLine
 10
-1.292914
 20
1.256452
 30
0.0
 11
-1.142815
 21
1.195756
 31
0.0
  0
ARC
  5
AFE
100
AcDbEntity
  8
0
100
AcDbCircle
 10
-1.341649
 20
1.135933
 30
0.0
 40
0.13
100
AcDbArc
 50
96.62581
 51
263.37419
  0
LINE
  5
AFF
100
AcDbEntity
  8
0
100
AcDbLine
 10
-1.292914
 20
1.015414
 30
0.0
 11
-1.142773
 21
1.076127
 31
0.0
  0
CIRCLE
  5
B00
100
AcDbEntity
  8
0
100
AcDbCircle
 10
-1.341649
 20
1.135933
 30
0.0
 40
0.086
  0
LINE
  5
B01
100
AcDbEntity
  8
0
100
AcDbLine
 10
-1.326649
 20
0.942353
 30
0.0
 11
-1.326649
 21
1.006801
 31
0.0
  0
LINE
  5
B02
100
AcDbEntity
  8
0
100
AcDbLine
 10
-1.356649
 20
0.942353
 30
0.0
 11
-1.356649
 21
1.006801
 31
0.0
  0
ARC
  5
B03
100
AcDbEntity
  8
0
100
AcDbCircle
 10
-1.341649
 20
0.813222
 30
0.0
 40
0.13
100
AcDbArc
 50
67.982876
 51
83.37419
  0
ARC
  5
B04
100
AcDbEntity
  8
0
100
AcDbCircle
 10
-1.341649
 20
1.135933
 30
0.0
 40
0.13
100
AcDbArc
 50
276.62581
 51
292.017121
  0
LINE
  5
B05
100
AcDbEntity
  8
0
100
AcDbLine
 10
-1.142773
 20
1.076127
 30
0.0
 11
-1.112749
 21
1.019857
 31
0.0
  0
LINE
  5
B06
100
AcDbEntity
  8
0
100
AcDbLine
 10
-1.116598
 20
1.090798
 30
0.0
 11
-1.086574
 21
1.034528
 31
0.0
  0
ARC
  5
B07
100
AcDbEntity
  8
0
100
AcDbCircle
 10
-1.071664
 20
0.974722
 30
0.0
 40
0.061034
100
AcDbArc
 50
132.310372
 51
227.732142
  0
LINE
  5
B08
100
AcDbEntity
  8
0
100
AcDbLine
 10
-1.086532
 20
1.23761
 30
0.0
 11
-1.116631
 21
1.181099
 31
0.0
  0
ARC
  5
B09
100
AcDbEntity
  8
0
100
AcDbCircle
 10
-1.157683
 20
1.135933
 30
0.0
 40
0.061034
100
AcDbArc
 50
312.310372
 51
47.732142
  0
LINE
  5
B0A
100
AcDbEntity
  8
0
100
AcDbLine
 10
-1.326649
 20
1.265065
 30
0.0
 11
-1.326649
 21
1.329513
 31
0.0
  0
LINE
  5
B0B
100
AcDbEntity
  8
0
100
AcDbLine
 10
-1.356649
 20
1.265065
 30
0.0
 11
-1.356649
 21
1.329513
 31
0.0
  0
ARC
  5
B0C
100
AcDbEntity
  8
0
100
AcDbCircle
 10
-1.341649
 20
1.135933
 30
0.0
 40
0.13
100
AcDbArc
 50
67.982876
 51
83.37419
  0
LINE
  5
B0D
100
AcDbEntity
  8
0
100
AcDbLine
 10
-1.142732
 20
1.398855
 30
0.0
 11
-1.112708
 21
1.342585
 31
0.0
  0
ARC
  5
B0E
100
AcDbEntity
  8
0
100
AcDbCircle
 10
-1.071664
 20
1.297433
 30
0.0
 40
0.061034
100
AcDbArc
 50
132.267855
 51
227.732142
  0
LINE
  5
B0F
100
AcDbEntity
  8
0
100
AcDbLine
 10
-1.116557
 20
1.413526
 30
0.0
 11
-1.086532
 21
1.357256
 31
0.0
  0
ARC
  5
B10
100
AcDbEntity
  8
0
100
AcDbCircle
 10
-0.564987
 20
1.297433
 30
0.0
 40
0.13
100
AcDbArc
 50
186.62581
 51
263.37419
  0
CIRCLE
  5
B11
100
AcDbEntity
  8
0
100
AcDbCircle
 10
-0.887698
 20
1.297433
 30
0.0
 40
0.086
  0
ARC
  5
B12
100
AcDbEntity
  8
0
100
AcDbCircle
 10
-0.887698
 20
1.297433
 30
0.0
 40
0.13
100
AcDbArc
 50
276.62581
 51
353.37419
  0
ARC
  5
B13
100
AcDbEntity
  8
0
100
AcDbCircle
 10
-0.887698
 20
0.974722
 30
0.0
 40
0.13
100
AcDbArc
 50
6.62581
 51
83.37419
  0
ARC
  5
B14
100
AcDbEntity
  8
0
100
AcDbCircle
 10
-0.887698
 20
1.297433
 30
0.0
 40
0.13
100
AcDbArc
 50
247.982879
 51
263.37419
  0
ARC
  5
B15
100
AcDbEntity
  8
0
100
AcDbCircle
 10
-0.887698
 20
0.974722
 30
0.0
 40
0.13
100
AcDbArc
 50
96.62581
 51
112.017124
  0
LINE
  5
B16
100
AcDbEntity
  8
0
100
AcDbLine
 10
-0.872698
 20
1.103853
 30
0.0
 11
-0.872698
 21
1.168301
 31
0.0
  0
LINE
  5
B17
100
AcDbEntity
  8
0
100
AcDbLine
 10
-0.902698
 20
1.103853
 30
0.0
 11
-0.902698
 21
1.168301
 31
0.0
  0
ARC
  5
B18
100
AcDbEntity
  8
0
100
AcDbCircle
 10
-0.564987
 20
0.974722
 30
0.0
 40
0.13
100
AcDbArc
 50
96.62581
 51
173.37419
  0
LINE
  5
B19
100
AcDbEntity
  8
0
100
AcDbLine
 10
-0.758567
 20
0.989722
 30
0.0
 11
-0.694118
 21
0.989722
 31
0.0
  0
LINE
  5
B1A
100
AcDbEntity
  8
0
100
AcDbLine
 10
-0.758567
 20
0.959722
 30
0.0
 11
-0.694118
 21
0.959722
 31
0.0
  0
LINE
  5
B1B
100
AcDbEntity
  8
0
100
AcDbLine
 10
-0.579987
 20
1.103853
 30
0.0
 11
-0.579987
 21
1.168301
 31
0.0
  0
ARC
  5
B1C
100
AcDbEntity
  8
0
100
AcDbCircle
 10
-0.887698
 20
1.297433
 30
0.0
 40
0.13
100
AcDbArc
 50
6.62581
 51
83.37419
  0
ARC
  5
B1D
100
AcDbEntity
  8
0
100
AcDbCircle
 10
-0.887698
 20
1.297433
 30
0.0
 40
0.13
100
AcDbArc
 50
96.62581
 51
112.017124
  0
LINE
  5
B1E
100
AcDbEntity
  8
0
100
AcDbLine
 10
-0.902698
 20
1.382115
 30
0.0
 11
-0.902698
 21
1.383433
 31
0.0
  0
LINE
  5
B1F
100
AcDbEntity
  8
0
100
AcDbLine
 10
-0.872698
 20
1.382115
 30
0.0
 11
-0.872698
 21
1.383433
 31
0.0
  0
LINE
  5
B20
100
AcDbEntity
  8
0
100
AcDbLine
 10
-0.872698
 20
1.426565
 30
0.0
 11
-0.872698
 21
1.491013
 31
0.0
  0
LINE
  5
B21
100
AcDbEntity
  8
0
100
AcDbLine
 10
-0.902698
 20
1.426565
 30
0.0
 11
-0.902698
 21
1.491013
 31
0.0
  0
ARC
  5
B22
100
AcDbEntity
  8
0
100
AcDbCircle
 10
-0.564987
 20
1.297433
 30
0.0
 40
0.13
100
AcDbArc
 50
96.62581
 51
173.37419
  0
LINE
  5
B23
100
AcDbEntity
  8
0
100
AcDbLine
 10
-0.758567
 20
1.312433
 30
0.0
 11
-0.694118
 21
1.312433
 31
0.0
  0
LINE
  5
B24
100
AcDbEntity
  8
0
100
AcDbLine
 10
-0.758567
 20
1.282433
 30
0.0
 11
-0.694118
 21
1.282433
 31
0.0
  0
LINE
  5
B25
100
AcDbEntity
  8
0
100
AcDbLine
 10
-0.579987
 20
1.426565
 30
0.0
 11
-0.579987
 21
1.491013
 31
0.0
  0
CIRCLE
  5
B26
100
AcDbEntity
  8
0
100
AcDbCircle
 10
-0.111036
 20
1.136222
 30
0.0
 40
0.086
  0
ARC
  5
B27
100
AcDbEntity
  8
0
100
AcDbCircle
 10
-0.111036
 20
1.136222
 30
0.0
 40
0.13
100
AcDbArc
 50
276.62581
 51
83.37419
  0
LINE
  5
B28
100
AcDbEntity
  8
0
100
AcDbLine
 10
-0.339936
 20
1.252298
 30
0.0
 11
-0.309912
 21
1.196028
 31
0.0
  0
LINE
  5
B29
100
AcDbEntity
  8
0
100
AcDbLine
 10
-0.159771
 20
1.256741
 30
0.0
 11
-0.309912
 21
1.196028
 31
0.0
  0
ARC
  5
B2A
100
AcDbEntity
  8
0
100
AcDbCircle
 10
-0.381021
 20
0.974722
 30
0.0
 40
0.061034
100
AcDbArc
 50
312.267861
 51
47.732142
  0
LINE
  5
B2B
100
AcDbEntity
  8
0
100
AcDbLine
 10
-0.30987
 20
1.076398
 30
0.0
 11
-0.339969
 21
1.019887
 31
0.0
  0
LINE
  5
B2C
100
AcDbEntity
  8
0
100
AcDbLine
 10
-0.336053
 20
1.091056
 30
0.0
 11
-0.366153
 21
1.034545
 31
0.0
  0
LINE
  5
B2D
100
AcDbEntity
  8
0
100
AcDbLine
 10
-0.516252
 20
1.095241
 30
0.0
 11
-0.366153
 21
1.034545
 31
0.0
  0
LINE
  5
B2E
100
AcDbEntity
  8
0
100
AcDbLine
 10
-0.516252
 20
1.176914
 30
0.0
 11
-0.366111
 21
1.237627
 31
0.0
  0
ARC
  5
B2F
100
AcDbEntity
  8
0
100
AcDbCircle
 10
-0.564987
 20
1.297433
 30
0.0
 40
0.13
100
AcDbArc
 50
276.62581
 51
292.017121
  0
LINE
  5
B30
100
AcDbEntity
  8
0
100
AcDbLine
 10
-0.549987
 20
1.103853
 30
0.0
 11
-0.549987
 21
1.168301
 31
0.0
  0
ARC
  5
B31
100
AcDbEntity
  8
0
100
AcDbCircle
 10
-0.564987
 20
0.974722
 30
0.0
 40
0.13
100
AcDbArc
 50
67.982876
 51
83.37419
  0
LINE
  5
B32
100
AcDbEntity
  8
0
100
AcDbLine
 10
-0.366111
 20
1.237627
 30
0.0
 11
-0.336087
 21
1.181357
 31
0.0
  0
ARC
  5
B33
100
AcDbEntity
  8
0
100
AcDbCircle
 10
-0.295002
 20
1.136222
 30
0.0
 40
0.061034
100
AcDbArc
 50
132.310372
 51
227.732142
  0
LINE
  5
B34
100
AcDbEntity
  8
0
100
AcDbLine
 10
-0.159771
 20
1.015702
 30
0.0
 11
-0.30987
 21
1.076398
 31
0.0
  0
LINE
  5
B35
100
AcDbEntity
  8
0
100
AcDbLine
 10
-0.126036
 20
0.942642
 30
0.0
 11
-0.126036
 21
1.00709
 31
0.0
  0
LINE
  5
B36
100
AcDbEntity
  8
0
100
AcDbLine
 10
-0.096036
 20
0.942642
 30
0.0
 11
-0.096036
 21
1.00709
 31
0.0
  0
LINE
  5
B37
100
AcDbEntity
  8
0
100
AcDbLine
 10
-0.126036
 20
0.942642
 30
0.0
 11
-0.126036
 21
1.00709
 31
0.0
  0
LINE
  5
B38
100
AcDbEntity
  8
0
100
AcDbLine
 10
-0.096036
 20
0.942642
 30
0.0
 11
-0.096036
 21
1.00709
 31
0.0
  0
ARC
  5
B39
100
AcDbEntity
  8
0
100
AcDbCircle
 10
-0.111036
 20
1.136222
 30
0.0
 40
0.13
100
AcDbArc
 50
247.982879
 51
263.37419
  0
ARC
  5
B3A
100
AcDbEntity
  8
0
100
AcDbCircle
 10
-0.111036
 20
0.81351
 30
0.0
 40
0.13
100
AcDbArc
 50
96.62581
 51
112.017124
  0
LINE
  5
B3B
100
AcDbEntity
  8
0
100
AcDbLine
 10
-0.30987
 20
1.39911
 30
0.0
 11
-0.339969
 21
1.342599
 31
0.0
  0
ARC
  5
B3C
100
AcDbEntity
  8
0
100
AcDbCircle
 10
-0.381021
 20
1.297433
 30
0.0
 40
0.061034
100
AcDbArc
 50
312.310372
 51
47.732142
  0
ARC
  5
B3D
100
AcDbEntity
  8
0
100
AcDbCircle
 10
-0.564987
 20
1.297433
 30
0.0
 40
0.13
100
AcDbArc
 50
67.982876
 51
83.37419
  0
LINE
  5
B3E
100
AcDbEntity
  8
0
100
AcDbLine
 10
-0.516252
 20
1.417952
 30
0.0
 11
-0.366153
 21
1.357256
 31
0.0
  0
LINE
  5
B3F
100
AcDbEntity
  8
0
100
AcDbLine
 10
-0.336053
 20
1.413767
 30
0.0
 11
-0.366153
 21
1.357256
 31
0.0
  0
LINE
  5
B40
100
AcDbEntity
  8
0
100
AcDbLine
 10
-0.549987
 20
1.426565
 30
0.0
 11
-0.549987
 21
1.491013
 31
0.0
  0
LINE
  5
B41
100
AcDbEntity
  8
0
100
AcDbLine
 10
-0.126036
 20
1.265353
 30
0.0
 11
-0.126036
 21
1.329801
 31
0.0
  0
LINE
  5
B42
100
AcDbEntity
  8
0
100
AcDbLine
 10
-0.096036
 20
1.265353
 30
0.0
 11
-0.096036
 21
1.329801
 31
0.0
  0
ARC
  5
B43
100
AcDbEntity
  8
0
100
AcDbCircle
 10
-0.111036
 20
1.136222
 30
0.0
 40
0.13
100
AcDbArc
 50
96.62581
 51
112.017124
  0
LINE
  5
B44
100
AcDbEntity
  8
0
100
AcDbLine
 10
-0.366145
 20
1.560285
 30
0.0
 11
-0.33612
 21
1.504015
 31
0.0
  0
LINE
  5
B45
100
AcDbEntity
  8
0
100
AcDbLine
 10
-0.36607
 20
1.560332
 30
0.0
 11
-0.336046
 21
1.504062
 31
0.0
  0
LINE
  5
B46
100
AcDbEntity
  8
0
100
AcDbLine
 10
-0.339969
 20
1.574956
 30
0.0
 11
-0.309945
 21
1.518686
 31
0.0
  0
LINE
  5
B47
100
AcDbEntity
  8
0
100
AcDbLine
 10
-0.159771
 20
1.579429
 30
0.0
 11
-0.30987
 21
1.518733
 31
0.0
  0
LINE
  5
B48
100
AcDbEntity
  8
0
100
AcDbLine
 10
-0.339895
 20
1.575003
 30
0.0
 11
-0.30987
 21
1.518733
 31
0.0
  0
CIRCLE
  5
B49
100
AcDbEntity
  8
0
100
AcDbCircle
 10
-0.564987
 20
1.620122
 30
0.0
 40
0.086
  0
ARC
  5
B4A
100
AcDbEntity
  8
0
100
AcDbCircle
 10
-0.564987
 20
1.620122
 30
0.0
 40
0.13
100
AcDbArc
 50
186.62581
 51
263.37419
  0
LINE
  5
B4B
100
AcDbEntity
  8
0
100
AcDbLine
 10
-0.516252
 20
1.499602
 30
0.0
 11
-0.366153
 21
1.560298
 31
0.0
  0
LINE
  5
B4C
100
AcDbEntity
  8
0
100
AcDbLine
 10
-0.936433
 20
1.499602
 30
0.0
 11
-1.086532
 21
1.560298
 31
0.0
  0
LINE
  5
B4D
100
AcDbEntity
  8
0
100
AcDbLine
 10
-1.292914
 20
1.579141
 30
0.0
 11
-1.142815
 21
1.518445
 31
0.0
  0
LINE
  5
B4E
100
AcDbEntity
  8
0
100
AcDbLine
 10
-1.112715
 20
1.574956
 30
0.0
 11
-1.142815
 21
1.518445
 31
0.0
  0
LINE
  5
B4F
100
AcDbEntity
  8
0
100
AcDbLine
 10
-1.086532
 20
1.560298
 30
0.0
 11
-1.116631
 21
1.503787
 31
0.0
  0
ARC
  5
B50
100
AcDbEntity
  8
0
100
AcDbCircle
 10
-0.887698
 20
1.620122
 30
0.0
 40
0.13
100
AcDbArc
 50
276.62581
 51
353.37419
  0
CIRCLE
  5
B51
100
AcDbEntity
  8
0
100
AcDbCircle
 10
-0.887698
 20
1.620122
 30
0.0
 40
0.086
  0
CIRCLE
  5
B52
100
AcDbEntity
  8
0
100
AcDbCircle
 10
-1.341649
 20
1.458622
 30
0.0
 40
0.086
  0
CIRCLE
  5
B53
100
AcDbEntity
  8
0
100
AcDbCircle
 10
-0.111036
 20
1.45891
 30
0.0
 40
0.086
  0
ARC
  5
B54
100
AcDbEntity
  8
0
100
AcDbCircle
 10
-1.341649
 20
1.458622
 30
0.0
 40
0.13
100
AcDbArc
 50
96.62581
 51
263.37419
  0
ARC
  5
B55
100
AcDbEntity
  8
0
100
AcDbCircle
 10
-0.111036
 20
1.45891
 30
0.0
 40
0.13
100
AcDbArc
 50
247.982879
 51
83.37419
  0
LINE
  5
B56
100
AcDbEntity
  8
0
100
AcDbLine
 10
-1.292914
 20
1.338102
 30
0.0
 11
-1.142815
 21
1.398798
 31
0.0
  0
LINE
  5
B57
100
AcDbEntity
  8
0
100
AcDbLine
 10
-1.326649
 20
1.265042
 30
0.0
 11
-1.326649
 21
1.32949
 31
0.0
  0
LINE
  5
B58
100
AcDbEntity
  8
0
100
AcDbLine
 10
-1.356649
 20
1.265042
 30
0.0
 11
-1.356649
 21
1.32949
 31
0.0
  0
ARC
  5
B59
100
AcDbEntity
  8
0
100
AcDbCircle
 10
-1.341649
 20
1.458622
 30
0.0
 40
0.13
100
AcDbArc
 50
276.62581
 51
292.017121
  0
LINE
  5
B5A
100
AcDbEntity
  8
0
100
AcDbLine
 10
-1.116631
 20
1.413456
 30
0.0
 11
-1.086607
 21
1.357186
 31
0.0
  0
LINE
  5
B5B
100
AcDbEntity
  8
0
100
AcDbLine
 10
-1.142807
 20
1.398785
 30
0.0
 11
-1.112782
 21
1.342515
 31
0.0
  0
ARC
  5
B5C
100
AcDbEntity
  8
0
100
AcDbCircle
 10
-1.157683
 20
1.458622
 30
0.0
 40
0.061034
100
AcDbArc
 50
312.267861
 51
47.732142
  0
ARC
  5
B5D
100
AcDbEntity
  8
0
100
AcDbCircle
 10
-0.887698
 20
1.620122
 30
0.0
 40
0.13
100
AcDbArc
 50
247.982879
 51
263.37419
  0
LINE
  5
B5E
100
AcDbEntity
  8
0
100
AcDbLine
 10
-0.872698
 20
1.426542
 30
0.0
 11
-0.872698
 21
1.49099
 31
0.0
  0
LINE
  5
B5F
100
AcDbEntity
  8
0
100
AcDbLine
 10
-0.902698
 20
1.426542
 30
0.0
 11
-0.902698
 21
1.49099
 31
0.0
  0
LINE
  5
B60
100
AcDbEntity
  8
0
100
AcDbLine
 10
-0.579987
 20
1.426542
 30
0.0
 11
-0.579987
 21
1.49099
 31
0.0
  0
LINE
  5
B61
100
AcDbEntity
  8
0
100
AcDbLine
 10
-0.30987
 20
1.399087
 30
0.0
 11
-0.339969
 21
1.342576
 31
0.0
  0
LINE
  5
B62
100
AcDbEntity
  8
0
100
AcDbLine
 10
-0.336053
 20
1.413744
 30
0.0
 11
-0.366153
 21
1.357233
 31
0.0
  0
ARC
  5
B63
100
AcDbEntity
  8
0
100
AcDbCircle
 10
-0.564987
 20
1.620122
 30
0.0
 40
0.13
100
AcDbArc
 50
276.62581
 51
292.017121
  0
LINE
  5
B64
100
AcDbEntity
  8
0
100
AcDbLine
 10
-0.549987
 20
1.426542
 30
0.0
 11
-0.549987
 21
1.49099
 31
0.0
  0
ARC
  5
B65
100
AcDbEntity
  8
0
100
AcDbCircle
 10
-0.295002
 20
1.45891
 30
0.0
 40
0.061034
100
AcDbArc
 50
132.267855
 51
227.732142
  0
LINE
  5
B66
100
AcDbEntity
  8
0
100
AcDbLine
 10
-0.159771
 20
1.338391
 30
0.0
 11
-0.30987
 21
1.399087
 31
0.0
  0
CIRCLE
  5
B67
100
AcDbEntity
  8
0
100
AcDbCircle
 10
-0.564987
 20
1.942833
 30
0.0
 40
0.086
  0
LINE
  5
B68
100
AcDbEntity
  8
0
100
AcDbLine
 10
-0.936433
 20
2.063352
 30
0.0
 11
-1.086532
 21
2.002656
 31
0.0
  0
LINE
  5
B69
100
AcDbEntity
  8
0
100
AcDbLine
 10
-0.936433
 20
1.822314
 30
0.0
 11
-1.086532
 21
1.88301
 31
0.0
  0
LINE
  5
B6A
100
AcDbEntity
  8
0
100
AcDbLine
 10
-0.936433
 20
1.740641
 30
0.0
 11
-1.086574
 21
1.679928
 31
0.0
  0
LINE
  5
B6B
100
AcDbEntity
  8
0
100
AcDbLine
 10
-1.112715
 20
1.897667
 30
0.0
 11
-1.142815
 21
1.841156
 31
0.0
  0
LINE
  5
B6C
100
AcDbEntity
  8
0
100
AcDbLine
 10
-1.292914
 20
1.901852
 30
0.0
 11
-1.142815
 21
1.841156
 31
0.0
  0
ARC
  5
B6D
100
AcDbEntity
  8
0
100
AcDbCircle
 10
-1.341649
 20
1.781333
 30
0.0
 40
0.13
100
AcDbArc
 50
96.62581
 51
263.37419
  0
LINE
  5
B6E
100
AcDbEntity
  8
0
100
AcDbLine
 10
-1.292914
 20
1.660814
 30
0.0
 11
-1.142773
 21
1.721527
 31
0.0
  0
CIRCLE
  5
B6F
100
AcDbEntity
  8
0
100
AcDbCircle
 10
-1.341649
 20
1.781333
 30
0.0
 40
0.086
  0
LINE
  5
B70
100
AcDbEntity
  8
0
100
AcDbLine
 10
-1.326649
 20
1.587753
 30
0.0
 11
-1.326649
 21
1.652201
 31
0.0
  0
LINE
  5
B71
100
AcDbEntity
  8
0
100
AcDbLine
 10
-1.356649
 20
1.587753
 30
0.0
 11
-1.356649
 21
1.652201
 31
0.0
  0
ARC
  5
B72
100
AcDbEntity
  8
0
100
AcDbCircle
 10
-1.341649
 20
1.458622
 30
0.0
 40
0.13
100
AcDbArc
 50
67.982876
 51
83.37419
  0
ARC
  5
B73
100
AcDbEntity
  8
0
100
AcDbCircle
 10
-1.341649
 20
1.781333
 30
0.0
 40
0.13
100
AcDbArc
 50
276.62581
 51
292.017121
  0
LINE
  5
B74
100
AcDbEntity
  8
0
100
AcDbLine
 10
-1.142773
 20
1.721527
 30
0.0
 11
-1.112749
 21
1.665257
 31
0.0
  0
LINE
  5
B75
100
AcDbEntity
  8
0
100
AcDbLine
 10
-1.116598
 20
1.736198
 30
0.0
 11
-1.086574
 21
1.679928
 31
0.0
  0
ARC
  5
B76
100
AcDbEntity
  8
0
100
AcDbCircle
 10
-1.071664
 20
1.620122
 30
0.0
 40
0.061034
100
AcDbArc
 50
132.310372
 51
227.732142
  0
LINE
  5
B77
100
AcDbEntity
  8
0
100
AcDbLine
 10
-1.086532
 20
1.88301
 30
0.0
 11
-1.116631
 21
1.826499
 31
0.0
  0
ARC
  5
B78
100
AcDbEntity
  8
0
100
AcDbCircle
 10
-1.157683
 20
1.781333
 30
0.0
 40
0.061034
100
AcDbArc
 50
312.310372
 51
47.732142
  0
LINE
  5
B79
100
AcDbEntity
  8
0
100
AcDbLine
 10
-1.326649
 20
1.910465
 30
0.0
 11
-1.326649
 21
1.974913
 31
0.0
  0
LINE
  5
B7A
100
AcDbEntity
  8
0
100
AcDbLine
 10
-1.356649
 20
1.910465
 30
0.0
 11
-1.356649
 21
1.974913
 31
0.0
  0
ARC
  5
B7B
100
AcDbEntity
  8
0
100
AcDbCircle
 10
-1.341649
 20
1.781333
 30
0.0
 40
0.13
100
AcDbArc
 50
67.982876
 51
83.37419
  0
LINE
  5
B7C
100
AcDbEntity
  8
0
100
AcDbLine
 10
-1.142732
 20
2.044255
 30
0.0
 11
-1.112708
 21
1.987985
 31
0.0
  0
ARC
  5
B7D
100
AcDbEntity
  8
0
100
AcDbCircle
 10
-1.071664
 20
1.942833
 30
0.0
 40
0.061034
100
AcDbArc
 50
132.267855
 51
227.732142
  0
LINE
  5
B7E
100
AcDbEntity
  8
0
100
AcDbLine
 10
-1.116557
 20
2.058926
 30
0.0
 11
-1.086532
 21
2.002656
 31
0.0
  0
ARC
  5
B7F
100
AcDbEntity
  8
0
100
AcDbCircle
 10
-0.564987
 20
1.942833
 30
0.0
 40
0.13
100
AcDbArc
 50
186.62581
 51
263.37419
  0
CIRCLE
  5
B80
100
AcDbEntity
  8
0
100
AcDbCircle
 10
-0.887698
 20
1.942833
 30
0.0
 40
0.086
  0
ARC
  5
B81
100
AcDbEntity
  8
0
100
AcDbCircle
 10
-0.887698
 20
1.942833
 30
0.0
 40
0.13
100
AcDbArc
 50
276.62581
 51
353.37419
  0
ARC
  5
B82
100
AcDbEntity
  8
0
100
AcDbCircle
 10
-0.887698
 20
1.620122
 30
0.0
 40
0.13
100
AcDbArc
 50
6.62581
 51
83.37419
  0
ARC
  5
B83
100
AcDbEntity
  8
0
100
AcDbCircle
 10
-0.887698
 20
1.942833
 30
0.0
 40
0.13
100
AcDbArc
 50
247.982879
 51
263.37419
  0
ARC
  5
B84
100
AcDbEntity
  8
0
100
AcDbCircle
 10
-0.887698
 20
1.620122
 30
0.0
 40
0.13
100
AcDbArc
 50
96.62581
 51
112.017124
  0
LINE
  5
B85
100
AcDbEntity
  8
0
100
AcDbLine
 10
-0.872698
 20
1.749253
 30
0.0
 11
-0.872698
 21
1.813701
 31
0.0
  0
LINE
  5
B86
100
AcDbEntity
  8
0
100
AcDbLine
 10
-0.902698
 20
1.749253
 30
0.0
 11
-0.902698
 21
1.813701
 31
0.0
  0
ARC
  5
B87
100
AcDbEntity
  8
0
100
AcDbCircle
 10
-0.564987
 20
1.620122
 30
0.0
 40
0.13
100
AcDbArc
 50
96.62581
 51
173.37419
  0
LINE
  5
B88
100
AcDbEntity
  8
0
100
AcDbLine
 10
-0.758567
 20
1.635122
 30
0.0
 11
-0.694118
 21
1.635122
 31
0.0
  0
LINE
  5
B89
100
AcDbEntity
  8
0
100
AcDbLine
 10
-0.758567
 20
1.605122
 30
0.0
 11
-0.694118
 21
1.605122
 31
0.0
  0
LINE
  5
B8A
100
AcDbEntity
  8
0
100
AcDbLine
 10
-0.579987
 20
1.749253
 30
0.0
 11
-0.579987
 21
1.813701
 31
0.0
  0
ARC
  5
B8B
100
AcDbEntity
  8
0
100
AcDbCircle
 10
-0.887698
 20
1.942833
 30
0.0
 40
0.13
100
AcDbArc
 50
6.62581
 51
83.37419
  0
ARC
  5
B8C
100
AcDbEntity
  8
0
100
AcDbCircle
 10
-0.887698
 20
1.942833
 30
0.0
 40
0.13
100
AcDbArc
 50
96.62581
 51
112.017124
  0
LINE
  5
B8D
100
AcDbEntity
  8
0
100
AcDbLine
 10
-0.902698
 20
2.027515
 30
0.0
 11
-0.902698
 21
2.028833
 31
0.0
  0
LINE
  5
B8E
100
AcDbEntity
  8
0
100
AcDbLine
 10
-0.872698
 20
2.027515
 30
0.0
 11
-0.872698
 21
2.028833
 31
0.0
  0
LINE
  5
B8F
100
AcDbEntity
  8
0
100
AcDbLine
 10
-0.872698
 20
2.071965
 30
0.0
 11
-0.872698
 21
2.136413
 31
0.0
  0
LINE
  5
B90
100
AcDbEntity
  8
0
100
AcDbLine
 10
-0.902698
 20
2.071965
 30
0.0
 11
-0.902698
 21
2.136413
 31
0.0
  0
ARC
  5
B91
100
AcDbEntity
  8
0
100
AcDbCircle
 10
-0.564987
 20
1.942833
 30
0.0
 40
0.13
100
AcDbArc
 50
96.62581
 51
173.37419
  0
LINE
  5
B92
100
AcDbEntity
  8
0
100
AcDbLine
 10
-0.758567
 20
1.957833
 30
0.0
 11
-0.694118
 21
1.957833
 31
0.0
  0
LINE
  5
B93
100
AcDbEntity
  8
0
100
AcDbLine
 10
-0.758567
 20
1.927833
 30
0.0
 11
-0.694118
 21
1.927833
 31
0.0
  0
LINE
  5
B94
100
AcDbEntity
  8
0
100
AcDbLine
 10
-0.579987
 20
2.071965
 30
0.0
 11
-0.579987
 21
2.136413
 31
0.0
  0
CIRCLE
  5
B95
100
AcDbEntity
  8
0
100
AcDbCircle
 10
-0.111036
 20
1.781622
 30
0.0
 40
0.086
  0
ARC
  5
B96
100
AcDbEntity
  8
0
100
AcDbCircle
 10
-0.111036
 20
1.781622
 30
0.0
 40
0.13
100
AcDbArc
 50
276.62581
 51
83.37419
  0
LINE
  5
B97
100
AcDbEntity
  8
0
100
AcDbLine
 10
-0.339936
 20
1.897698
 30
0.0
 11
-0.309912
 21
1.841428
 31
0.0
  0
LINE
  5
B98
100
AcDbEntity
  8
0
100
AcDbLine
 10
-0.159771
 20
1.902141
 30
0.0
 11
-0.309912
 21
1.841428
 31
0.0
  0
ARC
  5
B99
100
AcDbEntity
  8
0
100
AcDbCircle
 10
-0.381021
 20
1.620122
 30
0.0
 40
0.061034
100
AcDbArc
 50
312.267861
 51
47.732142
  0
LINE
  5
B9A
100
AcDbEntity
  8
0
100
AcDbLine
 10
-0.30987
 20
1.721798
 30
0.0
 11
-0.339969
 21
1.665287
 31
0.0
  0
LINE
  5
B9B
100
AcDbEntity
  8
0
100
AcDbLine
 10
-0.336053
 20
1.736456
 30
0.0
 11
-0.366153
 21
1.679945
 31
0.0
  0
LINE
  5
B9C
100
AcDbEntity
  8
0
100
AcDbLine
 10
-0.516252
 20
1.740641
 30
0.0
 11
-0.366153
 21
1.679945
 31
0.0
  0
LINE
  5
B9D
100
AcDbEntity
  8
0
100
AcDbLine
 10
-0.516252
 20
1.822314
 30
0.0
 11
-0.366111
 21
1.883027
 31
0.0
  0
ARC
  5
B9E
100
AcDbEntity
  8
0
100
AcDbCircle
 10
-0.564987
 20
1.942833
 30
0.0
 40
0.13
100
AcDbArc
 50
276.62581
 51
292.017121
  0
LINE
  5
B9F
100
AcDbEntity
  8
0
100
AcDbLine
 10
-0.549987
 20
1.749253
 30
0.0
 11
-0.549987
 21
1.813701
 31
0.0
  0
ARC
  5
BA0
100
AcDbEntity
  8
0
100
AcDbCircle
 10
-0.564987
 20
1.620122
 30
0.0
 40
0.13
100
AcDbArc
 50
67.982876
 51
83.37419
  0
LINE
  5
BA1
100
AcDbEntity
  8
0
100
AcDbLine
 10
-0.366111
 20
1.883027
 30
0.0
 11
-0.336087
 21
1.826757
 31
0.0
  0
ARC
  5
BA2
100
AcDbEntity
  8
0
100
AcDbCircle
 10
-0.295002
 20
1.781622
 30
0.0
 40
0.061034
100
AcDbArc
 50
132.310372
 51
227.732142
  0
LINE
  5
BA3
100
AcDbEntity
  8
0
100
AcDbLine
 10
-0.159771
 20
1.661102
 30
0.0
 11
-0.30987
 21
1.721798
 31
0.0
  0
LINE
  5
BA4
100
AcDbEntity
  8
0
100
AcDbLine
 10
-0.126036
 20
1.588042
 30
0.0
 11
-0.126036
 21
1.65249
 31
0.0
  0
LINE
  5
BA5
100
AcDbEntity
  8
0
100
AcDbLine
 10
-0.096036
 20
1.588042
 30
0.0
 11
-0.096036
 21
1.65249
 31
0.0
  0
LINE
  5
BA6
100
AcDbEntity
  8
0
100
AcDbLine
 10
-0.126036
 20
1.588042
 30
0.0
 11
-0.126036
 21
1.65249
 31
0.0
  0
LINE
  5
BA7
100
AcDbEntity
  8
0
100
AcDbLine
 10
-0.096036
 20
1.588042
 30
0.0
 11
-0.096036
 21
1.65249
 31
0.0
  0
ARC
  5
BA8
100
AcDbEntity
  8
0
100
AcDbCircle
 10
-0.111036
 20
1.781622
 30
0.0
 40
0.13
100
AcDbArc
 50
247.982879
 51
263.37419
  0
ARC
  5
BA9
100
AcDbEntity
  8
0
100
AcDbCircle
 10
-0.111036
 20
1.45891
 30
0.0
 40
0.13
100
AcDbArc
 50
96.62581
 51
112.017124
  0
LINE
  5
BAA
100
AcDbEntity
  8
0
100
AcDbLine
 10
-0.30987
 20
2.04451
 30
0.0
 11
-0.339969
 21
1.987999
 31
0.0
  0
ARC
  5
BAB
100
AcDbEntity
  8
0
100
AcDbCircle
 10
-0.381021
 20
1.942833
 30
0.0
 40
0.061034
100
AcDbArc
 50
312.310372
 51
47.732142
  0
ARC
  5
BAC
100
AcDbEntity
  8
0
100
AcDbCircle
 10
-0.564987
 20
1.942833
 30
0.0
 40
0.13
100
AcDbArc
 50
67.982876
 51
83.37419
  0
LINE
  5
BAD
100
AcDbEntity
  8
0
100
AcDbLine
 10
-0.516252
 20
2.063352
 30
0.0
 11
-0.366153
 21
2.002656
 31
0.0
  0
LINE
  5
BAE
100
AcDbEntity
  8
0
100
AcDbLine
 10
-0.336053
 20
2.059167
 30
0.0
 11
-0.366153
 21
2.002656
 31
0.0
  0
LINE
  5
BAF
100
AcDbEntity
  8
0
100
AcDbLine
 10
-0.549987
 20
2.071965
 30
0.0
 11
-0.549987
 21
2.136413
 31
0.0
  0
LINE
  5
BB0
100
AcDbEntity
  8
0
100
AcDbLine
 10
-0.126036
 20
1.910753
 30
0.0
 11
-0.126036
 21
1.975201
 31
0.0
  0
LINE
  5
BB1
100
AcDbEntity
  8
0
100
AcDbLine
 10
-0.096036
 20
1.910753
 30
0.0
 11
-0.096036
 21
1.975201
 31
0.0
  0
ARC
  5
BB2
100
AcDbEntity
  8
0
100
AcDbCircle
 10
-0.111036
 20
1.781622
 30
0.0
 40
0.13
100
AcDbArc
 50
96.62581
 51
112.017124
  0
LINE
  5
BB3
100
AcDbEntity
  8
0
100
AcDbLine
 10
-0.366145
 20
2.205685
 30
0.0
 11
-0.33612
 21
2.149415
 31
0.0
  0
LINE
  5
BB4
100
AcDbEntity
  8
0
100
AcDbLine
 10
-0.36607
 20
2.205732
 30
0.0
 11
-0.336046
 21
2.149462
 31
0.0
  0
LINE
  5
BB5
100
AcDbEntity
  8
0
100
AcDbLine
 10
-0.339969
 20
2.220356
 30
0.0
 11
-0.309945
 21
2.164086
 31
0.0
  0
LINE
  5
BB6
100
AcDbEntity
  8
0
100
AcDbLine
 10
-0.159771
 20
2.224829
 30
0.0
 11
-0.30987
 21
2.164133
 31
0.0
  0
LINE
  5
BB7
100
AcDbEntity
  8
0
100
AcDbLine
 10
-0.339895
 20
2.220403
 30
0.0
 11
-0.30987
 21
2.164133
 31
0.0
  0
CIRCLE
  5
BB8
100
AcDbEntity
  8
0
100
AcDbCircle
 10
-0.564987
 20
2.265522
 30
0.0
 40
0.086
  0
ARC
  5
BB9
100
AcDbEntity
  8
0
100
AcDbCircle
 10
-0.564987
 20
2.265522
 30
0.0
 40
0.13
100
AcDbArc
 50
186.62581
 51
263.37419
  0
LINE
  5
BBA
100
AcDbEntity
  8
0
100
AcDbLine
 10
-0.516252
 20
2.145002
 30
0.0
 11
-0.366153
 21
2.205698
 31
0.0
  0
LINE
  5
BBB
100
AcDbEntity
  8
0
100
AcDbLine
 10
-0.936433
 20
2.145002
 30
0.0
 11
-1.086532
 21
2.205698
 31
0.0
  0
LINE
  5
BBC
100
AcDbEntity
  8
0
100
AcDbLine
 10
-1.292914
 20
2.224541
 30
0.0
 11
-1.142815
 21
2.163845
 31
0.0
  0
LINE
  5
BBD
100
AcDbEntity
  8
0
100
AcDbLine
 10
-1.112715
 20
2.220356
 30
0.0
 11
-1.142815
 21
2.163845
 31
0.0
  0
LINE
  5
BBE
100
AcDbEntity
  8
0
100
AcDbLine
 10
-1.086532
 20
2.205698
 30
0.0
 11
-1.116631
 21
2.149187
 31
0.0
  0
ARC
  5
BBF
100
AcDbEntity
  8
0
100
AcDbCircle
 10
-0.887698
 20
2.265522
 30
0.0
 40
0.13
100
AcDbArc
 50
276.62581
 51
353.37419
  0
CIRCLE
  5
BC0
100
AcDbEntity
  8
0
100
AcDbCircle
 10
-0.887698
 20
2.265522
 30
0.0
 40
0.086
  0
CIRCLE
  5
BC1
100
AcDbEntity
  8
0
100
AcDbCircle
 10
-1.341649
 20
2.104022
 30
0.0
 40
0.086
  0
CIRCLE
  5
BC2
100
AcDbEntity
  8
0
100
AcDbCircle
 10
-0.111036
 20
2.10431
 30
0.0
 40
0.086
  0
ARC
  5
BC3
100
AcDbEntity
  8
0
100
AcDbCircle
 10
-1.341649
 20
2.104022
 30
0.0
 40
0.13
100
AcDbArc
 50
96.62581
 51
263.37419
  0
ARC
  5
BC4
100
AcDbEntity
  8
0
100
AcDbCircle
 10
-0.111036
 20
2.10431
 30
0.0
 40
0.13
100
AcDbArc
 50
247.982879
 51
83.37419
  0
LINE
  5
BC5
100
AcDbEntity
  8
0
100
AcDbLine
 10
-1.292914
 20
1.983502
 30
0.0
 11
-1.142815
 21
2.044198
 31
0.0
  0
LINE
  5
BC6
100
AcDbEntity
  8
0
100
AcDbLine
 10
-1.326649
 20
1.910442
 30
0.0
 11
-1.326649
 21
1.97489
 31
0.0
  0
LINE
  5
BC7
100
AcDbEntity
  8
0
100
AcDbLine
 10
-1.356649
 20
1.910442
 30
0.0
 11
-1.356649
 21
1.97489
 31
0.0
  0
ARC
  5
BC8
100
AcDbEntity
  8
0
100
AcDbCircle
 10
-1.341649
 20
2.104022
 30
0.0
 40
0.13
100
AcDbArc
 50
276.62581
 51
292.017121
  0
LINE
  5
BC9
100
AcDbEntity
  8
0
100
AcDbLine
 10
-1.116631
 20
2.058856
 30
0.0
 11
-1.086607
 21
2.002586
 31
0.0
  0
LINE
  5
BCA
100
AcDbEntity
  8
0
100
AcDbLine
 10
-1.142807
 20
2.044185
 30
0.0
 11
-1.112782
 21
1.987915
 31
0.0
  0
ARC
  5
BCB
100
AcDbEntity
  8
0
100
AcDbCircle
 10
-1.157683
 20
2.104022
 30
0.0
 40
0.061034
100
AcDbArc
 50
312.267861
 51
47.732142
  0
ARC
  5
BCC
100
AcDbEntity
  8
0
100
AcDbCircle
 10
-0.887698
 20
2.265522
 30
0.0
 40
0.13
100
AcDbArc
 50
247.982879
 51
263.37419
  0
LINE
  5
BCD
100
AcDbEntity
  8
0
100
AcDbLine
 10
-0.872698
 20
2.071942
 30
0.0
 11
-0.872698
 21
2.13639
 31
0.0
  0
LINE
  5
BCE
100
AcDbEntity
  8
0
100
AcDbLine
 10
-0.902698
 20
2.071942
 30
0.0
 11
-0.902698
 21
2.13639
 31
0.0
  0
LINE
  5
BCF
100
AcDbEntity
  8
0
100
AcDbLine
 10
-0.579987
 20
2.071942
 30
0.0
 11
-0.579987
 21
2.13639
 31
0.0
  0
LINE
  5
BD0
100
AcDbEntity
  8
0
100
AcDbLine
 10
-0.30987
 20
2.044487
 30
0.0
 11
-0.339969
 21
1.987976
 31
0.0
  0
LINE
  5
BD1
100
AcDbEntity
  8
0
100
AcDbLine
 10
-0.336053
 20
2.059144
 30
0.0
 11
-0.366153
 21
2.002633
 31
0.0
  0
ARC
  5
BD2
100
AcDbEntity
  8
0
100
AcDbCircle
 10
-0.564987
 20
2.265522
 30
0.0
 40
0.13
100
AcDbArc
 50
276.62581
 51
292.017121
  0
LINE
  5
BD3
100
AcDbEntity
  8
0
100
AcDbLine
 10
-0.549987
 20
2.071942
 30
0.0
 11
-0.549987
 21
2.13639
 31
0.0
  0
ARC
  5
BD4
100
AcDbEntity
  8
0
100
AcDbCircle
 10
-0.295002
 20
2.10431
 30
0.0
 40
0.061034
100
AcDbArc
 50
132.267855
 51
227.732142
  0
LINE
  5
BD5
100
AcDbEntity
  8
0
100
AcDbLine
 10
-0.159771
 20
1.983791
 30
0.0
 11
-0.30987
 21
2.044487
 31
0.0
  0
CIRCLE
  5
BD6
100
AcDbEntity
  8
0
100
AcDbCircle
 10
-0.564987
 20
2.588233
 30
0.0
 40
0.086
  0
LINE
  5
BD7
100
AcDbEntity
  8
0
100
AcDbLine
 10
-0.936433
 20
2.708752
 30
0.0
 11
-1.086532
 21
2.648056
 31
0.0
  0
LINE
  5
BD8
100
AcDbEntity
  8
0
100
AcDbLine
 10
-0.936433
 20
2.467714
 30
0.0
 11
-1.086532
 21
2.52841
 31
0.0
  0
LINE
  5
BD9
100
AcDbEntity
  8
0
100
AcDbLine
 10
-0.936433
 20
2.386041
 30
0.0
 11
-1.086574
 21
2.325328
 31
0.0
  0
LINE
  5
BDA
100
AcDbEntity
  8
0
100
AcDbLine
 10
-1.112715
 20
2.543067
 30
0.0
 11
-1.142815
 21
2.486556
 31
0.0
  0
LINE
  5
BDB
100
AcDbEntity
  8
0
100
AcDbLine
 10
-1.292914
 20
2.547252
 30
0.0
 11
-1.142815
 21
2.486556
 31
0.0
  0
ARC
  5
BDC
100
AcDbEntity
  8
0
100
AcDbCircle
 10
-1.341649
 20
2.426733
 30
0.0
 40
0.13
100
AcDbArc
 50
96.62581
 51
263.37419
  0
LINE
  5
BDD
100
AcDbEntity
  8
0
100
AcDbLine
 10
-1.292914
 20
2.306214
 30
0.0
 11
-1.142773
 21
2.366927
 31
0.0
  0
CIRCLE
  5
BDE
100
AcDbEntity
  8
0
100
AcDbCircle
 10
-1.341649
 20
2.426733
 30
0.0
 40
0.086
  0
LINE
  5
BDF
100
AcDbEntity
  8
0
100
AcDbLine
 10
-1.326649
 20
2.233153
 30
0.0
 11
-1.326649
 21
2.297601
 31
0.0
  0
LINE
  5
BE0
100
AcDbEntity
  8
0
100
AcDbLine
 10
-1.356649
 20
2.233153
 30
0.0
 11
-1.356649
 21
2.297601
 31
0.0
  0
ARC
  5
BE1
100
AcDbEntity
  8
0
100
AcDbCircle
 10
-1.341649
 20
2.104022
 30
0.0
 40
0.13
100
AcDbArc
 50
67.982876
 51
83.37419
  0
ARC
  5
BE2
100
AcDbEntity
  8
0
100
AcDbCircle
 10
-1.341649
 20
2.426733
 30
0.0
 40
0.13
100
AcDbArc
 50
276.62581
 51
292.017121
  0
LINE
  5
BE3
100
AcDbEntity
  8
0
100
AcDbLine
 10
-1.142773
 20
2.366927
 30
0.0
 11
-1.112749
 21
2.310657
 31
0.0
  0
LINE
  5
BE4
100
AcDbEntity
  8
0
100
AcDbLine
 10
-1.116598
 20
2.381598
 30
0.0
 11
-1.086574
 21
2.325328
 31
0.0
  0
ARC
  5
BE5
100
AcDbEntity
  8
0
100
AcDbCircle
 10
-1.071664
 20
2.265522
 30
0.0
 40
0.061034
100
AcDbArc
 50
132.310372
 51
227.732142
  0
LINE
  5
BE6
100
AcDbEntity
  8
0
100
AcDbLine
 10
-1.086532
 20
2.52841
 30
0.0
 11
-1.116631
 21
2.471899
 31
0.0
  0
ARC
  5
BE7
100
AcDbEntity
  8
0
100
AcDbCircle
 10
-1.157683
 20
2.426733
 30
0.0
 40
0.061034
100
AcDbArc
 50
312.310372
 51
47.732142
  0
LINE
  5
BE8
100
AcDbEntity
  8
0
100
AcDbLine
 10
-1.326649
 20
2.555865
 30
0.0
 11
-1.326649
 21
2.620313
 31
0.0
  0
LINE
  5
BE9
100
AcDbEntity
  8
0
100
AcDbLine
 10
-1.356649
 20
2.555865
 30
0.0
 11
-1.356649
 21
2.620313
 31
0.0
  0
ARC
  5
BEA
100
AcDbEntity
  8
0
100
AcDbCircle
 10
-1.341649
 20
2.426733
 30
0.0
 40
0.13
100
AcDbArc
 50
67.982876
 51
83.37419
  0
LINE
  5
BEB
100
AcDbEntity
  8
0
100
AcDbLine
 10
-1.142732
 20
2.689655
 30
0.0
 11
-1.112708
 21
2.633385
 31
0.0
  0
ARC
  5
BEC
100
AcDbEntity
  8
0
100
AcDbCircle
 10
-1.071664
 20
2.588233
 30
0.0
 40
0.061034
100
AcDbArc
 50
132.267855
 51
227.732142
  0
LINE
  5
BED
100
AcDbEntity
  8
0
100
AcDbLine
 10
-1.116557
 20
2.704326
 30
0.0
 11
-1.086532
 21
2.648056
 31
0.0
  0
ARC
  5
BEE
100
AcDbEntity
  8
0
100
AcDbCircle
 10
-0.564987
 20
2.588233
 30
0.0
 40
0.13
100
AcDbArc
 50
186.62581
 51
263.37419
  0
CIRCLE
  5
BEF
100
AcDbEntity
  8
0
100
AcDbCircle
 10
-0.887698
 20
2.588233
 30
0.0
 40
0.086
  0
ARC
  5
BF0
100
AcDbEntity
  8
0
100
AcDbCircle
 10
-0.887698
 20
2.588233
 30
0.0
 40
0.13
100
AcDbArc
 50
276.62581
 51
353.37419
  0
ARC
  5
BF1
100
AcDbEntity
  8
0
100
AcDbCircle
 10
-0.887698
 20
2.265522
 30
0.0
 40
0.13
100
AcDbArc
 50
6.62581
 51
83.37419
  0
ARC
  5
BF2
100
AcDbEntity
  8
0
100
AcDbCircle
 10
-0.887698
 20
2.588233
 30
0.0
 40
0.13
100
AcDbArc
 50
247.982879
 51
263.37419
  0
ARC
  5
BF3
100
AcDbEntity
  8
0
100
AcDbCircle
 10
-0.887698
 20
2.265522
 30
0.0
 40
0.13
100
AcDbArc
 50
96.62581
 51
112.017124
  0
LINE
  5
BF4
100
AcDbEntity
  8
0
100
AcDbLine
 10
-0.872698
 20
2.394653
 30
0.0
 11
-0.872698
 21
2.459101
 31
0.0
  0
LINE
  5
BF5
100
AcDbEntity
  8
0
100
AcDbLine
 10
-0.902698
 20
2.394653
 30
0.0
 11
-0.902698
 21
2.459101
 31
0.0
  0
ARC
  5
BF6
100
AcDbEntity
  8
0
100
AcDbCircle
 10
-0.564987
 20
2.265522
 30
0.0
 40
0.13
100
AcDbArc
 50
96.62581
 51
173.37419
  0
LINE
  5
BF7
100
AcDbEntity
  8
0
100
AcDbLine
 10
-0.758567
 20
2.280522
 30
0.0
 11
-0.694118
 21
2.280522
 31
0.0
  0
LINE
  5
BF8
100
AcDbEntity
  8
0
100
AcDbLine
 10
-0.758567
 20
2.250522
 30
0.0
 11
-0.694118
 21
2.250522
 31
0.0
  0
LINE
  5
BF9
100
AcDbEntity
  8
0
100
AcDbLine
 10
-0.579987
 20
2.394653
 30
0.0
 11
-0.579987
 21
2.459101
 31
0.0
  0
ARC
  5
BFA
100
AcDbEntity
  8
0
100
AcDbCircle
 10
-0.887698
 20
2.588233
 30
0.0
 40
0.13
100
AcDbArc
 50
6.62581
 51
83.37419
  0
ARC
  5
BFB
100
AcDbEntity
  8
0
100
AcDbCircle
 10
-0.887698
 20
2.588233
 30
0.0
 40
0.13
100
AcDbArc
 50
96.62581
 51
112.017124
  0
LINE
  5
BFC
100
AcDbEntity
  8
0
100
AcDbLine
 10
-0.902698
 20
2.672915
 30
0.0
 11
-0.902698
 21
2.674233
 31
0.0
  0
LINE
  5
BFD
100
AcDbEntity
  8
0
100
AcDbLine
 10
-0.872698
 20
2.672915
 30
0.0
 11
-0.872698
 21
2.674233
 31
0.0
  0
LINE
  5
BFE
100
AcDbEntity
  8
0
100
AcDbLine
 10
-0.872698
 20
2.717365
 30
0.0
 11
-0.872698
 21
2.781813
 31
0.0
  0
LINE
  5
BFF
100
AcDbEntity
  8
0
100
AcDbLine
 10
-0.902698
 20
2.717365
 30
0.0
 11
-0.902698
 21
2.781813
 31
0.0
  0
ARC
  5
C00
100
AcDbEntity
  8
0
100
AcDbCircle
 10
-0.564987
 20
2.588233
 30
0.0
 40
0.13
100
AcDbArc
 50
96.62581
 51
173.37419
  0
LINE
  5
C01
100
AcDbEntity
  8
0
100
AcDbLine
 10
-0.758567
 20
2.603233
 30
0.0
 11
-0.694118
 21
2.603233
 31
0.0
  0
LINE
  5
C02
100
AcDbEntity
  8
0
100
AcDbLine
 10
-0.758567
 20
2.573233
 30
0.0
 11
-0.694118
 21
2.573233
 31
0.0
  0
LINE
  5
C03
100
AcDbEntity
  8
0
100
AcDbLine
 10
-0.579987
 20
2.717365
 30
0.0
 11
-0.579987
 21
2.781813
 31
0.0
  0
CIRCLE
  5
C04
100
AcDbEntity
  8
0
100
AcDbCircle
 10
-0.111036
 20
2.427022
 30
0.0
 40
0.086
  0
ARC
  5
C05
100
AcDbEntity
  8
0
100
AcDbCircle
 10
-0.111036
 20
2.427022
 30
0.0
 40
0.13
100
AcDbArc
 50
276.62581
 51
83.37419
  0
LINE
  5
C06
100
AcDbEntity
  8
0
100
AcDbLine
 10
-0.339936
 20
2.543098
 30
0.0
 11
-0.309912
 21
2.486828
 31
0.0
  0
LINE
  5
C07
100
AcDbEntity
  8
0
100
AcDbLine
 10
-0.159771
 20
2.547541
 30
0.0
 11
-0.309912
 21
2.486828
 31
0.0
  0
ARC
  5
C08
100
AcDbEntity
  8
0
100
AcDbCircle
 10
-0.381021
 20
2.265522
 30
0.0
 40
0.061034
100
AcDbArc
 50
312.267861
 51
47.732142
  0
LINE
  5
C09
100
AcDbEntity
  8
0
100
AcDbLine
 10
-0.30987
 20
2.367198
 30
0.0
 11
-0.339969
 21
2.310687
 31
0.0
  0
LINE
  5
C0A
100
AcDbEntity
  8
0
100
AcDbLine
 10
-0.336053
 20
2.381856
 30
0.0
 11
-0.366153
 21
2.325345
 31
0.0
  0
LINE
  5
C0B
100
AcDbEntity
  8
0
100
AcDbLine
 10
-0.516252
 20
2.386041
 30
0.0
 11
-0.366153
 21
2.325345
 31
0.0
  0
LINE
  5
C0C
100
AcDbEntity
  8
0
100
AcDbLine
 10
-0.516252
 20
2.467714
 30
0.0
 11
-0.366111
 21
2.528427
 31
0.0
  0
ARC
  5
C0D
100
AcDbEntity
  8
0
100
AcDbCircle
 10
-0.564987
 20
2.588233
 30
0.0
 40
0.13
100
AcDbArc
 50
276.62581
 51
292.017121
  0
LINE
  5
C0E
100
AcDbEntity
  8
0
100
AcDbLine
 10
-0.549987
 20
2.394653
 30
0.0
 11
-0.549987
 21
2.459101
 31
0.0
  0
ARC
  5
C0F
100
AcDbEntity
  8
0
100
AcDbCircle
 10
-0.564987
 20
2.265522
 30
0.0
 40
0.13
100
AcDbArc
 50
67.982876
 51
83.37419
  0
LINE
  5
C10
100
AcDbEntity
  8
0
100
AcDbLine
 10
-0.366111
 20
2.528427
 30
0.0
 11
-0.336087
 21
2.472157
 31
0.0
  0
ARC
  5
C11
100
AcDbEntity
  8
0
100
AcDbCircle
 10
-0.295002
 20
2.427022
 30
0.0
 40
0.061034
100
AcDbArc
 50
132.310372
 51
227.732142
  0
LINE
  5
C12
100
AcDbEntity
  8
0
100
AcDbLine
 10
-0.159771
 20
2.306502
 30
0.0
 11
-0.30987
 21
2.367198
 31
0.0
  0
LINE
  5
C13
100
AcDbEntity
  8
0
100
AcDbLine
 10
-0.126036
 20
2.233442
 30
0.0
 11
-0.126036
 21
2.29789
 31
0.0
  0
LINE
  5
C14
100
AcDbEntity
  8
0
100
AcDbLine
 10
-0.096036
 20
2.233442
 30
0.0
 11
-0.096036
 21
2.29789
 31
0.0
  0
LINE
  5
C15
100
AcDbEntity
  8
0
100
AcDbLine
 10
-0.126036
 20
2.233442
 30
0.0
 11
-0.126036
 21
2.29789
 31
0.0
  0
LINE
  5
C16
100
AcDbEntity
  8
0
100
AcDbLine
 10
-0.096036
 20
2.233442
 30
0.0
 11
-0.096036
 21
2.29789
 31
0.0
  0
ARC
  5
C17
100
AcDbEntity
  8
0
100
AcDbCircle
 10
-0.111036
 20
2.427022
 30
0.0
 40
0.13
100
AcDbArc
 50
247.982879
 51
263.37419
  0
ARC
  5
C18
100
AcDbEntity
  8
0
100
AcDbCircle
 10
-0.111036
 20
2.10431
 30
0.0
 40
0.13
100
AcDbArc
 50
96.62581
 51
112.017124
  0
LINE
  5
C19
100
AcDbEntity
  8
0
100
AcDbLine
 10
-0.30987
 20
2.68991
 30
0.0
 11
-0.339969
 21
2.633399
 31
0.0
  0
ARC
  5
C1A
100
AcDbEntity
  8
0
100
AcDbCircle
 10
-0.381021
 20
2.588233
 30
0.0
 40
0.061034
100
AcDbArc
 50
312.310372
 51
47.732142
  0
ARC
  5
C1B
100
AcDbEntity
  8
0
100
AcDbCircle
 10
-0.564987
 20
2.588233
 30
0.0
 40
0.13
100
AcDbArc
 50
67.982876
 51
83.37419
  0
LINE
  5
C1C
100
AcDbEntity
  8
0
100
AcDbLine
 10
-0.516252
 20
2.708752
 30
0.0
 11
-0.366153
 21
2.648056
 31
0.0
  0
LINE
  5
C1D
100
AcDbEntity
  8
0
100
AcDbLine
 10
-0.336053
 20
2.704567
 30
0.0
 11
-0.366153
 21
2.648056
 31
0.0
  0
LINE
  5
C1E
100
AcDbEntity
  8
0
100
AcDbLine
 10
-0.549987
 20
2.717365
 30
0.0
 11
-0.549987
 21
2.781813
 31
0.0
  0
LINE
  5
C1F
100
AcDbEntity
  8
0
100
AcDbLine
 10
-0.126036
 20
2.556153
 30
0.0
 11
-0.126036
 21
2.620601
 31
0.0
  0
LINE
  5
C20
100
AcDbEntity
  8
0
100
AcDbLine
 10
-0.096036
 20
2.556153
 30
0.0
 11
-0.096036
 21
2.620601
 31
0.0
  0
ARC
  5
C21
100
AcDbEntity
  8
0
100
AcDbCircle
 10
-0.111036
 20
2.427022
 30
0.0
 40
0.13
100
AcDbArc
 50
96.62581
 51
112.017124
  0
LINE
  5
C22
100
AcDbEntity
  8
0
100
AcDbLine
 10
-0.366145
 20
2.851085
 30
0.0
 11
-0.33612
 21
2.794815
 31
0.0
  0
LINE
  5
C23
100
AcDbEntity
  8
0
100
AcDbLine
 10
-0.36607
 20
2.851132
 30
0.0
 11
-0.336046
 21
2.794862
 31
0.0
  0
LINE
  5
C24
100
AcDbEntity
  8
0
100
AcDbLine
 10
-0.339969
 20
2.865756
 30
0.0
 11
-0.309945
 21
2.809486
 31
0.0
  0
LINE
  5
C25
100
AcDbEntity
  8
0
100
AcDbLine
 10
-0.159771
 20
2.870229
 30
0.0
 11
-0.30987
 21
2.809533
 31
0.0
  0
LINE
  5
C26
100
AcDbEntity
  8
0
100
AcDbLine
 10
-0.339895
 20
2.865803
 30
0.0
 11
-0.30987
 21
2.809533
 31
0.0
  0
CIRCLE
  5
C27
100
AcDbEntity
  8
0
100
AcDbCircle
 10
-0.564987
 20
2.910922
 30
0.0
 40
0.086
  0
ARC
  5
C28
100
AcDbEntity
  8
0
100
AcDbCircle
 10
-0.564987
 20
2.910922
 30
0.0
 40
0.13
100
AcDbArc
 50
186.62581
 51
263.37419
  0
LINE
  5
C29
100
AcDbEntity
  8
0
100
AcDbLine
 10
-0.516252
 20
2.790402
 30
0.0
 11
-0.366153
 21
2.851098
 31
0.0
  0
LINE
  5
C2A
100
AcDbEntity
  8
0
100
AcDbLine
 10
-0.936433
 20
2.790402
 30
0.0
 11
-1.086532
 21
2.851098
 31
0.0
  0
LINE
  5
C2B
100
AcDbEntity
  8
0
100
AcDbLine
 10
-1.292914
 20
2.869941
 30
0.0
 11
-1.142815
 21
2.809245
 31
0.0
  0
LINE
  5
C2C
100
AcDbEntity
  8
0
100
AcDbLine
 10
-1.112715
 20
2.865756
 30
0.0
 11
-1.142815
 21
2.809245
 31
0.0
  0
LINE
  5
C2D
100
AcDbEntity
  8
0
100
AcDbLine
 10
-1.086532
 20
2.851098
 30
0.0
 11
-1.116631
 21
2.794587
 31
0.0
  0
ARC
  5
C2E
100
AcDbEntity
  8
0
100
AcDbCircle
 10
-0.887698
 20
2.910922
 30
0.0
 40
0.13
100
AcDbArc
 50
276.62581
 51
353.37419
  0
CIRCLE
  5
C2F
100
AcDbEntity
  8
0
100
AcDbCircle
 10
-0.887698
 20
2.910922
 30
0.0
 40
0.086
  0
CIRCLE
  5
C30
100
AcDbEntity
  8
0
100
AcDbCircle
 10
-1.341649
 20
2.749422
 30
0.0
 40
0.086
  0
CIRCLE
  5
C31
100
AcDbEntity
  8
0
100
AcDbCircle
 10
-0.111036
 20
2.74971
 30
0.0
 40
0.086
  0
ARC
  5
C32
100
AcDbEntity
  8
0
100
AcDbCircle
 10
-1.341649
 20
2.749422
 30
0.0
 40
0.13
100
AcDbArc
 50
96.62581
 51
263.37419
  0
ARC
  5
C33
100
AcDbEntity
  8
0
100
AcDbCircle
 10
-0.111036
 20
2.74971
 30
0.0
 40
0.13
100
AcDbArc
 50
247.982879
 51
83.37419
  0
LINE
  5
C34
100
AcDbEntity
  8
0
100
AcDbLine
 10
-1.292914
 20
2.628902
 30
0.0
 11
-1.142815
 21
2.689598
 31
0.0
  0
LINE
  5
C35
100
AcDbEntity
  8
0
100
AcDbLine
 10
-1.326649
 20
2.555842
 30
0.0
 11
-1.326649
 21
2.62029
 31
0.0
  0
LINE
  5
C36
100
AcDbEntity
  8
0
100
AcDbLine
 10
-1.356649
 20
2.555842
 30
0.0
 11
-1.356649
 21
2.62029
 31
0.0
  0
ARC
  5
C37
100
AcDbEntity
  8
0
100
AcDbCircle
 10
-1.341649
 20
2.749422
 30
0.0
 40
0.13
100
AcDbArc
 50
276.62581
 51
292.017121
  0
LINE
  5
C38
100
AcDbEntity
  8
0
100
AcDbLine
 10
-1.116631
 20
2.704256
 30
0.0
 11
-1.086607
 21
2.647986
 31
0.0
  0
LINE
  5
C39
100
AcDbEntity
  8
0
100
AcDbLine
 10
-1.142807
 20
2.689585
 30
0.0
 11
-1.112782
 21
2.633315
 31
0.0
  0
ARC
  5
C3A
100
AcDbEntity
  8
0
100
AcDbCircle
 10
-1.157683
 20
2.749422
 30
0.0
 40
0.061034
100
AcDbArc
 50
312.267861
 51
47.732142
  0
ARC
  5
C3B
100
AcDbEntity
  8
0
100
AcDbCircle
 10
-0.887698
 20
2.910922
 30
0.0
 40
0.13
100
AcDbArc
 50
247.982879
 51
263.37419
  0
LINE
  5
C3C
100
AcDbEntity
  8
0
100
AcDbLine
 10
-0.872698
 20
2.717342
 30
0.0
 11
-0.872698
 21
2.78179
 31
0.0
  0
LINE
  5
C3D
100
AcDbEntity
  8
0
100
AcDbLine
 10
-0.902698
 20
2.717342
 30
0.0
 11
-0.902698
 21
2.78179
 31
0.0
  0
LINE
  5
C3E
100
AcDbEntity
  8
0
100
AcDbLine
 10
-0.579987
 20
2.717342
 30
0.0
 11
-0.579987
 21
2.78179
 31
0.0
  0
LINE
  5
C3F
100
AcDbEntity
  8
0
100
AcDbLine
 10
-0.30987
 20
2.689887
 30
0.0
 11
-0.339969
 21
2.633376
 31
0.0
  0
LINE
  5
C40
100
AcDbEntity
  8
0
100
AcDbLine
 10
-0.336053
 20
2.704544
 30
0.0
 11
-0.366153
 21
2.648033
 31
0.0
  0
ARC
  5
C41
100
AcDbEntity
  8
0
100
AcDbCircle
 10
-0.564987
 20
2.910922
 30
0.0
 40
0.13
100
AcDbArc
 50
276.62581
 51
292.017121
  0
LINE
  5
C42
100
AcDbEntity
  8
0
100
AcDbLine
 10
-0.549987
 20
2.717342
 30
0.0
 11
-0.549987
 21
2.78179
 31
0.0
  0
ARC
  5
C43
100
AcDbEntity
  8
0
100
AcDbCircle
 10
-0.295002
 20
2.74971
 30
0.0
 40
0.061034
100
AcDbArc
 50
132.267855
 51
227.732142
  0
LINE
  5
C44
100
AcDbEntity
  8
0
100
AcDbLine
 10
-0.159771
 20
2.629191
 30
0.0
 11
-0.30987
 21
2.689887
 31
0.0
  0
CIRCLE
  5
C45
100
AcDbEntity
  8
0
100
AcDbCircle
 10
-0.564987
 20
3.233633
 30
0.0
 40
0.086
  0
LINE
  5
C46
100
AcDbEntity
  8
0
100
AcDbLine
 10
-0.936433
 20
3.354152
 30
0.0
 11
-1.086532
 21
3.293456
 31
0.0
  0
LINE
  5
C47
100
AcDbEntity
  8
0
100
AcDbLine
 10
-0.936433
 20
3.113114
 30
0.0
 11
-1.086532
 21
3.17381
 31
0.0
  0
LINE
  5
C48
100
AcDbEntity
  8
0
100
AcDbLine
 10
-0.936433
 20
3.031441
 30
0.0
 11
-1.086574
 21
2.970728
 31
0.0
  0
LINE
  5
C49
100
AcDbEntity
  8
0
100
AcDbLine
 10
-1.112715
 20
3.188467
 30
0.0
 11
-1.142815
 21
3.131956
 31
0.0
  0
LINE
  5
C4A
100
AcDbEntity
  8
0
100
AcDbLine
 10
-1.292914
 20
3.192652
 30
0.0
 11
-1.142815
 21
3.131956
 31
0.0
  0
ARC
  5
C4B
100
AcDbEntity
  8
0
100
AcDbCircle
 10
-1.341649
 20
3.072133
 30
0.0
 40
0.13
100
AcDbArc
 50
96.62581
 51
263.37419
  0
LINE
  5
C4C
100
AcDbEntity
  8
0
100
AcDbLine
 10
-1.292914
 20
2.951614
 30
0.0
 11
-1.142773
 21
3.012327
 31
0.0
  0
CIRCLE
  5
C4D
100
AcDbEntity
  8
0
100
AcDbCircle
 10
-1.341649
 20
3.072133
 30
0.0
 40
0.086
  0
LINE
  5
C4E
100
AcDbEntity
  8
0
100
AcDbLine
 10
-1.326649
 20
2.878553
 30
0.0
 11
-1.326649
 21
2.943001
 31
0.0
  0
LINE
  5
C4F
100
AcDbEntity
  8
0
100
AcDbLine
 10
-1.356649
 20
2.878553
 30
0.0
 11
-1.356649
 21
2.943001
 31
0.0
  0
ARC
  5
C50
100
AcDbEntity
  8
0
100
AcDbCircle
 10
-1.341649
 20
2.749422
 30
0.0
 40
0.13
100
AcDbArc
 50
67.982876
 51
83.37419
  0
ARC
  5
C51
100
AcDbEntity
  8
0
100
AcDbCircle
 10
-1.341649
 20
3.072133
 30
0.0
 40
0.13
100
AcDbArc
 50
276.62581
 51
292.017121
  0
LINE
  5
C52
100
AcDbEntity
  8
0
100
AcDbLine
 10
-1.142773
 20
3.012327
 30
0.0
 11
-1.112749
 21
2.956057
 31
0.0
  0
LINE
  5
C53
100
AcDbEntity
  8
0
100
AcDbLine
 10
-1.116598
 20
3.026998
 30
0.0
 11
-1.086574
 21
2.970728
 31
0.0
  0
ARC
  5
C54
100
AcDbEntity
  8
0
100
AcDbCircle
 10
-1.071664
 20
2.910922
 30
0.0
 40
0.061034
100
AcDbArc
 50
132.310372
 51
227.732142
  0
LINE
  5
C55
100
AcDbEntity
  8
0
100
AcDbLine
 10
-1.086532
 20
3.17381
 30
0.0
 11
-1.116631
 21
3.117299
 31
0.0
  0
ARC
  5
C56
100
AcDbEntity
  8
0
100
AcDbCircle
 10
-1.157683
 20
3.072133
 30
0.0
 40
0.061034
100
AcDbArc
 50
312.310372
 51
47.732142
  0
LINE
  5
C57
100
AcDbEntity
  8
0
100
AcDbLine
 10
-1.326649
 20
3.201265
 30
0.0
 11
-1.326649
 21
3.265713
 31
0.0
  0
LINE
  5
C58
100
AcDbEntity
  8
0
100
AcDbLine
 10
-1.356649
 20
3.201265
 30
0.0
 11
-1.356649
 21
3.265713
 31
0.0
  0
ARC
  5
C59
100
AcDbEntity
  8
0
100
AcDbCircle
 10
-1.341649
 20
3.072133
 30
0.0
 40
0.13
100
AcDbArc
 50
67.982876
 51
83.37419
  0
LINE
  5
C5A
100
AcDbEntity
  8
0
100
AcDbLine
 10
-1.142732
 20
3.335055
 30
0.0
 11
-1.112708
 21
3.278785
 31
0.0
  0
ARC
  5
C5B
100
AcDbEntity
  8
0
100
AcDbCircle
 10
-1.071664
 20
3.233633
 30
0.0
 40
0.061034
100
AcDbArc
 50
132.267855
 51
227.732142
  0
LINE
  5
C5C
100
AcDbEntity
  8
0
100
AcDbLine
 10
-1.116557
 20
3.349726
 30
0.0
 11
-1.086532
 21
3.293456
 31
0.0
  0
ARC
  5
C5D
100
AcDbEntity
  8
0
100
AcDbCircle
 10
-0.564987
 20
3.233633
 30
0.0
 40
0.13
100
AcDbArc
 50
186.62581
 51
263.37419
  0
CIRCLE
  5
C5E
100
AcDbEntity
  8
0
100
AcDbCircle
 10
-0.887698
 20
3.233633
 30
0.0
 40
0.086
  0
ARC
  5
C5F
100
AcDbEntity
  8
0
100
AcDbCircle
 10
-0.887698
 20
3.233633
 30
0.0
 40
0.13
100
AcDbArc
 50
276.62581
 51
353.37419
  0
ARC
  5
C60
100
AcDbEntity
  8
0
100
AcDbCircle
 10
-0.887698
 20
2.910922
 30
0.0
 40
0.13
100
AcDbArc
 50
6.62581
 51
83.37419
  0
ARC
  5
C61
100
AcDbEntity
  8
0
100
AcDbCircle
 10
-0.887698
 20
3.233633
 30
0.0
 40
0.13
100
AcDbArc
 50
247.982879
 51
263.37419
  0
ARC
  5
C62
100
AcDbEntity
  8
0
100
AcDbCircle
 10
-0.887698
 20
2.910922
 30
0.0
 40
0.13
100
AcDbArc
 50
96.62581
 51
112.017124
  0
LINE
  5
C63
100
AcDbEntity
  8
0
100
AcDbLine
 10
-0.872698
 20
3.040053
 30
0.0
 11
-0.872698
 21
3.104501
 31
0.0
  0
LINE
  5
C64
100
AcDbEntity
  8
0
100
AcDbLine
 10
-0.902698
 20
3.040053
 30
0.0
 11
-0.902698
 21
3.104501
 31
0.0
  0
ARC
  5
C65
100
AcDbEntity
  8
0
100
AcDbCircle
 10
-0.564987
 20
2.910922
 30
0.0
 40
0.13
100
AcDbArc
 50
96.62581
 51
173.37419
  0
LINE
  5
C66
100
AcDbEntity
  8
0
100
AcDbLine
 10
-0.758567
 20
2.925922
 30
0.0
 11
-0.694118
 21
2.925922
 31
0.0
  0
LINE
  5
C67
100
AcDbEntity
  8
0
100
AcDbLine
 10
-0.758567
 20
2.895922
 30
0.0
 11
-0.694118
 21
2.895922
 31
0.0
  0
LINE
  5
C68
100
AcDbEntity
  8
0
100
AcDbLine
 10
-0.579987
 20
3.040053
 30
0.0
 11
-0.579987
 21
3.104501
 31
0.0
  0
ARC
  5
C69
100
AcDbEntity
  8
0
100
AcDbCircle
 10
-0.887698
 20
3.233633
 30
0.0
 40
0.13
100
AcDbArc
 50
6.62581
 51
83.37419
  0
ARC
  5
C6A
100
AcDbEntity
  8
0
100
AcDbCircle
 10
-0.887698
 20
3.233633
 30
0.0
 40
0.13
100
AcDbArc
 50
96.62581
 51
112.017124
  0
LINE
  5
C6B
100
AcDbEntity
  8
0
100
AcDbLine
 10
-0.902698
 20
3.318315
 30
0.0
 11
-0.902698
 21
3.319633
 31
0.0
  0
LINE
  5
C6C
100
AcDbEntity
  8
0
100
AcDbLine
 10
-0.872698
 20
3.318315
 30
0.0
 11
-0.872698
 21
3.319633
 31
0.0
  0
LINE
  5
C6D
100
AcDbEntity
  8
0
100
AcDbLine
 10
-0.872698
 20
3.362765
 30
0.0
 11
-0.872698
 21
3.427213
 31
0.0
  0
LINE
  5
C6E
100
AcDbEntity
  8
0
100
AcDbLine
 10
-0.902698
 20
3.362765
 30
0.0
 11
-0.902698
 21
3.427213
 31
0.0
  0
ARC
  5
C6F
100
AcDbEntity
  8
0
100
AcDbCircle
 10
-0.564987
 20
3.233633
 30
0.0
 40
0.13
100
AcDbArc
 50
96.62581
 51
173.37419
  0
LINE
  5
C70
100
AcDbEntity
  8
0
100
AcDbLine
 10
-0.758567
 20
3.248633
 30
0.0
 11
-0.694118
 21
3.248633
 31
0.0
  0
LINE
  5
C71
100
AcDbEntity
  8
0
100
AcDbLine
 10
-0.758567
 20
3.218633
 30
0.0
 11
-0.694118
 21
3.218633
 31
0.0
  0
LINE
  5
C72
100
AcDbEntity
  8
0
100
AcDbLine
 10
-0.579987
 20
3.362765
 30
0.0
 11
-0.579987
 21
3.427213
 31
0.0
  0
CIRCLE
  5
C73
100
AcDbEntity
  8
0
100
AcDbCircle
 10
-0.111036
 20
3.072422
 30
0.0
 40
0.086
  0
ARC
  5
C74
100
AcDbEntity
  8
0
100
AcDbCircle
 10
-0.111036
 20
3.072422
 30
0.0
 40
0.13
100
AcDbArc
 50
276.62581
 51
83.37419
  0
LINE
  5
C75
100
AcDbEntity
  8
0
100
AcDbLine
 10
-0.339936
 20
3.188498
 30
0.0
 11
-0.309912
 21
3.132228
 31
0.0
  0
LINE
  5
C76
100
AcDbEntity
  8
0
100
AcDbLine
 10
-0.159771
 20
3.192941
 30
0.0
 11
-0.309912
 21
3.132228
 31
0.0
  0
ARC
  5
C77
100
AcDbEntity
  8
0
100
AcDbCircle
 10
-0.381021
 20
2.910922
 30
0.0
 40
0.061034
100
AcDbArc
 50
312.267861
 51
47.732142
  0
LINE
  5
C78
100
AcDbEntity
  8
0
100
AcDbLine
 10
-0.30987
 20
3.012598
 30
0.0
 11
-0.339969
 21
2.956087
 31
0.0
  0
LINE
  5
C79
100
AcDbEntity
  8
0
100
AcDbLine
 10
-0.336053
 20
3.027256
 30
0.0
 11
-0.366153
 21
2.970745
 31
0.0
  0
LINE
  5
C7A
100
AcDbEntity
  8
0
100
AcDbLine
 10
-0.516252
 20
3.031441
 30
0.0
 11
-0.366153
 21
2.970745
 31
0.0
  0
LINE
  5
C7B
100
AcDbEntity
  8
0
100
AcDbLine
 10
-0.516252
 20
3.113114
 30
0.0
 11
-0.366111
 21
3.173827
 31
0.0
  0
ARC
  5
C7C
100
AcDbEntity
  8
0
100
AcDbCircle
 10
-0.564987
 20
3.233633
 30
0.0
 40
0.13
100
AcDbArc
 50
276.62581
 51
292.017121
  0
LINE
  5
C7D
100
AcDbEntity
  8
0
100
AcDbLine
 10
-0.549987
 20
3.040053
 30
0.0
 11
-0.549987
 21
3.104501
 31
0.0
  0
ARC
  5
C7E
100
AcDbEntity
  8
0
100
AcDbCircle
 10
-0.564987
 20
2.910922
 30
0.0
 40
0.13
100
AcDbArc
 50
67.982876
 51
83.37419
  0
LINE
  5
C7F
100
AcDbEntity
  8
0
100
AcDbLine
 10
-0.366111
 20
3.173827
 30
0.0
 11
-0.336087
 21
3.117557
 31
0.0
  0
ARC
  5
C80
100
AcDbEntity
  8
0
100
AcDbCircle
 10
-0.295002
 20
3.072422
 30
0.0
 40
0.061034
100
AcDbArc
 50
132.310372
 51
227.732142
  0
LINE
  5
C81
100
AcDbEntity
  8
0
100
AcDbLine
 10
-0.159771
 20
2.951902
 30
0.0
 11
-0.30987
 21
3.012598
 31
0.0
  0
LINE
  5
C82
100
AcDbEntity
  8
0
100
AcDbLine
 10
-0.126036
 20
2.878842
 30
0.0
 11
-0.126036
 21
2.94329
 31
0.0
  0
LINE
  5
C83
100
AcDbEntity
  8
0
100
AcDbLine
 10
-0.096036
 20
2.878842
 30
0.0
 11
-0.096036
 21
2.94329
 31
0.0
  0
LINE
  5
C84
100
AcDbEntity
  8
0
100
AcDbLine
 10
-0.126036
 20
2.878842
 30
0.0
 11
-0.126036
 21
2.94329
 31
0.0
  0
LINE
  5
C85
100
AcDbEntity
  8
0
100
AcDbLine
 10
-0.096036
 20
2.878842
 30
0.0
 11
-0.096036
 21
2.94329
 31
0.0
  0
ARC
  5
C86
100
AcDbEntity
  8
0
100
AcDbCircle
 10
-0.111036
 20
3.072422
 30
0.0
 40
0.13
100
AcDbArc
 50
247.982879
 51
263.37419
  0
ARC
  5
C87
100
AcDbEntity
  8
0
100
AcDbCircle
 10
-0.111036
 20
2.74971
 30
0.0
 40
0.13
100
AcDbArc
 50
96.62581
 51
112.017124
  0
LINE
  5
C88
100
AcDbEntity
  8
0
100
AcDbLine
 10
-0.30987
 20
3.33531
 30
0.0
 11
-0.339969
 21
3.278799
 31
0.0
  0
ARC
  5
C89
100
AcDbEntity
  8
0
100
AcDbCircle
 10
-0.381021
 20
3.233633
 30
0.0
 40
0.061034
100
AcDbArc
 50
312.310372
 51
47.732142
  0
ARC
  5
C8A
100
AcDbEntity
  8
0
100
AcDbCircle
 10
-0.564987
 20
3.233633
 30
0.0
 40
0.13
100
AcDbArc
 50
67.982876
 51
83.37419
  0
LINE
  5
C8B
100
AcDbEntity
  8
0
100
AcDbLine
 10
-0.516252
 20
3.354152
 30
0.0
 11
-0.366153
 21
3.293456
 31
0.0
  0
LINE
  5
C8C
100
AcDbEntity
  8
0
100
AcDbLine
 10
-0.336053
 20
3.349967
 30
0.0
 11
-0.366153
 21
3.293456
 31
0.0
  0
LINE
  5
C8D
100
AcDbEntity
  8
0
100
AcDbLine
 10
-0.549987
 20
3.362765
 30
0.0
 11
-0.549987
 21
3.427213
 31
0.0
  0
LINE
  5
C8E
100
AcDbEntity
  8
0
100
AcDbLine
 10
-0.126036
 20
3.201553
 30
0.0
 11
-0.126036
 21
3.266001
 31
0.0
  0
LINE
  5
C8F
100
AcDbEntity
  8
0
100
AcDbLine
 10
-0.096036
 20
3.201553
 30
0.0
 11
-0.096036
 21
3.266001
 31
0.0
  0
ARC
  5
C90
100
AcDbEntity
  8
0
100
AcDbCircle
 10
-0.111036
 20
3.072422
 30
0.0
 40
0.13
100
AcDbArc
 50
96.62581
 51
112.017124
  0
LINE
  5
C91
100
AcDbEntity
  8
0
100
AcDbLine
 10
-0.366145
 20
3.496485
 30
0.0
 11
-0.33612
 21
3.440215
 31
0.0
  0
LINE
  5
C92
100
AcDbEntity
  8
0
100
AcDbLine
 10
-0.36607
 20
3.496532
 30
0.0
 11
-0.336046
 21
3.440262
 31
0.0
  0
LINE
  5
C93
100
AcDbEntity
  8
0
100
AcDbLine
 10
-0.339969
 20
3.511156
 30
0.0
 11
-0.309945
 21
3.454886
 31
0.0
  0
LINE
  5
C94
100
AcDbEntity
  8
0
100
AcDbLine
 10
-0.159771
 20
3.515629
 30
0.0
 11
-0.30987
 21
3.454933
 31
0.0
  0
LINE
  5
C95
100
AcDbEntity
  8
0
100
AcDbLine
 10
-0.339895
 20
3.511203
 30
0.0
 11
-0.30987
 21
3.454933
 31
0.0
  0
CIRCLE
  5
C96
100
AcDbEntity
  8
0
100
AcDbCircle
 10
-0.564987
 20
3.556322
 30
0.0
 40
0.086
  0
ARC
  5
C97
100
AcDbEntity
  8
0
100
AcDbCircle
 10
-0.564987
 20
3.556322
 30
0.0
 40
0.13
100
AcDbArc
 50
186.62581
 51
263.37419
  0
LINE
  5
C98
100
AcDbEntity
  8
0
100
AcDbLine
 10
-0.516252
 20
3.435802
 30
0.0
 11
-0.366153
 21
3.496498
 31
0.0
  0
LINE
  5
C99
100
AcDbEntity
  8
0
100
AcDbLine
 10
-0.936433
 20
3.435802
 30
0.0
 11
-1.086532
 21
3.496498
 31
0.0
  0
LINE
  5
C9A
100
AcDbEntity
  8
0
100
AcDbLine
 10
-1.292914
 20
3.515341
 30
0.0
 11
-1.142815
 21
3.454645
 31
0.0
  0
LINE
  5
C9B
100
AcDbEntity
  8
0
100
AcDbLine
 10
-1.112715
 20
3.511156
 30
0.0
 11
-1.142815
 21
3.454645
 31
0.0
  0
LINE
  5
C9C
100
AcDbEntity
  8
0
100
AcDbLine
 10
-1.086532
 20
3.496498
 30
0.0
 11
-1.116631
 21
3.439987
 31
0.0
  0
ARC
  5
C9D
100
AcDbEntity
  8
0
100
AcDbCircle
 10
-0.887698
 20
3.556322
 30
0.0
 40
0.13
100
AcDbArc
 50
276.62581
 51
353.37419
  0
CIRCLE
  5
C9E
100
AcDbEntity
  8
0
100
AcDbCircle
 10
-0.887698
 20
3.556322
 30
0.0
 40
0.086
  0
CIRCLE
  5
C9F
100
AcDbEntity
  8
0
100
AcDbCircle
 10
-1.341649
 20
3.394822
 30
0.0
 40
0.086
  0
CIRCLE
  5
CA0
100
AcDbEntity
  8
0
100
AcDbCircle
 10
-0.111036
 20
3.39511
 30
0.0
 40
0.086
  0
ARC
  5
CA1
100
AcDbEntity
  8
0
100
AcDbCircle
 10
-1.341649
 20
3.394822
 30
0.0
 40
0.13
100
AcDbArc
 50
96.62581
 51
263.37419
  0
ARC
  5
CA2
100
AcDbEntity
  8
0
100
AcDbCircle
 10
-0.111036
 20
3.39511
 30
0.0
 40
0.13
100
AcDbArc
 50
247.982879
 51
83.37419
  0
LINE
  5
CA3
100
AcDbEntity
  8
0
100
AcDbLine
 10
-1.292914
 20
3.274302
 30
0.0
 11
-1.142815
 21
3.334998
 31
0.0
  0
LINE
  5
CA4
100
AcDbEntity
  8
0
100
AcDbLine
 10
-1.326649
 20
3.201242
 30
0.0
 11
-1.326649
 21
3.26569
 31
0.0
  0
LINE
  5
CA5
100
AcDbEntity
  8
0
100
AcDbLine
 10
-1.356649
 20
3.201242
 30
0.0
 11
-1.356649
 21
3.26569
 31
0.0
  0
ARC
  5
CA6
100
AcDbEntity
  8
0
100
AcDbCircle
 10
-1.341649
 20
3.394822
 30
0.0
 40
0.13
100
AcDbArc
 50
276.62581
 51
292.017121
  0
LINE
  5
CA7
100
AcDbEntity
  8
0
100
AcDbLine
 10
-1.116631
 20
3.349656
 30
0.0
 11
-1.086607
 21
3.293386
 31
0.0
  0
LINE
  5
CA8
100
AcDbEntity
  8
0
100
AcDbLine
 10
-1.142807
 20
3.334985
 30
0.0
 11
-1.112782
 21
3.278715
 31
0.0
  0
ARC
  5
CA9
100
AcDbEntity
  8
0
100
AcDbCircle
 10
-1.157683
 20
3.394822
 30
0.0
 40
0.061034
100
AcDbArc
 50
312.267861
 51
47.732142
  0
ARC
  5
CAA
100
AcDbEntity
  8
0
100
AcDbCircle
 10
-0.887698
 20
3.556322
 30
0.0
 40
0.13
100
AcDbArc
 50
247.982879
 51
263.37419
  0
LINE
  5
CAB
100
AcDbEntity
  8
0
100
AcDbLine
 10
-0.872698
 20
3.362742
 30
0.0
 11
-0.872698
 21
3.42719
 31
0.0
  0
LINE
  5
CAC
100
AcDbEntity
  8
0
100
AcDbLine
 10
-0.902698
 20
3.362742
 30
0.0
 11
-0.902698
 21
3.42719
 31
0.0
  0
LINE
  5
CAD
100
AcDbEntity
  8
0
100
AcDbLine
 10
-0.579987
 20
3.362742
 30
0.0
 11
-0.579987
 21
3.42719
 31
0.0
  0
LINE
  5
CAE
100
AcDbEntity
  8
0
100
AcDbLine
 10
-0.30987
 20
3.335287
 30
0.0
 11
-0.339969
 21
3.278776
 31
0.0
  0
LINE
  5
CAF
100
AcDbEntity
  8
0
100
AcDbLine
 10
-0.336053
 20
3.349944
 30
0.0
 11
-0.366153
 21
3.293433
 31
0.0
  0
ARC
  5
CB0
100
AcDbEntity
  8
0
100
AcDbCircle
 10
-0.564987
 20
3.556322
 30
0.0
 40
0.13
100
AcDbArc
 50
276.62581
 51
292.017121
  0
LINE
  5
CB1
100
AcDbEntity
  8
0
100
AcDbLine
 10
-0.549987
 20
3.362742
 30
0.0
 11
-0.549987
 21
3.42719
 31
0.0
  0
ARC
  5
CB2
100
AcDbEntity
  8
0
100
AcDbCircle
 10
-0.295002
 20
3.39511
 30
0.0
 40
0.061034
100
AcDbArc
 50
132.267855
 51
227.732142
  0
LINE
  5
CB3
100
AcDbEntity
  8
0
100
AcDbLine
 10
-0.159771
 20
3.274591
 30
0.0
 11
-0.30987
 21
3.335287
 31
0.0
  0
CIRCLE
  5
CB4
100
AcDbEntity
  8
0
100
AcDbCircle
 10
-0.564987
 20
3.879033
 30
0.0
 40
0.086
  0
LINE
  5
CB5
100
AcDbEntity
  8
0
100
AcDbLine
 10
-0.936433
 20
3.999552
 30
0.0
 11
-1.086532
 21
3.938856
 31
0.0
  0
LINE
  5
CB6
100
AcDbEntity
  8
0
100
AcDbLine
 10
-0.936433
 20
3.758514
 30
0.0
 11
-1.086532
 21
3.81921
 31
0.0
  0
LINE
  5
CB7
100
AcDbEntity
  8
0
100
AcDbLine
 10
-0.936433
 20
3.676841
 30
0.0
 11
-1.086574
 21
3.616128
 31
0.0
  0
LINE
  5
CB8
100
AcDbEntity
  8
0
100
AcDbLine
 10
-1.112715
 20
3.833867
 30
0.0
 11
-1.142815
 21
3.777356
 31
0.0
  0
LINE
  5
CB9
100
AcDbEntity
  8
0
100
AcDbLine
 10
-1.292914
 20
3.838052
 30
0.0
 11
-1.142815
 21
3.777356
 31
0.0
  0
ARC
  5
CBA
100
AcDbEntity
  8
0
100
AcDbCircle
 10
-1.341649
 20
3.717533
 30
0.0
 40
0.13
100
AcDbArc
 50
96.62581
 51
263.37419
  0
LINE
  5
CBB
100
AcDbEntity
  8
0
100
AcDbLine
 10
-1.292914
 20
3.597014
 30
0.0
 11
-1.142773
 21
3.657727
 31
0.0
  0
CIRCLE
  5
CBC
100
AcDbEntity
  8
0
100
AcDbCircle
 10
-1.341649
 20
3.717533
 30
0.0
 40
0.086
  0
LINE
  5
CBD
100
AcDbEntity
  8
0
100
AcDbLine
 10
-1.326649
 20
3.523953
 30
0.0
 11
-1.326649
 21
3.588401
 31
0.0
  0
LINE
  5
CBE
100
AcDbEntity
  8
0
100
AcDbLine
 10
-1.356649
 20
3.523953
 30
0.0
 11
-1.356649
 21
3.588401
 31
0.0
  0
ARC
  5
CBF
100
AcDbEntity
  8
0
100
AcDbCircle
 10
-1.341649
 20
3.394822
 30
0.0
 40
0.13
100
AcDbArc
 50
67.982876
 51
83.37419
  0
ARC
  5
CC0
100
AcDbEntity
  8
0
100
AcDbCircle
 10
-1.341649
 20
3.717533
 30
0.0
 40
0.13
100
AcDbArc
 50
276.62581
 51
292.017121
  0
LINE
  5
CC1
100
AcDbEntity
  8
0
100
AcDbLine
 10
-1.142773
 20
3.657727
 30
0.0
 11
-1.112749
 21
3.601457
 31
0.0
  0
LINE
  5
CC2
100
AcDbEntity
  8
0
100
AcDbLine
 10
-1.116598
 20
3.672398
 30
0.0
 11
-1.086574
 21
3.616128
 31
0.0
  0
ARC
  5
CC3
100
AcDbEntity
  8
0
100
AcDbCircle
 10
-1.071664
 20
3.556322
 30
0.0
 40
0.061034
100
AcDbArc
 50
132.310372
 51
227.732142
  0
LINE
  5
CC4
100
AcDbEntity
  8
0
100
AcDbLine
 10
-1.086532
 20
3.81921
 30
0.0
 11
-1.116631
 21
3.762699
 31
0.0
  0
ARC
  5
CC5
100
AcDbEntity
  8
0
100
AcDbCircle
 10
-1.157683
 20
3.717533
 30
0.0
 40
0.061034
100
AcDbArc
 50
312.310372
 51
47.732142
  0
LINE
  5
CC6
100
AcDbEntity
  8
0
100
AcDbLine
 10
-1.326649
 20
3.846665
 30
0.0
 11
-1.326649
 21
3.911113
 31
0.0
  0
LINE
  5
CC7
100
AcDbEntity
  8
0
100
AcDbLine
 10
-1.356649
 20
3.846665
 30
0.0
 11
-1.356649
 21
3.911113
 31
0.0
  0
ARC
  5
CC8
100
AcDbEntity
  8
0
100
AcDbCircle
 10
-1.341649
 20
3.717533
 30
0.0
 40
0.13
100
AcDbArc
 50
67.982876
 51
83.37419
  0
LINE
  5
CC9
100
AcDbEntity
  8
0
100
AcDbLine
 10
-1.142732
 20
3.980455
 30
0.0
 11
-1.112708
 21
3.924185
 31
0.0
  0
ARC
  5
CCA
100
AcDbEntity
  8
0
100
AcDbCircle
 10
-1.071664
 20
3.879033
 30
0.0
 40
0.061034
100
AcDbArc
 50
132.267855
 51
227.732142
  0
LINE
  5
CCB
100
AcDbEntity
  8
0
100
AcDbLine
 10
-1.116557
 20
3.995126
 30
0.0
 11
-1.086532
 21
3.938856
 31
0.0
  0
ARC
  5
CCC
100
AcDbEntity
  8
0
100
AcDbCircle
 10
-0.564987
 20
3.879033
 30
0.0
 40
0.13
100
AcDbArc
 50
186.62581
 51
263.37419
  0
CIRCLE
  5
CCD
100
AcDbEntity
  8
0
100
AcDbCircle
 10
-0.887698
 20
3.879033
 30
0.0
 40
0.086
  0
ARC
  5
CCE
100
AcDbEntity
  8
0
100
AcDbCircle
 10
-0.887698
 20
3.879033
 30
0.0
 40
0.13
100
AcDbArc
 50
276.62581
 51
353.37419
  0
ARC
  5
CCF
100
AcDbEntity
  8
0
100
AcDbCircle
 10
-0.887698
 20
3.556322
 30
0.0
 40
0.13
100
AcDbArc
 50
6.62581
 51
83.37419
  0
ARC
  5
CD0
100
AcDbEntity
  8
0
100
AcDbCircle
 10
-0.887698
 20
3.879033
 30
0.0
 40
0.13
100
AcDbArc
 50
247.982879
 51
263.37419
  0
ARC
  5
CD1
100
AcDbEntity
  8
0
100
AcDbCircle
 10
-0.887698
 20
3.556322
 30
0.0
 40
0.13
100
AcDbArc
 50
96.62581
 51
112.017124
  0
LINE
  5
CD2
100
AcDbEntity
  8
0
100
AcDbLine
 10
-0.872698
 20
3.685453
 30
0.0
 11
-0.872698
 21
3.749901
 31
0.0
  0
LINE
  5
CD3
100
AcDbEntity
  8
0
100
AcDbLine
 10
-0.902698
 20
3.685453
 30
0.0
 11
-0.902698
 21
3.749901
 31
0.0
  0
ARC
  5
CD4
100
AcDbEntity
  8
0
100
AcDbCircle
 10
-0.564987
 20
3.556322
 30
0.0
 40
0.13
100
AcDbArc
 50
96.62581
 51
173.37419
  0
LINE
  5
CD5
100
AcDbEntity
  8
0
100
AcDbLine
 10
-0.758567
 20
3.571322
 30
0.0
 11
-0.694118
 21
3.571322
 31
0.0
  0
LINE
  5
CD6
100
AcDbEntity
  8
0
100
AcDbLine
 10
-0.758567
 20
3.541322
 30
0.0
 11
-0.694118
 21
3.541322
 31
0.0
  0
LINE
  5
CD7
100
AcDbEntity
  8
0
100
AcDbLine
 10
-0.579987
 20
3.685453
 30
0.0
 11
-0.579987
 21
3.749901
 31
0.0
  0
ARC
  5
CD8
100
AcDbEntity
  8
0
100
AcDbCircle
 10
-0.887698
 20
3.879033
 30
0.0
 40
0.13
100
AcDbArc
 50
6.62581
 51
83.37419
  0
ARC
  5
CD9
100
AcDbEntity
  8
0
100
AcDbCircle
 10
-0.887698
 20
3.879033
 30
0.0
 40
0.13
100
AcDbArc
 50
96.62581
 51
112.017124
  0
LINE
  5
CDA
100
AcDbEntity
  8
0
100
AcDbLine
 10
-0.902698
 20
3.963715
 30
0.0
 11
-0.902698
 21
3.965033
 31
0.0
  0
LINE
  5
CDB
100
AcDbEntity
  8
0
100
AcDbLine
 10
-0.872698
 20
3.963715
 30
0.0
 11
-0.872698
 21
3.965033
 31
0.0
  0
LINE
  5
CDC
100
AcDbEntity
  8
0
100
AcDbLine
 10
-0.872698
 20
4.008165
 30
0.0
 11
-0.872698
 21
4.072613
 31
0.0
  0
LINE
  5
CDD
100
AcDbEntity
  8
0
100
AcDbLine
 10
-0.902698
 20
4.008165
 30
0.0
 11
-0.902698
 21
4.072613
 31
0.0
  0
ARC
  5
CDE
100
AcDbEntity
  8
0
100
AcDbCircle
 10
-0.564987
 20
3.879033
 30
0.0
 40
0.13
100
AcDbArc
 50
96.62581
 51
173.37419
  0
LINE
  5
CDF
100
AcDbEntity
  8
0
100
AcDbLine
 10
-0.758567
 20
3.894033
 30
0.0
 11
-0.694118
 21
3.894033
 31
0.0
  0
LINE
  5
CE0
100
AcDbEntity
  8
0
100
AcDbLine
 10
-0.758567
 20
3.864033
 30
0.0
 11
-0.694118
 21
3.864033
 31
0.0
  0
LINE
  5
CE1
100
AcDbEntity
  8
0
100
AcDbLine
 10
-0.579987
 20
4.008165
 30
0.0
 11
-0.579987
 21
4.072613
 31
0.0
  0
CIRCLE
  5
CE2
100
AcDbEntity
  8
0
100
AcDbCircle
 10
-0.111036
 20
3.717822
 30
0.0
 40
0.086
  0
ARC
  5
CE3
100
AcDbEntity
  8
0
100
AcDbCircle
 10
-0.111036
 20
3.717822
 30
0.0
 40
0.13
100
AcDbArc
 50
276.62581
 51
83.37419
  0
LINE
  5
CE4
100
AcDbEntity
  8
0
100
AcDbLine
 10
-0.339936
 20
3.833898
 30
0.0
 11
-0.309912
 21
3.777628
 31
0.0
  0
LINE
  5
CE5
100
AcDbEntity
  8
0
100
AcDbLine
 10
-0.159771
 20
3.838341
 30
0.0
 11
-0.309912
 21
3.777628
 31
0.0
  0
ARC
  5
CE6
100
AcDbEntity
  8
0
100
AcDbCircle
 10
-0.381021
 20
3.556322
 30
0.0
 40
0.061034
100
AcDbArc
 50
312.267861
 51
47.732142
  0
LINE
  5
CE7
100
AcDbEntity
  8
0
100
AcDbLine
 10
-0.30987
 20
3.657998
 30
0.0
 11
-0.339969
 21
3.601487
 31
0.0
  0
LINE
  5
CE8
100
AcDbEntity
  8
0
100
AcDbLine
 10
-0.336053
 20
3.672656
 30
0.0
 11
-0.366153
 21
3.616145
 31
0.0
  0
LINE
  5
CE9
100
AcDbEntity
  8
0
100
AcDbLine
 10
-0.516252
 20
3.676841
 30
0.0
 11
-0.366153
 21
3.616145
 31
0.0
  0
LINE
  5
CEA
100
AcDbEntity
  8
0
100
AcDbLine
 10
-0.516252
 20
3.758514
 30
0.0
 11
-0.366111
 21
3.819227
 31
0.0
  0
ARC
  5
CEB
100
AcDbEntity
  8
0
100
AcDbCircle
 10
-0.564987
 20
3.879033
 30
0.0
 40
0.13
100
AcDbArc
 50
276.62581
 51
292.017121
  0
LINE
  5
CEC
100
AcDbEntity
  8
0
100
AcDbLine
 10
-0.549987
 20
3.685453
 30
0.0
 11
-0.549987
 21
3.749901
 31
0.0
  0
ARC
  5
CED
100
AcDbEntity
  8
0
100
AcDbCircle
 10
-0.564987
 20
3.556322
 30
0.0
 40
0.13
100
AcDbArc
 50
67.982876
 51
83.37419
  0
LINE
  5
CEE
100
AcDbEntity
  8
0
100
AcDbLine
 10
-0.366111
 20
3.819227
 30
0.0
 11
-0.336087
 21
3.762957
 31
0.0
  0
ARC
  5
CEF
100
AcDbEntity
  8
0
100
AcDbCircle
 10
-0.295002
 20
3.717822
 30
0.0
 40
0.061034
100
AcDbArc
 50
132.310372
 51
227.732142
  0
LINE
  5
CF0
100
AcDbEntity
  8
0
100
AcDbLine
 10
-0.159771
 20
3.597302
 30
0.0
 11
-0.30987
 21
3.657998
 31
0.0
  0
LINE
  5
CF1
100
AcDbEntity
  8
0
100
AcDbLine
 10
-0.126036
 20
3.524242
 30
0.0
 11
-0.126036
 21
3.58869
 31
0.0
  0
LINE
  5
CF2
100
AcDbEntity
  8
0
100
AcDbLine
 10
-0.096036
 20
3.524242
 30
0.0
 11
-0.096036
 21
3.58869
 31
0.0
  0
LINE
  5
CF3
100
AcDbEntity
  8
0
100
AcDbLine
 10
-0.126036
 20
3.524242
 30
0.0
 11
-0.126036
 21
3.58869
 31
0.0
  0
LINE
  5
CF4
100
AcDbEntity
  8
0
100
AcDbLine
 10
-0.096036
 20
3.524242
 30
0.0
 11
-0.096036
 21
3.58869
 31
0.0
  0
ARC
  5
CF5
100
AcDbEntity
  8
0
100
AcDbCircle
 10
-0.111036
 20
3.717822
 30
0.0
 40
0.13
100
AcDbArc
 50
247.982879
 51
263.37419
  0
ARC
  5
CF6
100
AcDbEntity
  8
0
100
AcDbCircle
 10
-0.111036
 20
3.39511
 30
0.0
 40
0.13
100
AcDbArc
 50
96.62581
 51
112.017124
  0
LINE
  5
CF7
100
AcDbEntity
  8
0
100
AcDbLine
 10
-0.30987
 20
3.98071
 30
0.0
 11
-0.339969
 21
3.924199
 31
0.0
  0
ARC
  5
CF8
100
AcDbEntity
  8
0
100
AcDbCircle
 10
-0.381021
 20
3.879033
 30
0.0
 40
0.061034
100
AcDbArc
 50
312.310372
 51
47.732142
  0
ARC
  5
CF9
100
AcDbEntity
  8
0
100
AcDbCircle
 10
-0.564987
 20
3.879033
 30
0.0
 40
0.13
100
AcDbArc
 50
67.982876
 51
83.37419
  0
LINE
  5
CFA
100
AcDbEntity
  8
0
100
AcDbLine
 10
-0.516252
 20
3.999552
 30
0.0
 11
-0.366153
 21
3.938856
 31
0.0
  0
LINE
  5
CFB
100
AcDbEntity
  8
0
100
AcDbLine
 10
-0.336053
 20
3.995367
 30
0.0
 11
-0.366153
 21
3.938856
 31
0.0
  0
LINE
  5
CFC
100
AcDbEntity
  8
0
100
AcDbLine
 10
-0.549987
 20
4.008165
 30
0.0
 11
-0.549987
 21
4.072613
 31
0.0
  0
LINE
  5
CFD
100
AcDbEntity
  8
0
100
AcDbLine
 10
-0.126036
 20
3.846953
 30
0.0
 11
-0.126036
 21
3.911401
 31
0.0
  0
LINE
  5
CFE
100
AcDbEntity
  8
0
100
AcDbLine
 10
-0.096036
 20
3.846953
 30
0.0
 11
-0.096036
 21
3.911401
 31
0.0
  0
ARC
  5
CFF
100
AcDbEntity
  8
0
100
AcDbCircle
 10
-0.111036
 20
3.717822
 30
0.0
 40
0.13
100
AcDbArc
 50
96.62581
 51
112.017124
  0
LINE
  5
D00
100
AcDbEntity
  8
0
100
AcDbLine
 10
-0.366145
 20
4.141885
 30
0.0
 11
-0.33612
 21
4.085615
 31
0.0
  0
LINE
  5
D01
100
AcDbEntity
  8
0
100
AcDbLine
 10
-0.36607
 20
4.141932
 30
0.0
 11
-0.336046
 21
4.085662
 31
0.0
  0
LINE
  5
D02
100
AcDbEntity
  8
0
100
AcDbLine
 10
-0.339969
 20
4.156556
 30
0.0
 11
-0.309945
 21
4.100286
 31
0.0
  0
LINE
  5
D03
100
AcDbEntity
  8
0
100
AcDbLine
 10
-0.159771
 20
4.161029
 30
0.0
 11
-0.30987
 21
4.100333
 31
0.0
  0
LINE
  5
D04
100
AcDbEntity
  8
0
100
AcDbLine
 10
-0.339895
 20
4.156603
 30
0.0
 11
-0.30987
 21
4.100333
 31
0.0
  0
CIRCLE
  5
D05
100
AcDbEntity
  8
0
100
AcDbCircle
 10
-0.564987
 20
4.201722
 30
0.0
 40
0.086
  0
ARC
  5
D06
100
AcDbEntity
  8
0
100
AcDbCircle
 10
-0.564987
 20
4.201722
 30
0.0
 40
0.13
100
AcDbArc
 50
186.62581
 51
263.37419
  0
LINE
  5
D07
100
AcDbEntity
  8
0
100
AcDbLine
 10
-0.516252
 20
4.081202
 30
0.0
 11
-0.366153
 21
4.141898
 31
0.0
  0
LINE
  5
D08
100
AcDbEntity
  8
0
100
AcDbLine
 10
-0.936433
 20
4.081202
 30
0.0
 11
-1.086532
 21
4.141898
 31
0.0
  0
LINE
  5
D09
100
AcDbEntity
  8
0
100
AcDbLine
 10
-1.292914
 20
4.160741
 30
0.0
 11
-1.142815
 21
4.100045
 31
0.0
  0
LINE
  5
D0A
100
AcDbEntity
  8
0
100
AcDbLine
 10
-1.112715
 20
4.156556
 30
0.0
 11
-1.142815
 21
4.100045
 31
0.0
  0
LINE
  5
D0B
100
AcDbEntity
  8
0
100
AcDbLine
 10
-1.086532
 20
4.141898
 30
0.0
 11
-1.116631
 21
4.085387
 31
0.0
  0
ARC
  5
D0C
100
AcDbEntity
  8
0
100
AcDbCircle
 10
-0.887698
 20
4.201722
 30
0.0
 40
0.13
100
AcDbArc
 50
276.62581
 51
353.37419
  0
CIRCLE
  5
D0D
100
AcDbEntity
  8
0
100
AcDbCircle
 10
-0.887698
 20
4.201722
 30
0.0
 40
0.086
  0
CIRCLE
  5
D0E
100
AcDbEntity
  8
0
100
AcDbCircle
 10
-1.341649
 20
4.040222
 30
0.0
 40
0.086
  0
CIRCLE
  5
D0F
100
AcDbEntity
  8
0
100
AcDbCircle
 10
-0.111036
 20
4.04051
 30
0.0
 40
0.086
  0
ARC
  5
D10
100
AcDbEntity
  8
0
100
AcDbCircle
 10
-1.341649
 20
4.040222
 30
0.0
 40
0.13
100
AcDbArc
 50
96.62581
 51
263.37419
  0
ARC
  5
D11
100
AcDbEntity
  8
0
100
AcDbCircle
 10
-0.111036
 20
4.04051
 30
0.0
 40
0.13
100
AcDbArc
 50
247.982879
 51
83.37419
  0
LINE
  5
D12
100
AcDbEntity
  8
0
100
AcDbLine
 10
-1.292914
 20
3.919702
 30
0.0
 11
-1.142815
 21
3.980398
 31
0.0
  0
LINE
  5
D13
100
AcDbEntity
  8
0
100
AcDbLine
 10
-1.326649
 20
3.846642
 30
0.0
 11
-1.326649
 21
3.91109
 31
0.0
  0
LINE
  5
D14
100
AcDbEntity
  8
0
100
AcDbLine
 10
-1.356649
 20
3.846642
 30
0.0
 11
-1.356649
 21
3.91109
 31
0.0
  0
ARC
  5
D15
100
AcDbEntity
  8
0
100
AcDbCircle
 10
-1.341649
 20
4.040222
 30
0.0
 40
0.13
100
AcDbArc
 50
276.62581
 51
292.017121
  0
LINE
  5
D16
100
AcDbEntity
  8
0
100
AcDbLine
 10
-1.116631
 20
3.995056
 30
0.0
 11
-1.086607
 21
3.938786
 31
0.0
  0
LINE
  5
D17
100
AcDbEntity
  8
0
100
AcDbLine
 10
-1.142807
 20
3.980385
 30
0.0
 11
-1.112782
 21
3.924115
 31
0.0
  0
ARC
  5
D18
100
AcDbEntity
  8
0
100
AcDbCircle
 10
-1.157683
 20
4.040222
 30
0.0
 40
0.061034
100
AcDbArc
 50
312.267861
 51
47.732142
  0
ARC
  5
D19
100
AcDbEntity
  8
0
100
AcDbCircle
 10
-0.887698
 20
4.201722
 30
0.0
 40
0.13
100
AcDbArc
 50
247.982879
 51
263.37419
  0
LINE
  5
D1A
100
AcDbEntity
  8
0
100
AcDbLine
 10
-0.872698
 20
4.008142
 30
0.0
 11
-0.872698
 21
4.07259
 31
0.0
  0
LINE
  5
D1B
100
AcDbEntity
  8
0
100
AcDbLine
 10
-0.902698
 20
4.008142
 30
0.0
 11
-0.902698
 21
4.07259
 31
0.0
  0
LINE
  5
D1C
100
AcDbEntity
  8
0
100
AcDbLine
 10
-0.579987
 20
4.008142
 30
0.0
 11
-0.579987
 21
4.07259
 31
0.0
  0
LINE
  5
D1D
100
AcDbEntity
  8
0
100
AcDbLine
 10
-0.30987
 20
3.980687
 30
0.0
 11
-0.339969
 21
3.924176
 31
0.0
  0
LINE
  5
D1E
100
AcDbEntity
  8
0
100
AcDbLine
 10
-0.336053
 20
3.995344
 30
0.0
 11
-0.366153
 21
3.938833
 31
0.0
  0
ARC
  5
D1F
100
AcDbEntity
  8
0
100
AcDbCircle
 10
-0.564987
 20
4.201722
 30
0.0
 40
0.13
100
AcDbArc
 50
276.62581
 51
292.017121
  0
LINE
  5
D20
100
AcDbEntity
  8
0
100
AcDbLine
 10
-0.549987
 20
4.008142
 30
0.0
 11
-0.549987
 21
4.07259
 31
0.0
  0
ARC
  5
D21
100
AcDbEntity
  8
0
100
AcDbCircle
 10
-0.295002
 20
4.04051
 30
0.0
 40
0.061034
100
AcDbArc
 50
132.267855
 51
227.732142
  0
LINE
  5
D22
100
AcDbEntity
  8
0
100
AcDbLine
 10
-0.159771
 20
3.919991
 30
0.0
 11
-0.30987
 21
3.980687
 31
0.0
  0
CIRCLE
  5
D23
100
AcDbEntity
  8
0
100
AcDbCircle
 10
-0.564987
 20
4.524433
 30
0.0
 40
0.086
  0
LINE
  5
D24
100
AcDbEntity
  8
0
100
AcDbLine
 10
-0.936433
 20
4.644952
 30
0.0
 11
-1.086532
 21
4.584256
 31
0.0
  0
LINE
  5
D25
100
AcDbEntity
  8
0
100
AcDbLine
 10
-0.936433
 20
4.403914
 30
0.0
 11
-1.086532
 21
4.46461
 31
0.0
  0
LINE
  5
D26
100
AcDbEntity
  8
0
100
AcDbLine
 10
-0.936433
 20
4.322241
 30
0.0
 11
-1.086574
 21
4.261528
 31
0.0
  0
LINE
  5
D27
100
AcDbEntity
  8
0
100
AcDbLine
 10
-1.112715
 20
4.479267
 30
0.0
 11
-1.142815
 21
4.422756
 31
0.0
  0
LINE
  5
D28
100
AcDbEntity
  8
0
100
AcDbLine
 10
-1.292914
 20
4.483452
 30
0.0
 11
-1.142815
 21
4.422756
 31
0.0
  0
ARC
  5
D29
100
AcDbEntity
  8
0
100
AcDbCircle
 10
-1.341649
 20
4.362933
 30
0.0
 40
0.13
100
AcDbArc
 50
96.62581
 51
263.37419
  0
LINE
  5
D2A
100
AcDbEntity
  8
0
100
AcDbLine
 10
-1.292914
 20
4.242414
 30
0.0
 11
-1.142773
 21
4.303127
 31
0.0
  0
CIRCLE
  5
D2B
100
AcDbEntity
  8
0
100
AcDbCircle
 10
-1.341649
 20
4.362933
 30
0.0
 40
0.086
  0
LINE
  5
D2C
100
AcDbEntity
  8
0
100
AcDbLine
 10
-1.326649
 20
4.169353
 30
0.0
 11
-1.326649
 21
4.233801
 31
0.0
  0
LINE
  5
D2D
100
AcDbEntity
  8
0
100
AcDbLine
 10
-1.356649
 20
4.169353
 30
0.0
 11
-1.356649
 21
4.233801
 31
0.0
  0
ARC
  5
D2E
100
AcDbEntity
  8
0
100
AcDbCircle
 10
-1.341649
 20
4.040222
 30
0.0
 40
0.13
100
AcDbArc
 50
67.982876
 51
83.37419
  0
ARC
  5
D2F
100
AcDbEntity
  8
0
100
AcDbCircle
 10
-1.341649
 20
4.362933
 30
0.0
 40
0.13
100
AcDbArc
 50
276.62581
 51
292.017121
  0
LINE
  5
D30
100
AcDbEntity
  8
0
100
AcDbLine
 10
-1.142773
 20
4.303127
 30
0.0
 11
-1.112749
 21
4.246857
 31
0.0
  0
LINE
  5
D31
100
AcDbEntity
  8
0
100
AcDbLine
 10
-1.116598
 20
4.317798
 30
0.0
 11
-1.086574
 21
4.261528
 31
0.0
  0
ARC
  5
D32
100
AcDbEntity
  8
0
100
AcDbCircle
 10
-1.071664
 20
4.201722
 30
0.0
 40
0.061034
100
AcDbArc
 50
132.310372
 51
227.732142
  0
LINE
  5
D33
100
AcDbEntity
  8
0
100
AcDbLine
 10
-1.086532
 20
4.46461
 30
0.0
 11
-1.116631
 21
4.408099
 31
0.0
  0
ARC
  5
D34
100
AcDbEntity
  8
0
100
AcDbCircle
 10
-1.157683
 20
4.362933
 30
0.0
 40
0.061034
100
AcDbArc
 50
312.310372
 51
47.732142
  0
LINE
  5
D35
100
AcDbEntity
  8
0
100
AcDbLine
 10
-1.326649
 20
4.492065
 30
0.0
 11
-1.326649
 21
4.556513
 31
0.0
  0
LINE
  5
D36
100
AcDbEntity
  8
0
100
AcDbLine
 10
-1.356649
 20
4.492065
 30
0.0
 11
-1.356649
 21
4.556513
 31
0.0
  0
ARC
  5
D37
100
AcDbEntity
  8
0
100
AcDbCircle
 10
-1.341649
 20
4.362933
 30
0.0
 40
0.13
100
AcDbArc
 50
67.982876
 51
83.37419
  0
LINE
  5
D38
100
AcDbEntity
  8
0
100
AcDbLine
 10
-1.142732
 20
4.625855
 30
0.0
 11
-1.112708
 21
4.569585
 31
0.0
  0
ARC
  5
D39
100
AcDbEntity
  8
0
100
AcDbCircle
 10
-1.071664
 20
4.524433
 30
0.0
 40
0.061034
100
AcDbArc
 50
132.267855
 51
227.732142
  0
LINE
  5
D3A
100
AcDbEntity
  8
0
100
AcDbLine
 10
-1.116557
 20
4.640526
 30
0.0
 11
-1.086532
 21
4.584256
 31
0.0
  0
ARC
  5
D3B
100
AcDbEntity
  8
0
100
AcDbCircle
 10
-0.564987
 20
4.524433
 30
0.0
 40
0.13
100
AcDbArc
 50
186.62581
 51
263.37419
  0
CIRCLE
  5
D3C
100
AcDbEntity
  8
0
100
AcDbCircle
 10
-0.887698
 20
4.524433
 30
0.0
 40
0.086
  0
ARC
  5
D3D
100
AcDbEntity
  8
0
100
AcDbCircle
 10
-0.887698
 20
4.524433
 30
0.0
 40
0.13
100
AcDbArc
 50
276.62581
 51
353.37419
  0
ARC
  5
D3E
100
AcDbEntity
  8
0
100
AcDbCircle
 10
-0.887698
 20
4.201722
 30
0.0
 40
0.13
100
AcDbArc
 50
6.62581
 51
83.37419
  0
ARC
  5
D3F
100
AcDbEntity
  8
0
100
AcDbCircle
 10
-0.887698
 20
4.524433
 30
0.0
 40
0.13
100
AcDbArc
 50
247.982879
 51
263.37419
  0
ARC
  5
D40
100
AcDbEntity
  8
0
100
AcDbCircle
 10
-0.887698
 20
4.201722
 30
0.0
 40
0.13
100
AcDbArc
 50
96.62581
 51
112.017124
  0
LINE
  5
D41
100
AcDbEntity
  8
0
100
AcDbLine
 10
-0.872698
 20
4.330853
 30
0.0
 11
-0.872698
 21
4.395301
 31
0.0
  0
LINE
  5
D42
100
AcDbEntity
  8
0
100
AcDbLine
 10
-0.902698
 20
4.330853
 30
0.0
 11
-0.902698
 21
4.395301
 31
0.0
  0
ARC
  5
D43
100
AcDbEntity
  8
0
100
AcDbCircle
 10
-0.564987
 20
4.201722
 30
0.0
 40
0.13
100
AcDbArc
 50
96.62581
 51
173.37419
  0
LINE
  5
D44
100
AcDbEntity
  8
0
100
AcDbLine
 10
-0.758567
 20
4.216722
 30
0.0
 11
-0.694118
 21
4.216722
 31
0.0
  0
LINE
  5
D45
100
AcDbEntity
  8
0
100
AcDbLine
 10
-0.758567
 20
4.186722
 30
0.0
 11
-0.694118
 21
4.186722
 31
0.0
  0
LINE
  5
D46
100
AcDbEntity
  8
0
100
AcDbLine
 10
-0.579987
 20
4.330853
 30
0.0
 11
-0.579987
 21
4.395301
 31
0.0
  0
ARC
  5
D47
100
AcDbEntity
  8
0
100
AcDbCircle
 10
-0.887698
 20
4.524433
 30
0.0
 40
0.13
100
AcDbArc
 50
6.62581
 51
83.37419
  0
ARC
  5
D48
100
AcDbEntity
  8
0
100
AcDbCircle
 10
-0.887698
 20
4.524433
 30
0.0
 40
0.13
100
AcDbArc
 50
96.62581
 51
112.017124
  0
LINE
  5
D49
100
AcDbEntity
  8
0
100
AcDbLine
 10
-0.902698
 20
4.609115
 30
0.0
 11
-0.902698
 21
4.610433
 31
0.0
  0
LINE
  5
D4A
100
AcDbEntity
  8
0
100
AcDbLine
 10
-0.872698
 20
4.609115
 30
0.0
 11
-0.872698
 21
4.610433
 31
0.0
  0
LINE
  5
D4B
100
AcDbEntity
  8
0
100
AcDbLine
 10
-0.872698
 20
4.653565
 30
0.0
 11
-0.872698
 21
4.718013
 31
0.0
  0
LINE
  5
D4C
100
AcDbEntity
  8
0
100
AcDbLine
 10
-0.902698
 20
4.653565
 30
0.0
 11
-0.902698
 21
4.718013
 31
0.0
  0
ARC
  5
D4D
100
AcDbEntity
  8
0
100
AcDbCircle
 10
-0.564987
 20
4.524433
 30
0.0
 40
0.13
100
AcDbArc
 50
96.62581
 51
173.37419
  0
LINE
  5
D4E
100
AcDbEntity
  8
0
100
AcDbLine
 10
-0.758567
 20
4.539433
 30
0.0
 11
-0.694118
 21
4.539433
 31
0.0
  0
LINE
  5
D4F
100
AcDbEntity
  8
0
100
AcDbLine
 10
-0.758567
 20
4.509433
 30
0.0
 11
-0.694118
 21
4.509433
 31
0.0
  0
LINE
  5
D50
100
AcDbEntity
  8
0
100
AcDbLine
 10
-0.579987
 20
4.653565
 30
0.0
 11
-0.579987
 21
4.718013
 31
0.0
  0
CIRCLE
  5
D51
100
AcDbEntity
  8
0
100
AcDbCircle
 10
-0.111036
 20
4.363222
 30
0.0
 40
0.086
  0
ARC
  5
D52
100
AcDbEntity
  8
0
100
AcDbCircle
 10
-0.111036
 20
4.363222
 30
0.0
 40
0.13
100
AcDbArc
 50
276.62581
 51
83.37419
  0
LINE
  5
D53
100
AcDbEntity
  8
0
100
AcDbLine
 10
-0.339936
 20
4.479298
 30
0.0
 11
-0.309912
 21
4.423028
 31
0.0
  0
LINE
  5
D54
100
AcDbEntity
  8
0
100
AcDbLine
 10
-0.159771
 20
4.483741
 30
0.0
 11
-0.309912
 21
4.423028
 31
0.0
  0
ARC
  5
D55
100
AcDbEntity
  8
0
100
AcDbCircle
 10
-0.381021
 20
4.201722
 30
0.0
 40
0.061034
100
AcDbArc
 50
312.267861
 51
47.732142
  0
LINE
  5
D56
100
AcDbEntity
  8
0
100
AcDbLine
 10
-0.30987
 20
4.303398
 30
0.0
 11
-0.339969
 21
4.246887
 31
0.0
  0
LINE
  5
D57
100
AcDbEntity
  8
0
100
AcDbLine
 10
-0.336053
 20
4.318056
 30
0.0
 11
-0.366153
 21
4.261545
 31
0.0
  0
LINE
  5
D58
100
AcDbEntity
  8
0
100
AcDbLine
 10
-0.516252
 20
4.322241
 30
0.0
 11
-0.366153
 21
4.261545
 31
0.0
  0
LINE
  5
D59
100
AcDbEntity
  8
0
100
AcDbLine
 10
-0.516252
 20
4.403914
 30
0.0
 11
-0.366111
 21
4.464627
 31
0.0
  0
ARC
  5
D5A
100
AcDbEntity
  8
0
100
AcDbCircle
 10
-0.564987
 20
4.524433
 30
0.0
 40
0.13
100
AcDbArc
 50
276.62581
 51
292.017121
  0
LINE
  5
D5B
100
AcDbEntity
  8
0
100
AcDbLine
 10
-0.549987
 20
4.330853
 30
0.0
 11
-0.549987
 21
4.395301
 31
0.0
  0
ARC
  5
D5C
100
AcDbEntity
  8
0
100
AcDbCircle
 10
-0.564987
 20
4.201722
 30
0.0
 40
0.13
100
AcDbArc
 50
67.982876
 51
83.37419
  0
LINE
  5
D5D
100
AcDbEntity
  8
0
100
AcDbLine
 10
-0.366111
 20
4.464627
 30
0.0
 11
-0.336087
 21
4.408357
 31
0.0
  0
ARC
  5
D5E
100
AcDbEntity
  8
0
100
AcDbCircle
 10
-0.295002
 20
4.363222
 30
0.0
 40
0.061034
100
AcDbArc
 50
132.310372
 51
227.732142
  0
LINE
  5
D5F
100
AcDbEntity
  8
0
100
AcDbLine
 10
-0.159771
 20
4.242702
 30
0.0
 11
-0.30987
 21
4.303398
 31
0.0
  0
LINE
  5
D60
100
AcDbEntity
  8
0
100
AcDbLine
 10
-0.126036
 20
4.169642
 30
0.0
 11
-0.126036
 21
4.23409
 31
0.0
  0
LINE
  5
D61
100
AcDbEntity
  8
0
100
AcDbLine
 10
-0.096036
 20
4.169642
 30
0.0
 11
-0.096036
 21
4.23409
 31
0.0
  0
LINE
  5
D62
100
AcDbEntity
  8
0
100
AcDbLine
 10
-0.126036
 20
4.169642
 30
0.0
 11
-0.126036
 21
4.23409
 31
0.0
  0
LINE
  5
D63
100
AcDbEntity
  8
0
100
AcDbLine
 10
-0.096036
 20
4.169642
 30
0.0
 11
-0.096036
 21
4.23409
 31
0.0
  0
ARC
  5
D64
100
AcDbEntity
  8
0
100
AcDbCircle
 10
-0.111036
 20
4.363222
 30
0.0
 40
0.13
100
AcDbArc
 50
247.982879
 51
263.37419
  0
ARC
  5
D65
100
AcDbEntity
  8
0
100
AcDbCircle
 10
-0.111036
 20
4.04051
 30
0.0
 40
0.13
100
AcDbArc
 50
96.62581
 51
112.017124
  0
LINE
  5
D66
100
AcDbEntity
  8
0
100
AcDbLine
 10
-0.30987
 20
4.62611
 30
0.0
 11
-0.339969
 21
4.569599
 31
0.0
  0
ARC
  5
D67
100
AcDbEntity
  8
0
100
AcDbCircle
 10
-0.381021
 20
4.524433
 30
0.0
 40
0.061034
100
AcDbArc
 50
312.310372
 51
47.732142
  0
ARC
  5
D68
100
AcDbEntity
  8
0
100
AcDbCircle
 10
-0.564987
 20
4.524433
 30
0.0
 40
0.13
100
AcDbArc
 50
67.982876
 51
83.37419
  0
LINE
  5
D69
100
AcDbEntity
  8
0
100
AcDbLine
 10
-0.516252
 20
4.644952
 30
0.0
 11
-0.366153
 21
4.584256
 31
0.0
  0
LINE
  5
D6A
100
AcDbEntity
  8
0
100
AcDbLine
 10
-0.336053
 20
4.640767
 30
0.0
 11
-0.366153
 21
4.584256
 31
0.0
  0
LINE
  5
D6B
100
AcDbEntity
  8
0
100
AcDbLine
 10
-0.549987
 20
4.653565
 30
0.0
 11
-0.549987
 21
4.718013
 31
0.0
  0
LINE
  5
D6C
100
AcDbEntity
  8
0
100
AcDbLine
 10
-0.126036
 20
4.492353
 30
0.0
 11
-0.126036
 21
4.556801
 31
0.0
  0
LINE
  5
D6D
100
AcDbEntity
  8
0
100
AcDbLine
 10
-0.096036
 20
4.492353
 30
0.0
 11
-0.096036
 21
4.556801
 31
0.0
  0
ARC
  5
D6E
100
AcDbEntity
  8
0
100
AcDbCircle
 10
-0.111036
 20
4.363222
 30
0.0
 40
0.13
100
AcDbArc
 50
96.62581
 51
112.017124
  0
LINE
  5
D6F
100
AcDbEntity
  8
0
100
AcDbLine
 10
-0.366145
 20
4.787285
 30
0.0
 11
-0.33612
 21
4.731015
 31
0.0
  0
LINE
  5
D70
100
AcDbEntity
  8
0
100
AcDbLine
 10
-0.36607
 20
4.787332
 30
0.0
 11
-0.336046
 21
4.731062
 31
0.0
  0
LINE
  5
D71
100
AcDbEntity
  8
0
100
AcDbLine
 10
-0.339969
 20
4.801956
 30
0.0
 11
-0.309945
 21
4.745686
 31
0.0
  0
LINE
  5
D72
100
AcDbEntity
  8
0
100
AcDbLine
 10
-0.159771
 20
4.806429
 30
0.0
 11
-0.30987
 21
4.745733
 31
0.0
  0
LINE
  5
D73
100
AcDbEntity
  8
0
100
AcDbLine
 10
-0.339895
 20
4.802003
 30
0.0
 11
-0.30987
 21
4.745733
 31
0.0
  0
CIRCLE
  5
D74
100
AcDbEntity
  8
0
100
AcDbCircle
 10
-0.564987
 20
4.847122
 30
0.0
 40
0.086
  0
ARC
  5
D75
100
AcDbEntity
  8
0
100
AcDbCircle
 10
-0.564987
 20
4.847122
 30
0.0
 40
0.13
100
AcDbArc
 50
186.62581
 51
263.37419
  0
LINE
  5
D76
100
AcDbEntity
  8
0
100
AcDbLine
 10
-0.516252
 20
4.726602
 30
0.0
 11
-0.366153
 21
4.787298
 31
0.0
  0
LINE
  5
D77
100
AcDbEntity
  8
0
100
AcDbLine
 10
-0.936433
 20
4.726602
 30
0.0
 11
-1.086532
 21
4.787298
 31
0.0
  0
LINE
  5
D78
100
AcDbEntity
  8
0
100
AcDbLine
 10
-1.292914
 20
4.806141
 30
0.0
 11
-1.142815
 21
4.745445
 31
0.0
  0
LINE
  5
D79
100
AcDbEntity
  8
0
100
AcDbLine
 10
-1.112715
 20
4.801956
 30
0.0
 11
-1.142815
 21
4.745445
 31
0.0
  0
LINE
  5
D7A
100
AcDbEntity
  8
0
100
AcDbLine
 10
-1.086532
 20
4.787298
 30
0.0
 11
-1.116631
 21
4.730787
 31
0.0
  0
ARC
  5
D7B
100
AcDbEntity
  8
0
100
AcDbCircle
 10
-0.887698
 20
4.847122
 30
0.0
 40
0.13
100
AcDbArc
 50
276.62581
 51
353.37419
  0
CIRCLE
  5
D7C
100
AcDbEntity
  8
0
100
AcDbCircle
 10
-0.887698
 20
4.847122
 30
0.0
 40
0.086
  0
CIRCLE
  5
D7D
100
AcDbEntity
  8
0
100
AcDbCircle
 10
-1.341649
 20
4.685622
 30
0.0
 40
0.086
  0
CIRCLE
  5
D7E
100
AcDbEntity
  8
0
100
AcDbCircle
 10
-0.111036
 20
4.68591
 30
0.0
 40
0.086
  0
ARC
  5
D7F
100
AcDbEntity
  8
0
100
AcDbCircle
 10
-1.341649
 20
4.685622
 30
0.0
 40
0.13
100
AcDbArc
 50
96.62581
 51
263.37419
  0
ARC
  5
D80
100
AcDbEntity
  8
0
100
AcDbCircle
 10
-0.111036
 20
4.68591
 30
0.0
 40
0.13
100
AcDbArc
 50
247.982879
 51
83.37419
  0
LINE
  5
D81
100
AcDbEntity
  8
0
100
AcDbLine
 10
-1.292914
 20
4.565102
 30
0.0
 11
-1.142815
 21
4.625798
 31
0.0
  0
LINE
  5
D82
100
AcDbEntity
  8
0
100
AcDbLine
 10
-1.326649
 20
4.492042
 30
0.0
 11
-1.326649
 21
4.55649
 31
0.0
  0
LINE
  5
D83
100
AcDbEntity
  8
0
100
AcDbLine
 10
-1.356649
 20
4.492042
 30
0.0
 11
-1.356649
 21
4.55649
 31
0.0
  0
ARC
  5
D84
100
AcDbEntity
  8
0
100
AcDbCircle
 10
-1.341649
 20
4.685622
 30
0.0
 40
0.13
100
AcDbArc
 50
276.62581
 51
292.017121
  0
LINE
  5
D85
100
AcDbEntity
  8
0
100
AcDbLine
 10
-1.116631
 20
4.640456
 30
0.0
 11
-1.086607
 21
4.584186
 31
0.0
  0
LINE
  5
D86
100
AcDbEntity
  8
0
100
AcDbLine
 10
-1.142807
 20
4.625785
 30
0.0
 11
-1.112782
 21
4.569515
 31
0.0
  0
ARC
  5
D87
100
AcDbEntity
  8
0
100
AcDbCircle
 10
-1.157683
 20
4.685622
 30
0.0
 40
0.061034
100
AcDbArc
 50
312.267861
 51
47.732142
  0
ARC
  5
D88
100
AcDbEntity
  8
0
100
AcDbCircle
 10
-0.887698
 20
4.847122
 30
0.0
 40
0.13
100
AcDbArc
 50
247.982879
 51
263.37419
  0
LINE
  5
D89
100
AcDbEntity
  8
0
100
AcDbLine
 10
-0.872698
 20
4.653542
 30
0.0
 11
-0.872698
 21
4.71799
 31
0.0
  0
LINE
  5
D8A
100
AcDbEntity
  8
0
100
AcDbLine
 10
-0.902698
 20
4.653542
 30
0.0
 11
-0.902698
 21
4.71799
 31
0.0
  0
LINE
  5
D8B
100
AcDbEntity
  8
0
100
AcDbLine
 10
-0.579987
 20
4.653542
 30
0.0
 11
-0.579987
 21
4.71799
 31
0.0
  0
LINE
  5
D8C
100
AcDbEntity
  8
0
100
AcDbLine
 10
-0.30987
 20
4.626087
 30
0.0
 11
-0.339969
 21
4.569576
 31
0.0
  0
LINE
  5
D8D
100
AcDbEntity
  8
0
100
AcDbLine
 10
-0.336053
 20
4.640744
 30
0.0
 11
-0.366153
 21
4.584233
 31
0.0
  0
ARC
  5
D8E
100
AcDbEntity
  8
0
100
AcDbCircle
 10
-0.564987
 20
4.847122
 30
0.0
 40
0.13
100
AcDbArc
 50
276.62581
 51
292.017121
  0
LINE
  5
D8F
100
AcDbEntity
  8
0
100
AcDbLine
 10
-0.549987
 20
4.653542
 30
0.0
 11
-0.549987
 21
4.71799
 31
0.0
  0
ARC
  5
D90
100
AcDbEntity
  8
0
100
AcDbCircle
 10
-0.295002
 20
4.68591
 30
0.0
 40
0.061034
100
AcDbArc
 50
132.267855
 51
227.732142
  0
LINE
  5
D91
100
AcDbEntity
  8
0
100
AcDbLine
 10
-0.159771
 20
4.565391
 30
0.0
 11
-0.30987
 21
4.626087
 31
0.0
  0
CIRCLE
  5
D92
100
AcDbEntity
  8
0
100
AcDbCircle
 10
-0.564987
 20
5.169833
 30
0.0
 40
0.086
  0
LINE
  5
D93
100
AcDbEntity
  8
0
100
AcDbLine
 10
-0.936433
 20
5.290352
 30
0.0
 11
-1.086532
 21
5.229656
 31
0.0
  0
LINE
  5
D94
100
AcDbEntity
  8
0
100
AcDbLine
 10
-0.936433
 20
5.049314
 30
0.0
 11
-1.086532
 21
5.11001
 31
0.0
  0
LINE
  5
D95
100
AcDbEntity
  8
0
100
AcDbLine
 10
-0.936433
 20
4.967641
 30
0.0
 11
-1.086574
 21
4.906928
 31
0.0
  0
LINE
  5
D96
100
AcDbEntity
  8
0
100
AcDbLine
 10
-1.112715
 20
5.124667
 30
0.0
 11
-1.142815
 21
5.068156
 31
0.0
  0
LINE
  5
D97
100
AcDbEntity
  8
0
100
AcDbLine
 10
-1.292914
 20
5.128852
 30
0.0
 11
-1.142815
 21
5.068156
 31
0.0
  0
ARC
  5
D98
100
AcDbEntity
  8
0
100
AcDbCircle
 10
-1.341649
 20
5.008333
 30
0.0
 40
0.13
100
AcDbArc
 50
96.62581
 51
263.37419
  0
LINE
  5
D99
100
AcDbEntity
  8
0
100
AcDbLine
 10
-1.292914
 20
4.887814
 30
0.0
 11
-1.142773
 21
4.948527
 31
0.0
  0
CIRCLE
  5
D9A
100
AcDbEntity
  8
0
100
AcDbCircle
 10
-1.341649
 20
5.008333
 30
0.0
 40
0.086
  0
LINE
  5
D9B
100
AcDbEntity
  8
0
100
AcDbLine
 10
-1.326649
 20
4.814753
 30
0.0
 11
-1.326649
 21
4.879201
 31
0.0
  0
LINE
  5
D9C
100
AcDbEntity
  8
0
100
AcDbLine
 10
-1.356649
 20
4.814753
 30
0.0
 11
-1.356649
 21
4.879201
 31
0.0
  0
ARC
  5
D9D
100
AcDbEntity
  8
0
100
AcDbCircle
 10
-1.341649
 20
4.685622
 30
0.0
 40
0.13
100
AcDbArc
 50
67.982876
 51
83.37419
  0
ARC
  5
D9E
100
AcDbEntity
  8
0
100
AcDbCircle
 10
-1.341649
 20
5.008333
 30
0.0
 40
0.13
100
AcDbArc
 50
276.62581
 51
292.017121
  0
LINE
  5
D9F
100
AcDbEntity
  8
0
100
AcDbLine
 10
-1.142773
 20
4.948527
 30
0.0
 11
-1.112749
 21
4.892257
 31
0.0
  0
LINE
  5
DA0
100
AcDbEntity
  8
0
100
AcDbLine
 10
-1.116598
 20
4.963198
 30
0.0
 11
-1.086574
 21
4.906928
 31
0.0
  0
ARC
  5
DA1
100
AcDbEntity
  8
0
100
AcDbCircle
 10
-1.071664
 20
4.847122
 30
0.0
 40
0.061034
100
AcDbArc
 50
132.310372
 51
227.732142
  0
LINE
  5
DA2
100
AcDbEntity
  8
0
100
AcDbLine
 10
-1.086532
 20
5.11001
 30
0.0
 11
-1.116631
 21
5.053499
 31
0.0
  0
ARC
  5
DA3
100
AcDbEntity
  8
0
100
AcDbCircle
 10
-1.157683
 20
5.008333
 30
0.0
 40
0.061034
100
AcDbArc
 50
312.310372
 51
47.732142
  0
LINE
  5
DA4
100
AcDbEntity
  8
0
100
AcDbLine
 10
-1.326649
 20
5.137465
 30
0.0
 11
-1.326649
 21
5.201913
 31
0.0
  0
LINE
  5
DA5
100
AcDbEntity
  8
0
100
AcDbLine
 10
-1.356649
 20
5.137465
 30
0.0
 11
-1.356649
 21
5.201913
 31
0.0
  0
ARC
  5
DA6
100
AcDbEntity
  8
0
100
AcDbCircle
 10
-1.341649
 20
5.008333
 30
0.0
 40
0.13
100
AcDbArc
 50
67.982876
 51
83.37419
  0
LINE
  5
DA7
100
AcDbEntity
  8
0
100
AcDbLine
 10
-1.142732
 20
5.271255
 30
0.0
 11
-1.112708
 21
5.214985
 31
0.0
  0
ARC
  5
DA8
100
AcDbEntity
  8
0
100
AcDbCircle
 10
-1.071664
 20
5.169833
 30
0.0
 40
0.061034
100
AcDbArc
 50
132.267855
 51
227.732142
  0
LINE
  5
DA9
100
AcDbEntity
  8
0
100
AcDbLine
 10
-1.116557
 20
5.285926
 30
0.0
 11
-1.086532
 21
5.229656
 31
0.0
  0
ARC
  5
DAA
100
AcDbEntity
  8
0
100
AcDbCircle
 10
-0.564987
 20
5.169833
 30
0.0
 40
0.13
100
AcDbArc
 50
186.62581
 51
263.37419
  0
CIRCLE
  5
DAB
100
AcDbEntity
  8
0
100
AcDbCircle
 10
-0.887698
 20
5.169833
 30
0.0
 40
0.086
  0
ARC
  5
DAC
100
AcDbEntity
  8
0
100
AcDbCircle
 10
-0.887698
 20
5.169833
 30
0.0
 40
0.13
100
AcDbArc
 50
276.62581
 51
353.37419
  0
ARC
  5
DAD
100
AcDbEntity
  8
0
100
AcDbCircle
 10
-0.887698
 20
4.847122
 30
0.0
 40
0.13
100
AcDbArc
 50
6.62581
 51
83.37419
  0
ARC
  5
DAE
100
AcDbEntity
  8
0
100
AcDbCircle
 10
-0.887698
 20
5.169833
 30
0.0
 40
0.13
100
AcDbArc
 50
247.982879
 51
263.37419
  0
ARC
  5
DAF
100
AcDbEntity
  8
0
100
AcDbCircle
 10
-0.887698
 20
4.847122
 30
0.0
 40
0.13
100
AcDbArc
 50
96.62581
 51
112.017124
  0
LINE
  5
DB0
100
AcDbEntity
  8
0
100
AcDbLine
 10
-0.872698
 20
4.976253
 30
0.0
 11
-0.872698
 21
5.040701
 31
0.0
  0
LINE
  5
DB1
100
AcDbEntity
  8
0
100
AcDbLine
 10
-0.902698
 20
4.976253
 30
0.0
 11
-0.902698
 21
5.040701
 31
0.0
  0
ARC
  5
DB2
100
AcDbEntity
  8
0
100
AcDbCircle
 10
-0.564987
 20
4.847122
 30
0.0
 40
0.13
100
AcDbArc
 50
96.62581
 51
173.37419
  0
LINE
  5
DB3
100
AcDbEntity
  8
0
100
AcDbLine
 10
-0.758567
 20
4.862122
 30
0.0
 11
-0.694118
 21
4.862122
 31
0.0
  0
LINE
  5
DB4
100
AcDbEntity
  8
0
100
AcDbLine
 10
-0.758567
 20
4.832122
 30
0.0
 11
-0.694118
 21
4.832122
 31
0.0
  0
LINE
  5
DB5
100
AcDbEntity
  8
0
100
AcDbLine
 10
-0.579987
 20
4.976253
 30
0.0
 11
-0.579987
 21
5.040701
 31
0.0
  0
ARC
  5
DB6
100
AcDbEntity
  8
0
100
AcDbCircle
 10
-0.887698
 20
5.169833
 30
0.0
 40
0.13
100
AcDbArc
 50
6.62581
 51
83.37419
  0
ARC
  5
DB7
100
AcDbEntity
  8
0
100
AcDbCircle
 10
-0.887698
 20
5.169833
 30
0.0
 40
0.13
100
AcDbArc
 50
96.62581
 51
112.017124
  0
LINE
  5
DB8
100
AcDbEntity
  8
0
100
AcDbLine
 10
-0.902698
 20
5.254515
 30
0.0
 11
-0.902698
 21
5.255833
 31
0.0
  0
LINE
  5
DB9
100
AcDbEntity
  8
0
100
AcDbLine
 10
-0.872698
 20
5.254515
 30
0.0
 11
-0.872698
 21
5.255833
 31
0.0
  0
LINE
  5
DBA
100
AcDbEntity
  8
0
100
AcDbLine
 10
-0.872698
 20
5.298965
 30
0.0
 11
-0.872698
 21
5.363413
 31
0.0
  0
LINE
  5
DBB
100
AcDbEntity
  8
0
100
AcDbLine
 10
-0.902698
 20
5.298965
 30
0.0
 11
-0.902698
 21
5.363413
 31
0.0
  0
ARC
  5
DBC
100
AcDbEntity
  8
0
100
AcDbCircle
 10
-0.564987
 20
5.169833
 30
0.0
 40
0.13
100
AcDbArc
 50
96.62581
 51
173.37419
  0
LINE
  5
DBD
100
AcDbEntity
  8
0
100
AcDbLine
 10
-0.758567
 20
5.184833
 30
0.0
 11
-0.694118
 21
5.184833
 31
0.0
  0
LINE
  5
DBE
100
AcDbEntity
  8
0
100
AcDbLine
 10
-0.758567
 20
5.154833
 30
0.0
 11
-0.694118
 21
5.154833
 31
0.0
  0
LINE
  5
DBF
100
AcDbEntity
  8
0
100
AcDbLine
 10
-0.579987
 20
5.298965
 30
0.0
 11
-0.579987
 21
5.363413
 31
0.0
  0
CIRCLE
  5
DC0
100
AcDbEntity
  8
0
100
AcDbCircle
 10
-0.111036
 20
5.008622
 30
0.0
 40
0.086
  0
ARC
  5
DC1
100
AcDbEntity
  8
0
100
AcDbCircle
 10
-0.111036
 20
5.008622
 30
0.0
 40
0.13
100
AcDbArc
 50
276.62581
 51
83.37419
  0
LINE
  5
DC2
100
AcDbEntity
  8
0
100
AcDbLine
 10
-0.339936
 20
5.124698
 30
0.0
 11
-0.309912
 21
5.068428
 31
0.0
  0
LINE
  5
DC3
100
AcDbEntity
  8
0
100
AcDbLine
 10
-0.159771
 20
5.129141
 30
0.0
 11
-0.309912
 21
5.068428
 31
0.0
  0
ARC
  5
DC4
100
AcDbEntity
  8
0
100
AcDbCircle
 10
-0.381021
 20
4.847122
 30
0.0
 40
0.061034
100
AcDbArc
 50
312.267861
 51
47.732142
  0
LINE
  5
DC5
100
AcDbEntity
  8
0
100
AcDbLine
 10
-0.30987
 20
4.948798
 30
0.0
 11
-0.339969
 21
4.892287
 31
0.0
  0
LINE
  5
DC6
100
AcDbEntity
  8
0
100
AcDbLine
 10
-0.336053
 20
4.963456
 30
0.0
 11
-0.366153
 21
4.906945
 31
0.0
  0
LINE
  5
DC7
100
AcDbEntity
  8
0
100
AcDbLine
 10
-0.516252
 20
4.967641
 30
0.0
 11
-0.366153
 21
4.906945
 31
0.0
  0
LINE
  5
DC8
100
AcDbEntity
  8
0
100
AcDbLine
 10
-0.516252
 20
5.049314
 30
0.0
 11
-0.366111
 21
5.110027
 31
0.0
  0
ARC
  5
DC9
100
AcDbEntity
  8
0
100
AcDbCircle
 10
-0.564987
 20
5.169833
 30
0.0
 40
0.13
100
AcDbArc
 50
276.62581
 51
292.017121
  0
LINE
  5
DCA
100
AcDbEntity
  8
0
100
AcDbLine
 10
-0.549987
 20
4.976253
 30
0.0
 11
-0.549987
 21
5.040701
 31
0.0
  0
ARC
  5
DCB
100
AcDbEntity
  8
0
100
AcDbCircle
 10
-0.564987
 20
4.847122
 30
0.0
 40
0.13
100
AcDbArc
 50
67.982876
 51
83.37419
  0
LINE
  5
DCC
100
AcDbEntity
  8
0
100
AcDbLine
 10
-0.366111
 20
5.110027
 30
0.0
 11
-0.336087
 21
5.053757
 31
0.0
  0
ARC
  5
DCD
100
AcDbEntity
  8
0
100
AcDbCircle
 10
-0.295002
 20
5.008622
 30
0.0
 40
0.061034
100
AcDbArc
 50
132.310372
 51
227.732142
  0
LINE
  5
DCE
100
AcDbEntity
  8
0
100
AcDbLine
 10
-0.159771
 20
4.888102
 30
0.0
 11
-0.30987
 21
4.948798
 31
0.0
  0
LINE
  5
DCF
100
AcDbEntity
  8
0
100
AcDbLine
 10
-0.126036
 20
4.815042
 30
0.0
 11
-0.126036
 21
4.87949
 31
0.0
  0
LINE
  5
DD0
100
AcDbEntity
  8
0
100
AcDbLine
 10
-0.096036
 20
4.815042
 30
0.0
 11
-0.096036
 21
4.87949
 31
0.0
  0
LINE
  5
DD1
100
AcDbEntity
  8
0
100
AcDbLine
 10
-0.126036
 20
4.815042
 30
0.0
 11
-0.126036
 21
4.87949
 31
0.0
  0
LINE
  5
DD2
100
AcDbEntity
  8
0
100
AcDbLine
 10
-0.096036
 20
4.815042
 30
0.0
 11
-0.096036
 21
4.87949
 31
0.0
  0
ARC
  5
DD3
100
AcDbEntity
  8
0
100
AcDbCircle
 10
-0.111036
 20
5.008622
 30
0.0
 40
0.13
100
AcDbArc
 50
247.982879
 51
263.37419
  0
ARC
  5
DD4
100
AcDbEntity
  8
0
100
AcDbCircle
 10
-0.111036
 20
4.68591
 30
0.0
 40
0.13
100
AcDbArc
 50
96.62581
 51
112.017124
  0
LINE
  5
DD5
100
AcDbEntity
  8
0
100
AcDbLine
 10
-0.30987
 20
5.27151
 30
0.0
 11
-0.339969
 21
5.214999
 31
0.0
  0
ARC
  5
DD6
100
AcDbEntity
  8
0
100
AcDbCircle
 10
-0.381021
 20
5.169833
 30
0.0
 40
0.061034
100
AcDbArc
 50
312.310372
 51
47.732142
  0
ARC
  5
DD7
100
AcDbEntity
  8
0
100
AcDbCircle
 10
-0.564987
 20
5.169833
 30
0.0
 40
0.13
100
AcDbArc
 50
67.982876
 51
83.37419
  0
LINE
  5
DD8
100
AcDbEntity
  8
0
100
AcDbLine
 10
-0.516252
 20
5.290352
 30
0.0
 11
-0.366153
 21
5.229656
 31
0.0
  0
LINE
  5
DD9
100
AcDbEntity
  8
0
100
AcDbLine
 10
-0.336053
 20
5.286167
 30
0.0
 11
-0.366153
 21
5.229656
 31
0.0
  0
LINE
  5
DDA
100
AcDbEntity
  8
0
100
AcDbLine
 10
-0.549987
 20
5.298965
 30
0.0
 11
-0.549987
 21
5.363413
 31
0.0
  0
LINE
  5
DDB
100
AcDbEntity
  8
0
100
AcDbLine
 10
-0.126036
 20
5.137753
 30
0.0
 11
-0.126036
 21
5.202201
 31
0.0
  0
LINE
  5
DDC
100
AcDbEntity
  8
0
100
AcDbLine
 10
-0.096036
 20
5.137753
 30
0.0
 11
-0.096036
 21
5.202201
 31
0.0
  0
ARC
  5
DDD
100
AcDbEntity
  8
0
100
AcDbCircle
 10
-0.111036
 20
5.008622
 30
0.0
 40
0.13
100
AcDbArc
 50
96.62581
 51
112.017124
  0
LINE
  5
DDE
100
AcDbEntity
  8
0
100
AcDbLine
 10
-1.471649
 20
-0.025758
 30
0.0
 11
-1.471649
 21
-0.700694
 31
0.0
  0
LINE
  5
DDF
100
AcDbEntity
  8
0
100
AcDbLine
 10
0.018964
 20
-0.02547
 30
0.0
 11
0.018964
 21
-0.700694
 31
0.0
  0
LINE
  5
DE0
100
AcDbEntity
  8
0
100
AcDbLine
 10
0.018964
 20
-0.700694
 30
0.0
 11
-1.471649
 21
-0.700694
 31
0.0
  0
LINE
  5
DE1
100
AcDbEntity
  8
0
100
AcDbLine
 10
-1.086607
 20
0.066386
 30
0.0
 11
-0.902698
 21
0.135742
 31
0.0
  0
LINE
  5
DE2
100
AcDbEntity
  8
0
100
AcDbLine
 10
-0.872698
 20
0.135742
 30
0.0
 11
-0.579987
 21
0.135742
 31
0.0
  0
LINE
  5
DE3
100
AcDbEntity
  8
0
100
AcDbLine
 10
-0.549987
 20
0.135742
 30
0.0
 11
-0.366153
 21
0.066433
 31
0.0
  0
LINE
  5
DE4
100
AcDbEntity
  8
0
100
AcDbLine
 10
-1.112782
 20
0.051715
 30
0.0
 11
-1.326649
 21
-0.025758
 31
0.0
  0
LINE
  5
DE5
100
AcDbEntity
  8
0
100
AcDbLine
 10
-0.126036
 20
-0.02547
 30
0.0
 11
-0.126036
 21
0.038978
 31
0.0
  0
LINE
  5
DE6
100
AcDbEntity
  8
0
100
AcDbLine
 10
-0.096036
 20
-0.02547
 30
0.0
 11
-0.096036
 21
0.038978
 31
0.0
  0
ARC
  5
DE7
100
AcDbEntity
  8
0
100
AcDbCircle
 10
-0.111036
 20
0.16811
 30
0.0
 40
0.13
100
AcDbArc
 50
276.62581
 51
83.37419
  0
LINE
  5
DE8
100
AcDbEntity
  8
0
100
AcDbLine
 10
-0.339969
 20
0.051776
 30
0.0
 11
-0.126036
 21
-0.02547
 31
0.0
  0
LINE
  5
DE9
100
AcDbEntity
  8
0
100
AcDbLine
 10
-1.356649
 20
-0.025758
 30
0.0
 11
-1.471649
 21
-0.025758
 31
0.0
  0
LINE
  5
DEA
100
AcDbEntity
  8
0
100
AcDbLine
 10
-0.096036
 20
-0.02547
 30
0.0
 11
0.018964
 21
-0.02547
 31
0.0
  0
LINE
  5
DEB
100
AcDbEntity
  8
0
100
AcDbLine
 10
0.018964
 20
5.877161
 30
0.0
 11
-1.471649
 21
5.877161
 31
0.0
  0
LINE
  5
DEC
100
AcDbEntity
  8
0
100
AcDbLine
 10
0.018964
 20
5.201936
 30
0.0
 11
0.018964
 21
5.877161
 31
0.0
  0
LINE
  5
DED
100
AcDbEntity
  8
0
100
AcDbLine
 10
-1.471649
 20
5.202225
 30
0.0
 11
-1.471649
 21
5.877161
 31
0.0
  0
LINE
  5
DEE
100
AcDbEntity
  8
0
100
AcDbLine
 10
-1.356649
 20
5.202225
 30
0.0
 11
-1.471649
 21
5.202225
 31
0.0
  0
LINE
  5
DEF
100
AcDbEntity
  8
0
100
AcDbLine
 10
-0.096036
 20
5.201936
 30
0.0
 11
0.018964
 21
5.201936
 31
0.0
  0
LINE
  5
DF0
100
AcDbEntity
  8
0
100
AcDbLine
 10
-1.326649
 20
5.201913
 30
0.0
 11
-1.142732
 21
5.271255
 31
0.0
  0
LINE
  5
DF1
100
AcDbEntity
  8
0
100
AcDbLine
 10
-1.116557
 20
5.285926
 30
0.0
 11
-0.902698
 21
5.363413
 31
0.0
  0
LINE
  5
DF2
100
AcDbEntity
  8
0
100
AcDbLine
 10
-0.872698
 20
5.363413
 30
0.0
 11
-0.579987
 21
5.363413
 31
0.0
  0
LINE
  5
DF3
100
AcDbEntity
  8
0
100
AcDbLine
 10
-0.549987
 20
5.363413
 30
0.0
 11
-0.336053
 21
5.286167
 31
0.0
  0
LINE
  5
DF4
100
AcDbEntity
  8
0
100
AcDbLine
 10
-0.30987
 20
5.27151
 30
0.0
 11
-0.126036
 21
5.202201
 31
0.0
  0
DIMENSION
  5
E03
100
AcDbEntity
  8
0
100
AcDbDimension
  2
*D3
 10
0.018964
 20
6.249644
 30
0.0
 11
-0.726342
 21
6.249644
 31
0.0
 70
    32
  3
STANDARD
100
AcDbAlignedDimension
 13
-1.471649
 23
5.877161
 33
0.0
 14
0.018964
 24
5.877161
 34
0.0
100
AcDbRotatedDimension
1001
ACAD
1000
DSTYLE
1002
{
1070
   271
1070
     2
1002
}
  0
DIMENSION
  5
E11
100
AcDbEntity
  8
0
100
AcDbDimension
  2
*D4
 10
1.217507
 20
-0.700694
 30
0.0
 11
1.217507
 21
2.588233
 31
0.0
 70
    32
  3
STANDARD
100
AcDbAlignedDimension
 13
0.018964
 23
5.877161
 33
0.0
 14
0.018964
 24
-0.700694
 34
0.0
 50
90.0
100
AcDbRotatedDimension
1001
ACAD
1000
DSTYLE
1002
{
1070
   271
1070
     2
1002
}
  0
ENDSEC
  0
SECTION
  2
OBJECTS
  0
DICTIONARY
  5
C
100
AcDbDictionary
  3
ACAD_GROUP
350
D
  3
ACAD_MLINESTYLE
350
1B
  0
DICTIONARY
  5
D
102
{ACAD_REACTORS
330
C
102
}
100
AcDbDictionary
  0
DICTIONARY
  5
1B
102
{ACAD_REACTORS
330
C
102
}
100
AcDbDictionary
  3
STANDARD
350
1C
  0
MLINESTYLE
  5
1C
102
{ACAD_REACTORS
330
1B
102
}
100
AcDbMlineStyle
  2
STANDARD
 70
     0
  3

 62
   256
 51
90.0
 52
90.0
 71
     2
 49
0.5
 62
   256
  6
BYLAYER
 49
-0.5
 62
   256
  6
BYLAYER
  0
ENDSEC
  0
EOF
