999
DXF file: crowndrawing.dxf
999
Pro/ENGINEER 2009280 by Parametric Technology Corporation
  0
SECTION
  2
HEADER
  9
$ACADVER
  1
AC1021
  9
$DWGCODEPAGE
  3
ANSI_1252
  9
$EXTMAX
 10
841.0
 20
594.0
 30
0.0
  9
$EXTMIN
 10
0.0
 20
0.0
 30
0.0
  9
$LIMMIN
 10
0.0
 20
0.0
  9
$LIMMAX
 10
841.0
 20
594.0
  9
$VIEWCTR
 10
420.5
 20
297.0
  9
$VIEWSIZE
 40
594.0
  9
$CLAYER
  8
0
  9
$LTSCALE
 40
46.255
  9
$CELTYPE
  6
BYLAYER
  9
$DIMSCALE
 40
1.0
  9
$DIMASZ
 40
3.5
  9
$DIMEXO
 40
5.25625
  9
$DIMDLI
 40
31.958
  9
$DIMEXE
 40
15.138
  9
$DIMCEN
 40
7.569
  9
$DIMLFAC
 40
1.0
  9
$DIMBLK
  1
_FILLED
  9
$DIMTXT
 40
3.5
  9
$DIMTOL
 70
1
  9
$DIMLIM
 70
0
  9
$DIMTFAC
 40
1.0
  9
$DIMTP
 40
0.01
  9
$DIMTM
 40
0.01
  9
$PDMODE
 70
3
  9
$PDSIZE
 40
8.0
  9
$HANDSEED
  5
2A4
  9
$TILEMODE
 70
1
  9
$MEASUREMENT
 70
1
  9
$INSUNITS
 70
4
  0
ENDSEC
  0
SECTION
  2
CLASSES
  0
CLASS
  1
ACDBDICTIONARYWDFLT
  2
AcDbDictionaryWithDefault
  3
AutoCAD 2000
 90
0
 91
1
280
0
281
0
  0
CLASS
  1
ACDBPLACEHOLDER
  2
AcDbPlaceHolder
  3
AutoCAD 2000
 90
0
 91
1
280
0
281
0
  0
CLASS
  1
LAYOUT
  2
AcDbLayout
  3
AutoCAD 2000
 90
0
 91
0
280
0
281
0
  0
ENDSEC
  0
SECTION
  2
TABLES
  0
TABLE
  2
VPORT
  5
8
100
AcDbSymbolTable
 70
2
  0
VPORT
  5
1F4
100
AcDbSymbolTableRecord
100
AcDbViewportTableRecord
  2
*ACTIVE
 70
0
 10
0.0
 20
0.0
 11
1.0
 21
1.0
 12
420.5
 22
297.0
 13
0.0
 23
0.0
 14
1.0
 24
1.0
 15
0.0
 25
0.0
 16
0.0
 26
0.0
 36
1.0
 17
0.0
 27
0.0
 37
0.0
 40
594.0
 41
1.4158249158
 42
50.0
 43
0.0
 44
0.0
 50
0.0
 51
0.0
 71
0
 72
100
 73
1
 74
1
 75
0
 76
0
 77
0
 78
0
  0
ENDTAB
  0
TABLE
  2
LTYPE
  5
5
100
AcDbSymbolTable
 70
6
  0
LTYPE
  5
14
100
AcDbSymbolTableRecord
100
AcDbLinetypeTableRecord
  2
BYBLOCK
 70
0
  3

 72
65
 73
0
 40
0.0
  0
LTYPE
  5
15
100
AcDbSymbolTableRecord
100
AcDbLinetypeTableRecord
  2
BYLAYER
 70
0
  3

 72
65
 73
0
 40
0.0
  0
LTYPE
  5
16
100
AcDbSymbolTableRecord
100
AcDbLinetypeTableRecord
  2
CONTINUOUS
 70
64
  3
Solid line
 72
65
 73
0
 40
0.0
  0
LTYPE
  5
1F5
100
AcDbSymbolTableRecord
100
AcDbLinetypeTableRecord
  2
CENTER
 70
64
  3
____ _ ____ _ ____ _ ____ _ ____ _ ____ _ ____
 72
65
 73
4
 40
0.6
 49
0.375
 74
0
 49
-0.075
 74
0
 49
0.075
 74
0
 49
-0.075
 74
0
  0
LTYPE
  5
1F6
100
AcDbSymbolTableRecord
100
AcDbLinetypeTableRecord
  2
HIDDEN
 70
64
  3
- - - - - - - - - - - - - - - - - - - -
 72
65
 73
2
 40
0.2
 49
0.1
 74
0
 49
-0.1
 74
0
  0
LTYPE
  5
1F7
100
AcDbSymbolTableRecord
100
AcDbLinetypeTableRecord
  2
PHANTOM
 70
64
  3
_____ _ _ _____ _ _ _____ _ _ _____
 72
65
 73
6
 40
0.8
 49
0.45
 74
0
 49
-0.05
 74
0
 49
0.1
 74
0
 49
-0.05
 74
0
 49
0.1
 74
0
 49
-0.05
 74
0
  0
LTYPE
  5
1F8
100
AcDbSymbolTableRecord
100
AcDbLinetypeTableRecord
  2
DOT
 70
64
  3
. . . . . . . . . . . . . . . . . . . .
 72
65
 73
2
 40
0.2
 49
0.1
 74
0
 49
-0.1
 74
0
  0
LTYPE
  5
1F9
100
AcDbSymbolTableRecord
100
AcDbLinetypeTableRecord
  2
DASHED
 70
64
  3
- - - - - - - - - - - - - - - - - - - -
 72
65
 73
2
 40
0.2
 49
0.1
 74
0
 49
-0.1
 74
0
  0
ENDTAB
  0
TABLE
  2
LAYER
  5
2
100
AcDbSymbolTable
 70
36
  0
LAYER
  5
10
100
AcDbSymbolTableRecord
100
AcDbLayerTableRecord
  2
0
 70
0
 62
7
  6
CONTINUOUS
370
-3
390
F
  0
LAYER
  5
1FA
100
AcDbSymbolTableRecord
100
AcDbLayerTableRecord
  2
DEFAULT_1
 70
0
 62
7
  6
CENTER
370
-3
390
F
  0
LAYER
  5
1FB
100
AcDbSymbolTableRecord
100
AcDbLayerTableRecord
  2
DEFAULT_2
 70
0
 62
8
  6
HIDDEN
370
-3
390
F
  0
LAYER
  5
1FC
100
AcDbSymbolTableRecord
100
AcDbLayerTableRecord
  2
DEFAULT_3
 70
0
 62
7
  6
PHANTOM
370
-3
390
F
  0
LAYER
  5
1FD
100
AcDbSymbolTableRecord
100
AcDbLayerTableRecord
  2
01___PRT_ALL_DTM_PLN
 70
0
 62
7
  6
CONTINUOUS
370
-3
390
F
  0
LAYER
  5
1FE
100
AcDbSymbolTableRecord
100
AcDbLayerTableRecord
  2
01___PRT_DEF_DTM_PLN
 70
0
 62
7
  6
CONTINUOUS
370
-3
390
F
  0
LAYER
  5
1FF
100
AcDbSymbolTableRecord
100
AcDbLayerTableRecord
  2
02___PRT_ALL_AXES
 70
0
 62
7
  6
CONTINUOUS
370
-3
390
F
  0
LAYER
  5
200
100
AcDbSymbolTableRecord
100
AcDbLayerTableRecord
  2
03___PRT_ALL_CURVES
 70
0
 62
7
  6
CONTINUOUS
370
-3
390
F
  0
LAYER
  5
201
100
AcDbSymbolTableRecord
100
AcDbLayerTableRecord
  2
04___PRT_ALL_DTM_PNT
 70
0
 62
7
  6
CONTINUOUS
370
-3
390
F
  0
LAYER
  5
202
100
AcDbSymbolTableRecord
100
AcDbLayerTableRecord
  2
05___PRT_ALL_DTM_CSYS
 70
0
 62
7
  6
CONTINUOUS
370
-3
390
F
  0
LAYER
  5
203
100
AcDbSymbolTableRecord
100
AcDbLayerTableRecord
  2
05___PRT_DEF_DTM_CSYS
 70
0
 62
7
  6
CONTINUOUS
370
-3
390
F
  0
LAYER
  5
204
100
AcDbSymbolTableRecord
100
AcDbLayerTableRecord
  2
06___PRT_ALL_SURFS
 70
0
 62
7
  6
CONTINUOUS
370
-3
390
F
  0
ENDTAB
  0
TABLE
  2
STYLE
  5
3
100
AcDbSymbolTable
 70
1
  0
STYLE
  5
11
100
AcDbSymbolTableRecord
100
AcDbTextStyleTableRecord
  2
STANDARD
 70
0
 40
0.0
 41
0.85
 50
0.0
 71
0
 42
0.2
  3
txt
  4

  0
STYLE
  5
205
100
AcDbSymbolTableRecord
100
AcDbTextStyleTableRecord
  2
TEXTSTYLE_1
 70
0
 40
0.0
 41
0.8
 50
0.0
 71
0
 42
0.2
  3
gdt
  4

  0
ENDTAB
  0
TABLE
  2
VIEW
  5
6
100
AcDbSymbolTable
 70
0
  0
ENDTAB
  0
TABLE
  2
UCS
  5
7
100
AcDbSymbolTable
 70
0
  0
ENDTAB
  0
TABLE
  2
APPID
  5
9
100
AcDbSymbolTable
 70
1
  0
APPID
  5
206
100
AcDbSymbolTableRecord
100
AcDbRegAppTableRecord
  2
ACAD
 70
0
  0
ENDTAB
  0
TABLE
  2
BLOCK_RECORD
  5
1
100
AcDbSymbolTable
 70
0
  0
BLOCK_RECORD
  5
207
100
AcDbSymbolTableRecord
100
AcDbBlockTableRecord
  2
*Model_Space
  0
BLOCK_RECORD
  5
208
100
AcDbSymbolTableRecord
100
AcDbBlockTableRecord
  2
*Paper_Space
  0
BLOCK_RECORD
  5
209
100
AcDbSymbolTableRecord
100
AcDbBlockTableRecord
  2
_FILLED
  0
BLOCK_RECORD
  5
20A
100
AcDbSymbolTableRecord
100
AcDbBlockTableRecord
  2
*D0
  0
BLOCK_RECORD
  5
20B
100
AcDbSymbolTableRecord
100
AcDbBlockTableRecord
  2
*D1
  0
BLOCK_RECORD
  5
20C
100
AcDbSymbolTableRecord
100
AcDbBlockTableRecord
  2
*D2
  0
BLOCK_RECORD
  5
20D
100
AcDbSymbolTableRecord
100
AcDbBlockTableRecord
  2
*D3
  0
ENDTAB
  0
TABLE
  2
DIMSTYLE
  5
A
100
AcDbSymbolTable
 70
1
100
AcDbDimStyleTable
 71
0
  0
DIMSTYLE
105
20E
100
AcDbSymbolTableRecord
100
AcDbDimStyleTableRecord
  2
STANDARD
 70
0
  3

  4

 40
1.0
 41
3.5
 42
0.0625
 43
0.38
 44
0.18
 45
0.0
 46
0.0
 47
0.01
 48
0.01
140
3.5
141
0.09
142
0.0
143
25.4
144
1.0
145
0.0
146
1.0
147
0.09
 71
1.0
 72
0.0
 73
0
 74
0
 75
0
 76
0
 77
1
 78
8
170
0
171
2
172
0
173
0
174
0
175
0
176
0
177
0
178
0
270
2
271
2
272
2
273
2
274
2
275
0
280
0
281
0
282
0
283
1
284
8
285
0
286
0
287
3
288
0
340
11
341
209
342
209
343
209
344
209
  0
DIMSTYLE
105
20F
100
AcDbSymbolTableRecord
100
AcDbDimStyleTableRecord
  2
DIMSTYLE_1
 70
0
  3

  4

 40
1.0
 41
3.5
 42
0.0625
 43
0.38
 44
0.18
 45
0.0
 46
0.0
 47
0.01
 48
0.01
140
3.5
141
0.09
142
0.0
143
25.4
144
1.0
145
0.0
146
1.0
147
0.09
 71
0.0
 72
0.0
 73
0
 74
0
 75
0
 76
0
 77
1
 78
8
170
0
171
2
172
0
173
0
174
0
175
0
176
0
177
0
178
0
270
2
271
2
272
2
273
2
274
2
275
0
280
0
281
0
282
0
283
1
284
8
285
0
286
0
287
3
288
0
340
11
341
209
342
209
343
209
344
209
  0
DIMSTYLE
105
210
100
AcDbSymbolTableRecord
100
AcDbDimStyleTableRecord
  2
DIMSTYLE_2
 70
0
  3

  4

 40
1.0
 41
3.5
 42
0.0625
 43
0.38
 44
0.18
 45
0.0
 46
0.0
 47
0.01
 48
0.01
140
3.5
141
0.09
142
0.0
143
25.4
144
1.0
145
0.0
146
1.0
147
0.09
 71
0.0
 72
0.0
 73
0
 74
0
 75
0
 76
0
 77
1
 78
8
170
0
171
2
172
0
173
0
174
0
175
0
176
0
177
0
178
0
270
2
271
2
272
2
273
2
274
2
275
0
280
0
281
0
282
0
283
1
284
8
285
0
286
0
287
3
288
0
340
11
341
209
342
209
343
209
344
209
  0
ENDTAB
  0
ENDSEC
  0
SECTION
  2
BLOCKS
  0
BLOCK
  5
20
100
AcDbEntity
  8
0
100
AcDbBlockBegin
  2
*Model_Space
 70
0
 10
0.0
 20
0.0
 30
0.0
  3
*Model_Space
  1

  0
ENDBLK
  5
21
100
AcDbEntity
  8
0
100
AcDbBlockEnd
  0
BLOCK
  5
1C
100
AcDbEntity
  8
0
100
AcDbBlockBegin
  2
*Paper_Space
 70
0
 10
0.0
 20
0.0
 30
0.0
  3
*Paper_Space
  1

  0
ENDBLK
  5
1D
100
AcDbEntity
  8
0
100
AcDbBlockEnd
  0
BLOCK
  5
211
100
AcDbEntity
  8
0
100
AcDbBlockBegin
  2
_FILLED
 70
64
 10
0.0
 20
0.0
  3
_FILLED
  1

  0
SOLID
  5
212
100
AcDbEntity
  8
0
  6
BYBLOCK
 62
0
100
AcDbTrace
 10
0.0
 20
0.0
 11
-1.0
 21
0.2142857143
 12
-1.0
 22
-0.2142857143
 13
-1.0
 23
-0.2142857143
  0
ENDBLK
  5
213
100
AcDbEntity
  8
0
  6
BYBLOCK
 62
0
100
AcDbBlockEnd
  0
BLOCK
  5
214
100
AcDbEntity
  8
0
100
AcDbBlockBegin
 62
2
  6
CONTINUOUS
  2
*D0
 70
65
 10
0.0
 20
0.0
  3
*D0
  1

  0
MTEXT
  5
215
100
AcDbEntity
  8
0
100
AcDbMText
 62
2
  6
CONTINUOUS
  7
STANDARD
 71
2
 72
1
 10
349.9471797379
 20
302.0802733159
 30
0.0
 11
1.0
 21
0.0
 31
0.0
 44
0.9
  1
125,58
 40
3.5
 41
17.85
  0
LINE
  5
216
100
AcDbEntity
  8
0
100
AcDbLine
 62
2
  6
CONTINUOUS
 10
287.1571797379
 20
300.3634272505
 11
287.1571797379
 21
296.2052733159
  0
LINE
  5
217
100
AcDbEntity
  8
0
100
AcDbLine
 62
2
  6
CONTINUOUS
 10
412.7371797379
 20
300.3634272505
 11
412.7371797379
 21
296.2052733159
  0
LINE
  5
218
100
AcDbEntity
  8
0
100
AcDbLine
 62
2
  6
CONTINUOUS
 10
287.1571797379
 20
297.7052733159
 11
349.9471797379
 21
297.7052733159
  0
LINE
  5
219
100
AcDbEntity
  8
0
100
AcDbLine
 62
2
  6
CONTINUOUS
 10
412.7371797379
 20
297.7052733159
 11
349.9471797379
 21
297.7052733159
  0
INSERT
  5
21A
100
AcDbEntity
  8
0
100
AcDbBlockReference
 62
2
  6
CONTINUOUS
  2
_FILLED
 10
287.1571797379
 20
297.7052733159
 41
3.5
 42
3.5
 43
3.5
 50
180.0
  0
INSERT
  5
21B
100
AcDbEntity
  8
0
100
AcDbBlockReference
 62
2
  6
CONTINUOUS
  2
_FILLED
 10
412.7371797379
 20
297.7052733159
 41
3.5
 42
3.5
 43
3.5
  0
ENDBLK
  5
21C
100
AcDbEntity
  8
0
  6
BYBLOCK
 62
0
100
AcDbBlockEnd
  0
BLOCK
  5
21D
100
AcDbEntity
  8
0
100
AcDbBlockBegin
 62
2
  6
CONTINUOUS
  2
*D1
 70
65
 10
0.0
 20
0.0
  3
*D1
  1

  0
MTEXT
  5
21E
100
AcDbEntity
  8
0
100
AcDbMText
 62
2
  6
CONTINUOUS
  7
STANDARD
 71
2
 72
1
 10
431.0764454603
 20
326.4334272505
 30
0.0
 11
0.0
 21
1.0
 31
0.0
 44
0.9
  1
50,14
 40
3.5
 41
14.875
  0
LINE
  5
21F
100
AcDbEntity
  8
0
100
AcDbLine
 62
2
  6
CONTINUOUS
 10
413.7371797379
 20
301.3634272505
 11
436.9514454603
 21
301.3634272505
  0
LINE
  5
220
100
AcDbEntity
  8
0
100
AcDbLine
 62
2
  6
CONTINUOUS
 10
350.9471797379
 20
351.5034272505
 11
436.9514454603
 21
351.5034272505
  0
LINE
  5
221
100
AcDbEntity
  8
0
100
AcDbLine
 62
2
  6
CONTINUOUS
 10
435.4514454603
 20
301.3634272505
 11
435.4514454603
 21
326.4334272505
  0
LINE
  5
222
100
AcDbEntity
  8
0
100
AcDbLine
 62
2
  6
CONTINUOUS
 10
435.4514454603
 20
351.5034272505
 11
435.4514454603
 21
326.4334272505
  0
INSERT
  5
223
100
AcDbEntity
  8
0
100
AcDbBlockReference
 62
2
  6
CONTINUOUS
  2
_FILLED
 10
435.4514454603
 20
301.3634272505
 41
3.5
 42
3.5
 43
3.5
 50
270.0
  0
INSERT
  5
224
100
AcDbEntity
  8
0
100
AcDbBlockReference
 62
2
  6
CONTINUOUS
  2
_FILLED
 10
435.4514454603
 20
351.5034272505
 41
3.5
 42
3.5
 43
3.5
 50
90.0
  0
ENDBLK
  5
225
100
AcDbEntity
  8
0
  6
BYBLOCK
 62
0
100
AcDbBlockEnd
  0
BLOCK
  5
226
100
AcDbEntity
  8
0
100
AcDbBlockBegin
 62
2
  6
CONTINUOUS
  2
*D2
 70
65
 10
0.0
 20
0.0
  3
*D2
  1

  0
MTEXT
  5
227
100
AcDbEntity
  8
0
100
AcDbMText
 62
2
  6
CONTINUOUS
  7
STANDARD
 71
1
 72
1
 10
407.4842293316
 20
387.5767086155
 30
0.0
 11
0.8797131556
 21
0.4755047465
 31
0.0
 44
0.9
  1
R15,04
 40
3.5
 41
17.85
  0
LINE
  5
228
100
AcDbEntity
  8
0
100
AcDbLine
 62
2
  6
CONTINUOUS
 10
363.1780655975
 20
358.6550186377
 11
425.2674424242
 21
392.2157232849
  0
INSERT
  5
229
100
AcDbEntity
  8
0
100
AcDbBlockReference
 62
2
  6
CONTINUOUS
  2
_FILLED
 10
363.1780655975
 20
358.6550186377
 41
3.5
 42
3.5
 43
3.5
 50
208.3922191084
  0
ENDBLK
  5
22A
100
AcDbEntity
  8
0
  6
BYBLOCK
 62
0
100
AcDbBlockEnd
  0
BLOCK
  5
22B
100
AcDbEntity
  8
0
100
AcDbBlockBegin
 62
2
  6
CONTINUOUS
  2
*D3
 70
65
 10
0.0
 20
0.0
  3
*D3
  1

  0
MTEXT
  5
22C
100
AcDbEntity
  8
0
100
AcDbMText
 62
2
  6
CONTINUOUS
  7
STANDARD
 71
1
 72
1
 10
470.8121703593
 20
287.3043232438
 30
0.0
 11
0.9520891969
 21
-0.305820472
 31
0.0
 44
0.9
  1
R14,29
 40
3.5
 41
17.85
  0
LINE
  5
22D
100
AcDbEntity
  8
0
100
AcDbLine
 62
2
  6
CONTINUOUS
 10
426.342534362
 20
296.9932527056
 11
486.4689979595
 21
277.6800375821
  0
INSERT
  5
22E
100
AcDbEntity
  8
0
100
AcDbBlockReference
 62
2
  6
CONTINUOUS
  2
_FILLED
 10
426.342534362
 20
296.9932527056
 41
3.5
 42
3.5
 43
3.5
 50
162.1924677315
  0
ENDBLK
  5
22F
100
AcDbEntity
  8
0
  6
BYBLOCK
 62
0
100
AcDbBlockEnd
  0
ENDSEC
  0
SECTION
  2
ENTITIES
  0
DIMENSION
  5
230
100
AcDbEntity
  8
0
100
AcDbDimension
 62
2
  6
CONTINUOUS
  2
*D0
 10
412.7371797379
 20
297.7052733159
 11
341.0221797379
 21
300.3302733159
 70
160
 71
2
 42
125.58
  3
DIMSTYLE_1
100
AcDbAlignedDimension
 13
287.1571797379
 23
300.3634272505
 14
412.7371797379
 24
300.3634272505
100
AcDbRotatedDimension
  0
DIMENSION
  5
231
100
AcDbEntity
  8
0
100
AcDbDimension
 62
2
  6
CONTINUOUS
  2
*D1
 10
435.4514454603
 20
351.5034272505
 11
436.1589929803
 21
319.7843270649
 70
160
 71
2
 42
50.14
  3
DIMSTYLE_1
100
AcDbAlignedDimension
 13
413.7371797379
 23
301.3634272505
 14
350.9471797379
 24
351.5034272505
 50
90.0
100
AcDbRotatedDimension
  0
DIMENSION
  5
232
100
AcDbEntity
  8
0
100
AcDbDimension
 62
2
  6
CONTINUOUS
  2
*D2
 10
349.9471797379
 20
351.5034272505
 11
416.1678025513
 21
390.2810904558
 70
164
 71
1
 42
15.04
  1
<>
  3
DIMSTYLE_2
100
AcDbRadialDimension
 15
363.1780655975
 25
358.6550186377
  0
DIMENSION
  5
233
100
AcDbEntity
  8
0
100
AcDbDimension
 62
2
  6
CONTINUOUS
  2
*D3
 10
412.7371797379
 20
301.3634272505
 11
478.7743806159
 21
282.9087194366
 70
164
 71
1
 42
14.29
  1
<>
  3
DIMSTYLE_2
100
AcDbRadialDimension
 15
426.342534362
 25
296.9932527056
  0
MTEXT
  5
234
100
AcDbEntity
  8
0
100
AcDbMText
 62
2
  6
CONTINUOUS
  7
STANDARD
 71
3
 72
1
 10
325.9815482107
 20
303.0102317507
 30
0.0
 11
1.0
 21
0.0
 31
0.0
 44
0.9
  1
SCALE  1,000
 40
3.5
 41
35.7
  0
LINE
  5
235
100
AcDbEntity
  8
0
100
AcDbLine
 62
7
  6
CONTINUOUS
 10
0.0
 20
0.0
 11
0.0
 21
594.0
  0
LINE
  5
236
100
AcDbEntity
  8
0
100
AcDbLine
 62
7
  6
CONTINUOUS
 10
0.0
 20
0.0
 11
841.0
 21
0.0
  0
LINE
  5
237
100
AcDbEntity
  8
0
100
AcDbLine
 62
7
  6
CONTINUOUS
 10
0.0
 20
594.0
 11
841.0
 21
594.0
  0
LINE
  5
238
100
AcDbEntity
  8
0
100
AcDbLine
 62
7
  6
CONTINUOUS
 10
841.0
 20
0.0
 11
841.0
 21
594.0
  0
LINE
  5
239
100
AcDbEntity
  8
02___PRT_ALL_AXES
100
AcDbLine
 62
7
  6
CONTINUOUS
 10
585.7229596653
 20
284.9824262117
 11
594.9083757992
 21
284.9803978275
  0
LINE
  5
23A
100
AcDbEntity
  8
02___PRT_ALL_AXES
100
AcDbLine
 62
7
  6
CONTINUOUS
 10
584.8928398113
 20
287.0734272505
 11
594.20817394
 21
287.0734272505
  0
LINE
  5
23B
100
AcDbEntity
  8
02___PRT_ALL_AXES
100
AcDbLine
 62
7
  6
CONTINUOUS
 10
601.1396854537
 20
297.4557523888
 11
592.9702177025
 21
297.4573326208
  0
LINE
  5
23C
100
AcDbEntity
  8
02___PRT_ALL_AXES
100
AcDbLine
 62
7
  6
CONTINUOUS
 10
584.8928398113
 20
315.6534272505
 11
594.20817394
 21
315.6534272505
  0
LINE
  5
23D
100
AcDbEntity
  8
02___PRT_ALL_AXES
100
AcDbLine
 62
7
  6
CONTINUOUS
 10
593.3147574684
 20
319.8367764559
 11
583.8734250784
 21
319.8390560085
  0
LINE
  5
23E
100
AcDbEntity
  8
02___PRT_ALL_AXES
100
AcDbLine
 62
7
  6
CONTINUOUS
 10
600.9204720561
 20
330.3008587408
 11
607.2729566199
 21
330.3008587408
  0
LINE
  5
23F
100
AcDbEntity
  8
02___PRT_ALL_AXES
100
AcDbLine
 62
7
  6
CONTINUOUS
 10
600.9592764837
 20
336.4634272505
 11
607.3100930675
 21
336.4634272505
  0
LINE
  5
240
100
AcDbEntity
  8
0
100
AcDbLine
 62
7
  6
CONTINUOUS
 10
600.9780555486
 20
372.3470087204
 11
600.9780555486
 21
366.3125988441
  0
LINE
  5
241
100
AcDbEntity
  8
0
100
AcDbLine
 62
7
  6
CONTINUOUS
 10
600.9780555486
 20
336.6462459147
 11
600.9780555486
 21
330.147857113
  0
LINE
  5
242
100
AcDbEntity
  8
0
100
AcDbLine
 62
7
  6
CONTINUOUS
 10
607.3280555486
 20
372.3470947711
 11
607.3280555486
 21
366.3125907036
  0
LINE
  5
243
100
AcDbEntity
  8
0
100
AcDbLine
 62
7
  6
CONTINUOUS
 10
607.3280555486
 20
336.6462590947
 11
607.3280555486
 21
330.1475188651
  0
LINE
  5
244
100
AcDbEntity
  8
02___PRT_ALL_AXES
100
AcDbLine
 62
7
  6
CONTINUOUS
 10
606.2815917155
 20
358.6607508323
 11
599.2292196026
 21
358.6541838948
  0
LINE
  5
245
100
AcDbEntity
  8
02___PRT_ALL_AXES
100
AcDbLine
 62
7
  6
CONTINUOUS
 10
600.9592764837
 20
366.5434272505
 11
607.3100930675
 21
366.5434272505
  0
LINE
  5
246
100
AcDbEntity
  8
02___PRT_ALL_AXES
100
AcDbLine
 62
7
  6
CONTINUOUS
 10
600.9556794726
 20
372.5034272505
 11
607.3066755697
 21
372.5034272505
  0
LINE
  5
247
100
AcDbEntity
  8
02___PRT_ALL_AXES
100
AcDbLine
 62
7
  6
CONTINUOUS
 10
271.1714586288
 20
470.6341488444
 11
271.1714586288
 21
478.3503379449
  0
LINE
  5
248
100
AcDbEntity
  8
02___PRT_ALL_AXES
100
AcDbLine
 62
7
  6
CONTINUOUS
 10
272.8671797379
 20
471.8244465893
 11
272.8671797379
 21
479.4605435733
  0
LINE
  5
249
100
AcDbEntity
  8
02___PRT_ALL_AXES
100
AcDbLine
 62
7
  6
CONTINUOUS
 10
285.2566254586
 20
486.6077831844
 11
285.2566254586
 21
479.4181877523
  0
LINE
  5
24A
100
AcDbEntity
  8
02___PRT_ALL_AXES
100
AcDbLine
 62
7
  6
CONTINUOUS
 10
301.4471797379
 20
486.9385413081
 11
301.4471797379
 21
493.7338449413
  0
LINE
  5
24B
100
AcDbEntity
  8
02___PRT_ALL_AXES
100
AcDbLine
 62
7
  6
CONTINUOUS
 10
305.6194233787
 20
495.2328542487
 11
305.6194233787
 21
488.5149803764
  0
LINE
  5
24C
100
AcDbEntity
  8
02___PRT_ALL_AXES
100
AcDbLine
 62
7
  6
CONTINUOUS
 10
330.2021378435
 20
501.2009196225
 11
330.2021378435
 21
494.7739822765
  0
LINE
  5
24D
100
AcDbEntity
  8
02___PRT_ALL_AXES
100
AcDbLine
 62
7
  6
CONTINUOUS
 10
334.9071797379
 20
495.4436902312
 11
334.9071797379
 21
501.8409504761
  0
LINE
  5
24E
100
AcDbEntity
  8
02___PRT_ALL_AXES
100
AcDbLine
 62
7
  6
CONTINUOUS
 10
364.9871797379
 20
495.9417425263
 11
364.9871797379
 21
502.3170796661
  0
LINE
  5
24F
100
AcDbEntity
  8
02___PRT_ALL_AXES
100
AcDbLine
 62
7
  6
CONTINUOUS
 10
369.6898421507
 20
501.8263543895
 11
369.6898421507
 21
495.4284205657
  0
LINE
  5
250
100
AcDbEntity
  8
02___PRT_ALL_AXES
100
AcDbLine
 62
7
  6
CONTINUOUS
 10
394.3010762647
 20
496.6844481277
 11
394.3010762647
 21
490.0397954428
  0
LINE
  5
251
100
AcDbEntity
  8
02___PRT_ALL_AXES
100
AcDbLine
 62
7
  6
CONTINUOUS
 10
398.4471797379
 20
488.6589156576
 11
398.4471797379
 21
495.3696689448
  0
LINE
  5
252
100
AcDbEntity
  8
02___PRT_ALL_AXES
100
AcDbLine
 62
7
  6
CONTINUOUS
 10
414.6629577061
 20
488.8595201423
 11
414.6629577061
 21
481.7995286683
  0
LINE
  5
253
100
AcDbEntity
  8
02___PRT_ALL_AXES
100
AcDbLine
 62
7
  6
CONTINUOUS
 10
427.0271797379
 20
474.8534268372
 11
427.0271797379
 21
482.3052467305
  0
LINE
  5
254
100
AcDbEntity
  8
02___PRT_ALL_AXES
100
AcDbLine
 62
7
  6
CONTINUOUS
 10
428.7488039816
 20
473.7401546236
 11
428.7488039816
 21
481.2579016985
  0
LINE
  5
255
100
AcDbEntity
  8
02___PRT_ALL_AXES
100
AcDbLine
 62
7
  6
CONTINUOUS
 10
500.3962743522
 20
432.977677077
 11
498.0890643994
 21
437.6792766358
  0
LINE
  5
256
100
AcDbEntity
  8
02___PRT_ALL_AXES
100
AcDbLine
 62
7
  6
CONTINUOUS
 10
501.362329022
 20
433.9310304303
 11
499.0634830145
 21
438.6155860605
  0
LINE
  5
257
100
AcDbEntity
  8
02___PRT_ALL_AXES
100
AcDbLine
 62
7
  6
CONTINUOUS
 10
512.9044859309
 20
462.8667559316
 11
515.0976135418
 21
458.3976317432
  0
LINE
  5
258
100
AcDbEntity
  8
02___PRT_ALL_AXES
100
AcDbLine
 62
7
  6
CONTINUOUS
 10
523.6109955546
 20
450.6959798688
 11
525.6602283404
 21
446.5200825042
  0
LINE
  5
259
100
AcDbEntity
  8
02___PRT_ALL_AXES
100
AcDbLine
 62
7
  6
CONTINUOUS
 10
523.2110747165
 20
454.2824951582
 11
521.123234354
 21
458.5370664924
  0
LINE
  5
25A
100
AcDbEntity
  8
02___PRT_ALL_AXES
100
AcDbLine
 62
7
  6
CONTINUOUS
 10
563.8642251273
 20
486.724265914
 11
561.9168376497
 21
490.692624361
  0
LINE
  5
25B
100
AcDbEntity
  8
02___PRT_ALL_AXES
100
AcDbLine
 62
7
  6
CONTINUOUS
 10
559.246361965
 20
502.3429291838
 11
561.2068469297
 21
498.3478808641
  0
LINE
  5
25C
100
AcDbEntity
  8
02___PRT_ALL_AXES
100
AcDbLine
 62
7
  6
CONTINUOUS
 10
608.0594941408
 20
443.2511458977
 11
606.0213390074
 21
447.4044693802
  0
LINE
  5
25D
100
AcDbEntity
  8
02___PRT_ALL_AXES
100
AcDbLine
 62
7
  6
CONTINUOUS
 10
604.8490274843
 20
451.5970672556
 11
606.8759247424
 21
447.466684911
  0
LINE
  5
25E
100
AcDbEntity
  8
02___PRT_ALL_AXES
100
AcDbLine
 62
7
  6
CONTINUOUS
 10
603.8430879687
 20
458.395679296
 11
601.8412841761
 21
462.4749265343
  0
LINE
  5
25F
100
AcDbEntity
  8
02___PRT_ALL_AXES
100
AcDbLine
 62
7
  6
CONTINUOUS
 10
612.6686558697
 20
442.8168212242
 11
610.6100006617
 21
447.0119194665
  0
LINE
  5
260
100
AcDbEntity
  8
02___PRT_ALL_AXES
100
AcDbLine
 62
7
  6
CONTINUOUS
 10
590.7430911751
 20
500.2303142933
 11
588.8011767829
 21
504.1875197649
  0
LINE
  5
261
100
AcDbEntity
  8
02___PRT_ALL_AXES
100
AcDbLine
 62
7
  6
CONTINUOUS
 10
600.7834738785
 20
487.552847533
 11
598.8174236315
 21
491.5592367056
  0
LINE
  5
262
100
AcDbEntity
  8
02___PRT_ALL_AXES
100
AcDbLine
 62
7
  6
CONTINUOUS
 10
595.4277519907
 20
502.7368497284
 11
597.3793896669
 21
498.7598302872
  0
LINE
  5
263
100
AcDbEntity
  8
02___PRT_ALL_AXES
100
AcDbLine
 62
7
  6
CONTINUOUS
 10
596.2293135752
 20
502.5793362441
 11
594.2814493226
 21
506.5486662565
  0
LINE
  5
264
100
AcDbEntity
  8
02___PRT_ALL_AXES
100
AcDbLine
 62
7
  6
CONTINUOUS
 10
631.4081850933
 20
464.2646724357
 11
633.561778071
 21
459.8761113596
  0
LINE
  5
265
100
AcDbEntity
  8
02___PRT_ALL_AXES
100
AcDbLine
 62
7
  6
CONTINUOUS
 10
641.803136966
 20
448.3215181893
 11
639.5568149548
 21
452.8990411683
  0
LINE
  5
266
100
AcDbEntity
  8
02___PRT_ALL_AXES
100
AcDbLine
 62
7
  6
CONTINUOUS
 10
643.8221575763
 20
450.3028828085
 11
641.5640540806
 21
454.9044139286
  0
ARC
  5
267
100
AcDbEntity
  8
02___PRT_ALL_AXES
100
AcDbCircle
 62
7
  6
CONTINUOUS
 10
426.8109507382
 20
379.3689131342
 40
60.7589419936
100
AcDbArc
 50
199.927141375
 51
258.4666937826
  0
ARC
  5
268
100
AcDbEntity
  8
02___PRT_ALL_AXES
100
AcDbCircle
 62
7
  6
CONTINUOUS
 10
273.1142187341
 20
379.3288332099
 40
60.7163209734
100
AcDbArc
 50
281.5361331851
 51
340.0919155851
  0
ARC
  5
269
100
AcDbEntity
  8
02___PRT_ALL_AXES
100
AcDbCircle
 62
7
  6
CONTINUOUS
 10
349.9600091103
 20
283.9479680692
 40
46.3528906716
100
AcDbArc
 50
16.942503824
 51
163.0554542514
  0
ARC
  5
26A
100
AcDbEntity
  8
02___PRT_ALL_AXES
100
AcDbCircle
 62
7
  6
CONTINUOUS
 10
349.9471797379
 20
351.5034272505
 40
21.0
100
AcDbArc
 50
19.927141375
 51
160.0919155851
  0
ARC
  5
26B
100
AcDbEntity
  8
02___PRT_ALL_AXES
100
AcDbCircle
 62
7
  6
CONTINUOUS
 10
288.7776063611
 20
302.588573944
 40
17.6061477323
100
AcDbArc
 50
101.5361331851
 51
343.0554542514
  0
ARC
  5
26C
100
AcDbEntity
  8
02___PRT_ALL_AXES
100
AcDbCircle
 62
7
  6
CONTINUOUS
 10
411.142870852
 20
302.5863309572
 40
17.6059331296
100
AcDbArc
 50
196.942503824
 51
78.4666937826
  0
CIRCLE
  5
26D
100
AcDbEntity
  8
02___PRT_ALL_AXES
100
AcDbCircle
 62
7
  6
CONTINUOUS
 10
349.9471797379
 20
351.5034272505
 40
15.04
  0
CIRCLE
  5
26E
100
AcDbEntity
  8
02___PRT_ALL_AXES
100
AcDbCircle
 62
7
  6
CONTINUOUS
 10
287.1571797379
 20
301.3634272505
 40
14.29
  0
CIRCLE
  5
26F
100
AcDbEntity
  8
02___PRT_ALL_AXES
100
AcDbCircle
 62
7
  6
CONTINUOUS
 10
412.7371797379
 20
301.3634272505
 40
14.29
  0
ARC
  5
270
100
AcDbEntity
  8
02___PRT_ALL_AXES
100
AcDbCircle
 62
7
  6
CONTINUOUS
 10
352.2377076374
 20
356.8228182225
 40
146.05
100
AcDbArc
 50
58.4145639959
 51
123.6918721012
  0
ARC
  5
271
100
AcDbEntity
  8
02___PRT_ALL_AXES
100
AcDbCircle
 62
7
  6
CONTINUOUS
 10
352.2377076374
 20
356.8228182225
 40
139.7
100
AcDbArc
 50
56.7995537425
 51
125.4597317914
  0
SPLINE
  5
272
100
AcDbEntity
  8
02___PRT_ALL_AXES
100
AcDbSpline
 62
7
  6
CONTINUOUS
 70
0
 71
3
 72
24
 73
20
 74
18
 42
0.0000001
 43
0.0000001
 44
0.0000000001
 12
-35.5378564672
 22
0.0
 32
0.0
 13
35.5378564672
 23
0.0
 33
0.0
 40
0.0
 40
0.0
 40
0.0
 40
0.0
 40
0.0406756377
 40
0.0867561777
 40
0.1391684313
 40
0.19704777
 40
0.258703223
 40
0.3238673071
 40
0.3924160359
 40
0.4640408612
 40
0.5359769797
 40
0.6075156925
 40
0.6759377612
 40
0.7410669725
 40
0.8027780738
 40
0.8607588142
 40
0.9132307646
 40
0.9593238926
 40
1.0
 40
1.0
 40
1.0
 40
1.0
 10
592.026391631
 20
287.0734272505
 30
0.0
 10
591.5445499734
 20
287.0734272505
 30
0.0
 10
590.5125189991
 20
287.291386584
 30
0.0
 10
589.0756824031
 20
288.1380031878
 30
0.0
 10
587.7307701278
 20
289.4303089917
 30
0.0
 10
586.5323858524
 20
291.0880379533
 30
0.0
 10
585.5189197479
 20
293.0345704378
 30
0.0
 10
584.7189682238
 20
295.2124311703
 30
0.0
 10
584.1571979454
 20
297.584839286
 30
0.0
 10
583.8663257711
 20
300.0863725395
 30
0.0
 10
583.8663618317
 20
302.6400863028
 30
0.0
 10
584.156839559
 20
305.1391084101
 30
0.0
 10
584.7174004308
 20
307.5087569906
 30
0.0
 10
585.5160492804
 20
309.6857446438
 30
0.0
 10
586.5293152309
 20
311.6340200723
 30
0.0
 10
587.7286232506
 20
313.2942875457
 30
0.0
 10
589.0748031218
 20
314.5882982427
 30
0.0
 10
590.5123584844
 20
315.435432247
 30
0.0
 10
591.5445444091
 20
315.6534272505
 30
0.0
 10
592.026391631
 20
315.6534272505
 30
0.0
 11
592.026391631
 21
287.0734272505
 31
0.0
 11
590.6067807308
 21
287.3459108995
 31
0.0
 11
589.1782158405
 21
288.1465031566
 31
0.0
 11
587.8184199335
 21
289.4194152409
 31
0.0
 11
586.600247561
 21
291.0768002532
 31
0.0
 11
585.5799133248
 21
293.0158332118
 31
0.0
 11
584.7759770305
 21
295.187601711
 31
0.0
 11
584.2113549667
 21
297.5573406764
 31
0.0
 11
583.9157627624
 21
300.085511864
 31
0.0
 11
583.9157990452
 21
302.6419673186
 31
0.0
 11
584.2109292877
 21
305.1671114178
 31
0.0
 11
584.7739657131
 21
307.5326008857
 31
0.0
 11
585.5765908065
 21
309.7035330655
 31
0.0
 11
586.5969728921
 21
311.6447753057
 31
0.0
 11
587.8167059469
 21
313.3054853358
 31
0.0
 11
589.1778406221
 21
314.5800715635
 31
0.0
 11
590.606764882
 21
315.3809376167
 31
0.0
 11
592.026391631
 21
315.6534272505
 31
0.0
  0
SPLINE
  5
273
100
AcDbEntity
  8
02___PRT_ALL_AXES
100
AcDbSpline
 62
7
  6
CONTINUOUS
 70
0
 71
3
 72
24
 73
20
 74
18
 42
0.0000001
 43
0.0000001
 44
0.0000000001
 12
33.6843571535
 22
0.0
 32
0.0
 13
-33.6843571535
 23
-0.0
 33
0.0
 40
0.0
 40
0.0
 40
0.0
 40
0.0
 40
0.0385954999
 40
0.0799225767
 40
0.1271647356
 40
0.1816120244
 40
0.2424497071
 40
0.3097299327
 40
0.3827329131
 40
0.4606137826
 40
0.5395252524
 40
0.6173496187
 40
0.6902786199
 40
0.7575569152
 40
0.8184322075
 40
0.8729177536
 40
0.9201422954
 40
0.9614346695
 40
1.0
 40
1.0
 40
1.0
 40
1.0
 10
592.026391631
 20
315.6534272505
 30
0.0
 10
592.4597464981
 20
315.6534272505
 30
0.0
 10
593.3669248487
 20
315.4785006261
 30
0.0
 10
594.5877549662
 20
314.6860701849
 30
0.0
 10
595.6292935319
 20
313.4419301669
 30
0.0
 10
596.4887513102
 20
311.8219160532
 30
0.0
 10
597.1745510917
 20
309.8845495052
 30
0.0
 10
597.6915473996
 20
307.6827435138
 30
0.0
 10
598.0422942279
 20
305.2558102118
 30
0.0
 10
598.219881897
 20
302.6795570129
 30
0.0
 10
598.2197235949
 20
300.0432280481
 30
0.0
 10
598.0419714865
 20
297.4684580897
 30
0.0
 10
597.6913054227
 20
295.0430221613
 30
0.0
 10
597.1743807539
 20
292.8416418245
 30
0.0
 10
596.488212775
 20
290.9035165245
 30
0.0
 10
595.6281344598
 20
289.2830575173
 30
0.0
 10
594.5861917081
 20
288.0394382694
 30
0.0
 10
593.3658374001
 20
287.2480567657
 30
0.0
 10
592.459407753
 20
287.0734272505
 30
0.0
 10
592.026391631
 20
287.0734272505
 30
0.0
 11
592.026391631
 21
315.6534272505
 31
0.0
 11
593.3032964706
 21
315.4091282563
 31
0.0
 11
594.4862737564
 21
314.6753432924
 31
0.0
 11
595.5330457411
 21
313.4767719198
 31
0.0
 11
596.4155732671
 21
311.8690463274
 31
0.0
 11
597.1160904889
 21
309.943217443
 31
0.0
 11
597.645767444
 21
307.7396934707
 31
0.0
 11
598.0049616385
 21
305.3070101653
 31
0.0
 11
598.1891636638
 21
302.6901180854
 31
0.0
 11
598.1890005817
 21
300.0320359588
 31
0.0
 11
598.0046614726
 21
297.4170615246
 31
0.0
 11
597.6457101409
 21
294.9868613236
 31
0.0
 11
597.1160222231
 21
292.7834068597
 31
0.0
 11
596.4149597277
 21
290.8564282565
 31
0.0
 11
595.5314600211
 21
289.2477663148
 31
0.0
 11
594.4846006927
 21
288.0500592657
 31
0.0
 11
593.3023346328
 21
287.3173455016
 31
0.0
 11
592.026391631
 21
287.0734272505
 31
0.0
  0
SPLINE
  5
274
100
AcDbEntity
  8
02___PRT_ALL_AXES
100
AcDbSpline
 62
7
  6
CONTINUOUS
 70
0
 71
3
 72
23
 73
19
 74
17
 42
0.0000001
 43
0.0000001
 44
0.0000000001
 12
33.0043188696
 22
0.0
 32
0.0
 13
-33.0043188696
 23
0.0
 33
0.0
 40
0.0
 40
0.0
 40
0.0
 40
0.0
 40
0.0400506014
 40
0.084209589
 40
0.1358916509
 40
0.195387508
 40
0.2626773824
 40
0.3373048921
 40
0.4176894147
 40
0.499803082
 40
0.581975207
 40
0.662463458
 40
0.737169025
 40
0.8044471484
 40
0.8639970458
 40
0.9157407371
 40
0.9599229852
 40
1.0
 40
1.0
 40
1.0
 40
1.0
 10
594.20817394
 20
287.0734272505
 30
0.0
 10
594.6487882137
 20
287.0734272505
 30
0.0
 10
595.5876705797
 20
287.3001503159
 30
0.0
 10
596.7722832881
 20
288.2672179378
 30
0.0
 10
597.730857342
 20
289.6999600355
 30
0.0
 10
598.498015682
 20
291.5155994317
 30
0.0
 10
599.0901538449
 20
293.6553848224
 30
0.0
 10
599.5144925361
 20
296.0668753188
 30
0.0
 10
599.7687442914
 20
298.6653600186
 30
0.0
 10
599.8534100826
 20
301.3575485213
 30
0.0
 10
599.7694681692
 20
304.0509039866
 30
0.0
 10
599.515617469
 20
306.6520876273
 30
0.0
 10
599.0914978995
 20
309.0655218857
 30
0.0
 10
598.4995562966
 20
311.2067256113
 30
0.0
 10
597.7326298371
 20
313.0236997066
 30
0.0
 10
596.7737689379
 20
314.4581160986
 30
0.0
 10
595.5885226519
 20
315.426393843
 30
0.0
 10
594.6490787984
 20
315.6534272505
 30
0.0
 10
594.20817394
 20
315.6534272505
 30
0.0
 11
594.20817394
 21
287.0734272505
 31
0.0
 11
595.4955388624
 21
287.3733605765
 31
0.0
 11
596.6548922479
 21
288.2565498125
 31
0.0
 11
597.6376558395
 21
289.6507143731
 31
0.0
 11
598.4265796252
 21
291.4488811365
 31
0.0
 11
599.0356849067
 21
293.5845763901
 31
0.0
 11
599.4734454166
 21
296.0083922148
 31
0.0
 11
599.7380138944
 21
298.6482039019
 31
0.0
 11
599.8251127198
 21
301.3569095853
 31
0.0
 11
599.7387321701
 21
304.0675686057
 31
0.0
 11
599.4744959479
 21
306.710854141
 31
0.0
 11
599.0368212133
 21
309.1373032994
 31
0.0
 11
598.4284060416
 21
311.2727919916
 31
0.0
 11
597.6394401814
 21
313.0728878153
 31
0.0
 11
596.6560291536
 21
314.4690844466
 31
0.0
 11
595.4963430133
 21
315.3531036153
 31
0.0
 11
594.20817394
 21
315.6534272505
 31
0.0
  0
SPLINE
  5
275
100
AcDbEntity
  8
02___PRT_ALL_AXES
100
AcDbSpline
 62
7
  6
CONTINUOUS
 70
0
 71
3
 72
24
 73
20
 74
18
 42
0.0000001
 43
0.0000001
 44
0.0000000001
 12
-34.6834770807
 22
0.0
 32
0.0
 13
34.6834770807
 23
-0.0
 33
0.0
 40
0.0
 40
0.0
 40
0.0
 40
0.0
 40
0.0379002076
 40
0.0817505212
 40
0.1327477061
 40
0.1901703294
 40
0.2522672475
 40
0.3186780421
 40
0.3890304016
 40
0.462866203
 40
0.5371625004
 40
0.6109138385
 40
0.6811450748
 40
0.7475239966
 40
0.8096735196
 40
0.8671903191
 40
0.9182393656
 40
0.9620999
 40
1.0
 40
1.0
 40
1.0
 40
1.0
 10
594.20817394
 20
315.6534272505
 30
0.0
 10
593.7700036128
 20
315.6534272505
 30
0.0
 10
592.8212176286
 20
315.4339632106
 30
0.0
 10
591.5138457189
 20
314.5946246214
 30
0.0
 10
590.2862631868
 20
313.3163383829
 30
0.0
 10
589.1864556942
 20
311.670783089
 30
0.0
 10
588.2505235189
 20
309.7291280207
 30
0.0
 10
587.5082828678
 20
307.5477768275
 30
0.0
 10
586.9853958077
 20
305.1648282029
 30
0.0
 10
586.7141938344
 20
302.6484842678
 30
0.0
 10
586.7142465576
 20
300.0783588017
 30
0.0
 10
586.9851441511
 20
297.5643886101
 30
0.0
 10
587.5070146463
 20
295.1840529116
 30
0.0
 10
588.2481518594
 20
293.0035649323
 30
0.0
 10
589.1839197986
 20
291.0603512073
 30
0.0
 10
590.284500887
 20
289.4125200886
 30
0.0
 10
591.5131461722
 20
288.1327063836
 30
0.0
 10
592.8211018491
 20
287.2929181066
 30
0.0
 10
593.7700048567
 20
287.0734272505
 30
0.0
 10
594.20817394
 20
287.0734272505
 30
0.0
 11
594.20817394
 21
315.6534272505
 31
0.0
 11
592.9211514687
 21
315.3860094517
 31
0.0
 11
591.6204533407
 21
314.597806144
 31
0.0
 11
590.3767325521
 21
313.3401617385
 31
0.0
 11
589.2556714262
 21
311.6940277249
 31
0.0
 11
588.3112857296
 21
309.7583834189
 31
0.0
 11
587.5632929261
 21
307.579860641
 31
0.0
 11
587.0366632583
 21
305.1973040934
 31
0.0
 11
586.7604574491
 21
302.651360529
 31
0.0
 11
586.7605106844
 21
300.0745066023
 31
0.0
 11
587.0363476837
 21
297.5314696953
 31
0.0
 11
587.5616310861
 21
295.1529179888
 31
0.0
 11
588.3085220412
 21
292.9751858401
 31
0.0
 11
589.2529619507
 21
291.0375380717
 31
0.0
 11
590.3753699509
 21
289.3883695345
 31
0.0
 11
591.6201777743
 21
288.1292703945
 31
0.0
 11
592.9211549819
 21
287.3408436144
 31
0.0
 11
594.20817394
 21
287.0734272505
 31
0.0
  0
SPLINE
  5
276
100
AcDbEntity
  8
02___PRT_ALL_AXES
100
AcDbSpline
 62
7
  6
CONTINUOUS
 70
0
 71
3
 72
23
 73
19
 74
17
 42
0.0000001
 43
0.0000001
 44
0.0000000001
 12
-30.1828149225
 22
0.0
 32
0.0
 13
30.1828149225
 23
-0.0
 33
0.0
 40
0.0
 40
0.0
 40
0.0
 40
0.0
 40
0.009879388
 40
0.0385684315
 40
0.0849486296
 40
0.1471790816
 40
0.2228486255
 40
0.3090868816
 40
0.4026555884
 40
0.4999667441
 40
0.5972760518
 40
0.6908415891
 40
0.7770800905
 40
0.8527584796
 40
0.9150051408
 40
0.9614038269
 40
0.9901086741
 40
1.0
 40
1.0
 40
1.0
 40
1.0
 10
607.3100930675
 20
336.4634272505
 30
0.0
 10
607.2106971546
 20
336.4634272505
 30
0.0
 10
607.2812483062
 20
337.0667067373
 30
0.0
 10
607.0278697186
 20
337.7048564089
 30
0.0
 10
606.9391425586
 20
339.1908765414
 30
0.0
 10
606.7280975546
 20
340.9885938618
 30
0.0
 10
606.5639549176
 20
343.2541624267
 30
0.0
 10
606.4143905397
 20
345.8149286175
 30
0.0
 10
606.3188519578
 20
348.6032416948
 30
0.0
 10
606.2846279752
 20
351.5024042537
 30
0.0
 10
606.3188046471
 20
354.4015356629
 30
0.0
 10
606.4142943313
 20
357.1898017596
 30
0.0
 10
606.5638160382
 20
359.7506316368
 30
0.0
 10
606.7279366813
 20
362.016454876
 30
0.0
 10
606.9390023072
 20
363.8146084552
 30
0.0
 10
607.027729272
 20
365.3011643323
 30
0.0
 10
607.2812534831
 20
365.9396764555
 30
0.0
 10
607.2105770479
 20
366.5434272505
 30
0.0
 10
607.3100930675
 20
366.5434272505
 30
0.0
 11
607.3100930675
 21
336.4634272505
 31
0.0
 11
607.2346635093
 21
336.7519169543
 31
0.0
 11
607.1062550272
 21
337.6082591397
 31
0.0
 11
606.9395021663
 21
338.9981768763
 31
0.0
 11
606.7550842986
 21
340.8673917337
 31
0.0
 11
606.5768896161
 21
343.144349459
 31
0.0
 11
606.4286366569
 21
345.7430373655
 31
0.0
 11
606.3305082644
 21
348.5654990283
 31
0.0
 11
606.2961761538
 21
351.5024229671
 31
0.0
 11
606.3304599901
 21
354.4392916928
 31
0.0
 11
606.4285369281
 21
357.2616594205
 31
0.0
 11
606.5767434464
 21
359.860357391
 31
0.0
 11
606.7549174159
 21
362.1375845275
 31
0.0
 11
606.9393503396
 21
364.0072895121
 31
0.0
 11
607.1061443391
 21
365.3977643347
 31
0.0
 11
607.2345994824
 21
366.2545818556
 31
0.0
 11
607.3100930675
 21
366.5434272505
 31
0.0
  0
SPLINE
  5
277
100
AcDbEntity
  8
02___PRT_ALL_AXES
100
AcDbSpline
 62
7
  6
CONTINUOUS
 70
0
 71
3
 72
24
 73
20
 74
18
 42
0.0000001
 43
0.0000001
 44
0.0000000001
 12
30.1074424347
 22
0.0
 32
0.0
 13
-30.1074424347
 23
0.0
 33
0.0
 40
0.0
 40
0.0
 40
0.0
 40
0.0
 40
0.0100593669
 40
0.0395785833
 40
0.0872992242
 40
0.1504920995
 40
0.2273922838
 40
0.3147552412
 40
0.4091205026
 40
0.5075819336
 40
0.6064426743
 40
0.6971607609
 40
0.7744604966
 40
0.8400222671
 40
0.8956039957
 40
0.9408178104
 40
0.9739198701
 40
0.9936467853
 40
1.0
 40
1.0
 40
1.0
 40
1.0
 10
607.3100930675
 20
366.5434272505
 30
0.0
 10
607.4110470044
 20
366.5434272505
 30
0.0
 10
607.2113393114
 20
365.9045492876
 30
0.0
 10
607.3443771164
 20
365.2578420602
 30
0.0
 10
607.1562856967
 20
363.7266776502
 30
0.0
 10
607.0829726267
 20
361.8967322014
 30
0.0
 10
606.9496866621
 20
359.598554292
 30
0.0
 10
606.8524021171
 20
357.0109719047
 30
0.0
 10
606.783190947
 20
354.1978921825
 30
0.0
 10
606.7621436707
 20
351.271073896
 30
0.0
 10
606.7911144902
 20
348.3800460746
 30
0.0
 10
606.861590196
 20
345.7031147015
 30
0.0
 10
606.9575041859
 20
343.3591592667
 30
0.0
 10
607.0562723852
 20
341.3750249152
 30
0.0
 10
607.1649018003
 20
339.6945004588
 30
0.0
 10
607.2222966344
 20
338.3910588028
 30
0.0
 10
607.345100309
 20
337.3209675545
 30
0.0
 10
607.2616425357
 20
336.8816636255
 30
0.0
 10
607.3738527498
 20
336.4634272505
 30
0.0
 10
607.3100930675
 20
336.4634272505
 30
0.0
 11
607.3100930675
 21
366.5434272505
 31
0.0
 11
607.3263278507
 21
366.2410008822
 31
0.0
 11
607.2843370329
 21
365.3532453018
 31
0.0
 11
607.1964938874
 21
363.9191867462
 31
0.0
 11
607.0827466968
 21
362.0200141729
 31
0.0
 11
606.9633717873
 21
359.707825827
 31
0.0
 11
606.8604597515
 21
357.0795646531
 31
0.0
 11
606.7922777889
 21
354.2392862275
 31
0.0
 11
606.7706591924
 21
351.2749431918
 31
0.0
 11
606.8003622048
 21
348.2986473434
 31
0.0
 11
606.8723120022
 21
345.5683056165
 31
0.0
 11
606.9659666252
 21
343.242893454
 31
0.0
 11
607.0667489264
 21
341.2715707472
 31
0.0
 11
607.1647959902
 21
339.6010218455
 31
0.0
 11
607.2489947893
 21
338.2423559918
 31
0.0
 11
607.3066245305
 21
337.2474052586
 31
0.0
 11
607.3280244705
 21
336.6538639553
 31
0.0
 11
607.3100930675
 21
336.4634272505
 31
0.0
  0
SPLINE
  5
278
100
AcDbEntity
  8
02___PRT_ALL_AXES
100
AcDbSpline
 62
7
  6
CONTINUOUS
 70
0
 71
3
 72
24
 73
20
 74
18
 42
0.0000001
 43
0.0000001
 44
0.0000000001
 12
6.8527055805
 22
66.7789942096
 32
0.0
 13
-6.124672718
 23
-66.8496972732
 33
0.0
 40
0.0
 40
0.0
 40
0.0
 40
0.0
 40
0.0974067729
 40
0.1902779294
 40
0.2750760719
 40
0.3491908423
 40
0.4100944672
 40
0.456592772
 40
0.487497168
 40
0.5023223004
 40
0.5042266384
 40
0.5210051391
 40
0.5528125634
 40
0.5986194992
 40
0.6572435127
 40
0.7280346583
 40
0.8095559513
 40
0.9007783241
 40
1.0
 40
1.0
 40
1.0
 40
1.0
 10
599.6880915747
 20
297.4573326208
 30
0.0
 10
599.9105915536
 20
299.6255747296
 30
0.0
 10
600.4484935531
 20
303.8499007749
 30
0.0
 10
601.5072827459
 20
309.9208043023
 30
0.0
 10
602.7106844881
 20
315.4090875098
 30
0.0
 10
603.9326497403
 20
320.2268861165
 30
0.0
 10
605.0825210028
 20
323.9780498668
 30
0.0
 10
606.0031382077
 20
327.2925915802
 30
0.0
 10
606.7525785778
 20
328.4876143983
 30
0.0
 10
607.0640988397
 20
330.5075476337
 30
0.0
 10
607.5282632508
 20
329.809444935
 30
0.0
 10
606.7820392818
 20
328.6741776045
 30
0.0
 10
606.5824225634
 20
326.6535908677
 30
0.0
 10
605.6742308218
 20
323.6888833526
 30
0.0
 10
604.8100728383
 20
319.8825581013
 30
0.0
 10
603.7740879973
 20
315.2708723796
 30
0.0
 10
602.7595184028
 20
309.9176001919
 30
0.0
 10
601.8240633259
 20
303.902393843
 30
0.0
 10
601.3422522176
 20
299.6667320553
 30
0.0
 10
601.1396854537
 20
297.4557523888
 30
0.0
 11
599.6880915747
 21
297.4573326208
 31
0.0
 11
600.5122842184
 21
303.9440673335
 31
0.0
 11
601.5835242103
 21
310.0857546425
 31
0.0
 11
602.7970187098
 21
315.6473792599
 31
0.0
 11
604.0376518296
 21
320.4655164615
 31
0.0
 11
605.1848814842
 21
324.389699384
 31
0.0
 11
606.1479874298
 21
327.3588181373
 31
0.0
 11
606.8501122189
 21
329.3109950844
 31
0.0
 11
607.244667457
 21
330.2246481167
 31
0.0
 11
607.3166633171
 21
330.1190117245
 31
0.0
 11
607.0775430745
 21
329.0183515498
 31
0.0
 11
606.5526992292
 21
326.9486383901
 31
0.0
 11
605.7945205461
 21
323.9685679436
 31
0.0
 11
604.8706209926
 21
320.1431437272
 31
0.0
 11
603.8513109755
 21
315.5015614081
 31
0.0
 11
602.8278791244
 21
310.1256128398
 31
0.0
 11
601.8913264456
 21
304.0739254929
 31
0.0
 11
601.1396854537
 21
297.4557523888
 31
0.0
  0
SPLINE
  5
279
100
AcDbEntity
  8
02___PRT_ALL_AXES
100
AcDbSpline
 62
7
  6
CONTINUOUS
 70
0
 71
3
 72
31
 73
27
 74
25
 42
0.0000001
 43
0.0000001
 44
0.0000000001
 12
-53.2769483796
 22
-21.070459126
 32
0.0
 13
5.8484811638
 23
56.9929183715
 33
0.0
 40
0.0
 40
0.0
 40
0.0
 40
0.0
 40
0.0360344411
 40
0.0774280834
 40
0.1235426237
 40
0.1731431135
 40
0.2240558349
 40
0.2758579667
 40
0.3274472584
 40
0.3794422873
 40
0.4314850682
 40
0.4828995731
 40
0.5339030918
 40
0.5828730907
 40
0.6288253333
 40
0.6696193043
 40
0.7043702825
 40
0.7329061909
 40
0.7571503886
 40
0.7805991556
 40
0.8061419618
 40
0.8361811814
 40
0.8710721487
 40
0.9106460104
 40
0.9539678658
 40
1.0
 40
1.0
 40
1.0
 40
1.0
 10
591.0630205104
 20
319.8390560085
 30
0.0
 10
590.4230854913
 20
319.5859686025
 30
0.0
 10
589.1420387628
 20
318.8019466498
 30
0.0
 10
587.4572800504
 20
317.1317238275
 30
0.0
 10
585.9400217834
 20
314.9835760981
 30
0.0
 10
584.6710092396
 20
312.4777972295
 30
0.0
 10
583.6988351204
 20
309.7283952493
 30
0.0
 10
583.0537707964
 20
306.8461412939
 30
0.0
 10
582.7403847893
 20
303.8889419539
 30
0.0
 10
582.7611421867
 20
300.910638782
 30
0.0
 10
583.1177546235
 20
297.9568912943
 30
0.0
 10
583.8071886488
 20
295.0818981086
 30
0.0
 10
584.8168675081
 20
292.3647255952
 30
0.0
 10
586.1235655
 20
289.8933223987
 30
0.0
 10
587.6681541534
 20
287.797592301
 30
0.0
 10
589.3719833008
 20
286.1989984465
 30
0.0
 10
591.1246860417
 20
285.207241176
 30
0.0
 10
592.8028716957
 20
284.8842759574
 30
0.0
 10
594.2645510867
 20
285.1687326649
 30
0.0
 10
595.4832225041
 20
285.8985523897
 30
0.0
 10
596.5334525556
 20
287.0010371592
 30
0.0
 10
597.4513980145
 20
288.4754016314
 30
0.0
 10
598.238392548
 20
290.3156030882
 30
0.0
 10
598.8816001714
 20
292.4750059306
 30
0.0
 10
599.3748362564
 20
294.8897348796
 30
0.0
 10
599.5983522181
 20
296.5828307319
 30
0.0
 10
599.6880915747
 20
297.4573326208
 30
0.0
 11
591.0630205104
 21
319.8390560085
 31
0.0
 11
589.2794730179
 21
318.7993017513
 31
0.0
 11
587.5719994116
 21
317.1534876373
 31
0.0
 11
586.0321739888
 21
315.0066008835
 31
0.0
 11
584.7379770292
 21
312.4766924502
 31
0.0
 11
583.7600856647
 21
309.7285934607
 31
0.0
 11
583.1090373935
 21
306.8330242091
 31
0.0
 11
582.7964493783
 21
303.8939355782
 31
0.0
 11
582.8172816167
 21
300.9150982395
 31
0.0
 11
583.1759910317
 21
297.9551083013
 31
0.0
 11
583.8659605383
 21
295.0914044088
 31
0.0
 11
584.8898884573
 21
292.3545694552
 31
0.0
 11
586.2118892714
 21
289.8799578561
 31
0.0
 11
587.7911874755
 21
287.7735495603
 31
0.0
 11
589.5187649629
 21
286.1994239447
 31
0.0
 11
591.2738576698
 21
285.2594383865
 31
0.0
 11
592.8851917332
 21
284.9829380131
 31
0.0
 11
594.2485675813
 21
285.2485271124
 31
0.0
 11
595.4107620128
 21
285.9224060853
 31
0.0
 11
596.436809367
 21
286.9658511751
 31
0.0
 11
597.3658259989
 21
288.414579904
 31
0.0
 11
598.1692861055
 21
290.2449830255
 31
0.0
 11
598.8302422294
 21
292.4137772991
 31
0.0
 11
599.3366540378
 21
294.8435705793
 31
0.0
 11
599.6880915747
 21
297.4573326208
 31
0.0
  0
SPLINE
  5
27A
100
AcDbEntity
  8
02___PRT_ALL_AXES
100
AcDbSpline
 62
7
  6
CONTINUOUS
 70
0
 71
3
 72
17
 73
13
 74
11
 42
0.0000001
 43
0.0000001
 44
0.0000000001
 12
-2.4033904957
 22
-43.4817927956
 32
0.0
 13
-40.4961378565
 23
-16.0157862531
 33
0.0
 40
0.0
 40
0.0
 40
0.0
 40
0.0
 40
0.1590949976
 40
0.3123310504
 40
0.4498767963
 40
0.5655434872
 40
0.657162123
 40
0.7337039698
 40
0.8047950368
 40
0.8725947457
 40
0.9373813031
 40
1.0
 40
1.0
 40
1.0
 40
1.0
 10
605.6561569485
 20
358.6541838948
 30
0.0
 10
605.5287011468
 20
356.3482719879
 30
0.0
 10
605.2178704719
 20
351.8242469574
 30
0.0
 10
604.5161868723
 20
345.3292660881
 30
0.0
 10
603.5541877154
 20
339.503891867
 30
0.0
 10
602.3650491559
 20
334.6351901587
 30
0.0
 10
601.0128632488
 20
330.7359752694
 30
0.0
 10
599.5203310659
 20
327.5914625185
 30
0.0
 10
597.8184869292
 20
324.9551541923
 30
0.0
 10
595.8317475605
 20
322.7453830333
 30
0.0
 10
593.5719545619
 20
321.0087967498
 30
0.0
 10
591.9082923041
 20
320.1733518967
 30
0.0
 10
591.0630205104
 20
319.8390560085
 30
0.0
 11
605.6561569485
 21
358.6541838948
 31
0.0
 11
605.1662905088
 21
351.7432285915
 31
0.0
 11
604.4265377547
 21
345.1112092719
 31
0.0
 11
603.4215895365
 21
339.2062487897
 31
0.0
 11
602.197204434
 21
334.3202508654
 31
0.0
 11
600.8674477569
 21
330.558544102
 31
0.0
 11
599.4203995554
 21
327.5557698737
 31
0.0
 11
597.7249981567
 21
324.9653797863
 31
0.0
 11
595.7391812253
 21
322.7804085259
 31
0.0
 11
593.4980503806
 21
321.0665627688
 31
0.0
 11
591.0630205104
 21
319.8390560085
 31
0.0
  0
SPLINE
  5
27B
100
AcDbEntity
  8
02___PRT_ALL_AXES
100
AcDbSpline
 62
7
  6
CONTINUOUS
 70
0
 71
3
 72
24
 73
20
 74
18
 42
0.0000001
 43
0.0000001
 44
0.0000000001
 12
1.2137761626
 22
27.8178597488
 32
0.0
 13
-1.5367075408
 23
-27.8018902866
 33
0.0
 40
0.0
 40
0.0
 40
0.0
 40
0.0
 40
0.1052889951
 40
0.1958687443
 40
0.2732234934
 40
0.3389861668
 40
0.3938121242
 40
0.4381109221
 40
0.4710291132
 40
0.4910579105
 40
0.4985179784
 40
0.5042752593
 40
0.5274496414
 40
0.568486691
 40
0.6262313085
 40
0.7002671576
 40
0.7893933059
 40
0.8905821102
 40
1.0
 40
1.0
 40
1.0
 40
1.0
 10
606.2815917155
 20
358.6607508323
 30
0.0
 10
606.3241908063
 20
359.6370556648
 30
0.0
 10
606.4193469602
 20
361.4527612936
 30
0.0
 10
606.5916161913
 20
363.9823413002
 30
0.0
 10
606.7661660393
 20
366.1459830626
 30
0.0
 10
606.9309854004
 20
367.9711638549
 30
0.0
 10
607.0785170095
 20
369.507603576
 30
0.0
 10
607.1965176429
 20
370.6920055832
 30
0.0
 10
607.2852475226
 20
371.6742512788
 30
0.0
 10
607.3195421175
 20
372.0813974406
 30
0.0
 10
607.3379409464
 20
372.5926316914
 30
0.0
 10
607.1588159345
 20
372.1218973476
 30
0.0
 10
607.108984878
 20
371.6156913266
 30
0.0
 10
606.8651834713
 20
370.4205416777
 30
0.0
 10
606.6450613569
 20
368.8707549661
 30
0.0
 10
606.3659981466
 20
366.8242702352
 30
0.0
 10
606.0947164889
 20
364.3908386931
 30
0.0
 10
605.8429453434
 20
361.6183515312
 30
0.0
 10
605.7122047139
 20
359.6681919502
 30
0.0
 10
605.6561569485
 20
358.6541838948
 30
0.0
 11
606.2815917155
 21
358.6607508323
 31
0.0
 11
606.4346821474
 21
361.5884522509
 31
0.0
 11
606.6056415118
 21
364.1047836557
 31
0.0
 11
606.7784095753
 21
366.2517343992
 31
0.0
 11
606.942318444
 21
368.0755010712
 31
0.0
 11
607.0879031034
 21
369.5951352296
 31
0.0
 11
607.2071651223
 21
370.8228263126
 31
0.0
 11
607.289953504
 21
371.7356647154
 31
0.0
 11
607.3264688313
 21
372.2921563785
 31
0.0
 11
607.3158280971
 21
372.4996042334
 31
0.0
 11
607.2493684859
 21
372.3537219139
 31
0.0
 11
607.1109431035
 21
371.723469306
 31
0.0
 11
606.9109495636
 21
370.5984584475
 31
0.0
 11
606.6660766491
 21
369.0093545606
 31
0.0
 11
606.3930245142
 21
366.9660396446
 31
0.0
 11
606.1148685134
 21
364.5000197767
 31
0.0
 11
605.8605148168
 21
361.6939899836
 31
0.0
 11
605.6561569485
 21
358.6541838948
 31
0.0
  0
SPLINE
  5
27C
100
AcDbEntity
  8
02___PRT_ALL_AXES
100
AcDbSpline
 62
7
  6
CONTINUOUS
 70
0
 71
3
 72
17
 73
13
 74
11
 42
0.0000001
 43
0.0000001
 44
0.0000000001
 12
39.2979177458
 22
16.9612158191
 32
0.0
 13
1.8658025999
 23
42.7612904609
 33
0.0
 40
0.0
 40
0.0
 40
0.0
 40
0.0
 40
0.0710192296
 40
0.1427884549
 40
0.2189878586
 40
0.3023438586
 40
0.3946162628
 40
0.4967547327
 40
0.6089883595
 40
0.7309437665
 40
0.8617281333
 40
1.0
 40
1.0
 40
1.0
 40
1.0
 10
593.3147574684
 20
319.8367764559
 30
0.0
 10
594.2450600831
 20
320.2383006162
 30
0.0
 10
596.0295498288
 20
321.2660062006
 30
0.0
 10
598.3230200637
 20
323.4225757518
 30
0.0
 10
600.2365556047
 20
326.1340449449
 30
0.0
 10
601.8149016226
 20
329.3747572526
 30
0.0
 10
603.1007490261
 20
333.1312288296
 30
0.0
 10
604.1296143003
 20
337.3882206183
 30
0.0
 10
604.9337399641
 20
342.1216448218
 30
0.0
 10
605.5441518281
 20
347.2945626027
 30
0.0
 10
605.9914420317
 20
352.8561922905
 30
0.0
 10
606.1955957127
 20
356.6898563468
 30
0.0
 10
606.2815917155
 20
358.6607508323
 30
0.0
 11
593.3147574684
 21
319.8367764559
 31
0.0
 11
595.948669083
 21
321.3542319125
 31
0.0
 11
598.200006371
 21
323.4441680479
 31
0.0
 11
600.1044096506
 21
326.0919091732
 31
0.0
 11
601.6942018731
 21
329.2859299209
 31
0.0
 11
602.9992823119
 21
333.0135097426
 31
0.0
 11
604.0488138525
 21
337.2573868079
 31
0.0
 11
604.8718544402
 21
341.9901767687
 31
0.0
 11
605.4982815122
 21
347.1723851662
 31
0.0
 11
605.9583917082
 21
352.7512732561
 31
0.0
 11
606.2815917155
 21
358.6607508323
 31
0.0
  0
SPLINE
  5
27D
100
AcDbEntity
  8
02___PRT_ALL_AXES
100
AcDbSpline
 62
7
  6
CONTINUOUS
 70
0
 71
3
 72
29
 73
25
 74
23
 42
0.0000001
 43
0.0000001
 44
0.0000000001
 12
-5.1081710397
 22
-55.7547649228
 32
0.0
 13
51.4046993257
 23
22.1865749992
 33
0.0
 40
0.0
 40
0.0
 40
0.0
 40
0.0
 40
0.0561170617
 40
0.1081558392
 40
0.1537713627
 40
0.1921012005
 40
0.2243359907
 40
0.252428429
 40
0.2800334051
 40
0.311860812
 40
0.3499219158
 40
0.3945988009
 40
0.4439261776
 40
0.4965851733
 40
0.5507449768
 40
0.6057263898
 40
0.6611593997
 40
0.7160292329
 40
0.7708706345
 40
0.8243806821
 40
0.8759093684
 40
0.9232067872
 40
0.9647992013
 40
1.0
 40
1.0
 40
1.0
 40
1.0
 10
601.1396854537
 20
297.4557523888
 30
0.0
 10
601.0441336039
 20
296.412821194
 30
0.0
 10
600.7978681875
 20
294.4074843536
 30
0.0
 10
600.2232139336
 20
291.5919789526
 30
0.0
 10
599.4507455787
 20
289.1672920315
 30
0.0
 10
598.4780406561
 20
287.2164310403
 30
0.0
 10
597.2844701811
 20
285.7810694685
 30
0.0
 10
595.799180593
 20
284.9604200067
 30
0.0
 10
594.1028569593
 20
284.9492827978
 30
0.0
 10
592.4094790707
 20
285.7158825862
 30
0.0
 10
590.7763044805
 20
287.1243133115
 30
0.0
 10
589.2641932908
 20
289.0872057504
 30
0.0
 10
587.947647183
 20
291.4971815827
 30
0.0
 10
586.8961936221
 20
294.2231373013
 30
0.0
 10
586.1491437707
 20
297.1556993567
 30
0.0
 10
585.7264299264
 20
300.2041071203
 30
0.0
 10
585.6364463752
 20
303.2934991727
 30
0.0
 10
585.8790038314
 20
306.3719596539
 30
0.0
 10
586.4495857935
 20
309.3706731558
 30
0.0
 10
587.3402953338
 20
312.2257280724
 30
0.0
 10
588.5185363421
 20
314.8218917877
 30
0.0
 10
589.9336668116
 20
317.040829508
 30
0.0
 10
591.5035843177
 20
318.7599038447
 30
0.0
 10
592.71159531
 20
319.5764480688
 30
0.0
 10
593.3147574684
 20
319.8367764559
 30
0.0
 11
601.1396854537
 21
297.4557523888
 31
0.0
 11
600.7460684975
 21
294.3386084412
 31
0.0
 11
600.1453147209
 21
291.4876549835
 31
0.0
 11
599.3426361257
 21
289.0631366919
 31
0.0
 11
598.3494385093
 21
287.1607783655
 31
0.0
 11
597.1517979973
 21
285.8106475122
 31
0.0
 11
595.7556690169
 21
285.0863048458
 31
0.0
 11
594.2104887186
 21
285.0522711595
 31
0.0
 11
592.5628845436
 21
285.731084801
 31
0.0
 11
590.9197391753
 21
287.0879674332
 31
0.0
 11
589.3699513917
 21
289.0514003857
 31
0.0
 11
588.0310646569
 21
291.4669070036
 31
0.0
 11
586.961247417
 21
294.21424829
 31
0.0
 11
586.2079950418
 21
297.1515156803
 31
0.0
 11
585.7830065793
 21
300.2003524515
 31
0.0
 11
585.692222925
 21
303.3026231526
 31
0.0
 11
585.9346704668
 21
306.365108678
 31
0.0
 11
586.51184671
 21
309.3808487335
 31
0.0
 11
587.4103066084
 21
312.2388897934
 31
0.0
 11
588.6142259818
 21
314.8606863024
 31
0.0
 11
590.0559257883
 21
317.0819338469
 31
0.0
 11
591.653815272
 21
318.7759041046
 31
0.0
 11
593.3147574684
 21
319.8367764559
 31
0.0
  0
SPLINE
  5
27E
100
AcDbEntity
  8
02___PRT_ALL_AXES
100
AcDbSpline
 62
7
  6
CONTINUOUS
 70
0
 71
3
 72
24
 73
20
 74
18
 42
0.0000001
 43
0.0000001
 44
0.0000000001
 12
-35.2363149403
 22
0.0
 32
0.0
 13
35.2363149402
 23
0.0
 33
0.0
 40
0.0
 40
0.0
 40
0.0
 40
0.0
 40
0.0396096992
 40
0.0849152222
 40
0.1369361146
 40
0.194817264
 40
0.2567389098
 40
0.3223340606
 40
0.3913773639
 40
0.463641336
 40
0.5363394788
 40
0.6086892617
 40
0.6778580965
 40
0.7434881941
 40
0.8053558231
 40
0.8631373797
 40
0.9150995625
 40
0.9603917129
 40
1.0
 40
1.0
 40
1.0
 40
1.0
 10
587.1982837709
 20
287.0734272505
 30
0.0
 10
586.7330504925
 20
287.0734272505
 30
0.0
 10
585.7317344671
 20
287.2930136188
 30
0.0
 10
584.3414113959
 20
288.1385822874
 30
0.0
 10
583.0355136261
 20
289.4282452472
 30
0.0
 10
581.867894418
 20
291.084550802
 30
0.0
 10
580.8778700426
 20
293.0312013508
 30
0.0
 10
580.0954729858
 20
295.2091876276
 30
0.0
 10
579.5453885735
 20
297.5817652219
 30
0.0
 10
579.2600851524
 20
300.0846614245
 30
0.0
 10
579.2600474311
 20
302.6425345277
 30
0.0
 10
579.5457265436
 20
305.147904825
 30
0.0
 10
580.0969748574
 20
307.5232114413
 30
0.0
 10
580.8806319815
 20
309.7020880407
 30
0.0
 10
581.8708656972
 20
311.6470621412
 30
0.0
 10
583.0376198013
 20
313.3008911758
 30
0.0
 10
584.3423068846
 20
314.5888598709
 30
0.0
 10
585.7319248977
 20
315.4338876085
 30
0.0
 10
586.7330670779
 20
315.6534272505
 30
0.0
 10
587.1982837709
 20
315.6534272505
 30
0.0
 11
587.1982837709
 21
287.0734272505
 31
0.0
 11
585.8291797931
 21
287.3445956999
 31
0.0
 11
584.44627234
 21
288.1421287095
 31
0.0
 11
583.1246725394
 21
289.4123070316
 31
0.0
 11
581.9360524537
 21
291.0696596276
 31
0.0
 11
580.938366708
 21
293.0100899413
 31
0.0
 11
580.1514391464
 21
295.1833358584
 31
0.0
 11
579.5986669839
 21
297.5525366598
 31
0.0
 11
579.3086831584
 21
300.0822866379
 31
0.0
 11
579.308645178
 21
302.6439012947
 31
0.0
 11
579.5990711559
 21
305.1766440428
 31
0.0
 11
580.1533686611
 21
307.5500309625
 31
0.0
 11
580.9415645745
 21
309.7241270649
 31
0.0
 11
581.9392263015
 21
311.6624292933
 31
0.0
 11
583.1263652324
 21
313.3165255154
 31
0.0
 11
584.4466895773
 21
314.5850454817
 31
0.0
 11
585.8292268871
 21
315.3822771231
 31
0.0
 11
587.1982837709
 21
315.6534272505
 31
0.0
  0
SPLINE
  5
27F
100
AcDbEntity
  8
02___PRT_ALL_AXES
100
AcDbSpline
 62
7
  6
CONTINUOUS
 70
0
 71
3
 72
23
 73
19
 74
17
 42
0.0000001
 43
0.0000001
 44
0.0000000001
 12
33.3712149381
 22
0.0
 32
0.0
 13
-33.3712149381
 23
-0.0
 33
0.0
 40
0.0
 40
0.0
 40
0.0
 40
0.0
 40
0.0383964935
 40
0.0812181948
 40
0.1321328296
 40
0.1919885303
 40
0.2591535165
 40
0.3345137547
 40
0.4162878902
 40
0.4999412225
 40
0.5835436144
 40
0.6652359256
 40
0.7405362469
 40
0.8077453562
 40
0.86760334
 40
0.9185911935
 40
0.9615131682
 40
1.0
 40
1.0
 40
1.0
 40
1.0
 10
587.1982837709
 20
315.6534272505
 30
0.0
 10
587.6253963164
 20
315.6534272505
 30
0.0
 10
588.5396418583
 20
315.4654983675
 30
0.0
 10
589.7664911464
 20
314.598691667
 30
0.0
 10
590.8048328816
 20
313.2187662528
 30
0.0
 10
591.6455781957
 20
311.4166358954
 30
0.0
 10
592.299378684
 20
309.256888321
 30
0.0
 10
592.7691902263
 20
306.8028688706
 30
0.0
 10
593.0517637796
 20
304.1367050848
 30
0.0
 10
593.1457175984
 20
301.3659912064
 30
0.0
 10
593.0521222251
 20
298.596180274
 30
0.0
 10
592.7702932524
 20
295.9321017261
 30
0.0
 10
592.301513876
 20
293.4790098465
 30
0.0
 10
591.6488828612
 20
291.3190738393
 30
0.0
 10
590.8089354638
 20
289.5151470487
 30
0.0
 10
589.771055197
 20
288.1324828532
 30
0.0
 10
588.5428295558
 20
287.2623094687
 30
0.0
 10
587.6264012159
 20
287.0734272505
 30
0.0
 10
587.1982837709
 20
287.0734272505
 30
0.0
 11
587.1982837709
 21
315.6534272505
 31
0.0
 11
588.4540382506
 21
315.398659071
 31
0.0
 11
589.641961889
 21
314.6043585627
 31
0.0
 11
590.6967548166
 21
313.2723316583
 31
0.0
 11
591.5688894905
 21
311.4753293256
 31
0.0
 11
592.2369484112
 21
309.3358272835
 31
0.0
 11
592.72246769
 21
306.8682767839
 31
0.0
 11
593.0173716155
 21
304.1553560019
 31
0.0
 11
593.1142215855
 21
301.365423193
 31
0.0
 11
593.0177703908
 21
298.5771775277
 31
0.0
 11
592.7237186122
 21
295.8669108336
 31
0.0
 11
592.2394727977
 21
293.4011477686
 31
0.0
 11
591.572123923
 21
291.2598817995
 31
0.0
 11
590.7013996384
 21
289.4621109902
 31
0.0
 11
589.6466511901
 21
288.1269336471
 31
0.0
 11
588.4568718665
 21
287.3293899943
 31
0.0
 11
587.1982837709
 21
287.0734272505
 31
0.0
  0
SPLINE
  5
280
100
AcDbEntity
  8
02___PRT_ALL_AXES
100
AcDbSpline
 62
7
  6
CONTINUOUS
 70
0
 71
3
 72
24
 73
20
 74
18
 42
0.0000001
 43
0.0000001
 44
0.0000000001
 12
-36.1880099986
 22
0.0
 32
0.0
 13
36.1880099986
 23
-0.0
 33
0.0
 40
0.0
 40
0.0
 40
0.0
 40
0.0
 40
0.0425677233
 40
0.0902716619
 40
0.1438366568
 40
0.2022262867
 40
0.2636811987
 40
0.3279317327
 40
0.3950321267
 40
0.4649164739
 40
0.5350749285
 40
0.605046495
 40
0.6722790322
 40
0.736569248
 40
0.7979682055
 40
0.8562509062
 40
0.9097481195
 40
0.9574352439
 40
1.0
 40
1.0
 40
1.0
 40
1.0
 10
584.8928398113
 20
315.6534272505
 30
0.0
 10
584.3793594128
 20
315.6534272505
 30
0.0
 10
583.2859534262
 20
315.4344553676
 30
0.0
 10
581.7540990405
 20
314.5799724812
 30
0.0
 10
580.3198798286
 20
313.2748459251
 30
0.0
 10
579.0446822587
 20
311.6051907919
 30
0.0
 10
577.9705537881
 20
309.6534182161
 30
0.0
 10
577.1259566987
 20
307.4796689219
 30
0.0
 10
576.5341181029
 20
305.1191481845
 30
0.0
 10
576.227704153
 20
302.6328760181
 30
0.0
 10
576.2276856833
 20
300.0932255873
 30
0.0
 10
576.5345788734
 20
297.6043236129
 30
0.0
 10
577.1278078955
 20
295.2408936207
 30
0.0
 10
577.9739095276
 20
293.0662119488
 30
0.0
 10
579.0483094853
 20
291.1162941287
 30
0.0
 10
580.3224826604
 20
289.449401499
 30
0.0
 10
581.7552542904
 20
288.1461801301
 30
0.0
 10
583.2862284217
 20
287.2923350221
 30
0.0
 10
584.3793952046
 20
287.0734272505
 30
0.0
 10
584.8928398113
 20
287.0734272505
 30
0.0
 11
584.8928398113
 21
315.6534272505
 31
0.0
 11
583.377520583
 21
315.3763591855
 31
0.0
 11
581.8539772208
 21
314.5645932501
 31
0.0
 11
580.4049775625
 21
313.2770236249
 31
0.0
 11
579.1104370383
 21
311.6070077913
 31
0.0
 11
578.0305518189
 21
309.6628583922
 31
0.0
 11
577.1836825832
 21
307.4974721242
 31
0.0
 11
576.590352442
 21
305.1428471078
 31
0.0
 11
576.2796931549
 21
302.6330248723
 31
0.0
 11
576.279674678
 21
300.0941300138
 31
0.0
 11
576.5908801284
 21
297.5811950052
 31
0.0
 11
577.186015106
 21
295.22209339
 31
0.0
 11
578.034413713
 21
293.0557635955
 31
0.0
 11
579.1143089977
 21
291.1139364053
 31
0.0
 11
580.4071408951
 21
289.4474923018
 31
0.0
 11
581.854566391
 21
288.1618439814
 31
0.0
 11
583.377623007
 21
287.3504584997
 31
0.0
 11
584.8928398113
 21
287.0734272505
 31
0.0
  0
SPLINE
  5
281
100
AcDbEntity
  8
02___PRT_ALL_AXES
100
AcDbSpline
 62
7
  6
CONTINUOUS
 70
0
 71
3
 72
24
 73
20
 74
18
 42
0.0000001
 43
0.0000001
 44
0.0000000001
 12
34.1113850819
 22
0.0
 32
0.0
 13
-34.1113850819
 23
0.0
 33
0.0
 40
0.0
 40
0.0
 40
0.0
 40
0.0
 40
0.0401978644
 40
0.0826751313
 40
0.1305017584
 40
0.1850249803
 40
0.2454530542
 40
0.3119497407
 40
0.3839858989
 40
0.4609132769
 40
0.5389315496
 40
0.6159213
 40
0.6880385429
 40
0.7545386317
 40
0.8149251619
 40
0.8694064519
 40
0.9172509063
 40
0.9597665893
 40
1.0
 40
1.0
 40
1.0
 40
1.0
 10
584.8928398113
 20
287.0734272505
 30
0.0
 10
585.3499080892
 20
287.0734272505
 30
0.0
 10
586.2996482981
 20
287.244867977
 30
0.0
 10
587.5896644868
 20
288.0322337863
 30
0.0
 10
588.6935422841
 20
289.2781481426
 30
0.0
 10
589.6022937014
 20
290.9017901795
 30
0.0
 10
590.3252710515
 20
292.8403086863
 30
0.0
 10
590.8693470907
 20
295.0401213772
 30
0.0
 10
591.2386668683
 20
297.4648768122
 30
0.0
 10
591.4260872093
 20
300.0413927738
 30
0.0
 10
591.4262756699
 20
302.6808554455
 30
0.0
 10
591.2390534134
 20
305.2590254443
 30
0.0
 10
590.8696421763
 20
307.6854643981
 30
0.0
 10
590.3254856581
 20
309.8857613039
 30
0.0
 10
589.6029367659
 20
311.8234573027
 30
0.0
 10
588.6949169297
 20
313.4466128479
 30
0.0
 10
587.5915012
 20
314.6931283899
 30
0.0
 10
586.3009175755
 20
315.4816627488
 30
0.0
 10
585.3503122667
 20
315.6534272505
 30
0.0
 10
584.8928398113
 20
315.6534272505
 30
0.0
 11
584.8928398113
 21
287.0734272505
 31
0.0
 11
586.2421415329
 21
287.3175328828
 31
0.0
 11
587.491569696
 21
288.0512969671
 31
0.0
 11
588.5969255478
 21
289.2511971368
 31
0.0
 11
589.5279947974
 21
290.8612278888
 31
0.0
 11
590.2651318131
 21
292.7862022001
 31
0.0
 11
590.8216260443
 21
294.9851729133
 31
0.0
 11
591.1993353701
 21
297.4132232891
 31
0.0
 11
591.393681373
 21
300.0301159816
 31
0.0
 11
591.3938755067
 21
302.6914273176
 31
0.0
 11
591.1996950614
 21
305.3104657554
 31
0.0
 11
590.8217084751
 21
307.7412721698
 31
0.0
 11
590.2652216516
 21
309.9403644768
 31
0.0
 11
589.5287248948
 21
311.8640664991
 31
0.0
 11
588.598775146
 21
313.4730922709
 31
0.0
 11
587.4935433575
 21
314.6739333246
 31
0.0
 11
586.2432954746
 21
315.4088890561
 31
0.0
 11
584.8928398113
 21
315.6534272505
 31
0.0
  0
SPLINE
  5
282
100
AcDbEntity
  8
02___PRT_ALL_AXES
100
AcDbSpline
 62
7
  6
CONTINUOUS
 70
0
 71
3
 72
23
 73
19
 74
17
 42
0.0000001
 43
0.0000001
 44
0.0000000001
 12
-30.1923705809
 22
0.0
 32
0.0
 13
30.1923705809
 23
0.0
 33
0.0
 40
0.0
 40
0.0
 40
0.0
 40
0.0
 40
0.0099197099
 40
0.0386494581
 40
0.0850667572
 40
0.1473192374
 40
0.2229882472
 40
0.3092060001
 40
0.4027478791
 40
0.5000329874
 40
0.5973203339
 40
0.6908662893
 40
0.7770845923
 40
0.8527448844
 40
0.9149806771
 40
0.9613788266
 40
0.9900923455
 40
1.0
 40
1.0
 40
1.0
 40
1.0
 10
600.9592764837
 20
366.5434272505
 30
0.0
 10
600.8594432979
 20
366.5434272505
 30
0.0
 10
600.9232268577
 20
365.9405374419
 30
0.0
 10
600.6677488057
 20
365.3006904755
 30
0.0
 10
600.5696321033
 20
363.8147668121
 30
0.0
 10
600.3511529417
 20
362.0163783777
 30
0.0
 10
600.1786942074
 20
359.7508259063
 30
0.0
 10
600.0225581873
 20
357.1900559917
 30
0.0
 10
599.922572733
 20
354.4017449868
 30
0.0
 10
599.8868422774
 20
351.5024080536
 30
0.0
 10
599.9226221076
 20
348.6030308787
 30
0.0
 10
600.0226597121
 20
345.8146519722
 30
0.0
 10
600.1788421866
 20
343.2539277035
 30
0.0
 10
600.3513253296
 20
340.9886258339
 30
0.0
 10
600.5697826044
 20
339.1906836099
 30
0.0
 10
600.6678979843
 20
337.7053134969
 30
0.0
 10
600.9232246096
 20
337.0658372043
 30
0.0
 10
600.8595646247
 20
336.4634272505
 30
0.0
 10
600.9592764837
 20
336.4634272505
 30
0.0
 11
600.9592764837
 21
366.5434272505
 31
0.0
 11
600.8803365809
 21
366.2545181355
 31
0.0
 11
600.7460129232
 21
365.3975623418
 31
0.0
 11
600.5715994698
 21
364.0070094782
 31
0.0
 11
600.3787369559
 21
362.1373806167
 31
0.0
 11
600.1924045439
 21
359.8603650751
 31
0.0
 11
600.0373886466
 21
357.2618664309
 31
0.0
 11
599.9347856764
 21
354.4394797159
 31
0.0
 11
599.8989154646
 21
351.5024307083
 31
0.0
 11
599.9348360894
 21
348.5653147365
 31
0.0
 11
600.0374941087
 21
345.7428068633
 31
0.0
 11
600.1925607894
 21
343.1442946123
 31
0.0
 11
600.3789161869
 21
340.8675450416
 31
0.0
 11
600.5717623393
 21
338.9984210008
 31
0.0
 11
600.7461308731
 21
337.6084452031
 31
0.0
 11
600.8804041171
 21
336.7519774944
 31
0.0
 11
600.9592764837
 21
336.4634272505
 31
0.0
  0
SPLINE
  5
283
100
AcDbEntity
  8
02___PRT_ALL_AXES
100
AcDbSpline
 62
7
  6
CONTINUOUS
 70
0
 71
3
 72
24
 73
20
 74
18
 42
0.0000001
 43
0.0000001
 44
0.0000000001
 12
30.1100007552
 22
0.0
 32
0.0
 13
-30.1100007553
 23
-0.0
 33
0.0
 40
0.0
 40
0.0
 40
0.0
 40
0.0
 40
0.0063543669
 40
0.0260744642
 40
0.0591664221
 40
0.1043665819
 40
0.159930476
 40
0.2254667867
 40
0.3027394085
 40
0.3934389864
 40
0.4923041052
 40
0.59078349
 40
0.685173316
 40
0.7725592466
 40
0.8494809441
 40
0.9126906876
 40
0.9604209378
 40
0.9899408594
 40
1.0
 40
1.0
 40
1.0
 40
1.0
 10
600.9592764837
 20
336.4634272505
 30
0.0
 10
601.0230531473
 20
336.4634272505
 30
0.0
 10
600.9129451377
 20
336.8814278749
 30
0.0
 10
600.9930855646
 20
337.3208233194
 30
0.0
 10
600.8687940968
 20
338.3903783074
 30
0.0
 10
600.8070770332
 20
339.6933330119
 30
0.0
 10
600.6941730092
 20
341.3731340436
 30
0.0
 10
600.590690685
 20
343.3564968481
 30
0.0
 10
600.4904546126
 20
345.6997604988
 30
0.0
 10
600.416676145
 20
348.3764270045
 30
0.0
 10
600.3863109278
 20
351.2677380253
 30
0.0
 10
600.4082957874
 20
354.1952826927
 30
0.0
 10
600.4805788214
 20
357.0091945014
 30
0.0
 10
600.5825992029
 20
359.5975107327
 30
0.0
 10
600.7211514215
 20
361.8962155383
 30
0.0
 10
600.8001620872
 20
363.7264790442
 30
0.0
 10
600.9911613533
 20
365.2577650271
 30
0.0
 10
600.8624612595
 20
365.9045787474
 30
0.0
 10
601.0602367275
 20
366.5434272505
 30
0.0
 10
600.9592764837
 20
366.5434272505
 30
0.0
 11
600.9592764837
 21
336.4634272505
 31
0.0
 11
600.9780231738
 21
336.6538366173
 31
0.0
 11
600.9556618398
 21
337.2471875514
 31
0.0
 11
600.8954370687
 21
338.2417646973
 31
0.0
 11
600.8074384867
 21
339.5998936404
 31
0.0
 11
600.7049526682
 21
341.2697805629
 31
0.0
 11
600.5995917931
 21
343.24026414
 31
0.0
 11
600.5016488813
 21
345.5648804426
 31
0.0
 11
600.4263578248
 21
348.2948067394
 31
0.0
 11
600.3952240419
 21
351.2714727274
 31
0.0
 11
600.4177837511
 21
354.2366012589
 31
0.0
 11
600.4890727896
 21
357.077784763
 31
0.0
 11
600.5967001472
 21
359.7067730608
 31
0.0
 11
600.7215467934
 21
362.0195181448
 31
0.0
 11
600.8404986909
 21
363.9190427161
 31
0.0
 11
600.9323502234
 21
365.3532623777
 31
0.0
 11
600.9762498575
 21
366.2410224853
 31
0.0
 11
600.9592764837
 21
366.5434272505
 31
0.0
  0
SPLINE
  5
284
100
AcDbEntity
  8
02___PRT_ALL_AXES
100
AcDbSpline
 62
7
  6
CONTINUOUS
 70
0
 71
3
 72
24
 73
20
 74
18
 42
0.0000001
 43
0.0000001
 44
0.0000000001
 12
6.4419876026
 22
66.9726422163
 32
0.0
 13
-7.2146593213
 23
-66.8938166095
 33
0.0
 40
0.0
 40
0.0
 40
0.0
 40
0.0
 40
0.0990134915
 40
0.1901834591
 40
0.2717231585
 40
0.3425392624
 40
0.4011587847
 40
0.446959625
 40
0.4787770727
 40
0.4955421958
 40
0.4974614025
 40
0.5123322244
 40
0.5432650317
 40
0.5898260896
 40
0.6508428702
 40
0.7250935515
 40
0.8099883114
 40
0.9028370312
 40
1.0
 40
1.0
 40
1.0
 40
1.0
 10
594.4950327689
 20
297.4557523888
 30
0.0
 10
594.7076473306
 20
299.66615077
 30
0.0
 10
595.2135494325
 20
303.9029766743
 30
0.0
 10
596.1950712963
 20
309.9195057739
 30
0.0
 10
597.2593442703
 20
315.2753167789
 30
0.0
 10
598.3448235448
 20
319.8883670484
 30
0.0
 10
599.2496075169
 20
323.6922951753
 30
0.0
 10
600.1984919062
 20
326.6582164165
 30
0.0
 10
600.4083836001
 20
328.6705320748
 30
0.0
 10
601.186258039
 20
329.8157118215
 30
0.0
 10
600.7022676482
 20
330.5037338513
 30
0.0
 10
600.3779248553
 20
328.4969094061
 30
0.0
 10
599.5945533
 20
327.2958007765
 30
0.0
 10
598.6316727799
 20
323.9878454756
 30
0.0
 10
597.426761873
 20
320.2343140581
 30
0.0
 10
596.1446163056
 20
315.4134243933
 30
0.0
 10
594.8809319391
 20
309.9203522478
 30
0.0
 10
593.7691072619
 20
303.8485441141
 30
0.0
 10
593.2038836086
 20
299.6238665594
 30
0.0
 10
592.9702177025
 20
297.4573326208
 30
0.0
 11
594.4950327689
 21
297.4557523888
 31
0.0
 11
595.2834951034
 21
304.0707293914
 31
0.0
 11
596.2663406611
 21
310.1255531963
 31
0.0
 11
597.3400204403
 21
315.5055973648
 31
0.0
 11
598.4082793687
 21
320.1489297715
 31
0.0
 11
599.3750830403
 21
323.9726212809
 31
0.0
 11
600.1677519306
 21
326.9504883985
 31
0.0
 11
600.7164794847
 21
329.0197004171
 31
0.0
 11
600.966244669
 21
330.1196875351
 31
0.0
 11
600.890751495
 21
330.224447803
 31
0.0
 11
600.4789535374
 21
329.3125856411
 31
0.0
 11
599.7459876118
 21
327.3647123583
 31
0.0
 11
598.7387144606
 21
324.3983560693
 31
0.0
 11
597.5365593364
 21
320.472997338
 31
0.0
 11
596.2346258664
 21
315.6499126398
 31
0.0
 11
594.9601650706
 21
310.0820416964
 31
0.0
 11
593.8350881307
 21
303.9371644632
 31
0.0
 11
592.9702177025
 21
297.4573326208
 31
0.0
  0
SPLINE
  5
285
100
AcDbEntity
  8
02___PRT_ALL_AXES
100
AcDbSpline
 62
7
  6
CONTINUOUS
 70
0
 71
3
 72
29
 73
25
 74
23
 42
0.0000001
 43
0.0000001
 44
0.0000000001
 12
-52.5640153079
 22
-21.4738737559
 32
0.0
 13
5.436595869
 23
56.5203183353
 33
0.0
 40
0.0
 40
0.0
 40
0.0
 40
0.0
 40
0.0363712869
 40
0.0787680812
 40
0.1264395081
 40
0.1778273147
 40
0.2307013591
 40
0.2845010582
 40
0.3381157299
 40
0.3922771539
 40
0.4461471805
 40
0.4994554703
 40
0.5517635978
 40
0.6012990294
 40
0.6467375632
 40
0.6859507346
 40
0.7191386999
 40
0.7480162255
 40
0.7769572128
 40
0.8094975504
 40
0.8477375078
 40
0.8930538674
 40
0.9445607431
 40
1.0
 40
1.0
 40
1.0
 40
1.0
 10
586.2547659944
 20
319.8367764559
 30
0.0
 10
585.6174923674
 20
319.5764323149
 30
0.0
 10
584.3399351344
 20
318.7609756496
 30
0.0
 10
582.6682834358
 20
317.0303456091
 30
0.0
 10
581.1645453053
 20
314.8009023218
 30
0.0
 10
579.9157392281
 20
312.2008937953
 30
0.0
 10
578.9746324646
 20
309.3531180788
 30
0.0
 10
578.372596236
 20
306.3725345128
 30
0.0
 10
578.1150994743
 20
303.3186537582
 30
0.0
 10
578.2057579867
 20
300.2538363848
 30
0.0
 10
578.6454828721
 20
297.2251051016
 30
0.0
 10
579.4274925187
 20
294.3020939789
 30
0.0
 10
580.5337724862
 20
291.5730015047
 30
0.0
 10
581.9264066079
 20
289.1470127882
 30
0.0
 10
583.5321665098
 20
287.1617622815
 30
0.0
 10
585.2694571735
 20
285.7326099919
 30
0.0
 10
587.0626691008
 20
284.9550480927
 30
0.0
 10
588.8448067233
 20
284.9526400582
 30
0.0
 10
590.4153923469
 20
285.7585731136
 30
0.0
 10
591.68381928
 20
287.193582902
 30
0.0
 10
592.7137146776
 20
289.1491299745
 30
0.0
 10
593.5296631293
 20
291.5798509116
 30
0.0
 10
594.1353044411
 20
294.4016322744
 30
0.0
 10
594.3945658238
 20
296.4112709056
 30
0.0
 10
594.4950327689
 20
297.4557523888
 30
0.0
 11
586.2547659944
 21
319.8367764559
 31
0.0
 11
584.4880185529
 21
318.767349411
 31
0.0
 11
582.7897182969
 21
317.0611656123
 31
0.0
 11
581.2593636928
 21
314.8284546687
 31
0.0
 11
579.9853321235
 21
312.2034301499
 31
0.0
 11
579.0377507322
 21
309.3546409474
 31
0.0
 11
578.4301669304
 21
306.3608623785
 31
0.0
 11
578.1734343447
 21
303.3274025058
 31
0.0
 11
578.2646988107
 21
300.2534071624
 31
0.0
 11
578.7059814391
 21
297.2266017198
 31
0.0
 11
579.4923176751
 21
294.3036158261
 31
0.0
 11
580.6160131161
 21
291.5542693054
 31
0.0
 11
582.0300199374
 21
289.1228589566
 31
0.0
 11
583.6743759714
 21
287.1347013145
 31
0.0
 11
585.4212123402
 21
285.7540572062
 31
0.0
 11
587.1722952858
 21
285.0577326884
 31
0.0
 11
588.8118207463
 21
285.0816649315
 31
0.0
 11
590.2893187378
 21
285.8010023038
 31
0.0
 11
591.553745065
 21
287.1482749053
 31
0.0
 11
592.6014166126
 21
289.0501087178
 31
0.0
 11
593.4484963883
 21
291.4797969395
 31
0.0
 11
594.0811288128
 21
294.3351755033
 31
0.0
 11
594.4950327689
 21
297.4557523888
 31
0.0
  0
SPLINE
  5
286
100
AcDbEntity
  8
02___PRT_ALL_AXES
100
AcDbSpline
 62
7
  6
CONTINUOUS
 70
0
 71
3
 72
17
 73
13
 74
11
 42
0.0000001
 43
0.0000001
 44
0.0000000001
 12
-1.9680427146
 22
-43.1143477554
 32
0.0
 13
-39.9537815852
 23
-16.3222397834
 33
0.0
 40
0.0
 40
0.0
 40
0.0
 40
0.0
 40
0.1376067237
 40
0.2676802806
 40
0.3888934942
 40
0.5003974946
 40
0.6019025623
 40
0.693758026
 40
0.7770670725
 40
0.8537824415
 40
0.9268171927
 40
1.0
 40
1.0
 40
1.0
 40
1.0
 10
599.8836578918
 20
358.6607508323
 30
0.0
 10
599.7933859217
 20
356.6831427853
 30
0.0
 10
599.5790105731
 20
352.8377300197
 30
0.0
 10
599.1088556031
 20
347.2617392278
 30
0.0
 10
598.4670498887
 20
342.0802904797
 30
0.0
 10
597.6215350113
 20
337.3438670638
 30
0.0
 10
596.5397099179
 20
333.0882830797
 30
0.0
 10
595.1874084873
 20
329.336078382
 30
0.0
 10
593.526572004
 20
326.1011554787
 30
0.0
 10
591.5117459654
 20
323.3969559936
 30
0.0
 10
589.0964953598
 20
321.2499002012
 30
0.0
 10
587.229409294
 20
320.2349455655
 30
0.0
 10
586.2547659944
 20
319.8367764559
 30
0.0
 11
599.8836578918
 21
358.6607508323
 31
0.0
 11
599.5441092361
 21
352.7314633325
 31
0.0
 11
599.0604307178
 21
347.138462328
 31
0.0
 11
598.401845416
 21
341.9486118293
 31
0.0
 11
597.5367764944
 21
337.2145733424
 31
0.0
 11
596.434105962
 21
332.9747333778
 31
0.0
 11
595.0634608489
 21
329.2548011217
 31
0.0
 11
593.3941254751
 21
326.0702544742
 31
0.0
 11
591.3939036781
 21
323.4317543983
 31
0.0
 11
589.0275005517
 21
321.3494419464
 31
0.0
 11
586.2547659944
 21
319.8367764559
 31
0.0
  0
SPLINE
  5
287
100
AcDbEntity
  8
02___PRT_ALL_AXES
100
AcDbSpline
 62
7
  6
CONTINUOUS
 70
0
 71
3
 72
24
 73
20
 74
18
 42
0.0000001
 43
0.0000001
 44
0.0000000001
 12
1.6089208743
 22
27.8126155138
 32
0.0
 13
-1.2703634926
 23
-27.8301344713
 33
0.0
 40
0.0
 40
0.0
 40
0.0
 40
0.0
 40
0.1094230434
 40
0.2106202203
 40
0.2997581879
 40
0.373809364
 40
0.4315736719
 40
0.4726318321
 40
0.4958247146
 40
0.5016079229
 40
0.5090781888
 40
0.529110884
 40
0.5620295186
 40
0.6063231918
 40
0.6611346973
 40
0.7268716251
 40
0.8041927805
 40
0.8947378277
 40
1.0
 40
1.0
 40
1.0
 40
1.0
 10
599.2292196026
 20
358.6541838948
 30
0.0
 10
599.2879039421
 20
359.6686309064
 30
0.0
 10
599.4247987354
 20
361.6195605472
 30
0.0
 10
599.6883375841
 20
364.3926775409
 30
0.0
 10
599.972254496
 20
366.8263767902
 30
0.0
 10
600.2640833118
 20
368.87250686
 30
0.0
 10
600.4945118434
 20
370.4224874713
 30
0.0
 10
600.7489049972
 20
371.6160822948
 30
0.0
 10
600.8017577463
 20
372.1238487403
 30
0.0
 10
600.9883165246
 20
372.5924131449
 30
0.0
 10
600.9692220873
 20
372.081437502
 30
0.0
 10
600.933173719
 20
371.6731875813
 30
0.0
 10
600.8404747178
 20
370.6913123834
 30
0.0
 10
600.7170666198
 20
369.506776102
 30
0.0
 10
600.5628419203
 20
367.9706800676
 30
0.0
 10
600.390514264
 20
366.1458706919
 30
0.0
 10
600.2079865672
 20
363.9826137409
 30
0.0
 10
600.0277897468
 20
361.4531112326
 30
0.0
 10
599.9282316321
 20
359.6372376356
 30
0.0
 10
599.8836578918
 20
358.6607508323
 30
0.0
 11
599.2292196026
 21
358.6541838948
 31
0.0
 11
599.4431754861
 21
361.6950953041
 31
0.0
 11
599.7094154106
 21
364.501759479
 31
0.0
 11
600.0004771353
 21
366.9679479563
 31
0.0
 11
600.286100381
 21
369.0110800812
 31
0.0
 11
600.5421709633
 21
370.599838517
 31
0.0
 11
600.7512504698
 21
371.7244116513
 31
0.0
 11
600.895910218
 21
372.3541430249
 31
0.0
 11
600.9653161037
 21
372.4995420759
 31
0.0
 11
600.9763818536
 21
372.2917214868
 31
0.0
 11
600.9381587525
 21
371.7349388208
 31
0.0
 11
600.851577788
 21
370.8219510014
 31
0.0
 11
600.7268812591
 21
369.5942851202
 31
0.0
 11
600.5746754707
 21
368.0748897586
 31
0.0
 11
600.4033083929
 21
366.2515525173
 31
0.0
 11
600.22265019
 21
364.1050426848
 31
0.0
 11
600.0438343599
 21
361.5888838822
 31
0.0
 11
599.8836578918
 21
358.6607508323
 31
0.0
  0
SPLINE
  5
288
100
AcDbEntity
  8
02___PRT_ALL_AXES
100
AcDbSpline
 62
7
  6
CONTINUOUS
 70
0
 71
3
 72
17
 73
13
 74
11
 42
0.0000001
 43
0.0000001
 44
0.0000000001
 12
41.1975270449
 22
15.3905977718
 32
0.0
 13
2.5398473259
 23
43.9050784073
 33
0.0
 40
0.0
 40
0.0
 40
0.0
 40
0.0
 40
0.0641665792
 40
0.1299275439
 40
0.1980928085
 40
0.2690368785
 40
0.3452710651
 40
0.4363450314
 40
0.5513131979
 40
0.6882725097
 40
0.8410938126
 40
1.0
 40
1.0
 40
1.0
 40
1.0
 10
583.8734250784
 20
319.8390560085
 30
0.0
 10
584.7545932051
 20
320.1682433452
 30
0.0
 10
586.4870168344
 20
320.9872042886
 30
0.0
 10
588.8542430171
 20
322.6969553958
 30
0.0
 10
590.9411064475
 20
324.8780718219
 30
0.0
 10
592.7344733121
 20
327.4898086335
 30
0.0
 10
594.3110128267
 20
330.615924884
 30
0.0
 10
595.7424025436
 20
334.5067551444
 30
0.0
 10
597.0029633125
 20
339.3816469867
 30
0.0
 10
598.0229617903
 20
345.231603032
 30
0.0
 10
598.7663015944
 20
351.7696454098
 30
0.0
 10
599.0946871175
 20
356.3285876886
 30
0.0
 10
599.2292196026
 20
358.6541838948
 30
0.0
 11
583.8734250784
 21
319.8390560085
 31
0.0
 11
586.4219093982
 21
321.050923082
 31
0.0
 11
588.7685573248
 21
322.7412771122
 31
0.0
 11
590.8507291719
 21
324.8979861142
 31
0.0
 11
592.6319121696
 21
327.4595997542
 31
0.0
 11
594.1591065915
 21
330.4442322182
 31
0.0
 11
595.5650486273
 21
334.1946604765
 31
0.0
 11
596.8615448618
 21
339.0817352754
 31
0.0
 11
597.9271008819
 21
345.0099964297
 31
0.0
 11
598.7110248223
 21
351.6849698427
 31
0.0
 11
599.2292196026
 21
358.6541838948
 31
0.0
  0
SPLINE
  5
289
100
AcDbEntity
  8
02___PRT_ALL_AXES
100
AcDbSpline
 62
7
  6
CONTINUOUS
 70
0
 71
3
 72
31
 73
27
 74
25
 42
0.0000001
 43
0.0000001
 44
0.0000000001
 12
-6.2439193018
 22
-57.8931830461
 32
0.0
 13
54.5468489078
 23
20.3776457346
 33
0.0
 40
0.0
 40
0.0
 40
0.0
 40
0.0
 40
0.0447579852
 40
0.0863663934
 40
0.1242867873
 40
0.1580687581
 40
0.187598406
 40
0.2129616166
 40
0.2362075035
 40
0.2601057785
 40
0.2878709771
 40
0.3219710775
 40
0.3626710177
 40
0.4092978831
 40
0.4590273332
 40
0.5103512292
 40
0.5617881082
 40
0.6135545228
 40
0.6653726423
 40
0.7166885105
 40
0.7684878224
 40
0.8199153206
 40
0.8706103434
 40
0.918419804
 40
0.9617970486
 40
1.0
 40
1.0
 40
1.0
 40
1.0
 10
592.9702177025
 20
297.4573326208
 30
0.0
 10
592.8770626199
 20
296.5936052111
 30
0.0
 10
592.6470492397
 20
294.9316691194
 30
0.0
 10
592.1445636218
 20
292.5697405637
 30
0.0
 10
591.4976024012
 20
290.4639457525
 30
0.0
 10
590.7104609467
 20
288.6578135224
 30
0.0
 10
589.7940716733
 20
287.1912624584
 30
0.0
 10
588.7514740667
 20
286.073845305
 30
0.0
 10
587.5554986089
 20
285.2994800732
 30
0.0
 10
586.1269506997
 20
284.9096795319
 30
0.0
 10
584.4346928759
 20
285.0550837277
 30
0.0
 10
582.5845136175
 20
285.8652558058
 30
0.0
 10
580.718993067
 20
287.3368055263
 30
0.0
 10
578.9854743112
 20
289.3732655439
 30
0.0
 10
577.4976933596
 20
291.8358000545
 30
0.0
 10
576.3354478133
 20
294.5676540413
 30
0.0
 10
575.5267737952
 20
297.4641559541
 30
0.0
 10
575.082400834
 20
300.4477756455
 30
0.0
 10
575.0057448618
 20
303.4608453215
 30
0.0
 10
575.2949593979
 20
306.4614956106
 30
0.0
 10
575.9483861451
 20
309.3971129932
 30
0.0
 10
576.9655853722
 20
312.2152314959
 30
0.0
 10
578.319175798
 20
314.8024124154
 30
0.0
 10
579.9569361962
 20
317.0322470262
 30
0.0
 10
581.7891328313
 20
318.7706994321
 30
0.0
 10
583.1788082066
 20
319.5795606056
 30
0.0
 10
583.8734250784
 20
319.8390560085
 30
0.0
 11
592.9702177025
 21
297.4573326208
 31
0.0
 11
592.6066583371
 21
294.8766058321
 31
0.0
 11
592.0933715815
 21
292.508788687
 31
0.0
 11
591.4325409541
 21
290.4019313723
 31
0.0
 11
590.6312756796
 21
288.6054325728
 31
0.0
 11
589.7032209415
 21
287.1579091019
 31
0.0
 11
588.6815141195
 21
286.0914818024
 31
0.0
 11
587.5367351737
 21
285.3692160497
 31
0.0
 11
586.1933836775
 21
285.0060687961
 31
0.0
 11
584.5807827495
 21
285.1216478577
 31
0.0
 11
582.7451644121
 21
285.8787214675
 31
0.0
 11
580.8615523966
 21
287.3169482005
 31
0.0
 11
579.0827904848
 21
289.3681441949
 31
0.0
 11
577.5737766612
 21
291.8395629313
 31
0.0
 11
576.3975365454
 21
294.5868890746
 31
0.0
 11
575.5891715125
 21
297.4708539625
 31
0.0
 11
575.1439044099
 21
300.4520879966
 31
0.0
 11
575.0669804997
 21
303.4684204374
 31
0.0
 11
575.3543622462
 21
306.4426362594
 31
0.0
 11
576.0118321577
 21
309.3863251643
 31
0.0
 11
577.0330862527
 21
312.2013697123
 31
0.0
 11
578.4108459989
 21
314.8120379722
 31
0.0
 11
580.0737013895
 21
317.0447434441
 31
0.0
 11
581.9286928823
 21
318.7590139491
 31
0.0
 11
583.8734250784
 21
319.8390560085
 31
0.0
  0
SPLINE
  5
28A
100
AcDbEntity
  8
02___PRT_ALL_AXES
100
AcDbSpline
 62
7
  6
CONTINUOUS
 70
0
 71
3
 72
24
 73
20
 74
18
 42
0.0000001
 43
0.0000001
 44
0.0000000001
 12
-33.0821557184
 22
-13.3067868576
 32
0.0
 13
33.0821557184
 23
13.3067868576
 33
0.0
 40
0.0
 40
0.0
 40
0.0
 40
0.0
 40
0.0607157591
 40
0.1121795863
 40
0.1544259784
 40
0.1897529763
 40
0.222570699
 40
0.2582234328
 40
0.3004858027
 40
0.3514768531
 40
0.4102576403
 40
0.4763948724
 40
0.5469579841
 40
0.6210728481
 40
0.6981376516
 40
0.7775254136
 40
0.8562711399
 40
0.9312978246
 40
1.0
 40
1.0
 40
1.0
 40
1.0
 10
506.4296885322
 20
437.7993983062
 30
0.0
 10
505.7601524661
 20
437.530087751
 30
0.0
 10
504.4914634915
 20
437.1032876783
 30
0.0
 10
502.6688928691
 20
436.8085692233
 30
0.0
 10
501.1188735669
 20
436.9208645109
 30
0.0
 10
499.8871769524
 20
437.4702102296
 30
0.0
 10
499.0614922384
 20
438.4384894189
 30
0.0
 10
498.6576349923
 20
439.7179073303
 30
0.0
 10
498.6180760727
 20
441.2624586542
 30
0.0
 10
498.9217263163
 20
443.0520086626
 30
0.0
 10
499.5564812081
 20
445.0494202211
 30
0.0
 10
500.4969743115
 20
447.1781832506
 30
0.0
 10
501.7141224408
 20
449.3718957919
 30
0.0
 10
503.1786733008
 20
451.5665808156
 30
0.0
 10
504.8804206372
 20
453.7186767594
 30
0.0
 10
506.7980921911
 20
455.7579910991
 30
0.0
 10
508.88570181
 20
457.58853539
 30
0.0
 10
511.0615554355
 20
459.1016604182
 30
0.0
 10
512.5903387004
 20
459.8821463153
 30
0.0
 10
513.3479440551
 20
460.1868813834
 30
0.0
 11
506.4296885322
 21
437.7993983062
 31
0.0
 11
504.3706356467
 21
437.1303977944
 31
0.0
 11
502.554172518
 21
436.8695130768
 31
0.0
 11
501.0554189817
 21
437.0213566754
 31
0.0
 11
499.917835388
 21
437.5624028654
 31
0.0
 11
499.1518008646
 21
438.4470496283
 31
0.0
 11
498.7362345029
 21
439.6485195209
 31
0.0
 11
498.6648863868
 21
441.1538251181
 31
0.0
 11
498.9443310613
 21
442.9504665807
 31
0.0
 11
499.5632034398
 21
444.9530294853
 31
0.0
 11
500.5064742217
 21
447.1144987096
 31
0.0
 11
501.7222222985
 21
449.3174393188
 31
0.0
 11
503.1873838945
 21
451.5169086731
 31
0.0
 11
504.8926087208
 21
453.6718156338
 31
0.0
 11
506.8352157278
 21
455.7308927149
 31
0.0
 11
508.9523368368
 21
457.575405288
 31
0.0
 11
511.1569485038
 21
459.0909787823
 31
0.0
 11
513.3479440551
 21
460.1868813834
 31
0.0
  0
SPLINE
  5
28B
100
AcDbEntity
  8
02___PRT_ALL_AXES
100
AcDbSpline
 62
7
  6
CONTINUOUS
 70
0
 71
3
 72
24
 73
20
 74
18
 42
0.0000001
 43
0.0000001
 44
0.0000000001
 12
33.6052315372
 22
13.5171860374
 32
0.0
 13
-33.6052315372
 23
-13.5171860374
 33
0.0
 40
0.0
 40
0.0
 40
0.0
 40
0.0
 40
0.0569968965
 40
0.1075444236
 40
0.1520845198
 40
0.1925368428
 40
0.2316224282
 40
0.2731538083
 40
0.3198442318
 40
0.3736691475
 40
0.433839935
 40
0.4999954749
 40
0.5695401697
 40
0.6418795431
 40
0.7161281918
 40
0.7918550288
 40
0.8660494459
 40
0.9361898455
 40
1.0
 40
1.0
 40
1.0
 40
1.0
 10
513.3479440551
 20
460.1868813834
 30
0.0
 10
513.9864086896
 20
460.4436939345
 30
0.0
 10
515.231835926
 20
460.8386770043
 30
0.0
 10
517.0742476891
 20
461.0291515815
 30
0.0
 10
518.7137018534
 20
460.7607351791
 30
0.0
 10
520.0590508242
 20
460.0311681432
 30
0.0
 10
521.0266190903
 20
458.893838209
 30
0.0
 10
521.5846438736
 20
457.4353222247
 30
0.0
 10
521.7362392092
 20
455.7096665304
 30
0.0
 10
521.4774641401
 20
453.7742636996
 30
0.0
 10
520.8151291414
 20
451.6931295677
 30
0.0
 10
519.7823708193
 20
449.558185874
 30
0.0
 10
518.4259826258
 20
447.4381355361
 30
0.0
 10
516.8002476445
 20
445.3916746576
 30
0.0
 10
514.9419999054
 20
443.4497862494
 30
0.0
 10
512.9049418447
 20
441.6624784746
 30
0.0
 10
510.7609935058
 20
440.0870888591
 30
0.0
 10
508.6077475249
 20
438.7847526975
 30
0.0
 10
507.1444735371
 20
438.0869095492
 30
0.0
 10
506.4296885322
 20
437.7993983062
 30
0.0
 11
513.3479440551
 21
460.1868813834
 31
0.0
 11
515.3226484383
 21
460.7892521841
 31
0.0
 11
517.1465224811
 21
460.9498091491
 31
0.0
 11
518.7339009433
 21
460.6616198401
 31
0.0
 11
520.0152161833
 21
459.9508330277
 31
0.0
 11
520.9386906529
 21
458.8777279271
 31
0.0
 11
521.4971967532
 21
457.4809007789
 31
0.0
 11
521.6705515333
 21
455.7985931751
 31
0.0
 11
521.4351749856
 21
453.8632130043
 31
0.0
 11
520.7913881555
 21
451.7809643732
 31
0.0
 11
519.7600160336
 21
449.6179975031
 31
0.0
 11
518.4100454029
 21
447.4912285639
 31
0.0
 11
516.7847400274
 21
445.4359440985
 31
0.0
 11
514.9275775308
 21
443.4907024687
 31
0.0
 11
512.8659482705
 21
441.6814020568
 31
0.0
 11
510.6985205434
 21
440.0924677014
 31
0.0
 11
508.5209943909
 21
438.783604925
 31
0.0
 11
506.4296885322
 21
437.7993983062
 31
0.0
  0
SPLINE
  5
28C
100
AcDbEntity
  8
02___PRT_ALL_AXES
100
AcDbSpline
 62
7
  6
CONTINUOUS
 70
0
 71
3
 72
23
 73
19
 74
17
 42
0.0000001
 43
0.0000001
 44
0.0000000001
 12
-41.1433389473
 22
10.9820629722
 32
0.0
 13
41.1433389473
 23
-10.9820629722
 33
0.0
 40
0.0
 40
0.0
 40
0.0
 40
0.0
 40
0.0745833234
 40
0.1461658395
 40
0.2125909953
 40
0.2731361919
 40
0.3293219642
 40
0.3829459408
 40
0.4355033541
 40
0.4874127954
 40
0.540602831
 40
0.5966901782
 40
0.6551470517
 40
0.7163740955
 40
0.7814753109
 40
0.8513436236
 40
0.9248485305
 40
1.0
 40
1.0
 40
1.0
 40
1.0
 10
621.4309932109
 20
439.1556159381
 30
0.0
 10
620.4081242262
 20
439.4286421895
 30
0.0
 10
618.4372476923
 20
440.1032145909
 30
0.0
 10
615.7472467354
 20
441.496247666
 30
0.0
 10
613.4763484884
 20
443.1890123516
 30
0.0
 10
611.6951415467
 20
445.1043388787
 30
0.0
 10
610.4285491574
 20
447.1858044398
 30
0.0
 10
609.6961194231
 20
449.3938804547
 30
0.0
 10
609.5291628128
 20
451.6557365227
 30
0.0
 10
609.931260699
 20
453.8806556681
 30
0.0
 10
610.8779243944
 20
455.986987958
 30
0.0
 10
612.333326088
 20
457.8958060205
 30
0.0
 10
614.2402942703
 20
459.5306251776
 30
0.0
 10
616.5349742588
 20
460.8319648776
 30
0.0
 10
619.1786025936
 20
461.7527535892
 30
0.0
 10
622.1146017495
 20
462.228063415
 30
0.0
 10
625.2306174094
 20
462.1949336711
 30
0.0
 10
627.3185879398
 20
461.8182050721
 30
0.0
 10
628.3492487339
 20
461.5430990153
 30
0.0
 11
621.4309932109
 21
439.1556159381
 31
0.0
 11
618.4283891323
 21
440.1908006521
 31
0.0
 11
615.7271431708
 21
441.6032921681
 31
0.0
 11
613.4685970463
 21
443.3062744298
 31
0.0
 11
611.7246607645
 21
445.205229733
 31
0.0
 11
610.4935641958
 21
447.2568032106
 31
0.0
 11
609.7848705318
 21
449.4275596668
 31
0.0
 11
609.623841624
 21
451.6598536007
 31
0.0
 11
610.0131815397
 21
453.8357971509
 31
0.0
 11
610.9334969483
 21
455.9054342936
 31
0.0
 11
612.3724256123
 21
457.8117391136
 31
0.0
 11
614.2550368896
 21
459.4403790563
 31
0.0
 11
616.5182094053
 21
460.7349678785
 31
0.0
 11
619.1334880175
 21
461.6546023338
 31
0.0
 11
622.0693815844
 21
462.1369826285
 31
0.0
 11
625.1993710511
 21
462.108586167
 31
0.0
 11
628.3492487339
 21
461.5430990153
 31
0.0
  0
SPLINE
  5
28D
100
AcDbEntity
  8
02___PRT_ALL_AXES
100
AcDbSpline
 62
7
  6
CONTINUOUS
 70
0
 71
3
 72
24
 73
20
 74
18
 42
0.0000001
 43
0.0000001
 44
0.0000000001
 12
42.3817823088
 22
-11.3126307708
 32
0.0
 13
-42.3817823088
 23
11.3126307708
 33
0.0
 40
0.0
 40
0.0
 40
0.0
 40
0.0
 40
0.0691899404
 40
0.137519065
 40
0.2033337053
 40
0.2653346756
 40
0.3226427911
 40
0.3762362952
 40
0.427119822
 40
0.4765537405
 40
0.5247167392
 40
0.5735422354
 40
0.6234933821
 40
0.6762548021
 40
0.7331224124
 40
0.795212741
 40
0.8615293409
 40
0.9304822419
 40
1.0
 40
1.0
 40
1.0
 40
1.0
 10
628.3492487339
 20
461.5430990153
 30
0.0
 10
629.3267130647
 20
461.2821922656
 30
0.0
 10
631.2322292138
 20
460.6104268451
 30
0.0
 10
633.8589527365
 20
459.1929659103
 30
0.0
 10
636.1473198322
 20
457.4436009947
 30
0.0
 10
638.0115096552
 20
455.4637121174
 30
0.0
 10
639.4130059892
 20
453.3437831222
 30
0.0
 10
640.3375785685
 20
451.1500998586
 30
0.0
 10
640.769929056
 20
448.9231015529
 30
0.0
 10
640.6761639965
 20
446.731688953
 30
0.0
 10
640.038593086
 20
444.6626012754
 30
0.0
 10
638.8876129702
 20
442.8209353324
 30
0.0
 10
637.2844450091
 20
441.2642090609
 30
0.0
 10
635.2940373879
 20
440.0181160845
 30
0.0
 10
632.9476023611
 20
439.0908341475
 30
0.0
 10
630.2907822261
 20
438.5099307938
 30
0.0
 10
627.4026759381
 20
438.3071201518
 30
0.0
 10
624.4062896018
 20
438.5006371321
 30
0.0
 10
622.4130887081
 20
438.8934730282
 30
0.0
 10
621.4309932109
 20
439.1556159381
 30
0.0
 11
628.3492487339
 21
461.5430990153
 31
0.0
 11
631.2115006901
 21
460.5335974599
 31
0.0
 11
633.8478750065
 21
459.1076496766
 31
0.0
 11
636.137699984
 21
457.3493937311
 31
0.0
 11
637.9954781319
 21
455.3630698905
 31
0.0
 11
639.3723123891
 21
453.2597880552
 31
0.0
 11
640.2731819978
 21
451.0883327572
 31
0.0
 11
640.6852015009
 21
448.8946538487
 31
0.0
 11
640.5821461629
 21
446.72865546
 31
0.0
 11
639.958278036
 21
444.7101695286
 31
0.0
 11
638.8301496123
 21
442.8896033156
 31
0.0
 11
637.2681792487
 21
441.352941157
 31
0.0
 11
635.3149955324
 21
440.1113398259
 31
0.0
 11
633.0006023234
 21
439.1806014497
 31
0.0
 11
630.3425657294
 21
438.5864633575
 31
0.0
 11
627.4413200192
 21
438.3739620708
 31
0.0
 11
624.4227027002
 21
438.5650665584
 31
0.0
 11
621.4309932109
 21
439.1556159381
 31
0.0
  0
SPLINE
  5
28E
100
AcDbEntity
  8
02___PRT_ALL_AXES
100
AcDbSpline
 62
7
  6
CONTINUOUS
 70
0
 71
3
 72
23
 73
19
 74
17
 42
0.0000001
 43
0.0000001
 44
0.0000000001
 12
-40.3523797735
 22
-0.4293861899
 32
0.0
 13
40.3523797735
 23
0.4293861899
 33
0.0
 40
0.0
 40
0.0
 40
0.0
 40
0.0
 40
0.064763884
 40
0.1249186476
 40
0.1803374607
 40
0.2320050156
 40
0.2818399997
 40
0.3322868988
 40
0.3855958799
 40
0.4431880154
 40
0.50551389
 40
0.5721967543
 40
0.6422886745
 40
0.7145780633
 40
0.787732823
 40
0.86044473
 40
0.9315492942
 40
1.0
 40
1.0
 40
1.0
 40
1.0
 10
571.5565952434
 20
485.9884155378
 30
0.0
 10
570.6854696291
 20
485.9791459653
 30
0.0
 10
568.9998465709
 20
486.0850652141
 30
0.0
 10
566.6285121926
 20
486.6597848826
 30
0.0
 10
564.5815448949
 20
487.6393552941
 30
0.0
 10
562.9417666413
 20
489.0085766909
 30
0.0
 10
561.7873197342
 20
490.7307153052
 30
0.0
 10
561.1748206271
 20
492.7332672378
 30
0.0
 10
561.1174281035
 20
494.9258366767
 30
0.0
 10
561.5971060384
 20
497.2240040775
 30
0.0
 10
562.5831062313
 20
499.5471463723
 30
0.0
 10
564.0346995664
 20
501.8112814358
 30
0.0
 10
565.899468682
 20
503.9297694935
 30
0.0
 10
568.1130622201
 20
505.8171356459
 30
0.0
 10
570.5999032377
 20
507.3935773003
 30
0.0
 10
573.2743815304
 20
508.5890550757
 30
0.0
 10
576.0387981405
 20
509.3473434622
 30
0.0
 10
577.9172339595
 20
509.5410917168
 30
0.0
 10
578.8379502514
 20
509.5508889794
 30
0.0
 11
571.5565952434
 21
485.9884155378
 31
0.0
 11
568.9492139533
 21
486.1675095206
 31
0.0
 11
566.5947232392
 21
486.7584854059
 31
0.0
 11
564.5869663778
 21
487.7435901305
 31
0.0
 11
562.9976278845
 21
489.0931604433
 31
0.0
 11
561.8813649114
 21
490.7659951107
 31
0.0
 11
561.2753225048
 21
492.7094617603
 31
0.0
 11
561.1990242635
 21
494.8593743452
 31
0.0
 11
561.6535594333
 21
497.1386047158
 31
0.0
 11
562.6205079112
 21
499.4604441931
 31
0.0
 11
564.0627995863
 21
501.7322463854
 31
0.0
 11
565.9264698358
 21
503.8600030848
 31
0.0
 11
568.1447461167
 21
505.7545710957
 31
0.0
 11
570.6389635439
 21
507.333806667
 31
0.0
 11
573.3198128126
 21
508.5266838255
 31
0.0
 11
576.0891871402
 21
509.2777010438
 31
0.0
 11
578.8379502514
 21
509.5508889794
 31
0.0
  0
SPLINE
  5
28F
100
AcDbEntity
  8
02___PRT_ALL_AXES
100
AcDbSpline
 62
7
  6
CONTINUOUS
 70
0
 71
3
 72
24
 73
20
 74
18
 42
0.0000001
 43
0.0000001
 44
0.0000000001
 12
41.1432443501
 22
0.4378017116
 32
0.0
 13
-41.1432443501
 23
-0.4378017116
 33
0.0
 40
0.0
 40
0.0
 40
0.0
 40
0.0
 40
0.065509611
 40
0.1272283244
 40
0.1856828496
 40
0.2410182328
 40
0.2951228996
 40
0.3490828363
 40
0.4042287805
 40
0.4621838979
 40
0.5238795031
 40
0.5863268401
 40
0.6465980927
 40
0.7057543513
 40
0.7655150661
 40
0.8263115907
 40
0.8869040661
 40
0.9454659203
 40
1.0
 40
1.0
 40
1.0
 40
1.0
 10
578.8379502514
 20
509.5508889794
 30
0.0
 10
579.7363762286
 20
509.5604490526
 30
0.0
 10
581.4886674186
 20
509.4213191703
 30
0.0
 10
583.9521439615
 20
508.7058108043
 30
0.0
 10
586.0767124268
 20
507.5275511455
 30
0.0
 10
587.7797631287
 20
505.9420716077
 30
0.0
 10
588.988864163
 20
504.0241430094
 30
0.0
 10
589.6495440255
 20
501.8578481038
 30
0.0
 10
589.7309112234
 20
499.5434410532
 30
0.0
 10
589.2282522762
 20
497.1770376084
 30
0.0
 10
588.1769809689
 20
494.8913489243
 30
0.0
 10
586.6930349122
 20
492.8269375528
 30
0.0
 10
584.9268167549
 20
491.0531146244
 30
0.0
 10
582.9683734895
 20
489.5576393975
 30
0.0
 10
580.8378682666
 20
488.3070316983
 30
0.0
 10
578.560366377
 20
487.3009369867
 30
0.0
 10
576.1998595209
 20
486.5622149505
 30
0.0
 10
573.8557197471
 20
486.1112710651
 30
0.0
 10
572.3044982328
 20
485.9963739089
 30
0.0
 10
571.5565952434
 20
485.9884155378
 30
0.0
 11
578.8379502514
 21
509.5508889794
 31
0.0
 11
581.5238214812
 21
509.32408197
 31
0.0
 11
583.9586205841
 21
508.6025772238
 31
0.0
 11
586.0555654382
 21
507.4246363923
 31
0.0
 11
587.7154749739
 21
505.8662570221
 31
0.0
 11
588.8991445968
 21
503.9808530368
 31
0.0
 11
589.5497125133
 21
501.8580941865
 31
0.0
 11
589.6391255468
 21
499.5908450773
 31
0.0
 11
589.1576730893
 21
497.255357073
 31
0.0
 11
588.1116067121
 21
494.9424081326
 31
0.0
 11
586.6226353551
 21
492.8483826966
 31
0.0
 11
584.8789300962
 21
491.0850414211
 31
0.0
 11
582.947745131
 21
489.6034985803
 31
0.0
 11
580.8288936028
 21
488.3558597039
 31
0.0
 11
578.5412053233
 21
487.3439189924
 31
0.0
 11
576.1615532704
 21
486.6003705309
 31
0.0
 11
573.7946965105
 21
486.1487360721
 31
0.0
 11
571.5565952434
 21
485.9884155378
 31
0.0
  0
SPLINE
  5
290
100
AcDbEntity
  8
02___PRT_ALL_AXES
100
AcDbSpline
 62
7
  6
CONTINUOUS
 70
0
 71
3
 72
24
 73
20
 74
18
 42
0.0000001
 43
0.0000001
 44
0.0000000001
 12
54.2487930777
 22
93.5211723007
 32
0.0
 13
8.5255545589
 23
-107.7796647719
 33
0.0
 40
0.0
 40
0.0
 40
0.0
 40
0.0
 40
0.0617378442
 40
0.1268223772
 40
0.1935085828
 40
0.2605199684
 40
0.3264024049
 40
0.390810281
 40
0.4531798962
 40
0.5133100375
 40
0.5704508012
 40
0.6267462189
 40
0.6818160627
 40
0.7357333802
 40
0.7887674249
 40
0.8415790795
 40
0.8941580918
 40
0.9469024904
 40
1.0
 40
1.0
 40
1.0
 40
1.0
 10
523.6109955546
 20
450.6959798688
 30
0.0
 10
524.7273967335
 20
452.6205783914
 30
0.0
 10
527.2313581821
 20
456.4552163745
 30
0.0
 10
531.6183093844
 20
461.8910039313
 30
0.0
 10
536.6771071737
 20
466.9825334235
 30
0.0
 10
542.2833513953
 20
471.5128884056
 30
0.0
 10
548.3127584392
 20
475.3149296595
 30
0.0
 10
554.6253640918
 20
478.2545602981
 30
0.0
 10
561.0856732999
 20
480.2410100147
 30
0.0
 10
567.5111653488
 20
481.2167093871
 30
0.0
 10
573.7918512628
 20
481.1899965012
 30
0.0
 10
579.8089544696
 20
480.1857027805
 30
0.0
 10
585.4664828857
 20
478.2337748819
 30
0.0
 10
590.6113337664
 20
475.4135331295
 30
0.0
 10
595.1403289451
 20
471.813265896
 30
0.0
 10
598.9538887836
 20
467.5256025589
 30
0.0
 10
601.9521227852
 20
462.642868752
 30
0.0
 10
604.0196098493
 20
457.2873756438
 30
0.0
 10
604.698132246
 20
453.5046778495
 30
0.0
 10
604.8490274843
 20
451.5970672556
 30
0.0
 11
523.6109955546
 21
450.6959798688
 31
0.0
 11
527.2532426169
 21
456.289540088
 31
0.0
 11
531.6713143442
 21
461.7663824849
 31
0.0
 11
536.7566849334
 21
466.8772729864
 31
0.0
 11
542.3984961833
 21
471.4226394249
 31
0.0
 11
548.431317714
 21
475.2096868956
 31
0.0
 11
554.7510035305
 21
478.1341537692
 31
0.0
 11
561.2013254846
 21
480.0997942721
 31
0.0
 11
567.630962583
 21
481.0607427474
 31
0.0
 11
573.8086955145
 21
481.0227482631
 31
0.0
 11
579.8106263277
 21
480.0119320035
 31
0.0
 11
585.4370567162
 21
478.0644218242
 31
0.0
 11
590.5468025602
 21
475.2587610238
 31
0.0
 11
595.0329960857
 21
471.6878981221
 31
0.0
 11
598.8242098325
 21
467.418408521
 31
0.0
 11
601.7938767809
 21
462.5711079022
 31
0.0
 11
603.8404775576
 21
457.2484878738
 31
0.0
 11
604.8490274843
 21
451.5970672556
 31
0.0
  0
SPLINE
  5
291
100
AcDbEntity
  8
02___PRT_ALL_AXES
100
AcDbSpline
 62
7
  6
CONTINUOUS
 70
0
 71
3
 72
31
 73
27
 74
25
 42
0.0000001
 43
0.0000001
 44
0.0000000001
 12
-54.0405467807
 22
-31.9503602228
 32
0.0
 13
31.5002033375
 23
54.3041748341
 33
0.0
 40
0.0
 40
0.0
 40
0.0
 40
0.0
 40
0.0539992911
 40
0.1105549525
 40
0.1677496052
 40
0.2237045823
 40
0.2759622287
 40
0.3241540829
 40
0.36729425
 40
0.4058954631
 40
0.4396827048
 40
0.4686033997
 40
0.4939125081
 40
0.5174754681
 40
0.5431892376
 40
0.5740264445
 40
0.6110354949
 40
0.6517198674
 40
0.6925157062
 40
0.7332069667
 40
0.7750799624
 40
0.8196037684
 40
0.8655638744
 40
0.9118062284
 40
0.9569348249
 40
1.0
 40
1.0
 40
1.0
 40
1.0
 10
512.9044859309
 20
462.8667559316
 30
0.0
 10
511.9317688584
 20
462.2916569973
 30
0.0
 10
510.0274997857
 20
460.9635821224
 30
0.0
 10
507.4002162567
 20
458.6261492733
 30
0.0
 10
504.9930215671
 20
456.0078125145
 30
0.0
 10
502.8836653156
 20
453.2581370661
 30
0.0
 10
501.1107924301
 20
450.502624229
 30
0.0
 10
499.6951899342
 20
447.8481691064
 30
0.0
 10
498.6291584441
 20
445.3425698624
 30
0.0
 10
497.9135844536
 20
443.0279216207
 30
0.0
 10
497.5581774155
 20
440.9292837919
 30
0.0
 10
497.5889970304
 20
439.0738052703
 30
0.0
 10
498.067543321
 20
437.4833965975
 30
0.0
 10
499.1175057045
 20
436.2569670863
 30
0.0
 10
500.7083891948
 20
435.5876980643
 30
0.0
 10
502.6876194161
 20
435.4837008611
 30
0.0
 10
504.9381041208
 20
435.8697951142
 30
0.0
 10
507.2973448589
 20
436.6539202398
 30
0.0
 10
509.6259473893
 20
437.7181179448
 30
0.0
 10
511.8769173739
 20
438.9871716855
 30
0.0
 10
514.092320153
 20
440.4626132655
 30
0.0
 10
516.2831270779
 20
442.1613089118
 30
0.0
 10
518.4100919092
 20
444.0791517946
 30
0.0
 10
520.3889688397
 20
446.1676577655
 30
0.0
 10
522.1456659227
 20
448.3694424946
 30
0.0
 10
523.1588082973
 20
449.9164402698
 30
0.0
 10
523.6109955546
 20
450.6959798688
 30
0.0
 11
512.9044859309
 21
462.8667559316
 31
0.0
 11
510.112749138
 21
460.9436175423
 31
0.0
 11
507.4517664292
 21
458.5930244443
 31
0.0
 11
505.0168390603
 21
455.954139446
 31
0.0
 11
502.8775229946
 21
453.1679083602
 31
0.0
 11
501.1048470745
 21
450.4073814515
 31
0.0
 11
499.6874514443
 21
447.7345060427
 31
0.0
 11
498.6376945472
 21
445.2379310022
 31
0.0
 11
497.9390513388
 21
442.9174770824
 31
0.0
 11
497.6113439489
 21
440.8218146597
 31
0.0
 11
497.6797387785
 21
439.0074902626
 31
0.0
 11
498.1821642942
 21
437.5001375975
 31
0.0
 11
499.1523588776
 21
436.3834766251
 31
0.0
 11
500.6218125722
 21
435.7151778309
 31
0.0
 11
502.551187468
 21
435.5560022641
 31
0.0
 11
504.8473500006
 21
435.9106694036
 31
0.0
 11
507.2778401304
 21
436.6957005366
 31
0.0
 11
509.6113365213
 21
437.7512316427
 31
0.0
 11
511.8390073187
 21
439.0015308197
 31
0.0
 11
514.0282571569
 21
440.4566907005
 31
0.0
 11
516.2375344841
 21
442.1690048977
 31
0.0
 11
518.3794274692
 21
444.1022477296
 31
0.0
 11
520.3736016844
 21
446.2119795607
 31
0.0
 11
522.1361556207
 21
448.4300926501
 31
0.0
 11
523.6109955546
 21
450.6959798688
 31
0.0
  0
SPLINE
  5
292
100
AcDbEntity
  8
02___PRT_ALL_AXES
100
AcDbSpline
 62
7
  6
CONTINUOUS
 70
0
 71
3
 72
17
 73
13
 74
11
 42
0.0000001
 43
0.0000001
 44
0.0000000001
 12
-34.6106469193
 22
-50.6478883942
 32
0.0
 13
-52.8054017228
 23
-31.2201061474
 33
0.0
 40
0.0
 40
0.0
 40
0.0
 40
0.0
 40
0.1164971067
 40
0.2395602153
 40
0.3617131871
 40
0.4753445681
 40
0.5739694683
 40
0.6629192776
 40
0.7507643111
 40
0.8379639793
 40
0.9218032561
 40
1.0
 40
1.0
 40
1.0
 40
1.0
 10
559.246361965
 20
502.3429291838
 30
0.0
 10
557.9023485555
 20
500.376151697
 30
0.0
 10
554.9508229247
 20
496.457742691
 30
0.0
 10
550.0346256363
 20
490.9227807255
 30
0.0
 10
544.7866022279
 20
485.7870054085
 30
0.0
 10
539.6311197312
 20
481.290370669
 30
0.0
 10
534.8123213665
 20
477.4521184873
 30
0.0
 10
530.2870194304
 20
474.0981847128
 30
0.0
 10
525.8573883669
 20
471.0117692145
 30
0.0
 10
521.4369821415
 20
468.0982695011
 30
0.0
 10
517.1198624121
 20
465.3891819084
 30
0.0
 10
514.2808894231
 20
463.6805261469
 30
0.0
 10
512.9044859309
 20
462.8667559316
 30
0.0
 11
559.246361965
 21
502.3429291838
 31
0.0
 11
554.9597252416
 21
496.6248860615
 31
0.0
 11
549.9584427706
 21
490.9700091772
 31
0.0
 11
544.611854571
 21
485.7198089012
 31
0.0
 11
539.3643858546
 21
481.131385262
 31
0.0
 11
534.6351226594
 21
477.3581491223
 31
0.0
 11
530.2532624955
 21
474.1064956791
 31
0.0
 11
525.8335282561
 21
471.0234950075
 31
0.0
 11
521.3686418599
 21
468.0775446228
 31
0.0
 11
517.013484727
 21
465.3419338491
 31
0.0
 11
512.9044859309
 21
462.8667559316
 31
0.0
  0
SPLINE
  5
293
100
AcDbEntity
  8
02___PRT_ALL_AXES
100
AcDbSpline
 62
7
  6
CONTINUOUS
 70
0
 71
3
 72
24
 73
20
 74
18
 42
0.0000001
 43
0.0000001
 44
0.0000000001
 12
-5.9008965933
 22
45.4786590154
 32
0.0
 13
-25.8743517388
 23
-37.8635303233
 33
0.0
 40
0.0
 40
0.0
 40
0.0
 40
0.0
 40
0.0534770273
 40
0.1031610245
 40
0.1505849038
 40
0.1972803536
 40
0.2443202264
 40
0.2930109298
 40
0.3438919756
 40
0.3955012415
 40
0.446078984
 40
0.504824209
 40
0.5720374475
 40
0.6418273387
 40
0.7128823426
 40
0.7854027726
 40
0.8586378569
 40
0.9307547941
 40
1.0
 40
1.0
 40
1.0
 40
1.0
 10
595.4277519907
 20
502.7368497284
 30
0.0
 10
595.3225645213
 20
503.5475375587
 30
0.0
 10
594.9632960288
 20
505.0961132411
 30
0.0
 10
594.0114141729
 20
507.2061577732
 30
0.0
 10
592.7532703495
 20
509.0226844251
 30
0.0
 10
591.2348690366
 20
510.5695890484
 30
0.0
 10
589.4735798802
 20
511.8645074877
 30
0.0
 10
587.4785726332
 20
512.9041865094
 30
0.0
 10
585.2865400591
 20
513.661474783
 30
0.0
 10
582.9831209447
 20
514.1116678742
 30
0.0
 10
580.5224440324
 20
514.2731965928
 30
0.0
 10
577.8210992307
 20
514.1115578202
 30
0.0
 10
574.8745062788
 20
513.5407368704
 30
0.0
 10
571.8487652913
 20
512.5334262777
 30
0.0
 10
568.8968055869
 20
511.1280113987
 30
0.0
 10
566.086012685
 20
509.357871074
 30
0.0
 10
563.4847119409
 20
507.2660883905
 30
0.0
 10
561.1757428253
 20
504.9261075381
 30
0.0
 10
559.8435869032
 20
503.2168851688
 30
0.0
 10
559.246361965
 20
502.3429291838
 30
0.0
 11
595.4277519907
 21
502.7368497284
 31
0.0
 11
594.8713949228
 21
505.1253595714
 31
0.0
 11
593.9354116014
 21
507.2027397194
 31
0.0
 11
592.6989247782
 21
508.9918983609
 31
0.0
 11
591.2011294882
 21
510.5223912587
 31
0.0
 11
589.4653077354
 21
511.8032584632
 31
0.0
 11
587.4871401286
 21
512.839076385
 31
0.0
 11
585.2832326399
 21
513.6055893534
 31
0.0
 11
582.961295433
 21
514.0642025396
 31
0.0
 11
580.6470501905
 21
514.2200876402
 31
0.0
 11
577.957497358
 21
514.0645021369
 31
0.0
 11
574.9301160653
 21
513.4847617117
 31
0.0
 11
571.8916310117
 21
512.4791924546
 31
0.0
 11
568.9477070799
 21
511.0821891732
 31
0.0
 11
566.1322522345
 21
509.3118736857
 31
0.0
 11
563.5149032213
 21
507.2072694206
 31
0.0
 11
561.1939910635
 21
504.8511219813
 31
0.0
 11
559.246361965
 21
502.3429291838
 31
0.0
  0
SPLINE
  5
294
100
AcDbEntity
  8
02___PRT_ALL_AXES
100
AcDbSpline
 62
7
  6
CONTINUOUS
 70
0
 71
3
 72
17
 73
13
 74
11
 42
0.0000001
 43
0.0000001
 44
0.0000000001
 12
-50.2831773333
 22
22.4583823408
 32
0.0
 13
-7.0860673606
 23
54.6128602937
 33
0.0
 40
0.0
 40
0.0
 40
0.0
 40
0.0
 40
0.1183955794
 40
0.2313256395
 40
0.3392126449
 40
0.4425094602
 40
0.5417007204
 40
0.6373630404
 40
0.7301637338
 40
0.8209102539
 40
0.9105318353
 40
1.0
 40
1.0
 40
1.0
 40
1.0
 10
631.4081850933
 20
464.2646724357
 30
0.0
 10
629.4237497884
 20
465.1509968323
 30
0.0
 10
625.5914097753
 20
466.986388872
 30
0.0
 10
620.1476586668
 20
470.0184040057
 30
0.0
 10
615.160266402
 20
473.2728158399
 30
0.0
 10
610.6470146194
 20
476.7614837879
 30
0.0
 10
606.6333050837
 20
480.4950188828
 30
0.0
 10
603.1522614176
 20
484.4796594009
 30
0.0
 10
600.2422485882
 20
488.7141922602
 30
0.0
 10
597.9430270017
 20
493.1871486327
 30
0.0
 10
596.2906300663
 20
497.8728043189
 30
0.0
 10
595.6390778047
 20
501.1081456014
 30
0.0
 10
595.4277519907
 20
502.7368497284
 30
0.0
 11
631.4081850933
 21
464.2646724357
 31
0.0
 11
625.5322925893
 21
467.0906018443
 31
0.0
 11
620.1048689535
 21
470.1271587586
 31
0.0
 11
615.1362889781
 21
473.385001694
 31
0.0
 11
610.6441864614
 21
476.8751947886
 31
0.0
 11
606.6544975623
 21
480.6063593809
 31
0.0
 11
603.1991670896
 21
484.5831017549
 31
0.0
 11
600.3149353992
 21
488.8020337224
 31
0.0
 11
598.0382552202
 21
493.2507903239
 31
0.0
 11
596.4011663364
 21
497.9068925748
 31
0.0
 11
595.4277519907
 21
502.7368497284
 31
0.0
  0
SPLINE
  5
295
100
AcDbEntity
  8
02___PRT_ALL_AXES
100
AcDbSpline
 62
7
  6
CONTINUOUS
 70
0
 71
3
 72
29
 73
25
 74
23
 42
0.0000001
 43
0.0000001
 44
0.0000000001
 12
5.6186526137
 22
-71.030745389
 32
0.0
 13
-65.0583927462
 23
29.0575563491
 33
0.0
 40
0.0
 40
0.0
 40
0.0
 40
0.0
 40
0.0384880299
 40
0.0789495257
 40
0.1215651634
 40
0.1664916188
 40
0.2148168698
 40
0.2665545053
 40
0.3203377378
 40
0.375337946
 40
0.4292117957
 40
0.4807249737
 40
0.5279703742
 40
0.5710354942
 40
0.6101483627
 40
0.6467239476
 40
0.6824257745
 40
0.7184604109
 40
0.7569201255
 40
0.7985200685
 40
0.8442929189
 40
0.8936141922
 40
0.9458306381
 40
1.0
 40
1.0
 40
1.0
 40
1.0
 10
604.8490274843
 20
451.5970672556
 30
0.0
 10
604.9211111076
 20
450.6857894376
 30
0.0
 10
605.3071708067
 20
448.827951643
 30
0.0
 10
606.566712003
 20
446.2021934752
 30
0.0
 10
608.4607869193
 20
443.7963355514
 30
0.0
 10
610.9150434803
 20
441.6754130293
 30
0.0
 10
613.8700921253
 20
439.8798130521
 30
0.0
 10
617.251925452
 20
438.4633797381
 30
0.0
 10
620.9482974585
 20
437.4839668625
 30
0.0
 10
624.792190741
 20
436.9957898438
 30
0.0
 10
628.6135353603
 20
437.0280956154
 30
0.0
 10
632.2104588219
 20
437.5815231187
 30
0.0
 10
635.4300947063
 20
438.6263812347
 30
0.0
 10
638.1481795975
 20
440.1046501521
 30
0.0
 10
640.3048092621
 20
441.9591436745
 30
0.0
 10
641.863568288
 20
444.1301468882
 30
0.0
 10
642.79928547
 20
446.5568369515
 30
0.0
 10
643.1007142884
 20
449.183276778
 30
0.0
 10
642.7543304877
 20
451.9432334734
 30
0.0
 10
641.7408054476
 20
454.7775509032
 30
0.0
 10
640.0545092829
 20
457.5750765323
 30
0.0
 10
637.7185521938
 20
460.2048501512
 30
0.0
 10
634.8092266108
 20
462.51554039
 30
0.0
 10
632.5829089662
 20
463.7399960075
 30
0.0
 10
631.4081850933
 20
464.2646724357
 30
0.0
 11
604.8490274843
 21
451.5970672556
 31
0.0
 11
605.4001744427
 21
448.9106482966
 31
0.0
 11
606.6318096146
 21
446.3039851991
 31
0.0
 11
608.4943599967
 21
443.9058417623
 31
0.0
 11
610.9038104835
 21
441.7982917546
 31
0.0
 11
613.8379037704
 21
439.9962326451
 31
0.0
 11
617.2334785532
 21
438.5609878515
 31
0.0
 11
620.9363484756
 21
437.573828873
 31
0.0
 11
624.824195743
 21
437.0813946861
 31
0.0
 11
628.6626245562
 21
437.1228818248
 31
0.0
 11
632.2878110623
 21
437.6975281567
 31
0.0
 11
635.4829721729
 21
438.7573941503
 31
0.0
 11
638.1670677967
 21
440.2444514493
 31
0.0
 11
640.2666667871
 21
442.0770628518
 31
0.0
 11
641.7766880385
 21
444.201121673
 31
0.0
 11
642.6915127291
 21
446.5747817697
 31
0.0
 11
642.9943936647
 21
449.1244169008
 31
0.0
 11
642.6700116508
 21
451.8455057449
 31
0.0
 11
641.6896101312
 21
454.642777845
 31
0.0
 11
640.0207056258
 21
457.4448698855
 31
0.0
 11
637.6967283431
 21
460.081007831
 31
0.0
 11
634.7882502519
 21
462.4012043492
 31
0.0
 11
631.4081850933
 21
464.2646724357
 31
0.0
  0
SPLINE
  5
296
100
AcDbEntity
  8
02___PRT_ALL_AXES
100
AcDbSpline
 62
7
  6
CONTINUOUS
 70
0
 71
3
 72
24
 73
20
 74
18
 42
0.0000001
 43
0.0000001
 44
0.0000000001
 12
42.5772497004
 22
-11.9106247453
 32
0.0
 13
-42.5772497004
 23
11.9106247453
 33
0.0
 40
0.0
 40
0.0
 40
0.0
 40
0.0
 40
0.0701546664
 40
0.1395083279
 40
0.2059441515
 40
0.2678079135
 40
0.324169665
 40
0.3762024412
 40
0.425344725
 40
0.4733755992
 40
0.5208788292
 40
0.5698886763
 40
0.6206077005
 40
0.6742636649
 40
0.7318900004
 40
0.7944243669
 40
0.8609542935
 40
0.9300543781
 40
1.0
 40
1.0
 40
1.0
 40
1.0
 10
623.569303193
 20
434.7981983325
 30
0.0
 10
624.5649674426
 20
434.5196696973
 30
0.0
 10
626.5836675517
 20
434.0953757168
 30
0.0
 10
629.6177042032
 20
433.8579509282
 30
0.0
 10
632.5355065836
 20
434.0211066269
 30
0.0
 10
635.2125265164
 20
434.5666101402
 30
0.0
 10
637.5696609528
 20
435.4621148541
 30
0.0
 10
639.5641071378
 20
436.6800856196
 30
0.0
 10
641.1672620783
 20
438.2132806856
 30
0.0
 10
642.3156113717
 20
440.037972983
 30
0.0
 10
642.9489039841
 20
442.097466229
 30
0.0
 10
643.0383924713
 20
444.2877783582
 30
0.0
 10
642.6024499832
 20
446.5240063532
 30
0.0
 10
641.6735887731
 20
448.7392448808
 30
0.0
 10
640.2642836817
 20
450.8937206022
 30
0.0
 10
638.3853257178
 20
452.9203856902
 30
0.0
 10
636.0733202204
 20
454.7247599427
 30
0.0
 10
633.4136627045
 20
456.1998440141
 30
0.0
 10
631.4802561193
 20
456.9079827246
 30
0.0
 10
630.4875587159
 20
457.1856814097
 30
0.0
 11
623.569303193
 21
434.7981983325
 31
0.0
 11
626.604509059
 21
434.1595631959
 31
0.0
 11
629.6617499018
 21
433.9246632055
 31
0.0
 11
632.593873223
 21
434.0981084551
 31
0.0
 11
635.2711678485
 21
434.6574992485
 31
0.0
 11
637.594886646
 21
435.5573191248
 31
0.0
 11
639.549440194
 21
436.7705191163
 31
0.0
 11
641.109438342
 21
438.2827691719
 31
0.0
 11
642.233927714
 21
440.0841335678
 31
0.0
 11
642.854075192
 21
442.0906916517
 31
0.0
 11
642.9542616441
 21
444.2551888843
 31
0.0
 11
642.5395330879
 21
446.4588835801
 31
0.0
 11
641.6349276408
 21
448.6518619979
 31
0.0
 11
640.2500060384
 21
450.7903427669
 31
0.0
 11
638.3769830793
 21
452.8239782419
 31
0.0
 11
636.0618442367
 21
454.6383708411
 31
0.0
 11
633.3913877631
 21
456.1222628123
 31
0.0
 11
630.4875587159
 21
457.1856814097
 31
0.0
  0
SPLINE
  5
297
100
AcDbEntity
  8
02___PRT_ALL_AXES
100
AcDbSpline
 62
7
  6
CONTINUOUS
 70
0
 71
3
 72
23
 73
19
 74
17
 42
0.0000001
 43
0.0000001
 44
0.0000000001
 12
-41.2299691156
 22
11.5337344204
 32
0.0
 13
41.2299691156
 23
-11.5337344204
 33
0.0
 40
0.0
 40
0.0
 40
0.0
 40
0.0
 40
0.0695181104
 40
0.1403507365
 40
0.2102880139
 40
0.2771021328
 40
0.3392837822
 40
0.3989937031
 40
0.4564315392
 40
0.5108870438
 40
0.564100073
 40
0.6181475598
 40
0.6733133962
 40
0.7309310491
 40
0.7937539682
 40
0.8610271634
 40
0.9306432839
 40
1.0
 40
1.0
 40
1.0
 40
1.0
 10
630.4875587159
 20
457.1856814097
 30
0.0
 10
629.5321488682
 20
457.4529492171
 30
0.0
 10
627.5591142659
 20
457.847510261
 30
0.0
 10
624.5477201616
 20
457.9677616977
 30
0.0
 10
621.5945126055
 20
457.5894209594
 30
0.0
 10
618.8709428118
 20
456.7344040479
 30
0.0
 10
616.479896088
 20
455.4608514046
 30
0.0
 10
614.4874093023
 20
453.8257312892
 30
0.0
 10
612.9615636336
 20
451.8827680981
 30
0.0
 10
611.9741904353
 20
449.7173318007
 30
0.0
 10
611.5683242442
 20
447.4194670222
 30
0.0
 10
611.7698992261
 20
445.0839595509
 30
0.0
 10
612.5666540712
 20
442.8160775369
 30
0.0
 10
613.9183954273
 20
440.6834831669
 30
0.0
 10
615.7877982536
 20
438.7422294526
 30
0.0
 10
618.1069343348
 20
437.0629151432
 30
0.0
 10
620.7373239972
 20
435.7201291978
 30
0.0
 10
622.6161114389
 20
435.064845647
 30
0.0
 10
623.569303193
 20
434.7981983325
 30
0.0
 11
630.4875587159
 21
457.1856814097
 31
0.0
 11
627.5685566418
 21
457.7667041413
 31
0.0
 11
624.5382404679
 21
457.882932354
 31
0.0
 11
621.5692405265
 21
457.4951896337
 31
0.0
 11
618.8428230766
 21
456.6296769568
 31
0.0
 11
616.4980628228
 21
455.3690195185
 31
0.0
 11
614.5296995384
 21
453.7379244347
 31
0.0
 11
613.0208888058
 21
451.7961358023
 31
0.0
 11
612.0623439152
 21
449.6709092638
 31
0.0
 11
611.6694370664
 21
447.4268463795
 31
0.0
 11
611.8630566077
 21
445.1210360289
 31
0.0
 11
612.6337828447
 21
442.888525442
 31
0.0
 11
613.9406555902
 21
440.7963834749
 31
0.0
 11
615.7936438699
 21
438.8468903276
 31
0.0
 11
618.1174584867
 21
437.1453678362
 31
0.0
 11
620.7673258617
 21
435.7810517439
 31
0.0
 11
623.569303193
 21
434.7981983325
 31
0.0
  0
SPLINE
  5
298
100
AcDbEntity
  8
02___PRT_ALL_AXES
100
AcDbSpline
 62
7
  6
CONTINUOUS
 70
0
 71
3
 72
24
 73
20
 74
18
 42
0.0000001
 43
0.0000001
 44
0.0000000001
 12
-32.6591155684
 22
-14.0548090646
 32
0.0
 13
32.6591155684
 23
14.0548090646
 33
0.0
 40
0.0
 40
0.0
 40
0.0
 40
0.0
 40
0.0695418155
 40
0.1455813019
 40
0.2253793164
 40
0.3056415634
 40
0.3833434404
 40
0.4578126717
 40
0.5285502293
 40
0.5946636658
 40
0.6532095359
 40
0.7037755372
 40
0.7453744356
 40
0.7800687049
 40
0.8117289794
 40
0.8459570115
 40
0.8875215819
 40
0.938848783
 40
1.0
 40
1.0
 40
1.0
 40
1.0
 10
515.5239760179
 20
455.7525944631
 30
0.0
 10
514.7669179547
 20
455.4267954834
 30
0.0
 10
513.2425892946
 20
454.60114217
 30
0.0
 10
511.0811471765
 20
453.0218775464
 30
0.0
 10
509.0138091939
 20
451.1287394521
 30
0.0
 10
507.1208047275
 20
449.0365946508
 30
0.0
 10
505.4460769717
 20
446.845780061
 30
0.0
 10
504.0073032691
 20
444.627003418
 30
0.0
 10
502.8116701734
 20
442.4232425994
 30
0.0
 10
501.8853574743
 20
440.2970721676
 30
0.0
 10
501.2553230207
 20
438.3135237986
 30
0.0
 10
500.9456485774
 20
436.5468244485
 30
0.0
 10
500.9682625862
 20
435.0315551984
 30
0.0
 10
501.345292874
 20
433.7823654001
 30
0.0
 10
502.1451266666
 20
432.8442096316
 30
0.0
 10
503.3548836615
 20
432.3363842714
 30
0.0
 10
504.8803109095
 20
432.2731928099
 30
0.0
 10
506.6833300683
 20
432.6192897963
 30
0.0
 10
507.940005607
 20
433.0786218262
 30
0.0
 10
508.605720495
 20
433.3651113859
 30
0.0
 11
515.5239760179
 21
455.7525944631
 31
0.0
 11
513.3398698089
 21
454.5936220545
 31
0.0
 11
511.1481374134
 21
453.010694212
 31
0.0
 11
509.0494798777
 21
451.101393645
 31
0.0
 11
507.1312734829
 21
448.9885260089
 31
0.0
 11
505.452568191
 21
446.7943540512
 31
0.0
 11
504.0136412467
 21
444.571726359
 31
0.0
 11
502.8190453801
 21
442.3584652914
 31
0.0
 11
501.8896334791
 21
440.1993450863
 31
0.0
 11
501.2750334957
 21
438.2105489375
 31
0.0
 11
500.9891737751
 21
436.4355477333
 31
0.0
 11
501.0446670161
 21
434.9575417901
 31
0.0
 11
501.4367856384
 21
433.7879703981
 31
0.0
 11
502.1750099774
 21
432.9381585799
 31
0.0
 11
503.2837459171
 21
432.4364252649
 31
0.0
 11
504.7576686904
 21
432.3290764558
 31
0.0
 11
506.5558815166
 21
432.6402435486
 31
0.0
 11
508.605720495
 21
433.3651113859
 31
0.0
  0
SPLINE
  5
299
100
AcDbEntity
  8
02___PRT_ALL_AXES
100
AcDbSpline
 62
7
  6
CONTINUOUS
 70
0
 71
3
 72
24
 73
20
 74
18
 42
0.0000001
 43
0.0000001
 44
0.0000000001
 12
33.1914294143
 22
14.2838896546
 32
0.0
 13
-33.1914294143
 23
-14.2838896546
 33
0.0
 40
0.0
 40
0.0
 40
0.0
 40
0.0
 40
0.0639827887
 40
0.134478791
 40
0.2091449406
 40
0.2853193872
 40
0.3598940161
 40
0.432490006
 40
0.5023405324
 40
0.5688284855
 40
0.6292189809
 40
0.6830592077
 40
0.7294851684
 40
0.7704988887
 40
0.8089322693
 40
0.8487349887
 40
0.8927766816
 40
0.9430451926
 40
1.0
 40
1.0
 40
1.0
 40
1.0
 10
508.605720495
 20
433.3651113859
 30
0.0
 10
509.3136139
 20
433.6697524172
 30
0.0
 10
510.763322325
 20
434.4002137367
 30
0.0
 10
512.8977689123
 20
435.743935118
 30
0.0
 10
515.0253920231
 20
437.3557817856
 30
0.0
 10
517.0474258813
 20
439.1724667179
 30
0.0
 10
518.8917207826
 20
441.1354936429
 30
0.0
 10
520.5063249027
 20
443.1960915141
 30
0.0
 10
521.8560062564
 20
445.3257631293
 30
0.0
 10
522.8863476903
 20
447.4667763547
 30
0.0
 10
523.5492835838
 20
449.549147643
 30
0.0
 10
523.8111130671
 20
451.4788255427
 30
0.0
 10
523.6659062608
 20
453.1913970535
 30
0.0
 10
523.1184889309
 20
454.6315792202
 30
0.0
 10
522.1634210551
 20
455.7471649515
 30
0.0
 10
520.8303036237
 20
456.4483716768
 30
0.0
 10
519.2059518336
 20
456.679884254
 30
0.0
 10
517.3827757457
 20
456.4469015251
 30
0.0
 10
516.1541131744
 20
456.0237731912
 30
0.0
 10
515.5239760179
 20
455.7525944631
 30
0.0
 11
508.605720495
 21
433.3651113859
 31
0.0
 11
510.6756161491
 21
434.3950652969
 31
0.0
 11
512.8349094629
 21
435.7464994503
 31
0.0
 11
514.9871522313
 21
437.373513758
 31
0.0
 11
517.0343453728
 21
439.2134560982
 31
0.0
 11
518.8771577207
 21
441.1795519935
 31
0.0
 11
520.4904924991
 21
443.2479872879
 31
0.0
 11
521.8339799606
 21
445.3847323672
 31
0.0
 11
522.8636146469
 21
447.5554222456
 31
0.0
 11
523.508226794
 21
449.6402197054
 31
0.0
 11
523.7463649606
 21
451.5710784907
 31
0.0
 11
523.5784774862
 21
453.2402343373
 31
0.0
 11
523.0297742489
 21
454.6169247614
 31
0.0
 11
522.1197596393
 21
455.6659985959
 31
0.0
 11
520.8536655999
 21
456.3483257475
 31
0.0
 11
519.2825825892
 21
456.601953762
 31
0.0
 11
517.4773622806
 21
456.4004978171
 31
0.0
 11
515.5239760179
 21
455.7525944631
 31
0.0
  0
SPLINE
  5
29A
100
AcDbEntity
  8
02___PRT_ALL_AXES
100
AcDbSpline
 62
7
  6
CONTINUOUS
 70
0
 71
3
 72
23
 73
19
 74
17
 42
0.0000001
 43
0.0000001
 44
0.0000000001
 12
-40.3292624973
 22
-0.4487582478
 32
0.0
 13
40.3292624973
 23
0.4487582478
 33
0.0
 40
0.0
 40
0.0
 40
0.0
 40
0.0
 40
0.0684767024
 40
0.1396077392
 40
0.2123557657
 40
0.2855625237
 40
0.3579205723
 40
0.4280924815
 40
0.4948547565
 40
0.5572379651
 40
0.6148448692
 40
0.6681140854
 40
0.7184706973
 40
0.7681900274
 40
0.8197498679
 40
0.8750952611
 40
0.9352222717
 40
1.0
 40
1.0
 40
1.0
 40
1.0
 10
580.7752151968
 20
505.6031580842
 30
0.0
 10
579.8546768942
 20
505.5929149226
 30
0.0
 10
577.9766777152
 20
505.3976375509
 30
0.0
 10
575.2137044128
 20
504.6354431725
 30
0.0
 10
572.5415314333
 20
503.4349970259
 30
0.0
 10
570.0575320105
 20
501.8532480229
 30
0.0
 10
567.8468183521
 20
499.960935665
 30
0.0
 10
565.9844590345
 20
497.8384527357
 30
0.0
 10
564.5344361939
 20
495.5717590314
 30
0.0
 10
563.5489574109
 20
493.2478433273
 30
0.0
 10
563.0686697881
 20
490.9508138725
 30
0.0
 10
563.1244076579
 20
488.7610334828
 30
0.0
 10
563.7346505232
 20
486.7624184768
 30
0.0
 10
564.8867760186
 20
485.0450692954
 30
0.0
 10
566.5242617334
 20
483.6811153972
 30
0.0
 10
568.5690074419
 20
482.7064520762
 30
0.0
 10
570.9385470336
 20
482.1354818587
 30
0.0
 10
572.6230475193
 20
482.030994796
 30
0.0
 10
573.4938601887
 20
482.0406846426
 30
0.0
 11
580.7752151968
 21
505.6031580842
 31
0.0
 11
578.0271928183
 21
505.3277779696
 31
0.0
 11
575.2594213181
 21
504.5730045114
 31
0.0
 11
572.5809405098
 21
503.3753298928
 31
0.0
 11
570.0895109613
 21
501.7909140334
 31
0.0
 11
567.8739670819
 21
499.8914404013
 31
0.0
 11
566.0124965207
 21
497.7596070618
 31
0.0
 11
564.571536326
 21
495.4849765695
 31
0.0
 11
563.6049936487
 21
493.1620097657
 31
0.0
 11
563.1499612417
 21
490.8836164067
 31
0.0
 11
563.2249207896
 21
488.7364832851
 31
0.0
 11
563.8288729913
 21
486.7973897084
 31
0.0
 11
564.9425219835
 21
485.129790876
 31
0.0
 11
566.5291162133
 21
483.785530808
 31
0.0
 11
568.5344587
 21
482.8051145807
 31
0.0
 11
570.8872631894
 21
482.2176859641
 31
0.0
 11
573.4938601887
 21
482.0406846426
 31
0.0
  0
SPLINE
  5
29B
100
AcDbEntity
  8
02___PRT_ALL_AXES
100
AcDbSpline
 62
7
  6
CONTINUOUS
 70
0
 71
3
 72
24
 73
20
 74
18
 42
0.0000001
 43
0.0000001
 44
0.0000000001
 12
41.1556124272
 22
0.4579533415
 32
0.0
 13
-41.1556124272
 23
-0.4579533415
 33
0.0
 40
0.0
 40
0.0
 40
0.0
 40
0.0
 40
0.054508261
 40
0.113044211
 40
0.1736108517
 40
0.2343770654
 40
0.2941002644
 40
0.3532085074
 40
0.413427658
 40
0.4758295091
 40
0.537505492
 40
0.5954734564
 40
0.650667148
 40
0.7047010568
 40
0.7588903447
 40
0.8142982954
 40
0.8727960805
 40
0.9345190888
 40
1.0
 40
1.0
 40
1.0
 40
1.0
 10
573.4938601887
 20
482.0406846426
 30
0.0
 10
574.2416338094
 20
482.0490053894
 30
0.0
 10
575.7925563409
 20
482.1642371765
 30
0.0
 10
578.1364576346
 20
482.6144013404
 30
0.0
 10
580.4971485505
 20
483.3511515822
 30
0.0
 10
582.7753049649
 20
484.3543876009
 30
0.0
 10
584.9068068962
 20
485.6016100054
 30
0.0
 10
586.866521543
 20
487.0935395846
 30
0.0
 10
588.6342799924
 20
488.8641101973
 30
0.0
 10
590.1199244781
 20
490.9263420889
 30
0.0
 10
591.1724834146
 20
493.211599399
 30
0.0
 10
591.6754456494
 20
495.5793606266
 30
0.0
 10
591.5933380967
 20
497.8963367818
 30
0.0
 10
590.9312937161
 20
500.0658708779
 30
0.0
 10
589.7206772621
 20
501.9873501425
 30
0.0
 10
588.0161685806
 20
503.576311951
 30
0.0
 10
585.8903576659
 20
504.7573433258
 30
0.0
 10
583.4261148712
 20
505.4742535941
 30
0.0
 10
581.6735175305
 20
505.6131538182
 30
0.0
 10
580.7752151968
 20
505.6031580842
 30
0.0
 11
573.4938601887
 21
482.0406846426
 31
0.0
 11
575.7315494127
 21
482.201490553
 31
0.0
 11
578.0982135501
 21
482.6523782784
 31
0.0
 11
580.4781453307
 21
483.3940210023
 31
0.0
 11
582.7665353075
 21
484.4031791545
 31
0.0
 11
584.8863952443
 21
485.6475403105
 31
0.0
 11
586.8187124383
 21
487.1255797512
 31
0.0
 11
588.5637698301
 21
488.8856319653
 31
0.0
 11
590.0542432539
 21
490.9772550237
 31
0.0
 11
591.1015587105
 21
493.2896045233
 31
0.0
 11
591.583420423
 21
495.6262928326
 31
0.0
 11
591.4934757638
 21
497.8961823035
 31
0.0
 11
590.8416222323
 21
500.0224418206
 31
0.0
 11
589.656234048
 21
501.9116831998
 31
0.0
 11
587.9945692512
 21
503.4735735972
 31
0.0
 11
585.8962094827
 21
504.6541322806
 31
0.0
 11
583.4607686347
 21
505.3768271124
 31
0.0
 11
580.7752151968
 21
505.6031580842
 31
0.0
  0
SPLINE
  5
29C
100
AcDbEntity
  8
02___PRT_ALL_AXES
100
AcDbSpline
 62
7
  6
CONTINUOUS
 70
0
 71
3
 72
24
 73
20
 74
18
 42
0.0000001
 43
0.0000001
 44
0.0000000001
 12
-8.6928783327
 22
108.0014303596
 32
0.0
 13
-54.0782828909
 23
-93.890438347
 33
0.0
 40
0.0
 40
0.0
 40
0.0
 40
0.0
 40
0.0531850706
 40
0.106133272
 40
0.1589555754
 40
0.2119810513
 40
0.2651415383
 40
0.3191019195
 40
0.3741691517
 40
0.4303999375
 40
0.4873739693
 40
0.5472418748
 40
0.6093606142
 40
0.673611543
 40
0.7394380164
 40
0.8064703754
 40
0.8732114757
 40
0.9383277308
 40
1.0
 40
1.0
 40
1.0
 40
1.0
 10
606.8759247424
 20
447.466684911
 30
0.0
 10
606.721814293
 20
449.3813728114
 30
0.0
 10
606.0348400861
 20
453.1816180215
 30
0.0
 10
603.9531759944
 20
458.5654339093
 30
0.0
 10
600.9385014277
 20
463.4804104157
 30
0.0
 10
597.1090230499
 20
467.798538624
 30
0.0
 10
592.5671585673
 20
471.424845996
 30
0.0
 10
587.4125356634
 20
474.2663129465
 30
0.0
 10
581.7471802316
 20
476.2333876101
 30
0.0
 10
575.7259221234
 20
477.2441482124
 30
0.0
 10
569.4490558929
 20
477.2682057302
 30
0.0
 10
563.0353351863
 20
476.2825345488
 30
0.0
 10
556.5899980426
 20
474.2789506074
 30
0.0
 10
550.2911081738
 20
471.3132963345
 30
0.0
 10
544.2737839568
 20
467.475956472
 30
0.0
 10
538.6800220758
 20
462.9042282198
 30
0.0
 10
533.6357039053
 20
457.7711585058
 30
0.0
 10
529.2657743141
 20
452.3015319279
 30
0.0
 10
526.7719384798
 20
448.4502279661
 30
0.0
 10
525.6602283404
 20
446.5200825042
 30
0.0
 11
606.8759247424
 21
447.466684911
 31
0.0
 11
605.8567878514
 21
453.1384904504
 31
0.0
 11
603.7954438775
 21
458.4923434658
 31
0.0
 11
600.8079481793
 21
463.3740868915
 31
0.0
 11
596.99901862
 21
467.6753745146
 31
0.0
 11
592.4995909417
 21
471.2715497676
 31
0.0
 11
587.3809464782
 21
474.0969240979
 31
0.0
 11
581.7461709446
 21
476.0588880713
 31
0.0
 11
575.7389895743
 21
477.0757941093
 31
0.0
 11
569.5659130904
 21
477.1109283367
 31
0.0
 11
563.1521583019
 21
476.1406644521
 31
0.0
 11
556.7198186623
 21
474.1592239674
 31
0.0
 11
550.4140063811
 21
471.2094662312
 31
0.0
 11
544.3922283117
 21
467.3873554984
 31
0.0
 11
538.7612900465
 21
462.8000086438
 31
0.0
 11
533.6884825904
 21
457.6463279697
 31
0.0
 11
529.285356483
 21
452.1335212357
 31
0.0
 11
525.6602283404
 21
446.5200825042
 31
0.0
  0
SPLINE
  5
29D
100
AcDbEntity
  8
02___PRT_ALL_AXES
100
AcDbSpline
 62
7
  6
CONTINUOUS
 70
0
 71
3
 72
29
 73
25
 74
23
 42
0.0000001
 43
0.0000001
 44
0.0000000001
 12
65.2720264672
 22
-29.9792472247
 32
0.0
 13
-5.7626565658
 23
71.5959809807
 33
0.0
 40
0.0
 40
0.0
 40
0.0
 40
0.0
 40
0.0548184161
 40
0.1076461174
 40
0.1574766278
 40
0.2035287715
 40
0.2451290964
 40
0.2833133921
 40
0.3188524769
 40
0.3539056569
 40
0.3897484672
 40
0.4280978062
 40
0.4705555496
 40
0.5174509078
 40
0.5689385342
 40
0.6230347478
 40
0.6783893888
 40
0.7325517861
 40
0.7846077545
 40
0.8331661744
 40
0.8782840498
 40
0.9210844457
 40
0.9615916444
 40
1.0
 40
1.0
 40
1.0
 40
1.0
 10
633.561778071
 20
459.8761113596
 30
0.0
 10
634.7544811064
 20
459.32830641
 30
0.0
 10
637.0121766361
 20
458.0559772453
 30
0.0
 10
639.9569183189
 20
455.6741420389
 30
0.0
 10
642.3160960884
 20
452.9828031984
 30
0.0
 10
644.0151395384
 20
450.1407877351
 30
0.0
 10
645.0353703572
 20
447.2836521135
 30
0.0
 10
645.3886570122
 20
444.5212026762
 30
0.0
 10
645.0984613735
 20
441.9066550847
 30
0.0
 10
644.1776681753
 20
439.4998572788
 30
0.0
 10
642.6339893379
 20
437.3542132954
 30
0.0
 10
640.4880992459
 20
435.5287049497
 30
0.0
 10
637.7708481701
 20
434.082409194
 30
0.0
 10
634.5357794172
 20
433.0729602024
 30
0.0
 10
630.9068101888
 20
432.5602827143
 30
0.0
 10
627.0413917174
 20
432.5745568863
 30
0.0
 10
623.149693886
 20
433.1129422354
 30
0.0
 10
619.4090724085
 20
434.1425836022
 30
0.0
 10
615.9907730819
 20
435.6051611326
 30
0.0
 10
613.0068753087
 20
437.4404734381
 30
0.0
 10
610.5285617289
 20
439.5952818796
 30
0.0
 10
608.6151907509
 20
442.0298484094
 30
0.0
 10
607.3418747045
 20
444.6787473063
 30
0.0
 10
606.9497027966
 20
446.5500569453
 30
0.0
 10
606.8759247424
 20
447.466684911
 30
0.0
 11
633.561778071
 21
459.8761113596
 31
0.0
 11
636.9904539221
 21
457.9401725563
 31
0.0
 11
639.9358867091
 21
455.5479925058
 31
0.0
 11
642.2852409398
 21
452.8477662654
 31
0.0
 11
643.9673095619
 21
449.999563198
 31
0.0
 11
644.9536549909
 21
447.1790039173
 31
0.0
 11
645.2834125123
 21
444.456216455
 31
0.0
 11
644.9901108487
 21
441.920438173
 31
0.0
 11
644.0895378917
 21
439.5692258023
 31
0.0
 11
642.5955446526
 21
437.4725533296
 31
0.0
 11
640.5112256168
 21
435.6716942652
 31
0.0
 11
637.831142218
 21
434.2165574391
 31
0.0
 11
634.62270771
 21
433.1909290198
 31
0.0
 11
630.9634148898
 21
432.6556997403
 31
0.0
 11
627.0778204356
 21
432.6600549575
 31
0.0
 11
623.1390927041
 21
433.2030958391
 31
0.0
 11
619.3897449631
 21
434.2409879786
 31
0.0
 11
615.9568941701
 21
435.722891779
 31
0.0
 11
612.9947243285
 21
437.5642266716
 31
0.0
 11
610.561971606
 21
439.705227352
 31
0.0
 11
608.678598455
 21
442.1350207505
 31
0.0
 11
607.4341061395
 21
444.764966238
 31
0.0
 11
606.8759247424
 21
447.466684911
 31
0.0
  0
SPLINE
  5
29E
100
AcDbEntity
  8
02___PRT_ALL_AXES
100
AcDbSpline
 62
7
  6
CONTINUOUS
 70
0
 71
3
 72
17
 73
13
 74
11
 42
0.0000001
 43
0.0000001
 44
0.0000000001
 12
7.1680369706
 22
-55.008560722
 32
0.0
 13
50.4106999869
 23
-23.1534842638
 33
0.0
 40
0.0
 40
0.0
 40
0.0
 40
0.0
 40
0.0893044512
 40
0.1787983934
 40
0.2694530786
 40
0.3621922627
 40
0.4578194844
 40
0.557000778
 40
0.6603142201
 40
0.7682678256
 40
0.8813379921
 40
1.0
 40
1.0
 40
1.0
 40
1.0
 10
597.3793896669
 20
498.7598302872
 30
0.0
 10
597.5927688695
 20
497.1223271784
 30
0.0
 10
598.2507277653
 20
493.8690794619
 30
0.0
 10
599.9180281926
 20
489.1576532946
 30
0.0
 10
602.2360319668
 20
484.6589213592
 30
0.0
 10
605.1669707748
 20
480.3975924666
 30
0.0
 10
608.6696719975
 20
476.3833893144
 30
0.0
 10
612.7049630716
 20
472.6153343472
 30
0.0
 10
617.2397775023
 20
469.0845968265
 30
0.0
 10
622.2495294608
 20
465.7778083393
 30
0.0
 10
627.7183240912
 20
462.6799359542
 30
0.0
 10
631.5678331108
 20
460.7919243372
 30
0.0
 10
633.561778071
 20
459.8761113596
 30
0.0
 11
597.3793896669
 21
498.7598302872
 31
0.0
 11
598.361891891
 21
493.9041930046
 31
0.0
 11
600.0133953389
 21
489.2223854238
 31
0.0
 11
602.3083986247
 21
484.7476526827
 31
0.0
 11
605.2131998994
 21
480.5016174797
 31
0.0
 11
608.6899569765
 21
476.4950057483
 31
0.0
 11
612.7010885451
 21
472.7290760448
 31
0.0
 11
617.2143758849
 21
469.1968594522
 31
0.0
 11
622.204952951
 21
465.8866935338
 31
0.0
 11
627.6565629582
 21
462.7845823837
 31
0.0
 11
633.561778071
 21
459.8761113596
 31
0.0
  0
SPLINE
  5
29F
100
AcDbEntity
  8
02___PRT_ALL_AXES
100
AcDbSpline
 62
7
  6
CONTINUOUS
 70
0
 71
3
 72
24
 73
20
 74
18
 42
0.0000001
 43
0.0000001
 44
0.0000000001
 12
25.835118732
 22
37.9334545404
 32
0.0
 13
5.9304027355
 23
-45.5107751709
 33
0.0
 40
0.0
 40
0.0
 40
0.0
 40
0.0
 40
0.0692811093
 40
0.1414221879
 40
0.214656835
 40
0.287147543
 40
0.3581485972
 40
0.4278677687
 40
0.4950025881
 40
0.5536765842
 40
0.6042062366
 40
0.6557819972
 40
0.7066537827
 40
0.7553618769
 40
0.802441876
 40
0.8491957727
 40
0.8966914099
 40
0.9464526193
 40
1.0
 40
1.0
 40
1.0
 40
1.0
 10
561.2068469297
 20
498.3478808641
 30
0.0
 10
561.8034754916
 20
499.2239048013
 30
0.0
 10
563.1339992252
 20
500.9376298198
 30
0.0
 10
565.4399594244
 20
503.2853860353
 30
0.0
 10
568.0378682807
 20
505.3853380179
 30
0.0
 10
570.8452586365
 20
507.1633158486
 30
0.0
 10
573.7941635256
 20
508.5756354917
 30
0.0
 10
576.8174906939
 20
509.5883966222
 30
0.0
 10
579.7624342833
 20
510.1626926851
 30
0.0
 10
582.4628342644
 20
510.3258095533
 30
0.0
 10
584.9231333736
 20
510.1642157675
 30
0.0
 10
587.2267726289
 20
509.7126414449
 30
0.0
 10
589.4194447632
 20
508.9527728223
 30
0.0
 10
591.4154640024
 20
507.9096321462
 30
0.0
 10
593.1781034085
 20
506.6107073514
 30
0.0
 10
594.6981961664
 20
505.0594969476
 30
0.0
 10
595.958400716
 20
503.238506197
 30
0.0
 10
596.9126565422
 20
501.123933629
 30
0.0
 10
597.2735371559
 20
499.5721578889
 30
0.0
 10
597.3793896669
 20
498.7598302872
 30
0.0
 11
561.2068469297
 21
498.3478808641
 31
0.0
 11
563.1523808498
 21
500.8629057108
 31
0.0
 11
565.470518371
 21
503.2269386764
 31
0.0
 11
568.0846217037
 21
505.3396973442
 31
0.0
 11
570.8966836612
 21
507.1176839743
 31
0.0
 11
573.8374870577
 21
508.5213772365
 31
0.0
 11
576.8734128916
 21
509.5322515398
 31
0.0
 11
579.8989033068
 21
510.1154590121
 31
0.0
 11
582.5871950297
 21
510.2724973918
 31
0.0
 11
584.9010335982
 21
510.1165845125
 31
0.0
 11
587.2230238709
 21
509.6566818067
 31
0.0
 11
589.4275403385
 21
508.887694289
 31
0.0
 11
591.4068083694
 21
507.8485179629
 31
0.0
 11
593.1441026021
 21
506.5637220545
 31
0.0
 11
594.6437187832
 21
505.0289294442
 31
0.0
 11
595.8823749219
 21
503.2352115908
 31
0.0
 11
596.8207578722
 21
501.1530829894
 31
0.0
 11
597.3793896669
 21
498.7598302872
 31
0.0
  0
SPLINE
  5
2A0
100
AcDbEntity
  8
02___PRT_ALL_AXES
100
AcDbSpline
 62
7
  6
CONTINUOUS
 70
0
 71
3
 72
17
 73
13
 74
11
 42
0.0000001
 43
0.0000001
 44
0.0000000001
 12
52.184379525
 22
32.4287343891
 32
0.0
 13
34.585083976
 23
50.7809437374
 33
0.0
 40
0.0
 40
0.0
 40
0.0
 40
0.0
 40
0.0773588425
 40
0.1603694654
 40
0.2468420741
 40
0.3341341244
 40
0.4229513228
 40
0.5216673441
 40
0.6356757969
 40
0.7585636899
 40
0.882539342
 40
1.0
 40
1.0
 40
1.0
 40
1.0
 10
515.0976135418
 20
458.3976317432
 30
0.0
 10
516.4432546066
 20
459.2338481948
 30
0.0
 10
519.2231280491
 20
460.9831078948
 30
0.0
 10
523.4613118794
 20
463.7392387211
 30
0.0
 10
527.8144503224
 20
466.6902697551
 30
0.0
 10
532.1952431067
 20
469.8101647399
 30
0.0
 10
536.6905891441
 20
473.1982971939
 30
0.0
 10
541.4985448591
 20
477.0761757149
 30
0.0
 10
546.6607228569
 20
481.6184459557
 30
0.0
 10
551.9312685308
 20
486.8065549485
 30
0.0
 10
556.8795551502
 20
492.3998154904
 30
0.0
 10
559.8527180231
 20
496.3596265095
 30
0.0
 10
561.2068469297
 20
498.3478808641
 30
0.0
 11
515.0976135418
 21
458.3976317432
 31
0.0
 11
519.1190181143
 21
460.93108309
 31
0.0
 11
523.3930681021
 21
463.7138826318
 31
0.0
 11
527.7889578403
 21
466.6975896052
 31
0.0
 11
532.1556744363
 21
469.8113716081
 31
0.0
 11
536.5113204023
 21
473.0986338086
 31
0.0
 11
541.228912878
 21
476.9103927703
 31
0.0
 11
546.481548907
 21
481.5444849528
 31
0.0
 11
551.8528057963
 21
486.8506116861
 31
0.0
 11
556.8873453446
 21
492.5665929173
 31
0.0
 11
561.2068469297
 21
498.3478808641
 31
0.0
  0
SPLINE
  5
2A1
100
AcDbEntity
  8
02___PRT_ALL_AXES
100
AcDbSpline
 62
7
  6
CONTINUOUS
 70
0
 71
3
 72
31
 73
27
 74
25
 42
0.0000001
 43
0.0000001
 44
0.0000000001
 12
-31.2889644592
 22
-54.3237401681
 32
0.0
 13
53.2465812497
 23
33.0888142428
 33
0.0
 40
0.0
 40
0.0
 40
0.0
 40
0.0
 40
0.0426502719
 40
0.08665844
 40
0.1313786549
 40
0.175912496
 40
0.2192727255
 40
0.2600415022
 40
0.2993821375
 40
0.3390203675
 40
0.3793116016
 40
0.417486852
 40
0.4500113714
 40
0.4767723786
 40
0.5001715776
 40
0.5246384458
 40
0.5527314662
 40
0.5858636853
 40
0.6242360952
 40
0.6673430459
 40
0.7158907676
 40
0.7690421925
 40
0.8264236777
 40
0.8855416803
 40
0.9440935681
 40
1.0
 40
1.0
 40
1.0
 40
1.0
 10
525.6602283404
 20
446.5200825042
 30
0.0
 10
525.215400727
 20
445.7477750755
 30
0.0
 10
524.2284752049
 20
444.2254250402
 30
0.0
 10
522.5320153912
 20
442.0630321786
 30
0.0
 10
520.6400191944
 20
440.0158374211
 30
0.0
 10
518.611697476
 20
438.1241161461
 30
0.0
 10
516.5207730202
 20
436.4305522766
 30
0.0
 10
514.4099032217
 20
434.9436203864
 30
0.0
 10
512.2695209607
 20
433.6433972289
 30
0.0
 10
510.0452345448
 20
432.512692271
 30
0.0
 10
507.7451894578
 20
431.6047771418
 30
0.0
 10
505.4853986663
 20
431.039858383
 30
0.0
 10
503.4333893359
 20
430.9369554491
 30
0.0
 10
501.7179784432
 20
431.4016015168
 30
0.0
 10
500.5263557385
 20
432.5033351176
 30
0.0
 10
499.9635313469
 20
434.0323198059
 30
0.0
 10
499.879470448
 20
435.8363282416
 30
0.0
 10
500.1879049991
 20
437.9037230536
 30
0.0
 10
500.8594923205
 20
440.2080461083
 30
0.0
 10
501.8831923916
 20
442.7290760572
 30
0.0
 10
503.2597549254
 20
445.4276095926
 30
0.0
 10
505.0030459776
 20
448.2621775094
 30
0.0
 10
507.0999455464
 20
451.125781606
 30
0.0
 10
509.5145476203
 20
453.8809173828
 30
0.0
 10
512.1695327186
 20
456.3615296157
 30
0.0
 10
514.1053380864
 20
457.7810058969
 30
0.0
 10
515.0976135418
 20
458.3976317432
 30
0.0
 11
525.6602283404
 21
446.5200825042
 31
0.0
 11
524.2119481849
 21
444.2725376387
 31
0.0
 11
522.5131660596
 21
442.098698588
 31
0.0
 11
520.6127849831
 21
440.0375616533
 31
0.0
 11
518.5721691485
 21
438.1322413187
 31
0.0
 11
516.4597731439
 21
436.4214691553
 31
0.0
 11
514.3693488329
 21
434.9510048092
 31
0.0
 11
512.2596522464
 21
433.673628605
 31
0.0
 11
510.0411860558
 21
432.5541249082
 31
0.0
 11
507.685661464
 21
431.6422522857
 31
0.0
 11
505.3560312565
 21
431.0942497603
 31
0.0
 11
503.3175415072
 21
431.0499794573
 31
0.0
 11
501.7164599529
 21
431.551040341
 31
0.0
 11
500.6412972563
 21
432.5489511072
 31
0.0
 11
500.0636178299
 21
433.9698430237
 31
0.0
 11
499.9369778042
 21
435.7264425644
 31
0.0
 11
500.2140930033
 21
437.7849409377
 31
0.0
 11
500.8681323673
 21
440.0998986376
 31
0.0
 11
501.8734703162
 21
442.6083212842
 31
0.0
 11
503.2496478649
 21
445.3228818679
 31
0.0
 11
504.9925123747
 21
448.1628037397
 31
0.0
 11
507.1189997883
 21
451.0642396319
 31
0.0
 11
509.5669706881
 21
453.8468253959
 31
0.0
 11
512.2584296098
 21
456.3427408158
 31
0.0
 11
515.0976135418
 21
458.3976317432
 31
0.0
  0
ENDSEC
  0
SECTION
  2
OBJECTS
  0
DICTIONARY
  5
C
100
AcDbDictionary
280
0
281
1
  3
ACAD_GROUP
350
D
  3
ACAD_MLINESTYLE
350
17
  3
ACAD_LAYOUT
350
1A
  3
ACAD_PLOTSETTINGS
350
19
  3
ACAD_PLOTSTYLENAME
350
E
  0
DICTIONARY
  5
D
102
{ACAD_REACTORS
330
C
102
}
100
AcDbDictionary
280
0
281
1
  0
ACDBDICTIONARYWDFLT
  5
E
102
{ACAD_REACTORS
330
C
102
}
100
AcDbDictionary
281
1
  3
Normal
350
F
100
AcDbDictionaryWithDefault
340
F
  0
DICTIONARY
  5
17
102
{ACAD_REACTORS
330
C
102
}
100
AcDbDictionary
280
0
281
1
  3
Standard
350
18
  0
DICTIONARY
  5
19
102
{ACAD_REACTORS
330
C
102
}
100
AcDbDictionary
281
1
  0
DICTIONARY
  5
1A
102
{ACAD_REACTORS
330
C
102
}
100
AcDbDictionary
281
1
  3
Model
350
2A2
  3
Layout1
350
2A3
  0
ACDBPLACEHOLDER
  5
F
102
{ACAD_REACTORS
330
E
102
}
  0
MLINESTYLE
  5
18
102
{ACAD_REACTORS
330
17
102
}
100
AcDbMlineStyle
  2
STANDARD
 70
0
  3

 62
256
 51
90.0
 52
90.0
 71
2
 49
0.5
 62
256
  6
BYLAYER
 49
-0.5
 62
256
  6
BYLAYER
  0
LAYOUT
  5
2A2
102
{ACAD_REACTORS
330
1A
102
}
100
AcDbPlotSettings
  1

  2
none_device
  4
ISO_A1_(594.00_x_841.00_MM)
  6

 40
0.0
 41
0.0
 42
0.0
 43
0.0
 44
841.0
 45
594.0
 46
0.0
 47
0.0
 48
0.0
 49
0.0
140
0.0
141
0.0
142
1.0
143
1.0
 70
1024
 72
1
 73
0
 74
0
  7

 75
0
147
1.0
148
0.0
149
0.0
100
AcDbLayout
  1
Model
 70
0
 71
0
 10
0.0
 20
0.0
 11
841.0
 21
594.0
 12
0.0
 22
0.0
 32
0.0
 14
0.0
 24
0.0
 34
0.0
 15
0.0
 25
0.0
 35
0.0
146
0.0
 13
0.0
 23
0.0
 33
0.0
 16
1.0
 26
0.0
 36
0.0
 17
0.0
 27
1.0
 37
0.0
 76
0
330
207
345
0
346
0
  0
LAYOUT
  5
2A3
102
{ACAD_REACTORS
330
1A
102
}
100
AcDbPlotSettings
  1

  2
none_device
  4
ISO_A1_(594.00_x_841.00_MM)
  6

 40
0.0
 41
0.0
 42
0.0
 43
0.0
 44
841.0
 45
594.0
 46
0.0
 47
0.0
 48
0.0
 49
0.0
140
0.0
141
0.0
142
1.0
143
1.0
 70
0
 72
1
 73
0
 74
0
  7

 75
0
147
1.0
148
0.0
149
0.0
100
AcDbLayout
  1
Layout1
 70
0
 71
1
 10
0.0
 20
0.0
 11
841.0
 21
594.0
 12
0.0
 22
0.0
 32
0.0
 14
0.0
 24
0.0
 34
0.0
 15
0.0
 25
0.0
 35
0.0
146
0.0
 13
0.0
 23
0.0
 33
0.0
 16
1.0
 26
0.0
 36
0.0
 17
0.0
 27
1.0
 37
0.0
 76
0
330
208
345
0
346
0
  0
ENDSEC
  0
EOF
