  0
SECTION
  2
HEADER
  9
$ACADVER
  1
AC1006
  9
$EXTMIN
 10
-2.804236
 20
-2.343157
  9
$EXTMAX
 10
2.451524
 20
2.698472
  9
$LTSCALE
 40
0.000394
  9
$PDMODE
 70
    35
  9
$PDSIZE
 40
0.000315
  0
ENDSEC
  0
SECTION
  2
TABLES
  0
TABLE
  2
LTYPE
 70
     9
  0
LTYPE
  2
CONTINUOUS
 70
    64
  3
Solid line
 72
    65
 73
     0
 40
0.000000
  0
LTYPE
  2
DASHED
 70
    64
  3
__ __ __ __ __ __ __ __ __ __ __ __ __ __ __
 72
    65
 73
     2
 40
0.000003
 49
0.000002
 49
-0.000001
  0
LTYPE
  2
HIDDEN
 70
    64
  3
 _ _ _ _ _ _ _ _ _ _ _ _ _ _ _ _ _ _ _ _ _ _
 72
    65
 73
     2
 40
0.000001
 49
0.000001
 49
-0.000000
  0
LTYPE
  2
CENTER
 70
    64
  3
____ _ ____ _ ____ _ ____ _ ____ _ ____ _ ____
 72
    65
 73
     4
 40
0.000008
 49
0.000005
 49
-0.000001
 49
0.000001
 49
-0.000001
  0
LTYPE
  2
PHANTOM
 70
    64
  3
_____ _ _ _____ _ _ _____ _ _ _____ _ _ ____
 72
    65
 73
     6
 40
0.000010
 49
0.000005
 49
-0.000001
 49
0.000001
 49
-0.000001
 49
0.000001
 49
-0.000001
  0
LTYPE
  2
DOT
 70
    64
  3
...............................................
 72
    65
 73
     2
 40
0.000001
 49
0.000000
 49
-0.000001
  0
LTYPE
  2
DASHDOT
 70
    64
  3
__ . __ . __ . __ . __ . __ . __ . __ . __ . __
 72
    65
 73
     4
 40
0.000004
 49
0.000002
 49
-0.000001
 49
0.000000
 49
-0.000001
  0
LTYPE
  2
BORDER
 70
    64
  3
__ __ . __ __ . __ __ . __ __ . __ __ . __ __
 72
    65
 73
     6
 40
0.000007
 49
0.000002
 49
-0.000001
 49
0.000002
 49
-0.000001
 49
0.000000
 49
-0.000001
  0
LTYPE
  2
DIVIDE
 70
    64
  3
__ . . __ . . __ . . __ . . __ . . __ . . __
 72
    65
 73
     6
 40
0.000005
 49
0.000002
 49
-0.000001
 49
0.000000
 49
-0.000001
 49
0.000000
 49
-0.000001
  0
LTYPE
  2
DOTDOT
 70
    64
  3
 . .  . .  . .  . .  . .  . . 
 72
    65
 73
     5
 40
0.000002
 49
-0.000001
 49
0.000000
 49
-0.000001
 49
0.000000
 49
-0.000001
  0
ENDTAB
  0
TABLE
  2
STYLE
 70
     0
  0
ENDTAB
  0
TABLE
  2
LAYER
 70
     4
  0
LAYER
  2
FOREGROUND
 70
    64
 62
     7
  6
CONTINUOUS
  0
LAYER
  2
BACKGROUND
 70
    65
 62
    -7
  6
CONTINUOUS
  0
LAYER
  2
LAYER_1
 70
    64
 62
     7
  6
CONTINUOUS
  0
LAYER
  2
LAYER_1
 70
    64
 62
     7
  6
CONTINUOUS
  0
ENDTAB
  0
ENDSEC
  0
SECTION
  2
ENTITIES
  0
POLYLINE
  8
LAYER_1
 62
     7
  6
CONTINUOUS
 66
     1
 40
0.003000
 41
0.003000
  0
VERTEX
  8
LAYER_1
 62
     7
  6
CONTINUOUS
 10
-0.176685
 20
-1.782795
  0
VERTEX
  8
LAYER_1
 62
     7
  6
CONTINUOUS
 10
-0.008189
 20
-1.583917
  0
VERTEX
  8
LAYER_1
 62
     7
  6
CONTINUOUS
 10
-0.216161
 20
-1.575524
  0
VERTEX
  8
LAYER_1
 62
     7
  6
CONTINUOUS
 10
-0.338047
 20
-1.576602
  0
VERTEX
  8
LAYER_1
 62
     7
  6
CONTINUOUS
 10
-0.463996
 20
-1.582768
  0
VERTEX
  8
LAYER_1
 62
     7
  6
CONTINUOUS
 10
-0.592673
 20
-1.588106
  0
VERTEX
  8
LAYER_1
 62
     7
  6
CONTINUOUS
 10
-0.723146
 20
-1.593496
  0
VERTEX
  8
LAYER_1
 62
     7
  6
CONTINUOUS
 10
-0.857197
 20
-1.599886
  0
VERTEX
  8
LAYER_1
 62
     7
  6
CONTINUOUS
 10
-0.991224
 20
-1.607169
  0
VERTEX
  8
LAYER_1
 62
     7
  6
CONTINUOUS
 10
-1.081142
 20
-1.613248
  0
VERTEX
  8
LAYER_1
 62
     7
  6
CONTINUOUS
 10
-1.171059
 20
-1.619323
  0
VERTEX
  8
LAYER_1
 62
     7
  6
CONTINUOUS
 10
-1.260953
 20
-1.626295
  0
VERTEX
  8
LAYER_1
 62
     7
  6
CONTINUOUS
 10
-1.350795
 20
-1.635075
  0
VERTEX
  8
LAYER_1
 62
     7
  6
CONTINUOUS
 10
-1.438843
 20
-1.643799
  0
VERTEX
  8
LAYER_1
 62
     7
  6
CONTINUOUS
 10
-1.526835
 20
-1.654327
  0
VERTEX
  8
LAYER_1
 62
     7
  6
CONTINUOUS
 10
-1.613878
 20
-1.666630
  0
VERTEX
  8
LAYER_1
 62
     7
  6
CONTINUOUS
 10
-1.700000
 20
-1.679807
  0
VERTEX
  8
LAYER_1
 62
     7
  6
CONTINUOUS
 10
-1.783366
 20
-1.694709
  0
VERTEX
  8
LAYER_1
 62
     7
  6
CONTINUOUS
 10
-1.865811
 20
-1.710488
  0
VERTEX
  8
LAYER_1
 62
     7
  6
CONTINUOUS
 10
-1.946382
 20
-1.728917
  0
VERTEX
  8
LAYER_1
 62
     7
  6
CONTINUOUS
 10
-2.025102
 20
-1.749098
  0
VERTEX
  8
LAYER_1
 62
     7
  6
CONTINUOUS
 10
-2.101047
 20
-1.771906
  0
VERTEX
  8
LAYER_1
 62
     7
  6
CONTINUOUS
 10
-2.129630
 20
-1.780799
  0
VERTEX
  8
LAYER_1
 62
     7
  6
CONTINUOUS
 10
-2.161689
 20
-1.794295
  0
VERTEX
  8
LAYER_1
 62
     7
  6
CONTINUOUS
 10
-2.195425
 20
-1.812339
  0
VERTEX
  8
LAYER_1
 62
     7
  6
CONTINUOUS
 10
-2.227189
 20
-1.836630
  0
VERTEX
  8
LAYER_1
 62
     7
  6
CONTINUOUS
 10
-2.256929
 20
-1.868980
  0
VERTEX
  8
LAYER_1
 62
     7
  6
CONTINUOUS
 10
-2.280142
 20
-1.909256
  0
VERTEX
  8
LAYER_1
 62
     7
  6
CONTINUOUS
 10
-2.295008
 20
-1.958311
  0
VERTEX
  8
LAYER_1
 62
     7
  6
CONTINUOUS
 10
-2.298780
 20
-2.017870
  0
VERTEX
  8
LAYER_1
 62
     7
  6
CONTINUOUS
 10
-2.291217
 20
-2.063606
  0
VERTEX
  8
LAYER_1
 62
     7
  6
CONTINUOUS
 10
-2.276673
 20
-2.101039
  0
VERTEX
  8
LAYER_1
 62
     7
  6
CONTINUOUS
 10
-2.250551
 20
-2.133654
  0
VERTEX
  8
LAYER_1
 62
     7
  6
CONTINUOUS
 10
-2.210276
 20
-2.156870
  0
VERTEX
  8
LAYER_1
 62
     7
  6
CONTINUOUS
 10
-2.163169
 20
-2.166386
  0
VERTEX
  8
LAYER_1
 62
     7
  6
CONTINUOUS
 10
-2.113008
 20
-2.155996
  0
VERTEX
  8
LAYER_1
 62
     7
  6
CONTINUOUS
 10
-2.061764
 20
-2.119457
  0
VERTEX
  8
LAYER_1
 62
     7
  6
CONTINUOUS
 10
-2.046626
 20
-2.080303
  0
VERTEX
  8
LAYER_1
 62
     7
  6
CONTINUOUS
 10
-2.050441
 20
-2.039870
  0
VERTEX
  8
LAYER_1
 62
     7
  6
CONTINUOUS
 10
-2.070134
 20
-2.011587
  0
VERTEX
  8
LAYER_1
 62
     7
  6
CONTINUOUS
 10
-2.118138
 20
-2.002094
  0
VERTEX
  8
LAYER_1
 62
     7
  6
CONTINUOUS
 10
-2.151925
 20
-2.018335
  0
VERTEX
  8
LAYER_1
 62
     7
  6
CONTINUOUS
 10
-2.164783
 20
-2.042114
  0
VERTEX
  8
LAYER_1
 62
     7
  6
CONTINUOUS
 10
-2.168213
 20
-2.048512
  0
VERTEX
  8
LAYER_1
 62
     7
  6
CONTINUOUS
 10
-2.173555
 20
-2.018031
  0
VERTEX
  8
LAYER_1
 62
     7
  6
CONTINUOUS
 10
-2.169720
 20
-1.993598
  0
VERTEX
  8
LAYER_1
 62
     7
  6
CONTINUOUS
 10
-2.160315
 20
-1.975327
  0
VERTEX
  8
LAYER_1
 62
     7
  6
CONTINUOUS
 10
-2.119823
 20
-1.940882
  0
VERTEX
  8
LAYER_1
 62
     7
  6
CONTINUOUS
 10
-2.072339
 20
-1.931469
  0
VERTEX
  8
LAYER_1
 62
     7
  6
CONTINUOUS
 10
-2.027106
 20
-1.938335
  0
VERTEX
  8
LAYER_1
 62
     7
  6
CONTINUOUS
 10
-1.996055
 20
-1.953693
  0
VERTEX
  8
LAYER_1
 62
     7
  6
CONTINUOUS
 10
-1.967480
 20
-1.977232
  0
VERTEX
  8
LAYER_1
 62
     7
  6
CONTINUOUS
 10
-1.943209
 20
-2.008094
  0
VERTEX
  8
LAYER_1
 62
     7
  6
CONTINUOUS
 10
-1.924220
 20
-2.043606
  0
VERTEX
  8
LAYER_1
 62
     7
  6
CONTINUOUS
 10
-1.912280
 20
-2.084717
  0
VERTEX
  8
LAYER_1
 62
     7
  6
CONTINUOUS
 10
-1.909287
 20
-2.127874
  0
VERTEX
  8
LAYER_1
 62
     7
  6
CONTINUOUS
 10
-1.917028
 20
-2.174031
  0
VERTEX
  8
LAYER_1
 62
     7
  6
CONTINUOUS
 10
-1.936469
 20
-2.220508
  0
VERTEX
  8
LAYER_1
 62
     7
  6
CONTINUOUS
 10
-1.968516
 20
-2.267335
  0
VERTEX
  8
LAYER_1
 62
     7
  6
CONTINUOUS
 10
-1.995776
 20
-2.291504
  0
VERTEX
  8
LAYER_1
 62
     7
  6
CONTINUOUS
 10
-2.033965
 20
-2.311469
  0
VERTEX
  8
LAYER_1
 62
     7
  6
CONTINUOUS
 10
-2.078602
 20
-2.326209
  0
VERTEX
  8
LAYER_1
 62
     7
  6
CONTINUOUS
 10
-2.128760
 20
-2.336598
  0
VERTEX
  8
LAYER_1
 62
     7
  6
CONTINUOUS
 10
-2.181776
 20
-2.341657
  0
VERTEX
  8
LAYER_1
 62
     7
  6
CONTINUOUS
 10
-2.234933
 20
-2.341315
  0
VERTEX
  8
LAYER_1
 62
     7
  6
CONTINUOUS
 10
-2.286441
 20
-2.335528
  0
VERTEX
  8
LAYER_1
 62
     7
  6
CONTINUOUS
 10
-2.330894
 20
-2.324138
  0
VERTEX
  8
LAYER_1
 62
     7
  6
CONTINUOUS
 10
-2.378201
 20
-2.307417
  0
VERTEX
  8
LAYER_1
 62
     7
  6
CONTINUOUS
 10
-2.424752
 20
-2.285283
  0
VERTEX
  8
LAYER_1
 62
     7
  6
CONTINUOUS
 10
-2.470504
 20
-2.259516
  0
VERTEX
  8
LAYER_1
 62
     7
  6
CONTINUOUS
 10
-2.513673
 20
-2.229169
  0
VERTEX
  8
LAYER_1
 62
     7
  6
CONTINUOUS
 10
-2.551524
 20
-2.195980
  0
VERTEX
  8
LAYER_1
 62
     7
  6
CONTINUOUS
 10
-2.582268
 20
-2.158988
  0
VERTEX
  8
LAYER_1
 62
     7
  6
CONTINUOUS
 10
-2.605862
 20
-2.120000
  0
VERTEX
  8
LAYER_1
 62
     7
  6
CONTINUOUS
 10
-2.637980
 20
-0.951583
  0
VERTEX
  8
LAYER_1
 62
     7
  6
CONTINUOUS
 10
-2.616567
 20
-0.911354
  0
VERTEX
  8
LAYER_1
 62
     7
  6
CONTINUOUS
 10
-2.587874
 20
-0.873630
  0
VERTEX
  8
LAYER_1
 62
     7
  6
CONTINUOUS
 10
-2.551933
 20
-0.837508
  0
VERTEX
  8
LAYER_1
 62
     7
  6
CONTINUOUS
 10
-2.510492
 20
-0.804843
  0
VERTEX
  8
LAYER_1
 62
     7
  6
CONTINUOUS
 10
-2.466224
 20
-0.776598
  0
VERTEX
  8
LAYER_1
 62
     7
  6
CONTINUOUS
 10
-2.420961
 20
-0.751929
  0
VERTEX
  8
LAYER_1
 62
     7
  6
CONTINUOUS
 10
-2.374646
 20
-0.732642
  0
VERTEX
  8
LAYER_1
 62
     7
  6
CONTINUOUS
 10
-2.330858
 20
-0.719728
  0
VERTEX
  8
LAYER_1
 62
     7
  6
CONTINUOUS
 10
-2.279748
 20
-0.711114
  0
VERTEX
  8
LAYER_1
 62
     7
  6
CONTINUOUS
 10
-2.226713
 20
-0.706953
  0
VERTEX
  8
LAYER_1
 62
     7
  6
CONTINUOUS
 10
-2.173504
 20
-0.709098
  0
VERTEX
  8
LAYER_1
 62
     7
  6
CONTINUOUS
 10
-2.122846
 20
-0.716713
  0
VERTEX
  8
LAYER_1
 62
     7
  6
CONTINUOUS
 10
-2.077465
 20
-0.728976
  0
VERTEX
  8
LAYER_1
 62
     7
  6
CONTINUOUS
 10
-2.038240
 20
-0.746815
  0
VERTEX
  8
LAYER_1
 62
     7
  6
CONTINUOUS
 10
-2.009665
 20
-0.770350
  0
VERTEX
  8
LAYER_1
 62
     7
  6
CONTINUOUS
 10
-1.975122
 20
-0.814449
  0
VERTEX
  8
LAYER_1
 62
     7
  6
CONTINUOUS
 10
-1.953130
 20
-0.860685
  0
VERTEX
  8
LAYER_1
 62
     7
  6
CONTINUOUS
 10
-1.942894
 20
-0.905449
  0
VERTEX
  8
LAYER_1
 62
     7
  6
CONTINUOUS
 10
-1.943480
 20
-0.949602
  0
VERTEX
  8
LAYER_1
 62
     7
  6
CONTINUOUS
 10
-1.953169
 20
-0.990409
  0
VERTEX
  8
LAYER_1
 62
     7
  6
CONTINUOUS
 10
-1.970157
 20
-1.027811
  0
VERTEX
  8
LAYER_1
 62
     7
  6
CONTINUOUS
 10
-1.992720
 20
-1.059059
  0
VERTEX
  8
LAYER_1
 62
     7
  6
CONTINUOUS
 10
-2.019957
 20
-1.084134
  0
VERTEX
  8
LAYER_1
 62
     7
  6
CONTINUOUS
 10
-2.050094
 20
-1.102075
  0
VERTEX
  8
LAYER_1
 62
     7
  6
CONTINUOUS
 10
-2.094878
 20
-1.111413
  0
VERTEX
  8
LAYER_1
 62
     7
  6
CONTINUOUS
 10
-2.142835
 20
-1.103724
  0
VERTEX
  8
LAYER_1
 62
     7
  6
CONTINUOUS
 10
-2.176740
 20
-1.083035
  0
VERTEX
  8
LAYER_1
 62
     7
  6
CONTINUOUS
 10
-2.192783
 20
-1.056453
  0
VERTEX
  8
LAYER_1
 62
     7
  6
CONTINUOUS
 10
-2.200724
 20
-1.029646
  0
VERTEX
  8
LAYER_1
 62
     7
  6
CONTINUOUS
 10
-2.198622
 20
-1.007965
  0
VERTEX
  8
LAYER_1
 62
     7
  6
CONTINUOUS
 10
-2.197067
 20
-0.998917
  0
VERTEX
  8
LAYER_1
 62
     7
  6
CONTINUOUS
 10
-2.179146
 20
-1.028150
  0
VERTEX
  8
LAYER_1
 62
     7
  6
CONTINUOUS
 10
-2.144492
 20
-1.043413
  0
VERTEX
  8
LAYER_1
 62
     7
  6
CONTINUOUS
 10
-2.105035
 20
-1.036925
  0
VERTEX
  8
LAYER_1
 62
     7
  6
CONTINUOUS
 10
-2.078969
 20
-1.001972
  0
VERTEX
  8
LAYER_1
 62
     7
  6
CONTINUOUS
 10
-2.077409
 20
-0.960492
  0
VERTEX
  8
LAYER_1
 62
     7
  6
CONTINUOUS
 10
-2.103051
 20
-0.912551
  0
VERTEX
  8
LAYER_1
 62
     7
  6
CONTINUOUS
 10
-2.147850
 20
-0.888559
  0
VERTEX
  8
LAYER_1
 62
     7
  6
CONTINUOUS
 10
-2.198508
 20
-0.880941
  0
VERTEX
  8
LAYER_1
 62
     7
  6
CONTINUOUS
 10
-2.245020
 20
-0.893031
  0
VERTEX
  8
LAYER_1
 62
     7
  6
CONTINUOUS
 10
-2.283933
 20
-0.919327
  0
VERTEX
  8
LAYER_1
 62
     7
  6
CONTINUOUS
 10
-2.308224
 20
-0.953323
  0
VERTEX
  8
LAYER_1
 62
     7
  6
CONTINUOUS
 10
-2.320713
 20
-0.990602
  0
VERTEX
  8
LAYER_1
 62
     7
  6
CONTINUOUS
 10
-2.325724
 20
-1.037587
  0
VERTEX
  8
LAYER_1
 62
     7
  6
CONTINUOUS
 10
-2.318693
 20
-1.096850
  0
VERTEX
  8
LAYER_1
 62
     7
  6
CONTINUOUS
 10
-2.301154
 20
-1.145012
  0
VERTEX
  8
LAYER_1
 62
     7
  6
CONTINUOUS
 10
-2.275783
 20
-1.183047
  0
VERTEX
  8
LAYER_1
 62
     7
  6
CONTINUOUS
 10
-2.244311
 20
-1.213717
  0
VERTEX
  8
LAYER_1
 62
     7
  6
CONTINUOUS
 10
-2.211264
 20
-1.236228
  0
VERTEX
  8
LAYER_1
 62
     7
  6
CONTINUOUS
 10
-2.176559
 20
-1.253291
  0
VERTEX
  8
LAYER_1
 62
     7
  6
CONTINUOUS
 10
-2.143835
 20
-1.264102
  0
VERTEX
  8
LAYER_1
 62
     7
  6
CONTINUOUS
 10
-2.114780
 20
-1.272315
  0
VERTEX
  8
LAYER_1
 62
     7
  6
CONTINUOUS
 10
-2.037720
 20
-1.290012
  0
VERTEX
  8
LAYER_1
 62
     7
  6
CONTINUOUS
 10
-1.958012
 20
-1.305839
  0
VERTEX
  8
LAYER_1
 62
     7
  6
CONTINUOUS
 10
-1.876551
 20
-1.319815
  0
VERTEX
  8
LAYER_1
 62
     7
  6
CONTINUOUS
 10
-1.793339
 20
-1.331941
  0
VERTEX
  8
LAYER_1
 62
     7
  6
CONTINUOUS
 10
-1.709276
 20
-1.342240
  0
VERTEX
  8
LAYER_1
 62
     7
  6
CONTINUOUS
 10
-1.622563
 20
-1.350669
  0
VERTEX
  8
LAYER_1
 62
     7
  6
CONTINUOUS
 10
-1.535000
 20
-1.357272
  0
VERTEX
  8
LAYER_1
 62
     7
  6
CONTINUOUS
 10
-1.446559
 20
-1.362945
  0
VERTEX
  8
LAYER_1
 62
     7
  6
CONTINUOUS
 10
-1.358146
 20
-1.367724
  0
VERTEX
  8
LAYER_1
 62
     7
  6
CONTINUOUS
 10
-1.267980
 20
-1.370650
  0
VERTEX
  8
LAYER_1
 62
     7
  6
CONTINUOUS
 10
-1.177839
 20
-1.372677
  0
VERTEX
  8
LAYER_1
 62
     7
  6
CONTINUOUS
 10
-1.087701
 20
-1.374701
  0
VERTEX
  8
LAYER_1
 62
     7
  6
CONTINUOUS
 10
-0.997610
 20
-1.374929
  0
VERTEX
  8
LAYER_1
 62
     7
  6
CONTINUOUS
 10
-0.863382
 20
-1.374839
  0
VERTEX
  8
LAYER_1
 62
     7
  6
CONTINUOUS
 10
-0.729185
 20
-1.373850
  0
VERTEX
  8
LAYER_1
 62
     7
  6
CONTINUOUS
 10
-0.598610
 20
-1.372067
  0
VERTEX
  8
LAYER_1
 62
     7
  6
CONTINUOUS
 10
-0.469815
 20
-1.371228
  0
VERTEX
  8
LAYER_1
 62
     7
  6
CONTINUOUS
 10
-0.343740
 20
-1.369563
  0
VERTEX
  8
LAYER_1
 62
     7
  6
CONTINUOUS
 10
-0.223043
 20
-1.368949
  0
VERTEX
  8
LAYER_1
 62
     7
  6
CONTINUOUS
 10
-0.154480
 20
-1.370476
  0
VERTEX
  8
LAYER_1
 62
     7
  6
CONTINUOUS
 10
-0.100382
 20
-1.372354
  0
VERTEX
  8
LAYER_1
 62
     7
  6
CONTINUOUS
 10
0.002630
 20
-1.370406
  0
VERTEX
  8
LAYER_1
 62
     7
  6
CONTINUOUS
 10
-0.450138
 20
-1.193906
  0
SEQEND
  8
0
  0
POLYLINE
  8
LAYER_1
 62
     7
  6
CONTINUOUS
 66
     1
 40
0.003000
 41
0.003000
  0
VERTEX
  8
LAYER_1
 62
     7
  6
CONTINUOUS
 10
-2.320799
 20
-1.560843
  0
VERTEX
  8
LAYER_1
 62
     7
  6
CONTINUOUS
 10
-2.370248
 20
-1.531575
  0
VERTEX
  8
LAYER_1
 62
     7
  6
CONTINUOUS
 10
-2.423280
 20
-1.503307
  0
VERTEX
  8
LAYER_1
 62
     7
  6
CONTINUOUS
 10
-2.461098
 20
-1.471012
  0
VERTEX
  8
LAYER_1
 62
     7
  6
CONTINUOUS
 10
-2.490992
 20
-1.432197
  0
VERTEX
  8
LAYER_1
 62
     7
  6
CONTINUOUS
 10
-2.512957
 20
-1.386858
  0
VERTEX
  8
LAYER_1
 62
     7
  6
CONTINUOUS
 10
-2.528772
 20
-1.335945
  0
VERTEX
  8
LAYER_1
 62
     7
  6
CONTINUOUS
 10
-2.539209
 20
-1.283980
  0
VERTEX
  8
LAYER_1
 62
     7
  6
CONTINUOUS
 10
-2.509008
 20
-1.301165
  0
VERTEX
  8
LAYER_1
 62
     7
  6
CONTINUOUS
 10
-2.476858
 20
-1.323705
  0
VERTEX
  8
LAYER_1
 62
     7
  6
CONTINUOUS
 10
-2.442012
 20
-1.346169
  0
VERTEX
  8
LAYER_1
 62
     7
  6
CONTINUOUS
 10
-2.405358
 20
-1.368583
  0
VERTEX
  8
LAYER_1
 62
     7
  6
CONTINUOUS
 10
-2.366933
 20
-1.390051
  0
VERTEX
  8
LAYER_1
 62
     7
  6
CONTINUOUS
 10
-2.326732
 20
-1.410563
  0
VERTEX
  8
LAYER_1
 62
     7
  6
CONTINUOUS
 10
-2.284756
 20
-1.430130
  0
VERTEX
  8
LAYER_1
 62
     7
  6
CONTINUOUS
 10
-2.241004
 20
-1.448748
  0
VERTEX
  8
LAYER_1
 62
     7
  6
CONTINUOUS
 10
-2.195476
 20
-1.466413
  0
VERTEX
  8
LAYER_1
 62
     7
  6
CONTINUOUS
 10
-2.149122
 20
-1.481354
  0
VERTEX
  8
LAYER_1
 62
     7
  6
CONTINUOUS
 10
-2.100118
 20
-1.494421
  0
VERTEX
  8
LAYER_1
 62
     7
  6
CONTINUOUS
 10
-2.051185
 20
-1.504787
  0
VERTEX
  8
LAYER_1
 62
     7
  6
CONTINUOUS
 10
-2.000528
 20
-1.512402
  0
VERTEX
  8
LAYER_1
 62
     7
  6
CONTINUOUS
 10
-1.978846
 20
-1.514508
  0
VERTEX
  8
LAYER_1
 62
     7
  6
CONTINUOUS
 10
-1.956272
 20
-1.516591
  0
VERTEX
  8
LAYER_1
 62
     7
  6
CONTINUOUS
 10
-2.000181
 20
-1.525004
  0
VERTEX
  8
LAYER_1
 62
     7
  6
CONTINUOUS
 10
-2.050346
 20
-1.535394
  0
VERTEX
  8
LAYER_1
 62
     7
  6
CONTINUOUS
 10
-2.098606
 20
-1.549331
  0
VERTEX
  8
LAYER_1
 62
     7
  6
CONTINUOUS
 10
-2.146846
 20
-1.564169
  0
VERTEX
  8
LAYER_1
 62
     7
  6
CONTINUOUS
 10
-2.192283
 20
-1.582535
  0
VERTEX
  8
LAYER_1
 62
     7
  6
CONTINUOUS
 10
-2.236795
 20
-1.601776
  0
VERTEX
  8
LAYER_1
 62
     7
  6
CONTINUOUS
 10
-2.279461
 20
-1.622764
  0
VERTEX
  8
LAYER_1
 62
     7
  6
CONTINUOUS
 10
-2.320299
 20
-1.644610
  0
VERTEX
  8
LAYER_1
 62
     7
  6
CONTINUOUS
 10
-2.359287
 20
-1.668201
  0
VERTEX
  8
LAYER_1
 62
     7
  6
CONTINUOUS
 10
-2.396476
 20
-1.691744
  0
VERTEX
  8
LAYER_1
 62
     7
  6
CONTINUOUS
 10
-2.431866
 20
-1.715236
  0
VERTEX
  8
LAYER_1
 62
     7
  6
CONTINUOUS
 10
-2.465429
 20
-1.739583
  0
VERTEX
  8
LAYER_1
 62
     7
  6
CONTINUOUS
 10
-2.496291
 20
-1.763854
  0
VERTEX
  8
LAYER_1
 62
     7
  6
CONTINUOUS
 10
-2.523626
 20
-1.785323
  0
VERTEX
  8
LAYER_1
 62
     7
  6
CONTINUOUS
 10
-2.517933
 20
-1.730217
  0
VERTEX
  8
LAYER_1
 62
     7
  6
CONTINUOUS
 10
-2.504917
 20
-1.679413
  0
VERTEX
  8
LAYER_1
 62
     7
  6
CONTINUOUS
 10
-2.485472
 20
-1.632933
  0
VERTEX
  8
LAYER_1
 62
     7
  6
CONTINUOUS
 10
-2.457783
 20
-1.591634
  0
VERTEX
  8
LAYER_1
 62
     7
  6
CONTINUOUS
 10
-2.421791
 20
-1.557315
  0
VERTEX
  8
LAYER_1
 62
     7
  6
CONTINUOUS
 10
-2.379252
 20
-1.531819
  0
VERTEX
  8
LAYER_1
 62
     7
  6
CONTINUOUS
 10
-2.326980
 20
-1.499756
  0
SEQEND
  8
0
  0
POLYLINE
  8
LAYER_1
 62
     7
  6
CONTINUOUS
 66
     1
 40
0.003000
 41
0.003000
  0
VERTEX
  8
LAYER_1
 62
     7
  6
CONTINUOUS
 10
0.790697
 20
-1.164465
  0
VERTEX
  8
LAYER_1
 62
     7
  6
CONTINUOUS
 10
0.788894
 20
-1.260815
  0
VERTEX
  8
LAYER_1
 62
     7
  6
CONTINUOUS
 10
0.788894
 20
-1.270720
  0
VERTEX
  8
LAYER_1
 62
     7
  6
CONTINUOUS
 10
0.781693
 20
-1.591303
  0
VERTEX
  8
LAYER_1
 62
     7
  6
CONTINUOUS
 10
0.780791
 20
-1.603012
  0
VERTEX
  8
LAYER_1
 62
     7
  6
CONTINUOUS
 10
0.731264
 20
-1.579594
  0
VERTEX
  8
LAYER_1
 62
     7
  6
CONTINUOUS
 10
0.672728
 20
-1.561583
  0
VERTEX
  8
LAYER_1
 62
     7
  6
CONTINUOUS
 10
0.573673
 20
-1.547181
  0
VERTEX
  8
LAYER_1
 62
     7
  6
CONTINUOUS
 10
0.466512
 20
-1.542677
  0
VERTEX
  8
LAYER_1
 62
     7
  6
CONTINUOUS
 10
0.362055
 20
-1.539059
  0
VERTEX
  8
LAYER_1
 62
     7
  6
CONTINUOUS
 10
0.277346
 20
-1.545913
  0
VERTEX
  8
LAYER_1
 62
     7
  6
CONTINUOUS
 10
0.267472
 20
-1.545913
  0
VERTEX
  8
LAYER_1
 62
     7
  6
CONTINUOUS
 10
0.267500
 20
-1.900177
  0
VERTEX
  8
LAYER_1
 62
     7
  6
CONTINUOUS
 10
0.267500
 20
-1.909181
  0
VERTEX
  8
LAYER_1
 62
     7
  6
CONTINUOUS
 10
0.326031
 20
-1.922689
  0
VERTEX
  8
LAYER_1
 62
     7
  6
CONTINUOUS
 10
0.409780
 20
-1.927193
  0
VERTEX
  8
LAYER_1
 62
     7
  6
CONTINUOUS
 10
0.510638
 20
-1.923591
  0
VERTEX
  8
LAYER_1
 62
     7
  6
CONTINUOUS
 10
0.617799
 20
-1.911886
  0
VERTEX
  8
LAYER_1
 62
     7
  6
CONTINUOUS
 10
0.700646
 20
-1.899276
  0
VERTEX
  8
LAYER_1
 62
     7
  6
CONTINUOUS
 10
0.769984
 20
-1.882165
  0
VERTEX
  8
LAYER_1
 62
     7
  6
CONTINUOUS
 10
0.829417
 20
-1.865957
  0
VERTEX
  8
LAYER_1
 62
     7
  6
CONTINUOUS
 10
0.869039
 20
-1.840744
  0
VERTEX
  8
LAYER_1
 62
     7
  6
CONTINUOUS
 10
0.895154
 20
-1.825437
  0
VERTEX
  8
LAYER_1
 62
     7
  6
CONTINUOUS
 10
0.904157
 20
-1.820031
  0
VERTEX
  8
LAYER_1
 62
     7
  6
CONTINUOUS
 10
0.896055
 20
-1.859654
  0
VERTEX
  8
LAYER_1
 62
     7
  6
CONTINUOUS
 10
0.888850
 20
-1.905583
  0
VERTEX
  8
LAYER_1
 62
     7
  6
CONTINUOUS
 10
0.883449
 20
-1.956909
  0
VERTEX
  8
LAYER_1
 62
     7
  6
CONTINUOUS
 10
0.879846
 20
-2.010039
  0
VERTEX
  8
LAYER_1
 62
     7
  6
CONTINUOUS
 10
0.877146
 20
-2.064972
  0
VERTEX
  8
LAYER_1
 62
     7
  6
CONTINUOUS
 10
0.877146
 20
-2.118098
  0
VERTEX
  8
LAYER_1
 62
     7
  6
CONTINUOUS
 10
0.878945
 20
-2.167630
  0
VERTEX
  8
LAYER_1
 62
     7
  6
CONTINUOUS
 10
0.882547
 20
-2.205449
  0
VERTEX
  8
LAYER_1
 62
     7
  6
CONTINUOUS
 10
0.831217
 20
-2.204547
  0
VERTEX
  8
LAYER_1
 62
     7
  6
CONTINUOUS
 10
0.764579
 20
-2.198248
  0
VERTEX
  8
LAYER_1
 62
     7
  6
CONTINUOUS
 10
0.684433
 20
-2.191941
  0
VERTEX
  8
LAYER_1
 62
     7
  6
CONTINUOUS
 10
0.594386
 20
-2.188339
  0
VERTEX
  8
LAYER_1
 62
     7
  6
CONTINUOUS
 10
0.496228
 20
-2.185642
  0
VERTEX
  8
LAYER_1
 62
     7
  6
CONTINUOUS
 10
0.392669
 20
-2.183839
  0
VERTEX
  8
LAYER_1
 62
     7
  6
CONTINUOUS
 10
0.284610
 20
-2.185642
  0
VERTEX
  8
LAYER_1
 62
     7
  6
CONTINUOUS
 10
0.176547
 20
-2.188339
  0
VERTEX
  8
LAYER_1
 62
     7
  6
CONTINUOUS
 10
0.069390
 20
-2.193744
  0
VERTEX
  8
LAYER_1
 62
     7
  6
CONTINUOUS
 10
-0.020354
 20
-2.195358
  0
VERTEX
  8
LAYER_1
 62
     7
  6
CONTINUOUS
 10
-0.009701
 20
-1.583071
  0
VERTEX
  8
LAYER_1
 62
     7
  6
CONTINUOUS
 10
-0.768894
 20
-1.901240
  0
SEQEND
  8
0
  0
POLYLINE
  8
LAYER_1
 62
     7
  6
CONTINUOUS
 66
     1
 40
0.003000
 41
0.003000
  0
VERTEX
  8
LAYER_1
 62
     7
  6
CONTINUOUS
 10
-0.502390
 20
-1.259693
  0
VERTEX
  8
LAYER_1
 62
     7
  6
CONTINUOUS
 10
-0.005031
 20
-1.371122
  0
VERTEX
  8
LAYER_1
 62
     7
  6
CONTINUOUS
 10
-0.002626
 20
-0.689898
  0
VERTEX
  8
LAYER_1
 62
     7
  6
CONTINUOUS
 10
-0.002626
 20
-0.679091
  0
VERTEX
  8
LAYER_1
 62
     7
  6
CONTINUOUS
 10
0.082921
 20
-0.687193
  0
VERTEX
  8
LAYER_1
 62
     7
  6
CONTINUOUS
 10
0.174772
 20
-0.695295
  0
VERTEX
  8
LAYER_1
 62
     7
  6
CONTINUOUS
 10
0.271130
 20
-0.703402
  0
VERTEX
  8
LAYER_1
 62
     7
  6
CONTINUOUS
 10
0.368382
 20
-0.708803
  0
VERTEX
  8
LAYER_1
 62
     7
  6
CONTINUOUS
 10
0.466539
 20
-0.711508
  0
VERTEX
  8
LAYER_1
 62
     7
  6
CONTINUOUS
 10
0.562894
 20
-0.711508
  0
VERTEX
  8
LAYER_1
 62
     7
  6
CONTINUOUS
 10
0.655646
 20
-0.706106
  0
VERTEX
  8
LAYER_1
 62
     7
  6
CONTINUOUS
 10
0.742094
 20
-0.695295
  0
VERTEX
  8
LAYER_1
 62
     7
  6
CONTINUOUS
 10
0.821339
 20
-0.678189
  0
VERTEX
  8
LAYER_1
 62
     7
  6
CONTINUOUS
 10
0.857362
 20
-0.666480
  0
VERTEX
  8
LAYER_1
 62
     7
  6
CONTINUOUS
 10
0.891579
 20
-0.652972
  0
VERTEX
  8
LAYER_1
 62
     7
  6
CONTINUOUS
 10
0.914996
 20
-0.641268
  0
VERTEX
  8
LAYER_1
 62
     7
  6
CONTINUOUS
 10
0.922197
 20
-0.637665
  0
VERTEX
  8
LAYER_1
 62
     7
  6
CONTINUOUS
 10
0.917693
 20
-0.685394
  0
VERTEX
  8
LAYER_1
 62
     7
  6
CONTINUOUS
 10
0.907787
 20
-0.771843
  0
VERTEX
  8
LAYER_1
 62
     7
  6
CONTINUOUS
 10
0.896083
 20
-0.869094
  0
VERTEX
  8
LAYER_1
 62
     7
  6
CONTINUOUS
 10
0.888878
 20
-0.948343
  0
VERTEX
  8
LAYER_1
 62
     7
  6
CONTINUOUS
 10
0.882575
 20
-1.023083
  0
VERTEX
  8
LAYER_1
 62
     7
  6
CONTINUOUS
 10
0.880772
 20
-1.049197
  0
VERTEX
  8
LAYER_1
 62
     7
  6
CONTINUOUS
 10
0.879874
 20
-1.057303
  0
VERTEX
  8
LAYER_1
 62
     7
  6
CONTINUOUS
 10
0.793421
 20
-1.025783
  0
VERTEX
  8
LAYER_1
 62
     7
  6
CONTINUOUS
 10
0.688965
 20
-1.001472
  0
VERTEX
  8
LAYER_1
 62
     7
  6
CONTINUOUS
 10
0.575500
 20
-0.984362
  0
VERTEX
  8
LAYER_1
 62
     7
  6
CONTINUOUS
 10
0.467441
 20
-0.974457
  0
VERTEX
  8
LAYER_1
 62
     7
  6
CONTINUOUS
 10
0.374689
 20
-0.971752
  0
VERTEX
  8
LAYER_1
 62
     7
  6
CONTINUOUS
 10
0.309850
 20
-0.975358
  0
VERTEX
  8
LAYER_1
 62
     7
  6
CONTINUOUS
 10
0.290937
 20
-0.982563
  0
VERTEX
  8
LAYER_1
 62
     7
  6
CONTINUOUS
 10
0.284638
 20
-0.985264
  0
VERTEX
  8
LAYER_1
 62
     7
  6
CONTINUOUS
 10
0.277433
 20
-1.344567
  0
VERTEX
  8
LAYER_1
 62
     7
  6
CONTINUOUS
 10
0.276531
 20
-1.354472
  0
VERTEX
  8
LAYER_1
 62
     7
  6
CONTINUOUS
 10
0.332362
 20
-1.358075
  0
VERTEX
  8
LAYER_1
 62
     7
  6
CONTINUOUS
 10
0.419713
 20
-1.359870
  0
VERTEX
  8
LAYER_1
 62
     7
  6
CONTINUOUS
 10
0.524173
 20
-1.356272
  0
VERTEX
  8
LAYER_1
 62
     7
  6
CONTINUOUS
 10
0.630429
 20
-1.344567
  0
VERTEX
  8
LAYER_1
 62
     7
  6
CONTINUOUS
 10
0.724087
 20
-1.320252
  0
VERTEX
  8
LAYER_1
 62
     7
  6
CONTINUOUS
 10
0.783516
 20
-1.284232
  0
VERTEX
  8
LAYER_1
 62
     7
  6
CONTINUOUS
 10
0.788921
 20
-1.280630
  0
VERTEX
  8
LAYER_1
 62
     7
  6
CONTINUOUS
 10
0.886177
 20
-1.213091
  0
SEQEND
  8
0
  0
POLYLINE
  8
LAYER_1
 62
     7
  6
CONTINUOUS
 66
     1
 40
0.003000
 41
0.003000
  0
VERTEX
  8
LAYER_1
 62
     7
  6
CONTINUOUS
 10
1.145972
 20
-0.468539
  0
VERTEX
  8
LAYER_1
 62
     7
  6
CONTINUOUS
 10
1.325957
 20
-0.394429
  0
VERTEX
  8
LAYER_1
 62
     7
  6
CONTINUOUS
 10
1.316433
 20
-0.870909
  0
VERTEX
  8
LAYER_1
 62
     7
  6
CONTINUOUS
 10
1.307425
 20
-0.936646
  0
VERTEX
  8
LAYER_1
 62
     7
  6
CONTINUOUS
 10
1.292118
 20
-0.994280
  0
VERTEX
  8
LAYER_1
 62
     7
  6
CONTINUOUS
 10
1.274110
 20
-1.039303
  0
VERTEX
  8
LAYER_1
 62
     7
  6
CONTINUOUS
 10
1.248894
 20
-1.076224
  0
VERTEX
  8
LAYER_1
 62
     7
  6
CONTINUOUS
 10
1.224579
 20
-1.096035
  0
VERTEX
  8
LAYER_1
 62
     7
  6
CONTINUOUS
 10
1.217378
 20
-1.101441
  0
VERTEX
  8
LAYER_1
 62
     7
  6
CONTINUOUS
 10
1.660429
 20
-1.100539
  0
VERTEX
  8
LAYER_1
 62
     7
  6
CONTINUOUS
 10
1.670335
 20
-1.100539
  0
VERTEX
  8
LAYER_1
 62
     7
  6
CONTINUOUS
 10
1.621705
 20
-1.033000
  0
VERTEX
  8
LAYER_1
 62
     7
  6
CONTINUOUS
 10
1.601894
 20
-0.974469
  0
VERTEX
  8
LAYER_1
 62
     7
  6
CONTINUOUS
 10
1.592890
 20
-0.916835
  0
VERTEX
  8
LAYER_1
 62
     7
  6
CONTINUOUS
 10
1.584783
 20
-0.855602
  0
VERTEX
  8
LAYER_1
 62
     7
  6
CONTINUOUS
 10
1.576681
 20
-0.769150
  0
VERTEX
  8
LAYER_1
 62
     7
  6
CONTINUOUS
 10
1.568575
 20
-0.677299
  0
VERTEX
  8
LAYER_1
 62
     7
  6
CONTINUOUS
 10
1.562272
 20
-0.582748
  0
VERTEX
  8
LAYER_1
 62
     7
  6
CONTINUOUS
 10
1.555965
 20
-0.487291
  0
VERTEX
  8
LAYER_1
 62
     7
  6
CONTINUOUS
 10
1.550567
 20
-0.393642
  0
VERTEX
  8
LAYER_1
 62
     7
  6
CONTINUOUS
 10
1.545161
 20
-0.301787
  0
VERTEX
  8
LAYER_1
 62
     7
  6
CONTINUOUS
 10
1.541559
 20
-0.214437
  0
VERTEX
  8
LAYER_1
 62
     7
  6
CONTINUOUS
 10
1.539760
 20
-0.144197
  0
VERTEX
  8
LAYER_1
 62
     7
  6
CONTINUOUS
 10
1.539760
 20
-0.134291
  0
VERTEX
  8
LAYER_1
 62
     7
  6
CONTINUOUS
 10
2.018823
 20
-1.011390
  0
VERTEX
  8
LAYER_1
 62
     7
  6
CONTINUOUS
 10
2.040437
 20
-1.038402
  0
VERTEX
  8
LAYER_1
 62
     7
  6
CONTINUOUS
 10
2.073756
 20
-1.063618
  0
VERTEX
  8
LAYER_1
 62
     7
  6
CONTINUOUS
 10
2.114280
 20
-1.083429
  0
VERTEX
  8
LAYER_1
 62
     7
  6
CONTINUOUS
 10
2.161106
 20
-1.095138
  0
VERTEX
  8
LAYER_1
 62
     7
  6
CONTINUOUS
 10
2.210634
 20
-1.096937
  0
VERTEX
  8
LAYER_1
 62
     7
  6
CONTINUOUS
 10
2.260161
 20
-1.086130
  0
VERTEX
  8
LAYER_1
 62
     7
  6
CONTINUOUS
 10
2.306988
 20
-1.060016
  0
VERTEX
  8
LAYER_1
 62
     7
  6
CONTINUOUS
 10
2.330402
 20
-1.013189
  0
VERTEX
  8
LAYER_1
 62
     7
  6
CONTINUOUS
 10
2.334004
 20
-0.951055
  0
VERTEX
  8
LAYER_1
 62
     7
  6
CONTINUOUS
 10
2.331303
 20
-0.894323
  0
VERTEX
  8
LAYER_1
 62
     7
  6
CONTINUOUS
 10
2.328598
 20
-0.806075
  0
VERTEX
  8
LAYER_1
 62
     7
  6
CONTINUOUS
 10
2.326799
 20
-0.717823
  0
VERTEX
  8
LAYER_1
 62
     7
  6
CONTINUOUS
 10
2.327697
 20
-0.629575
  0
VERTEX
  8
LAYER_1
 62
     7
  6
CONTINUOUS
 10
2.328598
 20
-0.542220
  0
VERTEX
  8
LAYER_1
 62
     7
  6
CONTINUOUS
 10
2.329500
 20
-0.453972
  0
VERTEX
  8
LAYER_1
 62
     7
  6
CONTINUOUS
 10
2.332205
 20
-0.365724
  0
VERTEX
  8
LAYER_1
 62
     7
  6
CONTINUOUS
 10
2.334004
 20
-0.278374
  0
VERTEX
  8
LAYER_1
 62
     7
  6
CONTINUOUS
 10
2.335807
 20
-0.189224
  0
VERTEX
  8
LAYER_1
 62
     7
  6
CONTINUOUS
 10
2.336705
 20
-0.100976
  0
VERTEX
  8
LAYER_1
 62
     7
  6
CONTINUOUS
 10
2.337606
 20
-0.011823
  0
VERTEX
  8
LAYER_1
 62
     7
  6
CONTINUOUS
 10
2.340307
 20
0.046709
  0
VERTEX
  8
LAYER_1
 62
     7
  6
CONTINUOUS
 10
2.345709
 20
0.104343
  0
VERTEX
  8
LAYER_1
 62
     7
  6
CONTINUOUS
 10
2.353815
 20
0.161075
  0
VERTEX
  8
LAYER_1
 62
     7
  6
CONTINUOUS
 10
2.363720
 20
0.214201
  0
VERTEX
  8
LAYER_1
 62
     7
  6
CONTINUOUS
 10
2.376327
 20
0.264630
  0
VERTEX
  8
LAYER_1
 62
     7
  6
CONTINUOUS
 10
2.388933
 20
0.309657
  0
VERTEX
  8
LAYER_1
 62
     7
  6
CONTINUOUS
 10
2.403343
 20
0.348378
  0
VERTEX
  8
LAYER_1
 62
     7
  6
CONTINUOUS
 10
2.418650
 20
0.380799
  0
VERTEX
  8
LAYER_1
 62
     7
  6
CONTINUOUS
 10
2.433059
 20
0.405110
  0
VERTEX
  8
LAYER_1
 62
     7
  6
CONTINUOUS
 10
2.442063
 20
0.414114
  0
VERTEX
  8
LAYER_1
 62
     7
  6
CONTINUOUS
 10
2.448366
 20
0.420417
  0
VERTEX
  8
LAYER_1
 62
     7
  6
CONTINUOUS
 10
2.400642
 20
0.427622
  0
VERTEX
  8
LAYER_1
 62
     7
  6
CONTINUOUS
 10
2.349311
 20
0.433028
  0
VERTEX
  8
LAYER_1
 62
     7
  6
CONTINUOUS
 10
2.296181
 20
0.436626
  0
VERTEX
  8
LAYER_1
 62
     7
  6
CONTINUOUS
 10
2.242154
 20
0.438429
  0
VERTEX
  8
LAYER_1
 62
     7
  6
CONTINUOUS
 10
2.189020
 20
0.438429
  0
VERTEX
  8
LAYER_1
 62
     7
  6
CONTINUOUS
 10
2.138594
 20
0.436626
  0
VERTEX
  8
LAYER_1
 62
     7
  6
CONTINUOUS
 10
2.089965
 20
0.433929
  0
VERTEX
  8
LAYER_1
 62
     7
  6
CONTINUOUS
 10
2.047642
 20
0.429425
  0
VERTEX
  8
LAYER_1
 62
     7
  6
CONTINUOUS
 10
2.019728
 20
0.424921
  0
VERTEX
  8
LAYER_1
 62
     7
  6
CONTINUOUS
 10
2.009819
 20
0.424024
  0
VERTEX
  8
LAYER_1
 62
     7
  6
CONTINUOUS
 10
2.022429
 20
0.405110
  0
VERTEX
  8
LAYER_1
 62
     7
  6
CONTINUOUS
 10
2.035937
 20
0.375394
  0
VERTEX
  8
LAYER_1
 62
     7
  6
CONTINUOUS
 10
2.048543
 20
0.336673
  0
VERTEX
  8
LAYER_1
 62
     7
  6
CONTINUOUS
 10
2.060248
 20
0.288945
  0
VERTEX
  8
LAYER_1
 62
     7
  6
CONTINUOUS
 10
2.071055
 20
0.235815
  0
VERTEX
  8
LAYER_1
 62
     7
  6
CONTINUOUS
 10
2.080059
 20
0.177283
  0
VERTEX
  8
LAYER_1
 62
     7
  6
CONTINUOUS
 10
2.087264
 20
0.115146
  0
VERTEX
  8
LAYER_1
 62
     7
  6
CONTINUOUS
 10
2.092665
 20
0.050311
  0
VERTEX
  8
LAYER_1
 62
     7
  6
CONTINUOUS
 10
2.094469
 20
-0.014524
  0
VERTEX
  8
LAYER_1
 62
     7
  6
CONTINUOUS
 10
2.095366
 20
-0.634972
  0
VERTEX
  8
LAYER_1
 62
     7
  6
CONTINUOUS
 10
2.095366
 20
-0.652087
  0
VERTEX
  8
LAYER_1
 62
     7
  6
CONTINUOUS
 10
1.557768
 20
0.408713
  0
VERTEX
  8
LAYER_1
 62
     7
  6
CONTINUOUS
 10
1.554165
 20
0.415016
  0
VERTEX
  8
LAYER_1
 62
     7
  6
CONTINUOUS
 10
1.492933
 20
0.561799
  0
SEQEND
  8
0
  0
POLYLINE
  8
LAYER_1
 62
     7
  6
CONTINUOUS
 66
     1
 40
0.003000
 41
0.003000
  0
VERTEX
  8
LAYER_1
 62
     7
  6
CONTINUOUS
 10
1.124220
 20
-0.609220
  0
VERTEX
  8
LAYER_1
 62
     7
  6
CONTINUOUS
 10
1.322776
 20
-0.395311
  0
VERTEX
  8
LAYER_1
 62
     7
  6
CONTINUOUS
 10
1.084740
 20
-0.401945
  0
VERTEX
  8
LAYER_1
 62
     7
  6
CONTINUOUS
 10
0.962854
 20
-0.403028
  0
VERTEX
  8
LAYER_1
 62
     7
  6
CONTINUOUS
 10
0.836906
 20
-0.409189
  0
VERTEX
  8
LAYER_1
 62
     7
  6
CONTINUOUS
 10
0.708228
 20
-0.414531
  0
VERTEX
  8
LAYER_1
 62
     7
  6
CONTINUOUS
 10
0.577756
 20
-0.419917
  0
VERTEX
  8
LAYER_1
 62
     7
  6
CONTINUOUS
 10
0.443705
 20
-0.426307
  0
VERTEX
  8
LAYER_1
 62
     7
  6
CONTINUOUS
 10
0.309677
 20
-0.433594
  0
VERTEX
  8
LAYER_1
 62
     7
  6
CONTINUOUS
 10
0.219756
 20
-0.439669
  0
VERTEX
  8
LAYER_1
 62
     7
  6
CONTINUOUS
 10
0.129843
 20
-0.445744
  0
VERTEX
  8
LAYER_1
 62
     7
  6
CONTINUOUS
 10
0.039949
 20
-0.452720
  0
VERTEX
  8
LAYER_1
 62
     7
  6
CONTINUOUS
 10
-0.049898
 20
-0.461496
  0
VERTEX
  8
LAYER_1
 62
     7
  6
CONTINUOUS
 10
-0.137937
 20
-0.470224
  0
VERTEX
  8
LAYER_1
 62
     7
  6
CONTINUOUS
 10
-0.225929
 20
-0.480752
  0
VERTEX
  8
LAYER_1
 62
     7
  6
CONTINUOUS
 10
-0.312972
 20
-0.493051
  0
VERTEX
  8
LAYER_1
 62
     7
  6
CONTINUOUS
 10
-0.399094
 20
-0.506228
  0
VERTEX
  8
LAYER_1
 62
     7
  6
CONTINUOUS
 10
-0.482465
 20
-0.521134
  0
VERTEX
  8
LAYER_1
 62
     7
  6
CONTINUOUS
 10
-0.564906
 20
-0.536913
  0
VERTEX
  8
LAYER_1
 62
     7
  6
CONTINUOUS
 10
-0.645476
 20
-0.555343
  0
VERTEX
  8
LAYER_1
 62
     7
  6
CONTINUOUS
 10
-0.724201
 20
-0.575524
  0
VERTEX
  8
LAYER_1
 62
     7
  6
CONTINUOUS
 10
-0.800142
 20
-0.598331
  0
VERTEX
  8
LAYER_1
 62
     7
  6
CONTINUOUS
 10
-0.828724
 20
-0.607220
  0
VERTEX
  8
LAYER_1
 62
     7
  6
CONTINUOUS
 10
-0.860787
 20
-0.620717
  0
VERTEX
  8
LAYER_1
 62
     7
  6
CONTINUOUS
 10
-0.894520
 20
-0.638760
  0
VERTEX
  8
LAYER_1
 62
     7
  6
CONTINUOUS
 10
-0.926283
 20
-0.663055
  0
VERTEX
  8
LAYER_1
 62
     7
  6
CONTINUOUS
 10
-0.956024
 20
-0.695402
  0
VERTEX
  8
LAYER_1
 62
     7
  6
CONTINUOUS
 10
-0.979240
 20
-0.735677
  0
VERTEX
  8
LAYER_1
 62
     7
  6
CONTINUOUS
 10
-0.994106
 20
-0.784732
  0
VERTEX
  8
LAYER_1
 62
     7
  6
CONTINUOUS
 10
-0.997874
 20
-0.844291
  0
VERTEX
  8
LAYER_1
 62
     7
  6
CONTINUOUS
 10
-0.990311
 20
-0.890028
  0
VERTEX
  8
LAYER_1
 62
     7
  6
CONTINUOUS
 10
-0.975768
 20
-0.927465
  0
VERTEX
  8
LAYER_1
 62
     7
  6
CONTINUOUS
 10
-0.949650
 20
-0.960079
  0
VERTEX
  8
LAYER_1
 62
     7
  6
CONTINUOUS
 10
-0.909374
 20
-0.983291
  0
VERTEX
  8
LAYER_1
 62
     7
  6
CONTINUOUS
 10
-0.862264
 20
-0.992807
  0
VERTEX
  8
LAYER_1
 62
     7
  6
CONTINUOUS
 10
-0.812106
 20
-0.982421
  0
VERTEX
  8
LAYER_1
 62
     7
  6
CONTINUOUS
 10
-0.760858
 20
-0.945878
  0
VERTEX
  8
LAYER_1
 62
     7
  6
CONTINUOUS
 10
-0.745720
 20
-0.906728
  0
VERTEX
  8
LAYER_1
 62
     7
  6
CONTINUOUS
 10
-0.749535
 20
-0.866291
  0
VERTEX
  8
LAYER_1
 62
     7
  6
CONTINUOUS
 10
-0.769232
 20
-0.838008
  0
VERTEX
  8
LAYER_1
 62
     7
  6
CONTINUOUS
 10
-0.817236
 20
-0.828516
  0
VERTEX
  8
LAYER_1
 62
     7
  6
CONTINUOUS
 10
-0.851024
 20
-0.844760
  0
VERTEX
  8
LAYER_1
 62
     7
  6
CONTINUOUS
 10
-0.863882
 20
-0.868535
  0
VERTEX
  8
LAYER_1
 62
     7
  6
CONTINUOUS
 10
-0.867311
 20
-0.874937
  0
VERTEX
  8
LAYER_1
 62
     7
  6
CONTINUOUS
 10
-0.872654
 20
-0.844453
  0
VERTEX
  8
LAYER_1
 62
     7
  6
CONTINUOUS
 10
-0.868819
 20
-0.820024
  0
VERTEX
  8
LAYER_1
 62
     7
  6
CONTINUOUS
 10
-0.859413
 20
-0.801748
  0
VERTEX
  8
LAYER_1
 62
     7
  6
CONTINUOUS
 10
-0.818921
 20
-0.767303
  0
VERTEX
  8
LAYER_1
 62
     7
  6
CONTINUOUS
 10
-0.771433
 20
-0.757894
  0
VERTEX
  8
LAYER_1
 62
     7
  6
CONTINUOUS
 10
-0.726201
 20
-0.764756
  0
VERTEX
  8
LAYER_1
 62
     7
  6
CONTINUOUS
 10
-0.695150
 20
-0.780118
  0
VERTEX
  8
LAYER_1
 62
     7
  6
CONTINUOUS
 10
-0.666579
 20
-0.803657
  0
VERTEX
  8
LAYER_1
 62
     7
  6
CONTINUOUS
 10
-0.642307
 20
-0.834520
  0
VERTEX
  8
LAYER_1
 62
     7
  6
CONTINUOUS
 10
-0.623315
 20
-0.870031
  0
VERTEX
  8
LAYER_1
 62
     7
  6
CONTINUOUS
 10
-0.611370
 20
-0.911142
  0
VERTEX
  8
LAYER_1
 62
     7
  6
CONTINUOUS
 10
-0.608386
 20
-0.954299
  0
VERTEX
  8
LAYER_1
 62
     7
  6
CONTINUOUS
 10
-0.616126
 20
-1.000457
  0
VERTEX
  8
LAYER_1
 62
     7
  6
CONTINUOUS
 10
-0.635567
 20
-1.046933
  0
VERTEX
  8
LAYER_1
 62
     7
  6
CONTINUOUS
 10
-0.667610
 20
-1.093756
  0
VERTEX
  8
LAYER_1
 62
     7
  6
CONTINUOUS
 10
-0.694874
 20
-1.117929
  0
VERTEX
  8
LAYER_1
 62
     7
  6
CONTINUOUS
 10
-0.733059
 20
-1.137898
  0
VERTEX
  8
LAYER_1
 62
     7
  6
CONTINUOUS
 10
-0.777697
 20
-1.152634
  0
VERTEX
  8
LAYER_1
 62
     7
  6
CONTINUOUS
 10
-0.827862
 20
-1.163024
  0
VERTEX
  8
LAYER_1
 62
     7
  6
CONTINUOUS
 10
-0.880870
 20
-1.168087
  0
VERTEX
  8
LAYER_1
 62
     7
  6
CONTINUOUS
 10
-0.934031
 20
-1.167744
  0
VERTEX
  8
LAYER_1
 62
     7
  6
CONTINUOUS
 10
-0.985535
 20
-1.161953
  0
VERTEX
  8
LAYER_1
 62
     7
  6
CONTINUOUS
 10
-1.029992
 20
-1.150563
  0
VERTEX
  8
LAYER_1
 62
     7
  6
CONTINUOUS
 10
-1.077295
 20
-1.133846
  0
VERTEX
  8
LAYER_1
 62
     7
  6
CONTINUOUS
 10
-1.123846
 20
-1.111705
  0
VERTEX
  8
LAYER_1
 62
     7
  6
CONTINUOUS
 10
-1.169598
 20
-1.085937
  0
VERTEX
  8
LAYER_1
 62
     7
  6
CONTINUOUS
 10
-1.212776
 20
-1.055594
  0
VERTEX
  8
LAYER_1
 62
     7
  6
CONTINUOUS
 10
-1.250618
 20
-1.022402
  0
VERTEX
  8
LAYER_1
 62
     7
  6
CONTINUOUS
 10
-1.281366
 20
-0.985413
  0
VERTEX
  8
LAYER_1
 62
     7
  6
CONTINUOUS
 10
-1.304957
 20
-0.946421
  0
VERTEX
  8
LAYER_1
 62
     7
  6
CONTINUOUS
 10
-1.337079
 20
0.221996
  0
VERTEX
  8
LAYER_1
 62
     7
  6
CONTINUOUS
 10
-1.315661
 20
0.262220
  0
VERTEX
  8
LAYER_1
 62
     7
  6
CONTINUOUS
 10
-1.286972
 20
0.299945
  0
VERTEX
  8
LAYER_1
 62
     7
  6
CONTINUOUS
 10
-1.251031
 20
0.336067
  0
VERTEX
  8
LAYER_1
 62
     7
  6
CONTINUOUS
 10
-1.209591
 20
0.368732
  0
VERTEX
  8
LAYER_1
 62
     7
  6
CONTINUOUS
 10
-1.165319
 20
0.396976
  0
VERTEX
  8
LAYER_1
 62
     7
  6
CONTINUOUS
 10
-1.120055
 20
0.421646
  0
VERTEX
  8
LAYER_1
 62
     7
  6
CONTINUOUS
 10
-1.073744
 20
0.440933
  0
VERTEX
  8
LAYER_1
 62
     7
  6
CONTINUOUS
 10
-1.029957
 20
0.453850
  0
VERTEX
  8
LAYER_1
 62
     7
  6
CONTINUOUS
 10
-0.978843
 20
0.462461
  0
VERTEX
  8
LAYER_1
 62
     7
  6
CONTINUOUS
 10
-0.925811
 20
0.466622
  0
VERTEX
  8
LAYER_1
 62
     7
  6
CONTINUOUS
 10
-0.872598
 20
0.464480
  0
VERTEX
  8
LAYER_1
 62
     7
  6
CONTINUOUS
 10
-0.821945
 20
0.456866
  0
VERTEX
  8
LAYER_1
 62
     7
  6
CONTINUOUS
 10
-0.776563
 20
0.444598
  0
VERTEX
  8
LAYER_1
 62
     7
  6
CONTINUOUS
 10
-0.737335
 20
0.426760
  0
VERTEX
  8
LAYER_1
 62
     7
  6
CONTINUOUS
 10
-0.708764
 20
0.403224
  0
VERTEX
  8
LAYER_1
 62
     7
  6
CONTINUOUS
 10
-0.674217
 20
0.359130
  0
VERTEX
  8
LAYER_1
 62
     7
  6
CONTINUOUS
 10
-0.652232
 20
0.312886
  0
VERTEX
  8
LAYER_1
 62
     7
  6
CONTINUOUS
 10
-0.641992
 20
0.268130
  0
VERTEX
  8
LAYER_1
 62
     7
  6
CONTINUOUS
 10
-0.642579
 20
0.223972
  0
VERTEX
  8
LAYER_1
 62
     7
  6
CONTINUOUS
 10
-0.652264
 20
0.183169
  0
VERTEX
  8
LAYER_1
 62
     7
  6
CONTINUOUS
 10
-0.669252
 20
0.145764
  0
VERTEX
  8
LAYER_1
 62
     7
  6
CONTINUOUS
 10
-0.691819
 20
0.114520
  0
VERTEX
  8
LAYER_1
 62
     7
  6
CONTINUOUS
 10
-0.719055
 20
0.089445
  0
VERTEX
  8
LAYER_1
 62
     7
  6
CONTINUOUS
 10
-0.749193
 20
0.071504
  0
VERTEX
  8
LAYER_1
 62
     7
  6
CONTINUOUS
 10
-0.793976
 20
0.062161
  0
VERTEX
  8
LAYER_1
 62
     7
  6
CONTINUOUS
 10
-0.841933
 20
0.069854
  0
VERTEX
  8
LAYER_1
 62
     7
  6
CONTINUOUS
 10
-0.875835
 20
0.090539
  0
VERTEX
  8
LAYER_1
 62
     7
  6
CONTINUOUS
 10
-0.891878
 20
0.117126
  0
VERTEX
  8
LAYER_1
 62
     7
  6
CONTINUOUS
 10
-0.899823
 20
0.143929
  0
VERTEX
  8
LAYER_1
 62
     7
  6
CONTINUOUS
 10
-0.897717
 20
0.165610
  0
VERTEX
  8
LAYER_1
 62
     7
  6
CONTINUOUS
 10
-0.896165
 20
0.174661
  0
VERTEX
  8
LAYER_1
 62
     7
  6
CONTINUOUS
 10
-0.878244
 20
0.145429
  0
VERTEX
  8
LAYER_1
 62
     7
  6
CONTINUOUS
 10
-0.843591
 20
0.130165
  0
VERTEX
  8
LAYER_1
 62
     7
  6
CONTINUOUS
 10
-0.804134
 20
0.136654
  0
VERTEX
  8
LAYER_1
 62
     7
  6
CONTINUOUS
 10
-0.778067
 20
0.171602
  0
VERTEX
  8
LAYER_1
 62
     7
  6
CONTINUOUS
 10
-0.776504
 20
0.213083
  0
VERTEX
  8
LAYER_1
 62
     7
  6
CONTINUOUS
 10
-0.802146
 20
0.261024
  0
VERTEX
  8
LAYER_1
 62
     7
  6
CONTINUOUS
 10
-0.846949
 20
0.285016
  0
VERTEX
  8
LAYER_1
 62
     7
  6
CONTINUOUS
 10
-0.897606
 20
0.292630
  0
VERTEX
  8
LAYER_1
 62
     7
  6
CONTINUOUS
 10
-0.944118
 20
0.280543
  0
VERTEX
  8
LAYER_1
 62
     7
  6
CONTINUOUS
 10
-0.983031
 20
0.254248
  0
VERTEX
  8
LAYER_1
 62
     7
  6
CONTINUOUS
 10
-1.007319
 20
0.220248
  0
VERTEX
  8
LAYER_1
 62
     7
  6
CONTINUOUS
 10
-1.019807
 20
0.182972
  0
VERTEX
  8
LAYER_1
 62
     7
  6
CONTINUOUS
 10
-1.024823
 20
0.135992
  0
VERTEX
  8
LAYER_1
 62
     7
  6
CONTINUOUS
 10
-1.017787
 20
0.076728
  0
VERTEX
  8
LAYER_1
 62
     7
  6
CONTINUOUS
 10
-1.000248
 20
0.028567
  0
VERTEX
  8
LAYER_1
 62
     7
  6
CONTINUOUS
 10
-0.974882
 20
-0.009472
  0
VERTEX
  8
LAYER_1
 62
     7
  6
CONTINUOUS
 10
-0.943406
 20
-0.040138
  0
VERTEX
  8
LAYER_1
 62
     7
  6
CONTINUOUS
 10
-0.910358
 20
-0.062654
  0
VERTEX
  8
LAYER_1
 62
     7
  6
CONTINUOUS
 10
-0.875657
 20
-0.079717
  0
VERTEX
  8
LAYER_1
 62
     7
  6
CONTINUOUS
 10
-0.842929
 20
-0.090528
  0
VERTEX
  8
LAYER_1
 62
     7
  6
CONTINUOUS
 10
-0.813874
 20
-0.098736
  0
VERTEX
  8
LAYER_1
 62
     7
  6
CONTINUOUS
 10
-0.736815
 20
-0.116437
  0
VERTEX
  8
LAYER_1
 62
     7
  6
CONTINUOUS
 10
-0.657106
 20
-0.132264
  0
VERTEX
  8
LAYER_1
 62
     7
  6
CONTINUOUS
 10
-0.575650
 20
-0.146236
  0
VERTEX
  8
LAYER_1
 62
     7
  6
CONTINUOUS
 10
-0.492437
 20
-0.158362
  0
VERTEX
  8
LAYER_1
 62
     7
  6
CONTINUOUS
 10
-0.408374
 20
-0.168665
  0
VERTEX
  8
LAYER_1
 62
     7
  6
CONTINUOUS
 10
-0.321661
 20
-0.177091
  0
VERTEX
  8
LAYER_1
 62
     7
  6
CONTINUOUS
 10
-0.234094
 20
-0.183693
  0
VERTEX
  8
LAYER_1
 62
     7
  6
CONTINUOUS
 10
-0.145657
 20
-0.189370
  0
VERTEX
  8
LAYER_1
 62
     7
  6
CONTINUOUS
 10
-0.057244
 20
-0.194146
  0
VERTEX
  8
LAYER_1
 62
     7
  6
CONTINUOUS
 10
0.032921
 20
-0.197075
  0
VERTEX
  8
LAYER_1
 62
     7
  6
CONTINUOUS
 10
0.123063
 20
-0.199098
  0
VERTEX
  8
LAYER_1
 62
     7
  6
CONTINUOUS
 10
0.213205
 20
-0.201122
  0
VERTEX
  8
LAYER_1
 62
     7
  6
CONTINUOUS
 10
0.303291
 20
-0.201350
  0
VERTEX
  8
LAYER_1
 62
     7
  6
CONTINUOUS
 10
0.437516
 20
-0.201264
  0
VERTEX
  8
LAYER_1
 62
     7
  6
CONTINUOUS
 10
0.571717
 20
-0.200276
  0
VERTEX
  8
LAYER_1
 62
     7
  6
CONTINUOUS
 10
0.702291
 20
-0.198488
  0
VERTEX
  8
LAYER_1
 62
     7
  6
CONTINUOUS
 10
0.831091
 20
-0.197654
  0
VERTEX
  8
LAYER_1
 62
     7
  6
CONTINUOUS
 10
0.957161
 20
-0.195984
  0
VERTEX
  8
LAYER_1
 62
     7
  6
CONTINUOUS
 10
1.077858
 20
-0.195374
  0
VERTEX
  8
LAYER_1
 62
     7
  6
CONTINUOUS
 10
1.140413
 20
-0.193890
  0
VERTEX
  8
LAYER_1
 62
     7
  6
CONTINUOUS
 10
1.200524
 20
-0.198780
  0
VERTEX
  8
LAYER_1
 62
     7
  6
CONTINUOUS
 10
1.321571
 20
-0.193823
  0
VERTEX
  8
LAYER_1
 62
     7
  6
CONTINUOUS
 10
0.850764
 20
-0.020331
  0
SEQEND
  8
0
  0
POLYLINE
  8
LAYER_1
 62
     7
  6
CONTINUOUS
 66
     1
 40
0.003000
 41
0.003000
  0
VERTEX
  8
LAYER_1
 62
     7
  6
CONTINUOUS
 10
-1.019898
 20
-0.387268
  0
VERTEX
  8
LAYER_1
 62
     7
  6
CONTINUOUS
 10
-1.069346
 20
-0.357996
  0
VERTEX
  8
LAYER_1
 62
     7
  6
CONTINUOUS
 10
-1.122370
 20
-0.329728
  0
VERTEX
  8
LAYER_1
 62
     7
  6
CONTINUOUS
 10
-1.160197
 20
-0.297433
  0
VERTEX
  8
LAYER_1
 62
     7
  6
CONTINUOUS
 10
-1.190091
 20
-0.258618
  0
VERTEX
  8
LAYER_1
 62
     7
  6
CONTINUOUS
 10
-1.212055
 20
-0.213280
  0
VERTEX
  8
LAYER_1
 62
     7
  6
CONTINUOUS
 10
-1.227866
 20
-0.162366
  0
VERTEX
  8
LAYER_1
 62
     7
  6
CONTINUOUS
 10
-1.238307
 20
-0.110406
  0
VERTEX
  8
LAYER_1
 62
     7
  6
CONTINUOUS
 10
-1.208106
 20
-0.127591
  0
VERTEX
  8
LAYER_1
 62
     7
  6
CONTINUOUS
 10
-1.175957
 20
-0.150130
  0
VERTEX
  8
LAYER_1
 62
     7
  6
CONTINUOUS
 10
-1.141106
 20
-0.172594
  0
VERTEX
  8
LAYER_1
 62
     7
  6
CONTINUOUS
 10
-1.104457
 20
-0.195008
  0
VERTEX
  8
LAYER_1
 62
     7
  6
CONTINUOUS
 10
-1.066031
 20
-0.216472
  0
VERTEX
  8
LAYER_1
 62
     7
  6
CONTINUOUS
 10
-1.025827
 20
-0.236988
  0
VERTEX
  8
LAYER_1
 62
     7
  6
CONTINUOUS
 10
-0.983850
 20
-0.256555
  0
VERTEX
  8
LAYER_1
 62
     7
  6
CONTINUOUS
 10
-0.940102
 20
-0.275169
  0
VERTEX
  8
LAYER_1
 62
     7
  6
CONTINUOUS
 10
-0.894571
 20
-0.292835
  0
VERTEX
  8
LAYER_1
 62
     7
  6
CONTINUOUS
 10
-0.848217
 20
-0.307776
  0
VERTEX
  8
LAYER_1
 62
     7
  6
CONTINUOUS
 10
-0.799213
 20
-0.320843
  0
VERTEX
  8
LAYER_1
 62
     7
  6
CONTINUOUS
 10
-0.750283
 20
-0.331209
  0
VERTEX
  8
LAYER_1
 62
     7
  6
CONTINUOUS
 10
-0.699622
 20
-0.338827
  0
VERTEX
  8
LAYER_1
 62
     7
  6
CONTINUOUS
 10
-0.677945
 20
-0.340929
  0
VERTEX
  8
LAYER_1
 62
     7
  6
CONTINUOUS
 10
-0.655366
 20
-0.343016
  0
VERTEX
  8
LAYER_1
 62
     7
  6
CONTINUOUS
 10
-0.699276
 20
-0.351429
  0
VERTEX
  8
LAYER_1
 62
     7
  6
CONTINUOUS
 10
-0.749441
 20
-0.361815
  0
VERTEX
  8
LAYER_1
 62
     7
  6
CONTINUOUS
 10
-0.797705
 20
-0.375756
  0
VERTEX
  8
LAYER_1
 62
     7
  6
CONTINUOUS
 10
-0.845941
 20
-0.390594
  0
VERTEX
  8
LAYER_1
 62
     7
  6
CONTINUOUS
 10
-0.891378
 20
-0.408957
  0
VERTEX
  8
LAYER_1
 62
     7
  6
CONTINUOUS
 10
-0.935894
 20
-0.428197
  0
VERTEX
  8
LAYER_1
 62
     7
  6
CONTINUOUS
 10
-0.978555
 20
-0.449189
  0
VERTEX
  8
LAYER_1
 62
     7
  6
CONTINUOUS
 10
-1.019394
 20
-0.471031
  0
VERTEX
  8
LAYER_1
 62
     7
  6
CONTINUOUS
 10
-1.058382
 20
-0.494622
  0
VERTEX
  8
LAYER_1
 62
     7
  6
CONTINUOUS
 10
-1.095571
 20
-0.518169
  0
VERTEX
  8
LAYER_1
 62
     7
  6
CONTINUOUS
 10
-1.130961
 20
-0.541661
  0
VERTEX
  8
LAYER_1
 62
     7
  6
CONTINUOUS
 10
-1.164524
 20
-0.566004
  0
VERTEX
  8
LAYER_1
 62
     7
  6
CONTINUOUS
 10
-1.195386
 20
-0.590280
  0
VERTEX
  8
LAYER_1
 62
     7
  6
CONTINUOUS
 10
-1.222720
 20
-0.611748
  0
VERTEX
  8
LAYER_1
 62
     7
  6
CONTINUOUS
 10
-1.217031
 20
-0.556642
  0
VERTEX
  8
LAYER_1
 62
     7
  6
CONTINUOUS
 10
-1.204012
 20
-0.505835
  0
VERTEX
  8
LAYER_1
 62
     7
  6
CONTINUOUS
 10
-1.184571
 20
-0.459358
  0
VERTEX
  8
LAYER_1
 62
     7
  6
CONTINUOUS
 10
-1.156878
 20
-0.418059
  0
VERTEX
  8
LAYER_1
 62
     7
  6
CONTINUOUS
 10
-1.120890
 20
-0.383736
  0
VERTEX
  8
LAYER_1
 62
     7
  6
CONTINUOUS
 10
-1.078350
 20
-0.358244
  0
VERTEX
  8
LAYER_1
 62
     7
  6
CONTINUOUS
 10
-1.026079
 20
-0.326177
  0
SEQEND
  8
0
  0
POLYLINE
  8
LAYER_1
 62
     7
  6
CONTINUOUS
 66
     1
 40
0.003000
 41
0.003000
  0
VERTEX
  8
LAYER_1
 62
     7
  6
CONTINUOUS
 10
1.718961
 20
0.457343
  0
VERTEX
  8
LAYER_1
 62
     7
  6
CONTINUOUS
 10
1.560472
 20
0.416815
  0
VERTEX
  8
LAYER_1
 62
     7
  6
CONTINUOUS
 10
1.507339
 20
0.409614
  0
VERTEX
  8
LAYER_1
 62
     7
  6
CONTINUOUS
 10
1.449709
 20
0.406909
  0
VERTEX
  8
LAYER_1
 62
     7
  6
CONTINUOUS
 10
1.383969
 20
0.409614
  0
VERTEX
  8
LAYER_1
 62
     7
  6
CONTINUOUS
 10
1.320035
 20
0.414114
  0
VERTEX
  8
LAYER_1
 62
     7
  6
CONTINUOUS
 10
1.269606
 20
0.419520
  0
VERTEX
  8
LAYER_1
 62
     7
  6
CONTINUOUS
 10
1.283114
 20
0.390705
  0
VERTEX
  8
LAYER_1
 62
     7
  6
CONTINUOUS
 10
1.299323
 20
0.334874
  0
VERTEX
  8
LAYER_1
 62
     7
  6
CONTINUOUS
 10
1.311028
 20
0.267335
  0
VERTEX
  8
LAYER_1
 62
     7
  6
CONTINUOUS
 10
1.313732
 20
0.204295
  0
VERTEX
  8
LAYER_1
 62
     7
  6
CONTINUOUS
 10
1.310079
 20
-0.193268
  0
VERTEX
  8
LAYER_1
 62
     7
  6
CONTINUOUS
 10
1.145972
 20
-0.029161
  0
SEQEND
  8
0
  0
POLYLINE
  8
LAYER_1
 62
     7
  6
CONTINUOUS
 66
     1
 40
0.003000
 41
0.003000
  0
VERTEX
  8
LAYER_1
 62
     7
  6
CONTINUOUS
 10
-0.341441
 20
0.436205
  0
VERTEX
  8
LAYER_1
 62
     7
  6
CONTINUOUS
 10
0.208232
 20
0.673937
  0
VERTEX
  8
LAYER_1
 62
     7
  6
CONTINUOUS
 10
-0.212563
 20
0.655504
  0
VERTEX
  8
LAYER_1
 62
     7
  6
CONTINUOUS
 10
-0.502803
 20
0.642398
  0
VERTEX
  8
LAYER_1
 62
     7
  6
CONTINUOUS
 10
-0.628756
 20
0.636232
  0
VERTEX
  8
LAYER_1
 62
     7
  6
CONTINUOUS
 10
-0.757429
 20
0.630894
  0
VERTEX
  8
LAYER_1
 62
     7
  6
CONTINUOUS
 10
-0.887906
 20
0.625508
  0
VERTEX
  8
LAYER_1
 62
     7
  6
CONTINUOUS
 10
-1.021953
 20
0.619118
  0
VERTEX
  8
LAYER_1
 62
     7
  6
CONTINUOUS
 10
-1.155980
 20
0.611831
  0
VERTEX
  8
LAYER_1
 62
     7
  6
CONTINUOUS
 10
-1.245898
 20
0.605756
  0
VERTEX
  8
LAYER_1
 62
     7
  6
CONTINUOUS
 10
-1.335815
 20
0.599681
  0
VERTEX
  8
LAYER_1
 62
     7
  6
CONTINUOUS
 10
-1.425709
 20
0.592705
  0
VERTEX
  8
LAYER_1
 62
     7
  6
CONTINUOUS
 10
-1.515551
 20
0.583929
  0
VERTEX
  8
LAYER_1
 62
     7
  6
CONTINUOUS
 10
-1.603594
 20
0.575201
  0
VERTEX
  8
LAYER_1
 62
     7
  6
CONTINUOUS
 10
-1.691591
 20
0.564677
  0
VERTEX
  8
LAYER_1
 62
     7
  6
CONTINUOUS
 10
-1.778630
 20
0.552374
  0
VERTEX
  8
LAYER_1
 62
     7
  6
CONTINUOUS
 10
-1.864752
 20
0.539197
  0
VERTEX
  8
LAYER_1
 62
     7
  6
CONTINUOUS
 10
-1.948122
 20
0.524291
  0
VERTEX
  8
LAYER_1
 62
     7
  6
CONTINUOUS
 10
-2.030567
 20
0.508516
  0
VERTEX
  8
LAYER_1
 62
     7
  6
CONTINUOUS
 10
-2.111138
 20
0.490083
  0
VERTEX
  8
LAYER_1
 62
     7
  6
CONTINUOUS
 10
-2.189858
 20
0.469902
  0
VERTEX
  8
LAYER_1
 62
     7
  6
CONTINUOUS
 10
-2.265803
 20
0.447094
  0
VERTEX
  8
LAYER_1
 62
     7
  6
CONTINUOUS
 10
-2.294382
 20
0.438201
  0
VERTEX
  8
LAYER_1
 62
     7
  6
CONTINUOUS
 10
-2.326445
 20
0.424709
  0
VERTEX
  8
LAYER_1
 62
     7
  6
CONTINUOUS
 10
-2.360181
 20
0.406665
  0
VERTEX
  8
LAYER_1
 62
     7
  6
CONTINUOUS
 10
-2.391941
 20
0.382370
  0
VERTEX
  8
LAYER_1
 62
     7
  6
CONTINUOUS
 10
-2.421685
 20
0.350024
  0
VERTEX
  8
LAYER_1
 62
     7
  6
CONTINUOUS
 10
-2.444898
 20
0.309748
  0
VERTEX
  8
LAYER_1
 62
     7
  6
CONTINUOUS
 10
-2.459764
 20
0.260693
  0
VERTEX
  8
LAYER_1
 62
     7
  6
CONTINUOUS
 10
-2.463535
 20
0.201134
  0
VERTEX
  8
LAYER_1
 62
     7
  6
CONTINUOUS
 10
-2.455969
 20
0.155398
  0
VERTEX
  8
LAYER_1
 62
     7
  6
CONTINUOUS
 10
-2.441429
 20
0.117965
  0
VERTEX
  8
LAYER_1
 62
     7
  6
CONTINUOUS
 10
-2.415307
 20
0.085350
  0
VERTEX
  8
LAYER_1
 62
     7
  6
CONTINUOUS
 10
-2.375031
 20
0.062130
  0
VERTEX
  8
LAYER_1
 62
     7
  6
CONTINUOUS
 10
-2.327925
 20
0.052618
  0
VERTEX
  8
LAYER_1
 62
     7
  6
CONTINUOUS
 10
-2.277764
 20
0.063004
  0
VERTEX
  8
LAYER_1
 62
     7
  6
CONTINUOUS
 10
-2.226520
 20
0.099547
  0
VERTEX
  8
LAYER_1
 62
     7
  6
CONTINUOUS
 10
-2.211382
 20
0.138701
  0
VERTEX
  8
LAYER_1
 62
     7
  6
CONTINUOUS
 10
-2.215197
 20
0.179134
  0
VERTEX
  8
LAYER_1
 62
     7
  6
CONTINUOUS
 10
-2.234890
 20
0.207417
  0
VERTEX
  8
LAYER_1
 62
     7
  6
CONTINUOUS
 10
-2.282898
 20
0.216906
  0
VERTEX
  8
LAYER_1
 62
     7
  6
CONTINUOUS
 10
-2.316681
 20
0.200665
  0
VERTEX
  8
LAYER_1
 62
     7
  6
CONTINUOUS
 10
-2.329543
 20
0.176890
  0
VERTEX
  8
LAYER_1
 62
     7
  6
CONTINUOUS
 10
-2.332969
 20
0.170492
  0
VERTEX
  8
LAYER_1
 62
     7
  6
CONTINUOUS
 10
-2.338311
 20
0.200972
  0
VERTEX
  8
LAYER_1
 62
     7
  6
CONTINUOUS
 10
-2.334476
 20
0.225402
  0
VERTEX
  8
LAYER_1
 62
     7
  6
CONTINUOUS
 10
-2.325071
 20
0.243673
  0
VERTEX
  8
LAYER_1
 62
     7
  6
CONTINUOUS
 10
-2.284579
 20
0.278122
  0
VERTEX
  8
LAYER_1
 62
     7
  6
CONTINUOUS
 10
-2.237094
 20
0.287535
  0
VERTEX
  8
LAYER_1
 62
     7
  6
CONTINUOUS
 10
-2.191862
 20
0.280669
  0
VERTEX
  8
LAYER_1
 62
     7
  6
CONTINUOUS
 10
-2.160811
 20
0.265307
  0
VERTEX
  8
LAYER_1
 62
     7
  6
CONTINUOUS
 10
-2.132236
 20
0.241772
  0
VERTEX
  8
LAYER_1
 62
     7
  6
CONTINUOUS
 10
-2.107965
 20
0.210906
  0
VERTEX
  8
LAYER_1
 62
     7
  6
CONTINUOUS
 10
-2.088972
 20
0.175398
  0
VERTEX
  8
LAYER_1
 62
     7
  6
CONTINUOUS
 10
-2.077031
 20
0.134287
  0
VERTEX
  8
LAYER_1
 62
     7
  6
CONTINUOUS
 10
-2.074043
 20
0.091126
  0
VERTEX
  8
LAYER_1
 62
     7
  6
CONTINUOUS
 10
-2.081783
 20
0.044972
  0
VERTEX
  8
LAYER_1
 62
     7
  6
CONTINUOUS
 10
-2.101228
 20
-0.001508
  0
VERTEX
  8
LAYER_1
 62
     7
  6
CONTINUOUS
 10
-2.133272
 20
-0.048331
  0
VERTEX
  8
LAYER_1
 62
     7
  6
CONTINUOUS
 10
-2.160531
 20
-0.072504
  0
VERTEX
  8
LAYER_1
 62
     7
  6
CONTINUOUS
 10
-2.198717
 20
-0.092469
  0
VERTEX
  8
LAYER_1
 62
     7
  6
CONTINUOUS
 10
-2.243354
 20
-0.107209
  0
VERTEX
  8
LAYER_1
 62
     7
  6
CONTINUOUS
 10
-2.293520
 20
-0.117598
  0
VERTEX
  8
LAYER_1
 62
     7
  6
CONTINUOUS
 10
-2.346531
 20
-0.122657
  0
VERTEX
  8
LAYER_1
 62
     7
  6
CONTINUOUS
 10
-2.399689
 20
-0.122319
  0
VERTEX
  8
LAYER_1
 62
     7
  6
CONTINUOUS
 10
-2.451197
 20
-0.116528
  0
VERTEX
  8
LAYER_1
 62
     7
  6
CONTINUOUS
 10
-2.495654
 20
-0.105138
  0
VERTEX
  8
LAYER_1
 62
     7
  6
CONTINUOUS
 10
-2.542957
 20
-0.088421
  0
VERTEX
  8
LAYER_1
 62
     7
  6
CONTINUOUS
 10
-2.589508
 20
-0.066280
  0
VERTEX
  8
LAYER_1
 62
     7
  6
CONTINUOUS
 10
-2.635260
 20
-0.040512
  0
VERTEX
  8
LAYER_1
 62
     7
  6
CONTINUOUS
 10
-2.678433
 20
-0.010169
  0
VERTEX
  8
LAYER_1
 62
     7
  6
CONTINUOUS
 10
-2.716280
 20
0.023024
  0
VERTEX
  8
LAYER_1
 62
     7
  6
CONTINUOUS
 10
-2.747024
 20
0.060016
  0
VERTEX
  8
LAYER_1
 62
     7
  6
CONTINUOUS
 10
-2.770618
 20
0.099004
  0
VERTEX
  8
LAYER_1
 62
     7
  6
CONTINUOUS
 10
-2.802740
 20
1.267421
  0
VERTEX
  8
LAYER_1
 62
     7
  6
CONTINUOUS
 10
-2.781323
 20
1.307650
  0
VERTEX
  8
LAYER_1
 62
     7
  6
CONTINUOUS
 10
-2.752630
 20
1.345370
  0
VERTEX
  8
LAYER_1
 62
     7
  6
CONTINUOUS
 10
-2.716689
 20
1.381492
  0
VERTEX
  8
LAYER_1
 62
     7
  6
CONTINUOUS
 10
-2.675248
 20
1.414161
  0
VERTEX
  8
LAYER_1
 62
     7
  6
CONTINUOUS
 10
-2.630984
 20
1.442402
  0
VERTEX
  8
LAYER_1
 62
     7
  6
CONTINUOUS
 10
-2.585717
 20
1.467071
  0
VERTEX
  8
LAYER_1
 62
     7
  6
CONTINUOUS
 10
-2.539402
 20
1.486358
  0
VERTEX
  8
LAYER_1
 62
     7
  6
CONTINUOUS
 10
-2.495614
 20
1.499276
  0
VERTEX
  8
LAYER_1
 62
     7
  6
CONTINUOUS
 10
-2.444504
 20
1.507886
  0
VERTEX
  8
LAYER_1
 62
     7
  6
CONTINUOUS
 10
-2.391469
 20
1.512047
  0
VERTEX
  8
LAYER_1
 62
     7
  6
CONTINUOUS
 10
-2.338260
 20
1.509906
  0
VERTEX
  8
LAYER_1
 62
     7
  6
CONTINUOUS
 10
-2.287602
 20
1.502291
  0
VERTEX
  8
LAYER_1
 62
     7
  6
CONTINUOUS
 10
-2.242224
 20
1.490028
  0
VERTEX
  8
LAYER_1
 62
     7
  6
CONTINUOUS
 10
-2.202996
 20
1.472185
  0
VERTEX
  8
LAYER_1
 62
     7
  6
CONTINUOUS
 10
-2.174425
 20
1.448650
  0
VERTEX
  8
LAYER_1
 62
     7
  6
CONTINUOUS
 10
-2.139878
 20
1.404555
  0
VERTEX
  8
LAYER_1
 62
     7
  6
CONTINUOUS
 10
-2.117886
 20
1.358315
  0
VERTEX
  8
LAYER_1
 62
     7
  6
CONTINUOUS
 10
-2.107650
 20
1.313555
  0
VERTEX
  8
LAYER_1
 62
     7
  6
CONTINUOUS
 10
-2.108236
 20
1.269398
  0
VERTEX
  8
LAYER_1
 62
     7
  6
CONTINUOUS
 10
-2.117925
 20
1.228594
  0
VERTEX
  8
LAYER_1
 62
     7
  6
CONTINUOUS
 10
-2.134917
 20
1.191193
  0
VERTEX
  8
LAYER_1
 62
     7
  6
CONTINUOUS
 10
-2.157476
 20
1.159941
  0
VERTEX
  8
LAYER_1
 62
     7
  6
CONTINUOUS
 10
-2.184713
 20
1.134870
  0
VERTEX
  8
LAYER_1
 62
     7
  6
CONTINUOUS
 10
-2.214850
 20
1.116925
  0
VERTEX
  8
LAYER_1
 62
     7
  6
CONTINUOUS
 10
-2.259638
 20
1.107587
  0
VERTEX
  8
LAYER_1
 62
     7
  6
CONTINUOUS
 10
-2.307594
 20
1.115280
  0
VERTEX
  8
LAYER_1
 62
     7
  6
CONTINUOUS
 10
-2.341492
 20
1.135965
  0
VERTEX
  8
LAYER_1
 62
     7
  6
CONTINUOUS
 10
-2.357539
 20
1.162547
  0
VERTEX
  8
LAYER_1
 62
     7
  6
CONTINUOUS
 10
-2.365484
 20
1.189354
  0
VERTEX
  8
LAYER_1
 62
     7
  6
CONTINUOUS
 10
-2.363374
 20
1.211031
  0
VERTEX
  8
LAYER_1
 62
     7
  6
CONTINUOUS
 10
-2.361823
 20
1.220087
  0
VERTEX
  8
LAYER_1
 62
     7
  6
CONTINUOUS
 10
-2.343902
 20
1.190850
  0
VERTEX
  8
LAYER_1
 62
     7
  6
CONTINUOUS
 10
-2.309252
 20
1.175591
  0
VERTEX
  8
LAYER_1
 62
     7
  6
CONTINUOUS
 10
-2.269791
 20
1.182079
  0
VERTEX
  8
LAYER_1
 62
     7
  6
CONTINUOUS
 10
-2.243728
 20
1.217028
  0
VERTEX
  8
LAYER_1
 62
     7
  6
CONTINUOUS
 10
-2.242161
 20
1.258508
  0
VERTEX
  8
LAYER_1
 62
     7
  6
CONTINUOUS
 10
-2.267807
 20
1.306449
  0
VERTEX
  8
LAYER_1
 62
     7
  6
CONTINUOUS
 10
-2.312606
 20
1.330441
  0
VERTEX
  8
LAYER_1
 62
     7
  6
CONTINUOUS
 10
-2.363264
 20
1.338059
  0
VERTEX
  8
LAYER_1
 62
     7
  6
CONTINUOUS
 10
-2.409776
 20
1.325969
  0
VERTEX
  8
LAYER_1
 62
     7
  6
CONTINUOUS
 10
-2.448689
 20
1.299677
  0
VERTEX
  8
LAYER_1
 62
     7
  6
CONTINUOUS
 10
-2.472980
 20
1.265677
  0
VERTEX
  8
LAYER_1
 62
     7
  6
CONTINUOUS
 10
-2.485469
 20
1.228398
  0
VERTEX
  8
LAYER_1
 62
     7
  6
CONTINUOUS
 10
-2.490480
 20
1.181417
  0
VERTEX
  8
LAYER_1
 62
     7
  6
CONTINUOUS
 10
-2.483445
 20
1.122154
  0
VERTEX
  8
LAYER_1
 62
     7
  6
CONTINUOUS
 10
-2.465909
 20
1.073992
  0
VERTEX
  8
LAYER_1
 62
     7
  6
CONTINUOUS
 10
-2.440539
 20
1.035953
  0
VERTEX
  8
LAYER_1
 62
     7
  6
CONTINUOUS
 10
-2.409067
 20
1.005287
  0
VERTEX
  8
LAYER_1
 62
     7
  6
CONTINUOUS
 10
-2.376016
 20
0.982772
  0
VERTEX
  8
LAYER_1
 62
     7
  6
CONTINUOUS
 10
-2.341319
 20
0.965709
  0
VERTEX
  8
LAYER_1
 62
     7
  6
CONTINUOUS
 10
-2.308591
 20
0.954898
  0
VERTEX
  8
LAYER_1
 62
     7
  6
CONTINUOUS
 10
-2.279535
 20
0.946689
  0
VERTEX
  8
LAYER_1
 62
     7
  6
CONTINUOUS
 10
-2.202480
 20
0.928988
  0
VERTEX
  8
LAYER_1
 62
     7
  6
CONTINUOUS
 10
-2.122768
 20
0.913161
  0
VERTEX
  8
LAYER_1
 62
     7
  6
CONTINUOUS
 10
-2.041307
 20
0.899185
  0
VERTEX
  8
LAYER_1
 62
     7
  6
CONTINUOUS
 10
-1.958094
 20
0.887063
  0
VERTEX
  8
LAYER_1
 62
     7
  6
CONTINUOUS
 10
-1.874031
 20
0.876760
  0
VERTEX
  8
LAYER_1
 62
     7
  6
CONTINUOUS
 10
-1.787319
 20
0.868335
  0
VERTEX
  8
LAYER_1
 62
     7
  6
CONTINUOUS
 10
-1.699756
 20
0.861732
  0
VERTEX
  8
LAYER_1
 62
     7
  6
CONTINUOUS
 10
-1.611315
 20
0.856055
  0
VERTEX
  8
LAYER_1
 62
     7
  6
CONTINUOUS
 10
-1.522906
 20
0.851280
  0
VERTEX
  8
LAYER_1
 62
     7
  6
CONTINUOUS
 10
-1.432736
 20
0.848350
  0
VERTEX
  8
LAYER_1
 62
     7
  6
CONTINUOUS
 10
-1.342598
 20
0.846327
  0
VERTEX
  8
LAYER_1
 62
     7
  6
CONTINUOUS
 10
-1.252457
 20
0.844299
  0
VERTEX
  8
LAYER_1
 62
     7
  6
CONTINUOUS
 10
-1.162362
 20
0.844075
  0
VERTEX
  8
LAYER_1
 62
     7
  6
CONTINUOUS
 10
-1.028138
 20
0.844161
  0
VERTEX
  8
LAYER_1
 62
     7
  6
CONTINUOUS
 10
-0.893941
 20
0.845146
  0
VERTEX
  8
LAYER_1
 62
     7
  6
CONTINUOUS
 10
-0.763366
 20
0.846933
  0
VERTEX
  8
LAYER_1
 62
     7
  6
CONTINUOUS
 10
-0.634571
 20
0.847772
  0
VERTEX
  8
LAYER_1
 62
     7
  6
CONTINUOUS
 10
-0.508496
 20
0.849437
  0
VERTEX
  8
LAYER_1
 62
     7
  6
CONTINUOUS
 10
-0.387795
 20
0.850051
  0
VERTEX
  8
LAYER_1
 62
     7
  6
CONTINUOUS
 10
-0.316228
 20
0.848528
  0
VERTEX
  8
LAYER_1
 62
     7
  6
CONTINUOUS
 10
-0.265134
 20
0.846646
  0
VERTEX
  8
LAYER_1
 62
     7
  6
CONTINUOUS
 10
-0.144087
 20
0.851602
  0
VERTEX
  8
LAYER_1
 62
     7
  6
CONTINUOUS
 10
-0.614894
 20
1.025094
  0
SEQEND
  8
0
  0
POLYLINE
  8
LAYER_1
 62
     7
  6
CONTINUOUS
 66
     1
 40
0.003000
 41
0.003000
  0
VERTEX
  8
LAYER_1
 62
     7
  6
CONTINUOUS
 10
-2.485555
 20
0.658157
  0
VERTEX
  8
LAYER_1
 62
     7
  6
CONTINUOUS
 10
-2.535008
 20
0.687429
  0
VERTEX
  8
LAYER_1
 62
     7
  6
CONTINUOUS
 10
-2.588031
 20
0.715697
  0
VERTEX
  8
LAYER_1
 62
     7
  6
CONTINUOUS
 10
-2.625854
 20
0.747988
  0
VERTEX
  8
LAYER_1
 62
     7
  6
CONTINUOUS
 10
-2.655748
 20
0.786807
  0
VERTEX
  8
LAYER_1
 62
     7
  6
CONTINUOUS
 10
-2.677717
 20
0.832146
  0
VERTEX
  8
LAYER_1
 62
     7
  6
CONTINUOUS
 10
-2.693528
 20
0.883059
  0
VERTEX
  8
LAYER_1
 62
     7
  6
CONTINUOUS
 10
-2.703965
 20
0.935020
  0
VERTEX
  8
LAYER_1
 62
     7
  6
CONTINUOUS
 10
-2.673764
 20
0.917831
  0
VERTEX
  8
LAYER_1
 62
     7
  6
CONTINUOUS
 10
-2.641618
 20
0.895295
  0
VERTEX
  8
LAYER_1
 62
     7
  6
CONTINUOUS
 10
-2.606768
 20
0.872831
  0
VERTEX
  8
LAYER_1
 62
     7
  6
CONTINUOUS
 10
-2.570118
 20
0.850417
  0
VERTEX
  8
LAYER_1
 62
     7
  6
CONTINUOUS
 10
-2.531689
 20
0.828953
  0
VERTEX
  8
LAYER_1
 62
     7
  6
CONTINUOUS
 10
-2.491488
 20
0.808437
  0
VERTEX
  8
LAYER_1
 62
     7
  6
CONTINUOUS
 10
-2.449512
 20
0.788874
  0
VERTEX
  8
LAYER_1
 62
     7
  6
CONTINUOUS
 10
-2.405760
 20
0.770256
  0
VERTEX
  8
LAYER_1
 62
     7
  6
CONTINUOUS
 10
-2.360232
 20
0.752591
  0
VERTEX
  8
LAYER_1
 62
     7
  6
CONTINUOUS
 10
-2.313878
 20
0.737646
  0
VERTEX
  8
LAYER_1
 62
     7
  6
CONTINUOUS
 10
-2.264870
 20
0.724583
  0
VERTEX
  8
LAYER_1
 62
     7
  6
CONTINUOUS
 10
-2.215941
 20
0.714217
  0
VERTEX
  8
LAYER_1
 62
     7
  6
CONTINUOUS
 10
-2.165283
 20
0.706598
  0
VERTEX
  8
LAYER_1
 62
     7
  6
CONTINUOUS
 10
-2.143606
 20
0.704492
  0
VERTEX
  8
LAYER_1
 62
     7
  6
CONTINUOUS
 10
-2.121028
 20
0.702409
  0
VERTEX
  8
LAYER_1
 62
     7
  6
CONTINUOUS
 10
-2.164937
 20
0.693996
  0
VERTEX
  8
LAYER_1
 62
     7
  6
CONTINUOUS
 10
-2.215098
 20
0.683610
  0
VERTEX
  8
LAYER_1
 62
     7
  6
CONTINUOUS
 10
-2.263362
 20
0.669673
  0
VERTEX
  8
LAYER_1
 62
     7
  6
CONTINUOUS
 10
-2.311598
 20
0.654831
  0
VERTEX
  8
LAYER_1
 62
     7
  6
CONTINUOUS
 10
-2.357039
 20
0.636469
  0
VERTEX
  8
LAYER_1
 62
     7
  6
CONTINUOUS
 10
-2.401551
 20
0.617228
  0
VERTEX
  8
LAYER_1
 62
     7
  6
CONTINUOUS
 10
-2.444217
 20
0.596232
  0
VERTEX
  8
LAYER_1
 62
     7
  6
CONTINUOUS
 10
-2.485055
 20
0.574394
  0
VERTEX
  8
LAYER_1
 62
     7
  6
CONTINUOUS
 10
-2.524043
 20
0.550799
  0
VERTEX
  8
LAYER_1
 62
     7
  6
CONTINUOUS
 10
-2.561232
 20
0.527256
  0
VERTEX
  8
LAYER_1
 62
     7
  6
CONTINUOUS
 10
-2.596622
 20
0.503764
  0
VERTEX
  8
LAYER_1
 62
     7
  6
CONTINUOUS
 10
-2.630185
 20
0.479417
  0
VERTEX
  8
LAYER_1
 62
     7
  6
CONTINUOUS
 10
-2.661047
 20
0.455150
  0
VERTEX
  8
LAYER_1
 62
     7
  6
CONTINUOUS
 10
-2.688382
 20
0.433677
  0
VERTEX
  8
LAYER_1
 62
     7
  6
CONTINUOUS
 10
-2.682689
 20
0.488783
  0
VERTEX
  8
LAYER_1
 62
     7
  6
CONTINUOUS
 10
-2.669673
 20
0.539591
  0
VERTEX
  8
LAYER_1
 62
     7
  6
CONTINUOUS
 10
-2.650232
 20
0.586067
  0
VERTEX
  8
LAYER_1
 62
     7
  6
CONTINUOUS
 10
-2.622539
 20
0.627366
  0
VERTEX
  8
LAYER_1
 62
     7
  6
CONTINUOUS
 10
-2.586547
 20
0.661689
  0
VERTEX
  8
LAYER_1
 62
     7
  6
CONTINUOUS
 10
-2.544008
 20
0.687181
  0
VERTEX
  8
LAYER_1
 62
     7
  6
CONTINUOUS
 10
-2.491740
 20
0.719248
  0
SEQEND
  8
0
  0
POLYLINE
  8
LAYER_1
 62
     7
  6
CONTINUOUS
 66
     1
 40
0.003000
 41
0.003000
  0
VERTEX
  8
LAYER_1
 62
     7
  6
CONTINUOUS
 10
-0.119445
 20
0.452650
  0
VERTEX
  8
LAYER_1
 62
     7
  6
CONTINUOUS
 10
-0.122874
 20
0.325189
  0
VERTEX
  8
LAYER_1
 62
     7
  6
CONTINUOUS
 10
-0.125823
 20
0.273559
  0
VERTEX
  8
LAYER_1
 62
     7
  6
CONTINUOUS
 10
-0.131591
 20
0.223547
  0
VERTEX
  8
LAYER_1
 62
     7
  6
CONTINUOUS
 10
-0.139035
 20
0.171626
  0
VERTEX
  8
LAYER_1
 62
     7
  6
CONTINUOUS
 10
-0.148217
 20
0.118689
  0
VERTEX
  8
LAYER_1
 62
     7
  6
CONTINUOUS
 10
-0.157402
 20
0.065748
  0
VERTEX
  8
LAYER_1
 62
     7
  6
CONTINUOUS
 10
-0.167484
 20
0.012752
  0
VERTEX
  8
LAYER_1
 62
     7
  6
CONTINUOUS
 10
-0.177740
 20
-0.037547
  0
VERTEX
  8
LAYER_1
 62
     7
  6
CONTINUOUS
 10
-0.186126
 20
-0.075094
  0
VERTEX
  8
LAYER_1
 62
     7
  6
CONTINUOUS
 10
-0.188118
 20
-0.086055
  0
VERTEX
  8
LAYER_1
 62
     7
  6
CONTINUOUS
 10
-0.154965
 20
-0.068551
  0
VERTEX
  8
LAYER_1
 62
     7
  6
CONTINUOUS
 10
-0.116913
 20
-0.057047
  0
VERTEX
  8
LAYER_1
 62
     7
  6
CONTINUOUS
 10
-0.078685
 20
-0.048240
  0
VERTEX
  8
LAYER_1
 62
     7
  6
CONTINUOUS
 10
-0.040335
 20
-0.041228
  0
VERTEX
  8
LAYER_1
 62
     7
  6
CONTINUOUS
 10
-0.002768
 20
-0.036075
  0
VERTEX
  8
LAYER_1
 62
     7
  6
CONTINUOUS
 10
0.073551
 20
-0.030197
  0
VERTEX
  8
LAYER_1
 62
     7
  6
CONTINUOUS
 10
0.149209
 20
-0.027976
  0
VERTEX
  8
LAYER_1
 62
     7
  6
CONTINUOUS
 10
0.224925
 20
-0.026650
  0
VERTEX
  8
LAYER_1
 62
     7
  6
CONTINUOUS
 10
0.298728
 20
-0.023646
  0
VERTEX
  8
LAYER_1
 62
     7
  6
CONTINUOUS
 10
0.371343
 20
-0.016209
  0
VERTEX
  8
LAYER_1
 62
     7
  6
CONTINUOUS
 10
0.441803
 20
-0.003492
  0
VERTEX
  8
LAYER_1
 62
     7
  6
CONTINUOUS
 10
0.510783
 20
0.018146
  0
VERTEX
  8
LAYER_1
 62
     7
  6
CONTINUOUS
 10
0.577201
 20
0.051354
  0
VERTEX
  8
LAYER_1
 62
     7
  6
CONTINUOUS
 10
0.641004
 20
0.097020
  0
VERTEX
  8
LAYER_1
 62
     7
  6
CONTINUOUS
 10
0.690311
 20
0.143551
  0
VERTEX
  8
LAYER_1
 62
     7
  6
CONTINUOUS
 10
0.730110
 20
0.197583
  0
VERTEX
  8
LAYER_1
 62
     7
  6
CONTINUOUS
 10
0.757500
 20
0.248098
  0
VERTEX
  8
LAYER_1
 62
     7
  6
CONTINUOUS
 10
0.775315
 20
0.307012
  0
VERTEX
  8
LAYER_1
 62
     7
  6
CONTINUOUS
 10
0.785772
 20
0.368157
  0
VERTEX
  8
LAYER_1
 62
     7
  6
CONTINUOUS
 10
0.788433
 20
0.424280
  0
VERTEX
  8
LAYER_1
 62
     7
  6
CONTINUOUS
 10
0.783398
 20
0.501559
  0
VERTEX
  8
LAYER_1
 62
     7
  6
CONTINUOUS
 10
0.770484
 20
0.561181
  0
VERTEX
  8
LAYER_1
 62
     7
  6
CONTINUOUS
 10
0.745465
 20
0.612791
  0
VERTEX
  8
LAYER_1
 62
     7
  6
CONTINUOUS
 10
0.709173
 20
0.657354
  0
VERTEX
  8
LAYER_1
 62
     7
  6
CONTINUOUS
 10
0.664244
 20
0.695937
  0
VERTEX
  8
LAYER_1
 62
     7
  6
CONTINUOUS
 10
0.611579
 20
0.728602
  0
VERTEX
  8
LAYER_1
 62
     7
  6
CONTINUOUS
 10
0.553701
 20
0.758220
  0
VERTEX
  8
LAYER_1
 62
     7
  6
CONTINUOUS
 10
0.492516
 20
0.783110
  0
VERTEX
  8
LAYER_1
 62
     7
  6
CONTINUOUS
 10
0.428697
 20
0.806925
  0
VERTEX
  8
LAYER_1
 62
     7
  6
CONTINUOUS
 10
0.364098
 20
0.828886
  0
VERTEX
  8
LAYER_1
 62
     7
  6
CONTINUOUS
 10
0.301350
 20
0.850063
  0
VERTEX
  8
LAYER_1
 62
     7
  6
CONTINUOUS
 10
0.241244
 20
0.872319
  0
VERTEX
  8
LAYER_1
 62
     7
  6
CONTINUOUS
 10
0.186472
 20
0.895823
  0
VERTEX
  8
LAYER_1
 62
     7
  6
CONTINUOUS
 10
0.137870
 20
0.921531
  0
VERTEX
  8
LAYER_1
 62
     7
  6
CONTINUOUS
 10
0.097181
 20
0.950465
  0
VERTEX
  8
LAYER_1
 62
     7
  6
CONTINUOUS
 10
0.067039
 20
0.983697
  0
VERTEX
  8
LAYER_1
 62
     7
  6
CONTINUOUS
 10
0.047331
 20
1.023020
  0
VERTEX
  8
LAYER_1
 62
     7
  6
CONTINUOUS
 10
0.041768
 20
1.066878
  0
VERTEX
  8
LAYER_1
 62
     7
  6
CONTINUOUS
 10
0.051909
 20
1.118976
  0
VERTEX
  8
LAYER_1
 62
     7
  6
CONTINUOUS
 10
0.068378
 20
1.157047
  0
VERTEX
  8
LAYER_1
 62
     7
  6
CONTINUOUS
 10
0.095028
 20
1.191272
  0
VERTEX
  8
LAYER_1
 62
     7
  6
CONTINUOUS
 10
0.127358
 20
1.221350
  0
VERTEX
  8
LAYER_1
 62
     7
  6
CONTINUOUS
 10
0.166272
 20
1.247350
  0
VERTEX
  8
LAYER_1
 62
     7
  6
CONTINUOUS
 10
0.208173
 20
1.269031
  0
VERTEX
  8
LAYER_1
 62
     7
  6
CONTINUOUS
 10
0.253181
 20
1.284602
  0
VERTEX
  8
LAYER_1
 62
     7
  6
CONTINUOUS
 10
0.298484
 20
1.295673
  0
VERTEX
  8
LAYER_1
 62
     7
  6
CONTINUOUS
 10
0.343240
 20
1.301299
  0
VERTEX
  8
LAYER_1
 62
     7
  6
CONTINUOUS
 10
0.385709
 20
1.300457
  0
VERTEX
  8
LAYER_1
 62
     7
  6
CONTINUOUS
 10
0.443807
 20
1.295217
  0
VERTEX
  8
LAYER_1
 62
     7
  6
CONTINUOUS
 10
0.496252
 20
1.279681
  0
VERTEX
  8
LAYER_1
 62
     7
  6
CONTINUOUS
 10
0.542823
 20
1.257449
  0
VERTEX
  8
LAYER_1
 62
     7
  6
CONTINUOUS
 10
0.585138
 20
1.231331
  0
VERTEX
  8
LAYER_1
 62
     7
  6
CONTINUOUS
 10
0.647429
 20
1.189366
  0
VERTEX
  8
LAYER_1
 62
     7
  6
CONTINUOUS
 10
0.655984
 20
1.182705
  0
VERTEX
  8
LAYER_1
 62
     7
  6
CONTINUOUS
 10
0.652354
 20
1.238417
  0
VERTEX
  8
LAYER_1
 62
     7
  6
CONTINUOUS
 10
0.656224
 20
1.303642
  0
VERTEX
  8
LAYER_1
 62
     7
  6
CONTINUOUS
 10
0.664008
 20
1.419661
  0
VERTEX
  8
LAYER_1
 62
     7
  6
CONTINUOUS
 10
0.674835
 20
1.530461
  0
VERTEX
  8
LAYER_1
 62
     7
  6
CONTINUOUS
 10
0.685720
 20
1.598850
  0
VERTEX
  8
LAYER_1
 62
     7
  6
CONTINUOUS
 10
0.687831
 20
1.608016
  0
VERTEX
  8
LAYER_1
 62
     7
  6
CONTINUOUS
 10
0.666906
 20
1.596724
  0
VERTEX
  8
LAYER_1
 62
     7
  6
CONTINUOUS
 10
0.615354
 20
1.570803
  0
VERTEX
  8
LAYER_1
 62
     7
  6
CONTINUOUS
 10
0.543075
 20
1.544437
  0
VERTEX
  8
LAYER_1
 62
     7
  6
CONTINUOUS
 10
0.485972
 20
1.534402
  0
VERTEX
  8
LAYER_1
 62
     7
  6
CONTINUOUS
 10
0.433681
 20
1.533697
  0
VERTEX
  8
LAYER_1
 62
     7
  6
CONTINUOUS
 10
0.380193
 20
1.537433
  0
VERTEX
  8
LAYER_1
 62
     7
  6
CONTINUOUS
 10
0.339638
 20
1.536594
  0
VERTEX
  8
LAYER_1
 62
     7
  6
CONTINUOUS
 10
0.299201
 20
1.533957
  0
VERTEX
  8
LAYER_1
 62
     7
  6
CONTINUOUS
 10
0.258882
 20
1.529528
  0
VERTEX
  8
LAYER_1
 62
     7
  6
CONTINUOUS
 10
0.218736
 20
1.522398
  0
VERTEX
  8
LAYER_1
 62
     7
  6
CONTINUOUS
 10
0.179610
 20
1.513531
  0
VERTEX
  8
LAYER_1
 62
     7
  6
CONTINUOUS
 10
0.141555
 20
1.502028
  0
VERTEX
  8
LAYER_1
 62
     7
  6
CONTINUOUS
 10
0.103618
 20
1.488728
  0
VERTEX
  8
LAYER_1
 62
     7
  6
CONTINUOUS
 10
0.067594
 20
1.473748
  0
VERTEX
  8
LAYER_1
 62
     7
  6
CONTINUOUS
 10
0.032705
 20
1.455228
  0
VERTEX
  8
LAYER_1
 62
     7
  6
CONTINUOUS
 10
-0.000272
 20
1.435031
  0
VERTEX
  8
LAYER_1
 62
     7
  6
CONTINUOUS
 10
-0.032173
 20
1.412197
  0
VERTEX
  8
LAYER_1
 62
     7
  6
CONTINUOUS
 10
-0.061205
 20
1.386839
  0
VERTEX
  8
LAYER_1
 62
     7
  6
CONTINUOUS
 10
-0.089217
 20
1.359748
  0
VERTEX
  8
LAYER_1
 62
     7
  6
CONTINUOUS
 10
-0.114303
 20
1.329236
  0
VERTEX
  8
LAYER_1
 62
     7
  6
CONTINUOUS
 10
-0.137413
 20
1.296146
  0
VERTEX
  8
LAYER_1
 62
     7
  6
CONTINUOUS
 10
-0.156756
 20
1.260594
  0
VERTEX
  8
LAYER_1
 62
     7
  6
CONTINUOUS
 10
-0.174122
 20
1.222461
  0
VERTEX
  8
LAYER_1
 62
     7
  6
CONTINUOUS
 10
-0.188618
 20
1.181811
  0
VERTEX
  8
LAYER_1
 62
     7
  6
CONTINUOUS
 10
-0.200185
 20
1.137740
  0
VERTEX
  8
LAYER_1
 62
     7
  6
CONTINUOUS
 10
-0.207984
 20
1.091213
  0
VERTEX
  8
LAYER_1
 62
     7
  6
CONTINUOUS
 10
-0.210429
 20
1.017957
  0
VERTEX
  8
LAYER_1
 62
     7
  6
CONTINUOUS
 10
-0.199980
 20
0.954563
  0
VERTEX
  8
LAYER_1
 62
     7
  6
CONTINUOUS
 10
-0.178319
 20
0.899122
  0
VERTEX
  8
LAYER_1
 62
     7
  6
CONTINUOUS
 10
-0.146343
 20
0.851575
  0
VERTEX
  8
LAYER_1
 62
     7
  6
CONTINUOUS
 10
-0.662807
 20
0.940705
  0
SEQEND
  8
0
  0
POLYLINE
  8
LAYER_1
 62
     7
  6
CONTINUOUS
 66
     1
 40
0.003000
 41
0.003000
  0
VERTEX
  8
LAYER_1
 62
     7
  6
CONTINUOUS
 10
0.161858
 20
0.486413
  0
VERTEX
  8
LAYER_1
 62
     7
  6
CONTINUOUS
 10
0.210673
 20
0.673689
  0
VERTEX
  8
LAYER_1
 62
     7
  6
CONTINUOUS
 10
0.270665
 20
0.662252
  0
VERTEX
  8
LAYER_1
 62
     7
  6
CONTINUOUS
 10
0.327961
 20
0.641622
  0
VERTEX
  8
LAYER_1
 62
     7
  6
CONTINUOUS
 10
0.381717
 20
0.619854
  0
VERTEX
  8
LAYER_1
 62
     7
  6
CONTINUOUS
 10
0.430142
 20
0.596843
  0
VERTEX
  8
LAYER_1
 62
     7
  6
CONTINUOUS
 10
0.472453
 20
0.570720
  0
VERTEX
  8
LAYER_1
 62
     7
  6
CONTINUOUS
 10
0.505957
 20
0.541319
  0
VERTEX
  8
LAYER_1
 62
     7
  6
CONTINUOUS
 10
0.528969
 20
0.506724
  0
VERTEX
  8
LAYER_1
 62
     7
  6
CONTINUOUS
 10
0.544764
 20
0.458118
  0
VERTEX
  8
LAYER_1
 62
     7
  6
CONTINUOUS
 10
0.545291
 20
0.408520
  0
VERTEX
  8
LAYER_1
 62
     7
  6
CONTINUOUS
 10
0.527665
 20
0.360445
  0
VERTEX
  8
LAYER_1
 62
     7
  6
CONTINUOUS
 10
0.500161
 20
0.311728
  0
VERTEX
  8
LAYER_1
 62
     7
  6
CONTINUOUS
 10
0.453843
 20
0.260882
  0
VERTEX
  8
LAYER_1
 62
     7
  6
CONTINUOUS
 10
0.393768
 20
0.227185
  0
VERTEX
  8
LAYER_1
 62
     7
  6
CONTINUOUS
 10
0.325571
 20
0.207402
  0
VERTEX
  8
LAYER_1
 62
     7
  6
CONTINUOUS
 10
0.251945
 20
0.201701
  0
VERTEX
  8
LAYER_1
 62
     7
  6
CONTINUOUS
 10
0.176602
 20
0.208520
  0
VERTEX
  8
LAYER_1
 62
     7
  6
CONTINUOUS
 10
0.101512
 20
0.225287
  0
VERTEX
  8
LAYER_1
 62
     7
  6
CONTINUOUS
 10
0.032067
 20
0.252346
  0
VERTEX
  8
LAYER_1
 62
     7
  6
CONTINUOUS
 10
-0.030717
 20
0.287965
  0
VERTEX
  8
LAYER_1
 62
     7
  6
CONTINUOUS
 10
-0.077327
 20
0.324630
  0
VERTEX
  8
LAYER_1
 62
     7
  6
CONTINUOUS
 10
-0.083012
 20
0.328772
  0
VERTEX
  8
LAYER_1
 62
     7
  6
CONTINUOUS
 10
-0.200992
 20
0.422154
  0
SEQEND
  8
0
  0
POLYLINE
  8
LAYER_1
 62
     7
  6
CONTINUOUS
 66
     1
 40
0.003000
 41
0.003000
  0
VERTEX
  8
LAYER_1
 62
     7
  6
CONTINUOUS
 10
0.671748
 20
2.117228
  0
VERTEX
  8
LAYER_1
 62
     7
  6
CONTINUOUS
 10
1.064988
 20
2.043350
  0
VERTEX
  8
LAYER_1
 62
     7
  6
CONTINUOUS
 10
0.960311
 20
2.310843
  0
VERTEX
  8
LAYER_1
 62
     7
  6
CONTINUOUS
 10
0.944102
 20
2.355870
  0
VERTEX
  8
LAYER_1
 62
     7
  6
CONTINUOUS
 10
0.925193
 20
2.403598
  0
VERTEX
  8
LAYER_1
 62
     7
  6
CONTINUOUS
 10
0.904256
 20
2.452224
  0
VERTEX
  8
LAYER_1
 62
     7
  6
CONTINUOUS
 10
0.881291
 20
2.501752
  0
VERTEX
  8
LAYER_1
 62
     7
  6
CONTINUOUS
 10
0.858331
 20
2.548579
  0
VERTEX
  8
LAYER_1
 62
     7
  6
CONTINUOUS
 10
0.836039
 20
2.590902
  0
VERTEX
  8
LAYER_1
 62
     7
  6
CONTINUOUS
 10
0.815106
 20
2.627823
  0
VERTEX
  8
LAYER_1
 62
     7
  6
CONTINUOUS
 10
0.796197
 20
2.657539
  0
VERTEX
  8
LAYER_1
 62
     7
  6
CONTINUOUS
 10
0.784713
 20
2.672846
  0
VERTEX
  8
LAYER_1
 62
     7
  6
CONTINUOUS
 10
0.780661
 20
2.678248
  0
VERTEX
  8
LAYER_1
 62
     7
  6
CONTINUOUS
 10
0.830638
 20
2.677350
  0
VERTEX
  8
LAYER_1
 62
     7
  6
CONTINUOUS
 10
0.902906
 20
2.674650
  0
VERTEX
  8
LAYER_1
 62
     7
  6
CONTINUOUS
 10
0.988004
 20
2.672846
  0
VERTEX
  8
LAYER_1
 62
     7
  6
CONTINUOUS
 10
1.057476
 20
2.682008
  0
VERTEX
  8
LAYER_1
 62
     7
  6
CONTINUOUS
 10
1.152799
 20
2.676449
  0
VERTEX
  8
LAYER_1
 62
     7
  6
CONTINUOUS
 10
1.185890
 20
2.680051
  0
VERTEX
  8
LAYER_1
 62
     7
  6
CONTINUOUS
 10
1.212906
 20
2.685457
  0
VERTEX
  8
LAYER_1
 62
     7
  6
CONTINUOUS
 10
1.227764
 20
2.689957
  0
VERTEX
  8
LAYER_1
 62
     7
  6
CONTINUOUS
 10
1.205476
 20
2.654839
  0
VERTEX
  8
LAYER_1
 62
     7
  6
CONTINUOUS
 10
1.181839
 20
2.609811
  0
VERTEX
  8
LAYER_1
 62
     7
  6
CONTINUOUS
 10
1.165626
 20
2.562087
  0
VERTEX
  8
LAYER_1
 62
     7
  6
CONTINUOUS
 10
1.159547
 20
2.515260
  0
VERTEX
  8
LAYER_1
 62
     7
  6
CONTINUOUS
 10
1.159547
 20
2.466630
  0
VERTEX
  8
LAYER_1
 62
     7
  6
CONTINUOUS
 10
1.162252
 20
2.419803
  0
VERTEX
  8
LAYER_1
 62
     7
  6
CONTINUOUS
 10
1.185209
 20
2.298815
  0
VERTEX
  8
LAYER_1
 62
     7
  6
CONTINUOUS
 10
1.192646
 20
2.242406
  0
VERTEX
  8
LAYER_1
 62
     7
  6
CONTINUOUS
 10
1.217634
 20
2.159555
  0
VERTEX
  8
LAYER_1
 62
     7
  6
CONTINUOUS
 10
1.246673
 20
2.078512
  0
VERTEX
  8
LAYER_1
 62
     7
  6
CONTINUOUS
 10
1.280445
 20
1.990260
  0
VERTEX
  8
LAYER_1
 62
     7
  6
CONTINUOUS
 10
1.304760
 20
1.926327
  0
VERTEX
  8
LAYER_1
 62
     7
  6
CONTINUOUS
 10
1.331098
 20
1.871394
  0
VERTEX
  8
LAYER_1
 62
     7
  6
CONTINUOUS
 10
1.334476
 20
1.864193
  0
VERTEX
  8
LAYER_1
 62
     7
  6
CONTINUOUS
 10
1.603953
 20
2.511657
  0
VERTEX
  8
LAYER_1
 62
     7
  6
CONTINUOUS
 10
1.607327
 20
2.520661
  0
VERTEX
  8
LAYER_1
 62
     7
  6
CONTINUOUS
 10
1.670138
 20
2.667445
  0
SEQEND
  8
0
  0
POLYLINE
  8
LAYER_1
 62
     7
  6
CONTINUOUS
 66
     1
 40
0.003000
 41
0.003000
  0
VERTEX
  8
LAYER_1
 62
     7
  6
CONTINUOUS
 10
0.930929
 20
1.621134
  0
VERTEX
  8
LAYER_1
 62
     7
  6
CONTINUOUS
 10
1.099417
 20
1.820012
  0
VERTEX
  8
LAYER_1
 62
     7
  6
CONTINUOUS
 10
0.891449
 20
1.828406
  0
VERTEX
  8
LAYER_1
 62
     7
  6
CONTINUOUS
 10
0.769563
 20
1.827323
  0
VERTEX
  8
LAYER_1
 62
     7
  6
CONTINUOUS
 10
0.643614
 20
1.821161
  0
VERTEX
  8
LAYER_1
 62
     7
  6
CONTINUOUS
 10
0.514937
 20
1.815823
  0
VERTEX
  8
LAYER_1
 62
     7
  6
CONTINUOUS
 10
0.384461
 20
1.810433
  0
VERTEX
  8
LAYER_1
 62
     7
  6
CONTINUOUS
 10
0.250413
 20
1.804043
  0
VERTEX
  8
LAYER_1
 62
     7
  6
CONTINUOUS
 10
0.116386
 20
1.796756
  0
VERTEX
  8
LAYER_1
 62
     7
  6
CONTINUOUS
 10
0.026469
 20
1.790681
  0
VERTEX
  8
LAYER_1
 62
     7
  6
CONTINUOUS
 10
-0.063453
 20
1.784606
  0
VERTEX
  8
LAYER_1
 62
     7
  6
CONTINUOUS
 10
-0.153343
 20
1.777634
  0
VERTEX
  8
LAYER_1
 62
     7
  6
CONTINUOUS
 10
-0.243185
 20
1.768858
  0
VERTEX
  8
LAYER_1
 62
     7
  6
CONTINUOUS
 10
-0.331228
 20
1.760130
  0
VERTEX
  8
LAYER_1
 62
     7
  6
CONTINUOUS
 10
-0.419220
 20
1.749602
  0
VERTEX
  8
LAYER_1
 62
     7
  6
CONTINUOUS
 10
-0.506268
 20
1.737299
  0
VERTEX
  8
LAYER_1
 62
     7
  6
CONTINUOUS
 10
-0.592386
 20
1.724122
  0
VERTEX
  8
LAYER_1
 62
     7
  6
CONTINUOUS
 10
-0.675756
 20
1.709220
  0
VERTEX
  8
LAYER_1
 62
     7
  6
CONTINUOUS
 10
-0.758201
 20
1.693441
  0
VERTEX
  8
LAYER_1
 62
     7
  6
CONTINUOUS
 10
-0.838768
 20
1.675012
  0
VERTEX
  8
LAYER_1
 62
     7
  6
CONTINUOUS
 10
-0.917488
 20
1.654827
  0
VERTEX
  8
LAYER_1
 62
     7
  6
CONTINUOUS
 10
-0.993433
 20
1.632024
  0
VERTEX
  8
LAYER_1
 62
     7
  6
CONTINUOUS
 10
-1.022016
 20
1.623130
  0
VERTEX
  8
LAYER_1
 62
     7
  6
CONTINUOUS
 10
-1.054075
 20
1.609634
  0
VERTEX
  8
LAYER_1
 62
     7
  6
CONTINUOUS
 10
-1.087811
 20
1.591591
  0
VERTEX
  8
LAYER_1
 62
     7
  6
CONTINUOUS
 10
-1.119575
 20
1.567299
  0
VERTEX
  8
LAYER_1
 62
     7
  6
CONTINUOUS
 10
-1.149315
 20
1.534949
  0
VERTEX
  8
LAYER_1
 62
     7
  6
CONTINUOUS
 10
-1.172528
 20
1.494673
  0
VERTEX
  8
LAYER_1
 62
     7
  6
CONTINUOUS
 10
-1.187398
 20
1.445618
  0
VERTEX
  8
LAYER_1
 62
     7
  6
CONTINUOUS
 10
-1.191165
 20
1.386059
  0
VERTEX
  8
LAYER_1
 62
     7
  6
CONTINUOUS
 10
-1.183602
 20
1.340323
  0
VERTEX
  8
LAYER_1
 62
     7
  6
CONTINUOUS
 10
-1.169063
 20
1.302890
  0
VERTEX
  8
LAYER_1
 62
     7
  6
CONTINUOUS
 10
-1.142941
 20
1.270276
  0
VERTEX
  8
LAYER_1
 62
     7
  6
CONTINUOUS
 10
-1.102665
 20
1.247059
  0
VERTEX
  8
LAYER_1
 62
     7
  6
CONTINUOUS
 10
-1.055559
 20
1.237543
  0
VERTEX
  8
LAYER_1
 62
     7
  6
CONTINUOUS
 10
-1.005398
 20
1.247929
  0
VERTEX
  8
LAYER_1
 62
     7
  6
CONTINUOUS
 10
-0.954154
 20
1.284472
  0
VERTEX
  8
LAYER_1
 62
     7
  6
CONTINUOUS
 10
-0.939012
 20
1.323626
  0
VERTEX
  8
LAYER_1
 62
     7
  6
CONTINUOUS
 10
-0.942827
 20
1.364059
  0
VERTEX
  8
LAYER_1
 62
     7
  6
CONTINUOUS
 10
-0.962524
 20
1.392343
  0
VERTEX
  8
LAYER_1
 62
     7
  6
CONTINUOUS
 10
-1.010528
 20
1.401835
  0
VERTEX
  8
LAYER_1
 62
     7
  6
CONTINUOUS
 10
-1.044315
 20
1.385594
  0
VERTEX
  8
LAYER_1
 62
     7
  6
CONTINUOUS
 10
-1.057173
 20
1.361819
  0
VERTEX
  8
LAYER_1
 62
     7
  6
CONTINUOUS
 10
-1.060602
 20
1.355417
  0
VERTEX
  8
LAYER_1
 62
     7
  6
CONTINUOUS
 10
-1.065941
 20
1.385902
  0
VERTEX
  8
LAYER_1
 62
     7
  6
CONTINUOUS
 10
-1.062110
 20
1.410327
  0
VERTEX
  8
LAYER_1
 62
     7
  6
CONTINUOUS
 10
-1.052701
 20
1.428602
  0
VERTEX
  8
LAYER_1
 62
     7
  6
CONTINUOUS
 10
-1.012213
 20
1.463047
  0
VERTEX
  8
LAYER_1
 62
     7
  6
CONTINUOUS
 10
-0.964724
 20
1.472461
  0
VERTEX
  8
LAYER_1
 62
     7
  6
CONTINUOUS
 10
-0.919496
 20
1.465594
  0
VERTEX
  8
LAYER_1
 62
     7
  6
CONTINUOUS
 10
-0.888441
 20
1.450232
  0
VERTEX
  8
LAYER_1
 62
     7
  6
CONTINUOUS
 10
-0.859870
 20
1.426697
  0
VERTEX
  8
LAYER_1
 62
     7
  6
CONTINUOUS
 10
-0.835598
 20
1.395835
  0
VERTEX
  8
LAYER_1
 62
     7
  6
CONTINUOUS
 10
-0.816606
 20
1.360323
  0
VERTEX
  8
LAYER_1
 62
     7
  6
CONTINUOUS
 10
-0.804665
 20
1.319213
  0
VERTEX
  8
LAYER_1
 62
     7
  6
CONTINUOUS
 10
-0.801677
 20
1.276051
  0
VERTEX
  8
LAYER_1
 62
     7
  6
CONTINUOUS
 10
-0.809417
 20
1.229894
  0
VERTEX
  8
LAYER_1
 62
     7
  6
CONTINUOUS
 10
-0.828858
 20
1.183417
  0
VERTEX
  8
LAYER_1
 62
     7
  6
CONTINUOUS
 10
-0.860902
 20
1.136594
  0
VERTEX
  8
LAYER_1
 62
     7
  6
CONTINUOUS
 10
-0.888165
 20
1.112421
  0
VERTEX
  8
LAYER_1
 62
     7
  6
CONTINUOUS
 10
-0.926350
 20
1.092457
  0
VERTEX
  8
LAYER_1
 62
     7
  6
CONTINUOUS
 10
-0.970988
 20
1.077717
  0
VERTEX
  8
LAYER_1
 62
     7
  6
CONTINUOUS
 10
-1.021150
 20
1.067327
  0
VERTEX
  8
LAYER_1
 62
     7
  6
CONTINUOUS
 10
-1.074165
 20
1.062268
  0
VERTEX
  8
LAYER_1
 62
     7
  6
CONTINUOUS
 10
-1.127319
 20
1.062610
  0
VERTEX
  8
LAYER_1
 62
     7
  6
CONTINUOUS
 10
-1.178831
 20
1.068398
  0
VERTEX
  8
LAYER_1
 62
     7
  6
CONTINUOUS
 10
-1.223283
 20
1.079787
  0
VERTEX
  8
LAYER_1
 62
     7
  6
CONTINUOUS
 10
-1.270587
 20
1.096504
  0
VERTEX
  8
LAYER_1
 62
     7
  6
CONTINUOUS
 10
-1.317138
 20
1.118646
  0
VERTEX
  8
LAYER_1
 62
     7
  6
CONTINUOUS
 10
-1.362890
 20
1.144413
  0
VERTEX
  8
LAYER_1
 62
     7
  6
CONTINUOUS
 10
-1.406063
 20
1.174760
  0
VERTEX
  8
LAYER_1
 62
     7
  6
CONTINUOUS
 10
-1.443909
 20
1.207949
  0
VERTEX
  8
LAYER_1
 62
     7
  6
CONTINUOUS
 10
-1.474657
 20
1.244941
  0
VERTEX
  8
LAYER_1
 62
     7
  6
CONTINUOUS
 10
-1.498248
 20
1.283929
  0
VERTEX
  8
LAYER_1
 62
     7
  6
CONTINUOUS
 10
-1.530370
 20
2.452346
  0
VERTEX
  8
LAYER_1
 62
     7
  6
CONTINUOUS
 10
-1.508957
 20
2.492575
  0
VERTEX
  8
LAYER_1
 62
     7
  6
CONTINUOUS
 10
-1.480264
 20
2.530299
  0
VERTEX
  8
LAYER_1
 62
     7
  6
CONTINUOUS
 10
-1.444319
 20
2.566421
  0
VERTEX
  8
LAYER_1
 62
     7
  6
CONTINUOUS
 10
-1.402878
 20
2.599087
  0
VERTEX
  8
LAYER_1
 62
     7
  6
CONTINUOUS
 10
-1.358614
 20
2.627331
  0
VERTEX
  8
LAYER_1
 62
     7
  6
CONTINUOUS
 10
-1.313350
 20
2.651996
  0
VERTEX
  8
LAYER_1
 62
     7
  6
CONTINUOUS
 10
-1.267035
 20
2.671287
  0
VERTEX
  8
LAYER_1
 62
     7
  6
CONTINUOUS
 10
-1.223248
 20
2.684201
  0
VERTEX
  8
LAYER_1
 62
     7
  6
CONTINUOUS
 10
-1.172138
 20
2.692811
  0
VERTEX
  8
LAYER_1
 62
     7
  6
CONTINUOUS
 10
-1.119098
 20
2.696976
  0
VERTEX
  8
LAYER_1
 62
     7
  6
CONTINUOUS
 10
-1.065890
 20
2.694831
  0
VERTEX
  8
LAYER_1
 62
     7
  6
CONTINUOUS
 10
-1.015236
 20
2.687217
  0
VERTEX
  8
LAYER_1
 62
     7
  6
CONTINUOUS
 10
-0.969854
 20
2.674953
  0
VERTEX
  8
LAYER_1
 62
     7
  6
CONTINUOUS
 10
-0.930630
 20
2.657114
  0
VERTEX
  8
LAYER_1
 62
     7
  6
CONTINUOUS
 10
-0.902055
 20
2.633579
  0
VERTEX
  8
LAYER_1
 62
     7
  6
CONTINUOUS
 10
-0.867512
 20
2.589484
  0
VERTEX
  8
LAYER_1
 62
     7
  6
CONTINUOUS
 10
-0.845520
 20
2.543244
  0
VERTEX
  8
LAYER_1
 62
     7
  6
CONTINUOUS
 10
-0.835283
 20
2.498480
  0
VERTEX
  8
LAYER_1
 62
     7
  6
CONTINUOUS
 10
-0.835870
 20
2.454327
  0
VERTEX
  8
LAYER_1
 62
     7
  6
CONTINUOUS
 10
-0.845559
 20
2.413520
  0
VERTEX
  8
LAYER_1
 62
     7
  6
CONTINUOUS
 10
-0.862547
 20
2.376118
  0
VERTEX
  8
LAYER_1
 62
     7
  6
CONTINUOUS
 10
-0.885110
 20
2.344870
  0
VERTEX
  8
LAYER_1
 62
     7
  6
CONTINUOUS
 10
-0.912346
 20
2.319795
  0
VERTEX
  8
LAYER_1
 62
     7
  6
CONTINUOUS
 10
-0.942480
 20
2.301854
  0
VERTEX
  8
LAYER_1
 62
     7
  6
CONTINUOUS
 10
-0.987268
 20
2.292516
  0
VERTEX
  8
LAYER_1
 62
     7
  6
CONTINUOUS
 10
-1.035224
 20
2.300205
  0
VERTEX
  8
LAYER_1
 62
     7
  6
CONTINUOUS
 10
-1.069126
 20
2.320894
  0
VERTEX
  8
LAYER_1
 62
     7
  6
CONTINUOUS
 10
-1.085169
 20
2.347476
  0
VERTEX
  8
LAYER_1
 62
     7
  6
CONTINUOUS
 10
-1.093114
 20
2.374283
  0
VERTEX
  8
LAYER_1
 62
     7
  6
CONTINUOUS
 10
-1.091008
 20
2.395961
  0
VERTEX
  8
LAYER_1
 62
     7
  6
CONTINUOUS
 10
-1.089457
 20
2.405012
  0
VERTEX
  8
LAYER_1
 62
     7
  6
CONTINUOUS
 10
-1.071535
 20
2.375780
  0
VERTEX
  8
LAYER_1
 62
     7
  6
CONTINUOUS
 10
-1.036882
 20
2.360516
  0
VERTEX
  8
LAYER_1
 62
     7
  6
CONTINUOUS
 10
-0.997421
 20
2.367004
  0
VERTEX
  8
LAYER_1
 62
     7
  6
CONTINUOUS
 10
-0.971362
 20
2.401957
  0
VERTEX
  8
LAYER_1
 62
     7
  6
CONTINUOUS
 10
-0.969795
 20
2.443437
  0
VERTEX
  8
LAYER_1
 62
     7
  6
CONTINUOUS
 10
-0.995437
 20
2.491378
  0
VERTEX
  8
LAYER_1
 62
     7
  6
CONTINUOUS
 10
-1.040240
 20
2.515370
  0
VERTEX
  8
LAYER_1
 62
     7
  6
CONTINUOUS
 10
-1.090894
 20
2.522988
  0
VERTEX
  8
LAYER_1
 62
     7
  6
CONTINUOUS
 10
-1.137406
 20
2.510894
  0
VERTEX
  8
LAYER_1
 62
     7
  6
CONTINUOUS
 10
-1.176323
 20
2.484602
  0
VERTEX
  8
LAYER_1
 62
     7
  6
CONTINUOUS
 10
-1.200610
 20
2.450602
  0
VERTEX
  8
LAYER_1
 62
     7
  6
CONTINUOUS
 10
-1.213098
 20
2.413327
  0
VERTEX
  8
LAYER_1
 62
     7
  6
CONTINUOUS
 10
-1.218114
 20
2.366343
  0
VERTEX
  8
LAYER_1
 62
     7
  6
CONTINUOUS
 10
-1.211079
 20
2.307079
  0
VERTEX
  8
LAYER_1
 62
     7
  6
CONTINUOUS
 10
-1.193539
 20
2.258917
  0
VERTEX
  8
LAYER_1
 62
     7
  6
CONTINUOUS
 10
-1.168169
 20
2.220878
  0
VERTEX
  8
LAYER_1
 62
     7
  6
CONTINUOUS
 10
-1.136701
 20
2.190213
  0
VERTEX
  8
LAYER_1
 62
     7
  6
CONTINUOUS
 10
-1.103650
 20
2.167701
  0
VERTEX
  8
LAYER_1
 62
     7
  6
CONTINUOUS
 10
-1.068949
 20
2.150638
  0
VERTEX
  8
LAYER_1
 62
     7
  6
CONTINUOUS
 10
-1.036220
 20
2.139827
  0
VERTEX
  8
LAYER_1
 62
     7
  6
CONTINUOUS
 10
-1.007169
 20
2.131614
  0
VERTEX
  8
LAYER_1
 62
     7
  6
CONTINUOUS
 10
-0.930110
 20
2.113913
  0
VERTEX
  8
LAYER_1
 62
     7
  6
CONTINUOUS
 10
-0.850402
 20
2.098091
  0
VERTEX
  8
LAYER_1
 62
     7
  6
CONTINUOUS
 10
-0.768937
 20
2.084114
  0
VERTEX
  8
LAYER_1
 62
     7
  6
CONTINUOUS
 10
-0.685724
 20
2.071988
  0
VERTEX
  8
LAYER_1
 62
     7
  6
CONTINUOUS
 10
-0.601665
 20
2.061689
  0
VERTEX
  8
LAYER_1
 62
     7
  6
CONTINUOUS
 10
-0.514953
 20
2.053260
  0
VERTEX
  8
LAYER_1
 62
     7
  6
CONTINUOUS
 10
-0.427390
 20
2.046657
  0
VERTEX
  8
LAYER_1
 62
     7
  6
CONTINUOUS
 10
-0.338949
 20
2.040980
  0
VERTEX
  8
LAYER_1
 62
     7
  6
CONTINUOUS
 10
-0.250535
 20
2.036205
  0
VERTEX
  8
LAYER_1
 62
     7
  6
CONTINUOUS
 10
-0.160370
 20
2.033280
  0
VERTEX
  8
LAYER_1
 62
     7
  6
CONTINUOUS
 10
-0.070232
 20
2.031252
  0
VERTEX
  8
LAYER_1
 62
     7
  6
CONTINUOUS
 10
0.019909
 20
2.029228
  0
VERTEX
  8
LAYER_1
 62
     7
  6
CONTINUOUS
 10
0.110000
 20
2.029004
  0
VERTEX
  8
LAYER_1
 62
     7
  6
CONTINUOUS
 10
0.244224
 20
2.029087
  0
VERTEX
  8
LAYER_1
 62
     7
  6
CONTINUOUS
 10
0.378425
 20
2.030071
  0
VERTEX
  8
LAYER_1
 62
     7
  6
CONTINUOUS
 10
0.509000
 20
2.031862
  0
VERTEX
  8
LAYER_1
 62
     7
  6
CONTINUOUS
 10
0.637799
 20
2.032701
  0
VERTEX
  8
LAYER_1
 62
     7
  6
CONTINUOUS
 10
0.763870
 20
2.034366
  0
VERTEX
  8
LAYER_1
 62
     7
  6
CONTINUOUS
 10
0.862122
 20
2.035839
  0
VERTEX
  8
LAYER_1
 62
     7
  6
CONTINUOUS
 10
0.937260
 20
2.035839
  0
VERTEX
  8
LAYER_1
 62
     7
  6
CONTINUOUS
 10
1.004882
 20
2.035839
  0
VERTEX
  8
LAYER_1
 62
     7
  6
CONTINUOUS
 10
1.072504
 20
2.035839
  0
VERTEX
  8
LAYER_1
 62
     7
  6
CONTINUOUS
 10
0.854610
 20
2.208654
  0
SEQEND
  8
0
  0
POLYLINE
  8
LAYER_1
 62
     7
  6
CONTINUOUS
 66
     1
 40
0.003000
 41
0.003000
  0
VERTEX
  8
LAYER_1
 62
     7
  6
CONTINUOUS
 10
-1.213189
 20
1.843087
  0
VERTEX
  8
LAYER_1
 62
     7
  6
CONTINUOUS
 10
-1.262638
 20
1.872354
  0
VERTEX
  8
LAYER_1
 62
     7
  6
CONTINUOUS
 10
-1.315665
 20
1.900626
  0
VERTEX
  8
LAYER_1
 62
     7
  6
CONTINUOUS
 10
-1.353488
 20
1.932917
  0
VERTEX
  8
LAYER_1
 62
     7
  6
CONTINUOUS
 10
-1.383382
 20
1.971732
  0
VERTEX
  8
LAYER_1
 62
     7
  6
CONTINUOUS
 10
-1.405346
 20
2.017071
  0
VERTEX
  8
LAYER_1
 62
     7
  6
CONTINUOUS
 10
-1.421161
 20
2.067984
  0
VERTEX
  8
LAYER_1
 62
     7
  6
CONTINUOUS
 10
-1.431598
 20
2.119949
  0
VERTEX
  8
LAYER_1
 62
     7
  6
CONTINUOUS
 10
-1.401398
 20
2.102760
  0
VERTEX
  8
LAYER_1
 62
     7
  6
CONTINUOUS
 10
-1.369248
 20
2.080224
  0
VERTEX
  8
LAYER_1
 62
     7
  6
CONTINUOUS
 10
-1.334398
 20
2.057760
  0
VERTEX
  8
LAYER_1
 62
     7
  6
CONTINUOUS
 10
-1.297748
 20
2.035343
  0
VERTEX
  8
LAYER_1
 62
     7
  6
CONTINUOUS
 10
-1.259323
 20
2.013878
  0
VERTEX
  8
LAYER_1
 62
     7
  6
CONTINUOUS
 10
-1.219122
 20
1.993366
  0
VERTEX
  8
LAYER_1
 62
     7
  6
CONTINUOUS
 10
-1.177142
 20
1.973799
  0
VERTEX
  8
LAYER_1
 62
     7
  6
CONTINUOUS
 10
-1.133390
 20
1.955181
  0
VERTEX
  8
LAYER_1
 62
     7
  6
CONTINUOUS
 10
-1.087862
 20
1.937516
  0
VERTEX
  8
LAYER_1
 62
     7
  6
CONTINUOUS
 10
-1.041508
 20
1.922575
  0
VERTEX
  8
LAYER_1
 62
     7
  6
CONTINUOUS
 10
-0.992504
 20
1.909508
  0
VERTEX
  8
LAYER_1
 62
     7
  6
CONTINUOUS
 10
-0.943575
 20
1.899142
  0
VERTEX
  8
LAYER_1
 62
     7
  6
CONTINUOUS
 10
-0.892917
 20
1.891528
  0
VERTEX
  8
LAYER_1
 62
     7
  6
CONTINUOUS
 10
-0.871236
 20
1.889421
  0
VERTEX
  8
LAYER_1
 62
     7
  6
CONTINUOUS
 10
-0.848657
 20
1.887339
  0
VERTEX
  8
LAYER_1
 62
     7
  6
CONTINUOUS
 10
-0.892571
 20
1.878925
  0
VERTEX
  8
LAYER_1
 62
     7
  6
CONTINUOUS
 10
-0.942732
 20
1.868535
  0
VERTEX
  8
LAYER_1
 62
     7
  6
CONTINUOUS
 10
-0.990996
 20
1.854598
  0
VERTEX
  8
LAYER_1
 62
     7
  6
CONTINUOUS
 10
-1.039232
 20
1.839760
  0
VERTEX
  8
LAYER_1
 62
     7
  6
CONTINUOUS
 10
-1.084669
 20
1.821394
  0
VERTEX
  8
LAYER_1
 62
     7
  6
CONTINUOUS
 10
-1.129185
 20
1.802154
  0
VERTEX
  8
LAYER_1
 62
     7
  6
CONTINUOUS
 10
-1.171850
 20
1.781161
  0
VERTEX
  8
LAYER_1
 62
     7
  6
CONTINUOUS
 10
-1.212689
 20
1.759319
  0
VERTEX
  8
LAYER_1
 62
     7
  6
CONTINUOUS
 10
-1.251673
 20
1.735728
  0
VERTEX
  8
LAYER_1
 62
     7
  6
CONTINUOUS
 10
-1.288862
 20
1.712181
  0
VERTEX
  8
LAYER_1
 62
     7
  6
CONTINUOUS
 10
-1.324252
 20
1.688689
  0
VERTEX
  8
LAYER_1
 62
     7
  6
CONTINUOUS
 10
-1.357815
 20
1.664346
  0
VERTEX
  8
LAYER_1
 62
     7
  6
CONTINUOUS
 10
-1.388681
 20
1.640075
  0
VERTEX
  8
LAYER_1
 62
     7
  6
CONTINUOUS
 10
-1.416012
 20
1.618606
  0
VERTEX
  8
LAYER_1
 62
     7
  6
CONTINUOUS
 10
-1.410323
 20
1.673713
  0
VERTEX
  8
LAYER_1
 62
     7
  6
CONTINUOUS
 10
-1.397303
 20
1.724516
  0
VERTEX
  8
LAYER_1
 62
     7
  6
CONTINUOUS
 10
-1.377862
 20
1.770996
  0
VERTEX
  8
LAYER_1
 62
     7
  6
CONTINUOUS
 10
-1.350169
 20
1.812295
  0
VERTEX
  8
LAYER_1
 62
     7
  6
CONTINUOUS
 10
-1.314181
 20
1.846614
  0
VERTEX
  8
LAYER_1
 62
     7
  6
CONTINUOUS
 10
-1.271642
 20
1.872106
  0
VERTEX
  8
LAYER_1
 62
     7
  6
CONTINUOUS
 10
-1.219370
 20
1.904173
  0
SEQEND
  8
0
  0
POLYLINE
  8
LAYER_1
 62
     7
  6
CONTINUOUS
 66
     1
 40
0.003000
 41
0.003000
  0
VERTEX
  8
LAYER_1
 62
     7
  6
CONTINUOUS
 10
1.544520
 20
2.670146
  0
VERTEX
  8
LAYER_1
 62
     7
  6
CONTINUOUS
 10
1.603276
 20
2.531469
  0
VERTEX
  8
LAYER_1
 62
     7
  6
CONTINUOUS
 10
1.607327
 20
2.520661
  0
VERTEX
  8
LAYER_1
 62
     7
  6
CONTINUOUS
 10
1.876130
 20
1.872295
  0
VERTEX
  8
LAYER_1
 62
     7
  6
CONTINUOUS
 10
1.879508
 20
1.864193
  0
VERTEX
  8
LAYER_1
 62
     7
  6
CONTINUOUS
 10
1.909220
 20
1.926327
  0
VERTEX
  8
LAYER_1
 62
     7
  6
CONTINUOUS
 10
1.934209
 20
1.990260
  0
VERTEX
  8
LAYER_1
 62
     7
  6
CONTINUOUS
 10
1.967303
 20
2.078512
  0
VERTEX
  8
LAYER_1
 62
     7
  6
CONTINUOUS
 10
1.996346
 20
2.159555
  0
VERTEX
  8
LAYER_1
 62
     7
  6
CONTINUOUS
 10
2.021335
 20
2.242406
  0
VERTEX
  8
LAYER_1
 62
     7
  6
CONTINUOUS
 10
2.040244
 20
2.328854
  0
VERTEX
  8
LAYER_1
 62
     7
  6
CONTINUOUS
 10
2.047673
 20
2.373878
  0
VERTEX
  8
LAYER_1
 62
     7
  6
CONTINUOUS
 10
2.052402
 20
2.419803
  0
VERTEX
  8
LAYER_1
 62
     7
  6
CONTINUOUS
 10
2.054429
 20
2.466630
  0
VERTEX
  8
LAYER_1
 62
     7
  6
CONTINUOUS
 10
2.055102
 20
2.515260
  0
VERTEX
  8
LAYER_1
 62
     7
  6
CONTINUOUS
 10
2.048350
 20
2.562087
  0
VERTEX
  8
LAYER_1
 62
     7
  6
CONTINUOUS
 10
2.032138
 20
2.609811
  0
VERTEX
  8
LAYER_1
 62
     7
  6
CONTINUOUS
 10
2.009177
 20
2.654839
  0
VERTEX
  8
LAYER_1
 62
     7
  6
CONTINUOUS
 10
1.984862
 20
2.687256
  0
VERTEX
  8
LAYER_1
 62
     7
  6
CONTINUOUS
 10
2.014579
 20
2.685457
  0
VERTEX
  8
LAYER_1
 62
     7
  6
CONTINUOUS
 10
2.061181
 20
2.676449
  0
VERTEX
  8
LAYER_1
 62
     7
  6
CONTINUOUS
 10
2.139524
 20
2.672846
  0
VERTEX
  8
LAYER_1
 62
     7
  6
CONTINUOUS
 10
2.225976
 20
2.672846
  0
VERTEX
  8
LAYER_1
 62
     7
  6
CONTINUOUS
 10
2.311071
 20
2.674650
  0
VERTEX
  8
LAYER_1
 62
     7
  6
CONTINUOUS
 10
2.383339
 20
2.677350
  0
VERTEX
  8
LAYER_1
 62
     7
  6
CONTINUOUS
 10
2.425890
 20
2.678248
  0
VERTEX
  8
LAYER_1
 62
     7
  6
CONTINUOUS
 10
2.433315
 20
2.678248
  0
VERTEX
  8
LAYER_1
 62
     7
  6
CONTINUOUS
 10
2.417783
 20
2.657539
  0
VERTEX
  8
LAYER_1
 62
     7
  6
CONTINUOUS
 10
2.398870
 20
2.627823
  0
VERTEX
  8
LAYER_1
 62
     7
  6
CONTINUOUS
 10
2.377937
 20
2.590902
  0
VERTEX
  8
LAYER_1
 62
     7
  6
CONTINUOUS
 10
2.355646
 20
2.548579
  0
VERTEX
  8
LAYER_1
 62
     7
  6
CONTINUOUS
 10
2.332681
 20
2.501752
  0
VERTEX
  8
LAYER_1
 62
     7
  6
CONTINUOUS
 10
2.310398
 20
2.452224
  0
VERTEX
  8
LAYER_1
 62
     7
  6
CONTINUOUS
 10
2.288783
 20
2.403598
  0
VERTEX
  8
LAYER_1
 62
     7
  6
CONTINUOUS
 10
2.269874
 20
2.355870
  0
VERTEX
  8
LAYER_1
 62
     7
  6
CONTINUOUS
 10
2.253665
 20
2.310843
  0
VERTEX
  8
LAYER_1
 62
     7
  6
CONTINUOUS
 10
2.241508
 20
2.272122
  0
VERTEX
  8
LAYER_1
 62
     7
  6
CONTINUOUS
 10
2.234756
 20
2.239701
  0
VERTEX
  8
LAYER_1
 62
     7
  6
CONTINUOUS
 10
1.943665
 20
1.255445
  0
VERTEX
  8
LAYER_1
 62
     7
  6
CONTINUOUS
 10
1.930831
 20
1.219425
  0
VERTEX
  8
LAYER_1
 62
     7
  6
CONTINUOUS
 10
1.918677
 20
1.187909
  0
VERTEX
  8
LAYER_1
 62
     7
  6
CONTINUOUS
 10
1.903815
 20
1.174402
  0
VERTEX
  8
LAYER_1
 62
     7
  6
CONTINUOUS
 10
1.878157
 20
1.189713
  0
VERTEX
  8
LAYER_1
 62
     7
  6
CONTINUOUS
 10
1.861949
 20
1.221228
  0
VERTEX
  8
LAYER_1
 62
     7
  6
CONTINUOUS
 10
1.846413
 20
1.249142
  0
VERTEX
  8
LAYER_1
 62
     7
  6
CONTINUOUS
 10
1.609354
 20
1.858791
  0
VERTEX
  8
LAYER_1
 62
     7
  6
CONTINUOUS
 10
1.367567
 20
1.249142
  0
VERTEX
  8
LAYER_1
 62
     7
  6
CONTINUOUS
 10
1.352035
 20
1.221228
  0
VERTEX
  8
LAYER_1
 62
     7
  6
CONTINUOUS
 10
1.335823
 20
1.189713
  0
VERTEX
  8
LAYER_1
 62
     7
  6
CONTINUOUS
 10
1.320291
 20
1.176201
  0
VERTEX
  8
LAYER_1
 62
     7
  6
CONTINUOUS
 10
1.314890
 20
1.170799
  0
VERTEX
  8
LAYER_1
 62
     7
  6
CONTINUOUS
 10
1.295303
 20
1.187909
  0
VERTEX
  8
LAYER_1
 62
     7
  6
CONTINUOUS
 10
1.283823
 20
1.219425
  0
VERTEX
  8
LAYER_1
 62
     7
  6
CONTINUOUS
 10
1.270988
 20
1.255445
  0
VERTEX
  8
LAYER_1
 62
     7
  6
CONTINUOUS
 10
1.107161
 20
1.824571
  0
VERTEX
  8
LAYER_1
 62
     7
  6
CONTINUOUS
 10
0.678886
 20
1.688953
  0
SEQEND
  8
0
  0
ENDSEC
  0
EOF
