999
DXF file: cross-member.dxf
999
Pro/ENGINEER 2013230 by Parametric Technology Corporation
  0
SECTION
  2
HEADER
  9
$ACADVER
  1
AC1021
  9
$DWGCODEPAGE
  3
ANSI_1252
  9
$EXTMAX
 10
22.0
 20
17.0
 30
0.0
  9
$EXTMIN
 10
0.0
 20
0.0
 30
0.0
  9
$LIMMIN
 10
0.0
 20
0.0
  9
$LIMMAX
 10
22.0
 20
17.0
  9
$VIEWCTR
 10
11.0
 20
8.5
  9
$VIEWSIZE
 40
17.0
  9
$CLAYER
  8
0
  9
$LTSCALE
 40
1.21
  9
$CELTYPE
  6
BYLAYER
  9
$DIMSCALE
 40
1.0
  9
$DIMASZ
 40
0.1875
  9
$DIMEXO
 40
0.0625
  9
$DIMDLI
 40
0.836
  9
$DIMEXE
 40
0.125
  9
$DIMCEN
 40
0.198
  9
$DIMLFAC
 40
1.0
  9
$DIMBLK
  1
_CLOSED
  9
$DIMTXT
 40
0.15625
  9
$DIMTOL
 70
0
  9
$DIMLIM
 70
0
  9
$DIMTFAC
 40
1.0
  9
$DIMGAP
 40
0.09
  9
$DIMDSEP
 70
46
  9
$PDMODE
 70
3
  9
$PDSIZE
 40
0.3125
  9
$HANDSEED
  5
2BA
  9
$TILEMODE
 70
1
  9
$MEASUREMENT
 70
0
  9
$INSUNITS
 70
1
  0
ENDSEC
  0
SECTION
  2
CLASSES
  0
CLASS
  1
ACDBDICTIONARYWDFLT
  2
AcDbDictionaryWithDefault
  3
AutoCAD 2000
 90
0
 91
1
280
0
281
0
  0
CLASS
  1
ACDBPLACEHOLDER
  2
AcDbPlaceHolder
  3
AutoCAD 2000
 90
0
 91
1
280
0
281
0
  0
CLASS
  1
LAYOUT
  2
AcDbLayout
  3
AutoCAD 2000
 90
0
 91
0
280
0
281
0
  0
ENDSEC
  0
SECTION
  2
TABLES
  0
TABLE
  2
VPORT
  5
8
100
AcDbSymbolTable
 70
2
  0
VPORT
  5
1F4
100
AcDbSymbolTableRecord
100
AcDbViewportTableRecord
  2
*ACTIVE
 70
0
 10
0.0
 20
0.0
 11
1.0
 21
1.0
 12
11.0
 22
8.5
 13
0.0
 23
0.0
 14
1.0
 24
1.0
 15
0.0
 25
0.0
 16
0.0
 26
0.0
 36
1.0
 17
0.0
 27
0.0
 37
0.0
 40
17.0
 41
1.2941176471
 42
50.0
 43
0.0
 44
0.0
 50
0.0
 51
0.0
 71
0
 72
100
 73
1
 74
1
 75
0
 76
0
 77
0
 78
0
  0
ENDTAB
  0
TABLE
  2
LTYPE
  5
5
100
AcDbSymbolTable
 70
6
  0
LTYPE
  5
14
100
AcDbSymbolTableRecord
100
AcDbLinetypeTableRecord
  2
BYBLOCK
 70
0
  3

 72
65
 73
0
 40
0.0
  0
LTYPE
  5
15
100
AcDbSymbolTableRecord
100
AcDbLinetypeTableRecord
  2
BYLAYER
 70
0
  3

 72
65
 73
0
 40
0.0
  0
LTYPE
  5
16
100
AcDbSymbolTableRecord
100
AcDbLinetypeTableRecord
  2
CONTINUOUS
 70
64
  3
Solid line
 72
65
 73
0
 40
0.0
  0
LTYPE
  5
1F5
100
AcDbSymbolTableRecord
100
AcDbLinetypeTableRecord
  2
CENTER
 70
64
  3
____ _ ____ _ ____ _ ____ _ ____ _ ____ _ ____
 72
65
 73
4
 40
0.6
 49
0.375
 74
0
 49
-0.075
 74
0
 49
0.075
 74
0
 49
-0.075
 74
0
  0
LTYPE
  5
1F6
100
AcDbSymbolTableRecord
100
AcDbLinetypeTableRecord
  2
HIDDEN
 70
64
  3
- - - - - - - - - - - - - - - - - - - -
 72
65
 73
2
 40
0.2
 49
0.1
 74
0
 49
-0.1
 74
0
  0
LTYPE
  5
1F7
100
AcDbSymbolTableRecord
100
AcDbLinetypeTableRecord
  2
PHANTOM
 70
64
  3
_____ _ _ _____ _ _ _____ _ _ _____
 72
65
 73
6
 40
0.8
 49
0.45
 74
0
 49
-0.05
 74
0
 49
0.1
 74
0
 49
-0.05
 74
0
 49
0.1
 74
0
 49
-0.05
 74
0
  0
LTYPE
  5
1F8
100
AcDbSymbolTableRecord
100
AcDbLinetypeTableRecord
  2
DOT
 70
64
  3
. . . . . . . . . . . . . . . . . . . .
 72
65
 73
2
 40
0.2
 49
0.1
 74
0
 49
-0.1
 74
0
  0
LTYPE
  5
1F9
100
AcDbSymbolTableRecord
100
AcDbLinetypeTableRecord
  2
DASHED
 70
64
  3
- - - - - - - - - - - - - - - - - - - -
 72
65
 73
2
 40
0.2
 49
0.1
 74
0
 49
-0.1
 74
0
  0
ENDTAB
  0
TABLE
  2
LAYER
  5
2
100
AcDbSymbolTable
 70
36
  0
LAYER
  5
10
100
AcDbSymbolTableRecord
100
AcDbLayerTableRecord
  2
0
 70
0
 62
7
  6
CONTINUOUS
370
-3
390
F
  0
LAYER
  5
1FA
100
AcDbSymbolTableRecord
100
AcDbLayerTableRecord
  2
DEFAULT_1
 70
0
 62
7
  6
CENTER
370
-3
390
F
  0
LAYER
  5
1FB
100
AcDbSymbolTableRecord
100
AcDbLayerTableRecord
  2
DEFAULT_2
 70
0
 62
8
  6
HIDDEN
370
-3
390
F
  0
LAYER
  5
1FC
100
AcDbSymbolTableRecord
100
AcDbLayerTableRecord
  2
DEFAULT_3
 70
0
 62
7
  6
PHANTOM
370
-3
390
F
  0
ENDTAB
  0
TABLE
  2
STYLE
  5
3
100
AcDbSymbolTable
 70
1
  0
STYLE
  5
11
100
AcDbSymbolTableRecord
100
AcDbTextStyleTableRecord
  2
STANDARD
 70
0
 40
0.0
 41
0.8
 50
0.0
 71
0
 42
0.2
  3
txt
  4

  0
STYLE
  5
1FD
100
AcDbSymbolTableRecord
100
AcDbTextStyleTableRecord
  2
TEXTSTYLE_1
 70
0
 40
0.0
 41
0.8
 50
0.0
 71
0
 42
0.2
  3
gdt
  4

  0
ENDTAB
  0
TABLE
  2
VIEW
  5
6
100
AcDbSymbolTable
 70
0
  0
ENDTAB
  0
TABLE
  2
UCS
  5
7
100
AcDbSymbolTable
 70
0
  0
ENDTAB
  0
TABLE
  2
APPID
  5
9
100
AcDbSymbolTable
 70
1
  0
APPID
  5
1FE
100
AcDbSymbolTableRecord
100
AcDbRegAppTableRecord
  2
ACAD
 70
0
  0
ENDTAB
  0
TABLE
  2
BLOCK_RECORD
  5
1
100
AcDbSymbolTable
 70
0
  0
BLOCK_RECORD
  5
1FF
100
AcDbSymbolTableRecord
100
AcDbBlockTableRecord
  2
*Model_Space
  0
BLOCK_RECORD
  5
200
100
AcDbSymbolTableRecord
100
AcDbBlockTableRecord
  2
*Paper_Space
  0
ENDTAB
  0
TABLE
  2
DIMSTYLE
  5
A
100
AcDbSymbolTable
 70
1
100
AcDbDimStyleTable
 71
0
  0
DIMSTYLE
105
201
100
AcDbSymbolTableRecord
100
AcDbDimStyleTableRecord
  2
STANDARD
 70
0
  3

  4

 40
1.0
 41
0.1875
 42
0.0625
 43
0.38
 44
0.125
 45
0.0
 46
0.0
 47
0.01
 48
0.01
140
0.15625
141
0.09
142
0.0
143
25.4
144
1.0
145
0.0
146
1.0
147
0.09
 71
0.0
 72
0.0
 73
1
 74
1
 75
0
 76
0
 77
0
 78
4
170
0
171
2
172
0
173
0
174
0
175
0
176
0
177
0
178
0
270
2
271
2
272
2
273
2
274
2
275
0
280
0
281
0
282
0
283
1
284
4
285
0
286
0
287
3
288
0
340
11
278
46
  0
ENDTAB
  0
ENDSEC
  0
SECTION
  2
BLOCKS
  0
BLOCK
  5
20
100
AcDbEntity
  8
0
100
AcDbBlockBegin
  2
*Model_Space
 70
0
 10
0.0
 20
0.0
 30
0.0
  3
*Model_Space
  1

  0
ENDBLK
  5
21
100
AcDbEntity
  8
0
100
AcDbBlockEnd
  0
BLOCK
  5
1C
100
AcDbEntity
  8
0
100
AcDbBlockBegin
  2
*Paper_Space
 70
0
 10
0.0
 20
0.0
 30
0.0
  3
*Paper_Space
  1

  0
ENDBLK
  5
1D
100
AcDbEntity
  8
0
100
AcDbBlockEnd
  0
ENDSEC
  0
SECTION
  2
ENTITIES
  0
LINE
  5
202
100
AcDbEntity
  8
0
100
AcDbLine
 62
7
  6
CONTINUOUS
 10
-4.2888346501
 20
2.5838036117
 11
-5.8288346501
 21
2.5838036117
  0
LINE
  5
203
100
AcDbEntity
  8
0
100
AcDbLine
 62
7
  6
CONTINUOUS
 10
-5.0588346501
 20
3.3538036117
 11
-5.0588346501
 21
1.8138036117
  0
MTEXT
  5
204
100
AcDbEntity
  8
0
100
AcDbMText
 62
9
  6
CONTINUOUS
  7
STANDARD
 71
1
 72
1
 10
-4.3683882215
 20
2.683245576
 30
0.0
 11
1.0
 21
0.0
 31
0.0
 44
0.9
  1
x
 40
0.1988839286
 41
0.1591071429
  0
MTEXT
  5
205
100
AcDbEntity
  8
0
100
AcDbMText
 62
9
  6
CONTINUOUS
  7
STANDARD
 71
1
 72
1
 10
-5.1383882215
 20
3.453245576
 30
0.0
 11
1.0
 21
0.0
 31
0.0
 44
0.9
  1
y
 40
0.1988839286
 41
0.1591071429
  0
MTEXT
  5
206
100
AcDbEntity
  8
0
100
AcDbMText
 62
9
  6
CONTINUOUS
  7
STANDARD
 71
1
 72
1
 10
-5.1383882215
 20
2.683245576
 30
0.0
 11
1.0
 21
0.0
 31
0.0
 44
0.9
  1
z
 40
0.1988839286
 41
0.1591071429
  0
MTEXT
  5
207
100
AcDbEntity
  8
0
100
AcDbMText
 62
7
  6
CONTINUOUS
  7
STANDARD
 71
1
 72
1
 10
-4.8388346501
 20
2.9160536117
 30
0.0
 11
1.0
 21
0.0
 31
0.0
 44
0.9
  1
SIGNAGE
 40
0.15625
 41
0.875
  0
MTEXT
  5
208
100
AcDbEntity
  8
0
100
AcDbMText
 62
2
  6
CONTINUOUS
  7
STANDARD
 71
3
 72
1
 10
11.3561653499
 20
2.3956786117
 30
0.0
 11
1.0
 21
0.0
 31
0.0
 44
0.9
  1
SCALE  1.000
 40
0.15625
 41
1.5
  0
LINE
  5
209
100
AcDbEntity
  8
0
100
AcDbLine
 62
7
  6
CONTINUOUS
 10
-5.0588346501
 20
2.5838036117
 11
-5.0588346501
 21
14.5838036117
  0
LINE
  5
20A
100
AcDbEntity
  8
0
100
AcDbLine
 62
7
  6
CONTINUOUS
 10
-2.7288346501
 20
11.9586172603
 11
-2.7288346501
 21
5.2089899632
  0
LINE
  5
20B
100
AcDbEntity
  8
0
100
AcDbLine
 62
7
  6
CONTINUOUS
 10
27.7711653499
 20
2.5838036117
 11
-5.0588346501
 21
2.5838036117
  0
LINE
  5
20C
100
AcDbEntity
  8
0
100
AcDbLine
 62
7
  6
CONTINUOUS
 10
7.6599659949
 20
13.3633822505
 11
7.5692042459
 21
13.0838036486
  0
LINE
  5
20D
100
AcDbEntity
  8
0
100
AcDbLine
 62
7
  6
CONTINUOUS
 10
7.8504035933
 20
13.94766101
 11
7.6964327691
 21
13.4768344368
  0
LINE
  5
20E
100
AcDbEntity
  8
0
100
AcDbLine
 62
7
  6
CONTINUOUS
 10
7.4346823678
 20
13.0838036486
 11
7.7717974357
 21
14.0838036336
  0
LINE
  5
20F
100
AcDbEntity
  8
0
100
AcDbLine
 62
7
  6
CONTINUOUS
 10
6.0354278164
 20
4.5838036117
 11
16.5069028834
 21
4.5838036117
  0
LINE
  5
210
100
AcDbEntity
  8
0
100
AcDbLine
 62
7
  6
CONTINUOUS
 10
8.3674214138
 20
13.0838036486
 11
8.3674214138
 21
14.0838036336
  0
LINE
  5
211
100
AcDbEntity
  8
0
100
AcDbLine
 62
7
  6
CONTINUOUS
 10
8.5003225463
 20
13.9654892107
 11
8.5003225463
 21
13.6915832181
  0
LINE
  5
212
100
AcDbEntity
  8
0
100
AcDbLine
 62
7
  6
CONTINUOUS
 10
8.5003225463
 20
13.5732687952
 11
8.5003225463
 21
13.2021180714
  0
LINE
  5
213
100
AcDbEntity
  8
0
100
AcDbLine
 62
7
  6
CONTINUOUS
 10
8.9598039008
 20
13.6915832181
 11
8.9598039008
 21
13.5732687952
  0
LINE
  5
214
100
AcDbEntity
  8
0
100
AcDbLine
 62
7
  6
CONTINUOUS
 10
8.993029184
 20
14.0838036336
 11
8.993029184
 21
13.9654892107
  0
LINE
  5
215
100
AcDbEntity
  8
0
100
AcDbLine
 62
7
  6
CONTINUOUS
 10
8.993029184
 20
13.2021180714
 11
8.993029184
 21
13.0838036486
  0
LINE
  5
216
100
AcDbEntity
  8
0
100
AcDbLine
 62
7
  6
CONTINUOUS
 10
9.1388962806
 20
13.0838036486
 11
9.1388962806
 21
14.0838036336
  0
LINE
  5
217
100
AcDbEntity
  8
0
100
AcDbLine
 62
7
  6
CONTINUOUS
 10
9.2717974132
 20
13.9687307017
 11
9.2717974132
 21
13.5927177414
  0
LINE
  5
218
100
AcDbEntity
  8
0
100
AcDbLine
 62
7
  6
CONTINUOUS
 10
9.2717974132
 20
13.4816966734
 11
9.2717974132
 21
13.0838036486
  0
LINE
  5
219
100
AcDbEntity
  8
0
100
AcDbLine
 62
7
  6
CONTINUOUS
 10
11.4824943005
 20
13.9136253541
 11
11.2847633473
 21
13.0838036486
  0
LINE
  5
21A
100
AcDbEntity
  8
0
100
AcDbLine
 62
7
  6
CONTINUOUS
 10
11.2199335265
 20
13.2547923008
 11
11.4192852253
 21
14.0838036336
  0
LINE
  5
21B
100
AcDbEntity
  8
0
100
AcDbLine
 62
7
  6
CONTINUOUS
 10
11.4420368814
 20
7.4576048811
 11
16.6777744149
 21
5.5537003235
  0
LINE
  5
21C
100
AcDbEntity
  8
0
100
AcDbLine
 62
7
  6
CONTINUOUS
 10
7.9354927331
 20
14.0838036336
 11
8.2726078009
 21
13.0838036486
  0
LINE
  5
21D
100
AcDbEntity
  8
0
100
AcDbLine
 62
7
  6
CONTINUOUS
 10
8.0051847904
 20
13.4768344368
 11
7.8504035933
 21
13.94766101
  0
LINE
  5
21E
100
AcDbEntity
  8
0
100
AcDbLine
 62
7
  6
CONTINUOUS
 10
8.1324133136
 20
13.0838036486
 11
8.0416515645
 21
13.3633822505
  0
LINE
  5
21F
100
AcDbEntity
  8
0
100
AcDbLine
 62
7
  6
CONTINUOUS
 10
11.7555899204
 20
13.2450678277
 11
11.955751992
 21
14.0838036336
  0
LINE
  5
220
100
AcDbEntity
  8
0
100
AcDbLine
 62
7
  6
CONTINUOUS
 10
12.0862220062
 20
14.0838036336
 11
11.8350064508
 21
13.0838036486
  0
LINE
  5
221
100
AcDbEntity
  8
0
100
AcDbLine
 62
7
  6
CONTINUOUS
 10
16.8477744149
 20
11.6139069
 11
11.6120368814
 21
9.7100023424
  0
LINE
  5
222
100
AcDbEntity
  8
0
100
AcDbLine
 62
7
  6
CONTINUOUS
 10
7.2227744149
 20
8.1139069
 11
-2.0579631186
 21
4.7390932515
  0
LINE
  5
223
100
AcDbEntity
  8
0
100
AcDbLine
 62
7
  6
CONTINUOUS
 10
-2.0579631186
 20
12.428513972
 11
7.2227744149
 21
9.0537003235
  0
LINE
  5
224
100
AcDbEntity
  8
0
100
AcDbLine
 62
7
  6
CONTINUOUS
 10
12.1664489094
 20
13.0838036486
 11
12.1664489094
 21
13.1859106163
  0
LINE
  5
225
100
AcDbEntity
  8
0
100
AcDbLine
 62
7
  6
CONTINUOUS
 10
12.1664489094
 20
13.9816966659
 11
12.1664489094
 21
14.0838036336
  0
LINE
  5
226
100
AcDbEntity
  8
0
100
AcDbLine
 62
7
  6
CONTINUOUS
 10
12.2936774326
 20
13.1859106163
 11
12.2936774326
 21
13.9816966659
  0
LINE
  5
227
100
AcDbEntity
  8
0
100
AcDbLine
 62
7
  6
CONTINUOUS
 10
12.4265785651
 20
13.9816966659
 11
12.4265785651
 21
13.1859106163
  0
LINE
  5
228
100
AcDbEntity
  8
0
100
AcDbLine
 62
7
  6
CONTINUOUS
 10
12.5538070883
 20
14.0838036336
 11
12.5538070883
 21
13.9816966659
  0
LINE
  5
229
100
AcDbEntity
  8
0
100
AcDbLine
 62
7
  6
CONTINUOUS
 10
12.5538070883
 20
13.1859106163
 11
12.5538070883
 21
13.0838036486
  0
LINE
  5
22A
100
AcDbEntity
  8
0
100
AcDbLine
 62
7
  6
CONTINUOUS
 10
5.8645562849
 20
5.5537003235
 11
11.1002938183
 21
7.4576048811
  0
LINE
  5
22B
100
AcDbEntity
  8
0
100
AcDbLine
 62
7
  6
CONTINUOUS
 10
24.7831939589
 20
4.7216018552
 11
15.6334015534
 21
7.7666314158
  0
LINE
  5
22C
100
AcDbEntity
  8
0
100
AcDbLine
 62
7
  6
CONTINUOUS
 10
11.2702938183
 20
9.7100023424
 11
6.0345562849
 21
11.6139069
  0
LINE
  5
22D
100
AcDbEntity
  8
0
100
AcDbLine
 62
7
  6
CONTINUOUS
 10
11.1372755051
 20
13.0838036486
 11
10.8820080859
 21
14.0838036336
  0
LINE
  5
22E
100
AcDbEntity
  8
0
100
AcDbLine
 62
7
  6
CONTINUOUS
 10
11.0189610822
 20
14.0838036336
 11
11.2199335265
 21
13.2547923008
  0
LINE
  5
22F
100
AcDbEntity
  8
0
100
AcDbLine
 62
7
  6
CONTINUOUS
 10
12.7183127585
 20
13.0838036486
 11
12.7183127585
 21
14.0838036336
  0
LINE
  5
230
100
AcDbEntity
  8
0
100
AcDbLine
 62
7
  6
CONTINUOUS
 10
12.8422997907
 20
13.9460402645
 11
12.8422997907
 21
13.0838036486
  0
LINE
  5
231
100
AcDbEntity
  8
0
100
AcDbLine
 62
7
  6
CONTINUOUS
 10
13.3098848728
 20
13.2920694477
 11
13.3098848728
 21
14.0838036336
  0
LINE
  5
232
100
AcDbEntity
  8
0
100
AcDbLine
 62
7
  6
CONTINUOUS
 10
13.4338719049
 20
14.0838036336
 11
13.4338719049
 21
13.0838036486
  0
LINE
  5
233
100
AcDbEntity
  8
0
100
AcDbLine
 62
7
  6
CONTINUOUS
 10
15.6041201011
 20
8.7046963816
 11
24.7539125066
 21
12.3983146817
  0
LINE
  5
234
100
AcDbEntity
  8
0
100
AcDbLine
 62
7
  6
CONTINUOUS
 10
9.5570486244
 20
13.5189738203
 11
9.9128022658
 21
13.0838036486
  0
LINE
  5
235
100
AcDbEntity
  8
0
100
AcDbLine
 62
7
  6
CONTINUOUS
 10
9.740192868
 20
13.0838036486
 11
9.4241474919
 21
13.4816966734
  0
LINE
  5
236
100
AcDbEntity
  8
0
100
AcDbLine
 62
7
  6
CONTINUOUS
 10
11.6858978631
 20
13.0838036486
 11
11.4824943005
 21
13.9136253541
  0
LINE
  5
237
100
AcDbEntity
  8
0
100
AcDbLine
 62
7
  6
CONTINUOUS
 10
11.5546174761
 20
14.0838036336
 11
11.7555899204
 21
13.2450678277
  0
LINE
  5
238
100
AcDbEntity
  8
0
100
AcDbLine
 62
7
  6
CONTINUOUS
 10
14.0246336465
 20
13.4703514548
 11
14.0246336465
 21
13.5870451321
  0
LINE
  5
239
100
AcDbEntity
  8
0
100
AcDbLine
 62
7
  6
CONTINUOUS
 10
14.2564002556
 20
13.2118425446
 11
14.2564002556
 21
13.4703514548
  0
LINE
  5
23A
100
AcDbEntity
  8
0
100
AcDbLine
 62
7
  6
CONTINUOUS
 10
14.3836287788
 20
14.0157323218
 11
14.3836287788
 21
13.8552785154
  0
LINE
  5
23B
100
AcDbEntity
  8
0
100
AcDbLine
 62
7
  6
CONTINUOUS
 10
14.3876806426
 20
13.5870451321
 11
14.3876806426
 21
13.1502542148
  0
LINE
  5
23C
100
AcDbEntity
  8
0
100
AcDbLine
 62
7
  6
CONTINUOUS
 10
14.5051846927
 20
13.1437712328
 11
14.5051846927
 21
13.3107080212
  0
LINE
  5
23D
100
AcDbEntity
  8
0
100
AcDbLine
 62
7
  6
CONTINUOUS
 10
15.1461895454
 20
14.0368020135
 11
15.1461895454
 21
13.8779689527
  0
LINE
  5
23E
100
AcDbEntity
  8
0
100
AcDbLine
 62
7
  6
CONTINUOUS
 10
16.6769028834
 20
12.5838036117
 11
6.2054278164
 21
12.5838036117
  0
LINE
  5
23F
100
AcDbEntity
  8
0
100
AcDbLine
 62
7
  6
CONTINUOUS
 10
13.4338719049
 20
13.0838036486
 11
13.2847633172
 21
13.0838036486
  0
LINE
  5
240
100
AcDbEntity
  8
0
100
AcDbLine
 62
7
  6
CONTINUOUS
 10
12.8422997907
 20
13.0838036486
 11
12.7183127585
 21
13.0838036486
  0
LINE
  5
241
100
AcDbEntity
  8
0
100
AcDbLine
 62
7
  6
CONTINUOUS
 10
12.5538070883
 20
13.0838036486
 11
12.1664489094
 21
13.0838036486
  0
LINE
  5
242
100
AcDbEntity
  8
0
100
AcDbLine
 62
7
  6
CONTINUOUS
 10
11.8350064508
 20
13.0838036486
 11
11.6858978631
 21
13.0838036486
  0
LINE
  5
243
100
AcDbEntity
  8
0
100
AcDbLine
 62
7
  6
CONTINUOUS
 10
11.2847633473
 20
13.0838036486
 11
11.1372755051
 21
13.0838036486
  0
LINE
  5
244
100
AcDbEntity
  8
0
100
AcDbLine
 62
7
  6
CONTINUOUS
 10
9.9128022658
 20
13.0838036486
 11
9.740192868
 21
13.0838036486
  0
LINE
  5
245
100
AcDbEntity
  8
0
100
AcDbLine
 62
7
  6
CONTINUOUS
 10
9.2717974132
 20
13.0838036486
 11
9.1388962806
 21
13.0838036486
  0
LINE
  5
246
100
AcDbEntity
  8
0
100
AcDbLine
 62
7
  6
CONTINUOUS
 10
8.993029184
 20
13.0838036486
 11
8.3674214138
 21
13.0838036486
  0
LINE
  5
247
100
AcDbEntity
  8
0
100
AcDbLine
 62
7
  6
CONTINUOUS
 10
8.2726078009
 20
13.0838036486
 11
8.1324133136
 21
13.0838036486
  0
LINE
  5
248
100
AcDbEntity
  8
0
100
AcDbLine
 62
7
  6
CONTINUOUS
 10
7.5692042459
 20
13.0838036486
 11
7.4346823678
 21
13.0838036486
  0
LINE
  5
249
100
AcDbEntity
  8
0
100
AcDbLine
 62
7
  6
CONTINUOUS
 10
12.1664489094
 20
13.1859106163
 11
12.2936774326
 21
13.1859106163
  0
LINE
  5
24A
100
AcDbEntity
  8
0
100
AcDbLine
 62
7
  6
CONTINUOUS
 10
12.4265785651
 20
13.1859106163
 11
12.5538070883
 21
13.1859106163
  0
LINE
  5
24B
100
AcDbEntity
  8
0
100
AcDbLine
 62
7
  6
CONTINUOUS
 10
8.5003225463
 20
13.2021180714
 11
8.993029184
 21
13.2021180714
  0
LINE
  5
24C
100
AcDbEntity
  8
0
100
AcDbLine
 62
7
  6
CONTINUOUS
 10
14.5051846927
 20
13.3107080212
 11
14.5149091659
 21
13.3107080212
  0
LINE
  5
24D
100
AcDbEntity
  8
0
100
AcDbLine
 62
7
  6
CONTINUOUS
 10
8.0416515645
 20
13.3633822505
 11
7.6599659949
 21
13.3633822505
  0
LINE
  5
24E
100
AcDbEntity
  8
0
100
AcDbLine
 62
7
  6
CONTINUOUS
 10
13.2847633172
 20
13.0838036486
 11
12.8422997907
 21
13.9460402645
  0
LINE
  5
24F
100
AcDbEntity
  8
0
100
AcDbLine
 62
7
  6
CONTINUOUS
 10
12.9071296114
 20
14.0838036336
 11
13.3098848728
 21
13.2920694477
  0
LINE
  5
250
100
AcDbEntity
  8
0
100
AcDbLine
 62
7
  6
CONTINUOUS
 10
14.2564002556
 20
13.4703514548
 11
14.0246336465
 21
13.4703514548
  0
LINE
  5
251
100
AcDbEntity
  8
0
100
AcDbLine
 62
7
  6
CONTINUOUS
 10
7.6964327691
 20
13.4768344368
 11
8.0051847904
 21
13.4768344368
  0
LINE
  5
252
100
AcDbEntity
  8
0
100
AcDbLine
 62
7
  6
CONTINUOUS
 10
9.4241474919
 20
13.4816966734
 11
9.2717974132
 21
13.4816966734
  0
LINE
  5
253
100
AcDbEntity
  8
0
100
AcDbLine
 62
7
  6
CONTINUOUS
 10
8.9598039008
 20
13.5732687952
 11
8.5003225463
 21
13.5732687952
  0
LINE
  5
254
100
AcDbEntity
  8
0
100
AcDbLine
 62
7
  6
CONTINUOUS
 10
14.0246336465
 20
13.5870451321
 11
14.3876806426
 21
13.5870451321
  0
LINE
  5
255
100
AcDbEntity
  8
0
100
AcDbLine
 62
7
  6
CONTINUOUS
 10
9.2717974132
 20
13.5927177414
 11
9.3884910905
 21
13.5927177414
  0
LINE
  5
256
100
AcDbEntity
  8
0
100
AcDbLine
 62
7
  6
CONTINUOUS
 10
8.5003225463
 20
13.6915832181
 11
8.9598039008
 21
13.6915832181
  0
LINE
  5
257
100
AcDbEntity
  8
0
100
AcDbLine
 62
7
  6
CONTINUOUS
 10
14.3836287788
 20
13.8552785154
 11
14.3722835602
 21
13.8552785154
  0
LINE
  5
258
100
AcDbEntity
  8
0
100
AcDbLine
 62
7
  6
CONTINUOUS
 10
15.1461895454
 20
13.8779689527
 11
15.1364650722
 21
13.8779689527
  0
LINE
  5
259
100
AcDbEntity
  8
0
100
AcDbLine
 62
7
  6
CONTINUOUS
 10
8.993029184
 20
13.9654892107
 11
8.5003225463
 21
13.9654892107
  0
LINE
  5
25A
100
AcDbEntity
  8
0
100
AcDbLine
 62
7
  6
CONTINUOUS
 10
9.4038881729
 20
13.9687307017
 11
9.2717974132
 21
13.9687307017
  0
LINE
  5
25B
100
AcDbEntity
  8
0
100
AcDbLine
 62
7
  6
CONTINUOUS
 10
12.5538070883
 20
13.9816966659
 11
12.4265785651
 21
13.9816966659
  0
LINE
  5
25C
100
AcDbEntity
  8
0
100
AcDbLine
 62
7
  6
CONTINUOUS
 10
12.2936774326
 20
13.9816966659
 11
12.1664489094
 21
13.9816966659
  0
LINE
  5
25D
100
AcDbEntity
  8
0
100
AcDbLine
 62
7
  6
CONTINUOUS
 10
7.7717974357
 20
14.0838036336
 11
7.9354927331
 21
14.0838036336
  0
LINE
  5
25E
100
AcDbEntity
  8
0
100
AcDbLine
 62
7
  6
CONTINUOUS
 10
8.3674214138
 20
14.0838036336
 11
8.993029184
 21
14.0838036336
  0
LINE
  5
25F
100
AcDbEntity
  8
0
100
AcDbLine
 62
7
  6
CONTINUOUS
 10
9.1388962806
 20
14.0838036336
 11
9.3965948181
 21
14.0838036336
  0
LINE
  5
260
100
AcDbEntity
  8
0
100
AcDbLine
 62
7
  6
CONTINUOUS
 10
10.8820080859
 20
14.0838036336
 11
11.0189610822
 21
14.0838036336
  0
LINE
  5
261
100
AcDbEntity
  8
0
100
AcDbLine
 62
7
  6
CONTINUOUS
 10
11.4192852253
 20
14.0838036336
 11
11.5546174761
 21
14.0838036336
  0
LINE
  5
262
100
AcDbEntity
  8
0
100
AcDbLine
 62
7
  6
CONTINUOUS
 10
11.955751992
 20
14.0838036336
 11
12.0862220062
 21
14.0838036336
  0
LINE
  5
263
100
AcDbEntity
  8
0
100
AcDbLine
 62
7
  6
CONTINUOUS
 10
12.1664489094
 20
14.0838036336
 11
12.5538070883
 21
14.0838036336
  0
LINE
  5
264
100
AcDbEntity
  8
0
100
AcDbLine
 62
7
  6
CONTINUOUS
 10
12.7183127585
 20
14.0838036336
 11
12.9071296114
 21
14.0838036336
  0
LINE
  5
265
100
AcDbEntity
  8
0
100
AcDbLine
 62
7
  6
CONTINUOUS
 10
13.3098848728
 20
14.0838036336
 11
13.4338719049
 21
14.0838036336
  0
LINE
  5
266
100
AcDbEntity
  8
0
100
AcDbLine
 62
7
  6
CONTINUOUS
 10
-5.0588346501
 20
14.5838036117
 11
27.7711653499
 21
14.5838036117
  0
LINE
  5
267
100
AcDbEntity
  8
0
100
AcDbLine
 62
7
  6
CONTINUOUS
 10
25.4410791066
 20
5.1960196881
 11
25.4410791066
 21
11.9346675488
  0
LINE
  5
268
100
AcDbEntity
  8
0
100
AcDbLine
 62
7
  6
CONTINUOUS
 10
27.7711653499
 20
14.5838036117
 11
27.7711653499
 21
2.5838036117
  0
ARC
  5
269
100
AcDbEntity
  8
0
100
AcDbCircle
 62
7
  6
CONTINUOUS
 10
11.2711653499
 20
6.9877081694
 40
0.5
100
AcDbArc
 50
70.0168934781
 51
109.983106522
  0
ARC
  5
26A
100
AcDbEntity
  8
0
100
AcDbCircle
 62
7
  6
CONTINUOUS
 10
6.0354278164
 20
5.0838036117
 40
0.5
100
AcDbArc
 50
109.9831065219
 51
270.0
  0
ARC
  5
26B
100
AcDbEntity
  8
0
100
AcDbCircle
 62
7
  6
CONTINUOUS
 10
-2.2288346501
 20
5.2089899632
 40
0.5
100
AcDbArc
 50
180.0
 51
289.9831065219
  0
CIRCLE
  5
26C
100
AcDbEntity
  8
0
100
AcDbCircle
 62
7
  6
CONTINUOUS
 10
3.1911653499
 20
3.5838035824
 40
0.2535
  0
CIRCLE
  5
26D
100
AcDbEntity
  8
0
100
AcDbCircle
 62
7
  6
CONTINUOUS
 10
-3.3113346501
 20
3.5838035824
 40
0.166
  0
CIRCLE
  5
26E
100
AcDbEntity
  8
0
100
AcDbCircle
 62
7
  6
CONTINUOUS
 10
-4.4763346501
 20
3.5838035824
 40
0.166
  0
CIRCLE
  5
26F
100
AcDbEntity
  8
0
100
AcDbCircle
 62
7
  6
CONTINUOUS
 10
3.1911653499
 20
3.5838035824
 40
0.133
  0
ARC
  5
270
100
AcDbEntity
  8
0
100
AcDbCircle
 62
7
  6
CONTINUOUS
 10
6.2054278164
 20
12.0838036117
 40
0.5
100
AcDbArc
 50
90.0
 51
250.0168934781
  0
ARC
  5
271
100
AcDbEntity
  8
0
100
AcDbCircle
 62
7
  6
CONTINUOUS
 10
7.0519028834
 20
8.5838036117
 40
0.5
100
AcDbArc
 50
289.9831065219
 51
70.0168934781
  0
ARC
  5
272
100
AcDbEntity
  8
0
100
AcDbCircle
 62
7
  6
CONTINUOUS
 10
-2.2288346501
 20
11.9586172603
 40
0.5
100
AcDbArc
 50
70.0168934781
 51
180.0
  0
CIRCLE
  5
273
100
AcDbEntity
  8
0
100
AcDbCircle
 62
7
  6
CONTINUOUS
 10
3.1911653499
 20
13.5838036411
 40
0.2535
  0
CIRCLE
  5
274
100
AcDbEntity
  8
0
100
AcDbCircle
 62
7
  6
CONTINUOUS
 10
-3.3113346501
 20
13.5838036411
 40
0.166
  0
CIRCLE
  5
275
100
AcDbEntity
  8
0
100
AcDbCircle
 62
7
  6
CONTINUOUS
 10
-4.4763346501
 20
13.5838036411
 40
0.166
  0
CIRCLE
  5
276
100
AcDbEntity
  8
0
100
AcDbCircle
 62
7
  6
CONTINUOUS
 10
3.1911653499
 20
13.5838036411
 40
0.133
  0
ARC
  5
277
100
AcDbEntity
  8
0
100
AcDbCircle
 62
7
  6
CONTINUOUS
 10
16.5069028834
 20
5.0838036117
 40
0.5
100
AcDbArc
 50
270.0
 51
70.0168934781
  0
ARC
  5
278
100
AcDbEntity
  8
0
100
AcDbCircle
 62
7
  6
CONTINUOUS
 10
24.9410791066
 20
5.1960196881
 40
0.5
100
AcDbArc
 50
251.5926779236
 51
360.0
  0
ARC
  5
279
100
AcDbEntity
  8
0
100
AcDbCircle
 62
7
  6
CONTINUOUS
 10
15.7912867011
 20
8.2410492487
 40
0.5
100
AcDbArc
 50
111.9831065219
 51
251.5926779236
  0
CIRCLE
  5
27A
100
AcDbEntity
  8
0
100
AcDbCircle
 62
7
  6
CONTINUOUS
 10
19.5211653499
 20
3.5838035824
 40
0.2535
  0
CIRCLE
  5
27B
100
AcDbEntity
  8
0
100
AcDbCircle
 62
7
  6
CONTINUOUS
 10
26.0236653499
 20
3.5838035824
 40
0.166
  0
CIRCLE
  5
27C
100
AcDbEntity
  8
0
100
AcDbCircle
 62
7
  6
CONTINUOUS
 10
27.1886653499
 20
3.5838035824
 40
0.166
  0
CIRCLE
  5
27D
100
AcDbEntity
  8
0
100
AcDbCircle
 62
7
  6
CONTINUOUS
 10
19.5211653499
 20
3.5838035824
 40
0.133
  0
ARC
  5
27E
100
AcDbEntity
  8
0
100
AcDbCircle
 62
7
  6
CONTINUOUS
 10
11.4411653499
 20
10.1798990541
 40
0.5
100
AcDbArc
 50
250.0168934781
 51
289.9831065219
  0
ARC
  5
27F
100
AcDbEntity
  8
0
100
AcDbCircle
 62
7
  6
CONTINUOUS
 10
16.6769028834
 20
12.0838036117
 40
0.5
100
AcDbArc
 50
289.9831065219
 51
90.0
  0
ARC
  5
280
100
AcDbEntity
  8
0
100
AcDbCircle
 62
7
  6
CONTINUOUS
 10
24.9410791066
 20
11.9346675488
 40
0.5
100
AcDbArc
 50
0.0
 51
111.9831065219
  0
CIRCLE
  5
281
100
AcDbEntity
  8
0
100
AcDbCircle
 62
7
  6
CONTINUOUS
 10
19.5211653499
 20
13.5838036411
 40
0.2535
  0
CIRCLE
  5
282
100
AcDbEntity
  8
0
100
AcDbCircle
 62
7
  6
CONTINUOUS
 10
26.0236653499
 20
13.5838036411
 40
0.166
  0
CIRCLE
  5
283
100
AcDbEntity
  8
0
100
AcDbCircle
 62
7
  6
CONTINUOUS
 10
27.1886653499
 20
13.5838036411
 40
0.166
  0
CIRCLE
  5
284
100
AcDbEntity
  8
0
100
AcDbCircle
 62
7
  6
CONTINUOUS
 10
19.5211653499
 20
13.5838036411
 40
0.133
  0
SPLINE
  5
285
100
AcDbEntity
  8
0
100
AcDbSpline
 62
7
  6
CONTINUOUS
 70
0
 71
3
 72
8
 73
4
 74
0
 42
0.0000001
 43
0.0000001
 44
0.0000000001
 40
0.0
 40
0.0
 40
0.0
 40
0.0
 40
1.0
 40
1.0
 40
1.0
 40
1.0
 10
10.6810356416
 20
13.5838036411
 30
0.0
 10
10.6810356416
 20
13.7156242766
 30
0.0
 10
10.6510518495
 20
13.8190818655
 30
0.0
 10
10.5991879929
 20
13.8860726803
 30
0.0
  0
SPLINE
  5
286
100
AcDbEntity
  8
0
100
AcDbSpline
 62
7
  6
CONTINUOUS
 70
0
 71
3
 72
8
 73
4
 74
0
 42
0.0000001
 43
0.0000001
 44
0.0000000001
 40
0.0
 40
0.0
 40
0.0
 40
0.0
 40
1.0
 40
1.0
 40
1.0
 40
1.0
 10
10.5991879929
 20
13.8860726803
 30
0.0
 10
10.5462436393
 20
13.9552244891
 30
0.0
 10
10.4708789727
 20
13.9898003935
 30
0.0
 10
10.3779562296
 20
13.9898003935
 30
0.0
  0
SPLINE
  5
287
100
AcDbEntity
  8
0
100
AcDbSpline
 62
7
  6
CONTINUOUS
 70
0
 71
3
 72
8
 73
4
 74
0
 42
0.0000001
 43
0.0000001
 44
0.0000000001
 40
0.0
 40
0.0
 40
0.0
 40
0.0
 40
1.0
 40
1.0
 40
1.0
 40
1.0
 10
10.3779562296
 20
13.9898003935
 30
0.0
 10
10.2817919955
 20
13.9898003935
 30
0.0
 10
10.2110194412
 20
13.9573854831
 30
0.0
 10
10.1559140936
 20
13.8860726803
 30
0.0
  0
SPLINE
  5
288
100
AcDbEntity
  8
0
100
AcDbSpline
 62
7
  6
CONTINUOUS
 70
0
 71
3
 72
8
 73
4
 74
0
 42
0.0000001
 43
0.0000001
 44
0.0000000001
 40
0.0
 40
0.0
 40
0.0
 40
0.0
 40
1.0
 40
1.0
 40
1.0
 40
1.0
 10
10.1559140936
 20
13.8860726803
 30
0.0
 10
10.1029697399
 20
13.8180013685
 30
0.0
 10
10.0740664449
 20
13.7134632826
 30
0.0
 10
10.0740664449
 20
13.5838036411
 30
0.0
  0
SPLINE
  5
289
100
AcDbEntity
  8
0
100
AcDbSpline
 62
7
  6
CONTINUOUS
 70
0
 71
3
 72
8
 73
4
 74
0
 42
0.0000001
 43
0.0000001
 44
0.0000000001
 40
0.0
 40
0.0
 40
0.0
 40
0.0
 40
1.0
 40
1.0
 40
1.0
 40
1.0
 10
10.0740664449
 20
13.5838036411
 30
0.0
 10
10.0740664449
 20
13.3212428671
 30
0.0
 10
10.1931912405
 20
13.1778068887
 30
0.0
 10
10.3779562296
 20
13.1778068887
 30
0.0
  0
SPLINE
  5
28A
100
AcDbEntity
  8
0
100
AcDbSpline
 62
7
  6
CONTINUOUS
 70
0
 71
3
 72
8
 73
4
 74
0
 42
0.0000001
 43
0.0000001
 44
0.0000000001
 40
0.0
 40
0.0
 40
0.0
 40
0.0
 40
1.0
 40
1.0
 40
1.0
 40
1.0
 10
10.3779562296
 20
13.1778068887
 30
0.0
 10
10.5627212187
 20
13.1778068887
 30
0.0
 10
10.6810356416
 20
13.3212428671
 30
0.0
 10
10.6810356416
 20
13.5838036411
 30
0.0
  0
SPLINE
  5
28B
100
AcDbEntity
  8
0
100
AcDbSpline
 62
7
  6
CONTINUOUS
 70
0
 71
3
 72
8
 73
4
 74
0
 42
0.0000001
 43
0.0000001
 44
0.0000000001
 40
0.0
 40
0.0
 40
0.0
 40
0.0
 40
1.0
 40
1.0
 40
1.0
 40
1.0
 10
9.5692042158
 20
13.644581598
 30
0.0
 10
9.6081021083
 20
13.6813184964
 30
0.0
 10
9.625930309
 20
13.7326421045
 30
0.0
 10
9.625930309
 20
13.8017939133
 30
0.0
  0
SPLINE
  5
28C
100
AcDbEntity
  8
0
100
AcDbSpline
 62
7
  6
CONTINUOUS
 70
0
 71
3
 72
8
 73
4
 74
0
 42
0.0000001
 43
0.0000001
 44
0.0000000001
 40
0.0
 40
0.0
 40
0.0
 40
0.0
 40
1.0
 40
1.0
 40
1.0
 40
1.0
 10
9.625930309
 20
13.8017939133
 30
0.0
 10
9.625930309
 20
13.860140752
 30
0.0
 10
9.6059411142
 20
13.9055216265
 30
0.0
 10
9.5627212337
 20
13.9346950458
 30
0.0
  0
SPLINE
  5
28D
100
AcDbEntity
  8
0
100
AcDbSpline
 62
7
  6
CONTINUOUS
 70
0
 71
3
 72
8
 73
4
 74
0
 42
0.0000001
 43
0.0000001
 44
0.0000000001
 40
0.0
 40
0.0
 40
0.0
 40
0.0
 40
1.0
 40
1.0
 40
1.0
 40
1.0
 10
9.5627212337
 20
13.9346950458
 30
0.0
 10
9.5249038383
 20
13.9595464771
 30
0.0
 10
9.4773619698
 20
13.9687307017
 30
0.0
 10
9.4038881729
 20
13.9687307017
 30
0.0
  0
SPLINE
  5
28E
100
AcDbEntity
  8
0
100
AcDbSpline
 62
7
  6
CONTINUOUS
 70
0
 71
3
 72
8
 73
4
 74
0
 42
0.0000001
 43
0.0000001
 44
0.0000000001
 40
0.0
 40
0.0
 40
0.0
 40
0.0
 40
1.0
 40
1.0
 40
1.0
 40
1.0
 10
9.3884910905
 20
13.5927177414
 30
0.0
 10
9.4652063784
 20
13.5927177414
 30
0.0
 10
9.5270648323
 20
13.6024422145
 30
0.0
 10
9.5692042158
 20
13.644581598
 30
0.0
  0
SPLINE
  5
28F
100
AcDbEntity
  8
0
100
AcDbSpline
 62
7
  6
CONTINUOUS
 70
0
 71
3
 72
8
 73
4
 74
0
 42
0.0000001
 43
0.0000001
 44
0.0000000001
 40
0.0
 40
0.0
 40
0.0
 40
0.0
 40
1.0
 40
1.0
 40
1.0
 40
1.0
 10
9.935492703
 20
13.5838036411
 30
0.0
 10
9.935492703
 20
13.751280678
 30
0.0
 10
9.9787125835
 20
13.8776988284
 30
0.0
 10
10.0554278714
 20
13.9695410745
 30
0.0
  0
SPLINE
  5
290
100
AcDbEntity
  8
0
100
AcDbSpline
 62
7
  6
CONTINUOUS
 70
0
 71
3
 72
8
 73
4
 74
0
 42
0.0000001
 43
0.0000001
 44
0.0000000001
 40
0.0
 40
0.0
 40
0.0
 40
0.0
 40
1.0
 40
1.0
 40
1.0
 40
1.0
 10
10.0554278714
 20
13.9695410745
 30
0.0
 10
10.1332236563
 20
14.0581418295
 30
0.0
 10
10.2431642273
 20
14.1048733253
 30
0.0
 10
10.3771458568
 20
14.1048733253
 30
0.0
  0
SPLINE
  5
291
100
AcDbEntity
  8
0
100
AcDbSpline
 62
7
  6
CONTINUOUS
 70
0
 71
3
 72
8
 73
4
 74
0
 42
0.0000001
 43
0.0000001
 44
0.0000000001
 40
0.0
 40
0.0
 40
0.0
 40
0.0
 40
1.0
 40
1.0
 40
1.0
 40
1.0
 10
10.3771458568
 20
14.1048733253
 30
0.0
 10
10.5132884804
 20
14.1048733253
 30
0.0
 10
10.6240394242
 20
14.0549003385
 30
0.0
 10
10.699674215
 20
13.9695410745
 30
0.0
  0
SPLINE
  5
292
100
AcDbEntity
  8
0
100
AcDbSpline
 62
7
  6
CONTINUOUS
 70
0
 71
3
 72
8
 73
4
 74
0
 42
0.0000001
 43
0.0000001
 44
0.0000000001
 40
0.0
 40
0.0
 40
0.0
 40
0.0
 40
1.0
 40
1.0
 40
1.0
 40
1.0
 10
10.699674215
 20
13.9695410745
 30
0.0
 10
10.7753090059
 20
13.8809403195
 30
0.0
 10
10.8196093834
 20
13.750200181
 30
0.0
 10
10.8196093834
 20
13.5838036411
 30
0.0
  0
SPLINE
  5
293
100
AcDbEntity
  8
0
100
AcDbSpline
 62
7
  6
CONTINUOUS
 70
0
 71
3
 72
8
 73
4
 74
0
 42
0.0000001
 43
0.0000001
 44
0.0000000001
 40
0.0
 40
0.0
 40
0.0
 40
0.0
 40
1.0
 40
1.0
 40
1.0
 40
1.0
 10
10.8196093834
 20
13.5838036411
 30
0.0
 10
10.8196093834
 20
13.4217290892
 30
0.0
 10
10.7774699999
 20
13.2874773354
 30
0.0
 10
10.699674215
 20
13.1988765804
 30
0.0
  0
SPLINE
  5
294
100
AcDbEntity
  8
0
100
AcDbSpline
 62
7
  6
CONTINUOUS
 70
0
 71
3
 72
8
 73
4
 74
0
 42
0.0000001
 43
0.0000001
 44
0.0000000001
 40
0.0
 40
0.0
 40
0.0
 40
0.0
 40
1.0
 40
1.0
 40
1.0
 40
1.0
 10
10.699674215
 20
13.1988765804
 30
0.0
 10
10.6175564421
 20
13.1059538373
 30
0.0
 10
10.5078859953
 20
13.0627339568
 30
0.0
 10
10.3771458568
 20
13.0627339568
 30
0.0
  0
SPLINE
  5
295
100
AcDbEntity
  8
0
100
AcDbSpline
 62
7
  6
CONTINUOUS
 70
0
 71
3
 72
8
 73
4
 74
0
 42
0.0000001
 43
0.0000001
 44
0.0000000001
 40
0.0
 40
0.0
 40
0.0
 40
0.0
 40
1.0
 40
1.0
 40
1.0
 40
1.0
 10
10.3771458568
 20
13.0627339568
 30
0.0
 10
10.2420837303
 20
13.0627339568
 30
0.0
 10
10.1334937805
 20
13.1091953284
 30
0.0
 10
10.0546174986
 20
13.1988765804
 30
0.0
  0
SPLINE
  5
296
100
AcDbEntity
  8
0
100
AcDbSpline
 62
7
  6
CONTINUOUS
 70
0
 71
3
 72
8
 73
4
 74
0
 42
0.0000001
 43
0.0000001
 44
0.0000000001
 40
0.0
 40
0.0
 40
0.0
 40
0.0
 40
1.0
 40
1.0
 40
1.0
 40
1.0
 10
10.0546174986
 20
13.1988765804
 30
0.0
 10
9.9779022108
 20
13.2874773354
 30
0.0
 10
9.935492703
 20
13.4195680952
 30
0.0
 10
9.935492703
 20
13.5838036411
 30
0.0
  0
SPLINE
  5
297
100
AcDbEntity
  8
0
100
AcDbSpline
 62
7
  6
CONTINUOUS
 70
0
 71
3
 72
8
 73
4
 74
0
 42
0.0000001
 43
0.0000001
 44
0.0000000001
 40
0.0
 40
0.0
 40
0.0
 40
0.0
 40
1.0
 40
1.0
 40
1.0
 40
1.0
 10
14.8333856603
 20
13.0659754479
 30
0.0
 10
14.6885990606
 20
13.0659754479
 30
0.0
 10
14.5948659448
 20
13.1005513523
 30
0.0
 10
14.5051846927
 20
13.1437712328
 30
0.0
  0
SPLINE
  5
298
100
AcDbEntity
  8
0
100
AcDbSpline
 62
7
  6
CONTINUOUS
 70
0
 71
3
 72
8
 73
4
 74
0
 42
0.0000001
 43
0.0000001
 44
0.0000000001
 40
0.0
 40
0.0
 40
0.0
 40
0.0
 40
1.0
 40
1.0
 40
1.0
 40
1.0
 10
15.0943256888
 20
13.1567371969
 30
0.0
 10
15.030576365
 20
13.0983903582
 30
0.0
 10
14.9554818227
 20
13.0659754479
 30
0.0
 10
14.8333856603
 20
13.0659754479
 30
0.0
  0
SPLINE
  5
299
100
AcDbEntity
  8
0
100
AcDbSpline
 62
7
  6
CONTINUOUS
 70
0
 71
3
 72
8
 73
4
 74
0
 42
0.0000001
 43
0.0000001
 44
0.0000000001
 40
0.0
 40
0.0
 40
0.0
 40
0.0
 40
1.0
 40
1.0
 40
1.0
 40
1.0
 10
15.1850874378
 20
13.3690548599
 30
0.0
 10
15.1850874378
 20
13.2901785779
 30
0.0
 10
15.1515920304
 20
13.2096815505
 30
0.0
 10
15.0943256888
 20
13.1567371969
 30
0.0
  0
SPLINE
  5
29A
100
AcDbEntity
  8
0
100
AcDbSpline
 62
7
  6
CONTINUOUS
 70
0
 71
3
 72
8
 73
4
 74
0
 42
0.0000001
 43
0.0000001
 44
0.0000000001
 40
0.0
 40
0.0
 40
0.0
 40
0.0
 40
1.0
 40
1.0
 40
1.0
 40
1.0
 10
14.9865461118
 20
13.621080788
 30
0.0
 10
15.1237692323
 20
13.5789414045
 30
0.0
 10
15.1850874378
 20
13.4933120163
 30
0.0
 10
15.1850874378
 20
13.3690548599
 30
0.0
  0
SPLINE
  5
29B
100
AcDbEntity
  8
0
100
AcDbSpline
 62
7
  6
CONTINUOUS
 70
0
 71
3
 72
8
 73
4
 74
0
 42
0.0000001
 43
0.0000001
 44
0.0000000001
 40
0.0
 40
0.0
 40
0.0
 40
0.0
 40
1.0
 40
1.0
 40
1.0
 40
1.0
 10
14.7815218037
 20
13.6737550174
 30
0.0
 10
14.8377076483
 20
13.6586280592
 30
0.0
 10
14.9325212611
 20
13.6372882432
 30
0.0
 10
14.9865461118
 20
13.621080788
 30
0.0
  0
SPLINE
  5
29C
100
AcDbEntity
  8
0
100
AcDbSpline
 62
7
  6
CONTINUOUS
 70
0
 71
3
 72
8
 73
4
 74
0
 42
0.0000001
 43
0.0000001
 44
0.0000000001
 40
0.0
 40
0.0
 40
0.0
 40
0.0
 40
1.0
 40
1.0
 40
1.0
 40
1.0
 10
14.6510517894
 20
13.8293465871
 30
0.0
 10
14.6510517894
 20
13.7450678202
 30
0.0
 10
14.6972430367
 20
13.6964454546
 30
0.0
 10
14.7815218037
 20
13.6737550174
 30
0.0
  0
SPLINE
  5
29D
100
AcDbEntity
  8
0
100
AcDbSpline
 62
7
  6
CONTINUOUS
 70
0
 71
3
 72
8
 73
4
 74
0
 42
0.0000001
 43
0.0000001
 44
0.0000000001
 40
0.0
 40
0.0
 40
0.0
 40
0.0
 40
1.0
 40
1.0
 40
1.0
 40
1.0
 10
14.857696843
 20
13.9865589024
 30
0.0
 10
14.7345201836
 20
13.9865589024
 30
0.0
 10
14.6510517894
 20
13.9233498272
 30
0.0
 10
14.6510517894
 20
13.8293465871
 30
0.0
  0
SPLINE
  5
29E
100
AcDbEntity
  8
0
100
AcDbSpline
 62
7
  6
CONTINUOUS
 70
0
 71
3
 72
8
 73
4
 74
0
 42
0.0000001
 43
0.0000001
 44
0.0000000001
 40
0.0
 40
0.0
 40
0.0
 40
0.0
 40
1.0
 40
1.0
 40
1.0
 40
1.0
 10
15.1364650722
 20
13.8779689527
 30
0.0
 10
15.0727157485
 20
13.9363157914
 30
0.0
 10
14.9668270413
 20
13.9865589024
 30
0.0
 10
14.857696843
 20
13.9865589024
 30
0.0
  0
SPLINE
  5
29F
100
AcDbEntity
  8
0
100
AcDbSpline
 62
7
  6
CONTINUOUS
 70
0
 71
3
 72
8
 73
4
 74
0
 42
0.0000001
 43
0.0000001
 44
0.0000000001
 40
0.0
 40
0.0
 40
0.0
 40
0.0
 40
1.0
 40
1.0
 40
1.0
 40
1.0
 10
14.8487827427
 20
14.1016318343
 30
0.0
 10
14.961154432
 20
14.1016318343
 30
0.0
 10
15.0608302814
 20
14.078941397
 30
0.0
 10
15.1461895454
 20
14.0368020135
 30
0.0
  0
SPLINE
  5
2A0
100
AcDbEntity
  8
0
100
AcDbSpline
 62
7
  6
CONTINUOUS
 70
0
 71
3
 72
10
 73
6
 74
0
 42
0.0000001
 43
0.0000001
 44
0.0000000001
 40
0.0
 40
0.0
 40
0.0
 40
0.0
 40
0.375
 40
0.75
 40
1.0
 40
1.0
 40
1.0
 40
1.0
 10
14.5124780476
 20
13.8155702502
 30
0.0
 10
14.5124780476
 20
13.8763482072
 30
0.0
 10
14.5483157166
 20
13.9834480307
 30
0.0
 10
14.6894058791
 20
14.0854377076
 30
0.0
 10
14.7998902529
 20
14.1016318343
 30
0.0
 10
14.8487827427
 20
14.1016318343
 30
0.0
  0
SPLINE
  5
2A1
100
AcDbEntity
  8
0
100
AcDbSpline
 62
7
  6
CONTINUOUS
 70
0
 71
3
 72
8
 73
4
 74
0
 42
0.0000001
 43
0.0000001
 44
0.0000000001
 40
0.0
 40
0.0
 40
0.0
 40
0.0
 40
1.0
 40
1.0
 40
1.0
 40
1.0
 10
14.5773078683
 20
13.6348571249
 30
0.0
 10
14.5362489818
 20
13.6791575024
 30
0.0
 10
14.5124780476
 20
13.7377744653
 30
0.0
 10
14.5124780476
 20
13.8155702502
 30
0.0
  0
SPLINE
  5
2A2
100
AcDbEntity
  8
0
100
AcDbSpline
 62
7
  6
CONTINUOUS
 70
0
 71
3
 72
8
 73
4
 74
0
 42
0.0000001
 43
0.0000001
 44
0.0000000001
 40
0.0
 40
0.0
 40
0.0
 40
0.0
 40
1.0
 40
1.0
 40
1.0
 40
1.0
 10
14.7426239112
 20
13.5465264941
 30
0.0
 10
14.6734721024
 20
13.5648949434
 30
0.0
 10
14.6194472518
 20
13.5905567474
 30
0.0
 10
14.5773078683
 20
13.6348571249
 30
0.0
  0
SPLINE
  5
2A3
100
AcDbEntity
  8
0
100
AcDbSpline
 62
7
  6
CONTINUOUS
 70
0
 71
3
 72
8
 73
4
 74
0
 42
0.0000001
 43
0.0000001
 44
0.0000000001
 40
0.0
 40
0.0
 40
0.0
 40
0.0
 40
1.0
 40
1.0
 40
1.0
 40
1.0
 10
14.9233370365
 20
13.5011456196
 30
0.0
 10
14.8617487068
 20
13.5184335718
 30
0.0
 10
14.8193391991
 20
13.5270775479
 30
0.0
 10
14.7426239112
 20
13.5465264941
 30
0.0
  0
SPLINE
  5
2A4
100
AcDbEntity
  8
0
100
AcDbSpline
 62
7
  6
CONTINUOUS
 70
0
 71
3
 72
8
 73
4
 74
0
 42
0.0000001
 43
0.0000001
 44
0.0000000001
 40
0.0
 40
0.0
 40
0.0
 40
0.0
 40
1.0
 40
1.0
 40
1.0
 40
1.0
 10
15.046513696
 20
13.3479851681
 30
0.0
 10
15.046513696
 20
13.427941947
 30
0.0
 10
15.0086963005
 20
13.4762941883
 30
0.0
 10
14.9233370365
 20
13.5011456196
 30
0.0
  0
SPLINE
  5
2A5
100
AcDbEntity
  8
0
100
AcDbSpline
 62
7
  6
CONTINUOUS
 70
0
 71
3
 72
8
 73
4
 74
0
 42
0.0000001
 43
0.0000001
 44
0.0000000001
 40
0.0
 40
0.0
 40
0.0
 40
0.0
 40
1.0
 40
1.0
 40
1.0
 40
1.0
 10
14.8236611871
 20
13.1810483797
 30
0.0
 10
14.9706087808
 20
13.1810483797
 30
0.0
 10
15.046513696
 20
13.247498946
 30
0.0
 10
15.046513696
 20
13.3479851681
 30
0.0
  0
SPLINE
  5
2A6
100
AcDbEntity
  8
0
100
AcDbSpline
 62
7
  6
CONTINUOUS
 70
0
 71
3
 72
8
 73
4
 74
0
 42
0.0000001
 43
0.0000001
 44
0.0000000001
 40
0.0
 40
0.0
 40
0.0
 40
0.0
 40
1.0
 40
1.0
 40
1.0
 40
1.0
 10
14.5149091659
 20
13.3107080212
 30
0.0
 10
14.6024294239
 20
13.2285902482
 30
0.0
 10
14.721013971
 20
13.1810483797
 30
0.0
 10
14.8236611871
 20
13.1810483797
 30
0.0
  0
SPLINE
  5
2A7
100
AcDbEntity
  8
0
100
AcDbSpline
 62
7
  6
CONTINUOUS
 70
0
 71
3
 72
8
 73
4
 74
0
 42
0.0000001
 43
0.0000001
 44
0.0000000001
 40
0.0
 40
0.0
 40
0.0
 40
0.0
 40
1.0
 40
1.0
 40
1.0
 40
1.0
 10
14.0554278113
 20
13.0643547024
 30
0.0
 10
13.9138827027
 20
13.0643547024
 30
0.0
 10
13.7944877828
 20
13.1073044586
 30
0.0
 10
13.7102090159
 20
13.1948247166
 30
0.0
  0
SPLINE
  5
2A8
100
AcDbEntity
  8
0
100
AcDbSpline
 62
7
  6
CONTINUOUS
 70
0
 71
3
 72
8
 73
4
 74
0
 42
0.0000001
 43
0.0000001
 44
0.0000000001
 40
0.0
 40
0.0
 40
0.0
 40
0.0
 40
1.0
 40
1.0
 40
1.0
 40
1.0
 10
14.2401928005
 20
13.0935281217
 30
0.0
 10
14.1742824827
 20
13.0740791755
 30
0.0
 10
14.1299821052
 20
13.0643547024
 30
0.0
 10
14.0554278113
 20
13.0643547024
 30
0.0
  0
SPLINE
  5
2A9
100
AcDbEntity
  8
0
100
AcDbSpline
 62
7
  6
CONTINUOUS
 70
0
 71
3
 72
8
 73
4
 74
0
 42
0.0000001
 43
0.0000001
 44
0.0000000001
 40
0.0
 40
0.0
 40
0.0
 40
0.0
 40
1.0
 40
1.0
 40
1.0
 40
1.0
 10
14.3876806426
 20
13.1502542148
 30
0.0
 10
14.3541852353
 20
13.1351272567
 30
0.0
 10
14.288815166
 20
13.1075745829
 30
0.0
 10
14.2401928005
 20
13.0935281217
 30
0.0
  0
SPLINE
  5
2AA
100
AcDbEntity
  8
0
100
AcDbSpline
 62
7
  6
CONTINUOUS
 70
0
 71
3
 72
8
 73
4
 74
0
 42
0.0000001
 43
0.0000001
 44
0.0000000001
 40
0.0
 40
0.0
 40
0.0
 40
0.0
 40
1.0
 40
1.0
 40
1.0
 40
1.0
 10
14.0505655748
 20
13.1794276342
 30
0.0
 10
14.1251198686
 20
13.1794276342
 30
0.0
 10
14.2056168961
 20
13.1902326043
 30
0.0
 10
14.2564002556
 20
13.2118425446
 30
0.0
  0
SPLINE
  5
2AB
100
AcDbEntity
  8
0
100
AcDbSpline
 62
7
  6
CONTINUOUS
 70
0
 71
3
 72
8
 73
4
 74
0
 42
0.0000001
 43
0.0000001
 44
0.0000000001
 40
0.0
 40
0.0
 40
0.0
 40
0.0
 40
1.0
 40
1.0
 40
1.0
 40
1.0
 10
13.8098848653
 20
13.2855864656
 30
0.0
 10
13.8671512069
 20
13.2164346569
 30
0.0
 10
13.9489988556
 20
13.1794276342
 30
0.0
 10
14.0505655748
 20
13.1794276342
 30
0.0
  0
SPLINE
  5
2AC
100
AcDbEntity
  8
0
100
AcDbSpline
 62
7
  6
CONTINUOUS
 70
0
 71
3
 72
8
 73
4
 74
0
 42
0.0000001
 43
0.0000001
 44
0.0000000001
 40
0.0
 40
0.0
 40
0.0
 40
0.0
 40
1.0
 40
1.0
 40
1.0
 40
1.0
 10
13.7183127435
 20
13.5886658776
 30
0.0
 10
13.7183127435
 20
13.4546842481
 30
0.0
 10
13.7504575296
 20
13.3547382744
 30
0.0
 10
13.8098848653
 20
13.2855864656
 30
0.0
  0
SPLINE
  5
2AD
100
AcDbEntity
  8
0
100
AcDbSpline
 62
7
  6
CONTINUOUS
 70
0
 71
3
 72
8
 73
4
 74
0
 42
0.0000001
 43
0.0000001
 44
0.0000000001
 40
0.0
 40
0.0
 40
0.0
 40
0.0
 40
1.0
 40
1.0
 40
1.0
 40
1.0
 10
14.0408411017
 20
13.9865589024
 30
0.0
 10
13.8485126335
 20
13.9865589024
 30
0.0
 10
13.7183127435
 20
13.8296167114
 30
0.0
 10
13.7183127435
 20
13.5886658776
 30
0.0
  0
SPLINE
  5
2AE
100
AcDbEntity
  8
0
100
AcDbSpline
 62
7
  6
CONTINUOUS
 70
0
 71
3
 72
8
 73
4
 74
0
 42
0.0000001
 43
0.0000001
 44
0.0000000001
 40
0.0
 40
0.0
 40
0.0
 40
0.0
 40
1.0
 40
1.0
 40
1.0
 40
1.0
 10
14.2458654098
 20
13.9395572824
 30
0.0
 10
14.1918405591
 20
13.9665697077
 30
0.0
 10
14.1207978806
 20
13.9865589024
 30
0.0
 10
14.0408411017
 20
13.9865589024
 30
0.0
  0
SPLINE
  5
2AF
100
AcDbEntity
  8
0
100
AcDbSpline
 62
7
  6
CONTINUOUS
 70
0
 71
3
 72
8
 73
4
 74
0
 42
0.0000001
 43
0.0000001
 44
0.0000000001
 40
0.0
 40
0.0
 40
0.0
 40
0.0
 40
1.0
 40
1.0
 40
1.0
 40
1.0
 10
14.3722835602
 20
13.8552785154
 30
0.0
 10
14.3387881528
 20
13.8844519348
 30
0.0
 10
14.3106952305
 20
13.9093033661
 30
0.0
 10
14.2458654098
 20
13.9395572824
 30
0.0
  0
SPLINE
  5
2B0
100
AcDbEntity
  8
0
100
AcDbSpline
 62
7
  6
CONTINUOUS
 70
0
 71
3
 72
8
 73
4
 74
0
 42
0.0000001
 43
0.0000001
 44
0.0000000001
 40
0.0
 40
0.0
 40
0.0
 40
0.0
 40
1.0
 40
1.0
 40
1.0
 40
1.0
 10
14.241813546
 20
14.0740791605
 30
0.0
 10
14.2871944205
 20
14.0611131963
 30
0.0
 10
14.3501333715
 20
14.033020274
 30
0.0
 10
14.3836287788
 20
14.0157323218
 30
0.0
  0
SPLINE
  5
2B1
100
AcDbEntity
  8
0
100
AcDbSpline
 62
7
  6
CONTINUOUS
 70
0
 71
3
 72
8
 73
4
 74
0
 42
0.0000001
 43
0.0000001
 44
0.0000000001
 40
0.0
 40
0.0
 40
0.0
 40
0.0
 40
1.0
 40
1.0
 40
1.0
 40
1.0
 10
14.0562381841
 20
14.1016318343
 30
0.0
 10
14.1243094959
 20
14.1016318343
 30
0.0
 10
14.1856277013
 20
14.0913671126
 30
0.0
 10
14.241813546
 20
14.0740791605
 30
0.0
  0
SPLINE
  5
2B2
100
AcDbEntity
  8
0
100
AcDbSpline
 62
7
  6
CONTINUOUS
 70
0
 71
3
 72
8
 73
4
 74
0
 42
0.0000001
 43
0.0000001
 44
0.0000000001
 40
0.0
 40
0.0
 40
0.0
 40
0.0
 40
1.0
 40
1.0
 40
1.0
 40
1.0
 10
13.7110193886
 20
13.9646788379
 30
0.0
 10
13.7920566646
 20
14.0521990959
 30
0.0
 10
13.9146930755
 20
14.1016318343
 30
0.0
 10
14.0562381841
 20
14.1016318343
 30
0.0
  0
SPLINE
  5
2B3
100
AcDbEntity
  8
0
100
AcDbSpline
 62
7
  6
CONTINUOUS
 70
0
 71
3
 72
8
 73
4
 74
0
 42
0.0000001
 43
0.0000001
 44
0.0000000001
 40
0.0
 40
0.0
 40
0.0
 40
0.0
 40
1.0
 40
1.0
 40
1.0
 40
1.0
 10
13.5797390016
 20
13.5846140138
 30
0.0
 10
13.5797390016
 20
13.7456080687
 30
0.0
 10
13.6267406217
 20
13.8739170889
 30
0.0
 10
13.7110193886
 20
13.9646788379
 30
0.0
  0
SPLINE
  5
2B4
100
AcDbEntity
  8
0
100
AcDbSpline
 62
7
  6
CONTINUOUS
 70
0
 71
3
 72
8
 73
4
 74
0
 42
0.0000001
 43
0.0000001
 44
0.0000000001
 40
0.0
 40
0.0
 40
0.0
 40
0.0
 40
1.0
 40
1.0
 40
1.0
 40
1.0
 10
13.7102090159
 20
13.1948247166
 30
0.0
 10
13.6259302489
 20
13.2834254716
 30
0.0
 10
13.5797390016
 20
13.4149759829
 30
0.0
 10
13.5797390016
 20
13.5846140138
 30
0.0
  0
SPLINE
  5
2B5
100
AcDbEntity
  8
0
100
AcDbSpline
 62
7
  6
CONTINUOUS
 70
0
 71
3
 72
8
 73
4
 74
0
 42
0.0000001
 43
0.0000001
 44
0.0000000001
 40
0.0
 40
0.0
 40
0.0
 40
0.0
 40
1.0
 40
1.0
 40
1.0
 40
1.0
 10
9.7645040508
 20
13.8123287592
 30
0.0
 10
9.7645040508
 20
13.6664616625
 30
0.0
 10
9.6845472719
 20
13.5665156889
 30
0.0
 10
9.5570486244
 20
13.5189738203
 30
0.0
  0
SPLINE
  5
2B6
100
AcDbEntity
  8
0
100
AcDbSpline
 62
7
  6
CONTINUOUS
 70
0
 71
3
 72
8
 73
4
 74
0
 42
0.0000001
 43
0.0000001
 44
0.0000000001
 40
0.0
 40
0.0
 40
0.0
 40
0.0
 40
1.0
 40
1.0
 40
1.0
 40
1.0
 10
9.6510518645
 20
14.0311294042
 30
0.0
 10
9.7212841703
 20
13.9857485297
 30
0.0
 10
9.7645040508
 20
13.9171369694
 30
0.0
 10
9.7645040508
 20
13.8123287592
 30
0.0
  0
SPLINE
  5
2B7
100
AcDbEntity
  8
0
100
AcDbSpline
 62
7
  6
CONTINUOUS
 70
0
 71
3
 72
8
 73
4
 74
0
 42
0.0000001
 43
0.0000001
 44
0.0000000001
 40
0.0
 40
0.0
 40
0.0
 40
0.0
 40
1.0
 40
1.0
 40
1.0
 40
1.0
 10
9.3965948181
 20
14.0838036336
 30
0.0
 10
9.5111275014
 20
14.0838036336
 30
0.0
 10
9.5808195587
 20
14.0765102787
 30
0.0
 10
9.6510518645
 20
14.0311294042
 30
0.0
  0
ENDSEC
  0
SECTION
  2
OBJECTS
  0
DICTIONARY
  5
C
100
AcDbDictionary
280
0
281
1
  3
ACAD_GROUP
350
D
  3
ACAD_MLINESTYLE
350
17
  3
ACAD_LAYOUT
350
1A
  3
ACAD_PLOTSETTINGS
350
19
  3
ACAD_PLOTSTYLENAME
350
E
  0
DICTIONARY
  5
D
102
{ACAD_REACTORS
330
C
102
}
100
AcDbDictionary
280
0
281
1
  0
ACDBDICTIONARYWDFLT
  5
E
102
{ACAD_REACTORS
330
C
102
}
100
AcDbDictionary
281
1
  3
Normal
350
F
100
AcDbDictionaryWithDefault
340
F
  0
DICTIONARY
  5
17
102
{ACAD_REACTORS
330
C
102
}
100
AcDbDictionary
280
0
281
1
  3
Standard
350
18
  0
DICTIONARY
  5
19
102
{ACAD_REACTORS
330
C
102
}
100
AcDbDictionary
281
1
  0
DICTIONARY
  5
1A
102
{ACAD_REACTORS
330
C
102
}
100
AcDbDictionary
281
1
  3
Model
350
2B8
  3
Layout1
350
2B9
  0
ACDBPLACEHOLDER
  5
F
102
{ACAD_REACTORS
330
E
102
}
  0
MLINESTYLE
  5
18
102
{ACAD_REACTORS
330
17
102
}
100
AcDbMlineStyle
  2
STANDARD
 70
0
  3

 62
256
 51
90.0
 52
90.0
 71
2
 49
0.5
 62
256
  6
BYLAYER
 49
-0.5
 62
256
  6
BYLAYER
  0
LAYOUT
  5
2B8
102
{ACAD_REACTORS
330
1A
102
}
100
AcDbPlotSettings
  1

  2
none_device
  4
ANSI_C_(22.00_x_17.00_Inches)
  6

 40
0.0
 41
0.0
 42
0.0
 43
0.0
 44
558.8
 45
431.8
 46
0.0
 47
0.0
 48
0.0
 49
0.0
140
0.0
141
0.0
142
1.0
143
1.0
 70
1024
 72
0
 73
0
 74
0
  7

 75
0
147
1.0
148
0.0
149
0.0
100
AcDbLayout
  1
Model
 70
0
 71
0
 10
0.0
 20
0.0
 11
22.0
 21
17.0
 12
0.0
 22
0.0
 32
0.0
 14
0.0
 24
0.0
 34
0.0
 15
0.0
 25
0.0
 35
0.0
146
0.0
 13
0.0
 23
0.0
 33
0.0
 16
1.0
 26
0.0
 36
0.0
 17
0.0
 27
1.0
 37
0.0
 76
0
330
1FF
345
0
346
0
  0
LAYOUT
  5
2B9
102
{ACAD_REACTORS
330
1A
102
}
100
AcDbPlotSettings
  1

  2
none_device
  4
ANSI_C_(22.00_x_17.00_Inches)
  6

 40
0.0
 41
0.0
 42
0.0
 43
0.0
 44
558.8
 45
431.8
 46
0.0
 47
0.0
 48
0.0
 49
0.0
140
0.0
141
0.0
142
1.0
143
1.0
 70
0
 72
0
 73
0
 74
0
  7

 75
0
147
1.0
148
0.0
149
0.0
100
AcDbLayout
  1
Layout1
 70
0
 71
1
 10
0.0
 20
0.0
 11
22.0
 21
17.0
 12
0.0
 22
0.0
 32
0.0
 14
0.0
 24
0.0
 34
0.0
 15
0.0
 25
0.0
 35
0.0
146
0.0
 13
0.0
 23
0.0
 33
0.0
 16
1.0
 26
0.0
 36
0.0
 17
0.0
 27
1.0
 37
0.0
 76
0
330
200
345
0
346
0
  0
ENDSEC
  0
EOF
