  0
SECTION
  2
HEADER
  9
$ACADVER
  1
AC1014
  9
$ACADMAINTVER
 70
     9
  9
$DWGCODEPAGE
  3
ANSI_1252
  9
$INSBASE
 10
0.0
 20
0.0
 30
0.0
  9
$EXTMIN
 10
-1.884814
 20
-9.983833
 30
0.0
  9
$EXTMAX
 10
31.430569
 20
7.616422
 30
0.0
  9
$LIMMIN
 10
0.0
 20
0.0
  9
$LIMMAX
 10
215.9
 20
279.4
  9
$ORTHOMODE
 70
     0
  9
$REGENMODE
 70
     1
  9
$FILLMODE
 70
     1
  9
$QTEXTMODE
 70
     0
  9
$MIRRTEXT
 70
     1
  9
$DRAGMODE
 70
     2
  9
$LTSCALE
 40
1.0
  9
$OSMODE
 70
    39
  9
$ATTMODE
 70
     1
  9
$TEXTSIZE
 40
0.2
  9
$TRACEWID
 40
0.05
  9
$TEXTSTYLE
  7
STANDARD
  9
$CLAYER
  8
0
  9
$CELTYPE
  6
CONTINUOUS
  9
$CECOLOR
 62
   256
  9
$CELTSCALE
 40
1.0
  9
$DELOBJ
 70
     1
  9
$DISPSILH
 70
     0
  9
$DIMSCALE
 40
1.0
  9
$DIMASZ
 40
0.18
  9
$DIMEXO
 40
0.0625
  9
$DIMDLI
 40
0.38
  9
$DIMRND
 40
0.0
  9
$DIMDLE
 40
0.0
  9
$DIMEXE
 40
0.18
  9
$DIMTP
 40
0.0
  9
$DIMTM
 40
0.0
  9
$DIMTXT
 40
0.18
  9
$DIMCEN
 40
0.09
  9
$DIMTSZ
 40
0.0
  9
$DIMTOL
 70
     0
  9
$DIMLIM
 70
     0
  9
$DIMTIH
 70
     1
  9
$DIMTOH
 70
     1
  9
$DIMSE1
 70
     0
  9
$DIMSE2
 70
     0
  9
$DIMTAD
 70
     0
  9
$DIMZIN
 70
     0
  9
$DIMBLK
  1

  9
$DIMASO
 70
     1
  9
$DIMSHO
 70
     1
  9
$DIMPOST
  1

  9
$DIMAPOST
  1

  9
$DIMALT
 70
     0
  9
$DIMALTD
 70
     2
  9
$DIMALTF
 40
25.4
  9
$DIMLFAC
 40
1.0
  9
$DIMTOFL
 70
     0
  9
$DIMTVP
 40
0.0
  9
$DIMTIX
 70
     0
  9
$DIMSOXD
 70
     0
  9
$DIMSAH
 70
     0
  9
$DIMBLK1
  1

  9
$DIMBLK2
  1

  9
$DIMSTYLE
  2
STANDARD
  9
$DIMCLRD
 70
     0
  9
$DIMCLRE
 70
     0
  9
$DIMCLRT
 70
     0
  9
$DIMTFAC
 40
1.0
  9
$DIMGAP
 40
0.09
  9
$DIMJUST
 70
     0
  9
$DIMSD1
 70
     0
  9
$DIMSD2
 70
     0
  9
$DIMTOLJ
 70
     1
  9
$DIMTZIN
 70
     0
  9
$DIMALTZ
 70
     0
  9
$DIMALTTZ
 70
     0
  9
$DIMFIT
 70
     3
  9
$DIMUPT
 70
     0
  9
$DIMUNIT
 70
     2
  9
$DIMDEC
 70
     4
  9
$DIMTDEC
 70
     4
  9
$DIMALTU
 70
     2
  9
$DIMALTTD
 70
     2
  9
$DIMTXSTY
  7
STANDARD
  9
$DIMAUNIT
 70
     0
  9
$LUNITS
 70
     2
  9
$LUPREC
 70
     4
  9
$SKETCHINC
 40
0.1
  9
$FILLETRAD
 40
0.0
  9
$AUNITS
 70
     0
  9
$AUPREC
 70
     0
  9
$MENU
  1
acad
  9
$ELEVATION
 40
0.0
  9
$PELEVATION
 40
0.0
  9
$THICKNESS
 40
0.0
  9
$LIMCHECK
 70
     0
  9
$BLIPMODE
 70
     1
  9
$CHAMFERA
 40
0.0
  9
$CHAMFERB
 40
0.0
  9
$CHAMFERC
 40
0.0
  9
$CHAMFERD
 40
0.0
  9
$SKPOLY
 70
     0
  9
$TDCREATE
 40
2455999.428339838
  9
$TDUPDATE
 40
2456772.591410764
  9
$TDINDWG
 40
2.7696574884
  9
$TDUSRTIMER
 40
2.7696574884
  9
$USRTIMER
 70
     1
  9
$ANGBASE
 50
0.0
  9
$ANGDIR
 70
     0
  9
$PDMODE
 70
     0
  9
$PDSIZE
 40
0.0
  9
$PLINEWID
 40
0.0
  9
$COORDS
 70
     0
  9
$SPLFRAME
 70
     0
  9
$SPLINETYPE
 70
     6
  9
$SPLINESEGS
 70
     8
  9
$ATTDIA
 70
     0
  9
$ATTREQ
 70
     1
  9
$HANDLING
 70
     1
  9
$HANDSEED
  5
904
  9
$SURFTAB1
 70
     6
  9
$SURFTAB2
 70
     6
  9
$SURFTYPE
 70
     6
  9
$SURFU
 70
     6
  9
$SURFV
 70
     6
  9
$UCSNAME
  2

  9
$UCSORG
 10
0.0
 20
0.0
 30
0.0
  9
$UCSXDIR
 10
1.0
 20
0.0
 30
0.0
  9
$UCSYDIR
 10
0.0
 20
1.0
 30
0.0
  9
$PUCSNAME
  2

  9
$PUCSORG
 10
0.0
 20
0.0
 30
0.0
  9
$PUCSXDIR
 10
1.0
 20
0.0
 30
0.0
  9
$PUCSYDIR
 10
0.0
 20
1.0
 30
0.0
  9
$USERI1
 70
     0
  9
$USERI2
 70
     0
  9
$USERI3
 70
     0
  9
$USERI4
 70
     0
  9
$USERI5
 70
     0
  9
$USERR1
 40
0.0
  9
$USERR2
 40
0.0
  9
$USERR3
 40
0.0
  9
$USERR4
 40
0.0
  9
$USERR5
 40
0.0
  9
$WORLDVIEW
 70
     1
  9
$SHADEDGE
 70
     3
  9
$SHADEDIF
 70
    70
  9
$TILEMODE
 70
     1
  9
$MAXACTVP
 70
    16
  9
$PINSBASE
 10
0.0
 20
0.0
 30
0.0
  9
$PLIMCHECK
 70
     0
  9
$PEXTMIN
 10
1.000000E+20
 20
1.000000E+20
 30
1.000000E+20
  9
$PEXTMAX
 10
-1.000000E+20
 20
-1.000000E+20
 30
-1.000000E+20
  9
$PLIMMIN
 10
0.0
 20
0.0
  9
$PLIMMAX
 10
12.0
 20
9.0
  9
$UNITMODE
 70
     0
  9
$VISRETAIN
 70
     0
  9
$PLINEGEN
 70
     1
  9
$PSLTSCALE
 70
     0
  9
$TREEDEPTH
 70
  3020
  9
$PICKSTYLE
 70
     1
  9
$CMLSTYLE
  2
STANDARD
  9
$CMLJUST
 70
     0
  9
$CMLSCALE
 40
1.0
  9
$PROXYGRAPHICS
 70
     0
  9
$MEASUREMENT
 70
     1
  0
ENDSEC
  0
SECTION
  2
CLASSES
  0
CLASS
  1
LWPOLYLINE
  2
AcDbPolyline
  3
"AutoCAD"
 90
        0
280
     0
281
     1
  0
CLASS
  1
IMAGE
  2
AcDbRasterImage
  3
ISM
 90
      127
280
     0
281
     1
  0
CLASS
  1
OLE2FRAME
  2
AcDbOle2Frame
  3
""
 90
        0
280
     0
281
     1
  0
CLASS
  1
HATCH
  2
AcDbHatch
  3
"ACAD_SEDONA"
 90
        0
280
     0
281
     1
  0
CLASS
  1
DICTIONARYVAR
  2
AcDbDictionaryVar
  3
"AutoCAD"
 90
        0
280
     0
281
     0
  0
CLASS
  1
RASTERVARIABLES
  2
AcDbRasterVariables
  3
ISM
 90
        0
280
     0
281
     0
  0
CLASS
  1
IMAGEDEF
  2
AcDbRasterImageDef
  3
ISM
 90
        0
280
     0
281
     0
  0
CLASS
  1
IMAGEDEF_REACTOR
  2
AcDbRasterImageDefReactor
  3
ISM
 90
        1
280
     0
281
     0
  0
CLASS
  1
IDBUFFER
  2
AcDbIdBuffer
  3
"Acad"
 90
        0
280
     0
281
     0
  0
CLASS
  1
SPATIAL_FILTER
  2
AcDbSpatialFilter
  3
"Acad"
 90
        0
280
     0
281
     0
  0
CLASS
  1
XRECORD
  2
AcDbXrecord
  3
"<Built In>"
 90
        0
280
     0
281
     0
  0
CLASS
  1
SORTENTSTABLE
  2
AcDbSortentsTable
  3
"AutoCAD"
 90
        0
280
     0
281
     0
  0
CLASS
  1
LAYER_INDEX
  2
AcDbLayerIndex
  3
"Acad"
 90
        0
280
     0
281
     0
  0
CLASS
  1
SPATIAL_INDEX
  2
AcDbSpatialIndex
  3
"Acad"
 90
        0
280
     0
281
     0
  0
CLASS
  1
OBJECT_PTR
  2
CAseDLPNTableRecord
  3
"ASE-LPNTableRecord"
 90
        1
280
     0
281
     0
  0
CLASS
  1
LAYOUT
  2
AcDbLayout
  3
"AutoCAD 2000"
 90
        1
280
     0
281
     0
  0
CLASS
  1
PLOTSETTINGS
  2
AcDbPlotSettings
  3
"AutoCAD 2000"
 90
        1
280
     0
281
     0
  0
CLASS
  1
ACDBDICTIONARYWDFLT
  2
AcDbDictionaryWithDefault
  3
"AutoCAD 2000"
 90
        1
280
     0
281
     0
  0
CLASS
  1
ACDBPLACEHOLDER
  2
AcDbPlaceHolder
  3
"AutoCAD 2000"
 90
        1
280
     0
281
     0
  0
CLASS
  1
VBA_PROJECT
  2
AcDbVbaProject
  3
"acadvba"
 90
        1
280
     0
281
     0
  0
CLASS
  1
WIPEOUT
  2
AcDbWipeout
  3
WipeOut|AutoCAD Express Tool|expresstools@autodesk.com
 90
      127
280
     0
281
     1
  0
CLASS
  1
WIPEOUTVARIABLES
  2
AcDbWipeoutVariables
  3
WipeOut|AutoCAD Express Tool|expresstools@autodesk.com
 90
        0
280
     0
281
     0
  0
CLASS
  1
RTEXT
  2
RText
  3
RText|AutoCAD Express Tool|expresstools@autodesk.com
 90
        0
280
     0
281
     1
  0
CLASS
  1
ARCALIGNEDTEXT
  2
AcDbArcAlignedText
  3
ATEXT|AutoCAD Express Tool|expresstools@autodesk.com
 90
        0
280
     0
281
     1
  0
ENDSEC
  0
SECTION
  2
TABLES
  0
TABLE
  2
VPORT
  5
7
100
AcDbSymbolTable
 70
     5
  0
VPORT
  5
903
100
AcDbSymbolTableRecord
100
AcDbViewportTableRecord
  2
*ACTIVE
 70
     0
 10
0.0
 20
0.0
 11
1.0
 21
1.0
 12
8.418076
 22
-5.422633
 13
0.0
 23
0.0
 14
1.0
 24
1.0
 15
0.0
 25
0.0
 16
0.0
 26
0.0
 36
1.0
 17
0.0
 27
0.0
 37
0.0
 40
11.461357
 41
1.635398
 42
50.0
 43
0.0
 44
0.0
 50
0.0
 51
0.0
 71
     0
 72
   100
 73
     1
 74
     1
 75
     0
 76
     0
 77
     0
 78
     0
  0
ENDTAB
  0
TABLE
  2
LTYPE
  5
4
100
AcDbSymbolTable
 70
     1
  0
LTYPE
  5
11
100
AcDbSymbolTableRecord
100
AcDbLinetypeTableRecord
  2
BYBLOCK
 70
     0
  3

 72
    65
 73
     0
 40
0.0
  0
LTYPE
  5
12
100
AcDbSymbolTableRecord
100
AcDbLinetypeTableRecord
  2
BYLAYER
 70
     0
  3

 72
    65
 73
     0
 40
0.0
  0
LTYPE
  5
13
100
AcDbSymbolTableRecord
100
AcDbLinetypeTableRecord
  2
CONTINUOUS
 70
     0
  3
Solid line
 72
    65
 73
     0
 40
0.0
  0
ENDTAB
  0
TABLE
  2
LAYER
  5
2
100
AcDbSymbolTable
 70
     3
  0
LAYER
  5
14
100
AcDbSymbolTableRecord
100
AcDbLayerTableRecord
  2
0
 70
     0
 62
     7
  6
CONTINUOUS
  0
LAYER
  5
21
100
AcDbSymbolTableRecord
100
AcDbLayerTableRecord
  2
LAYER_1
 70
     0
 62
   160
  6
CONTINUOUS
  0
LAYER
  5
63
100
AcDbSymbolTableRecord
100
AcDbLayerTableRecord
  2
DEFPOINTS
 70
     0
 62
     7
  6
CONTINUOUS
  0
ENDTAB
  0
TABLE
  2
STYLE
  5
3
100
AcDbSymbolTable
 70
     1
  0
STYLE
  5
17
100
AcDbSymbolTableRecord
100
AcDbTextStyleTableRecord
  2
STANDARD
 70
     0
 40
0.0
 41
1.0
 50
0.0
 71
     0
 42
0.2
  3
txt
  4

  0
ENDTAB
  0
TABLE
  2
VIEW
  5
5
100
AcDbSymbolTable
 70
     0
  0
ENDTAB
  0
TABLE
  2
UCS
  5
6
100
AcDbSymbolTable
 70
     0
  0
ENDTAB
  0
TABLE
  2
APPID
  5
8
100
AcDbSymbolTable
 70
     1
  0
APPID
  5
16
100
AcDbSymbolTableRecord
100
AcDbRegAppTableRecord
  2
ACAD
 70
     0
  0
ENDTAB
  0
TABLE
  2
DIMSTYLE
  5
9
100
AcDbSymbolTable
 70
     1
  0
DIMSTYLE
105
18
102
{ACAD_REACTORS
330
426
330
434
330
447
330
455
330
5FD
330
623
330
642
330
8C2
330
8D1
330
8F0
330
902
102
}
100
AcDbSymbolTableRecord
100
AcDbDimStyleTableRecord
  2
STANDARD
 70
     0
  3

  4

  5

  6

  7

 40
1.0
 41
0.18
 42
0.0625
 43
0.38
 44
0.18
 45
0.0
 46
0.0
 47
0.0
 48
0.0
140
0.18
141
0.09
142
0.0
143
25.4
144
1.0
145
0.0
146
1.0
147
0.09
 71
     0
 72
     0
 73
     1
 74
     1
 75
     0
 76
     0
 77
     0
 78
     0
170
     0
171
     2
172
     0
173
     0
174
     0
175
     0
176
     0
177
     0
178
     0
270
     2
271
     4
272
     4
273
     2
274
     2
340
17
275
     0
280
     0
281
     0
282
     0
283
     1
284
     0
285
     0
286
     0
287
     0
288
     0
  0
ENDTAB
  0
TABLE
  2
BLOCK_RECORD
  5
1
100
AcDbSymbolTable
 70
    30
  0
BLOCK_RECORD
  5
A
100
AcDbSymbolTableRecord
100
AcDbBlockTableRecord
  2
*MODEL_SPACE
  0
BLOCK_RECORD
  5
B
100
AcDbSymbolTableRecord
100
AcDbBlockTableRecord
  2
*PAPER_SPACE
  0
BLOCK_RECORD
  5
47
100
AcDbSymbolTableRecord
100
AcDbBlockTableRecord
  2
AI9-BLK3
  0
BLOCK_RECORD
  5
4B
100
AcDbSymbolTableRecord
100
AcDbBlockTableRecord
  2
AI9-BLK4
  0
BLOCK_RECORD
  5
4F
100
AcDbSymbolTableRecord
100
AcDbBlockTableRecord
  2
AI9-BLK5
  0
BLOCK_RECORD
  5
53
100
AcDbSymbolTableRecord
100
AcDbBlockTableRecord
  2
AI9-BLK6
  0
BLOCK_RECORD
  5
10D
100
AcDbSymbolTableRecord
100
AcDbBlockTableRecord
  2
A$C38485A11
  0
BLOCK_RECORD
  5
14A
100
AcDbSymbolTableRecord
100
AcDbBlockTableRecord
  2
A$C5F193A39
  0
BLOCK_RECORD
  5
1A9
100
AcDbSymbolTableRecord
100
AcDbBlockTableRecord
  2
A$C2FB85E4E
  0
BLOCK_RECORD
  5
1D3
100
AcDbSymbolTableRecord
100
AcDbBlockTableRecord
  2
A$C1B3843B4
  0
BLOCK_RECORD
  5
419
100
AcDbSymbolTableRecord
100
AcDbBlockTableRecord
  2
*D8
  0
BLOCK_RECORD
  5
427
100
AcDbSymbolTableRecord
100
AcDbBlockTableRecord
  2
*D9
  0
BLOCK_RECORD
  5
43A
100
AcDbSymbolTableRecord
100
AcDbBlockTableRecord
  2
*D10
  0
BLOCK_RECORD
  5
448
100
AcDbSymbolTableRecord
100
AcDbBlockTableRecord
  2
*D11
  0
BLOCK_RECORD
  5
4B1
100
AcDbSymbolTableRecord
100
AcDbBlockTableRecord
  2
A$C693200E8
  0
BLOCK_RECORD
  5
5F0
100
AcDbSymbolTableRecord
100
AcDbBlockTableRecord
  2
*D13
  0
BLOCK_RECORD
  5
616
100
AcDbSymbolTableRecord
100
AcDbBlockTableRecord
  2
*D14
  0
BLOCK_RECORD
  5
635
100
AcDbSymbolTableRecord
100
AcDbBlockTableRecord
  2
*D15
  0
BLOCK_RECORD
  5
66B
100
AcDbSymbolTableRecord
100
AcDbBlockTableRecord
  2
A$C77A666E6
  0
BLOCK_RECORD
  5
81E
100
AcDbSymbolTableRecord
100
AcDbBlockTableRecord
  2
*D21
  0
BLOCK_RECORD
  5
82C
100
AcDbSymbolTableRecord
100
AcDbBlockTableRecord
  2
*D22
  0
BLOCK_RECORD
  5
840
100
AcDbSymbolTableRecord
100
AcDbBlockTableRecord
  2
*D23
  0
BLOCK_RECORD
  5
8A2
100
AcDbSymbolTableRecord
100
AcDbBlockTableRecord
  2
*D24
  0
BLOCK_RECORD
  5
8B7
100
AcDbSymbolTableRecord
100
AcDbBlockTableRecord
  2
*D25
  0
BLOCK_RECORD
  5
8C4
100
AcDbSymbolTableRecord
100
AcDbBlockTableRecord
  2
*D26
  0
BLOCK_RECORD
  5
8D4
100
AcDbSymbolTableRecord
100
AcDbBlockTableRecord
  2
*D27
  0
BLOCK_RECORD
  5
8E5
100
AcDbSymbolTableRecord
100
AcDbBlockTableRecord
  2
*D28
  0
BLOCK_RECORD
  5
8F7
100
AcDbSymbolTableRecord
100
AcDbBlockTableRecord
  2
*D29
  0
ENDTAB
  0
ENDSEC
  0
SECTION
  2
BLOCKS
  0
BLOCK
  5
D
100
AcDbEntity
  8
0
100
AcDbBlockBegin
  2
*MODEL_SPACE
 70
     0
 10
0.0
 20
0.0
 30
0.0
  3
*MODEL_SPACE
  1

  0
ENDBLK
  5
E
100
AcDbEntity
  8
0
100
AcDbBlockEnd
  0
BLOCK
  5
F
100
AcDbEntity
 67
     1
  8
0
100
AcDbBlockBegin
  2
*PAPER_SPACE
 70
     0
 10
0.0
 20
0.0
 30
0.0
  3
*PAPER_SPACE
  1

  0
ENDBLK
  5
10
100
AcDbEntity
 67
     1
  8
0
100
AcDbBlockEnd
  0
BLOCK
  5
49
100
AcDbEntity
  8
LAYER_1
 62
     7
100
AcDbBlockBegin
  2
AI9-BLK3
 70
     0
 10
0.0
 20
0.0
 30
0.0
  3
AI9-BLK3
  1

  0
ENDBLK
  5
4A
100
AcDbEntity
  8
LAYER_1
100
AcDbBlockEnd
  0
BLOCK
  5
4D
100
AcDbEntity
  8
LAYER_1
 62
     7
100
AcDbBlockBegin
  2
AI9-BLK4
 70
     0
 10
0.0
 20
0.0
 30
0.0
  3
AI9-BLK4
  1

  0
ENDBLK
  5
4E
100
AcDbEntity
  8
LAYER_1
100
AcDbBlockEnd
  0
BLOCK
  5
51
100
AcDbEntity
  8
LAYER_1
 62
     7
100
AcDbBlockBegin
  2
AI9-BLK5
 70
     0
 10
0.0
 20
0.0
 30
0.0
  3
AI9-BLK5
  1

  0
ENDBLK
  5
52
100
AcDbEntity
  8
LAYER_1
100
AcDbBlockEnd
  0
BLOCK
  5
55
100
AcDbEntity
  8
LAYER_1
 62
     7
100
AcDbBlockBegin
  2
AI9-BLK6
 70
     0
 10
0.0
 20
0.0
 30
0.0
  3
AI9-BLK6
  1

  0
ENDBLK
  5
56
100
AcDbEntity
  8
LAYER_1
100
AcDbBlockEnd
  0
BLOCK
  5
114
100
AcDbEntity
  8
0
100
AcDbBlockBegin
  2
A$C38485A11
 70
     0
 10
0.0
 20
0.0
 30
0.0
  3
A$C38485A11
  1

  0
ARC
  5
10E
100
AcDbEntity
  8
0
  6
CONTINUOUS
100
AcDbCircle
 10
1.765514
 20
-1.432972
 30
0.0
 40
2.3745
100
AcDbArc
 50
131.879866
 51
137.915089
  0
LINE
  5
10F
100
AcDbEntity
  8
0
  6
CONTINUOUS
100
AcDbLine
 10
0.306362
 20
0.209287
 30
0.0
 11
0.176544
 21
0.338765
 31
0.0
  0
LINE
  5
110
100
AcDbEntity
  8
0
  6
CONTINUOUS
100
AcDbLine
 10
0.129818
 20
0.032279
 30
0.0
 11
0.0
 21
0.161756
 31
0.0
  0
CIRCLE
  5
111
100
AcDbEntity
  8
0
  6
CONTINUOUS
100
AcDbCircle
 10
0.21809
 20
0.120783
 30
0.0
 40
0.047
  0
ARC
  5
112
100
AcDbEntity
  8
0
  6
CONTINUOUS
100
AcDbCircle
 10
0.21809
 20
0.120783
 30
0.0
 40
0.125
100
AcDbArc
 50
225.075214
 51
45.075214
  0
CIRCLE
  5
113
100
AcDbEntity
  8
0
  6
CONTINUOUS
100
AcDbCircle
 10
0.21809
 20
0.120783
 30
0.0
 40
0.0625
  0
ENDBLK
  5
115
100
AcDbEntity
  8
0
100
AcDbBlockEnd
  0
BLOCK
  5
151
100
AcDbEntity
  8
0
100
AcDbBlockBegin
  2
A$C5F193A39
 70
     0
 10
0.0
 20
0.0
 30
0.0
  3
A$C5F193A39
  1

  0
ARC
  5
14B
100
AcDbEntity
  8
0
  6
CONTINUOUS
100
AcDbCircle
 10
-1.424769
 20
-1.419742
 30
0.0
 40
2.3745
100
AcDbArc
 50
41.902344
 51
47.93756
  0
CIRCLE
  5
14C
100
AcDbEntity
  8
0
  6
CONTINUOUS
100
AcDbCircle
 10
0.124539
 20
0.124539
 30
0.0
 40
0.0625
  0
CIRCLE
  5
14D
100
AcDbEntity
  8
0
  6
CONTINUOUS
100
AcDbCircle
 10
0.124539
 20
0.124539
 30
0.0
 40
0.047
  0
ARC
  5
14E
100
AcDbEntity
  8
0
  6
CONTINUOUS
100
AcDbCircle
 10
0.124539
 20
0.124539
 30
0.0
 40
0.125
100
AcDbArc
 50
135.075214
 51
315.075214
  0
LINE
  5
14F
100
AcDbEntity
  8
0
  6
CONTINUOUS
100
AcDbLine
 10
0.036034
 20
0.212811
 30
0.0
 11
0.166004
 21
0.343122
 31
0.0
  0
LINE
  5
150
100
AcDbEntity
  8
0
  6
CONTINUOUS
100
AcDbLine
 10
0.213043
 20
0.036266
 30
0.0
 11
0.342534
 21
0.166098
 31
0.0
  0
ENDBLK
  5
152
100
AcDbEntity
  8
0
100
AcDbBlockEnd
  0
BLOCK
  5
1B4
100
AcDbEntity
  8
0
100
AcDbBlockBegin
  2
A$C2FB85E4E
 70
     0
 10
0.0
 20
0.0
 30
0.0
  3
A$C2FB85E4E
  1

  0
LINE
  5
1AA
100
AcDbEntity
  8
0
  6
CONTINUOUS
 62
     1
100
AcDbLine
 10
3.09919
 20
1.211992
 30
0.0
 11
5.198421
 21
0.0
 31
0.0
  0
ARC
  5
1AB
100
AcDbEntity
  8
0
  6
CONTINUOUS
 62
     1
100
AcDbCircle
 10
2.84919
 20
0.778979
 30
0.0
 40
0.5
100
AcDbArc
 50
60.0
 51
120.0
  0
LINE
  5
1AC
100
AcDbEntity
  8
0
  6
CONTINUOUS
 62
     1
100
AcDbLine
 10
2.59919
 20
1.211992
 30
0.0
 11
0.5
 21
0.000024
 31
0.0
  0
ARC
  5
1AD
100
AcDbEntity
  8
0
  6
CONTINUOUS
 62
     1
100
AcDbCircle
 10
1.84919
 20
2.51103
 30
0.0
 40
0.5
100
AcDbArc
 50
300.0
 51
0.0
  0
LINE
  5
1AE
100
AcDbEntity
  8
0
  6
CONTINUOUS
 62
     1
100
AcDbLine
 10
2.09919
 20
2.078017
 30
0.0
 11
0.0
 21
0.866049
 31
0.0
  0
LINE
  5
1AF
100
AcDbEntity
  8
0
  6
CONTINUOUS
 62
     1
100
AcDbLine
 10
2.34919
 20
2.51103
 30
0.0
 11
2.34919
 21
4.932095
 31
0.0
  0
ARC
  5
1B0
100
AcDbEntity
  8
0
  6
CONTINUOUS
 62
     1
100
AcDbCircle
 10
3.84919
 20
2.51103
 30
0.0
 40
0.5
100
AcDbArc
 50
180.0
 51
240.0
  0
LINE
  5
1B1
100
AcDbEntity
  8
0
  6
CONTINUOUS
 62
     1
100
AcDbLine
 10
3.34919
 20
2.51103
 30
0.0
 11
3.34919
 21
4.932095
 31
0.0
  0
LINE
  5
1B2
100
AcDbEntity
  8
0
  6
CONTINUOUS
 62
     1
100
AcDbLine
 10
3.59919
 20
2.078017
 30
0.0
 11
5.698421
 21
0.866025
 31
0.0
  0
CIRCLE
  5
1B3
100
AcDbEntity
  8
LAYER_1
 62
     7
100
AcDbCircle
 10
2.84919
 20
1.933679
 30
0.0
 40
0.500056
  0
ENDBLK
  5
1B5
100
AcDbEntity
  8
0
100
AcDbBlockEnd
  0
BLOCK
  5
1DE
100
AcDbEntity
  8
0
100
AcDbBlockBegin
  2
A$C1B3843B4
 70
     0
 10
0.0
 20
0.0
 30
0.0
  3
A$C1B3843B4
  1

  0
ARC
  5
1D4
100
AcDbEntity
  8
0
  6
CONTINUOUS
 62
   200
100
AcDbCircle
 10
3.09919
 20
0.634641
 30
0.0
 40
0.5
100
AcDbArc
 50
60.0
 51
120.0
  0
LINE
  5
1D5
100
AcDbEntity
  8
0
  6
CONTINUOUS
 62
   200
100
AcDbLine
 10
2.84919
 20
1.067654
 30
0.0
 11
1.0
 21
0.000024
 31
0.0
  0
LINE
  5
1D6
100
AcDbEntity
  8
0
  6
CONTINUOUS
 62
   200
100
AcDbLine
 10
3.34919
 20
1.067654
 30
0.0
 11
5.198421
 21
0.0
 31
0.0
  0
LINE
  5
1D7
100
AcDbEntity
  8
0
  6
CONTINUOUS
 62
   200
100
AcDbLine
 10
4.34919
 20
2.799705
 30
0.0
 11
6.198421
 21
1.732051
 31
0.0
  0
ARC
  5
1D8
100
AcDbEntity
  8
0
  6
CONTINUOUS
 62
   200
100
AcDbCircle
 10
4.59919
 20
3.232717
 30
0.0
 40
0.5
100
AcDbArc
 50
180.0
 51
240.0
  0
LINE
  5
1D9
100
AcDbEntity
  8
0
  6
CONTINUOUS
 62
   200
100
AcDbLine
 10
4.09919
 20
3.232717
 30
0.0
 11
4.09919
 21
5.365108
 31
0.0
  0
LINE
  5
1DA
100
AcDbEntity
  8
0
  6
CONTINUOUS
 62
   200
100
AcDbLine
 10
2.09919
 20
3.232717
 30
0.0
 11
2.09919
 21
5.365108
 31
0.0
  0
ARC
  5
1DB
100
AcDbEntity
  8
0
  6
CONTINUOUS
 62
   200
100
AcDbCircle
 10
1.59919
 20
3.232717
 30
0.0
 40
0.5
100
AcDbArc
 50
300.0
 51
0.0
  0
LINE
  5
1DC
100
AcDbEntity
  8
0
  6
CONTINUOUS
 62
   200
100
AcDbLine
 10
1.84919
 20
2.799705
 30
0.0
 11
0.0
 21
1.732074
 31
0.0
  0
CIRCLE
  5
1DD
100
AcDbEntity
  8
LAYER_1
 62
     7
100
AcDbCircle
 10
3.09919
 20
2.366692
 30
0.0
 40
0.500056
  0
ENDBLK
  5
1DF
100
AcDbEntity
  8
0
100
AcDbBlockEnd
  0
BLOCK
  5
41A
100
AcDbEntity
  8
0
100
AcDbBlockBegin
  2
*D8
 70
     1
 10
0.0
 20
0.0
 30
0.0
  3
*D8
  1

  0
LINE
  5
41B
100
AcDbEntity
  8
0
  6
BYBLOCK
 62
     0
100
AcDbLine
 10
12.978205
 20
12.320462
 30
0.0
 11
13.758701
 21
12.320462
 31
0.0
  0
LINE
  5
41C
100
AcDbEntity
  8
0
  6
BYBLOCK
 62
     0
100
AcDbLine
 10
12.978205
 20
6.070462
 30
0.0
 11
13.758701
 21
6.070462
 31
0.0
  0
LINE
  5
41D
100
AcDbEntity
  8
0
  6
BYBLOCK
 62
     0
100
AcDbLine
 10
13.578701
 20
12.140462
 30
0.0
 11
13.578701
 21
9.375462
 31
0.0
  0
LINE
  5
41E
100
AcDbEntity
  8
0
  6
BYBLOCK
 62
     0
100
AcDbLine
 10
13.578701
 20
6.250462
 30
0.0
 11
13.578701
 21
9.015462
 31
0.0
  0
SOLID
  5
41F
100
AcDbEntity
  8
0
  6
BYBLOCK
 62
     0
100
AcDbTrace
 10
13.548701
 20
12.140462
 30
0.0
 11
13.608701
 21
12.140462
 31
0.0
 12
13.578701
 22
12.320462
 32
0.0
 13
13.578701
 23
12.320462
 33
0.0
  0
SOLID
  5
420
100
AcDbEntity
  8
0
  6
BYBLOCK
 62
     0
100
AcDbTrace
 10
13.548701
 20
6.250462
 30
0.0
 11
13.608701
 21
6.250462
 31
0.0
 12
13.578701
 22
6.070462
 32
0.0
 13
13.578701
 23
6.070462
 33
0.0
  0
MTEXT
  5
421
100
AcDbEntity
  8
0
  6
BYBLOCK
 62
     0
100
AcDbMText
 10
13.578701
 20
9.195462
 30
0.0
 40
0.18
 41
0.0
 71
     5
 72
     1
  1
\A1;6.2500
  0
POINT
  5
422
100
AcDbEntity
  8
DEFPOINTS
  6
BYBLOCK
 62
     0
100
AcDbPoint
 10
12.915705
 20
12.320462
 30
0.0
  0
POINT
  5
423
100
AcDbEntity
  8
DEFPOINTS
  6
BYBLOCK
 62
     0
100
AcDbPoint
 10
12.915705
 20
6.070462
 30
0.0
  0
POINT
  5
424
100
AcDbEntity
  8
DEFPOINTS
  6
BYBLOCK
 62
     0
100
AcDbPoint
 10
13.578701
 20
6.070462
 30
0.0
  0
ENDBLK
  5
425
100
AcDbEntity
  8
0
100
AcDbBlockEnd
  0
BLOCK
  5
428
100
AcDbEntity
  8
0
100
AcDbBlockBegin
  2
*D9
 70
     1
 10
0.0
 20
0.0
 30
0.0
  3
*D9
  1

  0
LINE
  5
429
100
AcDbEntity
  8
0
  6
BYBLOCK
 62
     0
100
AcDbLine
 10
12.915705
 20
6.007962
 30
0.0
 11
12.915705
 21
5.481975
 31
0.0
  0
LINE
  5
42A
100
AcDbEntity
  8
0
  6
BYBLOCK
 62
     0
100
AcDbLine
 10
6.665705
 20
6.007962
 30
0.0
 11
6.665705
 21
5.481975
 31
0.0
  0
LINE
  5
42B
100
AcDbEntity
  8
0
  6
BYBLOCK
 62
     0
100
AcDbLine
 10
12.735705
 20
5.661975
 30
0.0
 11
10.300705
 21
5.661975
 31
0.0
  0
LINE
  5
42C
100
AcDbEntity
  8
0
  6
BYBLOCK
 62
     0
100
AcDbLine
 10
6.845705
 20
5.661975
 30
0.0
 11
9.280705
 21
5.661975
 31
0.0
  0
SOLID
  5
42D
100
AcDbEntity
  8
0
  6
BYBLOCK
 62
     0
100
AcDbTrace
 10
12.735705
 20
5.691975
 30
0.0
 11
12.735705
 21
5.631975
 31
0.0
 12
12.915705
 22
5.661975
 32
0.0
 13
12.915705
 23
5.661975
 33
0.0
  0
SOLID
  5
42E
100
AcDbEntity
  8
0
  6
BYBLOCK
 62
     0
100
AcDbTrace
 10
6.845705
 20
5.691975
 30
0.0
 11
6.845705
 21
5.631975
 31
0.0
 12
6.665705
 22
5.661975
 32
0.0
 13
6.665705
 23
5.661975
 33
0.0
  0
MTEXT
  5
42F
100
AcDbEntity
  8
0
  6
BYBLOCK
 62
     0
100
AcDbMText
 10
9.790705
 20
5.661975
 30
0.0
 40
0.18
 41
0.0
 71
     5
 72
     1
  1
\A1;6.2500
  0
POINT
  5
430
100
AcDbEntity
  8
DEFPOINTS
  6
BYBLOCK
 62
     0
100
AcDbPoint
 10
12.915705
 20
6.070462
 30
0.0
  0
POINT
  5
431
100
AcDbEntity
  8
DEFPOINTS
  6
BYBLOCK
 62
     0
100
AcDbPoint
 10
6.665705
 20
6.070462
 30
0.0
  0
POINT
  5
432
100
AcDbEntity
  8
DEFPOINTS
  6
BYBLOCK
 62
     0
100
AcDbPoint
 10
6.665705
 20
5.661975
 30
0.0
  0
ENDBLK
  5
433
100
AcDbEntity
  8
0
100
AcDbBlockEnd
  0
BLOCK
  5
43B
100
AcDbEntity
  8
0
100
AcDbBlockBegin
  2
*D10
 70
     1
 10
0.0
 20
0.0
 30
0.0
  3
*D10
  1

  0
LINE
  5
43C
100
AcDbEntity
  8
0
  6
BYBLOCK
 62
     0
100
AcDbLine
 10
16.906143
 20
11.820462
 30
0.0
 11
16.119677
 21
11.820462
 31
0.0
  0
LINE
  5
43D
100
AcDbEntity
  8
0
  6
BYBLOCK
 62
     0
100
AcDbLine
 10
16.906143
 20
6.570462
 30
0.0
 11
16.119677
 21
6.570462
 31
0.0
  0
LINE
  5
43E
100
AcDbEntity
  8
0
  6
BYBLOCK
 62
     0
100
AcDbLine
 10
16.299677
 20
11.640462
 30
0.0
 11
16.299677
 21
9.375462
 31
0.0
  0
LINE
  5
43F
100
AcDbEntity
  8
0
  6
BYBLOCK
 62
     0
100
AcDbLine
 10
16.299677
 20
6.750462
 30
0.0
 11
16.299677
 21
9.015462
 31
0.0
  0
SOLID
  5
440
100
AcDbEntity
  8
0
  6
BYBLOCK
 62
     0
100
AcDbTrace
 10
16.269677
 20
11.640462
 30
0.0
 11
16.329677
 21
11.640462
 31
0.0
 12
16.299677
 22
11.820462
 32
0.0
 13
16.299677
 23
11.820462
 33
0.0
  0
SOLID
  5
441
100
AcDbEntity
  8
0
  6
BYBLOCK
 62
     0
100
AcDbTrace
 10
16.269677
 20
6.750462
 30
0.0
 11
16.329677
 21
6.750462
 31
0.0
 12
16.299677
 22
6.570462
 32
0.0
 13
16.299677
 23
6.570462
 33
0.0
  0
MTEXT
  5
442
100
AcDbEntity
  8
0
  6
BYBLOCK
 62
     0
100
AcDbMText
 10
16.299677
 20
9.195462
 30
0.0
 40
0.18
 41
0.0
 71
     5
 72
     1
  1
\A1;5.2500
  0
POINT
  5
443
100
AcDbEntity
  8
DEFPOINTS
  6
BYBLOCK
 62
     0
100
AcDbPoint
 10
16.968643
 20
11.820462
 30
0.0
  0
POINT
  5
444
100
AcDbEntity
  8
DEFPOINTS
  6
BYBLOCK
 62
     0
100
AcDbPoint
 10
16.968643
 20
6.570462
 30
0.0
  0
POINT
  5
445
100
AcDbEntity
  8
DEFPOINTS
  6
BYBLOCK
 62
     0
100
AcDbPoint
 10
16.299677
 20
6.570462
 30
0.0
  0
ENDBLK
  5
446
100
AcDbEntity
  8
0
100
AcDbBlockEnd
  0
BLOCK
  5
449
100
AcDbEntity
  8
0
100
AcDbBlockBegin
  2
*D11
 70
     1
 10
0.0
 20
0.0
 30
0.0
  3
*D11
  1

  0
LINE
  5
44A
100
AcDbEntity
  8
0
  6
BYBLOCK
 62
     0
100
AcDbLine
 10
16.968643
 20
6.507962
 30
0.0
 11
16.968643
 21
5.756718
 31
0.0
  0
LINE
  5
44B
100
AcDbEntity
  8
0
  6
BYBLOCK
 62
     0
100
AcDbLine
 10
22.218643
 20
6.507962
 30
0.0
 11
22.218643
 21
5.756718
 31
0.0
  0
LINE
  5
44C
100
AcDbEntity
  8
0
  6
BYBLOCK
 62
     0
100
AcDbLine
 10
17.148643
 20
5.936718
 30
0.0
 11
19.083643
 21
5.936718
 31
0.0
  0
LINE
  5
44D
100
AcDbEntity
  8
0
  6
BYBLOCK
 62
     0
100
AcDbLine
 10
22.038643
 20
5.936718
 30
0.0
 11
20.103643
 21
5.936718
 31
0.0
  0
SOLID
  5
44E
100
AcDbEntity
  8
0
  6
BYBLOCK
 62
     0
100
AcDbTrace
 10
17.148643
 20
5.966718
 30
0.0
 11
17.148643
 21
5.906718
 31
0.0
 12
16.968643
 22
5.936718
 32
0.0
 13
16.968643
 23
5.936718
 33
0.0
  0
SOLID
  5
44F
100
AcDbEntity
  8
0
  6
BYBLOCK
 62
     0
100
AcDbTrace
 10
22.038643
 20
5.966718
 30
0.0
 11
22.038643
 21
5.906718
 31
0.0
 12
22.218643
 22
5.936718
 32
0.0
 13
22.218643
 23
5.936718
 33
0.0
  0
MTEXT
  5
450
100
AcDbEntity
  8
0
  6
BYBLOCK
 62
     0
100
AcDbMText
 10
19.593643
 20
5.936718
 30
0.0
 40
0.18
 41
0.0
 71
     5
 72
     1
  1
\A1;5.2500
  0
POINT
  5
451
100
AcDbEntity
  8
DEFPOINTS
  6
BYBLOCK
 62
     0
100
AcDbPoint
 10
16.968643
 20
6.570462
 30
0.0
  0
POINT
  5
452
100
AcDbEntity
  8
DEFPOINTS
  6
BYBLOCK
 62
     0
100
AcDbPoint
 10
22.218643
 20
6.570462
 30
0.0
  0
POINT
  5
453
100
AcDbEntity
  8
DEFPOINTS
  6
BYBLOCK
 62
     0
100
AcDbPoint
 10
22.218643
 20
5.936718
 30
0.0
  0
ENDBLK
  5
454
100
AcDbEntity
  8
0
100
AcDbBlockEnd
  0
BLOCK
  5
4C2
100
AcDbEntity
  8
0
100
AcDbBlockBegin
  2
A$C693200E8
 70
     0
 10
0.0
 20
0.0
 30
0.0
  3
A$C693200E8
  1

  0
LINE
  5
4B2
100
AcDbEntity
  8
0
  6
CONTINUOUS
 62
     3
100
AcDbLine
 10
0.090974
 20
0.172118
 30
0.0
 11
0.169476
 21
0.131462
 31
0.0
  0
LINE
  5
4B3
100
AcDbEntity
  8
0
  6
CONTINUOUS
 62
     3
100
AcDbLine
 10
0.247974
 20
0.172123
 30
0.0
 11
0.169476
 21
0.131462
 31
0.0
  0
LINE
  5
4B4
100
AcDbEntity
  8
0
  6
CONTINUOUS
 62
     3
100
AcDbLine
 10
0.090974
 20
0.172118
 30
0.0
 11
0.247974
 21
0.172123
 31
0.0
  0
LINE
  5
4B5
100
AcDbEntity
  8
0
  6
CONTINUOUS
 62
     3
100
AcDbLine
 10
0.090974
 20
0.172118
 30
0.0
 11
0.090965
 21
0.448708
 31
0.0
  0
LINE
  5
4B6
100
AcDbEntity
  8
0
  6
CONTINUOUS
 62
     3
100
AcDbLine
 10
0.247974
 20
0.172123
 30
0.0
 11
0.247965
 21
0.448713
 31
0.0
  0
ARC
  5
4B7
100
AcDbEntity
  8
0
  6
CONTINUOUS
 62
    30
100
AcDbCircle
 10
0.094
 20
0.154246
 30
0.0
 40
0.094
100
AcDbArc
 50
180.0
 51
211.553206
  0
LINE
  5
4B8
100
AcDbEntity
  8
0
  6
CONTINUOUS
 62
    30
100
AcDbLine
 10
0.0
 20
0.443979
 30
0.0
 11
0.0
 21
0.154246
 31
0.0
  0
LINE
  5
4B9
100
AcDbEntity
  8
0
  6
CONTINUOUS
 62
    30
100
AcDbLine
 10
0.050893
 20
0.044811
 30
0.0
 11
0.013897
 21
0.105057
 31
0.0
  0
ARC
  5
4BA
100
AcDbEntity
  8
0
  6
CONTINUOUS
 62
    30
100
AcDbCircle
 10
0.130996
 20
0.094
 30
0.0
 40
0.094
100
AcDbArc
 50
211.553206
 51
270.0
  0
LINE
  5
4BB
100
AcDbEntity
  8
0
  6
CONTINUOUS
 62
    30
100
AcDbLine
 10
0.130996
 20
0.0
 30
0.0
 11
0.208086
 21
0.0
 31
0.0
  0
ARC
  5
4BC
100
AcDbEntity
  8
0
  6
CONTINUOUS
 62
    30
100
AcDbCircle
 10
0.208086
 20
0.094
 30
0.0
 40
0.094
100
AcDbArc
 50
270.0
 51
328.446794
  0
LINE
  5
4BD
100
AcDbEntity
  8
0
  6
CONTINUOUS
 62
    30
100
AcDbLine
 10
0.288189
 20
0.044811
 30
0.0
 11
0.325024
 21
0.104796
 31
0.0
  0
ARC
  5
4BE
100
AcDbEntity
  8
0
  6
CONTINUOUS
 62
    30
100
AcDbCircle
 10
0.244922
 20
0.153985
 30
0.0
 40
0.094
100
AcDbArc
 50
328.446794
 51
0.0
  0
LINE
  5
4BF
100
AcDbEntity
  8
0
  6
CONTINUOUS
 62
    30
100
AcDbLine
 10
0.338922
 20
0.443991
 30
0.0
 11
0.338922
 21
0.153985
 31
0.0
  0
ARC
  5
4C0
100
AcDbEntity
  8
0
  6
CONTINUOUS
 62
    30
100
AcDbCircle
 10
0.169541
 20
-1.94
 30
0.0
 40
2.39
100
AcDbArc
 50
85.93601
 51
94.067847
  0
CIRCLE
  5
4C1
100
AcDbEntity
  8
0
  6
CONTINUOUS
100
AcDbCircle
 10
0.169476
 20
0.131462
 30
0.0
 40
0.0785
  0
ENDBLK
  5
4C3
100
AcDbEntity
  8
0
100
AcDbBlockEnd
  0
BLOCK
  5
60A
100
AcDbEntity
  8
0
100
AcDbBlockBegin
  2
*D13
 70
     1
 10
0.0
 20
0.0
 30
0.0
  3
*D13
  1

  0
LINE
  5
60B
100
AcDbEntity
  8
0
  6
BYBLOCK
 62
     0
100
AcDbLine
 10
26.14442
 20
14.289686
 30
0.0
 11
26.14442
 21
14.664057
 31
0.0
  0
LINE
  5
60C
100
AcDbEntity
  8
0
  6
BYBLOCK
 62
     0
100
AcDbLine
 10
25.65442
 20
14.262774
 30
0.0
 11
25.65442
 21
14.664057
 31
0.0
  0
LINE
  5
60D
100
AcDbEntity
  8
0
  6
BYBLOCK
 62
     0
100
AcDbLine
 10
26.32442
 20
14.484057
 30
0.0
 11
26.50442
 21
14.484057
 31
0.0
  0
LINE
  5
60E
100
AcDbEntity
  8
0
  6
BYBLOCK
 62
     0
100
AcDbLine
 10
25.47442
 20
14.484057
 30
0.0
 11
25.29442
 21
14.484057
 31
0.0
  0
SOLID
  5
60F
100
AcDbEntity
  8
0
  6
BYBLOCK
 62
     0
100
AcDbTrace
 10
26.32442
 20
14.514057
 30
0.0
 11
26.32442
 21
14.454057
 31
0.0
 12
26.14442
 22
14.484057
 32
0.0
 13
26.14442
 23
14.484057
 33
0.0
  0
SOLID
  5
610
100
AcDbEntity
  8
0
  6
BYBLOCK
 62
     0
100
AcDbTrace
 10
25.47442
 20
14.514057
 30
0.0
 11
25.47442
 21
14.454057
 31
0.0
 12
25.65442
 22
14.484057
 32
0.0
 13
25.65442
 23
14.484057
 33
0.0
  0
MTEXT
  5
611
100
AcDbEntity
  8
0
  6
BYBLOCK
 62
     0
100
AcDbMText
 10
24.79942
 20
14.484057
 30
0.0
 40
0.18
 41
0.0
 71
     5
 72
     1
  1
\A1;0.4900
  0
POINT
  5
612
100
AcDbEntity
  8
DEFPOINTS
  6
BYBLOCK
 62
     0
100
AcDbPoint
 10
26.14442
 20
14.227186
 30
0.0
  0
POINT
  5
613
100
AcDbEntity
  8
DEFPOINTS
  6
BYBLOCK
 62
     0
100
AcDbPoint
 10
25.65442
 20
14.200274
 30
0.0
  0
POINT
  5
614
100
AcDbEntity
  8
DEFPOINTS
  6
BYBLOCK
 62
     0
100
AcDbPoint
 10
25.65442
 20
14.484057
 30
0.0
  0
ENDBLK
  5
615
100
AcDbEntity
  8
0
100
AcDbBlockEnd
  0
BLOCK
  5
617
100
AcDbEntity
  8
0
100
AcDbBlockBegin
  2
*D14
 70
     1
 10
0.0
 20
0.0
 30
0.0
  3
*D14
  1

  0
LINE
  5
618
100
AcDbEntity
  8
0
  6
BYBLOCK
 62
     0
100
AcDbLine
 10
25.65442
 20
13.687774
 30
0.0
 11
25.65442
 21
13.052446
 31
0.0
  0
LINE
  5
619
100
AcDbEntity
  8
0
  6
BYBLOCK
 62
     0
100
AcDbLine
 10
26.27942
 20
13.539686
 30
0.0
 11
26.27942
 21
13.052446
 31
0.0
  0
LINE
  5
61A
100
AcDbEntity
  8
0
  6
BYBLOCK
 62
     0
100
AcDbLine
 10
25.83442
 20
13.232446
 30
0.0
 11
26.09942
 21
13.232446
 31
0.0
  0
LINE
  5
61B
100
AcDbEntity
  8
0
  6
BYBLOCK
 62
     0
100
AcDbLine
 10
26.27942
 20
13.232446
 30
0.0
 11
26.45942
 21
13.232446
 31
0.0
  0
SOLID
  5
61C
100
AcDbEntity
  8
0
  6
BYBLOCK
 62
     0
100
AcDbTrace
 10
25.83442
 20
13.262446
 30
0.0
 11
25.83442
 21
13.202446
 31
0.0
 12
25.65442
 22
13.232446
 32
0.0
 13
25.65442
 23
13.232446
 33
0.0
  0
SOLID
  5
61D
100
AcDbEntity
  8
0
  6
BYBLOCK
 62
     0
100
AcDbTrace
 10
26.09942
 20
13.262446
 30
0.0
 11
26.09942
 21
13.202446
 31
0.0
 12
26.27942
 22
13.232446
 32
0.0
 13
26.27942
 23
13.232446
 33
0.0
  0
MTEXT
  5
61E
100
AcDbEntity
  8
0
  6
BYBLOCK
 62
     0
100
AcDbMText
 10
26.96942
 20
13.232446
 30
0.0
 40
0.18
 41
0.0
 71
     5
 72
     1
  1
\A1;0.6250
  0
POINT
  5
61F
100
AcDbEntity
  8
DEFPOINTS
  6
BYBLOCK
 62
     0
100
AcDbPoint
 10
25.65442
 20
13.750274
 30
0.0
  0
POINT
  5
620
100
AcDbEntity
  8
DEFPOINTS
  6
BYBLOCK
 62
     0
100
AcDbPoint
 10
26.27942
 20
13.602186
 30
0.0
  0
POINT
  5
621
100
AcDbEntity
  8
DEFPOINTS
  6
BYBLOCK
 62
     0
100
AcDbPoint
 10
26.27942
 20
13.232446
 30
0.0
  0
ENDBLK
  5
622
100
AcDbEntity
  8
0
100
AcDbBlockEnd
  0
BLOCK
  5
636
100
AcDbEntity
  8
0
100
AcDbBlockBegin
  2
*D15
 70
     1
 10
0.0
 20
0.0
 30
0.0
  3
*D15
  1

  0
LINE
  5
637
100
AcDbEntity
  8
0
  6
BYBLOCK
 62
     0
100
AcDbLine
 10
21.582432
 20
12.34188
 30
0.0
 11
21.582432
 21
11.989965
 31
0.0
  0
LINE
  5
638
100
AcDbEntity
  8
0
  6
BYBLOCK
 62
     0
100
AcDbLine
 10
21.739432
 20
12.34188
 30
0.0
 11
21.739432
 21
11.989965
 31
0.0
  0
LINE
  5
639
100
AcDbEntity
  8
0
  6
BYBLOCK
 62
     0
100
AcDbLine
 10
21.402432
 20
12.169965
 30
0.0
 11
21.222432
 21
12.169965
 31
0.0
  0
LINE
  5
63A
100
AcDbEntity
  8
0
  6
BYBLOCK
 62
     0
100
AcDbLine
 10
21.919432
 20
12.169965
 30
0.0
 11
22.099432
 21
12.169965
 31
0.0
  0
SOLID
  5
63B
100
AcDbEntity
  8
0
  6
BYBLOCK
 62
     0
100
AcDbTrace
 10
21.402432
 20
12.199965
 30
0.0
 11
21.402432
 21
12.139965
 31
0.0
 12
21.582432
 22
12.169965
 32
0.0
 13
21.582432
 23
12.169965
 33
0.0
  0
SOLID
  5
63C
100
AcDbEntity
  8
0
  6
BYBLOCK
 62
     0
100
AcDbTrace
 10
21.919432
 20
12.199965
 30
0.0
 11
21.919432
 21
12.139965
 31
0.0
 12
21.739432
 22
12.169965
 32
0.0
 13
21.739432
 23
12.169965
 33
0.0
  0
MTEXT
  5
63D
100
AcDbEntity
  8
0
  6
BYBLOCK
 62
     0
100
AcDbMText
 10
22.579432
 20
12.169965
 30
0.0
 40
0.18
 41
0.0
 71
     5
 72
     1
  1
\A1;0.1570
  0
POINT
  5
63E
100
AcDbEntity
  8
DEFPOINTS
  6
BYBLOCK
 62
     0
100
AcDbPoint
 10
21.582432
 20
12.40438
 30
0.0
  0
POINT
  5
63F
100
AcDbEntity
  8
DEFPOINTS
  6
BYBLOCK
 62
     0
100
AcDbPoint
 10
21.739432
 20
12.40438
 30
0.0
  0
POINT
  5
640
100
AcDbEntity
  8
DEFPOINTS
  6
BYBLOCK
 62
     0
100
AcDbPoint
 10
21.739432
 20
12.169965
 30
0.0
  0
ENDBLK
  5
641
100
AcDbEntity
  8
0
100
AcDbBlockEnd
  0
BLOCK
  5
679
100
AcDbEntity
  8
0
100
AcDbBlockBegin
  2
A$C77A666E6
 70
     0
 10
0.0
 20
0.0
 30
0.0
  3
A$C77A666E6
  1

  0
ARC
  5
66C
100
AcDbEntity
  8
0
  6
CONTINUOUS
 62
    30
100
AcDbCircle
 10
0.650583
 20
1.2
 30
0.0
 40
0.05
100
AcDbArc
 50
0.0
 51
90.0
  0
LINE
  5
66D
100
AcDbEntity
  8
0
  6
CONTINUOUS
 62
    30
100
AcDbLine
 10
0.700583
 20
0.05
 30
0.0
 11
0.700583
 21
1.2
 31
0.0
  0
LINE
  5
66E
100
AcDbEntity
  8
0
  6
CONTINUOUS
 62
    30
100
AcDbLine
 10
0.050583
 20
1.25
 30
0.0
 11
0.650583
 21
1.25
 31
0.0
  0
ARC
  5
66F
100
AcDbEntity
  8
0
  6
CONTINUOUS
 62
    30
100
AcDbCircle
 10
0.050583
 20
1.2
 30
0.0
 40
0.05
100
AcDbArc
 50
90.0
 51
180.0
  0
LINE
  5
670
100
AcDbEntity
  8
0
  6
CONTINUOUS
 62
    30
100
AcDbLine
 10
0.000583
 20
0.05
 30
0.0
 11
0.000583
 21
1.2
 31
0.0
  0
ARC
  5
671
100
AcDbEntity
  8
0
  6
CONTINUOUS
 62
    30
100
AcDbCircle
 10
0.050583
 20
0.05
 30
0.0
 40
0.05
100
AcDbArc
 50
180.0
 51
270.0
  0
LINE
  5
672
100
AcDbEntity
  8
0
  6
CONTINUOUS
 62
    30
100
AcDbLine
 10
0.050583
 20
0.0
 30
0.0
 11
0.650583
 21
0.0
 31
0.0
  0
ARC
  5
673
100
AcDbEntity
  8
0
  6
CONTINUOUS
 62
    30
100
AcDbCircle
 10
0.650583
 20
0.05
 30
0.0
 40
0.05
100
AcDbArc
 50
270.0
 51
0.0
  0
ARC
  5
674
100
AcDbEntity
  8
LAYER_1
 62
    30
100
AcDbCircle
 10
0.350583
 20
-2.247345
 30
0.0
 40
3.005345
100
AcDbArc
 50
83.30101
 51
96.69899
  0
CIRCLE
  5
675
100
AcDbEntity
  8
0
  6
CONTINUOUS
100
AcDbCircle
 10
0.350598
 20
0.321462
 30
0.0
 40
0.0785
  0
LINE
  5
676
100
AcDbEntity
  8
0
  6
CONTINUOUS
100
AcDbLine
 10
0.272083
 20
1.25
 30
0.0
 11
0.429083
 21
1.25
 31
0.0
  0
LINE
  5
677
100
AcDbEntity
  8
0
  6
CONTINUOUS
100
AcDbLine
 10
0.429083
 20
0.75
 30
0.0
 11
0.429083
 21
1.25
 31
0.0
  0
LINE
  5
678
100
AcDbEntity
  8
0
  6
CONTINUOUS
100
AcDbLine
 10
0.272083
 20
0.75
 30
0.0
 11
0.272083
 21
1.25
 31
0.0
  0
ENDBLK
  5
67A
100
AcDbEntity
  8
0
100
AcDbBlockEnd
  0
BLOCK
  5
81F
100
AcDbEntity
  8
0
100
AcDbBlockBegin
  2
*D21
 70
     1
 10
0.0
 20
0.0
 30
0.0
  3
*D21
  1

  0
LINE
  5
820
100
AcDbEntity
  8
0
  6
BYBLOCK
 62
     0
100
AcDbLine
 10
19.819211
 20
-5.840377
 30
0.0
 11
19.999211
 21
-5.840377
 31
0.0
  0
LINE
  5
821
100
AcDbEntity
  8
0
  6
BYBLOCK
 62
     0
100
AcDbLine
 10
19.999211
 20
-5.840377
 30
0.0
 11
20.462007
 21
-6.426721
 31
0.0
  0
MTEXT
  5
822
100
AcDbEntity
  8
0
  6
BYBLOCK
 62
     0
100
AcDbMText
 10
19.204211
 20
-5.840377
 30
0.0
 40
0.18
 41
0.0
 71
     5
 72
     1
  1
\A1;\U+22053.9380
  0
SOLID
  5
823
100
AcDbEntity
  8
0
  6
BYBLOCK
 62
     0
100
AcDbTrace
 10
20.485556
 20
-6.408134
 30
0.0
 11
20.438459
 21
-6.445307
 31
0.0
 12
20.573528
 22
-6.568012
 32
0.0
 13
20.573528
 23
-6.568012
 33
0.0
  0
LINE
  5
824
100
AcDbEntity
  8
0
  6
BYBLOCK
 62
     0
100
AcDbLine
 10
21.703434
 20
-8.113583
 30
0.0
 11
21.883434
 21
-8.113583
 31
0.0
  0
LINE
  5
825
100
AcDbEntity
  8
0
  6
BYBLOCK
 62
     0
100
AcDbLine
 10
21.793434
 20
-8.203583
 30
0.0
 11
21.793434
 21
-8.023583
 31
0.0
  0
POINT
  5
826
100
AcDbEntity
  8
DEFPOINTS
  6
BYBLOCK
 62
     0
100
AcDbPoint
 10
20.573528
 20
-6.568012
 30
0.0
  0
POINT
  5
827
100
AcDbEntity
  8
DEFPOINTS
  6
BYBLOCK
 62
     0
100
AcDbPoint
 10
23.01334
 20
-9.659154
 30
0.0
  0
ENDBLK
  5
828
100
AcDbEntity
  8
0
100
AcDbBlockEnd
  0
BLOCK
  5
82D
100
AcDbEntity
  8
0
100
AcDbBlockBegin
  2
*D22
 70
     1
 10
0.0
 20
0.0
 30
0.0
  3
*D22
  1

  0
LINE
  5
82E
100
AcDbEntity
  8
0
  6
BYBLOCK
 62
     0
100
AcDbLine
 10
19.17765
 20
-5.864122
 30
0.0
 11
19.35765
 21
-5.864122
 31
0.0
  0
LINE
  5
82F
100
AcDbEntity
  8
0
  6
BYBLOCK
 62
     0
100
AcDbLine
 10
19.35765
 20
-5.864122
 30
0.0
 11
20.214679
 21
-6.655593
 31
0.0
  0
MTEXT
  5
830
100
AcDbEntity
  8
0
  6
BYBLOCK
 62
     0
100
AcDbMText
 10
18.56265
 20
-5.864122
 30
0.0
 40
0.18
 41
0.0
 71
     5
 72
     1
  1
\A1;\U+22053.9380
  0
SOLID
  5
831
100
AcDbEntity
  8
0
  6
BYBLOCK
 62
     0
100
AcDbTrace
 10
20.235032
 20
-6.633554
 30
0.0
 11
20.194325
 21
-6.677633
 31
0.0
 12
20.346915
 22
-6.777714
 32
0.0
 13
20.346915
 23
-6.777714
 33
0.0
  0
LINE
  5
832
100
AcDbEntity
  8
0
  6
BYBLOCK
 62
     0
100
AcDbLine
 10
21.703434
 20
-8.113583
 30
0.0
 11
21.883434
 21
-8.113583
 31
0.0
  0
LINE
  5
833
100
AcDbEntity
  8
0
  6
BYBLOCK
 62
     0
100
AcDbLine
 10
21.793434
 20
-8.203583
 30
0.0
 11
21.793434
 21
-8.023583
 31
0.0
  0
POINT
  5
834
100
AcDbEntity
  8
DEFPOINTS
  6
BYBLOCK
 62
     0
100
AcDbPoint
 10
20.346915
 20
-6.777714
 30
0.0
  0
POINT
  5
835
100
AcDbEntity
  8
DEFPOINTS
  6
BYBLOCK
 62
     0
100
AcDbPoint
 10
23.239952
 20
-9.449452
 30
0.0
  0
ENDBLK
  5
836
100
AcDbEntity
  8
0
100
AcDbBlockEnd
  0
BLOCK
  5
841
100
AcDbEntity
  8
0
100
AcDbBlockBegin
  2
*D23
 70
     1
 10
0.0
 20
0.0
 30
0.0
  3
*D23
  1

  0
LINE
  5
842
100
AcDbEntity
  8
0
  6
BYBLOCK
 62
     0
100
AcDbLine
 10
25.641543
 20
-6.180833
 30
0.0
 11
25.641543
 21
-5.970449
 31
0.0
  0
LINE
  5
843
100
AcDbEntity
  8
0
  6
BYBLOCK
 62
     0
100
AcDbLine
 10
25.657043
 20
-6.180833
 30
0.0
 11
25.657043
 21
-5.970449
 31
0.0
  0
LINE
  5
844
100
AcDbEntity
  8
0
  6
BYBLOCK
 62
     0
100
AcDbLine
 10
25.461543
 20
-6.150449
 30
0.0
 11
25.281543
 21
-6.150449
 31
0.0
  0
LINE
  5
845
100
AcDbEntity
  8
0
  6
BYBLOCK
 62
     0
100
AcDbLine
 10
25.837043
 20
-6.150449
 30
0.0
 11
26.017043
 21
-6.150449
 31
0.0
  0
SOLID
  5
846
100
AcDbEntity
  8
0
  6
BYBLOCK
 62
     0
100
AcDbTrace
 10
25.461543
 20
-6.120449
 30
0.0
 11
25.461543
 21
-6.180449
 31
0.0
 12
25.641543
 22
-6.150449
 32
0.0
 13
25.641543
 23
-6.150449
 33
0.0
  0
SOLID
  5
847
100
AcDbEntity
  8
0
  6
BYBLOCK
 62
     0
100
AcDbTrace
 10
25.837043
 20
-6.120449
 30
0.0
 11
25.837043
 21
-6.180449
 31
0.0
 12
25.657043
 22
-6.150449
 32
0.0
 13
25.657043
 23
-6.150449
 33
0.0
  0
MTEXT
  5
848
100
AcDbEntity
  8
0
  6
BYBLOCK
 62
     0
100
AcDbMText
 10
26.497043
 20
-6.150449
 30
0.0
 40
0.18
 41
0.0
 71
     5
 72
     1
  1
\A1;0.0155
  0
POINT
  5
849
100
AcDbEntity
  8
DEFPOINTS
  6
BYBLOCK
 62
     0
100
AcDbPoint
 10
25.641543
 20
-6.243333
 30
0.0
  0
POINT
  5
84A
100
AcDbEntity
  8
DEFPOINTS
  6
BYBLOCK
 62
     0
100
AcDbPoint
 10
25.657043
 20
-6.243333
 30
0.0
  0
POINT
  5
84B
100
AcDbEntity
  8
DEFPOINTS
  6
BYBLOCK
 62
     0
100
AcDbPoint
 10
25.657043
 20
-6.150449
 30
0.0
  0
ENDBLK
  5
84C
100
AcDbEntity
  8
0
100
AcDbBlockEnd
  0
BLOCK
  5
8A3
100
AcDbEntity
  8
0
100
AcDbBlockBegin
  2
*D24
 70
     1
 10
0.0
 20
0.0
 30
0.0
  3
*D24
  1

  0
LINE
  5
8A4
100
AcDbEntity
  8
0
  6
BYBLOCK
 62
     0
100
AcDbLine
 10
33.534069
 20
-4.835247
 30
0.0
 11
33.354069
 21
-4.835247
 31
0.0
  0
LINE
  5
8A5
100
AcDbEntity
  8
0
  6
BYBLOCK
 62
     0
100
AcDbLine
 10
33.354069
 20
-4.835247
 30
0.0
 11
32.895021
 21
-5.329259
 31
0.0
  0
MTEXT
  5
8A6
100
AcDbEntity
  8
0
  6
BYBLOCK
 62
     0
100
AcDbMText
 10
34.149069
 20
-4.835247
 30
0.0
 40
0.18
 41
0.0
 71
     5
 72
     1
  1
\A1;\U+22052.9530
  0
SOLID
  5
8A7
100
AcDbEntity
  8
0
  6
BYBLOCK
 62
     0
100
AcDbTrace
 10
32.873044
 20
-5.308838
 30
0.0
 11
32.916997
 21
-5.34968
 31
0.0
 12
32.772493
 22
-5.461119
 32
0.0
 13
32.772493
 23
-5.461119
 33
0.0
  0
LINE
  5
8A8
100
AcDbEntity
  8
0
  6
BYBLOCK
 62
     0
100
AcDbLine
 10
31.677428
 20
-6.542737
 30
0.0
 11
31.857428
 21
-6.542737
 31
0.0
  0
LINE
  5
8A9
100
AcDbEntity
  8
0
  6
BYBLOCK
 62
     0
100
AcDbLine
 10
31.767428
 20
-6.632737
 30
0.0
 11
31.767428
 21
-6.452737
 31
0.0
  0
POINT
  5
8AA
100
AcDbEntity
  8
DEFPOINTS
  6
BYBLOCK
 62
     0
100
AcDbPoint
 10
32.772493
 20
-5.461119
 30
0.0
  0
POINT
  5
8AB
100
AcDbEntity
  8
DEFPOINTS
  6
BYBLOCK
 62
     0
100
AcDbPoint
 10
30.762364
 20
-7.624354
 30
0.0
  0
ENDBLK
  5
8AC
100
AcDbEntity
  8
0
100
AcDbBlockEnd
  0
BLOCK
  5
8B8
100
AcDbEntity
  8
0
100
AcDbBlockBegin
  2
*D25
 70
     1
 10
0.0
 20
0.0
 30
0.0
  3
*D25
  1

  0
LINE
  5
8B9
100
AcDbEntity
  8
0
  6
BYBLOCK
 62
     0
100
AcDbLine
 10
30.295341
 20
-4.867691
 30
0.0
 11
30.475341
 21
-4.867691
 31
0.0
  0
LINE
  5
8BA
100
AcDbEntity
  8
0
  6
BYBLOCK
 62
     0
100
AcDbLine
 10
30.475341
 20
-4.867691
 30
0.0
 11
30.958633
 21
-5.317073
 31
0.0
  0
MTEXT
  5
8BB
100
AcDbEntity
  8
0
  6
BYBLOCK
 62
     0
100
AcDbMText
 10
29.695341
 20
-4.867691
 30
0.0
 40
0.18
 41
0.0
 71
     5
 72
     1
  1
\A1;\U+22050.2360
  0
SOLID
  5
8BC
100
AcDbEntity
  8
0
  6
BYBLOCK
 62
     0
100
AcDbTrace
 10
30.979061
 20
-5.295103
 30
0.0
 11
30.938204
 21
-5.339043
 31
0.0
 12
31.090452
 22
-5.439644
 32
0.0
 13
31.090452
 23
-5.439644
 33
0.0
  0
LINE
  5
8BD
100
AcDbEntity
  8
0
  6
BYBLOCK
 62
     0
100
AcDbLine
 10
31.086868
 20
-5.519996
 30
0.0
 11
31.266868
 21
-5.519996
 31
0.0
  0
LINE
  5
8BE
100
AcDbEntity
  8
0
  6
BYBLOCK
 62
     0
100
AcDbLine
 10
31.176868
 20
-5.609996
 30
0.0
 11
31.176868
 21
-5.429996
 31
0.0
  0
POINT
  5
8BF
100
AcDbEntity
  8
DEFPOINTS
  6
BYBLOCK
 62
     0
100
AcDbPoint
 10
31.090452
 20
-5.439644
 30
0.0
  0
POINT
  5
8C0
100
AcDbEntity
  8
DEFPOINTS
  6
BYBLOCK
 62
     0
100
AcDbPoint
 10
31.263283
 20
-5.600348
 30
0.0
  0
ENDBLK
  5
8C1
100
AcDbEntity
  8
0
100
AcDbBlockEnd
  0
BLOCK
  5
8C5
100
AcDbEntity
  8
0
100
AcDbBlockBegin
  2
*D26
 70
     1
 10
0.0
 20
0.0
 30
0.0
  3
*D26
  1

  0
LINE
  5
8C6
100
AcDbEntity
  8
0
  6
BYBLOCK
 62
     0
100
AcDbLine
 10
31.070569
 20
-6.684357
 30
0.0
 11
31.070569
 21
-6.09936
 31
0.0
  0
LINE
  5
8C7
100
AcDbEntity
  8
0
  6
BYBLOCK
 62
     0
100
AcDbLine
 10
30.883069
 20
-6.684357
 30
0.0
 11
30.883069
 21
-6.09936
 31
0.0
  0
LINE
  5
8C8
100
AcDbEntity
  8
0
  6
BYBLOCK
 62
     0
100
AcDbLine
 10
31.250569
 20
-6.27936
 30
0.0
 11
31.430569
 21
-6.27936
 31
0.0
  0
LINE
  5
8C9
100
AcDbEntity
  8
0
  6
BYBLOCK
 62
     0
100
AcDbLine
 10
30.703069
 20
-6.27936
 30
0.0
 11
30.523069
 21
-6.27936
 31
0.0
  0
SOLID
  5
8CA
100
AcDbEntity
  8
0
  6
BYBLOCK
 62
     0
100
AcDbTrace
 10
31.250569
 20
-6.24936
 30
0.0
 11
31.250569
 21
-6.30936
 31
0.0
 12
31.070569
 22
-6.27936
 32
0.0
 13
31.070569
 23
-6.27936
 33
0.0
  0
SOLID
  5
8CB
100
AcDbEntity
  8
0
  6
BYBLOCK
 62
     0
100
AcDbTrace
 10
30.703069
 20
-6.24936
 30
0.0
 11
30.703069
 21
-6.30936
 31
0.0
 12
30.883069
 22
-6.27936
 32
0.0
 13
30.883069
 23
-6.27936
 33
0.0
  0
MTEXT
  5
8CC
100
AcDbEntity
  8
0
  6
BYBLOCK
 62
     0
100
AcDbMText
 10
30.028069
 20
-6.27936
 30
0.0
 40
0.18
 41
0.0
 71
     5
 72
     1
  1
\A1;0.1875
  0
POINT
  5
8CD
100
AcDbEntity
  8
DEFPOINTS
  6
BYBLOCK
 62
     0
100
AcDbPoint
 10
31.070569
 20
-6.746857
 30
0.0
  0
POINT
  5
8CE
100
AcDbEntity
  8
DEFPOINTS
  6
BYBLOCK
 62
     0
100
AcDbPoint
 10
30.883069
 20
-6.746857
 30
0.0
  0
POINT
  5
8CF
100
AcDbEntity
  8
DEFPOINTS
  6
BYBLOCK
 62
     0
100
AcDbPoint
 10
30.883069
 20
-6.27936
 30
0.0
  0
ENDBLK
  5
8D0
100
AcDbEntity
  8
0
100
AcDbBlockEnd
  0
BLOCK
  5
8D5
100
AcDbEntity
  8
0
100
AcDbBlockBegin
  2
*D27
 70
     1
 10
0.0
 20
0.0
 30
0.0
  3
*D27
  1

  0
LINE
  5
8D6
100
AcDbEntity
  8
0
  6
BYBLOCK
 62
     0
100
AcDbLine
 10
13.85977
 20
-3.71526
 30
0.0
 11
13.67977
 21
-3.71526
 31
0.0
  0
LINE
  5
8D7
100
AcDbEntity
  8
0
  6
BYBLOCK
 62
     0
100
AcDbLine
 10
13.67977
 20
-3.71526
 30
0.0
 11
13.483141
 21
-4.177676
 31
0.0
  0
MTEXT
  5
8D8
100
AcDbEntity
  8
0
  6
BYBLOCK
 62
     0
100
AcDbMText
 10
14.45977
 20
-3.71526
 30
0.0
 40
0.18
 41
0.0
 71
     5
 72
     1
  1
\A1;\U+22054.7800
  0
SOLID
  5
8D9
100
AcDbEntity
  8
0
  6
BYBLOCK
 62
     0
100
AcDbTrace
 10
13.455533
 20
-4.165936
 30
0.0
 11
13.510749
 21
-4.189415
 31
0.0
 12
13.412704
 22
-4.343322
 32
0.0
 13
13.412704
 23
-4.343322
 33
0.0
  0
LINE
  5
8DA
100
AcDbEntity
  8
0
  6
BYBLOCK
 62
     0
100
AcDbLine
 10
12.387464
 20
-6.542737
 30
0.0
 11
12.567464
 21
-6.542737
 31
0.0
  0
LINE
  5
8DB
100
AcDbEntity
  8
0
  6
BYBLOCK
 62
     0
100
AcDbLine
 10
12.477464
 20
-6.632737
 30
0.0
 11
12.477464
 21
-6.452737
 31
0.0
  0
POINT
  5
8DC
100
AcDbEntity
  8
DEFPOINTS
  6
BYBLOCK
 62
     0
100
AcDbPoint
 10
13.412704
 20
-4.343322
 30
0.0
  0
POINT
  5
8DD
100
AcDbEntity
  8
DEFPOINTS
  6
BYBLOCK
 62
     0
100
AcDbPoint
 10
11.542224
 20
-8.742152
 30
0.0
  0
ENDBLK
  5
8DE
100
AcDbEntity
  8
0
100
AcDbBlockEnd
  0
BLOCK
  5
8E6
100
AcDbEntity
  8
0
100
AcDbBlockBegin
  2
*D28
 70
     1
 10
0.0
 20
0.0
 30
0.0
  3
*D28
  1

  0
LINE
  5
8E7
100
AcDbEntity
  8
0
  6
BYBLOCK
 62
     0
100
AcDbLine
 10
14.452259
 20
-4.158587
 30
0.0
 11
14.272259
 21
-4.158587
 31
0.0
  0
LINE
  5
8E8
100
AcDbEntity
  8
0
  6
BYBLOCK
 62
     0
100
AcDbLine
 10
14.272259
 20
-4.158587
 30
0.0
 11
14.119976
 21
-4.360876
 31
0.0
  0
MTEXT
  5
8E9
100
AcDbEntity
  8
0
  6
BYBLOCK
 62
     0
100
AcDbMText
 10
15.022259
 20
-4.158587
 30
0.0
 40
0.18
 41
0.0
 71
     5
 72
     1
  1
\A1;\U+22055.1020
  0
SOLID
  5
8EA
100
AcDbEntity
  8
0
  6
BYBLOCK
 62
     0
100
AcDbTrace
 10
14.096008
 20
-4.342833
 30
0.0
 11
14.143943
 21
-4.378919
 31
0.0
 12
14.011718
 22
-4.504682
 32
0.0
 13
14.011718
 23
-4.504682
 33
0.0
  0
LINE
  5
8EB
100
AcDbEntity
  8
0
  6
BYBLOCK
 62
     0
100
AcDbLine
 10
12.387464
 20
-6.542737
 30
0.0
 11
12.567464
 21
-6.542737
 31
0.0
  0
LINE
  5
8EC
100
AcDbEntity
  8
0
  6
BYBLOCK
 62
     0
100
AcDbLine
 10
12.477464
 20
-6.632737
 30
0.0
 11
12.477464
 21
-6.452737
 31
0.0
  0
POINT
  5
8ED
100
AcDbEntity
  8
DEFPOINTS
  6
BYBLOCK
 62
     0
100
AcDbPoint
 10
14.011718
 20
-4.504682
 30
0.0
  0
POINT
  5
8EE
100
AcDbEntity
  8
DEFPOINTS
  6
BYBLOCK
 62
     0
100
AcDbPoint
 10
10.943211
 20
-8.580791
 30
0.0
  0
ENDBLK
  5
8EF
100
AcDbEntity
  8
0
100
AcDbBlockEnd
  0
BLOCK
  5
8F8
100
AcDbEntity
  8
0
100
AcDbBlockBegin
  2
*D29
 70
     1
 10
0.0
 20
0.0
 30
0.0
  3
*D29
  1

  0
LINE
  5
8F9
100
AcDbEntity
  8
0
  6
BYBLOCK
 62
     0
100
AcDbLine
 10
4.889826
 20
-3.691279
 30
0.0
 11
4.709826
 21
-3.691279
 31
0.0
  0
LINE
  5
8FA
100
AcDbEntity
  8
0
  6
BYBLOCK
 62
     0
100
AcDbLine
 10
4.709826
 20
-3.691279
 30
0.0
 11
4.535689
 21
-3.935414
 31
0.0
  0
MTEXT
  5
8FB
100
AcDbEntity
  8
0
  6
BYBLOCK
 62
     0
100
AcDbMText
 10
5.474826
 20
-3.691279
 30
0.0
 40
0.18
 41
0.0
 71
     5
 72
     1
  1
\A1;\U+22056.0500
  0
SOLID
  5
8FC
100
AcDbEntity
  8
0
  6
BYBLOCK
 62
     0
100
AcDbTrace
 10
4.511266
 20
-3.917993
 30
0.0
 11
4.560113
 21
-3.952835
 31
0.0
 12
4.431164
 22
-4.081955
 32
0.0
 13
4.431164
 23
-4.081955
 33
0.0
  0
LINE
  5
8FD
100
AcDbEntity
  8
0
  6
BYBLOCK
 62
     0
100
AcDbLine
 10
2.584553
 20
-6.544666
 30
0.0
 11
2.764553
 21
-6.544666
 31
0.0
  0
LINE
  5
8FE
100
AcDbEntity
  8
0
  6
BYBLOCK
 62
     0
100
AcDbLine
 10
2.674553
 20
-6.634666
 30
0.0
 11
2.674553
 21
-6.454666
 31
0.0
  0
POINT
  5
8FF
100
AcDbEntity
  8
DEFPOINTS
  6
BYBLOCK
 62
     0
100
AcDbPoint
 10
4.431164
 20
-4.081955
 30
0.0
  0
POINT
  5
900
100
AcDbEntity
  8
DEFPOINTS
  6
BYBLOCK
 62
     0
100
AcDbPoint
 10
0.917943
 20
-9.007377
 30
0.0
  0
ENDBLK
  5
901
100
AcDbEntity
  8
0
100
AcDbBlockEnd
  0
ENDSEC
  0
SECTION
  2
ENTITIES
  0
INSERT
  5
54
100
AcDbEntity
  8
LAYER_1
 62
     7
100
AcDbBlockReference
  2
AI9-BLK6
 10
113.947222
 20
154.622431
 30
0.0
  0
INSERT
  5
50
100
AcDbEntity
  8
LAYER_1
 62
     7
100
AcDbBlockReference
  2
AI9-BLK5
 10
107.95
 20
139.7
 30
0.0
  0
INSERT
  5
4C
100
AcDbEntity
  8
LAYER_1
 62
     7
100
AcDbBlockReference
  2
AI9-BLK4
 10
110.310579
 20
163.129061
 30
0.0
  0
INSERT
  5
48
100
AcDbEntity
  8
LAYER_1
 62
     7
100
AcDbBlockReference
  2
AI9-BLK3
 10
107.95
 20
139.7
 30
0.0
  0
LINE
  5
1E6
100
AcDbEntity
  8
0
  6
CONTINUOUS
 62
     3
100
AcDbLine
 10
-1.66425
 20
1.647827
 30
0.0
 11
7.489775
 21
1.647827
 31
0.0
  0
LINE
  5
1E7
100
AcDbEntity
  8
0
  6
CONTINUOUS
 62
     3
100
AcDbLine
 10
-1.66425
 20
2.647827
 30
0.0
 11
7.489775
 21
2.647827
 31
0.0
  0
INSERT
  5
1E8
100
AcDbEntity
  8
0
  6
CONTINUOUS
100
AcDbBlockReference
  2
A$C1B3843B4
 10
-0.424664
 20
-0.218865
 30
0.0
  0
INSERT
  5
1E9
100
AcDbEntity
  8
0
  6
CONTINUOUS
100
AcDbBlockReference
  2
A$C1B3843B4
 10
3.174547
 20
-1.719496
 30
0.0
 50
60.0
  0
CIRCLE
  5
1EA
100
AcDbEntity
  8
LAYER_1
 62
     7
100
AcDbCircle
 10
2.674553
 20
2.145897
 30
0.0
 40
2.887345
  0
CIRCLE
  5
1EB
100
AcDbEntity
  8
LAYER_1
 62
     7
100
AcDbCircle
 10
2.674553
 20
2.145897
 30
0.0
 40
2.950345
  0
ARC
  5
1EE
100
AcDbEntity
  8
0
  6
CONTINUOUS
100
AcDbCircle
 10
3.287756
 20
3.209972
 30
0.0
 40
0.188
100
AcDbArc
 50
182.082965
 51
297.917035
  0
ARC
  5
1EF
100
AcDbEntity
  8
0
  6
CONTINUOUS
100
AcDbCircle
 10
6.692397
 20
3.333801
 30
0.0
 40
3.594892
100
AcDbArc
 50
165.807894
 51
182.082965
  0
CIRCLE
  5
1F0
100
AcDbEntity
  8
LAYER_1
 62
     7
100
AcDbCircle
 10
2.674553
 20
2.145897
 30
0.0
 40
3.000345
  0
CIRCLE
  5
1F1
100
AcDbEntity
  8
LAYER_1
 62
     7
100
AcDbCircle
 10
2.674526
 20
2.147827
 30
0.0
 40
0.500056
  0
CIRCLE
  5
1FC
100
AcDbEntity
  8
0
  6
CONTINUOUS
100
AcDbCircle
 10
2.674526
 20
0.671327
 30
0.0
 40
0.1565
  0
CIRCLE
  5
1FD
100
AcDbEntity
  8
0
  6
CONTINUOUS
100
AcDbCircle
 10
1.39584
 20
1.409577
 30
0.0
 40
0.1565
  0
CIRCLE
  5
208
100
AcDbEntity
  8
0
  6
CONTINUOUS
100
AcDbCircle
 10
1.39584
 20
2.886077
 30
0.0
 40
0.1565
  0
CIRCLE
  5
209
100
AcDbEntity
  8
0
  6
CONTINUOUS
100
AcDbCircle
 10
2.674526
 20
3.624327
 30
0.0
 40
0.1565
  0
CIRCLE
  5
212
100
AcDbEntity
  8
0
  6
CONTINUOUS
100
AcDbCircle
 10
3.953213
 20
1.409577
 30
0.0
 40
0.1565
  0
ARC
  5
219
100
AcDbEntity
  8
0
  6
CONTINUOUS
100
AcDbCircle
 10
1.692675
 20
6.220392
 30
0.0
 40
3.594892
100
AcDbArc
 50
297.917035
 51
314.198236
  0
ARC
  5
21A
100
AcDbEntity
  8
0
  6
CONTINUOUS
100
AcDbCircle
 10
3.177391
 20
3.017727
 30
0.0
 40
1.358727
100
AcDbArc
 50
40.488955
 51
79.562369
  0
CIRCLE
  5
21B
100
AcDbEntity
  8
0
  6
CONTINUOUS
100
AcDbCircle
 10
3.953213
 20
2.886077
 30
0.0
 40
0.1565
  0
CIRCLE
  5
247
100
AcDbEntity
  8
0
  6
CONTINUOUS
100
AcDbCircle
 10
3.697302
 20
2.738327
 30
0.0
 40
0.118
  0
CIRCLE
  5
248
100
AcDbEntity
  8
0
  6
CONTINUOUS
100
AcDbCircle
 10
1.65175
 20
2.738327
 30
0.0
 40
0.118
  0
CIRCLE
  5
24A
100
AcDbEntity
  8
0
  6
CONTINUOUS
100
AcDbCircle
 10
2.674526
 20
0.966827
 30
0.0
 40
0.118
  0
CIRCLE
  5
24C
100
AcDbEntity
  8
0
  6
CONTINUOUS
100
AcDbCircle
 10
2.674456
 20
3.328827
 30
0.0
 40
0.118
  0
CIRCLE
  5
24E
100
AcDbEntity
  8
0
  6
CONTINUOUS
100
AcDbCircle
 10
1.651785
 20
1.557266
 30
0.0
 40
0.118
  0
CIRCLE
  5
250
100
AcDbEntity
  8
0
  6
CONTINUOUS
100
AcDbCircle
 10
3.697337
 20
1.557388
 30
0.0
 40
0.118
  0
ARC
  5
278
100
AcDbEntity
  8
0
  6
CONTINUOUS
100
AcDbCircle
 10
2.674432
 20
5.969745
 30
0.0
 40
0.125
100
AcDbArc
 50
20.568751
 51
160.168451
  0
CIRCLE
  5
279
100
AcDbEntity
  8
0
  6
CONTINUOUS
100
AcDbCircle
 10
2.674432
 20
5.969745
 30
0.0
 40
0.0785
  0
LINE
  5
27B
100
AcDbEntity
  8
0
  6
CONTINUOUS
100
AcDbLine
 10
2.506489
 20
5.781745
 30
0.0
 11
2.842403
 21
5.781745
 31
0.0
  0
LINE
  5
27F
100
AcDbEntity
  8
0
  6
CONTINUOUS
100
AcDbLine
 10
2.752946
 20
5.681745
 30
0.0
 11
2.752946
 21
5.887544
 31
0.0
  0
LINE
  5
280
100
AcDbEntity
  8
0
  6
CONTINUOUS
100
AcDbLine
 10
2.595946
 20
5.681745
 30
0.0
 11
2.595946
 21
5.887544
 31
0.0
  0
LINE
  5
281
100
AcDbEntity
  8
0
  6
CONTINUOUS
100
AcDbLine
 10
2.595946
 20
5.887544
 30
0.0
 11
2.752946
 21
5.887544
 31
0.0
  0
ARC
  5
282
100
AcDbEntity
  8
0
  6
CONTINUOUS
100
AcDbCircle
 10
2.069383
 20
5.733506
 30
0.0
 40
0.774524
100
AcDbArc
 50
356.168148
 51
21.205481
  0
ARC
  5
283
100
AcDbEntity
  8
0
  6
CONTINUOUS
100
AcDbCircle
 10
3.279509
 20
5.733506
 30
0.0
 40
0.774524
100
AcDbArc
 50
158.914238
 51
183.831852
  0
LINE
  5
286
100
AcDbEntity
  8
0
  6
CONTINUOUS
100
AcDbLine
 10
2.504987
 20
5.731745
 30
0.0
 11
2.843905
 21
5.731745
 31
0.0
  0
LINE
  5
28C
100
AcDbEntity
  8
0
  6
CONTINUOUS
100
AcDbLine
 10
5.674898
 20
5.606745
 30
0.0
 11
5.674898
 21
5.731745
 31
0.0
  0
LINE
  5
28D
100
AcDbEntity
  8
0
  6
CONTINUOUS
100
AcDbLine
 10
-0.325791
 20
5.731745
 30
0.0
 11
5.674898
 21
5.731745
 31
0.0
  0
LINE
  5
28E
100
AcDbEntity
  8
0
  6
CONTINUOUS
100
AcDbLine
 10
-0.325791
 20
5.606745
 30
0.0
 11
5.674898
 21
5.606745
 31
0.0
  0
LINE
  5
28F
100
AcDbEntity
  8
0
  6
CONTINUOUS
100
AcDbLine
 10
-0.325791
 20
5.606745
 30
0.0
 11
-0.325791
 21
5.731745
 31
0.0
  0
LINE
  5
290
100
AcDbEntity
  8
0
  6
CONTINUOUS
100
AcDbLine
 10
5.560187
 20
5.731745
 30
0.0
 11
5.560187
 21
6.094743
 31
0.0
  0
LINE
  5
291
100
AcDbEntity
  8
0
  6
CONTINUOUS
100
AcDbLine
 10
5.204187
 20
6.094743
 30
0.0
 11
5.560187
 21
6.094743
 31
0.0
  0
LINE
  5
293
100
AcDbEntity
  8
0
  6
CONTINUOUS
100
AcDbLine
 10
5.204187
 20
5.731745
 30
0.0
 11
5.204187
 21
6.094743
 31
0.0
  0
LINE
  5
294
100
AcDbEntity
  8
0
  6
CONTINUOUS
100
AcDbLine
 10
2.674432
 20
5.969745
 30
0.0
 11
2.674432
 21
6.480549
 31
0.0
  0
LINE
  5
295
100
AcDbEntity
  8
0
  6
CONTINUOUS
100
AcDbLine
 10
5.204187
 20
6.048245
 30
0.0
 11
5.560187
 21
6.048245
 31
0.0
  0
LINE
  5
296
100
AcDbEntity
  8
0
  6
CONTINUOUS
100
AcDbLine
 10
5.204187
 20
5.891245
 30
0.0
 11
5.560187
 21
5.891245
 31
0.0
  0
LINE
  5
2A7
100
AcDbEntity
  8
0
  6
CONTINUOUS
100
AcDbLine
 10
5.293687
 20
5.891245
 30
0.0
 11
5.450687
 21
5.891245
 31
0.0
  0
LINE
  5
2A8
100
AcDbEntity
  8
0
  6
CONTINUOUS
100
AcDbLine
 10
5.450687
 20
5.735446
 30
0.0
 11
5.450687
 21
5.891245
 31
0.0
  0
LINE
  5
2A9
100
AcDbEntity
  8
0
  6
CONTINUOUS
100
AcDbLine
 10
5.293687
 20
5.735446
 30
0.0
 11
5.293687
 21
5.891245
 31
0.0
  0
LINE
  5
2AB
100
AcDbEntity
  8
0
  6
CONTINUOUS
 62
     3
100
AcDbLine
 10
8.138688
 20
2.647827
 30
0.0
 11
17.292713
 21
2.647827
 31
0.0
  0
LINE
  5
2AC
100
AcDbEntity
  8
0
  6
CONTINUOUS
 62
     3
100
AcDbLine
 10
8.138688
 20
1.647827
 30
0.0
 11
17.292713
 21
1.647827
 31
0.0
  0
LINE
  5
2AE
100
AcDbEntity
  8
0
  6
CONTINUOUS
100
AcDbLine
 10
9.977464
 20
5.731745
 30
0.0
 11
14.977464
 21
5.731745
 31
0.0
  0
INSERT
  5
2B6
100
AcDbEntity
  8
0
  6
CONTINUOUS
100
AcDbBlockReference
  2
A$C1B3843B4
 10
12.977485
 20
-1.719496
 30
0.0
 50
60.0
  0
INSERT
  5
2B7
100
AcDbEntity
  8
0
  6
CONTINUOUS
100
AcDbBlockReference
  2
A$C1B3843B4
 10
9.378274
 20
-0.218865
 30
0.0
  0
CIRCLE
  5
2C2
100
AcDbEntity
  8
0
  6
CONTINUOUS
100
AcDbCircle
 10
11.454723
 20
1.557266
 30
0.0
 40
0.118
  0
CIRCLE
  5
2C4
100
AcDbEntity
  8
0
  6
CONTINUOUS
100
AcDbCircle
 10
11.454688
 20
2.738327
 30
0.0
 40
0.118
  0
CIRCLE
  5
2C5
100
AcDbEntity
  8
0
  6
CONTINUOUS
100
AcDbCircle
 10
11.198778
 20
2.886077
 30
0.0
 40
0.1565
  0
CIRCLE
  5
2C9
100
AcDbEntity
  8
0
  6
CONTINUOUS
100
AcDbCircle
 10
11.198778
 20
1.409577
 30
0.0
 40
0.1565
  0
ARC
  5
2CB
100
AcDbEntity
  8
0
  6
CONTINUOUS
100
AcDbCircle
 10
11.907016
 20
1.160862
 30
0.0
 40
1.358727
100
AcDbArc
 50
218.798397
 51
261.253392
  0
ARC
  5
2D9
100
AcDbEntity
  8
0
  6
CONTINUOUS
100
AcDbCircle
 10
11.495612
 20
6.220392
 30
0.0
 40
3.594892
100
AcDbArc
 50
297.917035
 51
306.451107
  0
CIRCLE
  5
2DA
100
AcDbEntity
  8
0
  6
CONTINUOUS
100
AcDbCircle
 10
12.477464
 20
3.624327
 30
0.0
 40
0.1565
  0
ARC
  5
2DB
100
AcDbEntity
  8
0
  6
CONTINUOUS
100
AcDbCircle
 10
16.495335
 20
3.333801
 30
0.0
 40
3.594892
100
AcDbArc
 50
173.555336
 51
182.082965
  0
CIRCLE
  5
2E5
100
AcDbEntity
  8
0
  6
CONTINUOUS
100
AcDbCircle
 10
13.500275
 20
1.557388
 30
0.0
 40
0.118
  0
CIRCLE
  5
2E7
100
AcDbEntity
  8
0
  6
CONTINUOUS
100
AcDbCircle
 10
12.477394
 20
3.328827
 30
0.0
 40
0.118
  0
CIRCLE
  5
2E9
100
AcDbEntity
  8
0
  6
CONTINUOUS
100
AcDbCircle
 10
12.477464
 20
0.966827
 30
0.0
 40
0.118
  0
CIRCLE
  5
2EA
100
AcDbEntity
  8
0
  6
CONTINUOUS
100
AcDbCircle
 10
13.50024
 20
2.738327
 30
0.0
 40
0.118
  0
ARC
  5
2EB
100
AcDbEntity
  8
0
  6
CONTINUOUS
100
AcDbCircle
 10
12.477464
 20
3.132327
 30
0.0
 40
0.118
100
AcDbArc
 50
0.0
 51
180.0
  0
CIRCLE
  5
2EC
100
AcDbEntity
  8
0
  6
CONTINUOUS
100
AcDbCircle
 10
13.756151
 20
2.886077
 30
0.0
 40
0.1565
  0
CIRCLE
  5
2EE
100
AcDbEntity
  8
0
  6
CONTINUOUS
100
AcDbCircle
 10
13.756151
 20
1.409577
 30
0.0
 40
0.1565
  0
CIRCLE
  5
2F1
100
AcDbEntity
  8
0
  6
CONTINUOUS
100
AcDbCircle
 10
12.477464
 20
0.671327
 30
0.0
 40
0.1565
  0
CIRCLE
  5
2F2
100
AcDbEntity
  8
LAYER_1
 62
     7
100
AcDbCircle
 10
12.477464
 20
2.147827
 30
0.0
 40
0.500056
  0
ARC
  5
2F3
100
AcDbEntity
  8
0
  6
CONTINUOUS
100
AcDbCircle
 10
13.090694
 20
3.209972
 30
0.0
 40
0.188
100
AcDbArc
 50
182.082965
 51
297.917035
  0
CIRCLE
  5
300
100
AcDbEntity
  8
0
  6
CONTINUOUS
100
AcDbCircle
 10
12.47737
 20
6.006745
 30
0.0
 40
0.0785
  0
LINE
  5
301
100
AcDbEntity
  8
0
  6
CONTINUOUS
100
AcDbLine
 10
12.398884
 20
5.924544
 30
0.0
 11
12.555884
 21
5.924544
 31
0.0
  0
LINE
  5
307
100
AcDbEntity
  8
0
  6
CONTINUOUS
100
AcDbLine
 10
12.555884
 20
5.681745
 30
0.0
 11
12.555884
 21
5.924544
 31
0.0
  0
LINE
  5
308
100
AcDbEntity
  8
0
  6
CONTINUOUS
100
AcDbLine
 10
12.398884
 20
5.681745
 30
0.0
 11
12.398884
 21
5.924544
 31
0.0
  0
LINE
  5
316
100
AcDbEntity
  8
0
  6
CONTINUOUS
100
AcDbLine
 10
14.466253
 20
5.681745
 30
0.0
 11
14.466253
 21
5.929746
 31
0.0
  0
LINE
  5
317
100
AcDbEntity
  8
0
  6
CONTINUOUS
100
AcDbLine
 10
14.623253
 20
5.681745
 30
0.0
 11
14.623253
 21
5.929746
 31
0.0
  0
LINE
  5
318
100
AcDbEntity
  8
0
  6
CONTINUOUS
100
AcDbLine
 10
14.466253
 20
5.929746
 30
0.0
 11
14.623253
 21
5.929746
 31
0.0
  0
LINE
  5
319
100
AcDbEntity
  8
0
  6
CONTINUOUS
100
AcDbLine
 10
14.412753
 20
5.929746
 30
0.0
 11
14.862753
 21
5.929746
 31
0.0
  0
LINE
  5
31A
100
AcDbEntity
  8
0
  6
CONTINUOUS
100
AcDbLine
 10
14.412753
 20
6.086746
 30
0.0
 11
14.862753
 21
6.086746
 31
0.0
  0
LINE
  5
31B
100
AcDbEntity
  8
0
  6
CONTINUOUS
100
AcDbLine
 10
14.412753
 20
6.162745
 30
0.0
 11
14.862753
 21
6.162745
 31
0.0
  0
LINE
  5
31D
100
AcDbEntity
  8
0
  6
CONTINUOUS
100
AcDbLine
 10
14.862753
 20
5.681745
 30
0.0
 11
14.862753
 21
6.162745
 31
0.0
  0
LINE
  5
31E
100
AcDbEntity
  8
0
  6
CONTINUOUS
 62
    30
100
AcDbLine
 10
14.977464
 20
5.606745
 30
0.0
 11
14.977464
 21
6.162745
 31
0.0
  0
CIRCLE
  5
31F
100
AcDbEntity
  8
0
  6
CONTINUOUS
100
AcDbCircle
 10
12.477464
 20
2.147827
 30
0.0
 40
2.5
  0
CIRCLE
  5
320
100
AcDbEntity
  8
0
  6
CONTINUOUS
100
AcDbCircle
 10
12.477464
 20
2.147827
 30
0.0
 40
2.465
  0
CIRCLE
  5
321
100
AcDbEntity
  8
0
  6
CONTINUOUS
100
AcDbCircle
 10
12.477464
 20
2.147827
 30
0.0
 40
2.39
  0
ARC
  5
323
100
AcDbEntity
  8
0
  6
CONTINUOUS
100
AcDbCircle
 10
13.001451
 20
3.054313
 30
0.0
 40
0.858727
100
AcDbArc
 50
39.396257
 51
80.688822
  0
LINE
  5
3B5
100
AcDbEntity
  8
0
  6
CONTINUOUS
100
AcDbLine
 10
9.977464
 20
5.606745
 30
0.0
 11
9.977464
 21
5.731745
 31
0.0
  0
ARC
  5
3C7
100
AcDbEntity
  8
0
  6
CONTINUOUS
100
AcDbCircle
 10
12.477464
 20
3.092827
 30
0.0
 40
0.118
100
AcDbArc
 50
180.0
 51
0.0
  0
LINE
  5
3C8
100
AcDbEntity
  8
0
  6
CONTINUOUS
100
AcDbLine
 10
12.595464
 20
3.092827
 30
0.0
 11
12.595464
 21
3.132327
 31
0.0
  0
LINE
  5
3C9
100
AcDbEntity
  8
0
  6
CONTINUOUS
100
AcDbLine
 10
12.359464
 20
3.092827
 30
0.0
 11
12.359464
 21
3.132327
 31
0.0
  0
ARC
  5
3CA
100
AcDbEntity
  8
0
  6
CONTINUOUS
100
AcDbCircle
 10
11.65907
 20
2.620327
 30
0.0
 40
0.118
100
AcDbArc
 50
240.0
 51
60.0
  0
ARC
  5
3CB
100
AcDbEntity
  8
0
  6
CONTINUOUS
100
AcDbCircle
 10
11.624862
 20
2.640077
 30
0.0
 40
0.118
100
AcDbArc
 50
60.0
 51
240.0
  0
LINE
  5
3CC
100
AcDbEntity
  8
0
  6
CONTINUOUS
100
AcDbLine
 10
11.60007
 20
2.518136
 30
0.0
 11
11.565862
 21
2.537886
 31
0.0
  0
LINE
  5
3CD
100
AcDbEntity
  8
0
  6
CONTINUOUS
100
AcDbLine
 10
11.71807
 20
2.722518
 30
0.0
 11
11.683862
 21
2.742268
 31
0.0
  0
ARC
  5
3CE
100
AcDbEntity
  8
0
  6
CONTINUOUS
100
AcDbCircle
 10
11.65907
 20
1.675327
 30
0.0
 40
0.118
100
AcDbArc
 50
300.0
 51
120.0
  0
ARC
  5
3CF
100
AcDbEntity
  8
0
  6
CONTINUOUS
100
AcDbCircle
 10
11.624862
 20
1.655577
 30
0.0
 40
0.118
100
AcDbArc
 50
120.0
 51
300.0
  0
LINE
  5
3D0
100
AcDbEntity
  8
0
  6
CONTINUOUS
100
AcDbLine
 10
11.71807
 20
1.573136
 30
0.0
 11
11.683862
 21
1.553386
 31
0.0
  0
LINE
  5
3D1
100
AcDbEntity
  8
0
  6
CONTINUOUS
100
AcDbLine
 10
11.60007
 20
1.777518
 30
0.0
 11
11.565862
 21
1.757768
 31
0.0
  0
ARC
  5
3D2
100
AcDbEntity
  8
0
  6
CONTINUOUS
100
AcDbCircle
 10
12.477464
 20
1.202827
 30
0.0
 40
0.118
100
AcDbArc
 50
0.0
 51
180.0
  0
ARC
  5
3D3
100
AcDbEntity
  8
0
  6
CONTINUOUS
100
AcDbCircle
 10
12.477464
 20
1.163327
 30
0.0
 40
0.118
100
AcDbArc
 50
180.0
 51
0.0
  0
LINE
  5
3D4
100
AcDbEntity
  8
0
  6
CONTINUOUS
100
AcDbLine
 10
12.595464
 20
1.202827
 30
0.0
 11
12.595464
 21
1.163327
 31
0.0
  0
LINE
  5
3D5
100
AcDbEntity
  8
0
  6
CONTINUOUS
100
AcDbLine
 10
12.359464
 20
1.202827
 30
0.0
 11
12.359464
 21
1.163327
 31
0.0
  0
ARC
  5
3D6
100
AcDbEntity
  8
0
  6
CONTINUOUS
100
AcDbCircle
 10
13.295858
 20
1.675327
 30
0.0
 40
0.118
100
AcDbArc
 50
60.0
 51
240.0
  0
ARC
  5
3D7
100
AcDbEntity
  8
0
  6
CONTINUOUS
100
AcDbCircle
 10
13.330066
 20
1.655577
 30
0.0
 40
0.118
100
AcDbArc
 50
240.0
 51
60.0
  0
LINE
  5
3D8
100
AcDbEntity
  8
0
  6
CONTINUOUS
100
AcDbLine
 10
13.354858
 20
1.777518
 30
0.0
 11
13.389066
 21
1.757768
 31
0.0
  0
LINE
  5
3D9
100
AcDbEntity
  8
0
  6
CONTINUOUS
100
AcDbLine
 10
13.236858
 20
1.573136
 30
0.0
 11
13.271066
 21
1.553386
 31
0.0
  0
ARC
  5
3DA
100
AcDbEntity
  8
0
  6
CONTINUOUS
100
AcDbCircle
 10
13.295858
 20
2.620327
 30
0.0
 40
0.118
100
AcDbArc
 50
120.0
 51
300.0
  0
ARC
  5
3DB
100
AcDbEntity
  8
0
  6
CONTINUOUS
100
AcDbCircle
 10
13.330066
 20
2.640077
 30
0.0
 40
0.118
100
AcDbArc
 50
300.0
 51
120.0
  0
LINE
  5
3DC
100
AcDbEntity
  8
0
  6
CONTINUOUS
100
AcDbLine
 10
13.236858
 20
2.722518
 30
0.0
 11
13.271066
 21
2.742268
 31
0.0
  0
LINE
  5
3DD
100
AcDbEntity
  8
0
  6
CONTINUOUS
100
AcDbLine
 10
13.354858
 20
2.518136
 30
0.0
 11
13.389066
 21
2.537886
 31
0.0
  0
ARC
  5
3DE
100
AcDbEntity
  8
0
  6
CONTINUOUS
100
AcDbCircle
 10
2.674526
 20
3.092827
 30
0.0
 40
0.118
100
AcDbArc
 50
180.0
 51
0.0
  0
ARC
  5
3DF
100
AcDbEntity
  8
0
  6
CONTINUOUS
100
AcDbCircle
 10
2.674526
 20
3.132327
 30
0.0
 40
0.118
100
AcDbArc
 50
0.0
 51
180.0
  0
LINE
  5
3E0
100
AcDbEntity
  8
0
  6
CONTINUOUS
100
AcDbLine
 10
2.556526
 20
3.092827
 30
0.0
 11
2.556526
 21
3.132327
 31
0.0
  0
LINE
  5
3E1
100
AcDbEntity
  8
0
  6
CONTINUOUS
100
AcDbLine
 10
2.792526
 20
3.092827
 30
0.0
 11
2.792526
 21
3.132327
 31
0.0
  0
LINE
  5
3E2
100
AcDbEntity
  8
0
  6
CONTINUOUS
100
AcDbLine
 10
1.915132
 20
2.722518
 30
0.0
 11
1.880924
 21
2.742268
 31
0.0
  0
LINE
  5
3E3
100
AcDbEntity
  8
0
  6
CONTINUOUS
100
AcDbLine
 10
1.797132
 20
2.518136
 30
0.0
 11
1.762924
 21
2.537886
 31
0.0
  0
ARC
  5
3E4
100
AcDbEntity
  8
0
  6
CONTINUOUS
100
AcDbCircle
 10
1.821924
 20
2.640077
 30
0.0
 40
0.118
100
AcDbArc
 50
60.0
 51
240.0
  0
ARC
  5
3E5
100
AcDbEntity
  8
0
  6
CONTINUOUS
100
AcDbCircle
 10
1.856132
 20
2.620327
 30
0.0
 40
0.118
100
AcDbArc
 50
240.0
 51
60.0
  0
LINE
  5
3E6
100
AcDbEntity
  8
0
  6
CONTINUOUS
100
AcDbLine
 10
1.797132
 20
1.777518
 30
0.0
 11
1.762924
 21
1.757768
 31
0.0
  0
LINE
  5
3E7
100
AcDbEntity
  8
0
  6
CONTINUOUS
100
AcDbLine
 10
1.915132
 20
1.573136
 30
0.0
 11
1.880924
 21
1.553386
 31
0.0
  0
ARC
  5
3E8
100
AcDbEntity
  8
0
  6
CONTINUOUS
100
AcDbCircle
 10
1.821924
 20
1.655577
 30
0.0
 40
0.118
100
AcDbArc
 50
120.0
 51
300.0
  0
ARC
  5
3E9
100
AcDbEntity
  8
0
  6
CONTINUOUS
100
AcDbCircle
 10
1.856132
 20
1.675327
 30
0.0
 40
0.118
100
AcDbArc
 50
300.0
 51
120.0
  0
LINE
  5
3EA
100
AcDbEntity
  8
0
  6
CONTINUOUS
100
AcDbLine
 10
2.556526
 20
1.202827
 30
0.0
 11
2.556526
 21
1.163327
 31
0.0
  0
LINE
  5
3EB
100
AcDbEntity
  8
0
  6
CONTINUOUS
100
AcDbLine
 10
2.792526
 20
1.202827
 30
0.0
 11
2.792526
 21
1.163327
 31
0.0
  0
ARC
  5
3EC
100
AcDbEntity
  8
0
  6
CONTINUOUS
100
AcDbCircle
 10
2.674526
 20
1.163327
 30
0.0
 40
0.118
100
AcDbArc
 50
180.0
 51
0.0
  0
ARC
  5
3ED
100
AcDbEntity
  8
0
  6
CONTINUOUS
100
AcDbCircle
 10
2.674526
 20
1.202827
 30
0.0
 40
0.118
100
AcDbArc
 50
0.0
 51
180.0
  0
LINE
  5
3EE
100
AcDbEntity
  8
0
  6
CONTINUOUS
100
AcDbLine
 10
3.43392
 20
1.573136
 30
0.0
 11
3.468128
 21
1.553386
 31
0.0
  0
LINE
  5
3EF
100
AcDbEntity
  8
0
  6
CONTINUOUS
100
AcDbLine
 10
3.55192
 20
1.777518
 30
0.0
 11
3.586128
 21
1.757768
 31
0.0
  0
ARC
  5
3F0
100
AcDbEntity
  8
0
  6
CONTINUOUS
100
AcDbCircle
 10
3.527128
 20
1.655577
 30
0.0
 40
0.118
100
AcDbArc
 50
240.0
 51
60.0
  0
ARC
  5
3F1
100
AcDbEntity
  8
0
  6
CONTINUOUS
100
AcDbCircle
 10
3.49292
 20
1.675327
 30
0.0
 40
0.118
100
AcDbArc
 50
60.0
 51
240.0
  0
LINE
  5
3F2
100
AcDbEntity
  8
0
  6
CONTINUOUS
100
AcDbLine
 10
3.55192
 20
2.518136
 30
0.0
 11
3.586128
 21
2.537886
 31
0.0
  0
LINE
  5
3F3
100
AcDbEntity
  8
0
  6
CONTINUOUS
100
AcDbLine
 10
3.43392
 20
2.722518
 30
0.0
 11
3.468128
 21
2.742268
 31
0.0
  0
ARC
  5
3F4
100
AcDbEntity
  8
0
  6
CONTINUOUS
100
AcDbCircle
 10
3.527128
 20
2.640077
 30
0.0
 40
0.118
100
AcDbArc
 50
300.0
 51
120.0
  0
ARC
  5
3F5
100
AcDbEntity
  8
0
  6
CONTINUOUS
100
AcDbCircle
 10
3.49292
 20
2.620327
 30
0.0
 40
0.118
100
AcDbArc
 50
120.0
 51
300.0
  0
LINE
  5
3F7
100
AcDbEntity
  8
0
  6
CONTINUOUS
 62
    30
100
AcDbLine
 10
14.227464
 20
5.356745
 30
0.0
 11
15.477464
 21
5.356745
 31
0.0
  0
LINE
  5
3F8
100
AcDbEntity
  8
0
  6
CONTINUOUS
 62
    30
100
AcDbLine
 10
15.477464
 20
5.356745
 30
0.0
 11
15.477464
 21
6.162745
 31
0.0
  0
LINE
  5
3F9
100
AcDbEntity
  8
0
  6
CONTINUOUS
 62
    30
100
AcDbLine
 10
14.227464
 20
5.356745
 30
0.0
 11
14.227464
 21
5.606745
 31
0.0
  0
LINE
  5
3FB
100
AcDbEntity
  8
0
  6
CONTINUOUS
 62
    30
100
AcDbLine
 10
14.977464
 20
6.162745
 30
0.0
 11
15.477464
 21
6.162745
 31
0.0
  0
LINE
  5
3FC
100
AcDbEntity
  8
0
  6
CONTINUOUS
100
AcDbLine
 10
14.977464
 20
5.928245
 30
0.0
 11
15.477464
 21
5.928245
 31
0.0
  0
LINE
  5
3FD
100
AcDbEntity
  8
0
  6
CONTINUOUS
100
AcDbLine
 10
14.977464
 20
6.085245
 30
0.0
 11
15.477464
 21
6.085245
 31
0.0
  0
LINE
  5
3FE
100
AcDbEntity
  8
0
  6
CONTINUOUS
 62
    30
100
AcDbLine
 10
14.466253
 20
5.606745
 30
0.0
 11
14.466253
 21
5.356745
 31
0.0
  0
LINE
  5
414
100
AcDbEntity
  8
0
  6
CONTINUOUS
100
AcDbLine
 10
-0.450474
 20
5.272827
 30
0.0
 11
5.799526
 21
5.272827
 31
0.0
  0
LINE
  5
416
100
AcDbEntity
  8
0
  6
CONTINUOUS
100
AcDbLine
 10
-0.450474
 20
-0.977173
 30
0.0
 11
5.799526
 21
-0.977173
 31
0.0
  0
LINE
  5
417
100
AcDbEntity
  8
0
  6
CONTINUOUS
100
AcDbLine
 10
5.799526
 20
5.272827
 30
0.0
 11
5.799526
 21
-0.977173
 31
0.0
  0
LINE
  5
418
100
AcDbEntity
  8
0
  6
CONTINUOUS
100
AcDbLine
 10
-0.450474
 20
5.272827
 30
0.0
 11
-0.450474
 21
-0.977173
 31
0.0
  0
DIMENSION
  5
426
100
AcDbEntity
  8
0
  6
CONTINUOUS
100
AcDbDimension
  2
*D8
 10
6.462522
 20
-0.977173
 30
0.0
 11
6.462522
 21
2.147827
 31
0.0
 12
-7.116179
 22
-7.047635
 32
0.0
 70
    32
  3
STANDARD
100
AcDbAlignedDimension
 13
5.799526
 23
5.272827
 33
0.0
 14
5.799526
 24
-0.977173
 34
0.0
 50
90.0
100
AcDbRotatedDimension
1001
ACAD
1000
DSTYLE
1002
{
1070
   287
1070
     3
1002
}
  0
DIMENSION
  5
434
100
AcDbEntity
  8
0
  6
CONTINUOUS
100
AcDbDimension
  2
*D9
 10
-0.450474
 20
-1.38566
 30
0.0
 11
2.674526
 21
-1.38566
 31
0.0
 12
-7.116179
 22
-7.047635
 32
0.0
 70
    32
  3
STANDARD
100
AcDbAlignedDimension
 13
5.799526
 23
-0.977173
 33
0.0
 14
-0.450474
 24
-0.977173
 34
0.0
100
AcDbRotatedDimension
1001
ACAD
1000
DSTYLE
1002
{
1070
   287
1070
     3
1002
}
  0
LINE
  5
436
100
AcDbEntity
  8
0
  6
CONTINUOUS
100
AcDbLine
 10
9.852464
 20
-0.477173
 30
0.0
 11
15.102464
 21
-0.477173
 31
0.0
  0
LINE
  5
437
100
AcDbEntity
  8
0
  6
CONTINUOUS
100
AcDbLine
 10
9.852464
 20
4.772827
 30
0.0
 11
15.102464
 21
4.772827
 31
0.0
  0
LINE
  5
438
100
AcDbEntity
  8
0
  6
CONTINUOUS
100
AcDbLine
 10
15.102464
 20
-0.477173
 30
0.0
 11
15.102464
 21
4.772827
 31
0.0
  0
LINE
  5
439
100
AcDbEntity
  8
0
  6
CONTINUOUS
100
AcDbLine
 10
9.852464
 20
-0.477173
 30
0.0
 11
9.852464
 21
4.772827
 31
0.0
  0
DIMENSION
  5
447
100
AcDbEntity
  8
0
  6
CONTINUOUS
100
AcDbDimension
  2
*D10
 10
9.183498
 20
-0.477173
 30
0.0
 11
9.183498
 21
2.147827
 31
0.0
 12
-7.116179
 22
-7.047635
 32
0.0
 70
    32
  3
STANDARD
100
AcDbAlignedDimension
 13
9.852464
 23
4.772827
 33
0.0
 14
9.852464
 24
-0.477173
 34
0.0
 50
90.0
100
AcDbRotatedDimension
1001
ACAD
1000
DSTYLE
1002
{
1070
   287
1070
     3
1002
}
  0
DIMENSION
  5
455
100
AcDbEntity
  8
0
  6
CONTINUOUS
100
AcDbDimension
  2
*D11
 10
15.102464
 20
-1.110917
 30
0.0
 11
12.477464
 21
-1.110917
 31
0.0
 12
-7.116179
 22
-7.047635
 32
0.0
 70
    32
  3
STANDARD
100
AcDbAlignedDimension
 13
9.852464
 23
-0.477173
 33
0.0
 14
15.102464
 24
-0.477173
 34
0.0
100
AcDbRotatedDimension
1001
ACAD
1000
DSTYLE
1002
{
1070
   287
1070
     3
1002
}
  0
LINE
  5
457
100
AcDbEntity
  8
0
  6
CONTINUOUS
100
AcDbLine
 10
2.506717
 20
5.681745
 30
0.0
 11
2.842175
 21
5.681745
 31
0.0
  0
LINE
  5
45C
100
AcDbEntity
  8
0
  6
CONTINUOUS
100
AcDbLine
 10
15.362767
 20
3.922304
 30
0.0
 11
15.362767
 21
3.547304
 31
0.0
  0
LINE
  5
45D
100
AcDbEntity
  8
0
  6
CONTINUOUS
100
AcDbLine
 10
15.362767
 20
3.547304
 30
0.0
 11
15.862767
 21
3.547304
 31
0.0
  0
LINE
  5
45E
100
AcDbEntity
  8
0
  6
CONTINUOUS
100
AcDbLine
 10
15.862767
 20
3.922304
 30
0.0
 11
15.862767
 21
3.534304
 31
0.0
  0
LINE
  5
46B
100
AcDbEntity
  8
0
  6
CONTINUOUS
100
AcDbLine
 10
15.412767
 20
3.835887
 30
0.0
 11
15.412767
 21
3.547304
 31
0.0
  0
LINE
  5
46C
100
AcDbEntity
  8
0
  6
CONTINUOUS
100
AcDbLine
 10
15.569767
 20
3.835887
 30
0.0
 11
15.569767
 21
3.547304
 31
0.0
  0
LINE
  5
46D
100
AcDbEntity
  8
0
  6
CONTINUOUS
100
AcDbLine
 10
15.362767
 20
3.922304
 30
0.0
 11
15.862767
 21
3.922304
 31
0.0
  0
LINE
  5
46E
100
AcDbEntity
  8
0
  6
CONTINUOUS
100
AcDbLine
 10
15.26848
 20
3.597304
 30
0.0
 11
15.362767
 21
3.597304
 31
0.0
  0
LINE
  5
46F
100
AcDbEntity
  8
0
  6
CONTINUOUS
100
AcDbLine
 10
15.26848
 20
3.472304
 30
0.0
 11
16.095125
 21
3.472304
 31
0.0
  0
LINE
  5
470
100
AcDbEntity
  8
0
  6
CONTINUOUS
100
AcDbLine
 10
15.470914
 20
3.872304
 30
0.0
 11
15.862767
 21
3.872304
 31
0.0
  0
LINE
  5
471
100
AcDbEntity
  8
0
  6
CONTINUOUS
100
AcDbLine
 10
15.470914
 20
3.715304
 30
0.0
 11
15.862767
 21
3.715304
 31
0.0
  0
LINE
  5
472
100
AcDbEntity
  8
0
  6
CONTINUOUS
100
AcDbLine
 10
15.862767
 20
3.597304
 30
0.0
 11
16.095125
 21
3.597304
 31
0.0
  0
LINE
  5
473
100
AcDbEntity
  8
0
  6
CONTINUOUS
100
AcDbLine
 10
15.862767
 20
3.534304
 30
0.0
 11
15.925767
 21
3.534304
 31
0.0
  0
LINE
  5
474
100
AcDbEntity
  8
0
  6
CONTINUOUS
100
AcDbLine
 10
15.925767
 20
3.597304
 30
0.0
 11
15.925767
 21
3.534304
 31
0.0
  0
LINE
  5
477
100
AcDbEntity
  8
0
  6
CONTINUOUS
100
AcDbLine
 10
15.569767
 20
3.872304
 30
0.0
 11
15.470914
 21
3.872304
 31
0.0
  0
LINE
  5
478
100
AcDbEntity
  8
0
  6
CONTINUOUS
100
AcDbLine
 10
15.491267
 20
3.872304
 30
0.0
 11
15.412767
 21
3.835887
 31
0.0
  0
LINE
  5
479
100
AcDbEntity
  8
0
  6
CONTINUOUS
100
AcDbLine
 10
15.491267
 20
3.872304
 30
0.0
 11
15.569767
 21
3.835887
 31
0.0
  0
LINE
  5
47B
100
AcDbEntity
  8
0
  6
CONTINUOUS
100
AcDbLine
 10
15.42809
 20
3.793804
 30
0.0
 11
15.470914
 21
3.872304
 31
0.0
  0
LINE
  5
47C
100
AcDbEntity
  8
0
  6
CONTINUOUS
100
AcDbLine
 10
15.42809
 20
3.793804
 30
0.0
 11
15.470914
 21
3.715304
 31
0.0
  0
LWPOLYLINE
  5
47D
100
AcDbEntity
  8
0
  6
CONTINUOUS
100
AcDbPolyline
 90
        4
 70
     1
 43
0.0
 10
15.142953
 20
3.19957
 10
15.892953
 20
3.19957
 10
15.892953
 20
3.94957
 10
15.142953
 20
3.94957
  0
LINE
  5
48A
100
AcDbEntity
  8
0
  6
CONTINUOUS
100
AcDbLine
 10
12.307923
 20
5.681745
 30
0.0
 11
12.646845
 21
5.681745
 31
0.0
  0
LINE
  5
48C
100
AcDbEntity
  8
0
  6
CONTINUOUS
100
AcDbLine
 10
12.646845
 20
5.902843
 30
0.0
 11
12.646845
 21
5.681745
 31
0.0
  0
ARC
  5
49D
100
AcDbEntity
  8
0
  6
CONTINUOUS
 62
    30
100
AcDbCircle
 10
11.79917
 20
6.856794
 30
0.0
 40
0.094
100
AcDbArc
 50
180.0
 51
211.553206
  0
LINE
  5
49E
100
AcDbEntity
  8
0
  6
CONTINUOUS
 62
    30
100
AcDbLine
 10
11.70517
 20
7.146527
 30
0.0
 11
11.70517
 21
6.856794
 31
0.0
  0
LINE
  5
49F
100
AcDbEntity
  8
0
  6
CONTINUOUS
 62
    30
100
AcDbLine
 10
11.756064
 20
6.747358
 30
0.0
 11
11.719068
 21
6.807605
 31
0.0
  0
ARC
  5
4A0
100
AcDbEntity
  8
0
  6
CONTINUOUS
 62
    30
100
AcDbCircle
 10
11.836166
 20
6.796548
 30
0.0
 40
0.094
100
AcDbArc
 50
211.553206
 51
270.0
  0
LINE
  5
4A1
100
AcDbEntity
  8
0
  6
CONTINUOUS
 62
    30
100
AcDbLine
 10
11.836166
 20
6.702548
 30
0.0
 11
11.913257
 21
6.702548
 31
0.0
  0
ARC
  5
4A2
100
AcDbEntity
  8
0
  6
CONTINUOUS
 62
    30
100
AcDbCircle
 10
11.913257
 20
6.796548
 30
0.0
 40
0.094
100
AcDbArc
 50
270.0
 51
328.446794
  0
LINE
  5
4A3
100
AcDbEntity
  8
0
  6
CONTINUOUS
 62
    30
100
AcDbLine
 10
11.993359
 20
6.747358
 30
0.0
 11
12.030195
 21
6.807343
 31
0.0
  0
ARC
  5
4A4
100
AcDbEntity
  8
0
  6
CONTINUOUS
 62
    30
100
AcDbCircle
 10
11.950092
 20
6.856533
 30
0.0
 40
0.094
100
AcDbArc
 50
328.446794
 51
0.0
  0
LINE
  5
4A5
100
AcDbEntity
  8
0
  6
CONTINUOUS
 62
    30
100
AcDbLine
 10
12.044092
 20
7.146538
 30
0.0
 11
12.044092
 21
6.856533
 31
0.0
  0
LINE
  5
4A6
100
AcDbEntity
  8
0
  6
CONTINUOUS
 62
     3
100
AcDbLine
 10
11.796145
 20
6.874666
 30
0.0
 11
11.796136
 21
7.151256
 31
0.0
  0
LINE
  5
4A7
100
AcDbEntity
  8
0
  6
CONTINUOUS
 62
     3
100
AcDbLine
 10
11.953145
 20
6.874671
 30
0.0
 11
11.953136
 21
7.151261
 31
0.0
  0
CIRCLE
  5
4A8
100
AcDbEntity
  8
0
  6
CONTINUOUS
100
AcDbCircle
 10
11.874646
 20
6.83401
 30
0.0
 40
0.0785
  0
LINE
  5
4A9
100
AcDbEntity
  8
0
  6
CONTINUOUS
 62
     3
100
AcDbLine
 10
11.953145
 20
6.874671
 30
0.0
 11
11.874646
 21
6.83401
 31
0.0
  0
LINE
  5
4AA
100
AcDbEntity
  8
0
  6
CONTINUOUS
 62
     3
100
AcDbLine
 10
11.796145
 20
6.874666
 30
0.0
 11
11.874646
 21
6.83401
 31
0.0
  0
LINE
  5
4AB
100
AcDbEntity
  8
0
  6
CONTINUOUS
 62
     3
100
AcDbLine
 10
11.796145
 20
6.874666
 30
0.0
 11
11.953145
 21
6.874671
 31
0.0
  0
ARC
  5
4AC
100
AcDbEntity
  8
0
  6
CONTINUOUS
 62
    30
100
AcDbCircle
 10
11.874712
 20
4.762548
 30
0.0
 40
2.39
100
AcDbArc
 50
85.93601
 51
94.067847
  0
LINE
  5
4AD
100
AcDbEntity
  8
0
  6
CONTINUOUS
100
AcDbLine
 10
11.658195
 20
7.179551
 30
0.0
 11
18.058195
 21
7.179551
 31
0.0
  0
LINE
  5
4AF
100
AcDbEntity
  8
0
  6
CONTINUOUS
100
AcDbLine
 10
11.658195
 20
6.554551
 30
0.0
 11
18.058195
 21
6.554551
 31
0.0
  0
INSERT
  5
4C4
100
AcDbEntity
  8
0
  6
CONTINUOUS
100
AcDbBlockReference
  2
A$C693200E8
 10
12.308004
 20
4.087827
 30
0.0
  0
ARC
  5
4C7
100
AcDbEntity
  8
0
  6
CONTINUOUS
100
AcDbCircle
 10
13.109972
 20
3.716203
 30
0.0
 40
0.188
100
AcDbArc
 50
80.688822
 51
173.555336
  0
ARC
  5
4C8
100
AcDbEntity
  8
0
  6
CONTINUOUS
100
AcDbCircle
 10
13.519772
 20
3.48001
 30
0.0
 40
0.188
100
AcDbArc
 50
306.451107
 51
39.396257
  0
ARC
  5
4C9
100
AcDbEntity
  8
0
  6
CONTINUOUS
100
AcDbCircle
 10
11.844914
 20
3.716583
 30
0.0
 40
0.188
100
AcDbArc
 50
6.451107
 51
99.396257
  0
ARC
  5
4CA
100
AcDbEntity
  8
0
  6
CONTINUOUS
100
AcDbCircle
 10
13.459316
 20
6.220392
 30
0.0
 40
3.594892
100
AcDbArc
 50
233.555336
 51
242.082965
  0
ARC
  5
4CB
100
AcDbEntity
  8
0
  6
CONTINUOUS
100
AcDbCircle
 10
8.459594
 20
3.333801
 30
0.0
 40
3.594892
100
AcDbArc
 50
357.917035
 51
6.451107
  0
ARC
  5
4CC
100
AcDbEntity
  8
0
  6
CONTINUOUS
100
AcDbCircle
 10
11.864235
 20
3.209972
 30
0.0
 40
0.188
100
AcDbArc
 50
242.082965
 51
357.917035
  0
ARC
  5
4CD
100
AcDbEntity
  8
0
  6
CONTINUOUS
100
AcDbCircle
 10
11.954418
 20
3.054856
 30
0.0
 40
0.858727
100
AcDbArc
 50
99.396257
 51
140.688822
  0
ARC
  5
4CE
100
AcDbEntity
  8
0
  6
CONTINUOUS
100
AcDbCircle
 10
11.435465
 20
3.479783
 30
0.0
 40
0.188
100
AcDbArc
 50
140.688822
 51
233.555336
  0
ARC
  5
4CF
100
AcDbEntity
  8
0
  6
CONTINUOUS
100
AcDbCircle
 10
10.802606
 20
2.3844
 30
0.0
 40
0.188
100
AcDbArc
 50
66.451107
 51
159.396257
  0
ARC
  5
4D0
100
AcDbEntity
  8
0
  6
CONTINUOUS
100
AcDbCircle
 10
9.441446
 20
5.034418
 30
0.0
 40
3.594892
100
AcDbArc
 50
293.555336
 51
302.082965
  0
ARC
  5
4D1
100
AcDbEntity
  8
0
  6
CONTINUOUS
100
AcDbCircle
 10
9.441446
 20
-0.738764
 30
0.0
 40
3.594892
100
AcDbArc
 50
57.917035
 51
66.451107
  0
ARC
  5
4D2
100
AcDbEntity
  8
0
  6
CONTINUOUS
100
AcDbCircle
 10
11.251005
 20
2.147827
 30
0.0
 40
0.188
100
AcDbArc
 50
302.082965
 51
57.917035
  0
ARC
  5
4D3
100
AcDbEntity
  8
0
  6
CONTINUOUS
100
AcDbCircle
 10
11.430431
 20
2.14837
 30
0.0
 40
0.858727
100
AcDbArc
 50
159.396257
 51
200.688822
  0
ARC
  5
4D4
100
AcDbEntity
  8
0
  6
CONTINUOUS
100
AcDbCircle
 10
10.802957
 20
1.911407
 30
0.0
 40
0.188
100
AcDbArc
 50
200.688822
 51
293.555336
  0
ARC
  5
4D5
100
AcDbEntity
  8
0
  6
CONTINUOUS
100
AcDbCircle
 10
11.435157
 20
0.815644
 30
0.0
 40
0.188
100
AcDbArc
 50
126.451107
 51
219.396257
  0
ARC
  5
4D6
100
AcDbEntity
  8
0
  6
CONTINUOUS
100
AcDbCircle
 10
8.459594
 20
0.961853
 30
0.0
 40
3.594892
100
AcDbArc
 50
353.555336
 51
2.082965
  0
ARC
  5
4D7
100
AcDbEntity
  8
0
  6
CONTINUOUS
100
AcDbCircle
 10
13.459316
 20
-1.924738
 30
0.0
 40
3.594892
100
AcDbArc
 50
117.917035
 51
126.451107
  0
ARC
  5
4D8
100
AcDbEntity
  8
0
  6
CONTINUOUS
100
AcDbCircle
 10
11.864235
 20
1.085682
 30
0.0
 40
0.188
100
AcDbArc
 50
2.082965
 51
117.917035
  0
ARC
  5
4D9
100
AcDbEntity
  8
0
  6
CONTINUOUS
100
AcDbCircle
 10
11.953478
 20
1.241341
 30
0.0
 40
0.858727
100
AcDbArc
 50
219.396257
 51
260.688822
  0
ARC
  5
4DA
100
AcDbEntity
  8
0
  6
CONTINUOUS
100
AcDbCircle
 10
11.844957
 20
0.579452
 30
0.0
 40
0.188
100
AcDbArc
 50
260.688822
 51
353.555336
  0
ARC
  5
4DB
100
AcDbEntity
  8
0
  6
CONTINUOUS
100
AcDbCircle
 10
13.110015
 20
0.579071
 30
0.0
 40
0.188
100
AcDbArc
 50
186.451107
 51
279.396257
  0
ARC
  5
4DC
100
AcDbEntity
  8
0
  6
CONTINUOUS
100
AcDbCircle
 10
11.495612
 20
-1.924738
 30
0.0
 40
3.594892
100
AcDbArc
 50
53.555336
 51
62.082965
  0
ARC
  5
4DD
100
AcDbEntity
  8
0
  6
CONTINUOUS
100
AcDbCircle
 10
16.495335
 20
0.961853
 30
0.0
 40
3.594892
100
AcDbArc
 50
177.917035
 51
186.451107
  0
ARC
  5
4DE
100
AcDbEntity
  8
0
  6
CONTINUOUS
100
AcDbCircle
 10
13.090694
 20
1.085682
 30
0.0
 40
0.188
100
AcDbArc
 50
62.082965
 51
177.917035
  0
ARC
  5
4DF
100
AcDbEntity
  8
0
  6
CONTINUOUS
100
AcDbCircle
 10
13.000511
 20
1.240798
 30
0.0
 40
0.858727
100
AcDbArc
 50
279.396257
 51
320.688822
  0
ARC
  5
4E0
100
AcDbEntity
  8
0
  6
CONTINUOUS
100
AcDbCircle
 10
13.519463
 20
0.815872
 30
0.0
 40
0.188
100
AcDbArc
 50
320.688822
 51
53.555336
  0
ARC
  5
4E1
100
AcDbEntity
  8
0
  6
CONTINUOUS
100
AcDbCircle
 10
14.152322
 20
1.911254
 30
0.0
 40
0.188
100
AcDbArc
 50
246.451107
 51
339.396257
  0
ARC
  5
4E2
100
AcDbEntity
  8
0
  6
CONTINUOUS
100
AcDbCircle
 10
15.513483
 20
-0.738764
 30
0.0
 40
3.594892
100
AcDbArc
 50
113.555336
 51
122.082965
  0
ARC
  5
4E3
100
AcDbEntity
  8
0
  6
CONTINUOUS
100
AcDbCircle
 10
15.513483
 20
5.034418
 30
0.0
 40
3.594892
100
AcDbArc
 50
237.917035
 51
246.451107
  0
ARC
  5
4E4
100
AcDbEntity
  8
0
  6
CONTINUOUS
100
AcDbCircle
 10
13.703924
 20
2.147827
 30
0.0
 40
0.188
100
AcDbArc
 50
122.082965
 51
237.917035
  0
ARC
  5
4E5
100
AcDbEntity
  8
0
  6
CONTINUOUS
100
AcDbCircle
 10
13.524497
 20
2.147285
 30
0.0
 40
0.858727
100
AcDbArc
 50
339.396257
 51
20.688822
  0
ARC
  5
4E6
100
AcDbEntity
  8
0
  6
CONTINUOUS
100
AcDbCircle
 10
14.151971
 20
2.384247
 30
0.0
 40
0.188
100
AcDbArc
 50
20.688822
 51
113.555336
  0
INSERT
  5
4E7
100
AcDbEntity
  8
0
  6
CONTINUOUS
100
AcDbBlockReference
  2
A$C693200E8
 10
11.360707
 20
3.743186
 30
0.0
 50
30.0
  0
INSERT
  5
4E8
100
AcDbEntity
  8
0
  6
CONTINUOUS
100
AcDbBlockReference
  2
A$C693200E8
 10
10.712645
 20
2.97107
 30
0.0
 50
60.0
  0
INSERT
  5
4E9
100
AcDbEntity
  8
0
  6
CONTINUOUS
100
AcDbBlockReference
  2
A$C693200E8
 10
10.537464
 20
1.978366
 30
0.0
 50
90.0
  0
INSERT
  5
4EA
100
AcDbEntity
  8
0
  6
CONTINUOUS
100
AcDbBlockReference
  2
A$C693200E8
 10
10.882106
 20
1.03107
 30
0.0
 50
120.0
  0
INSERT
  5
4EB
100
AcDbEntity
  8
0
  6
CONTINUOUS
100
AcDbBlockReference
  2
A$C693200E8
 10
11.654222
 20
0.383008
 30
0.0
 50
150.0
  0
INSERT
  5
4EC
100
AcDbEntity
  8
0
  6
CONTINUOUS
100
AcDbBlockReference
  2
A$C693200E8
 10
12.646925
 20
0.207827
 30
0.0
 50
180.0
  0
INSERT
  5
4ED
100
AcDbEntity
  8
0
  6
CONTINUOUS
100
AcDbBlockReference
  2
A$C693200E8
 10
13.594221
 20
0.552468
 30
0.0
 50
210.0
  0
INSERT
  5
4EE
100
AcDbEntity
  8
0
  6
CONTINUOUS
100
AcDbBlockReference
  2
A$C693200E8
 10
14.242284
 20
1.324584
 30
0.0
 50
240.0
  0
INSERT
  5
4EF
100
AcDbEntity
  8
0
  6
CONTINUOUS
100
AcDbBlockReference
  2
A$C693200E8
 10
14.417464
 20
2.317288
 30
0.0
 50
270.0
  0
INSERT
  5
4F0
100
AcDbEntity
  8
0
  6
CONTINUOUS
100
AcDbBlockReference
  2
A$C693200E8
 10
14.072823
 20
3.264584
 30
0.0
 50
300.0
  0
INSERT
  5
4F1
100
AcDbEntity
  8
0
  6
CONTINUOUS
100
AcDbBlockReference
  2
A$C693200E8
 10
13.300707
 20
3.912647
 30
0.0
 50
330.0
  0
ARC
  5
4F6
100
AcDbEntity
  8
0
  6
CONTINUOUS
100
AcDbCircle
 10
3.389486
 20
4.169082
 30
0.0
 40
0.188
100
AcDbArc
 50
79.562369
 51
165.807894
  0
ARC
  5
4F7
100
AcDbEntity
  8
0
  6
CONTINUOUS
100
AcDbCircle
 10
4.067765
 20
3.777882
 30
0.0
 40
0.188
100
AcDbArc
 50
314.198236
 51
40.488955
  0
ARC
  5
4F8
100
AcDbEntity
  8
0
  6
CONTINUOUS
100
AcDbCircle
 10
3.656378
 20
6.220392
 30
0.0
 40
3.594892
100
AcDbArc
 50
225.807894
 51
242.082965
  0
ARC
  5
4F9
100
AcDbEntity
  8
0
  6
CONTINUOUS
100
AcDbCircle
 10
2.172603
 20
3.018271
 30
0.0
 40
1.358727
100
AcDbArc
 50
100.488955
 51
139.562369
  0
ARC
  5
4FA
100
AcDbEntity
  8
0
  6
CONTINUOUS
100
AcDbCircle
 10
1.281549
 20
3.777628
 30
0.0
 40
0.188
100
AcDbArc
 50
139.562369
 51
225.807894
  0
ARC
  5
4FB
100
AcDbEntity
  8
0
  6
CONTINUOUS
100
AcDbCircle
 10
-1.343344
 20
3.333801
 30
0.0
 40
3.594892
100
AcDbArc
 50
357.917035
 51
14.198236
  0
ARC
  5
4FC
100
AcDbEntity
  8
0
  6
CONTINUOUS
100
AcDbCircle
 10
1.959477
 20
4.169435
 30
0.0
 40
0.188
100
AcDbArc
 50
14.198236
 51
100.488955
  0
ARC
  5
4FD
100
AcDbEntity
  8
0
  6
CONTINUOUS
100
AcDbCircle
 10
2.061297
 20
3.209972
 30
0.0
 40
0.188
100
AcDbArc
 50
242.082965
 51
357.917035
  0
ARC
  5
4FE
100
AcDbEntity
  8
0
  6
CONTINUOUS
100
AcDbCircle
 10
-0.361492
 20
5.034418
 30
0.0
 40
3.594892
100
AcDbArc
 50
285.807894
 51
302.082965
  0
ARC
  5
4FF
100
AcDbEntity
  8
0
  6
CONTINUOUS
100
AcDbCircle
 10
1.669738
 20
2.148371
 30
0.0
 40
1.358727
100
AcDbArc
 50
160.488955
 51
199.562369
  0
ARC
  5
500
100
AcDbEntity
  8
0
  6
CONTINUOUS
100
AcDbCircle
 10
0.566589
 20
1.756373
 30
0.0
 40
0.188
100
AcDbArc
 50
199.562369
 51
285.807894
  0
ARC
  5
501
100
AcDbEntity
  8
0
  6
CONTINUOUS
100
AcDbCircle
 10
-0.361492
 20
-0.738764
 30
0.0
 40
3.594892
100
AcDbArc
 50
57.917035
 51
74.198236
  0
ARC
  5
502
100
AcDbEntity
  8
0
  6
CONTINUOUS
100
AcDbCircle
 10
0.566238
 20
2.53938
 30
0.0
 40
0.188
100
AcDbArc
 50
74.198236
 51
160.488955
  0
ARC
  5
503
100
AcDbEntity
  8
0
  6
CONTINUOUS
100
AcDbCircle
 10
1.448067
 20
2.147827
 30
0.0
 40
0.188
100
AcDbArc
 50
302.082965
 51
57.917035
  0
ARC
  5
504
100
AcDbEntity
  8
0
  6
CONTINUOUS
100
AcDbCircle
 10
-1.343344
 20
0.961853
 30
0.0
 40
3.594892
100
AcDbArc
 50
345.807894
 51
2.082965
  0
ARC
  5
505
100
AcDbEntity
  8
0
  6
CONTINUOUS
100
AcDbCircle
 10
2.171661
 20
1.277927
 30
0.0
 40
1.358727
100
AcDbArc
 50
220.488955
 51
259.562369
  0
ARC
  5
506
100
AcDbEntity
  8
0
  6
CONTINUOUS
100
AcDbCircle
 10
1.959567
 20
0.126573
 30
0.0
 40
0.188
100
AcDbArc
 50
259.562369
 51
345.807894
  0
ARC
  5
507
100
AcDbEntity
  8
0
  6
CONTINUOUS
100
AcDbCircle
 10
3.656378
 20
-1.924738
 30
0.0
 40
3.594892
100
AcDbArc
 50
117.917035
 51
134.198236
  0
ARC
  5
508
100
AcDbEntity
  8
0
  6
CONTINUOUS
100
AcDbCircle
 10
1.281287
 20
0.517772
 30
0.0
 40
0.188
100
AcDbArc
 50
134.198236
 51
220.488955
  0
ARC
  5
509
100
AcDbEntity
  8
0
  6
CONTINUOUS
100
AcDbCircle
 10
2.061297
 20
1.085682
 30
0.0
 40
0.188
100
AcDbArc
 50
2.082965
 51
117.917035
  0
ARC
  5
50A
100
AcDbEntity
  8
0
  6
CONTINUOUS
100
AcDbCircle
 10
1.692675
 20
-1.924738
 30
0.0
 40
3.594892
100
AcDbArc
 50
45.807894
 51
62.082965
  0
ARC
  5
50B
100
AcDbEntity
  8
0
  6
CONTINUOUS
100
AcDbCircle
 10
3.176449
 20
1.277383
 30
0.0
 40
1.358727
100
AcDbArc
 50
280.488955
 51
319.562369
  0
ARC
  5
50C
100
AcDbEntity
  8
0
  6
CONTINUOUS
100
AcDbCircle
 10
4.067504
 20
0.518027
 30
0.0
 40
0.188
100
AcDbArc
 50
319.562369
 51
45.807894
  0
ARC
  5
50D
100
AcDbEntity
  8
0
  6
CONTINUOUS
100
AcDbCircle
 10
6.692397
 20
0.961853
 30
0.0
 40
3.594892
100
AcDbArc
 50
177.917035
 51
194.198236
  0
ARC
  5
50E
100
AcDbEntity
  8
0
  6
CONTINUOUS
100
AcDbCircle
 10
3.389576
 20
0.126219
 30
0.0
 40
0.188
100
AcDbArc
 50
194.198236
 51
280.488955
  0
ARC
  5
50F
100
AcDbEntity
  8
0
  6
CONTINUOUS
100
AcDbCircle
 10
3.287756
 20
1.085682
 30
0.0
 40
0.188
100
AcDbArc
 50
62.082965
 51
177.917035
  0
ARC
  5
510
100
AcDbEntity
  8
0
  6
CONTINUOUS
100
AcDbCircle
 10
5.710545
 20
-0.738764
 30
0.0
 40
3.594892
100
AcDbArc
 50
105.807894
 51
122.082965
  0
ARC
  5
511
100
AcDbEntity
  8
0
  6
CONTINUOUS
100
AcDbCircle
 10
3.679314
 20
2.147283
 30
0.0
 40
1.358727
100
AcDbArc
 50
340.488955
 51
19.562369
  0
ARC
  5
512
100
AcDbEntity
  8
0
  6
CONTINUOUS
100
AcDbCircle
 10
4.782464
 20
2.539281
 30
0.0
 40
0.188
100
AcDbArc
 50
19.562369
 51
105.807894
  0
ARC
  5
513
100
AcDbEntity
  8
0
  6
CONTINUOUS
100
AcDbCircle
 10
5.710545
 20
5.034418
 30
0.0
 40
3.594892
100
AcDbArc
 50
237.917035
 51
254.198236
  0
ARC
  5
514
100
AcDbEntity
  8
0
  6
CONTINUOUS
100
AcDbCircle
 10
4.782815
 20
1.756274
 30
0.0
 40
0.188
100
AcDbArc
 50
254.198236
 51
340.488955
  0
ARC
  5
515
100
AcDbEntity
  8
0
  6
CONTINUOUS
100
AcDbCircle
 10
3.900986
 20
2.147827
 30
0.0
 40
0.188
100
AcDbArc
 50
122.082965
 51
237.917035
  0
INSERT
  5
516
100
AcDbEntity
  8
0
  6
CONTINUOUS
100
AcDbBlockReference
  2
A$C693200E8
 10
1.310085
 20
4.172242
 30
0.0
 50
30.0
  0
INSERT
  5
517
100
AcDbEntity
  8
0
  6
CONTINUOUS
100
AcDbBlockReference
  2
A$C693200E8
 10
0.480678
 20
3.218801
 30
0.0
 50
60.0
  0
INSERT
  5
518
100
AcDbEntity
  8
0
  6
CONTINUOUS
100
AcDbBlockReference
  2
A$C693200E8
 10
0.239111
 20
1.978394
 30
0.0
 50
90.0
  0
INSERT
  5
519
100
AcDbEntity
  8
0
  6
CONTINUOUS
100
AcDbBlockReference
  2
A$C693200E8
 10
0.650111
 20
0.783386
 30
0.0
 50
120.0
  0
INSERT
  5
51A
100
AcDbEntity
  8
0
  6
CONTINUOUS
100
AcDbBlockReference
  2
A$C693200E8
 10
1.603552
 20
-0.046021
 30
0.0
 50
150.0
  0
INSERT
  5
51B
100
AcDbEntity
  8
0
  6
CONTINUOUS
100
AcDbBlockReference
  2
A$C693200E8
 10
2.84396
 20
-0.287588
 30
0.0
 50
180.0
  0
INSERT
  5
51C
100
AcDbEntity
  8
0
  6
CONTINUOUS
100
AcDbBlockReference
  2
A$C693200E8
 10
4.038968
 20
0.123412
 30
0.0
 50
210.0
  0
INSERT
  5
51D
100
AcDbEntity
  8
0
  6
CONTINUOUS
100
AcDbBlockReference
  2
A$C693200E8
 10
4.868375
 20
1.076853
 30
0.0
 50
240.0
  0
INSERT
  5
51E
100
AcDbEntity
  8
0
  6
CONTINUOUS
100
AcDbBlockReference
  2
A$C693200E8
 10
5.109942
 20
2.317261
 30
0.0
 50
270.0
  0
INSERT
  5
51F
100
AcDbEntity
  8
0
  6
CONTINUOUS
100
AcDbBlockReference
  2
A$C693200E8
 10
4.698941
 20
3.512269
 30
0.0
 50
300.0
  0
INSERT
  5
520
100
AcDbEntity
  8
0
  6
CONTINUOUS
100
AcDbBlockReference
  2
A$C693200E8
 10
3.7455
 20
4.341676
 30
0.0
 50
330.0
  0
LINE
  5
521
100
AcDbEntity
  8
0
  6
CONTINUOUS
 62
     3
100
AcDbLine
 10
2.596067
 20
4.755361
 30
0.0
 11
2.674568
 21
4.714705
 31
0.0
  0
LINE
  5
522
100
AcDbEntity
  8
0
  6
CONTINUOUS
 62
     3
100
AcDbLine
 10
2.753067
 20
4.755366
 30
0.0
 11
2.674568
 21
4.714705
 31
0.0
  0
LINE
  5
523
100
AcDbEntity
  8
0
  6
CONTINUOUS
 62
     3
100
AcDbLine
 10
2.596067
 20
4.755361
 30
0.0
 11
2.753067
 21
4.755366
 31
0.0
  0
LINE
  5
524
100
AcDbEntity
  8
0
  6
CONTINUOUS
 62
     3
100
AcDbLine
 10
2.596067
 20
4.755361
 30
0.0
 11
2.596058
 21
5.031951
 31
0.0
  0
LINE
  5
525
100
AcDbEntity
  8
0
  6
CONTINUOUS
 62
     3
100
AcDbLine
 10
2.753067
 20
4.755366
 30
0.0
 11
2.753058
 21
5.031956
 31
0.0
  0
ARC
  5
526
100
AcDbEntity
  8
0
  6
CONTINUOUS
 62
    30
100
AcDbCircle
 10
2.599093
 20
4.737489
 30
0.0
 40
0.094
100
AcDbArc
 50
180.0
 51
211.553206
  0
LINE
  5
527
100
AcDbEntity
  8
0
  6
CONTINUOUS
 62
    30
100
AcDbLine
 10
2.505093
 20
5.078351
 30
0.0
 11
2.505093
 21
4.737489
 31
0.0
  0
LINE
  5
528
100
AcDbEntity
  8
0
  6
CONTINUOUS
 62
    30
100
AcDbLine
 10
2.555986
 20
4.628053
 30
0.0
 11
2.51899
 21
4.6883
 31
0.0
  0
ARC
  5
529
100
AcDbEntity
  8
0
  6
CONTINUOUS
 62
    30
100
AcDbCircle
 10
2.636089
 20
4.677243
 30
0.0
 40
0.094
100
AcDbArc
 50
211.553206
 51
270.0
  0
LINE
  5
52A
100
AcDbEntity
  8
0
  6
CONTINUOUS
 62
    30
100
AcDbLine
 10
2.636089
 20
4.583243
 30
0.0
 11
2.713179
 21
4.583243
 31
0.0
  0
ARC
  5
52B
100
AcDbEntity
  8
0
  6
CONTINUOUS
 62
    30
100
AcDbCircle
 10
2.713179
 20
4.677243
 30
0.0
 40
0.094
100
AcDbArc
 50
270.0
 51
328.446794
  0
LINE
  5
52C
100
AcDbEntity
  8
0
  6
CONTINUOUS
 62
    30
100
AcDbLine
 10
2.793282
 20
4.628053
 30
0.0
 11
2.830117
 21
4.688038
 31
0.0
  0
ARC
  5
52D
100
AcDbEntity
  8
0
  6
CONTINUOUS
 62
    30
100
AcDbCircle
 10
2.750015
 20
4.737228
 30
0.0
 40
0.094
100
AcDbArc
 50
328.446794
 51
0.0
  0
LINE
  5
52E
100
AcDbEntity
  8
0
  6
CONTINUOUS
 62
    30
100
AcDbLine
 10
2.844015
 20
5.078351
 30
0.0
 11
2.844015
 21
4.737228
 31
0.0
  0
ARC
  5
52F
100
AcDbEntity
  8
0
  6
CONTINUOUS
 62
    30
100
AcDbCircle
 10
2.674634
 20
2.643243
 30
0.0
 40
2.39
100
AcDbArc
 50
85.93601
 51
94.067847
  0
CIRCLE
  5
530
100
AcDbEntity
  8
0
  6
CONTINUOUS
100
AcDbCircle
 10
2.674568
 20
4.714705
 30
0.0
 40
0.0785
  0
ARC
  5
531
100
AcDbEntity
  8
LAYER_1
 62
     7
100
AcDbCircle
 10
2.674553
 20
2.145897
 30
0.0
 40
2.937345
100
AcDbArc
 50
86.692661
 51
93.307331
  0
LINE
  5
535
100
AcDbEntity
  8
0
  6
CONTINUOUS
100
AcDbLine
 10
9.977464
 20
6.297812
 30
0.0
 11
14.977464
 21
6.297812
 31
0.0
  0
LINE
  5
536
100
AcDbEntity
  8
0
  6
CONTINUOUS
 62
    30
100
AcDbLine
 10
12.444092
 20
7.146538
 30
0.0
 11
12.444092
 21
6.856533
 31
0.0
  0
LINE
  5
537
100
AcDbEntity
  8
0
  6
CONTINUOUS
 62
     3
100
AcDbLine
 10
12.535066
 20
6.874678
 30
0.0
 11
12.613568
 21
6.834021
 31
0.0
  0
LINE
  5
538
100
AcDbEntity
  8
0
  6
CONTINUOUS
 62
     3
100
AcDbLine
 10
12.692066
 20
6.874683
 30
0.0
 11
12.613568
 21
6.834021
 31
0.0
  0
LINE
  5
539
100
AcDbEntity
  8
0
  6
CONTINUOUS
 62
     3
100
AcDbLine
 10
12.535066
 20
6.874678
 30
0.0
 11
12.692066
 21
6.874683
 31
0.0
  0
LINE
  5
53A
100
AcDbEntity
  8
0
  6
CONTINUOUS
 62
     3
100
AcDbLine
 10
12.535066
 20
6.874678
 30
0.0
 11
12.535058
 21
7.151267
 31
0.0
  0
LINE
  5
53B
100
AcDbEntity
  8
0
  6
CONTINUOUS
 62
     3
100
AcDbLine
 10
12.692066
 20
6.874683
 30
0.0
 11
12.692058
 21
7.151272
 31
0.0
  0
ARC
  5
53C
100
AcDbEntity
  8
0
  6
CONTINUOUS
 62
    30
100
AcDbCircle
 10
12.538092
 20
6.856805
 30
0.0
 40
0.094
100
AcDbArc
 50
180.0
 51
211.553206
  0
LINE
  5
53D
100
AcDbEntity
  8
0
  6
CONTINUOUS
 62
    30
100
AcDbLine
 10
12.494986
 20
6.74737
 30
0.0
 11
12.45799
 21
6.807616
 31
0.0
  0
ARC
  5
53E
100
AcDbEntity
  8
0
  6
CONTINUOUS
 62
    30
100
AcDbCircle
 10
12.575088
 20
6.796559
 30
0.0
 40
0.094
100
AcDbArc
 50
211.553206
 51
270.0
  0
LINE
  5
53F
100
AcDbEntity
  8
0
  6
CONTINUOUS
 62
    30
100
AcDbLine
 10
12.575088
 20
6.702559
 30
0.0
 11
12.652178
 21
6.702559
 31
0.0
  0
ARC
  5
540
100
AcDbEntity
  8
0
  6
CONTINUOUS
 62
    30
100
AcDbCircle
 10
12.652178
 20
6.796559
 30
0.0
 40
0.094
100
AcDbArc
 50
270.0
 51
328.446794
  0
LINE
  5
541
100
AcDbEntity
  8
0
  6
CONTINUOUS
 62
    30
100
AcDbLine
 10
12.732281
 20
6.74737
 30
0.0
 11
12.769116
 21
6.807355
 31
0.0
  0
ARC
  5
542
100
AcDbEntity
  8
0
  6
CONTINUOUS
 62
    30
100
AcDbCircle
 10
12.689014
 20
6.856544
 30
0.0
 40
0.094
100
AcDbArc
 50
328.446794
 51
0.0
  0
LINE
  5
543
100
AcDbEntity
  8
0
  6
CONTINUOUS
 62
    30
100
AcDbLine
 10
12.783014
 20
7.14655
 30
0.0
 11
12.783014
 21
6.856544
 31
0.0
  0
ARC
  5
544
100
AcDbEntity
  8
0
  6
CONTINUOUS
 62
    30
100
AcDbCircle
 10
12.613633
 20
4.762559
 30
0.0
 40
2.39
100
AcDbArc
 50
85.93601
 51
94.067847
  0
CIRCLE
  5
545
100
AcDbEntity
  8
0
  6
CONTINUOUS
100
AcDbCircle
 10
12.613568
 20
6.834021
 30
0.0
 40
0.0785
  0
CIRCLE
  5
546
100
AcDbEntity
  8
0
  6
CONTINUOUS
100
AcDbCircle
 10
13.352489
 20
6.834033
 30
0.0
 40
0.0785
  0
ARC
  5
547
100
AcDbEntity
  8
0
  6
CONTINUOUS
 62
    30
100
AcDbCircle
 10
13.352555
 20
4.762571
 30
0.0
 40
2.39
100
AcDbArc
 50
85.93601
 51
94.067847
  0
LINE
  5
548
100
AcDbEntity
  8
0
  6
CONTINUOUS
 62
    30
100
AcDbLine
 10
13.31401
 20
6.702571
 30
0.0
 11
13.3911
 21
6.702571
 31
0.0
  0
LINE
  5
549
100
AcDbEntity
  8
0
  6
CONTINUOUS
 62
     3
100
AcDbLine
 10
13.273988
 20
6.874689
 30
0.0
 11
13.430988
 21
6.874694
 31
0.0
  0
LINE
  5
54A
100
AcDbEntity
  8
0
  6
CONTINUOUS
 62
     3
100
AcDbLine
 10
13.430988
 20
6.874694
 30
0.0
 11
13.352489
 21
6.834033
 31
0.0
  0
ARC
  5
54B
100
AcDbEntity
  8
0
  6
CONTINUOUS
 62
    30
100
AcDbCircle
 10
13.31401
 20
6.796571
 30
0.0
 40
0.094
100
AcDbArc
 50
211.553206
 51
270.0
  0
LINE
  5
54C
100
AcDbEntity
  8
0
  6
CONTINUOUS
 62
    30
100
AcDbLine
 10
13.233907
 20
6.747381
 30
0.0
 11
13.196911
 21
6.807628
 31
0.0
  0
ARC
  5
54D
100
AcDbEntity
  8
0
  6
CONTINUOUS
 62
    30
100
AcDbCircle
 10
13.277014
 20
6.856817
 30
0.0
 40
0.094
100
AcDbArc
 50
180.0
 51
211.553206
  0
LINE
  5
54E
100
AcDbEntity
  8
0
  6
CONTINUOUS
 62
     3
100
AcDbLine
 10
13.273988
 20
6.874689
 30
0.0
 11
13.273979
 21
7.151279
 31
0.0
  0
LINE
  5
54F
100
AcDbEntity
  8
0
  6
CONTINUOUS
 62
     3
100
AcDbLine
 10
13.273988
 20
6.874689
 30
0.0
 11
13.352489
 21
6.834033
 31
0.0
  0
LINE
  5
550
100
AcDbEntity
  8
0
  6
CONTINUOUS
 62
    30
100
AcDbLine
 10
13.183014
 20
7.14655
 30
0.0
 11
13.183014
 21
6.856544
 31
0.0
  0
LINE
  5
551
100
AcDbEntity
  8
0
  6
CONTINUOUS
 62
    30
100
AcDbLine
 10
13.521936
 20
7.146561
 30
0.0
 11
13.521936
 21
6.856555
 31
0.0
  0
ARC
  5
552
100
AcDbEntity
  8
0
  6
CONTINUOUS
 62
    30
100
AcDbCircle
 10
13.427936
 20
6.856555
 30
0.0
 40
0.094
100
AcDbArc
 50
328.446794
 51
0.0
  0
LINE
  5
553
100
AcDbEntity
  8
0
  6
CONTINUOUS
 62
    30
100
AcDbLine
 10
13.471203
 20
6.747381
 30
0.0
 11
13.508038
 21
6.807366
 31
0.0
  0
ARC
  5
554
100
AcDbEntity
  8
0
  6
CONTINUOUS
 62
    30
100
AcDbCircle
 10
13.3911
 20
6.796571
 30
0.0
 40
0.094
100
AcDbArc
 50
270.0
 51
328.446794
  0
LINE
  5
555
100
AcDbEntity
  8
0
  6
CONTINUOUS
 62
     3
100
AcDbLine
 10
13.430988
 20
6.874694
 30
0.0
 11
13.430979
 21
7.151284
 31
0.0
  0
CIRCLE
  5
556
100
AcDbEntity
  8
0
  6
CONTINUOUS
100
AcDbCircle
 10
14.091411
 20
6.834044
 30
0.0
 40
0.0785
  0
ARC
  5
557
100
AcDbEntity
  8
0
  6
CONTINUOUS
 62
    30
100
AcDbCircle
 10
14.091477
 20
4.762582
 30
0.0
 40
2.39
100
AcDbArc
 50
85.93601
 51
94.067847
  0
LINE
  5
558
100
AcDbEntity
  8
0
  6
CONTINUOUS
 62
    30
100
AcDbLine
 10
14.052932
 20
6.702582
 30
0.0
 11
14.130022
 21
6.702582
 31
0.0
  0
LINE
  5
559
100
AcDbEntity
  8
0
  6
CONTINUOUS
 62
     3
100
AcDbLine
 10
14.01291
 20
6.8747
 30
0.0
 11
14.16991
 21
6.874705
 31
0.0
  0
LINE
  5
55A
100
AcDbEntity
  8
0
  6
CONTINUOUS
 62
     3
100
AcDbLine
 10
14.16991
 20
6.874705
 30
0.0
 11
14.091411
 21
6.834044
 31
0.0
  0
ARC
  5
55B
100
AcDbEntity
  8
0
  6
CONTINUOUS
 62
    30
100
AcDbCircle
 10
14.052932
 20
6.796582
 30
0.0
 40
0.094
100
AcDbArc
 50
211.553206
 51
270.0
  0
LINE
  5
55C
100
AcDbEntity
  8
0
  6
CONTINUOUS
 62
    30
100
AcDbLine
 10
13.972829
 20
6.747393
 30
0.0
 11
13.935833
 21
6.807639
 31
0.0
  0
ARC
  5
55D
100
AcDbEntity
  8
0
  6
CONTINUOUS
 62
    30
100
AcDbCircle
 10
14.015936
 20
6.856828
 30
0.0
 40
0.094
100
AcDbArc
 50
180.0
 51
211.553206
  0
LINE
  5
55E
100
AcDbEntity
  8
0
  6
CONTINUOUS
 62
     3
100
AcDbLine
 10
14.01291
 20
6.8747
 30
0.0
 11
14.012901
 21
7.15129
 31
0.0
  0
LINE
  5
55F
100
AcDbEntity
  8
0
  6
CONTINUOUS
 62
     3
100
AcDbLine
 10
14.01291
 20
6.8747
 30
0.0
 11
14.091411
 21
6.834044
 31
0.0
  0
LINE
  5
560
100
AcDbEntity
  8
0
  6
CONTINUOUS
 62
    30
100
AcDbLine
 10
13.921936
 20
7.146561
 30
0.0
 11
13.921936
 21
6.856555
 31
0.0
  0
LINE
  5
561
100
AcDbEntity
  8
0
  6
CONTINUOUS
 62
     3
100
AcDbLine
 10
14.908832
 20
6.874717
 30
0.0
 11
14.908823
 21
7.151306
 31
0.0
  0
ARC
  5
562
100
AcDbEntity
  8
0
  6
CONTINUOUS
 62
    30
100
AcDbCircle
 10
14.868944
 20
6.796593
 30
0.0
 40
0.094
100
AcDbArc
 50
270.0
 51
328.446794
  0
LINE
  5
563
100
AcDbEntity
  8
0
  6
CONTINUOUS
 62
    30
100
AcDbLine
 10
14.949046
 20
6.747404
 30
0.0
 11
14.985882
 21
6.807389
 31
0.0
  0
ARC
  5
564
100
AcDbEntity
  8
0
  6
CONTINUOUS
 62
    30
100
AcDbCircle
 10
14.905779
 20
6.856578
 30
0.0
 40
0.094
100
AcDbArc
 50
328.446794
 51
0.0
  0
LINE
  5
565
100
AcDbEntity
  8
0
  6
CONTINUOUS
 62
    30
100
AcDbLine
 10
14.999779
 20
7.146584
 30
0.0
 11
14.999779
 21
6.856578
 31
0.0
  0
LINE
  5
566
100
AcDbEntity
  8
0
  6
CONTINUOUS
 62
    30
100
AcDbLine
 10
14.660857
 20
7.146573
 30
0.0
 11
14.660857
 21
6.856567
 31
0.0
  0
LINE
  5
567
100
AcDbEntity
  8
0
  6
CONTINUOUS
 62
     3
100
AcDbLine
 10
14.751832
 20
6.874712
 30
0.0
 11
14.830333
 21
6.834056
 31
0.0
  0
LINE
  5
568
100
AcDbEntity
  8
0
  6
CONTINUOUS
 62
     3
100
AcDbLine
 10
14.751832
 20
6.874712
 30
0.0
 11
14.751823
 21
7.151302
 31
0.0
  0
ARC
  5
569
100
AcDbEntity
  8
0
  6
CONTINUOUS
 62
    30
100
AcDbCircle
 10
14.754857
 20
6.85684
 30
0.0
 40
0.094
100
AcDbArc
 50
180.0
 51
211.553206
  0
LINE
  5
56A
100
AcDbEntity
  8
0
  6
CONTINUOUS
 62
    30
100
AcDbLine
 10
14.711751
 20
6.747404
 30
0.0
 11
14.674755
 21
6.80765
 31
0.0
  0
ARC
  5
56B
100
AcDbEntity
  8
0
  6
CONTINUOUS
 62
    30
100
AcDbCircle
 10
14.791853
 20
6.796593
 30
0.0
 40
0.094
100
AcDbArc
 50
211.553206
 51
270.0
  0
LINE
  5
56C
100
AcDbEntity
  8
0
  6
CONTINUOUS
 62
     3
100
AcDbLine
 10
14.908832
 20
6.874717
 30
0.0
 11
14.830333
 21
6.834056
 31
0.0
  0
LINE
  5
56D
100
AcDbEntity
  8
0
  6
CONTINUOUS
 62
     3
100
AcDbLine
 10
14.751832
 20
6.874712
 30
0.0
 11
14.908832
 21
6.874717
 31
0.0
  0
LINE
  5
56E
100
AcDbEntity
  8
0
  6
CONTINUOUS
 62
    30
100
AcDbLine
 10
14.791853
 20
6.702593
 30
0.0
 11
14.868944
 21
6.702593
 31
0.0
  0
ARC
  5
56F
100
AcDbEntity
  8
0
  6
CONTINUOUS
 62
    30
100
AcDbCircle
 10
14.830398
 20
4.762594
 30
0.0
 40
2.39
100
AcDbArc
 50
85.93601
 51
94.067847
  0
CIRCLE
  5
570
100
AcDbEntity
  8
0
  6
CONTINUOUS
100
AcDbCircle
 10
14.830333
 20
6.834056
 30
0.0
 40
0.0785
  0
LINE
  5
571
100
AcDbEntity
  8
0
  6
CONTINUOUS
 62
    30
100
AcDbLine
 10
14.260857
 20
7.146573
 30
0.0
 11
14.260857
 21
6.856567
 31
0.0
  0
ARC
  5
572
100
AcDbEntity
  8
0
  6
CONTINUOUS
 62
    30
100
AcDbCircle
 10
14.166857
 20
6.856567
 30
0.0
 40
0.094
100
AcDbArc
 50
328.446794
 51
0.0
  0
LINE
  5
573
100
AcDbEntity
  8
0
  6
CONTINUOUS
 62
    30
100
AcDbLine
 10
14.210124
 20
6.747393
 30
0.0
 11
14.24696
 21
6.807378
 31
0.0
  0
ARC
  5
574
100
AcDbEntity
  8
0
  6
CONTINUOUS
 62
    30
100
AcDbCircle
 10
14.130022
 20
6.796582
 30
0.0
 40
0.094
100
AcDbArc
 50
270.0
 51
328.446794
  0
LINE
  5
575
100
AcDbEntity
  8
0
  6
CONTINUOUS
 62
     3
100
AcDbLine
 10
14.16991
 20
6.874705
 30
0.0
 11
14.169901
 21
7.151295
 31
0.0
  0
LINE
  5
576
100
AcDbEntity
  8
0
  6
CONTINUOUS
100
AcDbLine
 10
11.658195
 20
6.554551
 30
0.0
 11
11.658195
 21
7.179551
 31
0.0
  0
ARC
  5
578
100
AcDbEntity
  8
0
  6
CONTINUOUS
 62
    30
100
AcDbCircle
 10
15.56932
 20
4.762605
 30
0.0
 40
2.39
100
AcDbArc
 50
85.93601
 51
94.067847
  0
LINE
  5
579
100
AcDbEntity
  8
0
  6
CONTINUOUS
 62
    30
100
AcDbLine
 10
15.450672
 20
6.747415
 30
0.0
 11
15.413677
 21
6.807662
 31
0.0
  0
ARC
  5
57A
100
AcDbEntity
  8
0
  6
CONTINUOUS
 62
    30
100
AcDbCircle
 10
15.493779
 20
6.856851
 30
0.0
 40
0.094
100
AcDbArc
 50
180.0
 51
211.553206
  0
LINE
  5
57B
100
AcDbEntity
  8
0
  6
CONTINUOUS
 62
    30
100
AcDbLine
 10
15.399779
 20
7.146584
 30
0.0
 11
15.399779
 21
6.856578
 31
0.0
  0
LINE
  5
57C
100
AcDbEntity
  8
0
  6
CONTINUOUS
 62
     3
100
AcDbLine
 10
17.125597
 20
6.874751
 30
0.0
 11
17.125588
 21
7.151341
 31
0.0
  0
ARC
  5
57D
100
AcDbEntity
  8
0
  6
CONTINUOUS
 62
    30
100
AcDbCircle
 10
17.085709
 20
6.796628
 30
0.0
 40
0.094
100
AcDbArc
 50
270.0
 51
328.446794
  0
LINE
  5
57E
100
AcDbEntity
  8
0
  6
CONTINUOUS
 62
    30
100
AcDbLine
 10
17.165811
 20
6.747438
 30
0.0
 11
17.202647
 21
6.807423
 31
0.0
  0
ARC
  5
57F
100
AcDbEntity
  8
0
  6
CONTINUOUS
 62
    30
100
AcDbCircle
 10
17.122544
 20
6.856613
 30
0.0
 40
0.094
100
AcDbArc
 50
328.446794
 51
0.0
  0
LINE
  5
580
100
AcDbEntity
  8
0
  6
CONTINUOUS
 62
    30
100
AcDbLine
 10
17.216544
 20
7.146618
 30
0.0
 11
17.216544
 21
6.856613
 31
0.0
  0
CIRCLE
  5
581
100
AcDbEntity
  8
0
  6
CONTINUOUS
100
AcDbCircle
 10
15.569255
 20
6.834067
 30
0.0
 40
0.0785
  0
LINE
  5
582
100
AcDbEntity
  8
0
  6
CONTINUOUS
 62
    30
100
AcDbLine
 10
15.530775
 20
6.702605
 30
0.0
 11
15.607865
 21
6.702605
 31
0.0
  0
LINE
  5
583
100
AcDbEntity
  8
0
  6
CONTINUOUS
 62
     3
100
AcDbLine
 10
15.490753
 20
6.874723
 30
0.0
 11
15.647753
 21
6.874728
 31
0.0
  0
LINE
  5
584
100
AcDbEntity
  8
0
  6
CONTINUOUS
 62
     3
100
AcDbLine
 10
15.647753
 20
6.874728
 30
0.0
 11
15.569255
 21
6.834067
 31
0.0
  0
ARC
  5
585
100
AcDbEntity
  8
0
  6
CONTINUOUS
 62
    30
100
AcDbCircle
 10
15.530775
 20
6.796605
 30
0.0
 40
0.094
100
AcDbArc
 50
211.553206
 51
270.0
  0
LINE
  5
586
100
AcDbEntity
  8
0
  6
CONTINUOUS
 62
     3
100
AcDbLine
 10
15.490753
 20
6.874723
 30
0.0
 11
15.490744
 21
7.151313
 31
0.0
  0
LINE
  5
587
100
AcDbEntity
  8
0
  6
CONTINUOUS
 62
     3
100
AcDbLine
 10
15.490753
 20
6.874723
 30
0.0
 11
15.569255
 21
6.834067
 31
0.0
  0
LINE
  5
588
100
AcDbEntity
  8
0
  6
CONTINUOUS
 62
    30
100
AcDbLine
 10
15.738701
 20
7.146595
 30
0.0
 11
15.738701
 21
6.85659
 31
0.0
  0
ARC
  5
589
100
AcDbEntity
  8
0
  6
CONTINUOUS
 62
    30
100
AcDbCircle
 10
15.644701
 20
6.85659
 30
0.0
 40
0.094
100
AcDbArc
 50
328.446794
 51
0.0
  0
LINE
  5
58A
100
AcDbEntity
  8
0
  6
CONTINUOUS
 62
    30
100
AcDbLine
 10
15.687968
 20
6.747415
 30
0.0
 11
15.724803
 21
6.8074
 31
0.0
  0
ARC
  5
58B
100
AcDbEntity
  8
0
  6
CONTINUOUS
 62
    30
100
AcDbCircle
 10
15.607865
 20
6.796605
 30
0.0
 40
0.094
100
AcDbArc
 50
270.0
 51
328.446794
  0
LINE
  5
58C
100
AcDbEntity
  8
0
  6
CONTINUOUS
 62
     3
100
AcDbLine
 10
15.647753
 20
6.874728
 30
0.0
 11
15.647744
 21
7.151318
 31
0.0
  0
CIRCLE
  5
58D
100
AcDbEntity
  8
0
  6
CONTINUOUS
100
AcDbCircle
 10
16.308176
 20
6.834078
 30
0.0
 40
0.0785
  0
ARC
  5
58E
100
AcDbEntity
  8
0
  6
CONTINUOUS
 62
    30
100
AcDbCircle
 10
16.308242
 20
4.762616
 30
0.0
 40
2.39
100
AcDbArc
 50
85.93601
 51
94.067847
  0
LINE
  5
58F
100
AcDbEntity
  8
0
  6
CONTINUOUS
 62
    30
100
AcDbLine
 10
16.269697
 20
6.702616
 30
0.0
 11
16.346787
 21
6.702616
 31
0.0
  0
LINE
  5
590
100
AcDbEntity
  8
0
  6
CONTINUOUS
 62
     3
100
AcDbLine
 10
16.229675
 20
6.874735
 30
0.0
 11
16.386675
 21
6.87474
 31
0.0
  0
LINE
  5
591
100
AcDbEntity
  8
0
  6
CONTINUOUS
 62
     3
100
AcDbLine
 10
16.386675
 20
6.87474
 30
0.0
 11
16.308176
 21
6.834078
 31
0.0
  0
ARC
  5
592
100
AcDbEntity
  8
0
  6
CONTINUOUS
 62
    30
100
AcDbCircle
 10
16.269697
 20
6.796616
 30
0.0
 40
0.094
100
AcDbArc
 50
211.553206
 51
270.0
  0
LINE
  5
593
100
AcDbEntity
  8
0
  6
CONTINUOUS
 62
    30
100
AcDbLine
 10
16.189594
 20
6.747427
 30
0.0
 11
16.152598
 21
6.807673
 31
0.0
  0
ARC
  5
594
100
AcDbEntity
  8
0
  6
CONTINUOUS
 62
    30
100
AcDbCircle
 10
16.232701
 20
6.856862
 30
0.0
 40
0.094
100
AcDbArc
 50
180.0
 51
211.553206
  0
LINE
  5
595
100
AcDbEntity
  8
0
  6
CONTINUOUS
 62
     3
100
AcDbLine
 10
16.229675
 20
6.874735
 30
0.0
 11
16.229666
 21
7.151324
 31
0.0
  0
LINE
  5
596
100
AcDbEntity
  8
0
  6
CONTINUOUS
 62
     3
100
AcDbLine
 10
16.229675
 20
6.874735
 30
0.0
 11
16.308176
 21
6.834078
 31
0.0
  0
LINE
  5
597
100
AcDbEntity
  8
0
  6
CONTINUOUS
 62
    30
100
AcDbLine
 10
16.138701
 20
7.146595
 30
0.0
 11
16.138701
 21
6.85659
 31
0.0
  0
LINE
  5
598
100
AcDbEntity
  8
0
  6
CONTINUOUS
 62
    30
100
AcDbLine
 10
16.877622
 20
7.146607
 30
0.0
 11
16.877622
 21
6.856601
 31
0.0
  0
LINE
  5
599
100
AcDbEntity
  8
0
  6
CONTINUOUS
 62
     3
100
AcDbLine
 10
16.968597
 20
6.874746
 30
0.0
 11
17.047098
 21
6.83409
 31
0.0
  0
LINE
  5
59A
100
AcDbEntity
  8
0
  6
CONTINUOUS
 62
     3
100
AcDbLine
 10
16.968597
 20
6.874746
 30
0.0
 11
16.968588
 21
7.151336
 31
0.0
  0
ARC
  5
59B
100
AcDbEntity
  8
0
  6
CONTINUOUS
 62
    30
100
AcDbCircle
 10
16.971622
 20
6.856874
 30
0.0
 40
0.094
100
AcDbArc
 50
180.0
 51
211.553206
  0
LINE
  5
59C
100
AcDbEntity
  8
0
  6
CONTINUOUS
 62
    30
100
AcDbLine
 10
16.928516
 20
6.747438
 30
0.0
 11
16.89152
 21
6.807685
 31
0.0
  0
ARC
  5
59D
100
AcDbEntity
  8
0
  6
CONTINUOUS
 62
    30
100
AcDbCircle
 10
17.008618
 20
6.796628
 30
0.0
 40
0.094
100
AcDbArc
 50
211.553206
 51
270.0
  0
LINE
  5
59E
100
AcDbEntity
  8
0
  6
CONTINUOUS
 62
    30
100
AcDbLine
 10
16.477622
 20
7.146607
 30
0.0
 11
16.477622
 21
6.856601
 31
0.0
  0
ARC
  5
59F
100
AcDbEntity
  8
0
  6
CONTINUOUS
 62
    30
100
AcDbCircle
 10
16.383622
 20
6.856601
 30
0.0
 40
0.094
100
AcDbArc
 50
328.446794
 51
0.0
  0
LINE
  5
5A0
100
AcDbEntity
  8
0
  6
CONTINUOUS
 62
    30
100
AcDbLine
 10
16.426889
 20
6.747427
 30
0.0
 11
16.463725
 21
6.807412
 31
0.0
  0
ARC
  5
5A1
100
AcDbEntity
  8
0
  6
CONTINUOUS
 62
    30
100
AcDbCircle
 10
16.346787
 20
6.796616
 30
0.0
 40
0.094
100
AcDbArc
 50
270.0
 51
328.446794
  0
LINE
  5
5A2
100
AcDbEntity
  8
0
  6
CONTINUOUS
 62
     3
100
AcDbLine
 10
16.386675
 20
6.87474
 30
0.0
 11
16.386666
 21
7.151329
 31
0.0
  0
LINE
  5
5A3
100
AcDbEntity
  8
0
  6
CONTINUOUS
 62
     3
100
AcDbLine
 10
17.125597
 20
6.874751
 30
0.0
 11
17.047098
 21
6.83409
 31
0.0
  0
LINE
  5
5A4
100
AcDbEntity
  8
0
  6
CONTINUOUS
 62
     3
100
AcDbLine
 10
16.968597
 20
6.874746
 30
0.0
 11
17.125597
 21
6.874751
 31
0.0
  0
LINE
  5
5A5
100
AcDbEntity
  8
0
  6
CONTINUOUS
 62
    30
100
AcDbLine
 10
17.008618
 20
6.702628
 30
0.0
 11
17.085709
 21
6.702628
 31
0.0
  0
ARC
  5
5A6
100
AcDbEntity
  8
0
  6
CONTINUOUS
 62
    30
100
AcDbCircle
 10
17.047164
 20
4.762628
 30
0.0
 40
2.39
100
AcDbArc
 50
85.93601
 51
94.067847
  0
CIRCLE
  5
5A7
100
AcDbEntity
  8
0
  6
CONTINUOUS
100
AcDbCircle
 10
17.047098
 20
6.83409
 30
0.0
 40
0.0785
  0
CIRCLE
  5
5A8
100
AcDbEntity
  8
0
  6
CONTINUOUS
100
AcDbCircle
 10
17.78602
 20
6.834101
 30
0.0
 40
0.0785
  0
ARC
  5
5A9
100
AcDbEntity
  8
0
  6
CONTINUOUS
 62
    30
100
AcDbCircle
 10
17.786085
 20
4.762639
 30
0.0
 40
2.39
100
AcDbArc
 50
85.93601
 51
94.067847
  0
LINE
  5
5AA
100
AcDbEntity
  8
0
  6
CONTINUOUS
 62
    30
100
AcDbLine
 10
17.74754
 20
6.702639
 30
0.0
 11
17.82463
 21
6.702639
 31
0.0
  0
LINE
  5
5AB
100
AcDbEntity
  8
0
  6
CONTINUOUS
 62
     3
100
AcDbLine
 10
17.707518
 20
6.874757
 30
0.0
 11
17.864518
 21
6.874762
 31
0.0
  0
LINE
  5
5AC
100
AcDbEntity
  8
0
  6
CONTINUOUS
 62
     3
100
AcDbLine
 10
17.864518
 20
6.874762
 30
0.0
 11
17.78602
 21
6.834101
 31
0.0
  0
ARC
  5
5AD
100
AcDbEntity
  8
0
  6
CONTINUOUS
 62
    30
100
AcDbCircle
 10
17.74754
 20
6.796639
 30
0.0
 40
0.094
100
AcDbArc
 50
211.553206
 51
270.0
  0
LINE
  5
5AE
100
AcDbEntity
  8
0
  6
CONTINUOUS
 62
    30
100
AcDbLine
 10
17.667438
 20
6.74745
 30
0.0
 11
17.630442
 21
6.807696
 31
0.0
  0
ARC
  5
5AF
100
AcDbEntity
  8
0
  6
CONTINUOUS
 62
    30
100
AcDbCircle
 10
17.710544
 20
6.856885
 30
0.0
 40
0.094
100
AcDbArc
 50
180.0
 51
211.553206
  0
LINE
  5
5B0
100
AcDbEntity
  8
0
  6
CONTINUOUS
 62
     3
100
AcDbLine
 10
17.707518
 20
6.874757
 30
0.0
 11
17.70751
 21
7.151347
 31
0.0
  0
LINE
  5
5B1
100
AcDbEntity
  8
0
  6
CONTINUOUS
 62
     3
100
AcDbLine
 10
17.707518
 20
6.874757
 30
0.0
 11
17.78602
 21
6.834101
 31
0.0
  0
LINE
  5
5B2
100
AcDbEntity
  8
0
  6
CONTINUOUS
 62
    30
100
AcDbLine
 10
17.616544
 20
7.146618
 30
0.0
 11
17.616544
 21
6.856613
 31
0.0
  0
LINE
  5
5B3
100
AcDbEntity
  8
0
  6
CONTINUOUS
 62
    30
100
AcDbLine
 10
17.955466
 20
7.14663
 30
0.0
 11
17.955466
 21
6.856624
 31
0.0
  0
ARC
  5
5B4
100
AcDbEntity
  8
0
  6
CONTINUOUS
 62
    30
100
AcDbCircle
 10
17.861466
 20
6.856624
 30
0.0
 40
0.094
100
AcDbArc
 50
328.446794
 51
0.0
  0
LINE
  5
5B5
100
AcDbEntity
  8
0
  6
CONTINUOUS
 62
    30
100
AcDbLine
 10
17.904733
 20
6.74745
 30
0.0
 11
17.941568
 21
6.807435
 31
0.0
  0
ARC
  5
5B6
100
AcDbEntity
  8
0
  6
CONTINUOUS
 62
    30
100
AcDbCircle
 10
17.82463
 20
6.796639
 30
0.0
 40
0.094
100
AcDbArc
 50
270.0
 51
328.446794
  0
LINE
  5
5B7
100
AcDbEntity
  8
0
  6
CONTINUOUS
 62
     3
100
AcDbLine
 10
17.864518
 20
6.874762
 30
0.0
 11
17.86451
 21
7.151352
 31
0.0
  0
LINE
  5
5BA
100
AcDbEntity
  8
0
  6
CONTINUOUS
100
AcDbLine
 10
18.058195
 20
6.554551
 30
0.0
 11
18.058195
 21
7.179551
 31
0.0
  0
LINE
  5
5BB
100
AcDbEntity
  8
0
  6
CONTINUOUS
100
AcDbLine
 10
11.658195
 20
6.702548
 30
0.0
 11
18.058195
 21
6.702548
 31
0.0
  0
ARC
  5
5BC
100
AcDbEntity
  8
0
  6
CONTINUOUS
100
AcDbCircle
 10
12.47737
 20
6.006745
 30
0.0
 40
0.156
100
AcDbArc
 50
13.838258
 51
166.161742
  0
ARC
  5
5BE
100
AcDbEntity
  8
0
  6
CONTINUOUS
100
AcDbCircle
 10
12.068582
 20
5.900877
 30
0.0
 40
0.578266
100
AcDbArc
 50
0.194812
 51
14.335739
  0
LINE
  5
5C0
100
AcDbEntity
  8
0
  6
CONTINUOUS
100
AcDbLine
 10
12.307895
 20
5.902843
 30
0.0
 11
12.307895
 21
5.681745
 31
0.0
  0
ARC
  5
5C1
100
AcDbEntity
  8
0
  6
CONTINUOUS
100
AcDbCircle
 10
12.886158
 20
5.900877
 30
0.0
 40
0.578266
100
AcDbArc
 50
165.664261
 51
179.805188
  0
LINE
  5
5C5
100
AcDbEntity
  8
0
  6
CONTINUOUS
100
AcDbLine
 10
19.028241
 20
7.179551
 30
0.0
 11
19.163241
 21
7.179551
 31
0.0
  0
LINE
  5
5C6
100
AcDbEntity
  8
0
  6
CONTINUOUS
100
AcDbLine
 10
19.163241
 20
7.179551
 30
0.0
 11
19.163241
 21
6.554551
 31
0.0
  0
LINE
  5
5C7
100
AcDbEntity
  8
0
  6
CONTINUOUS
100
AcDbLine
 10
18.538241
 20
7.152639
 30
0.0
 11
19.028241
 21
7.152639
 31
0.0
  0
LINE
  5
5C8
100
AcDbEntity
  8
0
  6
CONTINUOUS
100
AcDbLine
 10
19.028241
 20
6.554551
 30
0.0
 11
19.163241
 21
6.554551
 31
0.0
  0
LINE
  5
5D7
100
AcDbEntity
  8
0
  6
CONTINUOUS
100
AcDbLine
 10
18.538241
 20
7.152639
 30
0.0
 11
18.538241
 21
6.702639
 31
0.0
  0
LINE
  5
5D8
100
AcDbEntity
  8
0
  6
CONTINUOUS
100
AcDbLine
 10
19.028241
 20
7.179551
 30
0.0
 11
19.028241
 21
6.554551
 31
0.0
  0
LINE
  5
5D9
100
AcDbEntity
  8
0
  6
CONTINUOUS
100
AcDbLine
 10
18.538241
 20
6.702639
 30
0.0
 11
19.028241
 21
6.702639
 31
0.0
  0
LINE
  5
5DA
100
AcDbEntity
  8
0
  6
CONTINUOUS
100
AcDbLine
 10
17.78602
 20
6.834101
 30
0.0
 11
17.78602
 21
6.579603
 31
0.0
  0
LINE
  5
5DB
100
AcDbEntity
  8
0
  6
CONTINUOUS
100
AcDbLine
 10
18.538241
 20
6.755601
 30
0.0
 11
18.908485
 21
6.755601
 31
0.0
  0
LINE
  5
5DC
100
AcDbEntity
  8
0
  6
CONTINUOUS
100
AcDbLine
 10
18.538241
 20
6.912601
 30
0.0
 11
18.908485
 21
6.912601
 31
0.0
  0
LINE
  5
5ED
100
AcDbEntity
  8
0
  6
CONTINUOUS
100
AcDbLine
 10
18.778741
 20
7.152639
 30
0.0
 11
18.778741
 21
6.702639
 31
0.0
  0
LINE
  5
5EE
100
AcDbEntity
  8
0
  6
CONTINUOUS
100
AcDbLine
 10
18.778741
 20
7.152639
 30
0.0
 11
18.621741
 21
7.152639
 31
0.0
  0
LINE
  5
5EF
100
AcDbEntity
  8
0
  6
CONTINUOUS
100
AcDbLine
 10
18.947741
 20
7.152639
 30
0.0
 11
18.947741
 21
6.702639
 31
0.0
  0
DIMENSION
  5
5FD
100
AcDbEntity
  8
0
  6
CONTINUOUS
100
AcDbDimension
  2
*D13
 10
18.538241
 20
7.436422
 30
0.0
 11
17.683241
 21
7.436422
 31
0.0
 12
-7.116179
 22
-7.047635
 32
0.0
 70
    32
  3
STANDARD
100
AcDbAlignedDimension
 13
19.028241
 23
7.179551
 33
0.0
 14
18.538241
 24
7.152639
 34
0.0
100
AcDbRotatedDimension
1001
ACAD
1000
DSTYLE
1002
{
1070
   287
1070
     3
1002
}
  0
DIMENSION
  5
623
100
AcDbEntity
  8
0
  6
CONTINUOUS
100
AcDbDimension
  2
*D14
 10
19.163241
 20
6.184812
 30
0.0
 11
19.853241
 21
6.184812
 31
0.0
 12
-7.116179
 22
-7.047635
 32
0.0
 70
    32
  3
STANDARD
100
AcDbAlignedDimension
 13
18.538241
 23
6.702639
 33
0.0
 14
19.163241
 24
6.554551
 34
0.0
100
AcDbRotatedDimension
1001
ACAD
1000
DSTYLE
1002
{
1070
   287
1070
     3
1002
}
  0
LINE
  5
627
100
AcDbEntity
  8
0
  6
CONTINUOUS
100
AcDbLine
 10
14.227464
 20
5.606745
 30
0.0
 11
14.977464
 21
5.606745
 31
0.0
  0
LINE
  5
628
100
AcDbEntity
  8
0
  6
CONTINUOUS
100
AcDbLine
 10
9.977464
 20
5.606745
 30
0.0
 11
14.977464
 21
5.606745
 31
0.0
  0
LINE
  5
629
100
AcDbEntity
  8
0
  6
CONTINUOUS
100
AcDbLine
 10
14.412753
 20
5.681745
 30
0.0
 11
14.862753
 21
5.681745
 31
0.0
  0
LINE
  5
62B
100
AcDbEntity
  8
0
  6
CONTINUOUS
100
AcDbLine
 10
14.977464
 20
6.085245
 30
0.0
 11
14.977464
 21
5.928245
 31
0.0
  0
LINE
  5
62C
100
AcDbEntity
  8
0
  6
CONTINUOUS
100
AcDbLine
 10
14.412753
 20
5.681745
 30
0.0
 11
14.412753
 21
6.162745
 31
0.0
  0
LINE
  5
631
100
AcDbEntity
  8
0
  6
CONTINUOUS
100
AcDbLine
 10
14.466253
 20
5.929746
 30
0.0
 11
14.623253
 21
5.929746
 31
0.0
  0
LINE
  5
634
100
AcDbEntity
  8
0
  6
CONTINUOUS
 62
    30
100
AcDbLine
 10
14.623253
 20
5.606745
 30
0.0
 11
14.623253
 21
5.356745
 31
0.0
  0
DIMENSION
  5
642
100
AcDbEntity
  8
0
  6
CONTINUOUS
100
AcDbDimension
  2
*D15
 10
14.623253
 20
5.12233
 30
0.0
 11
15.463253
 21
5.12233
 31
0.0
 12
-7.116179
 22
-7.047635
 32
0.0
 70
    32
  3
STANDARD
100
AcDbAlignedDimension
 13
14.466253
 23
5.356745
 33
0.0
 14
14.623253
 24
5.356745
 34
0.0
100
AcDbRotatedDimension
1001
ACAD
1000
DSTYLE
1002
{
1070
   287
1070
     3
1002
}
  0
LINE
  5
644
100
AcDbEntity
  8
0
  6
CONTINUOUS
100
AcDbLine
 10
12.477464
 20
2.147827
 30
0.0
 11
12.477464
 21
5.286661
 31
0.0
  0
CIRCLE
  5
651
100
AcDbEntity
  8
0
  6
CONTINUOUS
100
AcDbCircle
 10
2.674568
 20
4.714705
 30
0.0
 40
0.0785
  0
LINE
  5
653
100
AcDbEntity
  8
0
  6
CONTINUOUS
100
AcDbLine
 10
2.596053
 20
5.643243
 30
0.0
 11
2.753053
 21
5.643243
 31
0.0
  0
LINE
  5
654
100
AcDbEntity
  8
0
  6
CONTINUOUS
100
AcDbLine
 10
2.753053
 20
5.143243
 30
0.0
 11
2.753053
 21
5.643243
 31
0.0
  0
LINE
  5
657
100
AcDbEntity
  8
0
  6
CONTINUOUS
100
AcDbLine
 10
2.596053
 20
5.143243
 30
0.0
 11
2.596053
 21
5.643243
 31
0.0
  0
INSERT
  5
67B
100
AcDbEntity
  8
0
  6
CONTINUOUS
100
AcDbBlockReference
  2
A$C77A666E6
 10
7.698966
 20
4.29441
 30
0.0
  0
INSERT
  5
67C
100
AcDbEntity
  8
0
  6
CONTINUOUS
100
AcDbBlockReference
  2
A$C77A666E6
 10
12.126881
 20
3.897827
 30
0.0
  0
INSERT
  5
67D
100
AcDbEntity
  8
0
  6
CONTINUOUS
100
AcDbBlockReference
  2
A$C77A666E6
 10
2.32397
 20
4.393243
 30
0.0
  0
LINE
  5
67F
100
AcDbEntity
  8
0
  6
CONTINUOUS
100
AcDbLine
 10
18.778741
 20
6.912601
 30
0.0
 11
18.778741
 21
6.755601
 31
0.0
  0
LINE
  5
681
100
AcDbEntity
  8
0
  6
CONTINUOUS
100
AcDbLine
 10
18.947741
 20
6.834101
 30
0.0
 11
18.908485
 21
6.755601
 31
0.0
  0
LINE
  5
682
100
AcDbEntity
  8
0
  6
CONTINUOUS
100
AcDbLine
 10
18.947741
 20
6.834101
 30
0.0
 11
18.908485
 21
6.912601
 31
0.0
  0
LINE
  5
68D
100
AcDbEntity
  8
0
  6
CONTINUOUS
100
AcDbLine
 10
-0.450474
 20
-9.667737
 30
0.0
 11
5.799526
 21
-9.667737
 31
0.0
  0
LINE
  5
68E
100
AcDbEntity
  8
0
  6
CONTINUOUS
100
AcDbLine
 10
-0.450474
 20
-3.417737
 30
0.0
 11
5.799526
 21
-3.417737
 31
0.0
  0
ARC
  5
696
100
AcDbEntity
  8
0
  6
CONTINUOUS
100
AcDbCircle
 10
-0.361492
 20
-9.429328
 30
0.0
 40
3.594892
100
AcDbArc
 50
57.917035
 51
74.198236
  0
ARC
  5
697
100
AcDbEntity
  8
0
  6
CONTINUOUS
100
AcDbCircle
 10
-0.361492
 20
-3.656146
 30
0.0
 40
3.594892
100
AcDbArc
 50
285.807894
 51
302.082965
  0
ARC
  5
698
100
AcDbEntity
  8
0
  6
CONTINUOUS
100
AcDbCircle
 10
1.669738
 20
-6.542193
 30
0.0
 40
1.358727
100
AcDbArc
 50
160.488955
 51
199.562369
  0
LINE
  5
699
100
AcDbEntity
  8
0
  6
CONTINUOUS
100
AcDbLine
 10
-0.450474
 20
-3.417737
 30
0.0
 11
-0.450474
 21
-9.667737
 31
0.0
  0
ARC
  5
69B
100
AcDbEntity
  8
0
  6
CONTINUOUS
100
AcDbCircle
 10
0.566589
 20
-6.934191
 30
0.0
 40
0.188
100
AcDbArc
 50
199.562369
 51
285.807894
  0
ARC
  5
69E
100
AcDbEntity
  8
0
  6
CONTINUOUS
100
AcDbCircle
 10
0.566238
 20
-6.151184
 30
0.0
 40
0.188
100
AcDbArc
 50
74.198236
 51
160.488955
  0
ARC
  5
69F
100
AcDbEntity
  8
0
  6
CONTINUOUS
100
AcDbCircle
 10
5.710545
 20
-3.656146
 30
0.0
 40
3.594892
100
AcDbArc
 50
237.917035
 51
254.198236
  0
ARC
  5
6A0
100
AcDbEntity
  8
0
  6
CONTINUOUS
100
AcDbCircle
 10
3.679314
 20
-6.54328
 30
0.0
 40
1.358727
100
AcDbArc
 50
340.488955
 51
19.562369
  0
ARC
  5
6A1
100
AcDbEntity
  8
0
  6
CONTINUOUS
100
AcDbCircle
 10
3.49292
 20
-7.015237
 30
0.0
 40
0.118
100
AcDbArc
 50
60.0
 51
240.0
  0
ARC
  5
6A2
100
AcDbEntity
  8
0
  6
CONTINUOUS
100
AcDbCircle
 10
3.527128
 20
-7.034987
 30
0.0
 40
0.118
100
AcDbArc
 50
240.0
 51
60.0
  0
ARC
  5
6A3
100
AcDbEntity
  8
0
  6
CONTINUOUS
100
AcDbCircle
 10
1.856132
 20
-7.015237
 30
0.0
 40
0.118
100
AcDbArc
 50
300.0
 51
120.0
  0
ARC
  5
6A4
100
AcDbEntity
  8
0
  6
CONTINUOUS
100
AcDbCircle
 10
1.821924
 20
-7.034987
 30
0.0
 40
0.118
100
AcDbArc
 50
120.0
 51
300.0
  0
CIRCLE
  5
6A5
100
AcDbEntity
  8
LAYER_1
 62
     7
100
AcDbCircle
 10
2.674526
 20
-6.542737
 30
0.0
 40
0.500056
  0
ARC
  5
6A8
100
AcDbEntity
  8
0
  6
CONTINUOUS
100
AcDbCircle
 10
2.061297
 20
-7.604882
 30
0.0
 40
0.188
100
AcDbArc
 50
2.082965
 51
117.917035
  0
ARC
  5
6A9
100
AcDbEntity
  8
0
  6
CONTINUOUS
100
AcDbCircle
 10
1.281287
 20
-8.172791
 30
0.0
 40
0.188
100
AcDbArc
 50
134.198236
 51
220.488955
  0
ARC
  5
6AA
100
AcDbEntity
  8
0
  6
CONTINUOUS
100
AcDbCircle
 10
3.656378
 20
-10.615301
 30
0.0
 40
3.594892
100
AcDbArc
 50
117.917035
 51
134.198236
  0
ARC
  5
6AB
100
AcDbEntity
  8
0
  6
CONTINUOUS
100
AcDbCircle
 10
1.959567
 20
-8.563991
 30
0.0
 40
0.188
100
AcDbArc
 50
259.562369
 51
345.807894
  0
ARC
  5
6AC
100
AcDbEntity
  8
0
  6
CONTINUOUS
100
AcDbCircle
 10
2.171661
 20
-7.412637
 30
0.0
 40
1.358727
100
AcDbArc
 50
220.488955
 51
259.562369
  0
ARC
  5
6AD
100
AcDbEntity
  8
0
  6
CONTINUOUS
100
AcDbCircle
 10
-1.343344
 20
-7.72871
 30
0.0
 40
3.594892
100
AcDbArc
 50
345.807894
 51
2.082965
  0
ARC
  5
6AE
100
AcDbEntity
  8
0
  6
CONTINUOUS
100
AcDbCircle
 10
2.674526
 20
-7.487737
 30
0.0
 40
0.118
100
AcDbArc
 50
0.0
 51
180.0
  0
ARC
  5
6AF
100
AcDbEntity
  8
0
  6
CONTINUOUS
100
AcDbCircle
 10
2.674526
 20
-7.527237
 30
0.0
 40
0.118
100
AcDbArc
 50
180.0
 51
0.0
  0
LINE
  5
6B0
100
AcDbEntity
  8
0
  6
CONTINUOUS
100
AcDbLine
 10
2.792526
 20
-7.487737
 30
0.0
 11
2.792526
 21
-7.527237
 31
0.0
  0
LINE
  5
6B1
100
AcDbEntity
  8
0
  6
CONTINUOUS
100
AcDbLine
 10
2.556526
 20
-7.487737
 30
0.0
 11
2.556526
 21
-7.527237
 31
0.0
  0
LINE
  5
6B2
100
AcDbEntity
  8
0
  6
CONTINUOUS
100
AcDbLine
 10
1.915132
 20
-7.117428
 30
0.0
 11
1.880924
 21
-7.137178
 31
0.0
  0
CIRCLE
  5
6B3
100
AcDbEntity
  8
0
  6
CONTINUOUS
100
AcDbCircle
 10
1.651785
 20
-7.133298
 30
0.0
 40
0.118
  0
CIRCLE
  5
6B4
100
AcDbEntity
  8
0
  6
CONTINUOUS
100
AcDbCircle
 10
2.674526
 20
-7.723737
 30
0.0
 40
0.118
  0
CIRCLE
  5
6B5
100
AcDbEntity
  8
0
  6
CONTINUOUS
100
AcDbCircle
 10
1.39584
 20
-7.280987
 30
0.0
 40
0.1565
  0
CIRCLE
  5
6B6
100
AcDbEntity
  8
0
  6
CONTINUOUS
100
AcDbCircle
 10
2.674526
 20
-8.019237
 30
0.0
 40
0.1565
  0
ARC
  5
6B8
100
AcDbEntity
  8
0
  6
CONTINUOUS
100
AcDbCircle
 10
4.782815
 20
-6.93429
 30
0.0
 40
0.188
100
AcDbArc
 50
254.198236
 51
340.488955
  0
ARC
  5
6B9
100
AcDbEntity
  8
0
  6
CONTINUOUS
100
AcDbCircle
 10
3.287756
 20
-7.604882
 30
0.0
 40
0.188
100
AcDbArc
 50
62.082965
 51
177.917035
  0
ARC
  5
6BA
100
AcDbEntity
  8
0
  6
CONTINUOUS
100
AcDbCircle
 10
3.389576
 20
-8.564345
 30
0.0
 40
0.188
100
AcDbArc
 50
194.198236
 51
280.488955
  0
ARC
  5
6BB
100
AcDbEntity
  8
0
  6
CONTINUOUS
100
AcDbCircle
 10
6.692397
 20
-7.72871
 30
0.0
 40
3.594892
100
AcDbArc
 50
177.917035
 51
194.198236
  0
ARC
  5
6BC
100
AcDbEntity
  8
0
  6
CONTINUOUS
100
AcDbCircle
 10
4.067504
 20
-8.172537
 30
0.0
 40
0.188
100
AcDbArc
 50
319.562369
 51
45.807894
  0
ARC
  5
6BD
100
AcDbEntity
  8
0
  6
CONTINUOUS
100
AcDbCircle
 10
3.176449
 20
-7.413181
 30
0.0
 40
1.358727
100
AcDbArc
 50
280.488955
 51
319.562369
  0
ARC
  5
6BE
100
AcDbEntity
  8
0
  6
CONTINUOUS
100
AcDbCircle
 10
1.692675
 20
-10.615301
 30
0.0
 40
3.594892
100
AcDbArc
 50
45.807894
 51
62.082965
  0
LINE
  5
6BF
100
AcDbEntity
  8
0
  6
CONTINUOUS
100
AcDbLine
 10
3.43392
 20
-7.117428
 30
0.0
 11
3.468128
 21
-7.137178
 31
0.0
  0
CIRCLE
  5
6C0
100
AcDbEntity
  8
0
  6
CONTINUOUS
100
AcDbCircle
 10
3.697337
 20
-7.133176
 30
0.0
 40
0.118
  0
CIRCLE
  5
6C1
100
AcDbEntity
  8
0
  6
CONTINUOUS
100
AcDbCircle
 10
3.953213
 20
-7.280987
 30
0.0
 40
0.1565
  0
ARC
  5
6D5
100
AcDbEntity
  8
0
  6
CONTINUOUS
100
AcDbCircle
 10
1.448067
 20
-6.542737
 30
0.0
 40
0.188
100
AcDbArc
 50
302.082965
 51
57.917035
  0
ARC
  5
6D6
100
AcDbEntity
  8
0
  6
CONTINUOUS
100
AcDbCircle
 10
2.061297
 20
-5.480592
 30
0.0
 40
0.188
100
AcDbArc
 50
242.082965
 51
357.917035
  0
ARC
  5
6D7
100
AcDbEntity
  8
0
  6
CONTINUOUS
100
AcDbCircle
 10
1.959477
 20
-4.521129
 30
0.0
 40
0.188
100
AcDbArc
 50
14.198236
 51
100.488955
  0
ARC
  5
6D8
100
AcDbEntity
  8
0
  6
CONTINUOUS
100
AcDbCircle
 10
-1.343344
 20
-5.356763
 30
0.0
 40
3.594892
100
AcDbArc
 50
357.917035
 51
14.198236
  0
ARC
  5
6D9
100
AcDbEntity
  8
0
  6
CONTINUOUS
100
AcDbCircle
 10
1.281549
 20
-4.912936
 30
0.0
 40
0.188
100
AcDbArc
 50
139.562369
 51
225.807894
  0
ARC
  5
6DA
100
AcDbEntity
  8
0
  6
CONTINUOUS
100
AcDbCircle
 10
2.172603
 20
-5.672293
 30
0.0
 40
1.358727
100
AcDbArc
 50
100.488955
 51
139.562369
  0
ARC
  5
6DB
100
AcDbEntity
  8
0
  6
CONTINUOUS
100
AcDbCircle
 10
3.656378
 20
-2.470172
 30
0.0
 40
3.594892
100
AcDbArc
 50
225.807894
 51
242.082965
  0
LINE
  5
6DC
100
AcDbEntity
  8
0
  6
CONTINUOUS
100
AcDbLine
 10
1.797132
 20
-6.913046
 30
0.0
 11
1.762924
 21
-6.932796
 31
0.0
  0
ARC
  5
6DD
100
AcDbEntity
  8
0
  6
CONTINUOUS
100
AcDbCircle
 10
1.856132
 20
-6.070237
 30
0.0
 40
0.118
100
AcDbArc
 50
240.0
 51
60.0
  0
ARC
  5
6DE
100
AcDbEntity
  8
0
  6
CONTINUOUS
100
AcDbCircle
 10
1.821924
 20
-6.050487
 30
0.0
 40
0.118
100
AcDbArc
 50
60.0
 51
240.0
  0
LINE
  5
6DF
100
AcDbEntity
  8
0
  6
CONTINUOUS
100
AcDbLine
 10
1.797132
 20
-6.172428
 30
0.0
 11
1.762924
 21
-6.152678
 31
0.0
  0
LINE
  5
6E0
100
AcDbEntity
  8
0
  6
CONTINUOUS
100
AcDbLine
 10
1.915132
 20
-5.968046
 30
0.0
 11
1.880924
 21
-5.948296
 31
0.0
  0
LINE
  5
6E1
100
AcDbEntity
  8
0
  6
CONTINUOUS
100
AcDbLine
 10
2.792526
 20
-5.597737
 30
0.0
 11
2.792526
 21
-5.558237
 31
0.0
  0
LINE
  5
6E2
100
AcDbEntity
  8
0
  6
CONTINUOUS
100
AcDbLine
 10
2.556526
 20
-5.597737
 30
0.0
 11
2.556526
 21
-5.558237
 31
0.0
  0
ARC
  5
6E3
100
AcDbEntity
  8
0
  6
CONTINUOUS
100
AcDbCircle
 10
2.674526
 20
-5.558237
 30
0.0
 40
0.118
100
AcDbArc
 50
0.0
 51
180.0
  0
ARC
  5
6E4
100
AcDbEntity
  8
0
  6
CONTINUOUS
100
AcDbCircle
 10
2.674526
 20
-5.597737
 30
0.0
 40
0.118
100
AcDbArc
 50
180.0
 51
0.0
  0
CIRCLE
  5
6E5
100
AcDbEntity
  8
0
  6
CONTINUOUS
100
AcDbCircle
 10
2.674456
 20
-5.361737
 30
0.0
 40
0.118
  0
CIRCLE
  5
6E6
100
AcDbEntity
  8
0
  6
CONTINUOUS
100
AcDbCircle
 10
1.65175
 20
-5.952237
 30
0.0
 40
0.118
  0
CIRCLE
  5
6E7
100
AcDbEntity
  8
0
  6
CONTINUOUS
100
AcDbCircle
 10
2.674526
 20
-5.066237
 30
0.0
 40
0.1565
  0
CIRCLE
  5
6E8
100
AcDbEntity
  8
0
  6
CONTINUOUS
100
AcDbCircle
 10
1.39584
 20
-5.804487
 30
0.0
 40
0.1565
  0
ARC
  5
6EA
100
AcDbEntity
  8
0
  6
CONTINUOUS
100
AcDbCircle
 10
3.900986
 20
-6.542737
 30
0.0
 40
0.188
100
AcDbArc
 50
122.082965
 51
237.917035
  0
ARC
  5
6EB
100
AcDbEntity
  8
0
  6
CONTINUOUS
100
AcDbCircle
 10
4.782464
 20
-6.151283
 30
0.0
 40
0.188
100
AcDbArc
 50
19.562369
 51
105.807894
  0
ARC
  5
6EC
100
AcDbEntity
  8
0
  6
CONTINUOUS
100
AcDbCircle
 10
5.710545
 20
-9.429328
 30
0.0
 40
3.594892
100
AcDbArc
 50
105.807894
 51
122.082965
  0
ARC
  5
6ED
100
AcDbEntity
  8
0
  6
CONTINUOUS
100
AcDbCircle
 10
4.067765
 20
-4.912682
 30
0.0
 40
0.188
100
AcDbArc
 50
314.198236
 51
40.488955
  0
ARC
  5
6EE
100
AcDbEntity
  8
0
  6
CONTINUOUS
100
AcDbCircle
 10
3.389486
 20
-4.521482
 30
0.0
 40
0.188
100
AcDbArc
 50
79.562369
 51
165.807894
  0
ARC
  5
6EF
100
AcDbEntity
  8
0
  6
CONTINUOUS
100
AcDbCircle
 10
3.49292
 20
-6.070237
 30
0.0
 40
0.118
100
AcDbArc
 50
120.0
 51
300.0
  0
ARC
  5
6F0
100
AcDbEntity
  8
0
  6
CONTINUOUS
100
AcDbCircle
 10
3.527128
 20
-6.050487
 30
0.0
 40
0.118
100
AcDbArc
 50
300.0
 51
120.0
  0
LINE
  5
6F1
100
AcDbEntity
  8
0
  6
CONTINUOUS
100
AcDbLine
 10
3.43392
 20
-5.968046
 30
0.0
 11
3.468128
 21
-5.948296
 31
0.0
  0
LINE
  5
6F2
100
AcDbEntity
  8
0
  6
CONTINUOUS
100
AcDbLine
 10
3.55192
 20
-6.172428
 30
0.0
 11
3.586128
 21
-6.152678
 31
0.0
  0
LINE
  5
6F3
100
AcDbEntity
  8
0
  6
CONTINUOUS
100
AcDbLine
 10
3.55192
 20
-6.913046
 30
0.0
 11
3.586128
 21
-6.932796
 31
0.0
  0
CIRCLE
  5
6F4
100
AcDbEntity
  8
0
  6
CONTINUOUS
100
AcDbCircle
 10
3.697302
 20
-5.952237
 30
0.0
 40
0.118
  0
CIRCLE
  5
6F5
100
AcDbEntity
  8
0
  6
CONTINUOUS
100
AcDbCircle
 10
3.953213
 20
-5.804487
 30
0.0
 40
0.1565
  0
ARC
  5
6F6
100
AcDbEntity
  8
0
  6
CONTINUOUS
100
AcDbCircle
 10
3.177391
 20
-5.672837
 30
0.0
 40
1.358727
100
AcDbArc
 50
40.488955
 51
79.562369
  0
ARC
  5
6F7
100
AcDbEntity
  8
0
  6
CONTINUOUS
100
AcDbCircle
 10
1.692675
 20
-2.470172
 30
0.0
 40
3.594892
100
AcDbArc
 50
297.917035
 51
314.198236
  0
ARC
  5
6F8
100
AcDbEntity
  8
0
  6
CONTINUOUS
100
AcDbCircle
 10
6.692397
 20
-5.356763
 30
0.0
 40
3.594892
100
AcDbArc
 50
165.807894
 51
182.082965
  0
ARC
  5
6F9
100
AcDbEntity
  8
0
  6
CONTINUOUS
100
AcDbCircle
 10
3.287756
 20
-5.480592
 30
0.0
 40
0.188
100
AcDbArc
 50
182.082965
 51
297.917035
  0
ARC
  5
6FC
100
AcDbEntity
  8
0
  6
CONTINUOUS
100
AcDbCircle
 10
15.513483
 20
-3.656146
 30
0.0
 40
3.594892
100
AcDbArc
 50
237.917035
 51
246.451107
  0
ARC
  5
6FD
100
AcDbEntity
  8
0
  6
CONTINUOUS
100
AcDbCircle
 10
15.513483
 20
-9.429328
 30
0.0
 40
3.594892
100
AcDbArc
 50
113.555336
 51
122.082965
  0
ARC
  5
6FE
100
AcDbEntity
  8
0
  6
CONTINUOUS
100
AcDbCircle
 10
13.000511
 20
-7.449765
 30
0.0
 40
0.858727
100
AcDbArc
 50
279.396257
 51
320.688822
  0
ARC
  5
6FF
100
AcDbEntity
  8
0
  6
CONTINUOUS
100
AcDbCircle
 10
11.495612
 20
-10.615301
 30
0.0
 40
3.594892
100
AcDbArc
 50
53.555336
 51
62.082965
  0
LINE
  5
701
100
AcDbEntity
  8
0
  6
CONTINUOUS
100
AcDbLine
 10
9.852464
 20
-3.917737
 30
0.0
 11
15.102464
 21
-3.917737
 31
0.0
  0
LINE
  5
702
100
AcDbEntity
  8
0
  6
CONTINUOUS
100
AcDbLine
 10
9.852464
 20
-9.167737
 30
0.0
 11
15.102464
 21
-9.167737
 31
0.0
  0
ARC
  5
703
100
AcDbEntity
  8
0
  6
CONTINUOUS
100
AcDbCircle
 10
13.001451
 20
-5.636251
 30
0.0
 40
0.858727
100
AcDbArc
 50
39.396257
 51
80.688822
  0
CIRCLE
  5
707
100
AcDbEntity
  8
0
  6
CONTINUOUS
100
AcDbCircle
 10
13.756151
 20
-7.280987
 30
0.0
 40
0.1565
  0
CIRCLE
  5
708
100
AcDbEntity
  8
0
  6
CONTINUOUS
100
AcDbCircle
 10
13.756151
 20
-5.804487
 30
0.0
 40
0.1565
  0
ARC
  5
709
100
AcDbEntity
  8
0
  6
CONTINUOUS
100
AcDbCircle
 10
11.495612
 20
-2.470172
 30
0.0
 40
3.594892
100
AcDbArc
 50
297.917035
 51
306.451107
  0
LINE
  5
710
100
AcDbEntity
  8
0
  6
CONTINUOUS
100
AcDbLine
 10
5.799526
 20
-3.417737
 30
0.0
 11
5.799526
 21
-9.667737
 31
0.0
  0
ARC
  5
711
100
AcDbEntity
  8
0
  6
CONTINUOUS
100
AcDbCircle
 10
10.802957
 20
-6.779157
 30
0.0
 40
0.188
100
AcDbArc
 50
200.688822
 51
293.555336
  0
LINE
  5
712
100
AcDbEntity
  8
0
  6
CONTINUOUS
100
AcDbLine
 10
9.852464
 20
-9.167737
 30
0.0
 11
9.852464
 21
-3.917737
 31
0.0
  0
ARC
  5
713
100
AcDbEntity
  8
0
  6
CONTINUOUS
100
AcDbCircle
 10
13.330066
 20
-7.034987
 30
0.0
 40
0.118
100
AcDbArc
 50
240.0
 51
60.0
  0
ARC
  5
714
100
AcDbEntity
  8
0
  6
CONTINUOUS
100
AcDbCircle
 10
13.295858
 20
-7.015237
 30
0.0
 40
0.118
100
AcDbArc
 50
60.0
 51
240.0
  0
ARC
  5
715
100
AcDbEntity
  8
0
  6
CONTINUOUS
100
AcDbCircle
 10
11.624862
 20
-7.034987
 30
0.0
 40
0.118
100
AcDbArc
 50
120.0
 51
300.0
  0
ARC
  5
716
100
AcDbEntity
  8
0
  6
CONTINUOUS
100
AcDbCircle
 10
11.65907
 20
-7.015237
 30
0.0
 40
0.118
100
AcDbArc
 50
300.0
 51
120.0
  0
CIRCLE
  5
717
100
AcDbEntity
  8
LAYER_1
 62
     7
100
AcDbCircle
 10
12.477464
 20
-6.542737
 30
0.0
 40
0.500056
  0
ARC
  5
719
100
AcDbEntity
  8
0
  6
CONTINUOUS
100
AcDbCircle
 10
11.953478
 20
-7.449223
 30
0.0
 40
0.858727
100
AcDbArc
 50
219.396257
 51
260.688822
  0
ARC
  5
71A
100
AcDbEntity
  8
0
  6
CONTINUOUS
100
AcDbCircle
 10
13.459316
 20
-10.615301
 30
0.0
 40
3.594892
100
AcDbArc
 50
117.917035
 51
126.451107
  0
ARC
  5
71B
100
AcDbEntity
  8
0
  6
CONTINUOUS
100
AcDbCircle
 10
11.907016
 20
-7.529702
 30
0.0
 40
1.358727
100
AcDbArc
 50
218.798397
 51
261.253392
  0
CIRCLE
  5
71C
100
AcDbEntity
  8
0
  6
CONTINUOUS
100
AcDbCircle
 10
11.454723
 20
-7.133298
 30
0.0
 40
0.118
  0
ARC
  5
71E
100
AcDbEntity
  8
0
  6
CONTINUOUS
100
AcDbCircle
 10
11.435157
 20
-7.87492
 30
0.0
 40
0.188
100
AcDbArc
 50
126.451107
 51
219.396257
  0
CIRCLE
  5
71F
100
AcDbEntity
  8
0
  6
CONTINUOUS
100
AcDbCircle
 10
11.198778
 20
-7.280987
 30
0.0
 40
0.1565
  0
ARC
  5
721
100
AcDbEntity
  8
0
  6
CONTINUOUS
100
AcDbCircle
 10
13.090694
 20
-7.604882
 30
0.0
 40
0.188
100
AcDbArc
 50
62.082965
 51
177.917035
  0
ARC
  5
722
100
AcDbEntity
  8
0
  6
CONTINUOUS
100
AcDbCircle
 10
16.495335
 20
-7.72871
 30
0.0
 40
3.594892
100
AcDbArc
 50
177.917035
 51
186.451107
  0
ARC
  5
723
100
AcDbEntity
  8
0
  6
CONTINUOUS
100
AcDbCircle
 10
13.110015
 20
-8.111493
 30
0.0
 40
0.188
100
AcDbArc
 50
186.451107
 51
279.396257
  0
ARC
  5
724
100
AcDbEntity
  8
0
  6
CONTINUOUS
100
AcDbCircle
 10
11.844957
 20
-8.111112
 30
0.0
 40
0.188
100
AcDbArc
 50
260.688822
 51
353.555336
  0
ARC
  5
725
100
AcDbEntity
  8
0
  6
CONTINUOUS
100
AcDbCircle
 10
11.864235
 20
-7.604882
 30
0.0
 40
0.188
100
AcDbArc
 50
2.082965
 51
117.917035
  0
ARC
  5
726
100
AcDbEntity
  8
0
  6
CONTINUOUS
100
AcDbCircle
 10
8.459594
 20
-7.72871
 30
0.0
 40
3.594892
100
AcDbArc
 50
353.555336
 51
2.082965
  0
LINE
  5
727
100
AcDbEntity
  8
0
  6
CONTINUOUS
100
AcDbLine
 10
13.236858
 20
-7.117428
 30
0.0
 11
13.271066
 21
-7.137178
 31
0.0
  0
LINE
  5
728
100
AcDbEntity
  8
0
  6
CONTINUOUS
100
AcDbLine
 10
12.359464
 20
-7.487737
 30
0.0
 11
12.359464
 21
-7.527237
 31
0.0
  0
LINE
  5
729
100
AcDbEntity
  8
0
  6
CONTINUOUS
100
AcDbLine
 10
12.595464
 20
-7.487737
 30
0.0
 11
12.595464
 21
-7.527237
 31
0.0
  0
ARC
  5
72A
100
AcDbEntity
  8
0
  6
CONTINUOUS
100
AcDbCircle
 10
12.477464
 20
-7.527237
 30
0.0
 40
0.118
100
AcDbArc
 50
180.0
 51
0.0
  0
ARC
  5
72B
100
AcDbEntity
  8
0
  6
CONTINUOUS
100
AcDbCircle
 10
12.477464
 20
-7.487737
 30
0.0
 40
0.118
100
AcDbArc
 50
0.0
 51
180.0
  0
LINE
  5
72C
100
AcDbEntity
  8
0
  6
CONTINUOUS
100
AcDbLine
 10
11.71807
 20
-7.117428
 30
0.0
 11
11.683862
 21
-7.137178
 31
0.0
  0
CIRCLE
  5
72D
100
AcDbEntity
  8
0
  6
CONTINUOUS
100
AcDbCircle
 10
12.477464
 20
-8.019237
 30
0.0
 40
0.1565
  0
CIRCLE
  5
72E
100
AcDbEntity
  8
0
  6
CONTINUOUS
100
AcDbCircle
 10
12.477464
 20
-7.723737
 30
0.0
 40
0.118
  0
CIRCLE
  5
72F
100
AcDbEntity
  8
0
  6
CONTINUOUS
100
AcDbCircle
 10
13.500275
 20
-7.133176
 30
0.0
 40
0.118
  0
ARC
  5
731
100
AcDbEntity
  8
0
  6
CONTINUOUS
100
AcDbCircle
 10
11.954418
 20
-5.635708
 30
0.0
 40
0.858727
100
AcDbArc
 50
99.396257
 51
140.688822
  0
ARC
  5
732
100
AcDbEntity
  8
0
  6
CONTINUOUS
100
AcDbCircle
 10
13.459316
 20
-2.470172
 30
0.0
 40
3.594892
100
AcDbArc
 50
233.555336
 51
242.082965
  0
ARC
  5
733
100
AcDbEntity
  8
0
  6
CONTINUOUS
100
AcDbCircle
 10
11.624862
 20
-6.050487
 30
0.0
 40
0.118
100
AcDbArc
 50
60.0
 51
240.0
  0
CIRCLE
  5
734
100
AcDbEntity
  8
0
  6
CONTINUOUS
100
AcDbCircle
 10
11.454688
 20
-5.952237
 30
0.0
 40
0.118
  0
ARC
  5
737
100
AcDbEntity
  8
0
  6
CONTINUOUS
100
AcDbCircle
 10
11.430431
 20
-6.542194
 30
0.0
 40
0.858727
100
AcDbArc
 50
159.396257
 51
200.688822
  0
ARC
  5
738
100
AcDbEntity
  8
0
  6
CONTINUOUS
100
AcDbCircle
 10
11.251005
 20
-6.542737
 30
0.0
 40
0.188
100
AcDbArc
 50
302.082965
 51
57.917035
  0
ARC
  5
739
100
AcDbEntity
  8
0
  6
CONTINUOUS
100
AcDbCircle
 10
9.441446
 20
-9.429328
 30
0.0
 40
3.594892
100
AcDbArc
 50
57.917035
 51
66.451107
  0
ARC
  5
73A
100
AcDbEntity
  8
0
  6
CONTINUOUS
100
AcDbCircle
 10
9.441446
 20
-3.656146
 30
0.0
 40
3.594892
100
AcDbArc
 50
293.555336
 51
302.082965
  0
ARC
  5
73B
100
AcDbEntity
  8
0
  6
CONTINUOUS
100
AcDbCircle
 10
10.802606
 20
-6.306164
 30
0.0
 40
0.188
100
AcDbArc
 50
66.451107
 51
159.396257
  0
ARC
  5
73C
100
AcDbEntity
  8
0
  6
CONTINUOUS
100
AcDbCircle
 10
11.435465
 20
-5.210781
 30
0.0
 40
0.188
100
AcDbArc
 50
140.688822
 51
233.555336
  0
CIRCLE
  5
73D
100
AcDbEntity
  8
0
  6
CONTINUOUS
100
AcDbCircle
 10
11.198778
 20
-5.804487
 30
0.0
 40
0.1565
  0
ARC
  5
740
100
AcDbEntity
  8
0
  6
CONTINUOUS
100
AcDbCircle
 10
13.703924
 20
-6.542737
 30
0.0
 40
0.188
100
AcDbArc
 50
122.082965
 51
237.917035
  0
ARC
  5
741
100
AcDbEntity
  8
0
  6
CONTINUOUS
100
AcDbCircle
 10
11.864235
 20
-5.480592
 30
0.0
 40
0.188
100
AcDbArc
 50
242.082965
 51
357.917035
  0
ARC
  5
742
100
AcDbEntity
  8
0
  6
CONTINUOUS
100
AcDbCircle
 10
8.459594
 20
-5.356763
 30
0.0
 40
3.594892
100
AcDbArc
 50
357.917035
 51
6.451107
  0
ARC
  5
743
100
AcDbEntity
  8
0
  6
CONTINUOUS
100
AcDbCircle
 10
11.844914
 20
-4.973981
 30
0.0
 40
0.188
100
AcDbArc
 50
6.451107
 51
99.396257
  0
ARC
  5
744
100
AcDbEntity
  8
0
  6
CONTINUOUS
100
AcDbCircle
 10
13.109972
 20
-4.974361
 30
0.0
 40
0.188
100
AcDbArc
 50
80.688822
 51
173.555336
  0
LINE
  5
746
100
AcDbEntity
  8
0
  6
CONTINUOUS
100
AcDbLine
 10
13.354858
 20
-6.172428
 30
0.0
 11
13.389066
 21
-6.152678
 31
0.0
  0
LINE
  5
747
100
AcDbEntity
  8
0
  6
CONTINUOUS
100
AcDbLine
 10
13.236858
 20
-5.968046
 30
0.0
 11
13.271066
 21
-5.948296
 31
0.0
  0
ARC
  5
748
100
AcDbEntity
  8
0
  6
CONTINUOUS
100
AcDbCircle
 10
13.330066
 20
-6.050487
 30
0.0
 40
0.118
100
AcDbArc
 50
300.0
 51
120.0
  0
ARC
  5
749
100
AcDbEntity
  8
0
  6
CONTINUOUS
100
AcDbCircle
 10
13.295858
 20
-6.070237
 30
0.0
 40
0.118
100
AcDbArc
 50
120.0
 51
300.0
  0
LINE
  5
74A
100
AcDbEntity
  8
0
  6
CONTINUOUS
100
AcDbLine
 10
13.354858
 20
-6.913046
 30
0.0
 11
13.389066
 21
-6.932796
 31
0.0
  0
LINE
  5
74B
100
AcDbEntity
  8
0
  6
CONTINUOUS
100
AcDbLine
 10
11.60007
 20
-6.913046
 30
0.0
 11
11.565862
 21
-6.932796
 31
0.0
  0
LINE
  5
74C
100
AcDbEntity
  8
0
  6
CONTINUOUS
100
AcDbLine
 10
11.71807
 20
-5.968046
 30
0.0
 11
11.683862
 21
-5.948296
 31
0.0
  0
LINE
  5
74D
100
AcDbEntity
  8
0
  6
CONTINUOUS
100
AcDbLine
 10
11.60007
 20
-6.172428
 30
0.0
 11
11.565862
 21
-6.152678
 31
0.0
  0
ARC
  5
74E
100
AcDbEntity
  8
0
  6
CONTINUOUS
100
AcDbCircle
 10
11.65907
 20
-6.070237
 30
0.0
 40
0.118
100
AcDbArc
 50
240.0
 51
60.0
  0
LINE
  5
74F
100
AcDbEntity
  8
0
  6
CONTINUOUS
100
AcDbLine
 10
12.359464
 20
-5.597737
 30
0.0
 11
12.359464
 21
-5.558237
 31
0.0
  0
LINE
  5
750
100
AcDbEntity
  8
0
  6
CONTINUOUS
100
AcDbLine
 10
12.595464
 20
-5.597737
 30
0.0
 11
12.595464
 21
-5.558237
 31
0.0
  0
ARC
  5
751
100
AcDbEntity
  8
0
  6
CONTINUOUS
100
AcDbCircle
 10
12.477464
 20
-5.597737
 30
0.0
 40
0.118
100
AcDbArc
 50
180.0
 51
0.0
  0
ARC
  5
752
100
AcDbEntity
  8
0
  6
CONTINUOUS
100
AcDbCircle
 10
13.090694
 20
-5.480592
 30
0.0
 40
0.188
100
AcDbArc
 50
182.082965
 51
297.917035
  0
ARC
  5
753
100
AcDbEntity
  8
0
  6
CONTINUOUS
100
AcDbCircle
 10
12.477464
 20
-5.558237
 30
0.0
 40
0.118
100
AcDbArc
 50
0.0
 51
180.0
  0
CIRCLE
  5
754
100
AcDbEntity
  8
0
  6
CONTINUOUS
100
AcDbCircle
 10
13.50024
 20
-5.952237
 30
0.0
 40
0.118
  0
CIRCLE
  5
755
100
AcDbEntity
  8
0
  6
CONTINUOUS
100
AcDbCircle
 10
12.477394
 20
-5.361737
 30
0.0
 40
0.118
  0
ARC
  5
756
100
AcDbEntity
  8
0
  6
CONTINUOUS
100
AcDbCircle
 10
16.495335
 20
-5.356763
 30
0.0
 40
3.594892
100
AcDbArc
 50
173.555336
 51
182.082965
  0
CIRCLE
  5
757
100
AcDbEntity
  8
0
  6
CONTINUOUS
100
AcDbCircle
 10
12.477464
 20
-5.066237
 30
0.0
 40
0.1565
  0
ARC
  5
758
100
AcDbEntity
  8
0
  6
CONTINUOUS
100
AcDbCircle
 10
14.152322
 20
-6.77931
 30
0.0
 40
0.188
100
AcDbArc
 50
246.451107
 51
339.396257
  0
LINE
  5
759
100
AcDbEntity
  8
0
  6
CONTINUOUS
100
AcDbLine
 10
15.102464
 20
-9.167737
 30
0.0
 11
15.102464
 21
-3.917737
 31
0.0
  0
ARC
  5
75B
100
AcDbEntity
  8
0
  6
CONTINUOUS
100
AcDbCircle
 10
13.519463
 20
-7.874692
 30
0.0
 40
0.188
100
AcDbArc
 50
320.688822
 51
53.555336
  0
ARC
  5
765
100
AcDbEntity
  8
0
  6
CONTINUOUS
100
AcDbCircle
 10
14.151971
 20
-6.306317
 30
0.0
 40
0.188
100
AcDbArc
 50
20.688822
 51
113.555336
  0
ARC
  5
766
100
AcDbEntity
  8
0
  6
CONTINUOUS
100
AcDbCircle
 10
13.524497
 20
-6.543279
 30
0.0
 40
0.858727
100
AcDbArc
 50
339.396257
 51
20.688822
  0
ARC
  5
767
100
AcDbEntity
  8
0
  6
CONTINUOUS
100
AcDbCircle
 10
13.519772
 20
-5.210554
 30
0.0
 40
0.188
100
AcDbArc
 50
306.451107
 51
39.396257
  0
LINE
  5
7BE
100
AcDbEntity
  8
0
  6
CONTINUOUS
100
AcDbLine
 10
-1.884814
 20
-1.842319
 30
0.0
 11
20.727175
 21
7.362465
 31
0.0
  0
LINE
  5
7BF
100
AcDbEntity
  8
0
  6
CONTINUOUS
100
AcDbLine
 10
-1.181187
 20
6.883049
 30
0.0
 11
17.976636
 21
-1.938202
 31
0.0
  0
MTEXT
  5
7C3
102
{ACAD_REACTORS
330
7C2
102
}
100
AcDbEntity
  8
0
  6
CONTINUOUS
 62
    56
100
AcDbMText
 10
10.084698
 20
-3.70853
 30
0.0
 40
0.18
 41
0.0
 71
     4
 72
     1
  1
Excess 0.02"for lathe trimming.
  0
MTEXT
  5
7C4
102
{ACAD_REACTORS
330
7C5
102
}
100
AcDbEntity
  8
0
  6
CONTINUOUS
 62
    56
100
AcDbMText
 10
0.309575
 20
-3.175889
 30
0.0
 40
0.18
 41
0.0
 71
     4
 72
     1
  1
Excess 0.015"for lathe trimming.
  0
CIRCLE
  5
7CD
100
AcDbEntity
  8
0
  6
CONTINUOUS
100
AcDbCircle
 10
21.202934
 20
-7.090807
 30
0.0
 40
0.118
  0
CIRCLE
  5
7CF
100
AcDbEntity
  8
0
  6
CONTINUOUS
100
AcDbCircle
 10
22.383873
 20
-7.090772
 30
0.0
 40
0.118
  0
CIRCLE
  5
7DC
100
AcDbEntity
  8
0
  6
CONTINUOUS
100
AcDbCircle
 10
20.514747
 20
-8.851833
 30
0.0
 40
0.1565
  0
CIRCLE
  5
7E4
100
AcDbEntity
  8
0
  6
CONTINUOUS
100
AcDbCircle
 10
22.974434
 20
-8.113583
 30
0.0
 40
0.118
  0
CIRCLE
  5
7E5
100
AcDbEntity
  8
0
  6
CONTINUOUS
100
AcDbCircle
 10
21.793434
 20
-9.590083
 30
0.0
 40
0.1565
  0
CIRCLE
  5
7F2
100
AcDbEntity
  8
0
  6
CONTINUOUS
100
AcDbCircle
 10
22.383995
 20
-9.136324
 30
0.0
 40
0.118
  0
CIRCLE
  5
7F7
100
AcDbEntity
  8
0
  6
CONTINUOUS
100
AcDbCircle
 10
20.514747
 20
-7.375333
 30
0.0
 40
0.1565
  0
CIRCLE
  5
7FB
100
AcDbEntity
  8
0
  6
CONTINUOUS
100
AcDbCircle
 10
21.793434
 20
-6.637083
 30
0.0
 40
0.1565
  0
CIRCLE
  5
7FD
100
AcDbEntity
  8
0
  6
CONTINUOUS
100
AcDbCircle
 10
20.612434
 20
-8.113653
 30
0.0
 40
0.118
  0
CIRCLE
  5
80D
100
AcDbEntity
  8
0
  6
CONTINUOUS
100
AcDbCircle
 10
21.202934
 20
-9.136359
 30
0.0
 40
0.118
  0
CIRCLE
  5
815
100
AcDbEntity
  8
0
  6
CONTINUOUS
100
AcDbCircle
 10
23.07212
 20
-8.851833
 30
0.0
 40
0.1565
  0
CIRCLE
  5
819
100
AcDbEntity
  8
0
  6
CONTINUOUS
100
AcDbCircle
 10
23.07212
 20
-7.375333
 30
0.0
 40
0.1565
  0
CIRCLE
  5
81A
100
AcDbEntity
  8
0
  6
CONTINUOUS
100
AcDbCircle
 10
21.793434
 20
-8.113583
 30
0.0
 40
0.4575
  0
CIRCLE
  5
839
100
AcDbEntity
  8
0
  6
CONTINUOUS
100
AcDbCircle
 10
21.793434
 20
-8.113583
 30
0.0
 40
1.87025
  0
LINE
  5
83B
100
AcDbEntity
  8
0
  6
CONTINUOUS
100
AcDbLine
 10
24.600937
 20
-6.243333
 30
0.0
 11
24.788437
 21
-6.243333
 31
0.0
  0
LINE
  5
83C
100
AcDbEntity
  8
0
  6
CONTINUOUS
100
AcDbLine
 10
24.788437
 20
-6.243333
 30
0.0
 11
24.788437
 21
-9.983833
 31
0.0
  0
LINE
  5
83D
100
AcDbEntity
  8
0
  6
CONTINUOUS
100
AcDbLine
 10
24.600937
 20
-9.983833
 30
0.0
 11
24.788437
 21
-9.983833
 31
0.0
  0
LINE
  5
83E
100
AcDbEntity
  8
0
  6
CONTINUOUS
100
AcDbLine
 10
24.600937
 20
-6.243333
 30
0.0
 11
24.600937
 21
-9.983833
 31
0.0
  0
TEXT
  5
84E
100
AcDbEntity
  8
0
  6
CONTINUOUS
100
AcDbText
 10
21.251418
 20
-5.208309
 30
0.0
 40
0.2
  1
P-51 Crush Plate
100
AcDbText
  0
CIRCLE
  5
851
100
AcDbEntity
  8
0
  6
CONTINUOUS
100
AcDbCircle
 10
28.862333
 20
-9.246133
 30
0.0
 40
0.118
  0
ARC
  5
852
100
AcDbEntity
  8
0
  6
CONTINUOUS
100
AcDbCircle
 10
29.222771
 20
-7.968493
 30
0.0
 40
0.118
100
AcDbArc
 50
285.003407
 51
105.003407
  0
CIRCLE
  5
853
100
AcDbEntity
  8
0
  6
CONTINUOUS
100
AcDbCircle
 10
27.249021
 20
-7.632918
 30
0.0
 40
0.118
  0
ARC
  5
854
100
AcDbEntity
  8
0
  6
CONTINUOUS
100
AcDbCircle
 10
28.968021
 20
-8.919462
 30
0.0
 40
0.118
100
AcDbArc
 50
225.003407
 51
45.003407
  0
CIRCLE
  5
86C
100
AcDbEntity
  8
0
  6
CONTINUOUS
100
AcDbCircle
 10
29.452833
 20
-8.223287
 30
0.0
 40
0.118
  0
ARC
  5
86D
100
AcDbEntity
  8
0
  6
CONTINUOUS
100
AcDbCircle
 10
28.526583
 20
-7.272388
 30
0.0
 40
0.118
100
AcDbArc
 50
345.003407
 51
165.003407
  0
ARC
  5
86F
100
AcDbEntity
  8
0
  6
CONTINUOUS
100
AcDbCircle
 10
28.516362
 20
-7.310542
 30
0.0
 40
0.118
100
AcDbArc
 50
165.003407
 51
345.003407
  0
LINE
  5
870
100
AcDbEntity
  8
0
  6
CONTINUOUS
100
AcDbLine
 10
28.630343
 20
-7.341076
 30
0.0
 11
28.640564
 21
-7.302922
 31
0.0
  0
LINE
  5
871
100
AcDbEntity
  8
0
  6
CONTINUOUS
100
AcDbLine
 10
28.402381
 20
-7.280009
 30
0.0
 11
28.412602
 21
-7.241854
 31
0.0
  0
ARC
  5
872
100
AcDbEntity
  8
0
  6
CONTINUOUS
100
AcDbCircle
 10
27.603577
 20
-7.555181
 30
0.0
 40
0.118
100
AcDbArc
 50
225.003407
 51
45.003407
  0
LINE
  5
873
100
AcDbEntity
  8
0
  6
CONTINUOUS
100
AcDbLine
 10
27.520143
 20
-7.638624
 30
0.0
 11
27.492211
 21
-7.610695
 31
0.0
  0
LINE
  5
874
100
AcDbEntity
  8
0
  6
CONTINUOUS
100
AcDbLine
 10
27.687011
 20
-7.471737
 30
0.0
 11
27.659078
 21
-7.443808
 31
0.0
  0
ARC
  5
875
100
AcDbEntity
  8
0
  6
CONTINUOUS
100
AcDbCircle
 10
29.184618
 20
-7.978719
 30
0.0
 40
0.118
100
AcDbArc
 50
105.003407
 51
285.003407
  0
LINE
  5
876
100
AcDbEntity
  8
0
  6
CONTINUOUS
100
AcDbLine
 10
29.154071
 20
-7.864741
 30
0.0
 11
29.192224
 21
-7.854516
 31
0.0
  0
LINE
  5
877
100
AcDbEntity
  8
0
  6
CONTINUOUS
100
AcDbLine
 10
29.215165
 20
-8.092696
 30
0.0
 11
29.253319
 21
-8.08247
 31
0.0
  0
CIRCLE
  5
87C
100
AcDbEntity
  8
0
  6
CONTINUOUS
100
AcDbCircle
 10
29.294609
 20
-8.813857
 30
0.0
 40
0.118
  0
ARC
  5
87D
100
AcDbEntity
  8
0
  6
CONTINUOUS
100
AcDbCircle
 10
27.575645
 20
-7.527252
 30
0.0
 40
0.118
100
AcDbArc
 50
45.003407
 51
225.003407
  0
LINE
  5
87F
100
AcDbEntity
  8
0
  6
CONTINUOUS
100
AcDbLine
 10
27.3285
 20
-8.354018
 30
0.0
 11
27.290346
 21
-8.364243
 31
0.0
  0
LINE
  5
880
100
AcDbEntity
  8
0
  6
CONTINUOUS
100
AcDbLine
 10
29.023522
 20
-8.808089
 30
0.0
 11
29.051454
 21
-8.836019
 31
0.0
  0
LINE
  5
882
100
AcDbEntity
  8
0
  6
CONTINUOUS
100
AcDbLine
 10
27.389595
 20
-8.581973
 30
0.0
 11
27.351441
 21
-8.592198
 31
0.0
  0
LINE
  5
883
100
AcDbEntity
  8
0
  6
CONTINUOUS
100
AcDbLine
 10
28.856655
 20
-8.974977
 30
0.0
 11
28.884587
 21
-9.002906
 31
0.0
  0
ARC
  5
884
100
AcDbEntity
  8
0
  6
CONTINUOUS
100
AcDbCircle
 10
27.359047
 20
-8.467995
 30
0.0
 40
0.118
100
AcDbArc
 50
285.003407
 51
105.003407
  0
ARC
  5
885
100
AcDbEntity
  8
0
  6
CONTINUOUS
100
AcDbCircle
 10
27.320894
 20
-8.478221
 30
0.0
 40
0.118
100
AcDbArc
 50
105.003407
 51
285.003407
  0
ARC
  5
886
100
AcDbEntity
  8
0
  6
CONTINUOUS
100
AcDbCircle
 10
28.940088
 20
-8.891533
 30
0.0
 40
0.118
100
AcDbArc
 50
45.003407
 51
225.003407
  0
CIRCLE
  5
888
100
AcDbEntity
  8
0
  6
CONTINUOUS
100
AcDbCircle
 10
27.090833
 20
-8.223357
 30
0.0
 40
0.118
  0
ARC
  5
88A
100
AcDbEntity
  8
0
  6
CONTINUOUS
100
AcDbCircle
 10
28.027303
 20
-9.136171
 30
0.0
 40
0.118
100
AcDbArc
 50
345.003407
 51
165.003407
  0
ARC
  5
88B
100
AcDbEntity
  8
0
  6
CONTINUOUS
100
AcDbCircle
 10
28.017082
 20
-9.174326
 30
0.0
 40
0.118
100
AcDbArc
 50
165.003407
 51
345.003407
  0
LINE
  5
88C
100
AcDbEntity
  8
0
  6
CONTINUOUS
100
AcDbLine
 10
28.141284
 20
-9.166705
 30
0.0
 11
28.131063
 21
-9.20486
 31
0.0
  0
LINE
  5
88D
100
AcDbEntity
  8
0
  6
CONTINUOUS
100
AcDbLine
 10
27.913322
 20
-9.105637
 30
0.0
 11
27.903101
 21
-9.143792
 31
0.0
  0
CIRCLE
  5
893
100
AcDbEntity
  8
0
  6
CONTINUOUS
100
AcDbCircle
 10
27.681272
 20
-7.200616
 30
0.0
 40
0.118
  0
CIRCLE
  5
89E
100
AcDbEntity
  8
0
  6
CONTINUOUS
100
AcDbCircle
 10
28.271833
 20
-8.223357
 30
0.0
 40
0.3935
  0
CIRCLE
  5
8A1
100
AcDbEntity
  8
0
  6
CONTINUOUS
100
AcDbCircle
 10
28.271833
 20
-8.223357
 30
0.0
 40
1.4765
  0
CIRCLE
  5
8AE
100
AcDbEntity
  8
0
  6
CONTINUOUS
100
AcDbCircle
 10
28.862333
 20
-7.200581
 30
0.0
 40
0.118
  0
CIRCLE
  5
8AF
100
AcDbEntity
  8
0
  6
CONTINUOUS
100
AcDbCircle
 10
27.681393
 20
-9.246168
 30
0.0
 40
0.118
  0
LINE
  5
8B3
100
AcDbEntity
  8
0
  6
CONTINUOUS
100
AcDbLine
 10
30.883069
 20
-6.746857
 30
0.0
 11
31.070569
 21
-6.746857
 31
0.0
  0
LINE
  5
8B4
100
AcDbEntity
  8
0
  6
CONTINUOUS
100
AcDbLine
 10
31.070569
 20
-6.746857
 30
0.0
 11
31.070569
 21
-9.699857
 31
0.0
  0
LINE
  5
8B5
100
AcDbEntity
  8
0
  6
CONTINUOUS
100
AcDbLine
 10
30.883069
 20
-9.699857
 30
0.0
 11
31.070569
 21
-9.699857
 31
0.0
  0
LINE
  5
8B6
100
AcDbEntity
  8
0
  6
CONTINUOUS
100
AcDbLine
 10
30.883069
 20
-6.746857
 30
0.0
 11
30.883069
 21
-9.699857
 31
0.0
  0
DIMENSION
  5
8C2
100
AcDbEntity
  8
0
  6
CONTINUOUS
100
AcDbDimension
  2
*D25
 10
27.767687
 20
-7.280968
 30
0.0
 11
26.199745
 21
-6.548311
 31
0.0
 12
-3.495596
 22
-1.68062
 32
0.0
 70
   163
  3
STANDARD
100
AcDbDiametricDimension
 15
27.594857
 25
-7.120264
 35
0.0
 40
0.0
1001
ACAD
1000
DSTYLE
1002
{
1070
   288
1070
     1
1070
   287
1070
     3
1002
}
  0
TEXT
  5
8C3
100
AcDbEntity
  8
0
  6
CONTINUOUS
100
AcDbText
 10
26.331328
 20
-5.596257
 30
0.0
 40
0.2
  1
Madonna Crush Plate
100
AcDbText
  0
DIMENSION
  5
8D1
100
AcDbEntity
  8
0
  6
CONTINUOUS
100
AcDbDimension
  2
*D26
 10
30.883069
 20
-6.27936
 30
0.0
 11
30.028069
 21
-6.27936
 31
0.0
 70
    32
  3
STANDARD
100
AcDbAlignedDimension
 13
31.070569
 23
-6.746857
 33
0.0
 14
30.883069
 24
-6.746857
 34
0.0
100
AcDbRotatedDimension
1001
ACAD
1000
DSTYLE
1002
{
1070
   287
1070
     3
1002
}
  0
CIRCLE
  5
8E0
100
AcDbEntity
  8
0
  6
CONTINUOUS
 62
   202
100
AcDbCircle
 10
12.477464
 20
-6.542737
 30
0.0
 40
2.425
  0
CIRCLE
  5
8E2
100
AcDbEntity
  8
0
  6
CONTINUOUS
 62
   202
100
AcDbCircle
 10
12.477464
 20
-6.542737
 30
0.0
 40
2.491
  0
CIRCLE
  5
8E3
100
AcDbEntity
  8
0
  6
CONTINUOUS
 62
   202
100
AcDbCircle
 10
12.477464
 20
-6.542737
 30
0.0
 40
2.531
  0
CIRCLE
  5
8E4
100
AcDbEntity
  8
0
  6
CONTINUOUS
100
AcDbCircle
 10
12.477464
 20
-6.542737
 30
0.0
 40
2.551
  0
DIMENSION
  5
8F0
100
AcDbEntity
  8
0
  6
CONTINUOUS
100
AcDbDimension
  2
*D28
 10
10.943211
 20
-8.580791
 30
0.0
 11
15.022259
 21
-4.158587
 31
0.0
 70
   163
  3
STANDARD
100
AcDbDiametricDimension
 15
14.011718
 25
-4.504682
 35
0.0
 40
0.0
1001
ACAD
1000
DSTYLE
1002
{
1070
   288
1070
     1
1070
   287
1070
     3
1002
}
  0
CIRCLE
  5
8F2
100
AcDbEntity
  8
0
  6
CONTINUOUS
 62
   204
100
AcDbCircle
 10
2.674553
 20
-6.544666
 30
0.0
 40
3.025
  0
CIRCLE
  5
8F3
100
AcDbEntity
  8
0
  6
CONTINUOUS
 62
   204
100
AcDbCircle
 10
2.674553
 20
-6.544666
 30
0.0
 40
2.98
  0
CIRCLE
  5
8F5
100
AcDbEntity
  8
0
  6
CONTINUOUS
 62
   204
100
AcDbCircle
 10
2.674553
 20
-6.544666
 30
0.0
 40
2.917
  0
CIRCLE
  5
8F6
100
AcDbEntity
  8
0
  6
CONTINUOUS
100
AcDbCircle
 10
2.674553
 20
-6.544666
 30
0.0
 40
3.045
  0
DIMENSION
  5
902
100
AcDbEntity
  8
0
  6
CONTINUOUS
100
AcDbDimension
  2
*D29
 10
0.917943
 20
-9.007377
 30
0.0
 11
5.474826
 21
-3.691279
 31
0.0
 70
   163
  3
STANDARD
100
AcDbDiametricDimension
 15
4.431164
 25
-4.081955
 35
0.0
 40
0.0
1001
ACAD
1000
DSTYLE
1002
{
1070
   288
1070
     1
1070
   287
1070
     3
1002
}
  0
ENDSEC
  0
SECTION
  2
OBJECTS
  0
DICTIONARY
  5
19
100
AcDbDictionary
  3
ACAD_GROUP
350
1A
  3
ACAD_MLINESTYLE
350
1B
  0
DICTIONARY
  5
1A
102
{ACAD_REACTORS
330
19
102
}
100
AcDbDictionary
  0
DICTIONARY
  5
1B
102
{ACAD_REACTORS
330
19
102
}
100
AcDbDictionary
  3
STANDARD
350
1C
  0
MLINESTYLE
  5
1C
102
{ACAD_REACTORS
330
1B
102
}
100
AcDbMlineStyle
  2
STANDARD
 70
     0
  3

 62
     0
 51
90.0
 52
90.0
 71
     2
 49
0.5
 62
   256
  6
BYLAYER
 49
-0.5
 62
   256
  6
BYLAYER
  0
ENDSEC
  0
EOF
