  0
SECTION
  2
HEADER
  9
$ACADVER
  1
AC1015
  9
$ACADMAINTVER
 70
           6
  9
$DWGCODEPAGE
  3
DOS850
  9
$INSBASE
 10
0.0
 20
0.0
 30
0.0
  9
$EXTMIN
 10
-1.4084347133
 20
-0.5910037159
 30
0.0
  9
$EXTMAX
 10
6.4943778241
 20
6.470451193
 30
0.0
  9
$LIMMIN
 10
0.0
 20
0.0
  9
$LIMMAX
 10
0.0
 20
0.0
  9
$ORTHOMODE
 70
           0
  9
$REGENMODE
 70
           1
  9
$FILLMODE
 70
           1
  9
$QTEXTMODE
 70
           0
  9
$MIRRTEXT
 70
           1
  9
$LTSCALE
 40
1.0
  9
$ATTMODE
 70
           1
  9
$TEXTSIZE
 40
2.5
  9
$TRACEWID
 40
0.05
  9
$TEXTSTYLE
  7
STANDARD
  9
$CLAYER
  8
0
  9
$CELTYPE
  6
CONTINUOUS
  9
$CECOLOR
 62
           5
  9
$CELTSCALE
 40
1.0
  9
$DISPSILH
 70
           0
  9
$DIMSCALE
 40
1.0
  9
$DIMASZ
 40
0.18
  9
$DIMEXO
 40
0.0625
  9
$DIMDLI
 40
0.38
  9
$DIMRND
 40
0.0
  9
$DIMDLE
 40
0.0
  9
$DIMEXE
 40
1.25
  9
$DIMTP
 40
0.0
  9
$DIMTM
 40
0.0
  9
$DIMTXT
 40
0.3
  9
$DIMCEN
 40
0.09
  9
$DIMTSZ
 40
0.0
  9
$DIMTOL
 70
           0
  9
$DIMLIM
 70
           0
  9
$DIMTIH
 70
           1
  9
$DIMTOH
 70
           1
  9
$DIMSE1
 70
           0
  9
$DIMSE2
 70
           0
  9
$DIMTAD
 70
           0
  9
$DIMZIN
 70
           0
  9
$DIMBLK
  1

  9
$DIMASO
 70
           1
  9
$DIMSHO
 70
           1
  9
$DIMPOST
  1

  9
$DIMAPOST
  1

  9
$DIMALT
 70
           0
  9
$DIMALTD
 70
           2
  9
$DIMALTF
 40
25.4
  9
$DIMLFAC
 40
1.0
  9
$DIMTOFL
 70
           0
  9
$DIMTVP
 40
0.0
  9
$DIMTIX
 70
           0
  9
$DIMSOXD
 70
           0
  9
$DIMSAH
 70
           0
  9
$DIMBLK1
  1

  9
$DIMBLK2
  1

  9
$DIMSTYLE
  2
STANDARD
  9
$DIMCLRD
 70
           0
  9
$DIMCLRE
 70
           0
  9
$DIMCLRT
 70
           5
  9
$DIMTFAC
 40
1.0
  9
$DIMGAP
 40
0.09
  9
$DIMJUST
 70
           0
  9
$DIMSD1
 70
           0
  9
$DIMSD2
 70
           0
  9
$DIMTOLJ
 70
           1
  9
$DIMTZIN
 70
           0
  9
$DIMALTZ
 70
           0
  9
$DIMALTTZ
 70
           0
  9
$DIMUPT
 70
           0
  9
$DIMDEC
 70
           4
  9
$DIMTDEC
 70
           4
  9
$DIMALTU
 70
           2
  9
$DIMALTTD
 70
           2
  9
$DIMTXSTY
  7
STANDARD
  9
$DIMAUNIT
 70
           0
  9
$DIMADEC
 70
           0
  9
$DIMALTRND
 40
0.0
  9
$DIMAZIN
 70
           0
  9
$DIMDSEP
 70
           0
  9
$DIMATFIT
 70
           3
  9
$DIMFRAC
 70
           0
  9
$DIMLDRBLK
  1

  9
$DIMLUNIT
 70
           2
  9
$DIMLWD
 70
           0
  9
$DIMLWE
 70
           0
  9
$DIMTMOVE
 70
           0
  9
$LUNITS
 70
           2
  9
$LUPREC
 70
           4
  9
$SKETCHINC
 40
0.1
  9
$FILLETRAD
 40
0.0
  9
$AUNITS
 70
           0
  9
$AUPREC
 70
           0
  9
$MENU
  1
acad
  9
$ELEVATION
 40
0.0
  9
$PELEVATION
 40
0.0
  9
$THICKNESS
 40
0.0
  9
$LIMCHECK
 70
           0
  9
$CHAMFERA
 40
0.0
  9
$CHAMFERB
 40
0.0
  9
$CHAMFERC
 40
0.0
  9
$CHAMFERD
 40
0.0
  9
$SKPOLY
 70
           0
  9
$TDCREATE
 40
2444240.000000000
  9
$TDUCREATE
 40
0.000000000
  9
$TDUPDATE
 40
2454173.039915532
  9
$TDUUPDATE
 40
2454173.373248878
  9
$TDINDWG
 40
0.0045485880
  9
$TDUSRTIMER
 40
0.0024305556
  9
$USRTIMER
 70
           1
  9
$ANGBASE
 50
0.0
  9
$ANGDIR
 70
           0
  9
$PDMODE
 70
           2
  9
$PDSIZE
 40
0.0
  9
$PLINEWID
 40
0.0
  9
$SPLFRAME
 70
           0
  9
$SPLINETYPE
 70
           6
  9
$SPLINESEGS
 70
           8
  9
$HANDSEED
  5
B9
  9
$SURFTAB1
 70
           6
  9
$SURFTAB2
 70
           6
  9
$SURFTYPE
 70
           6
  9
$SURFU
 70
           6
  9
$SURFV
 70
           6
  9
$UCSBASE
  2

  9
$UCSNAME
  2

  9
$UCSORG
 10
0.0
 20
0.0
 30
0.0
  9
$UCSXDIR
 10
1.0
 20
0.0
 30
0.0
  9
$UCSYDIR
 10
0.0
 20
1.0
 30
0.0
  9
$UCSORTHOREF
  2

  9
$UCSORTHOVIEW
 70
           0
  9
$UCSORGTOP
 10
0.0
 20
0.0
 30
0.0
  9
$UCSORGBOTTOM
 10
0.0
 20
0.0
 30
0.0
  9
$UCSORGLEFT
 10
0.0
 20
0.0
 30
0.0
  9
$UCSORGRIGHT
 10
0.0
 20
0.0
 30
0.0
  9
$UCSORGFRONT
 10
0.0
 20
0.0
 30
0.0
  9
$UCSORGBACK
 10
0.0
 20
0.0
 30
0.0
  9
$PUCSBASE
  2

  9
$PUCSNAME
  2

  9
$PUCSORG
 10
0.0
 20
0.0
 30
0.0
  9
$PUCSXDIR
 10
1.0
 20
0.0
 30
0.0
  9
$PUCSYDIR
 10
0.0
 20
1.0
 30
0.0
  9
$PUCSORTHOREF
  2

  9
$PUCSORTHOVIEW
 70
           0
  9
$PUCSORGTOP
 10
0.0
 20
0.0
 30
0.0
  9
$PUCSORGBOTTOM
 10
0.0
 20
0.0
 30
0.0
  9
$PUCSORGLEFT
 10
0.0
 20
0.0
 30
0.0
  9
$PUCSORGRIGHT
 10
0.0
 20
0.0
 30
0.0
  9
$PUCSORGFRONT
 10
0.0
 20
0.0
 30
0.0
  9
$PUCSORGBACK
 10
0.0
 20
0.0
 30
0.0
  9
$USERI1
 70
           0
  9
$USERI2
 70
           0
  9
$USERI3
 70
           0
  9
$USERI4
 70
           0
  9
$USERI5
 70
           0
  9
$USERR1
 40
0.0
  9
$USERR2
 40
0.0
  9
$USERR3
 40
0.0
  9
$USERR4
 40
0.0
  9
$USERR5
 40
0.0
  9
$WORLDVIEW
 70
           1
  9
$SHADEDGE
 70
           3
  9
$SHADEDIF
 70
          70
  9
$TILEMODE
 70
           1
  9
$MAXACTVP
 70
          16
  9
$PINSBASE
 10
0.0
 20
0.0
 30
0.0
  9
$PLIMCHECK
 70
           0
  9
$PEXTMIN
 10
1.000000000000E+20
 20
1.000000000000E+20
 30
1.000000000000E+20
  9
$PEXTMAX
 10
-1.000000000000E+20
 20
-1.000000000000E+20
 30
-1.000000000000E+20
  9
$PLIMMIN
 10
0.0
 20
0.0
  9
$PLIMMAX
 10
12.0
 20
9.0
  9
$UNITMODE
 70
           0
  9
$VISRETAIN
 70
           0
  9
$PLINEGEN
 70
           1
  9
$PSLTSCALE
 70
           0
  9
$TREEDEPTH
 70
        3020
  9
$CMLSTYLE
  2
Standard
  9
$CMLJUST
 70
           0
  9
$CMLSCALE
 40
1.0
  9
$PROXYGRAPHICS
 70
           0
  9
$MEASUREMENT
 70
           0
  9
$CELWEIGHT
370
           0
  9
$ENDCAPS
280
           0
  9
$JOINSTYLE
280
           0
  9
$LWDISPLAY
290
           0
  9
$INSUNITS
 70
           0
  9
$HYPERLINKBASE
  1

  9
$STYLESHEET
  1

  9
$XEDIT
290
           0
  9
$CEPSNTYPE
380
           0
  9
$PSTYLEMODE
290
           1
  9
$FINGERPRINTGUID
  2

  9
$VERSIONGUID
  2

  9
$EXTNAMES
290
           1
  9
$PSVPSCALE
 40
0.0
  0
ENDSEC
  0
SECTION
  2
CLASSES
  0
CLASS
  1
LWPOLYLINE
  2
AcDbPolyline
  3
"AutoCAD"
 90
        0
280
           0
281
           1
  0
CLASS
  1
IMAGE
  2
AcDbRasterImage
  3
ISM
 90
      127
280
           0
281
           1
  0
CLASS
  1
OLE2FRAME
  2
AcDbOle2Frame
  3
""
 90
        0
280
           0
281
           1
  0
CLASS
  1
HATCH
  2
AcDbHatch
  3
"ACAD_SEDONA"
 90
        0
280
           0
281
           1
  0
CLASS
  1
DICTIONARYVAR
  2
AcDbDictionaryVar
  3
"AutoCAD"
 90
        0
280
           0
281
           0
  0
CLASS
  1
RASTERVARIABLES
  2
AcDbRasterVariables
  3
ISM
 90
        0
280
           0
281
           0
  0
CLASS
  1
IMAGEDEF
  2
AcDbRasterImageDef
  3
ISM
 90
        0
280
           0
281
           0
  0
CLASS
  1
IMAGEDEF_REACTOR
  2
AcDbRasterImageDefReactor
  3
ISM
 90
        1
280
           0
281
           0
  0
CLASS
  1
IDBUFFER
  2
AcDbIdBuffer
  3
"Acad"
 90
        0
280
           0
281
           0
  0
CLASS
  1
SPATIAL_FILTER
  2
AcDbSpatialFilter
  3
"Acad"
 90
        0
280
           0
281
           0
  0
CLASS
  1
XRECORD
  2
AcDbXrecord
  3
"<Built In>"
 90
        0
280
           0
281
           0
  0
CLASS
  1
SORTENTSTABLE
  2
AcDbSortentsTable
  3
"AutoCAD"
 90
        0
280
           0
281
           0
  0
CLASS
  1
LAYER_INDEX
  2
AcDbLayerIndex
  3
"Acad"
 90
        0
280
           0
281
           0
  0
CLASS
  1
SPATIAL_INDEX
  2
AcDbSpatialIndex
  3
"Acad"
 90
        0
280
           0
281
           0
  0
CLASS
  1
OBJECT_PTR
  2
CAseDLPNTableRecord
  3
"ASE-LPNTableRecord"
 90
        1
280
           0
281
           0
  0
CLASS
  1
LAYOUT
  2
AcDbLayout
  3
AutoCAD 2000
 90
        0
280
           0
281
           0
  0
CLASS
  1
PLOTSETTINGS
  2
AcDbPlotSettings
  3
AutoCAD 2000
 90
    32768
280
           0
281
           0
  0
CLASS
  1
ACDBDICTIONARYWDFLT
  2
AcDbDictionaryWithDefault
  3
AutoCAD 2000
 90
        0
280
           0
281
           0
  0
CLASS
  1
ACDBPLACEHOLDER
  2
AcDbPlaceHolder
  3
AutoCAD 2000
 90
        0
280
           0
281
           0
  0
CLASS
  1
VBA_PROJECT
  2
AcDbVbaProject
  3
acadvba
 90
    32768
280
           0
281
           0
  0
CLASS
  1
WIPEOUT
  2
AcDbWipeout
  3
WipeOut|AutoCAD Express Tool|expresstools@autodesk.com
 90
    32895
280
           0
281
           1
  0
CLASS
  1
WIPEOUTVARIABLES
  2
AcDbWipeoutVariables
  3
WipeOut|AutoCAD Express Tool|expresstools@autodesk.com
 90
        0
280
           0
281
           0
  0
CLASS
  1
RTEXT
  2
RText
  3
RText|AutoCAD Express Tool|expresstools@autodesk.com
 90
    32768
280
           0
281
           1
  0
CLASS
  1
ARCALIGNEDTEXT
  2
AcDbArcAlignedText
  3
ATEXT|AutoCAD Express Tool|expresstools@autodesk.com
 90
    32768
280
           0
281
           1
  0
CLASS
  1
DIMASSOC
  2
AcDbDimAssoc
  3
AcDbDimAssoc|Product Desc:     AcDim ARX App For Dimension|Company:          Autodesk, Inc.|WEB Address:      www.autodesk.com
 90
        1
280
           0
281
           0
  0
ENDSEC
  0
SECTION
  2
TABLES
  0
TABLE
  2
VPORT
  5
7
100
AcDbSymbolTable
 70
           1
  0
VPORT
  5
15
100
AcDbSymbolTableRecord
100
AcDbViewportTableRecord
  2
*ACTIVE
 70
           0
 10
0.0
 20
0.0
 11
1.0
 21
1.0
 12
2.441571866687
 22
2.304917486153
 13
0.0
 23
0.0
 14
1.0
 24
1.0
 15
0.0
 25
0.0
 16
0.0
 26
0.0
 36
1.0
 17
0.0
 27
0.0
 37
0.0
 40
4.352197642538
 41
1.5355371901
 42
50.0
 43
0.0
 44
0.0
 50
0.0
 51
0.0
 71
           0
 72
         100
 73
           1
 74
           1
 75
           0
 76
           0
 77
           0
 78
           0
281
           0
 65
           0
110
0.0
120
0.0
130
0.0
111
1.0
121
0.0
131
0.0
112
0.0
122
1.0
132
0.0
345
0
346
0
 79
           0
146
0.0
  0
ENDTAB
  0
TABLE
  2
LTYPE
  5
4
100
AcDbSymbolTable
 70
           6
  0
LTYPE
  5
11
100
AcDbSymbolTableRecord
100
AcDbLinetypeTableRecord
  2
ByBlock
 70
          64
  3

 72
          65
 73
           0
 40
0.0
  0
LTYPE
  5
12
100
AcDbSymbolTableRecord
100
AcDbLinetypeTableRecord
  2
ByLayer
 70
          64
  3

 72
          65
 73
           0
 40
0.0
  0
LTYPE
  5
13
100
AcDbSymbolTableRecord
100
AcDbLinetypeTableRecord
  2
CONTINUOUS
 70
           0
  3
Solid line
 72
          65
 73
           0
 40
0.0
  0
LTYPE
  5
1D
100
AcDbSymbolTableRecord
100
AcDbLinetypeTableRecord
  2
DASHED
 70
           0
  3
_ _ _ _ _ _ _ _ _ _ _ _ _ _ _ _
 72
          65
 73
           2
 40
0.2
 49
0.1
 74
           0
 49
-0.1
 74
           0
  0
LTYPE
  5
1E
100
AcDbSymbolTableRecord
100
AcDbLinetypeTableRecord
  2
CENTER
 70
           0
  3
___ _ ___ _ ___ _ ___ _ ___ _ ___ _ ___ _ ___ _
 72
          65
 73
           4
 40
0.95
 49
0.625
 74
           0
 49
-0.125
 74
           0
 49
0.075
 74
           0
 49
-0.125
 74
           0
  0
LTYPE
  5
1F
100
AcDbSymbolTableRecord
100
AcDbLinetypeTableRecord
  2
PHANTOM
 70
           0
  3
______  __  __  ______  __  __  ______  __  __  
 72
          65
 73
           6
 40
1.15
 49
0.625
 74
           0
 49
-0.125
 74
           0
 49
0.075
 74
           0
 49
-0.125
 74
           0
 49
0.075
 74
           0
 49
-0.125
 74
           0
  0
ENDTAB
  0
TABLE
  2
LAYER
  5
2
100
AcDbSymbolTable
 70
           3
  0
LAYER
  5
14
100
AcDbSymbolTableRecord
100
AcDbLayerTableRecord
  2
0
 70
           0
 62
           7
  6
CONTINUOUS
290
           1
370
          -3
390
A0
  0
LAYER
  5
21
100
AcDbSymbolTableRecord
100
AcDbLayerTableRecord
  2
UNNAMED
 70
           0
 62
           7
  6
CONTINUOUS
290
           1
370
          -3
390
A0
  0
LAYER
  5
26
100
AcDbSymbolTableRecord
100
AcDbLayerTableRecord
  2
DEFPOINTS
 70
           0
 62
          -7
  6
CONTINUOUS
290
           0
370
          -3
390
A0
  0
ENDTAB
  0
TABLE
  2
STYLE
  5
3
100
AcDbSymbolTable
 70
           1
  0
STYLE
  5
17
100
AcDbSymbolTableRecord
100
AcDbTextStyleTableRecord
  2
STANDARD
 70
           0
 40
0.0
 41
1.0
 50
0.0
 71
           0
 42
0.2
  3
TXT
  4

  0
ENDTAB
  0
TABLE
  2
VIEW
  5
5
100
AcDbSymbolTable
 70
           0
  0
ENDTAB
  0
TABLE
  2
UCS
  5
6
100
AcDbSymbolTable
 70
           1
  0
UCS
  5
20
100
AcDbSymbolTableRecord
100
AcDbUCSTableRecord
  2
CK_VIEW_1
 70
           0
 10
0.0
 20
0.0
 30
1.0
 11
1.0
 21
0.0
 31
0.0
 12
0.0
 22
1.0
 32
0.0
 79
           0
146
0.0
  0
ENDTAB
  0
TABLE
  2
APPID
  5
8
100
AcDbSymbolTable
 70
           1
  0
APPID
  5
16
100
AcDbSymbolTableRecord
100
AcDbRegAppTableRecord
  2
ACAD
 70
           0
  0
ENDTAB
  0
TABLE
  2
DIMSTYLE
  5
9
100
AcDbSymbolTable
 70
           7
100
AcDbDimStyleTable
 71
           0
  0
DIMSTYLE
105
18
100
AcDbSymbolTableRecord
100
AcDbDimStyleTableRecord
  2
STANDARD
 70
           0
  3

  4

 40
1.0
 41
0.18
 42
0.0625
 43
0.38
 44
0.18
 45
0.0
 46
0.0
 47
0.0
 48
0.0
 71
           0
 72
           0
 73
           1
 74
           1
 75
           0
 76
           0
 77
           0
 78
           0
 79
           0
140
0.18
141
0.09
142
0.0
143
25.4
144
1.0
145
0.0
146
1.0
147
0.09
148
0.0
170
           0
171
           2
172
           0
173
           0
174
           0
175
           0
176
           0
177
           0
178
           0
179
           0
271
           4
272
           4
273
           2
274
           2
275
           0
276
           0
277
           2
278
           0
279
           0
280
           0
281
           0
282
           0
283
           1
284
           0
285
           0
286
           0
288
           0
340
17
341
0
342
0
343
0
344
0
371
          -2
372
          -2
  0
DIMSTYLE
105
22
100
AcDbSymbolTableRecord
100
AcDbDimStyleTableRecord
  2
DIMSTYLE1
 70
           0
  3

  4

 40
1.0
 41
0.3
 42
0.0625
 43
0.38
 44
0.3
 45
0.0
 46
0.0
 47
0.0
 48
0.0
 71
           0
 72
           0
 73
           1
 74
           1
 75
           0
 76
           0
 77
           0
 78
           0
 79
           0
140
0.3
141
0.09
142
0.0
143
25.4
144
1.0
145
0.0
146
1.0
147
0.09
148
0.0
170
           0
171
           2
172
           0
173
           0
174
           0
175
           0
176
           0
177
           0
178
           0
179
           0
271
           4
272
           4
273
           2
274
           2
275
           0
276
           0
277
           2
278
           0
279
           0
280
           0
281
           0
282
           0
283
           1
284
           0
285
           0
286
           0
288
           0
340
17
341
0
342
0
343
0
344
0
371
          -2
372
          -2
  0
DIMSTYLE
105
32
100
AcDbSymbolTableRecord
100
AcDbDimStyleTableRecord
  2
DIMSTYLE2
 70
           0
  3

  4

 40
1.0
 41
0.3
 42
0.0625
 43
0.38
 44
0.3
 45
0.0
 46
0.0
 47
0.0
 48
0.0
 71
           0
 72
           0
 73
           1
 74
           1
 75
           0
 76
           0
 77
           0
 78
           0
 79
           0
140
0.3
141
0.09
142
0.0
143
25.4
144
1.0
145
0.0
146
1.0
147
0.09
148
0.0
170
           0
171
           2
172
           0
173
           0
174
           0
175
           0
176
           0
177
           0
178
           0
179
           0
271
           4
272
           4
273
           2
274
           2
275
           0
276
           0
277
           2
278
           0
279
           0
280
           0
281
           0
282
           0
283
           1
284
           0
285
           0
286
           0
288
           0
340
17
341
0
342
0
343
0
344
0
371
          -2
372
          -2
  0
DIMSTYLE
105
41
100
AcDbSymbolTableRecord
100
AcDbDimStyleTableRecord
  2
DIMSTYLE3
 70
           0
  3

  4

 40
1.0
 41
0.3
 42
0.0625
 43
0.38
 44
0.3
 45
0.0
 46
0.0
 47
0.0
 48
0.0
 71
           0
 72
           0
 73
           1
 74
           1
 75
           0
 76
           0
 77
           0
 78
           0
 79
           0
140
0.3
141
0.09
142
0.0
143
25.4
144
1.0
145
0.0
146
1.0
147
0.09
148
0.0
170
           0
171
           2
172
           0
173
           0
174
           0
175
           0
176
           0
177
           0
178
           0
179
           0
271
           4
272
           4
273
           2
274
           2
275
           0
276
           0
277
           2
278
           0
279
           0
280
           0
281
           0
282
           0
283
           1
284
           0
285
           0
286
           0
288
           0
340
17
341
0
342
0
343
0
344
0
371
          -2
372
          -2
  0
DIMSTYLE
105
6E
100
AcDbSymbolTableRecord
100
AcDbDimStyleTableRecord
  2
DIMSTYLE4
 70
           0
  3

  4

 40
1.0
 41
0.3
 42
0.0625
 43
0.38
 44
0.3
 45
0.0
 46
0.0
 47
0.0
 48
0.0
 71
           0
 72
           0
 73
           1
 74
           1
 75
           0
 76
           0
 77
           0
 78
           0
 79
           0
140
0.3
141
0.09
142
0.0
143
25.4
144
1.0
145
0.0
146
1.0
147
0.09
148
0.0
170
           0
171
           2
172
           0
173
           0
174
           0
175
           0
176
           0
177
           0
178
           0
179
           0
271
           4
272
           4
273
           2
274
           2
275
           0
276
           0
277
           2
278
           0
279
           0
280
           0
281
           0
282
           0
283
           1
284
           0
285
           0
286
           0
288
           0
340
17
341
0
342
0
343
0
344
0
371
          -2
372
          -2
  0
DIMSTYLE
105
7E
100
AcDbSymbolTableRecord
100
AcDbDimStyleTableRecord
  2
DIMSTYLE5
 70
           0
  3

  4

 40
1.0
 41
0.3
 42
0.0625
 43
0.38
 44
0.3
 45
0.0
 46
0.0
 47
0.0
 48
0.0
 71
           0
 72
           0
 73
           1
 74
           1
 75
           0
 76
           0
 77
           0
 78
           0
 79
           0
140
0.3
141
0.09
142
0.0
143
25.4
144
1.0
145
0.0
146
1.0
147
0.09
148
0.0
170
           0
171
           2
172
           0
173
           0
174
           0
175
           0
176
           0
177
           0
178
           0
179
           0
271
           4
272
           4
273
           2
274
           2
275
           0
276
           0
277
           2
278
           0
279
           0
280
           0
281
           0
282
           0
283
           1
284
           0
285
           0
286
           0
288
           0
340
17
341
0
342
0
343
0
344
0
371
          -2
372
          -2
  0
DIMSTYLE
105
8E
100
AcDbSymbolTableRecord
100
AcDbDimStyleTableRecord
  2
DIMSTYLE6
 70
           0
  3

  4

 40
1.0
 41
0.3
 42
0.0625
 43
0.38
 44
0.3
 45
0.0
 46
0.0
 47
0.0
 48
0.0
 71
           0
 72
           0
 73
           1
 74
           1
 75
           0
 76
           0
 77
           0
 78
           0
 79
           0
140
0.3
141
0.09
142
0.0
143
25.4
144
1.0
145
0.0
146
1.0
147
0.09
148
0.0
170
           0
171
           2
172
           0
173
           0
174
           0
175
           0
176
           0
177
           0
178
           0
179
           0
271
           4
272
           4
273
           2
274
           2
275
           0
276
           0
277
           2
278
           0
279
           0
280
           0
281
           0
282
           0
283
           1
284
           0
285
           0
286
           0
288
           0
340
17
341
0
342
0
343
0
344
0
371
          -2
372
          -2
  0
ENDTAB
  0
TABLE
  2
BLOCK_RECORD
  5
1
100
AcDbSymbolTable
 70
           6
  0
BLOCK_RECORD
  5
A
100
AcDbSymbolTableRecord
100
AcDbBlockTableRecord
  2
*MODEL_SPACE
340
A3
  0
BLOCK_RECORD
  5
B
100
AcDbSymbolTableRecord
100
AcDbBlockTableRecord
  2
*PAPER_SPACE
340
A4
  0
BLOCK_RECORD
  5
23
100
AcDbSymbolTableRecord
100
AcDbBlockTableRecord
  2
*D0
340
0
  0
BLOCK_RECORD
  5
33
100
AcDbSymbolTableRecord
100
AcDbBlockTableRecord
  2
*D1
340
0
  0
BLOCK_RECORD
  5
42
100
AcDbSymbolTableRecord
100
AcDbBlockTableRecord
  2
*D2
340
0
  0
BLOCK_RECORD
  5
6F
100
AcDbSymbolTableRecord
100
AcDbBlockTableRecord
  2
*D3
340
0
  0
BLOCK_RECORD
  5
7F
100
AcDbSymbolTableRecord
100
AcDbBlockTableRecord
  2
*D4
340
0
  0
BLOCK_RECORD
  5
8F
100
AcDbSymbolTableRecord
100
AcDbBlockTableRecord
  2
*D5
340
0
  0
ENDTAB
  0
ENDSEC
  0
SECTION
  2
BLOCKS
  0
BLOCK
  5
D
100
AcDbEntity
  8
0
100
AcDbBlockBegin
  2
*MODEL_SPACE
 70
           0
 10
0.0
 20
0.0
 30
0.0
  3
*MODEL_SPACE
  1

  0
ENDBLK
  5
E
100
AcDbEntity
  8
0
100
AcDbBlockEnd
  0
BLOCK
  5
F
100
AcDbEntity
 67
           1
  8
0
100
AcDbBlockBegin
  2
*PAPER_SPACE
 70
           0
 10
0.0
 20
0.0
 30
0.0
  3
*PAPER_SPACE
  1

  0
ENDBLK
  5
10
100
AcDbEntity
 67
           1
  8
0
100
AcDbBlockEnd
  0
BLOCK
  5
24
100
AcDbEntity
  8
0
100
AcDbBlockBegin
  2
*D0
 70
          65
 10
0.0
 20
0.0
 30
0.0
  3
*D0
  1

  0
POINT
  5
27
100
AcDbEntity
  8
DEFPOINTS
  6
CONTINUOUS
 62
           0
100
AcDbPoint
 10
1.8572004995
 20
6.2555519759
 30
0.0
  0
POINT
  5
28
100
AcDbEntity
  8
DEFPOINTS
  6
CONTINUOUS
 62
           0
100
AcDbPoint
 10
3.3875069424
 20
5.1854439964
 30
0.0
  0
POINT
  5
29
100
AcDbEntity
  8
DEFPOINTS
  6
CONTINUOUS
 62
           0
100
AcDbPoint
 10
0.4291880593
 20
0.9549041501
 30
0.0
  0
LINE
  5
2A
100
AcDbEntity
  8
UNNAMED
  6
CONTINUOUS
 62
           5
100
AcDbLine
 10
3.2645804105
 20
5.2714036833
 30
0.0
 11
1.5498841698
 21
6.470451193
 31
0.0
  0
LINE
  5
2B
100
AcDbEntity
  8
UNNAMED
  6
CONTINUOUS
 62
           5
100
AcDbLine
 10
0.3062615274
 20
1.040863837
 30
0.0
 11
-1.4084347133
 21
2.2399113467
 31
0.0
  0
LINE
  5
2C
100
AcDbEntity
  8
UNNAMED
  6
CONTINUOUS
 62
           5
100
AcDbLine
 10
1.8572004995
 20
6.2555519759
 30
0.0
 11
0.6088767848
 21
4.4703883663
 31
0.0
  0
3DFACE
  5
2D
100
AcDbEntity
  8
UNNAMED
  6
CONTINUOUS
 62
           5
100
AcDbFace
 10
1.8572004995
 20
6.2555519759
 30
0.0
 11
1.7221590853
 21
5.9839110061
 31
0.0
 12
1.6484031662
 22
6.0354868182
 32
0.0
 13
1.6484031662
 23
6.0354868182
 33
0.0
 70
           4
  0
LINE
  5
2E
100
AcDbEntity
  8
UNNAMED
  6
CONTINUOUS
 62
           5
100
AcDbLine
 10
-1.1011183836
 20
2.0250121296
 30
0.0
 11
0.1893106315
 21
3.8703883663
 31
0.0
  0
3DFACE
  5
2F
100
AcDbEntity
  8
UNNAMED
  6
CONTINUOUS
 62
           5
100
AcDbFace
 10
-1.1011183836
 20
2.0250121296
 30
0.0
 11
-0.9660769695
 21
2.2966530994
 31
0.0
 12
-0.8923210504
 22
2.2450772873
 32
0.0
 13
-0.8923210504
 23
2.2450772873
 33
0.0
 70
           4
  0
TEXT
  5
30
100
AcDbEntity
  8
UNNAMED
  6
CONTINUOUS
 62
           5
100
AcDbText
 10
0.0240937082
 20
4.0203883663
 30
0.0
 40
0.3
  1
5.162
 41
0.5
100
AcDbText
  0
ENDBLK
  5
31
100
AcDbEntity
  8
0
  6
CONTINUOUS
100
AcDbBlockEnd
  0
BLOCK
  5
34
100
AcDbEntity
  8
0
100
AcDbBlockBegin
  2
*D1
 70
          65
 10
0.0
 20
0.0
 30
0.0
  3
*D1
  1

  0
POINT
  5
36
100
AcDbEntity
  8
DEFPOINTS
  6
CONTINUOUS
 62
           0
100
AcDbPoint
 10
4.6080260112
 20
5.6279503626
 30
0.0
  0
POINT
  5
37
100
AcDbEntity
  8
DEFPOINTS
  6
CONTINUOUS
 62
           0
100
AcDbPoint
 10
3.3875069424
 20
5.1854439964
 30
0.0
  0
POINT
  5
38
100
AcDbEntity
  8
DEFPOINTS
  6
CONTINUOUS
 62
           0
100
AcDbPoint
 10
4.9213140433
 20
0.9549041501
 30
0.0
  0
LINE
  5
39
100
AcDbEntity
  8
UNNAMED
  6
CONTINUOUS
 62
           5
100
AcDbLine
 10
3.5285248272
 20
5.2365708599
 30
0.0
 11
4.9605707232
 21
5.7557675213
 31
0.0
  0
LINE
  5
3A
100
AcDbEntity
  8
UNNAMED
  6
CONTINUOUS
 62
           5
100
AcDbLine
 10
5.0623319281
 20
1.0060310136
 30
0.0
 11
6.4943778241
 21
1.525227675
 31
0.0
  0
LINE
  5
3B
100
AcDbEntity
  8
UNNAMED
  6
CONTINUOUS
 62
           5
100
AcDbLine
 10
4.6080260112
 20
5.6279503626
 30
0.0
 11
5.3682208367
 21
3.5311844145
 31
0.0
  0
3DFACE
  5
3C
100
AcDbEntity
  8
UNNAMED
  6
CONTINUOUS
 62
           5
100
AcDbFace
 10
4.6080260112
 20
5.6279503626
 30
0.0
 11
4.7525851036
 21
5.3612526521
 31
0.0
 12
4.6679743727
 22
5.330576534
 32
0.0
 13
4.6679743727
 23
5.330576534
 33
0.0
 70
           4
  0
LINE
  5
3D
100
AcDbEntity
  8
UNNAMED
  6
CONTINUOUS
 62
           5
100
AcDbLine
 10
6.1418331121
 20
1.3974105163
 30
0.0
 11
5.5857543653
 21
2.9311844145
 31
0.0
  0
3DFACE
  5
3E
100
AcDbEntity
  8
UNNAMED
  6
CONTINUOUS
 62
           5
100
AcDbFace
 10
6.1418331121
 20
1.3974105163
 30
0.0
 11
5.9972740198
 21
1.6641082269
 31
0.0
 12
6.0818847506
 22
1.694784345
 32
0.0
 13
6.0818847506
 23
1.694784345
 33
0.0
 70
           4
  0
TEXT
  5
3F
100
AcDbEntity
  8
UNNAMED
  6
CONTINUOUS
 62
           5
100
AcDbText
 10
5.101987601
 20
3.0811844145
 30
0.0
 40
0.3
  1
4.500
 41
0.5
100
AcDbText
  0
ENDBLK
  5
40
100
AcDbEntity
  8
0
  6
CONTINUOUS
100
AcDbBlockEnd
  0
BLOCK
  5
43
100
AcDbEntity
  8
0
100
AcDbBlockBegin
  2
*D2
 70
          65
 10
0.0
 20
0.0
 30
0.0
  3
*D2
  1

  0
POINT
  5
45
100
AcDbEntity
  8
DEFPOINTS
  6
CONTINUOUS
 62
           0
100
AcDbPoint
 10
0.4291880593
 20
-0.2160037159
 30
0.0
  0
POINT
  5
46
100
AcDbEntity
  8
DEFPOINTS
  6
CONTINUOUS
 62
           0
100
AcDbPoint
 10
0.4291880593
 20
0.9549041501
 30
0.0
  0
POINT
  5
47
100
AcDbEntity
  8
DEFPOINTS
  6
CONTINUOUS
 62
           0
100
AcDbPoint
 10
4.9213140433
 20
0.9549041501
 30
0.0
  0
LINE
  5
48
100
AcDbEntity
  8
UNNAMED
  6
CONTINUOUS
 62
           5
100
AcDbLine
 10
0.4291880593
 20
0.8049041501
 30
0.0
 11
0.4291880593
 21
-0.5910037159
 31
0.0
  0
LINE
  5
49
100
AcDbEntity
  8
UNNAMED
  6
CONTINUOUS
 62
           5
100
AcDbLine
 10
4.9213140433
 20
0.8049041501
 30
0.0
 11
4.9213140433
 21
-0.5910037159
 31
0.0
  0
LINE
  5
4A
100
AcDbEntity
  8
UNNAMED
  6
CONTINUOUS
 62
           5
100
AcDbLine
 10
0.4291880593
 20
-0.2160037159
 30
0.0
 11
2.3717569644
 21
-0.2160037159
 31
0.0
  0
3DFACE
  5
4B
100
AcDbEntity
  8
UNNAMED
  6
CONTINUOUS
 62
           5
100
AcDbFace
 10
0.4291880593
 20
-0.2160037159
 30
0.0
 11
0.7291880593
 21
-0.1710037159
 31
0.0
 12
0.7291880593
 22
-0.2610037159
 32
0.0
 13
0.7291880593
 23
-0.2610037159
 33
0.0
 70
           4
  0
LINE
  5
4C
100
AcDbEntity
  8
UNNAMED
  6
CONTINUOUS
 62
           5
100
AcDbLine
 10
4.9213140433
 20
-0.2160037159
 30
0.0
 11
3.4217569644
 21
-0.2160037159
 31
0.0
  0
3DFACE
  5
4D
100
AcDbEntity
  8
UNNAMED
  6
CONTINUOUS
 62
           5
100
AcDbFace
 10
4.9213140433
 20
-0.2160037159
 30
0.0
 11
4.6213140433
 21
-0.2610037159
 31
0.0
 12
4.6213140433
 22
-0.1710037159
 32
0.0
 13
4.6213140433
 23
-0.1710037159
 33
0.0
 70
           4
  0
TEXT
  5
4E
100
AcDbEntity
  8
UNNAMED
  6
CONTINUOUS
 62
           5
100
AcDbText
 10
2.5217569644
 20
-0.3660037159
 30
0.0
 40
0.3
  1
4.492
 41
0.5
100
AcDbText
  0
ENDBLK
  5
4F
100
AcDbEntity
  8
0
  6
CONTINUOUS
100
AcDbBlockEnd
  0
BLOCK
  5
70
100
AcDbEntity
  8
0
100
AcDbBlockBegin
  2
*D3
 70
          65
 10
0.0
 20
0.0
 30
0.0
  3
*D3
  1

  0
POINT
  5
72
100
AcDbEntity
  8
DEFPOINTS
  6
CONTINUOUS
 62
           0
100
AcDbPoint
 10
0.4291880593
 20
0.0
 30
0.0
  0
POINT
  5
73
100
AcDbEntity
  8
DEFPOINTS
  6
CONTINUOUS
 62
           0
100
AcDbPoint
 10
0.4297611239
 20
0.0
 30
0.0
  0
POINT
  5
74
100
AcDbEntity
  8
DEFPOINTS
  6
CONTINUOUS
 62
           0
100
AcDbPoint
 10
0.4291880593
 20
0.0
 30
0.0
  0
POINT
  5
75
100
AcDbEntity
  8
DEFPOINTS
  6
CONTINUOUS
 62
           0
100
AcDbPoint
 10
0.4301880593
 20
0.0
 30
0.0
  0
LINE
  5
76
100
AcDbEntity
  8
UNNAMED
  6
CONTINUOUS
 62
          15
100
AcDbLine
 10
0.5801880593
 20
0.9549041501
 30
0.0
 11
1.7817849283
 21
0.9549041501
 31
0.0
  0
LINE
  5
77
100
AcDbEntity
  8
UNNAMED
  6
CONTINUOUS
 62
          15
100
AcDbLine
 10
0.5157208107
 20
1.0786501922
 30
0.0
 11
1.2043134147
 21
2.0633710975
 31
0.0
  0
ARC
  5
78
100
AcDbEntity
  8
UNNAMED
  6
CONTINUOUS
 62
          15
100
AcDbCircle
 10
0.4291880593
 20
0.9549041501
 30
0.0
 40
0.977596869
100
AcDbArc
 50
27.517897075
 51
55.0357941501
  0
SOLID
  5
79
100
AcDbEntity
  8
UNNAMED
  6
CONTINUOUS
 62
          15
100
AcDbTrace
 10
1.2373297751
 20
1.5812323826
 30
0.0
 11
1.1751264337
 21
1.5161882105
 31
0.0
 12
0.9894141975
 22
1.7560547678
 32
0.0
 13
0.9894141975
 23
1.7560547678
 33
0.0
  0
ARC
  5
7A
100
AcDbEntity
  8
UNNAMED
  6
CONTINUOUS
 62
          15
100
AcDbCircle
 10
0.4291880593
 20
0.9549041501
 30
0.0
 40
0.977596869
100
AcDbArc
 50
0.0
 51
27.517897075
  0
SOLID
  5
7B
100
AcDbEntity
  8
UNNAMED
  6
CONTINUOUS
 62
          15
100
AcDbTrace
 10
1.3166369394
 20
1.2445562519
 30
0.0
 11
1.4055878343
 21
1.2582580144
 31
0.0
 12
1.4067849283
 22
0.9549041501
 32
0.0
 13
1.4067849283
 23
0.9549041501
 33
0.0
  0
TEXT
  5
7C
100
AcDbEntity
  8
UNNAMED
  6
CONTINUOUS
 62
          15
100
AcDbText
 10
0.8270641786
 20
1.8505805265
 30
0.0
 40
0.3
  1
55.036%%d
 50
303.6586301981
 41
0.5
100
AcDbText
  0
ENDBLK
  5
7D
100
AcDbEntity
  8
0
  6
CONTINUOUS
100
AcDbBlockEnd
  0
BLOCK
  5
80
100
AcDbEntity
  8
0
100
AcDbBlockBegin
  2
*D4
 70
          65
 10
0.0
 20
0.0
 30
0.0
  3
*D4
  1

  0
POINT
  5
82
100
AcDbEntity
  8
DEFPOINTS
  6
CONTINUOUS
 62
           0
100
AcDbPoint
 10
3.3875069424
 20
0.0
 30
0.0
  0
POINT
  5
83
100
AcDbEntity
  8
DEFPOINTS
  6
CONTINUOUS
 62
           0
100
AcDbPoint
 10
3.3878477882
 20
0.0
 30
0.0
  0
POINT
  5
84
100
AcDbEntity
  8
DEFPOINTS
  6
CONTINUOUS
 62
           0
100
AcDbPoint
 10
3.3875069424
 20
0.0
 30
0.0
  0
POINT
  5
85
100
AcDbEntity
  8
DEFPOINTS
  6
CONTINUOUS
 62
           0
100
AcDbPoint
 10
3.3869338778
 20
0.0
 30
0.0
  0
LINE
  5
86
100
AcDbEntity
  8
UNNAMED
  6
CONTINUOUS
 62
          15
100
AcDbLine
 10
3.300974191
 20
5.0616979543
 30
0.0
 11
2.1044117357
 21
3.3505554624
 31
0.0
  0
LINE
  5
87
100
AcDbEntity
  8
UNNAMED
  6
CONTINUOUS
 62
          15
100
AcDbLine
 10
3.4389746516
 20
5.0434859924
 30
0.0
 11
4.1506627405
 21
3.0805111069
 31
0.0
  0
ARC
  5
88
100
AcDbEntity
  8
UNNAMED
  6
CONTINUOUS
 62
          15
100
AcDbCircle
 10
3.3875069424
 20
5.1854439964
 30
0.0
 40
1.8640063067
100
AcDbArc
 50
235.0357941501
 51
289.9284104867
  0
SOLID
  5
89
100
AcDbEntity
  8
UNNAMED
  6
CONTINUOUS
 62
          15
100
AcDbTrace
 10
3.7454012013
 20
3.3103789438
 30
0.0
 11
3.7216182522
 21
3.3971797003
 31
0.0
 12
4.0228455819
 22
3.4330558189
 32
0.0
 13
4.0228455819
 23
3.4330558189
 33
0.0
  0
ARC
  5
8A
100
AcDbEntity
  8
UNNAMED
  6
CONTINUOUS
 62
          15
100
AcDbCircle
 10
3.3875069424
 20
5.1854439964
 30
0.0
 40
1.8640063067
100
AcDbArc
 50
235.0357941501
 51
268.0492466834
  0
SOLID
  5
8B
100
AcDbEntity
  8
UNNAMED
  6
CONTINUOUS
 62
          15
100
AcDbTrace
 10
2.6009183753
 20
3.5450787974
 30
0.0
 11
2.5554315954
 21
3.4674195876
 31
0.0
 12
2.3193109529
 22
3.6578717921
 32
0.0
 13
2.3193109529
 23
3.6578717921
 33
0.0
  0
TEXT
  5
8C
100
AcDbEntity
  8
UNNAMED
  6
CONTINUOUS
 62
          15
100
AcDbText
 10
2.1120932063
 20
3.540705049
 30
0.0
 40
0.3
  1
54.893%%d
 50
336.8185979431
 41
0.5
100
AcDbText
  0
ENDBLK
  5
8D
100
AcDbEntity
  8
0
  6
CONTINUOUS
100
AcDbBlockEnd
  0
BLOCK
  5
90
100
AcDbEntity
  8
0
100
AcDbBlockBegin
  2
*D5
 70
          65
 10
0.0
 20
0.0
 30
0.0
  3
*D5
  1

  0
POINT
  5
92
100
AcDbEntity
  8
DEFPOINTS
  6
CONTINUOUS
 62
           0
100
AcDbPoint
 10
4.9213140433
 20
0.0
 30
0.0
  0
POINT
  5
93
100
AcDbEntity
  8
DEFPOINTS
  6
CONTINUOUS
 62
           0
100
AcDbPoint
 10
4.9203140433
 20
0.0
 30
0.0
  0
POINT
  5
94
100
AcDbEntity
  8
DEFPOINTS
  6
CONTINUOUS
 62
           0
100
AcDbPoint
 10
4.9213140433
 20
0.0
 30
0.0
  0
POINT
  5
95
100
AcDbEntity
  8
DEFPOINTS
  6
CONTINUOUS
 62
           0
100
AcDbPoint
 10
4.9209731975
 20
0.0
 30
0.0
  0
LINE
  5
96
100
AcDbEntity
  8
UNNAMED
  6
CONTINUOUS
 62
          15
100
AcDbLine
 10
4.8698463341
 20
1.0968621541
 30
0.0
 11
4.230571763
 21
2.8601064006
 31
0.0
  0
LINE
  5
97
100
AcDbEntity
  8
UNNAMED
  6
CONTINUOUS
 62
          15
100
AcDbLine
 10
4.7703140433
 20
0.9549041501
 30
0.0
 11
2.8947601918
 21
0.9549041501
 31
0.0
  0
ARC
  5
98
100
AcDbEntity
  8
UNNAMED
  6
CONTINUOUS
 62
          15
100
AcDbCircle
 10
4.9213140433
 20
0.9549041501
 30
0.0
 40
1.6515538515
100
AcDbArc
 50
109.9284104867
 51
180.0
  0
SOLID
  5
99
100
AcDbEntity
  8
UNNAMED
  6
CONTINUOUS
 62
          15
100
AcDbTrace
 10
3.2521174891
 20
1.2577469064
 30
0.0
 11
3.341747561
 21
1.2495952064
 31
0.0
 12
3.2697601918
 22
0.9549041501
 32
0.0
 13
3.2697601918
 23
0.9549041501
 33
0.0
  0
ARC
  5
9A
100
AcDbEntity
  8
UNNAMED
  6
CONTINUOUS
 62
          15
100
AcDbCircle
 10
4.9213140433
 20
0.9549041501
 30
0.0
 40
1.6515538515
100
AcDbArc
 50
109.9284104867
 51
136.2304896074
  0
SOLID
  5
9B
100
AcDbEntity
  8
UNNAMED
  6
CONTINUOUS
 62
          15
100
AcDbTrace
 10
4.1058807814
 20
2.3394407823
 30
0.0
 11
4.0676671818
 21
2.4209252643
 31
0.0
 12
4.3583889216
 22
2.5075616886
 32
0.0
 13
4.3583889216
 23
2.5075616886
 33
0.0
  0
TEXT
  5
9C
100
AcDbEntity
  8
UNNAMED
  6
CONTINUOUS
 62
          15
100
AcDbText
 10
3.3306597943
 20
0.9652978573
 30
0.0
 40
0.3
  1
70.072%%d
 50
70.3540644377
 41
0.5
100
AcDbText
  0
ENDBLK
  5
9D
100
AcDbEntity
  8
0
  6
CONTINUOUS
100
AcDbBlockEnd
  0
ENDSEC
  0
SECTION
  2
ENTITIES
  0
DIMENSION
  5
25
100
AcDbEntity
  8
UNNAMED
  6
CONTINUOUS
 62
           5
100
AcDbDimension
  2
*D0
 10
1.8572004995
 20
6.2555519759
 30
0.0
 11
0.0240937082
 21
4.0203883663
 31
0.0
 71
           5
 72
           1
 41
1.0
 42
0.0
  3
DIMSTYLE1
100
AcDbAlignedDimension
 13
3.3875069424
 23
5.1854439964
 33
0.0
 14
0.4291880593
 24
0.9549041501
 34
0.0
 50
146.55903930529
100
AcDbRotatedDimension
  0
DIMENSION
  5
35
100
AcDbEntity
  8
UNNAMED
  6
CONTINUOUS
 62
           5
100
AcDbDimension
  2
*D1
 10
4.6080260112
 20
5.6279503626
 30
0.0
 11
5.101987601
 21
3.0811844145
 31
0.0
 71
           5
 72
           1
 41
1.0
 42
0.0
  3
DIMSTYLE2
100
AcDbAlignedDimension
 13
3.3875069424
 23
5.1854439964
 33
0.0
 14
4.9213140433
 24
0.9549041501
 34
0.0
 50
51.674281824896
100
AcDbRotatedDimension
  0
DIMENSION
  5
44
100
AcDbEntity
  8
UNNAMED
  6
CONTINUOUS
 62
           5
100
AcDbDimension
  2
*D2
 10
0.4291880593
 20
-0.2160037159
 30
0.0
 11
2.5217569644
 21
-0.3660037159
 31
0.0
 71
           5
 72
           1
 41
1.0
 42
0.0
  3
DIMSTYLE3
100
AcDbAlignedDimension
 13
0.4291880593
 23
0.9549041501
 33
0.0
 14
4.9213140433
 24
0.9549041501
 34
0.0
100
AcDbRotatedDimension
  0
ARC
  5
56
100
AcDbEntity
  8
UNNAMED
  6
CONTINUOUS
 62
           2
100
AcDbCircle
 10
2.6752510513
 20
2.5338961188
 30
0.0
 40
2.528
100
AcDbArc
 50
117.3006702916
 51
172.6993297084
  0
ARC
  5
57
100
AcDbEntity
  8
UNNAMED
  6
CONTINUOUS
 62
           2
100
AcDbCircle
 10
2.6752510513
 20
2.5338961188
 30
0.0
 40
2.528
100
AcDbArc
 50
257.3006702916
 51
282.6993297084
  0
ARC
  5
58
100
AcDbEntity
  8
UNNAMED
  6
CONTINUOUS
 62
           2
100
AcDbCircle
 10
2.6752510513
 20
2.5338961188
 30
0.0
 40
2.528
100
AcDbArc
 50
7.3006702916
 51
32.6993297084
  0
ARC
  5
5A
100
AcDbEntity
  8
UNNAMED
  6
CONTINUOUS
 62
           2
100
AcDbCircle
 10
0.4291880593
 20
0.9611858805
 30
0.0
 40
0.5
100
AcDbArc
 50
172.6993297084
 51
257.3006702916
  0
ARC
  5
5B
100
AcDbEntity
  8
UNNAMED
  6
CONTINUOUS
 62
           2
100
AcDbCircle
 10
4.9213140433
 20
0.9611858805
 30
0.0
 40
0.5
100
AcDbArc
 50
282.6993297084
 51
7.3006702916
  0
ARC
  5
5C
100
AcDbEntity
  8
UNNAMED
  6
CONTINUOUS
 62
           2
100
AcDbCircle
 10
3.3849164704
 20
5.1824035193
 30
0.0
 40
0.5
100
AcDbArc
 50
32.6993297084
 51
117.3006702916
  0
LINE
  5
5D
100
AcDbEntity
  8
UNNAMED
  6
CONTINUOUS
 62
           2
100
AcDbLine
 10
0.1677456585
 20
2.8551447842
 30
0.0
 11
-0.0667584187
 21
1.0247239868
 31
0.0
  0
LINE
  5
5E
100
AcDbEntity
  8
UNNAMED
  6
CONTINUOUS
 62
           2
100
AcDbLine
 10
1.5157586972
 20
4.7803069184
 30
0.0
 11
3.1555864953
 21
5.6267094528
 31
0.0
  0
LINE
  5
5F
100
AcDbEntity
  8
UNNAMED
  6
CONTINUOUS
 62
           2
100
AcDbLine
 10
4.8026062853
 20
3.8995987616
 30
0.0
 11
3.8056750214
 21
5.4525187572
 31
0.0
  0
LINE
  5
60
100
AcDbEntity
  8
UNNAMED
  6
CONTINUOUS
 62
           2
100
AcDbLine
 10
5.1827564441
 20
2.8551447842
 30
0.0
 11
5.340396881
 21
1.6246828763
 31
0.0
  0
LINE
  5
61
100
AcDbEntity
  8
UNNAMED
  6
CONTINUOUS
 62
           2
100
AcDbLine
 10
2.1195086977
 20
0.06773829
 30
0.0
 11
0.3192706634
 21
0.4734173226
 31
0.0
  0
LINE
  5
62
100
AcDbEntity
  8
UNNAMED
  6
CONTINUOUS
 62
           2
100
AcDbLine
 10
3.2309934049
 20
0.06773829
 30
0.0
 11
5.0312314392
 21
0.4734173226
 31
0.0
  0
LINE
  5
63
100
AcDbEntity
  8
UNNAMED
  6
CONTINUOUS
 62
           2
100
AcDbLine
 10
5.340396881
 20
1.6246828763
 30
0.0
 11
5.4172605213
 21
1.0247239868
 31
0.0
  0
LINE
  5
6B
100
AcDbEntity
  8
UNNAMED
  6
DASHED
 62
          15
100
AcDbLine
 10
3.3875069424
 20
5.1854439964
 30
0.0
 11
4.9213140433
 21
0.9549041501
 31
0.0
  0
LINE
  5
6C
100
AcDbEntity
  8
UNNAMED
  6
DASHED
 62
          15
100
AcDbLine
 10
0.4291880593
 20
0.9549041501
 30
0.0
 11
4.9213140433
 21
0.9549041501
 31
0.0
  0
LINE
  5
6D
100
AcDbEntity
  8
UNNAMED
  6
DASHED
 62
          15
100
AcDbLine
 10
0.4291880593
 20
0.9549041501
 30
0.0
 11
3.3875069424
 21
5.1854439964
 31
0.0
  0
DIMENSION
  5
71
100
AcDbEntity
  8
UNNAMED
  6
CONTINUOUS
 62
          15
100
AcDbDimension
  2
*D3
 10
0.4291880593
 20
0.9549041501
 30
0.0
 11
0.8270641786
 21
1.8505805265
 31
0.0
 70
           2
 71
           5
 72
           1
 41
1.0
 42
0.0
  3
DIMSTYLE4
100
AcDb2LineAngularDimension
 13
0.4291880593
 23
0.9549041501
 33
0.0
 14
0.4297611239
 24
0.9557236603
 34
0.0
 15
0.4301880593
 25
0.9549041501
 35
0.0
 16
0.9894141975
 26
1.7560547678
 36
0.0
  0
DIMENSION
  5
81
100
AcDbEntity
  8
UNNAMED
  6
CONTINUOUS
 62
          15
100
AcDbDimension
  2
*D4
 10
3.3875069424
 20
5.1854439964
 30
0.0
 11
2.1120932063
 21
3.540705049
 31
0.0
 70
           2
 71
           5
 72
           1
 41
1.0
 42
0.0
  3
DIMSTYLE5
100
AcDb2LineAngularDimension
 13
3.3875069424
 23
5.1854439964
 33
0.0
 14
3.3878477882
 24
5.1845038772
 34
0.0
 15
3.3869338778
 25
5.1846244862
 35
0.0
 16
4.0228455819
 26
3.4330558189
 36
0.0
  0
DIMENSION
  5
91
100
AcDbEntity
  8
UNNAMED
  6
CONTINUOUS
 62
          15
100
AcDbDimension
  2
*D5
 10
4.9213140433
 20
0.9549041501
 30
0.0
 11
3.3306597943
 21
0.9652978573
 31
0.0
 70
           2
 71
           5
 72
           1
 41
1.0
 42
0.0
  3
DIMSTYLE6
100
AcDb2LineAngularDimension
 13
4.9213140433
 23
0.9549041501
 33
0.0
 14
4.9203140433
 24
0.9549041501
 34
0.0
 15
4.9209731975
 25
0.9558442693
 35
0.0
 16
4.3583889216
 26
2.5075616886
 36
0.0
  0
CIRCLE
  5
AB
100
AcDbEntity
  8
0
370
           0
  6
CONTINUOUS
 62
           5
100
AcDbCircle
 10
2.685498720848
 20
2.533951934823
 30
0.0
 40
2.0
  0
LINE
  5
B3
100
AcDbEntity
  8
0
370
           0
  6
CONTINUOUS
 62
           5
100
AcDbLine
 10
4.9213140433
 20
0.9549041501
 30
0.0
 11
4.912714799556
 21
1.169231710173
 31
0.0
  0
CIRCLE
  5
B4
100
AcDbEntity
  8
0
370
           0
  6
CONTINUOUS
 62
           5
100
AcDbCircle
 10
4.9213140433
 20
0.9549041501
 30
0.0
 40
0.2145
  0
CIRCLE
  5
B5
100
AcDbEntity
  8
0
370
           0
  6
CONTINUOUS
 62
           5
100
AcDbCircle
 10
4.9213140433
 20
0.9549041501
 30
0.0
 40
0.2145
  0
CIRCLE
  5
B6
100
AcDbEntity
  8
0
370
           0
  6
CONTINUOUS
 62
           5
100
AcDbCircle
 10
0.4291880593
 20
0.9549041501
 30
0.0
 40
0.2145669292
  0
CIRCLE
  5
B7
100
AcDbEntity
  8
0
370
           0
  6
CONTINUOUS
 62
           5
100
AcDbCircle
 10
0.4291880593
 20
0.9549041501
 30
0.0
 40
0.214566929116
  0
CIRCLE
  5
B8
100
AcDbEntity
  8
0
370
           0
  6
CONTINUOUS
 62
           5
100
AcDbCircle
 10
3.3875069424
 20
5.1854439964
 30
0.0
 40
0.2145
  0
ENDSEC
  0
SECTION
  2
OBJECTS
  0
DICTIONARY
  5
19
100
AcDbDictionary
280
           0
281
           1
  3
ACAD_GROUP
350
1A
  3
ACAD_MLINESTYLE
350
1B
  3
ACAD_LAYOUT
350
A1
  3
ACAD_PLOTSETTINGS
350
A5
  3
ACAD_PLOTSTYLENAME
350
A2
  3
ACAD_WIPEOUT_VARS
350
A6
  0
DICTIONARY
  5
1A
102
{ACAD_REACTORS
330
19
102
}
100
AcDbDictionary
280
           0
281
           1
  0
DICTIONARY
  5
1B
102
{ACAD_REACTORS
330
19
102
}
100
AcDbDictionary
280
           0
281
           1
  3
STANDARD
350
1C
  0
MLINESTYLE
  5
1C
102
{ACAD_REACTORS
330
1B
102
}
100
AcDbMlineStyle
  2
Standard
 70
           0
  3

 62
           0
 51
90.0
 52
90.0
 71
           2
 49
0.5
 62
         256
  6
ByLayer
 49
-0.5
 62
         256
  6
ByLayer
  0
ACDBDICTIONARYWDFLT
  5
A2
102
{ACAD_REACTORS
330
19
102
}
100
AcDbDictionary
281
           1
  3
NORMAL
350
A0
100
AcDbDictionaryWithDefault
340
A0
  0
ACDBPLACEHOLDER
  5
A0
102
{ACAD_REACTORS
330
A2
102
}
  0
LAYOUT
  5
A3
102
{ACAD_REACTORS
330
A1
102
}
100
AcDbPlotSettings
  1

  2

  4

  6

 40
0.0
 41
0.0
 42
0.0
 43
0.0
 44
0.0
 45
0.0
 46
0.0
 47
0.0
 48
0.0
 49
0.0
140
0.0
141
0.0
142
1.0
143
1.0
 70
        1024
 72
           0
 73
           0
 74
           0
  7

 75
           0
147
1.0
148
0.0
149
0.0
100
AcDbLayout
  1
MODEL
 70
           0
 71
           0
 10
0.0
 20
0.0
 11
0.0
 21
0.0
 12
0.0
 22
0.0
 32
0.0
 14
0.0
 24
0.0
 34
0.0
 15
0.0
 25
0.0
 35
0.0
146
0.0
 13
0.0
 23
0.0
 33
0.0
 16
0.0
 26
0.0
 36
0.0
 17
0.0
 27
0.0
 37
0.0
 76
           0
330
A
331
0
345
0
346
0
  0
LAYOUT
  5
A4
102
{ACAD_REACTORS
330
A1
102
}
100
AcDbPlotSettings
  1

  2

  4

  6

 40
0.0
 41
0.0
 42
0.0
 43
0.0
 44
0.0
 45
0.0
 46
0.0
 47
0.0
 48
0.0
 49
0.0
140
0.0
141
0.0
142
1.0
143
1.0
 70
           0
 72
           0
 73
           0
 74
           0
  7

 75
           0
147
1.0
148
0.0
149
0.0
100
AcDbLayout
  1
LAYOUT1
 70
           0
 71
           0
 10
0.0
 20
0.0
 11
0.0
 21
0.0
 12
0.0
 22
0.0
 32
0.0
 14
0.0
 24
0.0
 34
0.0
 15
0.0
 25
0.0
 35
0.0
146
0.0
 13
0.0
 23
0.0
 33
0.0
 16
0.0
 26
0.0
 36
0.0
 17
0.0
 27
0.0
 37
0.0
 76
           0
330
B
331
0
345
0
346
0
  0
DICTIONARY
  5
A1
102
{ACAD_REACTORS
330
19
102
}
100
AcDbDictionary
280
           0
281
           1
  3
MODEL
350
A3
  3
LAYOUT1
350
A4
  0
DICTIONARY
  5
A5
102
{ACAD_REACTORS
330
19
102
}
100
AcDbDictionary
280
           0
281
           1
  0
WIPEOUTVARIABLES
  5
A6
100
AcDbWipeoutVariables
 70
           1
  0
ENDSEC
  0
EOF
