  0
SECTION
  2
HEADER
  9
$ACADVER
  1
AC1015
  9
$ACADMAINTVER
 70
     6
  9
$DWGCODEPAGE
  3
ANSI_1252
  9
$INSBASE
 10
0.0
 20
0.0
 30
0.0
  9
$EXTMIN
 10
-3.0
 20
-1.625
 30
0.0
  9
$EXTMAX
 10
3.0
 20
0.375
 30
0.0
  9
$LIMMIN
 10
0.0
 20
0.0
  9
$LIMMAX
 10
12.0
 20
9.0
  9
$ORTHOMODE
 70
     0
  9
$REGENMODE
 70
     1
  9
$FILLMODE
 70
     1
  9
$QTEXTMODE
 70
     0
  9
$MIRRTEXT
 70
     1
  9
$LTSCALE
 40
1.0
  9
$ATTMODE
 70
     1
  9
$TEXTSIZE
 40
0.125
  9
$TRACEWID
 40
0.05
  9
$TEXTSTYLE
  7
Standard
  9
$CLAYER
  8
0
  9
$CELTYPE
  6
ByLayer
  9
$CECOLOR
 62
   256
  9
$CELTSCALE
 40
1.0
  9
$DISPSILH
 70
     0
  9
$DIMSCALE
 40
1.0
  9
$DIMASZ
 40
0.13
  9
$DIMEXO
 40
0.05
  9
$DIMDLI
 40
0.38
  9
$DIMRND
 40
0.0
  9
$DIMDLE
 40
0.0
  9
$DIMEXE
 40
0.125
  9
$DIMTP
 40
0.0
  9
$DIMTM
 40
0.0
  9
$DIMTXT
 40
0.125
  9
$DIMCEN
 40
0.09
  9
$DIMTSZ
 40
0.0
  9
$DIMTOL
 70
     0
  9
$DIMLIM
 70
     0
  9
$DIMTIH
 70
     1
  9
$DIMTOH
 70
     1
  9
$DIMSE1
 70
     0
  9
$DIMSE2
 70
     0
  9
$DIMTAD
 70
     0
  9
$DIMZIN
 70
     0
  9
$DIMBLK
  1

  9
$DIMASO
 70
     1
  9
$DIMSHO
 70
     1
  9
$DIMPOST
  1

  9
$DIMAPOST
  1

  9
$DIMALT
 70
     0
  9
$DIMALTD
 70
     2
  9
$DIMALTF
 40
25.4
  9
$DIMLFAC
 40
1.0
  9
$DIMTOFL
 70
     0
  9
$DIMTVP
 40
0.0
  9
$DIMTIX
 70
     0
  9
$DIMSOXD
 70
     0
  9
$DIMSAH
 70
     0
  9
$DIMBLK1
  1

  9
$DIMBLK2
  1

  9
$DIMSTYLE
  2
Standard
  9
$DIMCLRD
 70
     0
  9
$DIMCLRE
 70
     0
  9
$DIMCLRT
 70
     0
  9
$DIMTFAC
 40
1.0
  9
$DIMGAP
 40
0.06
  9
$DIMJUST
 70
     0
  9
$DIMSD1
 70
     0
  9
$DIMSD2
 70
     0
  9
$DIMTOLJ
 70
     1
  9
$DIMTZIN
 70
     0
  9
$DIMALTZ
 70
     0
  9
$DIMALTTZ
 70
     0
  9
$DIMUPT
 70
     0
  9
$DIMDEC
 70
     2
  9
$DIMTDEC
 70
     2
  9
$DIMALTU
 70
     2
  9
$DIMALTTD
 70
     2
  9
$DIMTXSTY
  7
Standard
  9
$DIMAUNIT
 70
     0
  9
$DIMADEC
 70
     2
  9
$DIMALTRND
 40
0.0
  9
$DIMAZIN
 70
     0
  9
$DIMDSEP
 70
    46
  9
$DIMATFIT
 70
     3
  9
$DIMFRAC
 70
     0
  9
$DIMLDRBLK
  1

  9
$DIMLUNIT
 70
     2
  9
$DIMLWD
 70
    -2
  9
$DIMLWE
 70
    -2
  9
$DIMTMOVE
 70
     0
  9
$LUNITS
 70
     2
  9
$LUPREC
 70
     2
  9
$SKETCHINC
 40
0.1
  9
$FILLETRAD
 40
0.5
  9
$AUNITS
 70
     0
  9
$AUPREC
 70
     2
  9
$MENU
  1
.
  9
$ELEVATION
 40
0.0
  9
$PELEVATION
 40
0.0
  9
$THICKNESS
 40
0.0
  9
$LIMCHECK
 70
     0
  9
$CHAMFERA
 40
0.0
  9
$CHAMFERB
 40
0.0
  9
$CHAMFERC
 40
0.0
  9
$CHAMFERD
 40
0.0
  9
$SKPOLY
 70
     0
  9
$TDCREATE
 40
2456811.444683136
  9
$TDUCREATE
 40
2456811.694683136
  9
$TDUPDATE
 40
2456811.444743171
  9
$TDUUPDATE
 40
2456811.694743171
  9
$TDINDWG
 40
0.0000000116
  9
$TDUSRTIMER
 40
0.0000000116
  9
$USRTIMER
 70
     1
  9
$ANGBASE
 50
0.0
  9
$ANGDIR
 70
     0
  9
$PDMODE
 70
     0
  9
$PDSIZE
 40
-1.0
  9
$PLINEWID
 40
0.0
  9
$SPLFRAME
 70
     0
  9
$SPLINETYPE
 70
     6
  9
$SPLINESEGS
 70
     8
  9
$HANDSEED
  5
DB
  9
$SURFTAB1
 70
     6
  9
$SURFTAB2
 70
     6
  9
$SURFTYPE
 70
     6
  9
$SURFU
 70
     6
  9
$SURFV
 70
     6
  9
$UCSBASE
  2

  9
$UCSNAME
  2

  9
$UCSORG
 10
0.0
 20
0.0
 30
0.0
  9
$UCSXDIR
 10
1.0
 20
0.0
 30
0.0
  9
$UCSYDIR
 10
0.0
 20
1.0
 30
0.0
  9
$UCSORTHOREF
  2

  9
$UCSORTHOVIEW
 70
     0
  9
$UCSORGTOP
 10
0.0
 20
0.0
 30
0.0
  9
$UCSORGBOTTOM
 10
0.0
 20
0.0
 30
0.0
  9
$UCSORGLEFT
 10
0.0
 20
0.0
 30
0.0
  9
$UCSORGRIGHT
 10
0.0
 20
0.0
 30
0.0
  9
$UCSORGFRONT
 10
0.0
 20
0.0
 30
0.0
  9
$UCSORGBACK
 10
0.0
 20
0.0
 30
0.0
  9
$PUCSBASE
  2

  9
$PUCSNAME
  2

  9
$PUCSORG
 10
0.0
 20
0.0
 30
0.0
  9
$PUCSXDIR
 10
1.0
 20
0.0
 30
0.0
  9
$PUCSYDIR
 10
0.0
 20
1.0
 30
0.0
  9
$PUCSORTHOREF
  2

  9
$PUCSORTHOVIEW
 70
     0
  9
$PUCSORGTOP
 10
0.0
 20
0.0
 30
0.0
  9
$PUCSORGBOTTOM
 10
0.0
 20
0.0
 30
0.0
  9
$PUCSORGLEFT
 10
0.0
 20
0.0
 30
0.0
  9
$PUCSORGRIGHT
 10
0.0
 20
0.0
 30
0.0
  9
$PUCSORGFRONT
 10
0.0
 20
0.0
 30
0.0
  9
$PUCSORGBACK
 10
0.0
 20
0.0
 30
0.0
  9
$USERI1
 70
     0
  9
$USERI2
 70
     0
  9
$USERI3
 70
     0
  9
$USERI4
 70
     0
  9
$USERI5
 70
     0
  9
$USERR1
 40
0.0
  9
$USERR2
 40
0.0
  9
$USERR3
 40
0.0
  9
$USERR4
 40
0.0
  9
$USERR5
 40
0.0
  9
$WORLDVIEW
 70
     1
  9
$SHADEDGE
 70
     3
  9
$SHADEDIF
 70
    70
  9
$TILEMODE
 70
     1
  9
$MAXACTVP
 70
    64
  9
$PINSBASE
 10
0.0
 20
0.0
 30
0.0
  9
$PLIMCHECK
 70
     0
  9
$PEXTMIN
 10
1.0000000000E+20
 20
1.0000000000E+20
 30
1.0000000000E+20
  9
$PEXTMAX
 10
-1.0000000000E+20
 20
-1.0000000000E+20
 30
-1.0000000000E+20
  9
$PLIMMIN
 10
0.0
 20
0.0
  9
$PLIMMAX
 10
12.0
 20
9.0
  9
$UNITMODE
 70
     0
  9
$VISRETAIN
 70
     1
  9
$PLINEGEN
 70
     0
  9
$PSLTSCALE
 70
     1
  9
$TREEDEPTH
 70
  3020
  9
$CMLSTYLE
  2
Standard
  9
$CMLJUST
 70
     0
  9
$CMLSCALE
 40
1.0
  9
$PROXYGRAPHICS
 70
     1
  9
$MEASUREMENT
 70
     0
  9
$CELWEIGHT
370
    -1
  9
$ENDCAPS
280
     0
  9
$JOINSTYLE
280
     0
  9
$LWDISPLAY
290
     1
  9
$INSUNITS
 70
     1
  9
$HYPERLINKBASE
  1

  9
$STYLESHEET
  1

  9
$XEDIT
290
     1
  9
$CEPSNTYPE
380
     0
  9
$PSTYLEMODE
290
     1
  9
$FINGERPRINTGUID
  2
{9A1748B1-1D71-45B3-9249-1F330720C9A9}
  9
$VERSIONGUID
  2
{FAEB1C32-E019-11D5-929B-00C0DF256EC4}
  9
$EXTNAMES
290
     1
  9
$PSVPSCALE
 40
0.0
  9
$OLESTARTUP
290
     0
  0
ENDSEC
  0
SECTION
  2
CLASSES
  0
CLASS
  1
ACDBDICTIONARYWDFLT
  2
AcDbDictionaryWithDefault
  3
ObjectDBX Classes
 90
        0
280
     0
281
     0
  0
CLASS
  1
VISUALSTYLE
  2
AcDbVisualStyle
  3
ObjectDBX Classes
 90
     4095
280
     0
281
     0
  0
CLASS
  1
MATERIAL
  2
AcDbMaterial
  3
ObjectDBX Classes
 90
     1153
280
     0
281
     0
  0
CLASS
  1
SCALE
  2
AcDbScale
  3
ObjectDBX Classes
 90
     1153
280
     0
281
     0
  0
CLASS
  1
SUN
  2
AcDbSun
  3
SCENEOE
 90
     1153
280
     0
281
     0
  0
CLASS
  1
ACDBPLACEHOLDER
  2
AcDbPlaceHolder
  3
ObjectDBX Classes
 90
        0
280
     0
281
     0
  0
CLASS
  1
LAYOUT
  2
AcDbLayout
  3
ObjectDBX Classes
 90
        0
280
     0
281
     0
  0
ENDSEC
  0
SECTION
  2
TABLES
  0
TABLE
  2
VPORT
  5
8
330
0
100
AcDbSymbolTable
 70
     1
  0
VPORT
  5
29
330
8
100
AcDbSymbolTableRecord
100
AcDbViewportTableRecord
  2
*Active
 70
     0
 10
0.0
 20
0.0
 11
1.0
 21
1.0
 12
0.0
 22
-0.625
 13
0.0
 23
0.0
 14
0.5
 24
0.5
 15
0.5
 25
0.5
 16
0.0
 26
0.0
 36
1.0
 17
0.0
 27
0.0
 37
0.0
 40
2.04
 41
3.0
 42
50.0
 43
0.0
 44
0.0
 50
0.0
 51
0.0
 71
     0
 72
   100
 73
     1
 74
     3
 75
     0
 76
     0
 77
     0
 78
     0
281
     0
 65
     1
110
0.0
120
0.0
130
0.0
111
1.0
121
0.0
131
0.0
112
0.0
122
1.0
132
0.0
 79
     0
146
0.0
  0
ENDTAB
  0
TABLE
  2
LTYPE
  5
5
330
0
100
AcDbSymbolTable
 70
     6
  0
LTYPE
  5
14
330
5
100
AcDbSymbolTableRecord
100
AcDbLinetypeTableRecord
  2
ByBlock
 70
     0
  3

 72
    65
 73
     0
 40
0.0
  0
LTYPE
  5
15
330
5
100
AcDbSymbolTableRecord
100
AcDbLinetypeTableRecord
  2
ByLayer
 70
     0
  3

 72
    65
 73
     0
 40
0.0
  0
LTYPE
  5
16
330
5
100
AcDbSymbolTableRecord
100
AcDbLinetypeTableRecord
  2
Continuous
 70
     0
  3
Solid line
 72
    65
 73
     0
 40
0.0
  0
LTYPE
  5
6A
330
5
100
AcDbSymbolTableRecord
100
AcDbLinetypeTableRecord
  2
HIDDEN
 70
     0
  3
Hidden __ __ __ __ __ __ __ __ __ __ __ __ __ __
 72
    65
 73
     2
 40
0.075
 49
0.05
 74
     0
 49
-0.025
 74
     0
  0
LTYPE
  5
6B
330
5
100
AcDbSymbolTableRecord
100
AcDbLinetypeTableRecord
  2
PHANTOM
 70
     0
  3
Phantom ______  __  __  ______  __  __  ______
 72
    65
 73
     6
 40
0.5
 49
0.25
 74
     0
 49
-0.05
 74
     0
 49
0.05
 74
     0
 49
-0.05
 74
     0
 49
0.05
 74
     0
 49
-0.05
 74
     0
  0
LTYPE
  5
6C
330
5
100
AcDbSymbolTableRecord
100
AcDbLinetypeTableRecord
  2
CENTER
 70
     0
  3
Center ____ _ ____ _ ____ _ ____ _ ____ _ ____
 72
    65
 73
     4
 40
0.4
 49
0.25
 74
     0
 49
-0.05
 74
     0
 49
0.05
 74
     0
 49
-0.05
 74
     0
  0
LTYPE
  5
6D
330
5
100
AcDbSymbolTableRecord
100
AcDbLinetypeTableRecord
  2
CENTERX2
 70
     0
  3
Center (2x) ________  __  ________  __  _____
 72
    65
 73
     4
 40
0.8
 49
0.5
 74
     0
 49
-0.1
 74
     0
 49
0.1
 74
     0
 49
-0.1
 74
     0
  0
LTYPE
  5
6E
330
5
100
AcDbSymbolTableRecord
100
AcDbLinetypeTableRecord
  2
DOT2
 70
     0
  3
Dot (.5x) ........................................
 72
    65
 73
     2
 40
0.025
 49
0.0
 74
     0
 49
-0.025
 74
     0
  0
ENDTAB
  0
TABLE
  2
LAYER
  5
2
330
0
100
AcDbSymbolTable
 70
     1
  0
LAYER
  5
10
330
2
100
AcDbSymbolTableRecord
100
AcDbLayerTableRecord
  2
0
 70
     0
 62
     7
  6
Continuous
370
    -3
390
F
  0
ENDTAB
  0
TABLE
  2
STYLE
  5
3
330
0
100
AcDbSymbolTable
 70
     1
  0
STYLE
  5
11
330
3
100
AcDbSymbolTableRecord
100
AcDbTextStyleTableRecord
  2
Standard
 70
     0
 40
0.0
 41
1.0
 50
0.0
 71
     0
 42
0.125
  3
txt
  4

  0
ENDTAB
  0
TABLE
  2
VIEW
  5
6
330
0
100
AcDbSymbolTable
 70
     0
  0
ENDTAB
  0
TABLE
  2
UCS
  5
7
330
0
100
AcDbSymbolTable
 70
     0
  0
ENDTAB
  0
TABLE
  2
APPID
  5
9
330
0
100
AcDbSymbolTable
 70
     1
  0
APPID
  5
12
330
9
100
AcDbSymbolTableRecord
100
AcDbRegAppTableRecord
  2
ACAD
 70
     0
  0
ENDTAB
  0
TABLE
  2
DIMSTYLE
  5
A
330
0
100
AcDbSymbolTable
 70
     1
100
AcDbDimStyleTable
  0
DIMSTYLE
105
27
330
A
100
AcDbSymbolTableRecord
100
AcDbDimStyleTableRecord
  2
Standard
 70
     0
178
     0
340
11
  0
ENDTAB
  0
TABLE
  2
BLOCK_RECORD
  5
1
330
0
100
AcDbSymbolTable
 70
     1
  0
BLOCK_RECORD
  5
1F
330
1
100
AcDbSymbolTableRecord
100
AcDbBlockTableRecord
  2
*Model_Space
340
22
  0
BLOCK_RECORD
  5
1B
330
1
100
AcDbSymbolTableRecord
100
AcDbBlockTableRecord
  2
*Paper_Space
340
1E
  0
BLOCK_RECORD
  5
23
330
1
100
AcDbSymbolTableRecord
100
AcDbBlockTableRecord
  2
*Paper_Space0
340
26
  0
ENDTAB
  0
ENDSEC
  0
SECTION
  2
BLOCKS
  0
BLOCK
  5
20
330
1F
100
AcDbEntity
  8
0
100
AcDbBlockBegin
  2
*Model_Space
 70
     0
 10
0.0
 20
0.0
 30
0.0
  3
*Model_Space
  1
*Model_Space
  0
ENDBLK
  5
21
330
1F
100
AcDbEntity
  8
0
100
AcDbBlockEnd
  0
BLOCK
  5
1C
330
1B
100
AcDbEntity
 67
     1
  8
0
100
AcDbBlockBegin
  2
*Paper_Space
 70
     0
 10
0.0
 20
0.0
 30
0.0
  3
*Paper_Space
  1
*Paper_Space
  0
ENDBLK
  5
1D
330
1B
100
AcDbEntity
 67
     1
  8
0
100
AcDbBlockEnd
  0
BLOCK
  5
24
330
23
100
AcDbEntity
  8
0
100
AcDbBlockBegin
  2
*Paper_Space0
 70
     0
 10
0.0
 20
0.0
 30
0.0
  3
*Paper_Space0
  1
*Paper_Space0
  0
ENDBLK
  5
25
330
23
100
AcDbEntity
  8
0
100
AcDbBlockEnd
  0
ENDSEC
  0
SECTION
  2
ENTITIES
  0
SPLINE
  5
70
330
1F
100
AcDbEntity
  8
0
  6
Continuous
 62
     7
370
    15
100
AcDbSpline
210
0.0
220
0.0
230
1.0
 70
     8
 71
     3
 72
    23
 73
    19
 74
     0
 42
0.000000001
 43
0.00000001
 40
0.0
 40
0.0
 40
0.0
 40
0.0
 40
0.0570031325129239
 40
0.1118178691207239
 40
0.1644023722182113
 40
0.2158698048987948
 40
0.2668411100818674
 40
0.3174789632053577
 40
0.3699021362727596
 40
0.4234004494436353
 40
0.4797183982994507
 40
0.5392414966442968
 40
0.6024306889434222
 40
0.6710295461473352
 40
0.7444847975608476
 40
0.8234539713786841
 40
0.9087403127306661
 40
1.0
 40
1.0
 40
1.0
 40
1.0
 10
-0.4826223745259355
 20
-0.9054798920342555
 30
0.0
 10
-0.4827351274224626
 20
-0.9013172267099236
 30
0.0
 10
-0.482956304541527
 20
-0.8931517041165121
 30
0.0
 10
-0.4847677265283035
 20
-0.8812482710829939
 30
0.0
 10
-0.4878464924787838
 20
-0.8700531812589526
 30
0.0
 10
-0.4918009838873835
 20
-0.8594130147609008
 30
0.0
 10
-0.4973271314694593
 20
-0.8496604754279776
 30
0.0
 10
-0.5038335878913168
 20
-0.840458362064805
 30
0.0
 10
-0.5116948072391141
 20
-0.8321200509583249
 30
0.0
 10
-0.5206428028082511
 20
-0.8243265870336159
 30
0.0
 10
-0.5309303648493274
 20
-0.8174170453626042
 30
0.0
 10
-0.5425513559534705
 20
-0.8113654532539801
 30
0.0
 10
-0.5556630010392072
 20
-0.8064924296797247
 30
0.0
 10
-0.5700443271066525
 20
-0.8022246827202365
 30
0.0
 10
-0.5859167029992165
 20
-0.7992271911877581
 30
0.0
 10
-0.6030969644439168
 20
-0.7967300366898123
 30
0.0
 10
-0.6217258328068377
 20
-0.7954587348316846
 30
0.0
 10
-0.6346140690623473
 20
-0.7952904427871126
 30
0.0
 10
-0.6412762206797815
 20
-0.7952034497265633
 30
0.0
  0
SPLINE
  5
71
330
1F
100
AcDbEntity
  8
0
  6
Continuous
 62
     7
370
    15
100
AcDbSpline
210
0.0
220
0.0
230
1.0
 70
     8
 71
     3
 72
    23
 73
    19
 74
     0
 42
0.000000001
 43
0.00000001
 40
0.0
 40
0.0
 40
0.0
 40
0.0
 40
0.0723010339955049
 40
0.1397003317393855
 40
0.2022885114847726
 40
0.2605995332222006
 40
0.3131903291553321
 40
0.3617389329854276
 40
0.4057064756322225
 40
0.4455399848948712
 40
0.5188319558616066
 40
0.5897782395835762
 40
0.658867478656145
 40
0.7284304780610633
 40
0.7972827036080988
 40
0.8648153774014442
 40
0.9313637528792679
 40
0.9999999999999999
 40
0.9999999999999999
 40
0.9999999999999999
 40
0.9999999999999999
 10
-0.6874000187567045
 20
-1.035588065111179
 30
0.0
 10
-0.6807895626067514
 20
-1.035502367324073
 30
0.0
 10
-0.6680168141955114
 20
-1.03533678173523
 30
0.0
 10
-0.6495196935043426
 20
-1.034862456650525
 30
0.0
 10
-0.632350046748026
 20
-1.033534304489739
 30
0.0
 10
-0.6165375110893146
 20
-1.032206534049463
 30
0.0
 10
-0.602106987382182
 20
-1.03004769383579
 30
0.0
 10
-0.589090445631724
 20
-1.027477953211714
 30
0.0
 10
-0.5772836034306157
 20
-1.024760187833905
 30
0.0
 10
-0.5636679865299512
 20
-1.020138154926681
 30
0.0
 10
-0.5482237832889277
 20
-1.013307224530132
 30
0.0
 10
-0.5317595466844088
 20
-1.002706116790133
 30
0.0
 10
-0.5172450174867974
 20
-0.9900794696760413
 30
0.0
 10
-0.5049884772612383
 20
-0.975509977871393
 30
0.0
 10
-0.4949574478622512
 20
-0.9594672237589426
 30
0.0
 10
-0.4879902231863383
 20
-0.9422071779514956
 30
0.0
 10
-0.4832658051472163
 20
-0.9241600068010182
 30
0.0
 10
-0.4828390484278186
 20
-0.9117703812032057
 30
0.0
 10
-0.4826223745259355
 20
-0.9054798920342555
 30
0.0
  0
SPLINE
  5
75
330
1F
100
AcDbEntity
  8
0
  6
Continuous
 62
     7
370
    15
100
AcDbSpline
210
0.0
220
0.0
230
1.0
 70
     8
 71
     3
 72
    15
 73
    11
 74
     0
 42
0.000000001
 43
0.00000001
 40
0.0
 40
0.0
 40
0.0
 40
0.0
 40
0.0793064855229992
 40
0.1719528189279317
 40
0.2770565073915898
 40
0.3947305758644755
 40
0.5261773212767586
 40
0.6713447665976124
 40
0.8292852571892516
 40
1.0
 40
1.0
 40
1.0
 40
1.0
 10
-0.5476764610643969
 20
-1.121375324726563
 30
0.0
 10
-0.5513255530327432
 20
-1.120634949593259
 30
0.0
 10
-0.559237537107519
 20
-1.119029663589267
 30
0.0
 10
-0.572139161485124
 20
-1.117335155720112
 30
0.0
 10
-0.5868682762498969
 20
-1.115825500028945
 30
0.0
 10
-0.6034588927983384
 20
-1.114708823386718
 30
0.0
 10
-0.6219320016084152
 20
-1.113554564054995
 30
0.0
 10
-0.642327055612476
 20
-1.11310567381451
 30
0.0
 10
-0.6645607658965886
 20
-1.112570118080205
 30
0.0
 10
-0.6799877028393866
 20
-1.11253130359982
 30
0.0
 10
-0.6880009802951662
 20
-1.112511142034256
 30
0.0
  0
SPLINE
  5
76
330
1F
100
AcDbEntity
  8
0
  6
Continuous
 62
     7
370
    15
100
AcDbSpline
210
0.0
220
0.0
230
1.0
 70
     8
 71
     3
 72
    19
 73
    15
 74
     0
 42
0.000000001
 43
0.00000001
 40
0.0
 40
0.0
 40
0.0
 40
0.0
 40
0.0602873979279713
 40
0.1196023547075219
 40
0.1775033710185416
 40
0.2351426637323306
 40
0.2921325932269342
 40
0.3508712086415665
 40
0.4100978625665939
 40
0.4707315215304503
 40
0.5948287040804157
 40
0.7225788240942908
 40
0.8566913895440166
 40
1.0
 40
1.0
 40
1.0
 40
1.0
 10
-0.4249300668336277
 20
-1.255389747803486
 30
0.0
 10
-0.4249892320487895
 20
-1.251426889121685
 30
0.0
 10
-0.4251066081388737
 20
-1.243565093024882
 30
0.0
 10
-0.426876739908227
 20
-1.232011703198897
 30
0.0
 10
-0.4294511405783165
 20
-1.220820444632631
 30
0.0
 10
-0.4327793049817207
 20
-1.209960928814465
 30
0.0
 10
-0.4376263336440894
 20
-1.199629491025645
 30
0.0
 10
-0.4432848790048958
 20
-1.189621799696345
 30
0.0
 10
-0.4499194650716036
 20
-1.179924625534104
 30
0.0
 10
-0.4602575006146702
 20
-1.167664856937813
 30
0.0
 10
-0.4752943544403825
 20
-1.153539782744225
 30
0.0
 10
-0.4966600920352871
 20
-1.139710317972801
 30
0.0
 10
-0.520954155885847
 20
-1.128557216454054
 30
0.0
 10
-0.5385743329349982
 20
-1.123821614381528
 30
0.0
 10
-0.5476764610643969
 20
-1.121375324726563
 30
0.0
  0
SPLINE
  5
77
330
1F
100
AcDbEntity
  8
0
  6
Continuous
 62
     7
370
    15
100
AcDbSpline
210
0.0
220
0.0
230
1.0
 70
     8
 71
     3
 72
    23
 73
    19
 74
     0
 42
0.000000001
 43
0.00000001
 40
0.0
 40
0.0
 40
0.0
 40
0.0
 40
0.0725024889330341
 40
0.1397389892678941
 40
0.2017951348259223
 40
0.2598219344148623
 40
0.3122059893845971
 40
0.3607734341243379
 40
0.4045403426007491
 40
0.4436980985527629
 40
0.5168407942439696
 40
0.5878743359442813
 40
0.6579654175616313
 40
0.7289693886473121
 40
0.799307719954884
 40
0.8666357778344718
 40
0.9331163290572744
 40
1.0
 40
1.0
 40
1.0
 40
1.0
 10
-0.63676900914132
 20
-1.391357295880409
 30
0.0
 10
-0.6299078107313886
 20
-1.391275064295392
 30
0.0
 10
-0.6166837553219824
 20
-1.391116573756027
 30
0.0
 10
-0.5975906345817863
 20
-1.390599169207279
 30
0.0
 10
-0.5798942551958323
 20
-1.389422252986051
 30
0.0
 10
-0.5636753689680964
 20
-1.38756957091525
 30
0.0
 10
-0.5487588434043774
 20
-1.385559903235505
 30
0.0
 10
-0.5353236213267588
 20
-1.382857485895148
 30
0.0
 10
-0.5232607941564453
 20
-1.379761280068265
 30
0.0
 10
-0.5092734424980072
 20
-1.3749753860179
 30
0.0
 10
-0.4935226907235178
 20
-1.367540427964197
 30
0.0
 10
-0.4765489357837429
 20
-1.356330236588865
 30
0.0
 10
-0.4614576033243123
 20
-1.342975242066115
 30
0.0
 10
-0.4486421906371774
 20
-1.327518617600336
 30
0.0
 10
-0.4381394073773287
 20
-1.310711904687136
 30
0.0
 10
-0.4304989527165626
 20
-1.292895043982991
 30
0.0
 10
-0.4257866262767501
 20
-1.274362430964756
 30
0.0
 10
-0.4252161614289187
 20
-1.261726706848409
 30
0.0
 10
-0.4249300668336277
 20
-1.255389747803486
 30
0.0
  0
SPLINE
  5
7B
330
1F
100
AcDbEntity
  8
0
  6
Continuous
 62
     7
370
    15
100
AcDbSpline
210
0.0
220
0.0
230
1.0
 70
     8
 71
     3
 72
    23
 73
    19
 74
     0
 42
0.000000001
 43
0.00000001
 40
0.0
 40
0.0
 40
0.0
 40
0.0
 40
0.0570031325129239
 40
0.1118178691207239
 40
0.1644023722182113
 40
0.2158698048987948
 40
0.2668411100818674
 40
0.3174789632053576
 40
0.3699021362727595
 40
0.4234004494436352
 40
0.4797183982994507
 40
0.5392414966442967
 40
0.6024306889434221
 40
0.6710295461473351
 40
0.7444847975608475
 40
0.8234539713786843
 40
0.9087403127306658
 40
1.0
 40
1.0
 40
1.0
 40
1.0
 10
0.1769930100894492
 20
-0.9054798920342555
 30
0.0
 10
0.176880257192922
 20
-0.9013172267099239
 30
0.0
 10
0.1766590800738575
 20
-0.8931517041165125
 30
0.0
 10
0.1748476580870813
 20
-0.8812482710829934
 30
0.0
 10
0.1717688921366008
 20
-0.8700531812589534
 30
0.0
 10
0.1678144007280013
 20
-0.8594130147609005
 30
0.0
 10
0.1622882531459253
 20
-0.8496604754279778
 30
0.0
 10
0.1557817967240679
 20
-0.8404583620648054
 30
0.0
 10
0.1479205773762705
 20
-0.8321200509583244
 30
0.0
 10
0.1389725818071335
 20
-0.824326587033616
 30
0.0
 10
0.1286850197660571
 20
-0.8174170453626042
 30
0.0
 10
0.1170640286619145
 20
-0.8113654532539797
 30
0.0
 10
0.1039523835761773
 20
-0.8064924296797249
 30
0.0
 10
0.0895710575087321
 20
-0.8022246827202365
 30
0.0
 10
0.0736986816161681
 20
-0.7992271911877583
 30
0.0
 10
0.0565184201714678
 20
-0.7967300366898121
 30
0.0
 10
0.037889551808547
 20
-0.7954587348316847
 30
0.0
 10
0.0250013155530374
 20
-0.7952904427871126
 30
0.0
 10
0.0183391639356031
 20
-0.7952034497265633
 30
0.0
  0
SPLINE
  5
7C
330
1F
100
AcDbEntity
  8
0
  6
Continuous
 62
     7
370
    15
100
AcDbSpline
210
0.0
220
0.0
230
1.0
 70
     8
 71
     3
 72
    23
 73
    19
 74
     0
 42
0.000000001
 43
0.00000001
 40
0.0
 40
0.0
 40
0.0
 40
0.0
 40
0.072301033995505
 40
0.1397003317393858
 40
0.2022885114847728
 40
0.2605995332222007
 40
0.3131903291553323
 40
0.3617389329854279
 40
0.4057064756322227
 40
0.4455399848948715
 40
0.5188319558616068
 40
0.5897782395835763
 40
0.6588674786561454
 40
0.7284304780610635
 40
0.797282703608099
 40
0.8648153774014444
 40
0.931363752879268
 40
1.0
 40
1.0
 40
1.0
 40
1.0
 10
-0.02778463414132
 20
-1.035588065111179
 30
0.0
 10
-0.0211741779913669
 20
-1.035502367324073
 30
0.0
 10
-0.0084014295801269
 20
-1.03533678173523
 30
0.0
 10
0.010095691111042
 20
-1.034862456650525
 30
0.0
 10
0.0272653378673587
 20
-1.03353430448974
 30
0.0
 10
0.04307787352607
 20
-1.032206534049462
 30
0.0
 10
0.0575083972332024
 20
-1.030047693835791
 30
0.0
 10
0.0705249389836606
 20
-1.027477953211714
 30
0.0
 10
0.0823317811847689
 20
-1.024760187833905
 30
0.0
 10
0.0959473980854335
 20
-1.020138154926681
 30
0.0
 10
0.1113916013264569
 20
-1.013307224530132
 30
0.0
 10
0.1278558379309758
 20
-1.002706116790133
 30
0.0
 10
0.1423703671285874
 20
-0.9900794696760411
 30
0.0
 10
0.1546269073541462
 20
-0.9755099778713927
 30
0.0
 10
0.1646579367531336
 20
-0.9594672237589427
 30
0.0
 10
0.1716251614290462
 20
-0.9422071779514956
 30
0.0
 10
0.1763495794681684
 20
-0.9241600068010184
 30
0.0
 10
0.1767763361875662
 20
-0.9117703812032055
 30
0.0
 10
0.1769930100894492
 20
-0.9054798920342555
 30
0.0
  0
SPLINE
  5
80
330
1F
100
AcDbEntity
  8
0
  6
Continuous
 62
     7
370
    15
100
AcDbSpline
210
0.0
220
0.0
230
1.0
 70
     8
 71
     3
 72
    15
 73
    11
 74
     0
 42
0.000000001
 43
0.00000001
 40
0.0
 40
0.0
 40
0.0
 40
0.0
 40
0.0793064855229992
 40
0.1719528189279317
 40
0.2770565073915898
 40
0.3947305758644757
 40
0.5261773212767583
 40
0.6713447665976122
 40
0.8292852571892514
 40
1.0
 40
1.0
 40
1.0
 40
1.0
 10
0.1119389235509877
 20
-1.121375324726563
 30
0.0
 10
0.1082898315826414
 20
-1.120634949593259
 30
0.0
 10
0.1003778475078656
 20
-1.119029663589267
 30
0.0
 10
0.0874762231302607
 20
-1.117335155720112
 30
0.0
 10
0.0727471083654878
 20
-1.115825500028945
 30
0.0
 10
0.0561564918170463
 20
-1.114708823386719
 30
0.0
 10
0.0376833830069696
 20
-1.113554564054995
 30
0.0
 10
0.0172883290029086
 20
-1.11310567381451
 30
0.0
 10
-0.0049453812812039
 20
-1.112570118080205
 30
0.0
 10
-0.0203723182240018
 20
-1.11253130359982
 30
0.0
 10
-0.0283855956797816
 20
-1.112511142034256
 30
0.0
  0
SPLINE
  5
81
330
1F
100
AcDbEntity
  8
0
  6
Continuous
 62
     7
370
    15
100
AcDbSpline
210
0.0
220
0.0
230
1.0
 70
     8
 71
     3
 72
    19
 73
    15
 74
     0
 42
0.000000001
 43
0.00000001
 40
0.0
 40
0.0
 40
0.0
 40
0.0
 40
0.0602873979279713
 40
0.1196023547075219
 40
0.1775033710185416
 40
0.2351426637323306
 40
0.2921325932269342
 40
0.3508712086415665
 40
0.4100978625665939
 40
0.4707315215304503
 40
0.5948287040804157
 40
0.7225788240942908
 40
0.8566913895440166
 40
1.0
 40
1.0
 40
1.0
 40
1.0
 10
0.2346853177817569
 20
-1.255389747803486
 30
0.0
 10
0.2346261525665951
 20
-1.251426889121685
 30
0.0
 10
0.234508776476511
 20
-1.243565093024882
 30
0.0
 10
0.2327386447071573
 20
-1.232011703198897
 30
0.0
 10
0.2301642440370685
 20
-1.220820444632631
 30
0.0
 10
0.2268360796336638
 20
-1.209960928814465
 30
0.0
 10
0.2219890509712955
 20
-1.199629491025645
 30
0.0
 10
0.2163305056104888
 20
-1.189621799696345
 30
0.0
 10
0.2096959195437813
 20
-1.179924625534104
 30
0.0
 10
0.1993578840007143
 20
-1.167664856937813
 30
0.0
 10
0.1843210301750022
 20
-1.153539782744225
 30
0.0
 10
0.1629552925800976
 20
-1.139710317972801
 30
0.0
 10
0.1386612287295374
 20
-1.128557216454054
 30
0.0
 10
0.1210410516803865
 20
-1.123821614381528
 30
0.0
 10
0.1119389235509877
 20
-1.121375324726563
 30
0.0
  0
SPLINE
  5
82
330
1F
100
AcDbEntity
  8
0
  6
Continuous
 62
     7
370
    15
100
AcDbSpline
210
0.0
220
0.0
230
1.0
 70
     8
 71
     3
 72
    23
 73
    19
 74
     0
 42
0.000000001
 43
0.00000001
 40
0.0
 40
0.0
 40
0.0
 40
0.0
 40
0.0725024889330341
 40
0.1397389892678942
 40
0.2017951348259224
 40
0.2598219344148624
 40
0.3122059893845972
 40
0.3607734341243379
 40
0.4045403426007491
 40
0.4436980985527629
 40
0.5168407942439696
 40
0.5878743359442813
 40
0.6579654175616313
 40
0.728969388647312
 40
0.7993077199548839
 40
0.8666357778344718
 40
0.9331163290572744
 40
0.9999999999999999
 40
0.9999999999999999
 40
0.9999999999999999
 40
0.9999999999999999
 10
0.0228463754740646
 20
-1.391357295880409
 30
0.0
 10
0.0297075738839961
 20
-1.391275064295391
 30
0.0
 10
0.0429316292934024
 20
-1.391116573756027
 30
0.0
 10
0.0620247500335982
 20
-1.39059916920728
 30
0.0
 10
0.0797211294195527
 20
-1.389422252986051
 30
0.0
 10
0.0959400156472881
 20
-1.387569570915251
 30
0.0
 10
0.1108565412110074
 20
-1.385559903235504
 30
0.0
 10
0.1242917632886258
 20
-1.382857485895148
 30
0.0
 10
0.1363545904589394
 20
-1.379761280068265
 30
0.0
 10
0.1503419421173773
 20
-1.3749753860179
 30
0.0
 10
0.166092693891867
 20
-1.367540427964197
 30
0.0
 10
0.1830664488316417
 20
-1.356330236588865
 30
0.0
 10
0.1981577812910724
 20
-1.342975242066116
 30
0.0
 10
0.2109731939782073
 20
-1.327518617600335
 30
0.0
 10
0.221475977238056
 20
-1.310711904687136
 30
0.0
 10
0.2291164318988219
 20
-1.292895043982991
 30
0.0
 10
0.2338287583386345
 20
-1.274362430964756
 30
0.0
 10
0.2343992231864659
 20
-1.261726706848409
 30
0.0
 10
0.2346853177817569
 20
-1.255389747803486
 30
0.0
  0
SPLINE
  5
8F
330
1F
100
AcDbEntity
  8
0
  6
Continuous
 62
     7
370
    15
100
AcDbSpline
210
0.0
220
0.0
230
1.0
 70
     8
 71
     3
 72
    23
 73
    19
 74
     0
 42
0.000000001
 43
0.00000001
 40
0.0
 40
0.0
 40
0.0
 40
0.0
 40
0.0611602766365171
 40
0.1203345577262017
 40
0.1781802550631245
 40
0.2352351259863639
 40
0.2926829614441803
 40
0.3511862482150794
 40
0.4104566095096936
 40
0.4717198544629953
 40
0.5337612027725884
 40
0.5957390238870941
 40
0.6578875151248845
 40
0.7212951802914611
 40
0.7868225145418893
 40
0.8546861538286837
 40
0.9254779862699962
 40
1.0
 40
1.0
 40
1.0
 40
1.0
 10
-0.3576223745259355
 20
-1.255389747803487
 30
0.0
 10
-0.3578316986737927
 20
-1.262711220401033
 30
0.0
 10
-0.3582435497990502
 20
-1.277116422852393
 30
0.0
 10
-0.3612821151840663
 20
-1.29827823739893
 30
0.0
 10
-0.3664269238249726
 20
-1.318501440244529
 30
0.0
 10
-0.3735135980459786
 20
-1.337916836538295
 30
0.0
 10
-0.3827626654599036
 20
-1.356486865353439
 30
0.0
 10
-0.3940186578166399
 20
-1.374232564779122
 30
0.0
 10
-0.4074397071643912
 20
-1.390975635624779
 30
0.0
 10
-0.4224531790826594
 20
-1.406902126289709
 30
0.0
 10
-0.4394379245445217
 20
-1.421222366433942
 30
0.0
 10
-0.4577627291707804
 20
-1.433975732151369
 30
0.0
 10
-0.4776583691479915
 20
-1.444464174033256
 30
0.0
 10
-0.4987980821515158
 20
-1.45327475006958
 30
0.0
 10
-0.5214190070331379
 20
-1.460004864026375
 30
0.0
 10
-0.5454195657530981
 20
-1.464713272719086
 30
0.0
 10
-0.5707790590034504
 20
-1.467885780647356
 30
0.0
 10
-0.5881811485273459
 20
-1.468146610267702
 30
0.0
 10
-0.5971055476028585
 20
-1.468280372803486
 30
0.0
  0
SPLINE
  5
90
330
1F
100
AcDbEntity
  8
0
  6
Continuous
 62
     7
370
    15
100
AcDbSpline
210
0.0
220
0.0
230
1.0
 70
     8
 71
     3
 72
    19
 73
    15
 74
     0
 42
0.000000001
 43
0.00000001
 40
0.0
 40
0.0
 40
0.0
 40
0.0
 40
0.1060574933033961
 40
0.2029142570846097
 40
0.2903001653958371
 40
0.3702225656250397
 40
0.4463837207709695
 40
0.5213968999648272
 40
0.5982910828464563
 40
0.6761424688569272
 40
0.7555286995560221
 40
0.8348871724576572
 40
0.9166460487466417
 40
1.0
 40
1.0
 40
1.0
 40
1.0
 10
-0.5020033841413201
 20
-1.063683017034256
 30
0.0
 10
-0.4934832925138637
 20
-1.066954088235818
 30
0.0
 10
-0.4771822466468602
 20
-1.073212457749014
 30
0.0
 10
-0.4547495296971552
 20
-1.084277200034095
 30
0.0
 10
-0.435422062912269
 20
-1.096311937975105
 30
0.0
 10
-0.4190512459154419
 20
-1.10945447729161
 30
0.0
 10
-0.4050503198618762
 20
-1.123620651032351
 30
0.0
 10
-0.3928246895248315
 20
-1.139018175514142
 30
0.0
 10
-0.3823929664903519
 20
-1.155847909345012
 30
0.0
 10
-0.3734544828691552
 20
-1.173934381208383
 30
0.0
 10
-0.3664797494349641
 20
-1.193092910141998
 30
0.0
 10
-0.3612563413557346
 20
-1.213143790734293
 30
0.0
 10
-0.3582633165409199
 20
-1.234015123990227
 30
0.0
 10
-0.3578373934098771
 20
-1.248219133848474
 30
0.0
 10
-0.3576223745259354
 20
-1.255389747803486
 30
0.0
  0
SPLINE
  5
91
330
1F
100
AcDbEntity
  8
0
  6
Continuous
 62
     7
370
    15
100
AcDbSpline
210
0.0
220
0.0
230
1.0
 70
     8
 71
     3
 72
    15
 73
    11
 74
     0
 42
0.000000001
 43
0.00000001
 40
0.0
 40
0.0
 40
0.0
 40
0.0
 40
0.1305691070873096
 40
0.2565806086940825
 40
0.3805516168036841
 40
0.5036229172007085
 40
0.6257393231697883
 40
0.747548581959627
 40
0.8717661185648721
 40
1.0
 40
1.0
 40
1.0
 40
1.0
 10
-0.4153146822182431
 20
-0.9041277285727172
 30
0.0
 10
-0.415548943313077
 20
-0.9124104190751362
 30
0.0
 10
-0.4160092884563246
 20
-0.9286866870082111
 30
0.0
 10
-0.4204113083133436
 20
-0.9524925675689933
 30
0.0
 10
-0.4273028801218173
 20
-0.975153543031996
 30
0.0
 10
-0.4368825763712337
 20
-0.9965869113356167
 30
0.0
 10
-0.449333004127968
 20
-1.016308399866827
 30
0.0
 10
-0.4640883581276338
 20
-1.034477099733623
 30
0.0
 10
-0.4818905300899854
 20
-1.050323754803969
 30
0.0
 10
-0.4952283672302538
 20
-1.059182948207696
 30
0.0
 10
-0.5020033841413201
 20
-1.063683017034256
 30
0.0
  0
SPLINE
  5
92
330
1F
100
AcDbEntity
  8
0
  6
Continuous
 62
     7
370
    15
100
AcDbSpline
210
0.0
220
0.0
230
1.0
 70
     8
 71
     3
 72
    23
 73
    19
 74
     0
 42
0.000000001
 43
0.00000001
 40
0.0
 40
0.0
 40
0.0
 40
0.0
 40
0.062594097187332
 40
0.1213229386347496
 40
0.1766801421977657
 40
0.2283650957096756
 40
0.2768684458368075
 40
0.321879127666046
 40
0.3640986251098922
 40
0.403355696242702
 40
0.4779679481633713
 40
0.550535461364776
 40
0.6235844567403238
 40
0.6981748822642041
 40
0.7733536703408754
 40
0.8472811254977338
 40
0.9228183395566696
 40
1.0
 40
1.0
 40
1.0
 40
1.0
 10
-0.6535959322182432
 20
-0.7182803728034864
 30
0.0
 10
-0.6464326868922887
 20
-0.7183180336038644
 30
0.0
 10
-0.6325485346773363
 20
-0.7183910296079363
 30
0.0
 10
-0.6123586542854644
 20
-0.7195231291394332
 30
0.0
 10
-0.5934481948624918
 20
-0.7210667726848543
 30
0.0
 10
-0.575811672215949
 20
-0.7235160782514704
 30
0.0
 10
-0.5594572359892889
 20
-0.7264714590683288
 30
0.0
 10
-0.544335599438325
 20
-0.7300504196591138
 30
0.0
 10
-0.5304948482379735
 20
-0.7343418368717604
 30
0.0
 10
-0.5139706904366532
 20
-0.7411660399930009
 30
0.0
 10
-0.4951305488197603
 20
-0.7513067189250819
 30
0.0
 10
-0.4747308932405499
 20
-0.7662914114570144
 30
0.0
 10
-0.4572871276635524
 20
-0.7846197964113809
 30
0.0
 10
-0.4422472025404918
 20
-0.805294651145164
 30
0.0
 10
-0.4302898197666563
 20
-0.8280380308060961
 30
0.0
 10
-0.4216392560561509
 20
-0.8523078569727078
 30
0.0
 10
-0.4161625684792957
 20
-0.8777910873840375
 30
0.0
 10
-0.4155993325758885
 20
-0.8952860540723795
 30
0.0
 10
-0.4153146822182431
 20
-0.9041277285727172
 30
0.0
  0
CIRCLE
  5
95
330
1F
100
AcDbEntity
  8
0
  6
Continuous
 62
     7
370
    15
100
AcDbCircle
 10
2.0
 20
0.0
 30
0.0
 40
0.125
  0
CIRCLE
  5
96
330
1F
100
AcDbEntity
  8
0
  6
Continuous
 62
     7
370
    15
100
AcDbCircle
 10
-2.0
 20
0.0
 30
0.0
 40
0.125
  0
SPLINE
  5
A4
330
1F
100
AcDbEntity
  8
0
  6
Continuous
 62
     7
370
    15
100
AcDbSpline
210
0.0
220
0.0
230
1.0
 70
     8
 71
     3
 72
    23
 73
    19
 74
     0
 42
0.000000001
 43
0.00000001
 40
0.0
 40
0.0
 40
0.0
 40
0.0
 40
0.0611602766365171
 40
0.1203345577262017
 40
0.1781802550631245
 40
0.2352351259863639
 40
0.2926829614441803
 40
0.3511862482150794
 40
0.4104566095096936
 40
0.4717198544629953
 40
0.5337612027725884
 40
0.5957390238870941
 40
0.6578875151248845
 40
0.7212951802914611
 40
0.7868225145418893
 40
0.8546861538286837
 40
0.9254779862699962
 40
1.0
 40
1.0
 40
1.0
 40
1.0
 10
0.3019930100894492
 20
-1.255389747803487
 30
0.0
 10
0.3017836859415919
 20
-1.262711220401033
 30
0.0
 10
0.3013718348163342
 20
-1.277116422852393
 30
0.0
 10
0.2983332694313187
 20
-1.29827823739893
 30
0.0
 10
0.293188460790412
 20
-1.318501440244529
 30
0.0
 10
0.2861017865694059
 20
-1.337916836538295
 30
0.0
 10
0.2768527191554809
 20
-1.356486865353439
 30
0.0
 10
0.2655967267987447
 20
-1.374232564779122
 30
0.0
 10
0.2521756774509934
 20
-1.390975635624779
 30
0.0
 10
0.237162205532725
 20
-1.406902126289709
 30
0.0
 10
0.2201774600708633
 20
-1.421222366433942
 30
0.0
 10
0.2018526554446041
 20
-1.433975732151369
 30
0.0
 10
0.1819570154673933
 20
-1.444464174033256
 30
0.0
 10
0.1608173024638687
 20
-1.45327475006958
 30
0.0
 10
0.1381963775822465
 20
-1.460004864026375
 30
0.0
 10
0.1141958188622868
 20
-1.464713272719086
 30
0.0
 10
0.0888363256119342
 20
-1.467885780647356
 30
0.0
 10
0.0714342360880388
 20
-1.468146610267702
 30
0.0
 10
0.0625098370125261
 20
-1.468280372803486
 30
0.0
  0
SPLINE
  5
A5
330
1F
100
AcDbEntity
  8
0
  6
Continuous
 62
     7
370
    15
100
AcDbSpline
210
0.0
220
0.0
230
1.0
 70
     8
 71
     3
 72
    19
 73
    15
 74
     0
 42
0.000000001
 43
0.00000001
 40
0.0
 40
0.0
 40
0.0
 40
0.0
 40
0.1060574933033961
 40
0.2029142570846097
 40
0.2903001653958371
 40
0.3702225656250397
 40
0.4463837207709695
 40
0.5213968999648272
 40
0.5982910828464563
 40
0.6761424688569272
 40
0.7555286995560221
 40
0.8348871724576572
 40
0.9166460487466417
 40
1.0
 40
1.0
 40
1.0
 40
1.0
 10
0.1576120004740646
 20
-1.063683017034256
 30
0.0
 10
0.1661320921015209
 20
-1.066954088235818
 30
0.0
 10
0.1824331379685245
 20
-1.073212457749014
 30
0.0
 10
0.2048658549182296
 20
-1.084277200034095
 30
0.0
 10
0.2241933217031155
 20
-1.096311937975105
 30
0.0
 10
0.2405641386999431
 20
-1.10945447729161
 30
0.0
 10
0.2545650647535083
 20
-1.123620651032351
 30
0.0
 10
0.2667906950905534
 20
-1.139018175514142
 30
0.0
 10
0.2772224181250326
 20
-1.155847909345012
 30
0.0
 10
0.2861609017462294
 20
-1.173934381208383
 30
0.0
 10
0.2931356351804205
 20
-1.193092910141998
 30
0.0
 10
0.29835904325965
 20
-1.213143790734293
 30
0.0
 10
0.3013520680744648
 20
-1.234015123990227
 30
0.0
 10
0.3017779912055076
 20
-1.248219133848474
 30
0.0
 10
0.3019930100894492
 20
-1.255389747803486
 30
0.0
  0
SPLINE
  5
A6
330
1F
100
AcDbEntity
  8
0
  6
Continuous
 62
     7
370
    15
100
AcDbSpline
210
0.0
220
0.0
230
1.0
 70
     8
 71
     3
 72
    15
 73
    11
 74
     0
 42
0.000000001
 43
0.00000001
 40
0.0
 40
0.0
 40
0.0
 40
0.0
 40
0.1305691070873096
 40
0.2565806086940825
 40
0.3805516168036841
 40
0.5036229172007085
 40
0.6257393231697883
 40
0.747548581959627
 40
0.8717661185648721
 40
1.0
 40
1.0
 40
1.0
 40
1.0
 10
0.2443007023971416
 20
-0.9041277285727172
 30
0.0
 10
0.2440664413023076
 20
-0.9124104190751362
 30
0.0
 10
0.24360609615906
 20
-0.9286866870082111
 30
0.0
 10
0.2392040763020408
 20
-0.9524925675689933
 30
0.0
 10
0.2323125044935675
 20
-0.975153543031996
 30
0.0
 10
0.2227328082441509
 20
-0.9965869113356167
 30
0.0
 10
0.2102823804874169
 20
-1.016308399866827
 30
0.0
 10
0.195527026487751
 20
-1.034477099733623
 30
0.0
 10
0.1777248545253991
 20
-1.050323754803969
 30
0.0
 10
0.164387017385131
 20
-1.059182948207696
 30
0.0
 10
0.1576120004740646
 20
-1.063683017034256
 30
0.0
  0
SPLINE
  5
A7
330
1F
100
AcDbEntity
  8
0
  6
Continuous
 62
     7
370
    15
100
AcDbSpline
210
0.0
220
0.0
230
1.0
 70
     8
 71
     3
 72
    23
 73
    19
 74
     0
 42
0.000000001
 43
0.00000001
 40
0.0
 40
0.0
 40
0.0
 40
0.0
 40
0.0625940971873317
 40
0.1213229386347495
 40
0.1766801421977657
 40
0.2283650957096754
 40
0.2768684458368074
 40
0.3218791276660459
 40
0.3640986251098921
 40
0.4033556962427018
 40
0.4779679481633712
 40
0.5505354613647759
 40
0.6235844567403237
 40
0.698174882264204
 40
0.7733536703408753
 40
0.8472811254977337
 40
0.9228183395566696
 40
1.0
 40
1.0
 40
1.0
 40
1.0
 10
0.0060194523971415
 20
-0.7182803728034864
 30
0.0
 10
0.013182697723096
 20
-0.7183180336038641
 30
0.0
 10
0.0270668499380483
 20
-0.7183910296079365
 30
0.0
 10
0.0472567303299206
 20
-0.7195231291394327
 30
0.0
 10
0.0661671897528927
 20
-0.7210667726848545
 30
0.0
 10
0.0838037123994357
 20
-0.72351607825147
 30
0.0
 10
0.1001581486260956
 20
-0.7264714590683289
 30
0.0
 10
0.1152797851770599
 20
-0.7300504196591137
 30
0.0
 10
0.129120536377411
 20
-0.7343418368717605
 30
0.0
 10
0.1456446941787315
 20
-0.7411660399930008
 30
0.0
 10
0.1644848357956245
 20
-0.751306718925082
 30
0.0
 10
0.1848844913748346
 20
-0.7662914114570144
 30
0.0
 10
0.2023282569518321
 20
-0.7846197964113811
 30
0.0
 10
0.2173681820748928
 20
-0.805294651145164
 30
0.0
 10
0.2293255648487283
 20
-0.828038030806096
 30
0.0
 10
0.2379761285592336
 20
-0.8523078569727078
 30
0.0
 10
0.243452816136089
 20
-0.8777910873840375
 30
0.0
 10
0.2440160520394961
 20
-0.8952860540723793
 30
0.0
 10
0.2443007023971416
 20
-0.9041277285727172
 30
0.0
  0
LINE
  5
AF
330
1F
100
AcDbEntity
  8
0
  6
Continuous
 62
     7
370
    15
100
AcDbLine
 10
-0.6412762207
 20
-0.7952034497
 30
0.0
 11
-0.7326223745
 21
-0.7952034497
 31
0.0
  0
LINE
  5
B0
330
1F
100
AcDbEntity
  8
0
  6
Continuous
 62
     7
370
    15
100
AcDbLine
 10
-0.7326223745
 20
-1.0355880651
 30
0.0
 11
-0.6874000188
 21
-1.0355880651
 31
0.0
  0
LINE
  5
B1
330
1F
100
AcDbEntity
  8
0
  6
Continuous
 62
     7
370
    15
100
AcDbLine
 10
-0.7326223745
 20
-0.7952034497
 30
0.0
 11
-0.7326223745
 21
-1.0355880651
 31
0.0
  0
LINE
  5
B2
330
1F
100
AcDbEntity
  8
0
  6
Continuous
 62
     7
370
    15
100
AcDbLine
 10
-0.6880009803
 20
-1.112511142
 30
0.0
 11
-0.7326223745
 21
-1.112511142
 31
0.0
  0
LINE
  5
B3
330
1F
100
AcDbEntity
  8
0
  6
Continuous
 62
     7
370
    15
100
AcDbLine
 10
-0.7326223745
 20
-1.3913572959
 30
0.0
 11
-0.6367690091
 21
-1.3913572959
 31
0.0
  0
LINE
  5
B4
330
1F
100
AcDbEntity
  8
0
  6
Continuous
 62
     7
370
    15
100
AcDbLine
 10
-0.7326223745
 20
-1.112511142
 30
0.0
 11
-0.7326223745
 21
-1.3913572959
 31
0.0
  0
LINE
  5
B5
330
1F
100
AcDbEntity
  8
0
  6
Continuous
 62
     7
370
    15
100
AcDbLine
 10
0.0183391639
 20
-0.7952034497
 30
0.0
 11
-0.0730069899
 21
-0.7952034497
 31
0.0
  0
LINE
  5
B6
330
1F
100
AcDbEntity
  8
0
  6
Continuous
 62
     7
370
    15
100
AcDbLine
 10
-0.0730069899
 20
-1.0355880651
 30
0.0
 11
-0.0277846341
 21
-1.0355880651
 31
0.0
  0
LINE
  5
B7
330
1F
100
AcDbEntity
  8
0
  6
Continuous
 62
     7
370
    15
100
AcDbLine
 10
-0.0730069899
 20
-0.7952034497
 30
0.0
 11
-0.0730069899
 21
-1.0355880651
 31
0.0
  0
LINE
  5
B8
330
1F
100
AcDbEntity
  8
0
  6
Continuous
 62
     7
370
    15
100
AcDbLine
 10
-0.0283855957
 20
-1.112511142
 30
0.0
 11
-0.0730069899
 21
-1.112511142
 31
0.0
  0
LINE
  5
B9
330
1F
100
AcDbEntity
  8
0
  6
Continuous
 62
     7
370
    15
100
AcDbLine
 10
-0.0730069899
 20
-1.3913572959
 30
0.0
 11
0.0228463755
 21
-1.3913572959
 31
0.0
  0
LINE
  5
BA
330
1F
100
AcDbEntity
  8
0
  6
Continuous
 62
     7
370
    15
100
AcDbLine
 10
-0.0730069899
 20
-1.112511142
 30
0.0
 11
-0.0730069899
 21
-1.3913572959
 31
0.0
  0
LINE
  5
BB
330
1F
100
AcDbEntity
  8
0
  6
Continuous
 62
     7
370
    15
100
AcDbLine
 10
0.5866083947
 20
-1.1028957574
 30
0.0
 11
0.5866083947
 21
-1.4682803728
 31
0.0
  0
LINE
  5
BC
330
1F
100
AcDbEntity
  8
0
  6
Continuous
 62
     7
370
    15
100
AcDbLine
 10
0.8846853178
 20
-1.1028957574
 30
0.0
 11
0.5866083947
 21
-1.1028957574
 31
0.0
  0
LINE
  5
BD
330
1F
100
AcDbEntity
  8
0
  6
Continuous
 62
     7
370
    15
100
AcDbLine
 10
0.8846853178
 20
-1.0259726805
 30
0.0
 11
0.8846853178
 21
-1.1028957574
 31
0.0
  0
LINE
  5
BE
330
1F
100
AcDbEntity
  8
0
  6
Continuous
 62
     7
370
    15
100
AcDbLine
 10
0.5866083947
 20
-1.0259726805
 30
0.0
 11
0.8846853178
 21
-1.0259726805
 31
0.0
  0
LINE
  5
BF
330
1F
100
AcDbEntity
  8
0
  6
Continuous
 62
     7
370
    15
100
AcDbLine
 10
0.5866083947
 20
-0.7952034497
 30
0.0
 11
0.5866083947
 21
-1.0259726805
 31
0.0
  0
LINE
  5
C0
330
1F
100
AcDbEntity
  8
0
  6
Continuous
 62
     7
370
    15
100
AcDbLine
 10
0.8846853178
 20
-0.7952034497
 30
0.0
 11
0.5866083947
 21
-0.7952034497
 31
0.0
  0
LINE
  5
C1
330
1F
100
AcDbEntity
  8
0
  6
Continuous
 62
     7
370
    15
100
AcDbLine
 10
0.8846853178
 20
-0.7182803728
 30
0.0
 11
0.8846853178
 21
-0.7952034497
 31
0.0
  0
LINE
  5
C2
330
1F
100
AcDbEntity
  8
0
  6
Continuous
 62
     7
370
    15
100
AcDbLine
 10
0.5193007024
 20
-0.7182803728
 30
0.0
 11
0.8846853178
 21
-0.7182803728
 31
0.0
  0
LINE
  5
C3
330
1F
100
AcDbEntity
  8
0
  6
Continuous
 62
     7
370
    15
100
AcDbLine
 10
0.5193007024
 20
-1.4682803728
 30
0.0
 11
0.5193007024
 21
-0.7182803728
 31
0.0
  0
LINE
  5
C4
330
1F
100
AcDbEntity
  8
0
  6
Continuous
 62
     7
370
    15
100
AcDbLine
 10
0.5866083947
 20
-1.4682803728
 30
0.0
 11
0.5193007024
 21
-1.4682803728
 31
0.0
  0
LINE
  5
C5
330
1F
100
AcDbEntity
  8
0
  6
Continuous
 62
     7
370
    15
100
AcDbLine
 10
-0.7999300668
 20
-0.7182803728
 30
0.0
 11
-0.6535959322
 21
-0.7182803728
 31
0.0
  0
LINE
  5
C6
330
1F
100
AcDbEntity
  8
0
  6
Continuous
 62
     7
370
    15
100
AcDbLine
 10
-0.7999300668
 20
-1.4682803728
 30
0.0
 11
-0.7999300668
 21
-0.7182803728
 31
0.0
  0
LINE
  5
C7
330
1F
100
AcDbEntity
  8
0
  6
Continuous
 62
     7
370
    15
100
AcDbLine
 10
-3.0
 20
0.275
 30
0.0
 11
-3.0
 21
-0.275
 31
0.0
  0
LINE
  5
C8
330
1F
100
AcDbEntity
  8
0
  6
Continuous
 62
     7
370
    15
100
AcDbLine
 10
2.9
 20
0.375
 30
0.0
 11
-2.9
 21
0.375
 31
0.0
  0
LINE
  5
C9
330
1F
100
AcDbEntity
  8
0
  6
Continuous
 62
     7
370
    15
100
AcDbLine
 10
3.0
 20
-0.275
 30
0.0
 11
3.0
 21
0.275
 31
0.0
  0
LINE
  5
CA
330
1F
100
AcDbEntity
  8
0
  6
Continuous
 62
     7
370
    15
100
AcDbLine
 10
1.25
 20
-1.375
 30
0.0
 11
1.25
 21
-0.625
 31
0.0
  0
LINE
  5
CB
330
1F
100
AcDbEntity
  8
0
  6
Continuous
 62
     7
370
    15
100
AcDbLine
 10
-1.0
 20
-1.625
 30
0.0
 11
1.0
 21
-1.625
 31
0.0
  0
LINE
  5
CC
330
1F
100
AcDbEntity
  8
0
  6
Continuous
 62
     7
370
    15
100
AcDbLine
 10
-1.25
 20
-0.625
 30
0.0
 11
-1.25
 21
-1.375
 31
0.0
  0
LINE
  5
CD
330
1F
100
AcDbEntity
  8
0
  6
Continuous
 62
     7
370
    15
100
AcDbLine
 10
-2.9
 20
-0.375
 30
0.0
 11
-1.5
 21
-0.375
 31
0.0
  0
LINE
  5
CE
330
1F
100
AcDbEntity
  8
0
  6
Continuous
 62
     7
370
    15
100
AcDbLine
 10
-0.1403146822
 20
-0.7182803728
 30
0.0
 11
0.0060194524
 21
-0.7182803728
 31
0.0
  0
LINE
  5
CF
330
1F
100
AcDbEntity
  8
0
  6
Continuous
 62
     7
370
    15
100
AcDbLine
 10
-0.1403146822
 20
-1.4682803728
 30
0.0
 11
-0.1403146822
 21
-0.7182803728
 31
0.0
  0
LINE
  5
D0
330
1F
100
AcDbEntity
  8
0
  6
Continuous
 62
     7
370
    15
100
AcDbLine
 10
0.062509837
 20
-1.4682803728
 30
0.0
 11
-0.1403146822
 21
-1.4682803728
 31
0.0
  0
LINE
  5
D1
330
1F
100
AcDbEntity
  8
0
  6
Continuous
 62
     7
370
    15
100
AcDbLine
 10
-0.5971055476
 20
-1.4682803728
 30
0.0
 11
-0.7999300668
 21
-1.4682803728
 31
0.0
  0
LINE
  5
D2
330
1F
100
AcDbEntity
  8
0
  6
Continuous
 62
     7
370
    15
100
AcDbLine
 10
1.5
 20
-0.375
 30
0.0
 11
2.9
 21
-0.375
 31
0.0
  0
ARC
  5
D3
330
1F
100
AcDbEntity
  8
0
  6
Continuous
 62
     7
370
    15
100
AcDbCircle
 10
2.9
 20
0.275
 30
0.0
 40
0.1000000000000008
100
AcDbArc
 50
0.0
 51
90.0
  0
ARC
  5
D4
330
1F
100
AcDbEntity
  8
0
  6
Continuous
 62
     7
370
    15
100
AcDbCircle
 10
2.9
 20
-0.275
 30
0.0
 40
0.1000000000000005
100
AcDbArc
 50
270.0
 51
0.0
  0
ARC
  5
D5
330
1F
100
AcDbEntity
  8
0
  6
Continuous
 62
     7
370
    15
100
AcDbCircle
 10
1.5
 20
-0.625
 30
0.0
 40
0.2500000000000001
100
AcDbArc
 50
90.0
 51
180.0
  0
ARC
  5
D6
330
1F
100
AcDbEntity
  8
0
  6
Continuous
 62
     7
370
    15
100
AcDbCircle
 10
1.0
 20
-1.375
 30
0.0
 40
0.2500000000000004
100
AcDbArc
 50
270.0
 51
0.0
  0
ARC
  5
D7
330
1F
100
AcDbEntity
  8
0
  6
Continuous
 62
     7
370
    15
100
AcDbCircle
 10
-1.0
 20
-1.375
 30
0.0
 40
0.2500000000000004
100
AcDbArc
 50
180.0
 51
270.0
  0
ARC
  5
D8
330
1F
100
AcDbEntity
  8
0
  6
Continuous
 62
     7
370
    15
100
AcDbCircle
 10
-2.9
 20
-0.275
 30
0.0
 40
0.1000000000000014
100
AcDbArc
 50
180.0
 51
270.0
  0
ARC
  5
D9
330
1F
100
AcDbEntity
  8
0
  6
Continuous
 62
     7
370
    15
100
AcDbCircle
 10
-2.9
 20
0.275
 30
0.0
 40
0.1000000000000014
100
AcDbArc
 50
90.0
 51
180.0
  0
ARC
  5
DA
330
1F
100
AcDbEntity
  8
0
  6
Continuous
 62
     7
370
    15
100
AcDbCircle
 10
-1.5
 20
-0.625
 30
0.0
 40
0.2500000000000004
100
AcDbArc
 50
0.0
 51
90.0
  0
ENDSEC
  0
SECTION
  2
OBJECTS
  0
DICTIONARY
  5
C
330
0
100
AcDbDictionary
281
     1
  3
ACAD_GROUP
350
D
  3
ACAD_LAYOUT
350
1A
  3
ACAD_MLINESTYLE
350
17
  3
ACAD_PLOTSETTINGS
350
19
  3
ACAD_PLOTSTYLENAME
350
E
  3
ACAD_SCALELIST
350
47
  0
DICTIONARY
  5
D
102
{ACAD_REACTORS
330
C
102
}
330
C
100
AcDbDictionary
281
     1
  0
DICTIONARY
  5
1A
102
{ACAD_REACTORS
330
C
102
}
330
C
100
AcDbDictionary
281
     1
  3
Layout1
350
1E
  3
Layout2
350
26
  3
Model
350
22
  0
DICTIONARY
  5
17
102
{ACAD_REACTORS
330
C
102
}
330
C
100
AcDbDictionary
281
     1
  3
Standard
350
18
  0
DICTIONARY
  5
19
102
{ACAD_REACTORS
330
C
102
}
330
C
100
AcDbDictionary
281
     1
  0
ACDBDICTIONARYWDFLT
  5
E
102
{ACAD_REACTORS
330
C
102
}
330
C
100
AcDbDictionary
281
     1
  3
Normal
350
F
100
AcDbDictionaryWithDefault
340
F
  0
DICTIONARY
  5
47
102
{ACAD_REACTORS
330
C
102
}
330
C
100
AcDbDictionary
281
     1
  3
A0
350
48
  3
A1
350
49
  3
A2
350
4A
  3
A3
350
4B
  3
A4
350
4C
  3
A5
350
4D
  3
A6
350
4E
  3
A7
350
4F
  3
A8
350
50
  3
A9
350
51
  3
B0
350
52
  3
B1
350
53
  3
B2
350
54
  3
B3
350
55
  3
B4
350
56
  3
B5
350
57
  3
B6
350
58
  3
B7
350
59
  3
B8
350
5A
  3
B9
350
5B
  3
C0
350
5C
  3
C1
350
5D
  3
C2
350
5E
  3
C3
350
5F
  3
C4
350
60
  3
C5
350
61
  3
C6
350
62
  3
C7
350
63
  3
C8
350
64
  3
C9
350
65
  3
D0
350
66
  3
D1
350
67
  3
D2
350
68
  0
LAYOUT
  5
1E
102
{ACAD_REACTORS
330
1A
102
}
330
1A
100
AcDbPlotSettings
  1

  2
none_device
  4

  6

 40
0.0
 41
0.0
 42
0.0
 43
0.0
 44
0.0
 45
0.0
 46
0.0
 47
0.0
 48
0.0
 49
0.0
140
0.0
141
0.0
142
1.0
143
1.0
 70
   688
 72
     0
 73
     0
 74
     5
  7

 75
    16
147
1.0
148
0.0
149
0.0
100
AcDbLayout
  1
Layout1
 70
     1
 71
     1
 10
0.0
 20
0.0
 11
12.0
 21
9.0
 12
0.0
 22
0.0
 32
0.0
 14
1.0000000000E+20
 24
1.0000000000E+20
 34
1.0000000000E+20
 15
-1.0000000000E+20
 25
-1.0000000000E+20
 35
-1.0000000000E+20
146
0.0
 13
0.0
 23
0.0
 33
0.0
 16
1.0
 26
0.0
 36
0.0
 17
0.0
 27
1.0
 37
0.0
 76
     0
330
1B
  0
LAYOUT
  5
26
102
{ACAD_REACTORS
330
1A
102
}
330
1A
100
AcDbPlotSettings
  1

  2
none_device
  4

  6

 40
0.0
 41
0.0
 42
0.0
 43
0.0
 44
0.0
 45
0.0
 46
0.0
 47
0.0
 48
0.0
 49
0.0
140
0.0
141
0.0
142
1.0
143
1.0
 70
   688
 72
     0
 73
     0
 74
     5
  7

 75
    16
147
1.0
148
0.0
149
0.0
100
AcDbLayout
  1
Layout2
 70
     1
 71
     2
 10
0.0
 20
0.0
 11
0.0
 21
0.0
 12
0.0
 22
0.0
 32
0.0
 14
0.0
 24
0.0
 34
0.0
 15
0.0
 25
0.0
 35
0.0
146
0.0
 13
0.0
 23
0.0
 33
0.0
 16
1.0
 26
0.0
 36
0.0
 17
0.0
 27
1.0
 37
0.0
 76
     0
330
23
  0
LAYOUT
  5
22
102
{ACAD_REACTORS
330
1A
102
}
330
1A
100
AcDbPlotSettings
  1

  2
none_device
  4
ANSI_A_(11.00_x_8.50_Inches)
  6

 40
6.35
 41
19.05
 42
6.35000508
 43
19.05000254
 44
279.4
 45
215.9
 46
133.34999746
 47
117.71312373
 48
0.0
 49
0.0
140
0.0
141
0.0
142
1.815
143
1.0
 70
  1696
 72
     0
 73
     0
 74
     0
  7

 75
     0
147
0.5913241897
148
-39.4088153714
149
0.0
100
AcDbLayout
  1
Model
 70
     1
 71
     0
 10
0.0
 20
0.0
 11
12.0
 21
9.0
 12
0.0
 22
0.0
 32
0.0
 14
-3.0
 24
-1.625
 34
0.0
 15
3.0
 25
0.375
 35
0.0
146
0.0
 13
0.0
 23
0.0
 33
0.0
 16
1.0
 26
0.0
 36
0.0
 17
0.0
 27
1.0
 37
0.0
 76
     0
330
1F
331
29
  0
MLINESTYLE
  5
18
102
{ACAD_REACTORS
330
17
102
}
330
17
100
AcDbMlineStyle
  2
Standard
 70
     0
  3

 62
   256
 51
90.0
 52
90.0
 71
     2
 49
0.5
 62
   256
  6
BYLAYER
 49
-0.5
 62
   256
  6
BYLAYER
  0
ACDBPLACEHOLDER
  5
F
102
{ACAD_REACTORS
330
E
102
}
330
E
  0
SCALE
  5
48
102
{ACAD_REACTORS
330
47
102
}
330
47
100
AcDbScale
 70
     0
300
1:1
140
1.0
141
1.0
290
     1
  0
SCALE
  5
49
102
{ACAD_REACTORS
330
47
102
}
330
47
100
AcDbScale
 70
     0
300
1:2
140
1.0
141
2.0
290
     0
  0
SCALE
  5
4A
102
{ACAD_REACTORS
330
47
102
}
330
47
100
AcDbScale
 70
     0
300
1:4
140
1.0
141
4.0
290
     0
  0
SCALE
  5
4B
102
{ACAD_REACTORS
330
47
102
}
330
47
100
AcDbScale
 70
     0
300
1:5
140
1.0
141
5.0
290
     0
  0
SCALE
  5
4C
102
{ACAD_REACTORS
330
47
102
}
330
47
100
AcDbScale
 70
     0
300
1:8
140
1.0
141
8.0
290
     0
  0
SCALE
  5
4D
102
{ACAD_REACTORS
330
47
102
}
330
47
100
AcDbScale
 70
     0
300
1:10
140
1.0
141
10.0
290
     0
  0
SCALE
  5
4E
102
{ACAD_REACTORS
330
47
102
}
330
47
100
AcDbScale
 70
     0
300
1:16
140
1.0
141
16.0
290
     0
  0
SCALE
  5
4F
102
{ACAD_REACTORS
330
47
102
}
330
47
100
AcDbScale
 70
     0
300
1:20
140
1.0
141
20.0
290
     0
  0
SCALE
  5
50
102
{ACAD_REACTORS
330
47
102
}
330
47
100
AcDbScale
 70
     0
300
1:30
140
1.0
141
30.0
290
     0
  0
SCALE
  5
51
102
{ACAD_REACTORS
330
47
102
}
330
47
100
AcDbScale
 70
     0
300
1:40
140
1.0
141
40.0
290
     0
  0
SCALE
  5
52
102
{ACAD_REACTORS
330
47
102
}
330
47
100
AcDbScale
 70
     0
300
1:50
140
1.0
141
50.0
290
     0
  0
SCALE
  5
53
102
{ACAD_REACTORS
330
47
102
}
330
47
100
AcDbScale
 70
     0
300
1:100
140
1.0
141
100.0
290
     0
  0
SCALE
  5
54
102
{ACAD_REACTORS
330
47
102
}
330
47
100
AcDbScale
 70
     0
300
2:1
140
2.0
141
1.0
290
     0
  0
SCALE
  5
55
102
{ACAD_REACTORS
330
47
102
}
330
47
100
AcDbScale
 70
     0
300
4:1
140
4.0
141
1.0
290
     0
  0
SCALE
  5
56
102
{ACAD_REACTORS
330
47
102
}
330
47
100
AcDbScale
 70
     0
300
8:1
140
8.0
141
1.0
290
     0
  0
SCALE
  5
57
102
{ACAD_REACTORS
330
47
102
}
330
47
100
AcDbScale
 70
     0
300
10:1
140
10.0
141
1.0
290
     0
  0
SCALE
  5
58
102
{ACAD_REACTORS
330
47
102
}
330
47
100
AcDbScale
 70
     0
300
100:1
140
100.0
141
1.0
290
     0
  0
SCALE
  5
59
102
{ACAD_REACTORS
330
47
102
}
330
47
100
AcDbScale
 70
     0
300
1/128" = 1'-0"
140
0.0078125
141
12.0
290
     0
  0
SCALE
  5
5A
102
{ACAD_REACTORS
330
47
102
}
330
47
100
AcDbScale
 70
     0
300
1/64" = 1'-0"
140
0.015625
141
12.0
290
     0
  0
SCALE
  5
5B
102
{ACAD_REACTORS
330
47
102
}
330
47
100
AcDbScale
 70
     0
300
1/32" = 1'-0"
140
0.03125
141
12.0
290
     0
  0
SCALE
  5
5C
102
{ACAD_REACTORS
330
47
102
}
330
47
100
AcDbScale
 70
     0
300
1/16" = 1'-0"
140
0.0625
141
12.0
290
     0
  0
SCALE
  5
5D
102
{ACAD_REACTORS
330
47
102
}
330
47
100
AcDbScale
 70
     0
300
3/32" = 1'-0"
140
0.09375
141
12.0
290
     0
  0
SCALE
  5
5E
102
{ACAD_REACTORS
330
47
102
}
330
47
100
AcDbScale
 70
     0
300
1/8" = 1'-0"
140
0.125
141
12.0
290
     0
  0
SCALE
  5
5F
102
{ACAD_REACTORS
330
47
102
}
330
47
100
AcDbScale
 70
     0
300
3/16" = 1'-0"
140
0.1875
141
12.0
290
     0
  0
SCALE
  5
60
102
{ACAD_REACTORS
330
47
102
}
330
47
100
AcDbScale
 70
     0
300
1/4" = 1'-0"
140
0.25
141
12.0
290
     0
  0
SCALE
  5
61
102
{ACAD_REACTORS
330
47
102
}
330
47
100
AcDbScale
 70
     0
300
3/8" = 1'-0"
140
0.375
141
12.0
290
     0
  0
SCALE
  5
62
102
{ACAD_REACTORS
330
47
102
}
330
47
100
AcDbScale
 70
     0
300
1/2" = 1'-0"
140
0.5
141
12.0
290
     0
  0
SCALE
  5
63
102
{ACAD_REACTORS
330
47
102
}
330
47
100
AcDbScale
 70
     0
300
3/4" = 1'-0"
140
0.75
141
12.0
290
     0
  0
SCALE
  5
64
102
{ACAD_REACTORS
330
47
102
}
330
47
100
AcDbScale
 70
     0
300
1" = 1'-0"
140
1.0
141
12.0
290
     0
  0
SCALE
  5
65
102
{ACAD_REACTORS
330
47
102
}
330
47
100
AcDbScale
 70
     0
300
1-1/2" = 1'-0"
140
1.5
141
12.0
290
     0
  0
SCALE
  5
66
102
{ACAD_REACTORS
330
47
102
}
330
47
100
AcDbScale
 70
     0
300
3" = 1'-0"
140
3.0
141
12.0
290
     0
  0
SCALE
  5
67
102
{ACAD_REACTORS
330
47
102
}
330
47
100
AcDbScale
 70
     0
300
6" = 1'-0"
140
6.0
141
12.0
290
     0
  0
SCALE
  5
68
102
{ACAD_REACTORS
330
47
102
}
330
47
100
AcDbScale
 70
     0
300
1'-0" = 1'-0"
140
12.0
141
12.0
290
     0
  0
ENDSEC
  0
EOF
