  0
SECTION
  2
HEADER
  9
$ACADVER
  1
AC1015
  9
$ACADMAINTVER
 70
     6
  9
$DWGCODEPAGE
  3
ANSI_1252
  9
$INSBASE
 10
0.0
 20
0.0
 30
0.0
  9
$EXTMIN
 10
1.000000000000000E+20
 20
1.000000000000000E+20
 30
1.000000000000000E+20
  9
$EXTMAX
 10
-1.000000000000000E+20
 20
-1.000000000000000E+20
 30
-1.000000000000000E+20
  9
$LIMMIN
 10
0.0
 20
0.0
  9
$LIMMAX
 10
12.0
 20
9.0
  9
$ORTHOMODE
 70
     0
  9
$REGENMODE
 70
     1
  9
$FILLMODE
 70
     1
  9
$QTEXTMODE
 70
     0
  9
$MIRRTEXT
 70
     1
  9
$LTSCALE
 40
1.0
  9
$ATTMODE
 70
     1
  9
$TEXTSIZE
 40
0.2
  9
$TRACEWID
 40
0.05
  9
$TEXTSTYLE
  7
Standard
  9
$CLAYER
  8
0
  9
$CELTYPE
  6
ByLayer
  9
$CECOLOR
 62
   256
  9
$CELTSCALE
 40
1.0
  9
$DISPSILH
 70
     0
  9
$DIMSCALE
 40
1.0
  9
$DIMASZ
 40
0.06
  9
$DIMEXO
 40
0.0625
  9
$DIMDLI
 40
0.38
  9
$DIMRND
 40
0.0
  9
$DIMDLE
 40
0.0
  9
$DIMEXE
 40
0.18
  9
$DIMTP
 40
0.0
  9
$DIMTM
 40
0.0
  9
$DIMTXT
 40
0.0821180555555555
  9
$DIMCEN
 40
0.09
  9
$DIMTSZ
 40
0.0
  9
$DIMTOL
 70
     0
  9
$DIMLIM
 70
     0
  9
$DIMTIH
 70
     1
  9
$DIMTOH
 70
     1
  9
$DIMSE1
 70
     0
  9
$DIMSE2
 70
     0
  9
$DIMTAD
 70
     0
  9
$DIMZIN
 70
     0
  9
$DIMBLK
  1

  9
$DIMASO
 70
     1
  9
$DIMSHO
 70
     1
  9
$DIMPOST
  1

  9
$DIMAPOST
  1

  9
$DIMALT
 70
     0
  9
$DIMALTD
 70
     2
  9
$DIMALTF
 40
25.4
  9
$DIMLFAC
 40
1.0
  9
$DIMTOFL
 70
     0
  9
$DIMTVP
 40
0.0
  9
$DIMTIX
 70
     0
  9
$DIMSOXD
 70
     0
  9
$DIMSAH
 70
     0
  9
$DIMBLK1
  1

  9
$DIMBLK2
  1

  9
$DIMSTYLE
  2
Standard
  9
$DIMCLRD
 70
     0
  9
$DIMCLRE
 70
     0
  9
$DIMCLRT
 70
     0
  9
$DIMTFAC
 40
1.0
  9
$DIMGAP
 40
0.09
  9
$DIMJUST
 70
     0
  9
$DIMSD1
 70
     0
  9
$DIMSD2
 70
     0
  9
$DIMTOLJ
 70
     1
  9
$DIMTZIN
 70
     0
  9
$DIMALTZ
 70
     0
  9
$DIMALTTZ
 70
     0
  9
$DIMUPT
 70
     0
  9
$DIMDEC
 70
     4
  9
$DIMTDEC
 70
     4
  9
$DIMALTU
 70
     2
  9
$DIMALTTD
 70
     2
  9
$DIMTXSTY
  7
Standard
  9
$DIMAUNIT
 70
     0
  9
$DIMADEC
 70
     0
  9
$DIMALTRND
 40
0.0
  9
$DIMAZIN
 70
     0
  9
$DIMDSEP
 70
    46
  9
$DIMATFIT
 70
     3
  9
$DIMFRAC
 70
     0
  9
$DIMLDRBLK
  1

  9
$DIMLUNIT
 70
     2
  9
$DIMLWD
 70
    -2
  9
$DIMLWE
 70
    -2
  9
$DIMTMOVE
 70
     0
  9
$LUNITS
 70
     2
  9
$LUPREC
 70
     4
  9
$SKETCHINC
 40
0.1
  9
$FILLETRAD
 40
0.5
  9
$AUNITS
 70
     0
  9
$AUPREC
 70
     0
  9
$MENU
  1
.
  9
$ELEVATION
 40
0.0
  9
$PELEVATION
 40
0.0
  9
$THICKNESS
 40
0.0
  9
$LIMCHECK
 70
     0
  9
$CHAMFERA
 40
0.5
  9
$CHAMFERB
 40
0.5
  9
$CHAMFERC
 40
1.0
  9
$CHAMFERD
 40
0.0
  9
$SKPOLY
 70
     0
  9
$TDCREATE
 40
2454174.865135266
  9
$TDUCREATE
 40
2454175.115135266
  9
$TDUPDATE
 40
2454174.865135278
  9
$TDUUPDATE
 40
2454175.115135278
  9
$TDINDWG
 40
0.0000000116
  9
$TDUSRTIMER
 40
0.0000000116
  9
$USRTIMER
 70
     1
  9
$ANGBASE
 50
0.0
  9
$ANGDIR
 70
     0
  9
$PDMODE
 70
     0
  9
$PDSIZE
 40
0.0
  9
$PLINEWID
 40
0.0
  9
$SPLFRAME
 70
     0
  9
$SPLINETYPE
 70
     6
  9
$SPLINESEGS
 70
     8
  9
$HANDSEED
  5
3D
  9
$SURFTAB1
 70
     6
  9
$SURFTAB2
 70
     6
  9
$SURFTYPE
 70
     6
  9
$SURFU
 70
     6
  9
$SURFV
 70
     6
  9
$UCSBASE
  2

  9
$UCSNAME
  2

  9
$UCSORG
 10
0.0
 20
0.0
 30
0.0
  9
$UCSXDIR
 10
1.0
 20
0.0
 30
0.0
  9
$UCSYDIR
 10
0.0
 20
1.0
 30
0.0
  9
$UCSORTHOREF
  2

  9
$UCSORTHOVIEW
 70
     0
  9
$UCSORGTOP
 10
0.0
 20
0.0
 30
0.0
  9
$UCSORGBOTTOM
 10
0.0
 20
0.0
 30
0.0
  9
$UCSORGLEFT
 10
0.0
 20
0.0
 30
0.0
  9
$UCSORGRIGHT
 10
0.0
 20
0.0
 30
0.0
  9
$UCSORGFRONT
 10
0.0
 20
0.0
 30
0.0
  9
$UCSORGBACK
 10
0.0
 20
0.0
 30
0.0
  9
$PUCSBASE
  2

  9
$PUCSNAME
  2

  9
$PUCSORG
 10
0.0
 20
0.0
 30
0.0
  9
$PUCSXDIR
 10
1.0
 20
0.0
 30
0.0
  9
$PUCSYDIR
 10
0.0
 20
1.0
 30
0.0
  9
$PUCSORTHOREF
  2

  9
$PUCSORTHOVIEW
 70
     0
  9
$PUCSORGTOP
 10
0.0
 20
0.0
 30
0.0
  9
$PUCSORGBOTTOM
 10
0.0
 20
0.0
 30
0.0
  9
$PUCSORGLEFT
 10
0.0
 20
0.0
 30
0.0
  9
$PUCSORGRIGHT
 10
0.0
 20
0.0
 30
0.0
  9
$PUCSORGFRONT
 10
0.0
 20
0.0
 30
0.0
  9
$PUCSORGBACK
 10
0.0
 20
0.0
 30
0.0
  9
$USERI1
 70
     0
  9
$USERI2
 70
     0
  9
$USERI3
 70
     0
  9
$USERI4
 70
     0
  9
$USERI5
 70
     0
  9
$USERR1
 40
0.0
  9
$USERR2
 40
0.0
  9
$USERR3
 40
0.0
  9
$USERR4
 40
0.0
  9
$USERR5
 40
0.0
  9
$WORLDVIEW
 70
     1
  9
$SHADEDGE
 70
     3
  9
$SHADEDIF
 70
    70
  9
$TILEMODE
 70
     1
  9
$MAXACTVP
 70
    64
  9
$PINSBASE
 10
0.0
 20
0.0
 30
0.0
  9
$PLIMCHECK
 70
     0
  9
$PEXTMIN
 10
1.000000000000000E+20
 20
1.000000000000000E+20
 30
1.000000000000000E+20
  9
$PEXTMAX
 10
-1.000000000000000E+20
 20
-1.000000000000000E+20
 30
-1.000000000000000E+20
  9
$PLIMMIN
 10
0.0
 20
0.0
  9
$PLIMMAX
 10
12.0
 20
9.0
  9
$UNITMODE
 70
     0
  9
$VISRETAIN
 70
     1
  9
$PLINEGEN
 70
     0
  9
$PSLTSCALE
 70
     1
  9
$TREEDEPTH
 70
  3020
  9
$CMLSTYLE
  2
Standard
  9
$CMLJUST
 70
     0
  9
$CMLSCALE
 40
1.0
  9
$PROXYGRAPHICS
 70
     1
  9
$MEASUREMENT
 70
     0
  9
$CELWEIGHT
370
    -1
  9
$ENDCAPS
280
     0
  9
$JOINSTYLE
280
     0
  9
$LWDISPLAY
290
     0
  9
$INSUNITS
 70
     1
  9
$HYPERLINKBASE
  1

  9
$STYLESHEET
  1

  9
$XEDIT
290
     1
  9
$CEPSNTYPE
380
     0
  9
$PSTYLEMODE
290
     1
  9
$FINGERPRINTGUID
  2
{A5B7D4ED-C6FD-4DD8-A855-6C68FA095C9F}
  9
$VERSIONGUID
  2
{FAEB1C32-E019-11D5-929B-00C0DF256EC4}
  9
$EXTNAMES
290
     1
  9
$PSVPSCALE
 40
0.0
  9
$OLESTARTUP
290
     0
  0
ENDSEC
  0
SECTION
  2
CLASSES
  0
CLASS
  1
ACDBDICTIONARYWDFLT
  2
AcDbDictionaryWithDefault
  3
ObjectDBX Classes
 90
        0
280
     0
281
     0
  0
CLASS
  1
ACDBPLACEHOLDER
  2
AcDbPlaceHolder
  3
ObjectDBX Classes
 90
        0
280
     0
281
     0
  0
CLASS
  1
LAYOUT
  2
AcDbLayout
  3
ObjectDBX Classes
 90
        0
280
     0
281
     0
  0
ENDSEC
  0
SECTION
  2
TABLES
  0
TABLE
  2
VPORT
  5
8
330
0
100
AcDbSymbolTable
 70
     1
  0
VPORT
  5
29
330
8
100
AcDbSymbolTableRecord
100
AcDbViewportTableRecord
  2
*Active
 70
     0
 10
0.0
 20
0.0
 11
1.0
 21
1.0
 12
10.42990654205607
 22
4.5
 13
0.0
 23
0.0
 14
0.5
 24
0.5
 15
0.5
 25
0.5
 16
0.0
 26
0.0
 36
1.0
 17
0.0
 27
0.0
 37
0.0
 40
9.0
 41
1.972972972850329
 42
50.0
 43
0.0
 44
0.0
 50
0.0
 51
0.0
 71
     0
 72
   100
 73
     1
 74
     3
 75
     0
 76
     0
 77
     0
 78
     0
281
     0
 65
     1
110
0.0
120
0.0
130
0.0
111
1.0
121
0.0
131
0.0
112
0.0
122
1.0
132
0.0
 79
     0
146
0.0
  0
ENDTAB
  0
TABLE
  2
LTYPE
  5
5
330
0
100
AcDbSymbolTable
 70
     1
  0
LTYPE
  5
14
330
5
100
AcDbSymbolTableRecord
100
AcDbLinetypeTableRecord
  2
ByBlock
 70
     0
  3

 72
    65
 73
     0
 40
0.0
  0
LTYPE
  5
15
330
5
100
AcDbSymbolTableRecord
100
AcDbLinetypeTableRecord
  2
ByLayer
 70
     0
  3

 72
    65
 73
     0
 40
0.0
  0
LTYPE
  5
16
330
5
100
AcDbSymbolTableRecord
100
AcDbLinetypeTableRecord
  2
Continuous
 70
     0
  3
Solid line
 72
    65
 73
     0
 40
0.0
  0
ENDTAB
  0
TABLE
  2
LAYER
  5
2
330
0
100
AcDbSymbolTable
 70
     2
  0
LAYER
  5
10
330
2
100
AcDbSymbolTableRecord
100
AcDbLayerTableRecord
  2
0
 70
     0
 62
     7
  6
Continuous
370
    -3
390
F
  0
LAYER
  5
2E
330
2
100
AcDbSymbolTableRecord
100
AcDbLayerTableRecord
  2
KOI_PATTERN3_IMAGE
 70
     0
 62
   174
  6
Continuous
370
     0
390
F
  0
ENDTAB
  0
TABLE
  2
STYLE
  5
3
330
0
100
AcDbSymbolTable
 70
     1
  0
STYLE
  5
11
330
3
100
AcDbSymbolTableRecord
100
AcDbTextStyleTableRecord
  2
Standard
 70
     0
 40
0.125
 41
1.0
 50
0.0
 71
     0
 42
0.2
  3
txt
  4

1001
ACAD
1000
Arial
1071
        0
  0
ENDTAB
  0
TABLE
  2
VIEW
  5
6
330
0
100
AcDbSymbolTable
 70
     0
  0
ENDTAB
  0
TABLE
  2
UCS
  5
7
330
0
100
AcDbSymbolTable
 70
     0
  0
ENDTAB
  0
TABLE
  2
APPID
  5
9
330
0
100
AcDbSymbolTable
 70
     1
  0
APPID
  5
12
330
9
100
AcDbSymbolTableRecord
100
AcDbRegAppTableRecord
  2
ACAD
 70
     0
  0
ENDTAB
  0
TABLE
  2
DIMSTYLE
  5
A
330
0
100
AcDbSymbolTable
 70
     1
100
AcDbDimStyleTable
  0
DIMSTYLE
105
27
330
A
100
AcDbSymbolTableRecord
100
AcDbDimStyleTableRecord
  2
Standard
 70
     0
340
11
  0
ENDTAB
  0
TABLE
  2
BLOCK_RECORD
  5
1
330
0
100
AcDbSymbolTable
 70
     2
  0
BLOCK_RECORD
  5
1F
330
1
100
AcDbSymbolTableRecord
100
AcDbBlockTableRecord
  2
*Model_Space
340
22
  0
BLOCK_RECORD
  5
1B
330
1
100
AcDbSymbolTableRecord
100
AcDbBlockTableRecord
  2
*Paper_Space
340
1E
  0
BLOCK_RECORD
  5
23
330
1
100
AcDbSymbolTableRecord
100
AcDbBlockTableRecord
  2
*Paper_Space0
340
26
  0
BLOCK_RECORD
  5
2B
330
1
100
AcDbSymbolTableRecord
100
AcDbBlockTableRecord
  2
BLOCK3
340
0
102
{BLKREFS
331
2A
102
}
  0
ENDTAB
  0
ENDSEC
  0
SECTION
  2
BLOCKS
  0
BLOCK
  5
20
330
1F
100
AcDbEntity
  8
0
100
AcDbBlockBegin
  2
*Model_Space
 70
     0
 71
     0
 10
0.0
 20
0.0
 30
0.0
  3
*Model_Space
  1

  0
ENDBLK
  5
21
330
1F
100
AcDbEntity
  8
0
100
AcDbBlockEnd
  0
BLOCK
  5
1C
330
1B
100
AcDbEntity
 67
     1
  8
0
100
AcDbBlockBegin
  2
*Paper_Space
 70
     0
 71
     0
 10
0.0
 20
0.0
 30
0.0
  3
*Paper_Space
  1

  0
ENDBLK
  5
1D
330
1B
100
AcDbEntity
 67
     1
  8
0
100
AcDbBlockEnd
  0
BLOCK
  5
24
330
23
100
AcDbEntity
  8
0
100
AcDbBlockBegin
  2
*Paper_Space0
 70
     0
 71
     0
 10
0.0
 20
0.0
 30
0.0
  3
*Paper_Space0
  1

  0
ENDBLK
  5
25
330
23
100
AcDbEntity
  8
0
100
AcDbBlockEnd
  0
BLOCK
  5
2C
330
2B
100
AcDbEntity
  8
0
100
AcDbBlockBegin
  2
BLOCK3
 70
     0
 71
     0
 10
0.0
 20
0.0
 30
0.0
  3
BLOCK3
  1

  0
LINE
  5
2F
330
2B
100
AcDbEntity
  8
KOI_PATTERN3_IMAGE
100
AcDbLine
 10
69.86756998697913
 20
50.85649956597204
 30
0.0
 11
69.86756998697913
 21
-51.31504177517362
 31
0.0
  0
LINE
  5
30
330
2B
100
AcDbEntity
  8
KOI_PATTERN3_IMAGE
100
AcDbLine
 10
69.86756998697913
 20
-51.31504177517362
 30
0.0
 11
-69.86756998697903
 21
-50.85649956597223
 31
0.0
  0
LINE
  5
31
330
2B
100
AcDbEntity
  8
KOI_PATTERN3_IMAGE
100
AcDbLine
 10
-69.86756998697913
 20
-50.85649956597204
 30
0.0
 11
-69.86756998697913
 21
51.31504177517362
 31
0.0
  0
LINE
  5
32
330
2B
100
AcDbEntity
  8
KOI_PATTERN3_IMAGE
100
AcDbLine
 10
-69.86756998697913
 20
51.31504177517362
 30
0.0
 11
69.86756998697903
 21
50.85649956597223
 31
0.0
  0
SPLINE
  5
33
330
2B
100
AcDbEntity
  8
KOI_PATTERN3_IMAGE
100
AcDbSpline
210
0.0
220
0.0
230
1.0
 70
    11
 71
     3
 72
    65
 73
    61
 74
     0
 42
0.000000001
 43
0.000001
 40
0.0
 40
0.0
 40
0.0
 40
0.0
 40
1.0
 40
1.0
 40
1.0
 40
2.0
 40
2.0
 40
2.0
 40
3.0
 40
3.0
 40
3.0
 40
4.0
 40
4.0
 40
4.0
 40
5.0
 40
5.0
 40
5.0
 40
6.0
 40
6.0
 40
6.0
 40
7.0
 40
7.0
 40
7.0
 40
8.0
 40
8.0
 40
8.0
 40
9.0
 40
9.0
 40
9.0
 40
10.0
 40
10.0
 40
10.0
 40
11.0
 40
11.0
 40
11.0
 40
12.0
 40
12.0
 40
12.0
 40
13.0
 40
13.0
 40
13.0
 40
14.0
 40
14.0
 40
14.0
 40
15.0
 40
15.0
 40
15.0
 40
16.0
 40
16.0
 40
16.0
 40
17.0
 40
17.0
 40
17.0
 40
18.0
 40
18.0
 40
18.0
 40
19.0
 40
19.0
 40
19.0
 40
20.0
 40
20.0
 40
20.0
 40
20.0
 10
67.64513888888898
 20
10.83034667968748
 30
0.0
 10
67.66994357638897
 20
10.92904866536457
 30
0.0
 10
66.90065375434015
 20
13.62431911892362
 30
0.0
 10
66.79833441840276
 20
13.92421468098957
 30
0.0
 10
66.40352647569449
 20
15.06006266276043
 30
0.0
 10
65.59565158420158
 20
15.69154866536457
 30
0.0
 10
64.95004069010433
 20
16.67925754123264
 30
0.0
 10
64.33267957899291
 20
17.62476399739582
 30
0.0
 10
63.83520779079842
 20
18.65140245225693
 30
0.0
 10
63.16134711371536
 20
19.58261176215279
 30
0.0
 10
54.48315158420157
 20
31.53123643663193
 30
0.0
 10
40.05784776475708
 20
34.87918023003473
 30
0.0
 10
26.1971950954861
 20
35.71875
 30
0.0
 10
20.44009602864583
 20
36.06446533203126
 30
0.0
 10
14.60858289930555
 20
36.57606201171874
 30
0.0
 10
8.851139322916653
 20
36.12096489800346
 30
0.0
 10
7.559917534722205
 20
36.01158311631945
 30
0.0
 10
6.088861762152795
 20
36.09271511501736
 30
0.0
 10
4.656735568576377
 20
36.03277045355901
 30
0.0
 10
2.222431098090276
 20
35.9268337673611
 30
0.0
 10
-0.448034667968748
 20
35.21077067057291
 30
0.0
 10
-2.977423773871528
 20
34.81923556857638
 30
0.0
 10
-5.570374891493071
 20
34.41702067057292
 30
0.0
 10
-8.18089599609374
 20
34.00774332682291
 30
0.0
 10
-10.73508978949654
 20
33.60552842881945
 30
0.0
 10
-15.73736843532984
 20
32.82245822482638
 30
0.0
 10
-20.68693712022571
 20
31.570166015625
 30
0.0
 10
-25.50231933593748
 20
30.52940266927083
 30
0.0
 10
-32.29673665364583
 20
29.05472954644098
 30
0.0
 10
-39.13370090060764
 20
27.71768798828126
 30
0.0
 10
-45.83992377387165
 20
25.85854220920138
 30
0.0
 10
-52.21817355685748
 20
24.10171576605902
 30
0.0
 10
-58.80812445746535
 20
24.07708333333334
 30
0.0
 10
-65.21100667317717
 20
22.53902045355902
 30
0.0
 10
-64.47720133463544
 20
19.94951443142362
 30
0.0
 10
-59.43599310980905
 20
17.32142333984374
 30
0.0
 10
-57.30881890190985
 20
16.18540310329862
 30
0.0
 10
-54.15138888888897
 20
14.50626356336807
 30
0.0
 10
-50.77881266276023
 20
13.29617377387154
 30
0.0
 10
-47.51217312282992
 20
11.87093777126736
 30
0.0
 10
-41.13736843532992
 20
9.101597764756928
 30
0.0
 10
-35.09432644314236
 20
5.559695095486102
 30
0.0
 10
-28.47629801432291
 20
3.386701117621528
 30
0.0
 10
-21.88272976345484
 20
1.220597330729165
 30
0.0
 10
-15.09175754123264
 20
-0.4199571397569449
 30
0.0
 10
-8.311465115017361
 20
-1.827278645833335
 30
0.0
 10
7.499972873263897
 20
-5.101152886284725
 30
0.0
 10
23.91481933593748
 20
-5.813943142361103
 30
0.0
 10
39.93795844184016
 20
-3.35827907986111
 30
0.0
 10
42.28406846788189
 20
-3.00205620659722
 30
0.0
 10
44.6298339843748
 20
-2.296500651041665
 30
0.0
 10
46.93701443142362
 20
-1.880333116319445
 30
0.0
 10
50.68355577256929
 20
-1.20302734375
 30
0.0
 10
53.88336046006929
 20
-0.1517564561631945
 30
0.0
 10
56.75140245225708
 20
1.121895345052083
 30
0.0
 10
60.61438802083347
 20
2.832729763454862
 30
0.0
 10
65.10851508246535
 20
4.332035319010433
 30
0.0
 10
66.97851291232638
 20
7.605909559461811
 30
0.0
 10
67.63101399739567
 20
9.38392333984374
 30
0.0
 10
67.50388997395827
 20
10.31875
 30
0.0
 10
67.64513888888898
 20
10.83034667968748
 30
0.0
  0
SPLINE
  5
34
330
2B
100
AcDbEntity
  8
KOI_PATTERN3_IMAGE
100
AcDbSpline
210
0.0
220
0.0
230
1.0
 70
    11
 71
     3
 72
    38
 73
    34
 74
     0
 42
0.000000001
 43
0.000001
 40
0.0
 40
0.0
 40
0.0
 40
0.0
 40
1.0
 40
1.0
 40
1.0
 40
2.0
 40
2.0
 40
2.0
 40
3.0
 40
3.0
 40
3.0
 40
4.0
 40
4.0
 40
4.0
 40
5.0
 40
5.0
 40
5.0
 40
6.0
 40
6.0
 40
6.0
 40
7.0
 40
7.0
 40
7.0
 40
8.0
 40
8.0
 40
8.0
 40
9.0
 40
9.0
 40
9.0
 40
10.0
 40
10.0
 40
10.0
 40
11.0
 40
11.0
 40
11.0
 40
11.0
 10
64.83704155815984
 20
-28.82201334635417
 30
0.0
 10
65.00619574652795
 20
-21.41368001302083
 30
0.0
 10
64.82980685763897
 20
-13.6949435763889
 30
0.0
 10
65.02411024305552
 20
-6.307625325520827
 30
0.0
 10
59.75345865885433
 20
-5.792583550347204
 30
0.0
 10
53.78793131510433
 20
-4.833124457465275
 30
0.0
 10
47.80138888888897
 20
-5.810153537326378
 30
0.0
 10
47.65669487847205
 20
-5.83840332031248
 30
0.0
 10
47.58607042100709
 20
-5.923152669270826
 30
0.0
 10
47.4203613281248
 20
-5.95484754774307
 30
0.0
 10
45.70229220920157
 20
-6.290055338541653
 30
0.0
 10
43.9880126953126
 20
-6.667637803819448
 30
0.0
 10
42.30508355034724
 20
-7.140304904513897
 30
0.0
 10
39.32059733072917
 20
-7.976429578993071
 30
0.0
 10
36.43498535156247
 20
-9.112277560763898
 30
0.0
 10
33.87734646267362
 20
-10.8548068576389
 30
0.0
 10
32.86827799479165
 20
-11.54279242621528
 30
0.0
 10
30.751611328125
 20
-12.5270562065972
 30
0.0
 10
30.47290310329862
 20
-13.83240288628472
 30
0.0
 10
30.25069444444445
 20
-14.8979709201389
 30
0.0
 10
31.27009819878472
 20
-15.39509819878472
 30
0.0
 10
31.89124891493055
 20
-16.0582790798611
 30
0.0
 10
32.84726291232638
 20
-17.08491753472221
 30
0.0
 10
33.96175130208334
 20
-17.52588975694445
 30
0.0
 10
35.09070909288193
 20
-18.3127495659722
 30
0.0
 10
36.32198621961807
 20
-19.16299913194445
 30
0.0
 10
37.23907063802083
 20
-20.0449435763889
 30
0.0
 10
38.62572157118055
 20
-20.69744466145835
 30
0.0
 10
40.08954264322913
 20
-21.38887532552083
 30
0.0
 10
41.61020779079843
 20
-21.96386176215275
 30
0.0
 10
43.0671386718748
 20
-22.68354220920138
 30
0.0
 10
49.2900146484374
 20
-25.77034776475693
 30
0.0
 10
56.9453613281248
 20
-28.2187771267361
 30
0.0
 10
64.83704155815984
 20
-28.82201334635417
 30
0.0
  0
SPLINE
  5
35
330
2B
100
AcDbEntity
  8
KOI_PATTERN3_IMAGE
100
AcDbSpline
210
0.0
220
0.0
230
1.0
 70
    11
 71
     3
 72
    17
 73
    13
 74
     0
 42
0.000000001
 43
0.000001
 40
0.0
 40
0.0
 40
0.0
 40
0.0
 40
1.0
 40
1.0
 40
1.0
 40
2.0
 40
2.0
 40
2.0
 40
3.0
 40
3.0
 40
3.0
 40
4.0
 40
4.0
 40
4.0
 40
4.0
 10
48.25993109809016
 20
-47.58607042100709
 30
0.0
 10
50.18263888888897
 20
-45.16244574652795
 30
0.0
 10
52.72959798177086
 20
-36.59001464843747
 30
0.0
 10
54.66298556857637
 20
-34.19119466145835
 30
0.0
 10
15.7234157986111
 20
-19.03243001302083
 30
0.0
 10
-23.6361111111111
 20
-10.51270887586807
 30
0.0
 10
-62.45923665364566
 20
4.392152235243071
 30
0.0
 10
-59.64407687717008
 20
-12.7034450954861
 30
0.0
 10
-57.01236843532993
 20
-30.751611328125
 30
0.0
 10
-53.57278510199646
 20
-47.9071533203126
 30
0.0
 10
-19.663916015625
 20
-47.72387424045157
 30
0.0
 10
14.27682020399307
 20
-47.60398491753464
 30
0.0
 10
48.25993109809016
 20
-47.58607042100709
 30
0.0
  0
SPLINE
  5
36
330
2B
100
AcDbEntity
  8
KOI_PATTERN3_IMAGE
100
AcDbSpline
210
0.0
220
0.0
230
1.0
 70
    11
 71
     3
 72
    38
 73
    34
 74
     0
 42
0.000000001
 43
0.000001
 40
0.0
 40
0.0
 40
0.0
 40
0.0
 40
1.0
 40
1.0
 40
1.0
 40
2.0
 40
2.0
 40
2.0
 40
3.0
 40
3.0
 40
3.0
 40
4.0
 40
4.0
 40
4.0
 40
5.0
 40
5.0
 40
5.0
 40
6.0
 40
6.0
 40
6.0
 40
7.0
 40
7.0
 40
7.0
 40
8.0
 40
8.0
 40
8.0
 40
9.0
 40
9.0
 40
9.0
 40
10.0
 40
10.0
 40
10.0
 40
11.0
 40
11.0
 40
11.0
 40
11.0
 10
-31.63011067708334
 20
40.2766113281248
 30
0.0
 10
-31.59479844835067
 20
41.3666395399307
 30
0.0
 10
-32.68844401041665
 20
41.67015245225708
 30
0.0
 10
-33.41518690321181
 20
42.21344401041654
 30
0.0
 10
-34.54052734375
 20
43.0530137803819
 30
0.0
 10
-35.71168755425347
 20
43.28934733072914
 30
0.0
 10
-36.96759711371527
 20
43.8608886718748
 30
0.0
 10
-38.32582600911456
 20
44.47463243272558
 30
0.0
 10
-39.38760443793386
 20
45.17674289279528
 30
0.0
 10
-40.86572265625
 20
45.56827799479173
 30
0.0
 10
-42.4285902235244
 20
45.99168023003465
 30
0.0
 10
-44.03021511501733
 20
46.28451334635433
 30
0.0
 10
-45.58602023654527
 20
46.73254801432284
 30
0.0
 10
-52.26399332682283
 20
48.65508355034724
 30
0.0
 10
-60.22629801432284
 20
49.68878445095473
 30
0.0
 10
-68.10023600260433
 20
48.87022976345472
 30
0.0
 10
-66.94664577907993
 20
41.55009087456614
 30
0.0
 10
-65.40858289930551
 20
33.98655598958334
 30
0.0
 10
-64.28668755425353
 20
26.68054199218748
 30
0.0
 10
-59.00914577907992
 20
27.11806911892362
 30
0.0
 10
-52.97316623263897
 20
27.24502088758681
 30
0.0
 10
-47.25103488498268
 20
29.28055555555555
 30
0.0
 10
-47.11702067057283
 20
29.32999267578126
 30
0.0
 10
-47.06413845486102
 20
29.42869466145835
 30
0.0
 10
-46.90187445746535
 20
29.49225667317709
 30
0.0
 10
-45.27199978298622
 20
30.13080512152776
 30
0.0
 10
-43.65280490451378
 20
30.80449354383681
 30
0.0
 10
-42.07925754123267
 20
31.570166015625
 30
0.0
 10
-39.29234754774303
 20
32.92822265625
 30
0.0
 10
-36.65357666015626
 20
34.56515977647567
 30
0.0
 10
-34.44871554904512
 20
36.73832600911457
 30
0.0
 10
-33.57745090060764
 20
37.59546576605901
 30
0.0
 10
-31.66886800130208
 20
38.94318712022571
 30
0.0
 10
-31.63011067708334
 20
40.2766113281248
 30
0.0
  0
SPLINE
  5
37
330
2B
100
AcDbEntity
  8
KOI_PATTERN3_IMAGE
100
AcDbSpline
210
0.0
220
0.0
230
1.0
 70
    11
 71
     3
 72
    65
 73
    61
 74
     0
 42
0.000000001
 43
0.000001
 40
0.0
 40
0.0
 40
0.0
 40
0.0
 40
1.0
 40
1.0
 40
1.0
 40
2.0
 40
2.0
 40
2.0
 40
3.0
 40
3.0
 40
3.0
 40
4.0
 40
4.0
 40
4.0
 40
5.0
 40
5.0
 40
5.0
 40
6.0
 40
6.0
 40
6.0
 40
7.0
 40
7.0
 40
7.0
 40
8.0
 40
8.0
 40
8.0
 40
9.0
 40
9.0
 40
9.0
 40
10.0
 40
10.0
 40
10.0
 40
11.0
 40
11.0
 40
11.0
 40
12.0
 40
12.0
 40
12.0
 40
13.0
 40
13.0
 40
13.0
 40
14.0
 40
14.0
 40
14.0
 40
15.0
 40
15.0
 40
15.0
 40
16.0
 40
16.0
 40
16.0
 40
17.0
 40
17.0
 40
17.0
 40
18.0
 40
18.0
 40
18.0
 40
19.0
 40
19.0
 40
19.0
 40
20.0
 40
20.0
 40
20.0
 40
20.0
 10
66.79833441840276
 20
13.92421468098957
 30
0.0
 10
66.90065375434015
 20
13.62431911892362
 30
0.0
 10
67.66994357638897
 20
10.92904866536457
 30
0.0
 10
67.64513888888898
 20
10.83034667968748
 30
0.0
 10
67.50388997395827
 20
10.31875
 30
0.0
 10
67.63101399739567
 20
9.38392333984374
 30
0.0
 10
66.97851291232638
 20
7.605909559461811
 30
0.0
 10
65.10851508246535
 20
4.332035319010433
 30
0.0
 10
60.61438802083347
 20
2.832729763454862
 30
0.0
 10
56.75140245225708
 20
1.121895345052083
 30
0.0
 10
53.88336046006929
 20
-0.1517564561631945
 30
0.0
 10
50.68355577256929
 20
-1.20302734375
 30
0.0
 10
46.93701443142362
 20
-1.880333116319445
 30
0.0
 10
44.6298339843748
 20
-2.296500651041665
 30
0.0
 10
42.28406846788189
 20
-3.00205620659722
 30
0.0
 10
39.93795844184016
 20
-3.35827907986111
 30
0.0
 10
23.91481933593748
 20
-5.813943142361103
 30
0.0
 10
7.499972873263897
 20
-5.101152886284725
 30
0.0
 10
-8.311465115017361
 20
-1.827278645833335
 30
0.0
 10
-15.09175754123264
 20
-0.4199571397569449
 30
0.0
 10
-21.88272976345484
 20
1.220597330729165
 30
0.0
 10
-28.47629801432291
 20
3.386701117621528
 30
0.0
 10
-35.09432644314236
 20
5.559695095486102
 30
0.0
 10
-41.13736843532992
 20
9.101597764756928
 30
0.0
 10
-47.51217312282992
 20
11.87093777126736
 30
0.0
 10
-50.77881266276023
 20
13.29617377387154
 30
0.0
 10
-54.15138888888897
 20
14.50626356336807
 30
0.0
 10
-57.30881890190985
 20
16.18540310329862
 30
0.0
 10
-59.43599310980905
 20
17.32142333984374
 30
0.0
 10
-64.47720133463544
 20
19.94951443142362
 30
0.0
 10
-65.21100667317717
 20
22.53902045355902
 30
0.0
 10
-58.80812445746535
 20
24.07708333333334
 30
0.0
 10
-52.21817355685748
 20
24.10171576605902
 30
0.0
 10
-45.83992377387165
 20
25.85854220920138
 30
0.0
 10
-39.13370090060764
 20
27.71768798828126
 30
0.0
 10
-32.29673665364583
 20
29.05472954644098
 30
0.0
 10
-25.50231933593748
 20
30.52940266927083
 30
0.0
 10
-20.68693712022571
 20
31.570166015625
 30
0.0
 10
-15.73736843532984
 20
32.82245822482638
 30
0.0
 10
-10.73508978949654
 20
33.60552842881945
 30
0.0
 10
-8.18089599609374
 20
34.00774332682291
 30
0.0
 10
-5.570374891493071
 20
34.41702067057292
 30
0.0
 10
-2.977423773871528
 20
34.81923556857638
 30
0.0
 10
-0.448034667968748
 20
35.21077067057291
 30
0.0
 10
2.222431098090276
 20
35.9268337673611
 30
0.0
 10
4.656735568576377
 20
36.03277045355901
 30
0.0
 10
6.088861762152795
 20
36.09271511501736
 30
0.0
 10
7.559917534722205
 20
36.01158311631945
 30
0.0
 10
8.851139322916653
 20
36.12096489800346
 30
0.0
 10
14.60858289930555
 20
36.57606201171874
 30
0.0
 10
20.44009602864583
 20
36.06446533203126
 30
0.0
 10
26.1971950954861
 20
35.71875
 30
0.0
 10
40.05784776475708
 20
34.87918023003473
 30
0.0
 10
54.48315158420157
 20
31.53123643663193
 30
0.0
 10
63.16134711371536
 20
19.58261176215279
 30
0.0
 10
63.83520779079842
 20
18.65140245225693
 30
0.0
 10
64.33267957899291
 20
17.62476399739582
 30
0.0
 10
64.95004069010433
 20
16.67925754123264
 30
0.0
 10
65.59565158420158
 20
15.69154866536457
 30
0.0
 10
66.40352647569449
 20
15.06006266276043
 30
0.0
 10
66.79833441840276
 20
13.92421468098957
 30
0.0
  0
SPLINE
  5
38
330
2B
100
AcDbEntity
  8
KOI_PATTERN3_IMAGE
100
AcDbSpline
210
0.0
220
0.0
230
1.0
 70
    11
 71
     3
 72
    14
 73
    10
 74
     0
 42
0.000000001
 43
0.000001
 40
0.0
 40
0.0
 40
0.0
 40
0.0
 40
1.0
 40
1.0
 40
1.0
 40
2.0
 40
2.0
 40
2.0
 40
3.0
 40
3.0
 40
3.0
 40
3.0
 10
-21.88634711371528
 20
13.38436821831598
 30
0.0
 10
-20.68331976996528
 20
13.57849934895835
 30
0.0
 10
-18.96886800130209
 20
15.11656222873264
 30
0.0
 10
-19.18056911892362
 20
17.23322889539929
 30
0.0
 10
-19.37108289930555
 20
19.14870198567709
 30
0.0
 10
-21.82640245225693
 20
21.0185275607639
 30
0.0
 10
-23.46316731770835
 20
20.37636176215275
 30
0.0
 10
-28.80427110460067
 20
18.2844997829861
 30
0.0
 10
-25.91159667968748
 20
12.73531222873264
 30
0.0
 10
-21.88634711371528
 20
13.38436821831598
 30
0.0
  0
SPLINE
  5
39
330
2B
100
AcDbEntity
  8
KOI_PATTERN3_IMAGE
100
AcDbSpline
210
0.0
220
0.0
230
1.0
 70
    11
 71
     3
 72
    38
 73
    34
 74
     0
 42
0.000000001
 43
0.000001
 40
0.0
 40
0.0
 40
0.0
 40
0.0
 40
1.0
 40
1.0
 40
1.0
 40
2.0
 40
2.0
 40
2.0
 40
3.0
 40
3.0
 40
3.0
 40
4.0
 40
4.0
 40
4.0
 40
5.0
 40
5.0
 40
5.0
 40
6.0
 40
6.0
 40
6.0
 40
7.0
 40
7.0
 40
7.0
 40
8.0
 40
8.0
 40
8.0
 40
9.0
 40
9.0
 40
9.0
 40
10.0
 40
10.0
 40
10.0
 40
11.0
 40
11.0
 40
11.0
 40
11.0
 10
65.02411024305552
 20
-6.307625325520827
 30
0.0
 10
64.82980685763897
 20
-13.6949435763889
 30
0.0
 10
65.00619574652795
 20
-21.41368001302083
 30
0.0
 10
64.83704155815984
 20
-28.82201334635417
 30
0.0
 10
56.9453613281248
 20
-28.2187771267361
 30
0.0
 10
49.2900146484374
 20
-25.77034776475693
 30
0.0
 10
43.0671386718748
 20
-22.68354220920138
 30
0.0
 10
41.61020779079843
 20
-21.96386176215275
 30
0.0
 10
40.08954264322913
 20
-21.38887532552083
 30
0.0
 10
38.62572157118055
 20
-20.69744466145835
 30
0.0
 10
37.23907063802083
 20
-20.0449435763889
 30
0.0
 10
36.32198621961807
 20
-19.16299913194445
 30
0.0
 10
35.09070909288193
 20
-18.3127495659722
 30
0.0
 10
33.96175130208334
 20
-17.52588975694445
 30
0.0
 10
32.84726291232638
 20
-17.08491753472221
 30
0.0
 10
31.89124891493055
 20
-16.0582790798611
 30
0.0
 10
31.27009819878472
 20
-15.39509819878472
 30
0.0
 10
30.25069444444445
 20
-14.8979709201389
 30
0.0
 10
30.47290310329862
 20
-13.83240288628472
 30
0.0
 10
30.751611328125
 20
-12.5270562065972
 30
0.0
 10
32.86827799479165
 20
-11.54279242621528
 30
0.0
 10
33.87734646267362
 20
-10.8548068576389
 30
0.0
 10
36.43498535156247
 20
-9.112277560763898
 30
0.0
 10
39.32059733072917
 20
-7.976429578993071
 30
0.0
 10
42.30508355034724
 20
-7.140304904513897
 30
0.0
 10
43.9880126953126
 20
-6.667637803819448
 30
0.0
 10
45.70229220920157
 20
-6.290055338541653
 30
0.0
 10
47.4203613281248
 20
-5.95484754774307
 30
0.0
 10
47.58607042100709
 20
-5.923152669270826
 30
0.0
 10
47.65669487847205
 20
-5.83840332031248
 30
0.0
 10
47.80138888888897
 20
-5.810153537326378
 30
0.0
 10
53.78793131510433
 20
-4.833124457465275
 30
0.0
 10
59.75345865885433
 20
-5.792583550347204
 30
0.0
 10
65.02411024305552
 20
-6.307625325520827
 30
0.0
  0
SPLINE
  5
3A
330
2B
100
AcDbEntity
  8
KOI_PATTERN3_IMAGE
100
AcDbSpline
210
0.0
220
0.0
230
1.0
 70
    11
 71
     3
 72
    17
 73
    13
 74
     0
 42
0.000000001
 43
0.000001
 40
0.0
 40
0.0
 40
0.0
 40
0.0
 40
1.0
 40
1.0
 40
1.0
 40
2.0
 40
2.0
 40
2.0
 40
3.0
 40
3.0
 40
3.0
 40
4.0
 40
4.0
 40
4.0
 40
4.0
 10
54.66298556857637
 20
-34.19119466145835
 30
0.0
 10
52.72959798177086
 20
-36.59001464843747
 30
0.0
 10
50.18263888888897
 20
-45.16244574652795
 30
0.0
 10
48.25993109809016
 20
-47.58607042100709
 30
0.0
 10
14.27682020399307
 20
-47.60398491753464
 30
0.0
 10
-19.663916015625
 20
-47.72387424045157
 30
0.0
 10
-53.57278510199646
 20
-47.9071533203126
 30
0.0
 10
-57.01236843532993
 20
-30.751611328125
 30
0.0
 10
-59.64407687717008
 20
-12.7034450954861
 30
0.0
 10
-62.45923665364566
 20
4.392152235243071
 30
0.0
 10
-23.6361111111111
 20
-10.51270887586807
 30
0.0
 10
15.7234157986111
 20
-19.03243001302083
 30
0.0
 10
54.66298556857637
 20
-34.19119466145835
 30
0.0
  0
SPLINE
  5
3B
330
2B
100
AcDbEntity
  8
KOI_PATTERN3_IMAGE
100
AcDbSpline
210
0.0
220
0.0
230
1.0
 70
    11
 71
     3
 72
    14
 73
    10
 74
     0
 42
0.000000001
 43
0.000001
 40
0.0
 40
0.0
 40
0.0
 40
0.0
 40
1.0
 40
1.0
 40
1.0
 40
2.0
 40
2.0
 40
2.0
 40
3.0
 40
3.0
 40
3.0
 40
3.0
 10
-19.18056911892362
 20
17.23322889539929
 30
0.0
 10
-18.96886800130209
 20
15.11656222873264
 30
0.0
 10
-20.68331976996528
 20
13.57849934895835
 30
0.0
 10
-21.88634711371528
 20
13.38436821831598
 30
0.0
 10
-25.91159667968748
 20
12.73531222873264
 30
0.0
 10
-28.80427110460067
 20
18.2844997829861
 30
0.0
 10
-23.46316731770835
 20
20.37636176215275
 30
0.0
 10
-21.82640245225693
 20
21.0185275607639
 30
0.0
 10
-19.37108289930555
 20
19.14870198567709
 30
0.0
 10
-19.18056911892362
 20
17.23322889539929
 30
0.0
  0
SPLINE
  5
3C
330
2B
100
AcDbEntity
  8
KOI_PATTERN3_IMAGE
100
AcDbSpline
210
0.0
220
0.0
230
1.0
 70
    11
 71
     3
 72
    38
 73
    34
 74
     0
 42
0.000000001
 43
0.000001
 40
0.0
 40
0.0
 40
0.0
 40
0.0
 40
1.0
 40
1.0
 40
1.0
 40
2.0
 40
2.0
 40
2.0
 40
3.0
 40
3.0
 40
3.0
 40
4.0
 40
4.0
 40
4.0
 40
5.0
 40
5.0
 40
5.0
 40
6.0
 40
6.0
 40
6.0
 40
7.0
 40
7.0
 40
7.0
 40
8.0
 40
8.0
 40
8.0
 40
9.0
 40
9.0
 40
9.0
 40
10.0
 40
10.0
 40
10.0
 40
11.0
 40
11.0
 40
11.0
 40
11.0
 10
-33.41518690321181
 20
42.21344401041654
 30
0.0
 10
-32.68844401041665
 20
41.67015245225708
 30
0.0
 10
-31.59479844835067
 20
41.3666395399307
 30
0.0
 10
-31.63011067708334
 20
40.2766113281248
 30
0.0
 10
-31.66886800130208
 20
38.94318712022571
 30
0.0
 10
-33.57745090060764
 20
37.59546576605901
 30
0.0
 10
-34.44871554904512
 20
36.73832600911457
 30
0.0
 10
-36.65357666015626
 20
34.56515977647567
 30
0.0
 10
-39.29234754774303
 20
32.92822265625
 30
0.0
 10
-42.07925754123267
 20
31.570166015625
 30
0.0
 10
-43.65280490451378
 20
30.80449354383681
 30
0.0
 10
-45.27199978298622
 20
30.13080512152776
 30
0.0
 10
-46.90187445746535
 20
29.49225667317709
 30
0.0
 10
-47.06413845486102
 20
29.42869466145835
 30
0.0
 10
-47.11702067057283
 20
29.32999267578126
 30
0.0
 10
-47.25103488498268
 20
29.28055555555555
 30
0.0
 10
-52.97316623263897
 20
27.24502088758681
 30
0.0
 10
-59.00914577907992
 20
27.11806911892362
 30
0.0
 10
-64.28668755425353
 20
26.68054199218748
 30
0.0
 10
-65.40858289930551
 20
33.98655598958334
 30
0.0
 10
-66.94664577907993
 20
41.55009087456614
 30
0.0
 10
-68.10023600260433
 20
48.87022976345472
 30
0.0
 10
-60.22629801432284
 20
49.68878445095473
 30
0.0
 10
-52.26399332682283
 20
48.65508355034724
 30
0.0
 10
-45.58602023654527
 20
46.73254801432284
 30
0.0
 10
-44.03021511501733
 20
46.28451334635433
 30
0.0
 10
-42.4285902235244
 20
45.99168023003465
 30
0.0
 10
-40.86572265625
 20
45.56827799479173
 30
0.0
 10
-39.38760443793386
 20
45.17674289279528
 30
0.0
 10
-38.32582600911456
 20
44.47463243272558
 30
0.0
 10
-36.96759711371527
 20
43.8608886718748
 30
0.0
 10
-35.71168755425347
 20
43.28934733072914
 30
0.0
 10
-34.54052734375
 20
43.0530137803819
 30
0.0
 10
-33.41518690321181
 20
42.21344401041654
 30
0.0
  0
ENDBLK
  5
2D
330
2B
100
AcDbEntity
  8
0
100
AcDbBlockEnd
  0
ENDSEC
  0
SECTION
  2
ENTITIES
  0
INSERT
  5
2A
330
1F
100
AcDbEntity
  8
0
100
AcDbBlockReference
  2
BLOCK3
 10
0.0
 20
0.0
 30
0.0
  0
ENDSEC
  0
SECTION
  2
OBJECTS
  0
DICTIONARY
  5
C
330
0
100
AcDbDictionary
281
     1
  3
ACAD_GROUP
350
D
  3
ACAD_LAYOUT
350
1A
  3
ACAD_MLINESTYLE
350
17
  3
ACAD_PLOTSETTINGS
350
19
  3
ACAD_PLOTSTYLENAME
350
E
  0
DICTIONARY
  5
D
102
{ACAD_REACTORS
330
C
102
}
330
C
100
AcDbDictionary
281
     1
  0
DICTIONARY
  5
1A
102
{ACAD_REACTORS
330
C
102
}
330
C
100
AcDbDictionary
281
     1
  3
Layout1
350
1E
  3
Layout2
350
26
  3
Model
350
22
  0
DICTIONARY
  5
17
102
{ACAD_REACTORS
330
C
102
}
330
C
100
AcDbDictionary
281
     1
  3
Standard
350
18
  0
DICTIONARY
  5
19
102
{ACAD_REACTORS
330
C
102
}
330
C
100
AcDbDictionary
281
     1
  0
ACDBDICTIONARYWDFLT
  5
E
102
{ACAD_REACTORS
330
C
102
}
330
C
100
AcDbDictionary
281
     1
  3
Normal
350
F
100
AcDbDictionaryWithDefault
340
F
  0
LAYOUT
  5
1E
102
{ACAD_REACTORS
330
1A
102
}
330
1A
100
AcDbPlotSettings
  1

  2

  4

  6

 40
0.0
 41
0.0
 42
0.0
 43
0.0
 44
0.0
 45
0.0
 46
0.0
 47
0.0
 48
0.0
 49
0.0
140
0.0
141
0.0
142
1.0
143
1.0
 70
   688
 72
     0
 73
     0
 74
     5
  7

 75
    16
147
1.0
148
0.0
149
0.0
100
AcDbLayout
  1
Layout1
 70
     1
 71
     1
 10
0.0
 20
0.0
 11
0.0
 21
0.0
 12
0.0
 22
0.0
 32
0.0
 14
0.0
 24
0.0
 34
0.0
 15
0.0
 25
0.0
 35
0.0
146
0.0
 13
0.0
 23
0.0
 33
0.0
 16
1.0
 26
0.0
 36
0.0
 17
0.0
 27
1.0
 37
0.0
 76
     0
330
1B
  0
LAYOUT
  5
26
102
{ACAD_REACTORS
330
1A
102
}
330
1A
100
AcDbPlotSettings
  1

  2

  4

  6

 40
0.0
 41
0.0
 42
0.0
 43
0.0
 44
0.0
 45
0.0
 46
0.0
 47
0.0
 48
0.0
 49
0.0
140
0.0
141
0.0
142
1.0
143
1.0
 70
   688
 72
     0
 73
     0
 74
     5
  7

 75
    16
147
1.0
148
0.0
149
0.0
100
AcDbLayout
  1
Layout2
 70
     1
 71
     2
 10
0.0
 20
0.0
 11
0.0
 21
0.0
 12
0.0
 22
0.0
 32
0.0
 14
0.0
 24
0.0
 34
0.0
 15
0.0
 25
0.0
 35
0.0
146
0.0
 13
0.0
 23
0.0
 33
0.0
 16
1.0
 26
0.0
 36
0.0
 17
0.0
 27
1.0
 37
0.0
 76
     0
330
23
  0
LAYOUT
  5
22
102
{ACAD_REACTORS
330
1A
102
}
330
1A
100
AcDbPlotSettings
  1

  2

  4

  6

 40
0.0
 41
0.0
 42
0.0
 43
0.0
 44
0.0
 45
0.0
 46
0.0
 47
0.0
 48
0.0
 49
0.0
140
0.0
141
0.0
142
1.0
143
1.0
 70
  1712
 72
     0
 73
     0
 74
     0
  7

 75
     0
147
1.0
148
0.0
149
0.0
100
AcDbLayout
  1
Model
 70
     1
 71
     0
 10
0.0
 20
0.0
 11
0.0
 21
0.0
 12
0.0
 22
0.0
 32
0.0
 14
0.0
 24
0.0
 34
0.0
 15
0.0
 25
0.0
 35
0.0
146
0.0
 13
0.0
 23
0.0
 33
0.0
 16
1.0
 26
0.0
 36
0.0
 17
0.0
 27
1.0
 37
0.0
 76
     0
330
1F
  0
MLINESTYLE
  5
18
102
{ACAD_REACTORS
330
17
102
}
330
17
100
AcDbMlineStyle
  2
Standard
 70
     0
  3

 62
   256
 51
90.0
 52
90.0
 71
     2
 49
0.5
 62
   256
  6
BYLAYER
 49
-0.5
 62
   256
  6
BYLAYER
  0
ACDBPLACEHOLDER
  5
F
102
{ACAD_REACTORS
330
E
102
}
330
E
  0
ENDSEC
  0
EOF
