  0
SECTION
  2
HEADER
  9
$ACADVER
  1
AC1015
  9
$ACADMAINTVER
 70
     6
  9
$DWGCODEPAGE
  3
ANSI_1252
  9
$INSBASE
 10
0.0
 20
0.0
 30
0.0
  9
$EXTMIN
 10
0.0
 20
0.0
 30
0.0
  9
$EXTMAX
 10
44.0
 20
34.0
 30
0.0
  9
$LIMMIN
 10
0.0
 20
0.0
  9
$LIMMAX
 10
44.0
 20
34.0
  9
$ORTHOMODE
 70
     0
  9
$REGENMODE
 70
     1
  9
$FILLMODE
 70
     1
  9
$QTEXTMODE
 70
     0
  9
$MIRRTEXT
 70
     1
  9
$LTSCALE
 40
1.0
  9
$ATTMODE
 70
     1
  9
$TEXTSIZE
 40
0.125
  9
$TRACEWID
 40
0.05
  9
$TEXTSTYLE
  7
Standard
  9
$CLAYER
  8
0
  9
$CELTYPE
  6
ByLayer
  9
$CECOLOR
 62
   256
  9
$CELTSCALE
 40
1.0
  9
$DISPSILH
 70
     0
  9
$DIMSCALE
 40
1.0
  9
$DIMASZ
 40
0.13
  9
$DIMEXO
 40
0.05
  9
$DIMDLI
 40
0.38
  9
$DIMRND
 40
0.0
  9
$DIMDLE
 40
0.0
  9
$DIMEXE
 40
0.125
  9
$DIMTP
 40
0.0
  9
$DIMTM
 40
0.0
  9
$DIMTXT
 40
0.125
  9
$DIMCEN
 40
0.09
  9
$DIMTSZ
 40
0.0
  9
$DIMTOL
 70
     0
  9
$DIMLIM
 70
     0
  9
$DIMTIH
 70
     1
  9
$DIMTOH
 70
     1
  9
$DIMSE1
 70
     0
  9
$DIMSE2
 70
     0
  9
$DIMTAD
 70
     0
  9
$DIMZIN
 70
     0
  9
$DIMBLK
  1

  9
$DIMASO
 70
     1
  9
$DIMSHO
 70
     1
  9
$DIMPOST
  1

  9
$DIMAPOST
  1

  9
$DIMALT
 70
     0
  9
$DIMALTD
 70
     2
  9
$DIMALTF
 40
25.4
  9
$DIMLFAC
 40
1.0
  9
$DIMTOFL
 70
     0
  9
$DIMTVP
 40
0.0
  9
$DIMTIX
 70
     0
  9
$DIMSOXD
 70
     0
  9
$DIMSAH
 70
     0
  9
$DIMBLK1
  1

  9
$DIMBLK2
  1

  9
$DIMSTYLE
  2
Standard
  9
$DIMCLRD
 70
     0
  9
$DIMCLRE
 70
     0
  9
$DIMCLRT
 70
     0
  9
$DIMTFAC
 40
1.0
  9
$DIMGAP
 40
0.06
  9
$DIMJUST
 70
     0
  9
$DIMSD1
 70
     0
  9
$DIMSD2
 70
     0
  9
$DIMTOLJ
 70
     1
  9
$DIMTZIN
 70
     0
  9
$DIMALTZ
 70
     0
  9
$DIMALTTZ
 70
     0
  9
$DIMUPT
 70
     0
  9
$DIMDEC
 70
     2
  9
$DIMTDEC
 70
     2
  9
$DIMALTU
 70
     2
  9
$DIMALTTD
 70
     2
  9
$DIMTXSTY
  7
Standard
  9
$DIMAUNIT
 70
     0
  9
$DIMADEC
 70
     2
  9
$DIMALTRND
 40
0.0
  9
$DIMAZIN
 70
     0
  9
$DIMDSEP
 70
    46
  9
$DIMATFIT
 70
     3
  9
$DIMFRAC
 70
     0
  9
$DIMLDRBLK
  1

  9
$DIMLUNIT
 70
     2
  9
$DIMLWD
 70
    -2
  9
$DIMLWE
 70
    -2
  9
$DIMTMOVE
 70
     0
  9
$LUNITS
 70
     2
  9
$LUPREC
 70
     2
  9
$SKETCHINC
 40
0.1
  9
$FILLETRAD
 40
0.5
  9
$AUNITS
 70
     0
  9
$AUPREC
 70
     2
  9
$MENU
  1
.
  9
$ELEVATION
 40
0.0
  9
$PELEVATION
 40
0.0
  9
$THICKNESS
 40
0.0
  9
$LIMCHECK
 70
     0
  9
$CHAMFERA
 40
0.5
  9
$CHAMFERB
 40
0.5
  9
$CHAMFERC
 40
1.0
  9
$CHAMFERD
 40
0.0
  9
$SKPOLY
 70
     0
  9
$TDCREATE
 40
2456965.326386736
  9
$TDUCREATE
 40
2456965.618053403
  9
$TDUPDATE
 40
2456965.326386748
  9
$TDUUPDATE
 40
2456965.618053414
  9
$TDINDWG
 40
0.0000000116
  9
$TDUSRTIMER
 40
0.0000000116
  9
$USRTIMER
 70
     1
  9
$ANGBASE
 50
0.0
  9
$ANGDIR
 70
     0
  9
$PDMODE
 70
     0
  9
$PDSIZE
 40
-1.0
  9
$PLINEWID
 40
0.0
  9
$SPLFRAME
 70
     0
  9
$SPLINETYPE
 70
     6
  9
$SPLINESEGS
 70
     8
  9
$HANDSEED
  5
299
  9
$SURFTAB1
 70
     6
  9
$SURFTAB2
 70
     6
  9
$SURFTYPE
 70
     6
  9
$SURFU
 70
     6
  9
$SURFV
 70
     6
  9
$UCSBASE
  2

  9
$UCSNAME
  2

  9
$UCSORG
 10
0.0
 20
0.0
 30
0.0
  9
$UCSXDIR
 10
1.0
 20
0.0
 30
0.0
  9
$UCSYDIR
 10
0.0
 20
1.0
 30
0.0
  9
$UCSORTHOREF
  2

  9
$UCSORTHOVIEW
 70
     0
  9
$UCSORGTOP
 10
0.0
 20
0.0
 30
0.0
  9
$UCSORGBOTTOM
 10
0.0
 20
0.0
 30
0.0
  9
$UCSORGLEFT
 10
0.0
 20
0.0
 30
0.0
  9
$UCSORGRIGHT
 10
0.0
 20
0.0
 30
0.0
  9
$UCSORGFRONT
 10
0.0
 20
0.0
 30
0.0
  9
$UCSORGBACK
 10
0.0
 20
0.0
 30
0.0
  9
$PUCSBASE
  2

  9
$PUCSNAME
  2

  9
$PUCSORG
 10
0.0
 20
0.0
 30
0.0
  9
$PUCSXDIR
 10
1.0
 20
0.0
 30
0.0
  9
$PUCSYDIR
 10
0.0
 20
1.0
 30
0.0
  9
$PUCSORTHOREF
  2

  9
$PUCSORTHOVIEW
 70
     0
  9
$PUCSORGTOP
 10
0.0
 20
0.0
 30
0.0
  9
$PUCSORGBOTTOM
 10
0.0
 20
0.0
 30
0.0
  9
$PUCSORGLEFT
 10
0.0
 20
0.0
 30
0.0
  9
$PUCSORGRIGHT
 10
0.0
 20
0.0
 30
0.0
  9
$PUCSORGFRONT
 10
0.0
 20
0.0
 30
0.0
  9
$PUCSORGBACK
 10
0.0
 20
0.0
 30
0.0
  9
$USERI1
 70
     0
  9
$USERI2
 70
     0
  9
$USERI3
 70
     0
  9
$USERI4
 70
     0
  9
$USERI5
 70
     0
  9
$USERR1
 40
0.0
  9
$USERR2
 40
0.0
  9
$USERR3
 40
0.0
  9
$USERR4
 40
0.0
  9
$USERR5
 40
0.0
  9
$WORLDVIEW
 70
     1
  9
$SHADEDGE
 70
     3
  9
$SHADEDIF
 70
    70
  9
$TILEMODE
 70
     1
  9
$MAXACTVP
 70
    64
  9
$PINSBASE
 10
0.0
 20
0.0
 30
0.0
  9
$PLIMCHECK
 70
     0
  9
$PEXTMIN
 10
1.0000000000E+20
 20
1.0000000000E+20
 30
1.0000000000E+20
  9
$PEXTMAX
 10
-1.0000000000E+20
 20
-1.0000000000E+20
 30
-1.0000000000E+20
  9
$PLIMMIN
 10
0.0
 20
0.0
  9
$PLIMMAX
 10
12.0
 20
9.0
  9
$UNITMODE
 70
     0
  9
$VISRETAIN
 70
     1
  9
$PLINEGEN
 70
     0
  9
$PSLTSCALE
 70
     1
  9
$TREEDEPTH
 70
  3020
  9
$CMLSTYLE
  2
Standard
  9
$CMLJUST
 70
     0
  9
$CMLSCALE
 40
1.0
  9
$PROXYGRAPHICS
 70
     1
  9
$MEASUREMENT
 70
     0
  9
$CELWEIGHT
370
    -1
  9
$ENDCAPS
280
     0
  9
$JOINSTYLE
280
     0
  9
$LWDISPLAY
290
     1
  9
$INSUNITS
 70
     1
  9
$HYPERLINKBASE
  1

  9
$STYLESHEET
  1

  9
$XEDIT
290
     1
  9
$CEPSNTYPE
380
     0
  9
$PSTYLEMODE
290
     1
  9
$FINGERPRINTGUID
  2
{34004C1B-9FC9-4AD4-9AC0-748F5124FF2F}
  9
$VERSIONGUID
  2
{FAEB1C32-E019-11D5-929B-00C0DF256EC4}
  9
$EXTNAMES
290
     1
  9
$PSVPSCALE
 40
0.0
  9
$OLESTARTUP
290
     0
  0
ENDSEC
  0
SECTION
  2
CLASSES
  0
CLASS
  1
ACDBDICTIONARYWDFLT
  2
AcDbDictionaryWithDefault
  3
ObjectDBX Classes
 90
        0
280
     0
281
     0
  0
CLASS
  1
VISUALSTYLE
  2
AcDbVisualStyle
  3
ObjectDBX Classes
 90
     4095
280
     0
281
     0
  0
CLASS
  1
MATERIAL
  2
AcDbMaterial
  3
ObjectDBX Classes
 90
     1153
280
     0
281
     0
  0
CLASS
  1
ACDBPLACEHOLDER
  2
AcDbPlaceHolder
  3
ObjectDBX Classes
 90
        0
280
     0
281
     0
  0
CLASS
  1
LAYOUT
  2
AcDbLayout
  3
ObjectDBX Classes
 90
        0
280
     0
281
     0
  0
ENDSEC
  0
SECTION
  2
TABLES
  0
TABLE
  2
VPORT
  5
8
330
0
100
AcDbSymbolTable
 70
     1
  0
VPORT
  5
29
330
8
100
AcDbSymbolTableRecord
100
AcDbViewportTableRecord
  2
*Active
 70
     0
 10
0.0
 20
0.0
 11
1.0
 21
1.0
 12
22.0
 22
17.0
 13
0.0
 23
0.0
 14
0.5
 24
0.5
 15
0.5
 25
0.5
 16
0.0
 26
0.0
 36
1.0
 17
0.0
 27
0.0
 37
0.0
 40
34.0
 41
1.2941176471
 42
50.0
 43
0.0
 44
0.0
 50
0.0
 51
0.0
 71
     0
 72
  2000
 73
     1
 74
     3
 75
     0
 76
     0
 77
     0
 78
     0
281
     0
 65
     1
110
0.0
120
0.0
130
0.0
111
1.0
121
0.0
131
0.0
112
0.0
122
1.0
132
0.0
 79
     0
146
0.0
  0
ENDTAB
  0
TABLE
  2
LTYPE
  5
5
330
0
100
AcDbSymbolTable
 70
     6
  0
LTYPE
  5
14
330
5
100
AcDbSymbolTableRecord
100
AcDbLinetypeTableRecord
  2
ByBlock
 70
     0
  3

 72
    65
 73
     0
 40
0.0
  0
LTYPE
  5
15
330
5
100
AcDbSymbolTableRecord
100
AcDbLinetypeTableRecord
  2
ByLayer
 70
     0
  3

 72
    65
 73
     0
 40
0.0
  0
LTYPE
  5
16
330
5
100
AcDbSymbolTableRecord
100
AcDbLinetypeTableRecord
  2
Continuous
 70
     0
  3
Solid line
 72
    65
 73
     0
 40
0.0
  0
LTYPE
  5
3F
330
5
100
AcDbSymbolTableRecord
100
AcDbLinetypeTableRecord
  2
HIDDEN
 70
     0
  3
Hidden __ __ __ __ __ __ __ __ __ __ __ __ __ __
 72
    65
 73
     2
 40
0.075
 49
0.05
 74
     0
 49
-0.025
 74
     0
  0
LTYPE
  5
40
330
5
100
AcDbSymbolTableRecord
100
AcDbLinetypeTableRecord
  2
PHANTOM
 70
     0
  3
Phantom ______  __  __  ______  __  __  ______
 72
    65
 73
     6
 40
0.5
 49
0.25
 74
     0
 49
-0.05
 74
     0
 49
0.05
 74
     0
 49
-0.05
 74
     0
 49
0.05
 74
     0
 49
-0.05
 74
     0
  0
LTYPE
  5
41
330
5
100
AcDbSymbolTableRecord
100
AcDbLinetypeTableRecord
  2
CENTER
 70
     0
  3
Center ____ _ ____ _ ____ _ ____ _ ____ _ ____
 72
    65
 73
     4
 40
0.4
 49
0.25
 74
     0
 49
-0.05
 74
     0
 49
0.05
 74
     0
 49
-0.05
 74
     0
  0
LTYPE
  5
42
330
5
100
AcDbSymbolTableRecord
100
AcDbLinetypeTableRecord
  2
CENTERX2
 70
     0
  3
Center (2x) ________  __  ________  __  _____
 72
    65
 73
     4
 40
0.8
 49
0.5
 74
     0
 49
-0.1
 74
     0
 49
0.1
 74
     0
 49
-0.1
 74
     0
  0
LTYPE
  5
43
330
5
100
AcDbSymbolTableRecord
100
AcDbLinetypeTableRecord
  2
DOT2
 70
     0
  3
Dot (.5x) ........................................
 72
    65
 73
     2
 40
0.025
 49
0.0
 74
     0
 49
-0.025
 74
     0
  0
ENDTAB
  0
TABLE
  2
LAYER
  5
2
330
0
100
AcDbSymbolTable
 70
     2
  0
LAYER
  5
10
330
2
100
AcDbSymbolTableRecord
100
AcDbLayerTableRecord
  2
0
 70
     0
 62
     7
  6
Continuous
370
    -3
390
F
  0
LAYER
  5
44
330
2
100
AcDbSymbolTableRecord
100
AcDbLayerTableRecord
  2
FORMAT
 70
     0
 62
     7
  6
Continuous
370
    -3
390
F
  0
ENDTAB
  0
TABLE
  2
STYLE
  5
3
330
0
100
AcDbSymbolTable
 70
     1
  0
STYLE
  5
11
330
3
100
AcDbSymbolTableRecord
100
AcDbTextStyleTableRecord
  2
Standard
 70
     0
 40
0.0
 41
1.0
 50
0.0
 71
     0
 42
0.2
  3
txt
  4

  0
ENDTAB
  0
TABLE
  2
VIEW
  5
6
330
0
100
AcDbSymbolTable
 70
     0
  0
ENDTAB
  0
TABLE
  2
UCS
  5
7
330
0
100
AcDbSymbolTable
 70
     0
  0
ENDTAB
  0
TABLE
  2
APPID
  5
9
330
0
100
AcDbSymbolTable
 70
     1
  0
APPID
  5
12
330
9
100
AcDbSymbolTableRecord
100
AcDbRegAppTableRecord
  2
ACAD
 70
     0
  0
ENDTAB
  0
TABLE
  2
DIMSTYLE
  5
A
330
0
100
AcDbSymbolTable
 70
     1
100
AcDbDimStyleTable
  0
DIMSTYLE
105
27
330
A
100
AcDbSymbolTableRecord
100
AcDbDimStyleTableRecord
  2
Standard
 70
     0
178
     0
340
11
  0
ENDTAB
  0
TABLE
  2
BLOCK_RECORD
  5
1
330
0
100
AcDbSymbolTable
 70
     1
  0
BLOCK_RECORD
  5
1F
330
1
100
AcDbSymbolTableRecord
100
AcDbBlockTableRecord
  2
*Model_Space
340
22
  0
BLOCK_RECORD
  5
1B
330
1
100
AcDbSymbolTableRecord
100
AcDbBlockTableRecord
  2
*Paper_Space
340
1E
  0
BLOCK_RECORD
  5
23
330
1
100
AcDbSymbolTableRecord
100
AcDbBlockTableRecord
  2
*Paper_Space0
340
26
  0
ENDTAB
  0
ENDSEC
  0
SECTION
  2
BLOCKS
  0
BLOCK
  5
20
330
1F
100
AcDbEntity
  8
0
100
AcDbBlockBegin
  2
*Model_Space
 70
     0
 10
0.0
 20
0.0
 30
0.0
  3
*Model_Space
  1

  0
ENDBLK
  5
21
330
1F
100
AcDbEntity
  8
0
100
AcDbBlockEnd
  0
BLOCK
  5
1C
330
1B
100
AcDbEntity
 67
     1
  8
0
100
AcDbBlockBegin
  2
*Paper_Space
 70
     0
 10
0.0
 20
0.0
 30
0.0
  3
*Paper_Space
  1

  0
ENDBLK
  5
1D
330
1B
100
AcDbEntity
 67
     1
  8
0
100
AcDbBlockEnd
  0
BLOCK
  5
24
330
23
100
AcDbEntity
  8
0
100
AcDbBlockBegin
  2
*Paper_Space0
 70
     0
 10
0.0
 20
0.0
 30
0.0
  3
*Paper_Space0
  1

  0
ENDBLK
  5
25
330
23
100
AcDbEntity
  8
0
100
AcDbBlockEnd
  0
ENDSEC
  0
SECTION
  2
ENTITIES
  0
LINE
  5
45
330
1F
100
AcDbEntity
  8
0
  6
Continuous
 62
     7
370
    30
100
AcDbLine
 10
33.3937773547
 20
30.54685228
 30
0.0
 11
30.6441001058
 21
30.54685228
 31
0.0
  0
ARC
  5
46
330
1F
100
AcDbEntity
  8
0
  6
Continuous
 62
     7
370
    30
100
AcDbCircle
 10
30.644100928
 20
30.0468512265
 30
0.0
 40
0.500000000000003
100
AcDbArc
 50
90.0
 51
185.6476663895
  0
LINE
  5
47
330
1F
100
AcDbEntity
  8
0
  6
Continuous
 62
     7
370
    30
100
AcDbLine
 10
30.1465280405
 20
29.9976447578
 30
0.0
 11
30.4434952766
 21
26.9946665418
 31
0.0
  0
ARC
  5
48
330
1F
100
AcDbEntity
  8
0
  6
Continuous
 62
     7
370
    30
100
AcDbCircle
 10
30.6922816327
 20
27.0192695374
 30
0.0
 40
0.2500000000000036
100
AcDbArc
 50
185.6476663895
 51
270.0
  0
LINE
  5
49
330
1F
100
AcDbEntity
  8
0
  6
Continuous
 62
     7
370
    30
100
AcDbLine
 10
30.6922813092
 20
26.7692694656
 30
0.0
 11
30.9945801104
 21
26.7692694656
 31
0.0
  0
ARC
  5
4A
330
1F
100
AcDbEntity
  8
0
  6
Continuous
 62
     7
370
    30
100
AcDbCircle
 10
30.9945794416
 20
27.0192695374
 30
0.0
 40
0.2500000000000036
100
AcDbArc
 50
270.0
 51
314.4349219622
  0
LINE
  5
4B
330
1F
100
AcDbEntity
  8
0
  6
Continuous
 62
     7
370
    30
100
AcDbLine
 10
31.1696042218
 20
26.8407574931
 30
0.0
 11
31.8439134455
 21
27.5018973755
 31
0.0
  0
ARC
  5
4C
330
1F
100
AcDbEntity
  8
0
  6
Continuous
 62
     7
370
    30
100
AcDbCircle
 10
32.0189387151
 20
27.323385167
 30
0.0
 40
0.2500000000000035
100
AcDbArc
 50
45.5650780378
 51
134.4349219622
  0
LINE
  5
4D
330
1F
100
AcDbEntity
  8
0
  6
Continuous
 62
     7
370
    30
100
AcDbLine
 10
32.193964015
 20
27.5018973755
 30
0.0
 11
32.8682732387
 21
26.8407574931
 31
0.0
  0
ARC
  5
4E
330
1F
100
AcDbEntity
  8
0
  6
Continuous
 62
     7
370
    30
100
AcDbCircle
 10
33.0432979887
 20
27.0192695374
 30
0.0
 40
0.2500000000000036
100
AcDbArc
 50
225.5650780378
 51
270.0
  0
LINE
  5
4F
330
1F
100
AcDbEntity
  8
0
  6
Continuous
 62
     7
370
    30
100
AcDbLine
 10
33.0432973501
 20
26.7692694656
 30
0.0
 11
33.3455961513
 21
26.7692694656
 31
0.0
  0
ARC
  5
50
330
1F
100
AcDbEntity
  8
0
  6
Continuous
 62
     7
370
    30
100
AcDbCircle
 10
33.3455957976
 20
27.0192695374
 30
0.0
 40
0.25
100
AcDbArc
 50
270.0
 51
354.3523336105
  0
LINE
  5
51
330
1F
100
AcDbEntity
  8
0
  6
Continuous
 62
     7
370
    30
100
AcDbLine
 10
33.5943821839
 20
26.9946665418
 30
0.0
 11
33.89134942
 21
29.9976447578
 31
0.0
  0
ARC
  5
52
330
1F
100
AcDbEntity
  8
0
  6
Continuous
 62
     7
370
    30
100
AcDbCircle
 10
33.3937765023
 20
30.0468512265
 30
0.0
 40
0.4999999999999996
100
AcDbArc
 50
354.3523336105
 51
90.0
  0
LINE
  5
53
330
1F
100
AcDbEntity
  8
0
  6
Continuous
 62
     7
370
    30
100
AcDbLine
 10
25.5137769718
 20
30.54685228
 30
0.0
 11
22.7641008963
 21
30.54685228
 31
0.0
  0
ARC
  5
54
330
1F
100
AcDbEntity
  8
0
  6
Continuous
 62
     7
370
    30
100
AcDbCircle
 10
22.764100928
 20
30.0468512265
 30
0.0
 40
0.500000000000003
100
AcDbArc
 50
90.0
 51
185.6476663895
  0
LINE
  5
55
330
1F
100
AcDbEntity
  8
0
  6
Continuous
 62
     7
370
    30
100
AcDbLine
 10
22.2665276576
 20
29.9976447578
 30
0.0
 11
22.5634948937
 21
26.9946665418
 31
0.0
  0
ARC
  5
56
330
1F
100
AcDbEntity
  8
0
  6
Continuous
 62
     7
370
    30
100
AcDbCircle
 10
22.8122816327
 20
27.0192695374
 30
0.0
 40
0.2500000000000036
100
AcDbArc
 50
185.6476663895
 51
270.0
  0
LINE
  5
57
330
1F
100
AcDbEntity
  8
0
  6
Continuous
 62
     7
370
    30
100
AcDbLine
 10
22.8122820997
 20
26.7692694656
 30
0.0
 11
23.1145797275
 21
26.7692694656
 31
0.0
  0
ARC
  5
58
330
1F
100
AcDbEntity
  8
0
  6
Continuous
 62
     7
370
    30
100
AcDbCircle
 10
23.1145794416
 20
27.0192695374
 30
0.0
 40
0.2500000000000036
100
AcDbArc
 50
270.0
 51
314.4349219622
  0
LINE
  5
59
330
1F
100
AcDbEntity
  8
0
  6
Continuous
 62
     7
370
    30
100
AcDbLine
 10
23.2896038389
 20
26.8407574931
 30
0.0
 11
23.9639142359
 21
27.5018973755
 31
0.0
  0
ARC
  5
5A
330
1F
100
AcDbEntity
  8
0
  6
Continuous
 62
     7
370
    30
100
AcDbCircle
 10
24.1389387151
 20
27.323385167
 30
0.0
 40
0.2500000000000035
100
AcDbArc
 50
45.5650780378
 51
134.4349219622
  0
LINE
  5
5B
330
1F
100
AcDbEntity
  8
0
  6
Continuous
 62
     7
370
    30
100
AcDbLine
 10
24.3139636321
 20
27.5018973755
 30
0.0
 11
24.9882728558
 21
26.8407574931
 31
0.0
  0
ARC
  5
5C
330
1F
100
AcDbEntity
  8
0
  6
Continuous
 62
     7
370
    30
100
AcDbCircle
 10
25.1632979887
 20
27.0192695374
 30
0.0
 40
0.2500000000000036
100
AcDbArc
 50
225.5650780378
 51
270.0
  0
LINE
  5
5D
330
1F
100
AcDbEntity
  8
0
  6
Continuous
 62
     7
370
    30
100
AcDbLine
 10
25.1632981405
 20
26.7692694656
 30
0.0
 11
25.4655957684
 21
26.7692694656
 31
0.0
  0
ARC
  5
5E
330
1F
100
AcDbEntity
  8
0
  6
Continuous
 62
     7
370
    30
100
AcDbCircle
 10
25.4655957976
 20
27.0192695374
 30
0.0
 40
0.2500000000000029
100
AcDbArc
 50
270.0
 51
354.3523336105
  0
LINE
  5
5F
330
1F
100
AcDbEntity
  8
0
  6
Continuous
 62
     7
370
    30
100
AcDbLine
 10
25.714381801
 20
26.9946665418
 30
0.0
 11
26.0113502104
 21
29.9976447578
 31
0.0
  0
ARC
  5
60
330
1F
100
AcDbEntity
  8
0
  6
Continuous
 62
     7
370
    30
100
AcDbCircle
 10
25.5137765023
 20
30.0468512265
 30
0.0
 40
0.4999999999999996
100
AcDbArc
 50
354.3523336105
 51
90.0
  0
LINE
  5
61
330
1F
100
AcDbEntity
  8
0
  6
Continuous
 62
     7
370
    30
100
AcDbLine
 10
17.6337765889
 20
30.54685228
 30
0.0
 11
14.8841011
 21
30.54685228
 31
0.0
  0
ARC
  5
62
330
1F
100
AcDbEntity
  8
0
  6
Continuous
 62
     7
370
    30
100
AcDbCircle
 10
14.884100928
 20
30.0468512265
 30
0.0
 40
0.5000000000000012
100
AcDbArc
 50
90.0
 51
185.6476663895
  0
LINE
  5
63
330
1F
100
AcDbEntity
  8
0
  6
Continuous
 62
     7
370
    30
100
AcDbLine
 10
14.3865278614
 20
29.9976447578
 30
0.0
 11
14.6834950974
 21
26.9946665418
 31
0.0
  0
ARC
  5
64
330
1F
100
AcDbEntity
  8
0
  6
Continuous
 62
     7
370
    30
100
AcDbCircle
 10
14.9322816327
 20
27.0192695374
 30
0.0
 40
0.2500000000000036
100
AcDbArc
 50
185.6476663895
 51
270.0
  0
LINE
  5
65
330
1F
100
AcDbEntity
  8
0
  6
Continuous
 62
     7
370
    30
100
AcDbLine
 10
14.9322817168
 20
26.7692694656
 30
0.0
 11
15.2345793446
 21
26.7692694656
 31
0.0
  0
ARC
  5
66
330
1F
100
AcDbEntity
  8
0
  6
Continuous
 62
     7
370
    30
100
AcDbCircle
 10
15.2345794416
 20
27.0192695374
 30
0.0
 40
0.2500000000000036
100
AcDbArc
 50
270.0
 51
314.4349219622
  0
LINE
  5
67
330
1F
100
AcDbEntity
  8
0
  6
Continuous
 62
     7
370
    30
100
AcDbLine
 10
15.4096040427
 20
26.8407574931
 30
0.0
 11
16.083913853
 21
27.5018973755
 31
0.0
  0
ARC
  5
68
330
1F
100
AcDbEntity
  8
0
  6
Continuous
 62
     7
370
    30
100
AcDbCircle
 10
16.2589387151
 20
27.323385167
 30
0.0
 40
0.2500000000000035
100
AcDbArc
 50
45.5650780378
 51
134.4349219622
  0
LINE
  5
69
330
1F
100
AcDbEntity
  8
0
  6
Continuous
 62
     7
370
    30
100
AcDbLine
 10
16.4339632492
 20
27.5018973755
 30
0.0
 11
17.1082736462
 21
26.8407574931
 31
0.0
  0
ARC
  5
6A
330
1F
100
AcDbEntity
  8
0
  6
Continuous
 62
     7
370
    30
100
AcDbCircle
 10
17.2832979887
 20
27.0192695374
 30
0.0
 40
0.2500000000000036
100
AcDbArc
 50
225.5650780378
 51
270.0
  0
LINE
  5
6B
330
1F
100
AcDbEntity
  8
0
  6
Continuous
 62
     7
370
    30
100
AcDbLine
 10
17.2832977576
 20
26.7692694656
 30
0.0
 11
17.5855953855
 21
26.7692694656
 31
0.0
  0
ARC
  5
6C
330
1F
100
AcDbEntity
  8
0
  6
Continuous
 62
     7
370
    30
100
AcDbCircle
 10
17.5855957976
 20
27.0192695374
 30
0.0
 40
0.25
100
AcDbArc
 50
270.0
 51
354.3523336105
  0
LINE
  5
6D
330
1F
100
AcDbEntity
  8
0
  6
Continuous
 62
     7
370
    30
100
AcDbLine
 10
17.8343825915
 20
26.9946665418
 30
0.0
 11
18.1313498275
 21
29.9976447578
 31
0.0
  0
ARC
  5
6E
330
1F
100
AcDbEntity
  8
0
  6
Continuous
 62
     7
370
    30
100
AcDbCircle
 10
17.6337765023
 20
30.0468512265
 30
0.0
 40
0.4999999999999996
100
AcDbArc
 50
354.3523336105
 51
90.0
  0
LINE
  5
6F
330
1F
100
AcDbEntity
  8
0
  6
Continuous
 62
     7
370
    30
100
AcDbLine
 10
9.7537764993
 20
30.54685228
 30
0.0
 11
7.0041009371
 21
30.54685228
 31
0.0
  0
ARC
  5
70
330
1F
100
AcDbEntity
  8
0
  6
Continuous
 62
     7
370
    30
100
AcDbCircle
 10
7.004100928
 20
30.0468512265
 30
0.0
 40
0.4999999999999987
100
AcDbArc
 50
90.0
 51
185.6476663895
  0
LINE
  5
71
330
1F
100
AcDbEntity
  8
0
  6
Continuous
 62
     7
370
    30
100
AcDbLine
 10
6.5065279918
 20
29.9976447578
 30
0.0
 11
6.8034951545
 21
26.9946665418
 31
0.0
  0
ARC
  5
72
330
1F
100
AcDbEntity
  8
0
  6
Continuous
 62
     7
370
    30
100
AcDbCircle
 10
7.0522816327
 20
27.0192695374
 30
0.0
 40
0.2500000000000036
100
AcDbArc
 50
185.6476663895
 51
270.0
  0
LINE
  5
73
330
1F
100
AcDbEntity
  8
0
  6
Continuous
 62
     7
370
    30
100
AcDbLine
 10
7.0522816272
 20
26.7692694656
 30
0.0
 11
7.354579475
 21
26.7692694656
 31
0.0
  0
ARC
  5
74
330
1F
100
AcDbEntity
  8
0
  6
Continuous
 62
     7
370
    30
100
AcDbCircle
 10
7.3545794416
 20
27.0192695374
 30
0.0
 40
0.2500000000000036
100
AcDbArc
 50
270.0
 51
314.4349219622
  0
LINE
  5
75
330
1F
100
AcDbEntity
  8
0
  6
Continuous
 62
     7
370
    30
100
AcDbLine
 10
7.5296040998
 20
26.8407574931
 30
0.0
 11
8.2039140568
 21
27.5018973755
 31
0.0
  0
ARC
  5
76
330
1F
100
AcDbEntity
  8
0
  6
Continuous
 62
     7
370
    30
100
AcDbCircle
 10
8.3789387151
 20
27.323385167
 30
0.0
 40
0.2500000000000023
100
AcDbArc
 50
45.5650780378
 51
134.4349219622
  0
LINE
  5
77
330
1F
100
AcDbEntity
  8
0
  6
Continuous
 62
     7
370
    30
100
AcDbLine
 10
8.553963453
 20
27.5018973755
 30
0.0
 11
9.2282732633
 21
26.8407574931
 31
0.0
  0
ARC
  5
78
330
1F
100
AcDbEntity
  8
0
  6
Continuous
 62
     7
370
    30
100
AcDbCircle
 10
9.4032979887
 20
27.0192695374
 30
0.0
 40
0.2500000000000036
100
AcDbArc
 50
225.5650780378
 51
270.0
  0
LINE
  5
79
330
1F
100
AcDbEntity
  8
0
  6
Continuous
 62
     7
370
    30
100
AcDbLine
 10
9.4032979614
 20
26.7692694656
 30
0.0
 11
9.7055958826
 21
26.7692694656
 31
0.0
  0
ARC
  5
7A
330
1F
100
AcDbEntity
  8
0
  6
Continuous
 62
     7
370
    30
100
AcDbCircle
 10
9.7055957976
 20
27.0192695374
 30
0.0
 40
0.25
100
AcDbArc
 50
270.0
 51
354.3523336105
  0
LINE
  5
7B
330
1F
100
AcDbEntity
  8
0
  6
Continuous
 62
     7
370
    30
100
AcDbLine
 10
9.9543822086
 20
26.9946665418
 30
0.0
 11
10.2513494446
 21
29.9976447578
 31
0.0
  0
ARC
  5
7C
330
1F
100
AcDbEntity
  8
0
  6
Continuous
 62
     7
370
    30
100
AcDbCircle
 10
9.7537765023
 20
30.0468512265
 30
0.0
 40
0.5000000000000012
100
AcDbArc
 50
354.3523336105
 51
90.0
  0
LINE
  5
7D
330
1F
100
AcDbEntity
  8
0
  6
Continuous
 62
     7
370
    30
100
AcDbLine
 10
29.4537765766
 20
26.1638505394
 30
0.0
 11
26.7041016744
 21
26.1638505394
 31
0.0
  0
ARC
  5
7E
330
1F
100
AcDbEntity
  8
0
  6
Continuous
 62
     7
370
    30
100
AcDbCircle
 10
26.704100928
 20
25.6638512265
 30
0.0
 40
0.500000000000003
100
AcDbArc
 50
90.0
 51
185.6476663895
  0
LINE
  5
7F
330
1F
100
AcDbEntity
  8
0
  6
Continuous
 62
     7
370
    30
100
AcDbLine
 10
26.2065272624
 20
25.6146453639
 30
0.0
 11
26.5034944985
 21
22.6116671479
 31
0.0
  0
ARC
  5
80
330
1F
100
AcDbEntity
  8
0
  6
Continuous
 62
     7
370
    30
100
AcDbCircle
 10
26.7522816327
 20
22.6362695374
 30
0.0
 40
0.2500000000000029
100
AcDbArc
 50
185.6476663895
 51
270.0
  0
LINE
  5
81
330
1F
100
AcDbEntity
  8
0
  6
Continuous
 62
     7
370
    30
100
AcDbLine
 10
26.7522805311
 20
22.3862700717
 30
0.0
 11
27.0545793323
 21
22.3862700717
 31
0.0
  0
ARC
  5
82
330
1F
100
AcDbEntity
  8
0
  6
Continuous
 62
     7
370
    30
100
AcDbCircle
 10
27.0545794416
 20
22.6362695374
 30
0.0
 40
0.250000000000001
100
AcDbArc
 50
270.0
 51
314.4349219622
  0
LINE
  5
83
330
1F
100
AcDbEntity
  8
0
  6
Continuous
 62
     7
370
    30
100
AcDbLine
 10
27.2296034437
 20
22.4577580992
 30
0.0
 11
27.903915014
 21
23.1188968083
 31
0.0
  0
ARC
  5
84
330
1F
100
AcDbEntity
  8
0
  6
Continuous
 62
     7
370
    30
100
AcDbCircle
 10
28.0789387151
 20
22.940385167
 30
0.0
 40
0.2500000000000035
100
AcDbArc
 50
45.5650780378
 51
134.4349219622
  0
LINE
  5
85
330
1F
100
AcDbEntity
  8
0
  6
Continuous
 62
     7
370
    30
100
AcDbLine
 10
28.2539632369
 20
23.1188968083
 30
0.0
 11
28.9282724606
 21
22.4577580992
 31
0.0
  0
ARC
  5
86
330
1F
100
AcDbEntity
  8
0
  6
Continuous
 62
     7
370
    30
100
AcDbCircle
 10
29.1032979887
 20
22.6362695374
 30
0.0
 40
0.2499999999999985
100
AcDbArc
 50
225.5650780378
 51
270.0
  0
LINE
  5
87
330
1F
100
AcDbEntity
  8
0
  6
Continuous
 62
     7
370
    30
100
AcDbLine
 10
29.1032989186
 20
22.3862700717
 30
0.0
 11
29.4055953732
 21
22.3862700717
 31
0.0
  0
ARC
  5
88
330
1F
100
AcDbEntity
  8
0
  6
Continuous
 62
     7
370
    30
100
AcDbCircle
 10
29.4055957976
 20
22.6362695374
 30
0.0
 40
0.2499999999999964
100
AcDbArc
 50
270.0
 51
354.3523336105
  0
LINE
  5
89
330
1F
100
AcDbEntity
  8
0
  6
Continuous
 62
     7
370
    30
100
AcDbLine
 10
29.6543814058
 20
22.6116671479
 30
0.0
 11
29.9513486419
 21
25.6146453639
 31
0.0
  0
ARC
  5
8A
330
1F
100
AcDbEntity
  8
0
  6
Continuous
 62
     7
370
    30
100
AcDbCircle
 10
29.4537765023
 20
25.6638512265
 30
0.0
 40
0.500000000000003
100
AcDbArc
 50
354.3523336105
 51
90.0
  0
LINE
  5
8B
330
1F
100
AcDbEntity
  8
0
  6
Continuous
 62
     7
370
    30
100
AcDbLine
 10
21.5737761937
 20
26.1638505394
 30
0.0
 11
18.8241012915
 21
26.1638505394
 31
0.0
  0
ARC
  5
8C
330
1F
100
AcDbEntity
  8
0
  6
Continuous
 62
     7
370
    30
100
AcDbCircle
 10
18.824100928
 20
25.6638512265
 30
0.0
 40
0.4999999999999996
100
AcDbArc
 50
90.0
 51
185.6476663895
  0
LINE
  5
8D
330
1F
100
AcDbEntity
  8
0
  6
Continuous
 62
     7
370
    30
100
AcDbLine
 10
18.3265280528
 20
25.6146453639
 30
0.0
 11
18.6234952889
 21
22.6116671479
 31
0.0
  0
ARC
  5
8E
330
1F
100
AcDbEntity
  8
0
  6
Continuous
 62
     7
370
    30
100
AcDbCircle
 10
18.8722816327
 20
22.6362695374
 30
0.0
 40
0.2499999999999994
100
AcDbArc
 50
185.6476663895
 51
270.0
  0
LINE
  5
8F
330
1F
100
AcDbEntity
  8
0
  6
Continuous
 62
     7
370
    30
100
AcDbLine
 10
18.8722813216
 20
22.3862700717
 30
0.0
 11
19.1745789494
 21
22.3862700717
 31
0.0
  0
ARC
  5
90
330
1F
100
AcDbEntity
  8
0
  6
Continuous
 62
     7
370
    30
100
AcDbCircle
 10
19.1745794416
 20
22.6362695374
 30
0.0
 40
0.250000000000001
100
AcDbArc
 50
270.0
 51
314.4349219622
  0
LINE
  5
91
330
1F
100
AcDbEntity
  8
0
  6
Continuous
 62
     7
370
    30
100
AcDbLine
 10
19.3496042342
 20
22.4577580992
 30
0.0
 11
20.0239134578
 21
23.1188968083
 31
0.0
  0
ARC
  5
92
330
1F
100
AcDbEntity
  8
0
  6
Continuous
 62
     7
370
    30
100
AcDbCircle
 10
20.1989387151
 20
22.940385167
 30
0.0
 40
0.2500000000000035
100
AcDbArc
 50
45.5650780378
 51
134.4349219622
  0
LINE
  5
93
330
1F
100
AcDbEntity
  8
0
  6
Continuous
 62
     7
370
    30
100
AcDbLine
 10
20.373962854
 20
23.1188968083
 30
0.0
 11
21.048273251
 21
22.4577580992
 31
0.0
  0
ARC
  5
94
330
1F
100
AcDbEntity
  8
0
  6
Continuous
 62
     7
370
    30
100
AcDbCircle
 10
21.2232979887
 20
22.6362695374
 30
0.0
 40
0.2499999999999985
100
AcDbArc
 50
225.5650780378
 51
270.0
  0
LINE
  5
95
330
1F
100
AcDbEntity
  8
0
  6
Continuous
 62
     7
370
    30
100
AcDbLine
 10
21.2232985357
 20
22.3862700717
 30
0.0
 11
21.5255961636
 21
22.3862700717
 31
0.0
  0
ARC
  5
96
330
1F
100
AcDbEntity
  8
0
  6
Continuous
 62
     7
370
    30
100
AcDbCircle
 10
21.5255957976
 20
22.6362695374
 30
0.0
 40
0.2499999999999964
100
AcDbArc
 50
270.0
 51
354.3523336105
  0
LINE
  5
97
330
1F
100
AcDbEntity
  8
0
  6
Continuous
 62
     7
370
    30
100
AcDbLine
 10
21.7743821962
 20
22.6116671479
 30
0.0
 11
22.0713494323
 21
25.6146453639
 31
0.0
  0
ARC
  5
98
330
1F
100
AcDbEntity
  8
0
  6
Continuous
 62
     7
370
    30
100
AcDbCircle
 10
21.5737765023
 20
25.6638512265
 30
0.0
 40
0.4999999999999996
100
AcDbArc
 50
354.3523336105
 51
90.0
  0
LINE
  5
99
330
1F
100
AcDbEntity
  8
0
  6
Continuous
 62
     7
370
    30
100
AcDbLine
 10
13.6937763974
 20
26.1638505394
 30
0.0
 11
10.9441009086
 21
26.1638505394
 31
0.0
  0
ARC
  5
9A
330
1F
100
AcDbEntity
  8
0
  6
Continuous
 62
     7
370
    30
100
AcDbCircle
 10
10.944100928
 20
25.6638512265
 30
0.0
 40
0.5000000000000012
100
AcDbArc
 50
90.0
 51
185.6476663895
  0
LINE
  5
9B
330
1F
100
AcDbEntity
  8
0
  6
Continuous
 62
     7
370
    30
100
AcDbLine
 10
10.4465279633
 20
25.6146453639
 30
0.0
 11
10.7434951993
 21
22.6116671479
 31
0.0
  0
ARC
  5
9C
330
1F
100
AcDbEntity
  8
0
  6
Continuous
 62
     7
370
    30
100
AcDbCircle
 10
10.9922816327
 20
22.6362695374
 30
0.0
 40
0.2499999999999994
100
AcDbArc
 50
185.6476663895
 51
270.0
  0
LINE
  5
9D
330
1F
100
AcDbEntity
  8
0
  6
Continuous
 62
     7
370
    30
100
AcDbLine
 10
10.9922815253
 20
22.3862700717
 30
0.0
 11
11.2945791532
 21
22.3862700717
 31
0.0
  0
ARC
  5
9E
330
1F
100
AcDbEntity
  8
0
  6
Continuous
 62
     7
370
    30
100
AcDbCircle
 10
11.2945794416
 20
22.6362695374
 30
0.0
 40
0.25
100
AcDbArc
 50
270.0
 51
314.4349219622
  0
LINE
  5
9F
330
1F
100
AcDbEntity
  8
0
  6
Continuous
 62
     7
370
    30
100
AcDbLine
 10
11.4696038513
 20
22.4577580992
 30
0.0
 11
12.1439142482
 21
23.1188968083
 31
0.0
  0
ARC
  5
A0
330
1F
100
AcDbEntity
  8
0
  6
Continuous
 62
     7
370
    30
100
AcDbCircle
 10
12.3189387151
 20
22.940385167
 30
0.0
 40
0.2500000000000023
100
AcDbArc
 50
45.5650780378
 51
134.4349219622
  0
LINE
  5
A1
330
1F
100
AcDbEntity
  8
0
  6
Continuous
 62
     7
370
    30
100
AcDbLine
 10
12.4939636444
 20
23.1188968083
 30
0.0
 11
13.1682734547
 21
22.4577580992
 31
0.0
  0
ARC
  5
A2
330
1F
100
AcDbEntity
  8
0
  6
Continuous
 62
     7
370
    30
100
AcDbCircle
 10
13.3432979887
 20
22.6362695374
 30
0.0
 40
0.2499999999999985
100
AcDbArc
 50
225.5650780378
 51
270.0
  0
LINE
  5
A3
330
1F
100
AcDbEntity
  8
0
  6
Continuous
 62
     7
370
    30
100
AcDbLine
 10
13.3432981528
 20
22.3862700717
 30
0.0
 11
13.6455957807
 21
22.3862700717
 31
0.0
  0
ARC
  5
A4
330
1F
100
AcDbEntity
  8
0
  6
Continuous
 62
     7
370
    30
100
AcDbCircle
 10
13.6455957976
 20
22.6362695374
 30
0.0
 40
0.2499999999999976
100
AcDbArc
 50
270.0
 51
354.3523336105
  0
LINE
  5
A5
330
1F
100
AcDbEntity
  8
0
  6
Continuous
 62
     7
370
    30
100
AcDbLine
 10
13.8943824
 20
22.6116671479
 30
0.0
 11
14.1913496361
 21
25.6146453639
 31
0.0
  0
ARC
  5
A6
330
1F
100
AcDbEntity
  8
0
  6
Continuous
 62
     7
370
    30
100
AcDbCircle
 10
13.6937765023
 20
25.6638512265
 30
0.0
 40
0.4999999999999996
100
AcDbArc
 50
354.3523336105
 51
90.0
  0
LINE
  5
A7
330
1F
100
AcDbEntity
  8
0
  6
Continuous
 62
     7
370
    30
100
AcDbLine
 10
33.3937773547
 20
21.7808511455
 30
0.0
 11
30.6441001058
 21
21.7808511455
 31
0.0
  0
ARC
  5
A8
330
1F
100
AcDbEntity
  8
0
  6
Continuous
 62
     7
370
    30
100
AcDbCircle
 10
30.644100928
 20
21.2808512265
 30
0.0
 40
0.5000000000000036
100
AcDbArc
 50
90.0
 51
185.6476663895
  0
LINE
  5
A9
330
1F
100
AcDbEntity
  8
0
  6
Continuous
 62
     7
370
    30
100
AcDbLine
 10
30.1465280405
 20
21.23164597
 30
0.0
 11
30.4434952766
 21
18.2286665807
 31
0.0
  0
ARC
  5
AA
330
1F
100
AcDbEntity
  8
0
  6
Continuous
 62
     7
370
    30
100
AcDbCircle
 10
30.6922816327
 20
18.2532695374
 30
0.0
 40
0.25
100
AcDbArc
 50
185.6476663895
 51
270.0
  0
LINE
  5
AB
330
1F
100
AcDbEntity
  8
0
  6
Continuous
 62
     7
370
    30
100
AcDbLine
 10
30.6922813092
 20
18.0032695045
 30
0.0
 11
30.9945801104
 21
18.0032695045
 31
0.0
  0
ARC
  5
AC
330
1F
100
AcDbEntity
  8
0
  6
Continuous
 62
     7
370
    30
100
AcDbCircle
 10
30.9945794416
 20
18.2532695374
 30
0.0
 40
0.2500000000000035
100
AcDbArc
 50
270.0
 51
314.4349219622
  0
LINE
  5
AD
330
1F
100
AcDbEntity
  8
0
  6
Continuous
 62
     7
370
    30
100
AcDbLine
 10
31.1696042218
 20
18.074757532
 30
0.0
 11
31.8439134455
 21
18.7358962411
 31
0.0
  0
ARC
  5
AE
330
1F
100
AcDbEntity
  8
0
  6
Continuous
 62
     7
370
    30
100
AcDbCircle
 10
32.0189387151
 20
18.557385167
 30
0.0
 40
0.2499999999999985
100
AcDbArc
 50
45.5650780378
 51
134.4349219622
  0
LINE
  5
AF
330
1F
100
AcDbEntity
  8
0
  6
Continuous
 62
     7
370
    30
100
AcDbLine
 10
32.193964015
 20
18.7358962411
 30
0.0
 11
32.8682732387
 21
18.074757532
 31
0.0
  0
ARC
  5
B0
330
1F
100
AcDbEntity
  8
0
  6
Continuous
 62
     7
370
    30
100
AcDbCircle
 10
33.0432979887
 20
18.2532695374
 30
0.0
 40
0.250000000000001
100
AcDbArc
 50
225.5650780378
 51
270.0
  0
LINE
  5
B1
330
1F
100
AcDbEntity
  8
0
  6
Continuous
 62
     7
370
    30
100
AcDbLine
 10
33.0432973501
 20
18.0032695045
 30
0.0
 11
33.3455961513
 21
18.0032695045
 31
0.0
  0
ARC
  5
B2
330
1F
100
AcDbEntity
  8
0
  6
Continuous
 62
     7
370
    30
100
AcDbCircle
 10
33.3455957976
 20
18.2532695374
 30
0.0
 40
0.2499999999999964
100
AcDbArc
 50
270.0
 51
354.3523336105
  0
LINE
  5
B3
330
1F
100
AcDbEntity
  8
0
  6
Continuous
 62
     7
370
    30
100
AcDbLine
 10
33.5943821839
 20
18.2286665807
 30
0.0
 11
33.89134942
 21
21.23164597
 31
0.0
  0
ARC
  5
B4
330
1F
100
AcDbEntity
  8
0
  6
Continuous
 62
     7
370
    30
100
AcDbCircle
 10
33.3937765023
 20
21.2808512265
 30
0.0
 40
0.5000000000000036
100
AcDbArc
 50
354.3523336105
 51
90.0
  0
LINE
  5
B5
330
1F
100
AcDbEntity
  8
0
  6
Continuous
 62
     7
370
    30
100
AcDbLine
 10
25.5137769718
 20
21.7808511455
 30
0.0
 11
22.7641008963
 21
21.7808511455
 31
0.0
  0
ARC
  5
B6
330
1F
100
AcDbEntity
  8
0
  6
Continuous
 62
     7
370
    30
100
AcDbCircle
 10
22.764100928
 20
21.2808512265
 30
0.0
 40
0.5000000000000036
100
AcDbArc
 50
90.0
 51
185.6476663895
  0
LINE
  5
B7
330
1F
100
AcDbEntity
  8
0
  6
Continuous
 62
     7
370
    30
100
AcDbLine
 10
22.2665276576
 20
21.23164597
 30
0.0
 11
22.5634948937
 21
18.2286665807
 31
0.0
  0
ARC
  5
B8
330
1F
100
AcDbEntity
  8
0
  6
Continuous
 62
     7
370
    30
100
AcDbCircle
 10
22.8122816327
 20
18.2532695374
 30
0.0
 40
0.25
100
AcDbArc
 50
185.6476663895
 51
270.0
  0
LINE
  5
B9
330
1F
100
AcDbEntity
  8
0
  6
Continuous
 62
     7
370
    30
100
AcDbLine
 10
22.8122820997
 20
18.0032695045
 30
0.0
 11
23.1145797275
 21
18.0032695045
 31
0.0
  0
ARC
  5
BA
330
1F
100
AcDbEntity
  8
0
  6
Continuous
 62
     7
370
    30
100
AcDbCircle
 10
23.1145794416
 20
18.2532695374
 30
0.0
 40
0.2500000000000035
100
AcDbArc
 50
270.0
 51
314.4349219622
  0
LINE
  5
BB
330
1F
100
AcDbEntity
  8
0
  6
Continuous
 62
     7
370
    30
100
AcDbLine
 10
23.2896038389
 20
18.074757532
 30
0.0
 11
23.9639142359
 21
18.7358962411
 31
0.0
  0
ARC
  5
BC
330
1F
100
AcDbEntity
  8
0
  6
Continuous
 62
     7
370
    30
100
AcDbCircle
 10
24.1389387151
 20
18.557385167
 30
0.0
 40
0.2499999999999985
100
AcDbArc
 50
45.5650780378
 51
134.4349219622
  0
LINE
  5
BD
330
1F
100
AcDbEntity
  8
0
  6
Continuous
 62
     7
370
    30
100
AcDbLine
 10
24.3139636321
 20
18.7358962411
 30
0.0
 11
24.9882728558
 21
18.074757532
 31
0.0
  0
ARC
  5
BE
330
1F
100
AcDbEntity
  8
0
  6
Continuous
 62
     7
370
    30
100
AcDbCircle
 10
25.1632979887
 20
18.2532695374
 30
0.0
 40
0.25
100
AcDbArc
 50
225.5650780378
 51
270.0
  0
LINE
  5
BF
330
1F
100
AcDbEntity
  8
0
  6
Continuous
 62
     7
370
    30
100
AcDbLine
 10
25.1632981405
 20
18.0032695045
 30
0.0
 11
25.4655957684
 21
18.0032695045
 31
0.0
  0
ARC
  5
C0
330
1F
100
AcDbEntity
  8
0
  6
Continuous
 62
     7
370
    30
100
AcDbCircle
 10
25.4655957976
 20
18.2532695374
 30
0.0
 40
0.2499999999999964
100
AcDbArc
 50
270.0
 51
354.3523336105
  0
LINE
  5
C1
330
1F
100
AcDbEntity
  8
0
  6
Continuous
 62
     7
370
    30
100
AcDbLine
 10
25.714381801
 20
18.2286665807
 30
0.0
 11
26.0113502104
 21
21.23164597
 31
0.0
  0
ARC
  5
C2
330
1F
100
AcDbEntity
  8
0
  6
Continuous
 62
     7
370
    30
100
AcDbCircle
 10
25.5137765023
 20
21.2808512265
 30
0.0
 40
0.5000000000000036
100
AcDbArc
 50
354.3523336105
 51
90.0
  0
LINE
  5
C3
330
1F
100
AcDbEntity
  8
0
  6
Continuous
 62
     7
370
    30
100
AcDbLine
 10
17.6337765889
 20
21.7808511455
 30
0.0
 11
14.8841011
 21
21.7808511455
 31
0.0
  0
ARC
  5
C4
330
1F
100
AcDbEntity
  8
0
  6
Continuous
 62
     7
370
    30
100
AcDbCircle
 10
14.884100928
 20
21.2808512265
 30
0.0
 40
0.5000000000000036
100
AcDbArc
 50
90.0
 51
185.6476663895
  0
LINE
  5
C5
330
1F
100
AcDbEntity
  8
0
  6
Continuous
 62
     7
370
    30
100
AcDbLine
 10
14.3865278614
 20
21.23164597
 30
0.0
 11
14.6834950974
 21
18.2286665807
 31
0.0
  0
ARC
  5
C6
330
1F
100
AcDbEntity
  8
0
  6
Continuous
 62
     7
370
    30
100
AcDbCircle
 10
14.9322816327
 20
18.2532695374
 30
0.0
 40
0.25
100
AcDbArc
 50
185.6476663895
 51
270.0
  0
LINE
  5
C7
330
1F
100
AcDbEntity
  8
0
  6
Continuous
 62
     7
370
    30
100
AcDbLine
 10
14.9322817168
 20
18.0032695045
 30
0.0
 11
15.2345793446
 21
18.0032695045
 31
0.0
  0
ARC
  5
C8
330
1F
100
AcDbEntity
  8
0
  6
Continuous
 62
     7
370
    30
100
AcDbCircle
 10
15.2345794416
 20
18.2532695374
 30
0.0
 40
0.25
100
AcDbArc
 50
270.0
 51
314.4349219622
  0
LINE
  5
C9
330
1F
100
AcDbEntity
  8
0
  6
Continuous
 62
     7
370
    30
100
AcDbLine
 10
15.4096040427
 20
18.074757532
 30
0.0
 11
16.083913853
 21
18.7358962411
 31
0.0
  0
ARC
  5
CA
330
1F
100
AcDbEntity
  8
0
  6
Continuous
 62
     7
370
    30
100
AcDbCircle
 10
16.2589387151
 20
18.557385167
 30
0.0
 40
0.2500000000000009
100
AcDbArc
 50
45.5650780378
 51
134.4349219622
  0
LINE
  5
CB
330
1F
100
AcDbEntity
  8
0
  6
Continuous
 62
     7
370
    30
100
AcDbLine
 10
16.4339632492
 20
18.7358962411
 30
0.0
 11
17.1082736462
 21
18.074757532
 31
0.0
  0
ARC
  5
CC
330
1F
100
AcDbEntity
  8
0
  6
Continuous
 62
     7
370
    30
100
AcDbCircle
 10
17.2832979887
 20
18.2532695374
 30
0.0
 40
0.25
100
AcDbArc
 50
225.5650780378
 51
270.0
  0
LINE
  5
CD
330
1F
100
AcDbEntity
  8
0
  6
Continuous
 62
     7
370
    30
100
AcDbLine
 10
17.2832977576
 20
18.0032695045
 30
0.0
 11
17.5855953855
 21
18.0032695045
 31
0.0
  0
ARC
  5
CE
330
1F
100
AcDbEntity
  8
0
  6
Continuous
 62
     7
370
    30
100
AcDbCircle
 10
17.5855957976
 20
18.2532695374
 30
0.0
 40
0.2499999999999964
100
AcDbArc
 50
270.0
 51
354.3523336105
  0
LINE
  5
CF
330
1F
100
AcDbEntity
  8
0
  6
Continuous
 62
     7
370
    30
100
AcDbLine
 10
17.8343825915
 20
18.2286665807
 30
0.0
 11
18.1313498275
 21
21.23164597
 31
0.0
  0
ARC
  5
D0
330
1F
100
AcDbEntity
  8
0
  6
Continuous
 62
     7
370
    30
100
AcDbCircle
 10
17.6337765023
 20
21.2808512265
 30
0.0
 40
0.5000000000000036
100
AcDbArc
 50
354.3523336105
 51
90.0
  0
LINE
  5
D1
330
1F
100
AcDbEntity
  8
0
  6
Continuous
 62
     7
370
    30
100
AcDbLine
 10
9.7537764993
 20
21.7808511455
 30
0.0
 11
7.0041009371
 21
21.7808511455
 31
0.0
  0
ARC
  5
D2
330
1F
100
AcDbEntity
  8
0
  6
Continuous
 62
     7
370
    30
100
AcDbCircle
 10
7.004100928
 20
21.2808512265
 30
0.0
 40
0.5000000000000036
100
AcDbArc
 50
90.0
 51
185.6476663895
  0
LINE
  5
D3
330
1F
100
AcDbEntity
  8
0
  6
Continuous
 62
     7
370
    30
100
AcDbLine
 10
6.5065279918
 20
21.23164597
 30
0.0
 11
6.8034951545
 21
18.2286665807
 31
0.0
  0
ARC
  5
D4
330
1F
100
AcDbEntity
  8
0
  6
Continuous
 62
     7
370
    30
100
AcDbCircle
 10
7.0522816327
 20
18.2532695374
 30
0.0
 40
0.2500000000000003
100
AcDbArc
 50
185.6476663895
 51
270.0
  0
LINE
  5
D5
330
1F
100
AcDbEntity
  8
0
  6
Continuous
 62
     7
370
    30
100
AcDbLine
 10
7.0522816272
 20
18.0032695045
 30
0.0
 11
7.354579475
 21
18.0032695045
 31
0.0
  0
ARC
  5
D6
330
1F
100
AcDbEntity
  8
0
  6
Continuous
 62
     7
370
    30
100
AcDbCircle
 10
7.3545794416
 20
18.2532695374
 30
0.0
 40
0.2500000000000004
100
AcDbArc
 50
270.0
 51
314.4349219622
  0
LINE
  5
D7
330
1F
100
AcDbEntity
  8
0
  6
Continuous
 62
     7
370
    30
100
AcDbLine
 10
7.5296040998
 20
18.074757532
 30
0.0
 11
8.2039140568
 21
18.7358962411
 31
0.0
  0
ARC
  5
D8
330
1F
100
AcDbEntity
  8
0
  6
Continuous
 62
     7
370
    30
100
AcDbCircle
 10
8.3789387151
 20
18.557385167
 30
0.0
 40
0.2499999999999997
100
AcDbArc
 50
45.5650780378
 51
134.4349219622
  0
LINE
  5
D9
330
1F
100
AcDbEntity
  8
0
  6
Continuous
 62
     7
370
    30
100
AcDbLine
 10
8.553963453
 20
18.7358962411
 30
0.0
 11
9.2282732633
 21
18.074757532
 31
0.0
  0
ARC
  5
DA
330
1F
100
AcDbEntity
  8
0
  6
Continuous
 62
     7
370
    30
100
AcDbCircle
 10
9.4032979887
 20
18.2532695374
 30
0.0
 40
0.25
100
AcDbArc
 50
225.5650780378
 51
270.0
  0
LINE
  5
DB
330
1F
100
AcDbEntity
  8
0
  6
Continuous
 62
     7
370
    30
100
AcDbLine
 10
9.4032979614
 20
18.0032695045
 30
0.0
 11
9.7055958826
 21
18.0032695045
 31
0.0
  0
ARC
  5
DC
330
1F
100
AcDbEntity
  8
0
  6
Continuous
 62
     7
370
    30
100
AcDbCircle
 10
9.7055957976
 20
18.2532695374
 30
0.0
 40
0.2499999999999964
100
AcDbArc
 50
270.0
 51
354.3523336105
  0
LINE
  5
DD
330
1F
100
AcDbEntity
  8
0
  6
Continuous
 62
     7
370
    30
100
AcDbLine
 10
9.9543822086
 20
18.2286665807
 30
0.0
 11
10.2513494446
 21
21.23164597
 31
0.0
  0
ARC
  5
DE
330
1F
100
AcDbEntity
  8
0
  6
Continuous
 62
     7
370
    30
100
AcDbCircle
 10
9.7537765023
 20
21.2808512265
 30
0.0
 40
0.5000000000000036
100
AcDbArc
 50
354.3523336105
 51
90.0
  0
LINE
  5
DF
330
1F
100
AcDbEntity
  8
0
  6
Continuous
 62
     7
370
    30
100
AcDbLine
 10
29.4537765766
 20
17.3978517517
 30
0.0
 11
26.7041016744
 21
17.3978517517
 31
0.0
  0
ARC
  5
E0
330
1F
100
AcDbEntity
  8
0
  6
Continuous
 62
     7
370
    30
100
AcDbCircle
 10
26.704100928
 20
16.8978512265
 30
0.0
 40
0.5000000000000036
100
AcDbArc
 50
90.0
 51
185.6476663895
  0
LINE
  5
E1
330
1F
100
AcDbEntity
  8
0
  6
Continuous
 62
     7
370
    30
100
AcDbLine
 10
26.2065272624
 20
16.8486454028
 30
0.0
 11
26.5034944985
 21
13.8456666001
 31
0.0
  0
ARC
  5
E2
330
1F
100
AcDbEntity
  8
0
  6
Continuous
 62
     7
370
    30
100
AcDbCircle
 10
26.7522816327
 20
13.8702695374
 30
0.0
 40
0.25
100
AcDbArc
 50
185.6476663895
 51
270.0
  0
LINE
  5
E3
330
1F
100
AcDbEntity
  8
0
  6
Continuous
 62
     7
370
    30
100
AcDbLine
 10
26.7522805311
 20
13.620269524
 30
0.0
 11
27.0545793323
 21
13.620269524
 31
0.0
  0
ARC
  5
E4
330
1F
100
AcDbEntity
  8
0
  6
Continuous
 62
     7
370
    30
100
AcDbCircle
 10
27.0545794416
 20
13.8702695374
 30
0.0
 40
0.25
100
AcDbArc
 50
270.0
 51
314.4349219622
  0
LINE
  5
E5
330
1F
100
AcDbEntity
  8
0
  6
Continuous
 62
     7
370
    30
100
AcDbLine
 10
27.2296034437
 20
13.6917581381
 30
0.0
 11
27.903915014
 21
14.3528968472
 31
0.0
  0
ARC
  5
E6
330
1F
100
AcDbEntity
  8
0
  6
Continuous
 62
     7
370
    30
100
AcDbCircle
 10
28.0789387151
 20
14.174385167
 30
0.0
 40
0.2500000000000009
100
AcDbArc
 50
45.5650780378
 51
134.4349219622
  0
LINE
  5
E7
330
1F
100
AcDbEntity
  8
0
  6
Continuous
 62
     7
370
    30
100
AcDbLine
 10
28.2539632369
 20
14.3528968472
 30
0.0
 11
28.9282724606
 21
13.6917581381
 31
0.0
  0
ARC
  5
E8
330
1F
100
AcDbEntity
  8
0
  6
Continuous
 62
     7
370
    30
100
AcDbCircle
 10
29.1032979887
 20
13.8702695374
 30
0.0
 40
0.250000000000001
100
AcDbArc
 50
225.5650780378
 51
270.0
  0
LINE
  5
E9
330
1F
100
AcDbEntity
  8
0
  6
Continuous
 62
     7
370
    30
100
AcDbLine
 10
29.1032989186
 20
13.620269524
 30
0.0
 11
29.4055953732
 21
13.620269524
 31
0.0
  0
ARC
  5
EA
330
1F
100
AcDbEntity
  8
0
  6
Continuous
 62
     7
370
    30
100
AcDbCircle
 10
29.4055957976
 20
13.8702695374
 30
0.0
 40
0.25
100
AcDbArc
 50
270.0
 51
354.3523336105
  0
LINE
  5
EB
330
1F
100
AcDbEntity
  8
0
  6
Continuous
 62
     7
370
    30
100
AcDbLine
 10
29.6543814058
 20
13.8456666001
 30
0.0
 11
29.9513486419
 21
16.8486454028
 31
0.0
  0
ARC
  5
EC
330
1F
100
AcDbEntity
  8
0
  6
Continuous
 62
     7
370
    30
100
AcDbCircle
 10
29.4537765023
 20
16.8978512265
 30
0.0
 40
0.5000000000000036
100
AcDbArc
 50
354.3523336105
 51
90.0
  0
LINE
  5
ED
330
1F
100
AcDbEntity
  8
0
  6
Continuous
 62
     7
370
    30
100
AcDbLine
 10
21.5737761937
 20
17.3978517517
 30
0.0
 11
18.8241012915
 21
17.3978517517
 31
0.0
  0
ARC
  5
EE
330
1F
100
AcDbEntity
  8
0
  6
Continuous
 62
     7
370
    30
100
AcDbCircle
 10
18.824100928
 20
16.8978512265
 30
0.0
 40
0.5
100
AcDbArc
 50
90.0
 51
185.6476663895
  0
LINE
  5
EF
330
1F
100
AcDbEntity
  8
0
  6
Continuous
 62
     7
370
    30
100
AcDbLine
 10
18.3265280528
 20
16.8486454028
 30
0.0
 11
18.6234952889
 21
13.8456666001
 31
0.0
  0
ARC
  5
F0
330
1F
100
AcDbEntity
  8
0
  6
Continuous
 62
     7
370
    30
100
AcDbCircle
 10
18.8722816327
 20
13.8702695374
 30
0.0
 40
0.25
100
AcDbArc
 50
185.6476663895
 51
270.0
  0
LINE
  5
F1
330
1F
100
AcDbEntity
  8
0
  6
Continuous
 62
     7
370
    30
100
AcDbLine
 10
18.8722813216
 20
13.620269524
 30
0.0
 11
19.1745789494
 21
13.620269524
 31
0.0
  0
ARC
  5
F2
330
1F
100
AcDbEntity
  8
0
  6
Continuous
 62
     7
370
    30
100
AcDbCircle
 10
19.1745794416
 20
13.8702695374
 30
0.0
 40
0.2500000000000018
100
AcDbArc
 50
270.0
 51
314.4349219622
  0
LINE
  5
F3
330
1F
100
AcDbEntity
  8
0
  6
Continuous
 62
     7
370
    30
100
AcDbLine
 10
19.3496042342
 20
13.6917581381
 30
0.0
 11
20.0239134578
 21
14.3528968472
 31
0.0
  0
ARC
  5
F4
330
1F
100
AcDbEntity
  8
0
  6
Continuous
 62
     7
370
    30
100
AcDbCircle
 10
20.1989387151
 20
14.174385167
 30
0.0
 40
0.2500000000000009
100
AcDbArc
 50
45.5650780378
 51
134.4349219622
  0
LINE
  5
F5
330
1F
100
AcDbEntity
  8
0
  6
Continuous
 62
     7
370
    30
100
AcDbLine
 10
20.373962854
 20
14.3528968472
 30
0.0
 11
21.048273251
 21
13.6917581381
 31
0.0
  0
ARC
  5
F6
330
1F
100
AcDbEntity
  8
0
  6
Continuous
 62
     7
370
    30
100
AcDbCircle
 10
21.2232979887
 20
13.8702695374
 30
0.0
 40
0.25
100
AcDbArc
 50
225.5650780378
 51
270.0
  0
LINE
  5
F7
330
1F
100
AcDbEntity
  8
0
  6
Continuous
 62
     7
370
    30
100
AcDbLine
 10
21.2232985357
 20
13.620269524
 30
0.0
 11
21.5255961636
 21
13.620269524
 31
0.0
  0
ARC
  5
F8
330
1F
100
AcDbEntity
  8
0
  6
Continuous
 62
     7
370
    30
100
AcDbCircle
 10
21.5255957976
 20
13.8702695374
 30
0.0
 40
0.25
100
AcDbArc
 50
270.0
 51
354.3523336105
  0
LINE
  5
F9
330
1F
100
AcDbEntity
  8
0
  6
Continuous
 62
     7
370
    30
100
AcDbLine
 10
21.7743821962
 20
13.8456666001
 30
0.0
 11
22.0713494323
 21
16.8486454028
 31
0.0
  0
ARC
  5
FA
330
1F
100
AcDbEntity
  8
0
  6
Continuous
 62
     7
370
    30
100
AcDbCircle
 10
21.5737765023
 20
16.8978512265
 30
0.0
 40
0.5000000000000036
100
AcDbArc
 50
354.3523336105
 51
90.0
  0
LINE
  5
FB
330
1F
100
AcDbEntity
  8
0
  6
Continuous
 62
     7
370
    30
100
AcDbLine
 10
13.6937763974
 20
17.3978517517
 30
0.0
 11
10.9441009086
 21
17.3978517517
 31
0.0
  0
ARC
  5
FC
330
1F
100
AcDbEntity
  8
0
  6
Continuous
 62
     7
370
    30
100
AcDbCircle
 10
10.944100928
 20
16.8978512265
 30
0.0
 40
0.5000000000000036
100
AcDbArc
 50
90.0
 51
185.6476663895
  0
LINE
  5
FD
330
1F
100
AcDbEntity
  8
0
  6
Continuous
 62
     7
370
    30
100
AcDbLine
 10
10.4465279633
 20
16.8486454028
 30
0.0
 11
10.7434951993
 21
13.8456666001
 31
0.0
  0
ARC
  5
FE
330
1F
100
AcDbEntity
  8
0
  6
Continuous
 62
     7
370
    30
100
AcDbCircle
 10
10.9922816327
 20
13.8702695374
 30
0.0
 40
0.25
100
AcDbArc
 50
185.6476663895
 51
270.0
  0
LINE
  5
FF
330
1F
100
AcDbEntity
  8
0
  6
Continuous
 62
     7
370
    30
100
AcDbLine
 10
10.9922815253
 20
13.620269524
 30
0.0
 11
11.2945791532
 21
13.620269524
 31
0.0
  0
ARC
  5
100
330
1F
100
AcDbEntity
  8
0
  6
Continuous
 62
     7
370
    30
100
AcDbCircle
 10
11.2945794416
 20
13.8702695374
 30
0.0
 40
0.2500000000000018
100
AcDbArc
 50
270.0
 51
314.4349219622
  0
LINE
  5
101
330
1F
100
AcDbEntity
  8
0
  6
Continuous
 62
     7
370
    30
100
AcDbLine
 10
11.4696038513
 20
13.6917581381
 30
0.0
 11
12.1439142482
 21
14.3528968472
 31
0.0
  0
ARC
  5
102
330
1F
100
AcDbEntity
  8
0
  6
Continuous
 62
     7
370
    30
100
AcDbCircle
 10
12.3189387151
 20
14.174385167
 30
0.0
 40
0.2499999999999997
100
AcDbArc
 50
45.5650780378
 51
134.4349219622
  0
LINE
  5
103
330
1F
100
AcDbEntity
  8
0
  6
Continuous
 62
     7
370
    30
100
AcDbLine
 10
12.4939636444
 20
14.3528968472
 30
0.0
 11
13.1682734547
 21
13.6917581381
 31
0.0
  0
ARC
  5
104
330
1F
100
AcDbEntity
  8
0
  6
Continuous
 62
     7
370
    30
100
AcDbCircle
 10
13.3432979887
 20
13.8702695374
 30
0.0
 40
0.25
100
AcDbArc
 50
225.5650780378
 51
270.0
  0
LINE
  5
105
330
1F
100
AcDbEntity
  8
0
  6
Continuous
 62
     7
370
    30
100
AcDbLine
 10
13.3432981528
 20
13.620269524
 30
0.0
 11
13.6455957807
 21
13.620269524
 31
0.0
  0
ARC
  5
106
330
1F
100
AcDbEntity
  8
0
  6
Continuous
 62
     7
370
    30
100
AcDbCircle
 10
13.6455957976
 20
13.8702695374
 30
0.0
 40
0.25
100
AcDbArc
 50
270.0
 51
354.3523336105
  0
LINE
  5
107
330
1F
100
AcDbEntity
  8
0
  6
Continuous
 62
     7
370
    30
100
AcDbLine
 10
13.8943824
 20
13.8456666001
 30
0.0
 11
14.1913496361
 21
16.8486454028
 31
0.0
  0
ARC
  5
108
330
1F
100
AcDbEntity
  8
0
  6
Continuous
 62
     7
370
    30
100
AcDbCircle
 10
13.6937765023
 20
16.8978512265
 30
0.0
 40
0.5000000000000036
100
AcDbArc
 50
354.3523336105
 51
90.0
  0
LINE
  5
109
330
1F
100
AcDbEntity
  8
0
  6
Continuous
 62
     7
370
    30
100
AcDbLine
 10
33.3937773547
 20
13.0148511845
 30
0.0
 11
30.6441001058
 21
13.0148511845
 31
0.0
  0
ARC
  5
10A
330
1F
100
AcDbEntity
  8
0
  6
Continuous
 62
     7
370
    30
100
AcDbCircle
 10
30.644100928
 20
12.5148512265
 30
0.0
 40
0.5
100
AcDbArc
 50
90.0
 51
185.6476663895
  0
LINE
  5
10B
330
1F
100
AcDbEntity
  8
0
  6
Continuous
 62
     7
370
    30
100
AcDbLine
 10
30.1465280405
 20
12.4656460089
 30
0.0
 11
30.4434952766
 21
9.4626669129
 31
0.0
  0
ARC
  5
10C
330
1F
100
AcDbEntity
  8
0
  6
Continuous
 62
     7
370
    30
100
AcDbCircle
 10
30.6922816327
 20
9.4872695374
 30
0.0
 40
0.25
100
AcDbArc
 50
185.6476663895
 51
270.0
  0
LINE
  5
10D
330
1F
100
AcDbEntity
  8
0
  6
Continuous
 62
     7
370
    30
100
AcDbLine
 10
30.6922813092
 20
9.2372695434
 30
0.0
 11
30.9945801104
 21
9.2372695434
 31
0.0
  0
ARC
  5
10E
330
1F
100
AcDbEntity
  8
0
  6
Continuous
 62
     7
370
    30
100
AcDbCircle
 10
30.9945794416
 20
9.4872695374
 30
0.0
 40
0.25
100
AcDbArc
 50
270.0
 51
314.4349219622
  0
LINE
  5
10F
330
1F
100
AcDbEntity
  8
0
  6
Continuous
 62
     7
370
    30
100
AcDbLine
 10
31.1696042218
 20
9.3087581576
 30
0.0
 11
31.8439134455
 21
9.9698968667
 31
0.0
  0
ARC
  5
110
330
1F
100
AcDbEntity
  8
0
  6
Continuous
 62
     7
370
    30
100
AcDbCircle
 10
32.0189387151
 20
9.791385167
 30
0.0
 40
0.250000000000006
100
AcDbArc
 50
45.5650780378
 51
134.4349219622
  0
LINE
  5
111
330
1F
100
AcDbEntity
  8
0
  6
Continuous
 62
     7
370
    30
100
AcDbLine
 10
32.193964015
 20
9.9698968667
 30
0.0
 11
32.8682732387
 21
9.3087581576
 31
0.0
  0
ARC
  5
112
330
1F
100
AcDbEntity
  8
0
  6
Continuous
 62
     7
370
    30
100
AcDbCircle
 10
33.0432979887
 20
9.4872695374
 30
0.0
 40
0.25
100
AcDbArc
 50
225.5650780378
 51
270.0
  0
LINE
  5
113
330
1F
100
AcDbEntity
  8
0
  6
Continuous
 62
     7
370
    30
100
AcDbLine
 10
33.0432973501
 20
9.2372695434
 30
0.0
 11
33.3455961513
 21
9.2372695434
 31
0.0
  0
ARC
  5
114
330
1F
100
AcDbEntity
  8
0
  6
Continuous
 62
     7
370
    30
100
AcDbCircle
 10
33.3455957976
 20
9.4872695374
 30
0.0
 40
0.2499999999999982
100
AcDbArc
 50
270.0
 51
354.3523336105
  0
LINE
  5
115
330
1F
100
AcDbEntity
  8
0
  6
Continuous
 62
     7
370
    30
100
AcDbLine
 10
33.5943821839
 20
9.4626669129
 30
0.0
 11
33.89134942
 21
12.4656460089
 31
0.0
  0
ARC
  5
116
330
1F
100
AcDbEntity
  8
0
  6
Continuous
 62
     7
370
    30
100
AcDbCircle
 10
33.3937765023
 20
12.5148512265
 30
0.0
 40
0.5000000000000066
100
AcDbArc
 50
354.3523336105
 51
90.0
  0
LINE
  5
117
330
1F
100
AcDbEntity
  8
0
  6
Continuous
 62
     7
370
    30
100
AcDbLine
 10
25.5137769718
 20
13.0148511845
 30
0.0
 11
22.7641008963
 21
13.0148511845
 31
0.0
  0
ARC
  5
118
330
1F
100
AcDbEntity
  8
0
  6
Continuous
 62
     7
370
    30
100
AcDbCircle
 10
22.764100928
 20
12.5148512265
 30
0.0
 40
0.5
100
AcDbArc
 50
90.0
 51
185.6476663895
  0
LINE
  5
119
330
1F
100
AcDbEntity
  8
0
  6
Continuous
 62
     7
370
    30
100
AcDbLine
 10
22.2665276576
 20
12.4656460089
 30
0.0
 11
22.5634948937
 21
9.4626669129
 31
0.0
  0
ARC
  5
11A
330
1F
100
AcDbEntity
  8
0
  6
Continuous
 62
     7
370
    30
100
AcDbCircle
 10
22.8122816327
 20
9.4872695374
 30
0.0
 40
0.25
100
AcDbArc
 50
185.6476663895
 51
270.0
  0
LINE
  5
11B
330
1F
100
AcDbEntity
  8
0
  6
Continuous
 62
     7
370
    30
100
AcDbLine
 10
22.8122820997
 20
9.2372695434
 30
0.0
 11
23.1145797275
 21
9.2372695434
 31
0.0
  0
ARC
  5
11C
330
1F
100
AcDbEntity
  8
0
  6
Continuous
 62
     7
370
    30
100
AcDbCircle
 10
23.1145794416
 20
9.4872695374
 30
0.0
 40
0.25
100
AcDbArc
 50
270.0
 51
314.4349219622
  0
LINE
  5
11D
330
1F
100
AcDbEntity
  8
0
  6
Continuous
 62
     7
370
    30
100
AcDbLine
 10
23.2896038389
 20
9.3087581576
 30
0.0
 11
23.9639142359
 21
9.9698968667
 31
0.0
  0
ARC
  5
11E
330
1F
100
AcDbEntity
  8
0
  6
Continuous
 62
     7
370
    30
100
AcDbCircle
 10
24.1389387151
 20
9.791385167
 30
0.0
 40
0.2500000000000035
100
AcDbArc
 50
45.5650780378
 51
134.4349219622
  0
LINE
  5
11F
330
1F
100
AcDbEntity
  8
0
  6
Continuous
 62
     7
370
    30
100
AcDbLine
 10
24.3139636321
 20
9.9698968667
 30
0.0
 11
24.9882728558
 21
9.3087581576
 31
0.0
  0
ARC
  5
120
330
1F
100
AcDbEntity
  8
0
  6
Continuous
 62
     7
370
    30
100
AcDbCircle
 10
25.1632979887
 20
9.4872695374
 30
0.0
 40
0.25
100
AcDbArc
 50
225.5650780378
 51
270.0
  0
LINE
  5
121
330
1F
100
AcDbEntity
  8
0
  6
Continuous
 62
     7
370
    30
100
AcDbLine
 10
25.1632981405
 20
9.2372695434
 30
0.0
 11
25.4655957684
 21
9.2372695434
 31
0.0
  0
ARC
  5
122
330
1F
100
AcDbEntity
  8
0
  6
Continuous
 62
     7
370
    30
100
AcDbCircle
 10
25.4655957976
 20
9.4872695374
 30
0.0
 40
0.2499999999999996
100
AcDbArc
 50
270.0
 51
354.3523336105
  0
LINE
  5
123
330
1F
100
AcDbEntity
  8
0
  6
Continuous
 62
     7
370
    30
100
AcDbLine
 10
25.714381801
 20
9.4626669129
 30
0.0
 11
26.0113502104
 21
12.4656460089
 31
0.0
  0
ARC
  5
124
330
1F
100
AcDbEntity
  8
0
  6
Continuous
 62
     7
370
    30
100
AcDbCircle
 10
25.5137765023
 20
12.5148512265
 30
0.0
 40
0.5
100
AcDbArc
 50
354.3523336105
 51
90.0
  0
LINE
  5
125
330
1F
100
AcDbEntity
  8
0
  6
Continuous
 62
     7
370
    30
100
AcDbLine
 10
17.6337765889
 20
13.0148511845
 30
0.0
 11
14.8841011
 21
13.0148511845
 31
0.0
  0
ARC
  5
126
330
1F
100
AcDbEntity
  8
0
  6
Continuous
 62
     7
370
    30
100
AcDbCircle
 10
14.884100928
 20
12.5148512265
 30
0.0
 40
0.5000000000000012
100
AcDbArc
 50
90.0
 51
185.6476663895
  0
LINE
  5
127
330
1F
100
AcDbEntity
  8
0
  6
Continuous
 62
     7
370
    30
100
AcDbLine
 10
14.3865278614
 20
12.4656460089
 30
0.0
 11
14.6834950974
 21
9.4626669129
 31
0.0
  0
ARC
  5
128
330
1F
100
AcDbEntity
  8
0
  6
Continuous
 62
     7
370
    30
100
AcDbCircle
 10
14.9322816327
 20
9.4872695374
 30
0.0
 40
0.25
100
AcDbArc
 50
185.6476663895
 51
270.0
  0
LINE
  5
129
330
1F
100
AcDbEntity
  8
0
  6
Continuous
 62
     7
370
    30
100
AcDbLine
 10
14.9322817168
 20
9.2372695434
 30
0.0
 11
15.2345793446
 21
9.2372695434
 31
0.0
  0
ARC
  5
12A
330
1F
100
AcDbEntity
  8
0
  6
Continuous
 62
     7
370
    30
100
AcDbCircle
 10
15.2345794416
 20
9.4872695374
 30
0.0
 40
0.25
100
AcDbArc
 50
270.0
 51
314.4349219622
  0
LINE
  5
12B
330
1F
100
AcDbEntity
  8
0
  6
Continuous
 62
     7
370
    30
100
AcDbLine
 10
15.4096040427
 20
9.3087581576
 30
0.0
 11
16.083913853
 21
9.9698968667
 31
0.0
  0
ARC
  5
12C
330
1F
100
AcDbEntity
  8
0
  6
Continuous
 62
     7
370
    30
100
AcDbCircle
 10
16.2589387151
 20
9.791385167
 30
0.0
 40
0.2500000000000035
100
AcDbArc
 50
45.5650780378
 51
134.4349219622
  0
LINE
  5
12D
330
1F
100
AcDbEntity
  8
0
  6
Continuous
 62
     7
370
    30
100
AcDbLine
 10
16.4339632492
 20
9.9698968667
 30
0.0
 11
17.1082736462
 21
9.3087581576
 31
0.0
  0
ARC
  5
12E
330
1F
100
AcDbEntity
  8
0
  6
Continuous
 62
     7
370
    30
100
AcDbCircle
 10
17.2832979887
 20
9.4872695374
 30
0.0
 40
0.25
100
AcDbArc
 50
225.5650780378
 51
270.0
  0
LINE
  5
12F
330
1F
100
AcDbEntity
  8
0
  6
Continuous
 62
     7
370
    30
100
AcDbLine
 10
17.2832977576
 20
9.2372695434
 30
0.0
 11
17.5855953855
 21
9.2372695434
 31
0.0
  0
ARC
  5
130
330
1F
100
AcDbEntity
  8
0
  6
Continuous
 62
     7
370
    30
100
AcDbCircle
 10
17.5855957976
 20
9.4872695374
 30
0.0
 40
0.2499999999999964
100
AcDbArc
 50
270.0
 51
354.3523336105
  0
LINE
  5
131
330
1F
100
AcDbEntity
  8
0
  6
Continuous
 62
     7
370
    30
100
AcDbLine
 10
17.8343825915
 20
9.4626669129
 30
0.0
 11
18.1313498275
 21
12.4656460089
 31
0.0
  0
ARC
  5
132
330
1F
100
AcDbEntity
  8
0
  6
Continuous
 62
     7
370
    30
100
AcDbCircle
 10
17.6337765023
 20
12.5148512265
 30
0.0
 40
0.5
100
AcDbArc
 50
354.3523336105
 51
90.0
  0
LINE
  5
133
330
1F
100
AcDbEntity
  8
0
  6
Continuous
 62
     7
370
    30
100
AcDbLine
 10
9.7537764993
 20
13.0148511845
 30
0.0
 11
7.0041009371
 21
13.0148511845
 31
0.0
  0
ARC
  5
134
330
1F
100
AcDbEntity
  8
0
  6
Continuous
 62
     7
370
    30
100
AcDbCircle
 10
7.004100928
 20
12.5148512265
 30
0.0
 40
0.5
100
AcDbArc
 50
90.0
 51
185.6476663895
  0
LINE
  5
135
330
1F
100
AcDbEntity
  8
0
  6
Continuous
 62
     7
370
    30
100
AcDbLine
 10
6.5065279918
 20
12.4656460089
 30
0.0
 11
6.8034951545
 21
9.4626669129
 31
0.0
  0
ARC
  5
136
330
1F
100
AcDbEntity
  8
0
  6
Continuous
 62
     7
370
    30
100
AcDbCircle
 10
7.0522816327
 20
9.4872695374
 30
0.0
 40
0.2500000000000004
100
AcDbArc
 50
185.6476663895
 51
270.0
  0
LINE
  5
137
330
1F
100
AcDbEntity
  8
0
  6
Continuous
 62
     7
370
    30
100
AcDbLine
 10
7.0522816272
 20
9.2372695434
 30
0.0
 11
7.354579475
 21
9.2372695434
 31
0.0
  0
ARC
  5
138
330
1F
100
AcDbEntity
  8
0
  6
Continuous
 62
     7
370
    30
100
AcDbCircle
 10
7.3545794416
 20
9.4872695374
 30
0.0
 40
0.25
100
AcDbArc
 50
270.0
 51
314.4349219622
  0
LINE
  5
139
330
1F
100
AcDbEntity
  8
0
  6
Continuous
 62
     7
370
    30
100
AcDbLine
 10
7.5296040998
 20
9.3087581576
 30
0.0
 11
8.2039140568
 21
9.9698968667
 31
0.0
  0
ARC
  5
13A
330
1F
100
AcDbEntity
  8
0
  6
Continuous
 62
     7
370
    30
100
AcDbCircle
 10
8.3789387151
 20
9.791385167
 30
0.0
 40
0.2500000000000023
100
AcDbArc
 50
45.5650780378
 51
134.4349219622
  0
LINE
  5
13B
330
1F
100
AcDbEntity
  8
0
  6
Continuous
 62
     7
370
    30
100
AcDbLine
 10
8.553963453
 20
9.9698968667
 30
0.0
 11
9.2282732633
 21
9.3087581576
 31
0.0
  0
ARC
  5
13C
330
1F
100
AcDbEntity
  8
0
  6
Continuous
 62
     7
370
    30
100
AcDbCircle
 10
9.4032979887
 20
9.4872695374
 30
0.0
 40
0.25
100
AcDbArc
 50
225.5650780378
 51
270.0
  0
LINE
  5
13D
330
1F
100
AcDbEntity
  8
0
  6
Continuous
 62
     7
370
    30
100
AcDbLine
 10
9.4032979614
 20
9.2372695434
 30
0.0
 11
9.7055958826
 21
9.2372695434
 31
0.0
  0
ARC
  5
13E
330
1F
100
AcDbEntity
  8
0
  6
Continuous
 62
     7
370
    30
100
AcDbCircle
 10
9.7055957976
 20
9.4872695374
 30
0.0
 40
0.2499999999999964
100
AcDbArc
 50
270.0
 51
354.3523336105
  0
LINE
  5
13F
330
1F
100
AcDbEntity
  8
0
  6
Continuous
 62
     7
370
    30
100
AcDbLine
 10
9.9543822086
 20
9.4626669129
 30
0.0
 11
10.2513494446
 21
12.4656460089
 31
0.0
  0
ARC
  5
140
330
1F
100
AcDbEntity
  8
0
  6
Continuous
 62
     7
370
    30
100
AcDbCircle
 10
9.7537765023
 20
12.5148512265
 30
0.0
 40
0.5
100
AcDbArc
 50
354.3523336105
 51
90.0
  0
LINE
  5
141
330
1F
100
AcDbEntity
  8
0
  6
Continuous
 62
     7
370
    30
100
AcDbLine
 10
29.4537765766
 20
8.6318512039
 30
0.0
 11
26.7041016744
 21
8.6318512039
 31
0.0
  0
ARC
  5
142
330
1F
100
AcDbEntity
  8
0
  6
Continuous
 62
     7
370
    30
100
AcDbCircle
 10
26.704100928
 20
8.1318512265
 30
0.0
 40
0.500000000000003
100
AcDbArc
 50
90.0
 51
185.6476663895
  0
LINE
  5
143
330
1F
100
AcDbEntity
  8
0
  6
Continuous
 62
     7
370
    30
100
AcDbLine
 10
26.2065272624
 20
8.0826457351
 30
0.0
 11
26.5034944985
 21
5.0796668224
 31
0.0
  0
ARC
  5
144
330
1F
100
AcDbEntity
  8
0
  6
Continuous
 62
     7
370
    30
100
AcDbCircle
 10
26.7522816327
 20
5.1042695374
 30
0.0
 40
0.2499999999999994
100
AcDbArc
 50
185.6476663895
 51
270.0
  0
LINE
  5
145
330
1F
100
AcDbEntity
  8
0
  6
Continuous
 62
     7
370
    30
100
AcDbLine
 10
26.7522805311
 20
4.8542695445
 30
0.0
 11
27.0545793323
 21
4.8542695445
 31
0.0
  0
ARC
  5
146
330
1F
100
AcDbEntity
  8
0
  6
Continuous
 62
     7
370
    30
100
AcDbCircle
 10
27.0545794416
 20
5.1042695374
 30
0.0
 40
0.250000000000001
100
AcDbArc
 50
270.0
 51
314.4349219622
  0
LINE
  5
147
330
1F
100
AcDbEntity
  8
0
  6
Continuous
 62
     7
370
    30
100
AcDbLine
 10
27.2296034437
 20
4.9257580304
 30
0.0
 11
27.903915014
 21
5.5868966662
 31
0.0
  0
ARC
  5
148
330
1F
100
AcDbEntity
  8
0
  6
Continuous
 62
     7
370
    30
100
AcDbCircle
 10
28.0789387151
 20
5.408385167
 30
0.0
 40
0.2499999999999997
100
AcDbArc
 50
45.5650780378
 51
134.4349219622
  0
LINE
  5
149
330
1F
100
AcDbEntity
  8
0
  6
Continuous
 62
     7
370
    30
100
AcDbLine
 10
28.2539632369
 20
5.5868966662
 30
0.0
 11
28.9282724606
 21
4.9257580304
 31
0.0
  0
ARC
  5
14A
330
1F
100
AcDbEntity
  8
0
  6
Continuous
 62
     7
370
    30
100
AcDbCircle
 10
29.1032979887
 20
5.1042695374
 30
0.0
 40
0.2499999999999991
100
AcDbArc
 50
225.5650780378
 51
270.0
  0
LINE
  5
14B
330
1F
100
AcDbEntity
  8
0
  6
Continuous
 62
     7
370
    30
100
AcDbLine
 10
29.1032989186
 20
4.8542695445
 30
0.0
 11
29.4055953732
 21
4.8542695445
 31
0.0
  0
ARC
  5
14C
330
1F
100
AcDbEntity
  8
0
  6
Continuous
 62
     7
370
    30
100
AcDbCircle
 10
29.4055957976
 20
5.1042695374
 30
0.0
 40
0.2499999999999994
100
AcDbArc
 50
270.0
 51
354.3523336105
  0
LINE
  5
14D
330
1F
100
AcDbEntity
  8
0
  6
Continuous
 62
     7
370
    30
100
AcDbLine
 10
29.6543814058
 20
5.0796668224
 30
0.0
 11
29.9513486419
 21
8.0826457351
 31
0.0
  0
ARC
  5
14E
330
1F
100
AcDbEntity
  8
0
  6
Continuous
 62
     7
370
    30
100
AcDbCircle
 10
29.4537765023
 20
8.1318512265
 30
0.0
 40
0.5000000000000018
100
AcDbArc
 50
354.3523336105
 51
90.0
  0
LINE
  5
14F
330
1F
100
AcDbEntity
  8
0
  6
Continuous
 62
     7
370
    30
100
AcDbLine
 10
21.5737761937
 20
8.6318512039
 30
0.0
 11
18.8241012915
 21
8.6318512039
 31
0.0
  0
ARC
  5
150
330
1F
100
AcDbEntity
  8
0
  6
Continuous
 62
     7
370
    30
100
AcDbCircle
 10
18.824100928
 20
8.1318512265
 30
0.0
 40
0.5
100
AcDbArc
 50
90.0
 51
185.6476663895
  0
LINE
  5
151
330
1F
100
AcDbEntity
  8
0
  6
Continuous
 62
     7
370
    30
100
AcDbLine
 10
18.3265280528
 20
8.0826457351
 30
0.0
 11
18.6234952889
 21
5.0796668224
 31
0.0
  0
ARC
  5
152
330
1F
100
AcDbEntity
  8
0
  6
Continuous
 62
     7
370
    30
100
AcDbCircle
 10
18.8722816327
 20
5.1042695374
 30
0.0
 40
0.2500000000000029
100
AcDbArc
 50
185.6476663895
 51
270.0
  0
LINE
  5
153
330
1F
100
AcDbEntity
  8
0
  6
Continuous
 62
     7
370
    30
100
AcDbLine
 10
18.8722813216
 20
4.8542695445
 30
0.0
 11
19.1745789494
 21
4.8542695445
 31
0.0
  0
ARC
  5
154
330
1F
100
AcDbEntity
  8
0
  6
Continuous
 62
     7
370
    30
100
AcDbCircle
 10
19.1745794416
 20
5.1042695374
 30
0.0
 40
0.250000000000001
100
AcDbArc
 50
270.0
 51
314.4349219622
  0
LINE
  5
155
330
1F
100
AcDbEntity
  8
0
  6
Continuous
 62
     7
370
    30
100
AcDbLine
 10
19.3496042342
 20
4.9257580304
 30
0.0
 11
20.0239134578
 21
5.5868966662
 31
0.0
  0
ARC
  5
156
330
1F
100
AcDbEntity
  8
0
  6
Continuous
 62
     7
370
    30
100
AcDbCircle
 10
20.1989387151
 20
5.408385167
 30
0.0
 40
0.2500000000000016
100
AcDbArc
 50
45.5650780378
 51
134.4349219622
  0
LINE
  5
157
330
1F
100
AcDbEntity
  8
0
  6
Continuous
 62
     7
370
    30
100
AcDbLine
 10
20.373962854
 20
5.5868966662
 30
0.0
 11
21.048273251
 21
4.9257580304
 31
0.0
  0
ARC
  5
158
330
1F
100
AcDbEntity
  8
0
  6
Continuous
 62
     7
370
    30
100
AcDbCircle
 10
21.2232979887
 20
5.1042695374
 30
0.0
 40
0.2499999999999991
100
AcDbArc
 50
225.5650780378
 51
270.0
  0
LINE
  5
159
330
1F
100
AcDbEntity
  8
0
  6
Continuous
 62
     7
370
    30
100
AcDbLine
 10
21.2232985357
 20
4.8542695445
 30
0.0
 11
21.5255961636
 21
4.8542695445
 31
0.0
  0
ARC
  5
15A
330
1F
100
AcDbEntity
  8
0
  6
Continuous
 62
     7
370
    30
100
AcDbCircle
 10
21.5255957976
 20
5.1042695374
 30
0.0
 40
0.2500000000000025
100
AcDbArc
 50
270.0
 51
354.3523336105
  0
LINE
  5
15B
330
1F
100
AcDbEntity
  8
0
  6
Continuous
 62
     7
370
    30
100
AcDbLine
 10
21.7743821962
 20
5.0796668224
 30
0.0
 11
22.0713494323
 21
8.0826457351
 31
0.0
  0
ARC
  5
15C
330
1F
100
AcDbEntity
  8
0
  6
Continuous
 62
     7
370
    30
100
AcDbCircle
 10
21.5737765023
 20
8.1318512265
 30
0.0
 40
0.500000000000003
100
AcDbArc
 50
354.3523336105
 51
90.0
  0
LINE
  5
15D
330
1F
100
AcDbEntity
  8
0
  6
Continuous
 62
     7
370
    30
100
AcDbLine
 10
13.6937763974
 20
8.6318512039
 30
0.0
 11
10.9441009086
 21
8.6318512039
 31
0.0
  0
ARC
  5
15E
330
1F
100
AcDbEntity
  8
0
  6
Continuous
 62
     7
370
    30
100
AcDbCircle
 10
10.944100928
 20
8.1318512265
 30
0.0
 40
0.5000000000000018
100
AcDbArc
 50
90.0
 51
185.6476663895
  0
LINE
  5
15F
330
1F
100
AcDbEntity
  8
0
  6
Continuous
 62
     7
370
    30
100
AcDbLine
 10
10.4465279633
 20
8.0826457351
 30
0.0
 11
10.7434951993
 21
5.0796668224
 31
0.0
  0
ARC
  5
160
330
1F
100
AcDbEntity
  8
0
  6
Continuous
 62
     7
370
    30
100
AcDbCircle
 10
10.9922816327
 20
5.1042695374
 30
0.0
 40
0.2500000000000012
100
AcDbArc
 50
185.6476663895
 51
270.0
  0
LINE
  5
161
330
1F
100
AcDbEntity
  8
0
  6
Continuous
 62
     7
370
    30
100
AcDbLine
 10
10.9922815253
 20
4.8542695445
 30
0.0
 11
11.2945791532
 21
4.8542695445
 31
0.0
  0
ARC
  5
162
330
1F
100
AcDbEntity
  8
0
  6
Continuous
 62
     7
370
    30
100
AcDbCircle
 10
11.2945794416
 20
5.1042695374
 30
0.0
 40
0.250000000000001
100
AcDbArc
 50
270.0
 51
314.4349219622
  0
LINE
  5
163
330
1F
100
AcDbEntity
  8
0
  6
Continuous
 62
     7
370
    30
100
AcDbLine
 10
11.4696038513
 20
4.9257580304
 30
0.0
 11
12.1439142482
 21
5.5868966662
 31
0.0
  0
ARC
  5
164
330
1F
100
AcDbEntity
  8
0
  6
Continuous
 62
     7
370
    30
100
AcDbCircle
 10
12.3189387151
 20
5.408385167
 30
0.0
 40
0.2500000000000004
100
AcDbArc
 50
45.5650780378
 51
134.4349219622
  0
LINE
  5
165
330
1F
100
AcDbEntity
  8
0
  6
Continuous
 62
     7
370
    30
100
AcDbLine
 10
12.4939636444
 20
5.5868966662
 30
0.0
 11
13.1682734547
 21
4.9257580304
 31
0.0
  0
ARC
  5
166
330
1F
100
AcDbEntity
  8
0
  6
Continuous
 62
     7
370
    30
100
AcDbCircle
 10
13.3432979887
 20
5.1042695374
 30
0.0
 40
0.2499999999999998
100
AcDbArc
 50
225.5650780378
 51
270.0
  0
LINE
  5
167
330
1F
100
AcDbEntity
  8
0
  6
Continuous
 62
     7
370
    30
100
AcDbLine
 10
13.3432981528
 20
4.8542695445
 30
0.0
 11
13.6455957807
 21
4.8542695445
 31
0.0
  0
ARC
  5
168
330
1F
100
AcDbEntity
  8
0
  6
Continuous
 62
     7
370
    30
100
AcDbCircle
 10
13.6455957976
 20
5.1042695374
 30
0.0
 40
0.2499999999999964
100
AcDbArc
 50
270.0
 51
354.3523336105
  0
LINE
  5
169
330
1F
100
AcDbEntity
  8
0
  6
Continuous
 62
     7
370
    30
100
AcDbLine
 10
13.8943824
 20
5.0796668224
 30
0.0
 11
14.1913496361
 21
8.0826457351
 31
0.0
  0
ARC
  5
16A
330
1F
100
AcDbEntity
  8
0
  6
Continuous
 62
     7
370
    30
100
AcDbCircle
 10
13.6937765023
 20
8.1318512265
 30
0.0
 40
0.5000000000000018
100
AcDbArc
 50
354.3523336105
 51
90.0
  0
ARC
  5
16B
330
1F
100
AcDbEntity
  8
0
  6
Continuous
 62
     7
370
    30
100
AcDbCircle
 10
33.925758286
 20
4.8017695374
 30
0.0
 40
0.2500000000000009
100
AcDbArc
 50
270.0
 51
0.0
  0
LINE
  5
16C
330
1F
100
AcDbEntity
  8
0
  6
Continuous
 62
     7
370
    30
100
AcDbLine
 10
6.4730023774
 20
4.5517695374
 30
0.0
 11
33.9257581958
 21
4.5517695374
 31
0.0
  0
ARC
  5
16D
330
1F
100
AcDbEntity
  8
0
  6
Continuous
 62
     7
370
    30
100
AcDbCircle
 10
6.4730023804
 20
4.8017695374
 30
0.0
 40
0.2500000000000009
100
AcDbArc
 50
180.0
 51
270.0
  0
LINE
  5
16E
330
1F
100
AcDbEntity
  8
0
  6
Continuous
 62
     7
370
    30
100
AcDbLine
 10
6.2230023804
 20
30.6009822146
 30
0.0
 11
6.2230023804
 21
4.8017695343
 31
0.0
  0
ARC
  5
16F
330
1F
100
AcDbEntity
  8
0
  6
Continuous
 62
     7
370
    30
100
AcDbCircle
 10
6.4730023804
 20
30.6009821358
 30
0.0
 40
0.2500000000000009
100
AcDbArc
 50
90.0
 51
180.0
  0
LINE
  5
170
330
1F
100
AcDbEntity
  8
0
  6
Continuous
 62
     7
370
    30
100
AcDbLine
 10
33.9257581958
 20
30.85098146
 30
0.0
 11
6.4730023774
 21
30.85098146
 31
0.0
  0
ARC
  5
171
330
1F
100
AcDbEntity
  8
0
  6
Continuous
 62
     7
370
    30
100
AcDbCircle
 10
33.925758286
 20
30.6009821358
 30
0.0
 40
0.25
100
AcDbArc
 50
360.0
 51
90.0
  0
LINE
  5
172
330
1F
100
AcDbEntity
  8
0
  6
Continuous
 62
     7
370
    30
100
AcDbLine
 10
34.1757574412
 20
4.8017695343
 30
0.0
 11
34.1757574412
 21
30.6009822146
 31
0.0
  0
LINE
  5
173
330
1F
100
AcDbEntity
  8
0
  6
Continuous
 62
     7
370
    30
100
AcDbLine
 10
9.7537764993
 20
8.6318512039
 30
0.0
 11
7.0041009371
 21
8.6318512039
 31
0.0
  0
ARC
  5
174
330
1F
100
AcDbEntity
  8
0
  6
Continuous
 62
     7
370
    30
100
AcDbCircle
 10
7.004100928
 20
8.1318512265
 30
0.0
 40
0.5000000000000018
100
AcDbArc
 50
90.0
 51
185.6476663895
  0
LINE
  5
175
330
1F
100
AcDbEntity
  8
0
  6
Continuous
 62
     7
370
    30
100
AcDbLine
 10
6.5065279918
 20
8.0826457351
 30
0.0
 11
6.8034951545
 21
5.0796668224
 31
0.0
  0
ARC
  5
176
330
1F
100
AcDbEntity
  8
0
  6
Continuous
 62
     7
370
    30
100
AcDbCircle
 10
7.0522816327
 20
5.1042695374
 30
0.0
 40
0.2500000000000003
100
AcDbArc
 50
185.6476663895
 51
270.0
  0
LINE
  5
177
330
1F
100
AcDbEntity
  8
0
  6
Continuous
 62
     7
370
    30
100
AcDbLine
 10
7.0522816272
 20
4.8542695445
 30
0.0
 11
7.354579475
 21
4.8542695445
 31
0.0
  0
ARC
  5
178
330
1F
100
AcDbEntity
  8
0
  6
Continuous
 62
     7
370
    30
100
AcDbCircle
 10
7.3545794416
 20
5.1042695374
 30
0.0
 40
0.2500000000000009
100
AcDbArc
 50
270.0
 51
314.4349219622
  0
LINE
  5
179
330
1F
100
AcDbEntity
  8
0
  6
Continuous
 62
     7
370
    30
100
AcDbLine
 10
7.5296040998
 20
4.9257580304
 30
0.0
 11
8.2039140568
 21
5.5868966662
 31
0.0
  0
ARC
  5
17A
330
1F
100
AcDbEntity
  8
0
  6
Continuous
 62
     7
370
    30
100
AcDbCircle
 10
8.3789387151
 20
5.408385167
 30
0.0
 40
0.2500000000000004
100
AcDbArc
 50
45.5650780378
 51
134.4349219622
  0
LINE
  5
17B
330
1F
100
AcDbEntity
  8
0
  6
Continuous
 62
     7
370
    30
100
AcDbLine
 10
8.553963453
 20
5.5868966662
 30
0.0
 11
9.2282732633
 21
4.9257580304
 31
0.0
  0
ARC
  5
17C
330
1F
100
AcDbEntity
  8
0
  6
Continuous
 62
     7
370
    30
100
AcDbCircle
 10
9.4032979887
 20
5.1042695374
 30
0.0
 40
0.2499999999999991
100
AcDbArc
 50
225.5650780378
 51
270.0
  0
LINE
  5
17D
330
1F
100
AcDbEntity
  8
0
  6
Continuous
 62
     7
370
    30
100
AcDbLine
 10
9.4032979614
 20
4.8542695445
 30
0.0
 11
9.7055958826
 21
4.8542695445
 31
0.0
  0
ARC
  5
17E
330
1F
100
AcDbEntity
  8
0
  6
Continuous
 62
     7
370
    30
100
AcDbCircle
 10
9.7055957976
 20
5.1042695374
 30
0.0
 40
0.2499999999999964
100
AcDbArc
 50
270.0
 51
354.3523336105
  0
LINE
  5
17F
330
1F
100
AcDbEntity
  8
0
  6
Continuous
 62
     7
370
    30
100
AcDbLine
 10
9.9543822086
 20
5.0796668224
 30
0.0
 11
10.2513494446
 21
8.0826457351
 31
0.0
  0
ARC
  5
180
330
1F
100
AcDbEntity
  8
0
  6
Continuous
 62
     7
370
    30
100
AcDbCircle
 10
9.7537765023
 20
8.1318512265
 30
0.0
 40
0.5000000000000018
100
AcDbArc
 50
354.3523336105
 51
90.0
  0
LINE
  5
181
330
1F
100
AcDbEntity
  8
0
  6
Continuous
 62
     7
370
    30
100
AcDbLine
 10
17.6337765889
 20
8.6318512039
 30
0.0
 11
14.8841011
 21
8.6318512039
 31
0.0
  0
ARC
  5
182
330
1F
100
AcDbEntity
  8
0
  6
Continuous
 62
     7
370
    30
100
AcDbCircle
 10
14.884100928
 20
8.1318512265
 30
0.0
 40
0.5000000000000018
100
AcDbArc
 50
90.0
 51
185.6476663895
  0
LINE
  5
183
330
1F
100
AcDbEntity
  8
0
  6
Continuous
 62
     7
370
    30
100
AcDbLine
 10
14.3865278614
 20
8.0826457351
 30
0.0
 11
14.6834950974
 21
5.0796668224
 31
0.0
  0
ARC
  5
184
330
1F
100
AcDbEntity
  8
0
  6
Continuous
 62
     7
370
    30
100
AcDbCircle
 10
14.9322816327
 20
5.1042695374
 30
0.0
 40
0.2499999999999994
100
AcDbArc
 50
185.6476663895
 51
270.0
  0
LINE
  5
185
330
1F
100
AcDbEntity
  8
0
  6
Continuous
 62
     7
370
    30
100
AcDbLine
 10
14.9322817168
 20
4.8542695445
 30
0.0
 11
15.2345793446
 21
4.8542695445
 31
0.0
  0
ARC
  5
186
330
1F
100
AcDbEntity
  8
0
  6
Continuous
 62
     7
370
    30
100
AcDbCircle
 10
15.2345794416
 20
5.1042695374
 30
0.0
 40
0.2500000000000023
100
AcDbArc
 50
270.0
 51
314.4349219622
  0
LINE
  5
187
330
1F
100
AcDbEntity
  8
0
  6
Continuous
 62
     7
370
    30
100
AcDbLine
 10
15.4096040427
 20
4.9257580304
 30
0.0
 11
16.083913853
 21
5.5868966662
 31
0.0
  0
ARC
  5
188
330
1F
100
AcDbEntity
  8
0
  6
Continuous
 62
     7
370
    30
100
AcDbCircle
 10
16.2589387151
 20
5.408385167
 30
0.0
 40
0.2499999999999991
100
AcDbArc
 50
45.5650780378
 51
134.4349219622
  0
LINE
  5
189
330
1F
100
AcDbEntity
  8
0
  6
Continuous
 62
     7
370
    30
100
AcDbLine
 10
16.4339632492
 20
5.5868966662
 30
0.0
 11
17.1082736462
 21
4.9257580304
 31
0.0
  0
ARC
  5
18A
330
1F
100
AcDbEntity
  8
0
  6
Continuous
 62
     7
370
    30
100
AcDbCircle
 10
17.2832979887
 20
5.1042695374
 30
0.0
 40
0.2499999999999991
100
AcDbArc
 50
225.5650780378
 51
270.0
  0
LINE
  5
18B
330
1F
100
AcDbEntity
  8
0
  6
Continuous
 62
     7
370
    30
100
AcDbLine
 10
17.2832977576
 20
4.8542695445
 30
0.0
 11
17.5855953855
 21
4.8542695445
 31
0.0
  0
ARC
  5
18C
330
1F
100
AcDbEntity
  8
0
  6
Continuous
 62
     7
370
    30
100
AcDbCircle
 10
17.5855957976
 20
5.1042695374
 30
0.0
 40
0.2499999999999964
100
AcDbArc
 50
270.0
 51
354.3523336105
  0
LINE
  5
18D
330
1F
100
AcDbEntity
  8
0
  6
Continuous
 62
     7
370
    30
100
AcDbLine
 10
17.8343825915
 20
5.0796668224
 30
0.0
 11
18.1313498275
 21
8.0826457351
 31
0.0
  0
ARC
  5
18E
330
1F
100
AcDbEntity
  8
0
  6
Continuous
 62
     7
370
    30
100
AcDbCircle
 10
17.6337765023
 20
8.1318512265
 30
0.0
 40
0.500000000000003
100
AcDbArc
 50
354.3523336105
 51
90.0
  0
LINE
  5
18F
330
1F
100
AcDbEntity
  8
0
  6
Continuous
 62
     7
370
    30
100
AcDbLine
 10
25.5137769718
 20
8.6318512039
 30
0.0
 11
22.7641008963
 21
8.6318512039
 31
0.0
  0
ARC
  5
190
330
1F
100
AcDbEntity
  8
0
  6
Continuous
 62
     7
370
    30
100
AcDbCircle
 10
22.764100928
 20
8.1318512265
 30
0.0
 40
0.5
100
AcDbArc
 50
90.0
 51
185.6476663895
  0
LINE
  5
191
330
1F
100
AcDbEntity
  8
0
  6
Continuous
 62
     7
370
    30
100
AcDbLine
 10
22.2665276576
 20
8.0826457351
 30
0.0
 11
22.5634948937
 21
5.0796668224
 31
0.0
  0
ARC
  5
192
330
1F
100
AcDbEntity
  8
0
  6
Continuous
 62
     7
370
    30
100
AcDbCircle
 10
22.8122816327
 20
5.1042695374
 30
0.0
 40
0.2499999999999994
100
AcDbArc
 50
185.6476663895
 51
270.0
  0
LINE
  5
193
330
1F
100
AcDbEntity
  8
0
  6
Continuous
 62
     7
370
    30
100
AcDbLine
 10
22.8122820997
 20
4.8542695445
 30
0.0
 11
23.1145797275
 21
4.8542695445
 31
0.0
  0
ARC
  5
194
330
1F
100
AcDbEntity
  8
0
  6
Continuous
 62
     7
370
    30
100
AcDbCircle
 10
23.1145794416
 20
5.1042695374
 30
0.0
 40
0.250000000000001
100
AcDbArc
 50
270.0
 51
314.4349219622
  0
LINE
  5
195
330
1F
100
AcDbEntity
  8
0
  6
Continuous
 62
     7
370
    30
100
AcDbLine
 10
23.2896038389
 20
4.9257580304
 30
0.0
 11
23.9639142359
 21
5.5868966662
 31
0.0
  0
ARC
  5
196
330
1F
100
AcDbEntity
  8
0
  6
Continuous
 62
     7
370
    30
100
AcDbCircle
 10
24.1389387151
 20
5.408385167
 30
0.0
 40
0.2500000000000016
100
AcDbArc
 50
45.5650780378
 51
134.4349219622
  0
LINE
  5
197
330
1F
100
AcDbEntity
  8
0
  6
Continuous
 62
     7
370
    30
100
AcDbLine
 10
24.3139636321
 20
5.5868966662
 30
0.0
 11
24.9882728558
 21
4.9257580304
 31
0.0
  0
ARC
  5
198
330
1F
100
AcDbEntity
  8
0
  6
Continuous
 62
     7
370
    30
100
AcDbCircle
 10
25.1632979887
 20
5.1042695374
 30
0.0
 40
0.2499999999999991
100
AcDbArc
 50
225.5650780378
 51
270.0
  0
LINE
  5
199
330
1F
100
AcDbEntity
  8
0
  6
Continuous
 62
     7
370
    30
100
AcDbLine
 10
25.1632981405
 20
4.8542695445
 30
0.0
 11
25.4655957684
 21
4.8542695445
 31
0.0
  0
ARC
  5
19A
330
1F
100
AcDbEntity
  8
0
  6
Continuous
 62
     7
370
    30
100
AcDbCircle
 10
25.4655957976
 20
5.1042695374
 30
0.0
 40
0.2499999999999964
100
AcDbArc
 50
270.0
 51
354.3523336105
  0
LINE
  5
19B
330
1F
100
AcDbEntity
  8
0
  6
Continuous
 62
     7
370
    30
100
AcDbLine
 10
25.714381801
 20
5.0796668224
 30
0.0
 11
26.0113502104
 21
8.0826457351
 31
0.0
  0
ARC
  5
19C
330
1F
100
AcDbEntity
  8
0
  6
Continuous
 62
     7
370
    30
100
AcDbCircle
 10
25.5137765023
 20
8.1318512265
 30
0.0
 40
0.5000000000000018
100
AcDbArc
 50
354.3523336105
 51
90.0
  0
LINE
  5
19D
330
1F
100
AcDbEntity
  8
0
  6
Continuous
 62
     7
370
    30
100
AcDbLine
 10
33.3937773547
 20
8.6318512039
 30
0.0
 11
30.6441001058
 21
8.6318512039
 31
0.0
  0
ARC
  5
19E
330
1F
100
AcDbEntity
  8
0
  6
Continuous
 62
     7
370
    30
100
AcDbCircle
 10
30.644100928
 20
8.1318512265
 30
0.0
 40
0.5000000000000018
100
AcDbArc
 50
90.0
 51
185.6476663895
  0
LINE
  5
19F
330
1F
100
AcDbEntity
  8
0
  6
Continuous
 62
     7
370
    30
100
AcDbLine
 10
30.1465280405
 20
8.0826457351
 30
0.0
 11
30.4434952766
 21
5.0796668224
 31
0.0
  0
ARC
  5
1A0
330
1F
100
AcDbEntity
  8
0
  6
Continuous
 62
     7
370
    30
100
AcDbCircle
 10
30.6922816327
 20
5.1042695374
 30
0.0
 40
0.2499999999999994
100
AcDbArc
 50
185.6476663895
 51
270.0
  0
LINE
  5
1A1
330
1F
100
AcDbEntity
  8
0
  6
Continuous
 62
     7
370
    30
100
AcDbLine
 10
30.6922813092
 20
4.8542695445
 30
0.0
 11
30.9945801104
 21
4.8542695445
 31
0.0
  0
ARC
  5
1A2
330
1F
100
AcDbEntity
  8
0
  6
Continuous
 62
     7
370
    30
100
AcDbCircle
 10
30.9945794416
 20
5.1042695374
 30
0.0
 40
0.2499999999999991
100
AcDbArc
 50
270.0
 51
314.4349219622
  0
LINE
  5
1A3
330
1F
100
AcDbEntity
  8
0
  6
Continuous
 62
     7
370
    30
100
AcDbLine
 10
31.1696042218
 20
4.9257580304
 30
0.0
 11
31.8439134455
 21
5.5868966662
 31
0.0
  0
ARC
  5
1A4
330
1F
100
AcDbEntity
  8
0
  6
Continuous
 62
     7
370
    30
100
AcDbCircle
 10
32.0189387151
 20
5.408385167
 30
0.0
 40
0.2500000000000016
100
AcDbArc
 50
45.5650780378
 51
134.4349219622
  0
LINE
  5
1A5
330
1F
100
AcDbEntity
  8
0
  6
Continuous
 62
     7
370
    30
100
AcDbLine
 10
32.193964015
 20
5.5868966662
 30
0.0
 11
32.8682732387
 21
4.9257580304
 31
0.0
  0
ARC
  5
1A6
330
1F
100
AcDbEntity
  8
0
  6
Continuous
 62
     7
370
    30
100
AcDbCircle
 10
33.0432979887
 20
5.1042695374
 30
0.0
 40
0.250000000000001
100
AcDbArc
 50
225.5650780378
 51
270.0
  0
LINE
  5
1A7
330
1F
100
AcDbEntity
  8
0
  6
Continuous
 62
     7
370
    30
100
AcDbLine
 10
33.0432973501
 20
4.8542695445
 30
0.0
 11
33.3455961513
 21
4.8542695445
 31
0.0
  0
ARC
  5
1A8
330
1F
100
AcDbEntity
  8
0
  6
Continuous
 62
     7
370
    30
100
AcDbCircle
 10
33.3455957976
 20
5.1042695374
 30
0.0
 40
0.2499999999999994
100
AcDbArc
 50
270.0
 51
354.3523336105
  0
LINE
  5
1A9
330
1F
100
AcDbEntity
  8
0
  6
Continuous
 62
     7
370
    30
100
AcDbLine
 10
33.5943821839
 20
5.0796668224
 30
0.0
 11
33.89134942
 21
8.0826457351
 31
0.0
  0
ARC
  5
1AA
330
1F
100
AcDbEntity
  8
0
  6
Continuous
 62
     7
370
    30
100
AcDbCircle
 10
33.3937765023
 20
8.1318512265
 30
0.0
 40
0.5000000000000018
100
AcDbArc
 50
354.3523336105
 51
90.0
  0
LINE
  5
1AB
330
1F
100
AcDbEntity
  8
0
  6
Continuous
 62
     7
370
    30
100
AcDbLine
 10
13.6937763974
 20
13.0148511845
 30
0.0
 11
10.9441009086
 21
13.0148511845
 31
0.0
  0
ARC
  5
1AC
330
1F
100
AcDbEntity
  8
0
  6
Continuous
 62
     7
370
    30
100
AcDbCircle
 10
10.944100928
 20
12.5148512265
 30
0.0
 40
0.5
100
AcDbArc
 50
90.0
 51
185.6476663895
  0
LINE
  5
1AD
330
1F
100
AcDbEntity
  8
0
  6
Continuous
 62
     7
370
    30
100
AcDbLine
 10
10.4465279633
 20
12.4656460089
 30
0.0
 11
10.7434951993
 21
9.4626669129
 31
0.0
  0
ARC
  5
1AE
330
1F
100
AcDbEntity
  8
0
  6
Continuous
 62
     7
370
    30
100
AcDbCircle
 10
10.9922816327
 20
9.4872695374
 30
0.0
 40
0.25
100
AcDbArc
 50
185.6476663895
 51
270.0
  0
LINE
  5
1AF
330
1F
100
AcDbEntity
  8
0
  6
Continuous
 62
     7
370
    30
100
AcDbLine
 10
10.9922815253
 20
9.2372695434
 30
0.0
 11
11.2945791532
 21
9.2372695434
 31
0.0
  0
ARC
  5
1B0
330
1F
100
AcDbEntity
  8
0
  6
Continuous
 62
     7
370
    30
100
AcDbCircle
 10
11.2945794416
 20
9.4872695374
 30
0.0
 40
0.25
100
AcDbArc
 50
270.0
 51
314.4349219622
  0
LINE
  5
1B1
330
1F
100
AcDbEntity
  8
0
  6
Continuous
 62
     7
370
    30
100
AcDbLine
 10
11.4696038513
 20
9.3087581576
 30
0.0
 11
12.1439142482
 21
9.9698968667
 31
0.0
  0
ARC
  5
1B2
330
1F
100
AcDbEntity
  8
0
  6
Continuous
 62
     7
370
    30
100
AcDbCircle
 10
12.3189387151
 20
9.791385167
 30
0.0
 40
0.2500000000000023
100
AcDbArc
 50
45.5650780378
 51
134.4349219622
  0
LINE
  5
1B3
330
1F
100
AcDbEntity
  8
0
  6
Continuous
 62
     7
370
    30
100
AcDbLine
 10
12.4939636444
 20
9.9698968667
 30
0.0
 11
13.1682734547
 21
9.3087581576
 31
0.0
  0
ARC
  5
1B4
330
1F
100
AcDbEntity
  8
0
  6
Continuous
 62
     7
370
    30
100
AcDbCircle
 10
13.3432979887
 20
9.4872695374
 30
0.0
 40
0.25
100
AcDbArc
 50
225.5650780378
 51
270.0
  0
LINE
  5
1B5
330
1F
100
AcDbEntity
  8
0
  6
Continuous
 62
     7
370
    30
100
AcDbLine
 10
13.3432981528
 20
9.2372695434
 30
0.0
 11
13.6455957807
 21
9.2372695434
 31
0.0
  0
ARC
  5
1B6
330
1F
100
AcDbEntity
  8
0
  6
Continuous
 62
     7
370
    30
100
AcDbCircle
 10
13.6455957976
 20
9.4872695374
 30
0.0
 40
0.2499999999999982
100
AcDbArc
 50
270.0
 51
354.3523336105
  0
LINE
  5
1B7
330
1F
100
AcDbEntity
  8
0
  6
Continuous
 62
     7
370
    30
100
AcDbLine
 10
13.8943824
 20
9.4626669129
 30
0.0
 11
14.1913496361
 21
12.4656460089
 31
0.0
  0
ARC
  5
1B8
330
1F
100
AcDbEntity
  8
0
  6
Continuous
 62
     7
370
    30
100
AcDbCircle
 10
13.6937765023
 20
12.5148512265
 30
0.0
 40
0.5
100
AcDbArc
 50
354.3523336105
 51
90.0
  0
LINE
  5
1B9
330
1F
100
AcDbEntity
  8
0
  6
Continuous
 62
     7
370
    30
100
AcDbLine
 10
21.5737761937
 20
13.0148511845
 30
0.0
 11
18.8241012915
 21
13.0148511845
 31
0.0
  0
ARC
  5
1BA
330
1F
100
AcDbEntity
  8
0
  6
Continuous
 62
     7
370
    30
100
AcDbCircle
 10
18.824100928
 20
12.5148512265
 30
0.0
 40
0.5
100
AcDbArc
 50
90.0
 51
185.6476663895
  0
LINE
  5
1BB
330
1F
100
AcDbEntity
  8
0
  6
Continuous
 62
     7
370
    30
100
AcDbLine
 10
18.3265280528
 20
12.4656460089
 30
0.0
 11
18.6234952889
 21
9.4626669129
 31
0.0
  0
ARC
  5
1BC
330
1F
100
AcDbEntity
  8
0
  6
Continuous
 62
     7
370
    30
100
AcDbCircle
 10
18.8722816327
 20
9.4872695374
 30
0.0
 40
0.25
100
AcDbArc
 50
185.6476663895
 51
270.0
  0
LINE
  5
1BD
330
1F
100
AcDbEntity
  8
0
  6
Continuous
 62
     7
370
    30
100
AcDbLine
 10
18.8722813216
 20
9.2372695434
 30
0.0
 11
19.1745789494
 21
9.2372695434
 31
0.0
  0
ARC
  5
1BE
330
1F
100
AcDbEntity
  8
0
  6
Continuous
 62
     7
370
    30
100
AcDbCircle
 10
19.1745794416
 20
9.4872695374
 30
0.0
 40
0.25
100
AcDbArc
 50
270.0
 51
314.4349219622
  0
LINE
  5
1BF
330
1F
100
AcDbEntity
  8
0
  6
Continuous
 62
     7
370
    30
100
AcDbLine
 10
19.3496042342
 20
9.3087581576
 30
0.0
 11
20.0239134578
 21
9.9698968667
 31
0.0
  0
ARC
  5
1C0
330
1F
100
AcDbEntity
  8
0
  6
Continuous
 62
     7
370
    30
100
AcDbCircle
 10
20.1989387151
 20
9.791385167
 30
0.0
 40
0.250000000000006
100
AcDbArc
 50
45.5650780378
 51
134.4349219622
  0
LINE
  5
1C1
330
1F
100
AcDbEntity
  8
0
  6
Continuous
 62
     7
370
    30
100
AcDbLine
 10
20.373962854
 20
9.9698968667
 30
0.0
 11
21.048273251
 21
9.3087581576
 31
0.0
  0
ARC
  5
1C2
330
1F
100
AcDbEntity
  8
0
  6
Continuous
 62
     7
370
    30
100
AcDbCircle
 10
21.2232979887
 20
9.4872695374
 30
0.0
 40
0.25
100
AcDbArc
 50
225.5650780378
 51
270.0
  0
LINE
  5
1C3
330
1F
100
AcDbEntity
  8
0
  6
Continuous
 62
     7
370
    30
100
AcDbLine
 10
21.2232985357
 20
9.2372695434
 30
0.0
 11
21.5255961636
 21
9.2372695434
 31
0.0
  0
ARC
  5
1C4
330
1F
100
AcDbEntity
  8
0
  6
Continuous
 62
     7
370
    30
100
AcDbCircle
 10
21.5255957976
 20
9.4872695374
 30
0.0
 40
0.2499999999999964
100
AcDbArc
 50
270.0
 51
354.3523336105
  0
LINE
  5
1C5
330
1F
100
AcDbEntity
  8
0
  6
Continuous
 62
     7
370
    30
100
AcDbLine
 10
21.7743821962
 20
9.4626669129
 30
0.0
 11
22.0713494323
 21
12.4656460089
 31
0.0
  0
ARC
  5
1C6
330
1F
100
AcDbEntity
  8
0
  6
Continuous
 62
     7
370
    30
100
AcDbCircle
 10
21.5737765023
 20
12.5148512265
 30
0.0
 40
0.5
100
AcDbArc
 50
354.3523336105
 51
90.0
  0
LINE
  5
1C7
330
1F
100
AcDbEntity
  8
0
  6
Continuous
 62
     7
370
    30
100
AcDbLine
 10
29.4537765766
 20
13.0148511845
 30
0.0
 11
26.7041016744
 21
13.0148511845
 31
0.0
  0
ARC
  5
1C8
330
1F
100
AcDbEntity
  8
0
  6
Continuous
 62
     7
370
    30
100
AcDbCircle
 10
26.704100928
 20
12.5148512265
 30
0.0
 40
0.5
100
AcDbArc
 50
90.0
 51
185.6476663895
  0
LINE
  5
1C9
330
1F
100
AcDbEntity
  8
0
  6
Continuous
 62
     7
370
    30
100
AcDbLine
 10
26.2065272624
 20
12.4656460089
 30
0.0
 11
26.5034944985
 21
9.4626669129
 31
0.0
  0
ARC
  5
1CA
330
1F
100
AcDbEntity
  8
0
  6
Continuous
 62
     7
370
    30
100
AcDbCircle
 10
26.7522816327
 20
9.4872695374
 30
0.0
 40
0.25
100
AcDbArc
 50
185.6476663895
 51
270.0
  0
LINE
  5
1CB
330
1F
100
AcDbEntity
  8
0
  6
Continuous
 62
     7
370
    30
100
AcDbLine
 10
26.7522805311
 20
9.2372695434
 30
0.0
 11
27.0545793323
 21
9.2372695434
 31
0.0
  0
ARC
  5
1CC
330
1F
100
AcDbEntity
  8
0
  6
Continuous
 62
     7
370
    30
100
AcDbCircle
 10
27.0545794416
 20
9.4872695374
 30
0.0
 40
0.2500000000000018
100
AcDbArc
 50
270.0
 51
314.4349219622
  0
LINE
  5
1CD
330
1F
100
AcDbEntity
  8
0
  6
Continuous
 62
     7
370
    30
100
AcDbLine
 10
27.2296034437
 20
9.3087581576
 30
0.0
 11
27.903915014
 21
9.9698968667
 31
0.0
  0
ARC
  5
1CE
330
1F
100
AcDbEntity
  8
0
  6
Continuous
 62
     7
370
    30
100
AcDbCircle
 10
28.0789387151
 20
9.791385167
 30
0.0
 40
0.2500000000000022
100
AcDbArc
 50
45.5650780378
 51
134.4349219622
  0
LINE
  5
1CF
330
1F
100
AcDbEntity
  8
0
  6
Continuous
 62
     7
370
    30
100
AcDbLine
 10
28.2539632369
 20
9.9698968667
 30
0.0
 11
28.9282724606
 21
9.3087581576
 31
0.0
  0
ARC
  5
1D0
330
1F
100
AcDbEntity
  8
0
  6
Continuous
 62
     7
370
    30
100
AcDbCircle
 10
29.1032979887
 20
9.4872695374
 30
0.0
 40
0.25
100
AcDbArc
 50
225.5650780378
 51
270.0
  0
LINE
  5
1D1
330
1F
100
AcDbEntity
  8
0
  6
Continuous
 62
     7
370
    30
100
AcDbLine
 10
29.1032989186
 20
9.2372695434
 30
0.0
 11
29.4055953732
 21
9.2372695434
 31
0.0
  0
ARC
  5
1D2
330
1F
100
AcDbEntity
  8
0
  6
Continuous
 62
     7
370
    30
100
AcDbCircle
 10
29.4055957976
 20
9.4872695374
 30
0.0
 40
0.2499999999999993
100
AcDbArc
 50
270.0
 51
354.3523336105
  0
LINE
  5
1D3
330
1F
100
AcDbEntity
  8
0
  6
Continuous
 62
     7
370
    30
100
AcDbLine
 10
29.6543814058
 20
9.4626669129
 30
0.0
 11
29.9513486419
 21
12.4656460089
 31
0.0
  0
ARC
  5
1D4
330
1F
100
AcDbEntity
  8
0
  6
Continuous
 62
     7
370
    30
100
AcDbCircle
 10
29.4537765023
 20
12.5148512265
 30
0.0
 40
0.5
100
AcDbArc
 50
354.3523336105
 51
90.0
  0
LINE
  5
1D5
330
1F
100
AcDbEntity
  8
0
  6
Continuous
 62
     7
370
    30
100
AcDbLine
 10
9.7537764993
 20
17.3978517517
 30
0.0
 11
7.0041009371
 21
17.3978517517
 31
0.0
  0
ARC
  5
1D6
330
1F
100
AcDbEntity
  8
0
  6
Continuous
 62
     7
370
    30
100
AcDbCircle
 10
7.004100928
 20
16.8978512265
 30
0.0
 40
0.5000000000000036
100
AcDbArc
 50
90.0
 51
185.6476663895
  0
LINE
  5
1D7
330
1F
100
AcDbEntity
  8
0
  6
Continuous
 62
     7
370
    30
100
AcDbLine
 10
6.5065279918
 20
16.8486454028
 30
0.0
 11
6.8034951545
 21
13.8456666001
 31
0.0
  0
ARC
  5
1D8
330
1F
100
AcDbEntity
  8
0
  6
Continuous
 62
     7
370
    30
100
AcDbCircle
 10
7.0522816327
 20
13.8702695374
 30
0.0
 40
0.25
100
AcDbArc
 50
185.6476663895
 51
270.0
  0
LINE
  5
1D9
330
1F
100
AcDbEntity
  8
0
  6
Continuous
 62
     7
370
    30
100
AcDbLine
 10
7.0522816272
 20
13.620269524
 30
0.0
 11
7.354579475
 21
13.620269524
 31
0.0
  0
ARC
  5
1DA
330
1F
100
AcDbEntity
  8
0
  6
Continuous
 62
     7
370
    30
100
AcDbCircle
 10
7.3545794416
 20
13.8702695374
 30
0.0
 40
0.2500000000000018
100
AcDbArc
 50
270.0
 51
314.4349219622
  0
LINE
  5
1DB
330
1F
100
AcDbEntity
  8
0
  6
Continuous
 62
     7
370
    30
100
AcDbLine
 10
7.5296040998
 20
13.6917581381
 30
0.0
 11
8.2039140568
 21
14.3528968472
 31
0.0
  0
ARC
  5
1DC
330
1F
100
AcDbEntity
  8
0
  6
Continuous
 62
     7
370
    30
100
AcDbCircle
 10
8.3789387151
 20
14.174385167
 30
0.0
 40
0.2499999999999997
100
AcDbArc
 50
45.5650780378
 51
134.4349219622
  0
LINE
  5
1DD
330
1F
100
AcDbEntity
  8
0
  6
Continuous
 62
     7
370
    30
100
AcDbLine
 10
8.553963453
 20
14.3528968472
 30
0.0
 11
9.2282732633
 21
13.6917581381
 31
0.0
  0
ARC
  5
1DE
330
1F
100
AcDbEntity
  8
0
  6
Continuous
 62
     7
370
    30
100
AcDbCircle
 10
9.4032979887
 20
13.8702695374
 30
0.0
 40
0.25
100
AcDbArc
 50
225.5650780378
 51
270.0
  0
LINE
  5
1DF
330
1F
100
AcDbEntity
  8
0
  6
Continuous
 62
     7
370
    30
100
AcDbLine
 10
9.4032979614
 20
13.620269524
 30
0.0
 11
9.7055958826
 21
13.620269524
 31
0.0
  0
ARC
  5
1E0
330
1F
100
AcDbEntity
  8
0
  6
Continuous
 62
     7
370
    30
100
AcDbCircle
 10
9.7055957976
 20
13.8702695374
 30
0.0
 40
0.2499999999999964
100
AcDbArc
 50
270.0
 51
354.3523336105
  0
LINE
  5
1E1
330
1F
100
AcDbEntity
  8
0
  6
Continuous
 62
     7
370
    30
100
AcDbLine
 10
9.9543822086
 20
13.8456666001
 30
0.0
 11
10.2513494446
 21
16.8486454028
 31
0.0
  0
ARC
  5
1E2
330
1F
100
AcDbEntity
  8
0
  6
Continuous
 62
     7
370
    30
100
AcDbCircle
 10
9.7537765023
 20
16.8978512265
 30
0.0
 40
0.5000000000000036
100
AcDbArc
 50
354.3523336105
 51
90.0
  0
LINE
  5
1E3
330
1F
100
AcDbEntity
  8
0
  6
Continuous
 62
     7
370
    30
100
AcDbLine
 10
17.6337765889
 20
17.3978517517
 30
0.0
 11
14.8841011
 21
17.3978517517
 31
0.0
  0
ARC
  5
1E4
330
1F
100
AcDbEntity
  8
0
  6
Continuous
 62
     7
370
    30
100
AcDbCircle
 10
14.884100928
 20
16.8978512265
 30
0.0
 40
0.5000000000000036
100
AcDbArc
 50
90.0
 51
185.6476663895
  0
LINE
  5
1E5
330
1F
100
AcDbEntity
  8
0
  6
Continuous
 62
     7
370
    30
100
AcDbLine
 10
14.3865278614
 20
16.8486454028
 30
0.0
 11
14.6834950974
 21
13.8456666001
 31
0.0
  0
ARC
  5
1E6
330
1F
100
AcDbEntity
  8
0
  6
Continuous
 62
     7
370
    30
100
AcDbCircle
 10
14.9322816327
 20
13.8702695374
 30
0.0
 40
0.2500000000000012
100
AcDbArc
 50
185.6476663895
 51
270.0
  0
LINE
  5
1E7
330
1F
100
AcDbEntity
  8
0
  6
Continuous
 62
     7
370
    30
100
AcDbLine
 10
14.9322817168
 20
13.620269524
 30
0.0
 11
15.2345793446
 21
13.620269524
 31
0.0
  0
ARC
  5
1E8
330
1F
100
AcDbEntity
  8
0
  6
Continuous
 62
     7
370
    30
100
AcDbCircle
 10
15.2345794416
 20
13.8702695374
 30
0.0
 40
0.2500000000000023
100
AcDbArc
 50
270.0
 51
314.4349219622
  0
LINE
  5
1E9
330
1F
100
AcDbEntity
  8
0
  6
Continuous
 62
     7
370
    30
100
AcDbLine
 10
15.4096040427
 20
13.6917581381
 30
0.0
 11
16.083913853
 21
14.3528968472
 31
0.0
  0
ARC
  5
1EA
330
1F
100
AcDbEntity
  8
0
  6
Continuous
 62
     7
370
    30
100
AcDbCircle
 10
16.2589387151
 20
14.174385167
 30
0.0
 40
0.2499999999999997
100
AcDbArc
 50
45.5650780378
 51
134.4349219622
  0
LINE
  5
1EB
330
1F
100
AcDbEntity
  8
0
  6
Continuous
 62
     7
370
    30
100
AcDbLine
 10
16.4339632492
 20
14.3528968472
 30
0.0
 11
17.1082736462
 21
13.6917581381
 31
0.0
  0
ARC
  5
1EC
330
1F
100
AcDbEntity
  8
0
  6
Continuous
 62
     7
370
    30
100
AcDbCircle
 10
17.2832979887
 20
13.8702695374
 30
0.0
 40
0.25
100
AcDbArc
 50
225.5650780378
 51
270.0
  0
LINE
  5
1ED
330
1F
100
AcDbEntity
  8
0
  6
Continuous
 62
     7
370
    30
100
AcDbLine
 10
17.2832977576
 20
13.620269524
 30
0.0
 11
17.5855953855
 21
13.620269524
 31
0.0
  0
ARC
  5
1EE
330
1F
100
AcDbEntity
  8
0
  6
Continuous
 62
     7
370
    30
100
AcDbCircle
 10
17.5855957976
 20
13.8702695374
 30
0.0
 40
0.25
100
AcDbArc
 50
270.0
 51
354.3523336105
  0
LINE
  5
1EF
330
1F
100
AcDbEntity
  8
0
  6
Continuous
 62
     7
370
    30
100
AcDbLine
 10
17.8343825915
 20
13.8456666001
 30
0.0
 11
18.1313498275
 21
16.8486454028
 31
0.0
  0
ARC
  5
1F0
330
1F
100
AcDbEntity
  8
0
  6
Continuous
 62
     7
370
    30
100
AcDbCircle
 10
17.6337765023
 20
16.8978512265
 30
0.0
 40
0.5000000000000036
100
AcDbArc
 50
354.3523336105
 51
90.0
  0
LINE
  5
1F1
330
1F
100
AcDbEntity
  8
0
  6
Continuous
 62
     7
370
    30
100
AcDbLine
 10
25.5137769718
 20
17.3978517517
 30
0.0
 11
22.7641008963
 21
17.3978517517
 31
0.0
  0
ARC
  5
1F2
330
1F
100
AcDbEntity
  8
0
  6
Continuous
 62
     7
370
    30
100
AcDbCircle
 10
22.764100928
 20
16.8978512265
 30
0.0
 40
0.5
100
AcDbArc
 50
90.0
 51
185.6476663895
  0
LINE
  5
1F3
330
1F
100
AcDbEntity
  8
0
  6
Continuous
 62
     7
370
    30
100
AcDbLine
 10
22.2665276576
 20
16.8486454028
 30
0.0
 11
22.5634948937
 21
13.8456666001
 31
0.0
  0
ARC
  5
1F4
330
1F
100
AcDbEntity
  8
0
  6
Continuous
 62
     7
370
    30
100
AcDbCircle
 10
22.8122816327
 20
13.8702695374
 30
0.0
 40
0.25
100
AcDbArc
 50
185.6476663895
 51
270.0
  0
LINE
  5
1F5
330
1F
100
AcDbEntity
  8
0
  6
Continuous
 62
     7
370
    30
100
AcDbLine
 10
22.8122820997
 20
13.620269524
 30
0.0
 11
23.1145797275
 21
13.620269524
 31
0.0
  0
ARC
  5
1F6
330
1F
100
AcDbEntity
  8
0
  6
Continuous
 62
     7
370
    30
100
AcDbCircle
 10
23.1145794416
 20
13.8702695374
 30
0.0
 40
0.2500000000000018
100
AcDbArc
 50
270.0
 51
314.4349219622
  0
LINE
  5
1F7
330
1F
100
AcDbEntity
  8
0
  6
Continuous
 62
     7
370
    30
100
AcDbLine
 10
23.2896038389
 20
13.6917581381
 30
0.0
 11
23.9639142359
 21
14.3528968472
 31
0.0
  0
ARC
  5
1F8
330
1F
100
AcDbEntity
  8
0
  6
Continuous
 62
     7
370
    30
100
AcDbCircle
 10
24.1389387151
 20
14.174385167
 30
0.0
 40
0.2500000000000034
100
AcDbArc
 50
45.5650780378
 51
134.4349219622
  0
LINE
  5
1F9
330
1F
100
AcDbEntity
  8
0
  6
Continuous
 62
     7
370
    30
100
AcDbLine
 10
24.3139636321
 20
14.3528968472
 30
0.0
 11
24.9882728558
 21
13.6917581381
 31
0.0
  0
ARC
  5
1FA
330
1F
100
AcDbEntity
  8
0
  6
Continuous
 62
     7
370
    30
100
AcDbCircle
 10
25.1632979887
 20
13.8702695374
 30
0.0
 40
0.25
100
AcDbArc
 50
225.5650780378
 51
270.0
  0
LINE
  5
1FB
330
1F
100
AcDbEntity
  8
0
  6
Continuous
 62
     7
370
    30
100
AcDbLine
 10
25.1632981405
 20
13.620269524
 30
0.0
 11
25.4655957684
 21
13.620269524
 31
0.0
  0
ARC
  5
1FC
330
1F
100
AcDbEntity
  8
0
  6
Continuous
 62
     7
370
    30
100
AcDbCircle
 10
25.4655957976
 20
13.8702695374
 30
0.0
 40
0.2499999999999964
100
AcDbArc
 50
270.0
 51
354.3523336105
  0
LINE
  5
1FD
330
1F
100
AcDbEntity
  8
0
  6
Continuous
 62
     7
370
    30
100
AcDbLine
 10
25.714381801
 20
13.8456666001
 30
0.0
 11
26.0113502104
 21
16.8486454028
 31
0.0
  0
ARC
  5
1FE
330
1F
100
AcDbEntity
  8
0
  6
Continuous
 62
     7
370
    30
100
AcDbCircle
 10
25.5137765023
 20
16.8978512265
 30
0.0
 40
0.5000000000000036
100
AcDbArc
 50
354.3523336105
 51
90.0
  0
LINE
  5
1FF
330
1F
100
AcDbEntity
  8
0
  6
Continuous
 62
     7
370
    30
100
AcDbLine
 10
33.3937773547
 20
17.3978517517
 30
0.0
 11
30.6441001058
 21
17.3978517517
 31
0.0
  0
ARC
  5
200
330
1F
100
AcDbEntity
  8
0
  6
Continuous
 62
     7
370
    30
100
AcDbCircle
 10
30.644100928
 20
16.8978512265
 30
0.0
 40
0.5000000000000036
100
AcDbArc
 50
90.0
 51
185.6476663895
  0
LINE
  5
201
330
1F
100
AcDbEntity
  8
0
  6
Continuous
 62
     7
370
    30
100
AcDbLine
 10
30.1465280405
 20
16.8486454028
 30
0.0
 11
30.4434952766
 21
13.8456666001
 31
0.0
  0
ARC
  5
202
330
1F
100
AcDbEntity
  8
0
  6
Continuous
 62
     7
370
    30
100
AcDbCircle
 10
30.6922816327
 20
13.8702695374
 30
0.0
 40
0.25
100
AcDbArc
 50
185.6476663895
 51
270.0
  0
LINE
  5
203
330
1F
100
AcDbEntity
  8
0
  6
Continuous
 62
     7
370
    30
100
AcDbLine
 10
30.6922813092
 20
13.620269524
 30
0.0
 11
30.9945801104
 21
13.620269524
 31
0.0
  0
ARC
  5
204
330
1F
100
AcDbEntity
  8
0
  6
Continuous
 62
     7
370
    30
100
AcDbCircle
 10
30.9945794416
 20
13.8702695374
 30
0.0
 40
0.2500000000000035
100
AcDbArc
 50
270.0
 51
314.4349219622
  0
LINE
  5
205
330
1F
100
AcDbEntity
  8
0
  6
Continuous
 62
     7
370
    30
100
AcDbLine
 10
31.1696042218
 20
13.6917581381
 30
0.0
 11
31.8439134455
 21
14.3528968472
 31
0.0
  0
ARC
  5
206
330
1F
100
AcDbEntity
  8
0
  6
Continuous
 62
     7
370
    30
100
AcDbCircle
 10
32.0189387151
 20
14.174385167
 30
0.0
 40
0.2499999999999997
100
AcDbArc
 50
45.5650780378
 51
134.4349219622
  0
LINE
  5
207
330
1F
100
AcDbEntity
  8
0
  6
Continuous
 62
     7
370
    30
100
AcDbLine
 10
32.193964015
 20
14.3528968472
 30
0.0
 11
32.8682732387
 21
13.6917581381
 31
0.0
  0
ARC
  5
208
330
1F
100
AcDbEntity
  8
0
  6
Continuous
 62
     7
370
    30
100
AcDbCircle
 10
33.0432979887
 20
13.8702695374
 30
0.0
 40
0.25
100
AcDbArc
 50
225.5650780378
 51
270.0
  0
LINE
  5
209
330
1F
100
AcDbEntity
  8
0
  6
Continuous
 62
     7
370
    30
100
AcDbLine
 10
33.0432973501
 20
13.620269524
 30
0.0
 11
33.3455961513
 21
13.620269524
 31
0.0
  0
ARC
  5
20A
330
1F
100
AcDbEntity
  8
0
  6
Continuous
 62
     7
370
    30
100
AcDbCircle
 10
33.3455957976
 20
13.8702695374
 30
0.0
 40
0.25
100
AcDbArc
 50
270.0
 51
354.3523336105
  0
LINE
  5
20B
330
1F
100
AcDbEntity
  8
0
  6
Continuous
 62
     7
370
    30
100
AcDbLine
 10
33.5943821839
 20
13.8456666001
 30
0.0
 11
33.89134942
 21
16.8486454028
 31
0.0
  0
ARC
  5
20C
330
1F
100
AcDbEntity
  8
0
  6
Continuous
 62
     7
370
    30
100
AcDbCircle
 10
33.3937765023
 20
16.8978512265
 30
0.0
 40
0.5000000000000036
100
AcDbArc
 50
354.3523336105
 51
90.0
  0
LINE
  5
20D
330
1F
100
AcDbEntity
  8
0
  6
Continuous
 62
     7
370
    30
100
AcDbLine
 10
13.6937763974
 20
21.7808511455
 30
0.0
 11
10.9441009086
 21
21.7808511455
 31
0.0
  0
ARC
  5
20E
330
1F
100
AcDbEntity
  8
0
  6
Continuous
 62
     7
370
    30
100
AcDbCircle
 10
10.944100928
 20
21.2808512265
 30
0.0
 40
0.5000000000000036
100
AcDbArc
 50
90.0
 51
185.6476663895
  0
LINE
  5
20F
330
1F
100
AcDbEntity
  8
0
  6
Continuous
 62
     7
370
    30
100
AcDbLine
 10
10.4465279633
 20
21.23164597
 30
0.0
 11
10.7434951993
 21
18.2286665807
 31
0.0
  0
ARC
  5
210
330
1F
100
AcDbEntity
  8
0
  6
Continuous
 62
     7
370
    30
100
AcDbCircle
 10
10.9922816327
 20
18.2532695374
 30
0.0
 40
0.25
100
AcDbArc
 50
185.6476663895
 51
270.0
  0
LINE
  5
211
330
1F
100
AcDbEntity
  8
0
  6
Continuous
 62
     7
370
    30
100
AcDbLine
 10
10.9922815253
 20
18.0032695045
 30
0.0
 11
11.2945791532
 21
18.0032695045
 31
0.0
  0
ARC
  5
212
330
1F
100
AcDbEntity
  8
0
  6
Continuous
 62
     7
370
    30
100
AcDbCircle
 10
11.2945794416
 20
18.2532695374
 30
0.0
 40
0.250000000000001
100
AcDbArc
 50
270.0
 51
314.4349219622
  0
LINE
  5
213
330
1F
100
AcDbEntity
  8
0
  6
Continuous
 62
     7
370
    30
100
AcDbLine
 10
11.4696038513
 20
18.074757532
 30
0.0
 11
12.1439142482
 21
18.7358962411
 31
0.0
  0
ARC
  5
214
330
1F
100
AcDbEntity
  8
0
  6
Continuous
 62
     7
370
    30
100
AcDbCircle
 10
12.3189387151
 20
18.557385167
 30
0.0
 40
0.2499999999999997
100
AcDbArc
 50
45.5650780378
 51
134.4349219622
  0
LINE
  5
215
330
1F
100
AcDbEntity
  8
0
  6
Continuous
 62
     7
370
    30
100
AcDbLine
 10
12.4939636444
 20
18.7358962411
 30
0.0
 11
13.1682734547
 21
18.074757532
 31
0.0
  0
ARC
  5
216
330
1F
100
AcDbEntity
  8
0
  6
Continuous
 62
     7
370
    30
100
AcDbCircle
 10
13.3432979887
 20
18.2532695374
 30
0.0
 40
0.25
100
AcDbArc
 50
225.5650780378
 51
270.0
  0
LINE
  5
217
330
1F
100
AcDbEntity
  8
0
  6
Continuous
 62
     7
370
    30
100
AcDbLine
 10
13.3432981528
 20
18.0032695045
 30
0.0
 11
13.6455957807
 21
18.0032695045
 31
0.0
  0
ARC
  5
218
330
1F
100
AcDbEntity
  8
0
  6
Continuous
 62
     7
370
    30
100
AcDbCircle
 10
13.6455957976
 20
18.2532695374
 30
0.0
 40
0.2499999999999964
100
AcDbArc
 50
270.0
 51
354.3523336105
  0
LINE
  5
219
330
1F
100
AcDbEntity
  8
0
  6
Continuous
 62
     7
370
    30
100
AcDbLine
 10
13.8943824
 20
18.2286665807
 30
0.0
 11
14.1913496361
 21
21.23164597
 31
0.0
  0
ARC
  5
21A
330
1F
100
AcDbEntity
  8
0
  6
Continuous
 62
     7
370
    30
100
AcDbCircle
 10
13.6937765023
 20
21.2808512265
 30
0.0
 40
0.5000000000000036
100
AcDbArc
 50
354.3523336105
 51
90.0
  0
LINE
  5
21B
330
1F
100
AcDbEntity
  8
0
  6
Continuous
 62
     7
370
    30
100
AcDbLine
 10
21.5737761937
 20
21.7808511455
 30
0.0
 11
18.8241012915
 21
21.7808511455
 31
0.0
  0
ARC
  5
21C
330
1F
100
AcDbEntity
  8
0
  6
Continuous
 62
     7
370
    30
100
AcDbCircle
 10
18.824100928
 20
21.2808512265
 30
0.0
 40
0.5000000000000036
100
AcDbArc
 50
90.0
 51
185.6476663895
  0
LINE
  5
21D
330
1F
100
AcDbEntity
  8
0
  6
Continuous
 62
     7
370
    30
100
AcDbLine
 10
18.3265280528
 20
21.23164597
 30
0.0
 11
18.6234952889
 21
18.2286665807
 31
0.0
  0
ARC
  5
21E
330
1F
100
AcDbEntity
  8
0
  6
Continuous
 62
     7
370
    30
100
AcDbCircle
 10
18.8722816327
 20
18.2532695374
 30
0.0
 40
0.2500000000000029
100
AcDbArc
 50
185.6476663895
 51
270.0
  0
LINE
  5
21F
330
1F
100
AcDbEntity
  8
0
  6
Continuous
 62
     7
370
    30
100
AcDbLine
 10
18.8722813216
 20
18.0032695045
 30
0.0
 11
19.1745789494
 21
18.0032695045
 31
0.0
  0
ARC
  5
220
330
1F
100
AcDbEntity
  8
0
  6
Continuous
 62
     7
370
    30
100
AcDbCircle
 10
19.1745794416
 20
18.2532695374
 30
0.0
 40
0.250000000000001
100
AcDbArc
 50
270.0
 51
314.4349219622
  0
LINE
  5
221
330
1F
100
AcDbEntity
  8
0
  6
Continuous
 62
     7
370
    30
100
AcDbLine
 10
19.3496042342
 20
18.074757532
 30
0.0
 11
20.0239134578
 21
18.7358962411
 31
0.0
  0
ARC
  5
222
330
1F
100
AcDbEntity
  8
0
  6
Continuous
 62
     7
370
    30
100
AcDbCircle
 10
20.1989387151
 20
18.557385167
 30
0.0
 40
0.2499999999999985
100
AcDbArc
 50
45.5650780378
 51
134.4349219622
  0
LINE
  5
223
330
1F
100
AcDbEntity
  8
0
  6
Continuous
 62
     7
370
    30
100
AcDbLine
 10
20.373962854
 20
18.7358962411
 30
0.0
 11
21.048273251
 21
18.074757532
 31
0.0
  0
ARC
  5
224
330
1F
100
AcDbEntity
  8
0
  6
Continuous
 62
     7
370
    30
100
AcDbCircle
 10
21.2232979887
 20
18.2532695374
 30
0.0
 40
0.250000000000001
100
AcDbArc
 50
225.5650780378
 51
270.0
  0
LINE
  5
225
330
1F
100
AcDbEntity
  8
0
  6
Continuous
 62
     7
370
    30
100
AcDbLine
 10
21.2232985357
 20
18.0032695045
 30
0.0
 11
21.5255961636
 21
18.0032695045
 31
0.0
  0
ARC
  5
226
330
1F
100
AcDbEntity
  8
0
  6
Continuous
 62
     7
370
    30
100
AcDbCircle
 10
21.5255957976
 20
18.2532695374
 30
0.0
 40
0.2499999999999964
100
AcDbArc
 50
270.0
 51
354.3523336105
  0
LINE
  5
227
330
1F
100
AcDbEntity
  8
0
  6
Continuous
 62
     7
370
    30
100
AcDbLine
 10
21.7743821962
 20
18.2286665807
 30
0.0
 11
22.0713494323
 21
21.23164597
 31
0.0
  0
ARC
  5
228
330
1F
100
AcDbEntity
  8
0
  6
Continuous
 62
     7
370
    30
100
AcDbCircle
 10
21.5737765023
 20
21.2808512265
 30
0.0
 40
0.5000000000000036
100
AcDbArc
 50
354.3523336105
 51
90.0
  0
LINE
  5
229
330
1F
100
AcDbEntity
  8
0
  6
Continuous
 62
     7
370
    30
100
AcDbLine
 10
29.4537765766
 20
21.7808511455
 30
0.0
 11
26.7041016744
 21
21.7808511455
 31
0.0
  0
ARC
  5
22A
330
1F
100
AcDbEntity
  8
0
  6
Continuous
 62
     7
370
    30
100
AcDbCircle
 10
26.704100928
 20
21.2808512265
 30
0.0
 40
0.5000000000000036
100
AcDbArc
 50
90.0
 51
185.6476663895
  0
LINE
  5
22B
330
1F
100
AcDbEntity
  8
0
  6
Continuous
 62
     7
370
    30
100
AcDbLine
 10
26.2065272624
 20
21.23164597
 30
0.0
 11
26.5034944985
 21
18.2286665807
 31
0.0
  0
ARC
  5
22C
330
1F
100
AcDbEntity
  8
0
  6
Continuous
 62
     7
370
    30
100
AcDbCircle
 10
26.7522816327
 20
18.2532695374
 30
0.0
 40
0.25
100
AcDbArc
 50
185.6476663895
 51
270.0
  0
LINE
  5
22D
330
1F
100
AcDbEntity
  8
0
  6
Continuous
 62
     7
370
    30
100
AcDbLine
 10
26.7522805311
 20
18.0032695045
 30
0.0
 11
27.0545793323
 21
18.0032695045
 31
0.0
  0
ARC
  5
22E
330
1F
100
AcDbEntity
  8
0
  6
Continuous
 62
     7
370
    30
100
AcDbCircle
 10
27.0545794416
 20
18.2532695374
 30
0.0
 40
0.25
100
AcDbArc
 50
270.0
 51
314.4349219622
  0
LINE
  5
22F
330
1F
100
AcDbEntity
  8
0
  6
Continuous
 62
     7
370
    30
100
AcDbLine
 10
27.2296034437
 20
18.074757532
 30
0.0
 11
27.903915014
 21
18.7358962411
 31
0.0
  0
ARC
  5
230
330
1F
100
AcDbEntity
  8
0
  6
Continuous
 62
     7
370
    30
100
AcDbCircle
 10
28.0789387151
 20
18.557385167
 30
0.0
 40
0.2500000000000009
100
AcDbArc
 50
45.5650780378
 51
134.4349219622
  0
LINE
  5
231
330
1F
100
AcDbEntity
  8
0
  6
Continuous
 62
     7
370
    30
100
AcDbLine
 10
28.2539632369
 20
18.7358962411
 30
0.0
 11
28.9282724606
 21
18.074757532
 31
0.0
  0
ARC
  5
232
330
1F
100
AcDbEntity
  8
0
  6
Continuous
 62
     7
370
    30
100
AcDbCircle
 10
29.1032979887
 20
18.2532695374
 30
0.0
 40
0.25
100
AcDbArc
 50
225.5650780378
 51
270.0
  0
LINE
  5
233
330
1F
100
AcDbEntity
  8
0
  6
Continuous
 62
     7
370
    30
100
AcDbLine
 10
29.1032989186
 20
18.0032695045
 30
0.0
 11
29.4055953732
 21
18.0032695045
 31
0.0
  0
ARC
  5
234
330
1F
100
AcDbEntity
  8
0
  6
Continuous
 62
     7
370
    30
100
AcDbCircle
 10
29.4055957976
 20
18.2532695374
 30
0.0
 40
0.2499999999999964
100
AcDbArc
 50
270.0
 51
354.3523336105
  0
LINE
  5
235
330
1F
100
AcDbEntity
  8
0
  6
Continuous
 62
     7
370
    30
100
AcDbLine
 10
29.6543814058
 20
18.2286665807
 30
0.0
 11
29.9513486419
 21
21.23164597
 31
0.0
  0
ARC
  5
236
330
1F
100
AcDbEntity
  8
0
  6
Continuous
 62
     7
370
    30
100
AcDbCircle
 10
29.4537765023
 20
21.2808512265
 30
0.0
 40
0.5000000000000036
100
AcDbArc
 50
354.3523336105
 51
90.0
  0
LINE
  5
237
330
1F
100
AcDbEntity
  8
0
  6
Continuous
 62
     7
370
    30
100
AcDbLine
 10
9.7537764993
 20
26.1638505394
 30
0.0
 11
7.0041009371
 21
26.1638505394
 31
0.0
  0
ARC
  5
238
330
1F
100
AcDbEntity
  8
0
  6
Continuous
 62
     7
370
    30
100
AcDbCircle
 10
7.004100928
 20
25.6638512265
 30
0.0
 40
0.4999999999999987
100
AcDbArc
 50
90.0
 51
185.6476663895
  0
LINE
  5
239
330
1F
100
AcDbEntity
  8
0
  6
Continuous
 62
     7
370
    30
100
AcDbLine
 10
6.5065279918
 20
25.6146453639
 30
0.0
 11
6.8034951545
 21
22.6116671479
 31
0.0
  0
ARC
  5
23A
330
1F
100
AcDbEntity
  8
0
  6
Continuous
 62
     7
370
    30
100
AcDbCircle
 10
7.0522816327
 20
22.6362695374
 30
0.0
 40
0.2500000000000003
100
AcDbArc
 50
185.6476663895
 51
270.0
  0
LINE
  5
23B
330
1F
100
AcDbEntity
  8
0
  6
Continuous
 62
     7
370
    30
100
AcDbLine
 10
7.0522816272
 20
22.3862700717
 30
0.0
 11
7.354579475
 21
22.3862700717
 31
0.0
  0
ARC
  5
23C
330
1F
100
AcDbEntity
  8
0
  6
Continuous
 62
     7
370
    30
100
AcDbCircle
 10
7.3545794416
 20
22.6362695374
 30
0.0
 40
0.2500000000000004
100
AcDbArc
 50
270.0
 51
314.4349219622
  0
LINE
  5
23D
330
1F
100
AcDbEntity
  8
0
  6
Continuous
 62
     7
370
    30
100
AcDbLine
 10
7.5296040998
 20
22.4577580992
 30
0.0
 11
8.2039140568
 21
23.1188968083
 31
0.0
  0
ARC
  5
23E
330
1F
100
AcDbEntity
  8
0
  6
Continuous
 62
     7
370
    30
100
AcDbCircle
 10
8.3789387151
 20
22.940385167
 30
0.0
 40
0.2500000000000023
100
AcDbArc
 50
45.5650780378
 51
134.4349219622
  0
LINE
  5
23F
330
1F
100
AcDbEntity
  8
0
  6
Continuous
 62
     7
370
    30
100
AcDbLine
 10
8.553963453
 20
23.1188968083
 30
0.0
 11
9.2282732633
 21
22.4577580992
 31
0.0
  0
ARC
  5
240
330
1F
100
AcDbEntity
  8
0
  6
Continuous
 62
     7
370
    30
100
AcDbCircle
 10
9.4032979887
 20
22.6362695374
 30
0.0
 40
0.2499999999999998
100
AcDbArc
 50
225.5650780378
 51
270.0
  0
LINE
  5
241
330
1F
100
AcDbEntity
  8
0
  6
Continuous
 62
     7
370
    30
100
AcDbLine
 10
9.4032979614
 20
22.3862700717
 30
0.0
 11
9.7055958826
 21
22.3862700717
 31
0.0
  0
ARC
  5
242
330
1F
100
AcDbEntity
  8
0
  6
Continuous
 62
     7
370
    30
100
AcDbCircle
 10
9.7055957976
 20
22.6362695374
 30
0.0
 40
0.2499999999999964
100
AcDbArc
 50
270.0
 51
354.3523336105
  0
LINE
  5
243
330
1F
100
AcDbEntity
  8
0
  6
Continuous
 62
     7
370
    30
100
AcDbLine
 10
9.9543822086
 20
22.6116671479
 30
0.0
 11
10.2513494446
 21
25.6146453639
 31
0.0
  0
ARC
  5
244
330
1F
100
AcDbEntity
  8
0
  6
Continuous
 62
     7
370
    30
100
AcDbCircle
 10
9.7537765023
 20
25.6638512265
 30
0.0
 40
0.4999999999999978
100
AcDbArc
 50
354.3523336105
 51
90.0
  0
LINE
  5
245
330
1F
100
AcDbEntity
  8
0
  6
Continuous
 62
     7
370
    30
100
AcDbLine
 10
17.6337765889
 20
26.1638505394
 30
0.0
 11
14.8841011
 21
26.1638505394
 31
0.0
  0
ARC
  5
246
330
1F
100
AcDbEntity
  8
0
  6
Continuous
 62
     7
370
    30
100
AcDbCircle
 10
14.884100928
 20
25.6638512265
 30
0.0
 40
0.4999999999999996
100
AcDbArc
 50
90.0
 51
185.6476663895
  0
LINE
  5
247
330
1F
100
AcDbEntity
  8
0
  6
Continuous
 62
     7
370
    30
100
AcDbLine
 10
14.3865278614
 20
25.6146453639
 30
0.0
 11
14.6834950974
 21
22.6116671479
 31
0.0
  0
ARC
  5
248
330
1F
100
AcDbEntity
  8
0
  6
Continuous
 62
     7
370
    30
100
AcDbCircle
 10
14.9322816327
 20
22.6362695374
 30
0.0
 40
0.2500000000000012
100
AcDbArc
 50
185.6476663895
 51
270.0
  0
LINE
  5
249
330
1F
100
AcDbEntity
  8
0
  6
Continuous
 62
     7
370
    30
100
AcDbLine
 10
14.9322817168
 20
22.3862700717
 30
0.0
 11
15.2345793446
 21
22.3862700717
 31
0.0
  0
ARC
  5
24A
330
1F
100
AcDbEntity
  8
0
  6
Continuous
 62
     7
370
    30
100
AcDbCircle
 10
15.2345794416
 20
22.6362695374
 30
0.0
 40
0.2500000000000023
100
AcDbArc
 50
270.0
 51
314.4349219622
  0
LINE
  5
24B
330
1F
100
AcDbEntity
  8
0
  6
Continuous
 62
     7
370
    30
100
AcDbLine
 10
15.4096040427
 20
22.4577580992
 30
0.0
 11
16.083913853
 21
23.1188968083
 31
0.0
  0
ARC
  5
24C
330
1F
100
AcDbEntity
  8
0
  6
Continuous
 62
     7
370
    30
100
AcDbCircle
 10
16.2589387151
 20
22.940385167
 30
0.0
 40
0.250000000000001
100
AcDbArc
 50
45.5650780378
 51
134.4349219622
  0
LINE
  5
24D
330
1F
100
AcDbEntity
  8
0
  6
Continuous
 62
     7
370
    30
100
AcDbLine
 10
16.4339632492
 20
23.1188968083
 30
0.0
 11
17.1082736462
 21
22.4577580992
 31
0.0
  0
ARC
  5
24E
330
1F
100
AcDbEntity
  8
0
  6
Continuous
 62
     7
370
    30
100
AcDbCircle
 10
17.2832979887
 20
22.6362695374
 30
0.0
 40
0.2499999999999985
100
AcDbArc
 50
225.5650780378
 51
270.0
  0
LINE
  5
24F
330
1F
100
AcDbEntity
  8
0
  6
Continuous
 62
     7
370
    30
100
AcDbLine
 10
17.2832977576
 20
22.3862700717
 30
0.0
 11
17.5855953855
 21
22.3862700717
 31
0.0
  0
ARC
  5
250
330
1F
100
AcDbEntity
  8
0
  6
Continuous
 62
     7
370
    30
100
AcDbCircle
 10
17.5855957976
 20
22.6362695374
 30
0.0
 40
0.2499999999999964
100
AcDbArc
 50
270.0
 51
354.3523336105
  0
LINE
  5
251
330
1F
100
AcDbEntity
  8
0
  6
Continuous
 62
     7
370
    30
100
AcDbLine
 10
17.8343825915
 20
22.6116671479
 30
0.0
 11
18.1313498275
 21
25.6146453639
 31
0.0
  0
ARC
  5
252
330
1F
100
AcDbEntity
  8
0
  6
Continuous
 62
     7
370
    30
100
AcDbCircle
 10
17.6337765023
 20
25.6638512265
 30
0.0
 40
0.4999999999999996
100
AcDbArc
 50
354.3523336105
 51
90.0
  0
LINE
  5
253
330
1F
100
AcDbEntity
  8
0
  6
Continuous
 62
     7
370
    30
100
AcDbLine
 10
25.5137769718
 20
26.1638505394
 30
0.0
 11
22.7641008963
 21
26.1638505394
 31
0.0
  0
ARC
  5
254
330
1F
100
AcDbEntity
  8
0
  6
Continuous
 62
     7
370
    30
100
AcDbCircle
 10
22.764100928
 20
25.6638512265
 30
0.0
 40
0.4999999999999964
100
AcDbArc
 50
90.0
 51
185.6476663895
  0
LINE
  5
255
330
1F
100
AcDbEntity
  8
0
  6
Continuous
 62
     7
370
    30
100
AcDbLine
 10
22.2665276576
 20
25.6146453639
 30
0.0
 11
22.5634948937
 21
22.6116671479
 31
0.0
  0
ARC
  5
256
330
1F
100
AcDbEntity
  8
0
  6
Continuous
 62
     7
370
    30
100
AcDbCircle
 10
22.8122816327
 20
22.6362695374
 30
0.0
 40
0.2500000000000029
100
AcDbArc
 50
185.6476663895
 51
270.0
  0
LINE
  5
257
330
1F
100
AcDbEntity
  8
0
  6
Continuous
 62
     7
370
    30
100
AcDbLine
 10
22.8122820997
 20
22.3862700717
 30
0.0
 11
23.1145797275
 21
22.3862700717
 31
0.0
  0
ARC
  5
258
330
1F
100
AcDbEntity
  8
0
  6
Continuous
 62
     7
370
    30
100
AcDbCircle
 10
23.1145794416
 20
22.6362695374
 30
0.0
 40
0.250000000000001
100
AcDbArc
 50
270.0
 51
314.4349219622
  0
LINE
  5
259
330
1F
100
AcDbEntity
  8
0
  6
Continuous
 62
     7
370
    30
100
AcDbLine
 10
23.2896038389
 20
22.4577580992
 30
0.0
 11
23.9639142359
 21
23.1188968083
 31
0.0
  0
ARC
  5
25A
330
1F
100
AcDbEntity
  8
0
  6
Continuous
 62
     7
370
    30
100
AcDbCircle
 10
24.1389387151
 20
22.940385167
 30
0.0
 40
0.2500000000000035
100
AcDbArc
 50
45.5650780378
 51
134.4349219622
  0
LINE
  5
25B
330
1F
100
AcDbEntity
  8
0
  6
Continuous
 62
     7
370
    30
100
AcDbLine
 10
24.3139636321
 20
23.1188968083
 30
0.0
 11
24.9882728558
 21
22.4577580992
 31
0.0
  0
ARC
  5
25C
330
1F
100
AcDbEntity
  8
0
  6
Continuous
 62
     7
370
    30
100
AcDbCircle
 10
25.1632979887
 20
22.6362695374
 30
0.0
 40
0.2499999999999985
100
AcDbArc
 50
225.5650780378
 51
270.0
  0
LINE
  5
25D
330
1F
100
AcDbEntity
  8
0
  6
Continuous
 62
     7
370
    30
100
AcDbLine
 10
25.1632981405
 20
22.3862700717
 30
0.0
 11
25.4655957684
 21
22.3862700717
 31
0.0
  0
ARC
  5
25E
330
1F
100
AcDbEntity
  8
0
  6
Continuous
 62
     7
370
    30
100
AcDbCircle
 10
25.4655957976
 20
22.6362695374
 30
0.0
 40
0.2499999999999964
100
AcDbArc
 50
270.0
 51
354.3523336105
  0
LINE
  5
25F
330
1F
100
AcDbEntity
  8
0
  6
Continuous
 62
     7
370
    30
100
AcDbLine
 10
25.714381801
 20
22.6116671479
 30
0.0
 11
26.0113502104
 21
25.6146453639
 31
0.0
  0
ARC
  5
260
330
1F
100
AcDbEntity
  8
0
  6
Continuous
 62
     7
370
    30
100
AcDbCircle
 10
25.5137765023
 20
25.6638512265
 30
0.0
 40
0.500000000000003
100
AcDbArc
 50
354.3523336105
 51
90.0
  0
LINE
  5
261
330
1F
100
AcDbEntity
  8
0
  6
Continuous
 62
     7
370
    30
100
AcDbLine
 10
33.3937773547
 20
26.1638505394
 30
0.0
 11
30.6441001058
 21
26.1638505394
 31
0.0
  0
ARC
  5
262
330
1F
100
AcDbEntity
  8
0
  6
Continuous
 62
     7
370
    30
100
AcDbCircle
 10
30.644100928
 20
25.6638512265
 30
0.0
 40
0.500000000000003
100
AcDbArc
 50
90.0
 51
185.6476663895
  0
LINE
  5
263
330
1F
100
AcDbEntity
  8
0
  6
Continuous
 62
     7
370
    30
100
AcDbLine
 10
30.1465280405
 20
25.6146453639
 30
0.0
 11
30.4434952766
 21
22.6116671479
 31
0.0
  0
ARC
  5
264
330
1F
100
AcDbEntity
  8
0
  6
Continuous
 62
     7
370
    30
100
AcDbCircle
 10
30.6922816327
 20
22.6362695374
 30
0.0
 40
0.2499999999999994
100
AcDbArc
 50
185.6476663895
 51
270.0
  0
LINE
  5
265
330
1F
100
AcDbEntity
  8
0
  6
Continuous
 62
     7
370
    30
100
AcDbLine
 10
30.6922813092
 20
22.3862700717
 30
0.0
 11
30.9945801104
 21
22.3862700717
 31
0.0
  0
ARC
  5
266
330
1F
100
AcDbEntity
  8
0
  6
Continuous
 62
     7
370
    30
100
AcDbCircle
 10
30.9945794416
 20
22.6362695374
 30
0.0
 40
0.25
100
AcDbArc
 50
270.0
 51
314.4349219622
  0
LINE
  5
267
330
1F
100
AcDbEntity
  8
0
  6
Continuous
 62
     7
370
    30
100
AcDbLine
 10
31.1696042218
 20
22.4577580992
 30
0.0
 11
31.8439134455
 21
23.1188968083
 31
0.0
  0
ARC
  5
268
330
1F
100
AcDbEntity
  8
0
  6
Continuous
 62
     7
370
    30
100
AcDbCircle
 10
32.0189387151
 20
22.940385167
 30
0.0
 40
0.250000000000006
100
AcDbArc
 50
45.5650780378
 51
134.4349219622
  0
LINE
  5
269
330
1F
100
AcDbEntity
  8
0
  6
Continuous
 62
     7
370
    30
100
AcDbLine
 10
32.193964015
 20
23.1188968083
 30
0.0
 11
32.8682732387
 21
22.4577580992
 31
0.0
  0
ARC
  5
26A
330
1F
100
AcDbEntity
  8
0
  6
Continuous
 62
     7
370
    30
100
AcDbCircle
 10
33.0432979887
 20
22.6362695374
 30
0.0
 40
0.250000000000001
100
AcDbArc
 50
225.5650780378
 51
270.0
  0
LINE
  5
26B
330
1F
100
AcDbEntity
  8
0
  6
Continuous
 62
     7
370
    30
100
AcDbLine
 10
33.0432973501
 20
22.3862700717
 30
0.0
 11
33.3455961513
 21
22.3862700717
 31
0.0
  0
ARC
  5
26C
330
1F
100
AcDbEntity
  8
0
  6
Continuous
 62
     7
370
    30
100
AcDbCircle
 10
33.3455957976
 20
22.6362695374
 30
0.0
 40
0.2499999999999994
100
AcDbArc
 50
270.0
 51
354.3523336105
  0
LINE
  5
26D
330
1F
100
AcDbEntity
  8
0
  6
Continuous
 62
     7
370
    30
100
AcDbLine
 10
33.5943821839
 20
22.6116671479
 30
0.0
 11
33.89134942
 21
25.6146453639
 31
0.0
  0
ARC
  5
26E
330
1F
100
AcDbEntity
  8
0
  6
Continuous
 62
     7
370
    30
100
AcDbCircle
 10
33.3937765023
 20
25.6638512265
 30
0.0
 40
0.4999999999999996
100
AcDbArc
 50
354.3523336105
 51
90.0
  0
LINE
  5
26F
330
1F
100
AcDbEntity
  8
0
  6
Continuous
 62
     7
370
    30
100
AcDbLine
 10
13.6937763974
 20
30.54685228
 30
0.0
 11
10.9441009086
 21
30.54685228
 31
0.0
  0
ARC
  5
270
330
1F
100
AcDbEntity
  8
0
  6
Continuous
 62
     7
370
    30
100
AcDbCircle
 10
10.944100928
 20
30.0468512265
 30
0.0
 40
0.4999999999999978
100
AcDbArc
 50
90.0
 51
185.6476663895
  0
LINE
  5
271
330
1F
100
AcDbEntity
  8
0
  6
Continuous
 62
     7
370
    30
100
AcDbLine
 10
10.4465279633
 20
29.9976447578
 30
0.0
 11
10.7434951993
 21
26.9946665418
 31
0.0
  0
ARC
  5
272
330
1F
100
AcDbEntity
  8
0
  6
Continuous
 62
     7
370
    30
100
AcDbCircle
 10
10.9922816327
 20
27.0192695374
 30
0.0
 40
0.2500000000000036
100
AcDbArc
 50
185.6476663895
 51
270.0
  0
LINE
  5
273
330
1F
100
AcDbEntity
  8
0
  6
Continuous
 62
     7
370
    30
100
AcDbLine
 10
10.9922815253
 20
26.7692694656
 30
0.0
 11
11.2945791532
 21
26.7692694656
 31
0.0
  0
ARC
  5
274
330
1F
100
AcDbEntity
  8
0
  6
Continuous
 62
     7
370
    30
100
AcDbCircle
 10
11.2945794416
 20
27.0192695374
 30
0.0
 40
0.2500000000000036
100
AcDbArc
 50
270.0
 51
314.4349219622
  0
LINE
  5
275
330
1F
100
AcDbEntity
  8
0
  6
Continuous
 62
     7
370
    30
100
AcDbLine
 10
11.4696038513
 20
26.8407574931
 30
0.0
 11
12.1439142482
 21
27.5018973755
 31
0.0
  0
ARC
  5
276
330
1F
100
AcDbEntity
  8
0
  6
Continuous
 62
     7
370
    30
100
AcDbCircle
 10
12.3189387151
 20
27.323385167
 30
0.0
 40
0.2500000000000023
100
AcDbArc
 50
45.5650780378
 51
134.4349219622
  0
LINE
  5
277
330
1F
100
AcDbEntity
  8
0
  6
Continuous
 62
     7
370
    30
100
AcDbLine
 10
12.4939636444
 20
27.5018973755
 30
0.0
 11
13.1682734547
 21
26.8407574931
 31
0.0
  0
ARC
  5
278
330
1F
100
AcDbEntity
  8
0
  6
Continuous
 62
     7
370
    30
100
AcDbCircle
 10
13.3432979887
 20
27.0192695374
 30
0.0
 40
0.2500000000000036
100
AcDbArc
 50
225.5650780378
 51
270.0
  0
LINE
  5
279
330
1F
100
AcDbEntity
  8
0
  6
Continuous
 62
     7
370
    30
100
AcDbLine
 10
13.3432981528
 20
26.7692694656
 30
0.0
 11
13.6455957807
 21
26.7692694656
 31
0.0
  0
ARC
  5
27A
330
1F
100
AcDbEntity
  8
0
  6
Continuous
 62
     7
370
    30
100
AcDbCircle
 10
13.6455957976
 20
27.0192695374
 30
0.0
 40
0.25
100
AcDbArc
 50
270.0
 51
354.3523336105
  0
LINE
  5
27B
330
1F
100
AcDbEntity
  8
0
  6
Continuous
 62
     7
370
    30
100
AcDbLine
 10
13.8943824
 20
26.9946665418
 30
0.0
 11
14.1913496361
 21
29.9976447578
 31
0.0
  0
ARC
  5
27C
330
1F
100
AcDbEntity
  8
0
  6
Continuous
 62
     7
370
    30
100
AcDbCircle
 10
13.6937765023
 20
30.0468512265
 30
0.0
 40
0.5000000000000012
100
AcDbArc
 50
354.3523336105
 51
90.0
  0
LINE
  5
27D
330
1F
100
AcDbEntity
  8
0
  6
Continuous
 62
     7
370
    30
100
AcDbLine
 10
21.5737761937
 20
30.54685228
 30
0.0
 11
18.8241012915
 21
30.54685228
 31
0.0
  0
ARC
  5
27E
330
1F
100
AcDbEntity
  8
0
  6
Continuous
 62
     7
370
    30
100
AcDbCircle
 10
18.824100928
 20
30.0468512265
 30
0.0
 40
0.4999999999999964
100
AcDbArc
 50
90.0
 51
185.6476663895
  0
LINE
  5
27F
330
1F
100
AcDbEntity
  8
0
  6
Continuous
 62
     7
370
    30
100
AcDbLine
 10
18.3265280528
 20
29.9976447578
 30
0.0
 11
18.6234952889
 21
26.9946665418
 31
0.0
  0
ARC
  5
280
330
1F
100
AcDbEntity
  8
0
  6
Continuous
 62
     7
370
    30
100
AcDbCircle
 10
18.8722816327
 20
27.0192695374
 30
0.0
 40
0.2500000000000036
100
AcDbArc
 50
185.6476663895
 51
270.0
  0
LINE
  5
281
330
1F
100
AcDbEntity
  8
0
  6
Continuous
 62
     7
370
    30
100
AcDbLine
 10
18.8722813216
 20
26.7692694656
 30
0.0
 11
19.1745789494
 21
26.7692694656
 31
0.0
  0
ARC
  5
282
330
1F
100
AcDbEntity
  8
0
  6
Continuous
 62
     7
370
    30
100
AcDbCircle
 10
19.1745794416
 20
27.0192695374
 30
0.0
 40
0.2500000000000036
100
AcDbArc
 50
270.0
 51
314.4349219622
  0
LINE
  5
283
330
1F
100
AcDbEntity
  8
0
  6
Continuous
 62
     7
370
    30
100
AcDbLine
 10
19.3496042342
 20
26.8407574931
 30
0.0
 11
20.0239134578
 21
27.5018973755
 31
0.0
  0
ARC
  5
284
330
1F
100
AcDbEntity
  8
0
  6
Continuous
 62
     7
370
    30
100
AcDbCircle
 10
20.1989387151
 20
27.323385167
 30
0.0
 40
0.250000000000006
100
AcDbArc
 50
45.5650780378
 51
134.4349219622
  0
LINE
  5
285
330
1F
100
AcDbEntity
  8
0
  6
Continuous
 62
     7
370
    30
100
AcDbLine
 10
20.373962854
 20
27.5018973755
 30
0.0
 11
21.048273251
 21
26.8407574931
 31
0.0
  0
ARC
  5
286
330
1F
100
AcDbEntity
  8
0
  6
Continuous
 62
     7
370
    30
100
AcDbCircle
 10
21.2232979887
 20
27.0192695374
 30
0.0
 40
0.2500000000000036
100
AcDbArc
 50
225.5650780378
 51
270.0
  0
LINE
  5
287
330
1F
100
AcDbEntity
  8
0
  6
Continuous
 62
     7
370
    30
100
AcDbLine
 10
21.2232985357
 20
26.7692694656
 30
0.0
 11
21.5255961636
 21
26.7692694656
 31
0.0
  0
ARC
  5
288
330
1F
100
AcDbEntity
  8
0
  6
Continuous
 62
     7
370
    30
100
AcDbCircle
 10
21.5255957976
 20
27.0192695374
 30
0.0
 40
0.25
100
AcDbArc
 50
270.0
 51
354.3523336105
  0
LINE
  5
289
330
1F
100
AcDbEntity
  8
0
  6
Continuous
 62
     7
370
    30
100
AcDbLine
 10
21.7743821962
 20
26.9946665418
 30
0.0
 11
22.0713494323
 21
29.9976447578
 31
0.0
  0
ARC
  5
28A
330
1F
100
AcDbEntity
  8
0
  6
Continuous
 62
     7
370
    30
100
AcDbCircle
 10
21.5737765023
 20
30.0468512265
 30
0.0
 40
0.500000000000003
100
AcDbArc
 50
354.3523336105
 51
90.0
  0
LINE
  5
28B
330
1F
100
AcDbEntity
  8
0
  6
Continuous
 62
     7
370
    30
100
AcDbLine
 10
29.4537765766
 20
30.54685228
 30
0.0
 11
26.7041016744
 21
30.54685228
 31
0.0
  0
ARC
  5
28C
330
1F
100
AcDbEntity
  8
0
  6
Continuous
 62
     7
370
    30
100
AcDbCircle
 10
26.704100928
 20
30.0468512265
 30
0.0
 40
0.500000000000003
100
AcDbArc
 50
90.0
 51
185.6476663895
  0
LINE
  5
28D
330
1F
100
AcDbEntity
  8
0
  6
Continuous
 62
     7
370
    30
100
AcDbLine
 10
26.2065272624
 20
29.9976447578
 30
0.0
 11
26.5034944985
 21
26.9946665418
 31
0.0
  0
ARC
  5
28E
330
1F
100
AcDbEntity
  8
0
  6
Continuous
 62
     7
370
    30
100
AcDbCircle
 10
26.7522816327
 20
27.0192695374
 30
0.0
 40
0.2500000000000036
100
AcDbArc
 50
185.6476663895
 51
270.0
  0
LINE
  5
28F
330
1F
100
AcDbEntity
  8
0
  6
Continuous
 62
     7
370
    30
100
AcDbLine
 10
26.7522805311
 20
26.7692694656
 30
0.0
 11
27.0545793323
 21
26.7692694656
 31
0.0
  0
ARC
  5
290
330
1F
100
AcDbEntity
  8
0
  6
Continuous
 62
     7
370
    30
100
AcDbCircle
 10
27.0545794416
 20
27.0192695374
 30
0.0
 40
0.2500000000000036
100
AcDbArc
 50
270.0
 51
314.4349219622
  0
LINE
  5
291
330
1F
100
AcDbEntity
  8
0
  6
Continuous
 62
     7
370
    30
100
AcDbLine
 10
27.2296034437
 20
26.8407574931
 30
0.0
 11
27.903915014
 21
27.5018973755
 31
0.0
  0
ARC
  5
292
330
1F
100
AcDbEntity
  8
0
  6
Continuous
 62
     7
370
    30
100
AcDbCircle
 10
28.0789387151
 20
27.323385167
 30
0.0
 40
0.2500000000000035
100
AcDbArc
 50
45.5650780378
 51
134.4349219622
  0
LINE
  5
293
330
1F
100
AcDbEntity
  8
0
  6
Continuous
 62
     7
370
    30
100
AcDbLine
 10
28.2539632369
 20
27.5018973755
 30
0.0
 11
28.9282724606
 21
26.8407574931
 31
0.0
  0
ARC
  5
294
330
1F
100
AcDbEntity
  8
0
  6
Continuous
 62
     7
370
    30
100
AcDbCircle
 10
29.1032979887
 20
27.0192695374
 30
0.0
 40
0.2500000000000036
100
AcDbArc
 50
225.5650780378
 51
270.0
  0
LINE
  5
295
330
1F
100
AcDbEntity
  8
0
  6
Continuous
 62
     7
370
    30
100
AcDbLine
 10
29.1032989186
 20
26.7692694656
 30
0.0
 11
29.4055953732
 21
26.7692694656
 31
0.0
  0
ARC
  5
296
330
1F
100
AcDbEntity
  8
0
  6
Continuous
 62
     7
370
    30
100
AcDbCircle
 10
29.4055957976
 20
27.0192695374
 30
0.0
 40
0.25
100
AcDbArc
 50
270.0
 51
354.3523336105
  0
LINE
  5
297
330
1F
100
AcDbEntity
  8
0
  6
Continuous
 62
     7
370
    30
100
AcDbLine
 10
29.6543814058
 20
26.9946665418
 30
0.0
 11
29.9513486419
 21
29.9976447578
 31
0.0
  0
ARC
  5
298
330
1F
100
AcDbEntity
  8
0
  6
Continuous
 62
     7
370
    30
100
AcDbCircle
 10
29.4537765023
 20
30.0468512265
 30
0.0
 40
0.4999999999999996
100
AcDbArc
 50
354.3523336105
 51
90.0
  0
ENDSEC
  0
SECTION
  2
OBJECTS
  0
DICTIONARY
  5
C
330
0
100
AcDbDictionary
281
     1
  3
ACAD_GROUP
350
D
  3
ACAD_LAYOUT
350
1A
  3
ACAD_MLINESTYLE
350
17
  3
ACAD_PLOTSETTINGS
350
19
  3
ACAD_PLOTSTYLENAME
350
E
  0
DICTIONARY
  5
D
102
{ACAD_REACTORS
330
C
102
}
330
C
100
AcDbDictionary
281
     1
  0
DICTIONARY
  5
1A
102
{ACAD_REACTORS
330
C
102
}
330
C
100
AcDbDictionary
281
     1
  3
Layout1
350
1E
  3
Layout2
350
26
  3
Model
350
22
  0
DICTIONARY
  5
17
102
{ACAD_REACTORS
330
C
102
}
330
C
100
AcDbDictionary
281
     1
  3
Standard
350
18
  0
DICTIONARY
  5
19
102
{ACAD_REACTORS
330
C
102
}
330
C
100
AcDbDictionary
281
     1
  0
ACDBDICTIONARYWDFLT
  5
E
102
{ACAD_REACTORS
330
C
102
}
330
C
100
AcDbDictionary
281
     1
  3
Normal
350
F
100
AcDbDictionaryWithDefault
340
F
  0
LAYOUT
  5
1E
102
{ACAD_REACTORS
330
1A
102
}
330
1A
100
AcDbPlotSettings
  1

  2
none_device
  4

  6

 40
0.0
 41
0.0
 42
0.0
 43
0.0
 44
0.0
 45
0.0
 46
0.0
 47
0.0
 48
0.0
 49
0.0
140
0.0
141
0.0
142
1.0
143
1.0
 70
   688
 72
     0
 73
     0
 74
     5
  7

 75
    16
147
1.0
148
0.0
149
0.0
100
AcDbLayout
  1
Layout1
 70
     1
 71
     1
 10
0.0
 20
0.0
 11
12.0
 21
9.0
 12
0.0
 22
0.0
 32
0.0
 14
1.0000000000E+20
 24
1.0000000000E+20
 34
1.0000000000E+20
 15
-1.0000000000E+20
 25
-1.0000000000E+20
 35
-1.0000000000E+20
146
0.0
 13
0.0
 23
0.0
 33
0.0
 16
1.0
 26
0.0
 36
0.0
 17
0.0
 27
1.0
 37
0.0
 76
     0
330
1B
  0
LAYOUT
  5
26
102
{ACAD_REACTORS
330
1A
102
}
330
1A
100
AcDbPlotSettings
  1

  2
none_device
  4

  6

 40
0.0
 41
0.0
 42
0.0
 43
0.0
 44
0.0
 45
0.0
 46
0.0
 47
0.0
 48
0.0
 49
0.0
140
0.0
141
0.0
142
1.0
143
1.0
 70
   688
 72
     0
 73
     0
 74
     5
  7

 75
    16
147
1.0
148
0.0
149
0.0
100
AcDbLayout
  1
Layout2
 70
     1
 71
     2
 10
0.0
 20
0.0
 11
0.0
 21
0.0
 12
0.0
 22
0.0
 32
0.0
 14
0.0
 24
0.0
 34
0.0
 15
0.0
 25
0.0
 35
0.0
146
0.0
 13
0.0
 23
0.0
 33
0.0
 16
1.0
 26
0.0
 36
0.0
 17
0.0
 27
1.0
 37
0.0
 76
     0
330
23
  0
LAYOUT
  5
22
102
{ACAD_REACTORS
330
1A
102
}
330
1A
100
AcDbPlotSettings
  1

  2
none_device
  4

  6

 40
0.0
 41
0.0
 42
0.0
 43
0.0
 44
0.0
 45
0.0
 46
0.0
 47
0.0
 48
0.0
 49
0.0
140
0.0
141
0.0
142
1.0
143
1.0
 70
  1712
 72
     0
 73
     0
 74
     0
  7

 75
     0
147
1.0
148
0.0
149
0.0
100
AcDbLayout
  1
Model
 70
     1
 71
     0
 10
0.0
 20
0.0
 11
44.0
 21
34.0
 12
0.0
 22
0.0
 32
0.0
 14
0.0
 24
0.0
 34
0.0
 15
44.0
 25
34.0
 35
0.0
146
0.0
 13
0.0
 23
0.0
 33
0.0
 16
1.0
 26
0.0
 36
0.0
 17
0.0
 27
1.0
 37
0.0
 76
     0
330
1F
331
29
  0
MLINESTYLE
  5
18
102
{ACAD_REACTORS
330
17
102
}
330
17
100
AcDbMlineStyle
  2
Standard
 70
     0
  3

 62
   256
 51
90.0
 52
90.0
 71
     2
 49
0.5
 62
   256
  6
BYLAYER
 49
-0.5
 62
   256
  6
BYLAYER
  0
ACDBPLACEHOLDER
  5
F
102
{ACAD_REACTORS
330
E
102
}
330
E
  0
ENDSEC
  0
EOF
