  0
SECTION
  2
HEADER
  9
$ACADVER
  1
AC1018
  9
$ACADMAINTVER
 70
     0
  9
$DWGCODEPAGE
  3
ANSI_1251
  9
$INSBASE
 10
0.0
 20
0.0
 30
0.0
  9
$EXTMIN
 10
-0.919610963304
 20
-47.67774989442398
 30
0.0
  9
$EXTMAX
 10
12.580389036696
 20
-39.92774989442398
 30
0.0
  9
$LIMMIN
 10
-0.919610963304
 20
-47.67774989442398
  9
$LIMMAX
 10
12.580389036696
 20
-39.92774989442398
  9
$ORTHOMODE
 70
     0
  9
$REGENMODE
 70
     1
  9
$FILLMODE
 70
     1
  9
$QTEXTMODE
 70
     0
  9
$MIRRTEXT
 70
     1
  9
$LTSCALE
 40
1.0
  9
$ATTMODE
 70
     1
  9
$TEXTSIZE
 40
0.5
  9
$TRACEWID
 40
1.0
  9
$TEXTSTYLE
  7
STANDARD
  9
$CLAYER
  8
0
  9
$CELTYPE
  6
ByLayer
  9
$CECOLOR
 62
     7
  9
$CELTSCALE
 40
1.0
  9
$DISPSILH
 70
     0
  9
$DIMSCALE
 40
1.0
  9
$DIMASZ
 40
0.25
  9
$DIMEXO
 40
0.0625
  9
$DIMDLI
 40
0.375
  9
$DIMRND
 40
0.001
  9
$DIMDLE
 40
0.0
  9
$DIMEXE
 40
0.125
  9
$DIMTP
 40
0.0
  9
$DIMTM
 40
0.0
  9
$DIMTXT
 40
0.319444444444
  9
$DIMCEN
 40
0.09
  9
$DIMTSZ
 40
0.0
  9
$DIMTOL
 70
     0
  9
$DIMLIM
 70
     0
  9
$DIMTIH
 70
     1
  9
$DIMTOH
 70
     1
  9
$DIMSE1
 70
     0
  9
$DIMSE2
 70
     0
  9
$DIMTAD
 70
     1
  9
$DIMZIN
 70
     3
  9
$DIMBLK
  1

  9
$DIMASO
 70
     0
  9
$DIMSHO
 70
     1
  9
$DIMPOST
  1
in
  9
$DIMAPOST
  1

  9
$DIMALT
 70
     0
  9
$DIMALTD
 70
     2
  9
$DIMALTF
 40
1.0
  9
$DIMLFAC
 40
1.0
  9
$DIMTOFL
 70
     1
  9
$DIMTVP
 40
0.0
  9
$DIMTIX
 70
     0
  9
$DIMSOXD
 70
     0
  9
$DIMSAH
 70
     0
  9
$DIMBLK1
  1

  9
$DIMBLK2
  1

  9
$DIMSTYLE
  2
Standard
  9
$DIMCLRD
 70
     0
  9
$DIMCLRE
 70
     0
  9
$DIMCLRT
 70
     0
  9
$DIMTFAC
 40
1.0
  9
$DIMGAP
 40
0.0625
  9
$DIMJUST
 70
     0
  9
$DIMSD1
 70
     0
  9
$DIMSD2
 70
     0
  9
$DIMTOLJ
 70
     1
  9
$DIMTZIN
 70
     0
  9
$DIMALTZ
 70
     8
  9
$DIMALTTZ
 70
     0
  9
$DIMUPT
 70
     0
  9
$DIMDEC
 70
     3
  9
$DIMTDEC
 70
     3
  9
$DIMALTU
 70
     2
  9
$DIMALTTD
 70
     2
  9
$DIMTXSTY
  7
_TCW_TXTSTY_1
  9
$DIMAUNIT
 70
     0
  9
$DIMADEC
 70
     3
  9
$DIMALTRND
 40
0.01
  9
$DIMAZIN
 70
     0
  9
$DIMDSEP
 70
    46
  9
$DIMATFIT
 70
     3
  9
$DIMFRAC
 70
     0
  9
$DIMLDRBLK
  1

  9
$DIMLUNIT
 70
     2
  9
$DIMLWD
 70
    -2
  9
$DIMLWE
 70
    -2
  9
$DIMTMOVE
 70
     0
  9
$LUNITS
 70
     2
  9
$LUPREC
 70
     3
  9
$SKETCHINC
 40
1.0
  9
$FILLETRAD
 40
1.0
  9
$AUNITS
 70
     0
  9
$AUPREC
 70
     2
  9
$MENU
  1
.
  9
$ELEVATION
 40
0.0
  9
$PELEVATION
 40
0.0
  9
$THICKNESS
 40
0.0
  9
$LIMCHECK
 70
     0
  9
$CHAMFERA
 40
0.5
  9
$CHAMFERB
 40
0.5
  9
$CHAMFERC
 40
1.0
  9
$CHAMFERD
 40
0.0
  9
$SKPOLY
 70
     0
  9
$TDCREATE
 40
2456755.485471817
  9
$TDUCREATE
 40
2456755.735471817
  9
$TDUPDATE
 40
2456755.485471829
  9
$TDUUPDATE
 40
2456755.735471829
  9
$TDINDWG
 40
0.0
  9
$TDUSRTIMER
 40
0.0
  9
$USRTIMER
 70
     1
  9
$ANGBASE
 50
0.0
  9
$ANGDIR
 70
     0
  9
$PDMODE
 70
     0
  9
$PDSIZE
 40
0.0
  9
$PLINEWID
 40
0.0
  9
$SPLFRAME
 70
     0
  9
$SPLINETYPE
 70
     5
  9
$SPLINESEGS
 70
    20
  9
$HANDSEED
  5
C6
  9
$SURFTAB1
 70
     6
  9
$SURFTAB2
 70
     6
  9
$SURFTYPE
 70
     6
  9
$SURFU
 70
     6
  9
$SURFV
 70
     6
  9
$UCSBASE
  2

  9
$UCSNAME
  2

  9
$UCSORG
 10
0.0
 20
0.0
 30
0.0
  9
$UCSXDIR
 10
1.0
 20
0.0
 30
0.0
  9
$UCSYDIR
 10
0.0
 20
1.0
 30
0.0
  9
$UCSORTHOREF
  2

  9
$UCSORTHOVIEW
 70
     0
  9
$UCSORGTOP
 10
0.0
 20
0.0
 30
0.0
  9
$UCSORGBOTTOM
 10
0.0
 20
0.0
 30
0.0
  9
$UCSORGLEFT
 10
0.0
 20
0.0
 30
0.0
  9
$UCSORGRIGHT
 10
0.0
 20
0.0
 30
0.0
  9
$UCSORGFRONT
 10
0.0
 20
0.0
 30
0.0
  9
$UCSORGBACK
 10
0.0
 20
0.0
 30
0.0
  9
$PUCSBASE
  2

  9
$PUCSNAME
  2

  9
$PUCSORG
 10
0.0
 20
0.0
 30
0.0
  9
$PUCSXDIR
 10
1.0
 20
0.0
 30
0.0
  9
$PUCSYDIR
 10
0.0
 20
1.0
 30
0.0
  9
$PUCSORTHOREF
  2

  9
$PUCSORTHOVIEW
 70
     0
  9
$PUCSORGTOP
 10
0.0
 20
0.0
 30
0.0
  9
$PUCSORGBOTTOM
 10
0.0
 20
0.0
 30
0.0
  9
$PUCSORGLEFT
 10
0.0
 20
0.0
 30
0.0
  9
$PUCSORGRIGHT
 10
0.0
 20
0.0
 30
0.0
  9
$PUCSORGFRONT
 10
0.0
 20
0.0
 30
0.0
  9
$PUCSORGBACK
 10
0.0
 20
0.0
 30
0.0
  9
$USERI1
 70
     0
  9
$USERI2
 70
     0
  9
$USERI3
 70
     0
  9
$USERI4
 70
     0
  9
$USERI5
 70
     0
  9
$USERR1
 40
0.0
  9
$USERR2
 40
0.0
  9
$USERR3
 40
0.0
  9
$USERR4
 40
0.0
  9
$USERR5
 40
0.0
  9
$WORLDVIEW
 70
     1
  9
$SHADEDGE
 70
     3
  9
$SHADEDIF
 70
    70
  9
$TILEMODE
 70
     1
  9
$MAXACTVP
 70
    64
  9
$PINSBASE
 10
0.0
 20
0.0
 30
0.0
  9
$PLIMCHECK
 70
     0
  9
$PEXTMIN
 10
0.0
 20
0.0
 30
0.0
  9
$PEXTMAX
 10
0.0
 20
0.0
 30
0.0
  9
$PLIMMIN
 10
0.0
 20
0.0
  9
$PLIMMAX
 10
0.0
 20
0.0
  9
$UNITMODE
 70
     0
  9
$VISRETAIN
 70
     1
  9
$PLINEGEN
 70
     0
  9
$PSLTSCALE
 70
     1
  9
$TREEDEPTH
 70
  3020
  9
$CMLSTYLE
  2
Standard
  9
$CMLJUST
 70
     0
  9
$CMLSCALE
 40
1.0
  9
$PROXYGRAPHICS
 70
     1
  9
$MEASUREMENT
 70
     0
  9
$CELWEIGHT
370
    -1
  9
$ENDCAPS
280
     0
  9
$JOINSTYLE
280
     0
  9
$LWDISPLAY
290
     0
  9
$INSUNITS
 70
     1
  9
$HYPERLINKBASE
  1

  9
$STYLESHEET
  1

  9
$XEDIT
290
     1
  9
$CEPSNTYPE
380
     0
  9
$PSTYLEMODE
290
     1
  9
$FINGERPRINTGUID
  2
{5373C478-A349-4559-A82C-27BBAAB56524}
  9
$VERSIONGUID
  2
{FAEB1C32-E019-11D5-929B-00C0DF256EC4}
  9
$EXTNAMES
290
     1
  9
$PSVPSCALE
 40
0.0
  9
$OLESTARTUP
290
     0
  9
$SORTENTS
280
   127
  9
$INDEXCTL
280
     0
  9
$HIDETEXT
280
     1
  9
$XCLIPFRAME
290
     0
  9
$HALOGAP
280
     0
  9
$OBSCOLOR
 70
   257
  9
$OBSLTYPE
280
     0
  9
$INTERSECTIONDISPLAY
280
     0
  9
$INTERSECTIONCOLOR
 70
   257
  9
$DIMASSOC
280
     2
  9
$PROJECTNAME
  1

  0
ENDSEC
  0
SECTION
  2
CLASSES
  0
CLASS
  1
ACDBDICTIONARYWDFLT
  2
AcDbDictionaryWithDefault
  3
ObjectDBX Classes
 90
        0
 91
        3
280
     0
281
     0
  0
ENDSEC
  0
SECTION
  2
TABLES
  0
TABLE
  2
VPORT
  5
8
330
0
100
AcDbSymbolTable
 70
     1
  0
VPORT
  5
29
330
8
100
AcDbSymbolTableRecord
100
AcDbViewportTableRecord
  2
*Active
 70
     0
 10
0.0
 20
0.0
 11
1.0
 21
1.0
 12
0.0
 22
0.0
 13
0.0
 23
0.0
 14
0.5
 24
0.5
 15
0.5
 25
0.5
 16
0.0
 26
0.0
 36
1.0
 17
6.921190406216517
 27
-47.55041835325574
 37
0.0
 40
12.13938144354394
 41
1.741996233521657
 42
50.0
 43
0.0
 44
0.0
 50
0.0
 51
0.0
 71
     0
 72
   100
 73
     1
 74
     3
 75
     0
 76
     0
 77
     0
 78
     0
281
     0
 65
     1
110
0.0
120
0.0
130
0.0
111
1.0
121
0.0
131
0.0
112
0.0
122
1.0
132
0.0
 79
     0
146
0.0
  0
ENDTAB
  0
TABLE
  2
LTYPE
  5
5
330
0
100
AcDbSymbolTable
 70
    13
  0
LTYPE
  5
14
330
5
100
AcDbSymbolTableRecord
100
AcDbLinetypeTableRecord
  2
ByBlock
 70
     0
  3

 72
    65
 73
     0
 40
0.0
  0
LTYPE
  5
15
330
5
100
AcDbSymbolTableRecord
100
AcDbLinetypeTableRecord
  2
ByLayer
 70
     0
  3

 72
    65
 73
     0
 40
0.0
  0
LTYPE
  5
16
330
5
100
AcDbSymbolTableRecord
100
AcDbLinetypeTableRecord
  2
Continuous
 70
     0
  3
Solid line
 72
    65
 73
     0
 40
0.0
  0
LTYPE
  5
2B
330
5
100
AcDbSymbolTableRecord
100
AcDbLinetypeTableRecord
  2
BORDER
 70
     0
  3
BORDER
 72
    65
 73
     6
 40
1.75
 49
0.5
 74
     0
 49
-0.25
 74
     0
 49
0.5
 74
     0
 49
-0.25
 74
     0
 49
0.0
 74
     0
 49
-0.25
 74
     0
  0
LTYPE
  5
2C
330
5
100
AcDbSymbolTableRecord
100
AcDbLinetypeTableRecord
  2
CENTER
 70
     0
  3
CENTER
 72
    65
 73
     4
 40
2.0
 49
1.25
 74
     0
 49
-0.25
 74
     0
 49
0.25
 74
     0
 49
-0.25
 74
     0
  0
LTYPE
  5
2D
330
5
100
AcDbSymbolTableRecord
100
AcDbLinetypeTableRecord
  2
DASHDOT
 70
     0
  3
DASHDOT
 72
    65
 73
     4
 40
1.0
 49
0.5
 74
     0
 49
-0.25
 74
     0
 49
0.0
 74
     0
 49
-0.25
 74
     0
  0
LTYPE
  5
2E
330
5
100
AcDbSymbolTableRecord
100
AcDbLinetypeTableRecord
  2
DASHED
 70
     0
  3
DASHED
 72
    65
 73
     2
 40
0.75
 49
0.5
 74
     0
 49
-0.25
 74
     0
  0
LTYPE
  5
2F
330
5
100
AcDbSymbolTableRecord
100
AcDbLinetypeTableRecord
  2
DIVIDE
 70
     0
  3
DIVIDE
 72
    65
 73
     6
 40
1.25
 49
0.5
 74
     0
 49
-0.25
 74
     0
 49
0.0
 74
     0
 49
-0.25
 74
     0
 49
0.0
 74
     0
 49
-0.25
 74
     0
  0
LTYPE
  5
30
330
5
100
AcDbSymbolTableRecord
100
AcDbLinetypeTableRecord
  2
DOT
 70
     0
  3
DOT
 72
    65
 73
     2
 40
0.25
 49
0.0
 74
     0
 49
-0.25
 74
     0
  0
LTYPE
  5
31
330
5
100
AcDbSymbolTableRecord
100
AcDbLinetypeTableRecord
  2
HIDDEN
 70
     0
  3
HIDDEN
 72
    65
 73
     2
 40
0.375
 49
0.25
 74
     0
 49
-0.125
 74
     0
  0
LTYPE
  5
32
330
5
100
AcDbSymbolTableRecord
100
AcDbLinetypeTableRecord
  2
PHANTOM
 70
     0
  3
PHANTOM
 72
    65
 73
     6
 40
2.5
 49
1.25
 74
     0
 49
-0.25
 74
     0
 49
0.25
 74
     0
 49
-0.25
 74
     0
 49
0.25
 74
     0
 49
-0.25
 74
     0
  0
LTYPE
  5
33
330
5
100
AcDbSymbolTableRecord
100
AcDbLinetypeTableRecord
  2
$INVISIBLE
 70
     0
  3
$INVISIBLE
 72
    65
 73
     2
 40
200.0
 49
-100.0
 74
     0
 49
-100.0
 74
     0
  0
LTYPE
  5
34
330
5
100
AcDbSymbolTableRecord
100
AcDbLinetypeTableRecord
  2
$SNAPEXT
 70
     0
  3
$SNAPEXT
 72
    65
 73
     2
 40
0.04
 49
0.02
 74
     0
 49
-0.02
 74
     0
  0
LTYPE
  5
35
330
5
100
AcDbSymbolTableRecord
100
AcDbLinetypeTableRecord
  2
$AUXILIARY
 70
     0
  3
$AUXILIARY
 72
    65
 73
     2
 40
0.1
 49
0.05
 74
     0
 49
-0.05
 74
     0
  0
LTYPE
  5
36
330
5
100
AcDbSymbolTableRecord
100
AcDbLinetypeTableRecord
  2
$CONSTRUCTION
 70
     0
  3
$CONSTRUCTION
 72
    65
 73
     4
 40
0.3
 49
0.2
 74
     0
 49
-0.05
 74
     0
 49
0.0
 74
     0
 49
-0.05
 74
     0
  0
ENDTAB
  0
TABLE
  2
LAYER
  5
2
330
0
100
AcDbSymbolTable
 70
     3
  0
LAYER
  5
10
330
2
100
AcDbSymbolTableRecord
100
AcDbLayerTableRecord
  2
0
 70
     0
 62
     7
  6
Continuous
370
     0
390
F
1001
TCAD
1000
TCW_LAYER_ORDER
1002
{
1071
        0
1002
}
  0
LAYER
  5
37
330
2
100
AcDbSymbolTableRecord
100
AcDbLayerTableRecord
  2
$CONSTRUCTION
 70
     0
 62
     9
420
 12632256
  6
$CONSTRUCTION
370
     0
390
F
1001
TCAD
1000
TCW_LAYER_ORDER
1002
{
1071
        0
1002
}
  0
LAYER
  5
99
330
2
100
AcDbSymbolTableRecord
100
AcDbLayerTableRecord
  2
Defpoints
 70
     0
 62
     7
  6
Continuous
290
     0
370
    -3
390
F
  0
ENDTAB
  0
TABLE
  2
STYLE
  5
3
330
0
100
AcDbSymbolTable
 70
     6
  0
STYLE
  5
11
330
3
100
AcDbSymbolTableRecord
100
AcDbTextStyleTableRecord
  2
STANDARD
 70
     0
 40
0.0
 41
1.0
 50
0.0
 71
     0
 42
0.6388888955116272
  3
ARIAL.TTF
  4

1001
ACAD
1000
Arial
1071
       34
  0
STYLE
  5
39
330
3
100
AcDbSymbolTableRecord
100
AcDbTextStyleTableRecord
  2
_TCW_TXTSTY_1
 70
     0
 40
0.0
 41
1.0
 50
0.0
 71
     0
 42
0.6388888955116272
  3
ARIAL.TTF
  4

1001
ACAD
1000
Arial
1071
       34
  0
STYLE
  5
97
330
3
100
AcDbSymbolTableRecord
100
AcDbTextStyleTableRecord
  2
_TCW_TXTSTY_2
 70
     0
 40
0.0
 41
1.0
 50
0.0
 71
     0
 42
0.6388888955116272
  3
ARIAL.TTF
  4

1001
ACAD
1000
Arial
1071
       34
  0
STYLE
  5
A6
330
3
100
AcDbSymbolTableRecord
100
AcDbTextStyleTableRecord
  2
_TCW_TXTSTY_3
 70
     0
 40
0.0
 41
1.0
 50
0.0
 71
     0
 42
0.6388888955116272
  3
ARIAL.TTF
  4

1001
ACAD
1000
Arial
1071
       34
  0
STYLE
  5
B5
330
3
100
AcDbSymbolTableRecord
100
AcDbTextStyleTableRecord
  2
_TCW_TXTSTY_4
 70
     0
 40
0.0
 41
1.0
 50
0.0
 71
     0
 42
0.6388888955116272
  3
ARIAL.TTF
  4

1001
ACAD
1000
Arial
1071
       34
  0
STYLE
  5
C3
330
3
100
AcDbSymbolTableRecord
100
AcDbTextStyleTableRecord
  2
_TCW_TXTSTY_5
 70
     0
 40
0.0
 41
1.0
 50
0.0
 71
     0
 42
0.248527780175209
  3
ARIAL.TTF
  4

1001
ACAD
1000
Arial
1071
       34
  0
ENDTAB
  0
TABLE
  2
VIEW
  5
6
330
0
100
AcDbSymbolTable
 70
     1
  0
VIEW
  5
38
330
6
100
AcDbSymbolTableRecord
100
AcDbViewTableRecord
  2
View_0
 70
     0
 40
8.267716535433072
 10
5.846456692913386
 20
4.133858267716536
 41
11.69291338582677
 11
0.0
 21
0.0
 31
1.0
 12
0.0
 22
0.0
 32
0.0
 42
50.0
 43
0.0
 44
0.0
 50
0.0
 71
     0
281
     0
 72
     0
  0
ENDTAB
  0
TABLE
  2
UCS
  5
7
330
0
100
AcDbSymbolTable
 70
     0
  0
ENDTAB
  0
TABLE
  2
APPID
  5
9
330
0
100
AcDbSymbolTable
 70
     2
  0
APPID
  5
12
330
9
100
AcDbSymbolTableRecord
100
AcDbRegAppTableRecord
  2
ACAD
 70
     0
  0
APPID
  5
2A
330
9
100
AcDbSymbolTableRecord
100
AcDbRegAppTableRecord
  2
TCAD
 70
     0
  0
ENDTAB
  0
TABLE
  2
DIMSTYLE
  5
A
330
0
100
AcDbSymbolTable
 70
     1
100
AcDbDimStyleTable
  0
DIMSTYLE
105
27
102
{ACAD_REACTORS
330
98
330
A7
330
B6
102
}
330
A
100
AcDbSymbolTableRecord
100
AcDbDimStyleTableRecord
  2
Standard
 70
     0
  3
in
 41
0.25
 43
0.375
 44
0.125
 45
0.001
 77
     1
 78
     3
140
0.319444444444
143
1.0
147
0.0625
148
0.01
172
     1
179
     3
271
     3
272
     3
285
     8
340
39
  0
ENDTAB
  0
TABLE
  2
BLOCK_RECORD
  5
1
330
0
100
AcDbSymbolTable
 70
     4
  0
BLOCK_RECORD
  5
1F
330
1
100
AcDbSymbolTableRecord
100
AcDbBlockTableRecord
  2
*Model_Space
340
22
  0
BLOCK_RECORD
  5
1B
330
1
100
AcDbSymbolTableRecord
100
AcDbBlockTableRecord
  2
*Paper_Space
340
1E
  0
BLOCK_RECORD
  5
9A
330
1
100
AcDbSymbolTableRecord
100
AcDbBlockTableRecord
  2
*D1
340
0
  0
BLOCK_RECORD
  5
A8
330
1
100
AcDbSymbolTableRecord
100
AcDbBlockTableRecord
  2
*D2
340
0
  0
BLOCK_RECORD
  5
B7
330
1
100
AcDbSymbolTableRecord
100
AcDbBlockTableRecord
  2
*D3
340
0
  0
ENDTAB
  0
ENDSEC
  0
SECTION
  2
BLOCKS
  0
BLOCK
  5
20
330
1F
100
AcDbEntity
  8
0
100
AcDbBlockBegin
  2
*Model_Space
 70
     0
 71
     0
 10
0.0
 20
0.0
 30
0.0
  3
*Model_Space
  1

  0
ENDBLK
  5
21
330
1F
100
AcDbEntity
  8
0
100
AcDbBlockEnd
  0
BLOCK
  5
1C
330
1B
100
AcDbEntity
 67
     1
  8
0
100
AcDbBlockBegin
  2
*Paper_Space
 70
     0
 71
     0
 10
0.0
 20
0.0
 30
0.0
  3
*Paper_Space
  1

  0
ENDBLK
  5
1D
330
1B
100
AcDbEntity
 67
     1
  8
0
100
AcDbBlockEnd
  0
BLOCK
  5
A4
330
9A
100
AcDbEntity
  8
0
100
AcDbBlockBegin
  2
*D1
 70
     1
 71
     0
 10
0.0
 20
0.0
 30
0.0
  3
*D1
  1

  0
LINE
  5
9B
330
9A
100
AcDbEntity
  8
0
  6
Continuous
 62
     0
370
    -2
100
AcDbLine
 10
-0.9710179919719
 20
-38.73518843321794
 30
0.0
 11
-0.9710179919719
 21
-37.39469535594117
 31
0.0
  0
LINE
  5
9C
330
9A
100
AcDbEntity
  8
0
  6
Continuous
 62
     0
370
    -2
100
AcDbLine
 10
12.5289820080281
 20
-38.73518843321795
 30
0.0
 11
12.5289820080281
 21
-37.39469535594117
 31
0.0
  0
LINE
  5
9D
330
9A
100
AcDbEntity
  8
0
  6
Continuous
 62
     0
370
    -2
100
AcDbLine
 10
-0.7210179919719
 20
-37.51969535594117
 30
0.0
 11
12.2789820080281
 21
-37.51969535594117
 31
0.0
  0
SOLID
  5
9E
330
9A
100
AcDbEntity
  8
0
 62
     0
100
AcDbTrace
 10
-0.7210179919719
 20
-37.4780286892745
 30
0.0
 11
-0.7210179919719
 21
-37.56136202260783
 31
0.0
 12
-0.9710179919719
 22
-37.51969535594117
 32
0.0
 13
-0.9710179919719
 23
-37.51969535594117
 33
0.0
  0
SOLID
  5
9F
330
9A
100
AcDbEntity
  8
0
 62
     0
100
AcDbTrace
 10
12.2789820080281
 20
-37.56136202260783
 30
0.0
 11
12.2789820080281
 21
-37.4780286892745
 31
0.0
 12
12.5289820080281
 22
-37.51969535594117
 32
0.0
 13
12.5289820080281
 23
-37.51969535594117
 33
0.0
  0
MTEXT
  5
A0
330
9A
100
AcDbEntity
  8
0
 62
     0
100
AcDbMText
 10
5.7789820080281
 20
-37.33032192538561
 30
0.0
 40
0.2485277777777778
 41
0.0
 71
     5
 72
     1
  1
\A1;13.500in
  7
_TCW_TXTSTY_2
 73
     1
 44
1.0
  0
POINT
  5
A1
330
9A
100
AcDbEntity
  8
Defpoints
 62
     0
100
AcDbPoint
 10
-0.9710179919719
 20
-38.79768843321794
 30
0.0
  0
POINT
  5
A2
330
9A
100
AcDbEntity
  8
Defpoints
 62
     0
100
AcDbPoint
 10
12.5289820080281
 20
-38.79768843321795
 30
0.0
  0
POINT
  5
A3
330
9A
100
AcDbEntity
  8
Defpoints
 62
     0
100
AcDbPoint
 10
12.5289820080281
 20
-37.51969535594117
 30
0.0
  0
ENDBLK
  5
A5
330
9A
100
AcDbEntity
  8
0
100
AcDbBlockEnd
  0
BLOCK
  5
B3
330
A8
100
AcDbEntity
  8
0
100
AcDbBlockBegin
  2
*D2
 70
     1
 71
     0
 10
0.0
 20
0.0
 30
0.0
  3
*D2
  1

  0
LINE
  5
A9
330
A8
100
AcDbEntity
  8
0
  6
Continuous
 62
     0
370
    -2
100
AcDbLine
 10
12.642889036696
 20
-39.92774989442399
 30
0.0
 11
14.14250036690493
 21
-39.92774989442399
 31
0.0
  0
LINE
  5
AA
330
A8
100
AcDbEntity
  8
0
  6
Continuous
 62
     0
370
    -2
100
AcDbLine
 10
12.85334890028333
 20
-47.69063244150647
 30
0.0
 11
14.14250036690493
 21
-47.69063244150647
 31
0.0
  0
LINE
  5
AB
330
A8
100
AcDbEntity
  8
0
  6
Continuous
 62
     0
370
    -2
100
AcDbLine
 10
14.01750036690493
 20
-40.17774989442399
 30
0.0
 11
14.01750036690493
 21
-43.61981773740967
 31
0.0
  0
LINE
  5
AC
330
A8
100
AcDbEntity
  8
0
  6
Continuous
 62
     0
370
    -2
100
AcDbLine
 10
14.01750036690493
 20
-47.44063244150647
 30
0.0
 11
14.01750036690493
 21
-43.99856459852078
 31
0.0
  0
SOLID
  5
AD
330
A8
100
AcDbEntity
  8
0
 62
     0
100
AcDbTrace
 10
14.0591670335716
 20
-40.17774989442399
 30
0.0
 11
13.97583370023827
 21
-40.17774989442399
 31
0.0
 12
14.01750036690493
 22
-39.92774989442399
 32
0.0
 13
14.01750036690493
 23
-39.92774989442399
 33
0.0
  0
SOLID
  5
AE
330
A8
100
AcDbEntity
  8
0
 62
     0
100
AcDbTrace
 10
13.97583370023827
 20
-47.44063244150647
 30
0.0
 11
14.0591670335716
 21
-47.44063244150647
 31
0.0
 12
14.01750036690493
 22
-47.69063244150647
 32
0.0
 13
14.01750036690493
 23
-47.69063244150647
 33
0.0
  0
MTEXT
  5
AF
330
A8
100
AcDbEntity
  8
0
 62
     0
100
AcDbMText
 10
14.01750036690493
 20
-43.80919116796522
 30
0.0
 40
0.2485277777777778
 41
0.0
 71
     5
 72
     1
  1
\A1;7.763in
  7
_TCW_TXTSTY_3
 73
     1
 44
1.0
  0
POINT
  5
B0
330
A8
100
AcDbEntity
  8
Defpoints
 62
     0
100
AcDbPoint
 10
12.580389036696
 20
-39.92774989442399
 30
0.0
  0
POINT
  5
B1
330
A8
100
AcDbEntity
  8
Defpoints
 62
     0
100
AcDbPoint
 10
12.79084890028333
 20
-47.69063244150647
 30
0.0
  0
POINT
  5
B2
330
A8
100
AcDbEntity
  8
Defpoints
 62
     0
100
AcDbPoint
 10
14.01750036690493
 20
-47.69063244150647
 30
0.0
  0
ENDBLK
  5
B4
330
A8
100
AcDbEntity
  8
0
100
AcDbBlockEnd
  0
BLOCK
  5
C1
330
B7
100
AcDbEntity
  8
0
100
AcDbBlockBegin
  2
*D3
 70
     1
 71
     0
 10
0.0
 20
0.0
 30
0.0
  3
*D3
  1

  0
LINE
  5
B8
330
B7
100
AcDbEntity
  8
0
  6
Continuous
 62
     0
370
    -2
100
AcDbLine
 10
-0.2316109633039994
 20
-39.35957266547591
 30
0.0
 11
-0.2316109633039994
 21
-38.52750654763893
 31
0.0
  0
LINE
  5
B9
330
B7
100
AcDbEntity
  8
0
  6
Continuous
 62
     0
370
    -2
100
AcDbLine
 10
11.89238903669617
 20
-39.35957266547591
 30
0.0
 11
11.89238903669617
 21
-38.52750654763893
 31
0.0
  0
LINE
  5
BA
330
B7
100
AcDbEntity
  8
0
  6
Continuous
 62
     0
370
    -2
100
AcDbLine
 10
0.0183890366960006
 20
-38.65250654763893
 30
0.0
 11
11.64238903669617
 21
-38.65250654763893
 31
0.0
  0
SOLID
  5
BB
330
B7
100
AcDbEntity
  8
0
 62
     0
100
AcDbTrace
 10
0.0183890366960006
 20
-38.61083988097226
 30
0.0
 11
0.0183890366960006
 21
-38.69417321430559
 31
0.0
 12
-0.2316109633039994
 22
-38.65250654763893
 32
0.0
 13
-0.2316109633039994
 23
-38.65250654763893
 33
0.0
  0
SOLID
  5
BC
330
B7
100
AcDbEntity
  8
0
 62
     0
100
AcDbTrace
 10
11.64238903669617
 20
-38.69417321430559
 30
0.0
 11
11.64238903669617
 21
-38.61083988097226
 31
0.0
 12
11.89238903669617
 22
-38.65250654763893
 32
0.0
 13
11.89238903669617
 23
-38.65250654763893
 33
0.0
  0
MTEXT
  5
BD
330
B7
100
AcDbEntity
  8
0
 62
     0
100
AcDbMText
 10
5.830389036696085
 20
-38.46524560319448
 30
0.0
 40
0.2485277777777778
 41
0.0
 71
     5
 72
     1
  1
\A1;12.124in
  7
_TCW_TXTSTY_4
 73
     1
 44
1.0
  0
POINT
  5
BE
330
B7
100
AcDbEntity
  8
Defpoints
 62
     0
100
AcDbPoint
 10
-0.2316109633039994
 20
-39.42207266547591
 30
0.0
  0
POINT
  5
BF
330
B7
100
AcDbEntity
  8
Defpoints
 62
     0
100
AcDbPoint
 10
11.89238903669617
 20
-39.42207266547591
 30
0.0
  0
POINT
  5
C0
330
B7
100
AcDbEntity
  8
Defpoints
 62
     0
100
AcDbPoint
 10
11.89238903669617
 20
-38.65250654763893
 30
0.0
  0
ENDBLK
  5
C2
330
B7
100
AcDbEntity
  8
0
100
AcDbBlockEnd
  0
ENDSEC
  0
SECTION
  2
ENTITIES
  0
LWPOLYLINE
  5
3A
330
1F
100
AcDbEntity
  8
0
  6
Continuous
 62
     7
100
AcDbPolyline
 90
        4
 70
   128
 43
0.0
 10
12.580389036696
 20
-39.927749894424
 10
12.580389036696
 20
-47.677749894424
 10
-0.919610963304
 20
-47.677749894424
 10
-0.919610963304
 20
-39.927749894424
1001
TCAD
1000
TCW_CUSTOM_DATA
1002
{
1000
#$AUX@_ToolInfo Properties
1070
     8
1000
CMD_MEET2LINES_V@
1002
}
1000
TCW40_DEV_WIDTH
1002
{
1040
-3.0
1002
}
  0
LINE
  5
3B
330
1F
100
AcDbEntity
  8
0
  6
Continuous
 62
     1
420
 16711680
100
AcDbLine
 10
-0.231610963304
 20
-47.177749894424
 30
0.0
 11
11.892389036696
 21
-47.177749894424
 31
0.0
1001
TCAD
1000
TCW_CUSTOM_DATA
1002
{
1000
#$AUX@_ToolInfo Properties
1070
     8
1000
CMD_LINE@
1002
}
1000
TCW40_DEV_WIDTH
1002
{
1040
-3.0
1002
}
  0
LINE
  5
3C
330
1F
100
AcDbEntity
  8
0
  6
Continuous
 62
     1
420
 16711680
100
AcDbLine
 10
-0.231610963304
 20
-46.865249894424
 30
0.0
 11
11.892389036696
 21
-46.865249894424
 31
0.0
1001
TCAD
1000
TCW_CUSTOM_DATA
1002
{
1000
#$AUX@_ToolInfo Properties
1070
     8
1000
CMD_LINE@
1002
}
1000
TCW40_DEV_WIDTH
1002
{
1040
-3.0
1002
}
  0
LINE
  5
3D
330
1F
100
AcDbEntity
  8
0
  6
Continuous
 62
     1
420
 16711680
100
AcDbLine
 10
-0.231610963304
 20
-46.552749894424
 30
0.0
 11
11.892389036696
 21
-46.552749894424
 31
0.0
1001
TCAD
1000
TCW_CUSTOM_DATA
1002
{
1000
#$AUX@_ToolInfo Properties
1070
     8
1000
CMD_LINE@
1002
}
1000
TCW40_DEV_WIDTH
1002
{
1040
-3.0
1002
}
  0
LINE
  5
3E
330
1F
100
AcDbEntity
  8
0
  6
Continuous
 62
     1
420
 16711680
100
AcDbLine
 10
-0.231610963304
 20
-46.240249894424
 30
0.0
 11
11.892389036696
 21
-46.240249894424
 31
0.0
1001
TCAD
1000
TCW_CUSTOM_DATA
1002
{
1000
#$AUX@_ToolInfo Properties
1070
     8
1000
CMD_LINE@
1002
}
1000
TCW40_DEV_WIDTH
1002
{
1040
-3.0
1002
}
  0
LINE
  5
3F
330
1F
100
AcDbEntity
  8
0
  6
Continuous
 62
     1
420
 16711680
100
AcDbLine
 10
-0.231610963304
 20
-45.927749894424
 30
0.0
 11
11.892389036696
 21
-45.927749894424
 31
0.0
1001
TCAD
1000
TCW_CUSTOM_DATA
1002
{
1000
#$AUX@_ToolInfo Properties
1070
     8
1000
CMD_LINE@
1002
}
1000
TCW40_DEV_WIDTH
1002
{
1040
-3.0
1002
}
  0
LINE
  5
40
330
1F
100
AcDbEntity
  8
0
  6
Continuous
 62
     1
420
 16711680
100
AcDbLine
 10
-0.231610963304
 20
-45.615249894424
 30
0.0
 11
11.892389036696
 21
-45.615249894424
 31
0.0
1001
TCAD
1000
TCW_CUSTOM_DATA
1002
{
1000
#$AUX@_ToolInfo Properties
1070
     8
1000
CMD_LINE@
1002
}
1000
TCW40_DEV_WIDTH
1002
{
1040
-3.0
1002
}
  0
LINE
  5
41
330
1F
100
AcDbEntity
  8
0
  6
Continuous
 62
     1
420
 16711680
100
AcDbLine
 10
-0.231610963304
 20
-45.302749894424
 30
0.0
 11
11.892389036696
 21
-45.302749894424
 31
0.0
1001
TCAD
1000
TCW_CUSTOM_DATA
1002
{
1000
#$AUX@_ToolInfo Properties
1070
     8
1000
CMD_LINE@
1002
}
1000
TCW40_DEV_WIDTH
1002
{
1040
-3.0
1002
}
  0
LINE
  5
42
330
1F
100
AcDbEntity
  8
0
  6
Continuous
 62
     1
420
 16711680
100
AcDbLine
 10
-0.231610963304
 20
-44.990249894424
 30
0.0
 11
11.892389036696
 21
-44.990249894424
 31
0.0
1001
TCAD
1000
TCW_CUSTOM_DATA
1002
{
1000
#$AUX@_ToolInfo Properties
1070
     8
1000
CMD_LINE@
1002
}
1000
TCW40_DEV_WIDTH
1002
{
1040
-3.0
1002
}
  0
LINE
  5
43
330
1F
100
AcDbEntity
  8
0
  6
Continuous
 62
     1
420
 16711680
100
AcDbLine
 10
-0.231610963304
 20
-44.677749894424
 30
0.0
 11
11.892389036696
 21
-44.677749894424
 31
0.0
1001
TCAD
1000
TCW_CUSTOM_DATA
1002
{
1000
#$AUX@_ToolInfo Properties
1070
     8
1000
CMD_LINE@
1002
}
1000
TCW40_DEV_WIDTH
1002
{
1040
-3.0
1002
}
  0
LINE
  5
44
330
1F
100
AcDbEntity
  8
0
  6
Continuous
 62
     1
420
 16711680
100
AcDbLine
 10
-0.231610963304
 20
-44.365249894424
 30
0.0
 11
11.892389036696
 21
-44.365249894424
 31
0.0
1001
TCAD
1000
TCW_CUSTOM_DATA
1002
{
1000
#$AUX@_ToolInfo Properties
1070
     8
1000
CMD_LINE@
1002
}
1000
TCW40_DEV_WIDTH
1002
{
1040
-3.0
1002
}
  0
LINE
  5
45
330
1F
100
AcDbEntity
  8
0
  6
Continuous
 62
     1
420
 16711680
100
AcDbLine
 10
-0.231610963304
 20
-44.052749894424
 30
0.0
 11
11.892389036696
 21
-44.052749894424
 31
0.0
1001
TCAD
1000
TCW_CUSTOM_DATA
1002
{
1000
#$AUX@_ToolInfo Properties
1070
     8
1000
CMD_LINE@
1002
}
1000
TCW40_DEV_WIDTH
1002
{
1040
-3.0
1002
}
  0
LINE
  5
46
330
1F
100
AcDbEntity
  8
0
  6
Continuous
 62
     1
420
 16711680
100
AcDbLine
 10
-0.231610963304
 20
-43.740249894424
 30
0.0
 11
11.892389036696
 21
-43.740249894424
 31
0.0
1001
TCAD
1000
TCW_CUSTOM_DATA
1002
{
1000
#$AUX@_ToolInfo Properties
1070
     8
1000
CMD_LINE@
1002
}
1000
TCW40_DEV_WIDTH
1002
{
1040
-3.0
1002
}
  0
LINE
  5
47
330
1F
100
AcDbEntity
  8
0
  6
Continuous
 62
     1
420
 16711680
100
AcDbLine
 10
-0.231610963304
 20
-43.427749894424
 30
0.0
 11
11.892389036696
 21
-43.427749894424
 31
0.0
1001
TCAD
1000
TCW_CUSTOM_DATA
1002
{
1000
#$AUX@_ToolInfo Properties
1070
     8
1000
CMD_LINE@
1002
}
1000
TCW40_DEV_WIDTH
1002
{
1040
-3.0
1002
}
  0
LINE
  5
48
330
1F
100
AcDbEntity
  8
0
  6
Continuous
 62
     1
420
 16711680
100
AcDbLine
 10
-0.231610963304
 20
-43.115249894424
 30
0.0
 11
11.892389036696
 21
-43.115249894424
 31
0.0
1001
TCAD
1000
TCW_CUSTOM_DATA
1002
{
1000
#$AUX@_ToolInfo Properties
1070
     8
1000
CMD_LINE@
1002
}
1000
TCW40_DEV_WIDTH
1002
{
1040
-3.0
1002
}
  0
LINE
  5
49
330
1F
100
AcDbEntity
  8
0
  6
Continuous
 62
     1
420
 16711680
100
AcDbLine
 10
-0.231610963304
 20
-42.802749894424
 30
0.0
 11
11.892389036696
 21
-42.802749894424
 31
0.0
1001
TCAD
1000
TCW_CUSTOM_DATA
1002
{
1000
#$AUX@_ToolInfo Properties
1070
     8
1000
CMD_LINE@
1002
}
1000
TCW40_DEV_WIDTH
1002
{
1040
-3.0
1002
}
  0
LINE
  5
4A
330
1F
100
AcDbEntity
  8
0
  6
Continuous
 62
     1
420
 16711680
100
AcDbLine
 10
-0.231610963304
 20
-42.490249894424
 30
0.0
 11
11.892389036696
 21
-42.490249894424
 31
0.0
1001
TCAD
1000
TCW_CUSTOM_DATA
1002
{
1000
#$AUX@_ToolInfo Properties
1070
     8
1000
CMD_LINE@
1002
}
1000
TCW40_DEV_WIDTH
1002
{
1040
-3.0
1002
}
  0
LINE
  5
4B
330
1F
100
AcDbEntity
  8
0
  6
Continuous
 62
     1
420
 16711680
100
AcDbLine
 10
-0.231610963304
 20
-42.177749894424
 30
0.0
 11
11.892389036696
 21
-42.177749894424
 31
0.0
1001
TCAD
1000
TCW_CUSTOM_DATA
1002
{
1000
#$AUX@_ToolInfo Properties
1070
     8
1000
CMD_LINE@
1002
}
1000
TCW40_DEV_WIDTH
1002
{
1040
-3.0
1002
}
  0
LINE
  5
4C
330
1F
100
AcDbEntity
  8
0
  6
Continuous
 62
     1
420
 16711680
100
AcDbLine
 10
-0.231610963304
 20
-41.865249894424
 30
0.0
 11
11.892389036696
 21
-41.865249894424
 31
0.0
1001
TCAD
1000
TCW_CUSTOM_DATA
1002
{
1000
#$AUX@_ToolInfo Properties
1070
     8
1000
CMD_LINE@
1002
}
1000
TCW40_DEV_WIDTH
1002
{
1040
-3.0
1002
}
  0
LINE
  5
4D
330
1F
100
AcDbEntity
  8
0
  6
Continuous
 62
     1
420
 16711680
100
AcDbLine
 10
-0.231610963304
 20
-41.552749894424
 30
0.0
 11
11.892389036696
 21
-41.552749894424
 31
0.0
1001
TCAD
1000
TCW_CUSTOM_DATA
1002
{
1000
#$AUX@_ToolInfo Properties
1070
     8
1000
CMD_LINE@
1002
}
1000
TCW40_DEV_WIDTH
1002
{
1040
-3.0
1002
}
  0
LINE
  5
4E
330
1F
100
AcDbEntity
  8
0
  6
Continuous
 62
     1
420
 16711680
100
AcDbLine
 10
-0.231610963304
 20
-41.240249894424
 30
0.0
 11
11.892389036696
 21
-41.240249894424
 31
0.0
1001
TCAD
1000
TCW_CUSTOM_DATA
1002
{
1000
#$AUX@_ToolInfo Properties
1070
     8
1000
CMD_LINE@
1002
}
1000
TCW40_DEV_WIDTH
1002
{
1040
-3.0
1002
}
  0
LINE
  5
4F
330
1F
100
AcDbEntity
  8
0
  6
Continuous
 62
     1
420
 16711680
100
AcDbLine
 10
-0.231610963304
 20
-40.927749894424
 30
0.0
 11
11.892389036696
 21
-40.927749894424
 31
0.0
1001
TCAD
1000
TCW_CUSTOM_DATA
1002
{
1000
#$AUX@_ToolInfo Properties
1070
     8
1000
CMD_LINE@
1002
}
1000
TCW40_DEV_WIDTH
1002
{
1040
-3.0
1002
}
  0
LINE
  5
50
330
1F
100
AcDbEntity
  8
0
  6
Continuous
 62
     1
420
 16711680
100
AcDbLine
 10
-0.231610963304
 20
-40.615249894424
 30
0.0
 11
11.892389036696
 21
-40.615249894424
 31
0.0
1001
TCAD
1000
TCW_CUSTOM_DATA
1002
{
1000
#$AUX@_ToolInfo Properties
1070
     8
1000
CMD_LINE@
1002
}
1000
TCW40_DEV_WIDTH
1002
{
1040
-3.0
1002
}
  0
LINE
  5
51
330
1F
100
AcDbEntity
  8
0
  6
Continuous
 62
     7
100
AcDbLine
 10
-0.919610963304
 20
-39.927749894424
 30
0.0
 11
12.580389036696
 21
-39.927749894424
 31
0.0
1001
TCAD
1000
TCW_CUSTOM_DATA
1002
{
1000
#$AUX@_ToolInfo Properties
1070
     8
1000
CMD_MEET2LINES_V@
1002
}
1000
TCW40_DEV_WIDTH
1002
{
1040
-3.0
1002
}
  0
LWPOLYLINE
  5
52
330
1F
100
AcDbEntity
  8
0
  6
Continuous
 62
     7
100
AcDbPolyline
 90
        4
 70
   129
 43
0.0
 10
-0.231610963304
 20
-47.177749894424
 10
11.892389036696
 20
-47.177749894424
 10
11.892389036696
 20
-46.990249894424
 10
-0.231610963304
 20
-46.990249894424
1001
TCAD
1000
TCW_CUSTOM_DATA
1002
{
1000
#$AUX@_ToolInfo Properties
1070
     8
1000
CMD_RECTANGLE@
1002
}
1000
TCW40_DEV_WIDTH
1002
{
1040
-3.0
1002
}
  0
LWPOLYLINE
  5
53
330
1F
100
AcDbEntity
  8
0
  6
Continuous
 62
     7
100
AcDbPolyline
 90
        4
 70
   129
 43
0.0
 10
-0.231610963304
 20
-47.177749894424
 10
11.892389036696
 20
-47.177749894424
 10
11.892389036696
 20
-46.990249894424
 10
-0.231610963304
 20
-46.990249894424
1001
TCAD
1000
TCW40_DEV_WIDTH
1002
{
1040
-3.0
1002
}
  0
HATCH
  5
54
330
1F
100
AcDbEntity
  8
0
  6
Continuous
 62
     7
100
AcDbHatch
 10
0.0
 20
0.0
 30
0.0
210
0.0
220
0.0
230
1.0
  2
ANSI35
 70
     0
 71
     0
 91
        1
 92
        3
 72
     0
 73
     1
 93
        4
 10
-0.2316109633038357
 20
-47.17774989442401
 10
11.89238903669617
 20
-47.17774989442401
 10
11.89238903669617
 20
-46.990249894424
 10
-0.2316109633038357
 20
-46.990249894424
 97
        0
 75
     0
 76
     1
 52
0.0
 41
0.4000000059604645
 77
     0
 78
     2
 53
45.0
 43
0.0707106790540821
 44
0.0
 45
-0.0707106791724081
 46
0.0707106791724081
 79
     4
 49
0.1250000018631451
 49
-0.025000000373029
 49
0.0001750000030002
 49
-0.0248250003700288
 53
45.0
 43
0.0
 44
0.0
 45
-0.0707106791724081
 46
0.0707106791724081
 79
     1
 49
0.4000000059604645
 98
        0
  0
LWPOLYLINE
  5
55
330
1F
100
AcDbEntity
  8
0
  6
Continuous
 62
     7
100
AcDbPolyline
 90
        4
 70
   129
 43
0.0
 10
-0.231610963304
 20
-46.865249894424
 10
11.892389036696
 20
-46.865249894424
 10
11.892389036696
 20
-46.677749894424
 10
-0.231610963304
 20
-46.677749894424
1001
TCAD
1000
TCW_CUSTOM_DATA
1002
{
1000
#$AUX@_ToolInfo Properties
1070
     8
1000
CMD_RECTANGLE@
1002
}
1000
TCW40_DEV_WIDTH
1002
{
1040
-3.0
1002
}
  0
LWPOLYLINE
  5
56
330
1F
100
AcDbEntity
  8
0
  6
Continuous
 62
     7
100
AcDbPolyline
 90
        4
 70
   129
 43
0.0
 10
-0.231610963304
 20
-46.552749894424
 10
11.892389036696
 20
-46.552749894424
 10
11.892389036696
 20
-46.365249894424
 10
-0.231610963304
 20
-46.365249894424
1001
TCAD
1000
TCW_CUSTOM_DATA
1002
{
1000
#$AUX@_ToolInfo Properties
1070
     8
1000
CMD_RECTANGLE@
1002
}
1000
TCW40_DEV_WIDTH
1002
{
1040
-3.0
1002
}
  0
LWPOLYLINE
  5
57
330
1F
100
AcDbEntity
  8
0
  6
Continuous
 62
     7
100
AcDbPolyline
 90
        4
 70
   129
 43
0.0
 10
-0.231610963304
 20
-46.240249894424
 10
11.892389036696
 20
-46.240249894424
 10
11.892389036696
 20
-46.052749894424
 10
-0.231610963304
 20
-46.052749894424
1001
TCAD
1000
TCW_CUSTOM_DATA
1002
{
1000
#$AUX@_ToolInfo Properties
1070
     8
1000
CMD_RECTANGLE@
1002
}
1000
TCW40_DEV_WIDTH
1002
{
1040
-3.0
1002
}
  0
LWPOLYLINE
  5
58
330
1F
100
AcDbEntity
  8
0
  6
Continuous
 62
     7
100
AcDbPolyline
 90
        4
 70
   129
 43
0.0
 10
-0.231610963304
 20
-45.927749894424
 10
11.892389036696
 20
-45.927749894424
 10
11.892389036696
 20
-45.740249894424
 10
-0.231610963304
 20
-45.740249894424
1001
TCAD
1000
TCW_CUSTOM_DATA
1002
{
1000
#$AUX@_ToolInfo Properties
1070
     8
1000
CMD_RECTANGLE@
1002
}
1000
TCW40_DEV_WIDTH
1002
{
1040
-3.0
1002
}
  0
LWPOLYLINE
  5
59
330
1F
100
AcDbEntity
  8
0
  6
Continuous
 62
     7
100
AcDbPolyline
 90
        4
 70
   129
 43
0.0
 10
-0.231610963304
 20
-45.615249894424
 10
11.892389036696
 20
-45.615249894424
 10
11.892389036696
 20
-45.427749894424
 10
-0.231610963304
 20
-45.427749894424
1001
TCAD
1000
TCW_CUSTOM_DATA
1002
{
1000
#$AUX@_ToolInfo Properties
1070
     8
1000
CMD_RECTANGLE@
1002
}
1000
TCW40_DEV_WIDTH
1002
{
1040
-3.0
1002
}
  0
LWPOLYLINE
  5
5A
330
1F
100
AcDbEntity
  8
0
  6
Continuous
 62
     7
100
AcDbPolyline
 90
        4
 70
   129
 43
0.0
 10
-0.231610963304
 20
-45.302749894424
 10
11.892389036696
 20
-45.302749894424
 10
11.892389036696
 20
-45.115249894424
 10
-0.231610963304
 20
-45.115249894424
1001
TCAD
1000
TCW_CUSTOM_DATA
1002
{
1000
#$AUX@_ToolInfo Properties
1070
     8
1000
CMD_RECTANGLE@
1002
}
1000
TCW40_DEV_WIDTH
1002
{
1040
-3.0
1002
}
  0
LWPOLYLINE
  5
5B
330
1F
100
AcDbEntity
  8
0
  6
Continuous
 62
     7
100
AcDbPolyline
 90
        4
 70
   129
 43
0.0
 10
-0.231610963304
 20
-44.990249894424
 10
11.892389036696
 20
-44.990249894424
 10
11.892389036696
 20
-44.802749894424
 10
-0.231610963304
 20
-44.802749894424
1001
TCAD
1000
TCW_CUSTOM_DATA
1002
{
1000
#$AUX@_ToolInfo Properties
1070
     8
1000
CMD_RECTANGLE@
1002
}
1000
TCW40_DEV_WIDTH
1002
{
1040
-3.0
1002
}
  0
LWPOLYLINE
  5
5C
330
1F
100
AcDbEntity
  8
0
  6
Continuous
 62
     7
100
AcDbPolyline
 90
        4
 70
   129
 43
0.0
 10
-0.231610963304
 20
-44.677749894424
 10
11.892389036696
 20
-44.677749894424
 10
11.892389036696
 20
-44.490249894424
 10
-0.231610963304
 20
-44.490249894424
1001
TCAD
1000
TCW_CUSTOM_DATA
1002
{
1000
#$AUX@_ToolInfo Properties
1070
     8
1000
CMD_RECTANGLE@
1002
}
1000
TCW40_DEV_WIDTH
1002
{
1040
-3.0
1002
}
  0
LWPOLYLINE
  5
5D
330
1F
100
AcDbEntity
  8
0
  6
Continuous
 62
     7
100
AcDbPolyline
 90
        4
 70
   129
 43
0.0
 10
-0.231610963304
 20
-44.365249894424
 10
11.892389036696
 20
-44.365249894424
 10
11.892389036696
 20
-44.177749894424
 10
-0.231610963304
 20
-44.177749894424
1001
TCAD
1000
TCW_CUSTOM_DATA
1002
{
1000
#$AUX@_ToolInfo Properties
1070
     8
1000
CMD_RECTANGLE@
1002
}
1000
TCW40_DEV_WIDTH
1002
{
1040
-3.0
1002
}
  0
LWPOLYLINE
  5
5E
330
1F
100
AcDbEntity
  8
0
  6
Continuous
 62
     7
100
AcDbPolyline
 90
        4
 70
   129
 43
0.0
 10
-0.231610963304
 20
-44.052749894424
 10
11.892389036696
 20
-44.052749894424
 10
11.892389036696
 20
-43.865249894424
 10
-0.231610963304
 20
-43.865249894424
1001
TCAD
1000
TCW_CUSTOM_DATA
1002
{
1000
#$AUX@_ToolInfo Properties
1070
     8
1000
CMD_RECTANGLE@
1002
}
1000
TCW40_DEV_WIDTH
1002
{
1040
-3.0
1002
}
  0
LWPOLYLINE
  5
5F
330
1F
100
AcDbEntity
  8
0
  6
Continuous
 62
     7
100
AcDbPolyline
 90
        4
 70
   129
 43
0.0
 10
-0.231610963304
 20
-43.740249894424
 10
11.892389036696
 20
-43.740249894424
 10
11.892389036696
 20
-43.552749894424
 10
-0.231610963304
 20
-43.552749894424
1001
TCAD
1000
TCW_CUSTOM_DATA
1002
{
1000
#$AUX@_ToolInfo Properties
1070
     8
1000
CMD_RECTANGLE@
1002
}
1000
TCW40_DEV_WIDTH
1002
{
1040
-3.0
1002
}
  0
LWPOLYLINE
  5
60
330
1F
100
AcDbEntity
  8
0
  6
Continuous
 62
     7
100
AcDbPolyline
 90
        4
 70
   129
 43
0.0
 10
-0.231610963304
 20
-43.427749894424
 10
11.892389036696
 20
-43.427749894424
 10
11.892389036696
 20
-43.240249894424
 10
-0.231610963304
 20
-43.240249894424
1001
TCAD
1000
TCW_CUSTOM_DATA
1002
{
1000
#$AUX@_ToolInfo Properties
1070
     8
1000
CMD_RECTANGLE@
1002
}
1000
TCW40_DEV_WIDTH
1002
{
1040
-3.0
1002
}
  0
LWPOLYLINE
  5
61
330
1F
100
AcDbEntity
  8
0
  6
Continuous
 62
     7
100
AcDbPolyline
 90
        4
 70
   129
 43
0.0
 10
-0.231610963304
 20
-43.115249894424
 10
11.892389036696
 20
-43.115249894424
 10
11.892389036696
 20
-42.927749894424
 10
-0.231610963304
 20
-42.927749894424
1001
TCAD
1000
TCW_CUSTOM_DATA
1002
{
1000
#$AUX@_ToolInfo Properties
1070
     8
1000
CMD_RECTANGLE@
1002
}
1000
TCW40_DEV_WIDTH
1002
{
1040
-3.0
1002
}
  0
LWPOLYLINE
  5
62
330
1F
100
AcDbEntity
  8
0
  6
Continuous
 62
     7
100
AcDbPolyline
 90
        4
 70
   129
 43
0.0
 10
-0.231610963304
 20
-42.802749894424
 10
11.892389036696
 20
-42.802749894424
 10
11.892389036696
 20
-42.615249894424
 10
-0.231610963304
 20
-42.615249894424
1001
TCAD
1000
TCW_CUSTOM_DATA
1002
{
1000
#$AUX@_ToolInfo Properties
1070
     8
1000
CMD_RECTANGLE@
1002
}
1000
TCW40_DEV_WIDTH
1002
{
1040
-3.0
1002
}
  0
LWPOLYLINE
  5
63
330
1F
100
AcDbEntity
  8
0
  6
Continuous
 62
     7
100
AcDbPolyline
 90
        4
 70
   129
 43
0.0
 10
-0.231610963304
 20
-42.490249894424
 10
11.892389036696
 20
-42.490249894424
 10
11.892389036696
 20
-42.302749894424
 10
-0.231610963304
 20
-42.302749894424
1001
TCAD
1000
TCW_CUSTOM_DATA
1002
{
1000
#$AUX@_ToolInfo Properties
1070
     8
1000
CMD_RECTANGLE@
1002
}
1000
TCW40_DEV_WIDTH
1002
{
1040
-3.0
1002
}
  0
LWPOLYLINE
  5
64
330
1F
100
AcDbEntity
  8
0
  6
Continuous
 62
     7
100
AcDbPolyline
 90
        4
 70
   129
 43
0.0
 10
-0.231610963304
 20
-42.177749894424
 10
11.892389036696
 20
-42.177749894424
 10
11.892389036696
 20
-41.990249894424
 10
-0.231610963304
 20
-41.990249894424
1001
TCAD
1000
TCW_CUSTOM_DATA
1002
{
1000
#$AUX@_ToolInfo Properties
1070
     8
1000
CMD_RECTANGLE@
1002
}
1000
TCW40_DEV_WIDTH
1002
{
1040
-3.0
1002
}
  0
LWPOLYLINE
  5
65
330
1F
100
AcDbEntity
  8
0
  6
Continuous
 62
     7
100
AcDbPolyline
 90
        4
 70
   129
 43
0.0
 10
-0.231610963304
 20
-41.865249894424
 10
11.892389036696
 20
-41.865249894424
 10
11.892389036696
 20
-41.677749894424
 10
-0.231610963304
 20
-41.677749894424
1001
TCAD
1000
TCW_CUSTOM_DATA
1002
{
1000
#$AUX@_ToolInfo Properties
1070
     8
1000
CMD_RECTANGLE@
1002
}
1000
TCW40_DEV_WIDTH
1002
{
1040
-3.0
1002
}
  0
LWPOLYLINE
  5
66
330
1F
100
AcDbEntity
  8
0
  6
Continuous
 62
     7
100
AcDbPolyline
 90
        4
 70
   129
 43
0.0
 10
-0.231610963304
 20
-41.552749894424
 10
11.892389036696
 20
-41.552749894424
 10
11.892389036696
 20
-41.365249894424
 10
-0.231610963304
 20
-41.365249894424
1001
TCAD
1000
TCW_CUSTOM_DATA
1002
{
1000
#$AUX@_ToolInfo Properties
1070
     8
1000
CMD_RECTANGLE@
1002
}
1000
TCW40_DEV_WIDTH
1002
{
1040
-3.0
1002
}
  0
LWPOLYLINE
  5
67
330
1F
100
AcDbEntity
  8
0
  6
Continuous
 62
     7
100
AcDbPolyline
 90
        4
 70
   129
 43
0.0
 10
-0.231610963304
 20
-41.240249894424
 10
11.892389036696
 20
-41.240249894424
 10
11.892389036696
 20
-41.052749894424
 10
-0.231610963304
 20
-41.052749894424
1001
TCAD
1000
TCW_CUSTOM_DATA
1002
{
1000
#$AUX@_ToolInfo Properties
1070
     8
1000
CMD_RECTANGLE@
1002
}
1000
TCW40_DEV_WIDTH
1002
{
1040
-3.0
1002
}
  0
LWPOLYLINE
  5
68
330
1F
100
AcDbEntity
  8
0
  6
Continuous
 62
     7
100
AcDbPolyline
 90
        4
 70
   129
 43
0.0
 10
-0.231610963304
 20
-40.927749894424
 10
11.892389036696
 20
-40.927749894424
 10
11.892389036696
 20
-40.740249894424
 10
-0.231610963304
 20
-40.740249894424
1001
TCAD
1000
TCW_CUSTOM_DATA
1002
{
1000
#$AUX@_ToolInfo Properties
1070
     8
1000
CMD_RECTANGLE@
1002
}
1000
TCW40_DEV_WIDTH
1002
{
1040
-3.0
1002
}
  0
LWPOLYLINE
  5
69
330
1F
100
AcDbEntity
  8
0
  6
Continuous
 62
     7
100
AcDbPolyline
 90
        4
 70
   129
 43
0.0
 10
-0.231610963304
 20
-46.865249894424
 10
11.892389036696
 20
-46.865249894424
 10
11.892389036696
 20
-46.677749894424
 10
-0.231610963304
 20
-46.677749894424
1001
TCAD
1000
TCW40_DEV_WIDTH
1002
{
1040
-3.0
1002
}
  0
HATCH
  5
6A
330
1F
100
AcDbEntity
  8
0
  6
Continuous
 62
     7
100
AcDbHatch
 10
0.0
 20
0.0
 30
0.0
210
0.0
220
0.0
230
1.0
  2
ANSI35
 70
     0
 71
     0
 91
        1
 92
        3
 72
     0
 73
     1
 93
        4
 10
-0.2316109633038357
 20
-46.86524989442401
 10
11.89238903669617
 20
-46.86524989442401
 10
11.89238903669617
 20
-46.677749894424
 10
-0.2316109633038357
 20
-46.677749894424
 97
        0
 75
     0
 76
     1
 52
0.0
 41
0.4000000059604645
 77
     0
 78
     2
 53
45.0
 43
0.0707106790540821
 44
0.0
 45
-0.0707106791724081
 46
0.0707106791724081
 79
     4
 49
0.1250000018631451
 49
-0.025000000373029
 49
0.0001750000030002
 49
-0.0248250003700288
 53
45.0
 43
0.0
 44
0.0
 45
-0.0707106791724081
 46
0.0707106791724081
 79
     1
 49
0.4000000059604645
 98
        0
  0
LWPOLYLINE
  5
6B
330
1F
100
AcDbEntity
  8
0
  6
Continuous
 62
     7
100
AcDbPolyline
 90
        4
 70
   129
 43
0.0
 10
-0.231610963304
 20
-46.552749894424
 10
11.892389036696
 20
-46.552749894424
 10
11.892389036696
 20
-46.365249894424
 10
-0.231610963304
 20
-46.365249894424
1001
TCAD
1000
TCW40_DEV_WIDTH
1002
{
1040
-3.0
1002
}
  0
HATCH
  5
6C
330
1F
100
AcDbEntity
  8
0
  6
Continuous
 62
     7
100
AcDbHatch
 10
0.0
 20
0.0
 30
0.0
210
0.0
220
0.0
230
1.0
  2
ANSI35
 70
     0
 71
     0
 91
        1
 92
        3
 72
     0
 73
     1
 93
        4
 10
-0.2316109633038357
 20
-46.55274989442401
 10
11.89238903669617
 20
-46.55274989442401
 10
11.89238903669617
 20
-46.365249894424
 10
-0.2316109633038357
 20
-46.365249894424
 97
        0
 75
     0
 76
     1
 52
0.0
 41
0.4000000059604645
 77
     0
 78
     2
 53
45.0
 43
0.0707106790540821
 44
0.0
 45
-0.0707106791724081
 46
0.0707106791724081
 79
     4
 49
0.1250000018631451
 49
-0.025000000373029
 49
0.0001750000030002
 49
-0.0248250003700288
 53
45.0
 43
0.0
 44
0.0
 45
-0.0707106791724081
 46
0.0707106791724081
 79
     1
 49
0.4000000059604645
 98
        0
  0
LWPOLYLINE
  5
6D
330
1F
100
AcDbEntity
  8
0
  6
Continuous
 62
     7
100
AcDbPolyline
 90
        4
 70
   129
 43
0.0
 10
-0.231610963304
 20
-46.240249894424
 10
11.892389036696
 20
-46.240249894424
 10
11.892389036696
 20
-46.052749894424
 10
-0.231610963304
 20
-46.052749894424
1001
TCAD
1000
TCW40_DEV_WIDTH
1002
{
1040
-3.0
1002
}
  0
HATCH
  5
6E
330
1F
100
AcDbEntity
  8
0
  6
Continuous
 62
     7
100
AcDbHatch
 10
0.0
 20
0.0
 30
0.0
210
0.0
220
0.0
230
1.0
  2
ANSI35
 70
     0
 71
     0
 91
        1
 92
        3
 72
     0
 73
     1
 93
        4
 10
-0.2316109633038357
 20
-46.24024989442401
 10
11.89238903669617
 20
-46.24024989442401
 10
11.89238903669617
 20
-46.052749894424
 10
-0.2316109633038357
 20
-46.052749894424
 97
        0
 75
     0
 76
     1
 52
0.0
 41
0.4000000059604645
 77
     0
 78
     2
 53
45.0
 43
0.0707106790540821
 44
0.0
 45
-0.0707106791724081
 46
0.0707106791724081
 79
     4
 49
0.1250000018631451
 49
-0.025000000373029
 49
0.0001750000030002
 49
-0.0248250003700288
 53
45.0
 43
0.0
 44
0.0
 45
-0.0707106791724081
 46
0.0707106791724081
 79
     1
 49
0.4000000059604645
 98
        0
  0
LWPOLYLINE
  5
6F
330
1F
100
AcDbEntity
  8
0
  6
Continuous
 62
     7
100
AcDbPolyline
 90
        4
 70
   129
 43
0.0
 10
-0.231610963304
 20
-45.927749894424
 10
11.892389036696
 20
-45.927749894424
 10
11.892389036696
 20
-45.740249894424
 10
-0.231610963304
 20
-45.740249894424
1001
TCAD
1000
TCW40_DEV_WIDTH
1002
{
1040
-3.0
1002
}
  0
HATCH
  5
70
330
1F
100
AcDbEntity
  8
0
  6
Continuous
 62
     7
100
AcDbHatch
 10
0.0
 20
0.0
 30
0.0
210
0.0
220
0.0
230
1.0
  2
ANSI35
 70
     0
 71
     0
 91
        1
 92
        3
 72
     0
 73
     1
 93
        4
 10
-0.2316109633038357
 20
-45.92774989442401
 10
11.89238903669617
 20
-45.92774989442401
 10
11.89238903669617
 20
-45.740249894424
 10
-0.2316109633038357
 20
-45.740249894424
 97
        0
 75
     0
 76
     1
 52
0.0
 41
0.4000000059604645
 77
     0
 78
     2
 53
45.0
 43
0.0707106790540821
 44
0.0
 45
-0.0707106791724081
 46
0.0707106791724081
 79
     4
 49
0.1250000018631451
 49
-0.025000000373029
 49
0.0001750000030002
 49
-0.0248250003700288
 53
45.0
 43
0.0
 44
0.0
 45
-0.0707106791724081
 46
0.0707106791724081
 79
     1
 49
0.4000000059604645
 98
        0
  0
LWPOLYLINE
  5
71
330
1F
100
AcDbEntity
  8
0
  6
Continuous
 62
     7
100
AcDbPolyline
 90
        4
 70
   129
 43
0.0
 10
-0.231610963304
 20
-45.615249894424
 10
11.892389036696
 20
-45.615249894424
 10
11.892389036696
 20
-45.427749894424
 10
-0.231610963304
 20
-45.427749894424
1001
TCAD
1000
TCW40_DEV_WIDTH
1002
{
1040
-3.0
1002
}
  0
HATCH
  5
72
330
1F
100
AcDbEntity
  8
0
  6
Continuous
 62
     7
100
AcDbHatch
 10
0.0
 20
0.0
 30
0.0
210
0.0
220
0.0
230
1.0
  2
ANSI35
 70
     0
 71
     0
 91
        1
 92
        3
 72
     0
 73
     1
 93
        4
 10
-0.2316109633038357
 20
-45.61524989442401
 10
11.89238903669617
 20
-45.61524989442401
 10
11.89238903669617
 20
-45.427749894424
 10
-0.2316109633038357
 20
-45.427749894424
 97
        0
 75
     0
 76
     1
 52
0.0
 41
0.4000000059604645
 77
     0
 78
     2
 53
45.0
 43
0.0707106790540821
 44
0.0
 45
-0.0707106791724081
 46
0.0707106791724081
 79
     4
 49
0.1250000018631451
 49
-0.025000000373029
 49
0.0001750000030002
 49
-0.0248250003700288
 53
45.0
 43
0.0
 44
0.0
 45
-0.0707106791724081
 46
0.0707106791724081
 79
     1
 49
0.4000000059604645
 98
        0
  0
LWPOLYLINE
  5
73
330
1F
100
AcDbEntity
  8
0
  6
Continuous
 62
     7
100
AcDbPolyline
 90
        4
 70
   129
 43
0.0
 10
-0.231610963304
 20
-45.302749894424
 10
11.892389036696
 20
-45.302749894424
 10
11.892389036696
 20
-45.115249894424
 10
-0.231610963304
 20
-45.115249894424
1001
TCAD
1000
TCW40_DEV_WIDTH
1002
{
1040
-3.0
1002
}
  0
HATCH
  5
74
330
1F
100
AcDbEntity
  8
0
  6
Continuous
 62
     7
100
AcDbHatch
 10
0.0
 20
0.0
 30
0.0
210
0.0
220
0.0
230
1.0
  2
ANSI35
 70
     0
 71
     0
 91
        1
 92
        3
 72
     0
 73
     1
 93
        4
 10
-0.2316109633038357
 20
-45.30274989442401
 10
11.89238903669617
 20
-45.30274989442401
 10
11.89238903669617
 20
-45.115249894424
 10
-0.2316109633038357
 20
-45.115249894424
 97
        0
 75
     0
 76
     1
 52
0.0
 41
0.4000000059604645
 77
     0
 78
     2
 53
45.0
 43
0.0707106790540821
 44
0.0
 45
-0.0707106791724081
 46
0.0707106791724081
 79
     4
 49
0.1250000018631451
 49
-0.025000000373029
 49
0.0001750000030002
 49
-0.0248250003700288
 53
45.0
 43
0.0
 44
0.0
 45
-0.0707106791724081
 46
0.0707106791724081
 79
     1
 49
0.4000000059604645
 98
        0
  0
LWPOLYLINE
  5
75
330
1F
100
AcDbEntity
  8
0
  6
Continuous
 62
     7
100
AcDbPolyline
 90
        4
 70
   129
 43
0.0
 10
-0.231610963304
 20
-44.990249894424
 10
11.892389036696
 20
-44.990249894424
 10
11.892389036696
 20
-44.802749894424
 10
-0.231610963304
 20
-44.802749894424
1001
TCAD
1000
TCW40_DEV_WIDTH
1002
{
1040
-3.0
1002
}
  0
HATCH
  5
76
330
1F
100
AcDbEntity
  8
0
  6
Continuous
 62
     7
100
AcDbHatch
 10
0.0
 20
0.0
 30
0.0
210
0.0
220
0.0
230
1.0
  2
ANSI35
 70
     0
 71
     0
 91
        1
 92
        3
 72
     0
 73
     1
 93
        4
 10
-0.2316109633038357
 20
-44.99024989442401
 10
11.89238903669617
 20
-44.99024989442401
 10
11.89238903669617
 20
-44.802749894424
 10
-0.2316109633038357
 20
-44.802749894424
 97
        0
 75
     0
 76
     1
 52
0.0
 41
0.4000000059604645
 77
     0
 78
     2
 53
45.0
 43
0.0707106790540821
 44
0.0
 45
-0.0707106791724081
 46
0.0707106791724081
 79
     4
 49
0.1250000018631451
 49
-0.025000000373029
 49
0.0001750000030002
 49
-0.0248250003700288
 53
45.0
 43
0.0
 44
0.0
 45
-0.0707106791724081
 46
0.0707106791724081
 79
     1
 49
0.4000000059604645
 98
        0
  0
LWPOLYLINE
  5
77
330
1F
100
AcDbEntity
  8
0
  6
Continuous
 62
     7
100
AcDbPolyline
 90
        4
 70
   129
 43
0.0
 10
-0.231610963304
 20
-44.677749894424
 10
11.892389036696
 20
-44.677749894424
 10
11.892389036696
 20
-44.490249894424
 10
-0.231610963304
 20
-44.490249894424
1001
TCAD
1000
TCW40_DEV_WIDTH
1002
{
1040
-3.0
1002
}
  0
HATCH
  5
78
330
1F
100
AcDbEntity
  8
0
  6
Continuous
 62
     7
100
AcDbHatch
 10
0.0
 20
0.0
 30
0.0
210
0.0
220
0.0
230
1.0
  2
ANSI35
 70
     0
 71
     0
 91
        1
 92
        3
 72
     0
 73
     1
 93
        4
 10
-0.2316109633038357
 20
-44.67774989442401
 10
11.89238903669617
 20
-44.67774989442401
 10
11.89238903669617
 20
-44.490249894424
 10
-0.2316109633038357
 20
-44.490249894424
 97
        0
 75
     0
 76
     1
 52
0.0
 41
0.4000000059604645
 77
     0
 78
     2
 53
45.0
 43
0.0707106790540821
 44
0.0
 45
-0.0707106791724081
 46
0.0707106791724081
 79
     4
 49
0.1250000018631451
 49
-0.025000000373029
 49
0.0001750000030002
 49
-0.0248250003700288
 53
45.0
 43
0.0
 44
0.0
 45
-0.0707106791724081
 46
0.0707106791724081
 79
     1
 49
0.4000000059604645
 98
        0
  0
LWPOLYLINE
  5
79
330
1F
100
AcDbEntity
  8
0
  6
Continuous
 62
     7
100
AcDbPolyline
 90
        4
 70
   129
 43
0.0
 10
-0.231610963304
 20
-44.365249894424
 10
11.892389036696
 20
-44.365249894424
 10
11.892389036696
 20
-44.177749894424
 10
-0.231610963304
 20
-44.177749894424
1001
TCAD
1000
TCW40_DEV_WIDTH
1002
{
1040
-3.0
1002
}
  0
HATCH
  5
7A
330
1F
100
AcDbEntity
  8
0
  6
Continuous
 62
     7
100
AcDbHatch
 10
0.0
 20
0.0
 30
0.0
210
0.0
220
0.0
230
1.0
  2
ANSI35
 70
     0
 71
     0
 91
        1
 92
        3
 72
     0
 73
     1
 93
        4
 10
-0.2316109633038357
 20
-44.36524989442401
 10
11.89238903669617
 20
-44.36524989442401
 10
11.89238903669617
 20
-44.177749894424
 10
-0.2316109633038357
 20
-44.177749894424
 97
        0
 75
     0
 76
     1
 52
0.0
 41
0.4000000059604645
 77
     0
 78
     2
 53
45.0
 43
0.0707106790540821
 44
0.0
 45
-0.0707106791724081
 46
0.0707106791724081
 79
     4
 49
0.1250000018631451
 49
-0.025000000373029
 49
0.0001750000030002
 49
-0.0248250003700288
 53
45.0
 43
0.0
 44
0.0
 45
-0.0707106791724081
 46
0.0707106791724081
 79
     1
 49
0.4000000059604645
 98
        0
  0
LWPOLYLINE
  5
7B
330
1F
100
AcDbEntity
  8
0
  6
Continuous
 62
     7
100
AcDbPolyline
 90
        4
 70
   129
 43
0.0
 10
-0.231610963304
 20
-44.052749894424
 10
11.892389036696
 20
-44.052749894424
 10
11.892389036696
 20
-43.865249894424
 10
-0.231610963304
 20
-43.865249894424
1001
TCAD
1000
TCW40_DEV_WIDTH
1002
{
1040
-3.0
1002
}
  0
HATCH
  5
7C
330
1F
100
AcDbEntity
  8
0
  6
Continuous
 62
     7
100
AcDbHatch
 10
0.0
 20
0.0
 30
0.0
210
0.0
220
0.0
230
1.0
  2
ANSI35
 70
     0
 71
     0
 91
        1
 92
        3
 72
     0
 73
     1
 93
        4
 10
-0.2316109633038357
 20
-44.05274989442401
 10
11.89238903669617
 20
-44.05274989442401
 10
11.89238903669617
 20
-43.865249894424
 10
-0.2316109633038357
 20
-43.865249894424
 97
        0
 75
     0
 76
     1
 52
0.0
 41
0.4000000059604645
 77
     0
 78
     2
 53
45.0
 43
0.0707106790540821
 44
0.0
 45
-0.0707106791724081
 46
0.0707106791724081
 79
     4
 49
0.1250000018631451
 49
-0.025000000373029
 49
0.0001750000030002
 49
-0.0248250003700288
 53
45.0
 43
0.0
 44
0.0
 45
-0.0707106791724081
 46
0.0707106791724081
 79
     1
 49
0.4000000059604645
 98
        0
  0
LWPOLYLINE
  5
7D
330
1F
100
AcDbEntity
  8
0
  6
Continuous
 62
     7
100
AcDbPolyline
 90
        4
 70
   129
 43
0.0
 10
-0.231610963304
 20
-43.740249894424
 10
11.892389036696
 20
-43.740249894424
 10
11.892389036696
 20
-43.552749894424
 10
-0.231610963304
 20
-43.552749894424
1001
TCAD
1000
TCW40_DEV_WIDTH
1002
{
1040
-3.0
1002
}
  0
HATCH
  5
7E
330
1F
100
AcDbEntity
  8
0
  6
Continuous
 62
     7
100
AcDbHatch
 10
0.0
 20
0.0
 30
0.0
210
0.0
220
0.0
230
1.0
  2
ANSI35
 70
     0
 71
     0
 91
        1
 92
        3
 72
     0
 73
     1
 93
        4
 10
-0.2316109633038357
 20
-43.74024989442401
 10
11.89238903669617
 20
-43.74024989442401
 10
11.89238903669617
 20
-43.552749894424
 10
-0.2316109633038357
 20
-43.552749894424
 97
        0
 75
     0
 76
     1
 52
0.0
 41
0.4000000059604645
 77
     0
 78
     2
 53
45.0
 43
0.0707106790540821
 44
0.0
 45
-0.0707106791724081
 46
0.0707106791724081
 79
     4
 49
0.1250000018631451
 49
-0.025000000373029
 49
0.0001750000030002
 49
-0.0248250003700288
 53
45.0
 43
0.0
 44
0.0
 45
-0.0707106791724081
 46
0.0707106791724081
 79
     1
 49
0.4000000059604645
 98
        0
  0
LWPOLYLINE
  5
7F
330
1F
100
AcDbEntity
  8
0
  6
Continuous
 62
     7
100
AcDbPolyline
 90
        4
 70
   129
 43
0.0
 10
-0.231610963304
 20
-43.427749894424
 10
11.892389036696
 20
-43.427749894424
 10
11.892389036696
 20
-43.240249894424
 10
-0.231610963304
 20
-43.240249894424
1001
TCAD
1000
TCW40_DEV_WIDTH
1002
{
1040
-3.0
1002
}
  0
HATCH
  5
80
330
1F
100
AcDbEntity
  8
0
  6
Continuous
 62
     7
100
AcDbHatch
 10
0.0
 20
0.0
 30
0.0
210
0.0
220
0.0
230
1.0
  2
ANSI35
 70
     0
 71
     0
 91
        1
 92
        3
 72
     0
 73
     1
 93
        4
 10
-0.2316109633038357
 20
-43.42774989442401
 10
11.89238903669617
 20
-43.42774989442401
 10
11.89238903669617
 20
-43.240249894424
 10
-0.2316109633038357
 20
-43.240249894424
 97
        0
 75
     0
 76
     1
 52
0.0
 41
0.4000000059604645
 77
     0
 78
     2
 53
45.0
 43
0.0707106790540821
 44
0.0
 45
-0.0707106791724081
 46
0.0707106791724081
 79
     4
 49
0.1250000018631451
 49
-0.025000000373029
 49
0.0001750000030002
 49
-0.0248250003700288
 53
45.0
 43
0.0
 44
0.0
 45
-0.0707106791724081
 46
0.0707106791724081
 79
     1
 49
0.4000000059604645
 98
        0
  0
LWPOLYLINE
  5
81
330
1F
100
AcDbEntity
  8
0
  6
Continuous
 62
     7
100
AcDbPolyline
 90
        4
 70
   129
 43
0.0
 10
-0.231610963304
 20
-43.115249894424
 10
11.892389036696
 20
-43.115249894424
 10
11.892389036696
 20
-42.927749894424
 10
-0.231610963304
 20
-42.927749894424
1001
TCAD
1000
TCW40_DEV_WIDTH
1002
{
1040
-3.0
1002
}
  0
HATCH
  5
82
330
1F
100
AcDbEntity
  8
0
  6
Continuous
 62
     7
100
AcDbHatch
 10
0.0
 20
0.0
 30
0.0
210
0.0
220
0.0
230
1.0
  2
ANSI35
 70
     0
 71
     0
 91
        1
 92
        3
 72
     0
 73
     1
 93
        4
 10
-0.2316109633038357
 20
-43.11524989442401
 10
11.89238903669617
 20
-43.11524989442401
 10
11.89238903669617
 20
-42.927749894424
 10
-0.2316109633038357
 20
-42.927749894424
 97
        0
 75
     0
 76
     1
 52
0.0
 41
0.4000000059604645
 77
     0
 78
     2
 53
45.0
 43
0.0707106790540821
 44
0.0
 45
-0.0707106791724081
 46
0.0707106791724081
 79
     4
 49
0.1250000018631451
 49
-0.025000000373029
 49
0.0001750000030002
 49
-0.0248250003700288
 53
45.0
 43
0.0
 44
0.0
 45
-0.0707106791724081
 46
0.0707106791724081
 79
     1
 49
0.4000000059604645
 98
        0
  0
LWPOLYLINE
  5
83
330
1F
100
AcDbEntity
  8
0
  6
Continuous
 62
     7
100
AcDbPolyline
 90
        4
 70
   129
 43
0.0
 10
-0.231610963304
 20
-42.802749894424
 10
11.892389036696
 20
-42.802749894424
 10
11.892389036696
 20
-42.615249894424
 10
-0.231610963304
 20
-42.615249894424
1001
TCAD
1000
TCW40_DEV_WIDTH
1002
{
1040
-3.0
1002
}
  0
HATCH
  5
84
330
1F
100
AcDbEntity
  8
0
  6
Continuous
 62
     7
100
AcDbHatch
 10
0.0
 20
0.0
 30
0.0
210
0.0
220
0.0
230
1.0
  2
ANSI35
 70
     0
 71
     0
 91
        1
 92
        3
 72
     0
 73
     1
 93
        4
 10
-0.2316109633038357
 20
-42.80274989442401
 10
11.89238903669617
 20
-42.80274989442401
 10
11.89238903669617
 20
-42.615249894424
 10
-0.2316109633038357
 20
-42.615249894424
 97
        0
 75
     0
 76
     1
 52
0.0
 41
0.4000000059604645
 77
     0
 78
     2
 53
45.0
 43
0.0707106790540821
 44
0.0
 45
-0.0707106791724081
 46
0.0707106791724081
 79
     4
 49
0.1250000018631451
 49
-0.025000000373029
 49
0.0001750000030002
 49
-0.0248250003700288
 53
45.0
 43
0.0
 44
0.0
 45
-0.0707106791724081
 46
0.0707106791724081
 79
     1
 49
0.4000000059604645
 98
        0
  0
LWPOLYLINE
  5
85
330
1F
100
AcDbEntity
  8
0
  6
Continuous
 62
     7
100
AcDbPolyline
 90
        4
 70
   129
 43
0.0
 10
-0.231610963304
 20
-42.490249894424
 10
11.892389036696
 20
-42.490249894424
 10
11.892389036696
 20
-42.302749894424
 10
-0.231610963304
 20
-42.302749894424
1001
TCAD
1000
TCW40_DEV_WIDTH
1002
{
1040
-3.0
1002
}
  0
HATCH
  5
86
330
1F
100
AcDbEntity
  8
0
  6
Continuous
 62
     7
100
AcDbHatch
 10
0.0
 20
0.0
 30
0.0
210
0.0
220
0.0
230
1.0
  2
ANSI35
 70
     0
 71
     0
 91
        1
 92
        3
 72
     0
 73
     1
 93
        4
 10
-0.2316109633038357
 20
-42.49024989442401
 10
11.89238903669617
 20
-42.49024989442401
 10
11.89238903669617
 20
-42.302749894424
 10
-0.2316109633038357
 20
-42.302749894424
 97
        0
 75
     0
 76
     1
 52
0.0
 41
0.4000000059604645
 77
     0
 78
     2
 53
45.0
 43
0.0707106790540821
 44
0.0
 45
-0.0707106791724081
 46
0.0707106791724081
 79
     4
 49
0.1250000018631451
 49
-0.025000000373029
 49
0.0001750000030002
 49
-0.0248250003700288
 53
45.0
 43
0.0
 44
0.0
 45
-0.0707106791724081
 46
0.0707106791724081
 79
     1
 49
0.4000000059604645
 98
        0
  0
LWPOLYLINE
  5
87
330
1F
100
AcDbEntity
  8
0
  6
Continuous
 62
     7
100
AcDbPolyline
 90
        4
 70
   129
 43
0.0
 10
-0.231610963304
 20
-42.177749894424
 10
11.892389036696
 20
-42.177749894424
 10
11.892389036696
 20
-41.990249894424
 10
-0.231610963304
 20
-41.990249894424
1001
TCAD
1000
TCW40_DEV_WIDTH
1002
{
1040
-3.0
1002
}
  0
HATCH
  5
88
330
1F
100
AcDbEntity
  8
0
  6
Continuous
 62
     7
100
AcDbHatch
 10
0.0
 20
0.0
 30
0.0
210
0.0
220
0.0
230
1.0
  2
ANSI35
 70
     0
 71
     0
 91
        1
 92
        3
 72
     0
 73
     1
 93
        4
 10
-0.2316109633038357
 20
-42.17774989442401
 10
11.89238903669617
 20
-42.17774989442401
 10
11.89238903669617
 20
-41.990249894424
 10
-0.2316109633038357
 20
-41.990249894424
 97
        0
 75
     0
 76
     1
 52
0.0
 41
0.4000000059604645
 77
     0
 78
     2
 53
45.0
 43
0.0707106790540821
 44
0.0
 45
-0.0707106791724081
 46
0.0707106791724081
 79
     4
 49
0.1250000018631451
 49
-0.025000000373029
 49
0.0001750000030002
 49
-0.0248250003700288
 53
45.0
 43
0.0
 44
0.0
 45
-0.0707106791724081
 46
0.0707106791724081
 79
     1
 49
0.4000000059604645
 98
        0
  0
LWPOLYLINE
  5
89
330
1F
100
AcDbEntity
  8
0
  6
Continuous
 62
     7
100
AcDbPolyline
 90
        4
 70
   129
 43
0.0
 10
-0.231610963304
 20
-41.865249894424
 10
11.892389036696
 20
-41.865249894424
 10
11.892389036696
 20
-41.677749894424
 10
-0.231610963304
 20
-41.677749894424
1001
TCAD
1000
TCW40_DEV_WIDTH
1002
{
1040
-3.0
1002
}
  0
HATCH
  5
8A
330
1F
100
AcDbEntity
  8
0
  6
Continuous
 62
     7
100
AcDbHatch
 10
0.0
 20
0.0
 30
0.0
210
0.0
220
0.0
230
1.0
  2
ANSI35
 70
     0
 71
     0
 91
        1
 92
        3
 72
     0
 73
     1
 93
        4
 10
-0.2316109633038357
 20
-41.86524989442401
 10
11.89238903669617
 20
-41.86524989442401
 10
11.89238903669617
 20
-41.677749894424
 10
-0.2316109633038357
 20
-41.677749894424
 97
        0
 75
     0
 76
     1
 52
0.0
 41
0.4000000059604645
 77
     0
 78
     2
 53
45.0
 43
0.0707106790540821
 44
0.0
 45
-0.0707106791724081
 46
0.0707106791724081
 79
     4
 49
0.1250000018631451
 49
-0.025000000373029
 49
0.0001750000030002
 49
-0.0248250003700288
 53
45.0
 43
0.0
 44
0.0
 45
-0.0707106791724081
 46
0.0707106791724081
 79
     1
 49
0.4000000059604645
 98
        0
  0
LWPOLYLINE
  5
8B
330
1F
100
AcDbEntity
  8
0
  6
Continuous
 62
     7
100
AcDbPolyline
 90
        4
 70
   129
 43
0.0
 10
-0.231610963304
 20
-41.552749894424
 10
11.892389036696
 20
-41.552749894424
 10
11.892389036696
 20
-41.365249894424
 10
-0.231610963304
 20
-41.365249894424
1001
TCAD
1000
TCW40_DEV_WIDTH
1002
{
1040
-3.0
1002
}
  0
HATCH
  5
8C
330
1F
100
AcDbEntity
  8
0
  6
Continuous
 62
     7
100
AcDbHatch
 10
0.0
 20
0.0
 30
0.0
210
0.0
220
0.0
230
1.0
  2
ANSI35
 70
     0
 71
     0
 91
        1
 92
        3
 72
     0
 73
     1
 93
        4
 10
-0.2316109633038357
 20
-41.55274989442401
 10
11.89238903669617
 20
-41.55274989442401
 10
11.89238903669617
 20
-41.365249894424
 10
-0.2316109633038357
 20
-41.365249894424
 97
        0
 75
     0
 76
     1
 52
0.0
 41
0.4000000059604645
 77
     0
 78
     2
 53
45.0
 43
0.0707106790540821
 44
0.0
 45
-0.0707106791724081
 46
0.0707106791724081
 79
     4
 49
0.1250000018631451
 49
-0.025000000373029
 49
0.0001750000030002
 49
-0.0248250003700288
 53
45.0
 43
0.0
 44
0.0
 45
-0.0707106791724081
 46
0.0707106791724081
 79
     1
 49
0.4000000059604645
 98
        0
  0
LWPOLYLINE
  5
8D
330
1F
100
AcDbEntity
  8
0
  6
Continuous
 62
     7
100
AcDbPolyline
 90
        4
 70
   129
 43
0.0
 10
-0.231610963304
 20
-41.240249894424
 10
11.892389036696
 20
-41.240249894424
 10
11.892389036696
 20
-41.052749894424
 10
-0.231610963304
 20
-41.052749894424
1001
TCAD
1000
TCW40_DEV_WIDTH
1002
{
1040
-3.0
1002
}
  0
HATCH
  5
8E
330
1F
100
AcDbEntity
  8
0
  6
Continuous
 62
     7
100
AcDbHatch
 10
0.0
 20
0.0
 30
0.0
210
0.0
220
0.0
230
1.0
  2
ANSI35
 70
     0
 71
     0
 91
        1
 92
        3
 72
     0
 73
     1
 93
        4
 10
-0.2316109633038357
 20
-41.24024989442401
 10
11.89238903669617
 20
-41.24024989442401
 10
11.89238903669617
 20
-41.052749894424
 10
-0.2316109633038357
 20
-41.052749894424
 97
        0
 75
     0
 76
     1
 52
0.0
 41
0.4000000059604645
 77
     0
 78
     2
 53
45.0
 43
0.0707106790540821
 44
0.0
 45
-0.0707106791724081
 46
0.0707106791724081
 79
     4
 49
0.1250000018631451
 49
-0.025000000373029
 49
0.0001750000030002
 49
-0.0248250003700288
 53
45.0
 43
0.0
 44
0.0
 45
-0.0707106791724081
 46
0.0707106791724081
 79
     1
 49
0.4000000059604645
 98
        0
  0
LWPOLYLINE
  5
8F
330
1F
100
AcDbEntity
  8
0
  6
Continuous
 62
     7
100
AcDbPolyline
 90
        4
 70
   129
 43
0.0
 10
-0.231610963304
 20
-40.927749894424
 10
11.892389036696
 20
-40.927749894424
 10
11.892389036696
 20
-40.740249894424
 10
-0.231610963304
 20
-40.740249894424
1001
TCAD
1000
TCW40_DEV_WIDTH
1002
{
1040
-3.0
1002
}
  0
HATCH
  5
90
330
1F
100
AcDbEntity
  8
0
  6
Continuous
 62
     7
100
AcDbHatch
 10
0.0
 20
0.0
 30
0.0
210
0.0
220
0.0
230
1.0
  2
ANSI35
 70
     0
 71
     0
 91
        1
 92
        3
 72
     0
 73
     1
 93
        4
 10
-0.2316109633038357
 20
-40.92774989442401
 10
11.89238903669617
 20
-40.92774989442401
 10
11.89238903669617
 20
-40.740249894424
 10
-0.2316109633038357
 20
-40.740249894424
 97
        0
 75
     0
 76
     1
 52
0.0
 41
0.4000000059604645
 77
     0
 78
     2
 53
45.0
 43
0.0707106790540821
 44
0.0
 45
-0.0707106791724081
 46
0.0707106791724081
 79
     4
 49
0.1250000018631451
 49
-0.025000000373029
 49
0.0001750000030002
 49
-0.0248250003700288
 53
45.0
 43
0.0
 44
0.0
 45
-0.0707106791724081
 46
0.0707106791724081
 79
     1
 49
0.4000000059604645
 98
        0
  0
LWPOLYLINE
  5
91
330
1F
100
AcDbEntity
  8
0
  6
Continuous
 62
     7
100
AcDbPolyline
 90
        4
 70
   129
 43
0.0
 10
-0.231610963304
 20
-40.615249894424
 10
11.892389036696
 20
-40.615249894424
 10
11.892389036696
 20
-40.427749894424
 10
-0.231610963304
 20
-40.427749894424
1001
TCAD
1000
TCW40_DEV_WIDTH
1002
{
1040
-3.0
1002
}
  0
HATCH
  5
92
330
1F
100
AcDbEntity
  8
0
  6
Continuous
 62
     7
100
AcDbHatch
 10
0.0
 20
0.0
 30
0.0
210
0.0
220
0.0
230
1.0
  2
ANSI35
 70
     0
 71
     0
 91
        1
 92
        3
 72
     0
 73
     1
 93
        4
 10
-0.2316109633038357
 20
-40.61524989442401
 10
11.89238903669617
 20
-40.61524989442401
 10
11.89238903669617
 20
-40.427749894424
 10
-0.2316109633038357
 20
-40.427749894424
 97
        0
 75
     0
 76
     1
 52
0.0
 41
0.4000000059604645
 77
     0
 78
     2
 53
45.0
 43
0.0707106790540821
 44
0.0
 45
-0.0707106791724081
 46
0.0707106791724081
 79
     4
 49
0.1250000018631451
 49
-0.025000000373029
 49
0.0001750000030002
 49
-0.0248250003700288
 53
45.0
 43
0.0
 44
0.0
 45
-0.0707106791724081
 46
0.0707106791724081
 79
     1
 49
0.4000000059604645
 98
        0
  0
LEADER
  5
93
330
1F
100
AcDbEntity
  8
0
  6
Continuous
 62
     7
370
     0
100
AcDbLeader
  3
Standard
 76
     3
 10
9.213093547891955
 20
-47.10086364824187
 30
0.0
 10
9.622783943413149
 20
-47.95835517375134
 30
0.0
 10
9.872783943413149
 20
-47.95835517375134
 30
0.0
1001
TCAD
1000
TCW_CUSTOM_DATA
1002
{
1000
#$AUX@_ToolInfo Properties
1070
     8
1000
CMD_STRINGDIM@
1002
}
1001
ACAD
1000
DSTYLE
1002
{
1070
   283
1070
     0
1002
}
  0
MTEXT
  5
94
330
1F
100
AcDbEntity
  8
0
  6
Continuous
 62
     7
100
AcDbMText
 10
10.07058507340143
 20
-47.99743860124569
 30
0.0
 40
0.1597222222222222
 41
2.9967041015625
 71
     1
 72
     1
  1
{.188 wide hatch areas cut free\Pare removed to produce\P1/8" strips common to sheet\Pends}
  7
_TCW_TXTSTY_1
 73
     1
 44
1.0
1001
TCAD
1000
TCW40_TEXT
1002
{
1000
Arial
1070
     0
1070
   257
1002
}
1000
TCW_CUSTOM_DATA
1002
{
1000
#$AUX@_ToolInfo Properties
1070
     8
1000
CMD_TEXT@
1002
}
  0
LEADER
  5
95
330
1F
100
AcDbEntity
  8
0
  6
Continuous
 62
     7
370
     0
100
AcDbLeader
  3
Standard
 76
     3
 10
2.70528782987522
 20
-47.76663031282051
 30
0.0
 10
3.096071728219383
 20
-48.30628426767674
 30
0.0
 10
3.346071728219383
 20
-48.30628426767674
 30
0.0
1001
TCAD
1000
TCW_CUSTOM_DATA
1002
{
1000
#$AUX@_ToolInfo Properties
1070
     8
1000
CMD_STRINGDIM@
1002
}
1001
ACAD
1000
DSTYLE
1002
{
1070
   283
1070
     0
1002
}
  0
TEXT
  5
96
330
1F
100
AcDbEntity
  8
0
  6
Continuous
 62
     7
100
AcDbText
 10
3.598508168947593
 20
-48.49695799187528
 30
0.0
 40
0.1954999963442484
  1
Border cut from larger sheet
  7
_TCW_TXTSTY_1
 11
3.598508168947593
 21
-48.30145799553104
 31
0.0
100
AcDbText
 73
     3
1001
TCAD
1000
TCW40_TEXT
1002
{
1000
Arial
1070
     0
1070
   257
1002
}
1000
TCW_CUSTOM_DATA
1002
{
1000
#$AUX@_ToolInfo Properties
1070
     8
1000
CMD_TEXT@
1002
}
  0
DIMENSION
  5
98
330
1F
100
AcDbEntity
  8
0
  6
Continuous
 62
     7
100
AcDbDimension
  2
*D1
 10
12.5289820080281
 20
-37.51969535594117
 30
0.0
 11
5.7789820080281
 21
-37.33032192538561
 31
0.0
 70
    32
  1
<>
 71
     5
 42
13.5
  3
Standard
100
AcDbAlignedDimension
 13
-0.9710179919719
 23
-38.79768843321794
 33
0.0
 14
12.5289820080281
 24
-38.79768843321795
 34
0.0
100
AcDbRotatedDimension
1001
TCAD
1000
TCW_CUSTOM_DATA
1002
{
1000
#$AUX@_ToolInfo Properties
1070
     8
1000
CMD_ORTHOGONALDIM@
1002
}
1001
ACAD
1000
DSTYLE
1002
{
1070
   340
1005
97
1070
   140
1040
0.2485277777777778
1002
}
  0
DIMENSION
  5
A7
330
1F
100
AcDbEntity
  8
0
  6
Continuous
 62
     7
100
AcDbDimension
  2
*D2
 10
14.01750036690493
 20
-47.69063244150647
 30
0.0
 11
14.01750036690493
 21
-43.80919116796522
 31
0.0
 70
    32
  1
<>
 71
     5
 42
7.762882547082476
  3
Standard
100
AcDbAlignedDimension
 13
12.580389036696
 23
-39.92774989442399
 33
0.0
 14
12.79084890028333
 24
-47.69063244150647
 34
0.0
 50
-90.0
100
AcDbRotatedDimension
1001
TCAD
1000
TCW_CUSTOM_DATA
1002
{
1000
#$AUX@_ToolInfo Properties
1070
     8
1000
CMD_ORTHOGONALDIM@
1002
}
1001
ACAD
1000
DSTYLE
1002
{
1070
   340
1005
A6
1070
   140
1040
0.2485277777777778
1002
}
  0
DIMENSION
  5
B6
330
1F
100
AcDbEntity
  8
0
  6
Continuous
 62
     7
100
AcDbDimension
  2
*D3
 10
11.89238903669617
 20
-38.65250654763893
 30
0.0
 11
5.830389036696085
 21
-38.46524560319448
 31
0.0
 70
    33
  1
<>
 71
     5
 42
12.12400000000017
  3
Standard
100
AcDbAlignedDimension
 13
-0.2316109633039994
 23
-39.42207266547591
 33
0.0
 14
11.89238903669617
 24
-39.42207266547591
 34
0.0
1001
TCAD
1000
TCW_CUSTOM_DATA
1002
{
1000
#$AUX@_ToolInfo Properties
1070
     8
1000
CMD_ORTHOGONALDIM@
1002
}
1001
ACAD
1000
DSTYLE
1002
{
1070
   340
1005
B5
1070
   140
1040
0.2485277777777778
1002
}
  0
MTEXT
  5
C4
330
1F
100
AcDbEntity
  8
0
  6
Continuous
 62
     7
100
AcDbMText
 10
7.824214072920823
 20
-49.22921001724975
 30
0.0
 40
0.2485277768638399
 41
5.630433084763354
 71
     1
 72
     1
  1
{INQUIRY .. BRON TAPES DENVER\Ptngarland@brontapes.com\Pcel  303 887 3041  }
  7
_TCW_TXTSTY_5
 73
     1
 44
1.0
1001
TCAD
1000
TCW40_TEXT
1002
{
1000
Arial
1070
     0
1070
   257
1002
}
1000
TCW_CUSTOM_DATA
1002
{
1000
#$AUX@_ToolInfo Properties
1070
     8
1000
CMD_TEXT@
1002
}
  0
MTEXT
  5
C5
330
1F
100
AcDbEntity
  8
0
  6
Continuous
 62
     7
100
AcDbMText
 10
1.354449575261532
 20
-49.306367103471
 30
0.0
 40
0.2485277768638399
 41
4.780065412109252
 71
     1
 72
     1
  1
{MATERIAL ;  .030 THICK\PPVA BUTYL ADHESIVE TAPE}
  7
_TCW_TXTSTY_5
 73
     1
 44
1.0
1001
TCAD
1000
TCW40_TEXT
1002
{
1000
Arial
1070
     0
1070
   257
1002
}
1000
TCW_CUSTOM_DATA
1002
{
1000
#$AUX@_ToolInfo Properties
1070
     8
1000
CMD_TEXT@
1002
}
  0
ENDSEC
  0
SECTION
  2
OBJECTS
  0
DICTIONARY
  5
C
330
0
100
AcDbDictionary
281
     1
  3
ACAD_GROUP
350
D
  3
ACAD_LAYOUT
350
1A
  3
ACAD_MLINESTYLE
350
17
  3
ACAD_PLOTSETTINGS
350
19
  3
ACAD_PLOTSTYLENAME
350
E
  0
DICTIONARY
  5
D
102
{ACAD_REACTORS
330
C
102
}
330
C
100
AcDbDictionary
281
     1
  0
DICTIONARY
  5
1A
102
{ACAD_REACTORS
330
C
102
}
330
C
100
AcDbDictionary
281
     1
  3
Layout1
350
1E
  3
Model
350
22
  0
DICTIONARY
  5
17
102
{ACAD_REACTORS
330
C
102
}
330
C
100
AcDbDictionary
281
     1
  3
Standard
350
18
  0
DICTIONARY
  5
19
102
{ACAD_REACTORS
330
C
102
}
330
C
100
AcDbDictionary
281
     1
  0
ACDBDICTIONARYWDFLT
  5
E
102
{ACAD_REACTORS
330
C
102
}
330
C
100
AcDbDictionary
281
     1
  3
Normal
350
F
100
AcDbDictionaryWithDefault
340
F
  0
LAYOUT
  5
1E
102
{ACAD_REACTORS
330
1A
102
}
330
1A
100
AcDbPlotSettings
  1

  2
none_device
  4

  6

 40
0.0
 41
0.0
 42
0.0
 43
0.0
 44
0.0
 45
0.0
 46
0.0
 47
0.0
 48
0.0
 49
0.0
140
0.0
141
0.0
142
1.0
143
1.0
 70
   688
 72
     0
 73
     0
 74
     5
  7

 75
    16
 76
     0
 77
     2
 78
   300
147
1.0
148
0.0
149
0.0
100
AcDbLayout
  1
Layout1
 70
     1
 71
     1
 10
0.0
 20
0.0
 11
0.0
 21
0.0
 12
0.0
 22
0.0
 32
0.0
 14
0.0
 24
0.0
 34
0.0
 15
0.0
 25
0.0
 35
0.0
146
0.0
 13
0.0
 23
0.0
 33
0.0
 16
1.0
 26
0.0
 36
0.0
 17
0.0
 27
1.0
 37
0.0
 76
     0
330
1B
  0
LAYOUT
  5
22
102
{ACAD_REACTORS
330
1A
102
}
330
1A
100
AcDbPlotSettings
  1

  2
none_device
  4

  6

 40
0.0
 41
0.0
 42
0.0
 43
0.0
 44
342.9
 45
196.85
 46
23.3581184679216
 47
1211.014847318369
 48
0.0
 49
0.0
140
0.0
141
0.0
142
1.0
143
1.0
 70
  1712
 72
     0
 73
     0
 74
     0
  7

 75
     0
 76
     0
 77
     2
 78
   300
147
1.0
148
0.0
149
0.0
100
AcDbLayout
  1
Model
 70
     1
 71
     0
 10
-0.919610963304
 20
-47.67774989442398
 11
12.580389036696
 21
-39.92774989442398
 12
0.0
 22
0.0
 32
0.0
 14
-0.919610963304
 24
-47.67774989442398
 34
0.0
 15
12.580389036696
 25
-39.92774989442398
 35
0.0
146
0.0
 13
0.0
 23
0.0
 33
0.0
 16
1.0
 26
0.0
 36
0.0
 17
0.0
 27
1.0
 37
0.0
 76
     0
330
1F
  0
MLINESTYLE
  5
18
102
{ACAD_REACTORS
330
17
102
}
330
17
100
AcDbMlineStyle
  2
Standard
 70
     0
  3

 62
   256
 51
90.0
 52
90.0
 71
     7
 49
0.5
 62
   256
  6
BYLAYER
 49
-0.5
 62
   256
  6
BYLAYER
 49
0.5
 62
   256
  6
BYLAYER
 49
-0.5
 62
   256
  6
BYLAYER
 49
0.25
 62
     7
  6
BYLAYER
 49
0.0
 62
     7
  6
BYLAYER
 49
-0.25
 62
     7
  6
BYLAYER
  0
ACDBPLACEHOLDER
  5
F
102
{ACAD_REACTORS
330
E
102
}
330
E
  0
ENDSEC
  0
SECTION
  2
THUMBNAILIMAGE
 90
    16364
310
28000000B40000005500000001000800000000000000000000000000000000000000000000000000FFFFFF000000FF0000FFFF0000FF0000FFFF0000FF000000FF00FF000000000080808000C0C0C0000000FF007F7FFF000000A5005252A50000007F003F3F7F0000004C0026264C000000260013132600003FFF007F9FFF
310
000029A5005267A500001F7F003F4F7F0000134C00262F4C000009260013172600007FFF007FBFFF000052A500527CA500003F7F003F5F7F0000264C0026394C0000132600131C260000BFFF007FDFFF00007CA5005291A500005F7F003F6F7F0000394C0026424C00001C26001321260000FFFF007FFFFF0000A5A50052A5
310
A500007F7F003F7F7F00004C4C00264C4C00002626001326260000FFBF007FFFDF0000A57C0052A59100007F5F003F7F6F00004C3900264C420000261C001326210000FF7F007FFFBF0000A5520052A57C00007F3F003F7F5F00004C2600264C39000026130013261C0000FF3F007FFF9F0000A5290052A56700007F1F003F
310
7F4F00004C1300264C2F00002609001326170000FF00007FFF7F0000A5000052A55200007F00003F7F3F00004C0000264C260000260000132613003FFF00009FFF7F0029A5000067A552001F7F00004F7F3F00134C00002F4C260009260000172613007FFF0000BFFF7F0052A500007CA552003F7F00005F7F3F00264C0000
310
394C2600132600001C261300BFFF0000DFFF7F007CA5000091A552005F7F00006F7F3F00394C0000424C26001C26000021261300FFFF0000FFFF7F00A5A50000A5A552007F7F00007F7F3F004C4C00004C4C26002626000026261300FFBF0000FFDF7F00A57C0000A59152007F5F00007F6F3F004C3900004C422600261C00
310
0026211300FF7F0000FFBF7F00A5520000A57C52007F3F00007F5F3F004C2600004C39260026130000261C1300FF3F0000FF9F7F00A5290000A56752007F1F00007F4F3F004C1300004C2F26002609000026171300FF000000FF7F7F00A5000000A55252007F0000007F3F3F004C0000004C2626002600000026131300FF00
310
3F00FF7F9F00A5002900A55267007F001F007F3F4F004C0013004C262F002600090026131700FF007F00FF7FBF00A5005200A5527C007F003F007F3F5F004C0026004C2639002600130026131C00FF00BF00FF7FDF00A5007C00A55291007F005F007F3F6F004C0039004C26420026001C0026132100FF00FF00FF7FFF00A5
310
00A500A552A5007F007F007F3F7F004C004C004C264C002600260026132600BF00FF00DF7FFF007C00A5009152A5005F007F006F3F7F0039004C0042264C001C002600211326007F00FF00BF7FFF005200A5007C52A5003F007F005F3F7F0026004C0039264C00130026001C1326003F00FF009F7FFF002900A5006752A500
310
1F007F004F3F7F0013004C002F264C000900260017132600000000002D2D2D005B5B5B0089898900B7B7B700B3B3B30000000000000000000000000000000000000000000000000000000000000000000000000000000000000000000000000000000000000000000000000000000000000000000000000000000000000000
310
00000000000000000000000000000000000000000000000000000000000000000000000000000000000000000000000000000000000000000000000000000000000000000000000000000000000000000000000000000000000000000000000000000000000000000000000000000000000000000000000000000000000000
310
00000000000000000000000000000000000000000000000000000000000000000000000000000000000000000000000000000000000000000000000000000000000000000000000000000000000000000000000000000000000000000000000000000000000000000000000000000000000000000000000000000000000000
310
00000000000000000000000000000000000000000000000000000000000000000000000000000000000000000000000000000000000000000000000000000000000000000000000000000000000000000000000000000000000000000000000000000000000000000000000000000000000000000000000000000000000000
310
00000000000000000000000000000000000000000000000000000000000000000000000000000000000000000000000000000000000000000000000000000000000000000000000000000000000000000000000000000000000000000000000000000000000000000000000000000000000000000000000000000000000000
310
00000000000000000000000000000000000000000000000000000000000000000000000000000000000000000000000000000000000000000000000000000000000000000000000000000000000000000000000000000000000000000000000000000000000000000000000000000000000000000000000000000000000000
310
00000000000000000000000000000000000000000000000000000000000000000000000000000000000000000000000000000000000000000000000000000000000000000000000000000000000000000000000000000000000000000000000000000000000000000000000000000000000000000000000000000000000000
310
00000000000000000000000000000000000000000000000000000000000000000000000000000000000000000000000000000000000000000000000000000000000000000000000000000000000000000000000000000000000000000000000000000000000000000000000000000000000000000000000000000000000000
310
00000000000000000000000000000000000000000000000000000000000000000000000000000000000000000000000000000000000000000000000000000000000000000000000000000000000000000000000000000000000000000000000000000000000000000000000000000000000000000000000000000000000000
310
00000000000000000000000000000000000000000000000000000000000000000000000000000000000000000000000000000000000000000000000000000000000000000000000000000000000000000000000000000000000000000000000000000000000000000000000000000000000000000000000000000000000000
310
00000000000000000000000000000000000000000000000000000000000000000000000000000000000000000000000000000000000000000000000000000000000000000000000000000000000000000000000000000000000000000000000000000000000000000000000000000000000000000000000000000000000000
310
00000000000000000000000000000000000000000000000000000000000000000000000000000000000000000000000000000000000000000000000000000000000000000000000000000000000000000000000000000000000000000000000000000000000000000000000000000000000000000000000000000000000000
310
00000000000000000000000000000000000000000000000000000000000000000000000000000000000000000000000000000000000000000000000000000000000000000000000000000000000000000000000000000000000000000000000000000000000000000000000000000000000000000000000000000000000000
310
00000000000000000000000000000000000000000000000000000000000000000000000000000000000000000000000000000000000000000000000000000000000000000000000000000000000000000000000000000000000000000000000000000000000000000000000000000000000000000000000000000000000000
310
00000000000000000000000000000000000000000000000000000000000000000000000000000000000000000000000000000000000000000000000000000000000000000000000000000000000000000000000000000000000000000000000000000000000000000000000000000000000000000000000000000000000000
310
00000000000000000000000000000000000000000000000000000000000000000000000000000000000000000000000000000000000000000000000000000000000000000000000000000000000000000000000000000000000000000000000000000000000000000000000000000000000000000000000000000000000000
310
00000000000000000000000000000000000000000000000000000000000000000000000000000000000000000000000000000000000000000000000000000000000000000000000000000000000000000000000000000000000000000000000000000000000000000000000000000000000000000000000000000000000000
310
00000000000000000000000000000000000000000000000000000000000000000000000000000000000000000000000000000000000000000000000000000000000000000000000000000000000000000000000000000000000000000000000000000000000000000000000000000000000000000000000000000000000000
310
00000000000000000000000000000000000000000000000000000000000000000000000000000000000000000000000000000000000000000000000000000000000000000000000000000000000000000000000000000000000000000000000000000000000000000000000000000000000000000000000000000000000000
310
00000000000000000000000000000000000000000000000000000000000000000000000000000000000000000000000000000000000000000000000000000000000000000000000000000000000000000000000000000000000000000000000000000000000000000000000000000000000000000000000000000000000000
310
00000000000000000000000000000000000000000000000000000000000000000000000000000000000000000000000000000000000000000000000000000000000000000000000000000000000000000000000000000000000000000000000000000000000000000000000000000000000000000000000000000000000000
310
00000000000000000000000000000000000000000000000000000000000000000000000000000000000000000000000000000000000000000000000000000000000000000000000000000000000000000000000000000000000000000000000000000000000000000000000000000000000000000000000000000000000000
310
00000000000000000000000000000000000000000000000000000000000000000000000000000000000000000000000000000000000000000000000000000000000000000000000000000000000000000000000000000000000000000000000000000000000000000000000000000000000000000000000000000000000000
310
00000000000000000000000000000000000000000000000000000000000000000000000000000000000000000000000000000000000000000000000000000000000000000000000000000000000000000000000000000000000000000000000000000000000000000000000000000000000000000000000000000000000000
310
00000000000000000000000000000000000000000000000000000000000000000000000000000000000000000000000000000000000000000000000000000000000000000000000000000000000000000000000000000000000000000000000000000000000000000000000000000000000000000000000000000000000000
310
00000000000000000000000000000000000000000000000000000000000000000000000000000000000000000000000000000000000000000000000000000000000000000000000000000000000000000000000000000000000000000000000000000000000000000000000000000000000000000000000000000000000000
310
00000000000000000000000000000000000000000000000000000000000000000000000000000000000000000000000000000000000000000000000000000000000000000000000000000000000000000000000000000000000000000000000000000000000000000000000000000000000000000000000000000000000000
310
00000000000000000000000000000000000000000000000000000000000000000000000000000000000000000000000000000000000000000000000000000000000000000000000000000000000000000000000000000000000000000000000000000000000000000000000000000000000000000000000000000000000000
310
00000000000000000000000000000000000000000000000000000000000000000000000000000000000000000000000000000000000000000000000000000000000000000000000000000000000000000000000000000000000000000000000000000000000000000000000000000000000000000000000000000000000000
310
00000000000000000000000000000000000000000000000000000000000000000000000000000000000000000000000000000000000000000000000000000000000000000000000000000000000000000000000000000000000000000000000000000000000000000000000000000000000000000000000000000000000000
310
00000000000000000000000000000000000000000000000000000000000000000000000000000000000000000000000000000000000000000000000000000000000000000000000000000000000000000000000000000000000000000000000000000000000000000000000000000000000000000000000000000000000000
310
00000000000000000000000000000000000000000000000000000000000000000000000000000000000000000000000000000000000000000000000000000000000000000000000000000000000000000000000000000000000000000000000000000000000000000000000000000000000000000000000000000000000000
310
00000000000000000000000000000000000000000000000000000000000000000000000000000000070707070007070707070707070707070707070700000000000000000000000000000000000000000000000000000000000000000000000000000000000000000000000000000000000000000000000000000000000000
310
00000000000000000000000000000000000000000000000000000000000000000000000000000000000000000000000000000000000000000000000000000000000000000000000000000000000000000000000000000000000000000007070707000707070707070707070707070707070000000000000000000000000000
310
00000000000000000000000000000000000000000000000000000000000000000000000000000000000000000000000000000000000000000000000000000000000000000000000000000000000000000000000000000000000000000000000000000000000000000000000000070000000000000000000000000707000000
310
00000000000000000000000000000000000000000000070007070707070707070707070707070700000000000000000000000000000000000000000000000000000000000000000000000000000000000000000000000000000000000000000000000000000000000000000000000000000000000000000000000000000000
310
00000000000000000000000000000000000000000000000000000007070707070707070707070707070707070707070707070707070707070707070707000000000000000000000007070707070707070707070707070707070707070707070707070707070700000000000000000000000000000000000000000000000000
310
00000000000000000000000000000000000000000000000000000000000000000000000000000000000000000000000000000000000000000000000000000000000000000000000000000000000000000707070707000707070707070700000707070707070707070707070707070707070700000000000000000000000707
310
07070707070707070707070707070707070707070707070707070707000000000000000000000000000000000000000000000000000000000000000000000000000000000000000000000000000000000000000000000000000000000000000000000000000000000000000000000000000000000000000000000000000000
310
00000000000007070707070707070707070707070007070707070007070707070707000000000000000000000000000000000007070000000007000000070707070000000007000000000000000000000000000000000000000000000000000000000000000000000000000000000000000000000000000000000000000000
310
00000000000000000000000000000000000000000000000000000000000000000000000000000000000000000000000000000000000000000000000707070707070707070707070707000707070707000707070707070700000000000000000000000000000000000707070707070707070707000007070707070707070707
310
07070007070707070707070707070707070000000000000000000000000000000000000000000000000000000000000000000000000000000000000000000000000000000000000000000000000000000000000000000000000000000000000000000000000000000000000000000000070707070707070707070707000700
310
07070707070707070707070707000000000000000000000000000000000007070707070707070707070000070707070707070707070707070707070707070707070707070707000000000000000000000000000000000000000000000000000000000000000000000000000000000000000000000000000000000000000000
310
00000000000000000000000000000000000000000000000000000000000000000000000000000000000000000000000000000000000000000000000000000000000000000000000000000000000000000000000707070707070707070707000007070707070707070707070707070707070707070707070707070700000000
310
00000000000000000000000000000000000000000000000000000000000000000000000000000000000000000000000000000000000000000000000000000000000000000000000000000000000000000000000000000000000000000000000000000000000000000000000000000000000000000000000000000000000000
310
00000000000000000000000000000000000000000000000000000000000000000000000000000000000000000000000000000000000000000000000000000000000000000000000000000000000000000000000000000000000000000000000000000000000000000000000000000000000000000000000000000000000000
310
00000000000000000000000000000000000000000000000000000000000000000000000000000000000000000000000000000000000000000000000000000000000000000000000000000000000007070700000000000000000000000000000000000000000000000000000000000000000000000000000000000000000000
310
00000000000000000000000000000000000000000000000000000000000000000000000000000000000000000000000000000000000000000000000000000000000000000000000000000000000000000000000000000000000000000000000000000000000000000000000000000000000000000000000000000000000000
310
00000000070707070707070707070707070707070707070700000000000000000000000000000000000000000000000000000000000000000000000000000000000000000000000000000000000000000000000000000000000000000000000000000000000000000000000000000000000000000000000000000000000000
310
00000000000000000000000000000000000000000000000000000000070000000000000000000000000000000000000000000000000000000007070707070707070707070707070707070707070000000000000000000000000000000000000000000000000000000000000000000000000000000000000000000000000000
310
00000000000000000000000000000000000000000000000000000000000000000000000000000000000000000000000000000000000000000000000000000000000707070707070707070707070707070707070707070707070700000000000000000000000000000000000000000707070707070707070707070707070707
310
00000700000000000000000000000000000000000000000000000000000000000000000000000000000000000000000000000000000000000000000000000000000000000000000000000000000000000000000000000000000000000000000000000000000000000000000000000000000007070700070707070707070707
310
07070707070707070707070707070700000000000000000000000000000000000000000007070707070707070707070707070707070700000000000000000000000000000000000000000000000000000000000000000000000000000000000000000000000000000000000000000000000000000000000000000000000000
310
00000000000000000000000000000000000000000000000000000000000000000000000000000000070000000000000000000000000000000000000000000000000000000000000000000000000000000000000000000000000007070707070707070707070707070707070707070700000000000000000000000000000000
310
00000000000000000000000000000000000000000000000000000000000000000000000000000000000000000000000000000000000000000000000000000000000000000000000000000000000000000000000000000000000000070700000000000000000000000000000000000000000000000000000000000000000000
310
00000000000000000000000000000000070707070707070707070707070707070707070707000000000000000000000000000000000000000000000000000000000000000000000000000000000000000000000000000000000000000000000000000000000000000000000000000000000000000000000000000000000000
310
00000000000000000000000000000000070707000000000000000000000000000000000000000000000000000000000000000000000000000000000000000000000707070000000000000000000000000000000000000000000000000000000000000000000000000000000000000000000000000000000000000000000000
310
00000000000000000000000000000000000000000000000000000000000000000000000000000000000000000000000000000000000000000000000000000000000000000007070000000000000000000000000000000000000000000000000000000000000000000000000000000000000000000007000000000000000000
310
00000000000000000000000000000000000000000000000000000000000000000000000000000000000000000000000000000000000000000000000000000000000000000000000000000000000000000000000000000000000000000000000000070707070707070707070707070707070707070707070707070707070707
310
07070707070707070707070707070707070707070707070707070707070707070707070707070707070707070707070707070707070707070707070707070707070707070707070707070707070000000000000000000000000000000000000000000000000000000000000000000000000000000000000000000000000000
310
00000000000000000000000000000000000000000000000700000000000000000000000000000000000000000000000000000000000000000000000000000000000000000000000000000000000000000000000000000000000000000000000700000000000000000000000000000000000000000000070000000000000000
310
07070000000000000000000000000000000000000000000000000000000000000000000000000000000000000000000000000000000000000000000000000000000000000000000000000000070000000000000000000000000000000000000000000000000000000000000000000000000000000000000000000000000000
310
00000000000000000000000000000000000000000007000000000000000000000000000000000000000000000700000000000000000007000000000000000000000000000000000000000000000000000000000000000000000000000000000000000000000000000000000000000000000000000000000000000000000000
310
00000700000000070707070707070707070707070707070707070707070707070707070707070707070707070707070707070707070707070707070707070707070707070707070707070707070707070707070707070707070707070700000000070000000000000000000700000000000000000000000000000000000000
310
00000000000000000000000000000000000000000000000000000000000000000000000000000000000000000000000000000000000000070000000007070707070707070707070707070707070707070707070707070707070707070707070707070707070707070707070707070707070707070707070707070707070707
310
07070707070707070707070707070707070707000000000700000000000000000007000000000000000000000000000000000000000000000000000000000000000000000000000000000000000000000000000000000000000000000000000000000000000000000000000007000000000707070707070707070707070707
310
07070707070707070707070707070707070707070707070707070707070707070707070707070707070707070707070707070707070707070707070707070707070707070707070700000000070000000000000000000700000000000000000000000000000000000000000000000000000000000000000000000000000000
310
00000000000000000000000000000000000000000000000000000000000000000000070000000007070707070707070707070707070707070707070707070707070707070707070707070707070707070707070707070707070707070707070707070707070707070707070707070707070707070707070707070707070000
310
00000700000000000000000007000000000000000000000000000000000000000000000000000000000000000000000000000000000000000000000000000000000000000000000000000000000000000000000000000007000000000707070707070707070707070707070707070707070707070707070707070707070707
310
07070707070707070707070707070707070707070707070707070707070707070707070707070707070707070707070707070700000000070000000000000000000700000000000000000000000000000000000000000000000000000000000000000000000000000000000000000000000000000000000000000000000000
310
00000000000000000000000000070000000007070707070707070707070707070707070707070707070707070707070707070707070707070707070707070707070707070707070707070707070707070707070707070707070707070707070707070707070707070000000007000000000000000000070000000000000000
310
00000000000000000000000000000000000000000000000000000000000000000000000000000000000000000000000000000000000000000000000000000000000007000000000707070707070707070707070707070707070707070707070707070707070707070707070707070707070707070707070707070707070707
310
07070707070707070707070707070707070707070707070707070707070700000000070000000000000000000700000000000000000000000000000000000000000000000000000000000000000000000000000000000000000000000000000000000000000000000000000000000000000000000000000700000000070707
310
07070707070707070707070707070707070707070707070707070707070707070707070707070707070707070707070707070707070707070707070707070707070707070707070707070707070707070707070000000007000000000000000000070000000000000000000000000000000000000000000000000000000000
310
00000000000000000000000000000000000000000000000000000000000000000000000000000000000000000007000000000707070707070707070707070707070707070707070707070707070707070707070707070707070707070707070707070707070707070707070707070707070707070707070707070707070707
310
07070707070707070700000000070000000000000000000700000000000000000000000000000000000000000000000000000000000000000000000000000000000000000000000000000000000000000000000000000000000000000000000000000700000000070707070707070707070707070707070707070707070707
310
07070707070707070707070707070707070707070707070707070707070707070707070707070707070707070707070707070707070707070707070707070000000007000000000000000000070000000000000000000000000000000000000000000000000000000000000000000000000000000000000000000000000000
310
00000000000000000000000000000000000000000000000007000000000707070707070707070707070707070707070707070707070707070707070707070707070707070707070707070707070707070707070707070707070707070707070707070707070707070707070707070707070707000000000700000000000000
310
00000700000000000000000000000000000000000000000000000000000000000000000000000000000000000000000000000000000000000000000000000000000000000000000000000000000700000000070707070707070707070707070707070707070707070707070707070707070707070707070707070707070707
310
07070707070707070707070707070707070707070707070707070707070707070707070707070707070000000007000000000000000000070000000000000000000000000000000000000000000000000000000000000000000000000000000000000000000000000000000000000000000000000000000000000000000000
310
00000007000000000707070707070707070707070707070707070707070707070707070707070707070707070707070707070707070707070707070707070707070707070707070707070707070707070707070707070707070707070707000000000700000000000000000007000000000000000000000000000000000000
310
00000000000000000000000000000000000000000000000000000000000000000000000000000000000000000000000000000000000000000700000000070707070707070707070707070707070707070707070707070707070707070707070707070707070707070707070707070707070707070707070707070707070707
310
07070707070707070707070707070707070707070000000007000000000000000000070000000000000000000000000000000000000000000000000000000000000000000000000000000000000000000000000000000000000000000000000000000000000000000000000000070000000007070707070707070707070707
310
07070707070707070707070707070707070707070707070707070707070707070707070707070707070707070707070707070707070707070707070707070707070707070707070707000000000700000000000000000007000000000000000000000000000000000000000000000000000000000000000000000000000000
310
00000000000000000000000000000000000000000000000000000000000000000000000700000000070707070707070707070707070707070707070707070707070707070707070707070707070707070707070707070707070707070707070707070707070707070707070707070707070707070707070707070707070700
310
00000007000000000000000000070000000000000000000000000000000000000000000000000000000000000000000000000000000000000000000000000000000000000000000000000000000000000000000000000000070000000007070707070707070707070707070707070707070707070707070707070707070707
310
07070707070707070707070707070707070707070707070707070707070707070707070707070707070707070707070707070707000000000700000000000000000007000000000000000000000000000000000000000000000000000000000000000000000000000000000000000000000000000000000000000000000000
310
00000000000000000000000000000700000000070707070707070707070707070707070707070707070707070707070707070707070707070707070707070707070707070707070707070707070707070707070707070707070707070707070707070707070707070700000000070000000000000000000700000000000000
310
00000000000000000000000000000000000000000000000000000000000000000000000000000000000000000000000000000000000000000000000000000000000000070000000007070707070707070707070707070707070707070707070707070707070707070707070707070707070707070707070707070707070707
310
07070707070707070707070707070707070707070707070707070707070707000000000700000000000000000007000000000000000000000000000000000000000000000000000000000000000000000000000000000000000000000000000000000000000000000000000000000000000000000000000007000000000707
310
07070707070707070707070707070707070707070707070707070707070707070707070707070707070707070707070707070707070707070707070707070707070707070707070707070707070707070707070700000000070000000000000000000700000000000000000000000000000000000000000000000000000000
310
00000000000000000000000000000000000000000000000000000000000000000000000000000000000000000000070000000007070707070707070707070707070707070707070707070707070707070707070707070707070707070707070707070707070707070707070707070707070707070707070707070707070707
310
07070707070707070707000000000700000000000000000007000000000000000000000000000000000000000000000000000000000000000000000000000000000000000000000000000000000000000000000000000000000000000000000000000007000000000707070707070707070707070707070707070707070707
310
07070707070707070707070707070707070707070707070707070707070707070707070707070707070707070707070707070707070707070707070707070700000000070000000000000000000700000000000000000000000000000000000000000000000000000000000000000000000000000000000000000000000000
310
00000000000000000000000000000000000000000000000000070000000007070707070707070707070707070707070707070707070707070707070707070707070707070707070707070707070707070707070707070707070707070707070707070707070707070707070707070707070707070000000007000000000000
310
00000007000000000000000000000000000000000000000000000000000000000000000000000000000000000000000000000000000000000000000000000000000000000000000000000000000007000000000707070707070707070707070707070707070707070707070707070707070707070707070707070707070707
310
07070707070707070707070707070707070707070707070707070707070707070707070707070707070700000000070000000000070707070707070707000000000000000000000000000000000000000000000000000000000000000000000000000000000000000000000000000000000000000000000000000000000000
310
00000000070000000007070707070707070707070707070707070707070707070707070707070707070707070707070707070707070707070707070707070707070707070707070707070707070707070707070707070707070707070707070000000007000000000007070707070707070700000000000000000000000000
310
00000000000000000000000000000000000000000000000000000000000000000000000000000000000000000000000000000000000000000007000000000707070707070707070707070707070707070707070707070707070707070707070707070707070707070707070707070707070707070707070707070707070707
310
07070707070707070707070707070707070707070700000000070000000000070707070707070000000000000000000000000000000000000000000000000000000000000000000000000000000000000000000000000000000000000000000000000000000000000000000000000700000000070707070707070707070707
310
07070707070707070707070707070707070707070707070707070707070707070707070707070707070707070707070707070707070707070707070707070707070707070707070707070000000007000000000000000000070000000000000000000000000000000000000000000000000000000000000000000000000000
310
00000000000000000000000000000000000000000000000000000000000000000000000007000000000707070707070707070707070707070707070707070707070707070707070707070707070707070707070707070707070707070707070707070707070707070707070707070707070707070707070707070707070707
310
00000000070000000000000000000700000000000000000000000000000000000000000000000000000000000000000000000000000000000000000000000000000000000000000000000000000000000000000000000000000700000000070707070707070707070707070707070707070707070707070707070707070707
310
07070707070707070707070707070707070707070707070707070707070707070707070707070707070707070707070707070707070000000007000000000000000000070000000000000000000000000000000000000000000000000000000000000000000000000000000000000000000000000000000000000000000000
310
00000000000000000000000000000007000000000707070707070707070707070707070707070707070707070707070707070707070707070707070707070707070707070707070707070707070707070707070707070707070707070707070707070707070707070707000000000700000000000000000007000000000000
310
00000000000000000000000000000000000000000000000000000000000000000000000000000000000000000000000000000000000000000000000000000000000000000700000000070707070707070707070707070707070707070707070707070707070707070707070707070707070707070707070707070707070707
310
07070707070707070707070707070707070707070707070707070707070707070000000007000000000000000000070000000000000000000000000000000000000000000000000000000000000000000000000000000000000000000000000000000000000000000000000000000000000000000000000000070000000007
310
07070707070707070707070707070707070707070707070707070707070707070707070707070707070707070707070707070707070707070707070707070707070707070707070707070707070707070707070707000000000700000000000000000007000000000000000000000000000000000000000000000000000000
310
00000000000000000000000000000000000000000000000000000000000000000000000000000000000000000000000700000000070707070707070707070707070707070707070707070707070707070707070707070707070707070707070707070707070707070707070707070707070707070707070707070707070707
310
07070707070707070707070000000007000000000000000000070000000000000000000000000000000000000000000000000000000000000000000000000000000000000000000000000000000000000000000000000000000000000000000000000000070000000007070707070707070707070707070707070707070707
310
07070707070707070707070707070707070707070707070707070707070707070707070707070707070707070707070707070707070707070707070707070707000000000700000000000000000007000000000000000000000000000000000000000000000000000000000000000000000000000000000000000000000000
310
00000000000000000000000000000000000000000000000000000700000000070707070707070707070707070707070707070707070707070707070707070707070707070707070707070707070707070707070707070707070707070707070707070707070707070707070707070707070707070700000000070000000000
310
00000000070000000000000000000000000000000000000000000000000000000000000000000000000000000000000000000000000000000000000000000000000000000000000000000000000000070000000007070707070707070707070707070707070707070707070707070707070707070707070707070707070707
310
07070707070707070707070707070707070707070707070707070707070707070707070707070707070707000000000700000000000000000007000000000000000000000000000000000000000000000000000000000000000000000000000000000000000000000000000000000000000000000000000000000000000000
310
00000000000700000000070707070707070707070707070707070707070707070707070707070707070707070707070707070707070707070707070707070707070707070707070707070707070707070707070707070707070707070707070700000000070000000000000000000700000000000000000000000000000000
310
00000000000000000000000000000000000000000000000000000000000000000000000000000000000000000000000000000000000000000000070000000007070707070707070707070707070707070707070707070707070707070707070707070707070707070707070707070707070707070707070707070707070707
310
07070707070707070707070707070707070707070707000000000700000000000000000007000000000000000000000000000000000000000000000000000000000000000000000000000000000000000000000000000000000000000000000000000000000000000000000000000007000000000707070707070707070707
310
07070707070707070707070707070707070707070707070707070707070707070707070707070707070707070707070707070707070707070707070707070707070707070707070707070700000000070000000000000000000700000000000000000000000000000000000000000000000000000000000000000000000000
310
00000000000000000000000000000000000000000000000000000000000000000000000000070000000007070707070707070707070707070707070707070707070707070707070707070707070707070707070707070707070707070707070707070707070707070707070707070707070707070707070707070707070707
310
07000000000700000000000000000007000000000000000000000000000000000000000000000000000000000000000000000000000000000000000000000000000000000000000000000000000000000000000000000000000007000000000707070707070707070707070707070707070707070707070707070707070707
310
070707070707070707070707070707070707070707070707070707070707070707070707070707070707070707070707070707070707000000000700000000000000000007000000000000000000000000000000000000000000000000000000000000000000000000000000
  0
ENDSEC
  0
EOF
