  0
SECTION
  2
HEADER
  9
$ACADVER
  1
AC1015
  9
$ACADMAINTVER
 70
     6
  9
$DWGCODEPAGE
  3
ANSI_1252
  9
$INSBASE
 10
0.0
 20
0.0
 30
0.0
  9
$EXTMIN
 10
-21.0
 20
-5.0320496332
 30
0.0
  9
$EXTMAX
 10
21.0
 20
9.4324227802
 30
0.0
  9
$LIMMIN
 10
0.0
 20
0.0
  9
$LIMMAX
 10
12.0
 20
9.0
  9
$ORTHOMODE
 70
     0
  9
$REGENMODE
 70
     1
  9
$FILLMODE
 70
     1
  9
$QTEXTMODE
 70
     0
  9
$MIRRTEXT
 70
     1
  9
$LTSCALE
 40
1.0
  9
$ATTMODE
 70
     1
  9
$TEXTSIZE
 40
0.1377952756
  9
$TRACEWID
 40
0.05
  9
$TEXTSTYLE
  7
Standard
  9
$CLAYER
  8
0
  9
$CELTYPE
  6
ByLayer
  9
$CECOLOR
 62
   256
  9
$CELTSCALE
 40
1.0
  9
$DISPSILH
 70
     0
  9
$DIMSCALE
 40
1.0
  9
$DIMASZ
 40
0.13
  9
$DIMEXO
 40
0.0393700787
  9
$DIMDLI
 40
0.38
  9
$DIMRND
 40
0.0
  9
$DIMDLE
 40
0.0
  9
$DIMEXE
 40
0.0393700787
  9
$DIMTP
 40
0.0
  9
$DIMTM
 40
0.0
  9
$DIMTXT
 40
0.1377952756
  9
$DIMCEN
 40
0.09
  9
$DIMTSZ
 40
0.0
  9
$DIMTOL
 70
     0
  9
$DIMLIM
 70
     0
  9
$DIMTIH
 70
     1
  9
$DIMTOH
 70
     1
  9
$DIMSE1
 70
     0
  9
$DIMSE2
 70
     0
  9
$DIMTAD
 70
     1
  9
$DIMZIN
 70
     0
  9
$DIMBLK
  1

  9
$DIMASO
 70
     1
  9
$DIMSHO
 70
     1
  9
$DIMPOST
  1

  9
$DIMAPOST
  1

  9
$DIMALT
 70
     0
  9
$DIMALTD
 70
     2
  9
$DIMALTF
 40
25.4
  9
$DIMLFAC
 40
1.0
  9
$DIMTOFL
 70
     0
  9
$DIMTVP
 40
0.0
  9
$DIMTIX
 70
     0
  9
$DIMSOXD
 70
     0
  9
$DIMSAH
 70
     0
  9
$DIMBLK1
  1

  9
$DIMBLK2
  1

  9
$DIMSTYLE
  2
Standard
  9
$DIMCLRD
 70
     0
  9
$DIMCLRE
 70
     0
  9
$DIMCLRT
 70
     0
  9
$DIMTFAC
 40
1.0
  9
$DIMGAP
 40
0.06
  9
$DIMJUST
 70
     0
  9
$DIMSD1
 70
     0
  9
$DIMSD2
 70
     0
  9
$DIMTOLJ
 70
     1
  9
$DIMTZIN
 70
     0
  9
$DIMALTZ
 70
     0
  9
$DIMALTTZ
 70
     0
  9
$DIMUPT
 70
     0
  9
$DIMDEC
 70
     3
  9
$DIMTDEC
 70
     3
  9
$DIMALTU
 70
     2
  9
$DIMALTTD
 70
     2
  9
$DIMTXSTY
  7
Standard
  9
$DIMAUNIT
 70
     0
  9
$DIMADEC
 70
     2
  9
$DIMALTRND
 40
0.0
  9
$DIMAZIN
 70
     0
  9
$DIMDSEP
 70
    46
  9
$DIMATFIT
 70
     3
  9
$DIMFRAC
 70
     0
  9
$DIMLDRBLK
  1

  9
$DIMLUNIT
 70
     2
  9
$DIMLWD
 70
    -2
  9
$DIMLWE
 70
    -2
  9
$DIMTMOVE
 70
     0
  9
$LUNITS
 70
     2
  9
$LUPREC
 70
     2
  9
$SKETCHINC
 40
0.1
  9
$FILLETRAD
 40
0.5
  9
$AUNITS
 70
     0
  9
$AUPREC
 70
     2
  9
$MENU
  1
.
  9
$ELEVATION
 40
0.0
  9
$PELEVATION
 40
0.0
  9
$THICKNESS
 40
0.0
  9
$LIMCHECK
 70
     0
  9
$CHAMFERA
 40
0.0
  9
$CHAMFERB
 40
0.0
  9
$CHAMFERC
 40
0.0
  9
$CHAMFERD
 40
0.0
  9
$SKPOLY
 70
     0
  9
$TDCREATE
 40
2456890.363769919
  9
$TDUCREATE
 40
2456890.613769919
  9
$TDUPDATE
 40
2456890.363817222
  9
$TDUUPDATE
 40
2456890.613817222
  9
$TDINDWG
 40
0.0000000116
  9
$TDUSRTIMER
 40
0.0000000116
  9
$USRTIMER
 70
     1
  9
$ANGBASE
 50
0.0
  9
$ANGDIR
 70
     0
  9
$PDMODE
 70
     0
  9
$PDSIZE
 40
-1.0
  9
$PLINEWID
 40
0.0
  9
$SPLFRAME
 70
     0
  9
$SPLINETYPE
 70
     6
  9
$SPLINESEGS
 70
     8
  9
$HANDSEED
  5
155
  9
$SURFTAB1
 70
     6
  9
$SURFTAB2
 70
     6
  9
$SURFTYPE
 70
     6
  9
$SURFU
 70
     6
  9
$SURFV
 70
     6
  9
$UCSBASE
  2

  9
$UCSNAME
  2

  9
$UCSORG
 10
0.0
 20
0.0
 30
0.0
  9
$UCSXDIR
 10
1.0
 20
0.0
 30
0.0
  9
$UCSYDIR
 10
0.0
 20
1.0
 30
0.0
  9
$UCSORTHOREF
  2

  9
$UCSORTHOVIEW
 70
     0
  9
$UCSORGTOP
 10
0.0
 20
0.0
 30
0.0
  9
$UCSORGBOTTOM
 10
0.0
 20
0.0
 30
0.0
  9
$UCSORGLEFT
 10
0.0
 20
0.0
 30
0.0
  9
$UCSORGRIGHT
 10
0.0
 20
0.0
 30
0.0
  9
$UCSORGFRONT
 10
0.0
 20
0.0
 30
0.0
  9
$UCSORGBACK
 10
0.0
 20
0.0
 30
0.0
  9
$PUCSBASE
  2

  9
$PUCSNAME
  2

  9
$PUCSORG
 10
0.0
 20
0.0
 30
0.0
  9
$PUCSXDIR
 10
1.0
 20
0.0
 30
0.0
  9
$PUCSYDIR
 10
0.0
 20
1.0
 30
0.0
  9
$PUCSORTHOREF
  2

  9
$PUCSORTHOVIEW
 70
     0
  9
$PUCSORGTOP
 10
0.0
 20
0.0
 30
0.0
  9
$PUCSORGBOTTOM
 10
0.0
 20
0.0
 30
0.0
  9
$PUCSORGLEFT
 10
0.0
 20
0.0
 30
0.0
  9
$PUCSORGRIGHT
 10
0.0
 20
0.0
 30
0.0
  9
$PUCSORGFRONT
 10
0.0
 20
0.0
 30
0.0
  9
$PUCSORGBACK
 10
0.0
 20
0.0
 30
0.0
  9
$USERI1
 70
     0
  9
$USERI2
 70
     0
  9
$USERI3
 70
     0
  9
$USERI4
 70
     0
  9
$USERI5
 70
     0
  9
$USERR1
 40
0.0
  9
$USERR2
 40
0.0
  9
$USERR3
 40
0.0
  9
$USERR4
 40
0.0
  9
$USERR5
 40
0.0
  9
$WORLDVIEW
 70
     1
  9
$SHADEDGE
 70
     3
  9
$SHADEDIF
 70
    70
  9
$TILEMODE
 70
     1
  9
$MAXACTVP
 70
    64
  9
$PINSBASE
 10
0.0
 20
0.0
 30
0.0
  9
$PLIMCHECK
 70
     0
  9
$PEXTMIN
 10
1.0000000000E+20
 20
1.0000000000E+20
 30
1.0000000000E+20
  9
$PEXTMAX
 10
-1.0000000000E+20
 20
-1.0000000000E+20
 30
-1.0000000000E+20
  9
$PLIMMIN
 10
0.0
 20
0.0
  9
$PLIMMAX
 10
12.0
 20
9.0
  9
$UNITMODE
 70
     0
  9
$VISRETAIN
 70
     1
  9
$PLINEGEN
 70
     0
  9
$PSLTSCALE
 70
     1
  9
$TREEDEPTH
 70
  3020
  9
$CMLSTYLE
  2
Standard
  9
$CMLJUST
 70
     0
  9
$CMLSCALE
 40
1.0
  9
$PROXYGRAPHICS
 70
     1
  9
$MEASUREMENT
 70
     0
  9
$CELWEIGHT
370
    -1
  9
$ENDCAPS
280
     0
  9
$JOINSTYLE
280
     0
  9
$LWDISPLAY
290
     1
  9
$INSUNITS
 70
     1
  9
$HYPERLINKBASE
  1

  9
$STYLESHEET
  1

  9
$XEDIT
290
     1
  9
$CEPSNTYPE
380
     0
  9
$PSTYLEMODE
290
     1
  9
$FINGERPRINTGUID
  2
{93933D8D-2D23-4F23-9CC2-6E377A9F8B85}
  9
$VERSIONGUID
  2
{FAEB1C32-E019-11D5-929B-00C0DF256EC4}
  9
$EXTNAMES
290
     1
  9
$PSVPSCALE
 40
0.0
  9
$OLESTARTUP
290
     0
  0
ENDSEC
  0
SECTION
  2
CLASSES
  0
CLASS
  1
ACDBDICTIONARYWDFLT
  2
AcDbDictionaryWithDefault
  3
ObjectDBX Classes
 90
        0
280
     0
281
     0
  0
CLASS
  1
VISUALSTYLE
  2
AcDbVisualStyle
  3
ObjectDBX Classes
 90
     4095
280
     0
281
     0
  0
CLASS
  1
MATERIAL
  2
AcDbMaterial
  3
ObjectDBX Classes
 90
     1153
280
     0
281
     0
  0
CLASS
  1
SCALE
  2
AcDbScale
  3
ObjectDBX Classes
 90
     1153
280
     0
281
     0
  0
CLASS
  1
SUN
  2
AcDbSun
  3
SCENEOE
 90
     1153
280
     0
281
     0
  0
CLASS
  1
ACDBPLACEHOLDER
  2
AcDbPlaceHolder
  3
ObjectDBX Classes
 90
        0
280
     0
281
     0
  0
CLASS
  1
LAYOUT
  2
AcDbLayout
  3
ObjectDBX Classes
 90
        0
280
     0
281
     0
  0
ENDSEC
  0
SECTION
  2
TABLES
  0
TABLE
  2
VPORT
  5
8
330
0
100
AcDbSymbolTable
 70
     1
  0
VPORT
  5
29
330
8
100
AcDbSymbolTableRecord
100
AcDbViewportTableRecord
  2
*Active
 70
     0
 10
0.0
 20
0.0
 11
1.0
 21
1.0
 12
0.0
 22
2.2001865735
 13
0.0
 23
0.0
 14
0.5
 24
0.5
 15
0.5
 25
0.5
 16
0.0
 26
0.0
 36
1.0
 17
0.0
 27
0.0
 37
0.0
 40
14.7537618617
 41
2.9036662244
 42
50.0
 43
0.0
 44
0.0
 50
0.0
 51
0.0
 71
     0
 72
   100
 73
     1
 74
     3
 75
     0
 76
     0
 77
     0
 78
     0
281
     0
 65
     1
110
0.0
120
0.0
130
0.0
111
1.0
121
0.0
131
0.0
112
0.0
122
1.0
132
0.0
 79
     0
146
0.0
  0
ENDTAB
  0
TABLE
  2
LTYPE
  5
5
330
0
100
AcDbSymbolTable
 70
     6
  0
LTYPE
  5
14
330
5
100
AcDbSymbolTableRecord
100
AcDbLinetypeTableRecord
  2
ByBlock
 70
     0
  3

 72
    65
 73
     0
 40
0.0
  0
LTYPE
  5
15
330
5
100
AcDbSymbolTableRecord
100
AcDbLinetypeTableRecord
  2
ByLayer
 70
     0
  3

 72
    65
 73
     0
 40
0.0
  0
LTYPE
  5
16
330
5
100
AcDbSymbolTableRecord
100
AcDbLinetypeTableRecord
  2
Continuous
 70
     0
  3
Solid line
 72
    65
 73
     0
 40
0.0
  0
LTYPE
  5
6A
330
5
100
AcDbSymbolTableRecord
100
AcDbLinetypeTableRecord
  2
HIDDEN
 70
     0
  3
Hidden __ __ __ __ __ __ __ __ __ __ __ __ __ __
 72
    65
 73
     2
 40
0.075
 49
0.05
 74
     0
 49
-0.025
 74
     0
  0
LTYPE
  5
6B
330
5
100
AcDbSymbolTableRecord
100
AcDbLinetypeTableRecord
  2
PHANTOM
 70
     0
  3
Phantom ______  __  __  ______  __  __  ______
 72
    65
 73
     6
 40
0.5
 49
0.25
 74
     0
 49
-0.05
 74
     0
 49
0.05
 74
     0
 49
-0.05
 74
     0
 49
0.05
 74
     0
 49
-0.05
 74
     0
  0
LTYPE
  5
6C
330
5
100
AcDbSymbolTableRecord
100
AcDbLinetypeTableRecord
  2
CENTER
 70
     0
  3
Center ____ _ ____ _ ____ _ ____ _ ____ _ ____
 72
    65
 73
     4
 40
0.4
 49
0.25
 74
     0
 49
-0.05
 74
     0
 49
0.05
 74
     0
 49
-0.05
 74
     0
  0
LTYPE
  5
6D
330
5
100
AcDbSymbolTableRecord
100
AcDbLinetypeTableRecord
  2
CENTERX2
 70
     0
  3
Center (2x) ________  __  ________  __  _____
 72
    65
 73
     4
 40
0.8
 49
0.5
 74
     0
 49
-0.1
 74
     0
 49
0.1
 74
     0
 49
-0.1
 74
     0
  0
LTYPE
  5
6E
330
5
100
AcDbSymbolTableRecord
100
AcDbLinetypeTableRecord
  2
DOT2
 70
     0
  3
Dot (.5x) ........................................
 72
    65
 73
     2
 40
0.025
 49
0.0
 74
     0
 49
-0.025
 74
     0
  0
ENDTAB
  0
TABLE
  2
LAYER
  5
2
330
0
100
AcDbSymbolTable
 70
     1
  0
LAYER
  5
10
330
2
100
AcDbSymbolTableRecord
100
AcDbLayerTableRecord
  2
0
 70
     0
 62
     7
  6
Continuous
370
    -3
390
F
  0
ENDTAB
  0
TABLE
  2
STYLE
  5
3
330
0
100
AcDbSymbolTable
 70
     1
  0
STYLE
  5
11
330
3
100
AcDbSymbolTableRecord
100
AcDbTextStyleTableRecord
  2
Standard
 70
     0
 40
0.0
 41
1.0
 50
0.0
 71
     0
 42
0.1377952756
  3
txt
  4

  0
ENDTAB
  0
TABLE
  2
VIEW
  5
6
330
0
100
AcDbSymbolTable
 70
     0
  0
ENDTAB
  0
TABLE
  2
UCS
  5
7
330
0
100
AcDbSymbolTable
 70
     0
  0
ENDTAB
  0
TABLE
  2
APPID
  5
9
330
0
100
AcDbSymbolTable
 70
     1
  0
APPID
  5
12
330
9
100
AcDbSymbolTableRecord
100
AcDbRegAppTableRecord
  2
ACAD
 70
     0
  0
ENDTAB
  0
TABLE
  2
DIMSTYLE
  5
A
330
0
100
AcDbSymbolTable
 70
     1
100
AcDbDimStyleTable
  0
DIMSTYLE
105
27
330
A
100
AcDbSymbolTableRecord
100
AcDbDimStyleTableRecord
  2
Standard
 70
     0
178
     0
340
11
  0
ENDTAB
  0
TABLE
  2
BLOCK_RECORD
  5
1
330
0
100
AcDbSymbolTable
 70
     1
  0
BLOCK_RECORD
  5
1F
330
1
100
AcDbSymbolTableRecord
100
AcDbBlockTableRecord
  2
*Model_Space
340
22
  0
BLOCK_RECORD
  5
1B
330
1
100
AcDbSymbolTableRecord
100
AcDbBlockTableRecord
  2
*Paper_Space
340
1E
  0
BLOCK_RECORD
  5
23
330
1
100
AcDbSymbolTableRecord
100
AcDbBlockTableRecord
  2
*Paper_Space0
340
26
  0
ENDTAB
  0
ENDSEC
  0
SECTION
  2
BLOCKS
  0
BLOCK
  5
20
330
1F
100
AcDbEntity
  8
0
100
AcDbBlockBegin
  2
*Model_Space
 70
     0
 10
0.0
 20
0.0
 30
0.0
  3
*Model_Space
  1
*Model_Space
  0
ENDBLK
  5
21
330
1F
100
AcDbEntity
  8
0
100
AcDbBlockEnd
  0
BLOCK
  5
1C
330
1B
100
AcDbEntity
 67
     1
  8
0
100
AcDbBlockBegin
  2
*Paper_Space
 70
     0
 10
0.0
 20
0.0
 30
0.0
  3
*Paper_Space
  1
*Paper_Space
  0
ENDBLK
  5
1D
330
1B
100
AcDbEntity
 67
     1
  8
0
100
AcDbBlockEnd
  0
BLOCK
  5
24
330
23
100
AcDbEntity
  8
0
100
AcDbBlockBegin
  2
*Paper_Space0
 70
     0
 10
0.0
 20
0.0
 30
0.0
  3
*Paper_Space0
  1
*Paper_Space0
  0
ENDBLK
  5
25
330
23
100
AcDbEntity
  8
0
100
AcDbBlockEnd
  0
ENDSEC
  0
SECTION
  2
ENTITIES
  0
SPLINE
  5
84
330
1F
100
AcDbEntity
  8
0
  6
Continuous
 62
     7
370
    15
100
AcDbSpline
210
0.0
220
0.0
230
1.0
 70
     8
 71
     3
 72
    23
 73
    19
 74
     0
 42
0.000000001
 43
0.00000001
 40
0.0
 40
0.0
 40
0.0
 40
0.0
 40
0.0451405436665871
 40
0.0922881312730602
 40
0.1415367603201781
 40
0.1929689099956288
 40
0.2466569970241
 40
0.3026646881799688
 40
0.3610480621812008
 40
0.4218566254123435
 40
0.4851341923378795
 40
0.5509196443853771
 40
0.6192475818451249
 40
0.6901488828571855
 40
0.7636511824418649
 40
0.8397792831312515
 40
0.9185555073121917
 40
1.0
 40
1.0
 40
1.0
 40
1.0
 10
-19.08952773687342
 20
-0.6273578266258715
 30
0.0
 10
-19.08760716063795
 20
-0.6258903064401541
 30
0.0
 10
-19.08368061528997
 20
-0.6228900170208312
 30
0.0
 10
-19.07738962334337
 20
-0.6186591882844636
 30
0.0
 10
-19.07065470891946
 20
-0.6145003623792629
 30
0.0
 10
-19.0634526972867
 20
-0.6104427841680927
 30
0.0
 10
-19.05579011509132
 20
-0.6064778822084983
 30
0.0
 10
-19.04766498824034
 20
-0.602607943737194
 30
0.0
 10
-19.03907777109408
 20
-0.5988321917144884
 30
0.0
 10
-19.0300282289257
 20
-0.595150756416981
 30
0.0
 10
-19.02051633205525
 20
-0.5915635291236655
 30
0.0
 10
-19.01054199698149
 20
-0.5880705071195849
 30
0.0
 10
-19.00010518119045
 20
-0.5846715974969815
 30
0.0
 10
-18.98920577406727
 20
-0.5813670386980362
 30
0.0
 10
-18.97784395023508
 20
-0.5781558217008362
 30
0.0
 10
-18.96601879679582
 20
-0.5750418713242641
 30
0.0
 10
-18.95373370332613
 20
-0.5720097359098685
 30
0.0
 10
-18.94536798300335
 20
-0.5701149844673743
 30
0.0
 10
-18.941115462724
 20
-0.5691518314306175
 30
0.0
  0
LWPOLYLINE
  5
85
330
1F
100
AcDbEntity
  8
0
  6
Continuous
 62
     7
370
    15
100
AcDbPolyline
 90
        9
 70
   128
 43
0.0
 10
-19.3116002985
 20
-1.5336729405
 10
-19.3112808106
 20
-1.4038103525
 10
-19.3025603027
 20
-1.2749932512
 10
-19.2855692996
 20
-1.149149718
 10
-19.2605621157
 20
-1.0281633269
 10
-19.2279130482
 20
-0.9138449526
 10
-19.188110775
 20
-0.8079056654
 10
-19.1417510401
 20
-0.7119311209
 10
-19.0895277369
 20
-0.6273578266
  0
LWPOLYLINE
  5
86
330
1F
100
AcDbEntity
  8
0
  6
Continuous
 62
     7
370
    15
100
AcDbPolyline
 90
       29
 70
   128
 43
0.0
 10
-18.1883997015
 20
-1.5336729405
 10
-18.1885012139
 20
-1.6569902875
 10
-18.1961810401
 20
-1.7794532362
 10
-18.2113355285
 20
-1.8994089554
 10
-18.2337601454
 20
-2.0152384532
 10
-18.2631522352
 20
-2.1253784272
 10
-18.2991151052
 20
-2.2283423646
 10
-18.3411633795
 20
-2.3227406042
 10
-18.3887295503
 20
-2.4072990925
 10
-18.4411716368
 20
-2.4808765792
 10
-18.4977818503
 20
-2.5424800196
 10
-18.5577961464
 20
-2.591277978
 10
-18.6204045373
 20
-2.6266118488
 10
-18.6847620239
 20
-2.6480047456
 10
-18.75
 20
-2.6551679374
 10
-18.8152379761
 20
-2.6480047456
 10
-18.8795954627
 20
-2.6266118488
 10
-18.9422038536
 20
-2.591277978
 10
-19.0022181497
 20
-2.5424800196
 10
-19.0588283632
 20
-2.4808765792
 10
-19.1112704497
 20
-2.4072990925
 10
-19.1588366205
 20
-2.3227406042
 10
-19.2008848948
 20
-2.2283423646
 10
-19.2368477648
 20
-2.1253784272
 10
-19.2662398546
 20
-2.0152384532
 10
-19.2886644715
 20
-1.8994089554
 10
-19.3038189599
 20
-1.7794532362
 10
-19.3114987861
 20
-1.6569902875
 10
-19.3116002985
 20
-1.5336729405
  0
LWPOLYLINE
  5
87
330
1F
100
AcDbEntity
  8
0
  6
Continuous
 62
     7
370
    15
100
AcDbPolyline
 90
        9
 70
   128
 43
0.0
 10
-18.4104722631
 20
-0.6273578266
 10
-18.3582489599
 20
-0.7119311209
 10
-18.311889225
 20
-0.8079056654
 10
-18.2720869518
 20
-0.9138449526
 10
-18.2394378843
 20
-1.0281633269
 10
-18.2144307004
 20
-1.149149718
 10
-18.1974396973
 20
-1.2749932512
 10
-18.1887191894
 20
-1.4038103525
 10
-18.1883997015
 20
-1.5336729405
  0
SPLINE
  5
88
330
1F
100
AcDbEntity
  8
0
  6
Continuous
 62
     7
370
    15
100
AcDbSpline
210
0.0
220
0.0
230
1.0
 70
     8
 71
     3
 72
    18
 73
    14
 74
     0
 42
0.000000001
 43
0.00000001
 40
0.0
 40
0.0
 40
0.0
 40
0.0
 40
0.1199073785845363
 40
0.2337442893721936
 40
0.3415704600784306
 40
0.4434561898621728
 40
0.5394848251270076
 40
0.6297559371227799
 40
0.7143894207089388
 40
0.7935307969907571
 40
0.8673580707349919
 40
0.9360905468295674
 40
1.0
 40
1.0
 40
1.0
 40
1.0
 10
-18.55888320937111
 20
-0.5691504448571417
 30
0.0
 10
-18.55263784469799
 20
-0.570624826325156
 30
0.0
 10
-18.54046329510297
 20
-0.5734989467718925
 30
0.0
 10
-18.52278980006119
 20
-0.5781735110360013
 30
0.0
 10
-18.50615419047788
 20
-0.582980512633764
 30
0.0
 10
-18.49056284831222
 20
-0.5879492010951393
 30
0.0
 10
-18.47601386331764
 20
-0.5930725506981427
 30
0.0
 10
-18.46250676196809
 20
-0.5983519206200097
 30
0.0
 10
-18.45004228444144
 20
-0.6037888950951475
 30
0.0
 10
-18.43861499900721
 20
-0.6093779087334896
 30
0.0
 10
-18.42824018686895
 20
-0.6151400662128121
 30
0.0
 10
-18.41886299531818
 20
-0.6210077185133921
 30
0.0
 10
-18.41320054261981
 20
-0.6252930640583803
 30
0.0
 10
-18.41047226312659
 20
-0.6273578266258736
 30
0.0
  0
CIRCLE
  5
8F
330
1F
100
AcDbEntity
  8
0
  6
Continuous
 62
     7
370
    15
100
AcDbCircle
 10
0.0
 20
2.061306337
 30
0.0
 40
0.3750000000000011
  0
CIRCLE
  5
90
330
1F
100
AcDbEntity
  8
0
  6
Continuous
 62
     7
370
    15
100
AcDbCircle
 10
0.0
 20
6.311306337
 30
0.0
 40
0.3750000000000018
  0
CIRCLE
  5
91
330
1F
100
AcDbEntity
  8
0
  6
Continuous
 62
     7
370
    15
100
AcDbCircle
 10
-2.0
 20
2.061306337
 30
0.0
 40
0.375000000000002
  0
CIRCLE
  5
92
330
1F
100
AcDbEntity
  8
0
  6
Continuous
 62
     7
370
    15
100
AcDbCircle
 10
-2.0
 20
6.311306337
 30
0.0
 40
0.3750000000000018
  0
CIRCLE
  5
93
330
1F
100
AcDbEntity
  8
0
  6
Continuous
 62
     7
370
    15
100
AcDbCircle
 10
-4.0
 20
2.061306337
 30
0.0
 40
0.3749999999999993
  0
CIRCLE
  5
94
330
1F
100
AcDbEntity
  8
0
  6
Continuous
 62
     7
370
    15
100
AcDbCircle
 10
-4.0
 20
6.311306337
 30
0.0
 40
0.3750000000000018
  0
CIRCLE
  5
95
330
1F
100
AcDbEntity
  8
0
  6
Continuous
 62
     7
370
    15
100
AcDbCircle
 10
-6.0
 20
2.061306337
 30
0.0
 40
0.3750000000000011
  0
CIRCLE
  5
96
330
1F
100
AcDbEntity
  8
0
  6
Continuous
 62
     7
370
    15
100
AcDbCircle
 10
-6.0
 20
6.311306337
 30
0.0
 40
0.3750000000000018
  0
CIRCLE
  5
97
330
1F
100
AcDbEntity
  8
0
  6
Continuous
 62
     7
370
    15
100
AcDbCircle
 10
-8.0
 20
2.061306337
 30
0.0
 40
0.3750000000000011
  0
CIRCLE
  5
98
330
1F
100
AcDbEntity
  8
0
  6
Continuous
 62
     7
370
    15
100
AcDbCircle
 10
-8.0
 20
6.311306337
 30
0.0
 40
0.3749999999999982
  0
CIRCLE
  5
99
330
1F
100
AcDbEntity
  8
0
  6
Continuous
 62
     7
370
    15
100
AcDbCircle
 10
-10.0
 20
2.061306337
 30
0.0
 40
0.3749999999999976
  0
CIRCLE
  5
9A
330
1F
100
AcDbEntity
  8
0
  6
Continuous
 62
     7
370
    15
100
AcDbCircle
 10
-10.0
 20
6.311306337
 30
0.0
 40
0.3750000000000036
  0
CIRCLE
  5
9B
330
1F
100
AcDbEntity
  8
0
  6
Continuous
 62
     7
370
    15
100
AcDbCircle
 10
-12.0
 20
2.061306337
 30
0.0
 40
0.3750000000000007
  0
CIRCLE
  5
9C
330
1F
100
AcDbEntity
  8
0
  6
Continuous
 62
     7
370
    15
100
AcDbCircle
 10
-12.0
 20
6.311306337
 30
0.0
 40
0.3749999999999982
  0
CIRCLE
  5
9D
330
1F
100
AcDbEntity
  8
0
  6
Continuous
 62
     7
370
    15
100
AcDbCircle
 10
-14.0
 20
2.061306337
 30
0.0
 40
0.3750000000000007
  0
CIRCLE
  5
9E
330
1F
100
AcDbEntity
  8
0
  6
Continuous
 62
     7
370
    15
100
AcDbCircle
 10
-14.0
 20
6.311306337
 30
0.0
 40
0.375
  0
CIRCLE
  5
9F
330
1F
100
AcDbEntity
  8
0
  6
Continuous
 62
     7
370
    15
100
AcDbCircle
 10
-16.0
 20
2.061306337
 30
0.0
 40
0.3750000000000033
  0
CIRCLE
  5
A0
330
1F
100
AcDbEntity
  8
0
  6
Continuous
 62
     7
370
    15
100
AcDbCircle
 10
-16.0
 20
6.311306337
 30
0.0
 40
0.3750000000000036
  0
CIRCLE
  5
A1
330
1F
100
AcDbEntity
  8
0
  6
Continuous
 62
     7
370
    15
100
AcDbCircle
 10
-18.0
 20
2.061306337
 30
0.0
 40
0.3749999999999958
  0
CIRCLE
  5
A2
330
1F
100
AcDbEntity
  8
0
  6
Continuous
 62
     7
370
    15
100
AcDbCircle
 10
-18.0
 20
6.311306337
 30
0.0
 40
0.3749999999999947
  0
CIRCLE
  5
A3
330
1F
100
AcDbEntity
  8
0
  6
Continuous
 62
     7
370
    15
100
AcDbCircle
 10
2.0
 20
2.061306337
 30
0.0
 40
0.3750000000000004
  0
CIRCLE
  5
A4
330
1F
100
AcDbEntity
  8
0
  6
Continuous
 62
     7
370
    15
100
AcDbCircle
 10
2.0
 20
6.311306337
 30
0.0
 40
0.3750000000000027
  0
CIRCLE
  5
A5
330
1F
100
AcDbEntity
  8
0
  6
Continuous
 62
     7
370
    15
100
AcDbCircle
 10
4.0
 20
2.061306337
 30
0.0
 40
0.3750000000000027
  0
CIRCLE
  5
A6
330
1F
100
AcDbEntity
  8
0
  6
Continuous
 62
     7
370
    15
100
AcDbCircle
 10
4.0
 20
6.311306337
 30
0.0
 40
0.3749999999999982
  0
CIRCLE
  5
A7
330
1F
100
AcDbEntity
  8
0
  6
Continuous
 62
     7
370
    15
100
AcDbCircle
 10
6.0
 20
2.061306337
 30
0.0
 40
0.3750000000000011
  0
CIRCLE
  5
A8
330
1F
100
AcDbEntity
  8
0
  6
Continuous
 62
     7
370
    15
100
AcDbCircle
 10
6.0
 20
6.311306337
 30
0.0
 40
0.375
  0
CIRCLE
  5
A9
330
1F
100
AcDbEntity
  8
0
  6
Continuous
 62
     7
370
    15
100
AcDbCircle
 10
8.0
 20
2.061306337
 30
0.0
 40
0.3749999999999993
  0
CIRCLE
  5
AA
330
1F
100
AcDbEntity
  8
0
  6
Continuous
 62
     7
370
    15
100
AcDbCircle
 10
8.0
 20
6.311306337
 30
0.0
 40
0.375
  0
CIRCLE
  5
AB
330
1F
100
AcDbEntity
  8
0
  6
Continuous
 62
     7
370
    15
100
AcDbCircle
 10
10.0
 20
2.061306337
 30
0.0
 40
0.3749999999999976
  0
CIRCLE
  5
AC
330
1F
100
AcDbEntity
  8
0
  6
Continuous
 62
     7
370
    15
100
AcDbCircle
 10
10.0
 20
6.311306337
 30
0.0
 40
0.3749999999999964
  0
CIRCLE
  5
AD
330
1F
100
AcDbEntity
  8
0
  6
Continuous
 62
     7
370
    15
100
AcDbCircle
 10
12.0
 20
2.061306337
 30
0.0
 40
0.3750000000000033
  0
CIRCLE
  5
AE
330
1F
100
AcDbEntity
  8
0
  6
Continuous
 62
     7
370
    15
100
AcDbCircle
 10
12.0
 20
6.311306337
 30
0.0
 40
0.3750000000000036
  0
CIRCLE
  5
AF
330
1F
100
AcDbEntity
  8
0
  6
Continuous
 62
     7
370
    15
100
AcDbCircle
 10
14.0
 20
2.061306337
 30
0.0
 40
0.3750000000000033
  0
CIRCLE
  5
B0
330
1F
100
AcDbEntity
  8
0
  6
Continuous
 62
     7
370
    15
100
AcDbCircle
 10
14.0
 20
6.311306337
 30
0.0
 40
0.3749999999999947
  0
CIRCLE
  5
B1
330
1F
100
AcDbEntity
  8
0
  6
Continuous
 62
     7
370
    15
100
AcDbCircle
 10
16.0
 20
2.061306337
 30
0.0
 40
0.3750000000000036
  0
CIRCLE
  5
B2
330
1F
100
AcDbEntity
  8
0
  6
Continuous
 62
     7
370
    15
100
AcDbCircle
 10
16.0
 20
6.311306337
 30
0.0
 40
0.3749999999999947
  0
CIRCLE
  5
B3
330
1F
100
AcDbEntity
  8
0
  6
Continuous
 62
     7
370
    15
100
AcDbCircle
 10
18.0
 20
2.061306337
 30
0.0
 40
0.3750000000000067
  0
CIRCLE
  5
B4
330
1F
100
AcDbEntity
  8
0
  6
Continuous
 62
     7
370
    15
100
AcDbCircle
 10
18.0
 20
6.311306337
 30
0.0
 40
0.3750000000000107
  0
SPLINE
  5
C8
330
1F
100
AcDbEntity
  8
0
  6
Continuous
 62
     7
370
    15
100
AcDbSpline
210
0.0
220
0.0
230
1.0
 70
     8
 71
     3
 72
    23
 73
    19
 74
     0
 42
0.000000001
 43
0.00000001
 40
0.0
 40
0.0
 40
0.0
 40
0.0
 40
0.0451405436662865
 40
0.0922881312725332
 40
0.141536760319434
 40
0.192968909994701
 40
0.2466569970229744
 40
0.3026646881787781
 40
0.3610480621799563
 40
0.4218566254110816
 40
0.4851341923365858
 40
0.5509196443841909
 40
0.6192475818440313
 40
0.6901488828562734
 40
0.7636511824411193
 40
0.8397792831306825
 40
0.9185555073119155
 40
1.0
 40
1.0
 40
1.0
 40
1.0
 10
-6.589527736873426
 20
-0.6273578266258725
 30
0.0
 10
-6.587607160637933
 20
-0.6258903064401399
 30
0.0
 10
-6.583680615289912
 20
-0.6228900170207821
 30
0.0
 10
-6.577389623343237
 20
-0.6186591882843768
 30
0.0
 10
-6.570654708919236
 20
-0.6145003623791306
 30
0.0
 10
-6.563452697286371
 20
-0.610442784167924
 30
0.0
 10
-6.555790115090884
 20
-0.6064778822082819
 30
0.0
 10
-6.547664988239778
 20
-0.6026079437369458
 30
0.0
 10
-6.539077771093365
 20
-0.5988321917142004
 30
0.0
 10
-6.530028228924833
 20
-0.5951507564166597
 30
0.0
 10
-6.520516332054211
 20
-0.5915635291233027
 30
0.0
 10
-6.510541996980272
 20
-0.5880705071191947
 30
0.0
 10
-6.500105181189026
 20
-0.5846715974965547
 30
0.0
 10
-6.489205774065632
 20
-0.5813670386975817
 30
0.0
 10
-6.477843950233225
 20
-0.5781558217003505
 30
0.0
 10
-6.466018796793716
 20
-0.5750418713237461
 30
0.0
 10
-6.453733703323776
 20
-0.5720097359093259
 30
0.0
 10
-6.445367983000827
 20
-0.5701149844668137
 30
0.0
 10
-6.441115462721388
 20
-0.5691518314300482
 30
0.0
  0
LWPOLYLINE
  5
C9
330
1F
100
AcDbEntity
  8
0
  6
Continuous
 62
     7
370
    15
100
AcDbPolyline
 90
        9
 70
   128
 43
0.0
 10
-6.8116002985
 20
-1.5336729405
 10
-6.8112808106
 20
-1.4038103525
 10
-6.8025603027
 20
-1.2749932512
 10
-6.7855692996
 20
-1.149149718
 10
-6.7605621157
 20
-1.0281633269
 10
-6.7279130482
 20
-0.9138449526
 10
-6.688110775
 20
-0.8079056654
 10
-6.6417510401
 20
-0.7119311209
 10
-6.5895277369
 20
-0.6273578266
  0
LWPOLYLINE
  5
CA
330
1F
100
AcDbEntity
  8
0
  6
Continuous
 62
     7
370
    15
100
AcDbPolyline
 90
       29
 70
   128
 43
0.0
 10
-5.6883997015
 20
-1.5336729405
 10
-5.6885012139
 20
-1.6569902875
 10
-5.6961810401
 20
-1.7794532362
 10
-5.7113355285
 20
-1.8994089554
 10
-5.7337601454
 20
-2.0152384532
 10
-5.7631522352
 20
-2.1253784272
 10
-5.7991151052
 20
-2.2283423646
 10
-5.8411633795
 20
-2.3227406042
 10
-5.8887295503
 20
-2.4072990925
 10
-5.9411716368
 20
-2.4808765792
 10
-5.9977818503
 20
-2.5424800196
 10
-6.0577961464
 20
-2.591277978
 10
-6.1204045373
 20
-2.6266118488
 10
-6.1847620239
 20
-2.6480047456
 10
-6.25
 20
-2.6551679374
 10
-6.3152379761
 20
-2.6480047456
 10
-6.3795954627
 20
-2.6266118488
 10
-6.4422038536
 20
-2.591277978
 10
-6.5022181497
 20
-2.5424800196
 10
-6.5588283632
 20
-2.4808765792
 10
-6.6112704497
 20
-2.4072990925
 10
-6.6588366205
 20
-2.3227406042
 10
-6.7008848948
 20
-2.2283423646
 10
-6.7368477648
 20
-2.1253784272
 10
-6.7662398546
 20
-2.0152384532
 10
-6.7886644715
 20
-1.8994089554
 10
-6.8038189599
 20
-1.7794532362
 10
-6.8114987861
 20
-1.6569902875
 10
-6.8116002985
 20
-1.5336729405
  0
LWPOLYLINE
  5
CB
330
1F
100
AcDbEntity
  8
0
  6
Continuous
 62
     7
370
    15
100
AcDbPolyline
 90
        9
 70
   128
 43
0.0
 10
-5.9104722631
 20
-0.6273578266
 10
-5.8582489599
 20
-0.7119311209
 10
-5.811889225
 20
-0.8079056654
 10
-5.7720869518
 20
-0.9138449526
 10
-5.7394378843
 20
-1.0281633269
 10
-5.7144307004
 20
-1.149149718
 10
-5.6974396973
 20
-1.2749932512
 10
-5.6887191894
 20
-1.4038103525
 10
-5.6883997015
 20
-1.5336729405
  0
SPLINE
  5
CC
330
1F
100
AcDbEntity
  8
0
  6
Continuous
 62
     7
370
    15
100
AcDbSpline
210
0.0
220
0.0
230
1.0
 70
     8
 71
     3
 72
    18
 73
    14
 74
     0
 42
0.000000001
 43
0.00000001
 40
0.0
 40
0.0
 40
0.0
 40
0.0
 40
0.1199073785845527
 40
0.2337442893722403
 40
0.3415704600785999
 40
0.4434561898624256
 40
0.5394848251272791
 40
0.6297559371229562
 40
0.7143894207091089
 40
0.7935307969909327
 40
0.8673580707351126
 40
0.9360905468296218
 40
1.0
 40
1.0
 40
1.0
 40
1.0
 10
-6.058883209370802
 20
-0.569150444857204
 30
0.0
 10
-6.052637844697701
 20
-0.5706248263252183
 30
0.0
 10
-6.040463295102696
 20
-0.5734989467719558
 30
0.0
 10
-6.022789800060936
 20
-0.5781735110360664
 30
0.0
 10
-6.006154190477659
 20
-0.5829805126338242
 30
0.0
 10
-5.990562848312006
 20
-0.5879492010951967
 30
0.0
 10
-5.976013863317466
 20
-0.5930725506981919
 30
0.0
 10
-5.962506761967949
 20
-0.598351920620061
 30
0.0
 10
-5.950042284441321
 20
-0.6037888950951896
 30
0.0
 10
-5.938614999007131
 20
-0.6093779087335207
 30
0.0
 10
-5.928240186868898
 20
-0.6151400662128362
 30
0.0
 10
-5.918862995318139
 20
-0.6210077185134059
 30
0.0
 10
-5.9132005426198
 20
-0.6252930640583857
 30
0.0
 10
-5.910472263126583
 20
-0.6273578266258752
 30
0.0
  0
SPLINE
  5
D0
330
1F
100
AcDbEntity
  8
0
  6
Continuous
 62
     7
370
    15
100
AcDbSpline
210
0.0
220
0.0
230
1.0
 70
     8
 71
     3
 72
    23
 73
    19
 74
     0
 42
0.000000001
 43
0.00000001
 40
0.0
 40
0.0
 40
0.0
 40
0.0
 40
0.0451405436663281
 40
0.0922881312726076
 40
0.1415367603195431
 40
0.1929689099948703
 40
0.2466569970231581
 40
0.30266468817899
 40
0.3610480621801727
 40
0.4218566254112787
 40
0.4851341923368028
 40
0.5509196443844033
 40
0.6192475818442146
 40
0.6901488828564286
 40
0.7636511824412341
 40
0.8397792831307713
 40
0.9185555073119791
 40
1.0
 40
1.0
 40
1.0
 40
1.0
 10
5.91047226312657
 20
-0.6273578266258736
 30
0.0
 10
5.912392839362053
 20
-0.625890306440147
 30
0.0
 10
5.916319384710055
 20
-0.6228900170208028
 30
0.0
 10
5.922610376656706
 20
-0.6186591882844135
 30
0.0
 10
5.929345291080671
 20
-0.6145003623791832
 30
0.0
 10
5.936547302713503
 20
-0.6104427841679955
 30
0.0
 10
5.94420988490895
 20
-0.6064778822083638
 30
0.0
 10
5.952335011760013
 20
-0.6026079437370442
 30
0.0
 10
5.960922228906379
 20
-0.5988321917143108
 30
0.0
 10
5.969971771074857
 20
-0.59515075641678
 30
0.0
 10
5.979483667945425
 20
-0.591563529123436
 30
0.0
 10
5.989458003019308
 20
-0.588070507119338
 30
0.0
 10
5.999894818810495
 20
-0.584671597496706
 30
0.0
 10
6.010794225933819
 20
-0.5813670386977418
 30
0.0
 10
6.022156049766161
 20
-0.5781558217005166
 30
0.0
 10
6.033981203205596
 20
-0.5750418713239193
 30
0.0
 10
6.046266296675464
 20
-0.5720097359095051
 30
0.0
 10
6.054632016998363
 20
-0.5701149844669952
 30
0.0
 10
6.058884537277773
 20
-0.5691518314302307
 30
0.0
  0
LWPOLYLINE
  5
D1
330
1F
100
AcDbEntity
  8
0
  6
Continuous
 62
     7
370
    15
100
AcDbPolyline
 90
        9
 70
   128
 43
0.0
 10
5.6883997015
 20
-1.5336729405
 10
5.6887191894
 20
-1.4038103525
 10
5.6974396973
 20
-1.2749932512
 10
5.7144307004
 20
-1.149149718
 10
5.7394378843
 20
-1.0281633269
 10
5.7720869518
 20
-0.9138449526
 10
5.811889225
 20
-0.8079056654
 10
5.8582489599
 20
-0.7119311209
 10
5.9104722631
 20
-0.6273578266
  0
LWPOLYLINE
  5
D2
330
1F
100
AcDbEntity
  8
0
  6
Continuous
 62
     7
370
    15
100
AcDbPolyline
 90
       29
 70
   128
 43
0.0
 10
6.8116002985
 20
-1.5336729405
 10
6.8114987861
 20
-1.6569902875
 10
6.8038189599
 20
-1.7794532362
 10
6.7886644715
 20
-1.8994089554
 10
6.7662398546
 20
-2.0152384532
 10
6.7368477648
 20
-2.1253784272
 10
6.7008848948
 20
-2.2283423646
 10
6.6588366205
 20
-2.3227406042
 10
6.6112704497
 20
-2.4072990925
 10
6.5588283632
 20
-2.4808765792
 10
6.5022181497
 20
-2.5424800196
 10
6.4422038536
 20
-2.591277978
 10
6.3795954627
 20
-2.6266118488
 10
6.3152379761
 20
-2.6480047456
 10
6.25
 20
-2.6551679374
 10
6.1847620239
 20
-2.6480047456
 10
6.1204045373
 20
-2.6266118488
 10
6.0577961464
 20
-2.591277978
 10
5.9977818503
 20
-2.5424800196
 10
5.9411716368
 20
-2.4808765792
 10
5.8887295503
 20
-2.4072990925
 10
5.8411633795
 20
-2.3227406042
 10
5.7991151052
 20
-2.2283423646
 10
5.7631522352
 20
-2.1253784272
 10
5.7337601454
 20
-2.0152384532
 10
5.7113355285
 20
-1.8994089554
 10
5.6961810401
 20
-1.7794532362
 10
5.6885012139
 20
-1.6569902875
 10
5.6883997015
 20
-1.5336729405
  0
LWPOLYLINE
  5
D3
330
1F
100
AcDbEntity
  8
0
  6
Continuous
 62
     7
370
    15
100
AcDbPolyline
 90
        9
 70
   128
 43
0.0
 10
6.5895277369
 20
-0.6273578266
 10
6.6417510401
 20
-0.7119311209
 10
6.688110775
 20
-0.8079056654
 10
6.7279130482
 20
-0.9138449526
 10
6.7605621157
 20
-1.0281633269
 10
6.7855692996
 20
-1.149149718
 10
6.8025603027
 20
-1.2749932512
 10
6.8112808106
 20
-1.4038103525
 10
6.8116002985
 20
-1.5336729405
  0
SPLINE
  5
D4
330
1F
100
AcDbEntity
  8
0
  6
Continuous
 62
     7
370
    15
100
AcDbSpline
210
0.0
220
0.0
230
1.0
 70
     8
 71
     3
 72
    18
 73
    14
 74
     0
 42
0.000000001
 43
0.00000001
 40
0.0
 40
0.0
 40
0.0
 40
0.0
 40
0.1199073785845705
 40
0.2337442893722237
 40
0.341570460078576
 40
0.4434561898623432
 40
0.5394848251271912
 40
0.6297559371229141
 40
0.7143894207090756
 40
0.7935307969908846
 40
0.8673580707350869
 40
0.9360905468296196
 40
1.0
 40
1.0
 40
1.0
 40
1.0
 10
6.441116790629192
 20
-0.5691504448572018
 30
0.0
 10
6.447362155302293
 20
-0.5706248263252149
 30
0.0
 10
6.459536704897295
 20
-0.5734989467719503
 30
0.0
 10
6.477210199939062
 20
-0.5781735110360631
 30
0.0
 10
6.493845809522334
 20
-0.5829805126338177
 30
0.0
 10
6.509437151687981
 20
-0.5879492010951928
 30
0.0
 10
6.523986136682527
 20
-0.5930725506981885
 30
0.0
 10
6.537493238032041
 20
-0.5983519206200545
 30
0.0
 10
6.549957715558677
 20
-0.6037888950951841
 30
0.0
 10
6.561385000992864
 20
-0.6093779087335185
 30
0.0
 10
6.571759813131103
 20
-0.6151400662128329
 30
0.0
 10
6.581137004681863
 20
-0.6210077185134031
 30
0.0
 10
6.586799457380202
 20
-0.6252930640583846
 30
0.0
 10
6.58952773687342
 20
-0.6273578266258752
 30
0.0
  0
SPLINE
  5
D8
330
1F
100
AcDbEntity
  8
0
  6
Continuous
 62
     7
370
    15
100
AcDbSpline
210
0.0
220
0.0
230
1.0
 70
     8
 71
     3
 72
    23
 73
    19
 74
     0
 42
0.000000001
 43
0.00000001
 40
0.0
 40
0.0
 40
0.0
 40
0.0
 40
0.0450407105903594
 40
0.0920995076012851
 40
0.1412712816447209
 40
0.1926392149287544
 40
0.2462762729949874
 40
0.3022465476678903
 40
0.3606064441444274
 40
0.4214057172270453
 40
0.4846883682368679
 40
0.5504934170638346
 40
0.6188555645157698
 40
0.6898057595697029
 40
0.7633716849222474
 40
0.8395781727601824
 40
0.918447561150373
 40
1.0
 40
1.0
 40
1.0
 40
1.0
 10
18.41047226312658
 20
-0.6273578266258741
 30
0.0
 10
18.41238689778313
 20
-0.6258911724930358
 30
0.0
 10
18.41630195389112
 20
-0.6228921495716546
 30
0.0
 10
18.42257789364019
 20
-0.6186638044859383
 30
0.0
 10
18.42929996378377
 20
-0.6145069925877978
 30
0.0
 10
18.43649150166382
 20
-0.6104510808569071
 30
0.0
 10
18.44414593382402
 20
-0.6064874547716587
 30
0.0
 10
18.45226525144902
 20
-0.6026184121334827
 30
0.0
 10
18.46084899769999
 20
-0.5988431707233737
 30
0.0
 10
18.46989741040623
 20
-0.5951618612284401
 30
0.0
 10
18.47941052034572
 20
-0.5915743741518186
 30
0.0
 10
18.48938841238167
 20
-0.5880807066870058
 30
0.0
 10
18.49983113004073
 20
-0.5846807659321832
 30
0.0
 10
18.51073878473148
 20
-0.5813747902530689
 30
0.0
 10
18.52211120267085
 20
-0.5781617711347405
 30
0.0
 10
18.53394929688907
 20
-0.575045633086925
 30
0.0
 10
18.54624967908709
 20
-0.5720109228644816
 30
0.0
 10
18.55462637749185
 20
-0.5701143754294296
 30
0.0
 10
18.55888477671452
 20
-0.5691502418611758
 30
0.0
  0
LWPOLYLINE
  5
D9
330
1F
100
AcDbEntity
  8
0
  6
Continuous
 62
     7
370
    15
100
AcDbPolyline
 90
        9
 70
   128
 43
0.0
 10
18.1883997015
 20
-1.5336729405
 10
18.1887191894
 20
-1.4038103525
 10
18.1974396973
 20
-1.2749932512
 10
18.2144307004
 20
-1.149149718
 10
18.2394378843
 20
-1.0281633269
 10
18.2720869518
 20
-0.9138449526
 10
18.311889225
 20
-0.8079056654
 10
18.3582489599
 20
-0.7119311209
 10
18.4104722631
 20
-0.6273578266
  0
LWPOLYLINE
  5
DA
330
1F
100
AcDbEntity
  8
0
  6
Continuous
 62
     7
370
    15
100
AcDbPolyline
 90
       29
 70
   128
 43
0.0
 10
19.3116002985
 20
-1.5336729405
 10
19.3114987861
 20
-1.6569902875
 10
19.3038189599
 20
-1.7794532362
 10
19.2886644715
 20
-1.8994089554
 10
19.2662398546
 20
-2.0152384532
 10
19.2368477648
 20
-2.1253784272
 10
19.2008848948
 20
-2.2283423646
 10
19.1588366205
 20
-2.3227406042
 10
19.1112704497
 20
-2.4072990925
 10
19.0588283632
 20
-2.4808765792
 10
19.0022181497
 20
-2.5424800196
 10
18.9422038536
 20
-2.591277978
 10
18.8795954627
 20
-2.6266118488
 10
18.8152379761
 20
-2.6480047456
 10
18.75
 20
-2.6551679374
 10
18.6847620239
 20
-2.6480047456
 10
18.6204045373
 20
-2.6266118488
 10
18.5577961464
 20
-2.591277978
 10
18.4977818503
 20
-2.5424800196
 10
18.4411716368
 20
-2.4808765792
 10
18.3887295503
 20
-2.4072990925
 10
18.3411633795
 20
-2.3227406042
 10
18.2991151052
 20
-2.2283423646
 10
18.2631522352
 20
-2.1253784272
 10
18.2337601454
 20
-2.0152384532
 10
18.2113355285
 20
-1.8994089554
 10
18.1961810401
 20
-1.7794532362
 10
18.1885012139
 20
-1.6569902875
 10
18.1883997015
 20
-1.5336729405
  0
LWPOLYLINE
  5
DB
330
1F
100
AcDbEntity
  8
0
  6
Continuous
 62
     7
370
    15
100
AcDbPolyline
 90
        9
 70
   128
 43
0.0
 10
19.0895277369
 20
-0.6273578266
 10
19.1417510401
 20
-0.7119311209
 10
19.188110775
 20
-0.8079056654
 10
19.2279130482
 20
-0.9138449526
 10
19.2605621157
 20
-1.0281633269
 10
19.2855692996
 20
-1.149149718
 10
19.3025603027
 20
-1.2749932512
 10
19.3112808106
 20
-1.4038103525
 10
19.3116002985
 20
-1.5336729405
  0
SPLINE
  5
DC
330
1F
100
AcDbEntity
  8
0
  6
Continuous
 62
     7
370
    15
100
AcDbSpline
210
0.0
220
0.0
230
1.0
 70
     8
 71
     3
 72
    18
 73
    14
 74
     0
 42
0.000000001
 43
0.00000001
 40
0.0
 40
0.0
 40
0.0
 40
0.0
 40
0.1199843059065295
 40
0.2338824389444454
 40
0.3417541260257472
 40
0.4436696898843923
 40
0.539712537395704
 40
0.6299823555972823
 40
0.7145992375819835
 40
0.7937090250553686
 40
0.867490224218569
 40
0.9361629068838035
 40
1.0
 40
1.0
 40
1.0
 40
1.0
 10
18.94111722177193
 20
-0.569150702164988
 30
0.0
 10
18.94736669525018
 20
-0.570625909989362
 30
0.0
 10
18.95954863928167
 20
-0.5735014961029596
 30
0.0
 10
18.97723199224968
 20
-0.5781780293487201
 30
0.0
 10
18.99387498981784
 20
-0.5829864939925183
 30
0.0
 10
19.00947125391692
 20
-0.5879561327335084
 30
0.0
 10
19.02402269588598
 20
-0.5930799225184846
 30
0.0
 10
19.0375297950416
 20
-0.598359219190051
 30
0.0
 10
19.04999180953807
 20
-0.6037956136301896
 30
0.0
 10
19.06141419820336
 20
-0.6093835235994404
 30
0.0
 10
19.07178162468024
 20
-0.615144114111371
 30
0.0
 10
19.08114914715014
 20
-0.6210095822906098
 30
0.0
 10
19.08680365568308
 20
-0.6252938595912575
 30
0.0
 10
19.08952773687342
 20
-0.6273578266258725
 30
0.0
  0
LINE
  5
FF
330
1F
100
AcDbEntity
  8
0
  6
Continuous
 62
     7
370
    15
100
AcDbLine
 10
18.965
 20
-4.4070496332
 30
0.0
 11
18.965
 21
-3.9070496332
 31
0.0
  0
LINE
  5
100
330
1F
100
AcDbEntity
  8
0
  6
Continuous
 62
     7
370
    15
100
AcDbLine
 10
18.535
 20
-3.9070496332
 30
0.0
 11
18.535
 21
-4.4070496332
 31
0.0
  0
LINE
  5
101
330
1F
100
AcDbEntity
  8
0
  6
Continuous
 62
     7
370
    15
100
AcDbLine
 10
6.465
 20
-4.4070496332
 30
0.0
 11
6.465
 21
-3.9070496332
 31
0.0
  0
LINE
  5
102
330
1F
100
AcDbEntity
  8
0
  6
Continuous
 62
     7
370
    15
100
AcDbLine
 10
6.035
 20
-3.9070496332
 30
0.0
 11
6.035
 21
-4.4070496332
 31
0.0
  0
LINE
  5
103
330
1F
100
AcDbEntity
  8
0
  6
Continuous
 62
     7
370
    15
100
AcDbLine
 10
-6.035
 20
-4.4070496332
 30
0.0
 11
-6.035
 21
-3.9070496332
 31
0.0
  0
LINE
  5
104
330
1F
100
AcDbEntity
  8
0
  6
Continuous
 62
     7
370
    15
100
AcDbLine
 10
-6.465
 20
-3.9070496332
 30
0.0
 11
-6.465
 21
-4.4070496332
 31
0.0
  0
LINE
  5
105
330
1F
100
AcDbEntity
  8
0
  6
Continuous
 62
     7
370
    15
100
AcDbLine
 10
-18.535
 20
-4.4070496332
 30
0.0
 11
-18.535
 21
-3.9070496332
 31
0.0
  0
LINE
  5
106
330
1F
100
AcDbEntity
  8
0
  6
Continuous
 62
     7
370
    15
100
AcDbLine
 10
-18.965
 20
-3.9070496332
 30
0.0
 11
-18.965
 21
-4.4070496332
 31
0.0
  0
LINE
  5
107
330
1F
100
AcDbEntity
  8
0
  6
Continuous
 62
     7
370
    15
100
AcDbLine
 10
-18.9411169869
 20
-0.5691503431
 30
0.0
 11
-18.9357887755
 21
-0.563693663
 31
0.0
  0
LINE
  5
108
330
1F
100
AcDbEntity
  8
0
  6
Continuous
 62
     7
370
    15
100
AcDbLine
 10
-18.5642112245
 20
-0.563693663
 30
0.0
 11
-18.5588829245
 21
-0.5691492078
 31
0.0
  0
LINE
  5
109
330
1F
100
AcDbEntity
  8
0
  6
Continuous
 62
     7
370
    15
100
AcDbLine
 10
-6.0642112245
 20
-0.563693663
 30
0.0
 11
-6.0588829245
 21
-0.5691492078
 31
0.0
  0
LINE
  5
10A
330
1F
100
AcDbEntity
  8
0
  6
Continuous
 62
     7
370
    15
100
AcDbLine
 10
-6.4411169869
 20
-0.5691503431
 30
0.0
 11
-6.4357887755
 21
-0.563693663
 31
0.0
  0
LINE
  5
10B
330
1F
100
AcDbEntity
  8
0
  6
Continuous
 62
     7
370
    15
100
AcDbLine
 10
6.4357887755
 20
-0.563693663
 30
0.0
 11
6.4411170755
 21
-0.5691492078
 31
0.0
  0
LINE
  5
10C
330
1F
100
AcDbEntity
  8
0
  6
Continuous
 62
     7
370
    15
100
AcDbLine
 10
6.0588830131
 20
-0.5691503431
 30
0.0
 11
6.0642112245
 21
-0.563693663
 31
0.0
  0
LINE
  5
10D
330
1F
100
AcDbEntity
  8
0
  6
Continuous
 62
     7
370
    15
100
AcDbLine
 10
18.9357887755
 20
-0.563693663
 30
0.0
 11
18.9411175145
 21
-0.569149431
 31
0.0
  0
LINE
  5
10E
330
1F
100
AcDbEntity
  8
0
  6
Continuous
 62
     7
370
    15
100
AcDbLine
 10
18.5588831982
 20
-0.5691487001
 30
0.0
 11
18.5642112245
 21
-0.563693663
 31
0.0
  0
LINE
  5
10F
330
1F
100
AcDbEntity
  8
0
  6
Continuous
 62
     7
370
    15
100
AcDbLine
 10
-21.0
 20
-4.9680680047
 30
0.0
 11
-21.0
 21
-0.1154703583
 31
0.0
  0
LINE
  5
110
330
1F
100
AcDbEntity
  8
0
  6
Continuous
 62
     7
370
    15
100
AcDbLine
 10
-20.9633883476
 20
-0.0270820107
 30
0.0
 11
-19.7866116524
 21
1.1496946846
 31
0.0
  0
LINE
  5
111
330
1F
100
AcDbEntity
  8
0
  6
Continuous
 62
     7
370
    15
100
AcDbLine
 10
-19.75
 20
1.2380830323
 30
0.0
 11
-19.75
 21
7.3439451278
 31
0.0
  0
LINE
  5
112
330
1F
100
AcDbEntity
  8
0
  6
Continuous
 62
     7
370
    15
100
AcDbLine
 10
-19.625
 20
7.4689451278
 30
0.0
 11
-16.75
 21
7.4689451278
 31
0.0
  0
LINE
  5
113
330
1F
100
AcDbEntity
  8
0
  6
Continuous
 62
     7
370
    15
100
AcDbLine
 10
-16.75
 20
9.3074227802
 30
0.0
 11
-16.75
 21
7.4689451278
 31
0.0
  0
LINE
  5
114
330
1F
100
AcDbEntity
  8
0
  6
Continuous
 62
     7
370
    15
100
AcDbLine
 10
-15.375
 20
9.4324227802
 30
0.0
 11
-16.625
 21
9.4324227802
 31
0.0
  0
LINE
  5
115
330
1F
100
AcDbEntity
  8
0
  6
Continuous
 62
     7
370
    15
100
AcDbLine
 10
-15.25
 20
7.4689451278
 30
0.0
 11
-15.25
 21
9.3074227802
 31
0.0
  0
LINE
  5
116
330
1F
100
AcDbEntity
  8
0
  6
Continuous
 62
     7
370
    15
100
AcDbLine
 10
-0.75
 20
7.4689451278
 30
0.0
 11
-15.25
 21
7.4689451278
 31
0.0
  0
LINE
  5
117
330
1F
100
AcDbEntity
  8
0
  6
Continuous
 62
     7
370
    15
100
AcDbLine
 10
-0.75
 20
9.3074227802
 30
0.0
 11
-0.75
 21
7.4689451278
 31
0.0
  0
LINE
  5
118
330
1F
100
AcDbEntity
  8
0
  6
Continuous
 62
     7
370
    15
100
AcDbLine
 10
0.625
 20
9.4324227802
 30
0.0
 11
-0.625
 21
9.4324227802
 31
0.0
  0
LINE
  5
119
330
1F
100
AcDbEntity
  8
0
  6
Continuous
 62
     7
370
    15
100
AcDbLine
 10
0.75
 20
7.4689451278
 30
0.0
 11
0.75
 21
9.3074227802
 31
0.0
  0
LINE
  5
11A
330
1F
100
AcDbEntity
  8
0
  6
Continuous
 62
     7
370
    15
100
AcDbLine
 10
15.25
 20
7.4689451278
 30
0.0
 11
0.75
 21
7.4689451278
 31
0.0
  0
LINE
  5
11B
330
1F
100
AcDbEntity
  8
0
  6
Continuous
 62
     7
370
    15
100
AcDbLine
 10
15.25
 20
9.3074227802
 30
0.0
 11
15.25
 21
7.4689451278
 31
0.0
  0
LINE
  5
11C
330
1F
100
AcDbEntity
  8
0
  6
Continuous
 62
     7
370
    15
100
AcDbLine
 10
16.625
 20
9.4324227802
 30
0.0
 11
15.375
 21
9.4324227802
 31
0.0
  0
LINE
  5
11D
330
1F
100
AcDbEntity
  8
0
  6
Continuous
 62
     7
370
    15
100
AcDbLine
 10
16.75
 20
7.4689451278
 30
0.0
 11
16.75
 21
9.3074227802
 31
0.0
  0
LINE
  5
11E
330
1F
100
AcDbEntity
  8
0
  6
Continuous
 62
     7
370
    15
100
AcDbLine
 10
19.625
 20
7.4689451278
 30
0.0
 11
16.75
 21
7.4689451278
 31
0.0
  0
LINE
  5
11F
330
1F
100
AcDbEntity
  8
0
  6
Continuous
 62
     7
370
    15
100
AcDbLine
 10
19.75
 20
1.2380830323
 30
0.0
 11
19.75
 21
7.3439451278
 31
0.0
  0
LINE
  5
120
330
1F
100
AcDbEntity
  8
0
  6
Continuous
 62
     7
370
    15
100
AcDbLine
 10
20.9633883476
 20
-0.0270820107
 30
0.0
 11
19.7866116524
 21
1.1496946846
 31
0.0
  0
LINE
  5
121
330
1F
100
AcDbEntity
  8
0
  6
Continuous
 62
     7
370
    15
100
AcDbLine
 10
21.0
 20
-4.9680680047
 30
0.0
 11
21.0
 21
-0.1154703583
 31
0.0
  0
LINE
  5
122
330
1F
100
AcDbEntity
  8
0
  6
Continuous
 62
     7
370
    15
100
AcDbLine
 10
20.936306337
 20
-5.0320496332
 30
0.0
 11
21.0
 21
-4.9680680047
 31
0.0
  0
LINE
  5
123
330
1F
100
AcDbEntity
  8
0
  6
Continuous
 62
     7
370
    15
100
AcDbLine
 10
20.936306337
 20
-5.0320496332
 30
0.0
 11
-20.936306337
 21
-5.0320496332
 31
0.0
  0
LINE
  5
124
330
1F
100
AcDbEntity
  8
0
  6
Continuous
 62
     7
370
    15
100
AcDbLine
 10
-20.936306337
 20
-5.0320496332
 30
0.0
 11
-21.0
 21
-4.9680680047
 31
0.0
  0
ARC
  5
125
330
1F
100
AcDbEntity
  8
0
  6
Continuous
 62
     7
370
    15
100
AcDbCircle
 10
18.75
 20
-3.9070496332
 30
0.0
 40
0.2149999999999999
100
AcDbArc
 50
0.0
 51
180.0
  0
ARC
  5
126
330
1F
100
AcDbEntity
  8
0
  6
Continuous
 62
     7
370
    15
100
AcDbCircle
 10
18.75
 20
-4.4070496332
 30
0.0
 40
0.2149999999999999
100
AcDbArc
 50
180.0
 51
0.0
  0
ARC
  5
127
330
1F
100
AcDbEntity
  8
0
  6
Continuous
 62
     7
370
    15
100
AcDbCircle
 10
6.25
 20
-3.9070496332
 30
0.0
 40
0.2150000000000016
100
AcDbArc
 50
0.0
 51
180.0
  0
ARC
  5
128
330
1F
100
AcDbEntity
  8
0
  6
Continuous
 62
     7
370
    15
100
AcDbCircle
 10
6.25
 20
-4.4070496332
 30
0.0
 40
0.2150000000000007
100
AcDbArc
 50
180.0
 51
0.0
  0
ARC
  5
129
330
1F
100
AcDbEntity
  8
0
  6
Continuous
 62
     7
370
    15
100
AcDbCircle
 10
-6.25
 20
-3.9070496332
 30
0.0
 40
0.2149999999999981
100
AcDbArc
 50
0.0
 51
180.0
  0
ARC
  5
12A
330
1F
100
AcDbEntity
  8
0
  6
Continuous
 62
     7
370
    15
100
AcDbCircle
 10
-6.25
 20
-4.4070496332
 30
0.0
 40
0.2149999999999981
100
AcDbArc
 50
180.0
 51
0.0
  0
ARC
  5
12B
330
1F
100
AcDbEntity
  8
0
  6
Continuous
 62
     7
370
    15
100
AcDbCircle
 10
-18.75
 20
-3.9070496332
 30
0.0
 40
0.2150000000000034
100
AcDbArc
 50
0.0
 51
180.0
  0
ARC
  5
12C
330
1F
100
AcDbEntity
  8
0
  6
Continuous
 62
     7
370
    15
100
AcDbCircle
 10
-18.75
 20
-4.4070496332
 30
0.0
 40
0.2150000000000034
100
AcDbArc
 50
180.0
 51
0.0
  0
ARC
  5
12D
330
1F
100
AcDbEntity
  8
0
  6
Continuous
 62
     7
370
    15
100
AcDbCircle
 10
1.3125
 20
4.5820162365
 30
0.0
 40
0.6250164871107061
100
AcDbArc
 50
179.4714798469
 51
0.5285201531
  0
ARC
  5
12E
330
1F
100
AcDbEntity
  8
0
  6
Continuous
 62
     7
370
    15
100
AcDbCircle
 10
1.3125
 20
4.5935468982
 30
0.0
 40
0.6250164871106988
100
AcDbArc
 50
359.4714798471
 51
180.5285201529
  0
ARC
  5
12F
330
1F
100
AcDbEntity
  8
0
  6
Continuous
 62
     7
370
    15
100
AcDbCircle
 10
-1.3125
 20
0.5639318343
 30
0.0
 40
0.6250164871105323
100
AcDbArc
 50
179.4714798514
 51
0.5285201486
  0
ARC
  5
130
330
1F
100
AcDbEntity
  8
0
  6
Continuous
 62
     7
370
    15
100
AcDbCircle
 10
-1.3125
 20
0.5754624959
 30
0.0
 40
0.6250164871108729
100
AcDbArc
 50
359.4714798425
 51
180.5285201575
  0
ARC
  5
131
330
1F
100
AcDbEntity
  8
0
  6
Continuous
 62
     7
370
    15
100
AcDbCircle
 10
-18.75
 20
-1.0921175638
 30
0.0
 40
0.5601332770219625
100
AcDbArc
 50
70.6288147954
 51
109.3711852046
  0
ARC
  5
132
330
1F
100
AcDbEntity
  8
0
  6
Continuous
 62
     7
370
    15
100
AcDbCircle
 10
1.3125
 20
0.5639318343
 30
0.0
 40
0.6250164871105324
100
AcDbArc
 50
179.4714798514
 51
0.5285201486
  0
ARC
  5
133
330
1F
100
AcDbEntity
  8
0
  6
Continuous
 62
     7
370
    15
100
AcDbCircle
 10
1.3125
 20
0.5754624959
 30
0.0
 40
0.6250164871108728
100
AcDbArc
 50
359.4714798425
 51
180.5285201575
  0
ARC
  5
134
330
1F
100
AcDbEntity
  8
0
  6
Continuous
 62
     7
370
    15
100
AcDbCircle
 10
-1.3125
 20
4.5820162365
 30
0.0
 40
0.6250164871107061
100
AcDbArc
 50
179.4714798469
 51
0.5285201531
  0
ARC
  5
135
330
1F
100
AcDbEntity
  8
0
  6
Continuous
 62
     7
370
    15
100
AcDbCircle
 10
-1.3125
 20
4.5935468982
 30
0.0
 40
0.6250164871106987
100
AcDbArc
 50
359.4714798471
 51
180.5285201529
  0
ARC
  5
136
330
1F
100
AcDbEntity
  8
0
  6
Continuous
 62
     7
370
    15
100
AcDbCircle
 10
-16.0
 20
4.5935468982
 30
0.0
 40
0.6250164871105424
100
AcDbArc
 50
359.4714798512
 51
180.5285201488
  0
ARC
  5
137
330
1F
100
AcDbEntity
  8
0
  6
Continuous
 62
     7
370
    15
100
AcDbCircle
 10
-16.0
 20
4.5820162365
 30
0.0
 40
0.6250164871108675
100
AcDbArc
 50
179.4714798427
 51
0.5285201573
  0
ARC
  5
138
330
1F
100
AcDbEntity
  8
0
  6
Continuous
 62
     7
370
    15
100
AcDbCircle
 10
-14.0
 20
4.5935468982
 30
0.0
 40
0.6250164871105425
100
AcDbArc
 50
359.4714798512
 51
180.5285201488
  0
ARC
  5
139
330
1F
100
AcDbEntity
  8
0
  6
Continuous
 62
     7
370
    15
100
AcDbCircle
 10
-14.0
 20
4.5820162365
 30
0.0
 40
0.6250164871108677
100
AcDbArc
 50
179.4714798427
 51
0.5285201573
  0
ARC
  5
13A
330
1F
100
AcDbEntity
  8
0
  6
Continuous
 62
     7
370
    15
100
AcDbCircle
 10
-14.0
 20
0.5754624959
 30
0.0
 40
0.6250164871107012
100
AcDbArc
 50
359.4714798471
 51
180.5285201529
  0
ARC
  5
13B
330
1F
100
AcDbEntity
  8
0
  6
Continuous
 62
     7
370
    15
100
AcDbCircle
 10
-14.0
 20
0.5639318343
 30
0.0
 40
0.6250164871107089
100
AcDbArc
 50
179.4714798469
 51
0.5285201531
  0
ARC
  5
13C
330
1F
100
AcDbEntity
  8
0
  6
Continuous
 62
     7
370
    15
100
AcDbCircle
 10
-16.0
 20
0.5754624959
 30
0.0
 40
0.6250164871107012
100
AcDbArc
 50
359.4714798471
 51
180.5285201529
  0
ARC
  5
13D
330
1F
100
AcDbEntity
  8
0
  6
Continuous
 62
     7
370
    15
100
AcDbCircle
 10
-16.0
 20
0.5639318343
 30
0.0
 40
0.6250164871107107
100
AcDbArc
 50
179.4714798469
 51
0.5285201531
  0
ARC
  5
13E
330
1F
100
AcDbEntity
  8
0
  6
Continuous
 62
     7
370
    15
100
AcDbCircle
 10
14.0
 20
4.5935468982
 30
0.0
 40
0.6250164871105424
100
AcDbArc
 50
359.4714798512
 51
180.5285201488
  0
ARC
  5
13F
330
1F
100
AcDbEntity
  8
0
  6
Continuous
 62
     7
370
    15
100
AcDbCircle
 10
14.0
 20
4.5820162365
 30
0.0
 40
0.6250164871108677
100
AcDbArc
 50
179.4714798427
 51
0.5285201573
  0
ARC
  5
140
330
1F
100
AcDbEntity
  8
0
  6
Continuous
 62
     7
370
    15
100
AcDbCircle
 10
14.0
 20
0.5754624959
 30
0.0
 40
0.6250164871107048
100
AcDbArc
 50
359.4714798471
 51
180.5285201529
  0
ARC
  5
141
330
1F
100
AcDbEntity
  8
0
  6
Continuous
 62
     7
370
    15
100
AcDbCircle
 10
14.0
 20
0.5639318343
 30
0.0
 40
0.6250164871107107
100
AcDbArc
 50
179.4714798469
 51
0.5285201531
  0
ARC
  5
142
330
1F
100
AcDbEntity
  8
0
  6
Continuous
 62
     7
370
    15
100
AcDbCircle
 10
16.0
 20
0.5754624959
 30
0.0
 40
0.6250164871107012
100
AcDbArc
 50
359.4714798471
 51
180.5285201529
  0
ARC
  5
143
330
1F
100
AcDbEntity
  8
0
  6
Continuous
 62
     7
370
    15
100
AcDbCircle
 10
16.0
 20
0.5639318343
 30
0.0
 40
0.6250164871107106
100
AcDbArc
 50
179.4714798469
 51
0.5285201531
  0
ARC
  5
144
330
1F
100
AcDbEntity
  8
0
  6
Continuous
 62
     7
370
    15
100
AcDbCircle
 10
16.0
 20
4.5935468982
 30
0.0
 40
0.6250164871105424
100
AcDbArc
 50
359.4714798512
 51
180.5285201488
  0
ARC
  5
145
330
1F
100
AcDbEntity
  8
0
  6
Continuous
 62
     7
370
    15
100
AcDbCircle
 10
16.0
 20
4.5820162365
 30
0.0
 40
0.6250164871108693
100
AcDbArc
 50
179.4714798427
 51
0.5285201573
  0
ARC
  5
146
330
1F
100
AcDbEntity
  8
0
  6
Continuous
 62
     7
370
    15
100
AcDbCircle
 10
-6.25
 20
-1.0921175638
 30
0.0
 40
0.5601332770219526
100
AcDbArc
 50
70.6288147954
 51
109.3711852046
  0
ARC
  5
147
330
1F
100
AcDbEntity
  8
0
  6
Continuous
 62
     7
370
    15
100
AcDbCircle
 10
6.25
 20
-1.0921175638
 30
0.0
 40
0.5601332770219537
100
AcDbArc
 50
70.6288147954
 51
109.3711852046
  0
ARC
  5
148
330
1F
100
AcDbEntity
  8
0
  6
Continuous
 62
     7
370
    15
100
AcDbCircle
 10
18.75
 20
-1.0921175638
 30
0.0
 40
0.5601332770219445
100
AcDbArc
 50
70.6288147954
 51
109.3711852046
  0
ARC
  5
149
330
1F
100
AcDbEntity
  8
0
  6
Continuous
 62
     7
370
    15
100
AcDbCircle
 10
-20.875
 20
-0.1154703583
 30
0.0
 40
0.1250000000000071
100
AcDbArc
 50
135.0
 51
180.0
  0
ARC
  5
14A
330
1F
100
AcDbEntity
  8
0
  6
Continuous
 62
     7
370
    15
100
AcDbCircle
 10
-19.875
 20
1.2380830323
 30
0.0
 40
0.1250000000000497
100
AcDbArc
 50
315.0
 51
360.0
  0
ARC
  5
14B
330
1F
100
AcDbEntity
  8
0
  6
Continuous
 62
     7
370
    15
100
AcDbCircle
 10
-19.625
 20
7.3439451278
 30
0.0
 40
0.1249999999999982
100
AcDbArc
 50
90.0
 51
180.0
  0
ARC
  5
14C
330
1F
100
AcDbEntity
  8
0
  6
Continuous
 62
     7
370
    15
100
AcDbCircle
 10
-16.625
 20
9.3074227802
 30
0.0
 40
0.1249999999999964
100
AcDbArc
 50
90.0
 51
180.0
  0
ARC
  5
14D
330
1F
100
AcDbEntity
  8
0
  6
Continuous
 62
     7
370
    15
100
AcDbCircle
 10
-15.375
 20
9.3074227802
 30
0.0
 40
0.1250000000000018
100
AcDbArc
 50
0.0
 51
90.0
  0
ARC
  5
14E
330
1F
100
AcDbEntity
  8
0
  6
Continuous
 62
     7
370
    15
100
AcDbCircle
 10
-0.625
 20
9.3074227802
 30
0.0
 40
0.1250000000000071
100
AcDbArc
 50
90.0
 51
180.0
  0
ARC
  5
14F
330
1F
100
AcDbEntity
  8
0
  6
Continuous
 62
     7
370
    15
100
AcDbCircle
 10
0.625
 20
9.3074227802
 30
0.0
 40
0.1250000000000019
100
AcDbArc
 50
0.0
 51
90.0
  0
ARC
  5
150
330
1F
100
AcDbEntity
  8
0
  6
Continuous
 62
     7
370
    15
100
AcDbCircle
 10
15.375
 20
9.3074227802
 30
0.0
 40
0.1250000000000018
100
AcDbArc
 50
90.0
 51
180.0
  0
ARC
  5
151
330
1F
100
AcDbEntity
  8
0
  6
Continuous
 62
     7
370
    15
100
AcDbCircle
 10
16.625
 20
9.3074227802
 30
0.0
 40
0.1250000000000053
100
AcDbArc
 50
0.0
 51
90.0
  0
ARC
  5
152
330
1F
100
AcDbEntity
  8
0
  6
Continuous
 62
     7
370
    15
100
AcDbCircle
 10
19.625
 20
7.3439451278
 30
0.0
 40
0.1250000000000018
100
AcDbArc
 50
0.0
 51
90.0
  0
ARC
  5
153
330
1F
100
AcDbEntity
  8
0
  6
Continuous
 62
     7
370
    15
100
AcDbCircle
 10
19.875
 20
1.2380830323
 30
0.0
 40
0.1250000000000437
100
AcDbArc
 50
180.0
 51
225.0
  0
ARC
  5
154
330
1F
100
AcDbEntity
  8
0
  6
Continuous
 62
     7
370
    15
100
AcDbCircle
 10
20.875
 20
-0.1154703583
 30
0.0
 40
0.124999999999968
100
AcDbArc
 50
360.0
 51
45.0
  0
ENDSEC
  0
SECTION
  2
OBJECTS
  0
DICTIONARY
  5
C
330
0
100
AcDbDictionary
281
     1
  3
ACAD_GROUP
350
D
  3
ACAD_LAYOUT
350
1A
  3
ACAD_MLINESTYLE
350
17
  3
ACAD_PLOTSETTINGS
350
19
  3
ACAD_PLOTSTYLENAME
350
E
  3
ACAD_SCALELIST
350
47
  0
DICTIONARY
  5
D
102
{ACAD_REACTORS
330
C
102
}
330
C
100
AcDbDictionary
281
     1
  0
DICTIONARY
  5
1A
102
{ACAD_REACTORS
330
C
102
}
330
C
100
AcDbDictionary
281
     1
  3
Layout1
350
1E
  3
Layout2
350
26
  3
Model
350
22
  0
DICTIONARY
  5
17
102
{ACAD_REACTORS
330
C
102
}
330
C
100
AcDbDictionary
281
     1
  3
Standard
350
18
  0
DICTIONARY
  5
19
102
{ACAD_REACTORS
330
C
102
}
330
C
100
AcDbDictionary
281
     1
  0
ACDBDICTIONARYWDFLT
  5
E
102
{ACAD_REACTORS
330
C
102
}
330
C
100
AcDbDictionary
281
     1
  3
Normal
350
F
100
AcDbDictionaryWithDefault
340
F
  0
DICTIONARY
  5
47
102
{ACAD_REACTORS
330
C
102
}
330
C
100
AcDbDictionary
281
     1
  3
A0
350
48
  3
A1
350
49
  3
A2
350
4A
  3
A3
350
4B
  3
A4
350
4C
  3
A5
350
4D
  3
A6
350
4E
  3
A7
350
4F
  3
A8
350
50
  3
A9
350
51
  3
B0
350
52
  3
B1
350
53
  3
B2
350
54
  3
B3
350
55
  3
B4
350
56
  3
B5
350
57
  3
B6
350
58
  3
B7
350
59
  3
B8
350
5A
  3
B9
350
5B
  3
C0
350
5C
  3
C1
350
5D
  3
C2
350
5E
  3
C3
350
5F
  3
C4
350
60
  3
C5
350
61
  3
C6
350
62
  3
C7
350
63
  3
C8
350
64
  3
C9
350
65
  3
D0
350
66
  3
D1
350
67
  3
D2
350
68
  0
LAYOUT
  5
1E
102
{ACAD_REACTORS
330
1A
102
}
330
1A
100
AcDbPlotSettings
  1

  2
none_device
  4

  6

 40
0.0
 41
0.0
 42
0.0
 43
0.0
 44
0.0
 45
0.0
 46
0.0
 47
0.0
 48
0.0
 49
0.0
140
0.0
141
0.0
142
1.0
143
1.0
 70
   688
 72
     0
 73
     0
 74
     5
  7

 75
    16
147
1.0
148
0.0
149
0.0
100
AcDbLayout
  1
Layout1
 70
     1
 71
     1
 10
0.0
 20
0.0
 11
12.0
 21
9.0
 12
0.0
 22
0.0
 32
0.0
 14
1.0000000000E+20
 24
1.0000000000E+20
 34
1.0000000000E+20
 15
-1.0000000000E+20
 25
-1.0000000000E+20
 35
-1.0000000000E+20
146
0.0
 13
0.0
 23
0.0
 33
0.0
 16
1.0
 26
0.0
 36
0.0
 17
0.0
 27
1.0
 37
0.0
 76
     0
330
1B
  0
LAYOUT
  5
26
102
{ACAD_REACTORS
330
1A
102
}
330
1A
100
AcDbPlotSettings
  1

  2
none_device
  4

  6

 40
0.0
 41
0.0
 42
0.0
 43
0.0
 44
0.0
 45
0.0
 46
0.0
 47
0.0
 48
0.0
 49
0.0
140
0.0
141
0.0
142
1.0
143
1.0
 70
   688
 72
     0
 73
     0
 74
     5
  7

 75
    16
147
1.0
148
0.0
149
0.0
100
AcDbLayout
  1
Layout2
 70
     1
 71
     2
 10
0.0
 20
0.0
 11
0.0
 21
0.0
 12
0.0
 22
0.0
 32
0.0
 14
0.0
 24
0.0
 34
0.0
 15
0.0
 25
0.0
 35
0.0
146
0.0
 13
0.0
 23
0.0
 33
0.0
 16
1.0
 26
0.0
 36
0.0
 17
0.0
 27
1.0
 37
0.0
 76
     0
330
23
  0
LAYOUT
  5
22
102
{ACAD_REACTORS
330
1A
102
}
330
1A
100
AcDbPlotSettings
  1

  2
none_device
  4
ANSI_A_(11.00_x_8.50_Inches)
  6

 40
6.35
 41
19.05
 42
6.35000508
 43
19.05000254
 44
279.4
 45
215.9
 46
133.34999746
 47
74.4098842693
 48
0.0
 49
0.0
140
0.0
141
0.0
142
0.2592857143
143
1.0
 70
  1696
 72
     0
 73
     0
 74
     0
  7

 75
     0
147
0.5913241897
148
-39.4088153714
149
0.0
100
AcDbLayout
  1
Model
 70
     1
 71
     0
 10
0.0
 20
0.0
 11
12.0
 21
9.0
 12
0.0
 22
0.0
 32
0.0
 14
-21.0
 24
-5.0320496332
 34
0.0
 15
21.0
 25
9.4324227802
 35
0.0
146
0.0
 13
0.0
 23
0.0
 33
0.0
 16
1.0
 26
0.0
 36
0.0
 17
0.0
 27
1.0
 37
0.0
 76
     0
330
1F
331
29
  0
MLINESTYLE
  5
18
102
{ACAD_REACTORS
330
17
102
}
330
17
100
AcDbMlineStyle
  2
Standard
 70
     0
  3

 62
   256
 51
90.0
 52
90.0
 71
     2
 49
0.5
 62
   256
  6
BYLAYER
 49
-0.5
 62
   256
  6
BYLAYER
  0
ACDBPLACEHOLDER
  5
F
102
{ACAD_REACTORS
330
E
102
}
330
E
  0
SCALE
  5
48
102
{ACAD_REACTORS
330
47
102
}
330
47
100
AcDbScale
 70
     0
300
1:1
140
1.0
141
1.0
290
     1
  0
SCALE
  5
49
102
{ACAD_REACTORS
330
47
102
}
330
47
100
AcDbScale
 70
     0
300
1:2
140
1.0
141
2.0
290
     0
  0
SCALE
  5
4A
102
{ACAD_REACTORS
330
47
102
}
330
47
100
AcDbScale
 70
     0
300
1:4
140
1.0
141
4.0
290
     0
  0
SCALE
  5
4B
102
{ACAD_REACTORS
330
47
102
}
330
47
100
AcDbScale
 70
     0
300
1:5
140
1.0
141
5.0
290
     0
  0
SCALE
  5
4C
102
{ACAD_REACTORS
330
47
102
}
330
47
100
AcDbScale
 70
     0
300
1:8
140
1.0
141
8.0
290
     0
  0
SCALE
  5
4D
102
{ACAD_REACTORS
330
47
102
}
330
47
100
AcDbScale
 70
     0
300
1:10
140
1.0
141
10.0
290
     0
  0
SCALE
  5
4E
102
{ACAD_REACTORS
330
47
102
}
330
47
100
AcDbScale
 70
     0
300
1:16
140
1.0
141
16.0
290
     0
  0
SCALE
  5
4F
102
{ACAD_REACTORS
330
47
102
}
330
47
100
AcDbScale
 70
     0
300
1:20
140
1.0
141
20.0
290
     0
  0
SCALE
  5
50
102
{ACAD_REACTORS
330
47
102
}
330
47
100
AcDbScale
 70
     0
300
1:30
140
1.0
141
30.0
290
     0
  0
SCALE
  5
51
102
{ACAD_REACTORS
330
47
102
}
330
47
100
AcDbScale
 70
     0
300
1:40
140
1.0
141
40.0
290
     0
  0
SCALE
  5
52
102
{ACAD_REACTORS
330
47
102
}
330
47
100
AcDbScale
 70
     0
300
1:50
140
1.0
141
50.0
290
     0
  0
SCALE
  5
53
102
{ACAD_REACTORS
330
47
102
}
330
47
100
AcDbScale
 70
     0
300
1:100
140
1.0
141
100.0
290
     0
  0
SCALE
  5
54
102
{ACAD_REACTORS
330
47
102
}
330
47
100
AcDbScale
 70
     0
300
2:1
140
2.0
141
1.0
290
     0
  0
SCALE
  5
55
102
{ACAD_REACTORS
330
47
102
}
330
47
100
AcDbScale
 70
     0
300
4:1
140
4.0
141
1.0
290
     0
  0
SCALE
  5
56
102
{ACAD_REACTORS
330
47
102
}
330
47
100
AcDbScale
 70
     0
300
8:1
140
8.0
141
1.0
290
     0
  0
SCALE
  5
57
102
{ACAD_REACTORS
330
47
102
}
330
47
100
AcDbScale
 70
     0
300
10:1
140
10.0
141
1.0
290
     0
  0
SCALE
  5
58
102
{ACAD_REACTORS
330
47
102
}
330
47
100
AcDbScale
 70
     0
300
100:1
140
100.0
141
1.0
290
     0
  0
SCALE
  5
59
102
{ACAD_REACTORS
330
47
102
}
330
47
100
AcDbScale
 70
     0
300
1/128" = 1'-0"
140
0.0078125
141
12.0
290
     0
  0
SCALE
  5
5A
102
{ACAD_REACTORS
330
47
102
}
330
47
100
AcDbScale
 70
     0
300
1/64" = 1'-0"
140
0.015625
141
12.0
290
     0
  0
SCALE
  5
5B
102
{ACAD_REACTORS
330
47
102
}
330
47
100
AcDbScale
 70
     0
300
1/32" = 1'-0"
140
0.03125
141
12.0
290
     0
  0
SCALE
  5
5C
102
{ACAD_REACTORS
330
47
102
}
330
47
100
AcDbScale
 70
     0
300
1/16" = 1'-0"
140
0.0625
141
12.0
290
     0
  0
SCALE
  5
5D
102
{ACAD_REACTORS
330
47
102
}
330
47
100
AcDbScale
 70
     0
300
3/32" = 1'-0"
140
0.09375
141
12.0
290
     0
  0
SCALE
  5
5E
102
{ACAD_REACTORS
330
47
102
}
330
47
100
AcDbScale
 70
     0
300
1/8" = 1'-0"
140
0.125
141
12.0
290
     0
  0
SCALE
  5
5F
102
{ACAD_REACTORS
330
47
102
}
330
47
100
AcDbScale
 70
     0
300
3/16" = 1'-0"
140
0.1875
141
12.0
290
     0
  0
SCALE
  5
60
102
{ACAD_REACTORS
330
47
102
}
330
47
100
AcDbScale
 70
     0
300
1/4" = 1'-0"
140
0.25
141
12.0
290
     0
  0
SCALE
  5
61
102
{ACAD_REACTORS
330
47
102
}
330
47
100
AcDbScale
 70
     0
300
3/8" = 1'-0"
140
0.375
141
12.0
290
     0
  0
SCALE
  5
62
102
{ACAD_REACTORS
330
47
102
}
330
47
100
AcDbScale
 70
     0
300
1/2" = 1'-0"
140
0.5
141
12.0
290
     0
  0
SCALE
  5
63
102
{ACAD_REACTORS
330
47
102
}
330
47
100
AcDbScale
 70
     0
300
3/4" = 1'-0"
140
0.75
141
12.0
290
     0
  0
SCALE
  5
64
102
{ACAD_REACTORS
330
47
102
}
330
47
100
AcDbScale
 70
     0
300
1" = 1'-0"
140
1.0
141
12.0
290
     0
  0
SCALE
  5
65
102
{ACAD_REACTORS
330
47
102
}
330
47
100
AcDbScale
 70
     0
300
1-1/2" = 1'-0"
140
1.5
141
12.0
290
     0
  0
SCALE
  5
66
102
{ACAD_REACTORS
330
47
102
}
330
47
100
AcDbScale
 70
     0
300
3" = 1'-0"
140
3.0
141
12.0
290
     0
  0
SCALE
  5
67
102
{ACAD_REACTORS
330
47
102
}
330
47
100
AcDbScale
 70
     0
300
6" = 1'-0"
140
6.0
141
12.0
290
     0
  0
SCALE
  5
68
102
{ACAD_REACTORS
330
47
102
}
330
47
100
AcDbScale
 70
     0
300
1'-0" = 1'-0"
140
12.0
141
12.0
290
     0
  0
ENDSEC
  0
EOF
