  0
SECTION
  2
HEADER
  9
$ACADVER
  1
AC1021
  9
$ACADMAINTVER
 70
    25
  9
$DWGCODEPAGE
  3
ANSI_1252
  9
$COMMENTS
  1
File was created by Mastercam X5
  9
$INSBASE
 10
0.0
 20
0.0
 30
0.0
  9
$EXTMIN
 10
0.0
 20
0.0
 30
0.0
  9
$EXTMAX
 10
24.0
 20
24.0
 30
0.0
  9
$LIMMIN
 10
0.0
 20
0.0
  9
$LIMMAX
 10
12.0
 20
9.0
  9
$ORTHOMODE
 70
     0
  9
$REGENMODE
 70
     1
  9
$FILLMODE
 70
     1
  9
$QTEXTMODE
 70
     0
  9
$MIRRTEXT
 70
     1
  9
$LTSCALE
 40
1.0
  9
$ATTMODE
 70
     1
  9
$TEXTSIZE
 40
0.2
  9
$TRACEWID
 40
0.05
  9
$TEXTSTYLE
  7
Standard
  9
$CLAYER
  8
0
  9
$CELTYPE
  6
ByLayer
  9
$CECOLOR
 62
   256
  9
$CELTSCALE
 40
1.0
  9
$DISPSILH
 70
     0
  9
$DIMSCALE
 40
1.0
  9
$DIMASZ
 40
0.18
  9
$DIMEXO
 40
0.0625
  9
$DIMDLI
 40
0.38
  9
$DIMRND
 40
0.0
  9
$DIMDLE
 40
0.0
  9
$DIMEXE
 40
0.18
  9
$DIMTP
 40
0.0
  9
$DIMTM
 40
0.0
  9
$DIMTXT
 40
0.18
  9
$DIMCEN
 40
0.09
  9
$DIMTSZ
 40
0.0
  9
$DIMTOL
 70
     0
  9
$DIMLIM
 70
     0
  9
$DIMTIH
 70
     1
  9
$DIMTOH
 70
     1
  9
$DIMSE1
 70
     0
  9
$DIMSE2
 70
     0
  9
$DIMTAD
 70
     0
  9
$DIMZIN
 70
     0
  9
$DIMBLK
  1

  9
$DIMASO
 70
     1
  9
$DIMSHO
 70
     1
  9
$DIMPOST
  1

  9
$DIMAPOST
  1

  9
$DIMALT
 70
     0
  9
$DIMALTD
 70
     2
  9
$DIMALTF
 40
25.4
  9
$DIMLFAC
 40
1.0
  9
$DIMTOFL
 70
     0
  9
$DIMTVP
 40
0.0
  9
$DIMTIX
 70
     0
  9
$DIMSOXD
 70
     0
  9
$DIMSAH
 70
     0
  9
$DIMBLK1
  1

  9
$DIMBLK2
  1

  9
$DIMSTYLE
  2
Standard
  9
$DIMCLRD
 70
     0
  9
$DIMCLRE
 70
     0
  9
$DIMCLRT
 70
     0
  9
$DIMTFAC
 40
1.0
  9
$DIMGAP
 40
0.09
  9
$DIMJUST
 70
     0
  9
$DIMSD1
 70
     0
  9
$DIMSD2
 70
     0
  9
$DIMTOLJ
 70
     1
  9
$DIMTZIN
 70
     0
  9
$DIMALTZ
 70
     0
  9
$DIMALTTZ
 70
     0
  9
$DIMUPT
 70
     0
  9
$DIMDEC
 70
     4
  9
$DIMTDEC
 70
     4
  9
$DIMALTU
 70
     2
  9
$DIMALTTD
 70
     2
  9
$DIMTXSTY
  7
Standard
  9
$DIMAUNIT
 70
     0
  9
$DIMADEC
 70
     0
  9
$DIMALTRND
 40
0.0
  9
$DIMAZIN
 70
     0
  9
$DIMDSEP
 70
    46
  9
$DIMATFIT
 70
     3
  9
$DIMFRAC
 70
     0
  9
$DIMLDRBLK
  1

  9
$DIMLUNIT
 70
     2
  9
$DIMLWD
 70
    -2
  9
$DIMLWE
 70
    -2
  9
$DIMTMOVE
 70
     0
  9
$DIMFXL
 40
1.0
  9
$DIMFXLON
 70
     0
  9
$DIMJOGANG
 40
0.7853981633974483
  9
$DIMTFILL
 70
     0
  9
$DIMTFILLCLR
 70
     0
  9
$DIMARCSYM
 70
     0
  9
$DIMLTYPE
  6

  9
$DIMLTEX1
  6

  9
$DIMLTEX2
  6

  9
$LUNITS
 70
     2
  9
$LUPREC
 70
     4
  9
$SKETCHINC
 40
0.1
  9
$FILLETRAD
 40
0.5
  9
$AUNITS
 70
     0
  9
$AUPREC
 70
     0
  9
$MENU
  1
.
  9
$ELEVATION
 40
0.0
  9
$PELEVATION
 40
0.0
  9
$THICKNESS
 40
0.0
  9
$LIMCHECK
 70
     0
  9
$CHAMFERA
 40
0.5
  9
$CHAMFERB
 40
0.5
  9
$CHAMFERC
 40
1.0
  9
$CHAMFERD
 40
0.0
  9
$SKPOLY
 70
     0
  9
$TDCREATE
 40
2453737.5
  9
$TDUCREATE
 40
2453737.75
  9
$TDUPDATE
 40
2456920.314705266
  9
$TDUUPDATE
 40
2456920.564705266
  9
$TDINDWG
 40
0.0000000116
  9
$TDUSRTIMER
 40
0.0000000116
  9
$USRTIMER
 70
     1
  9
$ANGBASE
 50
0.0
  9
$ANGDIR
 70
     0
  9
$PDMODE
 70
     2
  9
$PDSIZE
 40
0.1
  9
$PLINEWID
 40
0.0
  9
$SPLFRAME
 70
     0
  9
$SPLINETYPE
 70
     6
  9
$SPLINESEGS
 70
     8
  9
$HANDSEED
  5
304
  9
$SURFTAB1
 70
     6
  9
$SURFTAB2
 70
     6
  9
$SURFTYPE
 70
     6
  9
$SURFU
 70
     6
  9
$SURFV
 70
     6
  9
$UCSBASE
  2

  9
$UCSNAME
  2

  9
$UCSORG
 10
0.0
 20
0.0
 30
0.0
  9
$UCSXDIR
 10
1.0
 20
0.0
 30
0.0
  9
$UCSYDIR
 10
0.0
 20
1.0
 30
0.0
  9
$UCSORTHOREF
  2

  9
$UCSORTHOVIEW
 70
     0
  9
$UCSORGTOP
 10
0.0
 20
0.0
 30
0.0
  9
$UCSORGBOTTOM
 10
0.0
 20
0.0
 30
0.0
  9
$UCSORGLEFT
 10
0.0
 20
0.0
 30
0.0
  9
$UCSORGRIGHT
 10
0.0
 20
0.0
 30
0.0
  9
$UCSORGFRONT
 10
0.0
 20
0.0
 30
0.0
  9
$UCSORGBACK
 10
0.0
 20
0.0
 30
0.0
  9
$PUCSBASE
  2

  9
$PUCSNAME
  2

  9
$PUCSORG
 10
0.0
 20
0.0
 30
0.0
  9
$PUCSXDIR
 10
1.0
 20
0.0
 30
0.0
  9
$PUCSYDIR
 10
0.0
 20
1.0
 30
0.0
  9
$PUCSORTHOREF
  2

  9
$PUCSORTHOVIEW
 70
     0
  9
$PUCSORGTOP
 10
0.0
 20
0.0
 30
0.0
  9
$PUCSORGBOTTOM
 10
0.0
 20
0.0
 30
0.0
  9
$PUCSORGLEFT
 10
0.0
 20
0.0
 30
0.0
  9
$PUCSORGRIGHT
 10
0.0
 20
0.0
 30
0.0
  9
$PUCSORGFRONT
 10
0.0
 20
0.0
 30
0.0
  9
$PUCSORGBACK
 10
0.0
 20
0.0
 30
0.0
  9
$USERI1
 70
     0
  9
$USERI2
 70
     0
  9
$USERI3
 70
     0
  9
$USERI4
 70
     0
  9
$USERI5
 70
     0
  9
$USERR1
 40
0.0
  9
$USERR2
 40
0.0
  9
$USERR3
 40
0.0
  9
$USERR4
 40
0.0
  9
$USERR5
 40
0.0
  9
$WORLDVIEW
 70
     1
  9
$SHADEDGE
 70
     3
  9
$SHADEDIF
 70
    70
  9
$TILEMODE
 70
     1
  9
$MAXACTVP
 70
    64
  9
$PINSBASE
 10
0.0
 20
0.0
 30
0.0
  9
$PLIMCHECK
 70
     0
  9
$PEXTMIN
 10
1.000000000000000E+20
 20
1.000000000000000E+20
 30
1.000000000000000E+20
  9
$PEXTMAX
 10
-1.000000000000000E+20
 20
-1.000000000000000E+20
 30
-1.000000000000000E+20
  9
$PLIMMIN
 10
0.0
 20
0.0
  9
$PLIMMAX
 10
12.0
 20
9.0
  9
$UNITMODE
 70
     0
  9
$VISRETAIN
 70
     1
  9
$PLINEGEN
 70
     0
  9
$PSLTSCALE
 70
     1
  9
$TREEDEPTH
 70
  3020
  9
$CMLSTYLE
  2
Standard
  9
$CMLJUST
 70
     0
  9
$CMLSCALE
 40
1.0
  9
$PROXYGRAPHICS
 70
     1
  9
$MEASUREMENT
 70
     0
  9
$CELWEIGHT
370
    -1
  9
$ENDCAPS
280
     0
  9
$JOINSTYLE
280
     0
  9
$LWDISPLAY
290
     0
  9
$INSUNITS
 70
     1
  9
$HYPERLINKBASE
  1

  9
$STYLESHEET
  1

  9
$XEDIT
290
     1
  9
$CEPSNTYPE
380
     0
  9
$PSTYLEMODE
290
     1
  9
$FINGERPRINTGUID
  2
{5E12A375-DB1A-4ADA-ABCF-E823F898892B}
  9
$VERSIONGUID
  2
{FAEB1C32-E019-11D5-929B-00C0DF256EC4}
  9
$EXTNAMES
290
     1
  9
$PSVPSCALE
 40
0.0
  9
$OLESTARTUP
290
     0
  9
$SORTENTS
280
   127
  9
$INDEXCTL
280
     0
  9
$HIDETEXT
280
     1
  9
$XCLIPFRAME
290
     0
  9
$HALOGAP
280
     0
  9
$OBSCOLOR
 70
   257
  9
$OBSLTYPE
280
     0
  9
$INTERSECTIONDISPLAY
280
     0
  9
$INTERSECTIONCOLOR
 70
   257
  9
$DIMASSOC
280
     2
  9
$PROJECTNAME
  1

  9
$CAMERADISPLAY
290
     0
  9
$LENSLENGTH
 40
50.0
  9
$CAMERAHEIGHT
 40
0.0
  9
$STEPSPERSEC
 40
2.0
  9
$STEPSIZE
 40
6.0
  9
$3DDWFPREC
 40
2.0
  9
$PSOLWIDTH
 40
0.25
  9
$PSOLHEIGHT
 40
4.0
  9
$LOFTANG1
 40
1.570796326794897
  9
$LOFTANG2
 40
1.570796326794897
  9
$LOFTMAG1
 40
0.0
  9
$LOFTMAG2
 40
0.0
  9
$LOFTPARAM
 70
     7
  9
$LOFTNORMALS
280
     1
  9
$LATITUDE
 40
37.795
  9
$LONGITUDE
 40
-122.394
  9
$NORTHDIRECTION
 40
0.0
  9
$TIMEZONE
 70
 -8000
  9
$LIGHTGLYPHDISPLAY
280
     1
  9
$TILEMODELIGHTSYNCH
280
     1
  9
$SOLIDHIST
280
     1
  9
$SHOWHIST
280
     1
  9
$DWFFRAME
280
     2
  9
$DGNFRAME
280
     2
  9
$REALWORLDSCALE
290
     1
  9
$INTERFERECOLOR
 62
   256
  9
$CSHADOW
280
     0
  9
$SHADOWPLANELOCATION
 40
0.0
  0
ENDSEC
  0
SECTION
  2
CLASSES
  0
CLASS
  1
ACDBDICTIONARYWDFLT
  2
AcDbDictionaryWithDefault
  3
ObjectDBX Classes
 90
        0
 91
        4
280
     0
281
     0
  0
CLASS
  1
VISUALSTYLE
  2
AcDbVisualStyle
  3
ObjectDBX Classes
 90
     4095
 91
        4
280
     0
281
     0
  0
CLASS
  1
MATERIAL
  2
AcDbMaterial
  3
ObjectDBX Classes
 90
     1153
 91
        4
280
     0
281
     0
  0
ENDSEC
  0
SECTION
  2
TABLES
  0
TABLE
  2
VPORT
  5
8
330
0
100
AcDbSymbolTable
 70
     1
  0
VPORT
  5
29
330
8
100
AcDbSymbolTableRecord
100
AcDbViewportTableRecord
  2
*Active
 70
     0
 10
0.0
 20
0.0
 11
1.0
 21
1.0
 12
10.42990654205607
 22
4.5
 13
0.0
 23
0.0
 14
0.5
 24
0.5
 15
0.5
 25
0.5
 16
0.0
 26
0.0
 36
1.0
 17
0.0
 27
0.0
 37
0.0
 40
9.0
 41
1.972972972850329
 42
50.0
 43
0.0
 44
0.0
 50
0.0
 51
0.0
 71
     0
 72
   100
 73
     1
 74
     3
 75
     0
 76
     0
 77
     0
 78
     0
281
     0
 65
     1
110
0.0
120
0.0
130
0.0
111
1.0
121
0.0
131
0.0
112
0.0
122
1.0
132
0.0
 79
     0
146
0.0
 60
     3
 61
     5
292
     1
282
     1
141
0.0
142
0.0
 63
   250
  0
ENDTAB
  0
TABLE
  2
LTYPE
  5
5
330
0
100
AcDbSymbolTable
 70
     5
  0
LTYPE
  5
14
330
5
100
AcDbSymbolTableRecord
100
AcDbLinetypeTableRecord
  2
ByBlock
 70
     0
  3

 72
    65
 73
     0
 40
0.0
  0
LTYPE
  5
15
330
5
100
AcDbSymbolTableRecord
100
AcDbLinetypeTableRecord
  2
ByLayer
 70
     0
  3

 72
    65
 73
     0
 40
0.0
  0
LTYPE
  5
16
330
5
100
AcDbSymbolTableRecord
100
AcDbLinetypeTableRecord
  2
Continuous
 70
     0
  3
Solid line
 72
    65
 73
     0
 40
0.0
  0
LTYPE
  5
40
330
5
100
AcDbSymbolTableRecord
100
AcDbLinetypeTableRecord
  2
Continuous2
 70
     0
  3
Solid Line
 72
    65
 73
     0
 40
0.0
  0
LTYPE
  5
41
330
5
100
AcDbSymbolTableRecord
100
AcDbLinetypeTableRecord
  2
DASHED
 70
     0
  3
__ __ __ __ __ __ __ __ __ __ __ __ __ __ __ __
 72
    83
 73
     2
 40
0.5
 49
0.375
 74
     0
 49
-0.125
 74
     0
  0
LTYPE
  5
42
330
5
100
AcDbSymbolTableRecord
100
AcDbLinetypeTableRecord
  2
CENTER
 70
     0
  3
____ _ ____ _ ____ _ ____ _ ____ _ ____ _ ____ _
 72
    83
 73
     4
 40
1.0
 49
0.625
 74
     0
 49
-0.125
 74
     0
 49
0.125
 74
     0
 49
-0.125
 74
     0
  0
LTYPE
  5
43
330
5
100
AcDbSymbolTableRecord
100
AcDbLinetypeTableRecord
  2
PHANTOM
 70
     0
  3
___ _ _ ___ _ _ ___ _ _ ___ _ _ ___ _ _ ___ _ _ 
 72
    83
 73
     6
 40
1.0
 49
0.5
 74
     0
 49
-0.1
 74
     0
 49
0.1
 74
     0
 49
-0.1
 74
     0
 49
0.1
 74
     0
 49
-0.1
 74
     0
  0
ENDTAB
  0
TABLE
  2
LAYER
  5
2
330
0
100
AcDbSymbolTable
 70
     3
  0
LAYER
  5
10
330
2
100
AcDbSymbolTableRecord
100
AcDbLayerTableRecord
  2
0
 70
     0
 62
     7
  6
Continuous
370
    -3
390
F
347
3E
  0
LAYER
  5
44
330
2
100
AcDbSymbolTableRecord
100
AcDbLayerTableRecord
  2
background
 70
     0
 62
    -1
  6
Continuous
370
    -3
390
F
347
3E
  0
LAYER
  5
45
330
2
100
AcDbSymbolTableRecord
100
AcDbLayerTableRecord
  2
working
 70
     0
 62
     1
  6
Continuous
370
    -3
390
F
347
3E
  0
ENDTAB
  0
TABLE
  2
STYLE
  5
3
330
0
100
AcDbSymbolTable
 70
     1
  0
STYLE
  5
11
330
3
100
AcDbSymbolTableRecord
100
AcDbTextStyleTableRecord
  2
Standard
 70
     0
 40
0.0
 41
1.0
 50
0.0
 71
     0
 42
0.2
  3
txt
  4

  0
ENDTAB
  0
TABLE
  2
VIEW
  5
6
330
0
100
AcDbSymbolTable
 70
     0
  0
ENDTAB
  0
TABLE
  2
UCS
  5
7
330
0
100
AcDbSymbolTable
 70
     0
  0
ENDTAB
  0
TABLE
  2
APPID
  5
9
330
0
100
AcDbSymbolTable
 70
     2
  0
APPID
  5
12
330
9
100
AcDbSymbolTableRecord
100
AcDbRegAppTableRecord
  2
ACAD
 70
     0
  0
APPID
  5
3F
330
9
100
AcDbSymbolTableRecord
100
AcDbRegAppTableRecord
  2
Mastercam X5
 70
     0
  0
ENDTAB
  0
TABLE
  2
DIMSTYLE
  5
A
330
0
100
AcDbSymbolTable
 70
     1
100
AcDbDimStyleTable
  0
DIMSTYLE
105
27
330
A
100
AcDbSymbolTableRecord
100
AcDbDimStyleTableRecord
  2
Standard
 70
     0
178
     0
340
11
  0
ENDTAB
  0
TABLE
  2
BLOCK_RECORD
  5
1
330
0
100
AcDbSymbolTable
 70
     1
  0
BLOCK_RECORD
  5
1F
330
1
100
AcDbSymbolTableRecord
100
AcDbBlockTableRecord
  2
*Model_Space
340
22
 70
     0
280
     1
281
     0
  0
BLOCK_RECORD
  5
1B
330
1
100
AcDbSymbolTableRecord
100
AcDbBlockTableRecord
  2
*Paper_Space
340
1E
 70
     0
280
     1
281
     0
  0
BLOCK_RECORD
  5
23
330
1
100
AcDbSymbolTableRecord
100
AcDbBlockTableRecord
  2
*Paper_Space0
340
26
 70
     0
280
     1
281
     0
  0
ENDTAB
  0
ENDSEC
  0
SECTION
  2
BLOCKS
  0
BLOCK
  5
20
330
1F
100
AcDbEntity
  8
0
100
AcDbBlockBegin
  2
*Model_Space
 70
     0
 10
0.0
 20
0.0
 30
0.0
  3
*Model_Space
  1

  0
ENDBLK
  5
21
330
1F
100
AcDbEntity
  8
0
100
AcDbBlockEnd
  0
BLOCK
  5
1C
330
1B
100
AcDbEntity
 67
     1
  8
0
100
AcDbBlockBegin
  2
*Paper_Space
 70
     0
 10
0.0
 20
0.0
 30
0.0
  3
*Paper_Space
  1

  0
ENDBLK
  5
1D
330
1B
100
AcDbEntity
 67
     1
  8
0
100
AcDbBlockEnd
  0
BLOCK
  5
24
330
23
100
AcDbEntity
  8
0
100
AcDbBlockBegin
  2
*Paper_Space0
 70
     0
 10
0.0
 20
0.0
 30
0.0
  3
*Paper_Space0
  1

  0
ENDBLK
  5
25
330
23
100
AcDbEntity
  8
0
100
AcDbBlockEnd
  0
ENDSEC
  0
SECTION
  2
ENTITIES
  0
LINE
  5
46
330
1F
100
AcDbEntity
  8
background
  6
Continuous2
 62
    25
420
 10053222
370
    -3
100
AcDbLine
 10
0.0
 20
0.0
 30
0.0
 11
24.0
 21
0.0
 31
0.0
  0
LINE
  5
47
330
1F
100
AcDbEntity
  8
background
  6
Continuous2
 62
    25
420
 10053222
370
    -3
100
AcDbLine
 10
24.0
 20
0.0
 30
0.0
 11
24.0
 21
1.0
 31
0.0
  0
LINE
  5
48
330
1F
100
AcDbEntity
  8
background
  6
Continuous2
 62
    25
420
 10053222
370
    -3
100
AcDbLine
 10
24.0
 20
24.0
 30
0.0
 11
0.0
 21
24.0
 31
0.0
  0
LINE
  5
49
330
1F
100
AcDbEntity
  8
background
  6
Continuous2
 62
    25
420
 10053222
370
    -3
100
AcDbLine
 10
0.0
 20
24.0
 30
0.0
 11
0.0
 21
23.0
 31
0.0
  0
ARC
  5
4A
330
1F
100
AcDbEntity
  8
background
  6
Continuous2
 62
    25
420
 10053222
370
    -3
100
AcDbCircle
 10
14.99826581265304
 20
6.903495246741492
 30
0.0
 40
3.625000000000002
100
AcDbArc
 50
195.0154907805482
 51
216.5299097263483
  0
ARC
  5
4B
330
1F
100
AcDbEntity
  8
background
  6
Continuous2
 62
    25
420
 10053222
370
    -3
100
AcDbCircle
 10
14.99826581265304
 20
6.903495246741492
 30
0.0
 40
3.625
100
AcDbArc
 50
288.6154907805482
 51
320.1134964183126
  0
ARC
  5
4C
330
1F
100
AcDbEntity
  8
background
  6
Continuous2
 62
    25
420
 10053222
370
    -3
100
AcDbCircle
 10
14.99826581265304
 20
6.903495246741492
 30
0.0
 40
3.625000000000001
100
AcDbArc
 50
93.46566832415897
 51
118.3683243279778
  0
ARC
  5
4D
330
1F
100
AcDbEntity
  8
background
  6
Continuous2
 62
    25
420
 10053222
370
    -3
100
AcDbCircle
 10
14.99826581265304
 20
6.903495246741492
 30
0.0
 40
3.624999999999999
100
AcDbArc
 50
27.90420328581628
 51
58.40780784448308
  0
ARC
  5
4E
330
1F
100
AcDbEntity
  8
background
  6
Continuous2
 62
    25
420
 10053222
370
    -3
100
AcDbCircle
 10
20.94344693537549
 20
8.435404863461565
 30
0.0
 40
2.75
100
AcDbArc
 50
212.4195438613283
 51
238.4518990003904
  0
ARC
  5
4F
330
1F
100
AcDbEntity
  8
background
  6
Continuous2
 62
    25
420
 10053222
370
    -3
100
AcDbCircle
 10
20.94344693537549
 20
8.435404863461565
 30
0.0
 40
2.750000000000001
100
AcDbArc
 50
142.5394552062554
 51
176.5212199892915
  0
ARC
  5
50
330
1F
100
AcDbEntity
  8
background
  6
Continuous2
 62
    25
420
 10053222
370
    -3
100
AcDbCircle
 10
19.82053352275285
 20
3.991534762444264
 30
0.0
 40
2.125
100
AcDbArc
 50
235.7670492605119
 51
299.6220860500312
  0
ARC
  5
51
330
1F
100
AcDbEntity
  8
background
  6
Continuous2
 62
    25
420
 10053222
370
    -3
100
AcDbCircle
 10
14.99826581265304
 20
6.903495246741492
 30
0.0
 40
3.625000000000001
100
AcDbArc
 50
337.5938925721251
 51
0.9126596085502335
  0
ARC
  5
52
330
1F
100
AcDbEntity
  8
background
  6
Continuous2
 62
    25
420
 10053222
370
    -3
100
AcDbCircle
 10
20.94344693537549
 20
8.435404863461565
 30
0.0
 40
2.75
100
AcDbArc
 50
273.174578954796
 51
84.5744456250809
  0
ARC
  5
53
330
1F
100
AcDbEntity
  8
background
  6
Continuous2
 62
    25
420
 10053222
370
    -3
100
AcDbCircle
 10
22.16192744694475
 20
1.912950360355529
 30
0.0
 40
1.3125
100
AcDbArc
 50
169.8151021960107
 51
224.0940024265425
  0
ARC
  5
54
330
1F
100
AcDbEntity
  8
background
  6
Continuous2
 62
    25
420
 10053222
370
    -3
100
AcDbCircle
 10
19.82053352275285
 20
3.991534762444264
 30
0.0
 40
2.125
100
AcDbArc
 50
98.54017496766178
 51
133.8868317180365
  0
ARC
  5
55
330
1F
100
AcDbEntity
  8
background
  6
Continuous2
 62
    25
420
 10053222
370
    -3
100
AcDbCircle
 10
19.82053352275285
 20
3.991534762444264
 30
0.0
 40
2.125
100
AcDbArc
 50
163.9286640903605
 51
219.3344006414176
  0
ARC
  5
56
330
1F
100
AcDbEntity
  8
background
  6
Continuous2
 62
    25
420
 10053222
370
    -3
100
AcDbCircle
 10
19.82053352275285
 20
3.991534762444264
 30
0.0
 40
2.124999999999998
100
AcDbArc
 50
337.1827957588415
 51
53.10827674431209
  0
ARC
  5
57
330
1F
100
AcDbEntity
  8
background
  6
Continuous2
 62
    25
420
 10053222
370
    -3
100
AcDbCircle
 10
17.71069332068634
 20
1.688264150512222
 30
0.0
 40
1.065221802672241
100
AcDbArc
 50
63.98673880203853
 51
136.1209520810299
  0
ARC
  5
58
330
1F
100
AcDbEntity
  8
background
  6
Continuous2
 62
    25
420
 10053222
370
    -3
100
AcDbCircle
 10
14.99826581265304
 20
6.903495246741492
 30
0.0
 40
3.625000000000001
100
AcDbArc
 50
243.2289504954465
 51
256.0594267395833
  0
ARC
  5
59
330
1F
100
AcDbEntity
  8
background
  6
Continuous2
 62
    25
420
 10053222
370
    -3
100
AcDbCircle
 10
5.122459525609326
 20
5.526134997250887
 30
0.0
 40
4.937500000000001
100
AcDbArc
 50
344.47094404874
 51
355.1086195720066
  0
ARC
  5
5A
330
1F
100
AcDbEntity
  8
background
  6
Continuous2
 62
    25
420
 10053222
370
    -3
100
AcDbCircle
 10
11.42592500801455
 20
2.660650707549824
 30
0.0
 40
2.1875
100
AcDbArc
 50
72.44599903969763
 51
103.8932657125453
  0
ARC
  5
5B
330
1F
100
AcDbEntity
  8
background
  6
Continuous2
 62
    25
420
 10053222
370
    -3
100
AcDbCircle
 10
11.42592500801455
 20
2.660650707549824
 30
0.0
 40
2.1875
100
AcDbArc
 50
176.0366016846833
 51
229.4226817306203
  0
ARC
  5
5C
330
1F
100
AcDbEntity
  8
background
  6
Continuous2
 62
    25
420
 10053222
370
    -3
100
AcDbCircle
 10
11.42592500801455
 20
2.660650707549824
 30
0.0
 40
2.1875
100
AcDbArc
 50
3.458937675936406
 51
27.4501580201123
  0
ARC
  5
5D
330
1F
100
AcDbEntity
  8
background
  6
Continuous2
 62
    25
420
 10053222
370
    -3
100
AcDbCircle
 10
15.20105886385645
 20
1.926596902247232
 30
0.0
 40
1.813060256618262
100
AcDbArc
 50
126.4102807345372
 51
151.4632595097692
  0
ARC
  5
5E
330
1F
100
AcDbEntity
  8
background
  6
Continuous2
 62
    25
420
 10053222
370
    -3
100
AcDbCircle
 10
15.20105886385645
 20
1.926596902247232
 30
0.0
 40
1.813060256618261
100
AcDbArc
 50
186.5014606665929
 51
210.750571406222
  0
ARC
  5
5F
330
1F
100
AcDbEntity
  8
background
  6
Continuous2
 62
    25
420
 10053222
370
    -3
100
AcDbCircle
 10
15.20105886385645
 20
1.926596902247232
 30
0.0
 40
1.813060256618261
100
AcDbArc
 50
16.00641391616569
 51
58.23863728772348
  0
LINE
  5
60
330
1F
100
AcDbEntity
  8
background
  6
Continuous2
 62
    25
420
 10053222
370
    -3
100
AcDbLine
 10
11.63503837802975
 20
8.260344764917667
 30
0.0
 11
11.61790826602968
 21
8.33698048064158
 31
0.0
  0
LINE
  5
61
330
1F
100
AcDbEntity
  8
background
  6
Continuous2
 62
    25
420
 10053222
370
    -3
100
AcDbLine
 10
11.61790826602968
 20
8.33698048064158
 30
0.0
 11
11.59599995998783
 21
8.412389364654196
 31
0.0
  0
LINE
  5
62
330
1F
100
AcDbEntity
  8
background
  6
Continuous2
 62
    25
420
 10053222
370
    -3
100
AcDbLine
 10
11.59599995998783
 20
8.412389364654196
 30
0.0
 11
11.5693999219792
 21
8.48627381254136
 31
0.0
  0
LINE
  5
63
330
1F
100
AcDbEntity
  8
background
  6
Continuous2
 62
    25
420
 10053222
370
    -3
100
AcDbLine
 10
11.5693999219792
 20
8.48627381254136
 30
0.0
 11
11.53821313020141
 21
8.558342236141852
 31
0.0
  0
LINE
  5
64
330
1F
100
AcDbEntity
  8
background
  6
Continuous2
 62
    25
420
 10053222
370
    -3
100
AcDbLine
 10
11.53821313020141
 20
8.558342236141852
 30
0.0
 11
11.50256266467372
 21
8.628310214312656
 31
0.0
  0
LINE
  5
65
330
1F
100
AcDbEntity
  8
background
  6
Continuous2
 62
    25
420
 10053222
370
    -3
100
AcDbLine
 10
11.50256266467372
 20
8.628310214312656
 30
0.0
 11
11.46258922149641
 21
8.695901615409257
 31
0.0
  0
LINE
  5
66
330
1F
100
AcDbEntity
  8
background
  6
Continuous2
 62
    25
420
 10053222
370
    -3
100
AcDbLine
 10
11.46258922149641
 20
8.695901615409257
 30
0.0
 11
11.41845055758757
 21
8.760849687051103
 31
0.0
  0
LINE
  5
67
330
1F
100
AcDbEntity
  8
background
  6
Continuous2
 62
    25
420
 10053222
370
    -3
100
AcDbLine
 10
11.41845055758757
 20
8.760849687051103
 30
0.0
 11
11.37032086808863
 21
8.822898108871374
 31
0.0
  0
LINE
  5
68
330
1F
100
AcDbEntity
  8
background
  6
Continuous2
 62
    25
420
 10053222
370
    -3
100
AcDbLine
 10
11.37032086808863
 20
8.822898108871374
 30
0.0
 11
11.31839009889566
 21
8.881802004096373
 31
0.0
  0
LINE
  5
69
330
1F
100
AcDbEntity
  8
background
  6
Continuous2
 62
    25
420
 10053222
370
    -3
100
AcDbLine
 10
11.31839009889566
 20
8.881802004096373
 30
0.0
 11
11.26286319702975
 21
8.937328905962277
 31
0.0
  0
LINE
  5
6A
330
1F
100
AcDbEntity
  8
background
  6
Continuous2
 62
    25
420
 10053222
370
    -3
100
AcDbLine
 10
11.26286319702975
 20
8.937328905962277
 30
0.0
 11
11.20395930180475
 21
8.989259675155248
 31
0.0
  0
LINE
  5
6B
330
1F
100
AcDbEntity
  8
background
  6
Continuous2
 62
    25
420
 10053222
370
    -3
100
AcDbLine
 10
10.64140595785105
 20
9.253977185096373
 30
0.0
 11
10.56384585657427
 21
9.266261498328609
 31
0.0
  0
LINE
  5
6C
330
1F
100
AcDbEntity
  8
background
  6
Continuous2
 62
    25
420
 10053222
370
    -3
100
AcDbLine
 10
10.56384585657427
 20
9.266261498328609
 30
0.0
 11
10.48566746403053
 21
9.273651532220851
 31
0.0
  0
LINE
  5
6D
330
1F
100
AcDbEntity
  8
background
  6
Continuous2
 62
    25
420
 10053222
370
    -3
100
AcDbLine
 10
10.48566746403053
 20
9.273651532220851
 30
0.0
 11
10.40717931461889
 21
9.276118121685512
 31
0.0
  0
LINE
  5
6E
330
1F
100
AcDbEntity
  8
background
  6
Continuous2
 62
    25
420
 10053222
370
    -3
100
AcDbLine
 10
10.40717931461889
 20
9.276118121685512
 30
0.0
 11
10.32869116520725
 21
9.273651532220851
 31
0.0
  0
LINE
  5
6F
330
1F
100
AcDbEntity
  8
background
  6
Continuous2
 62
    25
420
 10053222
370
    -3
100
AcDbLine
 10
10.32869116520725
 20
9.273651532220851
 30
0.0
 11
10.25051277266351
 21
9.266261498328609
 31
0.0
  0
LINE
  5
70
330
1F
100
AcDbEntity
  8
background
  6
Continuous2
 62
    25
420
 10053222
370
    -3
100
AcDbLine
 10
10.25051277266351
 20
9.266261498328609
 30
0.0
 11
10.17295267138674
 21
9.253977185096373
 31
0.0
  0
LINE
  5
71
330
1F
100
AcDbEntity
  8
background
  6
Continuous2
 62
    25
420
 10053222
370
    -3
100
AcDbLine
 10
10.17295267138674
 20
9.253977185096373
 30
0.0
 11
10.09631695566282
 21
9.2368470730963
 31
0.0
  0
LINE
  5
72
330
1F
100
AcDbEntity
  8
background
  6
Continuous2
 62
    25
420
 10053222
370
    -3
100
AcDbLine
 10
10.09631695566282
 20
9.2368470730963
 30
0.0
 11
10.02090807165021
 21
9.214938767054454
 31
0.0
  0
LINE
  5
73
330
1F
100
AcDbEntity
  8
background
  6
Continuous2
 62
    25
420
 10053222
370
    -3
100
AcDbLine
 10
10.02090807165021
 20
9.214938767054454
 30
0.0
 11
9.947023623763043
 21
9.188338729045826
 31
0.0
  0
LINE
  5
74
330
1F
100
AcDbEntity
  8
background
  6
Continuous2
 62
    25
420
 10053222
370
    -3
100
AcDbLine
 10
9.947023623763043
 20
9.188338729045826
 30
0.0
 11
9.87495520016255
 21
9.157151937268036
 31
0.0
  0
LINE
  5
75
330
1F
100
AcDbEntity
  8
background
  6
Continuous2
 62
    25
420
 10053222
370
    -3
100
AcDbLine
 10
9.87495520016255
 20
9.157151937268036
 30
0.0
 11
9.804987221991746
 21
9.121501471740341
 31
0.0
  0
LINE
  5
76
330
1F
100
AcDbEntity
  8
background
  6
Continuous2
 62
    25
420
 10053222
370
    -3
100
AcDbLine
 10
9.804987221991746
 20
9.121501471740341
 30
0.0
 11
9.738618068474768
 21
9.08274390162572
 31
0.0
  0
LINE
  5
77
330
1F
100
AcDbEntity
  8
background
  6
Continuous2
 62
    25
420
 10053222
370
    -3
100
AcDbLine
 10
9.6724477492533
 20
9.037389364654196
 30
0.0
 11
9.610399327433027
 21
8.989259675155248
 31
0.0
  0
LINE
  5
78
330
1F
100
AcDbEntity
  8
background
  6
Continuous2
 62
    25
420
 10053222
370
    -3
100
AcDbLine
 10
9.610399327433027
 20
8.989259675155248
 30
0.0
 11
9.598546357017087
 21
8.978809876061824
 31
0.0
  0
LINE
  5
79
330
1F
100
AcDbEntity
  8
background
  6
Continuous2
 62
    25
420
 10053222
370
    -3
100
AcDbLine
 10
9.551495432208029
 20
8.937328905962277
 30
0.0
 11
9.495968530342125
 21
8.881802004096372
 31
0.0
  0
LINE
  5
7A
330
1F
100
AcDbEntity
  8
background
  6
Continuous2
 62
    25
420
 10053222
370
    -3
100
AcDbLine
 10
9.495968530342125
 20
8.881802004096372
 30
0.0
 11
9.444037761149154
 21
8.822898108871374
 31
0.0
  0
LINE
  5
7B
330
1F
100
AcDbEntity
  8
background
  6
Continuous2
 62
    25
420
 10053222
370
    -3
100
AcDbLine
 10
9.444037761149154
 20
8.822898108871374
 30
0.0
 11
9.395908071650206
 21
8.760849687051103
 31
0.0
  0
LINE
  5
7C
330
1F
100
AcDbEntity
  8
background
  6
Continuous2
 62
    25
420
 10053222
370
    -3
100
AcDbLine
 10
9.395908071650206
 20
8.760849687051103
 30
0.0
 11
9.351769407741372
 21
8.695901615409257
 31
0.0
  0
LINE
  5
7D
330
1F
100
AcDbEntity
  8
background
  6
Continuous2
 62
    25
420
 10053222
370
    -3
100
AcDbLine
 10
9.351769407741372
 20
8.695901615409257
 30
0.0
 11
9.31179596456406
 21
8.628310214312656
 31
0.0
  0
LINE
  5
7E
330
1F
100
AcDbEntity
  8
background
  6
Continuous2
 62
    25
420
 10053222
370
    -3
100
AcDbLine
 10
9.31179596456406
 20
8.628310214312656
 30
0.0
 11
9.276145499036366
 21
8.558342236141852
 31
0.0
  0
LINE
  5
7F
330
1F
100
AcDbEntity
  8
background
  6
Continuous2
 62
    25
420
 10053222
370
    -3
100
AcDbLine
 10
9.276145499036366
 20
8.558342236141852
 30
0.0
 11
9.244958707258576
 21
8.48627381254136
 31
0.0
  0
LINE
  5
80
330
1F
100
AcDbEntity
  8
background
  6
Continuous2
 62
    25
420
 10053222
370
    -3
100
AcDbLine
 10
9.244958707258576
 20
8.48627381254136
 30
0.0
 11
9.218358669249948
 21
8.412389364654196
 31
0.0
  0
LINE
  5
81
330
1F
100
AcDbEntity
  8
background
  6
Continuous2
 62
    25
420
 10053222
370
    -3
100
AcDbLine
 10
9.218358669249948
 20
8.412389364654196
 30
0.0
 11
9.1964503632081
 21
8.33698048064158
 31
0.0
  0
LINE
  5
82
330
1F
100
AcDbEntity
  8
background
  6
Continuous2
 62
    25
420
 10053222
370
    -3
100
AcDbLine
 10
9.1964503632081
 20
8.33698048064158
 30
0.0
 11
9.192145794771452
 21
8.317722948465272
 31
0.0
  0
ARC
  5
83
330
1F
100
AcDbEntity
  8
background
  6
Continuous2
 62
    25
420
 10053222
370
    -3
100
AcDbCircle
 10
14.99826581265304
 20
6.903495246741492
 30
0.0
 40
3.625000000000003
100
AcDbArc
 50
174.3970086790221
 51
180.4150850725327
  0
ARC
  5
84
330
1F
100
AcDbEntity
  8
background
  6
Continuous2
 62
    25
420
 10053222
370
    -3
100
AcDbCircle
 10
5.122459525609326
 20
5.526134997250887
 30
0.0
 40
4.937500000000002
100
AcDbArc
 50
34.44804662857999
 51
41.08581246525642
  0
LINE
  5
85
330
1F
100
AcDbEntity
  8
background
  6
Continuous2
 62
    25
420
 10053222
370
    -3
100
AcDbLine
 10
11.63594080985768
 20
8.254647034597173
 30
0.0
 11
11.63503837802975
 21
8.260344764917667
 31
0.0
  0
ARC
  5
86
330
1F
100
AcDbEntity
  8
background
  6
Continuous2
 62
    25
420
 10053222
370
    -3
100
AcDbCircle
 10
10.40717931461889
 20
8.026118121685512
 30
0.0
 40
1.25
100
AcDbArc
 50
244.130291365847
 51
271.2465697387219
  0
ARC
  5
87
330
1F
100
AcDbEntity
  8
background
  6
Continuous2
 62
    25
420
 10053222
370
    -3
100
AcDbCircle
 10
11.6411603107802
 20
10.7129744417239
 30
0.0
 40
1.75
100
AcDbArc
 50
212.4
 51
237.1917281326828
  0
ARC
  5
88
330
1F
100
AcDbEntity
  8
background
  6
Continuous2
 62
    25
420
 10053222
370
    -3
100
AcDbCircle
 10
14.99826581265304
 20
6.903495246741492
 30
0.0
 40
3.625
100
AcDbArc
 50
144.4274645356573
 51
158.1072501622012
  0
LINE
  5
89
330
1F
100
AcDbEntity
  8
background
  6
Continuous2
 62
    25
420
 10053222
370
    -3
100
AcDbLine
 10
10.69314680632453
 20
9.242411735214981
 30
0.0
 11
10.64140595785105
 21
9.253977185096373
 31
0.0
  0
ARC
  5
8A
330
1F
100
AcDbEntity
  8
background
  6
Continuous2
 62
    25
420
 10053222
370
    -3
100
AcDbCircle
 10
11.6411603107802
 20
10.7129744417239
 30
0.0
 40
1.75
100
AcDbArc
 50
64.63297899527555
 51
105.8820841360408
  0
ARC
  5
8B
330
1F
100
AcDbEntity
  8
background
  6
Continuous2
 62
    25
420
 10053222
370
    -3
100
AcDbCircle
 10
11.6411603107802
 20
10.7129744417239
 30
0.0
 40
1.749999999999999
100
AcDbArc
 50
339.2043868402847
 51
25.96072287527142
  0
ARC
  5
8C
330
1F
100
AcDbEntity
  8
background
  6
Continuous2
 62
    25
420
 10053222
370
    -3
100
AcDbCircle
 10
11.6411603107802
 20
10.7129744417239
 30
0.0
 40
1.749999999999999
100
AcDbArc
 50
253.4743746409151
 51
283.5172500600052
  0
ARC
  5
8D
330
1F
100
AcDbEntity
  8
background
  6
Continuous2
 62
    25
420
 10053222
370
    -3
100
AcDbCircle
 10
11.6411603107802
 20
10.7129744417239
 30
0.0
 40
1.75
100
AcDbArc
 50
161.8082113595505
 51
173.3964008852278
  0
ARC
  5
8E
330
1F
100
AcDbEntity
  8
background
  6
Continuous2
 62
    25
420
 10053222
370
    -3
100
AcDbCircle
 10
8.885402549756687
 20
13.58517267152305
 30
0.0
 40
2.570269042541856
100
AcDbArc
 50
34.47787340965152
 51
72.57064382625383
  0
ARC
  5
8F
330
1F
100
AcDbEntity
  8
background
  6
Continuous2
 62
    25
420
 10053222
370
    -3
100
AcDbCircle
 10
8.885402549756687
 20
13.58517267152305
 30
0.0
 40
2.570269042541856
100
AcDbArc
 50
332.4123554864176
 51
3.712645489586929
  0
ARC
  5
90
330
1F
100
AcDbEntity
  8
background
  6
Continuous2
 62
    25
420
 10053222
370
    -3
100
AcDbCircle
 10
8.885402549756687
 20
10.08296980827213
 30
0.0
 40
1.314697146002831
100
AcDbArc
 50
310.464935070888
 51
346.464935070888
  0
ARC
  5
91
330
1F
100
AcDbEntity
  8
background
  6
Continuous2
 62
    25
420
 10053222
370
    -3
100
AcDbCircle
 10
5.122459525609326
 20
5.526134997250887
 30
0.0
 40
4.937500000000002
100
AcDbArc
 50
59.81496710901884
 51
81.8615710230486
  0
LINE
  5
92
330
1F
100
AcDbEntity
  8
background
  6
Continuous2
 62
    25
420
 10053222
370
    -3
100
AcDbLine
 10
9.73542236059462
 20
9.08018686632772
 30
0.0
 11
9.6724477492533
 21
9.037389364654196
 31
0.0
  0
LINE
  5
93
330
1F
100
AcDbEntity
  8
background
  6
Continuous2
 62
    25
420
 10053222
370
    -3
100
AcDbLine
 10
9.598546357017087
 20
8.978809876061824
 30
0.0
 11
9.551495432208029
 21
8.937328905962277
 31
0.0
  0
ARC
  5
94
330
1F
100
AcDbEntity
  8
background
  6
Continuous2
 62
    25
420
 10053222
370
    -3
100
AcDbCircle
 10
8.885402549756687
 20
13.58517267152305
 30
0.0
 40
2.570269042541856
100
AcDbArc
 50
287.7558010698566
 51
295.1779362271518
  0
ARC
  5
95
330
1F
100
AcDbEntity
  8
background
  6
Continuous2
 62
    25
420
 10053222
370
    -3
100
AcDbCircle
 10
8.885402549756687
 20
10.08296980827213
 30
0.0
 40
1.31469714600283
100
AcDbArc
 50
39.23604897917308
 51
53.38848115337319
  0
ARC
  5
96
330
1F
100
AcDbEntity
  8
background
  6
Continuous2
 62
    25
420
 10053222
370
    -3
100
AcDbCircle
 10
8.885402549756687
 20
10.08296980827213
 30
0.0
 40
1.314697146002831
100
AcDbArc
 50
126.6423913327548
 51
192.7855824179148
  0
ARC
  5
97
330
1F
100
AcDbEntity
  8
background
  6
Continuous2
 62
    25
420
 10053222
370
    -3
100
AcDbCircle
 10
8.885402549756687
 20
10.08296980827213
 30
0.0
 40
1.314697146002831
100
AcDbArc
 50
268.1162656975753
 51
302.8572055870534
  0
ARC
  5
98
330
1F
100
AcDbEntity
  8
background
  6
Continuous2
 62
    25
420
 10053222
370
    -3
100
AcDbCircle
 10
8.885402549756687
 20
10.08296980827213
 30
0.0
 40
1.314697146002831
100
AcDbArc
 50
302.8572055870534
 51
310.2866382014095
  0
ARC
  5
99
330
1F
100
AcDbEntity
  8
background
  6
Continuous2
 62
    25
420
 10053222
370
    -3
100
AcDbCircle
 10
8.885402549756687
 20
10.08296980827213
 30
0.0
 40
1.314697146002831
100
AcDbArc
 50
310.2866382014095
 51
310.464935070888
  0
ARC
  5
9A
330
1F
100
AcDbEntity
  8
background
  6
Continuous2
 62
    25
420
 10053222
370
    -3
100
AcDbCircle
 10
7.677586891777814
 20
19.43954945320283
 30
0.0
 40
3.937499999999998
100
AcDbArc
 50
150.6900675259798
 51
160.6511093909465
  0
ARC
  5
9B
330
1F
100
AcDbEntity
  8
background
  6
Continuous2
 62
    25
420
 10053222
370
    -3
100
AcDbCircle
 10
7.677586891777814
 20
19.43954945320283
 30
0.0
 40
3.937499999999997
100
AcDbArc
 50
179.4900675259798
 51
195.8138280775176
  0
ARC
  5
9C
330
1F
100
AcDbEntity
  8
background
  6
Continuous2
 62
    25
420
 10053222
370
    -3
100
AcDbCircle
 10
8.885402549756687
 20
13.58517267152305
 30
0.0
 40
2.570269042541856
100
AcDbArc
 50
130.7497042905551
 51
148.8513954047618
  0
ARC
  5
9D
330
1F
100
AcDbEntity
  8
background
  6
Continuous2
 62
    25
420
 10053222
370
    -3
100
AcDbCircle
 10
7.677586891777814
 20
19.43954945320283
 30
0.0
 40
3.937499999999995
100
AcDbArc
 50
3.370230657964176
 51
22.19483741753237
  0
ARC
  5
9E
330
1F
100
AcDbEntity
  8
background
  6
Continuous2
 62
    25
420
 10053222
370
    -3
100
AcDbCircle
 10
7.677586891777814
 20
19.43954945320283
 30
0.0
 40
3.937499999999998
100
AcDbArc
 50
300.1638473410655
 51
323.6623387405535
  0
ARC
  5
9F
330
1F
100
AcDbEntity
  8
background
  6
Continuous2
 62
    25
420
 10053222
370
    -3
100
AcDbCircle
 10
5.122459525609326
 20
5.526134997250887
 30
0.0
 40
4.937500000000004
100
AcDbArc
 50
109.4920479337623
 51
246.5110581520792
  0
ARC
  5
A0
330
1F
100
AcDbEntity
  8
background
  6
Continuous2
 62
    25
420
 10053222
370
    -3
100
AcDbCircle
 10
8.885402549756687
 20
13.58517267152305
 30
0.0
 40
2.570269042541858
100
AcDbArc
 50
212.0339836098923
 51
252.2263560695296
  0
ARC
  5
A1
330
1F
100
AcDbEntity
  8
background
  6
Continuous2
 62
    25
420
 10053222
370
    -3
100
AcDbCircle
 10
4.458077478858209
 20
12.20156558941149
 30
0.0
 40
2.25
100
AcDbArc
 50
34.19973040066821
 51
54.62244438561036
  0
ARC
  5
A2
330
1F
100
AcDbEntity
  8
background
  6
Continuous2
 62
    25
420
 10053222
370
    -3
100
AcDbCircle
 10
4.458077478858209
 20
12.20156558941149
 30
0.0
 40
2.25
100
AcDbArc
 50
307.2969325237267
 51
0.524549611542058
  0
LINE
  5
A3
330
1F
100
AcDbEntity
  8
background
  6
Continuous2
 62
    25
420
 10053222
370
    -3
100
AcDbLine
 10
6.688081594238179
 20
14.92456945938468
 30
0.0
 11
6.692763386741863
 21
14.98705320333358
 31
0.0
  0
LINE
  5
A4
330
1F
100
AcDbEntity
  8
background
  6
Continuous2
 62
    25
420
 10053222
370
    -3
100
AcDbLine
 10
6.692763386741863
 20
14.98705320333358
 30
0.0
 11
6.693512554052807
 21
15.04970762207049
 31
0.0
  0
LINE
  5
A5
330
1F
100
AcDbEntity
  8
background
  6
Continuous2
 62
    25
420
 10053222
370
    -3
100
AcDbLine
 10
6.693512554052807
 20
15.04970762207049
 30
0.0
 11
6.690326139549896
 21
15.11228544722874
 31
0.0
  0
LINE
  5
A6
330
1F
100
AcDbEntity
  8
background
  6
Continuous2
 62
    25
420
 10053222
370
    -3
100
AcDbLine
 10
6.690326139549896
 20
15.11228544722874
 30
0.0
 11
6.683216718555438
 21
15.1745397127215
 31
0.0
  0
LINE
  5
A7
330
1F
100
AcDbEntity
  8
background
  6
Continuous2
 62
    25
420
 10053222
370
    -3
100
AcDbLine
 10
6.683216718555438
 20
15.1745397127215
 30
0.0
 11
6.672212348706114
 21
15.23622472940415
 31
0.0
  0
LINE
  5
A8
330
1F
100
AcDbEntity
  8
background
  6
Continuous2
 62
    25
420
 10053222
370
    -3
100
AcDbLine
 10
6.672212348706114
 20
15.23622472940415
 30
0.0
 11
6.6573564592223
 21
15.29709705469705
 31
0.0
  0
LINE
  5
A9
330
1F
100
AcDbEntity
  8
background
  6
Continuous2
 62
    25
420
 10053222
370
    -3
100
AcDbLine
 10
6.6573564592223
 20
15.29709705469705
 30
0.0
 11
6.638707679512779
 21
15.35691645334219
 31
0.0
  0
LINE
  5
AA
330
1F
100
AcDbEntity
  8
background
  6
Continuous2
 62
    25
420
 10053222
370
    -3
100
AcDbLine
 10
6.638707679512779
 20
15.35691645334219
 30
0.0
 11
6.616339607791247
 21
15.41544684550199
 31
0.0
  0
LINE
  5
AB
330
1F
100
AcDbEntity
  8
background
  6
Continuous2
 62
    25
420
 10053222
370
    -3
100
AcDbLine
 10
6.616339607791247
 20
15.41544684550199
 30
0.0
 11
6.590340520617788
 21
15.4724572384586
 31
0.0
  0
LINE
  5
AC
330
1F
100
AcDbEntity
  8
background
  6
Continuous2
 62
    25
420
 10053222
370
    -3
100
AcDbLine
 10
6.590340520617788
 20
15.4724572384586
 30
0.0
 11
6.560813024511625
 21
15.52772263823658
 31
0.0
  0
LINE
  5
AD
330
1F
100
AcDbEntity
  8
background
  6
Continuous2
 62
    25
420
 10053222
370
    -3
100
AcDbLine
 10
6.560813024511625
 20
15.52772263823658
 30
0.0
 11
6.527873651010057
 21
15.58102493755138
 31
0.0
  0
LINE
  5
AE
330
1F
100
AcDbEntity
  8
background
  6
Continuous2
 62
    25
420
 10053222
370
    -3
100
AcDbLine
 10
6.527873651010057
 20
15.58102493755138
 30
0.0
 11
6.491652396771728
 21
15.63215377657909
 31
0.0
  0
LINE
  5
AF
330
1F
100
AcDbEntity
  8
background
  6
Continuous2
 62
    25
420
 10053222
370
    -3
100
AcDbLine
 10
6.491652396771728
 20
15.63215377657909
 30
0.0
 11
6.452292210539198
 21
15.68090737315064
 31
0.0
  0
LINE
  5
B0
330
1F
100
AcDbEntity
  8
background
  6
Continuous2
 62
    25
420
 10053222
370
    -3
100
AcDbLine
 10
6.452292210539198
 20
15.68090737315064
 30
0.0
 11
6.430272423263023
 21
15.70492517854026
 31
0.0
  0
LINE
  5
B1
330
1F
100
AcDbEntity
  8
background
  6
Continuous2
 62
    25
420
 10053222
370
    -3
100
AcDbLine
 10
5.676882240717696
 20
16.02752240703862
 30
0.0
 11
5.614304415559454
 21
16.02433599253571
 31
0.0
  0
LINE
  5
B2
330
1F
100
AcDbEntity
  8
background
  6
Continuous2
 62
    25
420
 10053222
370
    -3
100
AcDbLine
 10
5.614304415559454
 20
16.02433599253571
 30
0.0
 11
5.552050150066691
 21
16.01722657154125
 31
0.0
  0
LINE
  5
B3
330
1F
100
AcDbEntity
  8
background
  6
Continuous2
 62
    25
420
 10053222
370
    -3
100
AcDbLine
 10
5.552050150066691
 20
16.01722657154125
 30
0.0
 11
5.490365133384038
 21
16.00622220169193
 31
0.0
  0
LINE
  5
B4
330
1F
100
AcDbEntity
  8
background
  6
Continuous2
 62
    25
420
 10053222
370
    -3
100
AcDbLine
 10
5.490365133384038
 20
16.00622220169193
 30
0.0
 11
5.429492808091138
 21
15.99136631220811
 31
0.0
  0
LINE
  5
B5
330
1F
100
AcDbEntity
  8
background
  6
Continuous2
 62
    25
420
 10053222
370
    -3
100
AcDbLine
 10
5.429492808091138
 20
15.99136631220811
 30
0.0
 11
5.369673409446002
 21
15.97271753249859
 31
0.0
  0
LINE
  5
B6
330
1F
100
AcDbEntity
  8
background
  6
Continuous2
 62
    25
420
 10053222
370
    -3
100
AcDbLine
 10
5.369673409446002
 20
15.97271753249859
 30
0.0
 11
5.3111430172862
 21
15.95034946077706
 31
0.0
  0
LINE
  5
B7
330
1F
100
AcDbEntity
  8
background
  6
Continuous2
 62
    25
420
 10053222
370
    -3
100
AcDbLine
 10
5.3111430172862
 20
15.95034946077706
 30
0.0
 11
5.255937945887006
 21
15.92517367458634
 31
0.0
  0
LINE
  5
B8
330
1F
100
AcDbEntity
  8
background
  6
Continuous2
 62
    25
420
 10053222
370
    -3
100
AcDbLine
 10
5.045682489637555
 20
15.78630206352501
 30
0.0
 11
4.99949654369446
 21
15.74395828197138
 31
0.0
  0
LINE
  5
B9
330
1F
100
AcDbEntity
  8
background
  6
Continuous2
 62
    25
420
 10053222
370
    -3
100
AcDbLine
 10
4.99949654369446
 20
15.74395828197138
 30
0.0
 11
4.956060523208096
 21
15.69879801665741
 31
0.0
  0
LINE
  5
BA
330
1F
100
AcDbEntity
  8
background
  6
Continuous2
 62
    25
420
 10053222
370
    -3
100
AcDbLine
 10
4.956060523208096
 20
15.69879801665741
 30
0.0
 11
4.915545850307293
 21
15.65099949451854
 31
0.0
  0
LINE
  5
BB
330
1F
100
AcDbEntity
  8
background
  6
Continuous2
 62
    25
420
 10053222
370
    -3
100
AcDbLine
 10
4.915545850307293
 20
15.65099949451854
 30
0.0
 11
4.878112417896596
 21
15.60075135448456
 31
0.0
  0
LINE
  5
BC
330
1F
100
AcDbEntity
  8
background
  6
Continuous2
 62
    25
420
 10053222
370
    -3
100
AcDbLine
 10
4.878112417896596
 20
15.60075135448456
 30
0.0
 11
4.843907958632022
 21
15.54825190300802
 31
0.0
  0
LINE
  5
BD
330
1F
100
AcDbEntity
  8
background
  6
Continuous2
 62
    25
420
 10053222
370
    -3
100
AcDbLine
 10
4.843907958632022
 20
15.54825190300802
 30
0.0
 11
4.813067461887758
 21
15.49370833143916
 31
0.0
  0
LINE
  5
BE
330
1F
100
AcDbEntity
  8
background
  6
Continuous2
 62
    25
420
 10053222
370
    -3
100
AcDbLine
 10
4.813067461887758
 20
15.49370833143916
 30
0.0
 11
4.785712641014769
 21
15.43733589833639
 31
0.0
  0
LINE
  5
BF
330
1F
100
AcDbEntity
  8
background
  6
Continuous2
 62
    25
420
 10053222
370
    -3
100
AcDbLine
 10
4.785712641014769
 20
15.43733589833639
 30
0.0
 11
4.761951452993815
 21
15.37935707993904
 31
0.0
  0
LINE
  5
C0
330
1F
100
AcDbEntity
  8
background
  6
Continuous2
 62
    25
420
 10053222
370
    -3
100
AcDbLine
 10
4.761951452993815
 20
15.37935707993904
 30
0.0
 11
4.741877672378557
 21
15.32000069215533
 31
0.0
  0
LINE
  5
C1
330
1F
100
AcDbEntity
  8
background
  6
Continuous2
 62
    25
420
 10053222
370
    -3
100
AcDbLine
 10
4.741877672378557
 20
15.32000069215533
 30
0.0
 11
4.725570521210247
 21
15.25950098753048
 31
0.0
  0
LINE
  5
C2
330
1F
100
AcDbEntity
  8
background
  6
Continuous2
 62
    25
420
 10053222
370
    -3
100
AcDbLine
 10
4.725570521210247
 20
15.25950098753048
 30
0.0
 11
4.713094356364518
 21
15.19809673075897
 31
0.0
  0
LINE
  5
C3
330
1F
100
AcDbEntity
  8
background
  6
Continuous2
 62
    25
420
 10053222
370
    -3
100
AcDbLine
 10
4.713094356364518
 20
15.19809673075897
 30
0.0
 11
4.704498415564197
 21
15.13603025638933
 31
0.0
  0
LINE
  5
C4
330
1F
100
AcDbEntity
  8
background
  6
Continuous2
 62
    25
420
 10053222
370
    -3
100
AcDbLine
 10
4.704498415564197
 20
15.13603025638933
 30
0.0
 11
4.70257126263251
 21
15.11031025059257
 31
0.0
  0
LINE
  5
C5
330
1F
100
AcDbEntity
  8
background
  6
Continuous2
 62
    25
420
 10053222
370
    -3
100
AcDbLine
 10
4.77624040201113
 20
14.64515287027201
 30
0.0
 11
4.802239489184588
 21
14.5881424773154
 31
0.0
  0
LINE
  5
C6
330
1F
100
AcDbEntity
  8
background
  6
Continuous2
 62
    25
420
 10053222
370
    -3
100
AcDbLine
 10
4.802239489184588
 20
14.5881424773154
 30
0.0
 11
4.831766985290751
 21
14.53287707753742
 31
0.0
  0
LINE
  5
C7
330
1F
100
AcDbEntity
  8
background
  6
Continuous2
 62
    25
420
 10053222
370
    -3
100
AcDbLine
 10
4.831766985290751
 20
14.53287707753742
 30
0.0
 11
4.864706358792319
 21
14.47957477822263
 31
0.0
  0
LINE
  5
C8
330
1F
100
AcDbEntity
  8
background
  6
Continuous2
 62
    25
420
 10053222
370
    -3
100
AcDbLine
 10
4.864706358792319
 20
14.47957477822263
 30
0.0
 11
4.90092761303065
 21
14.42844593919491
 31
0.0
  0
LINE
  5
C9
330
1F
100
AcDbEntity
  8
background
  6
Continuous2
 62
    25
420
 10053222
370
    -3
100
AcDbLine
 10
4.90092761303065
 20
14.42844593919491
 30
0.0
 11
4.921893468787294
 21
14.40247652768608
 31
0.0
  0
LINE
  5
CA
330
1F
100
AcDbEntity
  8
background
  6
Continuous2
 62
    25
420
 10053222
370
    -3
100
AcDbLine
 10
5.778275594242922
 20
14.03626372323829
 30
0.0
 11
5.840529859735686
 21
14.04337314423275
 31
0.0
  0
LINE
  5
CB
330
1F
100
AcDbEntity
  8
background
  6
Continuous2
 62
    25
420
 10053222
370
    -3
100
AcDbLine
 10
5.840529859735686
 20
14.04337314423275
 30
0.0
 11
5.902214876418339
 21
14.05437751408208
 31
0.0
  0
LINE
  5
CC
330
1F
100
AcDbEntity
  8
background
  6
Continuous2
 62
    25
420
 10053222
370
    -3
100
AcDbLine
 10
5.902214876418339
 20
14.05437751408208
 30
0.0
 11
5.96308720171124
 21
14.06923340356589
 31
0.0
  0
LINE
  5
CD
330
1F
100
AcDbEntity
  8
background
  6
Continuous2
 62
    25
420
 10053222
370
    -3
100
AcDbLine
 10
5.96308720171124
 20
14.06923340356589
 30
0.0
 11
6.022906600356374
 21
14.08788218327541
 31
0.0
  0
LINE
  5
CE
330
1F
100
AcDbEntity
  8
background
  6
Continuous2
 62
    25
420
 10053222
370
    -3
100
AcDbLine
 10
6.022906600356374
 20
14.08788218327541
 30
0.0
 11
6.081436992516177
 21
14.11025025499694
 31
0.0
  0
LINE
  5
CF
330
1F
100
AcDbEntity
  8
background
  6
Continuous2
 62
    25
420
 10053222
370
    -3
100
AcDbLine
 10
6.081436992516177
 20
14.11025025499694
 30
0.0
 11
6.138447385472785
 21
14.1362493421704
 31
0.0
  0
LINE
  5
D0
330
1F
100
AcDbEntity
  8
background
  6
Continuous2
 62
    25
420
 10053222
370
    -3
100
AcDbLine
 10
6.138447385472785
 20
14.1362493421704
 30
0.0
 11
6.193712785250769
 21
14.16577683827657
 31
0.0
  0
LINE
  5
D1
330
1F
100
AcDbEntity
  8
background
  6
Continuous2
 62
    25
420
 10053222
370
    -3
100
AcDbLine
 10
6.193712785250769
 20
14.16577683827657
 30
0.0
 11
6.247015084565565
 21
14.19871621177813
 31
0.0
  0
LINE
  5
D2
330
1F
100
AcDbEntity
  8
background
  6
Continuous2
 62
    25
420
 10053222
370
    -3
100
AcDbLine
 10
6.247015084565565
 20
14.19871621177813
 30
0.0
 11
6.298143923593282
 21
14.23493746601646
 31
0.0
  0
LINE
  5
D3
330
1F
100
AcDbEntity
  8
background
  6
Continuous2
 62
    25
420
 10053222
370
    -3
100
AcDbLine
 10
6.298143923593282
 20
14.23493746601646
 30
0.0
 11
6.346897520164822
 21
14.27429765224899
 31
0.0
  0
LINE
  5
D4
330
1F
100
AcDbEntity
  8
background
  6
Continuous2
 62
    25
420
 10053222
370
    -3
100
AcDbLine
 10
6.346897520164822
 20
14.27429765224899
 30
0.0
 11
6.393083466107917
 21
14.31664143380262
 31
0.0
  0
LINE
  5
D5
330
1F
100
AcDbEntity
  8
background
  6
Continuous2
 62
    25
420
 10053222
370
    -3
100
AcDbLine
 10
6.393083466107917
 20
14.31664143380262
 30
0.0
 11
6.435316603553907
 21
14.36055106619404
 31
0.0
  0
ARC
  5
D6
330
1F
100
AcDbEntity
  8
background
  6
Continuous2
 62
    25
420
 10053222
370
    -3
100
AcDbCircle
 10
8.885402549756687
 20
13.58517267152305
 30
0.0
 40
2.570269042541859
100
AcDbArc
 50
162.4043034659645
 51
162.4389894833001
  0
ARC
  5
D7
330
1F
100
AcDbEntity
  8
background
  6
Continuous2
 62
    25
420
 10053222
370
    -3
100
AcDbCircle
 10
7.677586891777814
 20
19.43954945320283
 30
0.0
 40
3.937499999999997
100
AcDbArc
 50
251.5313712354725
 51
263.1528615456023
  0
ARC
  5
D8
330
1F
100
AcDbEntity
  8
background
  6
Continuous2
 62
    25
420
 10053222
370
    -3
100
AcDbCircle
 10
4.458077478858209
 20
12.20156558941149
 30
0.0
 40
2.25
100
AcDbArc
 50
78.09971810215222
 51
87.04511562405551
  0
LINE
  5
D9
330
1F
100
AcDbEntity
  8
background
  6
Continuous2
 62
    25
420
 10053222
370
    -3
100
AcDbLine
 10
6.686631797134877
 20
14.91410128645939
 30
0.0
 11
6.688081594238179
 21
14.92456945938468
 31
0.0
  0
LINE
  5
DA
330
1F
100
AcDbEntity
  8
background
  6
Continuous2
 62
    25
420
 10053222
370
    -3
100
AcDbLine
 10
5.715329506472743
 20
16.02706268791139
 30
0.0
 11
5.676882240717696
 21
16.02752240703862
 31
0.0
  0
LINE
  5
DB
330
1F
100
AcDbEntity
  8
background
  6
Continuous2
 62
    25
420
 10053222
370
    -3
100
AcDbLine
 10
5.760194449068072
 20
14.03534304529737
 30
0.0
 11
5.778275594242922
 21
14.03626372323829
 31
0.0
  0
ARC
  5
DC
330
1F
100
AcDbEntity
  8
background
  6
Continuous2
 62
    25
420
 10053222
370
    -3
100
AcDbCircle
 10
8.885402549756687
 20
13.58517267152305
 30
0.0
 40
2.570269042541857
100
AcDbArc
 50
162.4389894833001
 51
182.6542423972023
  0
LINE
  5
DD
330
1F
100
AcDbEntity
  8
background
  6
Continuous2
 62
    25
420
 10053222
370
    -3
100
AcDbLine
 10
4.637311224332985
 20
16.44387769878516
 30
0.0
 11
4.647895590216491
 21
16.58482927154189
 31
0.0
  0
LINE
  5
DE
330
1F
100
AcDbEntity
  8
background
  6
Continuous2
 62
    25
420
 10053222
370
    -3
100
AcDbLine
 10
4.647895590216491
 20
16.58482927154189
 30
0.0
 11
4.649608647789826
 21
16.72616730639981
 31
0.0
  0
LINE
  5
DF
330
1F
100
AcDbEntity
  8
background
  6
Continuous2
 62
    25
420
 10053222
370
    -3
100
AcDbLine
 10
4.649608647789826
 20
16.72616730639981
 30
0.0
 11
4.64244363639737
 21
16.86733400670656
 31
0.0
  0
LINE
  5
E0
330
1F
100
AcDbEntity
  8
background
  6
Continuous2
 62
    25
420
 10053222
370
    -3
100
AcDbLine
 10
4.64244363639737
 20
16.86733400670656
 30
0.0
 11
4.633875391483587
 21
16.94247131909943
 31
0.0
  0
LINE
  5
E1
330
1F
100
AcDbEntity
  8
background
  6
Continuous2
 62
    25
420
 10053222
370
    -3
100
AcDbLine
 10
3.800513568078252
 20
18.44375854106658
 30
0.0
 11
3.687175605904565
 21
18.52822084623324
 31
0.0
  0
LINE
  5
E2
330
1F
100
AcDbEntity
  8
background
  6
Continuous2
 62
    25
420
 10053222
370
    -3
100
AcDbLine
 10
3.687175605904565
 20
18.52822084623324
 30
0.0
 11
3.568757858287574
 21
18.60539993480695
 31
0.0
  0
LINE
  5
E3
330
1F
100
AcDbEntity
  8
background
  6
Continuous2
 62
    25
420
 10053222
370
    -3
100
AcDbLine
 10
3.568757858287574
 20
18.60539993480695
 30
0.0
 11
3.445727665977201
 21
18.67499121618489
 31
0.0
  0
LINE
  5
E4
330
1F
100
AcDbEntity
  8
background
  6
Continuous2
 62
    25
420
 10053222
370
    -3
100
AcDbLine
 10
3.445727665977201
 20
18.67499121618489
 30
0.0
 11
3.318570572935348
 21
18.73672004537269
 31
0.0
  0
LINE
  5
E5
330
1F
100
AcDbEntity
  8
background
  6
Continuous2
 62
    25
420
 10053222
370
    -3
100
AcDbLine
 10
3.318570572935348
 20
18.73672004537269
 30
0.0
 11
3.1877884101157
 21
18.79034280688275
 31
0.0
  0
LINE
  5
E6
330
1F
100
AcDbEntity
  8
background
  6
Continuous2
 62
    25
420
 10053222
370
    -3
100
AcDbLine
 10
3.1877884101157
 20
18.79034280688275
 30
0.0
 11
3.053897314966219
 21
18.83564787617332
 31
0.0
  0
LINE
  5
E7
330
1F
100
AcDbEntity
  8
background
  6
Continuous2
 62
    25
420
 10053222
370
    -3
100
AcDbLine
 10
3.053897314966219
 20
18.83564787617332
 30
0.0
 11
2.943718451192563
 21
18.86536487784153
 31
0.0
  0
LINE
  5
E8
330
1F
100
AcDbEntity
  8
background
  6
Continuous2
 62
    25
420
 10053222
370
    -3
100
AcDbLine
 10
1.798529542021136
 20
18.85086329411037
 30
0.0
 11
1.663579719066648
 21
18.80881665395562
 31
0.0
  0
LINE
  5
E9
330
1F
100
AcDbEntity
  8
background
  6
Continuous2
 62
    25
420
 10053222
370
    -3
100
AcDbLine
 10
1.663579719066648
 20
18.80881665395562
 30
0.0
 11
1.531536319141186
 21
18.75837941374688
 31
0.0
  0
LINE
  5
EA
330
1F
100
AcDbEntity
  8
background
  6
Continuous2
 62
    25
420
 10053222
370
    -3
100
AcDbLine
 10
1.531536319141186
 20
18.75837941374688
 30
0.0
 11
1.402920457219363
 21
18.69975062622866
 31
0.0
  0
LINE
  5
EB
330
1F
100
AcDbEntity
  8
background
  6
Continuous2
 62
    25
420
 10053222
370
    -3
100
AcDbLine
 10
1.402920457219363
 20
18.69975062622866
 30
0.0
 11
1.278239721349185
 21
18.63316167244034
 31
0.0
  0
LINE
  5
EC
330
1F
100
AcDbEntity
  8
background
  6
Continuous2
 62
    25
420
 10053222
370
    -3
100
AcDbLine
 10
1.278239721349185
 20
18.63316167244034
 30
0.0
 11
1.157986169433925
 21
18.55887534856095
 31
0.0
  0
LINE
  5
ED
330
1F
100
AcDbEntity
  8
background
  6
Continuous2
 62
    25
420
 10053222
370
    -3
100
AcDbLine
 10
1.157986169433925
 20
18.55887534856095
 30
0.0
 11
1.042634387304367
 21
18.47718482877264
 31
0.0
  0
LINE
  5
EE
330
1F
100
AcDbEntity
  8
background
  6
Continuous2
 62
    25
420
 10053222
370
    -3
100
AcDbLine
 10
1.042634387304367
 20
18.47718482877264
 30
0.0
 11
0.9326396157453636
 21
18.38841250823615
 31
0.0
  0
LINE
  5
EF
330
1F
100
AcDbEntity
  8
background
  6
Continuous2
 62
    25
420
 10053222
370
    -3
100
AcDbLine
 10
0.9326396157453636
 20
18.38841250823615
 30
0.0
 11
0.8284359538684238
 21
18.29290873074443
 31
0.0
  0
LINE
  5
F0
330
1F
100
AcDbEntity
  8
background
  6
Continuous2
 62
    25
420
 10053222
370
    -3
100
AcDbLine
 10
0.8284359538684238
 20
18.29290873074443
 30
0.0
 11
0.7304346459208526
 21
18.19105040607572
 31
0.0
  0
LINE
  5
F1
330
1F
100
AcDbEntity
  8
background
  6
Continuous2
 62
    25
420
 10053222
370
    -3
100
AcDbLine
 10
0.7304346459208526
 20
18.19105040607572
 30
0.0
 11
0.6390224582925801
 21
18.08323952250285
 31
0.0
  0
LINE
  5
F2
330
1F
100
AcDbEntity
  8
background
  6
Continuous2
 62
    25
420
 10053222
370
    -3
100
AcDbLine
 10
0.6390224582925801
 20
18.08323952250285
 30
0.0
 11
0.5545601531259192
 21
17.96990156032916
 31
0.0
  0
LINE
  5
F3
330
1F
100
AcDbEntity
  8
background
  6
Continuous2
 62
    25
420
 10053222
370
    -3
100
AcDbLine
 10
0.5545601531259192
 20
17.96990156032916
 30
0.0
 11
0.4773810645522056
 21
17.85148381271217
 31
0.0
  0
LINE
  5
F4
330
1F
100
AcDbEntity
  8
background
  6
Continuous2
 62
    25
420
 10053222
370
    -3
100
AcDbLine
 10
0.4773810645522056
 20
17.85148381271217
 30
0.0
 11
0.4077897831742692
 21
17.7284536204018
 31
0.0
  0
LINE
  5
F5
330
1F
100
AcDbEntity
  8
background
  6
Continuous2
 62
    25
420
 10053222
370
    -3
100
AcDbLine
 10
0.4077897831742692
 20
17.7284536204018
 30
0.0
 11
0.3460609539864752
 21
17.60129652735995
 31
0.0
  0
LINE
  5
F6
330
1F
100
AcDbEntity
  8
background
  6
Continuous2
 62
    25
420
 10053222
370
    -3
100
AcDbLine
 10
0.3460609539864752
 20
17.60129652735995
 30
0.0
 11
0.2924381924764083
 21
17.4705143645403
 31
0.0
  0
LINE
  5
F7
330
1F
100
AcDbEntity
  8
background
  6
Continuous2
 62
    25
420
 10053222
370
    -3
100
AcDbLine
 10
0.2924381924764083
 20
17.4705143645403
 30
0.0
 11
0.24713312318584
 21
17.33662326939082
 31
0.0
  0
LINE
  5
F8
330
1F
100
AcDbEntity
  8
background
  6
Continuous2
 62
    25
420
 10053222
370
    -3
100
AcDbLine
 10
0.24713312318584
 20
17.33662326939082
 30
0.0
 11
0.210324544525343
 21
17.20015164889504
 31
0.0
  0
LINE
  5
F9
330
1F
100
AcDbEntity
  8
background
  6
Continuous2
 62
    25
420
 10053222
370
    -3
100
AcDbLine
 10
0.210324544525343
 20
17.20015164889504
 30
0.0
 11
0.1821577231386495
 21
17.0616380941911
 31
0.0
  0
LINE
  5
FA
330
1F
100
AcDbEntity
  8
background
  6
Continuous2
 62
    25
420
 10053222
370
    -3
100
AcDbLine
 10
0.1821577231386495
 20
17.0616380941911
 30
0.0
 11
0.1627438206015763
 21
16.9216292549986
 31
0.0
  0
LINE
  5
FB
330
1F
100
AcDbEntity
  8
background
  6
Continuous2
 62
    25
420
 10053222
370
    -3
100
AcDbLine
 10
0.1627438206015763
 20
16.9216292549986
 30
0.0
 11
0.1521594547180696
 21
16.78067768224187
 31
0.0
  0
LINE
  5
FC
330
1F
100
AcDbEntity
  8
background
  6
Continuous2
 62
    25
420
 10053222
370
    -3
100
AcDbLine
 10
0.1521594547180696
 20
16.78067768224187
 30
0.0
 11
0.1504463971447341
 21
16.63933964738395
 31
0.0
  0
LINE
  5
FD
330
1F
100
AcDbEntity
  8
background
  6
Continuous2
 62
    25
420
 10053222
370
    -3
100
AcDbLine
 10
0.1504463971447341
 20
16.63933964738395
 30
0.0
 11
0.15761140853719
 21
16.49817294707719
 31
0.0
  0
LINE
  5
FE
330
1F
100
AcDbEntity
  8
background
  6
Continuous2
 62
    25
420
 10053222
370
    -3
100
AcDbLine
 10
0.15761140853719
 20
16.49817294707719
 30
0.0
 11
0.1736262118688541
 21
16.3577347017948
 31
0.0
  0
LINE
  5
FF
330
1F
100
AcDbEntity
  8
background
  6
Continuous2
 62
    25
420
 10053222
370
    -3
100
AcDbLine
 10
0.1736262118688541
 20
16.3577347017948
 30
0.0
 11
0.1984276040274437
 21
16.21857915713075
 31
0.0
  0
LINE
  5
100
330
1F
100
AcDbEntity
  8
background
  6
Continuous2
 62
    25
420
 10053222
370
    -3
100
AcDbLine
 10
0.1984276040274437
 20
16.21857915713075
 30
0.0
 11
0.2319177052487871
 21
16.08125549644573
 31
0.0
  0
LINE
  5
101
330
1F
100
AcDbEntity
  8
background
  6
Continuous2
 62
    25
420
 10053222
370
    -3
100
AcDbLine
 10
0.2319177052487871
 20
16.08125549644573
 30
0.0
 11
0.2739643454035359
 21
15.94630567349125
 31
0.0
  0
LINE
  5
102
330
1F
100
AcDbEntity
  8
background
  6
Continuous2
 62
    25
420
 10053222
370
    -3
100
AcDbLine
 10
0.2739643454035359
 20
15.94630567349125
 30
0.0
 11
0.3244015856122817
 21
15.81426227356578
 31
0.0
  0
LINE
  5
103
330
1F
100
AcDbEntity
  8
background
  6
Continuous2
 62
    25
420
 10053222
370
    -3
100
AcDbLine
 10
0.3244015856122817
 20
15.81426227356578
 30
0.0
 11
0.383030373130504
 21
15.68564641164396
 31
0.0
  0
LINE
  5
104
330
1F
100
AcDbEntity
  8
background
  6
Continuous2
 62
    25
420
 10053222
370
    -3
100
AcDbLine
 10
0.383030373130504
 20
15.68564641164396
 30
0.0
 11
0.4496193269188131
 21
15.56096567577378
 31
0.0
  0
LINE
  5
105
330
1F
100
AcDbEntity
  8
background
  6
Continuous2
 62
    25
420
 10053222
370
    -3
100
AcDbLine
 10
0.4496193269188131
 20
15.56096567577378
 30
0.0
 11
0.5239056507982061
 21
15.44071212385852
 31
0.0
  0
LINE
  5
106
330
1F
100
AcDbEntity
  8
background
  6
Continuous2
 62
    25
420
 10053222
370
    -3
100
AcDbLine
 10
0.5239056507982061
 20
15.44071212385852
 30
0.0
 11
0.6055961705865247
 21
15.32536034172897
 31
0.0
  0
LINE
  5
107
330
1F
100
AcDbEntity
  8
background
  6
Continuous2
 62
    25
420
 10053222
370
    -3
100
AcDbLine
 10
0.6055961705865247
 20
15.32536034172897
 30
0.0
 11
0.6943684911230115
 21
15.21536557016996
 31
0.0
  0
LINE
  5
108
330
1F
100
AcDbEntity
  8
background
  6
Continuous2
 62
    25
420
 10053222
370
    -3
100
AcDbLine
 10
0.6943684911230115
 20
15.21536557016996
 30
0.0
 11
0.7898722686147264
 21
15.11116190829302
 31
0.0
  0
LINE
  5
109
330
1F
100
AcDbEntity
  8
background
  6
Continuous2
 62
    25
420
 10053222
370
    -3
100
AcDbLine
 10
0.7898722686147264
 20
15.11116190829302
 30
0.0
 11
0.891730593283433
 21
15.01316060034545
 31
0.0
  0
LINE
  5
10A
330
1F
100
AcDbEntity
  8
background
  6
Continuous2
 62
    25
420
 10053222
370
    -3
100
AcDbLine
 10
0.891730593283433
 20
15.01316060034545
 30
0.0
 11
0.9995414768563087
 21
14.92174841271718
 31
0.0
  0
LINE
  5
10B
330
1F
100
AcDbEntity
  8
background
  6
Continuous2
 62
    25
420
 10053222
370
    -3
100
AcDbLine
 10
0.9995414768563087
 20
14.92174841271718
 30
0.0
 11
1.112879439029996
 21
14.83728610755052
 31
0.0
  0
LINE
  5
10C
330
1F
100
AcDbEntity
  8
background
  6
Continuous2
 62
    25
420
 10053222
370
    -3
100
AcDbLine
 10
1.112879439029996
 20
14.83728610755052
 30
0.0
 11
1.231297186646986
 21
14.76010701897681
 31
0.0
  0
LINE
  5
10D
330
1F
100
AcDbEntity
  8
background
  6
Continuous2
 62
    25
420
 10053222
370
    -3
100
AcDbLine
 10
1.231297186646986
 20
14.76010701897681
 30
0.0
 11
1.35432737895736
 21
14.69051573759887
 31
0.0
  0
LINE
  5
10E
330
1F
100
AcDbEntity
  8
background
  6
Continuous2
 62
    25
420
 10053222
370
    -3
100
AcDbLine
 10
1.35432737895736
 20
14.69051573759887
 30
0.0
 11
1.481484471999212
 21
14.62878690841107
 31
0.0
  0
LINE
  5
10F
330
1F
100
AcDbEntity
  8
background
  6
Continuous2
 62
    25
420
 10053222
370
    -3
100
AcDbLine
 10
1.481484471999212
 20
14.62878690841107
 30
0.0
 11
1.612266634818861
 21
14.57516414690101
 31
0.0
  0
LINE
  5
110
330
1F
100
AcDbEntity
  8
background
  6
Continuous2
 62
    25
420
 10053222
370
    -3
100
AcDbLine
 10
1.612266634818861
 20
14.57516414690101
 30
0.0
 11
1.746157729968342
 21
14.52985907761044
 31
0.0
  0
LINE
  5
111
330
1F
100
AcDbEntity
  8
background
  6
Continuous2
 62
    25
420
 10053222
370
    -3
100
AcDbLine
 10
1.746157729968342
 20
14.52985907761044
 30
0.0
 11
1.882629350464121
 21
14.49305049894994
 31
0.0
  0
LINE
  5
112
330
1F
100
AcDbEntity
  8
background
  6
Continuous2
 62
    25
420
 10053222
370
    -3
100
AcDbLine
 10
1.882629350464121
 20
14.49305049894994
 30
0.0
 11
2.021142905168059
 21
14.46488367756325
 31
0.0
  0
LINE
  5
113
330
1F
100
AcDbEntity
  8
background
  6
Continuous2
 62
    25
420
 10053222
370
    -3
100
AcDbLine
 10
2.021142905168059
 20
14.46488367756325
 30
0.0
 11
2.161151744360559
 21
14.44546977502618
 31
0.0
  0
LINE
  5
114
330
1F
100
AcDbEntity
  8
background
  6
Continuous2
 62
    25
420
 10053222
370
    -3
100
AcDbLine
 10
2.161151744360559
 20
14.44546977502618
 30
0.0
 11
2.302103317117286
 21
14.43488540914267
 31
0.0
  0
LINE
  5
115
330
1F
100
AcDbEntity
  8
background
  6
Continuous2
 62
    25
420
 10053222
370
    -3
100
AcDbLine
 10
2.302103317117286
 20
14.43488540914267
 30
0.0
 11
2.443441351975213
 21
14.43317235156933
 31
0.0
  0
LINE
  5
116
330
1F
100
AcDbEntity
  8
background
  6
Continuous2
 62
    25
420
 10053222
370
    -3
100
AcDbLine
 10
2.443441351975213
 20
14.43317235156933
 30
0.0
 11
2.584608052281964
 21
14.44033736296179
 31
0.0
  0
LINE
  5
117
330
1F
100
AcDbEntity
  8
background
  6
Continuous2
 62
    25
420
 10053222
370
    -3
100
AcDbLine
 10
2.584608052281964
 20
14.44033736296179
 30
0.0
 11
2.725046297564362
 21
14.45635216629345
 31
0.0
  0
LINE
  5
118
330
1F
100
AcDbEntity
  8
background
  6
Continuous2
 62
    25
420
 10053222
370
    -3
100
AcDbLine
 10
2.725046297564362
 20
14.45635216629345
 30
0.0
 11
2.864201842228403
 21
14.48115355845204
 31
0.0
  0
LINE
  5
119
330
1F
100
AcDbEntity
  8
background
  6
Continuous2
 62
    25
420
 10053222
370
    -3
100
AcDbLine
 10
2.864201842228403
 20
14.48115355845204
 30
0.0
 11
3.001525502913425
 21
14.51464365967339
 31
0.0
  0
LINE
  5
11A
330
1F
100
AcDbEntity
  8
background
  6
Continuous2
 62
    25
420
 10053222
370
    -3
100
AcDbLine
 10
3.001525502913425
 20
14.51464365967339
 30
0.0
 11
3.136475325867912
 21
14.55669029982813
 31
0.0
  0
LINE
  5
11B
330
1F
100
AcDbEntity
  8
background
  6
Continuous2
 62
    25
420
 10053222
370
    -3
100
AcDbLine
 10
3.136475325867912
 20
14.55669029982813
 30
0.0
 11
3.268518725793375
 21
14.60712754003688
 31
0.0
  0
LINE
  5
11C
330
1F
100
AcDbEntity
  8
background
  6
Continuous2
 62
    25
420
 10053222
370
    -3
100
AcDbLine
 10
3.268518725793375
 20
14.60712754003688
 30
0.0
 11
3.397134587715199
 21
14.6657563275551
 31
0.0
  0
LINE
  5
11D
330
1F
100
AcDbEntity
  8
background
  6
Continuous2
 62
    25
420
 10053222
370
    -3
100
AcDbLine
 10
3.397134587715199
 20
14.6657563275551
 30
0.0
 11
3.521815323585375
 21
14.73234528134341
 31
0.0
  0
LINE
  5
11E
330
1F
100
AcDbEntity
  8
background
  6
Continuous2
 62
    25
420
 10053222
370
    -3
100
AcDbLine
 10
3.521815323585375
 20
14.73234528134341
 30
0.0
 11
3.642068875500637
 21
14.8066316052228
 31
0.0
  0
LINE
  5
11F
330
1F
100
AcDbEntity
  8
background
  6
Continuous2
 62
    25
420
 10053222
370
    -3
100
AcDbLine
 10
3.642068875500637
 20
14.8066316052228
 30
0.0
 11
3.757420657630193
 21
14.88832212501112
 31
0.0
  0
LINE
  5
120
330
1F
100
AcDbEntity
  8
background
  6
Continuous2
 62
    25
420
 10053222
370
    -3
100
AcDbLine
 10
3.757420657630193
 20
14.88832212501112
 30
0.0
 11
3.809496319180548
 21
14.93035028011137
 31
0.0
  0
LINE
  5
121
330
1F
100
AcDbEntity
  8
background
  6
Continuous2
 62
    25
420
 10053222
370
    -3
100
AcDbLine
 10
4.245494891808641
 20
15.39560539345459
 30
0.0
 11
4.322673980382355
 21
15.51402314107159
 31
0.0
  0
LINE
  5
122
330
1F
100
AcDbEntity
  8
background
  6
Continuous2
 62
    25
420
 10053222
370
    -3
100
AcDbLine
 10
4.322673980382355
 20
15.51402314107159
 30
0.0
 11
4.392265261760292
 21
15.63705333338196
 31
0.0
  0
LINE
  5
123
330
1F
100
AcDbEntity
  8
background
  6
Continuous2
 62
    25
420
 10053222
370
    -3
100
AcDbLine
 10
4.392265261760292
 20
15.63705333338196
 30
0.0
 11
4.453994090948085
 21
15.76421042642381
 31
0.0
  0
LINE
  5
124
330
1F
100
AcDbEntity
  8
background
  6
Continuous2
 62
    25
420
 10053222
370
    -3
100
AcDbLine
 10
4.453994090948085
 20
15.76421042642381
 30
0.0
 11
4.507616852458153
 21
15.89499258924346
 31
0.0
  0
LINE
  5
125
330
1F
100
AcDbEntity
  8
background
  6
Continuous2
 62
    25
420
 10053222
370
    -3
100
AcDbLine
 10
4.507616852458153
 20
15.89499258924346
 30
0.0
 11
4.55292192174872
 21
16.02888368439294
 31
0.0
  0
LINE
  5
126
330
1F
100
AcDbEntity
  8
background
  6
Continuous2
 62
    25
420
 10053222
370
    -3
100
AcDbLine
 10
4.55292192174872
 20
16.02888368439294
 30
0.0
 11
4.588146121434362
 21
16.15719618376511
 31
0.0
  0
ARC
  5
127
330
1F
100
AcDbEntity
  8
background
  6
Continuous2
 62
    25
420
 10053222
370
    -3
100
AcDbCircle
 10
7.677586891777814
 20
19.43954945320283
 30
0.0
 40
3.937499999999996
100
AcDbArc
 50
219.3656475259002
 51
227.7051749243833
  0
LINE
  5
128
330
1F
100
AcDbEntity
  8
background
  6
Continuous2
 62
    25
420
 10053222
370
    -3
100
AcDbLine
 10
3.890972949745449
 20
18.36705858559214
 30
0.0
 11
3.800513568078252
 21
18.44375854106658
 31
0.0
  0
LINE
  5
129
330
1F
100
AcDbEntity
  8
background
  6
Continuous2
 62
    25
420
 10053222
370
    -3
100
AcDbLine
 10
5.267752107387414
 20
15.94058193325344
 30
0.0
 11
5.280884304805955
 21
15.96014025681424
 31
0.0
  0
LINE
  5
12A
330
1F
100
AcDbEntity
  8
background
  6
Continuous2
 62
    25
420
 10053222
370
    -3
100
AcDbLine
 10
5.280884304805955
 20
15.96014025681424
 30
0.0
 11
5.292762511535151
 21
15.98048456398964
 31
0.0
  0
LINE
  5
12B
330
1F
100
AcDbEntity
  8
background
  6
Continuous2
 62
    25
420
 10053222
370
    -3
100
AcDbLine
 10
5.292762511535151
 20
15.98048456398964
 30
0.0
 11
5.303339849719677
 21
16.00153456509365
 31
0.0
  0
LINE
  5
12C
330
1F
100
AcDbEntity
  8
background
  6
Continuous2
 62
    25
420
 10053222
370
    -3
100
AcDbLine
 10
5.303339849719677
 20
16.00153456509365
 30
0.0
 11
5.312574575438046
 21
16.02320718538874
 31
0.0
  0
LINE
  5
12D
330
1F
100
AcDbEntity
  8
background
  6
Continuous2
 62
    25
420
 10053222
370
    -3
100
AcDbLine
 10
5.312574575438046
 20
16.02320718538874
 30
0.0
 11
5.320430243446792
 21
16.04541689294388
 31
0.0
  0
LINE
  5
12E
330
1F
100
AcDbEntity
  8
background
  6
Continuous2
 62
    25
420
 10053222
370
    -3
100
AcDbLine
 10
5.320430243446792
 20
16.04541689294388
 30
0.0
 11
5.326875851013199
 21
16.06807603619001
 31
0.0
  0
LINE
  5
12F
330
1F
100
AcDbEntity
  8
background
  6
Continuous2
 62
    25
420
 10053222
370
    -3
100
AcDbLine
 10
5.326875851013199
 20
16.06807603619001
 30
0.0
 11
5.331885960268917
 21
16.09109518984071
 31
0.0
  0
LINE
  5
130
330
1F
100
AcDbEntity
  8
background
  6
Continuous2
 62
    25
420
 10053222
370
    -3
100
AcDbLine
 10
5.331885960268917
 20
16.09109518984071
 30
0.0
 11
5.335440798601619
 21
16.11438350781296
 31
0.0
  0
LINE
  5
131
330
1F
100
AcDbEntity
  8
background
  6
Continuous2
 62
    25
420
 10053222
370
    -3
100
AcDbLine
 10
5.335440798601619
 20
16.11438350781296
 30
0.0
 11
5.337526336688454
 21
16.13784908175517
 31
0.0
  0
LINE
  5
132
330
1F
100
AcDbEntity
  8
background
  6
Continuous2
 62
    25
420
 10053222
370
    -3
100
AcDbLine
 10
5.337526336688454
 20
16.13784908175517
 30
0.0
 11
5.338134343863387
 21
16.16139930376736
 31
0.0
  0
LINE
  5
133
330
1F
100
AcDbEntity
  8
background
  6
Continuous2
 62
    25
420
 10053222
370
    -3
100
AcDbLine
 10
5.338134343863387
 20
16.16139930376736
 30
0.0
 11
5.337262420599869
 21
16.18494123188235
 31
0.0
  0
LINE
  5
134
330
1F
100
AcDbEntity
  8
background
  6
Continuous2
 62
    25
420
 10053222
370
    -3
100
AcDbLine
 10
5.337262420599869
 20
16.18494123188235
 30
0.0
 11
5.334914007980678
 21
16.20838195686514
 31
0.0
  0
LINE
  5
135
330
1F
100
AcDbEntity
  8
background
  6
Continuous2
 62
    25
420
 10053222
370
    -3
100
AcDbLine
 10
5.334914007980678
 20
16.20838195686514
 30
0.0
 11
5.331098374117534
 21
16.23162896888327
 31
0.0
  0
LINE
  5
136
330
1F
100
AcDbEntity
  8
background
  6
Continuous2
 62
    25
420
 10053222
370
    -3
100
AcDbLine
 10
5.331098374117534
 20
16.23162896888327
 30
0.0
 11
5.325830577574098
 21
16.25459052260085
 31
0.0
  0
LINE
  5
137
330
1F
100
AcDbEntity
  8
background
  6
Continuous2
 62
    25
420
 10053222
370
    -3
100
AcDbLine
 10
5.325830577574098
 20
16.25459052260085
 30
0.0
 11
5.319131407936699
 21
16.27717599925551
 31
0.0
  0
LINE
  5
138
330
1F
100
AcDbEntity
  8
background
  6
Continuous2
 62
    25
420
 10053222
370
    -3
100
AcDbLine
 10
5.319131407936699
 20
16.27717599925551
 30
0.0
 11
5.313939592901839
 21
16.2913471305955
 31
0.0
  0
LINE
  5
139
330
1F
100
AcDbEntity
  8
background
  6
Continuous2
 62
    25
420
 10053222
370
    -3
100
AcDbLine
 10
5.031342786574407
 20
16.52804347138628
 30
0.0
 11
5.029110888199273
 21
16.52838415884633
 31
0.0
  0
LINE
  5
13A
330
1F
100
AcDbEntity
  8
background
  6
Continuous2
 62
    25
420
 10053222
370
    -3
100
AcDbLine
 10
5.00805446860215
 20
16.53159830971898
 30
0.0
 11
4.984588894659947
 21
16.53368384780582
 31
0.0
  0
LINE
  5
13B
330
1F
100
AcDbEntity
  8
background
  6
Continuous2
 62
    25
420
 10053222
370
    -3
100
AcDbLine
 10
4.984588894659947
 20
16.53368384780582
 30
0.0
 11
4.961038672647748
 21
16.53429185498075
 31
0.0
  0
LINE
  5
13C
330
1F
100
AcDbEntity
  8
background
  6
Continuous2
 62
    25
420
 10053222
370
    -3
100
AcDbLine
 10
4.961038672647748
 20
16.53429185498075
 30
0.0
 11
4.937496744532762
 21
16.53341993171723
 31
0.0
  0
LINE
  5
13D
330
1F
100
AcDbEntity
  8
background
  6
Continuous2
 62
    25
420
 10053222
370
    -3
100
AcDbLine
 10
4.937496744532762
 20
16.53341993171723
 30
0.0
 11
4.914056019549975
 21
16.53107151909804
 31
0.0
  0
LINE
  5
13E
330
1F
100
AcDbEntity
  8
background
  6
Continuous2
 62
    25
420
 10053222
370
    -3
100
AcDbLine
 10
4.914056019549975
 20
16.53107151909804
 30
0.0
 11
4.890809007531845
 21
16.5272558852349
 31
0.0
  0
LINE
  5
13F
330
1F
100
AcDbEntity
  8
background
  6
Continuous2
 62
    25
420
 10053222
370
    -3
100
AcDbLine
 10
4.890809007531845
 20
16.5272558852349
 30
0.0
 11
4.867847453814259
 21
16.52198808869146
 31
0.0
  0
LINE
  5
140
330
1F
100
AcDbEntity
  8
background
  6
Continuous2
 62
    25
420
 10053222
370
    -3
100
AcDbLine
 10
4.867847453814259
 20
16.52198808869146
 30
0.0
 11
4.845261977159605
 21
16.51528891905406
 31
0.0
  0
LINE
  5
141
330
1F
100
AcDbEntity
  8
background
  6
Continuous2
 62
    25
420
 10053222
370
    -3
100
AcDbLine
 10
4.845261977159605
 20
16.51528891905406
 30
0.0
 11
4.823141712125913
 21
16.5071848148847
 31
0.0
  0
LINE
  5
142
330
1F
100
AcDbEntity
  8
background
  6
Continuous2
 62
    25
420
 10053222
370
    -3
100
AcDbLine
 10
4.823141712125913
 20
16.5071848148847
 30
0.0
 11
4.801573957293486
 21
16.49770775938012
 31
0.0
  0
LINE
  5
143
330
1F
100
AcDbEntity
  8
background
  6
Continuous2
 62
    25
420
 10053222
370
    -3
100
AcDbLine
 10
4.801573957293486
 20
16.49770775938012
 30
0.0
 11
4.780643830737276
 21
16.48689515414874
 31
0.0
  0
LINE
  5
144
330
1F
100
AcDbEntity
  8
background
  6
Continuous2
 62
    25
420
 10053222
370
    -3
100
AcDbLine
 10
4.780643830737276
 20
16.48689515414874
 30
0.0
 11
4.760433934104736
 21
16.4747896716036
 31
0.0
  0
LINE
  5
145
330
1F
100
AcDbEntity
  8
background
  6
Continuous2
 62
    25
420
 10053222
370
    -3
100
AcDbLine
 10
4.760433934104736
 20
16.4747896716036
 30
0.0
 11
4.74102402662485
 21
16.46143908655384
 31
0.0
  0
LINE
  5
146
330
1F
100
AcDbEntity
  8
background
  6
Continuous2
 62
    25
420
 10053222
370
    -3
100
AcDbLine
 10
4.74102402662485
 20
16.46143908655384
 30
0.0
 11
4.7224907103349
 21
16.44689608765934
 31
0.0
  0
LINE
  5
147
330
1F
100
AcDbEntity
  8
background
  6
Continuous2
 62
    25
420
 10053222
370
    -3
100
AcDbLine
 10
4.7224907103349
 20
16.44689608765934
 30
0.0
 11
4.704907127767214
 21
16.43121806949269
 31
0.0
  0
LINE
  5
148
330
1F
100
AcDbEntity
  8
background
  6
Continuous2
 62
    25
420
 10053222
370
    -3
100
AcDbLine
 10
4.704907127767214
 20
16.43121806949269
 30
0.0
 11
4.688342673289013
 21
16.41446690602897
 31
0.0
  0
LINE
  5
149
330
1F
100
AcDbEntity
  8
background
  6
Continuous2
 62
    25
420
 10053222
370
    -3
100
AcDbLine
 10
4.688342673289013
 20
16.41446690602897
 30
0.0
 11
4.672862719234542
 21
16.3967087064575
 31
0.0
  0
LINE
  5
14A
330
1F
100
AcDbEntity
  8
background
  6
Continuous2
 62
    25
420
 10053222
370
    -3
100
AcDbLine
 10
4.672862719234542
 20
16.3967087064575
 30
0.0
 11
4.658528357910335
 21
16.37801355427904
 31
0.0
  0
LINE
  5
14B
330
1F
100
AcDbEntity
  8
background
  6
Continuous2
 62
    25
420
 10053222
370
    -3
100
AcDbLine
 10
4.658528357910335
 20
16.37801355427904
 30
0.0
 11
4.645396160491794
 21
16.35845523071824
 31
0.0
  0
LINE
  5
14C
330
1F
100
AcDbEntity
  8
background
  6
Continuous2
 62
    25
420
 10053222
370
    -3
100
AcDbLine
 10
4.645396160491794
 20
16.35845523071824
 30
0.0
 11
4.633517953762598
 21
16.33811092354284
 31
0.0
  0
LINE
  5
14D
330
1F
100
AcDbEntity
  8
background
  6
Continuous2
 62
    25
420
 10053222
370
    -3
100
AcDbLine
 10
4.633517953762598
 20
16.33811092354284
 30
0.0
 11
4.622940615578071
 21
16.31706092243883
 31
0.0
  0
LINE
  5
14E
330
1F
100
AcDbEntity
  8
background
  6
Continuous2
 62
    25
420
 10053222
370
    -3
100
AcDbLine
 10
4.622940615578071
 20
16.31706092243883
 30
0.0
 11
4.618176083135213
 21
16.30587922569257
 31
0.0
  0
LINE
  5
14F
330
1F
100
AcDbEntity
  8
background
  6
Continuous2
 62
    25
420
 10053222
370
    -3
100
AcDbLine
 10
4.588146121434362
 20
16.15719618376511
 30
0.0
 11
4.58901804469788
 21
16.13365425565013
 31
0.0
  0
LINE
  5
150
330
1F
100
AcDbEntity
  8
background
  6
Continuous2
 62
    25
420
 10053222
370
    -3
100
AcDbLine
 10
4.58901804469788
 20
16.13365425565013
 30
0.0
 11
4.591366457317071
 21
16.11021353066734
 31
0.0
  0
LINE
  5
151
330
1F
100
AcDbEntity
  8
background
  6
Continuous2
 62
    25
420
 10053222
370
    -3
100
AcDbLine
 10
4.591366457317071
 20
16.11021353066734
 30
0.0
 11
4.595182091180215
 21
16.08696651864921
 31
0.0
  0
LINE
  5
152
330
1F
100
AcDbEntity
  8
background
  6
Continuous2
 62
    25
420
 10053222
370
    -3
100
AcDbLine
 10
4.595182091180215
 20
16.08696651864921
 30
0.0
 11
4.600449887723651
 21
16.06400496493162
 31
0.0
  0
LINE
  5
153
330
1F
100
AcDbEntity
  8
background
  6
Continuous2
 62
    25
420
 10053222
370
    -3
100
AcDbLine
 10
4.600449887723651
 20
16.06400496493162
 30
0.0
 11
4.60714905736105
 21
16.04141948827697
 31
0.0
  0
LINE
  5
154
330
1F
100
AcDbEntity
  8
background
  6
Continuous2
 62
    25
420
 10053222
370
    -3
100
AcDbLine
 10
4.60714905736105
 20
16.04141948827697
 30
0.0
 11
4.615253161530412
 21
16.01929922324328
 31
0.0
  0
LINE
  5
155
330
1F
100
AcDbEntity
  8
background
  6
Continuous2
 62
    25
420
 10053222
370
    -3
100
AcDbLine
 10
4.615253161530412
 20
16.01929922324328
 30
0.0
 11
4.624730217034994
 21
15.99773146841085
 31
0.0
  0
LINE
  5
156
330
1F
100
AcDbEntity
  8
background
  6
Continuous2
 62
    25
420
 10053222
370
    -3
100
AcDbLine
 10
4.624730217034994
 20
15.99773146841085
 30
0.0
 11
4.635542822266374
 21
15.97680134185464
 31
0.0
  0
LINE
  5
157
330
1F
100
AcDbEntity
  8
background
  6
Continuous2
 62
    25
420
 10053222
370
    -3
100
AcDbLine
 10
4.635542822266374
 20
15.97680134185464
 30
0.0
 11
4.647648304811513
 21
15.9565914452221
 31
0.0
  0
LINE
  5
158
330
1F
100
AcDbEntity
  8
background
  6
Continuous2
 62
    25
420
 10053222
370
    -3
100
AcDbLine
 10
4.647648304811513
 20
15.9565914452221
 30
0.0
 11
4.660998889861276
 21
15.93718153774221
 31
0.0
  0
LINE
  5
159
330
1F
100
AcDbEntity
  8
background
  6
Continuous2
 62
    25
420
 10053222
370
    -3
100
AcDbLine
 10
4.660998889861276
 20
15.93718153774221
 30
0.0
 11
4.67554188875577
 21
15.91864822145226
 31
0.0
  0
LINE
  5
15A
330
1F
100
AcDbEntity
  8
background
  6
Continuous2
 62
    25
420
 10053222
370
    -3
100
AcDbLine
 10
4.67554188875577
 20
15.91864822145226
 30
0.0
 11
4.691219906922426
 21
15.90106463888458
 31
0.0
  0
LINE
  5
15B
330
1F
100
AcDbEntity
  8
background
  6
Continuous2
 62
    25
420
 10053222
370
    -3
100
AcDbLine
 10
4.691219906922426
 20
15.90106463888458
 30
0.0
 11
4.707971070386145
 21
15.88450018440638
 31
0.0
  0
LINE
  5
15C
330
1F
100
AcDbEntity
  8
background
  6
Continuous2
 62
    25
420
 10053222
370
    -3
100
AcDbLine
 10
4.707971070386145
 20
15.88450018440638
 30
0.0
 11
4.725729269957613
 21
15.86902023035191
 31
0.0
  0
LINE
  5
15D
330
1F
100
AcDbEntity
  8
background
  6
Continuous2
 62
    25
420
 10053222
370
    -3
100
AcDbLine
 10
4.725729269957613
 20
15.86902023035191
 30
0.0
 11
4.744424422136071
 21
15.8546858690277
 31
0.0
  0
LINE
  5
15E
330
1F
100
AcDbEntity
  8
background
  6
Continuous2
 62
    25
420
 10053222
370
    -3
100
AcDbLine
 10
4.744424422136071
 20
15.8546858690277
 30
0.0
 11
4.763982745696874
 21
15.84155367160916
 31
0.0
  0
LINE
  5
15F
330
1F
100
AcDbEntity
  8
background
  6
Continuous2
 62
    25
420
 10053222
370
    -3
100
AcDbLine
 10
4.763982745696874
 20
15.84155367160916
 30
0.0
 11
4.784327052872277
 21
15.82967546487996
 31
0.0
  0
LINE
  5
160
330
1F
100
AcDbEntity
  8
background
  6
Continuous2
 62
    25
420
 10053222
370
    -3
100
AcDbLine
 10
4.784327052872277
 20
15.82967546487996
 30
0.0
 11
4.805377053976286
 21
15.81909812669543
 31
0.0
  0
LINE
  5
161
330
1F
100
AcDbEntity
  8
background
  6
Continuous2
 62
    25
420
 10053222
370
    -3
100
AcDbLine
 10
4.805377053976286
 20
15.81909812669543
 30
0.0
 11
4.827049674271375
 21
15.80986340097707
 31
0.0
  0
LINE
  5
162
330
1F
100
AcDbEntity
  8
background
  6
Continuous2
 62
    25
420
 10053222
370
    -3
100
AcDbLine
 10
4.827049674271375
 20
15.80986340097707
 30
0.0
 11
4.849259381826518
 21
15.80200773296832
 31
0.0
  0
LINE
  5
163
330
1F
100
AcDbEntity
  8
background
  6
Continuous2
 62
    25
420
 10053222
370
    -3
100
AcDbLine
 10
4.849259381826518
 20
15.80200773296832
 30
0.0
 11
4.871918525072646
 21
15.79556212540191
 31
0.0
  0
LINE
  5
164
330
1F
100
AcDbEntity
  8
background
  6
Continuous2
 62
    25
420
 10053222
370
    -3
100
AcDbLine
 10
4.871918525072646
 20
15.79556212540191
 30
0.0
 11
4.894937678723342
 21
15.7905520161462
 31
0.0
  0
LINE
  5
165
330
1F
100
AcDbEntity
  8
background
  6
Continuous2
 62
    25
420
 10053222
370
    -3
100
AcDbLine
 10
4.894937678723342
 20
15.7905520161462
 30
0.0
 11
4.9182259966956
 21
15.78699717781349
 31
0.0
  0
LINE
  5
166
330
1F
100
AcDbEntity
  8
background
  6
Continuous2
 62
    25
420
 10053222
370
    -3
100
AcDbLine
 10
4.9182259966956
 20
15.78699717781349
 30
0.0
 11
4.941691570637802
 21
15.78491163972666
 31
0.0
  0
LINE
  5
167
330
1F
100
AcDbEntity
  8
background
  6
Continuous2
 62
    25
420
 10053222
370
    -3
100
AcDbLine
 10
4.941691570637802
 20
15.78491163972666
 30
0.0
 11
4.965241792650001
 21
15.78430363255173
 31
0.0
  0
LINE
  5
168
330
1F
100
AcDbEntity
  8
background
  6
Continuous2
 62
    25
420
 10053222
370
    -3
100
AcDbLine
 10
5.035471457765904
 20
15.79133960229758
 30
0.0
 11
5.05843301148349
 21
15.79660739884102
 31
0.0
  0
ARC
  5
169
330
1F
100
AcDbEntity
  8
background
  6
Continuous2
 62
    25
420
 10053222
370
    -3
100
AcDbCircle
 10
7.677586891777814
 20
19.43954945320283
 30
0.0
 40
3.937499999999998
100
AcDbArc
 50
233.1010459277743
 51
240.1001203234773
  0
LINE
  5
16A
330
1F
100
AcDbEntity
  8
background
  6
Continuous2
 62
    25
420
 10053222
370
    -3
100
AcDbLine
 10
5.05843301148349
 20
15.79660739884102
 30
0.0
 11
5.045682489637555
 21
15.78630206352501
 31
0.0
  0
LINE
  5
16B
330
1F
100
AcDbEntity
  8
background
  6
Continuous2
 62
    25
420
 10053222
370
    -3
100
AcDbLine
 10
4.618176083135213
 20
16.30587922569257
 30
0.0
 11
4.637311224332985
 21
16.44387769878516
 31
0.0
  0
LINE
  5
16C
330
1F
100
AcDbEntity
  8
background
  6
Continuous2
 62
    25
420
 10053222
370
    -3
100
AcDbLine
 10
5.029110888199273
 20
16.52838415884633
 30
0.0
 11
5.00805446860215
 21
16.53159830971898
 31
0.0
  0
LINE
  5
16D
330
1F
100
AcDbEntity
  8
background
  6
Continuous2
 62
    25
420
 10053222
370
    -3
100
AcDbLine
 10
5.255937945887006
 20
15.92517367458634
 30
0.0
 11
5.267752107387414
 21
15.94058193325344
 31
0.0
  0
ARC
  5
16E
330
1F
100
AcDbEntity
  8
background
  6
Continuous2
 62
    25
420
 10053222
370
    -3
100
AcDbCircle
 10
5.122459525609326
 20
5.526134997250887
 30
0.0
 40
4.937500000000001
100
AcDbArc
 50
359.0571083331101
 51
16.18482390420755
  0
ARC
  5
16F
330
1F
100
AcDbEntity
  8
background
  6
Continuous2
 62
    25
420
 10053222
370
    -3
100
AcDbCircle
 10
11.42592500801455
 20
2.660650707549824
 30
0.0
 40
2.1875
100
AcDbArc
 50
112.2196965361351
 51
135.0757324700353
  0
ARC
  5
170
330
1F
100
AcDbEntity
  8
background
  6
Continuous2
 62
    25
420
 10053222
370
    -3
100
AcDbCircle
 10
10.58382625373532
 20
5.247454542028417
 30
0.0
 40
0.5624999999999996
100
AcDbArc
 50
304.331577399988
 51
51.48515371852613
  0
ARC
  5
171
330
1F
100
AcDbEntity
  8
background
  6
Continuous2
 62
    25
420
 10053222
370
    -3
100
AcDbCircle
 10
10.58382625373532
 20
5.247454542028417
 30
0.0
 40
0.562499999999999
100
AcDbArc
 50
194.6405793318385
 51
271.5277157414824
  0
ARC
  5
172
330
1F
100
AcDbEntity
  8
background
  6
Continuous2
 62
    25
420
 10053222
370
    -3
100
AcDbCircle
 10
10.40717931461889
 20
8.026118121685512
 30
0.0
 40
1.25
100
AcDbArc
 50
305.035153944606
 51
322.0212844669573
  0
ARC
  5
173
330
1F
100
AcDbEntity
  8
background
  6
Continuous2
 62
    25
420
 10053222
370
    -3
100
AcDbCircle
 10
10.58382625373532
 20
5.247454542028417
 30
0.0
 40
0.5624999999999996
100
AcDbArc
 50
91.57191658178746
 51
159.4388347783101
  0
ARC
  5
174
330
1F
100
AcDbEntity
  8
background
  6
Continuous2
 62
    25
420
 10053222
370
    -3
100
AcDbCircle
 10
10.9543712576555
 20
6.35594934189132
 30
0.0
 40
0.6692187734347155
100
AcDbArc
 50
51.18396408352356
 51
75.26898303553894
  0
ARC
  5
175
330
1F
100
AcDbEntity
  8
background
  6
Continuous2
 62
    25
420
 10053222
370
    -3
100
AcDbCircle
 10
10.9543712576555
 20
6.35594934189132
 30
0.0
 40
0.6692187734347156
100
AcDbArc
 50
141.0048611767524
 51
234.7673065843528
  0
ARC
  5
176
330
1F
100
AcDbEntity
  8
background
  6
Continuous2
 62
    25
420
 10053222
370
    -3
100
AcDbCircle
 10
10.9543712576555
 20
6.35594934189132
 30
0.0
 40
0.669218773434715
100
AcDbArc
 50
268.2494445231721
 51
324.183623845275
  0
ARC
  5
177
330
1F
100
AcDbEntity
  8
background
  6
Continuous2
 62
    25
420
 10053222
370
    -3
100
AcDbCircle
 10
7.677586891777814
 20
19.43954945320283
 30
0.0
 40
3.937499999999997
100
AcDbArc
 50
37.42001190941985
 51
64.74791392175987
  0
ARC
  5
178
330
1F
100
AcDbEntity
  8
background
  6
Continuous2
 62
    25
420
 10053222
370
    -3
100
AcDbCircle
 10
12.04774763590389
 20
21.9436585626345
 30
0.0
 40
1.250000000000001
100
AcDbArc
 50
347.6751812506303
 51
57.70950898898663
  0
ARC
  5
179
330
1F
100
AcDbEntity
  8
background
  6
Continuous2
 62
    25
420
 10053222
370
    -3
100
AcDbCircle
 10
12.04774763590389
 20
21.9436585626345
 30
0.0
 40
1.25
100
AcDbArc
 50
234.4888427340326
 51
282.0161427387189
  0
LINE
  5
17A
330
1F
100
AcDbEntity
  8
background
  6
Continuous2
 62
    25
420
 10053222
370
    -3
100
AcDbLine
 10
1.891919122306547
 20
18.87363887758357
 30
0.0
 11
1.798529542021136
 21
18.85086329411037
 31
0.0
  0
ARC
  5
17B
330
1F
100
AcDbEntity
  8
background
  6
Continuous2
 62
    25
420
 10053222
370
    -3
100
AcDbCircle
 10
2.430190020625913
 20
20.36048216967283
 30
0.0
 40
1.581467183921951
100
AcDbArc
 50
14.02840897949338
 51
36.7937464895496
  0
ARC
  5
17C
330
1F
100
AcDbEntity
  8
background
  6
Continuous2
 62
    25
420
 10053222
370
    -3
100
AcDbCircle
 10
2.430190020625913
 20
20.36048216967283
 30
0.0
 40
1.581467183921951
100
AcDbArc
 50
288.9560760550751
 51
325.9324905492434
  0
ARC
  5
17D
330
1F
100
AcDbEntity
  8
background
  6
Continuous2
 62
    25
420
 10053222
370
    -3
100
AcDbCircle
 10
3.900242040939649
 20
21.9708717383239
 30
0.0
 40
0.6948569363066223
100
AcDbArc
 50
252.8651955640277
 51
299.6651955640277
  0
ARC
  5
17E
330
1F
100
AcDbEntity
  8
background
  6
Continuous2
 62
    25
420
 10053222
370
    -3
100
AcDbCircle
 10
3.900242040939649
 20
21.9708717383239
 30
0.0
 40
0.6948569363066224
100
AcDbArc
 50
352.3230624789434
 51
136.4886512619471
  0
ARC
  5
17F
330
1F
100
AcDbEntity
  8
background
  6
Continuous2
 62
    25
420
 10053222
370
    -3
100
AcDbCircle
 10
1.245210286856767
 20
22.31163728731757
 30
0.0
 40
0.8578482737138539
100
AcDbArc
 50
329.6459633011256
 51
53.392215807305
  0
ARC
  5
180
330
1F
100
AcDbEntity
  8
background
  6
Continuous2
 62
    25
420
 10053222
370
    -3
100
AcDbCircle
 10
2.430190020625913
 20
20.36048216967283
 30
0.0
 40
1.58146718392195
100
AcDbArc
 50
136.1681115890005
 51
250.0985983365757
  0
ARC
  5
181
330
1F
100
AcDbEntity
  8
background
  6
Continuous2
 62
    25
420
 10053222
370
    -3
100
AcDbCircle
 10
2.430190020625913
 20
20.36048216967283
 30
0.0
 40
1.58146718392195
100
AcDbArc
 50
89.60453289887114
 51
106.3324905492433
  0
ARC
  5
182
330
1F
100
AcDbEntity
  8
background
  6
Continuous2
 62
    25
420
 10053222
370
    -3
100
AcDbCircle
 10
3.900242040939649
 20
21.9708717383239
 30
0.0
 40
0.6948569363066222
100
AcDbArc
 50
175.6802063032104
 51
202.259361701111
  0
ARC
  5
183
330
1F
100
AcDbEntity
  8
background
  6
Continuous2
 62
    25
420
 10053222
370
    -3
100
AcDbCircle
 10
2.772101188283347
 20
22.47098993090887
 30
0.0
 40
0.6250000000000004
100
AcDbArc
 50
357.9896588902499
 51
57.86831035265232
  0
ARC
  5
184
330
1F
100
AcDbEntity
  8
background
  6
Continuous2
 62
    25
420
 10053222
370
    -3
100
AcDbCircle
 10
2.772101188283347
 20
22.47098993090887
 30
0.0
 40
0.6250000000000004
100
AcDbArc
 50
283.6040837097947
 51
314.2081382587056
  0
CIRCLE
  5
185
330
1F
100
AcDbEntity
  8
background
  6
Continuous2
 62
    25
420
 10053222
370
    -3
100
AcDbCircle
 10
17.41162102714551
 20
16.55679948316841
 30
0.0
 40
5.875000000000001
  0
LINE
  5
186
330
1F
100
AcDbEntity
  8
background
  6
Continuous2
 62
    25
420
 10053222
370
    -3
100
AcDbLine
 10
24.0
 20
23.0
 30
0.0
 11
24.0
 21
24.0
 31
0.0
  0
LINE
  5
187
330
1F
100
AcDbEntity
  8
background
  6
Continuous2
 62
    25
420
 10053222
370
    -3
100
AcDbLine
 10
24.0
 20
23.0
 30
0.0
 11
18.77357301215009
 21
23.0
 31
0.0
  0
ARC
  5
188
330
1F
100
AcDbEntity
  8
background
  6
Continuous2
 62
    25
420
 10053222
370
    -3
100
AcDbCircle
 10
7.677586891777814
 20
19.43954945320283
 30
0.0
 40
3.937499999999997
100
AcDbArc
 50
115.2473302639811
 51
141.7117764256374
  0
ARC
  5
189
330
1F
100
AcDbEntity
  8
background
  6
Continuous2
 62
    25
420
 10053222
370
    -3
100
AcDbCircle
 10
12.04774763590389
 20
21.9436585626345
 30
0.0
 40
1.250000000000001
100
AcDbArc
 50
122.2847178501496
 51
185.1720682979474
  0
ARC
  5
18A
330
1F
100
AcDbEntity
  8
background
  6
Continuous2
 62
    25
420
 10053222
370
    -3
100
AcDbCircle
 10
1.245210286856767
 20
22.31163728731757
 30
0.0
 40
0.8578482737138536
100
AcDbArc
 50
126.600698908905
 51
272.982015301081
  0
ARC
  5
18B
330
1F
100
AcDbEntity
  8
background
  6
Continuous2
 62
    25
420
 10053222
370
    -3
100
AcDbCircle
 10
2.772101188283347
 20
22.47098993090887
 30
0.0
 40
0.6250000000000002
100
AcDbArc
 50
122.1387825223467
 51
238.0038804542034
  0
LINE
  5
18C
330
1F
100
AcDbEntity
  8
background
  6
Continuous2
 62
    25
420
 10053222
370
    -3
100
AcDbLine
 10
2.439754602753456
 20
23.0
 30
0.0
 11
1.756578670703333
 21
23.0
 31
0.0
  0
LINE
  5
18D
330
1F
100
AcDbEntity
  8
background
  6
Continuous2
 62
    25
420
 10053222
370
    -3
100
AcDbLine
 10
5.998572196860032
 20
23.0
 30
0.0
 11
3.104356445153217
 21
23.0
 31
0.0
  0
LINE
  5
18E
330
1F
100
AcDbEntity
  8
background
  6
Continuous2
 62
    25
420
 10053222
370
    -3
100
AcDbLine
 10
11.38035058511572
 20
23.0
 30
0.0
 11
9.35696285599471
 21
23.0
 31
0.0
  0
LINE
  5
18F
330
1F
100
AcDbEntity
  8
background
  6
Continuous2
 62
    25
420
 10053222
370
    -3
100
AcDbLine
 10
16.04966904214093
 20
23.0
 30
0.0
 11
12.71529362076254
 21
23.0
 31
0.0
  0
LINE
  5
190
330
1F
100
AcDbEntity
  8
background
  6
Continuous2
 62
    25
420
 10053222
370
    -3
100
AcDbLine
 10
0.7339739918359376
 20
23.0
 30
0.0
 11
0.0
 21
23.0
 31
0.0
  0
ARC
  5
191
330
1F
100
AcDbEntity
  8
background
  6
Continuous2
 62
    25
420
 10053222
370
    -3
100
AcDbCircle
 10
2.430190020625913
 20
20.36048216967283
 30
0.0
 40
1.581467183921949
100
AcDbArc
 50
58.45437419115959
 51
71.98392433747534
  0
ARC
  5
192
330
1F
100
AcDbEntity
  8
background
  6
Continuous2
 62
    25
420
 10053222
370
    -3
100
AcDbCircle
 10
17.41162102714551
 20
16.55679948316841
 30
0.0
 40
6.588378972854485
100
AcDbArc
 50
205.2
 51
220.331493143033
  0
ARC
  5
193
330
1F
100
AcDbEntity
  8
background
  6
Continuous2
 62
    25
420
 10053222
370
    -3
100
AcDbCircle
 10
17.41162102714551
 20
16.55679948316841
 30
0.0
 40
6.588378972854485
100
AcDbArc
 50
101.9353866761016
 51
128.9796909253159
  0
ARC
  5
194
330
1F
100
AcDbEntity
  8
background
  6
Continuous2
 62
    25
420
 10053222
370
    -3
100
AcDbCircle
 10
17.41162102714551
 20
16.55679948316841
 30
0.0
 40
6.588378972854489
100
AcDbArc
 50
140.7865477161661
 51
151.7833688847647
  0
ARC
  5
195
330
1F
100
AcDbEntity
  8
background
  6
Continuous2
 62
    25
420
 10053222
370
    -3
100
AcDbCircle
 10
17.41162102714551
 20
16.55679948316841
 30
0.0
 40
6.588378972854485
100
AcDbArc
 50
175.2108090324153
 51
193.3206843223633
  0
ARC
  5
196
330
1F
100
AcDbEntity
  8
background
  6
Continuous2
 62
    25
420
 10053222
370
    -3
100
AcDbCircle
 10
17.41162102714551
 20
16.55679948316841
 30
0.0
 40
6.588378972854485
100
AcDbArc
 50
230.4223047072348
 51
246.4374376112794
  0
ARC
  5
197
330
1F
100
AcDbEntity
  8
background
  6
Continuous2
 62
    25
420
 10053222
370
    -3
100
AcDbCircle
 10
17.41162102714551
 20
16.55679948316841
 30
0.0
 40
6.588378972854485
100
AcDbArc
 50
265.5193771381519
 51
281.814698760519
  0
ARC
  5
198
330
1F
100
AcDbEntity
  8
background
  6
Continuous2
 62
    25
420
 10053222
370
    -3
100
AcDbCircle
 10
17.41162102714551
 20
16.55679948316841
 30
0.0
 40
6.588378972854485
100
AcDbArc
 50
305.1501469954243
 51
78.0646133238983
  0
LINE
  5
199
330
1F
100
AcDbEntity
  8
background
  6
Continuous2
 62
    25
420
 10053222
370
    -3
100
AcDbLine
 10
0.0
 20
1.0
 30
0.0
 11
0.0
 21
0.0
 31
0.0
  0
LINE
  5
19A
330
1F
100
AcDbEntity
  8
background
  6
Continuous2
 62
    25
420
 10053222
370
    -3
100
AcDbLine
 10
0.0
 20
1.0
 30
0.0
 11
3.155478635039711
 21
1.0
 31
0.0
  0
ARC
  5
19B
330
1F
100
AcDbEntity
  8
background
  6
Continuous2
 62
    25
420
 10053222
370
    -3
100
AcDbCircle
 10
22.16192744694475
 20
1.912950360355529
 30
0.0
 40
1.3125
100
AcDbArc
 50
315.9059975734575
 51
106.9838309522237
  0
ARC
  5
19C
330
1F
100
AcDbEntity
  8
background
  6
Continuous2
 62
    25
420
 10053222
370
    -3
100
AcDbCircle
 10
17.71069332068634
 20
1.688264150512222
 30
0.0
 40
1.065221802672241
100
AcDbArc
 50
319.7325071284775
 51
30.8609087980605
  0
ARC
  5
19D
330
1F
100
AcDbEntity
  8
background
  6
Continuous2
 62
    25
420
 10053222
370
    -3
100
AcDbCircle
 10
5.122459525609326
 20
5.526134997250887
 30
0.0
 40
4.937500000000004
100
AcDbArc
 50
293.4889418479208
 51
326.6360479948849
  0
ARC
  5
19E
330
1F
100
AcDbEntity
  8
background
  6
Continuous2
 62
    25
420
 10053222
370
    -3
100
AcDbCircle
 10
11.42592500801455
 20
2.660650707549824
 30
0.0
 40
2.1875
100
AcDbArc
 50
310.6061455662643
 51
334.5607625356574
  0
LINE
  5
19F
330
1F
100
AcDbEntity
  8
background
  6
Continuous2
 62
    25
420
 10053222
370
    -3
100
AcDbLine
 10
7.089440416178941
 20
1.0
 30
0.0
 11
10.00371516930563
 21
1.0
 31
0.0
  0
LINE
  5
1A0
330
1F
100
AcDbEntity
  8
background
  6
Continuous2
 62
    25
420
 10053222
370
    -3
100
AcDbLine
 10
18.52320061161949
 20
1.0
 30
0.0
 11
21.21963840727827
 21
1.0
 31
0.0
  0
LINE
  5
1A1
330
1F
100
AcDbEntity
  8
background
  6
Continuous2
 62
    25
420
 10053222
370
    -3
100
AcDbLine
 10
23.10421648661123
 20
1.0
 30
0.0
 11
24.0
 21
1.0
 31
0.0
  0
LINE
  5
1A2
330
1F
100
AcDbEntity
  8
background
  6
Continuous2
 62
    25
420
 10053222
370
    -3
100
AcDbLine
 10
12.84958381280939
 20
1.0
 30
0.0
 11
13.64362484584533
 21
1.0
 31
0.0
  0
ARC
  5
1A3
330
1F
100
AcDbEntity
  8
background
  6
Continuous2
 62
    25
420
 10053222
370
    -3
100
AcDbCircle
 10
4.458077478858209
 20
12.20156558941149
 30
0.0
 40
2.25
100
AcDbArc
 50
261.5310689130149
 51
289.9109787144046
  0
ARC
  5
1A4
330
1F
100
AcDbEntity
  8
background
  6
Continuous2
 62
    25
420
 10053222
370
    -3
100
AcDbCircle
 10
5.122459525609326
 20
5.526134997250887
 30
0.0
 40
4.562499999999998
100
AcDbArc
 50
102.6102168308228
 51
88.72109195740343
  0
CIRCLE
  5
1A5
330
1F
100
AcDbEntity
  8
background
  6
Continuous2
 62
    25
420
 10053222
370
    -3
100
AcDbCircle
 10
11.42592500801455
 20
2.660650707549824
 30
0.0
 40
1.601406089816002
  0
CIRCLE
  5
1A6
330
1F
100
AcDbEntity
  8
background
  6
Continuous2
 62
    25
420
 10053222
370
    -3
100
AcDbCircle
 10
15.20105886385645
 20
1.926596902247232
 30
0.0
 40
0.8750000000000018
  0
CIRCLE
  5
1A7
330
1F
100
AcDbEntity
  8
background
  6
Continuous2
 62
    25
420
 10053222
370
    -3
100
AcDbCircle
 10
17.71069332068634
 20
1.688264150512222
 30
0.0
 40
0.7931323579497783
  0
CIRCLE
  5
1A8
330
1F
100
AcDbEntity
  8
background
  6
Continuous2
 62
    25
420
 10053222
370
    -3
100
AcDbCircle
 10
19.82053352275285
 20
3.991534762444264
 30
0.0
 40
1.437499999999999
  0
CIRCLE
  5
1A9
330
1F
100
AcDbEntity
  8
background
  6
Continuous2
 62
    25
420
 10053222
370
    -3
100
AcDbCircle
 10
22.16192744694475
 20
1.912950360355529
 30
0.0
 40
1.062500000000001
  0
CIRCLE
  5
1AA
330
1F
100
AcDbEntity
  8
background
  6
Continuous2
 62
    25
420
 10053222
370
    -3
100
AcDbCircle
 10
20.94344693537549
 20
8.435404863461565
 30
0.0
 40
2.437499999999998
  0
CIRCLE
  5
1AB
330
1F
100
AcDbEntity
  8
background
  6
Continuous2
 62
    25
420
 10053222
370
    -3
100
AcDbCircle
 10
14.99826581265304
 20
6.903495246741492
 30
0.0
 40
2.651999999999999
  0
CIRCLE
  5
1AC
330
1F
100
AcDbEntity
  8
background
  6
Continuous2
 62
    25
420
 10053222
370
    -3
100
AcDbCircle
 10
10.58382625373532
 20
5.247454542028417
 30
0.0
 40
0.4700000000000006
  0
CIRCLE
  5
1AD
330
1F
100
AcDbEntity
  8
background
  6
Continuous2
 62
    25
420
 10053222
370
    -3
100
AcDbCircle
 10
10.9543712576555
 20
6.35594934189132
 30
0.0
 40
0.519198773605217
  0
CIRCLE
  5
1AE
330
1F
100
AcDbEntity
  8
background
  6
Continuous2
 62
    25
420
 10053222
370
    -3
100
AcDbCircle
 10
10.40717931461889
 20
8.026118121685512
 30
0.0
 40
0.8659999999999994
  0
CIRCLE
  5
1AF
330
1F
100
AcDbEntity
  8
background
  6
Continuous2
 62
    25
420
 10053222
370
    -3
100
AcDbCircle
 10
11.6411603107802
 20
10.7129744417239
 30
0.0
 40
1.375631898265263
  0
CIRCLE
  5
1B0
330
1F
100
AcDbEntity
  8
background
  6
Continuous2
 62
    25
420
 10053222
370
    -3
100
AcDbCircle
 10
8.885402549756687
 20
13.58517267152305
 30
0.0
 40
1.954365839653579
  0
CIRCLE
  5
1B1
330
1F
100
AcDbEntity
  8
background
  6
Continuous2
 62
    25
420
 10053222
370
    -3
100
AcDbCircle
 10
4.458077478858209
 20
12.20156558941149
 30
0.0
 40
1.937000000000001
  0
CIRCLE
  5
1B2
330
1F
100
AcDbEntity
  8
background
  6
Continuous2
 62
    25
420
 10053222
370
    -3
100
AcDbCircle
 10
7.677586891777814
 20
19.43954945320283
 30
0.0
 40
3.444000000000001
  0
CIRCLE
  5
1B3
330
1F
100
AcDbEntity
  8
background
  6
Continuous2
 62
    25
420
 10053222
370
    -3
100
AcDbCircle
 10
2.430190020625913
 20
20.36048216967283
 30
0.0
 40
0.8569999999999995
  0
LINE
  5
1B4
330
1F
100
AcDbEntity
  8
background
  6
Continuous2
 62
    25
420
 10053222
370
    -3
100
AcDbLine
 10
4.371954486411198
 20
21.57887192786393
 30
0.0
 11
4.395637541406693
 21
21.60926451946564
 31
0.0
  0
LINE
  5
1B5
330
1F
100
AcDbEntity
  8
background
  6
Continuous2
 62
    25
420
 10053222
370
    -3
100
AcDbLine
 10
4.395637541406693
 20
21.60926451946564
 30
0.0
 11
4.41736549668652
 21
21.64108420955755
 31
0.0
  0
LINE
  5
1B6
330
1F
100
AcDbEntity
  8
background
  6
Continuous2
 62
    25
420
 10053222
370
    -3
100
AcDbLine
 10
4.41736549668652
 20
21.64108420955755
 30
0.0
 11
4.431378098197658
 21
21.66465874337638
 31
0.0
  0
LINE
  5
1B7
330
1F
100
AcDbEntity
  8
background
  6
Continuous2
 62
    25
420
 10053222
370
    -3
100
AcDbLine
 10
4.437052601937748
 20
21.67420542035992
 30
0.0
 11
4.454621161150134
 21
21.70849743758534
 31
0.0
  0
LINE
  5
1B8
330
1F
100
AcDbEntity
  8
background
  6
Continuous2
 62
    25
420
 10053222
370
    -3
100
AcDbLine
 10
4.454621161150134
 20
21.70849743758534
 30
0.0
 11
4.470001839246778
 21
21.74382492630836
 31
0.0
  0
LINE
  5
1B9
330
1F
100
AcDbEntity
  8
background
  6
Continuous2
 62
    25
420
 10053222
370
    -3
100
AcDbLine
 10
4.470001839246778
 20
21.74382492630836
 30
0.0
 11
4.483133935717995
 21
21.78004846507058
 31
0.0
  0
LINE
  5
1BA
330
1F
100
AcDbEntity
  8
background
  6
Continuous2
 62
    25
420
 10053222
370
    -3
100
AcDbLine
 10
4.483133935717995
 20
21.78004846507058
 30
0.0
 11
4.493965624178498
 21
21.81702509611348
 31
0.0
  0
LINE
  5
1BB
330
1F
100
AcDbEntity
  8
background
  6
Continuous2
 62
    25
420
 10053222
370
    -3
100
AcDbLine
 10
4.493965624178498
 20
21.81702509611348
 30
0.0
 11
4.502454156902462
 21
21.85460888956733
 31
0.0
  0
LINE
  5
1BC
330
1F
100
AcDbEntity
  8
background
  6
Continuous2
 62
    25
420
 10053222
370
    -3
100
AcDbLine
 10
4.502454156902462
 20
21.85460888956733
 30
0.0
 11
4.508566033529265
 21
21.89265151936978
 31
0.0
  0
LINE
  5
1BD
330
1F
100
AcDbEntity
  8
background
  6
Continuous2
 62
    25
420
 10053222
370
    -3
100
AcDbLine
 10
4.508566033529265
 20
21.89265151936978
 30
0.0
 11
4.512277133274114
 21
21.93100284864102
 31
0.0
  0
LINE
  5
1BE
330
1F
100
AcDbEntity
  8
background
  6
Continuous2
 62
    25
420
 10053222
370
    -3
100
AcDbLine
 10
4.512277133274114
 20
21.93100284864102
 30
0.0
 11
4.513572810121755
 21
21.96951152220548
 31
0.0
  0
LINE
  5
1BF
330
1F
100
AcDbEntity
  8
background
  6
Continuous2
 62
    25
420
 10053222
370
    -3
100
AcDbLine
 10
4.513572810121755
 20
21.96951152220548
 30
0.0
 11
4.512447950627609
 21
22.00802556392154
 31
0.0
  0
LINE
  5
1C0
330
1F
100
AcDbEntity
  8
background
  6
Continuous2
 62
    25
420
 10053222
370
    -3
100
AcDbLine
 10
4.512447950627609
 20
22.00802556392154
 30
0.0
 11
4.508906994098201
 21
22.04639297646193
 31
0.0
  0
LINE
  5
1C1
330
1F
100
AcDbEntity
  8
background
  6
Continuous2
 62
    25
420
 10053222
370
    -3
100
AcDbLine
 10
4.508906994098201
 20
22.04639297646193
 30
0.0
 11
4.502963915071242
 21
22.08446234117776
 31
0.0
  0
LINE
  5
1C2
330
1F
100
AcDbEntity
  8
background
  6
Continuous2
 62
    25
420
 10053222
370
    -3
100
AcDbLine
 10
4.502963915071242
 20
22.08446234117776
 30
0.0
 11
4.494642168164518
 21
22.12208341567874
 31
0.0
  0
LINE
  5
1C3
330
1F
100
AcDbEntity
  8
background
  6
Continuous2
 62
    25
420
 10053222
370
    -3
100
AcDbLine
 10
4.494642168164518
 20
22.12208341567874
 30
0.0
 11
4.483974595511224
 21
22.15910772677124
 31
0.0
  0
LINE
  5
1C4
330
1F
100
AcDbEntity
  8
background
  6
Continuous2
 62
    25
420
 10053222
370
    -3
100
AcDbLine
 10
4.483974595511224
 20
22.15910772677124
 30
0.0
 11
4.471003297147075
 21
22.19538915641418
 31
0.0
  0
LINE
  5
1C5
330
1F
100
AcDbEntity
  8
background
  6
Continuous2
 62
    25
420
 10053222
370
    -3
100
AcDbLine
 10
4.471003297147075
 20
22.19538915641418
 30
0.0
 11
4.455779464860687
 21
22.23078451838018
 31
0.0
  0
LINE
  5
1C6
330
1F
100
AcDbEntity
  8
background
  6
Continuous2
 62
    25
420
 10053222
370
    -3
100
AcDbLine
 10
4.455779464860687
 20
22.23078451838018
 30
0.0
 11
4.438363180162991
 21
22.26515412334614
 31
0.0
  0
LINE
  5
1C7
330
1F
100
AcDbEntity
  8
background
  6
Continuous2
 62
    25
420
 10053222
370
    -3
100
AcDbLine
 10
4.438363180162991
 20
22.26515412334614
 30
0.0
 11
4.418823177172944
 21
22.29836233018325
 31
0.0
  0
LINE
  5
1C8
330
1F
100
AcDbEntity
  8
background
  6
Continuous2
 62
    25
420
 10053222
370
    -3
100
AcDbLine
 10
4.418823177172944
 20
22.29836233018325
 30
0.0
 11
4.39723657135537
 21
22.33027808127052
 31
0.0
  0
LINE
  5
1C9
330
1F
100
AcDbEntity
  8
background
  6
Continuous2
 62
    25
420
 10053222
370
    -3
100
AcDbLine
 10
4.39723657135537
 20
22.33027808127052
 30
0.0
 11
4.373688555181447
 21
22.36077541971931
 31
0.0
  0
LINE
  5
1CA
330
1F
100
AcDbEntity
  8
background
  6
Continuous2
 62
    25
420
 10053222
370
    -3
100
AcDbLine
 10
4.373688555181447
 20
22.36077541971931
 30
0.0
 11
4.34827206191295
 21
22.38973398646769
 31
0.0
  0
LINE
  5
1CB
330
1F
100
AcDbEntity
  8
background
  6
Continuous2
 62
    25
420
 10053222
370
    -3
100
AcDbLine
 10
4.34827206191295
 20
22.38973398646769
 30
0.0
 11
4.321087398837118
 21
22.4170394952826
 31
0.0
  0
LINE
  5
1CC
330
1F
100
AcDbEntity
  8
background
  6
Continuous2
 62
    25
420
 10053222
370
    -3
100
AcDbLine
 10
4.321087398837118
 20
22.4170394952826
 30
0.0
 11
4.29224185139962
 21
22.44258418379545
 31
0.0
  0
LINE
  5
1CD
330
1F
100
AcDbEntity
  8
background
  6
Continuous2
 62
    25
420
 10053222
370
    -3
100
AcDbLine
 10
4.29224185139962
 20
22.44258418379545
 30
0.0
 11
4.261849259797915
 21
22.46626723879095
 31
0.0
  0
LINE
  5
1CE
330
1F
100
AcDbEntity
  8
background
  6
Continuous2
 62
    25
420
 10053222
370
    -3
100
AcDbLine
 10
4.261849259797915
 20
22.46626723879095
 30
0.0
 11
4.230029569706001
 21
22.48799519407077
 31
0.0
  0
LINE
  5
1CF
330
1F
100
AcDbEntity
  8
background
  6
Continuous2
 62
    25
420
 10053222
370
    -3
100
AcDbLine
 10
4.230029569706001
 20
22.48799519407077
 30
0.0
 11
4.196908358903635
 21
22.507682299322
 31
0.0
  0
LINE
  5
1D0
330
1F
100
AcDbEntity
  8
background
  6
Continuous2
 62
    25
420
 10053222
370
    -3
100
AcDbLine
 10
4.196908358903635
 20
22.507682299322
 30
0.0
 11
4.162616341678215
 21
22.52525085853439
 31
0.0
  0
LINE
  5
1D1
330
1F
100
AcDbEntity
  8
background
  6
Continuous2
 62
    25
420
 10053222
370
    -3
100
AcDbLine
 10
4.162616341678215
 20
22.52525085853439
 30
0.0
 11
4.127288852955195
 21
22.54063153663103
 31
0.0
  0
LINE
  5
1D2
330
1F
100
AcDbEntity
  8
background
  6
Continuous2
 62
    25
420
 10053222
370
    -3
100
AcDbLine
 10
4.127288852955195
 20
22.54063153663103
 30
0.0
 11
4.091065314192972
 21
22.55376363310225
 31
0.0
  0
LINE
  5
1D3
330
1F
100
AcDbEntity
  8
background
  6
Continuous2
 62
    25
420
 10053222
370
    -3
100
AcDbLine
 10
4.091065314192972
 20
22.55376363310225
 30
0.0
 11
4.054088683150079
 21
22.56459532156275
 31
0.0
  0
LINE
  5
1D4
330
1F
100
AcDbEntity
  8
background
  6
Continuous2
 62
    25
420
 10053222
370
    -3
100
AcDbLine
 10
4.054088683150079
 20
22.56459532156275
 30
0.0
 11
4.016504889696226
 21
22.57308385428671
 31
0.0
  0
LINE
  5
1D5
330
1F
100
AcDbEntity
  8
background
  6
Continuous2
 62
    25
420
 10053222
370
    -3
100
AcDbLine
 10
4.016504889696226
 20
22.57308385428671
 30
0.0
 11
3.978462259893774
 21
22.57919573091352
 31
0.0
  0
LINE
  5
1D6
330
1F
100
AcDbEntity
  8
background
  6
Continuous2
 62
    25
420
 10053222
370
    -3
100
AcDbLine
 10
3.978462259893774
 20
22.57919573091352
 30
0.0
 11
3.94011093062253
 21
22.58290683065837
 31
0.0
  0
LINE
  5
1D7
330
1F
100
AcDbEntity
  8
background
  6
Continuous2
 62
    25
420
 10053222
370
    -3
100
AcDbLine
 10
3.94011093062253
 20
22.58290683065837
 30
0.0
 11
3.90160225705807
 21
22.58420250750601
 31
0.0
  0
LINE
  5
1D8
330
1F
100
AcDbEntity
  8
background
  6
Continuous2
 62
    25
420
 10053222
370
    -3
100
AcDbLine
 10
3.90160225705807
 20
22.58420250750601
 30
0.0
 11
3.863088215342014
 21
22.58307764801187
 31
0.0
  0
LINE
  5
1D9
330
1F
100
AcDbEntity
  8
background
  6
Continuous2
 62
    25
420
 10053222
370
    -3
100
AcDbLine
 10
3.863088215342014
 20
22.58307764801187
 30
0.0
 11
3.824720802801624
 21
22.57953669148246
 31
0.0
  0
LINE
  5
1DA
330
1F
100
AcDbEntity
  8
background
  6
Continuous2
 62
    25
420
 10053222
370
    -3
100
AcDbLine
 10
3.824720802801624
 20
22.57953669148246
 30
0.0
 11
3.786651438085793
 21
22.5735936124555
 31
0.0
  0
LINE
  5
1DB
330
1F
100
AcDbEntity
  8
background
  6
Continuous2
 62
    25
420
 10053222
370
    -3
100
AcDbLine
 10
3.786651438085793
 20
22.5735936124555
 30
0.0
 11
3.749030363584816
 21
22.56527186554877
 31
0.0
  0
LINE
  5
1DC
330
1F
100
AcDbEntity
  8
background
  6
Continuous2
 62
    25
420
 10053222
370
    -3
100
AcDbLine
 10
3.749030363584816
 20
22.56527186554877
 30
0.0
 11
3.712006052492314
 21
22.55460429289548
 31
0.0
  0
LINE
  5
1DD
330
1F
100
AcDbEntity
  8
background
  6
Continuous2
 62
    25
420
 10053222
370
    -3
100
AcDbLine
 10
3.712006052492314
 20
22.55460429289548
 30
0.0
 11
3.675724622849371
 21
22.54163299453133
 31
0.0
  0
LINE
  5
1DE
330
1F
100
AcDbEntity
  8
background
  6
Continuous2
 62
    25
420
 10053222
370
    -3
100
AcDbLine
 10
3.675724622849371
 20
22.54163299453133
 30
0.0
 11
3.640329260883378
 21
22.52640916224494
 31
0.0
  0
LINE
  5
1DF
330
1F
100
AcDbEntity
  8
background
  6
Continuous2
 62
    25
420
 10053222
370
    -3
100
AcDbLine
 10
3.640329260883378
 20
22.52640916224494
 30
0.0
 11
3.605959655917414
 21
22.50899287754725
 31
0.0
  0
LINE
  5
1E0
330
1F
100
AcDbEntity
  8
background
  6
Continuous2
 62
    25
420
 10053222
370
    -3
100
AcDbLine
 10
3.605959655917414
 20
22.50899287754725
 30
0.0
 11
3.572751449080299
 21
22.4894528745572
 31
0.0
  0
LINE
  5
1E1
330
1F
100
AcDbEntity
  8
background
  6
Continuous2
 62
    25
420
 10053222
370
    -3
100
AcDbLine
 10
3.572751449080299
 20
22.4894528745572
 30
0.0
 11
3.540835697993034
 21
22.46786626873962
 31
0.0
  0
LINE
  5
1E2
330
1F
100
AcDbEntity
  8
background
  6
Continuous2
 62
    25
420
 10053222
370
    -3
100
AcDbLine
 10
3.540835697993034
 20
22.46786626873962
 30
0.0
 11
3.510338359544239
 21
22.4443182525657
 31
0.0
  0
LINE
  5
1E3
330
1F
100
AcDbEntity
  8
background
  6
Continuous2
 62
    25
420
 10053222
370
    -3
100
AcDbLine
 10
3.510338359544239
 20
22.4443182525657
 30
0.0
 11
3.481379792795864
 21
22.41890175929721
 31
0.0
  0
LINE
  5
1E4
330
1F
100
AcDbEntity
  8
background
  6
Continuous2
 62
    25
420
 10053222
370
    -3
100
AcDbLine
 10
3.481379792795864
 20
22.41890175929721
 30
0.0
 11
3.454074283980953
 21
22.39171709622137
 31
0.0
  0
LINE
  5
1E5
330
1F
100
AcDbEntity
  8
background
  6
Continuous2
 62
    25
420
 10053222
370
    -3
100
AcDbLine
 10
3.454074283980953
 20
22.39171709622137
 30
0.0
 11
3.4285295954681
 21
22.36287154878388
 31
0.0
  0
LINE
  5
1E6
330
1F
100
AcDbEntity
  8
background
  6
Continuous2
 62
    25
420
 10053222
370
    -3
100
AcDbLine
 10
3.4285295954681
 20
22.36287154878388
 30
0.0
 11
3.404846540472605
 21
22.33247895718217
 31
0.0
  0
LINE
  5
1E7
330
1F
100
AcDbEntity
  8
background
  6
Continuous2
 62
    25
420
 10053222
370
    -3
100
AcDbLine
 10
3.404846540472605
 20
22.33247895718217
 30
0.0
 11
3.383118585192778
 21
22.30065926709026
 31
0.0
  0
LINE
  5
1E8
330
1F
100
AcDbEntity
  8
background
  6
Continuous2
 62
    25
420
 10053222
370
    -3
100
AcDbLine
 10
3.383118585192778
 20
22.30065926709026
 30
0.0
 11
3.36343147994155
 21
22.26753805628789
 31
0.0
  0
LINE
  5
1E9
330
1F
100
AcDbEntity
  8
background
  6
Continuous2
 62
    25
420
 10053222
370
    -3
100
AcDbLine
 10
3.36343147994155
 20
22.26753805628789
 30
0.0
 11
3.345862920729164
 21
22.23324603906247
 31
0.0
  0
LINE
  5
1EA
330
1F
100
AcDbEntity
  8
background
  6
Continuous2
 62
    25
420
 10053222
370
    -3
100
AcDbLine
 10
3.345862920729164
 20
22.23324603906247
 30
0.0
 11
3.33048224263252
 21
22.19791855033945
 31
0.0
  0
LINE
  5
1EB
330
1F
100
AcDbEntity
  8
background
  6
Continuous2
 62
    25
420
 10053222
370
    -3
100
AcDbLine
 10
3.33048224263252
 20
22.19791855033945
 30
0.0
 11
3.317350146161303
 21
22.16169501157723
 31
0.0
  0
LINE
  5
1EC
330
1F
100
AcDbEntity
  8
background
  6
Continuous2
 62
    25
420
 10053222
370
    -3
100
AcDbLine
 10
3.317350146161303
 20
22.16169501157723
 30
0.0
 11
3.3065184577008
 21
22.12471838053433
 31
0.0
  0
LINE
  5
1ED
330
1F
100
AcDbEntity
  8
background
  6
Continuous2
 62
    25
420
 10053222
370
    -3
100
AcDbLine
 10
3.3065184577008
 20
22.12471838053433
 30
0.0
 11
3.298029924976837
 21
22.08713458708048
 31
0.0
  0
LINE
  5
1EE
330
1F
100
AcDbEntity
  8
background
  6
Continuous2
 62
    25
420
 10053222
370
    -3
100
AcDbLine
 10
3.298029924976837
 20
22.08713458708048
 30
0.0
 11
3.291918048350033
 21
22.04909195727803
 31
0.0
  0
LINE
  5
1EF
330
1F
100
AcDbEntity
  8
background
  6
Continuous2
 62
    25
420
 10053222
370
    -3
100
AcDbLine
 10
3.291918048350033
 20
22.04909195727803
 30
0.0
 11
3.288206948605184
 21
22.01074062800679
 31
0.0
  0
LINE
  5
1F0
330
1F
100
AcDbEntity
  8
background
  6
Continuous2
 62
    25
420
 10053222
370
    -3
100
AcDbLine
 10
3.288206948605184
 20
22.01074062800679
 30
0.0
 11
3.286911271757543
 21
21.97223195444233
 31
0.0
  0
LINE
  5
1F1
330
1F
100
AcDbEntity
  8
background
  6
Continuous2
 62
    25
420
 10053222
370
    -3
100
AcDbLine
 10
3.286911271757543
 20
21.97223195444233
 30
0.0
 11
3.288036131251689
 21
21.93371791272627
 31
0.0
  0
LINE
  5
1F2
330
1F
100
AcDbEntity
  8
background
  6
Continuous2
 62
    25
420
 10053222
370
    -3
100
AcDbLine
 10
3.288036131251689
 20
21.93371791272627
 30
0.0
 11
3.291577087781097
 21
21.89535050018588
 31
0.0
  0
LINE
  5
1F3
330
1F
100
AcDbEntity
  8
background
  6
Continuous2
 62
    25
420
 10053222
370
    -3
100
AcDbLine
 10
3.291577087781097
 20
21.89535050018588
 30
0.0
 11
3.297520166808056
 21
21.85728113547005
 31
0.0
  0
LINE
  5
1F4
330
1F
100
AcDbEntity
  8
background
  6
Continuous2
 62
    25
420
 10053222
370
    -3
100
AcDbLine
 10
3.297520166808056
 20
21.85728113547005
 30
0.0
 11
3.30584191371478
 21
21.81966006096907
 31
0.0
  0
LINE
  5
1F5
330
1F
100
AcDbEntity
  8
background
  6
Continuous2
 62
    25
420
 10053222
370
    -3
100
AcDbLine
 10
3.30584191371478
 20
21.81966006096907
 30
0.0
 11
3.316509486368074
 21
21.78263574987657
 31
0.0
  0
LINE
  5
1F6
330
1F
100
AcDbEntity
  8
background
  6
Continuous2
 62
    25
420
 10053222
370
    -3
100
AcDbLine
 10
3.316509486368074
 20
21.78263574987657
 30
0.0
 11
3.329480784732224
 21
21.74635432023362
 31
0.0
  0
LINE
  5
1F7
330
1F
100
AcDbEntity
  8
background
  6
Continuous2
 62
    25
420
 10053222
370
    -3
100
AcDbLine
 10
3.329480784732224
 20
21.74635432023362
 30
0.0
 11
3.344704617018611
 21
21.71095895826763
 31
0.0
  0
LINE
  5
1F8
330
1F
100
AcDbEntity
  8
background
  6
Continuous2
 62
    25
420
 10053222
370
    -3
100
AcDbLine
 10
3.344704617018611
 20
21.71095895826763
 30
0.0
 11
3.362120901716307
 21
21.67658935330167
 31
0.0
  0
LINE
  5
1F9
330
1F
100
AcDbEntity
  8
background
  6
Continuous2
 62
    25
420
 10053222
370
    -3
100
AcDbLine
 10
3.362120901716307
 20
21.67658935330167
 30
0.0
 11
3.381660904706353
 21
21.64338114646456
 31
0.0
  0
LINE
  5
1FA
330
1F
100
AcDbEntity
  8
background
  6
Continuous2
 62
    25
420
 10053222
370
    -3
100
AcDbLine
 10
3.381660904706353
 20
21.64338114646456
 30
0.0
 11
3.403247510523928
 21
21.61146539537729
 31
0.0
  0
LINE
  5
1FB
330
1F
100
AcDbEntity
  8
background
  6
Continuous2
 62
    25
420
 10053222
370
    -3
100
AcDbLine
 10
3.403247510523928
 20
21.61146539537729
 30
0.0
 11
3.426795526697851
 21
21.58096805692849
 31
0.0
  0
LINE
  5
1FC
330
1F
100
AcDbEntity
  8
background
  6
Continuous2
 62
    25
420
 10053222
370
    -3
100
AcDbLine
 10
3.426795526697851
 20
21.58096805692849
 30
0.0
 11
3.452212019966348
 21
21.55200949018012
 31
0.0
  0
LINE
  5
1FD
330
1F
100
AcDbEntity
  8
background
  6
Continuous2
 62
    25
420
 10053222
370
    -3
100
AcDbLine
 10
3.452212019966348
 20
21.55200949018012
 30
0.0
 11
3.47939668304218
 21
21.52470398136521
 31
0.0
  0
LINE
  5
1FE
330
1F
100
AcDbEntity
  8
background
  6
Continuous2
 62
    25
420
 10053222
370
    -3
100
AcDbLine
 10
3.47939668304218
 20
21.52470398136521
 30
0.0
 11
3.508242230479678
 21
21.49915929285235
 31
0.0
  0
LINE
  5
1FF
330
1F
100
AcDbEntity
  8
background
  6
Continuous2
 62
    25
420
 10053222
370
    -3
100
AcDbLine
 10
3.508242230479678
 20
21.49915929285235
 30
0.0
 11
3.538634822081383
 21
21.47547623785686
 31
0.0
  0
LINE
  5
200
330
1F
100
AcDbEntity
  8
background
  6
Continuous2
 62
    25
420
 10053222
370
    -3
100
AcDbLine
 10
3.538634822081383
 20
21.47547623785686
 30
0.0
 11
3.570454512173297
 21
21.45374828257703
 31
0.0
  0
LINE
  5
201
330
1F
100
AcDbEntity
  8
background
  6
Continuous2
 62
    25
420
 10053222
370
    -3
100
AcDbLine
 10
3.570454512173297
 20
21.45374828257703
 30
0.0
 11
3.603575722975663
 21
21.43406117732581
 31
0.0
  0
LINE
  5
202
330
1F
100
AcDbEntity
  8
background
  6
Continuous2
 62
    25
420
 10053222
370
    -3
100
AcDbLine
 10
3.603575722975663
 20
21.43406117732581
 30
0.0
 11
3.637867740201083
 21
21.41649261811342
 31
0.0
  0
LINE
  5
203
330
1F
100
AcDbEntity
  8
background
  6
Continuous2
 62
    25
420
 10053222
370
    -3
100
AcDbLine
 10
3.637867740201083
 20
21.41649261811342
 30
0.0
 11
3.673195228924103
 21
21.40111194001678
 31
0.0
  0
LINE
  5
204
330
1F
100
AcDbEntity
  8
background
  6
Continuous2
 62
    25
420
 10053222
370
    -3
100
AcDbLine
 10
3.673195228924103
 20
21.40111194001678
 30
0.0
 11
3.709418767686326
 21
21.38797984354556
 31
0.0
  0
LINE
  5
205
330
1F
100
AcDbEntity
  8
background
  6
Continuous2
 62
    25
420
 10053222
370
    -3
100
AcDbLine
 10
3.709418767686326
 20
21.38797984354556
 30
0.0
 11
3.746395398729219
 21
21.37714815508506
 31
0.0
  0
LINE
  5
206
330
1F
100
AcDbEntity
  8
background
  6
Continuous2
 62
    25
420
 10053222
370
    -3
100
AcDbLine
 10
3.746395398729219
 20
21.37714815508506
 30
0.0
 11
3.783979192183072
 21
21.36865962236109
 31
0.0
  0
LINE
  5
207
330
1F
100
AcDbEntity
  8
background
  6
Continuous2
 62
    25
420
 10053222
370
    -3
100
AcDbLine
 10
3.783979192183072
 20
21.36865962236109
 30
0.0
 11
3.822021821985524
 21
21.36254774573429
 31
0.0
  0
LINE
  5
208
330
1F
100
AcDbEntity
  8
background
  6
Continuous2
 62
    25
420
 10053222
370
    -3
100
AcDbLine
 10
3.822021821985524
 20
21.36254774573429
 30
0.0
 11
3.860373151256768
 21
21.35883664598944
 31
0.0
  0
LINE
  5
209
330
1F
100
AcDbEntity
  8
background
  6
Continuous2
 62
    25
420
 10053222
370
    -3
100
AcDbLine
 10
3.860373151256768
 20
21.35883664598944
 30
0.0
 11
3.898881824821228
 21
21.3575409691418
 31
0.0
  0
LINE
  5
20A
330
1F
100
AcDbEntity
  8
background
  6
Continuous2
 62
    25
420
 10053222
370
    -3
100
AcDbLine
 10
3.898881824821228
 20
21.3575409691418
 30
0.0
 11
3.937395866537283
 21
21.35866582863594
 31
0.0
  0
LINE
  5
20B
330
1F
100
AcDbEntity
  8
background
  6
Continuous2
 62
    25
420
 10053222
370
    -3
100
AcDbLine
 10
3.937395866537283
 20
21.35866582863594
 30
0.0
 11
3.975763279077674
 21
21.36220678516535
 31
0.0
  0
LINE
  5
20C
330
1F
100
AcDbEntity
  8
background
  6
Continuous2
 62
    25
420
 10053222
370
    -3
100
AcDbLine
 10
3.975763279077674
 20
21.36220678516535
 30
0.0
 11
4.013832643793505
 21
21.36814986419231
 31
0.0
  0
LINE
  5
20D
330
1F
100
AcDbEntity
  8
background
  6
Continuous2
 62
    25
420
 10053222
370
    -3
100
AcDbLine
 10
4.013832643793505
 20
21.36814986419231
 30
0.0
 11
4.051453718294482
 21
21.37647161109903
 31
0.0
  0
LINE
  5
20E
330
1F
100
AcDbEntity
  8
background
  6
Continuous2
 62
    25
420
 10053222
370
    -3
100
AcDbLine
 10
4.051453718294482
 20
21.37647161109903
 30
0.0
 11
4.088478029386984
 21
21.38713918375233
 31
0.0
  0
LINE
  5
20F
330
1F
100
AcDbEntity
  8
background
  6
Continuous2
 62
    25
420
 10053222
370
    -3
100
AcDbLine
 10
4.088478029386984
 20
21.38713918375233
 30
0.0
 11
4.124759459029927
 21
21.40011048211648
 31
0.0
  0
LINE
  5
210
330
1F
100
AcDbEntity
  8
background
  6
Continuous2
 62
    25
420
 10053222
370
    -3
100
AcDbLine
 10
4.124759459029927
 20
21.40011048211648
 30
0.0
 11
4.16015482099592
 21
21.41533431440287
 31
0.0
  0
LINE
  5
211
330
1F
100
AcDbEntity
  8
background
  6
Continuous2
 62
    25
420
 10053222
370
    -3
100
AcDbLine
 10
4.16015482099592
 20
21.41533431440287
 30
0.0
 11
4.194524425961884
 21
21.43275059910056
 31
0.0
  0
LINE
  5
212
330
1F
100
AcDbEntity
  8
background
  6
Continuous2
 62
    25
420
 10053222
370
    -3
100
AcDbLine
 10
4.194524425961884
 20
21.43275059910056
 30
0.0
 11
4.227732632798999
 21
21.45229060209061
 31
0.0
  0
LINE
  5
213
330
1F
100
AcDbEntity
  8
background
  6
Continuous2
 62
    25
420
 10053222
370
    -3
100
AcDbLine
 10
4.227732632798999
 20
21.45229060209061
 30
0.0
 11
4.259648383886264
 21
21.47387720790818
 31
0.0
  0
LINE
  5
214
330
1F
100
AcDbEntity
  8
background
  6
Continuous2
 62
    25
420
 10053222
370
    -3
100
AcDbLine
 10
4.259648383886264
 20
21.47387720790818
 30
0.0
 11
4.290145722335059
 21
21.49742522408211
 31
0.0
  0
LINE
  5
215
330
1F
100
AcDbEntity
  8
background
  6
Continuous2
 62
    25
420
 10053222
370
    -3
100
AcDbLine
 10
4.290145722335059
 20
21.49742522408211
 30
0.0
 11
4.319104289083435
 21
21.5228417173506
 31
0.0
  0
LINE
  5
216
330
1F
100
AcDbEntity
  8
background
  6
Continuous2
 62
    25
420
 10053222
370
    -3
100
AcDbLine
 10
4.319104289083435
 20
21.5228417173506
 30
0.0
 11
4.346409797898344
 21
21.55002638042643
 31
0.0
  0
LINE
  5
217
330
1F
100
AcDbEntity
  8
background
  6
Continuous2
 62
    25
420
 10053222
370
    -3
100
AcDbLine
 10
4.346409797898344
 20
21.55002638042643
 30
0.0
 11
4.371954486411198
 21
21.57887192786393
 31
0.0
  0
ARC
  5
218
330
1F
100
AcDbEntity
  8
background
  6
Continuous2
 62
    25
420
 10053222
370
    -3
100
AcDbCircle
 10
7.677586891777814
 20
19.43954945320283
 30
0.0
 40
3.937499999999997
100
AcDbArc
 50
145.4100510750597
 51
145.571365886907
  0
ARC
  5
219
330
1F
100
AcDbEntity
  8
background
  6
Continuous2
 62
    25
420
 10053222
370
    -3
100
AcDbCircle
 10
7.677586891777814
 20
19.43954945320283
 30
0.0
 40
3.937499999999997
100
AcDbArc
 50
145.571365886907
 51
147.0900675259798
  0
CIRCLE
  5
21A
330
1F
100
AcDbEntity
  8
background
  6
Continuous2
 62
    25
420
 10053222
370
    -3
100
AcDbCircle
 10
2.772101188283347
 20
22.47098993090887
 30
0.0
 40
0.4709999999999994
  0
CIRCLE
  5
21B
330
1F
100
AcDbEntity
  8
background
  6
Continuous2
 62
    25
420
 10053222
370
    -3
100
AcDbCircle
 10
1.245210286856767
 20
22.31163728731757
 30
0.0
 40
0.5569999999999992
  0
CIRCLE
  5
21C
330
1F
100
AcDbEntity
  8
background
  6
Continuous2
 62
    25
420
 10053222
370
    -3
100
AcDbCircle
 10
2.415866779366056
 20
16.70339768626134
 30
0.0
 40
1.754
  0
CIRCLE
  5
21D
330
1F
100
AcDbEntity
  8
background
  6
Continuous2
 62
    25
420
 10053222
370
    -3
100
AcDbCircle
 10
12.04774763590389
 20
21.9436585626345
 30
0.0
 40
0.6690000000000005
  0
ARC
  5
21E
330
1F
100
AcDbEntity
  8
background
  6
Continuous2
 62
    25
420
 10053222
370
    -3
100
AcDbCircle
 10
4.458077478858209
 20
12.20156558941149
 30
0.0
 40
2.25
100
AcDbArc
 50
100.1793813567326
 51
244.1006731395397
  0
LINE
  5
21F
330
1F
100
AcDbEntity
  8
background
  6
Continuous2
 62
    25
420
 10053222
370
    -3
100
AcDbLine
 10
4.756546792662002
 20
14.69668501361438
 30
0.0
 11
4.77624040201113
 21
14.64515287027201
 31
0.0
  0
LINE
  5
220
330
1F
100
AcDbEntity
  8
background
  6
Continuous2
 62
    25
420
 10053222
370
    -3
100
AcDbLine
 10
4.193043523287762
 20
15.32522214722839
 30
0.0
 11
4.245494891808641
 21
15.39560539345459
 31
0.0
  0
ARC
  5
221
330
1F
100
AcDbEntity
  8
background
  6
Continuous2
 62
    25
420
 10053222
370
    -3
100
AcDbCircle
 10
4.291042811482753
 20
14.84630072115098
 30
0.0
 40
0.4890124625869556
100
AcDbArc
 50
32.68155545241637
 51
101.5645043275289
  0
ARC
  5
222
330
1F
100
AcDbEntity
  8
background
  6
Continuous2
 62
    25
420
 10053222
370
    -3
100
AcDbCircle
 10
4.291042811482753
 20
14.84630072115098
 30
0.0
 40
0.4890124625869555
100
AcDbArc
 50
170.0992792437777
 51
241.8770366901649
  0
ARC
  5
223
330
1F
100
AcDbEntity
  8
background
  6
Continuous2
 62
    25
420
 10053222
370
    -3
100
AcDbCircle
 10
4.291042811482753
 20
14.84630072115098
 30
0.0
 40
0.4890124625869555
100
AcDbArc
 50
305.3675764158964
 51
342.1822904945941
  0
CIRCLE
  5
224
330
1F
100
AcDbEntity
  8
background
  6
Continuous2
 62
    25
420
 10053222
370
    -3
100
AcDbCircle
 10
4.291042811482753
 20
14.84630072115098
 30
0.0
 40
0.3601743894883924
  0
CIRCLE
  5
225
330
1F
100
AcDbEntity
  8
background
  6
Continuous2
 62
    25
420
 10053222
370
    -3
100
AcDbCircle
 10
4.966247298862669
 20
16.15096336711758
 30
0.0
 40
0.222
  0
CIRCLE
  5
226
330
1F
100
AcDbEntity
  8
background
  6
Continuous2
 62
    25
420
 10053222
370
    -3
100
AcDbCircle
 10
5.694380393893081
 20
15.01931795737538
 30
0.0
 40
0.5470000000000005
  0
CIRCLE
  5
227
330
1F
100
AcDbEntity
  8
background
  6
Continuous2
 62
    25
420
 10053222
370
    -3
100
AcDbCircle
 10
8.885402549756687
 20
10.08296980827213
 30
0.0
 40
0.557
  0
LINE
  5
228
330
1F
100
AcDbEntity
  8
background
  6
Continuous2
 62
    25
420
 10053222
370
    -3
100
AcDbLine
 10
5.012224445747774
 20
15.78752396843444
 30
0.0
 11
5.035471457765904
 21
15.79133960229758
 31
0.0
  0
LINE
  5
229
330
1F
100
AcDbEntity
  8
background
  6
Continuous2
 62
    25
420
 10053222
370
    -3
100
AcDbLine
 10
4.965241792650001
 20
15.78430363255173
 30
0.0
 11
4.988783720764987
 21
15.78517555581524
 31
0.0
  0
LINE
  5
22A
330
1F
100
AcDbEntity
  8
background
  6
Continuous2
 62
    25
420
 10053222
370
    -3
100
AcDbLine
 10
4.988783720764987
 20
15.78517555581524
 30
0.0
 11
5.012224445747774
 21
15.78752396843444
 31
0.0
  0
LINE
  5
22B
330
1F
100
AcDbEntity
  8
background
  6
Continuous2
 62
    25
420
 10053222
370
    -3
100
AcDbLine
 10
11.20395930180475
 20
8.989259675155248
 30
0.0
 11
11.14362064427625
 21
9.036063135524346
 31
0.0
  0
ARC
  5
22C
330
1F
100
AcDbEntity
  8
background
  6
Continuous2
 62
    25
420
 10053222
370
    -3
100
AcDbCircle
 10
11.6411603107802
 20
10.7129744417239
 30
0.0
 40
1.749999999999999
100
AcDbArc
 50
253.4082964210089
 51
253.4743746409151
  0
LINE
  5
22D
330
1F
100
AcDbEntity
  8
background
  6
Continuous2
 62
    25
420
 10053222
370
    -3
100
AcDbLine
 10
9.60652866209177
 20
8.983694721764442
 30
0.0
 11
9.598546357017087
 21
8.978809876061824
 31
0.0
  0
LINE
  5
22E
330
1F
100
AcDbEntity
  8
background
  6
Continuous2
 62
    25
420
 10053222
370
    -3
100
AcDbLine
 10
9.598546357017087
 20
8.978809876061824
 30
0.0
 11
9.610399327433027
 21
8.989259675155248
 31
0.0
  0
LINE
  5
22F
330
1F
100
AcDbEntity
  8
background
  6
Continuous2
 62
    25
420
 10053222
370
    -3
100
AcDbLine
 10
9.674129738222117
 20
9.03114377328183
 30
0.0
 11
9.60652866209177
 21
8.983694721764442
 31
0.0
  0
LINE
  5
230
330
1F
100
AcDbEntity
  8
background
  6
Continuous2
 62
    25
420
 10053222
370
    -3
100
AcDbLine
 10
9.610399327433027
 20
8.989259675155248
 30
0.0
 11
9.6724477492533
 21
9.037389364654196
 31
0.0
  0
LINE
  5
231
330
1F
100
AcDbEntity
  8
background
  6
Continuous2
 62
    25
420
 10053222
370
    -3
100
AcDbLine
 10
9.6724477492533
 20
9.037389364654196
 30
0.0
 11
9.73542236059462
 21
9.08018686632772
 31
0.0
  0
LINE
  5
232
330
1F
100
AcDbEntity
  8
background
  6
Continuous2
 62
    25
420
 10053222
370
    -3
100
AcDbLine
 10
9.73542236059462
 20
9.08018686632772
 30
0.0
 11
9.674129738222117
 21
9.03114377328183
 31
0.0
  0
LINE
  5
233
330
1F
100
AcDbEntity
  8
background
  6
Continuous2
 62
    25
420
 10053222
370
    -3
100
AcDbLine
 10
4.395637541406693
 20
21.60926451946564
 30
0.0
 11
4.371954486411198
 21
21.57887192786393
 31
0.0
  0
LINE
  5
234
330
1F
100
AcDbEntity
  8
background
  6
Continuous2
 62
    25
420
 10053222
370
    -3
100
AcDbLine
 10
4.371954486411198
 20
21.57887192786393
 30
0.0
 11
4.431378098197658
 21
21.66465874337638
 31
0.0
  0
LINE
  5
235
330
1F
100
AcDbEntity
  8
background
  6
Continuous2
 62
    25
420
 10053222
370
    -3
100
AcDbLine
 10
4.431378098197658
 20
21.66465874337638
 30
0.0
 11
4.41736549668652
 21
21.64108420955755
 31
0.0
  0
LINE
  5
236
330
1F
100
AcDbEntity
  8
background
  6
Continuous2
 62
    25
420
 10053222
370
    -3
100
AcDbLine
 10
4.41736549668652
 20
21.64108420955755
 30
0.0
 11
4.395637541406693
 21
21.60926451946564
 31
0.0
  0
LINE
  5
237
330
1F
100
AcDbEntity
  8
background
  6
Continuous2
 62
    25
420
 10053222
370
    -3
100
AcDbLine
 10
9.60652866209177
 20
8.983694721764442
 30
0.0
 11
9.598546357017087
 21
8.978809876061824
 31
0.0
  0
LINE
  5
238
330
1F
100
AcDbEntity
  8
background
  6
Continuous2
 62
    25
420
 10053222
370
    -3
100
AcDbLine
 10
9.598546357017087
 20
8.978809876061824
 30
0.0
 11
9.610399327433027
 21
8.989259675155248
 31
0.0
  0
LINE
  5
239
330
1F
100
AcDbEntity
  8
background
  6
Continuous2
 62
    25
420
 10053222
370
    -3
100
AcDbLine
 10
9.674129738222117
 20
9.03114377328183
 30
0.0
 11
9.60652866209177
 21
8.983694721764442
 31
0.0
  0
LINE
  5
23A
330
1F
100
AcDbEntity
  8
background
  6
Continuous2
 62
    25
420
 10053222
370
    -3
100
AcDbLine
 10
9.610399327433027
 20
8.989259675155248
 30
0.0
 11
9.6724477492533
 21
9.037389364654196
 31
0.0
  0
LINE
  5
23B
330
1F
100
AcDbEntity
  8
background
  6
Continuous2
 62
    25
420
 10053222
370
    -3
100
AcDbLine
 10
9.6724477492533
 20
9.037389364654196
 30
0.0
 11
9.73542236059462
 21
9.08018686632772
 31
0.0
  0
LINE
  5
23C
330
1F
100
AcDbEntity
  8
background
  6
Continuous2
 62
    25
420
 10053222
370
    -3
100
AcDbLine
 10
9.73542236059462
 20
9.08018686632772
 30
0.0
 11
9.674129738222117
 21
9.03114377328183
 31
0.0
  0
LINE
  5
23D
330
1F
100
AcDbEntity
  8
background
  6
Continuous2
 62
    25
420
 10053222
370
    -3
100
AcDbLine
 10
4.395637541406693
 20
21.60926451946564
 30
0.0
 11
4.371954486411198
 21
21.57887192786393
 31
0.0
  0
LINE
  5
23E
330
1F
100
AcDbEntity
  8
background
  6
Continuous2
 62
    25
420
 10053222
370
    -3
100
AcDbLine
 10
4.371954486411198
 20
21.57887192786393
 30
0.0
 11
4.431378098197658
 21
21.66465874337638
 31
0.0
  0
LINE
  5
23F
330
1F
100
AcDbEntity
  8
background
  6
Continuous2
 62
    25
420
 10053222
370
    -3
100
AcDbLine
 10
4.431378098197658
 20
21.66465874337638
 30
0.0
 11
4.41736549668652
 21
21.64108420955755
 31
0.0
  0
LINE
  5
240
330
1F
100
AcDbEntity
  8
background
  6
Continuous2
 62
    25
420
 10053222
370
    -3
100
AcDbLine
 10
4.41736549668652
 20
21.64108420955755
 30
0.0
 11
4.395637541406693
 21
21.60926451946564
 31
0.0
  0
LINE
  5
241
330
1F
100
AcDbEntity
  8
working
  6
Continuous2
 62
     3
420
    65280
370
    -3
100
AcDbLine
 10
0.0
 20
24.0
 30
0.0
 11
24.0
 21
24.0
 31
0.0
  0
LINE
  5
242
330
1F
100
AcDbEntity
  8
working
  6
Continuous2
 62
     3
420
    65280
370
    -3
100
AcDbLine
 10
24.0
 20
23.0
 30
0.0
 11
18.76047139991855
 21
23.00275440829549
 31
0.0
  0
LINE
  5
243
330
1F
100
AcDbEntity
  8
working
  6
Continuous2
 62
     3
420
    65280
370
    -3
100
AcDbLine
 10
0.0
 20
24.0
 30
0.0
 11
0.0
 21
23.0
 31
0.0
  0
LINE
  5
244
330
1F
100
AcDbEntity
  8
working
  6
Continuous2
 62
     3
420
    65280
370
    -3
100
AcDbLine
 10
3.155478635039711
 20
1.0
 30
0.0
 11
0.0
 21
1.0
 31
0.0
  0
LINE
  5
245
330
1F
100
AcDbEntity
  8
working
  6
Continuous2
 62
     3
420
    65280
370
    -3
100
AcDbLine
 10
0.0
 20
0.0
 30
0.0
 11
24.0
 21
0.0
 31
0.0
  0
LINE
  5
246
330
1F
100
AcDbEntity
  8
working
  6
Continuous2
 62
     3
420
    65280
370
    -3
100
AcDbLine
 10
24.0
 20
1.0
 30
0.0
 11
23.1045638184226
 21
0.9996634825525776
 31
0.0
  0
LINE
  5
247
330
1F
100
AcDbEntity
  8
working
  6
Continuous2
 62
     3
420
    65280
370
    -3
100
AcDbLine
 10
0.0
 20
24.0
 30
0.0
 11
0.0
 21
23.0
 31
0.0
  0
LINE
  5
248
330
1F
100
AcDbEntity
  8
working
  6
Continuous2
 62
     3
420
    65280
370
    -3
100
AcDbLine
 10
24.0
 20
1.0
 30
0.0
 11
24.0
 21
0.0
 31
0.0
  0
LINE
  5
249
330
1F
100
AcDbEntity
  8
working
  6
Continuous2
 62
     3
420
    65280
370
    -3
100
AcDbLine
 10
24.0
 20
24.0
 30
0.0
 11
24.0
 21
23.0
 31
0.0
  0
LINE
  5
24A
330
1F
100
AcDbEntity
  8
working
  6
Continuous2
 62
     3
420
    65280
370
    -3
100
AcDbLine
 10
0.0
 20
23.0
 30
0.0
 11
0.7337313890457153
 21
23.00032615661621
 31
0.0
  0
ARC
  5
24B
330
1F
100
AcDbEntity
  8
working
  6
Continuous2
 62
     3
420
    65280
370
    -3
100
AcDbCircle
 10
5.122459525609326
 20
5.526134997250887
 30
0.0
 40
4.93507
100
AcDbArc
 50
109.4641417778034
 51
246.5110581520791
  0
ARC
  5
24C
330
1F
100
AcDbEntity
  8
working
  6
Continuous2
 62
     3
420
    65280
370
    -3
100
AcDbCircle
 10
2.415866779366056
 20
16.70339768626134
 30
0.0
 40
2.25576
100
AcDbArc
 50
106.0384862390978
 51
308.144703211681
  0
ARC
  5
24D
330
1F
100
AcDbEntity
  8
working
  6
Continuous2
 62
     3
420
    65280
370
    -3
100
AcDbCircle
 10
4.291042811482753
 20
14.84630072115098
 30
0.0
 40
0.48901
100
AcDbArc
 50
175.497393120049
 51
242.1643132869249
  0
ARC
  5
24E
330
1F
100
AcDbEntity
  8
working
  6
Continuous2
 62
     3
420
    65280
370
    -3
100
AcDbCircle
 10
2.430190020625913
 20
20.36048216967283
 30
0.0
 40
1.58128
100
AcDbArc
 50
136.2028785144793
 51
248.6216669088278
  0
ARC
  5
24F
330
1F
100
AcDbEntity
  8
working
  6
Continuous2
 62
     3
420
    65280
370
    -3
100
AcDbCircle
 10
1.245210286856767
 20
22.31163728731757
 30
0.0
 40
0.85785
100
AcDbArc
 50
126.600698908905
 51
272.914617919907
  0
ARC
  5
250
330
1F
100
AcDbEntity
  8
working
  6
Continuous2
 62
     3
420
    65280
370
    -3
100
AcDbCircle
 10
4.458077478858209
 20
12.20156558941149
 30
0.0
 40
2.24736
100
AcDbArc
 50
100.1326206437368
 51
244.1448968719332
  0
ARC
  5
251
330
1F
100
AcDbEntity
  8
working
  6
Continuous2
 62
     3
420
    65280
370
    -3
100
AcDbCircle
 10
5.122459525609326
 20
5.526134997250887
 30
0.0
 40
4.93507
100
AcDbArc
 50
293.4238528863049
 51
326.6491231580986
  0
LINE
  5
252
330
1F
100
AcDbEntity
  8
working
  6
Continuous2
 62
     3
420
    65280
370
    -3
100
AcDbLine
 10
7.084297547003749
 20
0.9977680197731111
 30
0.0
 11
10.00467397217218
 21
0.9991821073298316
 31
0.0
  0
ARC
  5
253
330
1F
100
AcDbEntity
  8
working
  6
Continuous2
 62
     3
420
    65280
370
    -3
100
AcDbCircle
 10
11.42592500801455
 20
2.660650707549824
 30
0.0
 40
2.18642
100
AcDbArc
 50
176.0042107685422
 51
229.4557071128918
  0
ARC
  5
254
330
1F
100
AcDbEntity
  8
working
  6
Continuous2
 62
     3
420
    65280
370
    -3
100
AcDbCircle
 10
5.122459525609326
 20
5.526134997250887
 30
0.0
 40
4.56001
100
AcDbArc
 50
102.6130163660103
 51
88.72011840225166
  0
ARC
  5
255
330
1F
100
AcDbEntity
  8
working
  6
Continuous2
 62
     3
420
    65280
370
    -3
100
AcDbCircle
 10
4.458077478858209
 20
12.20156558941149
 30
0.0
 40
2.25099
100
AcDbArc
 50
261.5310763478828
 51
289.9012532340913
  0
ARC
  5
256
330
1F
100
AcDbEntity
  8
working
  6
Continuous2
 62
     3
420
    65280
370
    -3
100
AcDbCircle
 10
4.458077478858209
 20
12.20156558941149
 30
0.0
 40
2.24821
100
AcDbArc
 50
307.3310377961575
 51
0.5245496115420072
  0
ARC
  5
257
330
1F
100
AcDbEntity
  8
working
  6
Continuous2
 62
     3
420
    65280
370
    -3
100
AcDbCircle
 10
8.885402549756687
 20
13.58517267152305
 30
0.0
 40
2.57037
100
AcDbArc
 50
212.0246438031046
 51
252.2236266300061
  0
ARC
  5
258
330
1F
100
AcDbEntity
  8
working
  6
Continuous2
 62
     3
420
    65280
370
    -3
100
AcDbCircle
 10
8.885402549756687
 20
10.08296980827213
 30
0.0
 40
1.3147
100
AcDbArc
 50
126.6423913327548
 51
192.7118992119349
  0
ARC
  5
259
330
1F
100
AcDbEntity
  8
working
  6
Continuous2
 62
     3
420
    65280
370
    -3
100
AcDbCircle
 10
5.122459525609326
 20
5.526134997250887
 30
0.0
 40
4.9375
100
AcDbArc
 50
59.83308440945476
 51
81.8615710230486
  0
CIRCLE
  5
25A
330
1F
100
AcDbEntity
  8
working
  6
Continuous2
 62
     3
420
    65280
370
    -3
100
AcDbCircle
 10
4.458077478858209
 20
12.20156558941149
 30
0.0
 40
1.92621
  0
CIRCLE
  5
25B
330
1F
100
AcDbEntity
  8
working
  6
Continuous2
 62
     3
420
    65280
370
    -3
100
AcDbCircle
 10
4.291042811482753
 20
14.84630072115098
 30
0.0
 40
0.3601700000000001
  0
CIRCLE
  5
25C
330
1F
100
AcDbEntity
  8
working
  6
Continuous2
 62
     3
420
    65280
370
    -3
100
AcDbCircle
 10
5.694380393893081
 20
15.01931795737538
 30
0.0
 40
0.5469999999999997
  0
CIRCLE
  5
25D
330
1F
100
AcDbEntity
  8
working
  6
Continuous2
 62
     3
420
    65280
370
    -3
100
AcDbCircle
 10
4.966247298862669
 20
16.15096336711758
 30
0.0
 40
0.2220000000000004
  0
CIRCLE
  5
25E
330
1F
100
AcDbEntity
  8
working
  6
Continuous2
 62
     3
420
    65280
370
    -3
100
AcDbCircle
 10
2.415866779366056
 20
16.70339768626134
 30
0.0
 40
1.754
  0
CIRCLE
  5
25F
330
1F
100
AcDbEntity
  8
working
  6
Continuous2
 62
     3
420
    65280
370
    -3
100
AcDbCircle
 10
2.430190020625913
 20
20.36048216967283
 30
0.0
 40
0.8570000000000002
  0
CIRCLE
  5
260
330
1F
100
AcDbEntity
  8
working
  6
Continuous2
 62
     3
420
    65280
370
    -3
100
AcDbCircle
 10
3.900242040939649
 20
21.9708717383239
 30
0.0
 40
0.6133299999999999
  0
CIRCLE
  5
261
330
1F
100
AcDbEntity
  8
working
  6
Continuous2
 62
     3
420
    65280
370
    -3
100
AcDbCircle
 10
2.772101188283347
 20
22.47098993090887
 30
0.0
 40
0.4710000000000001
  0
CIRCLE
  5
262
330
1F
100
AcDbEntity
  8
working
  6
Continuous2
 62
     3
420
    65280
370
    -3
100
AcDbCircle
 10
1.245210286856767
 20
22.31163728731757
 30
0.0
 40
0.5569999999999999
  0
CIRCLE
  5
263
330
1F
100
AcDbEntity
  8
working
  6
Continuous2
 62
     3
420
    65280
370
    -3
100
AcDbCircle
 10
7.677586891777814
 20
19.43954945320283
 30
0.0
 40
3.443999999999999
  0
CIRCLE
  5
264
330
1F
100
AcDbEntity
  8
working
  6
Continuous2
 62
     3
420
    65280
370
    -3
100
AcDbCircle
 10
8.885402549756687
 20
13.58517267152305
 30
0.0
 40
1.954370000000001
  0
CIRCLE
  5
265
330
1F
100
AcDbEntity
  8
working
  6
Continuous2
 62
     3
420
    65280
370
    -3
100
AcDbCircle
 10
8.885402549756687
 20
10.08296980827213
 30
0.0
 40
0.5570000000000004
  0
CIRCLE
  5
266
330
1F
100
AcDbEntity
  8
working
  6
Continuous2
 62
     3
420
    65280
370
    -3
100
AcDbCircle
 10
11.6411603107802
 20
10.7129744417239
 30
0.0
 40
1.375629999999999
  0
CIRCLE
  5
267
330
1F
100
AcDbEntity
  8
working
  6
Continuous2
 62
     3
420
    65280
370
    -3
100
AcDbCircle
 10
10.40717931461889
 20
8.026118121685512
 30
0.0
 40
0.8659999999999997
  0
CIRCLE
  5
268
330
1F
100
AcDbEntity
  8
working
  6
Continuous2
 62
     3
420
    65280
370
    -3
100
AcDbCircle
 10
10.9543712576555
 20
6.35594934189132
 30
0.0
 40
0.5191999999999997
  0
CIRCLE
  5
269
330
1F
100
AcDbEntity
  8
working
  6
Continuous2
 62
     3
420
    65280
370
    -3
100
AcDbCircle
 10
10.58382625373532
 20
5.247454542028417
 30
0.0
 40
0.4700000000000006
  0
CIRCLE
  5
26A
330
1F
100
AcDbEntity
  8
working
  6
Continuous2
 62
     3
420
    65280
370
    -3
100
AcDbCircle
 10
11.42592500801455
 20
2.660650707549824
 30
0.0
 40
1.60141
  0
CIRCLE
  5
26B
330
1F
100
AcDbEntity
  8
working
  6
Continuous2
 62
     3
420
    65280
370
    -3
100
AcDbCircle
 10
12.04774763590389
 20
21.9436585626345
 30
0.0
 40
0.6690000000000005
  0
CIRCLE
  5
26C
330
1F
100
AcDbEntity
  8
working
  6
Continuous2
 62
     3
420
    65280
370
    -3
100
AcDbCircle
 10
17.41162102714551
 20
16.55679948316841
 30
0.0
 40
5.875
  0
CIRCLE
  5
26D
330
1F
100
AcDbEntity
  8
working
  6
Continuous2
 62
     3
420
    65280
370
    -3
100
AcDbCircle
 10
14.99826581265304
 20
6.903495246741492
 30
0.0
 40
2.651999999999999
  0
CIRCLE
  5
26E
330
1F
100
AcDbEntity
  8
working
  6
Continuous2
 62
     3
420
    65280
370
    -3
100
AcDbCircle
 10
20.94344693537549
 20
8.435404863461565
 30
0.0
 40
2.4375
  0
CIRCLE
  5
26F
330
1F
100
AcDbEntity
  8
working
  6
Continuous2
 62
     3
420
    65280
370
    -3
100
AcDbCircle
 10
15.20105886385645
 20
1.926596902247232
 30
0.0
 40
0.875
  0
CIRCLE
  5
270
330
1F
100
AcDbEntity
  8
working
  6
Continuous2
 62
     3
420
    65280
370
    -3
100
AcDbCircle
 10
17.71069332068634
 20
1.688264150512222
 30
0.0
 40
0.7931300000000014
  0
CIRCLE
  5
271
330
1F
100
AcDbEntity
  8
working
  6
Continuous2
 62
     3
420
    65280
370
    -3
100
AcDbCircle
 10
19.82053352275285
 20
3.991534762444264
 30
0.0
 40
1.4375
  0
CIRCLE
  5
272
330
1F
100
AcDbEntity
  8
working
  6
Continuous2
 62
     3
420
    65280
370
    -3
100
AcDbCircle
 10
22.16192744694475
 20
1.912950360355529
 30
0.0
 40
1.0625
  0
ARC
  5
273
330
1F
100
AcDbEntity
  8
working
  6
Continuous2
 62
     3
420
    65280
370
    -3
100
AcDbCircle
 10
7.677586891777814
 20
19.43954945320283
 30
0.0
 40
3.93557
100
AcDbArc
 50
179.4900675259798
 51
195.759150266803
  0
ARC
  5
274
330
1F
100
AcDbEntity
  8
working
  6
Continuous2
 62
     3
420
    65280
370
    -3
100
AcDbCircle
 10
2.430190020625913
 20
20.36048216967283
 30
0.0
 40
1.58085
100
AcDbArc
 50
288.956076055075
 51
325.9711029131192
  0
ARC
  5
275
330
1F
100
AcDbEntity
  8
working
  6
Continuous2
 62
     3
420
    65280
370
    -3
100
AcDbCircle
 10
2.415866779366056
 20
16.70339768626134
 30
0.0
 40
2.22547
100
AcDbArc
 50
48.51925504164953
 51
76.2794692948244
  0
ARC
  5
276
330
1F
100
AcDbEntity
  8
working
  6
Continuous2
 62
     3
420
    65280
370
    -3
100
AcDbCircle
 10
2.430190020625913
 20
20.36048216967283
 30
0.0
 40
1.58009
100
AcDbArc
 50
13.95248106124157
 51
36.86218512717185
  0
ARC
  5
277
330
1F
100
AcDbEntity
  8
working
  6
Continuous2
 62
     3
420
    65280
370
    -3
100
AcDbCircle
 10
7.677586891777814
 20
19.43954945320283
 30
0.0
 40
3.93551
100
AcDbArc
 50
150.609864340865
 51
160.681847486953
  0
ARC
  5
278
330
1F
100
AcDbEntity
  8
working
  6
Continuous2
 62
     3
420
    65280
370
    -3
100
AcDbCircle
 10
3.900242040939649
 20
21.9708717383239
 30
0.0
 40
0.69375
100
AcDbArc
 50
252.7390430739024
 51
300.1399630615599
  0
ARC
  5
279
330
1F
100
AcDbEntity
  8
working
  6
Continuous2
 62
     3
420
    65280
370
    -3
100
AcDbCircle
 10
2.430190020625913
 20
20.36048216967283
 30
0.0
 40
1.58147
100
AcDbArc
 50
89.66773192870477
 51
106.3497259885433
  0
ARC
  5
27A
330
1F
100
AcDbEntity
  8
working
  6
Continuous2
 62
     3
420
    65280
370
    -3
100
AcDbCircle
 10
1.245210286856767
 20
22.31163728731757
 30
0.0
 40
0.85752
100
AcDbArc
 50
329.6229610682469
 51
53.4217558690892
  0
ARC
  5
27B
330
1F
100
AcDbEntity
  8
working
  6
Continuous2
 62
     3
420
    65280
370
    -3
100
AcDbCircle
 10
2.772101188283347
 20
22.47098993090887
 30
0.0
 40
0.625
100
AcDbArc
 50
122.1387825223467
 51
237.8333256349644
  0
ARC
  5
27C
330
1F
100
AcDbEntity
  8
working
  6
Continuous2
 62
     3
420
    65280
370
    -3
100
AcDbCircle
 10
2.430190020625913
 20
20.36048216967283
 30
0.0
 40
1.58056
100
AcDbArc
 50
58.45596724430096
 51
71.98103348264226
  0
ARC
  5
27D
330
1F
100
AcDbEntity
  8
working
  6
Continuous2
 62
     3
420
    65280
370
    -3
100
AcDbCircle
 10
3.900242040939649
 20
21.9708717383239
 30
0.0
 40
0.69425
100
AcDbArc
 50
175.5891641282396
 51
202.3549090876429
  0
ARC
  5
27E
330
1F
100
AcDbEntity
  8
working
  6
Continuous2
 62
     3
420
    65280
370
    -3
100
AcDbCircle
 10
2.772101188283347
 20
22.47098993090887
 30
0.0
 40
0.62419
100
AcDbArc
 50
283.6413831112382
 51
314.3004139902422
  0
ARC
  5
27F
330
1F
100
AcDbEntity
  8
working
  6
Continuous2
 62
     3
420
    65280
370
    -3
100
AcDbCircle
 10
2.772101188283347
 20
22.47098993090887
 30
0.0
 40
0.625
100
AcDbArc
 50
358.008001277197
 51
57.82397933871037
  0
ARC
  5
280
330
1F
100
AcDbEntity
  8
working
  6
Continuous2
 62
     3
420
    65280
370
    -3
100
AcDbCircle
 10
3.900242040939649
 20
21.9708717383239
 30
0.0
 40
0.69486
100
AcDbArc
 50
352.4048643654103
 51
136.4886512619471
  0
ARC
  5
281
330
1F
100
AcDbEntity
  8
working
  6
Continuous2
 62
     3
420
    65280
370
    -3
100
AcDbCircle
 10
7.677586891777814
 20
19.43954945320283
 30
0.0
 40
3.93578
100
AcDbArc
 50
115.2473302639811
 51
141.6969522519449
  0
LINE
  5
282
330
1F
100
AcDbEntity
  8
working
  6
Continuous2
 62
     3
420
    65280
370
    -3
100
AcDbLine
 10
1.756223599189967
 20
23.00026341593763
 30
0.0
 11
2.439618775834434
 21
23.00021620143231
 31
0.0
  0
LINE
  5
283
330
1F
100
AcDbEntity
  8
working
  6
Continuous2
 62
     3
420
    65280
370
    -3
100
AcDbLine
 10
3.104356445153217
 20
23.0
 30
0.0
 11
5.996189213115298
 21
23.0
 31
0.0
  0
ARC
  5
284
330
1F
100
AcDbEntity
  8
working
  6
Continuous2
 62
     3
420
    65280
370
    -3
100
AcDbCircle
 10
2.415866779366056
 20
16.70339768626134
 30
0.0
 40
2.23086
100
AcDbArc
 50
349.7682475702436
 51
6.152017947621736
  0
ARC
  5
285
330
1F
100
AcDbEntity
  8
working
  6
Continuous2
 62
     3
420
    65280
370
    -3
100
AcDbCircle
 10
7.677586891777814
 20
19.43954945320283
 30
0.0
 40
3.93695
100
AcDbArc
 50
219.3656795691501
 51
227.6616717940812
  0
ARC
  5
286
330
1F
100
AcDbEntity
  8
working
  6
Continuous2
 62
     3
420
    65280
370
    -3
100
AcDbCircle
 10
4.966247298862669
 20
16.15096336711758
 30
0.0
 40
0.38316
100
AcDbArc
 50
87.25624144653389
 51
156.2550092682746
  0
ARC
  5
287
330
1F
100
AcDbEntity
  8
working
  6
Continuous2
 62
     3
420
    65280
370
    -3
100
AcDbCircle
 10
4.291042811482753
 20
14.84630072115098
 30
0.0
 40
0.48901
100
AcDbArc
 50
170.2222592496505
 51
175.4973931200489
  0
ARC
  5
288
330
1F
100
AcDbEntity
  8
working
  6
Continuous2
 62
     3
420
    65280
370
    -3
100
AcDbCircle
 10
4.966247298862669
 20
16.15096336711758
 30
0.0
 40
0.38316
100
AcDbArc
 50
81.02479493325544
 51
87.25624144653383
  0
ARC
  5
289
330
1F
100
AcDbEntity
  8
working
  6
Continuous2
 62
     3
420
    65280
370
    -3
100
AcDbCircle
 10
2.415866779366056
 20
16.70339768626134
 30
0.0
 40
2.23086
100
AcDbArc
 50
349.1736863942621
 51
349.7682475702435
  0
ARC
  5
28A
330
1F
100
AcDbEntity
  8
working
  6
Continuous2
 62
     3
420
    65280
370
    -3
100
AcDbCircle
 10
4.966247298862669
 20
16.15096336711758
 30
0.0
 40
0.38316
100
AcDbArc
 50
156.2550092682745
 51
159.6264843027816
  0
ARC
  5
28B
330
1F
100
AcDbEntity
  8
working
  6
Continuous2
 62
     3
420
    65280
370
    -3
100
AcDbCircle
 10
2.415866779366056
 20
16.70339768626134
 30
0.0
 40
2.25576
100
AcDbArc
 50
104.4290479977499
 51
106.0384862390978
  0
ARC
  5
28C
330
1F
100
AcDbEntity
  8
working
  6
Continuous2
 62
     3
420
    65280
370
    -3
100
AcDbCircle
 10
7.677586891777814
 20
19.43954945320283
 30
0.0
 40
3.93557
100
AcDbArc
 50
179.4312447568619
 51
179.4900675259798
  0
ARC
  5
28D
330
1F
100
AcDbEntity
  8
working
  6
Continuous2
 62
     3
420
    65280
370
    -3
100
AcDbCircle
 10
2.430190020625913
 20
20.36048216967283
 30
0.0
 40
1.58085
100
AcDbArc
 50
325.9711029131192
 51
326.087916971838
  0
ARC
  5
28E
330
1F
100
AcDbEntity
  8
working
  6
Continuous2
 62
     3
420
    65280
370
    -3
100
AcDbCircle
 10
12.04774763590389
 20
21.9436585626345
 30
0.0
 40
1.25
100
AcDbArc
 50
234.4888427340325
 51
282.0161427387188
  0
ARC
  5
28F
330
1F
100
AcDbEntity
  8
working
  6
Continuous2
 62
     3
420
    65280
370
    -3
100
AcDbCircle
 10
17.41162102714551
 20
16.55679948316841
 30
0.0
 40
6.58838
100
AcDbArc
 50
140.7877237437784
 51
151.7833688847647
  0
ARC
  5
290
330
1F
100
AcDbEntity
  8
working
  6
Continuous2
 62
     3
420
    65280
370
    -3
100
AcDbCircle
 10
7.677586891777814
 20
19.43954945320283
 30
0.0
 40
3.9375
100
AcDbArc
 50
3.383706457471632
 51
22.19483741753237
  0
ARC
  5
291
330
1F
100
AcDbEntity
  8
working
  6
Continuous2
 62
     3
420
    65280
370
    -3
100
AcDbCircle
 10
7.677586891777814
 20
19.43954945320283
 30
0.0
 40
3.93524
100
AcDbArc
 50
37.36779149505732
 51
64.81795231538251
  0
ARC
  5
292
330
1F
100
AcDbEntity
  8
working
  6
Continuous2
 62
     3
420
    65280
370
    -3
100
AcDbCircle
 10
12.04774763590389
 20
21.9436585626345
 30
0.0
 40
1.24798
100
AcDbArc
 50
122.2847178501496
 51
185.3193898289653
  0
LINE
  5
293
330
1F
100
AcDbEntity
  8
working
  6
Continuous2
 62
     3
420
    65280
370
    -3
100
AcDbLine
 10
9.35201484175879
 20
23.00078588145672
 30
0.0
 11
11.3811679735615
 21
22.99870625546715
 31
0.0
  0
ARC
  5
294
330
1F
100
AcDbEntity
  8
working
  6
Continuous2
 62
     3
420
    65280
370
    -3
100
AcDbCircle
 10
12.04774763590389
 20
21.9436585626345
 30
0.0
 40
1.25
100
AcDbArc
 50
347.8423687407501
 51
57.70950898898659
  0
ARC
  5
295
330
1F
100
AcDbEntity
  8
working
  6
Continuous2
 62
     3
420
    65280
370
    -3
100
AcDbCircle
 10
17.41162102714551
 20
16.55679948316841
 30
0.0
 40
6.58838
100
AcDbArc
 50
101.9353866761016
 51
128.9519723782733
  0
LINE
  5
296
330
1F
100
AcDbEntity
  8
working
  6
Continuous2
 62
     3
420
    65280
370
    -3
100
AcDbLine
 10
12.71551271053038
 20
23.00034669312006
 30
0.0
 11
16.04908812830463
 21
23.00274822047437
 31
0.0
  0
ARC
  5
297
330
1F
100
AcDbEntity
  8
working
  6
Continuous2
 62
     3
420
    65280
370
    -3
100
AcDbCircle
 10
2.415866779366056
 20
16.70339768626134
 30
0.0
 40
2.24894
100
AcDbArc
 50
322.2069259172756
 51
345.8860413201924
  0
ARC
  5
298
330
1F
100
AcDbEntity
  8
working
  6
Continuous2
 62
     3
420
    65280
370
    -3
100
AcDbCircle
 10
4.966247298862669
 20
16.15096336711758
 30
0.0
 40
0.36935
100
AcDbArc
 50
179.3752367207846
 51
284.5822672108284
  0
ARC
  5
299
330
1F
100
AcDbEntity
  8
working
  6
Continuous2
 62
     3
420
    65280
370
    -3
100
AcDbCircle
 10
5.694380393893081
 20
15.01931795737538
 30
0.0
 40
1.00139
100
AcDbArc
 50
129.3651785094688
 51
174.3696834216543
  0
ARC
  5
29A
330
1F
100
AcDbEntity
  8
working
  6
Continuous2
 62
     3
420
    65280
370
    -3
100
AcDbCircle
 10
4.291042811482753
 20
14.84630072115098
 30
0.0
 40
0.48893
100
AcDbArc
 50
33.69760651455562
 51
101.564400317842
  0
ARC
  5
29B
330
1F
100
AcDbEntity
  8
working
  6
Continuous2
 62
     3
420
    65280
370
    -3
100
AcDbCircle
 10
7.677586891777814
 20
19.43954945320283
 30
0.0
 40
3.93675
100
AcDbArc
 50
232.8346889445636
 51
240.1001203234773
  0
ARC
  5
29C
330
1F
100
AcDbEntity
  8
working
  6
Continuous2
 62
     3
420
    65280
370
    -3
100
AcDbCircle
 10
5.694380393893081
 20
15.01931795737538
 30
0.0
 40
1.00796
100
AcDbArc
 50
88.80910031783516
 51
115.827406482289
  0
ARC
  5
29D
330
1F
100
AcDbEntity
  8
working
  6
Continuous2
 62
     3
420
    65280
370
    -3
100
AcDbCircle
 10
4.966247298862669
 20
16.15096336711758
 30
0.0
 40
0.36588
100
AcDbArc
 50
322.1757556281087
 51
24.44468623858121
  0
ARC
  5
29E
330
1F
100
AcDbEntity
  8
working
  6
Continuous2
 62
     3
420
    65280
370
    -3
100
AcDbCircle
 10
5.694380393893081
 20
15.01931795737538
 30
0.0
 40
1.0057
100
AcDbArc
 50
353.9470708536718
 51
42.97163445876875
  0
ARC
  5
29F
330
1F
100
AcDbEntity
  8
working
  6
Continuous2
 62
     3
420
    65280
370
    -3
100
AcDbCircle
 10
8.885402549756687
 20
13.58517267152305
 30
0.0
 40
2.56203
100
AcDbArc
 50
130.6424858632891
 51
148.7765994817011
  0
ARC
  5
2A0
330
1F
100
AcDbEntity
  8
working
  6
Continuous2
 62
     3
420
    65280
370
    -3
100
AcDbCircle
 10
7.677586891777814
 20
19.43954945320283
 30
0.0
 40
3.93741
100
AcDbArc
 50
251.5313712354725
 51
263.2773057138747
  0
ARC
  5
2A1
330
1F
100
AcDbEntity
  8
working
  6
Continuous2
 62
     3
420
    65280
370
    -3
100
AcDbCircle
 10
5.694380393893081
 20
15.01931795737538
 30
0.0
 40
0.98544
100
AcDbArc
 50
273.3705945230524
 51
318.3596729238535
  0
ARC
  5
2A2
330
1F
100
AcDbEntity
  8
working
  6
Continuous2
 62
     3
420
    65280
370
    -3
100
AcDbCircle
 10
8.885402549756687
 20
13.58517267152305
 30
0.0
 40
2.57533
100
AcDbArc
 50
162.3844977509194
 51
182.6542423972022
  0
ARC
  5
2A3
330
1F
100
AcDbEntity
  8
working
  6
Continuous2
 62
     3
420
    65280
370
    -3
100
AcDbCircle
 10
4.458077478858209
 20
12.20156558941149
 30
0.0
 40
2.2447
100
AcDbArc
 50
34.28137696130713
 51
54.78990053309139
  0
ARC
  5
2A4
330
1F
100
AcDbEntity
  8
working
  6
Continuous2
 62
     3
420
    65280
370
    -3
100
AcDbCircle
 10
5.694380393893081
 20
15.01931795737538
 30
0.0
 40
0.99178
100
AcDbArc
 50
198.9842104811972
 51
218.311427025223
  0
ARC
  5
2A5
330
1F
100
AcDbEntity
  8
working
  6
Continuous2
 62
     3
420
    65280
370
    -3
100
AcDbCircle
 10
4.291042811482753
 20
14.84630072115098
 30
0.0
 40
0.48896
100
AcDbArc
 50
305.563274225169
 51
342.182290494594
  0
ARC
  5
2A6
330
1F
100
AcDbEntity
  8
working
  6
Continuous2
 62
     3
420
    65280
370
    -3
100
AcDbCircle
 10
4.458077478858209
 20
12.20156558941149
 30
0.0
 40
2.25004
100
AcDbArc
 50
78.2526548087329
 51
87.01052518660748
  0
ARC
  5
2A7
330
1F
100
AcDbEntity
  8
working
  6
Continuous2
 62
     3
420
    65280
370
    -3
100
AcDbCircle
 10
17.41162102714551
 20
16.55679948316841
 30
0.0
 40
6.5852
100
AcDbArc
 50
175.2340173518202
 51
193.3924492376151
  0
ARC
  5
2A8
330
1F
100
AcDbEntity
  8
working
  6
Continuous2
 62
     3
420
    65280
370
    -3
100
AcDbCircle
 10
8.885402549756687
 20
13.58517267152305
 30
0.0
 40
2.56647
100
AcDbArc
 50
34.30248737930161
 51
72.53869446600802
  0
ARC
  5
2A9
330
1F
100
AcDbEntity
  8
working
  6
Continuous2
 62
     3
420
    65280
370
    -3
100
AcDbCircle
 10
7.677586891777814
 20
19.43954945320283
 30
0.0
 40
3.9388
100
AcDbArc
 50
300.1431293082626
 51
323.631576481619
  0
ARC
  5
2AA
330
1F
100
AcDbEntity
  8
working
  6
Continuous2
 62
     3
420
    65280
370
    -3
100
AcDbCircle
 10
8.885402549756687
 20
13.58517267152305
 30
0.0
 40
2.57027
100
AcDbArc
 50
332.4607532923463
 51
3.712645489586996
  0
ARC
  5
2AB
330
1F
100
AcDbEntity
  8
working
  6
Continuous2
 62
     3
420
    65280
370
    -3
100
AcDbCircle
 10
11.6411603107802
 20
10.7129744417239
 30
0.0
 40
1.75
100
AcDbArc
 50
64.81090330628324
 51
105.8076043240091
  0
ARC
  5
2AC
330
1F
100
AcDbEntity
  8
working
  6
Continuous2
 62
     3
420
    65280
370
    -3
100
AcDbCircle
 10
17.41162102714551
 20
16.55679948316841
 30
0.0
 40
6.58838
100
AcDbArc
 50
205.1999999999999
 51
220.2879037901353
  0
ARC
  5
2AD
330
1F
100
AcDbEntity
  8
working
  6
Continuous2
 62
     3
420
    65280
370
    -3
100
AcDbCircle
 10
17.41162102714551
 20
16.55679948316841
 30
0.0
 40
6.58777
100
AcDbArc
 50
230.3880501594377
 51
246.4327712253547
  0
ARC
  5
2AE
330
1F
100
AcDbEntity
  8
working
  6
Continuous2
 62
     3
420
    65280
370
    -3
100
AcDbCircle
 10
14.99826581265304
 20
6.903495246741492
 30
0.0
 40
3.62095
100
AcDbArc
 50
93.48885423273923
 51
118.4428144221694
  0
ARC
  5
2AF
330
1F
100
AcDbEntity
  8
working
  6
Continuous2
 62
     3
420
    65280
370
    -3
100
AcDbCircle
 10
11.6411603107802
 20
10.7129744417239
 30
0.0
 40
1.74828
100
AcDbArc
 50
339.0324330854341
 51
26.08540611679593
  0
ARC
  5
2B0
330
1F
100
AcDbEntity
  8
working
  6
Continuous2
 62
     3
420
    65280
370
    -3
100
AcDbCircle
 10
8.885402549756687
 20
13.58517267152305
 30
0.0
 40
2.57027
100
AcDbArc
 50
287.7558010698566
 51
295.1957123878389
  0
ARC
  5
2B1
330
1F
100
AcDbEntity
  8
working
  6
Continuous2
 62
     3
420
    65280
370
    -3
100
AcDbCircle
 10
8.885402549756687
 20
10.08296980827213
 30
0.0
 40
1.3138
100
AcDbArc
 50
39.19827195826328
 51
53.37238565316466
  0
ARC
  5
2B2
330
1F
100
AcDbEntity
  8
working
  6
Continuous2
 62
     3
420
    65280
370
    -3
100
AcDbCircle
 10
11.6411603107802
 20
10.7129744417239
 30
0.0
 40
1.74912
100
AcDbArc
 50
161.7946462201426
 51
173.4235475827561
  0
ARC
  5
2B3
330
1F
100
AcDbEntity
  8
working
  6
Continuous2
 62
     3
420
    65280
370
    -3
100
AcDbCircle
 10
10.40717931461889
 20
8.026118121685512
 30
0.0
 40
1.24946
100
AcDbArc
 50
76.81685427763132
 51
122.3228581685716
  0
ARC
  5
2B4
330
1F
100
AcDbEntity
  8
working
  6
Continuous2
 62
     3
420
    65280
370
    -3
100
AcDbCircle
 10
8.885402549756687
 20
10.08296980827213
 30
0.0
 40
1.3156
100
AcDbArc
 50
310.459304770289
 51
346.4269172385776
  0
ARC
  5
2B5
330
1F
100
AcDbEntity
  8
working
  6
Continuous2
 62
     3
420
    65280
370
    -3
100
AcDbCircle
 10
11.6411603107802
 20
10.7129744417239
 30
0.0
 40
1.75
100
AcDbArc
 50
212.4411105981737
 51
237.1597084751311
  0
ARC
  5
2B6
330
1F
100
AcDbEntity
  8
working
  6
Continuous2
 62
     3
420
    65280
370
    -3
100
AcDbCircle
 10
10.40717931461889
 20
8.026118121685512
 30
0.0
 40
1.24954
100
AcDbArc
 50
129.5914504185732
 51
166.356833359969
  0
ARC
  5
2B7
330
1F
100
AcDbEntity
  8
working
  6
Continuous2
 62
     3
420
    65280
370
    -3
100
AcDbCircle
 10
8.885402549756687
 20
10.08296980827213
 30
0.0
 40
1.31262
100
AcDbArc
 50
268.19172647957
 51
303.2649350708879
  0
ARC
  5
2B8
330
1F
100
AcDbEntity
  8
working
  6
Continuous2
 62
     3
420
    65280
370
    -3
100
AcDbCircle
 10
5.122459525609326
 20
5.526134997250887
 30
0.0
 40
4.9375
100
AcDbArc
 50
34.47306431472779
 51
41.08580664564695
  0
ARC
  5
2B9
330
1F
100
AcDbEntity
  8
working
  6
Continuous2
 62
     3
420
    65280
370
    -3
100
AcDbCircle
 10
10.40717931461889
 20
8.026118121685512
 30
0.0
 40
1.24915
100
AcDbArc
 50
10.48636103179561
 51
53.83438601656371
  0
ARC
  5
2BA
330
1F
100
AcDbEntity
  8
working
  6
Continuous2
 62
     3
420
    65280
370
    -3
100
AcDbCircle
 10
14.99826581265304
 20
6.903495246741492
 30
0.0
 40
3.62365
100
AcDbArc
 50
144.4340838727091
 51
158.1273859148689
  0
ARC
  5
2BB
330
1F
100
AcDbEntity
  8
working
  6
Continuous2
 62
     3
420
    65280
370
    -3
100
AcDbCircle
 10
11.6411603107802
 20
10.7129744417239
 30
0.0
 40
1.75039
100
AcDbArc
 50
253.5104667644989
 51
283.5282385722282
  0
ARC
  5
2BC
330
1F
100
AcDbEntity
  8
working
  6
Continuous2
 62
     3
420
    65280
370
    -3
100
AcDbCircle
 10
10.40717931461889
 20
8.026118121685512
 30
0.0
 40
1.25
100
AcDbArc
 50
305.045093670328
 51
321.8561738650134
  0
ARC
  5
2BD
330
1F
100
AcDbEntity
  8
working
  6
Continuous2
 62
     3
420
    65280
370
    -3
100
AcDbCircle
 10
14.99826581265304
 20
6.903495246741492
 30
0.0
 40
3.625
100
AcDbArc
 50
174.4502179943512
 51
180.4127865455542
  0
ARC
  5
2BE
330
1F
100
AcDbEntity
  8
working
  6
Continuous2
 62
     3
420
    65280
370
    -3
100
AcDbCircle
 10
10.9543712576555
 20
6.35594934189132
 30
0.0
 40
0.66891
100
AcDbArc
 50
51.21680555920545
 51
75.22533368849959
  0
ARC
  5
2BF
330
1F
100
AcDbEntity
  8
working
  6
Continuous2
 62
     3
420
    65280
370
    -3
100
AcDbCircle
 10
10.9543712576555
 20
6.35594934189132
 30
0.0
 40
0.66922
100
AcDbArc
 50
141.0048611767524
 51
234.7672778871807
  0
ARC
  5
2C0
330
1F
100
AcDbEntity
  8
working
  6
Continuous2
 62
     3
420
    65280
370
    -3
100
AcDbCircle
 10
10.58382625373532
 20
5.247454542028417
 30
0.0
 40
0.56208
100
AcDbArc
 50
91.58297877105754
 51
159.7300681315484
  0
ARC
  5
2C1
330
1F
100
AcDbEntity
  8
working
  6
Continuous2
 62
     3
420
    65280
370
    -3
100
AcDbCircle
 10
10.40717931461889
 20
8.026118121685512
 30
0.0
 40
1.24935
100
AcDbArc
 50
244.1031734826738
 51
271.2417482683578
  0
ARC
  5
2C2
330
1F
100
AcDbEntity
  8
working
  6
Continuous2
 62
     3
420
    65280
370
    -3
100
AcDbCircle
 10
5.122459525609326
 20
5.526134997250887
 30
0.0
 40
4.93481
100
AcDbArc
 50
359.0252307327589
 51
16.19180623167932
  0
ARC
  5
2C3
330
1F
100
AcDbEntity
  8
working
  6
Continuous2
 62
     3
420
    65280
370
    -3
100
AcDbCircle
 10
10.58382625373532
 20
5.247454542028417
 30
0.0
 40
0.5625
100
AcDbArc
 50
195.355300659624
 51
271.3675029881612
  0
ARC
  5
2C4
330
1F
100
AcDbEntity
  8
working
  6
Continuous2
 62
     3
420
    65280
370
    -3
100
AcDbCircle
 10
11.42592500801455
 20
2.660650707549824
 30
0.0
 40
2.1875
100
AcDbArc
 50
112.2607754369657
 51
134.9243692939747
  0
ARC
  5
2C5
330
1F
100
AcDbEntity
  8
working
  6
Continuous2
 62
     3
420
    65280
370
    -3
100
AcDbCircle
 10
5.122459525609326
 20
5.526134997250887
 30
0.0
 40
4.9375
100
AcDbArc
 50
344.5342174972436
 51
355.0314366909183
  0
ARC
  5
2C6
330
1F
100
AcDbEntity
  8
working
  6
Continuous2
 62
     3
420
    65280
370
    -3
100
AcDbCircle
 10
10.9543712576555
 20
6.35594934189132
 30
0.0
 40
0.66868
100
AcDbArc
 50
268.2636910748102
 51
324.2212495936043
  0
ARC
  5
2C7
330
1F
100
AcDbEntity
  8
working
  6
Continuous2
 62
     3
420
    65280
370
    -3
100
AcDbCircle
 10
14.99826581265304
 20
6.903495246741492
 30
0.0
 40
3.625
100
AcDbArc
 50
195.0045031651958
 51
216.5137175015201
  0
ARC
  5
2C8
330
1F
100
AcDbEntity
  8
working
  6
Continuous2
 62
     3
420
    65280
370
    -3
100
AcDbCircle
 10
11.42592500801455
 20
2.660650707549824
 30
0.0
 40
2.1875
100
AcDbArc
 50
72.47028025933251
 51
103.8031315829158
  0
ARC
  5
2C9
330
1F
100
AcDbEntity
  8
working
  6
Continuous2
 62
     3
420
    65280
370
    -3
100
AcDbCircle
 10
10.58382625373532
 20
5.247454542028417
 30
0.0
 40
0.5625
100
AcDbArc
 50
304.6964040317202
 51
51.48441401890099
  0
ARC
  5
2CA
330
1F
100
AcDbEntity
  8
working
  6
Continuous2
 62
     3
420
    65280
370
    -3
100
AcDbCircle
 10
14.99826581265304
 20
6.903495246741492
 30
0.0
 40
3.62247
100
AcDbArc
 50
243.2383303313663
 51
256.1066111539483
  0
ARC
  5
2CB
330
1F
100
AcDbEntity
  8
working
  6
Continuous2
 62
     3
420
    65280
370
    -3
100
AcDbCircle
 10
15.20105886385645
 20
1.926596902247232
 30
0.0
 40
1.81198
100
AcDbArc
 50
126.2956897298495
 51
151.4483582355938
  0
ARC
  5
2CC
330
1F
100
AcDbEntity
  8
working
  6
Continuous2
 62
     3
420
    65280
370
    -3
100
AcDbCircle
 10
11.42592500801455
 20
2.660650707549824
 30
0.0
 40
2.1875
100
AcDbArc
 50
3.459052723413329
 51
27.45017157422058
  0
ARC
  5
2CD
330
1F
100
AcDbEntity
  8
working
  6
Continuous2
 62
     3
420
    65280
370
    -3
100
AcDbCircle
 10
11.42592500801455
 20
2.660650707549824
 30
0.0
 40
2.18736
100
AcDbArc
 50
310.6018712574106
 51
334.4864236252082
  0
ARC
  5
2CE
330
1F
100
AcDbEntity
  8
working
  6
Continuous2
 62
     3
420
    65280
370
    -3
100
AcDbCircle
 10
15.20105886385645
 20
1.926596902247232
 30
0.0
 40
1.81306
100
AcDbArc
 50
186.590735677127
 51
210.7505714062218
  0
LINE
  5
2CF
330
1F
100
AcDbEntity
  8
working
  6
Continuous2
 62
     3
420
    65280
370
    -3
100
AcDbLine
 10
12.84945674019238
 20
0.9998975118332541
 30
0.0
 11
13.64291272044419
 21
0.9995763202915318
 31
0.0
  0
ARC
  5
2D0
330
1F
100
AcDbEntity
  8
working
  6
Continuous2
 62
     3
420
    65280
370
    -3
100
AcDbCircle
 10
14.99826581265304
 20
6.903495246741492
 30
0.0
 40
3.625
100
AcDbArc
 50
288.6154855147123
 51
320.058524621842
  0
ARC
  5
2D1
330
1F
100
AcDbEntity
  8
working
  6
Continuous2
 62
     3
420
    65280
370
    -3
100
AcDbCircle
 10
19.82053352275285
 20
3.991534762444264
 30
0.0
 40
2.125
100
AcDbArc
 50
164.0290653337532
 51
219.2524991892346
  0
ARC
  5
2D2
330
1F
100
AcDbEntity
  8
working
  6
Continuous2
 62
     3
420
    65280
370
    -3
100
AcDbCircle
 10
17.71069332068634
 20
1.688264150512222
 30
0.0
 40
1.06522
100
AcDbArc
 50
64.15831540746645
 51
136.0653828441963
  0
ARC
  5
2D3
330
1F
100
AcDbEntity
  8
working
  6
Continuous2
 62
     3
420
    65280
370
    -3
100
AcDbCircle
 10
15.20105886385645
 20
1.926596902247232
 30
0.0
 40
1.81306
100
AcDbArc
 50
16.03318316232268
 51
58.2386440020671
  0
ARC
  5
2D4
330
1F
100
AcDbEntity
  8
working
  6
Continuous2
 62
     3
420
    65280
370
    -3
100
AcDbCircle
 10
17.41162102714551
 20
16.55679948316841
 30
0.0
 40
6.58557
100
AcDbArc
 50
305.1215480311297
 51
78.18109176958808
  0
ARC
  5
2D5
330
1F
100
AcDbEntity
  8
working
  6
Continuous2
 62
     3
420
    65280
370
    -3
100
AcDbCircle
 10
20.94344693537549
 20
8.435404863461565
 30
0.0
 40
2.74688
100
AcDbArc
 50
273.097156823021
 51
84.63282479100714
  0
ARC
  5
2D6
330
1F
100
AcDbEntity
  8
working
  6
Continuous2
 62
     3
420
    65280
370
    -3
100
AcDbCircle
 10
19.82053352275285
 20
3.991534762444264
 30
0.0
 40
2.1236
100
AcDbArc
 50
337.1831221453492
 51
53.22564419951319
  0
ARC
  5
2D7
330
1F
100
AcDbEntity
  8
working
  6
Continuous2
 62
     3
420
    65280
370
    -3
100
AcDbCircle
 10
22.16192744694475
 20
1.912950360355529
 30
0.0
 40
1.3125
100
AcDbArc
 50
315.9059975734575
 51
107.0104981507457
  0
ARC
  5
2D8
330
1F
100
AcDbEntity
  8
working
  6
Continuous2
 62
     3
420
    65280
370
    -3
100
AcDbCircle
 10
17.41162102714551
 20
16.55679948316841
 30
0.0
 40
6.58565
100
AcDbArc
 50
265.5207444561431
 51
281.8879662908952
  0
ARC
  5
2D9
330
1F
100
AcDbEntity
  8
working
  6
Continuous2
 62
     3
420
    65280
370
    -3
100
AcDbCircle
 10
20.94344693537549
 20
8.435404863461565
 30
0.0
 40
2.74659
100
AcDbArc
 50
142.369102525157
 51
176.5648772494501
  0
ARC
  5
2DA
330
1F
100
AcDbEntity
  8
working
  6
Continuous2
 62
     3
420
    65280
370
    -3
100
AcDbCircle
 10
14.99826581265304
 20
6.903495246741492
 30
0.0
 40
3.625
100
AcDbArc
 50
27.9042032858163
 51
58.40780784448298
  0
ARC
  5
2DB
330
1F
100
AcDbEntity
  8
working
  6
Continuous2
 62
     3
420
    65280
370
    -3
100
AcDbCircle
 10
14.99826581265304
 20
6.903495246741492
 30
0.0
 40
3.62248
100
AcDbArc
 50
337.599494770873
 51
0.977917039983005
  0
ARC
  5
2DC
330
1F
100
AcDbEntity
  8
working
  6
Continuous2
 62
     3
420
    65280
370
    -3
100
AcDbCircle
 10
20.94344693537549
 20
8.435404863461565
 30
0.0
 40
2.74928
100
AcDbArc
 50
212.3246677984658
 51
238.4518990003903
  0
ARC
  5
2DD
330
1F
100
AcDbEntity
  8
working
  6
Continuous2
 62
     3
420
    65280
370
    -3
100
AcDbCircle
 10
19.82053352275285
 20
3.991534762444264
 30
0.0
 40
2.1245
100
AcDbArc
 50
98.54168310246811
 51
133.8682761072168
  0
ARC
  5
2DE
330
1F
100
AcDbEntity
  8
working
  6
Continuous2
 62
     3
420
    65280
370
    -3
100
AcDbCircle
 10
17.71069332068634
 20
1.688264150512222
 30
0.0
 40
1.06484
100
AcDbArc
 50
319.7326909043319
 51
30.86043607589328
  0
ARC
  5
2DF
330
1F
100
AcDbEntity
  8
working
  6
Continuous2
 62
     3
420
    65280
370
    -3
100
AcDbCircle
 10
19.82053352275285
 20
3.991534762444264
 30
0.0
 40
2.12535
100
AcDbArc
 50
235.7629294620722
 51
299.5831533217773
  0
ARC
  5
2E0
330
1F
100
AcDbEntity
  8
working
  6
Continuous2
 62
     3
420
    65280
370
    -3
100
AcDbCircle
 10
22.16192744694475
 20
1.912950360355529
 30
0.0
 40
1.3125
100
AcDbArc
 50
169.8944159449303
 51
224.0735515961408
  0
LINE
  5
2E1
330
1F
100
AcDbEntity
  8
working
  6
Continuous2
 62
     3
420
    65280
370
    -3
100
AcDbLine
 10
18.52320589580114
 20
1.0
 30
0.0
 11
21.21896515208523
 21
1.000000000000005
 31
0.0
  0
ENDSEC
  0
SECTION
  2
OBJECTS
  0
DICTIONARY
  5
C
330
0
100
AcDbDictionary
281
     1
  3
ACAD_GROUP
350
D
  3
ACAD_LAYOUT
350
1A
  3
ACAD_MATERIAL
350
3B
  3
ACAD_MLEADERSTYLE
350
303
  3
ACAD_MLINESTYLE
350
17
  3
ACAD_PLOTSETTINGS
350
19
  3
ACAD_PLOTSTYLENAME
350
E
  3
ACAD_TABLESTYLE
350
302
  3
ACAD_VISUALSTYLE
350
2A
  0
DICTIONARY
  5
D
102
{ACAD_REACTORS
330
C
102
}
330
C
100
AcDbDictionary
281
     1
  0
DICTIONARY
  5
1A
102
{ACAD_REACTORS
330
C
102
}
330
C
100
AcDbDictionary
281
     1
  3
Layout1
350
1E
  3
Layout2
350
26
  3
Model
350
22
  0
DICTIONARY
  5
3B
102
{ACAD_REACTORS
330
C
102
}
330
C
100
AcDbDictionary
281
     1
  3
ByBlock
350
3D
  3
ByLayer
350
3C
  3
Global
350
3E
  0
DICTIONARY
  5
303
102
{ACAD_REACTORS
330
C
102
}
330
C
100
AcDbDictionary
281
     1
  0
DICTIONARY
  5
17
102
{ACAD_REACTORS
330
C
102
}
330
C
100
AcDbDictionary
281
     1
  3
Standard
350
18
  0
DICTIONARY
  5
19
102
{ACAD_REACTORS
330
C
102
}
330
C
100
AcDbDictionary
281
     1
  0
ACDBDICTIONARYWDFLT
  5
E
102
{ACAD_REACTORS
330
C
102
}
330
C
100
AcDbDictionary
281
     1
  3
Normal
350
F
100
AcDbDictionaryWithDefault
340
F
  0
DICTIONARY
  5
302
102
{ACAD_REACTORS
330
C
102
}
330
C
100
AcDbDictionary
281
     1
  0
DICTIONARY
  5
2A
102
{ACAD_REACTORS
330
C
102
}
330
C
100
AcDbDictionary
281
     1
  3
2dWireframe
350
2F
  3
3D Hidden
350
31
  3
3dWireframe
350
30
  3
Basic
350
32
  3
Brighten
350
36
  3
ColorChange
350
3A
  3
Conceptual
350
34
  3
Dim
350
35
  3
Facepattern
350
39
  3
Flat
350
2B
  3
FlatWithEdges
350
2C
  3
Gouraud
350
2D
  3
GouraudWithEdges
350
2E
  3
Linepattern
350
38
  3
Realistic
350
33
  3
Thicken
350
37
  0
LAYOUT
  5
1E
102
{ACAD_REACTORS
330
1A
102
}
330
1A
100
AcDbPlotSettings
  1

  2
none_device
  4

  6

 40
0.0
 41
0.0
 42
0.0
 43
0.0
 44
0.0
 45
0.0
 46
0.0
 47
0.0
 48
0.0
 49
0.0
140
0.0
141
0.0
142
1.0
143
1.0
 70
   688
 72
     0
 73
     0
 74
     5
  7

 75
    16
 76
     0
 77
     2
 78
   300
147
1.0
148
0.0
149
0.0
100
AcDbLayout
  1
Layout1
 70
     1
 71
     1
 10
0.0
 20
0.0
 11
12.0
 21
9.0
 12
0.0
 22
0.0
 32
0.0
 14
1.000000000000000E+20
 24
1.000000000000000E+20
 34
1.000000000000000E+20
 15
-1.000000000000000E+20
 25
-1.000000000000000E+20
 35
-1.000000000000000E+20
146
0.0
 13
0.0
 23
0.0
 33
0.0
 16
1.0
 26
0.0
 36
0.0
 17
0.0
 27
1.0
 37
0.0
 76
     0
330
1B
  0
LAYOUT
  5
26
102
{ACAD_REACTORS
330
1A
102
}
330
1A
100
AcDbPlotSettings
  1

  2
none_device
  4

  6

 40
0.0
 41
0.0
 42
0.0
 43
0.0
 44
0.0
 45
0.0
 46
0.0
 47
0.0
 48
0.0
 49
0.0
140
0.0
141
0.0
142
1.0
143
1.0
 70
   688
 72
     0
 73
     0
 74
     5
  7

 75
    16
 76
     0
 77
     2
 78
   300
147
1.0
148
0.0
149
0.0
100
AcDbLayout
  1
Layout2
 70
     1
 71
     2
 10
0.0
 20
0.0
 11
0.0
 21
0.0
 12
0.0
 22
0.0
 32
0.0
 14
0.0
 24
0.0
 34
0.0
 15
0.0
 25
0.0
 35
0.0
146
0.0
 13
0.0
 23
0.0
 33
0.0
 16
1.0
 26
0.0
 36
0.0
 17
0.0
 27
1.0
 37
0.0
 76
     0
330
23
  0
LAYOUT
  5
22
102
{ACAD_REACTORS
330
1A
102
}
330
1A
100
AcDbPlotSettings
  1

  2
none_device
  4

  6

 40
0.0
 41
0.0
 42
0.0
 43
0.0
 44
0.0
 45
0.0
 46
0.0
 47
0.0
 48
0.0
 49
0.0
140
0.0
141
0.0
142
1.0
143
1.0
 70
  1712
 72
     0
 73
     0
 74
     0
  7

 75
     0
 76
     0
 77
     2
 78
   300
147
1.0
148
0.0
149
0.0
100
AcDbLayout
  1
Model
 70
     1
 71
     0
 10
0.0
 20
0.0
 11
12.0
 21
9.0
 12
0.0
 22
0.0
 32
0.0
 14
0.0
 24
0.0
 34
0.0
 15
24.0
 25
24.0
 35
0.0
146
0.0
 13
0.0
 23
0.0
 33
0.0
 16
1.0
 26
0.0
 36
0.0
 17
0.0
 27
1.0
 37
0.0
 76
     0
330
1F
331
29
  0
MATERIAL
  5
3D
102
{ACAD_REACTORS
330
3B
102
}
330
3B
100
AcDbMaterial
  1
ByBlock
 72
     1
 94
      127
  0
MATERIAL
  5
3C
102
{ACAD_REACTORS
330
3B
102
}
330
3B
100
AcDbMaterial
  1
ByLayer
 72
     1
 94
      127
  0
MATERIAL
  5
3E
102
{ACAD_REACTORS
330
3B
102
}
330
3B
100
AcDbMaterial
  1
Global
 72
     1
 94
      127
  0
MLINESTYLE
  5
18
102
{ACAD_REACTORS
330
17
102
}
330
17
100
AcDbMlineStyle
  2
Standard
 70
     0
  3

 62
   256
 51
90.0
 52
90.0
 71
     2
 49
0.5
 62
   256
  6
BYLAYER
 49
-0.5
 62
   256
  6
BYLAYER
  0
ACDBPLACEHOLDER
  5
F
102
{ACAD_REACTORS
330
E
102
}
330
E
  0
VISUALSTYLE
  5
2F
102
{ACAD_REACTORS
330
2A
102
}
102
{ACAD_XDICTIONARY
360
2EA
102
}
330
2A
100
AcDbVisualStyle
  2
2dWireframe
 70
     4
 71
     0
 72
     2
 73
     0
 90
        0
 40
-0.6
 41
-30.0
 62
     5
 63
     7
421
 16777215
 74
     1
 91
        4
 64
     7
 65
   257
 75
     1
175
     1
 42
1.0
 92
        0
 66
   257
 43
1.0
 76
     1
 77
     6
 78
     2
 67
     7
 79
     5
170
     0
171
     0
290
     0
174
     0
 93
        1
 44
0.0
173
     0
291
     0
 45
0.0
  0
VISUALSTYLE
  5
31
102
{ACAD_REACTORS
330
2A
102
}
102
{ACAD_XDICTIONARY
360
2EE
102
}
330
2A
100
AcDbVisualStyle
  2
3D Hidden
 70
     6
 71
     1
 72
     2
 73
     2
 90
        0
 40
-0.6
 41
-30.0
 62
     5
 63
     7
421
 16777215
 74
     2
 91
        2
 64
     7
 65
   257
 75
     2
175
     1
 42
40.0
 92
        0
 66
   257
 43
1.0
 76
     1
 77
     6
 78
     2
 67
     7
 79
     3
170
     0
171
     0
290
     0
174
     0
 93
        1
 44
0.0
173
     0
291
     0
 45
0.0
  0
VISUALSTYLE
  5
30
102
{ACAD_REACTORS
330
2A
102
}
102
{ACAD_XDICTIONARY
360
2EC
102
}
330
2A
100
AcDbVisualStyle
  2
3dWireframe
 70
     5
 71
     0
 72
     2
 73
     0
 90
        0
 40
-0.6
 41
-30.0
 62
     5
 63
     7
421
 16777215
 74
     1
 91
        4
 64
     7
 65
   257
 75
     1
175
     1
 42
1.0
 92
        0
 66
   257
 43
1.0
 76
     1
 77
     6
 78
     2
 67
     7
 79
     5
170
     0
171
     0
290
     0
174
     0
 93
        1
 44
0.0
173
     0
291
     0
 45
0.0
  0
VISUALSTYLE
  5
32
102
{ACAD_REACTORS
330
2A
102
}
102
{ACAD_XDICTIONARY
360
2F0
102
}
330
2A
100
AcDbVisualStyle
  2
Basic
 70
     7
 71
     1
 72
     0
 73
     1
 90
        0
 40
-0.6
 41
-30.0
 62
     5
 63
     7
421
 16777215
 74
     0
 91
        4
 64
     7
 65
   257
 75
     1
175
     1
 42
1.0
 92
        8
 66
     7
 43
1.0
 76
     1
 77
     6
 78
     2
 67
     7
 79
     5
170
     0
171
     0
290
     0
174
     0
 93
        1
 44
0.0
173
     0
291
     1
 45
0.0
  0
VISUALSTYLE
  5
36
102
{ACAD_REACTORS
330
2A
102
}
102
{ACAD_XDICTIONARY
360
2F8
102
}
330
2A
100
AcDbVisualStyle
  2
Brighten
 70
    12
 71
     2
 72
     2
 73
     0
 90
        0
 40
-0.6
 41
-30.0
 62
     5
 63
     7
421
 16777215
 74
     1
 91
        4
 64
     7
 65
   257
 75
     1
175
     1
 42
1.0
 92
        8
 66
     7
 43
1.0
 76
     1
 77
     6
 78
     2
 67
     7
 79
     5
170
     0
171
     0
290
     0
174
     0
 93
        1
 44
50.0
173
     0
291
     1
 45
0.0
  0
VISUALSTYLE
  5
3A
102
{ACAD_REACTORS
330
2A
102
}
102
{ACAD_XDICTIONARY
360
300
102
}
330
2A
100
AcDbVisualStyle
  2
ColorChange
 70
    16
 71
     2
 72
     2
 73
     3
 90
        0
 40
-0.6
 41
-30.0
 62
     5
 63
     8
421
  8421504
 74
     1
 91
        4
 64
     7
 65
   257
 75
     1
175
     1
 42
1.0
 92
        8
 66
     8
424
  8421504
 43
1.0
 76
     1
 77
     6
 78
     2
 67
     7
 79
     5
170
     0
171
     0
290
     0
174
     0
 93
        1
 44
0.0
173
     0
291
     1
 45
0.0
  0
VISUALSTYLE
  5
34
102
{ACAD_REACTORS
330
2A
102
}
102
{ACAD_XDICTIONARY
360
2F4
102
}
330
2A
100
AcDbVisualStyle
  2
Conceptual
 70
     9
 71
     3
 72
     2
 73
     0
 90
        0
 40
-0.6
 41
-30.0
 62
     5
 63
     7
421
 16777215
 74
     2
 91
        2
 64
     7
 65
   257
 75
     1
175
     1
 42
40.0
 92
        8
 66
     7
 43
1.0
 76
     1
 77
     6
 78
     2
 67
     7
 79
     3
170
     0
171
     0
290
     0
174
     0
 93
        1
 44
0.0
173
     0
291
     0
 45
0.0
  0
VISUALSTYLE
  5
35
102
{ACAD_REACTORS
330
2A
102
}
102
{ACAD_XDICTIONARY
360
2F6
102
}
330
2A
100
AcDbVisualStyle
  2
Dim
 70
    11
 71
     2
 72
     2
 73
     0
 90
        0
 40
-0.6
 41
-30.0
 62
     5
 63
     7
421
 16777215
 74
     1
 91
        4
 64
     7
 65
   257
 75
     1
175
     1
 42
1.0
 92
        8
 66
     7
 43
1.0
 76
     1
 77
     6
 78
     2
 67
     7
 79
     5
170
     0
171
     0
290
     0
174
     0
 93
        1
 44
-50.0
173
     0
291
     1
 45
0.0
  0
VISUALSTYLE
  5
39
102
{ACAD_REACTORS
330
2A
102
}
102
{ACAD_XDICTIONARY
360
2FE
102
}
330
2A
100
AcDbVisualStyle
  2
Facepattern
 70
    15
 71
     2
 72
     2
 73
     0
 90
        0
 40
-0.6
 41
-30.0
 62
     5
 63
     7
421
 16777215
 74
     1
 91
        4
 64
     7
 65
   257
 75
     1
175
     1
 42
1.0
 92
        8
 66
     7
 43
1.0
 76
     1
 77
     6
 78
     2
 67
     7
 79
     5
170
     0
171
     0
290
     0
174
     0
 93
        1
 44
0.0
173
     0
291
     1
 45
0.0
  0
VISUALSTYLE
  5
2B
102
{ACAD_REACTORS
330
2A
102
}
102
{ACAD_XDICTIONARY
360
2E2
102
}
330
2A
100
AcDbVisualStyle
  2
Flat
 70
     0
 71
     2
 72
     1
 73
     1
 90
        2
 40
-0.6
 41
30.0
 62
     5
 63
     7
421
 16777215
 74
     0
 91
        4
 64
     7
 65
   257
 75
     1
175
     1
 42
1.0
 92
        8
 66
     7
 43
1.0
 76
     1
 77
     6
 78
     2
 67
     7
 79
     5
170
     0
171
     0
290
     0
174
     0
 93
       13
 44
0.0
173
     0
291
     1
 45
0.0
  0
VISUALSTYLE
  5
2C
102
{ACAD_REACTORS
330
2A
102
}
102
{ACAD_XDICTIONARY
360
2E4
102
}
330
2A
100
AcDbVisualStyle
  2
FlatWithEdges
 70
     1
 71
     2
 72
     1
 73
     1
 90
        2
 40
-0.6
 41
30.0
 62
     5
 63
     7
421
 16777215
 74
     1
 91
        4
 64
     7
 65
   257
 75
     1
175
     1
 42
1.0
 92
        0
 66
   257
 43
1.0
 76
     1
 77
     6
 78
     2
 67
     7
 79
     5
170
     0
171
     0
290
     0
174
     0
 93
       13
 44
0.0
173
     0
291
     1
 45
0.0
  0
VISUALSTYLE
  5
2D
102
{ACAD_REACTORS
330
2A
102
}
102
{ACAD_XDICTIONARY
360
2E6
102
}
330
2A
100
AcDbVisualStyle
  2
Gouraud
 70
     2
 71
     2
 72
     2
 73
     1
 90
        2
 40
-0.6
 41
30.0
 62
     5
 63
     7
421
 16777215
 74
     0
 91
        4
 64
     7
 65
   257
 75
     1
175
     1
 42
1.0
 92
        0
 66
     7
 43
1.0
 76
     1
 77
     6
 78
     2
 67
     7
 79
     5
170
     0
171
     0
290
     0
174
     0
 93
       13
 44
0.0
173
     0
291
     1
 45
0.0
  0
VISUALSTYLE
  5
2E
102
{ACAD_REACTORS
330
2A
102
}
102
{ACAD_XDICTIONARY
360
2E8
102
}
330
2A
100
AcDbVisualStyle
  2
GouraudWithEdges
 70
     3
 71
     2
 72
     2
 73
     1
 90
        2
 40
-0.6
 41
30.0
 62
     5
 63
     7
421
 16777215
 74
     1
 91
        4
 64
     7
 65
   257
 75
     1
175
     1
 42
1.0
 92
        0
 66
   257
 43
1.0
 76
     1
 77
     6
 78
     2
 67
     7
 79
     5
170
     0
171
     0
290
     0
174
     0
 93
       13
 44
0.0
173
     0
291
     1
 45
0.0
  0
VISUALSTYLE
  5
38
102
{ACAD_REACTORS
330
2A
102
}
102
{ACAD_XDICTIONARY
360
2FC
102
}
330
2A
100
AcDbVisualStyle
  2
Linepattern
 70
    14
 71
     2
 72
     2
 73
     0
 90
        0
 40
-0.6
 41
-30.0
 62
     5
 63
     7
421
 16777215
 74
     1
 91
        4
 64
     7
 65
   257
 75
     7
175
     7
 42
1.0
 92
        8
 66
     7
 43
1.0
 76
     1
 77
     6
 78
     2
 67
     7
 79
     5
170
     0
171
     0
290
     0
174
     0
 93
        1
 44
0.0
173
     0
291
     1
 45
0.0
  0
VISUALSTYLE
  5
33
102
{ACAD_REACTORS
330
2A
102
}
102
{ACAD_XDICTIONARY
360
2F2
102
}
330
2A
100
AcDbVisualStyle
  2
Realistic
 70
     8
 71
     2
 72
     2
 73
     0
 90
        0
 40
-0.6
 41
-30.0
 62
     5
 63
     7
421
 16777215
 74
     1
 91
        0
 64
     7
 65
   257
 75
     1
175
     1
 42
1.0
 92
        8
 66
     8
424
  7895160
 43
1.0
 76
     1
 77
     6
 78
     2
 67
     7
 79
     5
170
     0
171
     0
290
     0
174
     0
 93
       13
 44
0.0
173
     0
291
     0
 45
0.0
  0
VISUALSTYLE
  5
37
102
{ACAD_REACTORS
330
2A
102
}
102
{ACAD_XDICTIONARY
360
2FA
102
}
330
2A
100
AcDbVisualStyle
  2
Thicken
 70
    13
 71
     2
 72
     2
 73
     0
 90
        0
 40
-0.6
 41
-30.0
 62
     5
 63
     7
421
 16777215
 74
     1
 91
        4
 64
     7
 65
   257
 75
     1
175
     1
 42
1.0
 92
       12
 66
     7
 43
1.0
 76
     1
 77
     6
 78
     2
 67
     7
 79
     5
170
     0
171
     0
290
     0
174
     0
 93
        1
 44
0.0
173
     0
291
     1
 45
0.0
  0
DICTIONARY
  5
2EA
330
2F
100
AcDbDictionary
280
     1
281
     1
  3
ACAD_XREC_ROUNDTRIP
360
2EB
  0
DICTIONARY
  5
2EE
330
31
100
AcDbDictionary
280
     1
281
     1
  3
ACAD_XREC_ROUNDTRIP
360
2EF
  0
DICTIONARY
  5
2EC
330
30
100
AcDbDictionary
280
     1
281
     1
  3
ACAD_XREC_ROUNDTRIP
360
2ED
  0
DICTIONARY
  5
2F0
330
32
100
AcDbDictionary
280
     1
281
     1
  3
ACAD_XREC_ROUNDTRIP
360
2F1
  0
DICTIONARY
  5
2F8
330
36
100
AcDbDictionary
280
     1
281
     1
  3
ACAD_XREC_ROUNDTRIP
360
2F9
  0
DICTIONARY
  5
300
330
3A
100
AcDbDictionary
280
     1
281
     1
  3
ACAD_XREC_ROUNDTRIP
360
301
  0
DICTIONARY
  5
2F4
330
34
100
AcDbDictionary
280
     1
281
     1
  3
ACAD_XREC_ROUNDTRIP
360
2F5
  0
DICTIONARY
  5
2F6
330
35
100
AcDbDictionary
280
     1
281
     1
  3
ACAD_XREC_ROUNDTRIP
360
2F7
  0
DICTIONARY
  5
2FE
330
39
100
AcDbDictionary
280
     1
281
     1
  3
ACAD_XREC_ROUNDTRIP
360
2FF
  0
DICTIONARY
  5
2E2
330
2B
100
AcDbDictionary
280
     1
281
     1
  3
ACAD_XREC_ROUNDTRIP
360
2E3
  0
DICTIONARY
  5
2E4
330
2C
100
AcDbDictionary
280
     1
281
     1
  3
ACAD_XREC_ROUNDTRIP
360
2E5
  0
DICTIONARY
  5
2E6
330
2D
100
AcDbDictionary
280
     1
281
     1
  3
ACAD_XREC_ROUNDTRIP
360
2E7
  0
DICTIONARY
  5
2E8
330
2E
100
AcDbDictionary
280
     1
281
     1
  3
ACAD_XREC_ROUNDTRIP
360
2E9
  0
DICTIONARY
  5
2FC
330
38
100
AcDbDictionary
280
     1
281
     1
  3
ACAD_XREC_ROUNDTRIP
360
2FD
  0
DICTIONARY
  5
2F2
330
33
100
AcDbDictionary
280
     1
281
     1
  3
ACAD_XREC_ROUNDTRIP
360
2F3
  0
DICTIONARY
  5
2FA
330
37
100
AcDbDictionary
280
     1
281
     1
  3
ACAD_XREC_ROUNDTRIP
360
2FB
  0
XRECORD
  5
2EB
102
{ACAD_REACTORS
330
2EA
102
}
330
2EA
100
AcDbXrecord
280
     1
102
RTVSPropertyOp0
 70
     1
102
RTVSPropertyOp1
 70
     1
102
RTVSPropertyOp2
 70
     1
102
RTVSPropertyOp3
 70
     1
102
RTVSPropertyOp4
 70
     1
102
RTVSPropertyOp5
 70
     1
102
RTVSPropertyOp6
 70
     1
102
RTVSPropertyOp7
 70
     1
102
RTVSPropertyOp8
 70
     1
102
RTVSPropertyOp9
 70
     1
102
RTVSPropertyOp10
 70
     1
102
RTVSPropertyOp11
 70
     1
102
RTVSPropertyOp12
 70
     1
102
RTVSPropertyOp13
 70
     1
102
RTVSPropertyOp14
 70
     1
102
RTVSPropertyOp15
 70
     1
102
RTVSPropertyOp16
 70
     1
102
RTVSPropertyOp17
 70
     1
102
RTVSPropertyOp18
 70
     1
102
RTVSPropertyOp19
 70
     1
102
RTVSPropertyOp20
 70
     1
102
RTVSPropertyOp21
 70
     1
102
RTVSPropertyOp22
 70
     1
102
RTVSPropertyOp23
 70
     1
102
RTVSPropertyOp24
 70
     1
102
RTVSPropertyOp25
 70
     1
102
RTVSPropertyOp26
 70
     1
102
RTVSPropertyOp27
 70
     1
  0
XRECORD
  5
2EF
102
{ACAD_REACTORS
330
2EE
102
}
330
2EE
100
AcDbXrecord
280
     1
102
RTVSPropertyOp0
 70
     1
102
RTVSPropertyOp1
 70
     1
102
RTVSPropertyOp2
 70
     1
102
RTVSPropertyOp3
 70
     1
102
RTVSPropertyOp4
 70
     1
102
RTVSPropertyOp5
 70
     1
102
RTVSPropertyOp6
 70
     1
102
RTVSPropertyOp7
 70
     1
102
RTVSPropertyOp8
 70
     1
102
RTVSPropertyOp9
 70
     1
102
RTVSPropertyOp10
 70
     1
102
RTVSPropertyOp11
 70
     1
102
RTVSPropertyOp12
 70
     1
102
RTVSPropertyOp13
 70
     1
102
RTVSPropertyOp14
 70
     1
102
RTVSPropertyOp15
 70
     1
102
RTVSPropertyOp16
 70
     1
102
RTVSPropertyOp17
 70
     1
102
RTVSPropertyOp18
 70
     1
102
RTVSPropertyOp19
 70
     1
102
RTVSPropertyOp20
 70
     1
102
RTVSPropertyOp21
 70
     1
102
RTVSPropertyOp22
 70
     1
102
RTVSPropertyOp23
 70
     1
102
RTVSPropertyOp24
 70
     1
102
RTVSPropertyOp25
 70
     1
102
RTVSPropertyOp26
 70
     1
102
RTVSPropertyOp27
 70
     1
  0
XRECORD
  5
2ED
102
{ACAD_REACTORS
330
2EC
102
}
330
2EC
100
AcDbXrecord
280
     1
102
RTVSPropertyOp0
 70
     1
102
RTVSPropertyOp1
 70
     1
102
RTVSPropertyOp2
 70
     1
102
RTVSPropertyOp3
 70
     1
102
RTVSPropertyOp4
 70
     1
102
RTVSPropertyOp5
 70
     1
102
RTVSPropertyOp6
 70
     1
102
RTVSPropertyOp7
 70
     1
102
RTVSPropertyOp8
 70
     1
102
RTVSPropertyOp9
 70
     1
102
RTVSPropertyOp10
 70
     1
102
RTVSPropertyOp11
 70
     1
102
RTVSPropertyOp12
 70
     1
102
RTVSPropertyOp13
 70
     1
102
RTVSPropertyOp14
 70
     1
102
RTVSPropertyOp15
 70
     1
102
RTVSPropertyOp16
 70
     1
102
RTVSPropertyOp17
 70
     1
102
RTVSPropertyOp18
 70
     1
102
RTVSPropertyOp19
 70
     1
102
RTVSPropertyOp20
 70
     1
102
RTVSPropertyOp21
 70
     1
102
RTVSPropertyOp22
 70
     1
102
RTVSPropertyOp23
 70
     1
102
RTVSPropertyOp24
 70
     1
102
RTVSPropertyOp25
 70
     1
102
RTVSPropertyOp26
 70
     1
102
RTVSPropertyOp27
 70
     1
  0
XRECORD
  5
2F1
102
{ACAD_REACTORS
330
2F0
102
}
330
2F0
100
AcDbXrecord
280
     1
102
RTVSPropertyOp0
 70
     1
102
RTVSPropertyOp1
 70
     1
102
RTVSPropertyOp2
 70
     1
102
RTVSPropertyOp3
 70
     1
102
RTVSPropertyOp4
 70
     1
102
RTVSPropertyOp5
 70
     1
102
RTVSPropertyOp6
 70
     1
102
RTVSPropertyOp7
 70
     1
102
RTVSPropertyOp8
 70
     1
102
RTVSPropertyOp9
 70
     1
102
RTVSPropertyOp10
 70
     1
102
RTVSPropertyOp11
 70
     1
102
RTVSPropertyOp12
 70
     1
102
RTVSPropertyOp13
 70
     1
102
RTVSPropertyOp14
 70
     1
102
RTVSPropertyOp15
 70
     1
102
RTVSPropertyOp16
 70
     1
102
RTVSPropertyOp17
 70
     1
102
RTVSPropertyOp18
 70
     1
102
RTVSPropertyOp19
 70
     1
102
RTVSPropertyOp20
 70
     1
102
RTVSPropertyOp21
 70
     1
102
RTVSPropertyOp22
 70
     1
102
RTVSPropertyOp23
 70
     1
102
RTVSPropertyOp24
 70
     1
102
RTVSPropertyOp25
 70
     1
102
RTVSPropertyOp26
 70
     1
102
RTVSPropertyOp27
 70
     1
  0
XRECORD
  5
2F9
102
{ACAD_REACTORS
330
2F8
102
}
330
2F8
100
AcDbXrecord
280
     1
102
RTVSPropertyOp0
 70
     1
102
RTVSPropertyOp1
 70
     1
102
RTVSPropertyOp2
 70
     1
102
RTVSPropertyOp3
 70
     1
102
RTVSPropertyOp4
 70
     1
102
RTVSPropertyOp5
 70
     1
102
RTVSPropertyOp6
 70
     1
102
RTVSPropertyOp7
 70
     1
102
RTVSPropertyOp8
 70
     1
102
RTVSPropertyOp9
 70
     1
102
RTVSPropertyOp10
 70
     1
102
RTVSPropertyOp11
 70
     1
102
RTVSPropertyOp12
 70
     1
102
RTVSPropertyOp13
 70
     1
102
RTVSPropertyOp14
 70
     1
102
RTVSPropertyOp15
 70
     1
102
RTVSPropertyOp16
 70
     1
102
RTVSPropertyOp17
 70
     1
102
RTVSPropertyOp18
 70
     1
102
RTVSPropertyOp19
 70
     1
102
RTVSPropertyOp20
 70
     1
102
RTVSPropertyOp21
 70
     1
102
RTVSPropertyOp22
 70
     1
102
RTVSPropertyOp23
 70
     1
102
RTVSPropertyOp24
 70
     1
102
RTVSPropertyOp25
 70
     1
102
RTVSPropertyOp26
 70
     1
102
RTVSPropertyOp27
 70
     1
  0
XRECORD
  5
301
102
{ACAD_REACTORS
330
300
102
}
330
300
100
AcDbXrecord
280
     1
102
RTVSPropertyOp0
 70
     1
102
RTVSPropertyOp1
 70
     1
102
RTVSPropertyOp2
 70
     1
102
RTVSPropertyOp3
 70
     1
102
RTVSPropertyOp4
 70
     1
102
RTVSPropertyOp5
 70
     1
102
RTVSPropertyOp6
 70
     1
102
RTVSPropertyOp7
 70
     1
102
RTVSPropertyOp8
 70
     1
102
RTVSPropertyOp9
 70
     1
102
RTVSPropertyOp10
 70
     1
102
RTVSPropertyOp11
 70
     1
102
RTVSPropertyOp12
 70
     1
102
RTVSPropertyOp13
 70
     1
102
RTVSPropertyOp14
 70
     1
102
RTVSPropertyOp15
 70
     1
102
RTVSPropertyOp16
 70
     1
102
RTVSPropertyOp17
 70
     1
102
RTVSPropertyOp18
 70
     1
102
RTVSPropertyOp19
 70
     1
102
RTVSPropertyOp20
 70
     1
102
RTVSPropertyOp21
 70
     1
102
RTVSPropertyOp22
 70
     1
102
RTVSPropertyOp23
 70
     1
102
RTVSPropertyOp24
 70
     1
102
RTVSPropertyOp25
 70
     1
102
RTVSPropertyOp26
 70
     1
102
RTVSPropertyOp27
 70
     1
  0
XRECORD
  5
2F5
102
{ACAD_REACTORS
330
2F4
102
}
330
2F4
100
AcDbXrecord
280
     1
102
RTVSPropertyOp0
 70
     1
102
RTVSPropertyOp1
 70
     1
102
RTVSPropertyOp2
 70
     1
102
RTVSPropertyOp3
 70
     1
102
RTVSPropertyOp4
 70
     1
102
RTVSPropertyOp5
 70
     1
102
RTVSPropertyOp6
 70
     1
102
RTVSPropertyOp7
 70
     1
102
RTVSPropertyOp8
 70
     1
102
RTVSPropertyOp9
 70
     1
102
RTVSPropertyOp10
 70
     1
102
RTVSPropertyOp11
 70
     1
102
RTVSPropertyOp12
 70
     1
102
RTVSPropertyOp13
 70
     1
102
RTVSPropertyOp14
 70
     1
102
RTVSPropertyOp15
 70
     1
102
RTVSPropertyOp16
 70
     1
102
RTVSPropertyOp17
 70
     1
102
RTVSPropertyOp18
 70
     1
102
RTVSPropertyOp19
 70
     1
102
RTVSPropertyOp20
 70
     1
102
RTVSPropertyOp21
 70
     1
102
RTVSPropertyOp22
 70
     1
102
RTVSPropertyOp23
 70
     1
102
RTVSPropertyOp24
 70
     1
102
RTVSPropertyOp25
 70
     1
102
RTVSPropertyOp26
 70
     1
102
RTVSPropertyOp27
 70
     1
  0
XRECORD
  5
2F7
102
{ACAD_REACTORS
330
2F6
102
}
330
2F6
100
AcDbXrecord
280
     1
102
RTVSPropertyOp0
 70
     1
102
RTVSPropertyOp1
 70
     1
102
RTVSPropertyOp2
 70
     1
102
RTVSPropertyOp3
 70
     1
102
RTVSPropertyOp4
 70
     1
102
RTVSPropertyOp5
 70
     1
102
RTVSPropertyOp6
 70
     1
102
RTVSPropertyOp7
 70
     1
102
RTVSPropertyOp8
 70
     1
102
RTVSPropertyOp9
 70
     1
102
RTVSPropertyOp10
 70
     1
102
RTVSPropertyOp11
 70
     1
102
RTVSPropertyOp12
 70
     1
102
RTVSPropertyOp13
 70
     1
102
RTVSPropertyOp14
 70
     1
102
RTVSPropertyOp15
 70
     1
102
RTVSPropertyOp16
 70
     1
102
RTVSPropertyOp17
 70
     1
102
RTVSPropertyOp18
 70
     1
102
RTVSPropertyOp19
 70
     1
102
RTVSPropertyOp20
 70
     1
102
RTVSPropertyOp21
 70
     1
102
RTVSPropertyOp22
 70
     1
102
RTVSPropertyOp23
 70
     1
102
RTVSPropertyOp24
 70
     1
102
RTVSPropertyOp25
 70
     1
102
RTVSPropertyOp26
 70
     1
102
RTVSPropertyOp27
 70
     1
  0
XRECORD
  5
2FF
102
{ACAD_REACTORS
330
2FE
102
}
330
2FE
100
AcDbXrecord
280
     1
102
RTVSPropertyOp0
 70
     1
102
RTVSPropertyOp1
 70
     1
102
RTVSPropertyOp2
 70
     1
102
RTVSPropertyOp3
 70
     1
102
RTVSPropertyOp4
 70
     1
102
RTVSPropertyOp5
 70
     1
102
RTVSPropertyOp6
 70
     1
102
RTVSPropertyOp7
 70
     1
102
RTVSPropertyOp8
 70
     1
102
RTVSPropertyOp9
 70
     1
102
RTVSPropertyOp10
 70
     1
102
RTVSPropertyOp11
 70
     1
102
RTVSPropertyOp12
 70
     1
102
RTVSPropertyOp13
 70
     1
102
RTVSPropertyOp14
 70
     1
102
RTVSPropertyOp15
 70
     1
102
RTVSPropertyOp16
 70
     1
102
RTVSPropertyOp17
 70
     1
102
RTVSPropertyOp18
 70
     1
102
RTVSPropertyOp19
 70
     1
102
RTVSPropertyOp20
 70
     1
102
RTVSPropertyOp21
 70
     1
102
RTVSPropertyOp22
 70
     1
102
RTVSPropertyOp23
 70
     1
102
RTVSPropertyOp24
 70
     1
102
RTVSPropertyOp25
 70
     1
102
RTVSPropertyOp26
 70
     1
102
RTVSPropertyOp27
 70
     1
  0
XRECORD
  5
2E3
102
{ACAD_REACTORS
330
2E2
102
}
330
2E2
100
AcDbXrecord
280
     1
102
RTVSPropertyOp0
 70
     1
102
RTVSPropertyOp1
 70
     1
102
RTVSPropertyOp2
 70
     1
102
RTVSPropertyOp3
 70
     1
102
RTVSPropertyOp4
 70
     1
102
RTVSPropertyOp5
 70
     1
102
RTVSPropertyOp6
 70
     1
102
RTVSPropertyOp7
 70
     1
102
RTVSPropertyOp8
 70
     1
102
RTVSPropertyOp9
 70
     1
102
RTVSPropertyOp10
 70
     1
102
RTVSPropertyOp11
 70
     1
102
RTVSPropertyOp12
 70
     1
102
RTVSPropertyOp13
 70
     1
102
RTVSPropertyOp14
 70
     1
102
RTVSPropertyOp15
 70
     1
102
RTVSPropertyOp16
 70
     1
102
RTVSPropertyOp17
 70
     1
102
RTVSPropertyOp18
 70
     1
102
RTVSPropertyOp19
 70
     1
102
RTVSPropertyOp20
 70
     1
102
RTVSPropertyOp21
 70
     1
102
RTVSPropertyOp22
 70
     1
102
RTVSPropertyOp23
 70
     1
102
RTVSPropertyOp24
 70
     1
102
RTVSPropertyOp25
 70
     1
102
RTVSPropertyOp26
 70
     1
102
RTVSPropertyOp27
 70
     1
  0
XRECORD
  5
2E5
102
{ACAD_REACTORS
330
2E4
102
}
330
2E4
100
AcDbXrecord
280
     1
102
RTVSPropertyOp0
 70
     1
102
RTVSPropertyOp1
 70
     1
102
RTVSPropertyOp2
 70
     1
102
RTVSPropertyOp3
 70
     1
102
RTVSPropertyOp4
 70
     1
102
RTVSPropertyOp5
 70
     1
102
RTVSPropertyOp6
 70
     1
102
RTVSPropertyOp7
 70
     1
102
RTVSPropertyOp8
 70
     1
102
RTVSPropertyOp9
 70
     1
102
RTVSPropertyOp10
 70
     1
102
RTVSPropertyOp11
 70
     1
102
RTVSPropertyOp12
 70
     1
102
RTVSPropertyOp13
 70
     1
102
RTVSPropertyOp14
 70
     1
102
RTVSPropertyOp15
 70
     1
102
RTVSPropertyOp16
 70
     1
102
RTVSPropertyOp17
 70
     1
102
RTVSPropertyOp18
 70
     1
102
RTVSPropertyOp19
 70
     1
102
RTVSPropertyOp20
 70
     1
102
RTVSPropertyOp21
 70
     1
102
RTVSPropertyOp22
 70
     1
102
RTVSPropertyOp23
 70
     1
102
RTVSPropertyOp24
 70
     1
102
RTVSPropertyOp25
 70
     1
102
RTVSPropertyOp26
 70
     1
102
RTVSPropertyOp27
 70
     1
  0
XRECORD
  5
2E7
102
{ACAD_REACTORS
330
2E6
102
}
330
2E6
100
AcDbXrecord
280
     1
102
RTVSPropertyOp0
 70
     1
102
RTVSPropertyOp1
 70
     1
102
RTVSPropertyOp2
 70
     1
102
RTVSPropertyOp3
 70
     1
102
RTVSPropertyOp4
 70
     1
102
RTVSPropertyOp5
 70
     1
102
RTVSPropertyOp6
 70
     1
102
RTVSPropertyOp7
 70
     1
102
RTVSPropertyOp8
 70
     1
102
RTVSPropertyOp9
 70
     1
102
RTVSPropertyOp10
 70
     1
102
RTVSPropertyOp11
 70
     1
102
RTVSPropertyOp12
 70
     1
102
RTVSPropertyOp13
 70
     1
102
RTVSPropertyOp14
 70
     1
102
RTVSPropertyOp15
 70
     1
102
RTVSPropertyOp16
 70
     1
102
RTVSPropertyOp17
 70
     1
102
RTVSPropertyOp18
 70
     1
102
RTVSPropertyOp19
 70
     1
102
RTVSPropertyOp20
 70
     1
102
RTVSPropertyOp21
 70
     1
102
RTVSPropertyOp22
 70
     1
102
RTVSPropertyOp23
 70
     1
102
RTVSPropertyOp24
 70
     1
102
RTVSPropertyOp25
 70
     1
102
RTVSPropertyOp26
 70
     1
102
RTVSPropertyOp27
 70
     1
  0
XRECORD
  5
2E9
102
{ACAD_REACTORS
330
2E8
102
}
330
2E8
100
AcDbXrecord
280
     1
102
RTVSPropertyOp0
 70
     1
102
RTVSPropertyOp1
 70
     1
102
RTVSPropertyOp2
 70
     1
102
RTVSPropertyOp3
 70
     1
102
RTVSPropertyOp4
 70
     1
102
RTVSPropertyOp5
 70
     1
102
RTVSPropertyOp6
 70
     1
102
RTVSPropertyOp7
 70
     1
102
RTVSPropertyOp8
 70
     1
102
RTVSPropertyOp9
 70
     1
102
RTVSPropertyOp10
 70
     1
102
RTVSPropertyOp11
 70
     1
102
RTVSPropertyOp12
 70
     1
102
RTVSPropertyOp13
 70
     1
102
RTVSPropertyOp14
 70
     1
102
RTVSPropertyOp15
 70
     1
102
RTVSPropertyOp16
 70
     1
102
RTVSPropertyOp17
 70
     1
102
RTVSPropertyOp18
 70
     1
102
RTVSPropertyOp19
 70
     1
102
RTVSPropertyOp20
 70
     1
102
RTVSPropertyOp21
 70
     1
102
RTVSPropertyOp22
 70
     1
102
RTVSPropertyOp23
 70
     1
102
RTVSPropertyOp24
 70
     1
102
RTVSPropertyOp25
 70
     1
102
RTVSPropertyOp26
 70
     1
102
RTVSPropertyOp27
 70
     1
  0
XRECORD
  5
2FD
102
{ACAD_REACTORS
330
2FC
102
}
330
2FC
100
AcDbXrecord
280
     1
102
RTVSPropertyOp0
 70
     1
102
RTVSPropertyOp1
 70
     1
102
RTVSPropertyOp2
 70
     1
102
RTVSPropertyOp3
 70
     1
102
RTVSPropertyOp4
 70
     1
102
RTVSPropertyOp5
 70
     1
102
RTVSPropertyOp6
 70
     1
102
RTVSPropertyOp7
 70
     1
102
RTVSPropertyOp8
 70
     1
102
RTVSPropertyOp9
 70
     1
102
RTVSPropertyOp10
 70
     1
102
RTVSPropertyOp11
 70
     1
102
RTVSPropertyOp12
 70
     1
102
RTVSPropertyOp13
 70
     1
102
RTVSPropertyOp14
 70
     1
102
RTVSPropertyOp15
 70
     1
102
RTVSPropertyOp16
 70
     1
102
RTVSPropertyOp17
 70
     1
102
RTVSPropertyOp18
 70
     1
102
RTVSPropertyOp19
 70
     1
102
RTVSPropertyOp20
 70
     1
102
RTVSPropertyOp21
 70
     1
102
RTVSPropertyOp22
 70
     1
102
RTVSPropertyOp23
 70
     1
102
RTVSPropertyOp24
 70
     1
102
RTVSPropertyOp25
 70
     1
102
RTVSPropertyOp26
 70
     1
102
RTVSPropertyOp27
 70
     1
  0
XRECORD
  5
2F3
102
{ACAD_REACTORS
330
2F2
102
}
330
2F2
100
AcDbXrecord
280
     1
102
RTVSPropertyOp0
 70
     1
102
RTVSPropertyOp1
 70
     1
102
RTVSPropertyOp2
 70
     1
102
RTVSPropertyOp3
 70
     1
102
RTVSPropertyOp4
 70
     1
102
RTVSPropertyOp5
 70
     1
102
RTVSPropertyOp6
 70
     1
102
RTVSPropertyOp7
 70
     1
102
RTVSPropertyOp8
 70
     1
102
RTVSPropertyOp9
 70
     1
102
RTVSPropertyOp10
 70
     1
102
RTVSPropertyOp11
 70
     1
102
RTVSPropertyOp12
 70
     1
102
RTVSPropertyOp13
 70
     1
102
RTVSPropertyOp14
 70
     1
102
RTVSPropertyOp15
 70
     1
102
RTVSPropertyOp16
 70
     1
102
RTVSPropertyOp17
 70
     1
102
RTVSPropertyOp18
 70
     1
102
RTVSPropertyOp19
 70
     1
102
RTVSPropertyOp20
 70
     1
102
RTVSPropertyOp21
 70
     1
102
RTVSPropertyOp22
 70
     1
102
RTVSPropertyOp23
 70
     1
102
RTVSPropertyOp24
 70
     1
102
RTVSPropertyOp25
 70
     1
102
RTVSPropertyOp26
 70
     1
102
RTVSPropertyOp27
 70
     1
  0
XRECORD
  5
2FB
102
{ACAD_REACTORS
330
2FA
102
}
330
2FA
100
AcDbXrecord
280
     1
102
RTVSPropertyOp0
 70
     1
102
RTVSPropertyOp1
 70
     1
102
RTVSPropertyOp2
 70
     1
102
RTVSPropertyOp3
 70
     1
102
RTVSPropertyOp4
 70
     1
102
RTVSPropertyOp5
 70
     1
102
RTVSPropertyOp6
 70
     1
102
RTVSPropertyOp7
 70
     1
102
RTVSPropertyOp8
 70
     1
102
RTVSPropertyOp9
 70
     1
102
RTVSPropertyOp10
 70
     1
102
RTVSPropertyOp11
 70
     1
102
RTVSPropertyOp12
 70
     1
102
RTVSPropertyOp13
 70
     1
102
RTVSPropertyOp14
 70
     1
102
RTVSPropertyOp15
 70
     1
102
RTVSPropertyOp16
 70
     1
102
RTVSPropertyOp17
 70
     1
102
RTVSPropertyOp18
 70
     1
102
RTVSPropertyOp19
 70
     1
102
RTVSPropertyOp20
 70
     1
102
RTVSPropertyOp21
 70
     1
102
RTVSPropertyOp22
 70
     1
102
RTVSPropertyOp23
 70
     1
102
RTVSPropertyOp24
 70
     1
102
RTVSPropertyOp25
 70
     1
102
RTVSPropertyOp26
 70
     1
102
RTVSPropertyOp27
 70
     1
  0
ENDSEC
  0
EOF
