  0
SECTION
  2
HEADER
  9
$ACADVER
  1
AC1021
  9
$DWGCODEPAGE
  3
ANSI_1252
  9
$EXTMAX
 10
1000.0
 20
843.75
 30
0.0
  9
$EXTMIN
 10
0.0
 20
0.0
 30
0.0
  9
$LIMMIN
 10
0.0
 20
0.0
  9
$LIMMAX
 10
1000.0
 20
843.75
  9
$VIEWCTR
 10
500.0
 20
421.875
  9
$VIEWSIZE
 40
843.75
  9
$CLAYER
  8
0
  9
$LTSCALE
 40
65.1851851852
  9
$CELTYPE
  6
BYLAYER
  9
$DIMSCALE
 40
1.0
  9
$DIMASZ
 40
0.1875
  9
$DIMEXO
 40
0.0625
  9
$DIMDLI
 40
38.0
  9
$DIMEXE
 40
0.125
  9
$DIMCEN
 40
9.0
  9
$DIMLFAC
 40
1.0
  9
$DIMBLK
  1
_CLOSED
  9
$DIMTXT
 40
0.15625
  9
$DIMDSEP
 70
46
  9
$PDMODE
 70
0
  9
$PDSIZE
 40
0.3125
  9
$HANDSEED
  5
4EB
  9
$TILEMODE
 70
1
  9
$MEASUREMENT
 70
0
  9
$INSUNITS
 70
1
  0
ENDSEC
  0
SECTION
  2
CLASSES
  0
CLASS
  1
ACDBDICTIONARYWDFLT
  2
AcDbDictionaryWithDefault
  3
AutoCAD 2000
 90
0
 91
1
280
0
281
0
  0
CLASS
  1
ACDBPLACEHOLDER
  2
AcDbPlaceHolder
  3
AutoCAD 2000
 90
0
 91
1
280
0
281
0
  0
CLASS
  1
LAYOUT
  2
AcDbLayout
  3
AutoCAD 2000
 90
0
 91
0
280
0
281
0
  0
ENDSEC
  0
SECTION
  2
TABLES
  0
TABLE
  2
VPORT
  5
8
100
AcDbSymbolTable
 70
2
  0
VPORT
  5
1F4
100
AcDbSymbolTableRecord
100
AcDbViewportTableRecord
  2
*ACTIVE
 70
0
 10
0.0
 20
0.0
 11
1.0
 21
1.0
 12
500.0
 22
421.875
 13
0.0
 23
0.0
 14
1.0
 24
1.0
 15
0.0
 25
0.0
 16
0.0
 26
0.0
 36
1.0
 17
0.0
 27
0.0
 37
0.0
 40
843.75
 41
1.1851851852
 42
50.0
 43
0.0
 44
0.0
 50
0.0
 51
0.0
 71
0
 72
100
 73
1
 74
1
 75
0
 76
0
 77
0
 78
0
  0
ENDTAB
  0
TABLE
  2
LTYPE
  5
5
100
AcDbSymbolTable
 70
6
  0
LTYPE
  5
14
100
AcDbSymbolTableRecord
100
AcDbLinetypeTableRecord
  2
BYBLOCK
 70
0
  3

 72
65
 73
0
 40
0.0
  0
LTYPE
  5
15
100
AcDbSymbolTableRecord
100
AcDbLinetypeTableRecord
  2
BYLAYER
 70
0
  3

 72
65
 73
0
 40
0.0
  0
LTYPE
  5
16
100
AcDbSymbolTableRecord
100
AcDbLinetypeTableRecord
  2
CONTINUOUS
 70
64
  3
Solid line
 72
65
 73
0
 40
0.0
  0
LTYPE
  5
1F5
100
AcDbSymbolTableRecord
100
AcDbLinetypeTableRecord
  2
CENTER
 70
64
  3
____ _ ____ _ ____ _ ____ _ ____ _ ____ _ ____
 72
65
 73
4
 40
0.6
 49
0.375
 74
0
 49
-0.075
 74
0
 49
0.075
 74
0
 49
-0.075
 74
0
  0
LTYPE
  5
1F6
100
AcDbSymbolTableRecord
100
AcDbLinetypeTableRecord
  2
HIDDEN
 70
64
  3
- - - - - - - - - - - - - - - - - - - -
 72
65
 73
2
 40
0.2
 49
0.1
 74
0
 49
-0.1
 74
0
  0
LTYPE
  5
1F7
100
AcDbSymbolTableRecord
100
AcDbLinetypeTableRecord
  2
PHANTOM
 70
64
  3
_____ _ _ _____ _ _ _____ _ _ _____
 72
65
 73
6
 40
0.8
 49
0.45
 74
0
 49
-0.05
 74
0
 49
0.1
 74
0
 49
-0.05
 74
0
 49
0.1
 74
0
 49
-0.05
 74
0
  0
LTYPE
  5
1F8
100
AcDbSymbolTableRecord
100
AcDbLinetypeTableRecord
  2
DOT
 70
64
  3
. . . . . . . . . . . . . . . . . . . .
 72
65
 73
2
 40
0.08
 49
0.0
 74
0
 49
-0.08
 74
0
  0
LTYPE
  5
1F9
100
AcDbSymbolTableRecord
100
AcDbLinetypeTableRecord
  2
DASHED
 70
64
  3
- - - - - - - - - - - - - - - - - - - -
 72
65
 73
2
 40
0.2
 49
0.1
 74
0
 49
-0.1
 74
0
  0
ENDTAB
  0
TABLE
  2
LAYER
  5
2
100
AcDbSymbolTable
 70
36
  0
LAYER
  5
10
100
AcDbSymbolTableRecord
100
AcDbLayerTableRecord
  2
0
 70
0
 62
7
  6
CONTINUOUS
370
-3
390
F
  0
LAYER
  5
1FA
100
AcDbSymbolTableRecord
100
AcDbLayerTableRecord
  2
DEFAULT_1
 70
0
 62
7
  6
CENTER
370
-3
390
F
  0
LAYER
  5
1FB
100
AcDbSymbolTableRecord
100
AcDbLayerTableRecord
  2
DEFAULT_2
 70
0
 62
8
  6
HIDDEN
370
-3
390
F
  0
LAYER
  5
1FC
100
AcDbSymbolTableRecord
100
AcDbLayerTableRecord
  2
DEFAULT_3
 70
0
 62
7
  6
PHANTOM
370
-3
390
F
  0
LAYER
  5
1FD
100
AcDbSymbolTableRecord
100
AcDbLayerTableRecord
  2
1
 70
0
 62
7
  6
CONTINUOUS
370
-3
390
F
  0
LAYER
  5
1FE
100
AcDbSymbolTableRecord
100
AcDbLayerTableRecord
  2
2
 70
0
 62
7
  6
CONTINUOUS
370
-3
390
F
  0
LAYER
  5
1FF
100
AcDbSymbolTableRecord
100
AcDbLayerTableRecord
  2
3
 70
0
 62
7
  6
CONTINUOUS
370
-3
390
F
  0
LAYER
  5
200
100
AcDbSymbolTableRecord
100
AcDbLayerTableRecord
  2
4
 70
0
 62
7
  6
CONTINUOUS
370
-3
390
F
  0
LAYER
  5
201
100
AcDbSymbolTableRecord
100
AcDbLayerTableRecord
  2
5
 70
0
 62
7
  6
CONTINUOUS
370
-3
390
F
  0
LAYER
  5
202
100
AcDbSymbolTableRecord
100
AcDbLayerTableRecord
  2
6
 70
0
 62
7
  6
CONTINUOUS
370
-3
390
F
  0
LAYER
  5
203
100
AcDbSymbolTableRecord
100
AcDbLayerTableRecord
  2
7
 70
0
 62
7
  6
CONTINUOUS
370
-3
390
F
  0
LAYER
  5
204
100
AcDbSymbolTableRecord
100
AcDbLayerTableRecord
  2
8
 70
0
 62
7
  6
CONTINUOUS
370
-3
390
F
  0
LAYER
  5
205
100
AcDbSymbolTableRecord
100
AcDbLayerTableRecord
  2
9
 70
0
 62
7
  6
CONTINUOUS
370
-3
390
F
  0
LAYER
  5
206
100
AcDbSymbolTableRecord
100
AcDbLayerTableRecord
  2
10
 70
0
 62
7
  6
CONTINUOUS
370
-3
390
F
  0
LAYER
  5
207
100
AcDbSymbolTableRecord
100
AcDbLayerTableRecord
  2
11
 70
0
 62
7
  6
CONTINUOUS
370
-3
390
F
  0
LAYER
  5
208
100
AcDbSymbolTableRecord
100
AcDbLayerTableRecord
  2
12
 70
0
 62
7
  6
CONTINUOUS
370
-3
390
F
  0
LAYER
  5
209
100
AcDbSymbolTableRecord
100
AcDbLayerTableRecord
  2
13
 70
0
 62
7
  6
CONTINUOUS
370
-3
390
F
  0
LAYER
  5
20A
100
AcDbSymbolTableRecord
100
AcDbLayerTableRecord
  2
14
 70
0
 62
7
  6
CONTINUOUS
370
-3
390
F
  0
LAYER
  5
20B
100
AcDbSymbolTableRecord
100
AcDbLayerTableRecord
  2
15
 70
0
 62
7
  6
CONTINUOUS
370
-3
390
F
  0
LAYER
  5
20C
100
AcDbSymbolTableRecord
100
AcDbLayerTableRecord
  2
16
 70
0
 62
7
  6
CONTINUOUS
370
-3
390
F
  0
LAYER
  5
20D
100
AcDbSymbolTableRecord
100
AcDbLayerTableRecord
  2
17
 70
0
 62
7
  6
CONTINUOUS
370
-3
390
F
  0
LAYER
  5
20E
100
AcDbSymbolTableRecord
100
AcDbLayerTableRecord
  2
18
 70
0
 62
7
  6
CONTINUOUS
370
-3
390
F
  0
LAYER
  5
20F
100
AcDbSymbolTableRecord
100
AcDbLayerTableRecord
  2
19
 70
0
 62
7
  6
CONTINUOUS
370
-3
390
F
  0
LAYER
  5
210
100
AcDbSymbolTableRecord
100
AcDbLayerTableRecord
  2
20
 70
0
 62
7
  6
CONTINUOUS
370
-3
390
F
  0
LAYER
  5
211
100
AcDbSymbolTableRecord
100
AcDbLayerTableRecord
  2
21
 70
0
 62
7
  6
CONTINUOUS
370
-3
390
F
  0
LAYER
  5
212
100
AcDbSymbolTableRecord
100
AcDbLayerTableRecord
  2
22
 70
0
 62
7
  6
CONTINUOUS
370
-3
390
F
  0
LAYER
  5
213
100
AcDbSymbolTableRecord
100
AcDbLayerTableRecord
  2
23
 70
0
 62
7
  6
CONTINUOUS
370
-3
390
F
  0
LAYER
  5
214
100
AcDbSymbolTableRecord
100
AcDbLayerTableRecord
  2
24
 70
0
 62
7
  6
CONTINUOUS
370
-3
390
F
  0
LAYER
  5
215
100
AcDbSymbolTableRecord
100
AcDbLayerTableRecord
  2
25
 70
0
 62
7
  6
CONTINUOUS
370
-3
390
F
  0
LAYER
  5
216
100
AcDbSymbolTableRecord
100
AcDbLayerTableRecord
  2
26
 70
0
 62
7
  6
CONTINUOUS
370
-3
390
F
  0
LAYER
  5
217
100
AcDbSymbolTableRecord
100
AcDbLayerTableRecord
  2
27
 70
0
 62
7
  6
CONTINUOUS
370
-3
390
F
  0
LAYER
  5
218
100
AcDbSymbolTableRecord
100
AcDbLayerTableRecord
  2
28
 70
0
 62
7
  6
CONTINUOUS
370
-3
390
F
  0
LAYER
  5
219
100
AcDbSymbolTableRecord
100
AcDbLayerTableRecord
  2
29
 70
0
 62
7
  6
CONTINUOUS
370
-3
390
F
  0
LAYER
  5
21A
100
AcDbSymbolTableRecord
100
AcDbLayerTableRecord
  2
30
 70
0
 62
7
  6
CONTINUOUS
370
-3
390
F
  0
LAYER
  5
21B
100
AcDbSymbolTableRecord
100
AcDbLayerTableRecord
  2
31
 70
0
 62
7
  6
CONTINUOUS
370
-3
390
F
  0
LAYER
  5
21C
100
AcDbSymbolTableRecord
100
AcDbLayerTableRecord
  2
32
 70
0
 62
7
  6
CONTINUOUS
370
-3
390
F
  0
LAYER
  5
21D
100
AcDbSymbolTableRecord
100
AcDbLayerTableRecord
  2
33
 70
0
 62
7
  6
CONTINUOUS
370
-3
390
F
  0
LAYER
  5
21E
100
AcDbSymbolTableRecord
100
AcDbLayerTableRecord
  2
34
 70
0
 62
7
  6
CONTINUOUS
370
-3
390
F
  0
LAYER
  5
21F
100
AcDbSymbolTableRecord
100
AcDbLayerTableRecord
  2
35
 70
0
 62
7
  6
CONTINUOUS
370
-3
390
F
  0
LAYER
  5
220
100
AcDbSymbolTableRecord
100
AcDbLayerTableRecord
  2
36
 70
0
 62
7
  6
CONTINUOUS
370
-3
390
F
  0
LAYER
  5
221
100
AcDbSymbolTableRecord
100
AcDbLayerTableRecord
  2
37
 70
0
 62
7
  6
CONTINUOUS
370
-3
390
F
  0
LAYER
  5
222
100
AcDbSymbolTableRecord
100
AcDbLayerTableRecord
  2
38
 70
0
 62
7
  6
CONTINUOUS
370
-3
390
F
  0
LAYER
  5
223
100
AcDbSymbolTableRecord
100
AcDbLayerTableRecord
  2
39
 70
0
 62
7
  6
CONTINUOUS
370
-3
390
F
  0
LAYER
  5
224
100
AcDbSymbolTableRecord
100
AcDbLayerTableRecord
  2
40
 70
0
 62
7
  6
CONTINUOUS
370
-3
390
F
  0
LAYER
  5
225
100
AcDbSymbolTableRecord
100
AcDbLayerTableRecord
  2
41
 70
0
 62
7
  6
CONTINUOUS
370
-3
390
F
  0
LAYER
  5
226
100
AcDbSymbolTableRecord
100
AcDbLayerTableRecord
  2
42
 70
0
 62
7
  6
CONTINUOUS
370
-3
390
F
  0
LAYER
  5
227
100
AcDbSymbolTableRecord
100
AcDbLayerTableRecord
  2
43
 70
0
 62
7
  6
CONTINUOUS
370
-3
390
F
  0
LAYER
  5
228
100
AcDbSymbolTableRecord
100
AcDbLayerTableRecord
  2
44
 70
0
 62
7
  6
CONTINUOUS
370
-3
390
F
  0
LAYER
  5
229
100
AcDbSymbolTableRecord
100
AcDbLayerTableRecord
  2
45
 70
0
 62
7
  6
CONTINUOUS
370
-3
390
F
  0
LAYER
  5
22A
100
AcDbSymbolTableRecord
100
AcDbLayerTableRecord
  2
46
 70
0
 62
7
  6
CONTINUOUS
370
-3
390
F
  0
LAYER
  5
22B
100
AcDbSymbolTableRecord
100
AcDbLayerTableRecord
  2
47
 70
0
 62
7
  6
CONTINUOUS
370
-3
390
F
  0
LAYER
  5
22C
100
AcDbSymbolTableRecord
100
AcDbLayerTableRecord
  2
48
 70
0
 62
7
  6
CONTINUOUS
370
-3
390
F
  0
LAYER
  5
22D
100
AcDbSymbolTableRecord
100
AcDbLayerTableRecord
  2
49
 70
0
 62
7
  6
CONTINUOUS
370
-3
390
F
  0
LAYER
  5
22E
100
AcDbSymbolTableRecord
100
AcDbLayerTableRecord
  2
50
 70
0
 62
7
  6
CONTINUOUS
370
-3
390
F
  0
LAYER
  5
22F
100
AcDbSymbolTableRecord
100
AcDbLayerTableRecord
  2
51
 70
0
 62
7
  6
CONTINUOUS
370
-3
390
F
  0
LAYER
  5
230
100
AcDbSymbolTableRecord
100
AcDbLayerTableRecord
  2
52
 70
0
 62
7
  6
CONTINUOUS
370
-3
390
F
  0
LAYER
  5
231
100
AcDbSymbolTableRecord
100
AcDbLayerTableRecord
  2
53
 70
0
 62
7
  6
CONTINUOUS
370
-3
390
F
  0
LAYER
  5
232
100
AcDbSymbolTableRecord
100
AcDbLayerTableRecord
  2
54
 70
0
 62
7
  6
CONTINUOUS
370
-3
390
F
  0
ENDTAB
  0
TABLE
  2
STYLE
  5
3
100
AcDbSymbolTable
 70
1
  0
ENDTAB
  0
TABLE
  2
VIEW
  5
6
100
AcDbSymbolTable
 70
0
  0
ENDTAB
  0
TABLE
  2
UCS
  5
7
100
AcDbSymbolTable
 70
0
  0
ENDTAB
  0
TABLE
  2
APPID
  5
9
100
AcDbSymbolTable
 70
1
  0
APPID
  5
233
100
AcDbSymbolTableRecord
100
AcDbRegAppTableRecord
  2
ACAD
 70
0
  0
ENDTAB
  0
TABLE
  2
BLOCK_RECORD
  5
1
100
AcDbSymbolTable
 70
0
  0
BLOCK_RECORD
  5
234
100
AcDbSymbolTableRecord
100
AcDbBlockTableRecord
  2
*Model_Space
  0
BLOCK_RECORD
  5
235
100
AcDbSymbolTableRecord
100
AcDbBlockTableRecord
  2
*Paper_Space
  0
BLOCK_RECORD
  5
236
100
AcDbSymbolTableRecord
100
AcDbBlockTableRecord
  2
_CLOSED
  0
ENDTAB
  0
TABLE
  2
DIMSTYLE
  5
A
100
AcDbSymbolTable
 70
1
100
AcDbDimStyleTable
 71
0
  0
ENDTAB
  0
ENDSEC
  0
SECTION
  2
BLOCKS
  0
BLOCK
  5
20
100
AcDbEntity
  8
0
100
AcDbBlockBegin
  2
*Model_Space
 70
0
 10
0.0
 20
0.0
 30
0.0
  3
*Model_Space
  1

  0
ENDBLK
  5
21
100
AcDbEntity
  8
0
100
AcDbBlockEnd
  0
BLOCK
  5
1C
100
AcDbEntity
  8
0
100
AcDbBlockBegin
  2
*Paper_Space
 70
0
 10
0.0
 20
0.0
 30
0.0
  3
*Paper_Space
  1

  0
ENDBLK
  5
1D
100
AcDbEntity
  8
0
100
AcDbBlockEnd
  0
BLOCK
  5
237
100
AcDbEntity
  8
0
100
AcDbBlockBegin
  2
_CLOSED
 70
64
 10
0.0
 20
0.0
  3
_CLOSED
  1

  0
LINE
  5
238
100
AcDbEntity
  8
0
  6
BYBLOCK
 62
0
100
AcDbLine
 10
0.0
 20
0.0
 11
-1.0
 21
0.1666666667
  0
LINE
  5
239
100
AcDbEntity
  8
0
  6
BYBLOCK
 62
0
100
AcDbLine
 10
-1.0
 20
0.1666666667
 11
-1.0
 21
-0.1666666667
  0
LINE
  5
23A
100
AcDbEntity
  8
0
  6
BYBLOCK
 62
0
100
AcDbLine
 10
-1.0
 20
-0.1666666667
 11
0.0
 21
0.0
  0
LINE
  5
23B
100
AcDbEntity
  8
0
  6
BYBLOCK
 62
0
100
AcDbLine
 10
-1.0
 20
0.0
 11
0.0
 21
0.0
  0
ENDBLK
  5
23C
100
AcDbEntity
  8
0
  6
BYBLOCK
 62
0
100
AcDbBlockEnd
  0
ENDSEC
  0
SECTION
  2
ENTITIES
  0
3DFACE
  5
23D
100
AcDbEntity
  8
1
100
AcDbFace
 62
7
420
15920366
  6
CONTINUOUS
 10
32.4191668322
 20
1.0995042167
 30
0.0
 11
32.446
 21
0.9999999707
 31
0.0
 12
32.4188007736
 22
1.1000911439
 32
0.25
 13
32.4191668322
 23
1.0995042167
 33
0.0
  0
3DFACE
  5
23E
100
AcDbEntity
  8
1
100
AcDbFace
 62
7
420
15920366
  6
CONTINUOUS
 10
32.4188007736
 20
1.1000911439
 30
0.25
 11
32.446
 21
0.9999999707
 31
0.0
 12
32.446
 22
0.9999999707
 32
0.25
 13
32.4188007736
 23
1.1000911439
 33
0.25
  0
3DFACE
  5
23F
100
AcDbEntity
  8
1
100
AcDbFace
 62
7
420
15920366
  6
CONTINUOUS
 10
32.3472829886
 20
1.1715942009
 30
0.0
 11
32.4191668322
 21
1.0995042167
 31
0.0
 12
32.4188007736
 22
1.1000911439
 32
0.25
 13
32.3472829886
 23
1.1715942009
 33
0.0
  0
3DFACE
  5
240
100
AcDbEntity
  8
1
100
AcDbFace
 62
7
420
15920366
  6
CONTINUOUS
 10
32.2483086795
 20
1.1984231841
 30
0.0
 11
32.3472829886
 21
1.1715942009
 31
0.0
 12
32.3458891734
 22
1.1723967229
 32
0.25
 13
32.2483086795
 23
1.1984231841
 33
0.0
  0
3DFACE
  5
241
100
AcDbEntity
  8
1
100
AcDbFace
 62
7
420
15920366
  6
CONTINUOUS
 10
32.3458891734
 20
1.1723967229
 30
0.25
 11
32.3472829886
 21
1.1715942009
 31
0.0
 12
32.4188007736
 22
1.1000911439
 32
0.25
 13
32.3458891734
 23
1.1723967229
 33
0.25
  0
3DFACE
  5
242
100
AcDbEntity
  8
1
100
AcDbFace
 62
7
420
15920366
  6
CONTINUOUS
 10
32.1491108266
 20
1.1723967229
 30
0.0
 11
32.2483086795
 21
1.1984231841
 31
0.0
 12
32.2466913205
 22
1.1984231841
 32
0.25
 13
32.1491108266
 23
1.1723967229
 33
0.0
  0
3DFACE
  5
243
100
AcDbEntity
  8
1
100
AcDbFace
 62
7
420
15920366
  6
CONTINUOUS
 10
32.2466913205
 20
1.1984231841
 30
0.25
 11
32.2483086795
 21
1.1984231841
 31
0.0
 12
32.3458891734
 22
1.1723967229
 32
0.25
 13
32.2466913205
 23
1.1984231841
 33
0.25
  0
3DFACE
  5
244
100
AcDbEntity
  8
1
100
AcDbFace
 62
7
420
15920366
  6
CONTINUOUS
 10
32.0761992264
 20
1.1000911439
 30
0.0
 11
32.1491108266
 21
1.1723967229
 31
0.0
 12
32.1477170114
 22
1.1715942009
 32
0.25
 13
32.0761992264
 23
1.1000911439
 33
0.0
  0
3DFACE
  5
245
100
AcDbEntity
  8
1
100
AcDbFace
 62
7
420
15920366
  6
CONTINUOUS
 10
32.1477170114
 20
1.1715942009
 30
0.25
 11
32.1491108266
 21
1.1723967229
 31
0.0
 12
32.2466913205
 22
1.1984231841
 32
0.25
 13
32.1477170114
 23
1.1715942009
 33
0.25
  0
3DFACE
  5
246
100
AcDbEntity
  8
1
100
AcDbFace
 62
7
420
15920366
  6
CONTINUOUS
 10
32.049
 20
0.9999999707
 30
0.0
 11
32.0761992264
 21
1.1000911439
 31
0.0
 12
32.049
 22
0.9999999707
 32
0.25
 13
32.049
 23
0.9999999707
 33
0.0
  0
3DFACE
  5
247
100
AcDbEntity
  8
1
100
AcDbFace
 62
7
420
15920366
  6
CONTINUOUS
 10
32.049
 20
0.9999999707
 30
0.25
 11
32.0761992264
 21
1.1000911439
 31
0.0
 12
32.0758331678
 22
1.0995042167
 32
0.25
 13
32.049
 23
0.9999999707
 33
0.25
  0
3DFACE
  5
248
100
AcDbEntity
  8
1
100
AcDbFace
 62
7
420
15920366
  6
CONTINUOUS
 10
32.0758331678
 20
1.0995042167
 30
0.25
 11
32.0761992264
 21
1.1000911439
 31
0.0
 12
32.1477170114
 22
1.1715942009
 32
0.25
 13
32.0758331678
 23
1.0995042167
 33
0.25
  0
3DFACE
  5
249
100
AcDbEntity
  8
2
100
AcDbFace
 62
7
420
15920366
  6
CONTINUOUS
 10
32.446
 20
0.9999999707
 30
0.25
 11
32.446
 21
0.9999999707
 31
0.0
 12
32.4188007736
 22
0.8999087974
 32
0.0
 13
32.446
 23
0.9999999707
 33
0.25
  0
3DFACE
  5
24A
100
AcDbEntity
  8
2
100
AcDbFace
 62
7
420
15920366
  6
CONTINUOUS
 10
32.049
 20
0.9999999707
 30
0.0
 11
32.049
 21
0.9999999707
 31
0.25
 12
32.0761992264
 22
0.8999087974
 32
0.25
 13
32.049
 23
0.9999999707
 33
0.0
  0
3DFACE
  5
24B
100
AcDbEntity
  8
2
100
AcDbFace
 62
7
420
15920366
  6
CONTINUOUS
 10
32.0758331678
 20
0.9004957246
 30
0.0
 11
32.049
 21
0.9999999707
 31
0.0
 12
32.0761992264
 22
0.8999087974
 32
0.25
 13
32.0758331678
 23
0.9004957246
 33
0.0
  0
3DFACE
  5
24C
100
AcDbEntity
  8
2
100
AcDbFace
 62
7
420
15920366
  6
CONTINUOUS
 10
32.446
 20
0.9999999707
 30
0.25
 11
32.4188007736
 21
0.8999087974
 31
0.0
 12
32.4191668322
 22
0.9004957246
 32
0.25
 13
32.446
 23
0.9999999707
 33
0.25
  0
3DFACE
  5
24D
100
AcDbEntity
  8
2
100
AcDbFace
 62
7
420
15920366
  6
CONTINUOUS
 10
32.4188007736
 20
0.8999087974
 30
0.0
 11
32.3458891734
 21
0.8276032185
 31
0.0
 12
32.3472829886
 22
0.8284057404
 32
0.25
 13
32.4188007736
 23
0.8999087974
 33
0.0
  0
3DFACE
  5
24E
100
AcDbEntity
  8
2
100
AcDbFace
 62
7
420
15920366
  6
CONTINUOUS
 10
32.4188007736
 20
0.8999087974
 30
0.0
 11
32.3472829886
 21
0.8284057404
 31
0.25
 12
32.4191668322
 22
0.9004957246
 32
0.25
 13
32.4188007736
 23
0.8999087974
 33
0.0
  0
3DFACE
  5
24F
100
AcDbEntity
  8
2
100
AcDbFace
 62
7
420
15920366
  6
CONTINUOUS
 10
32.3458891734
 20
0.8276032185
 30
0.0
 11
32.2466913205
 21
0.8015767572
 31
0.0
 12
32.2483086795
 22
0.8015767572
 32
0.25
 13
32.3458891734
 23
0.8276032185
 33
0.0
  0
3DFACE
  5
250
100
AcDbEntity
  8
2
100
AcDbFace
 62
7
420
15920366
  6
CONTINUOUS
 10
32.3458891734
 20
0.8276032185
 30
0.0
 11
32.2483086795
 21
0.8015767572
 31
0.25
 12
32.3472829886
 22
0.8284057404
 32
0.25
 13
32.3458891734
 23
0.8276032185
 33
0.0
  0
3DFACE
  5
251
100
AcDbEntity
  8
2
100
AcDbFace
 62
7
420
15920366
  6
CONTINUOUS
 10
32.2466913205
 20
0.8015767572
 30
0.0
 11
32.1477170114
 21
0.8284057404
 31
0.0
 12
32.1491108266
 22
0.8276032185
 32
0.25
 13
32.2466913205
 23
0.8015767572
 33
0.0
  0
3DFACE
  5
252
100
AcDbEntity
  8
2
100
AcDbFace
 62
7
420
15920366
  6
CONTINUOUS
 10
32.2466913205
 20
0.8015767572
 30
0.0
 11
32.1491108266
 21
0.8276032185
 31
0.25
 12
32.2483086795
 22
0.8015767572
 32
0.25
 13
32.2466913205
 23
0.8015767572
 33
0.0
  0
3DFACE
  5
253
100
AcDbEntity
  8
2
100
AcDbFace
 62
7
420
15920366
  6
CONTINUOUS
 10
32.1477170114
 20
0.8284057404
 30
0.0
 11
32.0758331678
 21
0.9004957246
 31
0.0
 12
32.0761992264
 22
0.8999087974
 32
0.25
 13
32.1477170114
 23
0.8284057404
 33
0.0
  0
3DFACE
  5
254
100
AcDbEntity
  8
2
100
AcDbFace
 62
7
420
15920366
  6
CONTINUOUS
 10
32.1477170114
 20
0.8284057404
 30
0.0
 11
32.0761992264
 21
0.8999087974
 31
0.25
 12
32.1491108266
 22
0.8276032185
 32
0.25
 13
32.1477170114
 23
0.8284057404
 33
0.0
  0
3DFACE
  5
255
100
AcDbEntity
  8
3
100
AcDbFace
 62
7
420
15920366
  6
CONTINUOUS
 10
32.049
 20
11.0000000293
 30
0.0
 11
32.0761992264
 21
11.1000912026
 31
0.0
 12
32.049
 22
11.0000000293
 32
0.25
 13
32.049
 23
11.0000000293
 33
0.0
  0
3DFACE
  5
256
100
AcDbEntity
  8
3
100
AcDbFace
 62
7
420
15920366
  6
CONTINUOUS
 10
32.0761992264
 20
11.1000912026
 30
0.0
 11
32.1491108266
 21
11.1723967815
 31
0.0
 12
32.1477170114
 22
11.1715942596
 32
0.25
 13
32.0761992264
 23
11.1000912026
 33
0.0
  0
3DFACE
  5
257
100
AcDbEntity
  8
3
100
AcDbFace
 62
7
420
15920366
  6
CONTINUOUS
 10
32.0761992264
 20
11.1000912026
 30
0.0
 11
32.1477170114
 21
11.1715942596
 31
0.25
 12
32.0758331678
 22
11.0995042754
 32
0.25
 13
32.0761992264
 23
11.1000912026
 33
0.0
  0
3DFACE
  5
258
100
AcDbEntity
  8
3
100
AcDbFace
 62
7
420
15920366
  6
CONTINUOUS
 10
32.0761992264
 20
11.1000912026
 30
0.0
 11
32.0758331678
 21
11.0995042754
 31
0.25
 12
32.049
 22
11.0000000293
 32
0.25
 13
32.0761992264
 23
11.1000912026
 33
0.0
  0
3DFACE
  5
259
100
AcDbEntity
  8
3
100
AcDbFace
 62
7
420
15920366
  6
CONTINUOUS
 10
32.1491108266
 20
11.1723967815
 30
0.0
 11
32.2483086795
 21
11.1984232428
 31
0.0
 12
32.2466913205
 22
11.1984232428
 32
0.25
 13
32.1491108266
 23
11.1723967815
 33
0.0
  0
3DFACE
  5
25A
100
AcDbEntity
  8
3
100
AcDbFace
 62
7
420
15920366
  6
CONTINUOUS
 10
32.1491108266
 20
11.1723967815
 30
0.0
 11
32.2466913205
 21
11.1984232428
 31
0.25
 12
32.1477170114
 22
11.1715942596
 32
0.25
 13
32.1491108266
 23
11.1723967815
 33
0.0
  0
3DFACE
  5
25B
100
AcDbEntity
  8
3
100
AcDbFace
 62
7
420
15920366
  6
CONTINUOUS
 10
32.2483086795
 20
11.1984232428
 30
0.0
 11
32.3472829886
 21
11.1715942596
 31
0.0
 12
32.3458891734
 22
11.1723967815
 32
0.25
 13
32.2483086795
 23
11.1984232428
 33
0.0
  0
3DFACE
  5
25C
100
AcDbEntity
  8
3
100
AcDbFace
 62
7
420
15920366
  6
CONTINUOUS
 10
32.2483086795
 20
11.1984232428
 30
0.0
 11
32.3458891734
 21
11.1723967815
 31
0.25
 12
32.2466913205
 22
11.1984232428
 32
0.25
 13
32.2483086795
 23
11.1984232428
 33
0.0
  0
3DFACE
  5
25D
100
AcDbEntity
  8
3
100
AcDbFace
 62
7
420
15920366
  6
CONTINUOUS
 10
32.3472829886
 20
11.1715942596
 30
0.0
 11
32.4191668322
 21
11.0995042754
 31
0.0
 12
32.4188007736
 22
11.1000912026
 32
0.25
 13
32.3472829886
 23
11.1715942596
 33
0.0
  0
3DFACE
  5
25E
100
AcDbEntity
  8
3
100
AcDbFace
 62
7
420
15920366
  6
CONTINUOUS
 10
32.3472829886
 20
11.1715942596
 30
0.0
 11
32.4188007736
 21
11.1000912026
 31
0.25
 12
32.3458891734
 22
11.1723967815
 32
0.25
 13
32.3472829886
 23
11.1715942596
 33
0.0
  0
3DFACE
  5
25F
100
AcDbEntity
  8
3
100
AcDbFace
 62
7
420
15920366
  6
CONTINUOUS
 10
32.4191668322
 20
11.0995042754
 30
0.0
 11
32.446
 21
11.0000000293
 31
0.0
 12
32.4188007736
 22
11.1000912026
 32
0.25
 13
32.4191668322
 23
11.0995042754
 33
0.0
  0
3DFACE
  5
260
100
AcDbEntity
  8
3
100
AcDbFace
 62
7
420
15920366
  6
CONTINUOUS
 10
32.446
 20
11.0000000293
 30
0.0
 11
32.446
 21
11.0000000293
 31
0.25
 12
32.4188007736
 22
11.1000912026
 32
0.25
 13
32.446
 23
11.0000000293
 33
0.0
  0
3DFACE
  5
261
100
AcDbEntity
  8
4
100
AcDbFace
 62
7
420
15920366
  6
CONTINUOUS
 10
32.0758331678
 20
10.9004957833
 30
0.0
 11
32.049
 21
11.0000000293
 31
0.0
 12
32.0761992264
 22
10.8999088561
 32
0.25
 13
32.0758331678
 23
10.9004957833
 33
0.0
  0
3DFACE
  5
262
100
AcDbEntity
  8
4
100
AcDbFace
 62
7
420
15920366
  6
CONTINUOUS
 10
32.049
 20
11.0000000293
 30
0.0
 11
32.049
 21
11.0000000293
 31
0.25
 12
32.0761992264
 22
10.8999088561
 32
0.25
 13
32.049
 23
11.0000000293
 33
0.0
  0
3DFACE
  5
263
100
AcDbEntity
  8
4
100
AcDbFace
 62
7
420
15920366
  6
CONTINUOUS
 10
32.446
 20
11.0000000293
 30
0.0
 11
32.4188007736
 21
10.8999088561
 31
0.0
 12
32.446
 22
11.0000000293
 32
0.25
 13
32.446
 23
11.0000000293
 33
0.0
  0
3DFACE
  5
264
100
AcDbEntity
  8
4
100
AcDbFace
 62
7
420
15920366
  6
CONTINUOUS
 10
32.4188007736
 20
10.8999088561
 30
0.0
 11
32.3458891734
 21
10.8276032771
 31
0.0
 12
32.3472829886
 22
10.8284057991
 32
0.25
 13
32.4188007736
 23
10.8999088561
 33
0.0
  0
3DFACE
  5
265
100
AcDbEntity
  8
4
100
AcDbFace
 62
7
420
15920366
  6
CONTINUOUS
 10
32.446
 20
11.0000000293
 30
0.25
 11
32.4188007736
 21
10.8999088561
 31
0.0
 12
32.4191668322
 22
10.9004957833
 32
0.25
 13
32.446
 23
11.0000000293
 33
0.25
  0
3DFACE
  5
266
100
AcDbEntity
  8
4
100
AcDbFace
 62
7
420
15920366
  6
CONTINUOUS
 10
32.4188007736
 20
10.8999088561
 30
0.0
 11
32.3472829886
 21
10.8284057991
 31
0.25
 12
32.4191668322
 22
10.9004957833
 32
0.25
 13
32.4188007736
 23
10.8999088561
 33
0.0
  0
3DFACE
  5
267
100
AcDbEntity
  8
4
100
AcDbFace
 62
7
420
15920366
  6
CONTINUOUS
 10
32.3458891734
 20
10.8276032771
 30
0.0
 11
32.2466913205
 21
10.8015768159
 31
0.0
 12
32.2483086795
 22
10.8015768159
 32
0.25
 13
32.3458891734
 23
10.8276032771
 33
0.0
  0
3DFACE
  5
268
100
AcDbEntity
  8
4
100
AcDbFace
 62
7
420
15920366
  6
CONTINUOUS
 10
32.3458891734
 20
10.8276032771
 30
0.0
 11
32.2483086795
 21
10.8015768159
 31
0.25
 12
32.3472829886
 22
10.8284057991
 32
0.25
 13
32.3458891734
 23
10.8276032771
 33
0.0
  0
3DFACE
  5
269
100
AcDbEntity
  8
4
100
AcDbFace
 62
7
420
15920366
  6
CONTINUOUS
 10
32.2466913205
 20
10.8015768159
 30
0.0
 11
32.1477170114
 21
10.8284057991
 31
0.0
 12
32.1491108266
 22
10.8276032771
 32
0.25
 13
32.2466913205
 23
10.8015768159
 33
0.0
  0
3DFACE
  5
26A
100
AcDbEntity
  8
4
100
AcDbFace
 62
7
420
15920366
  6
CONTINUOUS
 10
32.2466913205
 20
10.8015768159
 30
0.0
 11
32.1491108266
 21
10.8276032771
 31
0.25
 12
32.2483086795
 22
10.8015768159
 32
0.25
 13
32.2466913205
 23
10.8015768159
 33
0.0
  0
3DFACE
  5
26B
100
AcDbEntity
  8
4
100
AcDbFace
 62
7
420
15920366
  6
CONTINUOUS
 10
32.1477170114
 20
10.8284057991
 30
0.0
 11
32.0758331678
 21
10.9004957833
 31
0.0
 12
32.0761992264
 22
10.8999088561
 32
0.25
 13
32.1477170114
 23
10.8284057991
 33
0.0
  0
3DFACE
  5
26C
100
AcDbEntity
  8
4
100
AcDbFace
 62
7
420
15920366
  6
CONTINUOUS
 10
32.1477170114
 20
10.8284057991
 30
0.0
 11
32.0761992264
 21
10.8999088561
 31
0.25
 12
32.1491108266
 22
10.8276032771
 32
0.25
 13
32.1477170114
 23
10.8284057991
 33
0.0
  0
3DFACE
  5
26D
100
AcDbEntity
  8
5
100
AcDbFace
 62
7
420
15920366
  6
CONTINUOUS
 10
0.384
 20
0.9999999707
 30
0.0
 11
0.4111992264
 21
1.1000911439
 31
0.0
 12
0.384
 22
0.9999999707
 32
0.25
 13
0.384
 23
0.9999999707
 33
0.0
  0
3DFACE
  5
26E
100
AcDbEntity
  8
5
100
AcDbFace
 62
7
420
15920366
  6
CONTINUOUS
 10
0.4111992264
 20
1.1000911439
 30
0.0
 11
0.4841108266
 21
1.1723967229
 31
0.0
 12
0.4827170114
 22
1.1715942009
 32
0.25
 13
0.4111992264
 23
1.1000911439
 33
0.0
  0
3DFACE
  5
26F
100
AcDbEntity
  8
5
100
AcDbFace
 62
7
420
15920366
  6
CONTINUOUS
 10
0.4111992264
 20
1.1000911439
 30
0.0
 11
0.4827170114
 21
1.1715942009
 31
0.25
 12
0.4108331678
 22
1.0995042167
 32
0.25
 13
0.4111992264
 23
1.1000911439
 33
0.0
  0
3DFACE
  5
270
100
AcDbEntity
  8
5
100
AcDbFace
 62
7
420
15920366
  6
CONTINUOUS
 10
0.4111992264
 20
1.1000911439
 30
0.0
 11
0.4108331678
 21
1.0995042167
 31
0.25
 12
0.384
 22
0.9999999707
 32
0.25
 13
0.4111992264
 23
1.1000911439
 33
0.0
  0
3DFACE
  5
271
100
AcDbEntity
  8
5
100
AcDbFace
 62
7
420
15920366
  6
CONTINUOUS
 10
0.4841108266
 20
1.1723967229
 30
0.0
 11
0.5833086795
 21
1.1984231841
 31
0.0
 12
0.5816913205
 22
1.1984231841
 32
0.25
 13
0.4841108266
 23
1.1723967229
 33
0.0
  0
3DFACE
  5
272
100
AcDbEntity
  8
5
100
AcDbFace
 62
7
420
15920366
  6
CONTINUOUS
 10
0.4841108266
 20
1.1723967229
 30
0.0
 11
0.5816913205
 21
1.1984231841
 31
0.25
 12
0.4827170114
 22
1.1715942009
 32
0.25
 13
0.4841108266
 23
1.1723967229
 33
0.0
  0
3DFACE
  5
273
100
AcDbEntity
  8
5
100
AcDbFace
 62
7
420
15920366
  6
CONTINUOUS
 10
0.5833086795
 20
1.1984231841
 30
0.0
 11
0.6822829886
 21
1.1715942009
 31
0.0
 12
0.6808891734
 22
1.1723967229
 32
0.25
 13
0.5833086795
 23
1.1984231841
 33
0.0
  0
3DFACE
  5
274
100
AcDbEntity
  8
5
100
AcDbFace
 62
7
420
15920366
  6
CONTINUOUS
 10
0.5833086795
 20
1.1984231841
 30
0.0
 11
0.6808891734
 21
1.1723967229
 31
0.25
 12
0.5816913205
 22
1.1984231841
 32
0.25
 13
0.5833086795
 23
1.1984231841
 33
0.0
  0
3DFACE
  5
275
100
AcDbEntity
  8
5
100
AcDbFace
 62
7
420
15920366
  6
CONTINUOUS
 10
0.6822829886
 20
1.1715942009
 30
0.0
 11
0.7541668322
 21
1.0995042167
 31
0.0
 12
0.7538007736
 22
1.1000911439
 32
0.25
 13
0.6822829886
 23
1.1715942009
 33
0.0
  0
3DFACE
  5
276
100
AcDbEntity
  8
5
100
AcDbFace
 62
7
420
15920366
  6
CONTINUOUS
 10
0.6822829886
 20
1.1715942009
 30
0.0
 11
0.7538007736
 21
1.1000911439
 31
0.25
 12
0.6808891734
 22
1.1723967229
 32
0.25
 13
0.6822829886
 23
1.1715942009
 33
0.0
  0
3DFACE
  5
277
100
AcDbEntity
  8
5
100
AcDbFace
 62
7
420
15920366
  6
CONTINUOUS
 10
0.7541668322
 20
1.0995042167
 30
0.0
 11
0.781
 21
0.9999999707
 31
0.0
 12
0.7538007736
 22
1.1000911439
 32
0.25
 13
0.7541668322
 23
1.0995042167
 33
0.0
  0
3DFACE
  5
278
100
AcDbEntity
  8
5
100
AcDbFace
 62
7
420
15920366
  6
CONTINUOUS
 10
0.781
 20
0.9999999707
 30
0.0
 11
0.781
 21
0.9999999707
 31
0.25
 12
0.7538007736
 22
1.1000911439
 32
0.25
 13
0.781
 23
0.9999999707
 33
0.0
  0
3DFACE
  5
279
100
AcDbEntity
  8
6
100
AcDbFace
 62
7
420
15920366
  6
CONTINUOUS
 10
0.4108331678
 20
0.9004957246
 30
0.0
 11
0.384
 21
0.9999999707
 31
0.0
 12
0.4111992264
 22
0.8999087974
 32
0.25
 13
0.4108331678
 23
0.9004957246
 33
0.0
  0
3DFACE
  5
27A
100
AcDbEntity
  8
6
100
AcDbFace
 62
7
420
15920366
  6
CONTINUOUS
 10
0.384
 20
0.9999999707
 30
0.0
 11
0.384
 21
0.9999999707
 31
0.25
 12
0.4111992264
 22
0.8999087974
 32
0.25
 13
0.384
 23
0.9999999707
 33
0.0
  0
3DFACE
  5
27B
100
AcDbEntity
  8
6
100
AcDbFace
 62
7
420
15920366
  6
CONTINUOUS
 10
0.781
 20
0.9999999707
 30
0.0
 11
0.7538007736
 21
0.8999087974
 31
0.0
 12
0.781
 22
0.9999999707
 32
0.25
 13
0.781
 23
0.9999999707
 33
0.0
  0
3DFACE
  5
27C
100
AcDbEntity
  8
6
100
AcDbFace
 62
7
420
15920366
  6
CONTINUOUS
 10
0.7538007736
 20
0.8999087974
 30
0.0
 11
0.6808891734
 21
0.8276032185
 31
0.0
 12
0.6822829886
 22
0.8284057404
 32
0.25
 13
0.7538007736
 23
0.8999087974
 33
0.0
  0
3DFACE
  5
27D
100
AcDbEntity
  8
6
100
AcDbFace
 62
7
420
15920366
  6
CONTINUOUS
 10
0.781
 20
0.9999999707
 30
0.25
 11
0.7538007736
 21
0.8999087974
 31
0.0
 12
0.7541668322
 22
0.9004957246
 32
0.25
 13
0.781
 23
0.9999999707
 33
0.25
  0
3DFACE
  5
27E
100
AcDbEntity
  8
6
100
AcDbFace
 62
7
420
15920366
  6
CONTINUOUS
 10
0.7538007736
 20
0.8999087974
 30
0.0
 11
0.6822829886
 21
0.8284057404
 31
0.25
 12
0.7541668322
 22
0.9004957246
 32
0.25
 13
0.7538007736
 23
0.8999087974
 33
0.0
  0
3DFACE
  5
27F
100
AcDbEntity
  8
6
100
AcDbFace
 62
7
420
15920366
  6
CONTINUOUS
 10
0.6808891734
 20
0.8276032185
 30
0.0
 11
0.5816913205
 21
0.8015767572
 31
0.0
 12
0.5833086795
 22
0.8015767572
 32
0.25
 13
0.6808891734
 23
0.8276032185
 33
0.0
  0
3DFACE
  5
280
100
AcDbEntity
  8
6
100
AcDbFace
 62
7
420
15920366
  6
CONTINUOUS
 10
0.6808891734
 20
0.8276032185
 30
0.0
 11
0.5833086795
 21
0.8015767572
 31
0.25
 12
0.6822829886
 22
0.8284057404
 32
0.25
 13
0.6808891734
 23
0.8276032185
 33
0.0
  0
3DFACE
  5
281
100
AcDbEntity
  8
6
100
AcDbFace
 62
7
420
15920366
  6
CONTINUOUS
 10
0.5816913205
 20
0.8015767572
 30
0.0
 11
0.4827170114
 21
0.8284057404
 31
0.0
 12
0.4841108266
 22
0.8276032185
 32
0.25
 13
0.5816913205
 23
0.8015767572
 33
0.0
  0
3DFACE
  5
282
100
AcDbEntity
  8
6
100
AcDbFace
 62
7
420
15920366
  6
CONTINUOUS
 10
0.5816913205
 20
0.8015767572
 30
0.0
 11
0.4841108266
 21
0.8276032185
 31
0.25
 12
0.5833086795
 22
0.8015767572
 32
0.25
 13
0.5816913205
 23
0.8015767572
 33
0.0
  0
3DFACE
  5
283
100
AcDbEntity
  8
6
100
AcDbFace
 62
7
420
15920366
  6
CONTINUOUS
 10
0.4827170114
 20
0.8284057404
 30
0.0
 11
0.4108331678
 21
0.9004957246
 31
0.0
 12
0.4111992264
 22
0.8999087974
 32
0.25
 13
0.4827170114
 23
0.8284057404
 33
0.0
  0
3DFACE
  5
284
100
AcDbEntity
  8
6
100
AcDbFace
 62
7
420
15920366
  6
CONTINUOUS
 10
0.4827170114
 20
0.8284057404
 30
0.0
 11
0.4111992264
 21
0.8999087974
 31
0.25
 12
0.4841108266
 22
0.8276032185
 32
0.25
 13
0.4827170114
 23
0.8284057404
 33
0.0
  0
3DFACE
  5
285
100
AcDbEntity
  8
7
100
AcDbFace
 62
7
420
15920366
  6
CONTINUOUS
 10
0.384
 20
11.0000000293
 30
0.0
 11
0.4111992264
 21
11.1000912026
 31
0.0
 12
0.384
 22
11.0000000293
 32
0.25
 13
0.384
 23
11.0000000293
 33
0.0
  0
3DFACE
  5
286
100
AcDbEntity
  8
7
100
AcDbFace
 62
7
420
15920366
  6
CONTINUOUS
 10
0.4111992264
 20
11.1000912026
 30
0.0
 11
0.4841108266
 21
11.1723967815
 31
0.0
 12
0.4827170114
 22
11.1715942596
 32
0.25
 13
0.4111992264
 23
11.1000912026
 33
0.0
  0
3DFACE
  5
287
100
AcDbEntity
  8
7
100
AcDbFace
 62
7
420
15920366
  6
CONTINUOUS
 10
0.4111992264
 20
11.1000912026
 30
0.0
 11
0.4827170114
 21
11.1715942596
 31
0.25
 12
0.4108331678
 22
11.0995042754
 32
0.25
 13
0.4111992264
 23
11.1000912026
 33
0.0
  0
3DFACE
  5
288
100
AcDbEntity
  8
7
100
AcDbFace
 62
7
420
15920366
  6
CONTINUOUS
 10
0.4111992264
 20
11.1000912026
 30
0.0
 11
0.4108331678
 21
11.0995042754
 31
0.25
 12
0.384
 22
11.0000000293
 32
0.25
 13
0.4111992264
 23
11.1000912026
 33
0.0
  0
3DFACE
  5
289
100
AcDbEntity
  8
7
100
AcDbFace
 62
7
420
15920366
  6
CONTINUOUS
 10
0.4841108266
 20
11.1723967815
 30
0.0
 11
0.5833086795
 21
11.1984232428
 31
0.0
 12
0.5816913205
 22
11.1984232428
 32
0.25
 13
0.4841108266
 23
11.1723967815
 33
0.0
  0
3DFACE
  5
28A
100
AcDbEntity
  8
7
100
AcDbFace
 62
7
420
15920366
  6
CONTINUOUS
 10
0.4841108266
 20
11.1723967815
 30
0.0
 11
0.5816913205
 21
11.1984232428
 31
0.25
 12
0.4827170114
 22
11.1715942596
 32
0.25
 13
0.4841108266
 23
11.1723967815
 33
0.0
  0
3DFACE
  5
28B
100
AcDbEntity
  8
7
100
AcDbFace
 62
7
420
15920366
  6
CONTINUOUS
 10
0.5833086795
 20
11.1984232428
 30
0.0
 11
0.6822829886
 21
11.1715942596
 31
0.0
 12
0.6808891734
 22
11.1723967815
 32
0.25
 13
0.5833086795
 23
11.1984232428
 33
0.0
  0
3DFACE
  5
28C
100
AcDbEntity
  8
7
100
AcDbFace
 62
7
420
15920366
  6
CONTINUOUS
 10
0.5833086795
 20
11.1984232428
 30
0.0
 11
0.6808891734
 21
11.1723967815
 31
0.25
 12
0.5816913205
 22
11.1984232428
 32
0.25
 13
0.5833086795
 23
11.1984232428
 33
0.0
  0
3DFACE
  5
28D
100
AcDbEntity
  8
7
100
AcDbFace
 62
7
420
15920366
  6
CONTINUOUS
 10
0.6822829886
 20
11.1715942596
 30
0.0
 11
0.7541668322
 21
11.0995042754
 31
0.0
 12
0.7538007736
 22
11.1000912026
 32
0.25
 13
0.6822829886
 23
11.1715942596
 33
0.0
  0
3DFACE
  5
28E
100
AcDbEntity
  8
7
100
AcDbFace
 62
7
420
15920366
  6
CONTINUOUS
 10
0.6822829886
 20
11.1715942596
 30
0.0
 11
0.7538007736
 21
11.1000912026
 31
0.25
 12
0.6808891734
 22
11.1723967815
 32
0.25
 13
0.6822829886
 23
11.1715942596
 33
0.0
  0
3DFACE
  5
28F
100
AcDbEntity
  8
7
100
AcDbFace
 62
7
420
15920366
  6
CONTINUOUS
 10
0.7541668322
 20
11.0995042754
 30
0.0
 11
0.781
 21
11.0000000293
 31
0.0
 12
0.7538007736
 22
11.1000912026
 32
0.25
 13
0.7541668322
 23
11.0995042754
 33
0.0
  0
3DFACE
  5
290
100
AcDbEntity
  8
7
100
AcDbFace
 62
7
420
15920366
  6
CONTINUOUS
 10
0.781
 20
11.0000000293
 30
0.0
 11
0.781
 21
11.0000000293
 31
0.25
 12
0.7538007736
 22
11.1000912026
 32
0.25
 13
0.781
 23
11.0000000293
 33
0.0
  0
3DFACE
  5
291
100
AcDbEntity
  8
8
100
AcDbFace
 62
7
420
15920366
  6
CONTINUOUS
 10
0.4108331678
 20
10.9004957833
 30
0.0
 11
0.384
 21
11.0000000293
 31
0.0
 12
0.4111992264
 22
10.8999088561
 32
0.25
 13
0.4108331678
 23
10.9004957833
 33
0.0
  0
3DFACE
  5
292
100
AcDbEntity
  8
8
100
AcDbFace
 62
7
420
15920366
  6
CONTINUOUS
 10
0.384
 20
11.0000000293
 30
0.0
 11
0.384
 21
11.0000000293
 31
0.25
 12
0.4111992264
 22
10.8999088561
 32
0.25
 13
0.384
 23
11.0000000293
 33
0.0
  0
3DFACE
  5
293
100
AcDbEntity
  8
8
100
AcDbFace
 62
7
420
15920366
  6
CONTINUOUS
 10
0.781
 20
11.0000000293
 30
0.0
 11
0.7538007736
 21
10.8999088561
 31
0.0
 12
0.781
 22
11.0000000293
 32
0.25
 13
0.781
 23
11.0000000293
 33
0.0
  0
3DFACE
  5
294
100
AcDbEntity
  8
8
100
AcDbFace
 62
7
420
15920366
  6
CONTINUOUS
 10
0.7538007736
 20
10.8999088561
 30
0.0
 11
0.6808891734
 21
10.8276032771
 31
0.0
 12
0.6822829886
 22
10.8284057991
 32
0.25
 13
0.7538007736
 23
10.8999088561
 33
0.0
  0
3DFACE
  5
295
100
AcDbEntity
  8
8
100
AcDbFace
 62
7
420
15920366
  6
CONTINUOUS
 10
0.781
 20
11.0000000293
 30
0.25
 11
0.7538007736
 21
10.8999088561
 31
0.0
 12
0.7541668322
 22
10.9004957833
 32
0.25
 13
0.781
 23
11.0000000293
 33
0.25
  0
3DFACE
  5
296
100
AcDbEntity
  8
8
100
AcDbFace
 62
7
420
15920366
  6
CONTINUOUS
 10
0.7538007736
 20
10.8999088561
 30
0.0
 11
0.6822829886
 21
10.8284057991
 31
0.25
 12
0.7541668322
 22
10.9004957833
 32
0.25
 13
0.7538007736
 23
10.8999088561
 33
0.0
  0
3DFACE
  5
297
100
AcDbEntity
  8
8
100
AcDbFace
 62
7
420
15920366
  6
CONTINUOUS
 10
0.6808891734
 20
10.8276032771
 30
0.0
 11
0.5816913205
 21
10.8015768159
 31
0.0
 12
0.5833086795
 22
10.8015768159
 32
0.25
 13
0.6808891734
 23
10.8276032771
 33
0.0
  0
3DFACE
  5
298
100
AcDbEntity
  8
8
100
AcDbFace
 62
7
420
15920366
  6
CONTINUOUS
 10
0.6808891734
 20
10.8276032771
 30
0.0
 11
0.5833086795
 21
10.8015768159
 31
0.25
 12
0.6822829886
 22
10.8284057991
 32
0.25
 13
0.6808891734
 23
10.8276032771
 33
0.0
  0
3DFACE
  5
299
100
AcDbEntity
  8
8
100
AcDbFace
 62
7
420
15920366
  6
CONTINUOUS
 10
0.5816913205
 20
10.8015768159
 30
0.0
 11
0.4827170114
 21
10.8284057991
 31
0.0
 12
0.4841108266
 22
10.8276032771
 32
0.25
 13
0.5816913205
 23
10.8015768159
 33
0.0
  0
3DFACE
  5
29A
100
AcDbEntity
  8
8
100
AcDbFace
 62
7
420
15920366
  6
CONTINUOUS
 10
0.5816913205
 20
10.8015768159
 30
0.0
 11
0.4841108266
 21
10.8276032771
 31
0.25
 12
0.5833086795
 22
10.8015768159
 32
0.25
 13
0.5816913205
 23
10.8015768159
 33
0.0
  0
3DFACE
  5
29B
100
AcDbEntity
  8
8
100
AcDbFace
 62
7
420
15920366
  6
CONTINUOUS
 10
0.4827170114
 20
10.8284057991
 30
0.0
 11
0.4108331678
 21
10.9004957833
 31
0.0
 12
0.4111992264
 22
10.8999088561
 32
0.25
 13
0.4827170114
 23
10.8284057991
 33
0.0
  0
3DFACE
  5
29C
100
AcDbEntity
  8
8
100
AcDbFace
 62
7
420
15920366
  6
CONTINUOUS
 10
0.4827170114
 20
10.8284057991
 30
0.0
 11
0.4111992264
 21
10.8999088561
 31
0.25
 12
0.4841108266
 22
10.8276032771
 32
0.25
 13
0.4827170114
 23
10.8284057991
 33
0.0
  0
3DFACE
  5
29D
100
AcDbEntity
  8
9
100
AcDbFace
 62
7
420
15920366
  6
CONTINUOUS
 10
24.8335
 20
0.9999999707
 30
0.25
 11
24.7582051223
 21
1.1802741934
 31
0.25
 12
24.713
 22
0.9999999707
 32
0.1113806069
 13
24.8335
 23
0.9999999707
 33
0.25
  0
3DFACE
  5
29E
100
AcDbEntity
  8
9
100
AcDbFace
 62
7
420
15920366
  6
CONTINUOUS
 10
24.7582051223
 20
1.1802741934
 30
0.25
 11
24.5789672531
 21
1.2534019083
 31
0.25
 12
24.6465
 22
1.1151813494
 32
0.1113806069
 13
24.7582051223
 23
1.1802741934
 33
0.25
  0
3DFACE
  5
29F
100
AcDbEntity
  8
9
100
AcDbFace
 62
7
420
15920366
  6
CONTINUOUS
 10
24.713
 20
0.9999999707
 30
0.1113806069
 11
24.7582051223
 21
1.1802741934
 31
0.25
 12
24.6951813787
 22
1.0664999707
 32
0.1113806069
 13
24.713
 23
0.9999999707
 33
0.1113806069
  0
3DFACE
  5
2A0
100
AcDbEntity
  8
9
100
AcDbFace
 62
7
420
15920366
  6
CONTINUOUS
 10
24.6951813787
 20
1.0664999707
 30
0.1113806069
 11
24.7582051223
 21
1.1802741934
 31
0.25
 12
24.6465
 22
1.1151813494
 32
0.1113806069
 13
24.6951813787
 23
1.0664999707
 33
0.1113806069
  0
3DFACE
  5
2A1
100
AcDbEntity
  8
9
100
AcDbFace
 62
7
420
15920366
  6
CONTINUOUS
 10
24.5789672531
 20
1.2534019083
 30
0.25
 11
24.4006871989
 21
1.1791778674
 31
0.25
 12
24.5135
 22
1.1151813494
 32
0.1113806069
 13
24.5789672531
 23
1.2534019083
 33
0.25
  0
3DFACE
  5
2A2
100
AcDbEntity
  8
9
100
AcDbFace
 62
7
420
15920366
  6
CONTINUOUS
 10
24.6465
 20
1.1151813494
 30
0.1113806069
 11
24.5789672531
 21
1.2534019083
 31
0.25
 12
24.58
 22
1.1329999707
 32
0.1113806069
 13
24.6465
 23
1.1151813494
 33
0.1113806069
  0
3DFACE
  5
2A3
100
AcDbEntity
  8
9
100
AcDbFace
 62
7
420
15920366
  6
CONTINUOUS
 10
24.58
 20
1.1329999707
 30
0.1113806069
 11
24.5789672531
 21
1.2534019083
 31
0.25
 12
24.5135
 22
1.1151813494
 32
0.1113806069
 13
24.58
 23
1.1329999707
 33
0.1113806069
  0
3DFACE
  5
2A4
100
AcDbEntity
  8
9
100
AcDbFace
 62
7
420
15920366
  6
CONTINUOUS
 10
24.4006871989
 20
1.1791778674
 30
0.25
 11
24.3265
 21
0.9999999707
 31
0.25
 12
24.4648186213
 22
1.0664999707
 32
0.1113806069
 13
24.4006871989
 23
1.1791778674
 33
0.25
  0
3DFACE
  5
2A5
100
AcDbEntity
  8
9
100
AcDbFace
 62
7
420
15920366
  6
CONTINUOUS
 10
24.5135
 20
1.1151813494
 30
0.1113806069
 11
24.4006871989
 21
1.1791778674
 31
0.25
 12
24.4648186213
 22
1.0664999707
 32
0.1113806069
 13
24.5135
 23
1.1151813494
 33
0.1113806069
  0
3DFACE
  5
2A6
100
AcDbEntity
  8
9
100
AcDbFace
 62
7
420
15920366
  6
CONTINUOUS
 10
24.3265
 20
0.9999999707
 30
0.25
 11
24.447
 21
0.9999999707
 31
0.1113806069
 12
24.4648186213
 22
1.0664999707
 32
0.1113806069
 13
24.3265
 23
0.9999999707
 33
0.25
  0
3DFACE
  5
2A7
100
AcDbEntity
  8
10
100
AcDbFace
 62
7
420
15920366
  6
CONTINUOUS
 10
24.7593128011
 20
0.8208220739
 30
0.25
 11
24.8335
 21
0.9999999707
 31
0.25
 12
24.6951813787
 22
0.9334999707
 32
0.1113806069
 13
24.7593128011
 23
0.8208220739
 33
0.25
  0
3DFACE
  5
2A8
100
AcDbEntity
  8
10
100
AcDbFace
 62
7
420
15920366
  6
CONTINUOUS
 10
24.6951813787
 20
0.9334999707
 30
0.1113806069
 11
24.8335
 21
0.9999999707
 31
0.25
 12
24.713
 22
0.9999999707
 32
0.1113806069
 13
24.6951813787
 23
0.9334999707
 33
0.1113806069
  0
3DFACE
  5
2A9
100
AcDbEntity
  8
10
100
AcDbFace
 62
7
420
15920366
  6
CONTINUOUS
 10
24.3265
 20
0.9999999707
 30
0.25
 11
24.4017948777
 21
0.8197257479
 31
0.25
 12
24.447
 22
0.9999999707
 32
0.1113806069
 13
24.3265
 23
0.9999999707
 33
0.25
  0
3DFACE
  5
2AA
100
AcDbEntity
  8
10
100
AcDbFace
 62
7
420
15920366
  6
CONTINUOUS
 10
24.4017948777
 20
0.8197257479
 30
0.25
 11
24.5810327469
 21
0.7465980331
 31
0.25
 12
24.5135
 22
0.884818592
 32
0.1113806069
 13
24.4017948777
 23
0.8197257479
 33
0.25
  0
3DFACE
  5
2AB
100
AcDbEntity
  8
10
100
AcDbFace
 62
7
420
15920366
  6
CONTINUOUS
 10
24.447
 20
0.9999999707
 30
0.1113806069
 11
24.4017948777
 21
0.8197257479
 31
0.25
 12
24.4648186213
 22
0.9334999707
 32
0.1113806069
 13
24.447
 23
0.9999999707
 33
0.1113806069
  0
3DFACE
  5
2AC
100
AcDbEntity
  8
10
100
AcDbFace
 62
7
420
15920366
  6
CONTINUOUS
 10
24.4648186213
 20
0.9334999707
 30
0.1113806069
 11
24.4017948777
 21
0.8197257479
 31
0.25
 12
24.5135
 22
0.884818592
 32
0.1113806069
 13
24.4648186213
 23
0.9334999707
 33
0.1113806069
  0
3DFACE
  5
2AD
100
AcDbEntity
  8
10
100
AcDbFace
 62
7
420
15920366
  6
CONTINUOUS
 10
24.5810327469
 20
0.7465980331
 30
0.25
 11
24.7593128011
 21
0.8208220739
 31
0.25
 12
24.6465
 22
0.884818592
 32
0.1113806069
 13
24.5810327469
 23
0.7465980331
 33
0.25
  0
3DFACE
  5
2AE
100
AcDbEntity
  8
10
100
AcDbFace
 62
7
420
15920366
  6
CONTINUOUS
 10
24.5135
 20
0.884818592
 30
0.1113806069
 11
24.5810327469
 21
0.7465980331
 31
0.25
 12
24.58
 22
0.8669999707
 32
0.1113806069
 13
24.5135
 23
0.884818592
 33
0.1113806069
  0
3DFACE
  5
2AF
100
AcDbEntity
  8
10
100
AcDbFace
 62
7
420
15920366
  6
CONTINUOUS
 10
24.58
 20
0.8669999707
 30
0.1113806069
 11
24.5810327469
 21
0.7465980331
 31
0.25
 12
24.6465
 22
0.884818592
 32
0.1113806069
 13
24.58
 23
0.8669999707
 33
0.1113806069
  0
3DFACE
  5
2B0
100
AcDbEntity
  8
10
100
AcDbFace
 62
7
420
15920366
  6
CONTINUOUS
 10
24.6465
 20
0.884818592
 30
0.1113806069
 11
24.7593128011
 21
0.8208220739
 31
0.25
 12
24.6951813787
 22
0.9334999707
 32
0.1113806069
 13
24.6465
 23
0.884818592
 33
0.1113806069
  0
3DFACE
  5
2B1
100
AcDbEntity
  8
11
100
AcDbFace
 62
7
420
15920366
  6
CONTINUOUS
 10
24.447
 20
0.9999999707
 30
0.0
 11
24.5142079747
 21
1.1155369925
 31
0.0
 12
24.447
 22
0.9999999707
 32
0.1113806069
 13
24.447
 23
0.9999999707
 33
0.0
  0
3DFACE
  5
2B2
100
AcDbEntity
  8
11
100
AcDbFace
 62
7
420
15920366
  6
CONTINUOUS
 10
24.5142079747
 20
1.1155369925
 30
0.0
 11
24.6466800561
 21
1.1150345031
 31
0.0
 12
24.58
 22
1.1329999707
 32
0.1113806069
 13
24.5142079747
 23
1.1155369925
 33
0.0
  0
3DFACE
  5
2B3
100
AcDbEntity
  8
11
100
AcDbFace
 62
7
420
15920366
  6
CONTINUOUS
 10
24.447
 20
0.9999999707
 30
0.1113806069
 11
24.5142079747
 21
1.1155369925
 31
0.0
 12
24.4648186213
 22
1.0664999707
 32
0.1113806069
 13
24.447
 23
0.9999999707
 33
0.1113806069
  0
3DFACE
  5
2B4
100
AcDbEntity
  8
11
100
AcDbFace
 62
7
420
15920366
  6
CONTINUOUS
 10
24.5142079747
 20
1.1155369925
 30
0.0
 11
24.58
 21
1.1329999707
 31
0.1113806069
 12
24.5135
 22
1.1151813494
 32
0.1113806069
 13
24.5142079747
 23
1.1155369925
 33
0.0
  0
3DFACE
  5
2B5
100
AcDbEntity
  8
11
100
AcDbFace
 62
7
420
15920366
  6
CONTINUOUS
 10
24.5142079747
 20
1.1155369925
 30
0.0
 11
24.5135
 21
1.1151813494
 31
0.1113806069
 12
24.4648186213
 22
1.0664999707
 32
0.1113806069
 13
24.5142079747
 23
1.1155369925
 33
0.0
  0
3DFACE
  5
2B6
100
AcDbEntity
  8
11
100
AcDbFace
 62
7
420
15920366
  6
CONTINUOUS
 10
24.6466800561
 20
1.1150345031
 30
0.0
 11
24.713
 21
0.9999999707
 31
0.0
 12
24.6951813787
 22
1.0664999707
 32
0.1113806069
 13
24.6466800561
 23
1.1150345031
 33
0.0
  0
3DFACE
  5
2B7
100
AcDbEntity
  8
11
100
AcDbFace
 62
7
420
15920366
  6
CONTINUOUS
 10
24.6466800561
 20
1.1150345031
 30
0.0
 11
24.6951813787
 21
1.0664999707
 31
0.1113806069
 12
24.6465
 22
1.1151813494
 32
0.1113806069
 13
24.6466800561
 23
1.1150345031
 33
0.0
  0
3DFACE
  5
2B8
100
AcDbEntity
  8
11
100
AcDbFace
 62
7
420
15920366
  6
CONTINUOUS
 10
24.6466800561
 20
1.1150345031
 30
0.0
 11
24.6465
 21
1.1151813494
 31
0.1113806069
 12
24.58
 22
1.1329999707
 32
0.1113806069
 13
24.6466800561
 23
1.1150345031
 33
0.0
  0
3DFACE
  5
2B9
100
AcDbEntity
  8
11
100
AcDbFace
 62
7
420
15920366
  6
CONTINUOUS
 10
24.713
 20
0.9999999707
 30
0.0
 11
24.713
 21
0.9999999707
 31
0.1113806069
 12
24.6951813787
 22
1.0664999707
 32
0.1113806069
 13
24.713
 23
0.9999999707
 33
0.0
  0
3DFACE
  5
2BA
100
AcDbEntity
  8
12
100
AcDbFace
 62
7
420
15920366
  6
CONTINUOUS
 10
24.5133199439
 20
0.8849654383
 30
0.0
 11
24.447
 21
0.9999999707
 31
0.0
 12
24.4648186213
 22
0.9334999707
 32
0.1113806069
 13
24.5133199439
 23
0.8849654383
 33
0.0
  0
3DFACE
  5
2BB
100
AcDbEntity
  8
12
100
AcDbFace
 62
7
420
15920366
  6
CONTINUOUS
 10
24.447
 20
0.9999999707
 30
0.0
 11
24.447
 21
0.9999999707
 31
0.1113806069
 12
24.4648186213
 22
0.9334999707
 32
0.1113806069
 13
24.447
 23
0.9999999707
 33
0.0
  0
3DFACE
  5
2BC
100
AcDbEntity
  8
12
100
AcDbFace
 62
7
420
15920366
  6
CONTINUOUS
 10
24.713
 20
0.9999999707
 30
0.0
 11
24.6457920253
 21
0.8844629488
 31
0.0
 12
24.713
 22
0.9999999707
 32
0.1113806069
 13
24.713
 23
0.9999999707
 33
0.0
  0
3DFACE
  5
2BD
100
AcDbEntity
  8
12
100
AcDbFace
 62
7
420
15920366
  6
CONTINUOUS
 10
24.6457920253
 20
0.8844629488
 30
0.0
 11
24.5133199439
 21
0.8849654383
 31
0.0
 12
24.58
 22
0.8669999707
 32
0.1113806069
 13
24.6457920253
 23
0.8844629488
 33
0.0
  0
3DFACE
  5
2BE
100
AcDbEntity
  8
12
100
AcDbFace
 62
7
420
15920366
  6
CONTINUOUS
 10
24.6457920253
 20
0.8844629488
 30
0.0
 11
24.58
 21
0.8669999707
 31
0.1113806069
 12
24.6465
 22
0.884818592
 32
0.1113806069
 13
24.6457920253
 23
0.8844629488
 33
0.0
  0
3DFACE
  5
2BF
100
AcDbEntity
  8
12
100
AcDbFace
 62
7
420
15920366
  6
CONTINUOUS
 10
24.6457920253
 20
0.8844629488
 30
0.0
 11
24.6465
 21
0.884818592
 31
0.1113806069
 12
24.6951813787
 22
0.9334999707
 32
0.1113806069
 13
24.6457920253
 23
0.8844629488
 33
0.0
  0
3DFACE
  5
2C0
100
AcDbEntity
  8
12
100
AcDbFace
 62
7
420
15920366
  6
CONTINUOUS
 10
24.6457920253
 20
0.8844629488
 30
0.0
 11
24.6951813787
 21
0.9334999707
 31
0.1113806069
 12
24.713
 22
0.9999999707
 32
0.1113806069
 13
24.6457920253
 23
0.8844629488
 33
0.0
  0
3DFACE
  5
2C1
100
AcDbEntity
  8
12
100
AcDbFace
 62
7
420
15920366
  6
CONTINUOUS
 10
24.5133199439
 20
0.8849654383
 30
0.0
 11
24.4648186213
 21
0.9334999707
 31
0.1113806069
 12
24.5135
 22
0.884818592
 32
0.1113806069
 13
24.5133199439
 23
0.8849654383
 33
0.0
  0
3DFACE
  5
2C2
100
AcDbEntity
  8
12
100
AcDbFace
 62
7
420
15920366
  6
CONTINUOUS
 10
24.5133199439
 20
0.8849654383
 30
0.0
 11
24.5135
 21
0.884818592
 31
0.1113806069
 12
24.58
 22
0.8669999707
 32
0.1113806069
 13
24.5133199439
 23
0.8849654383
 33
0.0
  0
3DFACE
  5
2C3
100
AcDbEntity
  8
13
100
AcDbFace
 62
7
420
15920366
  6
CONTINUOUS
 10
24.8335
 20
11.0000000293
 30
0.25
 11
24.7582051223
 21
11.1802742521
 31
0.25
 12
24.713
 22
11.0000000293
 32
0.1113806069
 13
24.8335
 23
11.0000000293
 33
0.25
  0
3DFACE
  5
2C4
100
AcDbEntity
  8
13
100
AcDbFace
 62
7
420
15920366
  6
CONTINUOUS
 10
24.7582051223
 20
11.1802742521
 30
0.25
 11
24.5789672531
 21
11.2534019669
 31
0.25
 12
24.6465
 22
11.115181408
 32
0.1113806069
 13
24.7582051223
 23
11.1802742521
 33
0.25
  0
3DFACE
  5
2C5
100
AcDbEntity
  8
13
100
AcDbFace
 62
7
420
15920366
  6
CONTINUOUS
 10
24.713
 20
11.0000000293
 30
0.1113806069
 11
24.7582051223
 21
11.1802742521
 31
0.25
 12
24.6951813787
 22
11.0665000293
 32
0.1113806069
 13
24.713
 23
11.0000000293
 33
0.1113806069
  0
3DFACE
  5
2C6
100
AcDbEntity
  8
13
100
AcDbFace
 62
7
420
15920366
  6
CONTINUOUS
 10
24.6951813787
 20
11.0665000293
 30
0.1113806069
 11
24.7582051223
 21
11.1802742521
 31
0.25
 12
24.6465
 22
11.115181408
 32
0.1113806069
 13
24.6951813787
 23
11.0665000293
 33
0.1113806069
  0
3DFACE
  5
2C7
100
AcDbEntity
  8
13
100
AcDbFace
 62
7
420
15920366
  6
CONTINUOUS
 10
24.5789672531
 20
11.2534019669
 30
0.25
 11
24.4006871989
 21
11.1791779261
 31
0.25
 12
24.5135
 22
11.115181408
 32
0.1113806069
 13
24.5789672531
 23
11.2534019669
 33
0.25
  0
3DFACE
  5
2C8
100
AcDbEntity
  8
13
100
AcDbFace
 62
7
420
15920366
  6
CONTINUOUS
 10
24.6465
 20
11.115181408
 30
0.1113806069
 11
24.5789672531
 21
11.2534019669
 31
0.25
 12
24.58
 22
11.1330000293
 32
0.1113806069
 13
24.6465
 23
11.115181408
 33
0.1113806069
  0
3DFACE
  5
2C9
100
AcDbEntity
  8
13
100
AcDbFace
 62
7
420
15920366
  6
CONTINUOUS
 10
24.58
 20
11.1330000293
 30
0.1113806069
 11
24.5789672531
 21
11.2534019669
 31
0.25
 12
24.5135
 22
11.115181408
 32
0.1113806069
 13
24.58
 23
11.1330000293
 33
0.1113806069
  0
3DFACE
  5
2CA
100
AcDbEntity
  8
13
100
AcDbFace
 62
7
420
15920366
  6
CONTINUOUS
 10
24.4006871989
 20
11.1791779261
 30
0.25
 11
24.3265
 21
11.0000000293
 31
0.25
 12
24.4648186213
 22
11.0665000293
 32
0.1113806069
 13
24.4006871989
 23
11.1791779261
 33
0.25
  0
3DFACE
  5
2CB
100
AcDbEntity
  8
13
100
AcDbFace
 62
7
420
15920366
  6
CONTINUOUS
 10
24.5135
 20
11.115181408
 30
0.1113806069
 11
24.4006871989
 21
11.1791779261
 31
0.25
 12
24.4648186213
 22
11.0665000293
 32
0.1113806069
 13
24.5135
 23
11.115181408
 33
0.1113806069
  0
3DFACE
  5
2CC
100
AcDbEntity
  8
13
100
AcDbFace
 62
7
420
15920366
  6
CONTINUOUS
 10
24.3265
 20
11.0000000293
 30
0.25
 11
24.447
 21
11.0000000293
 31
0.1113806069
 12
24.4648186213
 22
11.0665000293
 32
0.1113806069
 13
24.3265
 23
11.0000000293
 33
0.25
  0
3DFACE
  5
2CD
100
AcDbEntity
  8
14
100
AcDbFace
 62
7
420
15920366
  6
CONTINUOUS
 10
24.7593128011
 20
10.8208221326
 30
0.25
 11
24.8335
 21
11.0000000293
 31
0.25
 12
24.6951813787
 22
10.9335000293
 32
0.1113806069
 13
24.7593128011
 23
10.8208221326
 33
0.25
  0
3DFACE
  5
2CE
100
AcDbEntity
  8
14
100
AcDbFace
 62
7
420
15920366
  6
CONTINUOUS
 10
24.6951813787
 20
10.9335000293
 30
0.1113806069
 11
24.8335
 21
11.0000000293
 31
0.25
 12
24.713
 22
11.0000000293
 32
0.1113806069
 13
24.6951813787
 23
10.9335000293
 33
0.1113806069
  0
3DFACE
  5
2CF
100
AcDbEntity
  8
14
100
AcDbFace
 62
7
420
15920366
  6
CONTINUOUS
 10
24.3265
 20
11.0000000293
 30
0.25
 11
24.4017948777
 21
10.8197258066
 31
0.25
 12
24.447
 22
11.0000000293
 32
0.1113806069
 13
24.3265
 23
11.0000000293
 33
0.25
  0
3DFACE
  5
2D0
100
AcDbEntity
  8
14
100
AcDbFace
 62
7
420
15920366
  6
CONTINUOUS
 10
24.4017948777
 20
10.8197258066
 30
0.25
 11
24.5810327469
 21
10.7465980917
 31
0.25
 12
24.5135
 22
10.8848186506
 32
0.1113806069
 13
24.4017948777
 23
10.8197258066
 33
0.25
  0
3DFACE
  5
2D1
100
AcDbEntity
  8
14
100
AcDbFace
 62
7
420
15920366
  6
CONTINUOUS
 10
24.447
 20
11.0000000293
 30
0.1113806069
 11
24.4017948777
 21
10.8197258066
 31
0.25
 12
24.4648186213
 22
10.9335000293
 32
0.1113806069
 13
24.447
 23
11.0000000293
 33
0.1113806069
  0
3DFACE
  5
2D2
100
AcDbEntity
  8
14
100
AcDbFace
 62
7
420
15920366
  6
CONTINUOUS
 10
24.4648186213
 20
10.9335000293
 30
0.1113806069
 11
24.4017948777
 21
10.8197258066
 31
0.25
 12
24.5135
 22
10.8848186506
 32
0.1113806069
 13
24.4648186213
 23
10.9335000293
 33
0.1113806069
  0
3DFACE
  5
2D3
100
AcDbEntity
  8
14
100
AcDbFace
 62
7
420
15920366
  6
CONTINUOUS
 10
24.5810327469
 20
10.7465980917
 30
0.25
 11
24.7593128011
 21
10.8208221326
 31
0.25
 12
24.6465
 22
10.8848186506
 32
0.1113806069
 13
24.5810327469
 23
10.7465980917
 33
0.25
  0
3DFACE
  5
2D4
100
AcDbEntity
  8
14
100
AcDbFace
 62
7
420
15920366
  6
CONTINUOUS
 10
24.5135
 20
10.8848186506
 30
0.1113806069
 11
24.5810327469
 21
10.7465980917
 31
0.25
 12
24.58
 22
10.8670000293
 32
0.1113806069
 13
24.5135
 23
10.8848186506
 33
0.1113806069
  0
3DFACE
  5
2D5
100
AcDbEntity
  8
14
100
AcDbFace
 62
7
420
15920366
  6
CONTINUOUS
 10
24.58
 20
10.8670000293
 30
0.1113806069
 11
24.5810327469
 21
10.7465980917
 31
0.25
 12
24.6465
 22
10.8848186506
 32
0.1113806069
 13
24.58
 23
10.8670000293
 33
0.1113806069
  0
3DFACE
  5
2D6
100
AcDbEntity
  8
14
100
AcDbFace
 62
7
420
15920366
  6
CONTINUOUS
 10
24.6465
 20
10.8848186506
 30
0.1113806069
 11
24.7593128011
 21
10.8208221326
 31
0.25
 12
24.6951813787
 22
10.9335000293
 32
0.1113806069
 13
24.6465
 23
10.8848186506
 33
0.1113806069
  0
3DFACE
  5
2D7
100
AcDbEntity
  8
15
100
AcDbFace
 62
7
420
15920366
  6
CONTINUOUS
 10
24.447
 20
11.0000000293
 30
0.0
 11
24.5142079747
 21
11.1155370512
 31
0.0
 12
24.447
 22
11.0000000293
 32
0.1113806069
 13
24.447
 23
11.0000000293
 33
0.0
  0
3DFACE
  5
2D8
100
AcDbEntity
  8
15
100
AcDbFace
 62
7
420
15920366
  6
CONTINUOUS
 10
24.5142079747
 20
11.1155370512
 30
0.0
 11
24.6466800561
 21
11.1150345617
 31
0.0
 12
24.58
 22
11.1330000293
 32
0.1113806069
 13
24.5142079747
 23
11.1155370512
 33
0.0
  0
3DFACE
  5
2D9
100
AcDbEntity
  8
15
100
AcDbFace
 62
7
420
15920366
  6
CONTINUOUS
 10
24.447
 20
11.0000000293
 30
0.1113806069
 11
24.5142079747
 21
11.1155370512
 31
0.0
 12
24.4648186213
 22
11.0665000293
 32
0.1113806069
 13
24.447
 23
11.0000000293
 33
0.1113806069
  0
3DFACE
  5
2DA
100
AcDbEntity
  8
15
100
AcDbFace
 62
7
420
15920366
  6
CONTINUOUS
 10
24.5142079747
 20
11.1155370512
 30
0.0
 11
24.58
 21
11.1330000293
 31
0.1113806069
 12
24.5135
 22
11.115181408
 32
0.1113806069
 13
24.5142079747
 23
11.1155370512
 33
0.0
  0
3DFACE
  5
2DB
100
AcDbEntity
  8
15
100
AcDbFace
 62
7
420
15920366
  6
CONTINUOUS
 10
24.5142079747
 20
11.1155370512
 30
0.0
 11
24.5135
 21
11.115181408
 31
0.1113806069
 12
24.4648186213
 22
11.0665000293
 32
0.1113806069
 13
24.5142079747
 23
11.1155370512
 33
0.0
  0
3DFACE
  5
2DC
100
AcDbEntity
  8
15
100
AcDbFace
 62
7
420
15920366
  6
CONTINUOUS
 10
24.6466800561
 20
11.1150345617
 30
0.0
 11
24.713
 21
11.0000000293
 31
0.0
 12
24.6951813787
 22
11.0665000293
 32
0.1113806069
 13
24.6466800561
 23
11.1150345617
 33
0.0
  0
3DFACE
  5
2DD
100
AcDbEntity
  8
15
100
AcDbFace
 62
7
420
15920366
  6
CONTINUOUS
 10
24.6466800561
 20
11.1150345617
 30
0.0
 11
24.6951813787
 21
11.0665000293
 31
0.1113806069
 12
24.6465
 22
11.115181408
 32
0.1113806069
 13
24.6466800561
 23
11.1150345617
 33
0.0
  0
3DFACE
  5
2DE
100
AcDbEntity
  8
15
100
AcDbFace
 62
7
420
15920366
  6
CONTINUOUS
 10
24.6466800561
 20
11.1150345617
 30
0.0
 11
24.6465
 21
11.115181408
 31
0.1113806069
 12
24.58
 22
11.1330000293
 32
0.1113806069
 13
24.6466800561
 23
11.1150345617
 33
0.0
  0
3DFACE
  5
2DF
100
AcDbEntity
  8
15
100
AcDbFace
 62
7
420
15920366
  6
CONTINUOUS
 10
24.713
 20
11.0000000293
 30
0.0
 11
24.713
 21
11.0000000293
 31
0.1113806069
 12
24.6951813787
 22
11.0665000293
 32
0.1113806069
 13
24.713
 23
11.0000000293
 33
0.0
  0
3DFACE
  5
2E0
100
AcDbEntity
  8
16
100
AcDbFace
 62
7
420
15920366
  6
CONTINUOUS
 10
24.5133199439
 20
10.8849654969
 30
0.0
 11
24.447
 21
11.0000000293
 31
0.0
 12
24.4648186213
 22
10.9335000293
 32
0.1113806069
 13
24.5133199439
 23
10.8849654969
 33
0.0
  0
3DFACE
  5
2E1
100
AcDbEntity
  8
16
100
AcDbFace
 62
7
420
15920366
  6
CONTINUOUS
 10
24.447
 20
11.0000000293
 30
0.0
 11
24.447
 21
11.0000000293
 31
0.1113806069
 12
24.4648186213
 22
10.9335000293
 32
0.1113806069
 13
24.447
 23
11.0000000293
 33
0.0
  0
3DFACE
  5
2E2
100
AcDbEntity
  8
16
100
AcDbFace
 62
7
420
15920366
  6
CONTINUOUS
 10
24.713
 20
11.0000000293
 30
0.0
 11
24.6457920253
 21
10.8844630075
 31
0.0
 12
24.713
 22
11.0000000293
 32
0.1113806069
 13
24.713
 23
11.0000000293
 33
0.0
  0
3DFACE
  5
2E3
100
AcDbEntity
  8
16
100
AcDbFace
 62
7
420
15920366
  6
CONTINUOUS
 10
24.6457920253
 20
10.8844630075
 30
0.0
 11
24.5133199439
 21
10.8849654969
 31
0.0
 12
24.58
 22
10.8670000293
 32
0.1113806069
 13
24.6457920253
 23
10.8844630075
 33
0.0
  0
3DFACE
  5
2E4
100
AcDbEntity
  8
16
100
AcDbFace
 62
7
420
15920366
  6
CONTINUOUS
 10
24.6457920253
 20
10.8844630075
 30
0.0
 11
24.58
 21
10.8670000293
 31
0.1113806069
 12
24.6465
 22
10.8848186506
 32
0.1113806069
 13
24.6457920253
 23
10.8844630075
 33
0.0
  0
3DFACE
  5
2E5
100
AcDbEntity
  8
16
100
AcDbFace
 62
7
420
15920366
  6
CONTINUOUS
 10
24.6457920253
 20
10.8844630075
 30
0.0
 11
24.6465
 21
10.8848186506
 31
0.1113806069
 12
24.6951813787
 22
10.9335000293
 32
0.1113806069
 13
24.6457920253
 23
10.8844630075
 33
0.0
  0
3DFACE
  5
2E6
100
AcDbEntity
  8
16
100
AcDbFace
 62
7
420
15920366
  6
CONTINUOUS
 10
24.6457920253
 20
10.8844630075
 30
0.0
 11
24.6951813787
 21
10.9335000293
 31
0.1113806069
 12
24.713
 22
11.0000000293
 32
0.1113806069
 13
24.6457920253
 23
10.8844630075
 33
0.0
  0
3DFACE
  5
2E7
100
AcDbEntity
  8
16
100
AcDbFace
 62
7
420
15920366
  6
CONTINUOUS
 10
24.5133199439
 20
10.8849654969
 30
0.0
 11
24.4648186213
 21
10.9335000293
 31
0.1113806069
 12
24.5135
 22
10.8848186506
 32
0.1113806069
 13
24.5133199439
 23
10.8849654969
 33
0.0
  0
3DFACE
  5
2E8
100
AcDbEntity
  8
16
100
AcDbFace
 62
7
420
15920366
  6
CONTINUOUS
 10
24.5133199439
 20
10.8849654969
 30
0.0
 11
24.5135
 21
10.8848186506
 31
0.1113806069
 12
24.58
 22
10.8670000293
 32
0.1113806069
 13
24.5133199439
 23
10.8849654969
 33
0.0
  0
3DFACE
  5
2E9
100
AcDbEntity
  8
17
100
AcDbFace
 62
7
420
15920366
  6
CONTINUOUS
 10
8.5035
 20
0.9999999707
 30
0.25
 11
8.4282051223
 21
1.1802741934
 31
0.25
 12
8.383
 22
0.9999999707
 32
0.1113806069
 13
8.5035
 23
0.9999999707
 33
0.25
  0
3DFACE
  5
2EA
100
AcDbEntity
  8
17
100
AcDbFace
 62
7
420
15920366
  6
CONTINUOUS
 10
8.4282051223
 20
1.1802741934
 30
0.25
 11
8.2489672531
 21
1.2534019083
 31
0.25
 12
8.3165
 22
1.1151813494
 32
0.1113806069
 13
8.4282051223
 23
1.1802741934
 33
0.25
  0
3DFACE
  5
2EB
100
AcDbEntity
  8
17
100
AcDbFace
 62
7
420
15920366
  6
CONTINUOUS
 10
8.383
 20
0.9999999707
 30
0.1113806069
 11
8.4282051223
 21
1.1802741934
 31
0.25
 12
8.3651813787
 22
1.0664999707
 32
0.1113806069
 13
8.383
 23
0.9999999707
 33
0.1113806069
  0
3DFACE
  5
2EC
100
AcDbEntity
  8
17
100
AcDbFace
 62
7
420
15920366
  6
CONTINUOUS
 10
8.3651813787
 20
1.0664999707
 30
0.1113806069
 11
8.4282051223
 21
1.1802741934
 31
0.25
 12
8.3165
 22
1.1151813494
 32
0.1113806069
 13
8.3651813787
 23
1.0664999707
 33
0.1113806069
  0
3DFACE
  5
2ED
100
AcDbEntity
  8
17
100
AcDbFace
 62
7
420
15920366
  6
CONTINUOUS
 10
8.2489672531
 20
1.2534019083
 30
0.25
 11
8.0706871989
 21
1.1791778674
 31
0.25
 12
8.1835
 22
1.1151813494
 32
0.1113806069
 13
8.2489672531
 23
1.2534019083
 33
0.25
  0
3DFACE
  5
2EE
100
AcDbEntity
  8
17
100
AcDbFace
 62
7
420
15920366
  6
CONTINUOUS
 10
8.3165
 20
1.1151813494
 30
0.1113806069
 11
8.2489672531
 21
1.2534019083
 31
0.25
 12
8.25
 22
1.1329999707
 32
0.1113806069
 13
8.3165
 23
1.1151813494
 33
0.1113806069
  0
3DFACE
  5
2EF
100
AcDbEntity
  8
17
100
AcDbFace
 62
7
420
15920366
  6
CONTINUOUS
 10
8.25
 20
1.1329999707
 30
0.1113806069
 11
8.2489672531
 21
1.2534019083
 31
0.25
 12
8.1835
 22
1.1151813494
 32
0.1113806069
 13
8.25
 23
1.1329999707
 33
0.1113806069
  0
3DFACE
  5
2F0
100
AcDbEntity
  8
17
100
AcDbFace
 62
7
420
15920366
  6
CONTINUOUS
 10
8.0706871989
 20
1.1791778674
 30
0.25
 11
7.9965
 21
0.9999999707
 31
0.25
 12
8.1348186213
 22
1.0664999707
 32
0.1113806069
 13
8.0706871989
 23
1.1791778674
 33
0.25
  0
3DFACE
  5
2F1
100
AcDbEntity
  8
17
100
AcDbFace
 62
7
420
15920366
  6
CONTINUOUS
 10
8.1835
 20
1.1151813494
 30
0.1113806069
 11
8.0706871989
 21
1.1791778674
 31
0.25
 12
8.1348186213
 22
1.0664999707
 32
0.1113806069
 13
8.1835
 23
1.1151813494
 33
0.1113806069
  0
3DFACE
  5
2F2
100
AcDbEntity
  8
17
100
AcDbFace
 62
7
420
15920366
  6
CONTINUOUS
 10
7.9965
 20
0.9999999707
 30
0.25
 11
8.117
 21
0.9999999707
 31
0.1113806069
 12
8.1348186213
 22
1.0664999707
 32
0.1113806069
 13
7.9965
 23
0.9999999707
 33
0.25
  0
3DFACE
  5
2F3
100
AcDbEntity
  8
18
100
AcDbFace
 62
7
420
15920366
  6
CONTINUOUS
 10
8.4293128011
 20
0.8208220739
 30
0.25
 11
8.5035
 21
0.9999999707
 31
0.25
 12
8.3651813787
 22
0.9334999707
 32
0.1113806069
 13
8.4293128011
 23
0.8208220739
 33
0.25
  0
3DFACE
  5
2F4
100
AcDbEntity
  8
18
100
AcDbFace
 62
7
420
15920366
  6
CONTINUOUS
 10
8.3651813787
 20
0.9334999707
 30
0.1113806069
 11
8.5035
 21
0.9999999707
 31
0.25
 12
8.383
 22
0.9999999707
 32
0.1113806069
 13
8.3651813787
 23
0.9334999707
 33
0.1113806069
  0
3DFACE
  5
2F5
100
AcDbEntity
  8
18
100
AcDbFace
 62
7
420
15920366
  6
CONTINUOUS
 10
7.9965
 20
0.9999999707
 30
0.25
 11
8.0717948777
 21
0.8197257479
 31
0.25
 12
8.117
 22
0.9999999707
 32
0.1113806069
 13
7.9965
 23
0.9999999707
 33
0.25
  0
3DFACE
  5
2F6
100
AcDbEntity
  8
18
100
AcDbFace
 62
7
420
15920366
  6
CONTINUOUS
 10
8.0717948777
 20
0.8197257479
 30
0.25
 11
8.2510327469
 21
0.7465980331
 31
0.25
 12
8.1835
 22
0.884818592
 32
0.1113806069
 13
8.0717948777
 23
0.8197257479
 33
0.25
  0
3DFACE
  5
2F7
100
AcDbEntity
  8
18
100
AcDbFace
 62
7
420
15920366
  6
CONTINUOUS
 10
8.117
 20
0.9999999707
 30
0.1113806069
 11
8.0717948777
 21
0.8197257479
 31
0.25
 12
8.1348186213
 22
0.9334999707
 32
0.1113806069
 13
8.117
 23
0.9999999707
 33
0.1113806069
  0
3DFACE
  5
2F8
100
AcDbEntity
  8
18
100
AcDbFace
 62
7
420
15920366
  6
CONTINUOUS
 10
8.1348186213
 20
0.9334999707
 30
0.1113806069
 11
8.0717948777
 21
0.8197257479
 31
0.25
 12
8.1835
 22
0.884818592
 32
0.1113806069
 13
8.1348186213
 23
0.9334999707
 33
0.1113806069
  0
3DFACE
  5
2F9
100
AcDbEntity
  8
18
100
AcDbFace
 62
7
420
15920366
  6
CONTINUOUS
 10
8.2510327469
 20
0.7465980331
 30
0.25
 11
8.4293128011
 21
0.8208220739
 31
0.25
 12
8.3165
 22
0.884818592
 32
0.1113806069
 13
8.2510327469
 23
0.7465980331
 33
0.25
  0
3DFACE
  5
2FA
100
AcDbEntity
  8
18
100
AcDbFace
 62
7
420
15920366
  6
CONTINUOUS
 10
8.1835
 20
0.884818592
 30
0.1113806069
 11
8.2510327469
 21
0.7465980331
 31
0.25
 12
8.25
 22
0.8669999707
 32
0.1113806069
 13
8.1835
 23
0.884818592
 33
0.1113806069
  0
3DFACE
  5
2FB
100
AcDbEntity
  8
18
100
AcDbFace
 62
7
420
15920366
  6
CONTINUOUS
 10
8.25
 20
0.8669999707
 30
0.1113806069
 11
8.2510327469
 21
0.7465980331
 31
0.25
 12
8.3165
 22
0.884818592
 32
0.1113806069
 13
8.25
 23
0.8669999707
 33
0.1113806069
  0
3DFACE
  5
2FC
100
AcDbEntity
  8
18
100
AcDbFace
 62
7
420
15920366
  6
CONTINUOUS
 10
8.3165
 20
0.884818592
 30
0.1113806069
 11
8.4293128011
 21
0.8208220739
 31
0.25
 12
8.3651813787
 22
0.9334999707
 32
0.1113806069
 13
8.3165
 23
0.884818592
 33
0.1113806069
  0
3DFACE
  5
2FD
100
AcDbEntity
  8
19
100
AcDbFace
 62
7
420
15920366
  6
CONTINUOUS
 10
8.117
 20
0.9999999707
 30
0.0
 11
8.1842079747
 21
1.1155369925
 31
0.0
 12
8.117
 22
0.9999999707
 32
0.1113806069
 13
8.117
 23
0.9999999707
 33
0.0
  0
3DFACE
  5
2FE
100
AcDbEntity
  8
19
100
AcDbFace
 62
7
420
15920366
  6
CONTINUOUS
 10
8.1842079747
 20
1.1155369925
 30
0.0
 11
8.3166800561
 21
1.1150345031
 31
0.0
 12
8.25
 22
1.1329999707
 32
0.1113806069
 13
8.1842079747
 23
1.1155369925
 33
0.0
  0
3DFACE
  5
2FF
100
AcDbEntity
  8
19
100
AcDbFace
 62
7
420
15920366
  6
CONTINUOUS
 10
8.117
 20
0.9999999707
 30
0.1113806069
 11
8.1842079747
 21
1.1155369925
 31
0.0
 12
8.1348186213
 22
1.0664999707
 32
0.1113806069
 13
8.117
 23
0.9999999707
 33
0.1113806069
  0
3DFACE
  5
300
100
AcDbEntity
  8
19
100
AcDbFace
 62
7
420
15920366
  6
CONTINUOUS
 10
8.1842079747
 20
1.1155369925
 30
0.0
 11
8.25
 21
1.1329999707
 31
0.1113806069
 12
8.1835
 22
1.1151813494
 32
0.1113806069
 13
8.1842079747
 23
1.1155369925
 33
0.0
  0
3DFACE
  5
301
100
AcDbEntity
  8
19
100
AcDbFace
 62
7
420
15920366
  6
CONTINUOUS
 10
8.1842079747
 20
1.1155369925
 30
0.0
 11
8.1835
 21
1.1151813494
 31
0.1113806069
 12
8.1348186213
 22
1.0664999707
 32
0.1113806069
 13
8.1842079747
 23
1.1155369925
 33
0.0
  0
3DFACE
  5
302
100
AcDbEntity
  8
19
100
AcDbFace
 62
7
420
15920366
  6
CONTINUOUS
 10
8.3166800561
 20
1.1150345031
 30
0.0
 11
8.383
 21
0.9999999707
 31
0.0
 12
8.3651813787
 22
1.0664999707
 32
0.1113806069
 13
8.3166800561
 23
1.1150345031
 33
0.0
  0
3DFACE
  5
303
100
AcDbEntity
  8
19
100
AcDbFace
 62
7
420
15920366
  6
CONTINUOUS
 10
8.3166800561
 20
1.1150345031
 30
0.0
 11
8.3651813787
 21
1.0664999707
 31
0.1113806069
 12
8.3165
 22
1.1151813494
 32
0.1113806069
 13
8.3166800561
 23
1.1150345031
 33
0.0
  0
3DFACE
  5
304
100
AcDbEntity
  8
19
100
AcDbFace
 62
7
420
15920366
  6
CONTINUOUS
 10
8.3166800561
 20
1.1150345031
 30
0.0
 11
8.3165
 21
1.1151813494
 31
0.1113806069
 12
8.25
 22
1.1329999707
 32
0.1113806069
 13
8.3166800561
 23
1.1150345031
 33
0.0
  0
3DFACE
  5
305
100
AcDbEntity
  8
19
100
AcDbFace
 62
7
420
15920366
  6
CONTINUOUS
 10
8.383
 20
0.9999999707
 30
0.0
 11
8.383
 21
0.9999999707
 31
0.1113806069
 12
8.3651813787
 22
1.0664999707
 32
0.1113806069
 13
8.383
 23
0.9999999707
 33
0.0
  0
3DFACE
  5
306
100
AcDbEntity
  8
20
100
AcDbFace
 62
7
420
15920366
  6
CONTINUOUS
 10
8.1833199439
 20
0.8849654383
 30
0.0
 11
8.117
 21
0.9999999707
 31
0.0
 12
8.1348186213
 22
0.9334999707
 32
0.1113806069
 13
8.1833199439
 23
0.8849654383
 33
0.0
  0
3DFACE
  5
307
100
AcDbEntity
  8
20
100
AcDbFace
 62
7
420
15920366
  6
CONTINUOUS
 10
8.117
 20
0.9999999707
 30
0.0
 11
8.117
 21
0.9999999707
 31
0.1113806069
 12
8.1348186213
 22
0.9334999707
 32
0.1113806069
 13
8.117
 23
0.9999999707
 33
0.0
  0
3DFACE
  5
308
100
AcDbEntity
  8
20
100
AcDbFace
 62
7
420
15920366
  6
CONTINUOUS
 10
8.383
 20
0.9999999707
 30
0.0
 11
8.3157920253
 21
0.8844629488
 31
0.0
 12
8.383
 22
0.9999999707
 32
0.1113806069
 13
8.383
 23
0.9999999707
 33
0.0
  0
3DFACE
  5
309
100
AcDbEntity
  8
20
100
AcDbFace
 62
7
420
15920366
  6
CONTINUOUS
 10
8.3157920253
 20
0.8844629488
 30
0.0
 11
8.1833199439
 21
0.8849654383
 31
0.0
 12
8.25
 22
0.8669999707
 32
0.1113806069
 13
8.3157920253
 23
0.8844629488
 33
0.0
  0
3DFACE
  5
30A
100
AcDbEntity
  8
20
100
AcDbFace
 62
7
420
15920366
  6
CONTINUOUS
 10
8.3157920253
 20
0.8844629488
 30
0.0
 11
8.25
 21
0.8669999707
 31
0.1113806069
 12
8.3165
 22
0.884818592
 32
0.1113806069
 13
8.3157920253
 23
0.8844629488
 33
0.0
  0
3DFACE
  5
30B
100
AcDbEntity
  8
20
100
AcDbFace
 62
7
420
15920366
  6
CONTINUOUS
 10
8.3157920253
 20
0.8844629488
 30
0.0
 11
8.3165
 21
0.884818592
 31
0.1113806069
 12
8.3651813787
 22
0.9334999707
 32
0.1113806069
 13
8.3157920253
 23
0.8844629488
 33
0.0
  0
3DFACE
  5
30C
100
AcDbEntity
  8
20
100
AcDbFace
 62
7
420
15920366
  6
CONTINUOUS
 10
8.3157920253
 20
0.8844629488
 30
0.0
 11
8.3651813787
 21
0.9334999707
 31
0.1113806069
 12
8.383
 22
0.9999999707
 32
0.1113806069
 13
8.3157920253
 23
0.8844629488
 33
0.0
  0
3DFACE
  5
30D
100
AcDbEntity
  8
20
100
AcDbFace
 62
7
420
15920366
  6
CONTINUOUS
 10
8.1833199439
 20
0.8849654383
 30
0.0
 11
8.1348186213
 21
0.9334999707
 31
0.1113806069
 12
8.1835
 22
0.884818592
 32
0.1113806069
 13
8.1833199439
 23
0.8849654383
 33
0.0
  0
3DFACE
  5
30E
100
AcDbEntity
  8
20
100
AcDbFace
 62
7
420
15920366
  6
CONTINUOUS
 10
8.1833199439
 20
0.8849654383
 30
0.0
 11
8.1835
 21
0.884818592
 31
0.1113806069
 12
8.25
 22
0.8669999707
 32
0.1113806069
 13
8.1833199439
 23
0.8849654383
 33
0.0
  0
3DFACE
  5
30F
100
AcDbEntity
  8
21
100
AcDbFace
 62
7
420
15920366
  6
CONTINUOUS
 10
8.5035
 20
11.0000000293
 30
0.25
 11
8.4282051223
 21
11.1802742521
 31
0.25
 12
8.383
 22
11.0000000293
 32
0.1113806069
 13
8.5035
 23
11.0000000293
 33
0.25
  0
3DFACE
  5
310
100
AcDbEntity
  8
21
100
AcDbFace
 62
7
420
15920366
  6
CONTINUOUS
 10
8.4282051223
 20
11.1802742521
 30
0.25
 11
8.2489672531
 21
11.2534019669
 31
0.25
 12
8.3165
 22
11.115181408
 32
0.1113806069
 13
8.4282051223
 23
11.1802742521
 33
0.25
  0
3DFACE
  5
311
100
AcDbEntity
  8
21
100
AcDbFace
 62
7
420
15920366
  6
CONTINUOUS
 10
8.383
 20
11.0000000293
 30
0.1113806069
 11
8.4282051223
 21
11.1802742521
 31
0.25
 12
8.3651813787
 22
11.0665000293
 32
0.1113806069
 13
8.383
 23
11.0000000293
 33
0.1113806069
  0
3DFACE
  5
312
100
AcDbEntity
  8
21
100
AcDbFace
 62
7
420
15920366
  6
CONTINUOUS
 10
8.3651813787
 20
11.0665000293
 30
0.1113806069
 11
8.4282051223
 21
11.1802742521
 31
0.25
 12
8.3165
 22
11.115181408
 32
0.1113806069
 13
8.3651813787
 23
11.0665000293
 33
0.1113806069
  0
3DFACE
  5
313
100
AcDbEntity
  8
21
100
AcDbFace
 62
7
420
15920366
  6
CONTINUOUS
 10
8.2489672531
 20
11.2534019669
 30
0.25
 11
8.0706871989
 21
11.1791779261
 31
0.25
 12
8.1835
 22
11.115181408
 32
0.1113806069
 13
8.2489672531
 23
11.2534019669
 33
0.25
  0
3DFACE
  5
314
100
AcDbEntity
  8
21
100
AcDbFace
 62
7
420
15920366
  6
CONTINUOUS
 10
8.3165
 20
11.115181408
 30
0.1113806069
 11
8.2489672531
 21
11.2534019669
 31
0.25
 12
8.25
 22
11.1330000293
 32
0.1113806069
 13
8.3165
 23
11.115181408
 33
0.1113806069
  0
3DFACE
  5
315
100
AcDbEntity
  8
21
100
AcDbFace
 62
7
420
15920366
  6
CONTINUOUS
 10
8.25
 20
11.1330000293
 30
0.1113806069
 11
8.2489672531
 21
11.2534019669
 31
0.25
 12
8.1835
 22
11.115181408
 32
0.1113806069
 13
8.25
 23
11.1330000293
 33
0.1113806069
  0
3DFACE
  5
316
100
AcDbEntity
  8
21
100
AcDbFace
 62
7
420
15920366
  6
CONTINUOUS
 10
8.0706871989
 20
11.1791779261
 30
0.25
 11
7.9965
 21
11.0000000293
 31
0.25
 12
8.1348186213
 22
11.0665000293
 32
0.1113806069
 13
8.0706871989
 23
11.1791779261
 33
0.25
  0
3DFACE
  5
317
100
AcDbEntity
  8
21
100
AcDbFace
 62
7
420
15920366
  6
CONTINUOUS
 10
8.1835
 20
11.115181408
 30
0.1113806069
 11
8.0706871989
 21
11.1791779261
 31
0.25
 12
8.1348186213
 22
11.0665000293
 32
0.1113806069
 13
8.1835
 23
11.115181408
 33
0.1113806069
  0
3DFACE
  5
318
100
AcDbEntity
  8
21
100
AcDbFace
 62
7
420
15920366
  6
CONTINUOUS
 10
7.9965
 20
11.0000000293
 30
0.25
 11
8.117
 21
11.0000000293
 31
0.1113806069
 12
8.1348186213
 22
11.0665000293
 32
0.1113806069
 13
7.9965
 23
11.0000000293
 33
0.25
  0
3DFACE
  5
319
100
AcDbEntity
  8
22
100
AcDbFace
 62
7
420
15920366
  6
CONTINUOUS
 10
8.4293128011
 20
10.8208221326
 30
0.25
 11
8.5035
 21
11.0000000293
 31
0.25
 12
8.3651813787
 22
10.9335000293
 32
0.1113806069
 13
8.4293128011
 23
10.8208221326
 33
0.25
  0
3DFACE
  5
31A
100
AcDbEntity
  8
22
100
AcDbFace
 62
7
420
15920366
  6
CONTINUOUS
 10
8.3651813787
 20
10.9335000293
 30
0.1113806069
 11
8.5035
 21
11.0000000293
 31
0.25
 12
8.383
 22
11.0000000293
 32
0.1113806069
 13
8.3651813787
 23
10.9335000293
 33
0.1113806069
  0
3DFACE
  5
31B
100
AcDbEntity
  8
22
100
AcDbFace
 62
7
420
15920366
  6
CONTINUOUS
 10
7.9965
 20
11.0000000293
 30
0.25
 11
8.0717948777
 21
10.8197258066
 31
0.25
 12
8.117
 22
11.0000000293
 32
0.1113806069
 13
7.9965
 23
11.0000000293
 33
0.25
  0
3DFACE
  5
31C
100
AcDbEntity
  8
22
100
AcDbFace
 62
7
420
15920366
  6
CONTINUOUS
 10
8.0717948777
 20
10.8197258066
 30
0.25
 11
8.2510327469
 21
10.7465980917
 31
0.25
 12
8.1835
 22
10.8848186506
 32
0.1113806069
 13
8.0717948777
 23
10.8197258066
 33
0.25
  0
3DFACE
  5
31D
100
AcDbEntity
  8
22
100
AcDbFace
 62
7
420
15920366
  6
CONTINUOUS
 10
8.117
 20
11.0000000293
 30
0.1113806069
 11
8.0717948777
 21
10.8197258066
 31
0.25
 12
8.1348186213
 22
10.9335000293
 32
0.1113806069
 13
8.117
 23
11.0000000293
 33
0.1113806069
  0
3DFACE
  5
31E
100
AcDbEntity
  8
22
100
AcDbFace
 62
7
420
15920366
  6
CONTINUOUS
 10
8.1348186213
 20
10.9335000293
 30
0.1113806069
 11
8.0717948777
 21
10.8197258066
 31
0.25
 12
8.1835
 22
10.8848186506
 32
0.1113806069
 13
8.1348186213
 23
10.9335000293
 33
0.1113806069
  0
3DFACE
  5
31F
100
AcDbEntity
  8
22
100
AcDbFace
 62
7
420
15920366
  6
CONTINUOUS
 10
8.2510327469
 20
10.7465980917
 30
0.25
 11
8.4293128011
 21
10.8208221326
 31
0.25
 12
8.3165
 22
10.8848186506
 32
0.1113806069
 13
8.2510327469
 23
10.7465980917
 33
0.25
  0
3DFACE
  5
320
100
AcDbEntity
  8
22
100
AcDbFace
 62
7
420
15920366
  6
CONTINUOUS
 10
8.1835
 20
10.8848186506
 30
0.1113806069
 11
8.2510327469
 21
10.7465980917
 31
0.25
 12
8.25
 22
10.8670000293
 32
0.1113806069
 13
8.1835
 23
10.8848186506
 33
0.1113806069
  0
3DFACE
  5
321
100
AcDbEntity
  8
22
100
AcDbFace
 62
7
420
15920366
  6
CONTINUOUS
 10
8.25
 20
10.8670000293
 30
0.1113806069
 11
8.2510327469
 21
10.7465980917
 31
0.25
 12
8.3165
 22
10.8848186506
 32
0.1113806069
 13
8.25
 23
10.8670000293
 33
0.1113806069
  0
3DFACE
  5
322
100
AcDbEntity
  8
22
100
AcDbFace
 62
7
420
15920366
  6
CONTINUOUS
 10
8.3165
 20
10.8848186506
 30
0.1113806069
 11
8.4293128011
 21
10.8208221326
 31
0.25
 12
8.3651813787
 22
10.9335000293
 32
0.1113806069
 13
8.3165
 23
10.8848186506
 33
0.1113806069
  0
3DFACE
  5
323
100
AcDbEntity
  8
23
100
AcDbFace
 62
7
420
15920366
  6
CONTINUOUS
 10
8.117
 20
11.0000000293
 30
0.0
 11
8.1842079747
 21
11.1155370512
 31
0.0
 12
8.117
 22
11.0000000293
 32
0.1113806069
 13
8.117
 23
11.0000000293
 33
0.0
  0
3DFACE
  5
324
100
AcDbEntity
  8
23
100
AcDbFace
 62
7
420
15920366
  6
CONTINUOUS
 10
8.1842079747
 20
11.1155370512
 30
0.0
 11
8.3166800561
 21
11.1150345617
 31
0.0
 12
8.25
 22
11.1330000293
 32
0.1113806069
 13
8.1842079747
 23
11.1155370512
 33
0.0
  0
3DFACE
  5
325
100
AcDbEntity
  8
23
100
AcDbFace
 62
7
420
15920366
  6
CONTINUOUS
 10
8.117
 20
11.0000000293
 30
0.1113806069
 11
8.1842079747
 21
11.1155370512
 31
0.0
 12
8.1348186213
 22
11.0665000293
 32
0.1113806069
 13
8.117
 23
11.0000000293
 33
0.1113806069
  0
3DFACE
  5
326
100
AcDbEntity
  8
23
100
AcDbFace
 62
7
420
15920366
  6
CONTINUOUS
 10
8.1842079747
 20
11.1155370512
 30
0.0
 11
8.25
 21
11.1330000293
 31
0.1113806069
 12
8.1835
 22
11.115181408
 32
0.1113806069
 13
8.1842079747
 23
11.1155370512
 33
0.0
  0
3DFACE
  5
327
100
AcDbEntity
  8
23
100
AcDbFace
 62
7
420
15920366
  6
CONTINUOUS
 10
8.1842079747
 20
11.1155370512
 30
0.0
 11
8.1835
 21
11.115181408
 31
0.1113806069
 12
8.1348186213
 22
11.0665000293
 32
0.1113806069
 13
8.1842079747
 23
11.1155370512
 33
0.0
  0
3DFACE
  5
328
100
AcDbEntity
  8
23
100
AcDbFace
 62
7
420
15920366
  6
CONTINUOUS
 10
8.3166800561
 20
11.1150345617
 30
0.0
 11
8.383
 21
11.0000000293
 31
0.0
 12
8.3651813787
 22
11.0665000293
 32
0.1113806069
 13
8.3166800561
 23
11.1150345617
 33
0.0
  0
3DFACE
  5
329
100
AcDbEntity
  8
23
100
AcDbFace
 62
7
420
15920366
  6
CONTINUOUS
 10
8.3166800561
 20
11.1150345617
 30
0.0
 11
8.3651813787
 21
11.0665000293
 31
0.1113806069
 12
8.3165
 22
11.115181408
 32
0.1113806069
 13
8.3166800561
 23
11.1150345617
 33
0.0
  0
3DFACE
  5
32A
100
AcDbEntity
  8
23
100
AcDbFace
 62
7
420
15920366
  6
CONTINUOUS
 10
8.3166800561
 20
11.1150345617
 30
0.0
 11
8.3165
 21
11.115181408
 31
0.1113806069
 12
8.25
 22
11.1330000293
 32
0.1113806069
 13
8.3166800561
 23
11.1150345617
 33
0.0
  0
3DFACE
  5
32B
100
AcDbEntity
  8
23
100
AcDbFace
 62
7
420
15920366
  6
CONTINUOUS
 10
8.383
 20
11.0000000293
 30
0.0
 11
8.383
 21
11.0000000293
 31
0.1113806069
 12
8.3651813787
 22
11.0665000293
 32
0.1113806069
 13
8.383
 23
11.0000000293
 33
0.0
  0
3DFACE
  5
32C
100
AcDbEntity
  8
24
100
AcDbFace
 62
7
420
15920366
  6
CONTINUOUS
 10
8.1833199439
 20
10.8849654969
 30
0.0
 11
8.117
 21
11.0000000293
 31
0.0
 12
8.1348186213
 22
10.9335000293
 32
0.1113806069
 13
8.1833199439
 23
10.8849654969
 33
0.0
  0
3DFACE
  5
32D
100
AcDbEntity
  8
24
100
AcDbFace
 62
7
420
15920366
  6
CONTINUOUS
 10
8.117
 20
11.0000000293
 30
0.0
 11
8.117
 21
11.0000000293
 31
0.1113806069
 12
8.1348186213
 22
10.9335000293
 32
0.1113806069
 13
8.117
 23
11.0000000293
 33
0.0
  0
3DFACE
  5
32E
100
AcDbEntity
  8
24
100
AcDbFace
 62
7
420
15920366
  6
CONTINUOUS
 10
8.383
 20
11.0000000293
 30
0.0
 11
8.3157920253
 21
10.8844630075
 31
0.0
 12
8.383
 22
11.0000000293
 32
0.1113806069
 13
8.383
 23
11.0000000293
 33
0.0
  0
3DFACE
  5
32F
100
AcDbEntity
  8
24
100
AcDbFace
 62
7
420
15920366
  6
CONTINUOUS
 10
8.3157920253
 20
10.8844630075
 30
0.0
 11
8.1833199439
 21
10.8849654969
 31
0.0
 12
8.25
 22
10.8670000293
 32
0.1113806069
 13
8.3157920253
 23
10.8844630075
 33
0.0
  0
3DFACE
  5
330
100
AcDbEntity
  8
24
100
AcDbFace
 62
7
420
15920366
  6
CONTINUOUS
 10
8.3157920253
 20
10.8844630075
 30
0.0
 11
8.25
 21
10.8670000293
 31
0.1113806069
 12
8.3165
 22
10.8848186506
 32
0.1113806069
 13
8.3157920253
 23
10.8844630075
 33
0.0
  0
3DFACE
  5
331
100
AcDbEntity
  8
24
100
AcDbFace
 62
7
420
15920366
  6
CONTINUOUS
 10
8.3157920253
 20
10.8844630075
 30
0.0
 11
8.3165
 21
10.8848186506
 31
0.1113806069
 12
8.3651813787
 22
10.9335000293
 32
0.1113806069
 13
8.3157920253
 23
10.8844630075
 33
0.0
  0
3DFACE
  5
332
100
AcDbEntity
  8
24
100
AcDbFace
 62
7
420
15920366
  6
CONTINUOUS
 10
8.3157920253
 20
10.8844630075
 30
0.0
 11
8.3651813787
 21
10.9335000293
 31
0.1113806069
 12
8.383
 22
11.0000000293
 32
0.1113806069
 13
8.3157920253
 23
10.8844630075
 33
0.0
  0
3DFACE
  5
333
100
AcDbEntity
  8
24
100
AcDbFace
 62
7
420
15920366
  6
CONTINUOUS
 10
8.1833199439
 20
10.8849654969
 30
0.0
 11
8.1348186213
 21
10.9335000293
 31
0.1113806069
 12
8.1835
 22
10.8848186506
 32
0.1113806069
 13
8.1833199439
 23
10.8849654969
 33
0.0
  0
3DFACE
  5
334
100
AcDbEntity
  8
24
100
AcDbFace
 62
7
420
15920366
  6
CONTINUOUS
 10
8.1833199439
 20
10.8849654969
 30
0.0
 11
8.1835
 21
10.8848186506
 31
0.1113806069
 12
8.25
 22
10.8670000293
 32
0.1113806069
 13
8.1833199439
 23
10.8849654969
 33
0.0
  0
3DFACE
  5
335
100
AcDbEntity
  8
25
100
AcDbFace
 62
7
420
15920366
  6
CONTINUOUS
 10
3.0008715315
 20
2.1552896397
 30
0.0
 11
2.6858214145
 21
2.146467709
 31
0.0
 12
3.0008715315
 22
2.1552896397
 32
0.25
 13
3.0008715315
 23
2.1552896397
 33
0.0
  0
3DFACE
  5
336
100
AcDbEntity
  8
25
100
AcDbFace
 62
7
420
15920366
  6
CONTINUOUS
 10
2.6858214145
 20
2.146467709
 30
0.0
 11
2.4293753996
 21
2.3260894898
 31
0.0
 12
2.6858214145
 22
2.146467709
 32
0.25
 13
2.6858214145
 23
2.146467709
 33
0.0
  0
3DFACE
  5
337
100
AcDbEntity
  8
25
100
AcDbFace
 62
7
420
15920366
  6
CONTINUOUS
 10
2.6858214145
 20
2.146467709
 30
0.0
 11
2.6858214145
 21
2.146467709
 31
0.25
 12
3.0008715315
 22
2.1552896397
 32
0.25
 13
2.6858214145
 23
2.146467709
 33
0.0
  0
3DFACE
  5
338
100
AcDbEntity
  8
25
100
AcDbFace
 62
7
420
15920366
  6
CONTINUOUS
 10
2.4293753996
 20
2.3260894898
 30
0.0
 11
2.33
 21
2.6251863515
 31
0.0
 12
2.4293753996
 22
2.3260894898
 32
0.25
 13
2.4293753996
 23
2.3260894898
 33
0.0
  0
3DFACE
  5
339
100
AcDbEntity
  8
25
100
AcDbFace
 62
7
420
15920366
  6
CONTINUOUS
 10
2.4293753996
 20
2.3260894898
 30
0.0
 11
2.4293753996
 21
2.3260894898
 31
0.25
 12
2.6858214145
 22
2.146467709
 32
0.25
 13
2.4293753996
 23
2.3260894898
 33
0.0
  0
3DFACE
  5
33A
100
AcDbEntity
  8
25
100
AcDbFace
 62
7
420
15920366
  6
CONTINUOUS
 10
2.33
 20
2.6251863515
 30
0.0
 11
2.33
 21
2.6251863515
 31
0.25
 12
2.4293753996
 22
2.3260894898
 32
0.25
 13
2.33
 23
2.6251863515
 33
0.0
  0
3DFACE
  5
33B
100
AcDbEntity
  8
26
100
AcDbFace
 62
7
420
15920366
  6
CONTINUOUS
 10
2.33
 20
2.6251863515
 30
0.0
 11
2.33
 21
9.3748136485
 31
0.0
 12
2.33
 22
2.6251863515
 32
0.25
 13
2.33
 23
2.6251863515
 33
0.0
  0
3DFACE
  5
33C
100
AcDbEntity
  8
26
100
AcDbFace
 62
7
420
15920366
  6
CONTINUOUS
 10
2.33
 20
2.6251863515
 30
0.25
 11
2.33
 21
9.3748136485
 31
0.0
 12
2.33
 22
9.3748136485
 32
0.25
 13
2.33
 23
2.6251863515
 33
0.25
  0
3DFACE
  5
33D
100
AcDbEntity
  8
27
100
AcDbFace
 62
7
420
15920366
  6
CONTINUOUS
 10
2.33
 20
9.3748136485
 30
0.0
 11
2.4293753996
 21
9.6739105102
 31
0.0
 12
2.33
 22
9.3748136485
 32
0.25
 13
2.33
 23
9.3748136485
 33
0.0
  0
3DFACE
  5
33E
100
AcDbEntity
  8
27
100
AcDbFace
 62
7
420
15920366
  6
CONTINUOUS
 10
2.4293753996
 20
9.6739105102
 30
0.0
 11
2.6858214145
 21
9.853532291
 31
0.0
 12
2.4293753996
 22
9.6739105102
 32
0.25
 13
2.4293753996
 23
9.6739105102
 33
0.0
  0
3DFACE
  5
33F
100
AcDbEntity
  8
27
100
AcDbFace
 62
7
420
15920366
  6
CONTINUOUS
 10
2.4293753996
 20
9.6739105102
 30
0.0
 11
2.4293753996
 21
9.6739105102
 31
0.25
 12
2.33
 22
9.3748136485
 32
0.25
 13
2.4293753996
 23
9.6739105102
 33
0.0
  0
3DFACE
  5
340
100
AcDbEntity
  8
27
100
AcDbFace
 62
7
420
15920366
  6
CONTINUOUS
 10
2.6858214145
 20
9.853532291
 30
0.0
 11
3.0008715315
 21
9.8447103603
 31
0.0
 12
2.6858214145
 22
9.853532291
 32
0.25
 13
2.6858214145
 23
9.853532291
 33
0.0
  0
3DFACE
  5
341
100
AcDbEntity
  8
27
100
AcDbFace
 62
7
420
15920366
  6
CONTINUOUS
 10
2.6858214145
 20
9.853532291
 30
0.0
 11
2.6858214145
 21
9.853532291
 31
0.25
 12
2.4293753996
 22
9.6739105102
 32
0.25
 13
2.6858214145
 23
9.853532291
 33
0.0
  0
3DFACE
  5
342
100
AcDbEntity
  8
27
100
AcDbFace
 62
7
420
15920366
  6
CONTINUOUS
 10
3.0008715315
 20
9.8447103603
 30
0.0
 11
3.0008715315
 21
9.8447103603
 31
0.25
 12
2.6858214145
 22
9.853532291
 32
0.25
 13
3.0008715315
 23
9.8447103603
 33
0.0
  0
3DFACE
  5
343
100
AcDbEntity
  8
28
100
AcDbFace
 62
7
420
15920366
  6
CONTINUOUS
 10
3.0008715315
 20
9.8447103603
 30
0.0
 11
12.281609065
 21
6.4698967117
 31
0.0
 12
3.0008715315
 22
9.8447103603
 32
0.25
 13
3.0008715315
 23
9.8447103603
 33
0.0
  0
3DFACE
  5
344
100
AcDbEntity
  8
28
100
AcDbFace
 62
7
420
15920366
  6
CONTINUOUS
 10
12.281609065
 20
6.4698967117
 30
0.0
 11
12.281609065
 21
6.4698967117
 31
0.25
 12
3.0008715315
 22
9.8447103603
 32
0.25
 13
12.281609065
 23
6.4698967117
 33
0.0
  0
3DFACE
  5
345
100
AcDbEntity
  8
29
100
AcDbFace
 62
7
420
15920366
  6
CONTINUOUS
 10
21.736609065
 20
2.9698967117
 30
0.0
 11
21.9986337351
 21
2.7500726625
 31
0.0
 12
21.736609065
 22
2.9698967117
 32
0.25
 13
21.736609065
 23
2.9698967117
 33
0.0
  0
3DFACE
  5
346
100
AcDbEntity
  8
29
100
AcDbFace
 62
7
420
15920366
  6
CONTINUOUS
 10
21.9986337351
 20
2.7500726625
 30
0.0
 11
22.0581542045
 21
2.413248504
 31
0.0
 12
21.9986443636
 22
2.7500542628
 32
0.25
 13
21.9986337351
 23
2.7500726625
 33
0.0
  0
3DFACE
  5
347
100
AcDbEntity
  8
29
100
AcDbFace
 62
7
420
15920366
  6
CONTINUOUS
 10
21.9986337351
 20
2.7500726625
 30
0.0
 11
21.9986443636
 21
2.7500542628
 31
0.25
 12
21.736609065
 22
2.9698967117
 32
0.25
 13
21.9986337351
 23
2.7500726625
 33
0.0
  0
3DFACE
  5
348
100
AcDbEntity
  8
29
100
AcDbFace
 62
7
420
15920366
  6
CONTINUOUS
 10
22.0581542045
 20
2.413248504
 30
0.0
 11
21.8871262157
 21
2.1170577422
 31
0.0
 12
22.0581542045
 22
2.413248504
 32
0.25
 13
22.0581542045
 23
2.413248504
 33
0.0
  0
3DFACE
  5
349
100
AcDbEntity
  8
29
100
AcDbFace
 62
7
420
15920366
  6
CONTINUOUS
 10
22.0581542045
 20
2.413248504
 30
0.0
 11
22.0581542045
 21
2.413248504
 31
0.25
 12
21.9986443636
 22
2.7500542628
 32
0.25
 13
22.0581542045
 23
2.413248504
 33
0.0
  0
3DFACE
  5
34A
100
AcDbEntity
  8
29
100
AcDbFace
 62
7
420
15920366
  6
CONTINUOUS
 10
21.8871262157
 20
2.1170577422
 30
0.0
 11
21.5657375335
 21
2.0
 31
0.0
 12
21.8871099391
 22
2.1170440825
 32
0.25
 13
21.8871262157
 23
2.1170577422
 33
0.0
  0
3DFACE
  5
34B
100
AcDbEntity
  8
29
100
AcDbFace
 62
7
420
15920366
  6
CONTINUOUS
 10
21.8871262157
 20
2.1170577422
 30
0.0
 11
21.8871099391
 21
2.1170440825
 31
0.25
 12
22.0581542045
 22
2.413248504
 32
0.25
 13
21.8871262157
 23
2.1170577422
 33
0.0
  0
3DFACE
  5
34C
100
AcDbEntity
  8
29
100
AcDbFace
 62
7
420
15920366
  6
CONTINUOUS
 10
21.5657375335
 20
2.0
 30
0.0
 11
21.5657375335
 21
2.0
 31
0.25
 12
21.8871099391
 22
2.1170440825
 32
0.25
 13
21.5657375335
 23
2.0
 33
0.0
  0
3DFACE
  5
34D
100
AcDbEntity
  8
30
100
AcDbFace
 62
7
420
15920366
  6
CONTINUOUS
 10
16.5008715315
 20
4.8738012694
 30
0.0
 11
21.736609065
 21
2.9698967117
 31
0.0
 12
16.5008715315
 22
4.8738012694
 32
0.25
 13
16.5008715315
 23
4.8738012694
 33
0.0
  0
3DFACE
  5
34E
100
AcDbEntity
  8
30
100
AcDbFace
 62
7
420
15920366
  6
CONTINUOUS
 10
21.736609065
 20
2.9698967117
 30
0.0
 11
21.736609065
 21
2.9698967117
 31
0.25
 12
16.5008715315
 22
4.8738012694
 32
0.25
 13
21.736609065
 23
2.9698967117
 33
0.0
  0
3DFACE
  5
34F
100
AcDbEntity
  8
31
100
AcDbFace
 62
7
420
15920366
  6
CONTINUOUS
 10
11.0942624665
 20
2.0
 30
0.0
 11
10.7728900609
 21
2.1170440825
 31
0.0
 12
11.0942624665
 22
2.0
 32
0.25
 13
11.0942624665
 23
2.0
 33
0.0
  0
3DFACE
  5
350
100
AcDbEntity
  8
31
100
AcDbFace
 62
7
420
15920366
  6
CONTINUOUS
 10
10.7728900609
 20
2.1170440825
 30
0.0
 11
10.6018457955
 21
2.413248504
 31
0.0
 12
10.7728737843
 22
2.1170577422
 32
0.25
 13
10.7728900609
 23
2.1170440825
 33
0.0
  0
3DFACE
  5
351
100
AcDbEntity
  8
31
100
AcDbFace
 62
7
420
15920366
  6
CONTINUOUS
 10
10.7728900609
 20
2.1170440825
 30
0.0
 11
10.7728737843
 21
2.1170577422
 31
0.25
 12
11.0942624665
 22
2.0
 32
0.25
 13
10.7728900609
 23
2.1170440825
 33
0.0
  0
3DFACE
  5
352
100
AcDbEntity
  8
31
100
AcDbFace
 62
7
420
15920366
  6
CONTINUOUS
 10
10.6018457955
 20
2.413248504
 30
0.0
 11
10.6613556364
 21
2.7500542628
 31
0.0
 12
10.6018457955
 22
2.413248504
 32
0.25
 13
10.6018457955
 23
2.413248504
 33
0.0
  0
3DFACE
  5
353
100
AcDbEntity
  8
31
100
AcDbFace
 62
7
420
15920366
  6
CONTINUOUS
 10
10.6018457955
 20
2.413248504
 30
0.0
 11
10.6018457955
 21
2.413248504
 31
0.25
 12
10.7728737843
 22
2.1170577422
 32
0.25
 13
10.6018457955
 23
2.413248504
 33
0.0
  0
3DFACE
  5
354
100
AcDbEntity
  8
31
100
AcDbFace
 62
7
420
15920366
  6
CONTINUOUS
 10
10.6613556364
 20
2.7500542628
 30
0.0
 11
10.923390935
 21
2.9698967117
 31
0.0
 12
10.6613662649
 22
2.7500726625
 32
0.25
 13
10.6613556364
 23
2.7500542628
 33
0.0
  0
3DFACE
  5
355
100
AcDbEntity
  8
31
100
AcDbFace
 62
7
420
15920366
  6
CONTINUOUS
 10
10.6613556364
 20
2.7500542628
 30
0.0
 11
10.6613662649
 21
2.7500726625
 31
0.25
 12
10.6018457955
 22
2.413248504
 32
0.25
 13
10.6613556364
 23
2.7500542628
 33
0.0
  0
3DFACE
  5
356
100
AcDbEntity
  8
31
100
AcDbFace
 62
7
420
15920366
  6
CONTINUOUS
 10
10.923390935
 20
2.9698967117
 30
0.0
 11
10.923390935
 21
2.9698967117
 31
0.25
 12
10.6613662649
 22
2.7500726625
 32
0.25
 13
10.923390935
 23
2.9698967117
 33
0.0
  0
3DFACE
  5
357
100
AcDbEntity
  8
32
100
AcDbFace
 62
7
420
15920366
  6
CONTINUOUS
 10
21.5657375335
 20
2.0
 30
0.0
 11
11.0942624665
 21
2.0
 31
0.0
 12
21.5657375335
 22
2.0
 32
0.25
 13
21.5657375335
 23
2.0
 33
0.0
  0
3DFACE
  5
358
100
AcDbEntity
  8
32
100
AcDbFace
 62
7
420
15920366
  6
CONTINUOUS
 10
21.5657375335
 20
2.0
 30
0.25
 11
11.0942624665
 21
2.0
 31
0.0
 12
11.0942624665
 22
2.0
 32
0.25
 13
21.5657375335
 23
2.0
 33
0.25
  0
3DFACE
  5
359
100
AcDbEntity
  8
33
100
AcDbFace
 62
7
420
15920366
  6
CONTINUOUS
 10
20.6922362035
 20
5.1828278041
 30
0.0
 11
20.4491860196
 21
5.3585033889
 31
0.0
 12
20.6922362035
 22
5.1828278041
 32
0.25
 13
20.6922362035
 23
5.1828278041
 33
0.0
  0
3DFACE
  5
35A
100
AcDbEntity
  8
33
100
AcDbFace
 62
7
420
15920366
  6
CONTINUOUS
 10
20.4491860196
 20
5.3585033889
 30
0.0
 11
20.3503647633
 21
5.6416458659
 31
0.0
 12
20.4491860196
 22
5.3585033889
 32
0.25
 13
20.4491860196
 23
5.3585033889
 33
0.0
  0
3DFACE
  5
35B
100
AcDbEntity
  8
33
100
AcDbFace
 62
7
420
15920366
  6
CONTINUOUS
 10
20.4491860196
 20
5.3585033889
 30
0.0
 11
20.4491860196
 21
5.3585033889
 31
0.25
 12
20.6922362035
 22
5.1828278041
 32
0.25
 13
20.4491860196
 23
5.3585033889
 33
0.0
  0
3DFACE
  5
35C
100
AcDbEntity
  8
33
100
AcDbFace
 62
7
420
15920366
  6
CONTINUOUS
 10
20.3503647633
 20
5.6416458659
 30
0.0
 11
20.431334402
 21
5.9304004686
 31
0.0
 12
20.3503647633
 22
5.6416458659
 32
0.25
 13
20.3503647633
 23
5.6416458659
 33
0.0
  0
3DFACE
  5
35D
100
AcDbEntity
  8
33
100
AcDbFace
 62
7
420
15920366
  6
CONTINUOUS
 10
20.3503647633
 20
5.6416458659
 30
0.0
 11
20.3503647633
 21
5.6416458659
 31
0.25
 12
20.4491860196
 22
5.3585033889
 32
0.25
 13
20.3503647633
 23
5.6416458659
 33
0.0
  0
3DFACE
  5
35E
100
AcDbEntity
  8
33
100
AcDbFace
 62
7
420
15920366
  6
CONTINUOUS
 10
20.431334402
 20
5.9304004686
 30
0.0
 11
20.6629547512
 21
6.1208927699
 31
0.0
 12
20.431334402
 22
5.9304004686
 32
0.25
 13
20.431334402
 23
5.9304004686
 33
0.0
  0
3DFACE
  5
35F
100
AcDbEntity
  8
33
100
AcDbFace
 62
7
420
15920366
  6
CONTINUOUS
 10
20.431334402
 20
5.9304004686
 30
0.0
 11
20.431334402
 21
5.9304004686
 31
0.25
 12
20.3503647633
 22
5.6416458659
 32
0.25
 13
20.431334402
 23
5.9304004686
 33
0.0
  0
3DFACE
  5
360
100
AcDbEntity
  8
33
100
AcDbFace
 62
7
420
15920366
  6
CONTINUOUS
 10
20.6629547512
 20
6.1208927699
 30
0.0
 11
20.6629547512
 21
6.1208927699
 31
0.25
 12
20.431334402
 22
5.9304004686
 32
0.25
 13
20.6629547512
 23
6.1208927699
 33
0.0
  0
3DFACE
  5
361
100
AcDbEntity
  8
34
100
AcDbFace
 62
7
420
15920366
  6
CONTINUOUS
 10
29.842028609
 20
2.1377982435
 30
0.0
 11
20.6922362035
 21
5.1828278041
 31
0.0
 12
29.842028609
 22
2.1377982435
 32
0.25
 13
29.842028609
 23
2.1377982435
 33
0.0
  0
3DFACE
  5
362
100
AcDbEntity
  8
34
100
AcDbFace
 62
7
420
15920366
  6
CONTINUOUS
 10
29.842028609
 20
2.1377982435
 30
0.25
 11
20.6922362035
 21
5.1828278041
 31
0.0
 12
20.6922362035
 22
5.1828278041
 32
0.25
 13
29.842028609
 23
2.1377982435
 33
0.25
  0
3DFACE
  5
363
100
AcDbEntity
  8
35
100
AcDbFace
 62
7
420
15920366
  6
CONTINUOUS
 10
30.4999137567
 20
2.6122160763
 30
0.0
 11
30.4032832614
 21
2.3168276453
 31
0.0
 12
30.4999137567
 22
2.6122160763
 32
0.25
 13
30.4999137567
 23
2.6122160763
 33
0.0
  0
3DFACE
  5
364
100
AcDbEntity
  8
35
100
AcDbFace
 62
7
420
15920366
  6
CONTINUOUS
 10
30.4032832614
 20
2.3168276453
 30
0.0
 11
30.1528167277
 21
2.1362098117
 31
0.0
 12
30.4032832614
 22
2.3168276453
 32
0.25
 13
30.4032832614
 23
2.3168276453
 33
0.0
  0
3DFACE
  5
365
100
AcDbEntity
  8
35
100
AcDbFace
 62
7
420
15920366
  6
CONTINUOUS
 10
30.4032832614
 20
2.3168276453
 30
0.0
 11
30.4032832614
 21
2.3168276453
 31
0.25
 12
30.4999137567
 22
2.6122160763
 32
0.25
 13
30.4032832614
 23
2.3168276453
 33
0.0
  0
3DFACE
  5
366
100
AcDbEntity
  8
35
100
AcDbFace
 62
7
420
15920366
  6
CONTINUOUS
 10
30.1528167277
 20
2.1362098117
 30
0.0
 11
29.842028609
 21
2.1377982435
 31
0.0
 12
30.1528167277
 22
2.1362098117
 32
0.25
 13
30.1528167277
 23
2.1362098117
 33
0.0
  0
3DFACE
  5
367
100
AcDbEntity
  8
35
100
AcDbFace
 62
7
420
15920366
  6
CONTINUOUS
 10
30.1528167277
 20
2.1362098117
 30
0.0
 11
30.1528167277
 21
2.1362098117
 31
0.25
 12
30.4032832614
 22
2.3168276453
 32
0.25
 13
30.1528167277
 23
2.1362098117
 33
0.0
  0
3DFACE
  5
368
100
AcDbEntity
  8
35
100
AcDbFace
 62
7
420
15920366
  6
CONTINUOUS
 10
29.842028609
 20
2.1377982435
 30
0.0
 11
29.842028609
 21
2.1377982435
 31
0.25
 12
30.1528167277
 22
2.1362098117
 32
0.25
 13
29.842028609
 23
2.1377982435
 33
0.0
  0
3DFACE
  5
369
100
AcDbEntity
  8
36
100
AcDbFace
 62
7
420
15920366
  6
CONTINUOUS
 10
29.8127471567
 20
9.81451107
 30
0.0
 11
30.1329515859
 21
9.8327943307
 31
0.0
 12
29.8127471567
 22
9.81451107
 32
0.25
 13
29.8127471567
 23
9.81451107
 33
0.0
  0
3DFACE
  5
36A
100
AcDbEntity
  8
36
100
AcDbFace
 62
7
420
15920366
  6
CONTINUOUS
 10
30.1329515859
 20
9.8327943307
 30
0.0
 11
30.3970045709
 21
9.6546316996
 31
0.0
 12
30.1329515859
 22
9.8327943307
 32
0.25
 13
30.1329515859
 23
9.8327943307
 33
0.0
  0
3DFACE
  5
36B
100
AcDbEntity
  8
36
100
AcDbFace
 62
7
420
15920366
  6
CONTINUOUS
 10
30.1329515859
 20
9.8327943307
 30
0.0
 11
30.1329515859
 21
9.8327943307
 31
0.25
 12
29.8127471567
 22
9.81451107
 32
0.25
 13
30.1329515859
 23
9.8327943307
 33
0.0
  0
3DFACE
  5
36C
100
AcDbEntity
  8
36
100
AcDbFace
 62
7
420
15920366
  6
CONTINUOUS
 10
30.3970045709
 20
9.6546316996
 30
0.0
 11
30.4999137567
 21
9.3508639371
 31
0.0
 12
30.3970045709
 22
9.6546316996
 32
0.25
 13
30.3970045709
 23
9.6546316996
 33
0.0
  0
3DFACE
  5
36D
100
AcDbEntity
  8
36
100
AcDbFace
 62
7
420
15920366
  6
CONTINUOUS
 10
30.3970045709
 20
9.6546316996
 30
0.0
 11
30.3970045709
 21
9.6546316996
 31
0.25
 12
30.1329515859
 22
9.8327943307
 32
0.25
 13
30.3970045709
 23
9.6546316996
 33
0.0
  0
3DFACE
  5
36E
100
AcDbEntity
  8
36
100
AcDbFace
 62
7
420
15920366
  6
CONTINUOUS
 10
30.4999137567
 20
9.3508639371
 30
0.0
 11
30.4999137567
 21
9.3508639371
 31
0.25
 12
30.3970045709
 22
9.6546316996
 32
0.25
 13
30.4999137567
 23
9.3508639371
 33
0.0
  0
3DFACE
  5
36F
100
AcDbEntity
  8
37
100
AcDbFace
 62
7
420
15920366
  6
CONTINUOUS
 10
30.4999137567
 20
9.3508639371
 30
0.0
 11
30.4999137567
 21
2.6122160763
 31
0.0
 12
30.4999137567
 22
9.3508639371
 32
0.25
 13
30.4999137567
 23
9.3508639371
 33
0.0
  0
3DFACE
  5
370
100
AcDbEntity
  8
37
100
AcDbFace
 62
7
420
15920366
  6
CONTINUOUS
 10
30.4999137567
 20
2.6122160763
 30
0.0
 11
30.4999137567
 21
2.6122160763
 31
0.25
 12
30.4999137567
 22
9.3508639371
 32
0.25
 13
30.4999137567
 23
2.6122160763
 33
0.0
  0
3DFACE
  5
371
100
AcDbEntity
  8
38
100
AcDbFace
 62
7
420
15920366
  6
CONTINUOUS
 10
16.1591284685
 20
4.8738012694
 30
0.0
 11
16.2432488947
 21
4.8963190106
 31
0.0
 12
16.1591284685
 22
4.8738012694
 32
0.25
 13
16.1591284685
 23
4.8738012694
 33
0.0
  0
3DFACE
  5
372
100
AcDbEntity
  8
38
100
AcDbFace
 62
7
420
15920366
  6
CONTINUOUS
 10
16.2432488947
 20
4.8963190106
 30
0.0
 11
16.33
 21
4.9039045576
 31
0.0
 12
16.2432488947
 22
4.8963190106
 32
0.25
 13
16.2432488947
 23
4.8963190106
 33
0.0
  0
3DFACE
  5
373
100
AcDbEntity
  8
38
100
AcDbFace
 62
7
420
15920366
  6
CONTINUOUS
 10
16.2432488947
 20
4.8963190106
 30
0.0
 11
16.2432488947
 21
4.8963190106
 31
0.25
 12
16.1591284685
 22
4.8738012694
 32
0.25
 13
16.2432488947
 23
4.8963190106
 33
0.0
  0
3DFACE
  5
374
100
AcDbEntity
  8
38
100
AcDbFace
 62
7
420
15920366
  6
CONTINUOUS
 10
16.33
 20
4.9039045576
 30
0.0
 11
16.4167511053
 21
4.8963190106
 31
0.0
 12
16.33
 22
4.9039045576
 32
0.25
 13
16.33
 23
4.9039045576
 33
0.0
  0
3DFACE
  5
375
100
AcDbEntity
  8
38
100
AcDbFace
 62
7
420
15920366
  6
CONTINUOUS
 10
16.33
 20
4.9039045576
 30
0.0
 11
16.33
 21
4.9039045576
 31
0.25
 12
16.2432488947
 22
4.8963190106
 32
0.25
 13
16.33
 23
4.9039045576
 33
0.0
  0
3DFACE
  5
376
100
AcDbEntity
  8
38
100
AcDbFace
 62
7
420
15920366
  6
CONTINUOUS
 10
16.4167511053
 20
4.8963190106
 30
0.0
 11
16.5008715315
 21
4.8738012694
 31
0.0
 12
16.4167511053
 22
4.8963190106
 32
0.25
 13
16.4167511053
 23
4.8963190106
 33
0.0
  0
3DFACE
  5
377
100
AcDbEntity
  8
38
100
AcDbFace
 62
7
420
15920366
  6
CONTINUOUS
 10
16.4167511053
 20
4.8963190106
 30
0.0
 11
16.4167511053
 21
4.8963190106
 31
0.25
 12
16.33
 22
4.9039045576
 32
0.25
 13
16.4167511053
 23
4.8963190106
 33
0.0
  0
3DFACE
  5
378
100
AcDbEntity
  8
38
100
AcDbFace
 62
7
420
15920366
  6
CONTINUOUS
 10
16.5008715315
 20
4.8738012694
 30
0.0
 11
16.5008715315
 21
4.8738012694
 31
0.25
 12
16.4167511053
 22
4.8963190106
 32
0.25
 13
16.5008715315
 23
4.8738012694
 33
0.0
  0
3DFACE
  5
379
100
AcDbEntity
  8
39
100
AcDbFace
 62
7
420
15920366
  6
CONTINUOUS
 10
10.923390935
 20
2.9698967117
 30
0.0
 11
16.1591284685
 21
4.8738012694
 31
0.0
 12
10.923390935
 22
2.9698967117
 32
0.25
 13
10.923390935
 23
2.9698967117
 33
0.0
  0
3DFACE
  5
37A
100
AcDbEntity
  8
39
100
AcDbFace
 62
7
420
15920366
  6
CONTINUOUS
 10
16.1591284685
 20
4.8738012694
 30
0.0
 11
16.1591284685
 21
4.8738012694
 31
0.25
 12
10.923390935
 22
2.9698967117
 32
0.25
 13
16.1591284685
 23
4.8738012694
 33
0.0
  0
3DFACE
  5
37B
100
AcDbEntity
  8
40
100
AcDbFace
 62
7
420
15920366
  6
CONTINUOUS
 10
16.6708715315
 20
7.1261987306
 30
0.0
 11
16.5867511053
 21
7.1036809894
 31
0.0
 12
16.6708715315
 22
7.1261987306
 32
0.25
 13
16.6708715315
 23
7.1261987306
 33
0.0
  0
3DFACE
  5
37C
100
AcDbEntity
  8
40
100
AcDbFace
 62
7
420
15920366
  6
CONTINUOUS
 10
16.5867511053
 20
7.1036809894
 30
0.0
 11
16.5
 21
7.0960954424
 31
0.0
 12
16.5867511053
 22
7.1036809894
 32
0.25
 13
16.5867511053
 23
7.1036809894
 33
0.0
  0
3DFACE
  5
37D
100
AcDbEntity
  8
40
100
AcDbFace
 62
7
420
15920366
  6
CONTINUOUS
 10
16.5867511053
 20
7.1036809894
 30
0.0
 11
16.5867511053
 21
7.1036809894
 31
0.25
 12
16.6708715315
 22
7.1261987306
 32
0.25
 13
16.5867511053
 23
7.1036809894
 33
0.0
  0
3DFACE
  5
37E
100
AcDbEntity
  8
40
100
AcDbFace
 62
7
420
15920366
  6
CONTINUOUS
 10
16.5
 20
7.0960954424
 30
0.0
 11
16.4132488947
 21
7.1036809894
 31
0.0
 12
16.5
 22
7.0960954424
 32
0.25
 13
16.5
 23
7.0960954424
 33
0.0
  0
3DFACE
  5
37F
100
AcDbEntity
  8
40
100
AcDbFace
 62
7
420
15920366
  6
CONTINUOUS
 10
16.5
 20
7.0960954424
 30
0.0
 11
16.5
 21
7.0960954424
 31
0.25
 12
16.5867511053
 22
7.1036809894
 32
0.25
 13
16.5
 23
7.0960954424
 33
0.0
  0
3DFACE
  5
380
100
AcDbEntity
  8
40
100
AcDbFace
 62
7
420
15920366
  6
CONTINUOUS
 10
16.4132488947
 20
7.1036809894
 30
0.0
 11
16.3291284685
 21
7.1261987306
 31
0.0
 12
16.4132488947
 22
7.1036809894
 32
0.25
 13
16.4132488947
 23
7.1036809894
 33
0.0
  0
3DFACE
  5
381
100
AcDbEntity
  8
40
100
AcDbFace
 62
7
420
15920366
  6
CONTINUOUS
 10
16.4132488947
 20
7.1036809894
 30
0.0
 11
16.4132488947
 21
7.1036809894
 31
0.25
 12
16.5
 22
7.0960954424
 32
0.25
 13
16.4132488947
 23
7.1036809894
 33
0.0
  0
3DFACE
  5
382
100
AcDbEntity
  8
40
100
AcDbFace
 62
7
420
15920366
  6
CONTINUOUS
 10
16.3291284685
 20
7.1261987306
 30
0.0
 11
16.3291284685
 21
7.1261987306
 31
0.25
 12
16.4132488947
 22
7.1036809894
 32
0.25
 13
16.3291284685
 23
7.1261987306
 33
0.0
  0
3DFACE
  5
383
100
AcDbEntity
  8
41
100
AcDbFace
 62
7
420
15920366
  6
CONTINUOUS
 10
21.906609065
 20
9.0301032883
 30
0.0
 11
16.6708715315
 21
7.1261987306
 31
0.0
 12
21.906609065
 22
9.0301032883
 32
0.25
 13
21.906609065
 23
9.0301032883
 33
0.0
  0
3DFACE
  5
384
100
AcDbEntity
  8
41
100
AcDbFace
 62
7
420
15920366
  6
CONTINUOUS
 10
16.6708715315
 20
7.1261987306
 30
0.0
 11
16.6708715315
 21
7.1261987306
 31
0.25
 12
21.906609065
 22
9.0301032883
 32
0.25
 13
16.6708715315
 23
7.1261987306
 33
0.0
  0
3DFACE
  5
385
100
AcDbEntity
  8
42
100
AcDbFace
 62
7
420
15920366
  6
CONTINUOUS
 10
21.7357375335
 20
10.0
 30
0.0
 11
22.0571099391
 21
9.8829559175
 31
0.0
 12
21.7357375335
 22
10.0
 32
0.25
 13
21.7357375335
 23
10.0
 33
0.0
  0
3DFACE
  5
386
100
AcDbEntity
  8
42
100
AcDbFace
 62
7
420
15920366
  6
CONTINUOUS
 10
22.0571099391
 20
9.8829559175
 30
0.0
 11
22.2281542045
 21
9.586751496
 31
0.0
 12
22.0571262157
 22
9.8829422578
 32
0.25
 13
22.0571099391
 23
9.8829559175
 33
0.0
  0
3DFACE
  5
387
100
AcDbEntity
  8
42
100
AcDbFace
 62
7
420
15920366
  6
CONTINUOUS
 10
22.0571099391
 20
9.8829559175
 30
0.0
 11
22.0571262157
 21
9.8829422578
 31
0.25
 12
21.7357375335
 22
10.0
 32
0.25
 13
22.0571099391
 23
9.8829559175
 33
0.0
  0
3DFACE
  5
388
100
AcDbEntity
  8
42
100
AcDbFace
 62
7
420
15920366
  6
CONTINUOUS
 10
22.2281542045
 20
9.586751496
 30
0.0
 11
22.1686443636
 21
9.2499457372
 31
0.0
 12
22.2281542045
 22
9.586751496
 32
0.25
 13
22.2281542045
 23
9.586751496
 33
0.0
  0
3DFACE
  5
389
100
AcDbEntity
  8
42
100
AcDbFace
 62
7
420
15920366
  6
CONTINUOUS
 10
22.2281542045
 20
9.586751496
 30
0.0
 11
22.2281542045
 21
9.586751496
 31
0.25
 12
22.0571262157
 22
9.8829422578
 32
0.25
 13
22.2281542045
 23
9.586751496
 33
0.0
  0
3DFACE
  5
38A
100
AcDbEntity
  8
42
100
AcDbFace
 62
7
420
15920366
  6
CONTINUOUS
 10
22.1686443636
 20
9.2499457372
 30
0.0
 11
21.906609065
 21
9.0301032883
 31
0.0
 12
22.1686337351
 22
9.2499273375
 32
0.25
 13
22.1686443636
 23
9.2499457372
 33
0.0
  0
3DFACE
  5
38B
100
AcDbEntity
  8
42
100
AcDbFace
 62
7
420
15920366
  6
CONTINUOUS
 10
22.1686443636
 20
9.2499457372
 30
0.0
 11
22.1686337351
 21
9.2499273375
 31
0.25
 12
22.2281542045
 22
9.586751496
 32
0.25
 13
22.1686443636
 23
9.2499457372
 33
0.0
  0
3DFACE
  5
38C
100
AcDbEntity
  8
42
100
AcDbFace
 62
7
420
15920366
  6
CONTINUOUS
 10
21.906609065
 20
9.0301032883
 30
0.0
 11
21.906609065
 21
9.0301032883
 31
0.25
 12
22.1686337351
 22
9.2499273375
 32
0.25
 13
21.906609065
 23
9.0301032883
 33
0.0
  0
3DFACE
  5
38D
100
AcDbEntity
  8
43
100
AcDbFace
 62
7
420
15920366
  6
CONTINUOUS
 10
11.2642624665
 20
10.0
 30
0.0
 11
21.7357375335
 21
10.0
 31
0.0
 12
11.2642624665
 22
10.0
 32
0.25
 13
11.2642624665
 23
10.0
 33
0.0
  0
3DFACE
  5
38E
100
AcDbEntity
  8
43
100
AcDbFace
 62
7
420
15920366
  6
CONTINUOUS
 10
21.7357375335
 20
10.0
 30
0.0
 11
21.7357375335
 21
10.0
 31
0.25
 12
11.2642624665
 22
10.0
 32
0.25
 13
21.7357375335
 23
10.0
 33
0.0
  0
3DFACE
  5
38F
100
AcDbEntity
  8
44
100
AcDbFace
 62
7
420
15920366
  6
CONTINUOUS
 10
11.093390935
 20
9.0301032883
 30
0.0
 11
10.8313662649
 21
9.2499273375
 31
0.0
 12
11.093390935
 22
9.0301032883
 32
0.25
 13
11.093390935
 23
9.0301032883
 33
0.0
  0
3DFACE
  5
390
100
AcDbEntity
  8
44
100
AcDbFace
 62
7
420
15920366
  6
CONTINUOUS
 10
10.8313662649
 20
9.2499273375
 30
0.0
 11
10.7718457955
 21
9.586751496
 31
0.0
 12
10.8313556364
 22
9.2499457372
 32
0.25
 13
10.8313662649
 23
9.2499273375
 33
0.0
  0
3DFACE
  5
391
100
AcDbEntity
  8
44
100
AcDbFace
 62
7
420
15920366
  6
CONTINUOUS
 10
10.8313662649
 20
9.2499273375
 30
0.0
 11
10.8313556364
 21
9.2499457372
 31
0.25
 12
11.093390935
 22
9.0301032883
 32
0.25
 13
10.8313662649
 23
9.2499273375
 33
0.0
  0
3DFACE
  5
392
100
AcDbEntity
  8
44
100
AcDbFace
 62
7
420
15920366
  6
CONTINUOUS
 10
10.7718457955
 20
9.586751496
 30
0.0
 11
10.9428737843
 21
9.8829422578
 31
0.0
 12
10.7718457955
 22
9.586751496
 32
0.25
 13
10.7718457955
 23
9.586751496
 33
0.0
  0
3DFACE
  5
393
100
AcDbEntity
  8
44
100
AcDbFace
 62
7
420
15920366
  6
CONTINUOUS
 10
10.7718457955
 20
9.586751496
 30
0.0
 11
10.7718457955
 21
9.586751496
 31
0.25
 12
10.8313556364
 22
9.2499457372
 32
0.25
 13
10.7718457955
 23
9.586751496
 33
0.0
  0
3DFACE
  5
394
100
AcDbEntity
  8
44
100
AcDbFace
 62
7
420
15920366
  6
CONTINUOUS
 10
10.9428737843
 20
9.8829422578
 30
0.0
 11
11.2642624665
 21
10.0
 31
0.0
 12
10.9428900609
 22
9.8829559175
 32
0.25
 13
10.9428737843
 23
9.8829422578
 33
0.0
  0
3DFACE
  5
395
100
AcDbEntity
  8
44
100
AcDbFace
 62
7
420
15920366
  6
CONTINUOUS
 10
10.9428737843
 20
9.8829422578
 30
0.0
 11
10.9428900609
 21
9.8829559175
 31
0.25
 12
10.7718457955
 22
9.586751496
 32
0.25
 13
10.9428737843
 23
9.8829422578
 33
0.0
  0
3DFACE
  5
396
100
AcDbEntity
  8
44
100
AcDbFace
 62
7
420
15920366
  6
CONTINUOUS
 10
11.2642624665
 20
10.0
 30
0.0
 11
11.2642624665
 21
10.0
 31
0.25
 12
10.9428900609
 22
9.8829559175
 32
0.25
 13
11.2642624665
 23
10.0
 33
0.0
  0
3DFACE
  5
397
100
AcDbEntity
  8
45
100
AcDbFace
 62
7
420
15920366
  6
CONTINUOUS
 10
16.3291284685
 20
7.1261987306
 30
0.0
 11
11.093390935
 21
9.0301032883
 31
0.0
 12
16.3291284685
 22
7.1261987306
 32
0.25
 13
16.3291284685
 23
7.1261987306
 33
0.0
  0
3DFACE
  5
398
100
AcDbEntity
  8
45
100
AcDbFace
 62
7
420
15920366
  6
CONTINUOUS
 10
16.3291284685
 20
7.1261987306
 30
0.25
 11
11.093390935
 21
9.0301032883
 31
0.0
 12
11.093390935
 22
9.0301032883
 32
0.25
 13
16.3291284685
 23
7.1261987306
 33
0.25
  0
3DFACE
  5
399
100
AcDbEntity
  8
46
100
AcDbFace
 62
7
420
15920366
  6
CONTINUOUS
 10
12.281609065
 20
6.4698967117
 30
0.0
 11
12.5202680144
 21
6.2868463145
 31
0.0
 12
12.281609065
 22
6.4698967117
 32
0.25
 13
12.281609065
 23
6.4698967117
 33
0.0
  0
3DFACE
  5
39A
100
AcDbEntity
  8
46
100
AcDbFace
 62
7
420
15920366
  6
CONTINUOUS
 10
12.5202680144
 20
6.2868463145
 30
0.0
 11
12.6107375335
 21
6.0
 31
0.0
 12
12.5202680144
 22
6.2868463145
 32
0.25
 13
12.5202680144
 23
6.2868463145
 33
0.0
  0
3DFACE
  5
39B
100
AcDbEntity
  8
46
100
AcDbFace
 62
7
420
15920366
  6
CONTINUOUS
 10
12.5202680144
 20
6.2868463145
 30
0.0
 11
12.5202680144
 21
6.2868463145
 31
0.25
 12
12.281609065
 22
6.4698967117
 32
0.25
 13
12.5202680144
 23
6.2868463145
 33
0.0
  0
3DFACE
  5
39C
100
AcDbEntity
  8
46
100
AcDbFace
 62
7
420
15920366
  6
CONTINUOUS
 10
12.6107375335
 20
6.0
 30
0.0
 11
12.5202680144
 21
5.7131536855
 31
0.0
 12
12.6107375335
 22
6.0
 32
0.25
 13
12.6107375335
 23
6.0
 33
0.0
  0
3DFACE
  5
39D
100
AcDbEntity
  8
46
100
AcDbFace
 62
7
420
15920366
  6
CONTINUOUS
 10
12.6107375335
 20
6.0
 30
0.0
 11
12.6107375335
 21
6.0
 31
0.25
 12
12.5202680144
 22
6.2868463145
 32
0.25
 13
12.6107375335
 23
6.0
 33
0.0
  0
3DFACE
  5
39E
100
AcDbEntity
  8
46
100
AcDbFace
 62
7
420
15920366
  6
CONTINUOUS
 10
12.5202680144
 20
5.7131536855
 30
0.0
 11
12.281609065
 21
5.5301032883
 31
0.0
 12
12.5202680144
 22
5.7131536855
 32
0.25
 13
12.5202680144
 23
5.7131536855
 33
0.0
  0
3DFACE
  5
39F
100
AcDbEntity
  8
46
100
AcDbFace
 62
7
420
15920366
  6
CONTINUOUS
 10
12.5202680144
 20
5.7131536855
 30
0.0
 11
12.5202680144
 21
5.7131536855
 31
0.25
 12
12.6107375335
 22
6.0
 32
0.25
 13
12.5202680144
 23
5.7131536855
 33
0.0
  0
3DFACE
  5
3A0
100
AcDbEntity
  8
46
100
AcDbFace
 62
7
420
15920366
  6
CONTINUOUS
 10
12.281609065
 20
5.5301032883
 30
0.0
 11
12.281609065
 21
5.5301032883
 31
0.25
 12
12.5202680144
 22
5.7131536855
 32
0.25
 13
12.281609065
 23
5.5301032883
 33
0.0
  0
3DFACE
  5
3A1
100
AcDbEntity
  8
47
100
AcDbFace
 62
7
420
15920366
  6
CONTINUOUS
 10
12.281609065
 20
5.5301032883
 30
0.0
 11
3.0008715315
 21
2.1552896397
 31
0.0
 12
12.281609065
 22
5.5301032883
 32
0.25
 13
12.281609065
 23
5.5301032883
 33
0.0
  0
3DFACE
  5
3A2
100
AcDbEntity
  8
47
100
AcDbFace
 62
7
420
15920366
  6
CONTINUOUS
 10
3.0008715315
 20
2.1552896397
 30
0.0
 11
3.0008715315
 21
2.1552896397
 31
0.25
 12
12.281609065
 22
5.5301032883
 32
0.25
 13
3.0008715315
 23
2.1552896397
 33
0.0
  0
3DFACE
  5
3A3
100
AcDbEntity
  8
48
100
AcDbFace
 62
7
420
15920366
  6
CONTINUOUS
 10
20.6629547512
 20
6.1208927699
 30
0.0
 11
29.8127471567
 21
9.81451107
 31
0.0
 12
20.6629547512
 22
6.1208927699
 32
0.25
 13
20.6629547512
 23
6.1208927699
 33
0.0
  0
3DFACE
  5
3A4
100
AcDbEntity
  8
48
100
AcDbFace
 62
7
420
15920366
  6
CONTINUOUS
 10
29.8127471567
 20
9.81451107
 30
0.0
 11
29.8127471567
 21
9.81451107
 31
0.25
 12
20.6629547512
 22
6.1208927699
 32
0.25
 13
29.8127471567
 23
9.81451107
 33
0.0
  0
3DFACE
  5
3A5
100
AcDbEntity
  8
49
100
AcDbFace
 62
7
420
15920366
  6
CONTINUOUS
 10
0.0
 20
12.0
 30
0.0
 11
0.0
 21
0.0
 31
0.0
 12
0.0
 22
12.0
 32
0.25
 13
0.0
 23
12.0
 33
0.0
  0
3DFACE
  5
3A6
100
AcDbEntity
  8
49
100
AcDbFace
 62
7
420
15920366
  6
CONTINUOUS
 10
0.0
 20
0.0
 30
0.0
 11
0.0
 21
0.0
 31
0.25
 12
0.0
 22
12.0
 32
0.25
 13
0.0
 23
0.0
 33
0.0
  0
3DFACE
  5
3A7
100
AcDbEntity
  8
50
100
AcDbFace
 62
7
420
15920366
  6
CONTINUOUS
 10
32.83
 20
12.0
 30
0.0
 11
0.0
 21
12.0
 31
0.0
 12
32.83
 22
12.0
 32
0.25
 13
32.83
 23
12.0
 33
0.0
  0
3DFACE
  5
3A8
100
AcDbEntity
  8
50
100
AcDbFace
 62
7
420
15920366
  6
CONTINUOUS
 10
0.0
 20
12.0
 30
0.0
 11
0.0
 21
12.0
 31
0.25
 12
32.83
 22
12.0
 32
0.25
 13
0.0
 23
12.0
 33
0.0
  0
3DFACE
  5
3A9
100
AcDbEntity
  8
51
100
AcDbFace
 62
7
420
15920366
  6
CONTINUOUS
 10
32.83
 20
0.0
 30
0.0
 11
32.83
 21
12.0
 31
0.0
 12
32.83
 22
0.0
 32
0.25
 13
32.83
 23
0.0
 33
0.0
  0
3DFACE
  5
3AA
100
AcDbEntity
  8
51
100
AcDbFace
 62
7
420
15920366
  6
CONTINUOUS
 10
32.83
 20
0.0
 30
0.25
 11
32.83
 21
12.0
 31
0.0
 12
32.83
 22
12.0
 32
0.25
 13
32.83
 23
0.0
 33
0.25
  0
3DFACE
  5
3AB
100
AcDbEntity
  8
52
100
AcDbFace
 62
7
420
15920366
  6
CONTINUOUS
 10
0.0
 20
0.0
 30
0.0
 11
32.83
 21
0.0
 31
0.0
 12
0.0
 22
0.0
 32
0.25
 13
0.0
 23
0.0
 33
0.0
  0
3DFACE
  5
3AC
100
AcDbEntity
  8
52
100
AcDbFace
 62
7
420
15920366
  6
CONTINUOUS
 10
0.0
 20
0.0
 30
0.25
 11
32.83
 21
0.0
 31
0.0
 12
32.83
 22
0.0
 32
0.25
 13
0.0
 23
0.0
 33
0.25
  0
3DFACE
  5
3AD
100
AcDbEntity
  8
53
100
AcDbFace
 62
7
420
15920366
  6
CONTINUOUS
 10
32.446
 20
0.9999999707
 30
0.0
 11
32.4191668322
 21
1.0995042167
 31
0.0
 12
32.446
 22
11.0000000293
 32
0.0
 13
32.446
 23
0.9999999707
 33
0.0
  0
3DFACE
  5
3AE
100
AcDbEntity
  8
53
100
AcDbFace
 62
7
420
15920366
  6
CONTINUOUS
 10
32.83
 20
0.0
 30
0.0
 11
32.446
 21
0.9999999707
 31
0.0
 12
32.83
 22
12.0
 32
0.0
 13
32.83
 23
0.0
 33
0.0
  0
3DFACE
  5
3AF
100
AcDbEntity
  8
53
100
AcDbFace
 62
7
420
15920366
  6
CONTINUOUS
 10
32.446
 20
0.9999999707
 30
0.0
 11
32.83
 21
0.0
 31
0.0
 12
32.4188007736
 22
0.8999087974
 32
0.0
 13
32.446
 23
0.9999999707
 33
0.0
  0
3DFACE
  5
3B0
100
AcDbEntity
  8
53
100
AcDbFace
 62
7
420
15920366
  6
CONTINUOUS
 10
32.83
 20
12.0
 30
0.0
 11
32.446
 21
0.9999999707
 31
0.0
 12
32.446
 22
11.0000000293
 32
0.0
 13
32.83
 23
12.0
 33
0.0
  0
3DFACE
  5
3B1
100
AcDbEntity
  8
53
100
AcDbFace
 62
7
420
15920366
  6
CONTINUOUS
 10
32.4191668322
 20
1.0995042167
 30
0.0
 11
32.3472829886
 21
1.1715942009
 31
0.0
 12
32.4188007736
 22
10.8999088561
 32
0.0
 13
32.4191668322
 23
1.0995042167
 33
0.0
  0
3DFACE
  5
3B2
100
AcDbEntity
  8
53
100
AcDbFace
 62
7
420
15920366
  6
CONTINUOUS
 10
32.446
 20
11.0000000293
 30
0.0
 11
32.4191668322
 21
1.0995042167
 31
0.0
 12
32.4188007736
 22
10.8999088561
 32
0.0
 13
32.446
 23
11.0000000293
 33
0.0
  0
3DFACE
  5
3B3
100
AcDbEntity
  8
53
100
AcDbFace
 62
7
420
15920366
  6
CONTINUOUS
 10
32.3472829886
 20
1.1715942009
 30
0.0
 11
32.2483086795
 21
1.1984231841
 31
0.0
 12
32.3458891734
 22
10.8276032771
 32
0.0
 13
32.3472829886
 23
1.1715942009
 33
0.0
  0
3DFACE
  5
3B4
100
AcDbEntity
  8
53
100
AcDbFace
 62
7
420
15920366
  6
CONTINUOUS
 10
32.4188007736
 20
10.8999088561
 30
0.0
 11
32.3472829886
 21
1.1715942009
 31
0.0
 12
32.3458891734
 22
10.8276032771
 32
0.0
 13
32.4188007736
 23
10.8999088561
 33
0.0
  0
3DFACE
  5
3B5
100
AcDbEntity
  8
53
100
AcDbFace
 62
7
420
15920366
  6
CONTINUOUS
 10
32.2483086795
 20
1.1984231841
 30
0.0
 11
32.1491108266
 21
1.1723967229
 31
0.0
 12
32.2466913205
 22
10.8015768159
 32
0.0
 13
32.2483086795
 23
1.1984231841
 33
0.0
  0
3DFACE
  5
3B6
100
AcDbEntity
  8
53
100
AcDbFace
 62
7
420
15920366
  6
CONTINUOUS
 10
32.3458891734
 20
10.8276032771
 30
0.0
 11
32.2483086795
 21
1.1984231841
 31
0.0
 12
32.2466913205
 22
10.8015768159
 32
0.0
 13
32.3458891734
 23
10.8276032771
 33
0.0
  0
3DFACE
  5
3B7
100
AcDbEntity
  8
53
100
AcDbFace
 62
7
420
15920366
  6
CONTINUOUS
 10
32.1491108266
 20
1.1723967229
 30
0.0
 11
32.0761992264
 21
1.1000911439
 31
0.0
 12
32.1477170114
 22
10.8284057991
 32
0.0
 13
32.1491108266
 23
1.1723967229
 33
0.0
  0
3DFACE
  5
3B8
100
AcDbEntity
  8
53
100
AcDbFace
 62
7
420
15920366
  6
CONTINUOUS
 10
32.2466913205
 20
10.8015768159
 30
0.0
 11
32.1491108266
 21
1.1723967229
 31
0.0
 12
32.1477170114
 22
10.8284057991
 32
0.0
 13
32.2466913205
 23
10.8015768159
 33
0.0
  0
3DFACE
  5
3B9
100
AcDbEntity
  8
53
100
AcDbFace
 62
7
420
15920366
  6
CONTINUOUS
 10
32.0761992264
 20
1.1000911439
 30
0.0
 11
32.049
 21
0.9999999707
 31
0.0
 12
32.0758331678
 22
10.9004957833
 32
0.0
 13
32.0761992264
 23
1.1000911439
 33
0.0
  0
3DFACE
  5
3BA
100
AcDbEntity
  8
53
100
AcDbFace
 62
7
420
15920366
  6
CONTINUOUS
 10
32.1477170114
 20
10.8284057991
 30
0.0
 11
32.0761992264
 21
1.1000911439
 31
0.0
 12
32.0758331678
 22
10.9004957833
 32
0.0
 13
32.1477170114
 23
10.8284057991
 33
0.0
  0
3DFACE
  5
3BB
100
AcDbEntity
  8
53
100
AcDbFace
 62
7
420
15920366
  6
CONTINUOUS
 10
0.0
 20
0.0
 30
0.0
 11
32.049
 21
0.9999999707
 31
0.0
 12
32.0758331678
 22
0.9004957246
 32
0.0
 13
0.0
 23
0.0
 33
0.0
  0
3DFACE
  5
3BC
100
AcDbEntity
  8
53
100
AcDbFace
 62
7
420
15920366
  6
CONTINUOUS
 10
32.049
 20
0.9999999707
 30
0.0
 11
0.0
 21
0.0
 31
0.0
 12
24.6457920253
 22
0.8844629488
 32
0.0
 13
32.049
 23
0.9999999707
 33
0.0
  0
3DFACE
  5
3BD
100
AcDbEntity
  8
53
100
AcDbFace
 62
7
420
15920366
  6
CONTINUOUS
 10
32.049
 20
0.9999999707
 30
0.0
 11
32.049
 21
11.0000000293
 31
0.0
 12
32.0758331678
 22
10.9004957833
 32
0.0
 13
32.049
 23
0.9999999707
 33
0.0
  0
3DFACE
  5
3BE
100
AcDbEntity
  8
53
100
AcDbFace
 62
7
420
15920366
  6
CONTINUOUS
 10
32.049
 20
11.0000000293
 30
0.0
 11
32.049
 21
0.9999999707
 31
0.0
 12
30.4999137567
 22
2.6122160763
 32
0.0
 13
32.049
 23
11.0000000293
 33
0.0
  0
3DFACE
  5
3BF
100
AcDbEntity
  8
53
100
AcDbFace
 62
7
420
15920366
  6
CONTINUOUS
 10
32.049
 20
0.9999999707
 30
0.0
 11
24.6457920253
 21
0.8844629488
 31
0.0
 12
30.1528167277
 22
2.1362098117
 32
0.0
 13
32.049
 23
0.9999999707
 33
0.0
  0
3DFACE
  5
3C0
100
AcDbEntity
  8
53
100
AcDbFace
 62
7
420
15920366
  6
CONTINUOUS
 10
30.4999137567
 20
2.6122160763
 30
0.0
 11
32.049
 21
0.9999999707
 31
0.0
 12
30.4032832614
 22
2.3168276453
 32
0.0
 13
30.4999137567
 23
2.6122160763
 33
0.0
  0
3DFACE
  5
3C1
100
AcDbEntity
  8
53
100
AcDbFace
 62
7
420
15920366
  6
CONTINUOUS
 10
30.4032832614
 20
2.3168276453
 30
0.0
 11
32.049
 21
0.9999999707
 31
0.0
 12
30.1528167277
 22
2.1362098117
 32
0.0
 13
30.4032832614
 23
2.3168276453
 33
0.0
  0
3DFACE
  5
3C2
100
AcDbEntity
  8
53
100
AcDbFace
 62
7
420
15920366
  6
CONTINUOUS
 10
32.83
 20
0.0
 30
0.0
 11
0.0
 21
0.0
 31
0.0
 12
32.2466913205
 22
0.8015767572
 32
0.0
 13
32.83
 23
0.0
 33
0.0
  0
3DFACE
  5
3C3
100
AcDbEntity
  8
53
100
AcDbFace
 62
7
420
15920366
  6
CONTINUOUS
 10
32.4188007736
 20
0.8999087974
 30
0.0
 11
32.83
 21
0.0
 31
0.0
 12
32.3458891734
 22
0.8276032185
 32
0.0
 13
32.4188007736
 23
0.8999087974
 33
0.0
  0
3DFACE
  5
3C4
100
AcDbEntity
  8
53
100
AcDbFace
 62
7
420
15920366
  6
CONTINUOUS
 10
32.3458891734
 20
0.8276032185
 30
0.0
 11
32.83
 21
0.0
 31
0.0
 12
32.2466913205
 22
0.8015767572
 32
0.0
 13
32.3458891734
 23
0.8276032185
 33
0.0
  0
3DFACE
  5
3C5
100
AcDbEntity
  8
53
100
AcDbFace
 62
7
420
15920366
  6
CONTINUOUS
 10
0.0
 20
12.0
 30
0.0
 11
32.83
 21
12.0
 31
0.0
 12
0.5833086795
 22
11.1984232428
 32
0.0
 13
0.0
 23
12.0
 33
0.0
  0
3DFACE
  5
3C6
100
AcDbEntity
  8
53
100
AcDbFace
 62
7
420
15920366
  6
CONTINUOUS
 10
32.0761992264
 20
11.1000912026
 30
0.0
 11
32.83
 21
12.0
 31
0.0
 12
32.1491108266
 22
11.1723967815
 32
0.0
 13
32.0761992264
 23
11.1000912026
 33
0.0
  0
3DFACE
  5
3C7
100
AcDbEntity
  8
53
100
AcDbFace
 62
7
420
15920366
  6
CONTINUOUS
 10
32.83
 20
12.0
 30
0.0
 11
32.0761992264
 21
11.1000912026
 31
0.0
 12
30.4999137567
 22
9.3508639371
 32
0.0
 13
32.83
 23
12.0
 33
0.0
  0
3DFACE
  5
3C8
100
AcDbEntity
  8
53
100
AcDbFace
 62
7
420
15920366
  6
CONTINUOUS
 10
32.1491108266
 20
11.1723967815
 30
0.0
 11
32.83
 21
12.0
 31
0.0
 12
32.2483086795
 22
11.1984232428
 32
0.0
 13
32.1491108266
 23
11.1723967815
 33
0.0
  0
3DFACE
  5
3C9
100
AcDbEntity
  8
53
100
AcDbFace
 62
7
420
15920366
  6
CONTINUOUS
 10
32.2483086795
 20
11.1984232428
 30
0.0
 11
32.83
 21
12.0
 31
0.0
 12
32.3472829886
 22
11.1715942596
 32
0.0
 13
32.2483086795
 23
11.1984232428
 33
0.0
  0
3DFACE
  5
3CA
100
AcDbEntity
  8
53
100
AcDbFace
 62
7
420
15920366
  6
CONTINUOUS
 10
32.3472829886
 20
11.1715942596
 30
0.0
 11
32.83
 21
12.0
 31
0.0
 12
32.4191668322
 22
11.0995042754
 32
0.0
 13
32.3472829886
 23
11.1715942596
 33
0.0
  0
3DFACE
  5
3CB
100
AcDbEntity
  8
53
100
AcDbFace
 62
7
420
15920366
  6
CONTINUOUS
 10
32.4191668322
 20
11.0995042754
 30
0.0
 11
32.83
 21
12.0
 31
0.0
 12
32.446
 22
11.0000000293
 32
0.0
 13
32.4191668322
 23
11.0995042754
 33
0.0
  0
3DFACE
  5
3CC
100
AcDbEntity
  8
53
100
AcDbFace
 62
7
420
15920366
  6
CONTINUOUS
 10
0.5833086795
 20
11.1984232428
 30
0.0
 11
32.83
 21
12.0
 31
0.0
 12
0.6822829886
 22
11.1715942596
 32
0.0
 13
0.5833086795
 23
11.1984232428
 33
0.0
  0
3DFACE
  5
3CD
100
AcDbEntity
  8
53
100
AcDbFace
 62
7
420
15920366
  6
CONTINUOUS
 10
0.6822829886
 20
11.1715942596
 30
0.0
 11
32.83
 21
12.0
 31
0.0
 12
0.7541668322
 22
11.0995042754
 32
0.0
 13
0.6822829886
 23
11.1715942596
 33
0.0
  0
3DFACE
  5
3CE
100
AcDbEntity
  8
53
100
AcDbFace
 62
7
420
15920366
  6
CONTINUOUS
 10
0.7541668322
 20
11.0995042754
 30
0.0
 11
32.83
 21
12.0
 31
0.0
 12
0.781
 22
11.0000000293
 32
0.0
 13
0.7541668322
 23
11.0995042754
 33
0.0
  0
3DFACE
  5
3CF
100
AcDbEntity
  8
53
100
AcDbFace
 62
7
420
15920366
  6
CONTINUOUS
 10
0.781
 20
11.0000000293
 30
0.0
 11
32.83
 21
12.0
 31
0.0
 12
8.1842079747
 22
11.1155370512
 32
0.0
 13
0.781
 23
11.0000000293
 33
0.0
  0
3DFACE
  5
3D0
100
AcDbEntity
  8
53
100
AcDbFace
 62
7
420
15920366
  6
CONTINUOUS
 10
24.5142079747
 20
11.1155370512
 30
0.0
 11
32.83
 21
12.0
 31
0.0
 12
24.6466800561
 22
11.1150345617
 32
0.0
 13
24.5142079747
 23
11.1155370512
 33
0.0
  0
3DFACE
  5
3D1
100
AcDbEntity
  8
53
100
AcDbFace
 62
7
420
15920366
  6
CONTINUOUS
 10
32.83
 20
12.0
 30
0.0
 11
24.5142079747
 21
11.1155370512
 31
0.0
 12
11.2642624665
 22
10.0
 32
0.0
 13
32.83
 23
12.0
 33
0.0
  0
3DFACE
  5
3D2
100
AcDbEntity
  8
53
100
AcDbFace
 62
7
420
15920366
  6
CONTINUOUS
 10
24.6466800561
 20
11.1150345617
 30
0.0
 11
32.83
 21
12.0
 31
0.0
 12
24.713
 22
11.0000000293
 32
0.0
 13
24.6466800561
 23
11.1150345617
 33
0.0
  0
3DFACE
  5
3D3
100
AcDbEntity
  8
53
100
AcDbFace
 62
7
420
15920366
  6
CONTINUOUS
 10
24.713
 20
11.0000000293
 30
0.0
 11
32.83
 21
12.0
 31
0.0
 12
29.8127471567
 22
9.81451107
 32
0.0
 13
24.713
 23
11.0000000293
 33
0.0
  0
3DFACE
  5
3D4
100
AcDbEntity
  8
53
100
AcDbFace
 62
7
420
15920366
  6
CONTINUOUS
 10
8.1842079747
 20
11.1155370512
 30
0.0
 11
32.83
 21
12.0
 31
0.0
 12
8.3166800561
 22
11.1150345617
 32
0.0
 13
8.1842079747
 23
11.1155370512
 33
0.0
  0
3DFACE
  5
3D5
100
AcDbEntity
  8
53
100
AcDbFace
 62
7
420
15920366
  6
CONTINUOUS
 10
8.3166800561
 20
11.1150345617
 30
0.0
 11
32.83
 21
12.0
 31
0.0
 12
8.383
 22
11.0000000293
 32
0.0
 13
8.3166800561
 23
11.1150345617
 33
0.0
  0
3DFACE
  5
3D6
100
AcDbEntity
  8
53
100
AcDbFace
 62
7
420
15920366
  6
CONTINUOUS
 10
8.383
 20
11.0000000293
 30
0.0
 11
32.83
 21
12.0
 31
0.0
 12
11.2642624665
 22
10.0
 32
0.0
 13
8.383
 23
11.0000000293
 33
0.0
  0
3DFACE
  5
3D7
100
AcDbEntity
  8
53
100
AcDbFace
 62
7
420
15920366
  6
CONTINUOUS
 10
29.8127471567
 20
9.81451107
 30
0.0
 11
32.83
 21
12.0
 31
0.0
 12
30.1329515859
 22
9.8327943307
 32
0.0
 13
29.8127471567
 23
9.81451107
 33
0.0
  0
3DFACE
  5
3D8
100
AcDbEntity
  8
53
100
AcDbFace
 62
7
420
15920366
  6
CONTINUOUS
 10
30.1329515859
 20
9.8327943307
 30
0.0
 11
32.83
 21
12.0
 31
0.0
 12
30.3970045709
 22
9.6546316996
 32
0.0
 13
30.1329515859
 23
9.8327943307
 33
0.0
  0
3DFACE
  5
3D9
100
AcDbEntity
  8
53
100
AcDbFace
 62
7
420
15920366
  6
CONTINUOUS
 10
30.3970045709
 20
9.6546316996
 30
0.0
 11
32.83
 21
12.0
 31
0.0
 12
30.4999137567
 22
9.3508639371
 32
0.0
 13
30.3970045709
 23
9.6546316996
 33
0.0
  0
3DFACE
  5
3DA
100
AcDbEntity
  8
53
100
AcDbFace
 62
7
420
15920366
  6
CONTINUOUS
 10
0.0
 20
0.0
 30
0.0
 11
0.0
 21
12.0
 31
0.0
 12
0.384
 22
11.0000000293
 32
0.0
 13
0.0
 23
0.0
 33
0.0
  0
3DFACE
  5
3DB
100
AcDbEntity
  8
53
100
AcDbFace
 62
7
420
15920366
  6
CONTINUOUS
 10
0.384
 20
11.0000000293
 30
0.0
 11
0.0
 21
12.0
 31
0.0
 12
0.4111992264
 22
11.1000912026
 32
0.0
 13
0.384
 23
11.0000000293
 33
0.0
  0
3DFACE
  5
3DC
100
AcDbEntity
  8
53
100
AcDbFace
 62
7
420
15920366
  6
CONTINUOUS
 10
0.4111992264
 20
11.1000912026
 30
0.0
 11
0.0
 21
12.0
 31
0.0
 12
0.4841108266
 22
11.1723967815
 32
0.0
 13
0.4111992264
 23
11.1000912026
 33
0.0
  0
3DFACE
  5
3DD
100
AcDbEntity
  8
53
100
AcDbFace
 62
7
420
15920366
  6
CONTINUOUS
 10
0.4841108266
 20
11.1723967815
 30
0.0
 11
0.0
 21
12.0
 31
0.0
 12
0.5833086795
 22
11.1984232428
 32
0.0
 13
0.4841108266
 23
11.1723967815
 33
0.0
  0
3DFACE
  5
3DE
100
AcDbEntity
  8
53
100
AcDbFace
 62
7
420
15920366
  6
CONTINUOUS
 10
32.2466913205
 20
0.8015767572
 30
0.0
 11
0.0
 21
0.0
 31
0.0
 12
32.1477170114
 22
0.8284057404
 32
0.0
 13
32.2466913205
 23
0.8015767572
 33
0.0
  0
3DFACE
  5
3DF
100
AcDbEntity
  8
53
100
AcDbFace
 62
7
420
15920366
  6
CONTINUOUS
 10
32.1477170114
 20
0.8284057404
 30
0.0
 11
0.0
 21
0.0
 31
0.0
 12
32.0758331678
 22
0.9004957246
 32
0.0
 13
32.1477170114
 23
0.8284057404
 33
0.0
  0
3DFACE
  5
3E0
100
AcDbEntity
  8
53
100
AcDbFace
 62
7
420
15920366
  6
CONTINUOUS
 10
0.0
 20
0.0
 30
0.0
 11
0.384
 21
0.9999999707
 31
0.0
 12
0.4108331678
 22
0.9004957246
 32
0.0
 13
0.0
 23
0.0
 33
0.0
  0
3DFACE
  5
3E1
100
AcDbEntity
  8
53
100
AcDbFace
 62
7
420
15920366
  6
CONTINUOUS
 10
0.384
 20
0.9999999707
 30
0.0
 11
0.0
 21
0.0
 31
0.0
 12
0.384
 22
11.0000000293
 32
0.0
 13
0.384
 23
0.9999999707
 33
0.0
  0
3DFACE
  5
3E2
100
AcDbEntity
  8
53
100
AcDbFace
 62
7
420
15920366
  6
CONTINUOUS
 10
0.7538007736
 20
0.8999087974
 30
0.0
 11
0.0
 21
0.0
 31
0.0
 12
0.6808891734
 22
0.8276032185
 32
0.0
 13
0.7538007736
 23
0.8999087974
 33
0.0
  0
3DFACE
  5
3E3
100
AcDbEntity
  8
53
100
AcDbFace
 62
7
420
15920366
  6
CONTINUOUS
 10
0.0
 20
0.0
 30
0.0
 11
0.7538007736
 21
0.8999087974
 31
0.0
 12
2.33
 22
2.6251863515
 32
0.0
 13
0.0
 23
0.0
 33
0.0
  0
3DFACE
  5
3E4
100
AcDbEntity
  8
53
100
AcDbFace
 62
7
420
15920366
  6
CONTINUOUS
 10
0.6808891734
 20
0.8276032185
 30
0.0
 11
0.0
 21
0.0
 31
0.0
 12
0.5816913205
 22
0.8015767572
 32
0.0
 13
0.6808891734
 23
0.8276032185
 33
0.0
  0
3DFACE
  5
3E5
100
AcDbEntity
  8
53
100
AcDbFace
 62
7
420
15920366
  6
CONTINUOUS
 10
0.5816913205
 20
0.8015767572
 30
0.0
 11
0.0
 21
0.0
 31
0.0
 12
0.4827170114
 22
0.8284057404
 32
0.0
 13
0.5816913205
 23
0.8015767572
 33
0.0
  0
3DFACE
  5
3E6
100
AcDbEntity
  8
53
100
AcDbFace
 62
7
420
15920366
  6
CONTINUOUS
 10
0.4827170114
 20
0.8284057404
 30
0.0
 11
0.0
 21
0.0
 31
0.0
 12
0.4108331678
 22
0.9004957246
 32
0.0
 13
0.4827170114
 23
0.8284057404
 33
0.0
  0
3DFACE
  5
3E7
100
AcDbEntity
  8
53
100
AcDbFace
 62
7
420
15920366
  6
CONTINUOUS
 10
0.0
 20
0.0
 30
0.0
 11
24.447
 21
0.9999999707
 31
0.0
 12
24.5133199439
 22
0.8849654383
 32
0.0
 13
0.0
 23
0.0
 33
0.0
  0
3DFACE
  5
3E8
100
AcDbEntity
  8
53
100
AcDbFace
 62
7
420
15920366
  6
CONTINUOUS
 10
24.447
 20
0.9999999707
 30
0.0
 11
0.0
 21
0.0
 31
0.0
 12
21.5657375335
 22
2.0
 32
0.0
 13
24.447
 23
0.9999999707
 33
0.0
  0
3DFACE
  5
3E9
100
AcDbEntity
  8
53
100
AcDbFace
 62
7
420
15920366
  6
CONTINUOUS
 10
24.6457920253
 20
0.8844629488
 30
0.0
 11
0.0
 21
0.0
 31
0.0
 12
24.5133199439
 22
0.8849654383
 32
0.0
 13
24.6457920253
 23
0.8844629488
 33
0.0
  0
3DFACE
  5
3EA
100
AcDbEntity
  8
53
100
AcDbFace
 62
7
420
15920366
  6
CONTINUOUS
 10
0.0
 20
0.0
 30
0.0
 11
8.117
 21
0.9999999707
 31
0.0
 12
8.1833199439
 22
0.8849654383
 32
0.0
 13
0.0
 23
0.0
 33
0.0
  0
3DFACE
  5
3EB
100
AcDbEntity
  8
53
100
AcDbFace
 62
7
420
15920366
  6
CONTINUOUS
 10
8.117
 20
0.9999999707
 30
0.0
 11
0.0
 21
0.0
 31
0.0
 12
3.0008715315
 22
2.1552896397
 32
0.0
 13
8.117
 23
0.9999999707
 33
0.0
  0
3DFACE
  5
3EC
100
AcDbEntity
  8
53
100
AcDbFace
 62
7
420
15920366
  6
CONTINUOUS
 10
8.3157920253
 20
0.8844629488
 30
0.0
 11
0.0
 21
0.0
 31
0.0
 12
8.1833199439
 22
0.8849654383
 32
0.0
 13
8.3157920253
 23
0.8844629488
 33
0.0
  0
3DFACE
  5
3ED
100
AcDbEntity
  8
53
100
AcDbFace
 62
7
420
15920366
  6
CONTINUOUS
 10
0.0
 20
0.0
 30
0.0
 11
8.3157920253
 21
0.8844629488
 31
0.0
 12
21.5657375335
 22
2.0
 32
0.0
 13
0.0
 23
0.0
 33
0.0
  0
3DFACE
  5
3EE
100
AcDbEntity
  8
53
100
AcDbFace
 62
7
420
15920366
  6
CONTINUOUS
 10
3.0008715315
 20
2.1552896397
 30
0.0
 11
0.0
 21
0.0
 31
0.0
 12
2.6858214145
 22
2.146467709
 32
0.0
 13
3.0008715315
 23
2.1552896397
 33
0.0
  0
3DFACE
  5
3EF
100
AcDbEntity
  8
53
100
AcDbFace
 62
7
420
15920366
  6
CONTINUOUS
 10
2.6858214145
 20
2.146467709
 30
0.0
 11
0.0
 21
0.0
 31
0.0
 12
2.4293753996
 22
2.3260894898
 32
0.0
 13
2.6858214145
 23
2.146467709
 33
0.0
  0
3DFACE
  5
3F0
100
AcDbEntity
  8
53
100
AcDbFace
 62
7
420
15920366
  6
CONTINUOUS
 10
2.4293753996
 20
2.3260894898
 30
0.0
 11
0.0
 21
0.0
 31
0.0
 12
2.33
 22
2.6251863515
 32
0.0
 13
2.4293753996
 23
2.3260894898
 33
0.0
  0
3DFACE
  5
3F1
100
AcDbEntity
  8
53
100
AcDbFace
 62
7
420
15920366
  6
CONTINUOUS
 10
32.0761992264
 20
11.1000912026
 30
0.0
 11
32.049
 21
11.0000000293
 31
0.0
 12
30.4999137567
 22
9.3508639371
 32
0.0
 13
32.0761992264
 23
11.1000912026
 33
0.0
  0
3DFACE
  5
3F2
100
AcDbEntity
  8
53
100
AcDbFace
 62
7
420
15920366
  6
CONTINUOUS
 10
30.4999137567
 20
9.3508639371
 30
0.0
 11
32.049
 21
11.0000000293
 31
0.0
 12
30.4999137567
 22
2.6122160763
 32
0.0
 13
30.4999137567
 23
9.3508639371
 33
0.0
  0
3DFACE
  5
3F3
100
AcDbEntity
  8
53
100
AcDbFace
 62
7
420
15920366
  6
CONTINUOUS
 10
0.4111992264
 20
1.1000911439
 30
0.0
 11
0.384
 21
0.9999999707
 31
0.0
 12
0.4108331678
 22
10.9004957833
 32
0.0
 13
0.4111992264
 23
1.1000911439
 33
0.0
  0
3DFACE
  5
3F4
100
AcDbEntity
  8
53
100
AcDbFace
 62
7
420
15920366
  6
CONTINUOUS
 10
0.384
 20
0.9999999707
 30
0.0
 11
0.384
 21
11.0000000293
 31
0.0
 12
0.4108331678
 22
10.9004957833
 32
0.0
 13
0.384
 23
0.9999999707
 33
0.0
  0
3DFACE
  5
3F5
100
AcDbEntity
  8
53
100
AcDbFace
 62
7
420
15920366
  6
CONTINUOUS
 10
0.4841108266
 20
1.1723967229
 30
0.0
 11
0.4111992264
 21
1.1000911439
 31
0.0
 12
0.4827170114
 22
10.8284057991
 32
0.0
 13
0.4841108266
 23
1.1723967229
 33
0.0
  0
3DFACE
  5
3F6
100
AcDbEntity
  8
53
100
AcDbFace
 62
7
420
15920366
  6
CONTINUOUS
 10
0.4827170114
 20
10.8284057991
 30
0.0
 11
0.4111992264
 21
1.1000911439
 31
0.0
 12
0.4108331678
 22
10.9004957833
 32
0.0
 13
0.4827170114
 23
10.8284057991
 33
0.0
  0
3DFACE
  5
3F7
100
AcDbEntity
  8
53
100
AcDbFace
 62
7
420
15920366
  6
CONTINUOUS
 10
0.5833086795
 20
1.1984231841
 30
0.0
 11
0.4841108266
 21
1.1723967229
 31
0.0
 12
0.5816913205
 22
10.8015768159
 32
0.0
 13
0.5833086795
 23
1.1984231841
 33
0.0
  0
3DFACE
  5
3F8
100
AcDbEntity
  8
53
100
AcDbFace
 62
7
420
15920366
  6
CONTINUOUS
 10
0.5816913205
 20
10.8015768159
 30
0.0
 11
0.4841108266
 21
1.1723967229
 31
0.0
 12
0.4827170114
 22
10.8284057991
 32
0.0
 13
0.5816913205
 23
10.8015768159
 33
0.0
  0
3DFACE
  5
3F9
100
AcDbEntity
  8
53
100
AcDbFace
 62
7
420
15920366
  6
CONTINUOUS
 10
0.6822829886
 20
1.1715942009
 30
0.0
 11
0.5833086795
 21
1.1984231841
 31
0.0
 12
0.6808891734
 22
10.8276032771
 32
0.0
 13
0.6822829886
 23
1.1715942009
 33
0.0
  0
3DFACE
  5
3FA
100
AcDbEntity
  8
53
100
AcDbFace
 62
7
420
15920366
  6
CONTINUOUS
 10
0.6808891734
 20
10.8276032771
 30
0.0
 11
0.5833086795
 21
1.1984231841
 31
0.0
 12
0.5816913205
 22
10.8015768159
 32
0.0
 13
0.6808891734
 23
10.8276032771
 33
0.0
  0
3DFACE
  5
3FB
100
AcDbEntity
  8
53
100
AcDbFace
 62
7
420
15920366
  6
CONTINUOUS
 10
0.7541668322
 20
1.0995042167
 30
0.0
 11
0.6822829886
 21
1.1715942009
 31
0.0
 12
0.7538007736
 22
10.8999088561
 32
0.0
 13
0.7541668322
 23
1.0995042167
 33
0.0
  0
3DFACE
  5
3FC
100
AcDbEntity
  8
53
100
AcDbFace
 62
7
420
15920366
  6
CONTINUOUS
 10
0.7538007736
 20
10.8999088561
 30
0.0
 11
0.6822829886
 21
1.1715942009
 31
0.0
 12
0.6808891734
 22
10.8276032771
 32
0.0
 13
0.7538007736
 23
10.8999088561
 33
0.0
  0
3DFACE
  5
3FD
100
AcDbEntity
  8
53
100
AcDbFace
 62
7
420
15920366
  6
CONTINUOUS
 10
0.781
 20
0.9999999707
 30
0.0
 11
0.7541668322
 21
1.0995042167
 31
0.0
 12
0.781
 22
11.0000000293
 32
0.0
 13
0.781
 23
0.9999999707
 33
0.0
  0
3DFACE
  5
3FE
100
AcDbEntity
  8
53
100
AcDbFace
 62
7
420
15920366
  6
CONTINUOUS
 10
0.781
 20
11.0000000293
 30
0.0
 11
0.7541668322
 21
1.0995042167
 31
0.0
 12
0.7538007736
 22
10.8999088561
 32
0.0
 13
0.781
 23
11.0000000293
 33
0.0
  0
3DFACE
  5
3FF
100
AcDbEntity
  8
53
100
AcDbFace
 62
7
420
15920366
  6
CONTINUOUS
 10
0.7538007736
 20
0.8999087974
 30
0.0
 11
0.781
 21
0.9999999707
 31
0.0
 12
2.33
 22
2.6251863515
 32
0.0
 13
0.7538007736
 23
0.8999087974
 33
0.0
  0
3DFACE
  5
400
100
AcDbEntity
  8
53
100
AcDbFace
 62
7
420
15920366
  6
CONTINUOUS
 10
0.781
 20
0.9999999707
 30
0.0
 11
0.781
 21
11.0000000293
 31
0.0
 12
2.33
 22
9.3748136485
 32
0.0
 13
0.781
 23
0.9999999707
 33
0.0
  0
3DFACE
  5
401
100
AcDbEntity
  8
53
100
AcDbFace
 62
7
420
15920366
  6
CONTINUOUS
 10
2.33
 20
2.6251863515
 30
0.0
 11
0.781
 21
0.9999999707
 31
0.0
 12
2.33
 22
9.3748136485
 32
0.0
 13
2.33
 23
2.6251863515
 33
0.0
  0
3DFACE
  5
402
100
AcDbEntity
  8
53
100
AcDbFace
 62
7
420
15920366
  6
CONTINUOUS
 10
0.781
 20
11.0000000293
 30
0.0
 11
8.1842079747
 21
11.1155370512
 31
0.0
 12
2.6858214145
 22
9.853532291
 32
0.0
 13
0.781
 23
11.0000000293
 33
0.0
  0
3DFACE
  5
403
100
AcDbEntity
  8
53
100
AcDbFace
 62
7
420
15920366
  6
CONTINUOUS
 10
2.33
 20
9.3748136485
 30
0.0
 11
0.781
 21
11.0000000293
 31
0.0
 12
2.4293753996
 22
9.6739105102
 32
0.0
 13
2.33
 23
9.3748136485
 33
0.0
  0
3DFACE
  5
404
100
AcDbEntity
  8
53
100
AcDbFace
 62
7
420
15920366
  6
CONTINUOUS
 10
2.4293753996
 20
9.6739105102
 30
0.0
 11
0.781
 21
11.0000000293
 31
0.0
 12
2.6858214145
 22
9.853532291
 32
0.0
 13
2.4293753996
 23
9.6739105102
 33
0.0
  0
3DFACE
  5
405
100
AcDbEntity
  8
53
100
AcDbFace
 62
7
420
15920366
  6
CONTINUOUS
 10
24.5142079747
 20
1.1155369925
 30
0.0
 11
24.447
 21
0.9999999707
 31
0.0
 12
22.0581542045
 22
2.413248504
 32
0.0
 13
24.5142079747
 23
1.1155369925
 33
0.0
  0
3DFACE
  5
406
100
AcDbEntity
  8
53
100
AcDbFace
 62
7
420
15920366
  6
CONTINUOUS
 10
22.0581542045
 20
2.413248504
 30
0.0
 11
24.447
 21
0.9999999707
 31
0.0
 12
21.8871262157
 22
2.1170577422
 32
0.0
 13
22.0581542045
 23
2.413248504
 33
0.0
  0
3DFACE
  5
407
100
AcDbEntity
  8
53
100
AcDbFace
 62
7
420
15920366
  6
CONTINUOUS
 10
21.8871262157
 20
2.1170577422
 30
0.0
 11
24.447
 21
0.9999999707
 31
0.0
 12
21.5657375335
 22
2.0
 32
0.0
 13
21.8871262157
 23
2.1170577422
 33
0.0
  0
3DFACE
  5
408
100
AcDbEntity
  8
53
100
AcDbFace
 62
7
420
15920366
  6
CONTINUOUS
 10
24.6466800561
 20
1.1150345031
 30
0.0
 11
24.5142079747
 21
1.1155369925
 31
0.0
 12
29.842028609
 22
2.1377982435
 32
0.0
 13
24.6466800561
 23
1.1150345031
 33
0.0
  0
3DFACE
  5
409
100
AcDbEntity
  8
53
100
AcDbFace
 62
7
420
15920366
  6
CONTINUOUS
 10
29.842028609
 20
2.1377982435
 30
0.0
 11
24.5142079747
 21
1.1155369925
 31
0.0
 12
22.0581542045
 22
2.413248504
 32
0.0
 13
29.842028609
 23
2.1377982435
 33
0.0
  0
3DFACE
  5
40A
100
AcDbEntity
  8
53
100
AcDbFace
 62
7
420
15920366
  6
CONTINUOUS
 10
24.713
 20
0.9999999707
 30
0.0
 11
24.6466800561
 21
1.1150345031
 31
0.0
 12
29.842028609
 22
2.1377982435
 32
0.0
 13
24.713
 23
0.9999999707
 33
0.0
  0
3DFACE
  5
40B
100
AcDbEntity
  8
53
100
AcDbFace
 62
7
420
15920366
  6
CONTINUOUS
 10
24.6457920253
 20
0.8844629488
 30
0.0
 11
24.713
 21
0.9999999707
 31
0.0
 12
29.842028609
 22
2.1377982435
 32
0.0
 13
24.6457920253
 23
0.8844629488
 33
0.0
  0
3DFACE
  5
40C
100
AcDbEntity
  8
53
100
AcDbFace
 62
7
420
15920366
  6
CONTINUOUS
 10
30.1528167277
 20
2.1362098117
 30
0.0
 11
24.6457920253
 21
0.8844629488
 31
0.0
 12
29.842028609
 22
2.1377982435
 32
0.0
 13
30.1528167277
 23
2.1362098117
 33
0.0
  0
3DFACE
  5
40D
100
AcDbEntity
  8
53
100
AcDbFace
 62
7
420
15920366
  6
CONTINUOUS
 10
24.5142079747
 20
11.1155370512
 30
0.0
 11
24.447
 21
11.0000000293
 31
0.0
 12
22.2281542045
 22
9.586751496
 32
0.0
 13
24.5142079747
 23
11.1155370512
 33
0.0
  0
3DFACE
  5
40E
100
AcDbEntity
  8
53
100
AcDbFace
 62
7
420
15920366
  6
CONTINUOUS
 10
24.447
 20
11.0000000293
 30
0.0
 11
24.5133199439
 21
10.8849654969
 31
0.0
 12
20.6629547512
 22
6.1208927699
 32
0.0
 13
24.447
 23
11.0000000293
 33
0.0
  0
3DFACE
  5
40F
100
AcDbEntity
  8
53
100
AcDbFace
 62
7
420
15920366
  6
CONTINUOUS
 10
24.447
 20
11.0000000293
 30
0.0
 11
20.6629547512
 21
6.1208927699
 31
0.0
 12
22.1686443636
 22
9.2499457372
 32
0.0
 13
24.447
 23
11.0000000293
 33
0.0
  0
3DFACE
  5
410
100
AcDbEntity
  8
53
100
AcDbFace
 62
7
420
15920366
  6
CONTINUOUS
 10
22.2281542045
 20
9.586751496
 30
0.0
 11
24.447
 21
11.0000000293
 31
0.0
 12
22.1686443636
 22
9.2499457372
 32
0.0
 13
22.2281542045
 23
9.586751496
 33
0.0
  0
3DFACE
  5
411
100
AcDbEntity
  8
53
100
AcDbFace
 62
7
420
15920366
  6
CONTINUOUS
 10
11.2642624665
 20
10.0
 30
0.0
 11
24.5142079747
 21
11.1155370512
 31
0.0
 12
21.7357375335
 22
10.0
 32
0.0
 13
11.2642624665
 23
10.0
 33
0.0
  0
3DFACE
  5
412
100
AcDbEntity
  8
53
100
AcDbFace
 62
7
420
15920366
  6
CONTINUOUS
 10
21.7357375335
 20
10.0
 30
0.0
 11
24.5142079747
 21
11.1155370512
 31
0.0
 12
22.0571099391
 22
9.8829559175
 32
0.0
 13
21.7357375335
 23
10.0
 33
0.0
  0
3DFACE
  5
413
100
AcDbEntity
  8
53
100
AcDbFace
 62
7
420
15920366
  6
CONTINUOUS
 10
22.0571099391
 20
9.8829559175
 30
0.0
 11
24.5142079747
 21
11.1155370512
 31
0.0
 12
22.2281542045
 22
9.586751496
 32
0.0
 13
22.0571099391
 23
9.8829559175
 33
0.0
  0
3DFACE
  5
414
100
AcDbEntity
  8
53
100
AcDbFace
 62
7
420
15920366
  6
CONTINUOUS
 10
24.6457920253
 20
10.8844630075
 30
0.0
 11
24.713
 21
11.0000000293
 31
0.0
 12
29.8127471567
 22
9.81451107
 32
0.0
 13
24.6457920253
 23
10.8844630075
 33
0.0
  0
3DFACE
  5
415
100
AcDbEntity
  8
53
100
AcDbFace
 62
7
420
15920366
  6
CONTINUOUS
 10
24.5133199439
 20
10.8849654969
 30
0.0
 11
24.6457920253
 21
10.8844630075
 31
0.0
 12
20.6629547512
 22
6.1208927699
 32
0.0
 13
24.5133199439
 23
10.8849654969
 33
0.0
  0
3DFACE
  5
416
100
AcDbEntity
  8
53
100
AcDbFace
 62
7
420
15920366
  6
CONTINUOUS
 10
24.6457920253
 20
10.8844630075
 30
0.0
 11
29.8127471567
 21
9.81451107
 31
0.0
 12
20.6629547512
 22
6.1208927699
 32
0.0
 13
24.6457920253
 23
10.8844630075
 33
0.0
  0
3DFACE
  5
417
100
AcDbEntity
  8
53
100
AcDbFace
 62
7
420
15920366
  6
CONTINUOUS
 10
8.1842079747
 20
1.1155369925
 30
0.0
 11
8.117
 21
0.9999999707
 31
0.0
 12
3.0008715315
 22
2.1552896397
 32
0.0
 13
8.1842079747
 23
1.1155369925
 33
0.0
  0
3DFACE
  5
418
100
AcDbEntity
  8
53
100
AcDbFace
 62
7
420
15920366
  6
CONTINUOUS
 10
8.3166800561
 20
1.1150345031
 30
0.0
 11
8.1842079747
 21
1.1155369925
 31
0.0
 12
12.281609065
 22
5.5301032883
 32
0.0
 13
8.3166800561
 23
1.1150345031
 33
0.0
  0
3DFACE
  5
419
100
AcDbEntity
  8
53
100
AcDbFace
 62
7
420
15920366
  6
CONTINUOUS
 10
8.1842079747
 20
1.1155369925
 30
0.0
 11
3.0008715315
 21
2.1552896397
 31
0.0
 12
12.281609065
 22
5.5301032883
 32
0.0
 13
8.1842079747
 23
1.1155369925
 33
0.0
  0
3DFACE
  5
41A
100
AcDbEntity
  8
53
100
AcDbFace
 62
7
420
15920366
  6
CONTINUOUS
 10
8.383
 20
0.9999999707
 30
0.0
 11
8.3166800561
 21
1.1150345031
 31
0.0
 12
12.281609065
 22
5.5301032883
 32
0.0
 13
8.383
 23
0.9999999707
 33
0.0
  0
3DFACE
  5
41B
100
AcDbEntity
  8
53
100
AcDbFace
 62
7
420
15920366
  6
CONTINUOUS
 10
8.3157920253
 20
0.8844629488
 30
0.0
 11
8.383
 21
0.9999999707
 31
0.0
 12
10.6018457955
 22
2.413248504
 32
0.0
 13
8.3157920253
 23
0.8844629488
 33
0.0
  0
3DFACE
  5
41C
100
AcDbEntity
  8
53
100
AcDbFace
 62
7
420
15920366
  6
CONTINUOUS
 10
8.383
 20
0.9999999707
 30
0.0
 11
12.281609065
 21
5.5301032883
 31
0.0
 12
10.6613556364
 22
2.7500542628
 32
0.0
 13
8.383
 23
0.9999999707
 33
0.0
  0
3DFACE
  5
41D
100
AcDbEntity
  8
53
100
AcDbFace
 62
7
420
15920366
  6
CONTINUOUS
 10
10.6018457955
 20
2.413248504
 30
0.0
 11
8.383
 21
0.9999999707
 31
0.0
 12
10.6613556364
 22
2.7500542628
 32
0.0
 13
10.6018457955
 23
2.413248504
 33
0.0
  0
3DFACE
  5
41E
100
AcDbEntity
  8
53
100
AcDbFace
 62
7
420
15920366
  6
CONTINUOUS
 10
11.0942624665
 20
2.0
 30
0.0
 11
8.3157920253
 21
0.8844629488
 31
0.0
 12
10.7728900609
 22
2.1170440825
 32
0.0
 13
11.0942624665
 23
2.0
 33
0.0
  0
3DFACE
  5
41F
100
AcDbEntity
  8
53
100
AcDbFace
 62
7
420
15920366
  6
CONTINUOUS
 10
8.3157920253
 20
0.8844629488
 30
0.0
 11
11.0942624665
 21
2.0
 31
0.0
 12
21.5657375335
 22
2.0
 32
0.0
 13
8.3157920253
 23
0.8844629488
 33
0.0
  0
3DFACE
  5
420
100
AcDbEntity
  8
53
100
AcDbFace
 62
7
420
15920366
  6
CONTINUOUS
 10
10.7728900609
 20
2.1170440825
 30
0.0
 11
8.3157920253
 21
0.8844629488
 31
0.0
 12
10.6018457955
 22
2.413248504
 32
0.0
 13
10.7728900609
 23
2.1170440825
 33
0.0
  0
3DFACE
  5
421
100
AcDbEntity
  8
53
100
AcDbFace
 62
7
420
15920366
  6
CONTINUOUS
 10
8.1842079747
 20
11.1155370512
 30
0.0
 11
8.117
 21
11.0000000293
 31
0.0
 12
3.0008715315
 22
9.8447103603
 32
0.0
 13
8.1842079747
 23
11.1155370512
 33
0.0
  0
3DFACE
  5
422
100
AcDbEntity
  8
53
100
AcDbFace
 62
7
420
15920366
  6
CONTINUOUS
 10
8.117
 20
11.0000000293
 30
0.0
 11
8.1833199439
 21
10.8849654969
 31
0.0
 12
3.0008715315
 22
9.8447103603
 32
0.0
 13
8.117
 23
11.0000000293
 33
0.0
  0
3DFACE
  5
423
100
AcDbEntity
  8
53
100
AcDbFace
 62
7
420
15920366
  6
CONTINUOUS
 10
2.6858214145
 20
9.853532291
 30
0.0
 11
8.1842079747
 21
11.1155370512
 31
0.0
 12
3.0008715315
 22
9.8447103603
 32
0.0
 13
2.6858214145
 23
9.853532291
 33
0.0
  0
3DFACE
  5
424
100
AcDbEntity
  8
53
100
AcDbFace
 62
7
420
15920366
  6
CONTINUOUS
 10
8.3157920253
 20
10.8844630075
 30
0.0
 11
8.383
 21
11.0000000293
 31
0.0
 12
10.7718457955
 22
9.586751496
 32
0.0
 13
8.3157920253
 23
10.8844630075
 33
0.0
  0
3DFACE
  5
425
100
AcDbEntity
  8
53
100
AcDbFace
 62
7
420
15920366
  6
CONTINUOUS
 10
10.7718457955
 20
9.586751496
 30
0.0
 11
8.383
 21
11.0000000293
 31
0.0
 12
10.9428737843
 22
9.8829422578
 32
0.0
 13
10.7718457955
 23
9.586751496
 33
0.0
  0
3DFACE
  5
426
100
AcDbEntity
  8
53
100
AcDbFace
 62
7
420
15920366
  6
CONTINUOUS
 10
10.9428737843
 20
9.8829422578
 30
0.0
 11
8.383
 21
11.0000000293
 31
0.0
 12
11.2642624665
 22
10.0
 32
0.0
 13
10.9428737843
 23
9.8829422578
 33
0.0
  0
3DFACE
  5
427
100
AcDbEntity
  8
53
100
AcDbFace
 62
7
420
15920366
  6
CONTINUOUS
 10
8.1833199439
 20
10.8849654969
 30
0.0
 11
8.3157920253
 21
10.8844630075
 31
0.0
 12
3.0008715315
 22
9.8447103603
 32
0.0
 13
8.1833199439
 23
10.8849654969
 33
0.0
  0
3DFACE
  5
428
100
AcDbEntity
  8
53
100
AcDbFace
 62
7
420
15920366
  6
CONTINUOUS
 10
3.0008715315
 20
9.8447103603
 30
0.0
 11
8.3157920253
 21
10.8844630075
 31
0.0
 12
10.7718457955
 22
9.586751496
 32
0.0
 13
3.0008715315
 23
9.8447103603
 33
0.0
  0
3DFACE
  5
429
100
AcDbEntity
  8
53
100
AcDbFace
 62
7
420
15920366
  6
CONTINUOUS
 10
12.281609065
 20
6.4698967117
 30
0.0
 11
3.0008715315
 21
9.8447103603
 31
0.0
 12
11.093390935
 22
9.0301032883
 32
0.0
 13
12.281609065
 23
6.4698967117
 33
0.0
  0
3DFACE
  5
42A
100
AcDbEntity
  8
53
100
AcDbFace
 62
7
420
15920366
  6
CONTINUOUS
 10
11.093390935
 20
9.0301032883
 30
0.0
 11
3.0008715315
 21
9.8447103603
 31
0.0
 12
10.8313662649
 22
9.2499273375
 32
0.0
 13
11.093390935
 23
9.0301032883
 33
0.0
  0
3DFACE
  5
42B
100
AcDbEntity
  8
53
100
AcDbFace
 62
7
420
15920366
  6
CONTINUOUS
 10
10.8313662649
 20
9.2499273375
 30
0.0
 11
3.0008715315
 21
9.8447103603
 31
0.0
 12
10.7718457955
 22
9.586751496
 32
0.0
 13
10.8313662649
 23
9.2499273375
 33
0.0
  0
3DFACE
  5
42C
100
AcDbEntity
  8
53
100
AcDbFace
 62
7
420
15920366
  6
CONTINUOUS
 10
12.5202680144
 20
6.2868463145
 30
0.0
 11
12.281609065
 21
6.4698967117
 31
0.0
 12
16.3291284685
 22
7.1261987306
 32
0.0
 13
12.5202680144
 23
6.2868463145
 33
0.0
  0
3DFACE
  5
42D
100
AcDbEntity
  8
53
100
AcDbFace
 62
7
420
15920366
  6
CONTINUOUS
 10
12.281609065
 20
6.4698967117
 30
0.0
 11
11.093390935
 21
9.0301032883
 31
0.0
 12
16.3291284685
 22
7.1261987306
 32
0.0
 13
12.281609065
 23
6.4698967117
 33
0.0
  0
3DFACE
  5
42E
100
AcDbEntity
  8
53
100
AcDbFace
 62
7
420
15920366
  6
CONTINUOUS
 10
12.6107375335
 20
6.0
 30
0.0
 11
12.5202680144
 21
6.2868463145
 31
0.0
 12
16.3291284685
 22
7.1261987306
 32
0.0
 13
12.6107375335
 23
6.0
 33
0.0
  0
3DFACE
  5
42F
100
AcDbEntity
  8
53
100
AcDbFace
 62
7
420
15920366
  6
CONTINUOUS
 10
12.5202680144
 20
5.7131536855
 30
0.0
 11
12.6107375335
 21
6.0
 31
0.0
 12
16.1591284685
 22
4.8738012694
 32
0.0
 13
12.5202680144
 23
5.7131536855
 33
0.0
  0
3DFACE
  5
430
100
AcDbEntity
  8
53
100
AcDbFace
 62
7
420
15920366
  6
CONTINUOUS
 10
16.1591284685
 20
4.8738012694
 30
0.0
 11
12.6107375335
 21
6.0
 31
0.0
 12
16.3291284685
 22
7.1261987306
 32
0.0
 13
16.1591284685
 23
4.8738012694
 33
0.0
  0
3DFACE
  5
431
100
AcDbEntity
  8
53
100
AcDbFace
 62
7
420
15920366
  6
CONTINUOUS
 10
12.281609065
 20
5.5301032883
 30
0.0
 11
12.5202680144
 21
5.7131536855
 31
0.0
 12
10.923390935
 22
2.9698967117
 32
0.0
 13
12.281609065
 23
5.5301032883
 33
0.0
  0
3DFACE
  5
432
100
AcDbEntity
  8
53
100
AcDbFace
 62
7
420
15920366
  6
CONTINUOUS
 10
10.923390935
 20
2.9698967117
 30
0.0
 11
12.5202680144
 21
5.7131536855
 31
0.0
 12
16.1591284685
 22
4.8738012694
 32
0.0
 13
10.923390935
 23
2.9698967117
 33
0.0
  0
3DFACE
  5
433
100
AcDbEntity
  8
53
100
AcDbFace
 62
7
420
15920366
  6
CONTINUOUS
 10
10.6613556364
 20
2.7500542628
 30
0.0
 11
12.281609065
 21
5.5301032883
 31
0.0
 12
10.923390935
 22
2.9698967117
 32
0.0
 13
10.6613556364
 23
2.7500542628
 33
0.0
  0
3DFACE
  5
434
100
AcDbEntity
  8
53
100
AcDbFace
 62
7
420
15920366
  6
CONTINUOUS
 10
20.6922362035
 20
5.1828278041
 30
0.0
 11
29.842028609
 21
2.1377982435
 31
0.0
 12
21.736609065
 22
2.9698967117
 32
0.0
 13
20.6922362035
 23
5.1828278041
 33
0.0
  0
3DFACE
  5
435
100
AcDbEntity
  8
53
100
AcDbFace
 62
7
420
15920366
  6
CONTINUOUS
 10
21.736609065
 20
2.9698967117
 30
0.0
 11
29.842028609
 21
2.1377982435
 31
0.0
 12
21.9986337351
 22
2.7500726625
 32
0.0
 13
21.736609065
 23
2.9698967117
 33
0.0
  0
3DFACE
  5
436
100
AcDbEntity
  8
53
100
AcDbFace
 62
7
420
15920366
  6
CONTINUOUS
 10
21.9986337351
 20
2.7500726625
 30
0.0
 11
29.842028609
 21
2.1377982435
 31
0.0
 12
22.0581542045
 22
2.413248504
 32
0.0
 13
21.9986337351
 23
2.7500726625
 33
0.0
  0
3DFACE
  5
437
100
AcDbEntity
  8
53
100
AcDbFace
 62
7
420
15920366
  6
CONTINUOUS
 10
20.4491860196
 20
5.3585033889
 30
0.0
 11
20.6922362035
 21
5.1828278041
 31
0.0
 12
16.5008715315
 22
4.8738012694
 32
0.0
 13
20.4491860196
 23
5.3585033889
 33
0.0
  0
3DFACE
  5
438
100
AcDbEntity
  8
53
100
AcDbFace
 62
7
420
15920366
  6
CONTINUOUS
 10
16.5008715315
 20
4.8738012694
 30
0.0
 11
20.6922362035
 21
5.1828278041
 31
0.0
 12
21.736609065
 22
2.9698967117
 32
0.0
 13
16.5008715315
 23
4.8738012694
 33
0.0
  0
3DFACE
  5
439
100
AcDbEntity
  8
53
100
AcDbFace
 62
7
420
15920366
  6
CONTINUOUS
 10
20.3503647633
 20
5.6416458659
 30
0.0
 11
20.4491860196
 21
5.3585033889
 31
0.0
 12
16.5008715315
 22
4.8738012694
 32
0.0
 13
20.3503647633
 23
5.6416458659
 33
0.0
  0
3DFACE
  5
43A
100
AcDbEntity
  8
53
100
AcDbFace
 62
7
420
15920366
  6
CONTINUOUS
 10
20.431334402
 20
5.9304004686
 30
0.0
 11
20.3503647633
 21
5.6416458659
 31
0.0
 12
16.6708715315
 22
7.1261987306
 32
0.0
 13
20.431334402
 23
5.9304004686
 33
0.0
  0
3DFACE
  5
43B
100
AcDbEntity
  8
53
100
AcDbFace
 62
7
420
15920366
  6
CONTINUOUS
 10
20.3503647633
 20
5.6416458659
 30
0.0
 11
16.5008715315
 21
4.8738012694
 31
0.0
 12
16.6708715315
 22
7.1261987306
 32
0.0
 13
20.3503647633
 23
5.6416458659
 33
0.0
  0
3DFACE
  5
43C
100
AcDbEntity
  8
53
100
AcDbFace
 62
7
420
15920366
  6
CONTINUOUS
 10
20.6629547512
 20
6.1208927699
 30
0.0
 11
20.431334402
 21
5.9304004686
 31
0.0
 12
21.906609065
 22
9.0301032883
 32
0.0
 13
20.6629547512
 23
6.1208927699
 33
0.0
  0
3DFACE
  5
43D
100
AcDbEntity
  8
53
100
AcDbFace
 62
7
420
15920366
  6
CONTINUOUS
 10
21.906609065
 20
9.0301032883
 30
0.0
 11
20.431334402
 21
5.9304004686
 31
0.0
 12
16.6708715315
 22
7.1261987306
 32
0.0
 13
21.906609065
 23
9.0301032883
 33
0.0
  0
3DFACE
  5
43E
100
AcDbEntity
  8
53
100
AcDbFace
 62
7
420
15920366
  6
CONTINUOUS
 10
22.1686443636
 20
9.2499457372
 30
0.0
 11
20.6629547512
 21
6.1208927699
 31
0.0
 12
21.906609065
 22
9.0301032883
 32
0.0
 13
22.1686443636
 23
9.2499457372
 33
0.0
  0
3DFACE
  5
43F
100
AcDbEntity
  8
53
100
AcDbFace
 62
7
420
15920366
  6
CONTINUOUS
 10
16.2432488947
 20
4.8963190106
 30
0.0
 11
16.1591284685
 21
4.8738012694
 31
0.0
 12
16.3291284685
 22
7.1261987306
 32
0.0
 13
16.2432488947
 23
4.8963190106
 33
0.0
  0
3DFACE
  5
440
100
AcDbEntity
  8
53
100
AcDbFace
 62
7
420
15920366
  6
CONTINUOUS
 10
16.33
 20
4.9039045576
 30
0.0
 11
16.2432488947
 21
4.8963190106
 31
0.0
 12
16.3291284685
 22
7.1261987306
 32
0.0
 13
16.33
 23
4.9039045576
 33
0.0
  0
3DFACE
  5
441
100
AcDbEntity
  8
53
100
AcDbFace
 62
7
420
15920366
  6
CONTINUOUS
 10
16.4167511053
 20
4.8963190106
 30
0.0
 11
16.33
 21
4.9039045576
 31
0.0
 12
16.4132488947
 22
7.1036809894
 32
0.0
 13
16.4167511053
 23
4.8963190106
 33
0.0
  0
3DFACE
  5
442
100
AcDbEntity
  8
53
100
AcDbFace
 62
7
420
15920366
  6
CONTINUOUS
 10
16.4132488947
 20
7.1036809894
 30
0.0
 11
16.33
 21
4.9039045576
 31
0.0
 12
16.3291284685
 22
7.1261987306
 32
0.0
 13
16.4132488947
 23
7.1036809894
 33
0.0
  0
3DFACE
  5
443
100
AcDbEntity
  8
53
100
AcDbFace
 62
7
420
15920366
  6
CONTINUOUS
 10
16.5008715315
 20
4.8738012694
 30
0.0
 11
16.4167511053
 21
4.8963190106
 31
0.0
 12
16.5
 22
7.0960954424
 32
0.0
 13
16.5008715315
 23
4.8738012694
 33
0.0
  0
3DFACE
  5
444
100
AcDbEntity
  8
53
100
AcDbFace
 62
7
420
15920366
  6
CONTINUOUS
 10
16.5
 20
7.0960954424
 30
0.0
 11
16.4167511053
 21
4.8963190106
 31
0.0
 12
16.4132488947
 22
7.1036809894
 32
0.0
 13
16.5
 23
7.0960954424
 33
0.0
  0
3DFACE
  5
445
100
AcDbEntity
  8
53
100
AcDbFace
 62
7
420
15920366
  6
CONTINUOUS
 10
16.6708715315
 20
7.1261987306
 30
0.0
 11
16.5008715315
 21
4.8738012694
 31
0.0
 12
16.5867511053
 22
7.1036809894
 32
0.0
 13
16.6708715315
 23
7.1261987306
 33
0.0
  0
3DFACE
  5
446
100
AcDbEntity
  8
53
100
AcDbFace
 62
7
420
15920366
  6
CONTINUOUS
 10
16.5867511053
 20
7.1036809894
 30
0.0
 11
16.5008715315
 21
4.8738012694
 31
0.0
 12
16.5
 22
7.0960954424
 32
0.0
 13
16.5867511053
 23
7.1036809894
 33
0.0
  0
3DFACE
  5
447
100
AcDbEntity
  8
54
100
AcDbFace
 62
7
420
15920366
  6
CONTINUOUS
 10
32.049
 20
0.9999999707
 30
0.25
 11
32.0758331678
 21
1.0995042167
 31
0.25
 12
32.049
 22
11.0000000293
 32
0.25
 13
32.049
 23
0.9999999707
 33
0.25
  0
3DFACE
  5
448
100
AcDbEntity
  8
54
100
AcDbFace
 62
7
420
15920366
  6
CONTINUOUS
 10
32.0761992264
 20
0.8999087974
 30
0.25
 11
32.049
 21
0.9999999707
 31
0.25
 12
30.4999137567
 22
2.6122160763
 32
0.25
 13
32.0761992264
 23
0.8999087974
 33
0.25
  0
3DFACE
  5
449
100
AcDbEntity
  8
54
100
AcDbFace
 62
7
420
15920366
  6
CONTINUOUS
 10
32.049
 20
0.9999999707
 30
0.25
 11
32.049
 21
11.0000000293
 31
0.25
 12
30.4999137567
 22
9.3508639371
 32
0.25
 13
32.049
 23
0.9999999707
 33
0.25
  0
3DFACE
  5
44A
100
AcDbEntity
  8
54
100
AcDbFace
 62
7
420
15920366
  6
CONTINUOUS
 10
30.4999137567
 20
2.6122160763
 30
0.25
 11
32.049
 21
0.9999999707
 31
0.25
 12
30.4999137567
 22
9.3508639371
 32
0.25
 13
30.4999137567
 23
2.6122160763
 33
0.25
  0
3DFACE
  5
44B
100
AcDbEntity
  8
54
100
AcDbFace
 62
7
420
15920366
  6
CONTINUOUS
 10
32.0758331678
 20
1.0995042167
 30
0.25
 11
32.1477170114
 21
1.1715942009
 31
0.25
 12
32.0761992264
 22
10.8999088561
 32
0.25
 13
32.0758331678
 23
1.0995042167
 33
0.25
  0
3DFACE
  5
44C
100
AcDbEntity
  8
54
100
AcDbFace
 62
7
420
15920366
  6
CONTINUOUS
 10
32.049
 20
11.0000000293
 30
0.25
 11
32.0758331678
 21
1.0995042167
 31
0.25
 12
32.0761992264
 22
10.8999088561
 32
0.25
 13
32.049
 23
11.0000000293
 33
0.25
  0
3DFACE
  5
44D
100
AcDbEntity
  8
54
100
AcDbFace
 62
7
420
15920366
  6
CONTINUOUS
 10
32.1477170114
 20
1.1715942009
 30
0.25
 11
32.2466913205
 21
1.1984231841
 31
0.25
 12
32.1491108266
 22
10.8276032771
 32
0.25
 13
32.1477170114
 23
1.1715942009
 33
0.25
  0
3DFACE
  5
44E
100
AcDbEntity
  8
54
100
AcDbFace
 62
7
420
15920366
  6
CONTINUOUS
 10
32.0761992264
 20
10.8999088561
 30
0.25
 11
32.1477170114
 21
1.1715942009
 31
0.25
 12
32.1491108266
 22
10.8276032771
 32
0.25
 13
32.0761992264
 23
10.8999088561
 33
0.25
  0
3DFACE
  5
44F
100
AcDbEntity
  8
54
100
AcDbFace
 62
7
420
15920366
  6
CONTINUOUS
 10
32.2466913205
 20
1.1984231841
 30
0.25
 11
32.3458891734
 21
1.1723967229
 31
0.25
 12
32.2483086795
 22
10.8015768159
 32
0.25
 13
32.2466913205
 23
1.1984231841
 33
0.25
  0
3DFACE
  5
450
100
AcDbEntity
  8
54
100
AcDbFace
 62
7
420
15920366
  6
CONTINUOUS
 10
32.1491108266
 20
10.8276032771
 30
0.25
 11
32.2466913205
 21
1.1984231841
 31
0.25
 12
32.2483086795
 22
10.8015768159
 32
0.25
 13
32.1491108266
 23
10.8276032771
 33
0.25
  0
3DFACE
  5
451
100
AcDbEntity
  8
54
100
AcDbFace
 62
7
420
15920366
  6
CONTINUOUS
 10
32.3458891734
 20
1.1723967229
 30
0.25
 11
32.4188007736
 21
1.1000911439
 31
0.25
 12
32.3472829886
 22
10.8284057991
 32
0.25
 13
32.3458891734
 23
1.1723967229
 33
0.25
  0
3DFACE
  5
452
100
AcDbEntity
  8
54
100
AcDbFace
 62
7
420
15920366
  6
CONTINUOUS
 10
32.2483086795
 20
10.8015768159
 30
0.25
 11
32.3458891734
 21
1.1723967229
 31
0.25
 12
32.3472829886
 22
10.8284057991
 32
0.25
 13
32.2483086795
 23
10.8015768159
 33
0.25
  0
3DFACE
  5
453
100
AcDbEntity
  8
54
100
AcDbFace
 62
7
420
15920366
  6
CONTINUOUS
 10
32.4188007736
 20
1.1000911439
 30
0.25
 11
32.446
 21
0.9999999707
 31
0.25
 12
32.4191668322
 22
10.9004957833
 32
0.25
 13
32.4188007736
 23
1.1000911439
 33
0.25
  0
3DFACE
  5
454
100
AcDbEntity
  8
54
100
AcDbFace
 62
7
420
15920366
  6
CONTINUOUS
 10
32.3472829886
 20
10.8284057991
 30
0.25
 11
32.4188007736
 21
1.1000911439
 31
0.25
 12
32.4191668322
 22
10.9004957833
 32
0.25
 13
32.3472829886
 23
10.8284057991
 33
0.25
  0
3DFACE
  5
455
100
AcDbEntity
  8
54
100
AcDbFace
 62
7
420
15920366
  6
CONTINUOUS
 10
32.83
 20
0.0
 30
0.25
 11
32.446
 21
0.9999999707
 31
0.25
 12
32.4191668322
 22
0.9004957246
 32
0.25
 13
32.83
 23
0.0
 33
0.25
  0
3DFACE
  5
456
100
AcDbEntity
  8
54
100
AcDbFace
 62
7
420
15920366
  6
CONTINUOUS
 10
32.446
 20
0.9999999707
 30
0.25
 11
32.83
 21
0.0
 31
0.25
 12
32.446
 22
11.0000000293
 32
0.25
 13
32.446
 23
0.9999999707
 33
0.25
  0
3DFACE
  5
457
100
AcDbEntity
  8
54
100
AcDbFace
 62
7
420
15920366
  6
CONTINUOUS
 10
32.446
 20
0.9999999707
 30
0.25
 11
32.446
 21
11.0000000293
 31
0.25
 12
32.4191668322
 22
10.9004957833
 32
0.25
 13
32.446
 23
0.9999999707
 33
0.25
  0
3DFACE
  5
458
100
AcDbEntity
  8
54
100
AcDbFace
 62
7
420
15920366
  6
CONTINUOUS
 10
0.0
 20
0.0
 30
0.25
 11
32.83
 21
0.0
 31
0.25
 12
0.5833086795
 22
0.8015767572
 32
0.25
 13
0.0
 23
0.0
 33
0.25
  0
3DFACE
  5
459
100
AcDbEntity
  8
54
100
AcDbFace
 62
7
420
15920366
  6
CONTINUOUS
 10
0.0
 20
12.0
 30
0.25
 11
0.0
 21
0.0
 31
0.25
 12
0.384
 22
0.9999999707
 32
0.25
 13
0.0
 23
12.0
 33
0.25
  0
3DFACE
  5
45A
100
AcDbEntity
  8
54
100
AcDbFace
 62
7
420
15920366
  6
CONTINUOUS
 10
0.384
 20
0.9999999707
 30
0.25
 11
0.0
 21
0.0
 31
0.25
 12
0.4111992264
 22
0.8999087974
 32
0.25
 13
0.384
 23
0.9999999707
 33
0.25
  0
3DFACE
  5
45B
100
AcDbEntity
  8
54
100
AcDbFace
 62
7
420
15920366
  6
CONTINUOUS
 10
0.4111992264
 20
0.8999087974
 30
0.25
 11
0.0
 21
0.0
 31
0.25
 12
0.4841108266
 22
0.8276032185
 32
0.25
 13
0.4111992264
 23
0.8999087974
 33
0.25
  0
3DFACE
  5
45C
100
AcDbEntity
  8
54
100
AcDbFace
 62
7
420
15920366
  6
CONTINUOUS
 10
0.4841108266
 20
0.8276032185
 30
0.25
 11
0.0
 21
0.0
 31
0.25
 12
0.5833086795
 22
0.8015767572
 32
0.25
 13
0.4841108266
 23
0.8276032185
 33
0.25
  0
3DFACE
  5
45D
100
AcDbEntity
  8
54
100
AcDbFace
 62
7
420
15920366
  6
CONTINUOUS
 10
32.83
 20
0.0
 30
0.25
 11
32.83
 21
12.0
 31
0.25
 12
32.446
 22
11.0000000293
 32
0.25
 13
32.83
 23
0.0
 33
0.25
  0
3DFACE
  5
45E
100
AcDbEntity
  8
54
100
AcDbFace
 62
7
420
15920366
  6
CONTINUOUS
 10
32.0761992264
 20
0.8999087974
 30
0.25
 11
32.83
 21
0.0
 31
0.25
 12
32.1491108266
 22
0.8276032185
 32
0.25
 13
32.0761992264
 23
0.8999087974
 33
0.25
  0
3DFACE
  5
45F
100
AcDbEntity
  8
54
100
AcDbFace
 62
7
420
15920366
  6
CONTINUOUS
 10
32.83
 20
0.0
 30
0.25
 11
32.0761992264
 21
0.8999087974
 31
0.25
 12
30.4999137567
 22
2.6122160763
 32
0.25
 13
32.83
 23
0.0
 33
0.25
  0
3DFACE
  5
460
100
AcDbEntity
  8
54
100
AcDbFace
 62
7
420
15920366
  6
CONTINUOUS
 10
32.1491108266
 20
0.8276032185
 30
0.25
 11
32.83
 21
0.0
 31
0.25
 12
32.2483086795
 22
0.8015767572
 32
0.25
 13
32.1491108266
 23
0.8276032185
 33
0.25
  0
3DFACE
  5
461
100
AcDbEntity
  8
54
100
AcDbFace
 62
7
420
15920366
  6
CONTINUOUS
 10
32.2483086795
 20
0.8015767572
 30
0.25
 11
32.83
 21
0.0
 31
0.25
 12
32.3472829886
 22
0.8284057404
 32
0.25
 13
32.2483086795
 23
0.8015767572
 33
0.25
  0
3DFACE
  5
462
100
AcDbEntity
  8
54
100
AcDbFace
 62
7
420
15920366
  6
CONTINUOUS
 10
32.3472829886
 20
0.8284057404
 30
0.25
 11
32.83
 21
0.0
 31
0.25
 12
32.4191668322
 22
0.9004957246
 32
0.25
 13
32.3472829886
 23
0.8284057404
 33
0.25
  0
3DFACE
  5
463
100
AcDbEntity
  8
54
100
AcDbFace
 62
7
420
15920366
  6
CONTINUOUS
 10
0.5833086795
 20
0.8015767572
 30
0.25
 11
32.83
 21
0.0
 31
0.25
 12
0.6822829886
 22
0.8284057404
 32
0.25
 13
0.5833086795
 23
0.8015767572
 33
0.25
  0
3DFACE
  5
464
100
AcDbEntity
  8
54
100
AcDbFace
 62
7
420
15920366
  6
CONTINUOUS
 10
0.6822829886
 20
0.8284057404
 30
0.25
 11
32.83
 21
0.0
 31
0.25
 12
0.7541668322
 22
0.9004957246
 32
0.25
 13
0.6822829886
 23
0.8284057404
 33
0.25
  0
3DFACE
  5
465
100
AcDbEntity
  8
54
100
AcDbFace
 62
7
420
15920366
  6
CONTINUOUS
 10
0.7541668322
 20
0.9004957246
 30
0.25
 11
32.83
 21
0.0
 31
0.25
 12
8.2510327469
 22
0.7465980331
 32
0.25
 13
0.7541668322
 23
0.9004957246
 33
0.25
  0
3DFACE
  5
466
100
AcDbEntity
  8
54
100
AcDbFace
 62
7
420
15920366
  6
CONTINUOUS
 10
32.83
 20
0.0
 30
0.25
 11
24.8335
 21
0.9999999707
 31
0.25
 12
24.7593128011
 22
0.8208220739
 32
0.25
 13
32.83
 23
0.0
 33
0.25
  0
3DFACE
  5
467
100
AcDbEntity
  8
54
100
AcDbFace
 62
7
420
15920366
  6
CONTINUOUS
 10
24.8335
 20
0.9999999707
 30
0.25
 11
32.83
 21
0.0
 31
0.25
 12
29.842028609
 22
2.1377982435
 32
0.25
 13
24.8335
 23
0.9999999707
 33
0.25
  0
3DFACE
  5
468
100
AcDbEntity
  8
54
100
AcDbFace
 62
7
420
15920366
  6
CONTINUOUS
 10
24.5810327469
 20
0.7465980331
 30
0.25
 11
32.83
 21
0.0
 31
0.25
 12
24.7593128011
 22
0.8208220739
 32
0.25
 13
24.5810327469
 23
0.7465980331
 33
0.25
  0
3DFACE
  5
469
100
AcDbEntity
  8
54
100
AcDbFace
 62
7
420
15920366
  6
CONTINUOUS
 10
32.83
 20
0.0
 30
0.25
 11
24.5810327469
 21
0.7465980331
 31
0.25
 12
8.5035
 22
0.9999999707
 32
0.25
 13
32.83
 23
0.0
 33
0.25
  0
3DFACE
  5
46A
100
AcDbEntity
  8
54
100
AcDbFace
 62
7
420
15920366
  6
CONTINUOUS
 10
32.83
 20
0.0
 30
0.25
 11
8.5035
 21
0.9999999707
 31
0.25
 12
8.4293128011
 22
0.8208220739
 32
0.25
 13
32.83
 23
0.0
 33
0.25
  0
3DFACE
  5
46B
100
AcDbEntity
  8
54
100
AcDbFace
 62
7
420
15920366
  6
CONTINUOUS
 10
8.2510327469
 20
0.7465980331
 30
0.25
 11
32.83
 21
0.0
 31
0.25
 12
8.4293128011
 22
0.8208220739
 32
0.25
 13
8.2510327469
 23
0.7465980331
 33
0.25
  0
3DFACE
  5
46C
100
AcDbEntity
  8
54
100
AcDbFace
 62
7
420
15920366
  6
CONTINUOUS
 10
29.842028609
 20
2.1377982435
 30
0.25
 11
32.83
 21
0.0
 31
0.25
 12
30.1528167277
 22
2.1362098117
 32
0.25
 13
29.842028609
 23
2.1377982435
 33
0.25
  0
3DFACE
  5
46D
100
AcDbEntity
  8
54
100
AcDbFace
 62
7
420
15920366
  6
CONTINUOUS
 10
30.1528167277
 20
2.1362098117
 30
0.25
 11
32.83
 21
0.0
 31
0.25
 12
30.4032832614
 22
2.3168276453
 32
0.25
 13
30.1528167277
 23
2.1362098117
 33
0.25
  0
3DFACE
  5
46E
100
AcDbEntity
  8
54
100
AcDbFace
 62
7
420
15920366
  6
CONTINUOUS
 10
30.4032832614
 20
2.3168276453
 30
0.25
 11
32.83
 21
0.0
 31
0.25
 12
30.4999137567
 22
2.6122160763
 32
0.25
 13
30.4032832614
 23
2.3168276453
 33
0.25
  0
3DFACE
  5
46F
100
AcDbEntity
  8
54
100
AcDbFace
 62
7
420
15920366
  6
CONTINUOUS
 10
32.83
 20
12.0
 30
0.25
 11
0.0
 21
12.0
 31
0.25
 12
32.2466913205
 22
11.1984232428
 32
0.25
 13
32.83
 23
12.0
 33
0.25
  0
3DFACE
  5
470
100
AcDbEntity
  8
54
100
AcDbFace
 62
7
420
15920366
  6
CONTINUOUS
 10
32.2466913205
 20
11.1984232428
 30
0.25
 11
0.0
 21
12.0
 31
0.25
 12
32.1477170114
 22
11.1715942596
 32
0.25
 13
32.2466913205
 23
11.1984232428
 33
0.25
  0
3DFACE
  5
471
100
AcDbEntity
  8
54
100
AcDbFace
 62
7
420
15920366
  6
CONTINUOUS
 10
32.1477170114
 20
11.1715942596
 30
0.25
 11
0.0
 21
12.0
 31
0.25
 12
32.0758331678
 22
11.0995042754
 32
0.25
 13
32.1477170114
 23
11.1715942596
 33
0.25
  0
3DFACE
  5
472
100
AcDbEntity
  8
54
100
AcDbFace
 62
7
420
15920366
  6
CONTINUOUS
 10
32.0758331678
 20
11.0995042754
 30
0.25
 11
0.0
 21
12.0
 31
0.25
 12
24.5789672531
 22
11.2534019669
 32
0.25
 13
32.0758331678
 23
11.0995042754
 33
0.25
  0
3DFACE
  5
473
100
AcDbEntity
  8
54
100
AcDbFace
 62
7
420
15920366
  6
CONTINUOUS
 10
0.0
 20
12.0
 30
0.25
 11
0.384
 21
0.9999999707
 31
0.25
 12
0.384
 22
11.0000000293
 32
0.25
 13
0.0
 23
12.0
 33
0.25
  0
3DFACE
  5
474
100
AcDbEntity
  8
54
100
AcDbFace
 62
7
420
15920366
  6
CONTINUOUS
 10
0.7538007736
 20
11.1000912026
 30
0.25
 11
0.0
 21
12.0
 31
0.25
 12
0.6808891734
 22
11.1723967815
 32
0.25
 13
0.7538007736
 23
11.1000912026
 33
0.25
  0
3DFACE
  5
475
100
AcDbEntity
  8
54
100
AcDbFace
 62
7
420
15920366
  6
CONTINUOUS
 10
0.0
 20
12.0
 30
0.25
 11
0.7538007736
 21
11.1000912026
 31
0.25
 12
2.33
 22
9.3748136485
 32
0.25
 13
0.0
 23
12.0
 33
0.25
  0
3DFACE
  5
476
100
AcDbEntity
  8
54
100
AcDbFace
 62
7
420
15920366
  6
CONTINUOUS
 10
0.6808891734
 20
11.1723967815
 30
0.25
 11
0.0
 21
12.0
 31
0.25
 12
0.5816913205
 22
11.1984232428
 32
0.25
 13
0.6808891734
 23
11.1723967815
 33
0.25
  0
3DFACE
  5
477
100
AcDbEntity
  8
54
100
AcDbFace
 62
7
420
15920366
  6
CONTINUOUS
 10
0.5816913205
 20
11.1984232428
 30
0.25
 11
0.0
 21
12.0
 31
0.25
 12
0.4827170114
 22
11.1715942596
 32
0.25
 13
0.5816913205
 23
11.1984232428
 33
0.25
  0
3DFACE
  5
478
100
AcDbEntity
  8
54
100
AcDbFace
 62
7
420
15920366
  6
CONTINUOUS
 10
0.4827170114
 20
11.1715942596
 30
0.25
 11
0.0
 21
12.0
 31
0.25
 12
0.4108331678
 22
11.0995042754
 32
0.25
 13
0.4827170114
 23
11.1715942596
 33
0.25
  0
3DFACE
  5
479
100
AcDbEntity
  8
54
100
AcDbFace
 62
7
420
15920366
  6
CONTINUOUS
 10
0.4108331678
 20
11.0995042754
 30
0.25
 11
0.0
 21
12.0
 31
0.25
 12
0.384
 22
11.0000000293
 32
0.25
 13
0.4108331678
 23
11.0995042754
 33
0.25
  0
3DFACE
  5
47A
100
AcDbEntity
  8
54
100
AcDbFace
 62
7
420
15920366
  6
CONTINUOUS
 10
24.5789672531
 20
11.2534019669
 30
0.25
 11
0.0
 21
12.0
 31
0.25
 12
24.4006871989
 22
11.1791779261
 32
0.25
 13
24.5789672531
 23
11.2534019669
 33
0.25
  0
3DFACE
  5
47B
100
AcDbEntity
  8
54
100
AcDbFace
 62
7
420
15920366
  6
CONTINUOUS
 10
24.4006871989
 20
11.1791779261
 30
0.25
 11
0.0
 21
12.0
 31
0.25
 12
24.3265
 22
11.0000000293
 32
0.25
 13
24.4006871989
 23
11.1791779261
 33
0.25
  0
3DFACE
  5
47C
100
AcDbEntity
  8
54
100
AcDbFace
 62
7
420
15920366
  6
CONTINUOUS
 10
24.3265
 20
11.0000000293
 30
0.25
 11
0.0
 21
12.0
 31
0.25
 12
8.2489672531
 22
11.2534019669
 32
0.25
 13
24.3265
 23
11.0000000293
 33
0.25
  0
3DFACE
  5
47D
100
AcDbEntity
  8
54
100
AcDbFace
 62
7
420
15920366
  6
CONTINUOUS
 10
8.2489672531
 20
11.2534019669
 30
0.25
 11
0.0
 21
12.0
 31
0.25
 12
8.0706871989
 22
11.1791779261
 32
0.25
 13
8.2489672531
 23
11.2534019669
 33
0.25
  0
3DFACE
  5
47E
100
AcDbEntity
  8
54
100
AcDbFace
 62
7
420
15920366
  6
CONTINUOUS
 10
8.0706871989
 20
11.1791779261
 30
0.25
 11
0.0
 21
12.0
 31
0.25
 12
7.9965
 22
11.0000000293
 32
0.25
 13
8.0706871989
 23
11.1791779261
 33
0.25
  0
3DFACE
  5
47F
100
AcDbEntity
  8
54
100
AcDbFace
 62
7
420
15920366
  6
CONTINUOUS
 10
7.9965
 20
11.0000000293
 30
0.25
 11
0.0
 21
12.0
 31
0.25
 12
3.0008715315
 22
9.8447103603
 32
0.25
 13
7.9965
 23
11.0000000293
 33
0.25
  0
3DFACE
  5
480
100
AcDbEntity
  8
54
100
AcDbFace
 62
7
420
15920366
  6
CONTINUOUS
 10
3.0008715315
 20
9.8447103603
 30
0.25
 11
0.0
 21
12.0
 31
0.25
 12
2.6858214145
 22
9.853532291
 32
0.25
 13
3.0008715315
 23
9.8447103603
 33
0.25
  0
3DFACE
  5
481
100
AcDbEntity
  8
54
100
AcDbFace
 62
7
420
15920366
  6
CONTINUOUS
 10
2.6858214145
 20
9.853532291
 30
0.25
 11
0.0
 21
12.0
 31
0.25
 12
2.4293753996
 22
9.6739105102
 32
0.25
 13
2.6858214145
 23
9.853532291
 33
0.25
  0
3DFACE
  5
482
100
AcDbEntity
  8
54
100
AcDbFace
 62
7
420
15920366
  6
CONTINUOUS
 10
2.4293753996
 20
9.6739105102
 30
0.25
 11
0.0
 21
12.0
 31
0.25
 12
2.33
 22
9.3748136485
 32
0.25
 13
2.4293753996
 23
9.6739105102
 33
0.25
  0
3DFACE
  5
483
100
AcDbEntity
  8
54
100
AcDbFace
 62
7
420
15920366
  6
CONTINUOUS
 10
32.446
 20
11.0000000293
 30
0.25
 11
32.83
 21
12.0
 31
0.25
 12
32.4188007736
 22
11.1000912026
 32
0.25
 13
32.446
 23
11.0000000293
 33
0.25
  0
3DFACE
  5
484
100
AcDbEntity
  8
54
100
AcDbFace
 62
7
420
15920366
  6
CONTINUOUS
 10
32.4188007736
 20
11.1000912026
 30
0.25
 11
32.83
 21
12.0
 31
0.25
 12
32.3458891734
 22
11.1723967815
 32
0.25
 13
32.4188007736
 23
11.1000912026
 33
0.25
  0
3DFACE
  5
485
100
AcDbEntity
  8
54
100
AcDbFace
 62
7
420
15920366
  6
CONTINUOUS
 10
32.3458891734
 20
11.1723967815
 30
0.25
 11
32.83
 21
12.0
 31
0.25
 12
32.2466913205
 22
11.1984232428
 32
0.25
 13
32.3458891734
 23
11.1723967815
 33
0.25
  0
3DFACE
  5
486
100
AcDbEntity
  8
54
100
AcDbFace
 62
7
420
15920366
  6
CONTINUOUS
 10
32.049
 20
11.0000000293
 30
0.25
 11
32.0758331678
 21
11.0995042754
 31
0.25
 12
24.5789672531
 22
11.2534019669
 32
0.25
 13
32.049
 23
11.0000000293
 33
0.25
  0
3DFACE
  5
487
100
AcDbEntity
  8
54
100
AcDbFace
 62
7
420
15920366
  6
CONTINUOUS
 10
32.049
 20
11.0000000293
 30
0.25
 11
24.5789672531
 21
11.2534019669
 31
0.25
 12
30.1329515859
 22
9.8327943307
 32
0.25
 13
32.049
 23
11.0000000293
 33
0.25
  0
3DFACE
  5
488
100
AcDbEntity
  8
54
100
AcDbFace
 62
7
420
15920366
  6
CONTINUOUS
 10
30.4999137567
 20
9.3508639371
 30
0.25
 11
32.049
 21
11.0000000293
 31
0.25
 12
30.3970045709
 22
9.6546316996
 32
0.25
 13
30.4999137567
 23
9.3508639371
 33
0.25
  0
3DFACE
  5
489
100
AcDbEntity
  8
54
100
AcDbFace
 62
7
420
15920366
  6
CONTINUOUS
 10
30.3970045709
 20
9.6546316996
 30
0.25
 11
32.049
 21
11.0000000293
 31
0.25
 12
30.1329515859
 22
9.8327943307
 32
0.25
 13
30.3970045709
 23
9.6546316996
 33
0.25
  0
3DFACE
  5
48A
100
AcDbEntity
  8
54
100
AcDbFace
 62
7
420
15920366
  6
CONTINUOUS
 10
0.7538007736
 20
1.1000911439
 30
0.25
 11
0.781
 21
0.9999999707
 31
0.25
 12
0.7541668322
 22
10.9004957833
 32
0.25
 13
0.7538007736
 23
1.1000911439
 33
0.25
  0
3DFACE
  5
48B
100
AcDbEntity
  8
54
100
AcDbFace
 62
7
420
15920366
  6
CONTINUOUS
 10
0.781
 20
0.9999999707
 30
0.25
 11
0.7541668322
 21
0.9004957246
 31
0.25
 12
8.2510327469
 22
0.7465980331
 32
0.25
 13
0.781
 23
0.9999999707
 33
0.25
  0
3DFACE
  5
48C
100
AcDbEntity
  8
54
100
AcDbFace
 62
7
420
15920366
  6
CONTINUOUS
 10
0.781
 20
0.9999999707
 30
0.25
 11
0.781
 21
11.0000000293
 31
0.25
 12
0.7541668322
 22
10.9004957833
 32
0.25
 13
0.781
 23
0.9999999707
 33
0.25
  0
3DFACE
  5
48D
100
AcDbEntity
  8
54
100
AcDbFace
 62
7
420
15920366
  6
CONTINUOUS
 10
0.781
 20
11.0000000293
 30
0.25
 11
0.781
 21
0.9999999707
 31
0.25
 12
2.33
 22
2.6251863515
 32
0.25
 13
0.781
 23
11.0000000293
 33
0.25
  0
3DFACE
  5
48E
100
AcDbEntity
  8
54
100
AcDbFace
 62
7
420
15920366
  6
CONTINUOUS
 10
0.781
 20
0.9999999707
 30
0.25
 11
8.2510327469
 21
0.7465980331
 31
0.25
 12
2.6858214145
 22
2.146467709
 32
0.25
 13
0.781
 23
0.9999999707
 33
0.25
  0
3DFACE
  5
48F
100
AcDbEntity
  8
54
100
AcDbFace
 62
7
420
15920366
  6
CONTINUOUS
 10
2.33
 20
2.6251863515
 30
0.25
 11
0.781
 21
0.9999999707
 31
0.25
 12
2.4293753996
 22
2.3260894898
 32
0.25
 13
2.33
 23
2.6251863515
 33
0.25
  0
3DFACE
  5
490
100
AcDbEntity
  8
54
100
AcDbFace
 62
7
420
15920366
  6
CONTINUOUS
 10
2.4293753996
 20
2.3260894898
 30
0.25
 11
0.781
 21
0.9999999707
 31
0.25
 12
2.6858214145
 22
2.146467709
 32
0.25
 13
2.4293753996
 23
2.3260894898
 33
0.25
  0
3DFACE
  5
491
100
AcDbEntity
  8
54
100
AcDbFace
 62
7
420
15920366
  6
CONTINUOUS
 10
0.6808891734
 20
1.1723967229
 30
0.25
 11
0.7538007736
 21
1.1000911439
 31
0.25
 12
0.6822829886
 22
10.8284057991
 32
0.25
 13
0.6808891734
 23
1.1723967229
 33
0.25
  0
3DFACE
  5
492
100
AcDbEntity
  8
54
100
AcDbFace
 62
7
420
15920366
  6
CONTINUOUS
 10
0.6822829886
 20
10.8284057991
 30
0.25
 11
0.7538007736
 21
1.1000911439
 31
0.25
 12
0.7541668322
 22
10.9004957833
 32
0.25
 13
0.6822829886
 23
10.8284057991
 33
0.25
  0
3DFACE
  5
493
100
AcDbEntity
  8
54
100
AcDbFace
 62
7
420
15920366
  6
CONTINUOUS
 10
0.5816913205
 20
1.1984231841
 30
0.25
 11
0.6808891734
 21
1.1723967229
 31
0.25
 12
0.5833086795
 22
10.8015768159
 32
0.25
 13
0.5816913205
 23
1.1984231841
 33
0.25
  0
3DFACE
  5
494
100
AcDbEntity
  8
54
100
AcDbFace
 62
7
420
15920366
  6
CONTINUOUS
 10
0.5833086795
 20
10.8015768159
 30
0.25
 11
0.6808891734
 21
1.1723967229
 31
0.25
 12
0.6822829886
 22
10.8284057991
 32
0.25
 13
0.5833086795
 23
10.8015768159
 33
0.25
  0
3DFACE
  5
495
100
AcDbEntity
  8
54
100
AcDbFace
 62
7
420
15920366
  6
CONTINUOUS
 10
0.4827170114
 20
1.1715942009
 30
0.25
 11
0.5816913205
 21
1.1984231841
 31
0.25
 12
0.4841108266
 22
10.8276032771
 32
0.25
 13
0.4827170114
 23
1.1715942009
 33
0.25
  0
3DFACE
  5
496
100
AcDbEntity
  8
54
100
AcDbFace
 62
7
420
15920366
  6
CONTINUOUS
 10
0.4841108266
 20
10.8276032771
 30
0.25
 11
0.5816913205
 21
1.1984231841
 31
0.25
 12
0.5833086795
 22
10.8015768159
 32
0.25
 13
0.4841108266
 23
10.8276032771
 33
0.25
  0
3DFACE
  5
497
100
AcDbEntity
  8
54
100
AcDbFace
 62
7
420
15920366
  6
CONTINUOUS
 10
0.4108331678
 20
1.0995042167
 30
0.25
 11
0.4827170114
 21
1.1715942009
 31
0.25
 12
0.4111992264
 22
10.8999088561
 32
0.25
 13
0.4108331678
 23
1.0995042167
 33
0.25
  0
3DFACE
  5
498
100
AcDbEntity
  8
54
100
AcDbFace
 62
7
420
15920366
  6
CONTINUOUS
 10
0.4111992264
 20
10.8999088561
 30
0.25
 11
0.4827170114
 21
1.1715942009
 31
0.25
 12
0.4841108266
 22
10.8276032771
 32
0.25
 13
0.4111992264
 23
10.8999088561
 33
0.25
  0
3DFACE
  5
499
100
AcDbEntity
  8
54
100
AcDbFace
 62
7
420
15920366
  6
CONTINUOUS
 10
0.384
 20
0.9999999707
 30
0.25
 11
0.4108331678
 21
1.0995042167
 31
0.25
 12
0.384
 22
11.0000000293
 32
0.25
 13
0.384
 23
0.9999999707
 33
0.25
  0
3DFACE
  5
49A
100
AcDbEntity
  8
54
100
AcDbFace
 62
7
420
15920366
  6
CONTINUOUS
 10
0.384
 20
11.0000000293
 30
0.25
 11
0.4108331678
 21
1.0995042167
 31
0.25
 12
0.4111992264
 22
10.8999088561
 32
0.25
 13
0.384
 23
11.0000000293
 33
0.25
  0
3DFACE
  5
49B
100
AcDbEntity
  8
54
100
AcDbFace
 62
7
420
15920366
  6
CONTINUOUS
 10
0.7538007736
 20
11.1000912026
 30
0.25
 11
0.781
 21
11.0000000293
 31
0.25
 12
2.33
 22
9.3748136485
 32
0.25
 13
0.7538007736
 23
11.1000912026
 33
0.25
  0
3DFACE
  5
49C
100
AcDbEntity
  8
54
100
AcDbFace
 62
7
420
15920366
  6
CONTINUOUS
 10
0.781
 20
11.0000000293
 30
0.25
 11
2.33
 21
2.6251863515
 31
0.25
 12
2.33
 22
9.3748136485
 32
0.25
 13
0.781
 23
11.0000000293
 33
0.25
  0
3DFACE
  5
49D
100
AcDbEntity
  8
54
100
AcDbFace
 62
7
420
15920366
  6
CONTINUOUS
 10
24.7582051223
 20
1.1802741934
 30
0.25
 11
24.8335
 21
0.9999999707
 31
0.25
 12
29.842028609
 22
2.1377982435
 32
0.25
 13
24.7582051223
 23
1.1802741934
 33
0.25
  0
3DFACE
  5
49E
100
AcDbEntity
  8
54
100
AcDbFace
 62
7
420
15920366
  6
CONTINUOUS
 10
24.5789672531
 20
1.2534019083
 30
0.25
 11
24.7582051223
 21
1.1802741934
 31
0.25
 12
20.6922362035
 22
5.1828278041
 32
0.25
 13
24.5789672531
 23
1.2534019083
 33
0.25
  0
3DFACE
  5
49F
100
AcDbEntity
  8
54
100
AcDbFace
 62
7
420
15920366
  6
CONTINUOUS
 10
24.7582051223
 20
1.1802741934
 30
0.25
 11
29.842028609
 21
2.1377982435
 31
0.25
 12
20.6922362035
 22
5.1828278041
 32
0.25
 13
24.7582051223
 23
1.1802741934
 33
0.25
  0
3DFACE
  5
4A0
100
AcDbEntity
  8
54
100
AcDbFace
 62
7
420
15920366
  6
CONTINUOUS
 10
24.4006871989
 20
1.1791778674
 30
0.25
 11
24.5789672531
 21
1.2534019083
 31
0.25
 12
20.6922362035
 22
5.1828278041
 32
0.25
 13
24.4006871989
 23
1.1791778674
 33
0.25
  0
3DFACE
  5
4A1
100
AcDbEntity
  8
54
100
AcDbFace
 62
7
420
15920366
  6
CONTINUOUS
 10
24.3265
 20
0.9999999707
 30
0.25
 11
24.4006871989
 21
1.1791778674
 31
0.25
 12
20.6922362035
 22
5.1828278041
 32
0.25
 13
24.3265
 23
0.9999999707
 33
0.25
  0
3DFACE
  5
4A2
100
AcDbEntity
  8
54
100
AcDbFace
 62
7
420
15920366
  6
CONTINUOUS
 10
24.4017948777
 20
0.8197257479
 30
0.25
 11
24.3265
 21
0.9999999707
 31
0.25
 12
22.0581542045
 22
2.413248504
 32
0.25
 13
24.4017948777
 23
0.8197257479
 33
0.25
  0
3DFACE
  5
4A3
100
AcDbEntity
  8
54
100
AcDbFace
 62
7
420
15920366
  6
CONTINUOUS
 10
24.3265
 20
0.9999999707
 30
0.25
 11
20.6922362035
 21
5.1828278041
 31
0.25
 12
21.9986443636
 22
2.7500542628
 32
0.25
 13
24.3265
 23
0.9999999707
 33
0.25
  0
3DFACE
  5
4A4
100
AcDbEntity
  8
54
100
AcDbFace
 62
7
420
15920366
  6
CONTINUOUS
 10
22.0581542045
 20
2.413248504
 30
0.25
 11
24.3265
 21
0.9999999707
 31
0.25
 12
21.9986443636
 22
2.7500542628
 32
0.25
 13
22.0581542045
 23
2.413248504
 33
0.25
  0
3DFACE
  5
4A5
100
AcDbEntity
  8
54
100
AcDbFace
 62
7
420
15920366
  6
CONTINUOUS
 10
24.5810327469
 20
0.7465980331
 30
0.25
 11
24.4017948777
 21
0.8197257479
 31
0.25
 12
11.0942624665
 22
2.0
 32
0.25
 13
24.5810327469
 23
0.7465980331
 33
0.25
  0
3DFACE
  5
4A6
100
AcDbEntity
  8
54
100
AcDbFace
 62
7
420
15920366
  6
CONTINUOUS
 10
21.5657375335
 20
2.0
 30
0.25
 11
24.4017948777
 21
0.8197257479
 31
0.25
 12
21.8871099391
 22
2.1170440825
 32
0.25
 13
21.5657375335
 23
2.0
 33
0.25
  0
3DFACE
  5
4A7
100
AcDbEntity
  8
54
100
AcDbFace
 62
7
420
15920366
  6
CONTINUOUS
 10
24.4017948777
 20
0.8197257479
 30
0.25
 11
21.5657375335
 21
2.0
 31
0.25
 12
11.0942624665
 22
2.0
 32
0.25
 13
24.4017948777
 23
0.8197257479
 33
0.25
  0
3DFACE
  5
4A8
100
AcDbEntity
  8
54
100
AcDbFace
 62
7
420
15920366
  6
CONTINUOUS
 10
21.8871099391
 20
2.1170440825
 30
0.25
 11
24.4017948777
 21
0.8197257479
 31
0.25
 12
22.0581542045
 22
2.413248504
 32
0.25
 13
21.8871099391
 23
2.1170440825
 33
0.25
  0
3DFACE
  5
4A9
100
AcDbEntity
  8
54
100
AcDbFace
 62
7
420
15920366
  6
CONTINUOUS
 10
8.5035
 20
0.9999999707
 30
0.25
 11
24.5810327469
 21
0.7465980331
 31
0.25
 12
11.0942624665
 22
2.0
 32
0.25
 13
8.5035
 23
0.9999999707
 33
0.25
  0
3DFACE
  5
4AA
100
AcDbEntity
  8
54
100
AcDbFace
 62
7
420
15920366
  6
CONTINUOUS
 10
24.7582051223
 20
11.1802742521
 30
0.25
 11
24.8335
 21
11.0000000293
 31
0.25
 12
29.8127471567
 22
9.81451107
 32
0.25
 13
24.7582051223
 23
11.1802742521
 33
0.25
  0
3DFACE
  5
4AB
100
AcDbEntity
  8
54
100
AcDbFace
 62
7
420
15920366
  6
CONTINUOUS
 10
24.8335
 20
11.0000000293
 30
0.25
 11
24.7593128011
 21
10.8208221326
 31
0.25
 12
29.8127471567
 22
9.81451107
 32
0.25
 13
24.8335
 23
11.0000000293
 33
0.25
  0
3DFACE
  5
4AC
100
AcDbEntity
  8
54
100
AcDbFace
 62
7
420
15920366
  6
CONTINUOUS
 10
24.5789672531
 20
11.2534019669
 30
0.25
 11
24.7582051223
 21
11.1802742521
 31
0.25
 12
29.8127471567
 22
9.81451107
 32
0.25
 13
24.5789672531
 23
11.2534019669
 33
0.25
  0
3DFACE
  5
4AD
100
AcDbEntity
  8
54
100
AcDbFace
 62
7
420
15920366
  6
CONTINUOUS
 10
30.1329515859
 20
9.8327943307
 30
0.25
 11
24.5789672531
 21
11.2534019669
 31
0.25
 12
29.8127471567
 22
9.81451107
 32
0.25
 13
30.1329515859
 23
9.8327943307
 33
0.25
  0
3DFACE
  5
4AE
100
AcDbEntity
  8
54
100
AcDbFace
 62
7
420
15920366
  6
CONTINUOUS
 10
24.4017948777
 20
10.8197258066
 30
0.25
 11
24.3265
 21
11.0000000293
 31
0.25
 12
22.2281542045
 22
9.586751496
 32
0.25
 13
24.4017948777
 23
10.8197258066
 33
0.25
  0
3DFACE
  5
4AF
100
AcDbEntity
  8
54
100
AcDbFace
 62
7
420
15920366
  6
CONTINUOUS
 10
24.3265
 20
11.0000000293
 30
0.25
 11
8.2489672531
 21
11.2534019669
 31
0.25
 12
21.7357375335
 22
10.0
 32
0.25
 13
24.3265
 23
11.0000000293
 33
0.25
  0
3DFACE
  5
4B0
100
AcDbEntity
  8
54
100
AcDbFace
 62
7
420
15920366
  6
CONTINUOUS
 10
22.2281542045
 20
9.586751496
 30
0.25
 11
24.3265
 21
11.0000000293
 31
0.25
 12
22.0571262157
 22
9.8829422578
 32
0.25
 13
22.2281542045
 23
9.586751496
 33
0.25
  0
3DFACE
  5
4B1
100
AcDbEntity
  8
54
100
AcDbFace
 62
7
420
15920366
  6
CONTINUOUS
 10
22.0571262157
 20
9.8829422578
 30
0.25
 11
24.3265
 21
11.0000000293
 31
0.25
 12
21.7357375335
 22
10.0
 32
0.25
 13
22.0571262157
 23
9.8829422578
 33
0.25
  0
3DFACE
  5
4B2
100
AcDbEntity
  8
54
100
AcDbFace
 62
7
420
15920366
  6
CONTINUOUS
 10
24.5810327469
 20
10.7465980917
 30
0.25
 11
24.4017948777
 21
10.8197258066
 31
0.25
 12
22.2281542045
 22
9.586751496
 32
0.25
 13
24.5810327469
 23
10.7465980917
 33
0.25
  0
3DFACE
  5
4B3
100
AcDbEntity
  8
54
100
AcDbFace
 62
7
420
15920366
  6
CONTINUOUS
 10
24.7593128011
 20
10.8208221326
 30
0.25
 11
24.5810327469
 21
10.7465980917
 31
0.25
 12
29.8127471567
 22
9.81451107
 32
0.25
 13
24.7593128011
 23
10.8208221326
 33
0.25
  0
3DFACE
  5
4B4
100
AcDbEntity
  8
54
100
AcDbFace
 62
7
420
15920366
  6
CONTINUOUS
 10
29.8127471567
 20
9.81451107
 30
0.25
 11
24.5810327469
 21
10.7465980917
 31
0.25
 12
22.2281542045
 22
9.586751496
 32
0.25
 13
29.8127471567
 23
9.81451107
 33
0.25
  0
3DFACE
  5
4B5
100
AcDbEntity
  8
54
100
AcDbFace
 62
7
420
15920366
  6
CONTINUOUS
 10
8.4282051223
 20
1.1802741934
 30
0.25
 11
8.5035
 21
0.9999999707
 31
0.25
 12
10.6018457955
 22
2.413248504
 32
0.25
 13
8.4282051223
 23
1.1802741934
 33
0.25
  0
3DFACE
  5
4B6
100
AcDbEntity
  8
54
100
AcDbFace
 62
7
420
15920366
  6
CONTINUOUS
 10
10.6018457955
 20
2.413248504
 30
0.25
 11
8.5035
 21
0.9999999707
 31
0.25
 12
10.7728737843
 22
2.1170577422
 32
0.25
 13
10.6018457955
 23
2.413248504
 33
0.25
  0
3DFACE
  5
4B7
100
AcDbEntity
  8
54
100
AcDbFace
 62
7
420
15920366
  6
CONTINUOUS
 10
10.7728737843
 20
2.1170577422
 30
0.25
 11
8.5035
 21
0.9999999707
 31
0.25
 12
11.0942624665
 22
2.0
 32
0.25
 13
10.7728737843
 23
2.1170577422
 33
0.25
  0
3DFACE
  5
4B8
100
AcDbEntity
  8
54
100
AcDbFace
 62
7
420
15920366
  6
CONTINUOUS
 10
8.2489672531
 20
1.2534019083
 30
0.25
 11
8.4282051223
 21
1.1802741934
 31
0.25
 12
10.6018457955
 22
2.413248504
 32
0.25
 13
8.2489672531
 23
1.2534019083
 33
0.25
  0
3DFACE
  5
4B9
100
AcDbEntity
  8
54
100
AcDbFace
 62
7
420
15920366
  6
CONTINUOUS
 10
8.0706871989
 20
1.1791778674
 30
0.25
 11
8.2489672531
 21
1.2534019083
 31
0.25
 12
3.0008715315
 22
2.1552896397
 32
0.25
 13
8.0706871989
 23
1.1791778674
 33
0.25
  0
3DFACE
  5
4BA
100
AcDbEntity
  8
54
100
AcDbFace
 62
7
420
15920366
  6
CONTINUOUS
 10
3.0008715315
 20
2.1552896397
 30
0.25
 11
8.2489672531
 21
1.2534019083
 31
0.25
 12
10.6018457955
 22
2.413248504
 32
0.25
 13
3.0008715315
 23
2.1552896397
 33
0.25
  0
3DFACE
  5
4BB
100
AcDbEntity
  8
54
100
AcDbFace
 62
7
420
15920366
  6
CONTINUOUS
 10
7.9965
 20
0.9999999707
 30
0.25
 11
8.0706871989
 21
1.1791778674
 31
0.25
 12
3.0008715315
 22
2.1552896397
 32
0.25
 13
7.9965
 23
0.9999999707
 33
0.25
  0
3DFACE
  5
4BC
100
AcDbEntity
  8
54
100
AcDbFace
 62
7
420
15920366
  6
CONTINUOUS
 10
8.0717948777
 20
0.8197257479
 30
0.25
 11
7.9965
 21
0.9999999707
 31
0.25
 12
3.0008715315
 22
2.1552896397
 32
0.25
 13
8.0717948777
 23
0.8197257479
 33
0.25
  0
3DFACE
  5
4BD
100
AcDbEntity
  8
54
100
AcDbFace
 62
7
420
15920366
  6
CONTINUOUS
 10
8.2510327469
 20
0.7465980331
 30
0.25
 11
8.0717948777
 21
0.8197257479
 31
0.25
 12
3.0008715315
 22
2.1552896397
 32
0.25
 13
8.2510327469
 23
0.7465980331
 33
0.25
  0
3DFACE
  5
4BE
100
AcDbEntity
  8
54
100
AcDbFace
 62
7
420
15920366
  6
CONTINUOUS
 10
2.6858214145
 20
2.146467709
 30
0.25
 11
8.2510327469
 21
0.7465980331
 31
0.25
 12
3.0008715315
 22
2.1552896397
 32
0.25
 13
2.6858214145
 23
2.146467709
 33
0.25
  0
3DFACE
  5
4BF
100
AcDbEntity
  8
54
100
AcDbFace
 62
7
420
15920366
  6
CONTINUOUS
 10
8.4282051223
 20
11.1802742521
 30
0.25
 11
8.5035
 21
11.0000000293
 31
0.25
 12
10.7718457955
 22
9.586751496
 32
0.25
 13
8.4282051223
 23
11.1802742521
 33
0.25
  0
3DFACE
  5
4C0
100
AcDbEntity
  8
54
100
AcDbFace
 62
7
420
15920366
  6
CONTINUOUS
 10
8.5035
 20
11.0000000293
 30
0.25
 11
8.4293128011
 21
10.8208221326
 31
0.25
 12
12.281609065
 22
6.4698967117
 32
0.25
 13
8.5035
 23
11.0000000293
 33
0.25
  0
3DFACE
  5
4C1
100
AcDbEntity
  8
54
100
AcDbFace
 62
7
420
15920366
  6
CONTINUOUS
 10
8.5035
 20
11.0000000293
 30
0.25
 11
12.281609065
 21
6.4698967117
 31
0.25
 12
10.8313556364
 22
9.2499457372
 32
0.25
 13
8.5035
 23
11.0000000293
 33
0.25
  0
3DFACE
  5
4C2
100
AcDbEntity
  8
54
100
AcDbFace
 62
7
420
15920366
  6
CONTINUOUS
 10
10.7718457955
 20
9.586751496
 30
0.25
 11
8.5035
 21
11.0000000293
 31
0.25
 12
10.8313556364
 22
9.2499457372
 32
0.25
 13
10.7718457955
 23
9.586751496
 33
0.25
  0
3DFACE
  5
4C3
100
AcDbEntity
  8
54
100
AcDbFace
 62
7
420
15920366
  6
CONTINUOUS
 10
8.2489672531
 20
11.2534019669
 30
0.25
 11
8.4282051223
 21
11.1802742521
 31
0.25
 12
21.7357375335
 22
10.0
 32
0.25
 13
8.2489672531
 23
11.2534019669
 33
0.25
  0
3DFACE
  5
4C4
100
AcDbEntity
  8
54
100
AcDbFace
 62
7
420
15920366
  6
CONTINUOUS
 10
21.7357375335
 20
10.0
 30
0.25
 11
8.4282051223
 21
11.1802742521
 31
0.25
 12
11.2642624665
 22
10.0
 32
0.25
 13
21.7357375335
 23
10.0
 33
0.25
  0
3DFACE
  5
4C5
100
AcDbEntity
  8
54
100
AcDbFace
 62
7
420
15920366
  6
CONTINUOUS
 10
11.2642624665
 20
10.0
 30
0.25
 11
8.4282051223
 21
11.1802742521
 31
0.25
 12
10.9428900609
 22
9.8829559175
 32
0.25
 13
11.2642624665
 23
10.0
 33
0.25
  0
3DFACE
  5
4C6
100
AcDbEntity
  8
54
100
AcDbFace
 62
7
420
15920366
  6
CONTINUOUS
 10
10.9428900609
 20
9.8829559175
 30
0.25
 11
8.4282051223
 21
11.1802742521
 31
0.25
 12
10.7718457955
 22
9.586751496
 32
0.25
 13
10.9428900609
 23
9.8829559175
 33
0.25
  0
3DFACE
  5
4C7
100
AcDbEntity
  8
54
100
AcDbFace
 62
7
420
15920366
  6
CONTINUOUS
 10
8.0717948777
 20
10.8197258066
 30
0.25
 11
7.9965
 21
11.0000000293
 31
0.25
 12
3.0008715315
 22
9.8447103603
 32
0.25
 13
8.0717948777
 23
10.8197258066
 33
0.25
  0
3DFACE
  5
4C8
100
AcDbEntity
  8
54
100
AcDbFace
 62
7
420
15920366
  6
CONTINUOUS
 10
8.2510327469
 20
10.7465980917
 30
0.25
 11
8.0717948777
 21
10.8197258066
 31
0.25
 12
12.281609065
 22
6.4698967117
 32
0.25
 13
8.2510327469
 23
10.7465980917
 33
0.25
  0
3DFACE
  5
4C9
100
AcDbEntity
  8
54
100
AcDbFace
 62
7
420
15920366
  6
CONTINUOUS
 10
12.281609065
 20
6.4698967117
 30
0.25
 11
8.0717948777
 21
10.8197258066
 31
0.25
 12
3.0008715315
 22
9.8447103603
 32
0.25
 13
12.281609065
 23
6.4698967117
 33
0.25
  0
3DFACE
  5
4CA
100
AcDbEntity
  8
54
100
AcDbFace
 62
7
420
15920366
  6
CONTINUOUS
 10
8.4293128011
 20
10.8208221326
 30
0.25
 11
8.2510327469
 21
10.7465980917
 31
0.25
 12
12.281609065
 22
6.4698967117
 32
0.25
 13
8.4293128011
 23
10.8208221326
 33
0.25
  0
3DFACE
  5
4CB
100
AcDbEntity
  8
54
100
AcDbFace
 62
7
420
15920366
  6
CONTINUOUS
 10
12.281609065
 20
5.5301032883
 30
0.25
 11
3.0008715315
 21
2.1552896397
 31
0.25
 12
10.923390935
 22
2.9698967117
 32
0.25
 13
12.281609065
 23
5.5301032883
 33
0.25
  0
3DFACE
  5
4CC
100
AcDbEntity
  8
54
100
AcDbFace
 62
7
420
15920366
  6
CONTINUOUS
 10
10.923390935
 20
2.9698967117
 30
0.25
 11
3.0008715315
 21
2.1552896397
 31
0.25
 12
10.6613662649
 22
2.7500726625
 32
0.25
 13
10.923390935
 23
2.9698967117
 33
0.25
  0
3DFACE
  5
4CD
100
AcDbEntity
  8
54
100
AcDbFace
 62
7
420
15920366
  6
CONTINUOUS
 10
10.6613662649
 20
2.7500726625
 30
0.25
 11
3.0008715315
 21
2.1552896397
 31
0.25
 12
10.6018457955
 22
2.413248504
 32
0.25
 13
10.6613662649
 23
2.7500726625
 33
0.25
  0
3DFACE
  5
4CE
100
AcDbEntity
  8
54
100
AcDbFace
 62
7
420
15920366
  6
CONTINUOUS
 10
12.5202680144
 20
5.7131536855
 30
0.25
 11
12.281609065
 21
5.5301032883
 31
0.25
 12
16.1591284685
 22
4.8738012694
 32
0.25
 13
12.5202680144
 23
5.7131536855
 33
0.25
  0
3DFACE
  5
4CF
100
AcDbEntity
  8
54
100
AcDbFace
 62
7
420
15920366
  6
CONTINUOUS
 10
16.1591284685
 20
4.8738012694
 30
0.25
 11
12.281609065
 21
5.5301032883
 31
0.25
 12
10.923390935
 22
2.9698967117
 32
0.25
 13
16.1591284685
 23
4.8738012694
 33
0.25
  0
3DFACE
  5
4D0
100
AcDbEntity
  8
54
100
AcDbFace
 62
7
420
15920366
  6
CONTINUOUS
 10
12.6107375335
 20
6.0
 30
0.25
 11
12.5202680144
 21
5.7131536855
 31
0.25
 12
16.1591284685
 22
4.8738012694
 32
0.25
 13
12.6107375335
 23
6.0
 33
0.25
  0
3DFACE
  5
4D1
100
AcDbEntity
  8
54
100
AcDbFace
 62
7
420
15920366
  6
CONTINUOUS
 10
12.5202680144
 20
6.2868463145
 30
0.25
 11
12.6107375335
 21
6.0
 31
0.25
 12
16.1591284685
 22
4.8738012694
 32
0.25
 13
12.5202680144
 23
6.2868463145
 33
0.25
  0
3DFACE
  5
4D2
100
AcDbEntity
  8
54
100
AcDbFace
 62
7
420
15920366
  6
CONTINUOUS
 10
12.281609065
 20
6.4698967117
 30
0.25
 11
12.5202680144
 21
6.2868463145
 31
0.25
 12
11.093390935
 22
9.0301032883
 32
0.25
 13
12.281609065
 23
6.4698967117
 33
0.25
  0
3DFACE
  5
4D3
100
AcDbEntity
  8
54
100
AcDbFace
 62
7
420
15920366
  6
CONTINUOUS
 10
12.5202680144
 20
6.2868463145
 30
0.25
 11
16.1591284685
 21
4.8738012694
 31
0.25
 12
11.093390935
 22
9.0301032883
 32
0.25
 13
12.5202680144
 23
6.2868463145
 33
0.25
  0
3DFACE
  5
4D4
100
AcDbEntity
  8
54
100
AcDbFace
 62
7
420
15920366
  6
CONTINUOUS
 10
10.8313556364
 20
9.2499457372
 30
0.25
 11
12.281609065
 21
6.4698967117
 31
0.25
 12
11.093390935
 22
9.0301032883
 32
0.25
 13
10.8313556364
 23
9.2499457372
 33
0.25
  0
3DFACE
  5
4D5
100
AcDbEntity
  8
54
100
AcDbFace
 62
7
420
15920366
  6
CONTINUOUS
 10
20.6629547512
 20
6.1208927699
 30
0.25
 11
29.8127471567
 21
9.81451107
 31
0.25
 12
21.906609065
 22
9.0301032883
 32
0.25
 13
20.6629547512
 23
6.1208927699
 33
0.25
  0
3DFACE
  5
4D6
100
AcDbEntity
  8
54
100
AcDbFace
 62
7
420
15920366
  6
CONTINUOUS
 10
21.906609065
 20
9.0301032883
 30
0.25
 11
29.8127471567
 21
9.81451107
 31
0.25
 12
22.1686337351
 22
9.2499273375
 32
0.25
 13
21.906609065
 23
9.0301032883
 33
0.25
  0
3DFACE
  5
4D7
100
AcDbEntity
  8
54
100
AcDbFace
 62
7
420
15920366
  6
CONTINUOUS
 10
22.1686337351
 20
9.2499273375
 30
0.25
 11
29.8127471567
 21
9.81451107
 31
0.25
 12
22.2281542045
 22
9.586751496
 32
0.25
 13
22.1686337351
 23
9.2499273375
 33
0.25
  0
3DFACE
  5
4D8
100
AcDbEntity
  8
54
100
AcDbFace
 62
7
420
15920366
  6
CONTINUOUS
 10
20.431334402
 20
5.9304004686
 30
0.25
 11
20.6629547512
 21
6.1208927699
 31
0.25
 12
16.6708715315
 22
7.1261987306
 32
0.25
 13
20.431334402
 23
5.9304004686
 33
0.25
  0
3DFACE
  5
4D9
100
AcDbEntity
  8
54
100
AcDbFace
 62
7
420
15920366
  6
CONTINUOUS
 10
16.6708715315
 20
7.1261987306
 30
0.25
 11
20.6629547512
 21
6.1208927699
 31
0.25
 12
21.906609065
 22
9.0301032883
 32
0.25
 13
16.6708715315
 23
7.1261987306
 33
0.25
  0
3DFACE
  5
4DA
100
AcDbEntity
  8
54
100
AcDbFace
 62
7
420
15920366
  6
CONTINUOUS
 10
20.3503647633
 20
5.6416458659
 30
0.25
 11
20.431334402
 21
5.9304004686
 31
0.25
 12
16.6708715315
 22
7.1261987306
 32
0.25
 13
20.3503647633
 23
5.6416458659
 33
0.25
  0
3DFACE
  5
4DB
100
AcDbEntity
  8
54
100
AcDbFace
 62
7
420
15920366
  6
CONTINUOUS
 10
20.4491860196
 20
5.3585033889
 30
0.25
 11
20.3503647633
 21
5.6416458659
 31
0.25
 12
16.6708715315
 22
7.1261987306
 32
0.25
 13
20.4491860196
 23
5.3585033889
 33
0.25
  0
3DFACE
  5
4DC
100
AcDbEntity
  8
54
100
AcDbFace
 62
7
420
15920366
  6
CONTINUOUS
 10
20.6922362035
 20
5.1828278041
 30
0.25
 11
20.4491860196
 21
5.3585033889
 31
0.25
 12
21.736609065
 22
2.9698967117
 32
0.25
 13
20.6922362035
 23
5.1828278041
 33
0.25
  0
3DFACE
  5
4DD
100
AcDbEntity
  8
54
100
AcDbFace
 62
7
420
15920366
  6
CONTINUOUS
 10
21.736609065
 20
2.9698967117
 30
0.25
 11
20.4491860196
 21
5.3585033889
 31
0.25
 12
16.6708715315
 22
7.1261987306
 32
0.25
 13
21.736609065
 23
2.9698967117
 33
0.25
  0
3DFACE
  5
4DE
100
AcDbEntity
  8
54
100
AcDbFace
 62
7
420
15920366
  6
CONTINUOUS
 10
21.9986443636
 20
2.7500542628
 30
0.25
 11
20.6922362035
 21
5.1828278041
 31
0.25
 12
21.736609065
 22
2.9698967117
 32
0.25
 13
21.9986443636
 23
2.7500542628
 33
0.25
  0
3DFACE
  5
4DF
100
AcDbEntity
  8
54
100
AcDbFace
 62
7
420
15920366
  6
CONTINUOUS
 10
16.5008715315
 20
4.8738012694
 30
0.25
 11
21.736609065
 21
2.9698967117
 31
0.25
 12
16.5867511053
 22
7.1036809894
 32
0.25
 13
16.5008715315
 23
4.8738012694
 33
0.25
  0
3DFACE
  5
4E0
100
AcDbEntity
  8
54
100
AcDbFace
 62
7
420
15920366
  6
CONTINUOUS
 10
16.5867511053
 20
7.1036809894
 30
0.25
 11
21.736609065
 21
2.9698967117
 31
0.25
 12
16.6708715315
 22
7.1261987306
 32
0.25
 13
16.5867511053
 23
7.1036809894
 33
0.25
  0
3DFACE
  5
4E1
100
AcDbEntity
  8
54
100
AcDbFace
 62
7
420
15920366
  6
CONTINUOUS
 10
16.4167511053
 20
4.8963190106
 30
0.25
 11
16.5008715315
 21
4.8738012694
 31
0.25
 12
16.5
 22
7.0960954424
 32
0.25
 13
16.4167511053
 23
4.8963190106
 33
0.25
  0
3DFACE
  5
4E2
100
AcDbEntity
  8
54
100
AcDbFace
 62
7
420
15920366
  6
CONTINUOUS
 10
16.5
 20
7.0960954424
 30
0.25
 11
16.5008715315
 21
4.8738012694
 31
0.25
 12
16.5867511053
 22
7.1036809894
 32
0.25
 13
16.5
 23
7.0960954424
 33
0.25
  0
3DFACE
  5
4E3
100
AcDbEntity
  8
54
100
AcDbFace
 62
7
420
15920366
  6
CONTINUOUS
 10
16.33
 20
4.9039045576
 30
0.25
 11
16.4167511053
 21
4.8963190106
 31
0.25
 12
16.4132488947
 22
7.1036809894
 32
0.25
 13
16.33
 23
4.9039045576
 33
0.25
  0
3DFACE
  5
4E4
100
AcDbEntity
  8
54
100
AcDbFace
 62
7
420
15920366
  6
CONTINUOUS
 10
16.4132488947
 20
7.1036809894
 30
0.25
 11
16.4167511053
 21
4.8963190106
 31
0.25
 12
16.5
 22
7.0960954424
 32
0.25
 13
16.4132488947
 23
7.1036809894
 33
0.25
  0
3DFACE
  5
4E5
100
AcDbEntity
  8
54
100
AcDbFace
 62
7
420
15920366
  6
CONTINUOUS
 10
16.2432488947
 20
4.8963190106
 30
0.25
 11
16.33
 21
4.9039045576
 31
0.25
 12
16.3291284685
 22
7.1261987306
 32
0.25
 13
16.2432488947
 23
4.8963190106
 33
0.25
  0
3DFACE
  5
4E6
100
AcDbEntity
  8
54
100
AcDbFace
 62
7
420
15920366
  6
CONTINUOUS
 10
16.3291284685
 20
7.1261987306
 30
0.25
 11
16.33
 21
4.9039045576
 31
0.25
 12
16.4132488947
 22
7.1036809894
 32
0.25
 13
16.3291284685
 23
7.1261987306
 33
0.25
  0
3DFACE
  5
4E7
100
AcDbEntity
  8
54
100
AcDbFace
 62
7
420
15920366
  6
CONTINUOUS
 10
16.1591284685
 20
4.8738012694
 30
0.25
 11
16.2432488947
 21
4.8963190106
 31
0.25
 12
11.093390935
 22
9.0301032883
 32
0.25
 13
16.1591284685
 23
4.8738012694
 33
0.25
  0
3DFACE
  5
4E8
100
AcDbEntity
  8
54
100
AcDbFace
 62
7
420
15920366
  6
CONTINUOUS
 10
16.2432488947
 20
4.8963190106
 30
0.25
 11
16.3291284685
 21
7.1261987306
 31
0.25
 12
11.093390935
 22
9.0301032883
 32
0.25
 13
16.2432488947
 23
4.8963190106
 33
0.25
  0
ENDSEC
  0
SECTION
  2
OBJECTS
  0
DICTIONARY
  5
C
100
AcDbDictionary
280
0
281
1
  3
ACAD_GROUP
350
D
  3
ACAD_MLINESTYLE
350
17
  3
ACAD_LAYOUT
350
1A
  3
ACAD_PLOTSETTINGS
350
19
  3
ACAD_PLOTSTYLENAME
350
E
  0
DICTIONARY
  5
D
102
{ACAD_REACTORS
330
C
102
}
100
AcDbDictionary
280
0
281
1
  0
ACDBDICTIONARYWDFLT
  5
E
102
{ACAD_REACTORS
330
C
102
}
100
AcDbDictionary
281
1
  3
Normal
350
F
100
AcDbDictionaryWithDefault
340
F
  0
DICTIONARY
  5
17
102
{ACAD_REACTORS
330
C
102
}
100
AcDbDictionary
280
0
281
1
  3
Standard
350
18
  0
DICTIONARY
  5
19
102
{ACAD_REACTORS
330
C
102
}
100
AcDbDictionary
281
1
  0
DICTIONARY
  5
1A
102
{ACAD_REACTORS
330
C
102
}
100
AcDbDictionary
281
1
  3
Model
350
4E9
  3
Layout1
350
4EA
  0
ACDBPLACEHOLDER
  5
F
102
{ACAD_REACTORS
330
E
102
}
  0
MLINESTYLE
  5
18
102
{ACAD_REACTORS
330
17
102
}
100
AcDbMlineStyle
  2
STANDARD
 70
0
  3

 62
256
 51
90.0
 52
90.0
 71
2
 49
0.5
 62
256
  6
BYLAYER
 49
-0.5
 62
256
  6
BYLAYER
  0
LAYOUT
  5
4E9
102
{ACAD_REACTORS
330
1A
102
}
100
AcDbPlotSettings
  1

  2
none_device
  4
ANSI_A_(11.00_x_8.50_Inches)
  6

 40
0.0
 41
0.0
 42
0.0
 43
0.0
 44
25400.0
 45
21431.25
 46
0.0
 47
0.0
 48
0.0
 49
0.0
140
0.0
141
0.0
142
1.0
143
1.0
 70
1024
 72
0
 73
0
 74
0
  7

 75
0
147
1.0
148
0.0
149
0.0
100
AcDbLayout
  1
Model
 70
0
 71
0
 10
0.0
 20
0.0
 11
1000.0
 21
843.75
 12
0.0
 22
0.0
 32
0.0
 14
0.0
 24
0.0
 34
0.0
 15
0.0
 25
0.0
 35
0.0
146
0.0
 13
0.0
 23
0.0
 33
0.0
 16
1.0
 26
0.0
 36
0.0
 17
0.0
 27
1.0
 37
0.0
 76
0
330
234
345
0
346
0
  0
LAYOUT
  5
4EA
102
{ACAD_REACTORS
330
1A
102
}
100
AcDbPlotSettings
  1

  2
none_device
  4
ANSI_A_(11.00_x_8.50_Inches)
  6

 40
0.0
 41
0.0
 42
0.0
 43
0.0
 44
25400.0
 45
21431.25
 46
0.0
 47
0.0
 48
0.0
 49
0.0
140
0.0
141
0.0
142
1.0
143
1.0
 70
0
 72
0
 73
0
 74
0
  7

 75
0
147
1.0
148
0.0
149
0.0
100
AcDbLayout
  1
Layout1
 70
0
 71
1
 10
0.0
 20
0.0
 11
1000.0
 21
843.75
 12
0.0
 22
0.0
 32
0.0
 14
0.0
 24
0.0
 34
0.0
 15
0.0
 25
0.0
 35
0.0
146
0.0
 13
0.0
 23
0.0
 33
0.0
 16
1.0
 26
0.0
 36
0.0
 17
0.0
 27
1.0
 37
0.0
 76
0
330
235
345
0
346
0
  0
ENDSEC
  0
EOF
