  0
SECTION
  2
HEADER
  9
$ACADVER
  1
AC1015
  9
$ACADMAINTVER
 70
     6
  9
$DWGCODEPAGE
  3
ANSI_1252
  9
$INSBASE
 10
0.0
 20
0.0
 30
0.0
  9
$EXTMIN
 10
-4.967320841
 20
-5.0499765189
 30
0.0
  9
$EXTMAX
 10
4.9634549111
 20
1.09
 30
0.0
  9
$LIMMIN
 10
0.0
 20
0.0
  9
$LIMMAX
 10
12.0
 20
9.0
  9
$ORTHOMODE
 70
     0
  9
$REGENMODE
 70
     1
  9
$FILLMODE
 70
     1
  9
$QTEXTMODE
 70
     0
  9
$MIRRTEXT
 70
     1
  9
$LTSCALE
 40
1.0
  9
$ATTMODE
 70
     1
  9
$TEXTSIZE
 40
0.125
  9
$TRACEWID
 40
0.05
  9
$TEXTSTYLE
  7
Standard
  9
$CLAYER
  8
0
  9
$CELTYPE
  6
ByLayer
  9
$CECOLOR
 62
   256
  9
$CELTSCALE
 40
1.0
  9
$DISPSILH
 70
     0
  9
$DIMSCALE
 40
1.0
  9
$DIMASZ
 40
0.13
  9
$DIMEXO
 40
0.05
  9
$DIMDLI
 40
0.38
  9
$DIMRND
 40
0.0
  9
$DIMDLE
 40
0.0
  9
$DIMEXE
 40
0.125
  9
$DIMTP
 40
0.0
  9
$DIMTM
 40
0.0
  9
$DIMTXT
 40
0.125
  9
$DIMCEN
 40
0.09
  9
$DIMTSZ
 40
0.0
  9
$DIMTOL
 70
     0
  9
$DIMLIM
 70
     0
  9
$DIMTIH
 70
     1
  9
$DIMTOH
 70
     1
  9
$DIMSE1
 70
     0
  9
$DIMSE2
 70
     0
  9
$DIMTAD
 70
     0
  9
$DIMZIN
 70
     0
  9
$DIMBLK
  1

  9
$DIMASO
 70
     1
  9
$DIMSHO
 70
     1
  9
$DIMPOST
  1

  9
$DIMAPOST
  1

  9
$DIMALT
 70
     0
  9
$DIMALTD
 70
     2
  9
$DIMALTF
 40
25.4
  9
$DIMLFAC
 40
1.0
  9
$DIMTOFL
 70
     0
  9
$DIMTVP
 40
0.0
  9
$DIMTIX
 70
     0
  9
$DIMSOXD
 70
     0
  9
$DIMSAH
 70
     0
  9
$DIMBLK1
  1

  9
$DIMBLK2
  1

  9
$DIMSTYLE
  2
Standard
  9
$DIMCLRD
 70
     0
  9
$DIMCLRE
 70
     0
  9
$DIMCLRT
 70
     0
  9
$DIMTFAC
 40
1.0
  9
$DIMGAP
 40
0.06
  9
$DIMJUST
 70
     0
  9
$DIMSD1
 70
     0
  9
$DIMSD2
 70
     0
  9
$DIMTOLJ
 70
     1
  9
$DIMTZIN
 70
     0
  9
$DIMALTZ
 70
     0
  9
$DIMALTTZ
 70
     0
  9
$DIMUPT
 70
     0
  9
$DIMDEC
 70
     3
  9
$DIMTDEC
 70
     3
  9
$DIMALTU
 70
     2
  9
$DIMALTTD
 70
     2
  9
$DIMTXSTY
  7
Standard
  9
$DIMAUNIT
 70
     0
  9
$DIMADEC
 70
     2
  9
$DIMALTRND
 40
0.0
  9
$DIMAZIN
 70
     0
  9
$DIMDSEP
 70
    46
  9
$DIMATFIT
 70
     3
  9
$DIMFRAC
 70
     0
  9
$DIMLDRBLK
  1

  9
$DIMLUNIT
 70
     2
  9
$DIMLWD
 70
    -2
  9
$DIMLWE
 70
    -2
  9
$DIMTMOVE
 70
     0
  9
$LUNITS
 70
     2
  9
$LUPREC
 70
     2
  9
$SKETCHINC
 40
0.1
  9
$FILLETRAD
 40
0.5
  9
$AUNITS
 70
     0
  9
$AUPREC
 70
     2
  9
$MENU
  1
.
  9
$ELEVATION
 40
0.0
  9
$PELEVATION
 40
0.0
  9
$THICKNESS
 40
0.0
  9
$LIMCHECK
 70
     0
  9
$CHAMFERA
 40
0.5
  9
$CHAMFERB
 40
0.5
  9
$CHAMFERC
 40
1.0
  9
$CHAMFERD
 40
0.0
  9
$SKPOLY
 70
     0
  9
$TDCREATE
 40
2456787.609082292
  9
$TDUCREATE
 40
2456787.859082292
  9
$TDUPDATE
 40
2456787.609082303
  9
$TDUUPDATE
 40
2456787.859082303
  9
$TDINDWG
 40
0.0000000116
  9
$TDUSRTIMER
 40
0.0000000116
  9
$USRTIMER
 70
     1
  9
$ANGBASE
 50
0.0
  9
$ANGDIR
 70
     0
  9
$PDMODE
 70
     0
  9
$PDSIZE
 40
-1.0
  9
$PLINEWID
 40
0.0
  9
$SPLFRAME
 70
     0
  9
$SPLINETYPE
 70
     6
  9
$SPLINESEGS
 70
     8
  9
$HANDSEED
  5
73F
  9
$SURFTAB1
 70
     6
  9
$SURFTAB2
 70
     6
  9
$SURFTYPE
 70
     6
  9
$SURFU
 70
     6
  9
$SURFV
 70
     6
  9
$UCSBASE
  2

  9
$UCSNAME
  2

  9
$UCSORG
 10
0.0
 20
0.0
 30
0.0
  9
$UCSXDIR
 10
1.0
 20
0.0
 30
0.0
  9
$UCSYDIR
 10
0.0
 20
1.0
 30
0.0
  9
$UCSORTHOREF
  2

  9
$UCSORTHOVIEW
 70
     0
  9
$UCSORGTOP
 10
0.0
 20
0.0
 30
0.0
  9
$UCSORGBOTTOM
 10
0.0
 20
0.0
 30
0.0
  9
$UCSORGLEFT
 10
0.0
 20
0.0
 30
0.0
  9
$UCSORGRIGHT
 10
0.0
 20
0.0
 30
0.0
  9
$UCSORGFRONT
 10
0.0
 20
0.0
 30
0.0
  9
$UCSORGBACK
 10
0.0
 20
0.0
 30
0.0
  9
$PUCSBASE
  2

  9
$PUCSNAME
  2

  9
$PUCSORG
 10
0.0
 20
0.0
 30
0.0
  9
$PUCSXDIR
 10
1.0
 20
0.0
 30
0.0
  9
$PUCSYDIR
 10
0.0
 20
1.0
 30
0.0
  9
$PUCSORTHOREF
  2

  9
$PUCSORTHOVIEW
 70
     0
  9
$PUCSORGTOP
 10
0.0
 20
0.0
 30
0.0
  9
$PUCSORGBOTTOM
 10
0.0
 20
0.0
 30
0.0
  9
$PUCSORGLEFT
 10
0.0
 20
0.0
 30
0.0
  9
$PUCSORGRIGHT
 10
0.0
 20
0.0
 30
0.0
  9
$PUCSORGFRONT
 10
0.0
 20
0.0
 30
0.0
  9
$PUCSORGBACK
 10
0.0
 20
0.0
 30
0.0
  9
$USERI1
 70
     0
  9
$USERI2
 70
     0
  9
$USERI3
 70
     0
  9
$USERI4
 70
     0
  9
$USERI5
 70
     0
  9
$USERR1
 40
0.0
  9
$USERR2
 40
0.0
  9
$USERR3
 40
0.0
  9
$USERR4
 40
0.0
  9
$USERR5
 40
0.0
  9
$WORLDVIEW
 70
     1
  9
$SHADEDGE
 70
     3
  9
$SHADEDIF
 70
    70
  9
$TILEMODE
 70
     1
  9
$MAXACTVP
 70
    64
  9
$PINSBASE
 10
0.0
 20
0.0
 30
0.0
  9
$PLIMCHECK
 70
     0
  9
$PEXTMIN
 10
1.0000000000E+20
 20
1.0000000000E+20
 30
1.0000000000E+20
  9
$PEXTMAX
 10
-1.0000000000E+20
 20
-1.0000000000E+20
 30
-1.0000000000E+20
  9
$PLIMMIN
 10
0.0
 20
0.0
  9
$PLIMMAX
 10
12.0
 20
9.0
  9
$UNITMODE
 70
     0
  9
$VISRETAIN
 70
     1
  9
$PLINEGEN
 70
     0
  9
$PSLTSCALE
 70
     1
  9
$TREEDEPTH
 70
  3020
  9
$CMLSTYLE
  2
Standard
  9
$CMLJUST
 70
     0
  9
$CMLSCALE
 40
1.0
  9
$PROXYGRAPHICS
 70
     1
  9
$MEASUREMENT
 70
     0
  9
$CELWEIGHT
370
    -1
  9
$ENDCAPS
280
     0
  9
$JOINSTYLE
280
     0
  9
$LWDISPLAY
290
     1
  9
$INSUNITS
 70
     1
  9
$HYPERLINKBASE
  1

  9
$STYLESHEET
  1

  9
$XEDIT
290
     1
  9
$CEPSNTYPE
380
     0
  9
$PSTYLEMODE
290
     1
  9
$FINGERPRINTGUID
  2
{0C71834E-2EAC-4B60-8750-AC728E068AA4}
  9
$VERSIONGUID
  2
{FAEB1C32-E019-11D5-929B-00C0DF256EC4}
  9
$EXTNAMES
290
     1
  9
$PSVPSCALE
 40
0.0
  9
$OLESTARTUP
290
     0
  0
ENDSEC
  0
SECTION
  2
CLASSES
  0
CLASS
  1
ACDBDICTIONARYWDFLT
  2
AcDbDictionaryWithDefault
  3
ObjectDBX Classes
 90
        0
280
     0
281
     0
  0
CLASS
  1
VISUALSTYLE
  2
AcDbVisualStyle
  3
ObjectDBX Classes
 90
     4095
280
     0
281
     0
  0
CLASS
  1
MATERIAL
  2
AcDbMaterial
  3
ObjectDBX Classes
 90
     1153
280
     0
281
     0
  0
CLASS
  1
ACDBPLACEHOLDER
  2
AcDbPlaceHolder
  3
ObjectDBX Classes
 90
        0
280
     0
281
     0
  0
CLASS
  1
LAYOUT
  2
AcDbLayout
  3
ObjectDBX Classes
 90
        0
280
     0
281
     0
  0
ENDSEC
  0
SECTION
  2
TABLES
  0
TABLE
  2
VPORT
  5
8
330
0
100
AcDbSymbolTable
 70
     1
  0
VPORT
  5
29
330
8
100
AcDbSymbolTableRecord
100
AcDbViewportTableRecord
  2
*Active
 70
     0
 10
0.0
 20
0.0
 11
1.0
 21
1.0
 12
-0.001932965
 22
-1.9799882595
 13
0.0
 23
0.0
 14
0.5
 24
0.5
 15
0.5
 25
0.5
 16
0.0
 26
0.0
 36
1.0
 17
0.0
 27
0.0
 37
0.0
 40
6.2627760493
 41
1.617396373
 42
50.0
 43
0.0
 44
0.0
 50
0.0
 51
0.0
 71
     0
 72
   100
 73
     1
 74
     3
 75
     0
 76
     0
 77
     0
 78
     0
281
     0
 65
     1
110
0.0
120
0.0
130
0.0
111
1.0
121
0.0
131
0.0
112
0.0
122
1.0
132
0.0
 79
     0
146
0.0
  0
ENDTAB
  0
TABLE
  2
LTYPE
  5
5
330
0
100
AcDbSymbolTable
 70
     6
  0
LTYPE
  5
14
330
5
100
AcDbSymbolTableRecord
100
AcDbLinetypeTableRecord
  2
ByBlock
 70
     0
  3

 72
    65
 73
     0
 40
0.0
  0
LTYPE
  5
15
330
5
100
AcDbSymbolTableRecord
100
AcDbLinetypeTableRecord
  2
ByLayer
 70
     0
  3

 72
    65
 73
     0
 40
0.0
  0
LTYPE
  5
16
330
5
100
AcDbSymbolTableRecord
100
AcDbLinetypeTableRecord
  2
Continuous
 70
     0
  3
Solid line
 72
    65
 73
     0
 40
0.0
  0
LTYPE
  5
3F
330
5
100
AcDbSymbolTableRecord
100
AcDbLinetypeTableRecord
  2
HIDDEN
 70
     0
  3
Hidden __ __ __ __ __ __ __ __ __ __ __ __ __ __
 72
    65
 73
     2
 40
0.075
 49
0.05
 74
     0
 49
-0.025
 74
     0
  0
LTYPE
  5
40
330
5
100
AcDbSymbolTableRecord
100
AcDbLinetypeTableRecord
  2
PHANTOM
 70
     0
  3
Phantom ______  __  __  ______  __  __  ______
 72
    65
 73
     6
 40
0.5
 49
0.25
 74
     0
 49
-0.05
 74
     0
 49
0.05
 74
     0
 49
-0.05
 74
     0
 49
0.05
 74
     0
 49
-0.05
 74
     0
  0
LTYPE
  5
41
330
5
100
AcDbSymbolTableRecord
100
AcDbLinetypeTableRecord
  2
CENTER
 70
     0
  3
Center ____ _ ____ _ ____ _ ____ _ ____ _ ____
 72
    65
 73
     4
 40
0.4
 49
0.25
 74
     0
 49
-0.05
 74
     0
 49
0.05
 74
     0
 49
-0.05
 74
     0
  0
LTYPE
  5
42
330
5
100
AcDbSymbolTableRecord
100
AcDbLinetypeTableRecord
  2
CENTERX2
 70
     0
  3
Center (2x) ________  __  ________  __  _____
 72
    65
 73
     4
 40
0.8
 49
0.5
 74
     0
 49
-0.1
 74
     0
 49
0.1
 74
     0
 49
-0.1
 74
     0
  0
LTYPE
  5
43
330
5
100
AcDbSymbolTableRecord
100
AcDbLinetypeTableRecord
  2
DOT2
 70
     0
  3
Dot (.5x) ........................................
 72
    65
 73
     2
 40
0.025
 49
0.0
 74
     0
 49
-0.025
 74
     0
  0
ENDTAB
  0
TABLE
  2
LAYER
  5
2
330
0
100
AcDbSymbolTable
 70
     1
  0
LAYER
  5
10
330
2
100
AcDbSymbolTableRecord
100
AcDbLayerTableRecord
  2
0
 70
     0
 62
     7
  6
Continuous
370
    -3
390
F
  0
ENDTAB
  0
TABLE
  2
STYLE
  5
3
330
0
100
AcDbSymbolTable
 70
     1
  0
STYLE
  5
11
330
3
100
AcDbSymbolTableRecord
100
AcDbTextStyleTableRecord
  2
Standard
 70
     0
 40
0.0
 41
1.0
 50
0.0
 71
     0
 42
0.2
  3
txt
  4

  0
ENDTAB
  0
TABLE
  2
VIEW
  5
6
330
0
100
AcDbSymbolTable
 70
     0
  0
ENDTAB
  0
TABLE
  2
UCS
  5
7
330
0
100
AcDbSymbolTable
 70
     0
  0
ENDTAB
  0
TABLE
  2
APPID
  5
9
330
0
100
AcDbSymbolTable
 70
     1
  0
APPID
  5
12
330
9
100
AcDbSymbolTableRecord
100
AcDbRegAppTableRecord
  2
ACAD
 70
     0
  0
ENDTAB
  0
TABLE
  2
DIMSTYLE
  5
A
330
0
100
AcDbSymbolTable
 70
     1
100
AcDbDimStyleTable
  0
DIMSTYLE
105
27
330
A
100
AcDbSymbolTableRecord
100
AcDbDimStyleTableRecord
  2
Standard
 70
     0
178
     0
340
11
  0
ENDTAB
  0
TABLE
  2
BLOCK_RECORD
  5
1
330
0
100
AcDbSymbolTable
 70
     1
  0
BLOCK_RECORD
  5
1F
330
1
100
AcDbSymbolTableRecord
100
AcDbBlockTableRecord
  2
*Model_Space
340
22
  0
BLOCK_RECORD
  5
1B
330
1
100
AcDbSymbolTableRecord
100
AcDbBlockTableRecord
  2
*Paper_Space
340
1E
  0
BLOCK_RECORD
  5
23
330
1
100
AcDbSymbolTableRecord
100
AcDbBlockTableRecord
  2
*Paper_Space0
340
26
  0
ENDTAB
  0
ENDSEC
  0
SECTION
  2
BLOCKS
  0
BLOCK
  5
20
330
1F
100
AcDbEntity
  8
0
100
AcDbBlockBegin
  2
*Model_Space
 70
     0
 10
0.0
 20
0.0
 30
0.0
  3
*Model_Space
  1

  0
ENDBLK
  5
21
330
1F
100
AcDbEntity
  8
0
100
AcDbBlockEnd
  0
BLOCK
  5
1C
330
1B
100
AcDbEntity
 67
     1
  8
0
100
AcDbBlockBegin
  2
*Paper_Space
 70
     0
 10
0.0
 20
0.0
 30
0.0
  3
*Paper_Space
  1

  0
ENDBLK
  5
1D
330
1B
100
AcDbEntity
 67
     1
  8
0
100
AcDbBlockEnd
  0
BLOCK
  5
24
330
23
100
AcDbEntity
  8
0
100
AcDbBlockBegin
  2
*Paper_Space0
 70
     0
 10
0.0
 20
0.0
 30
0.0
  3
*Paper_Space0
  1

  0
ENDBLK
  5
25
330
23
100
AcDbEntity
  8
0
100
AcDbBlockEnd
  0
ENDSEC
  0
SECTION
  2
ENTITIES
  0
CIRCLE
  5
44
330
1F
100
AcDbEntity
  8
0
  6
Continuous
 62
     7
370
    15
100
AcDbCircle
 10
-3.5
 20
0.0
 30
0.0
 40
0.1249999999999993
  0
CIRCLE
  5
45
330
1F
100
AcDbEntity
  8
0
  6
Continuous
 62
     7
370
    15
100
AcDbCircle
 10
3.5
 20
0.0
 30
0.0
 40
0.1250000000000004
  0
CIRCLE
  5
46
330
1F
100
AcDbEntity
  8
0
  6
Continuous
 62
     7
370
    15
100
AcDbCircle
 10
0.0
 20
0.0
 30
0.0
 40
0.0624999999999999
  0
LINE
  5
3C3
330
1F
100
AcDbEntity
  8
0
  6
Continuous
 62
     7
370
    15
100
AcDbLine
 10
-4.94011644
 20
-0.9197143903
 30
0.0
 11
-4.9140425708
 21
-0.9231389993
 31
0.0
  0
LINE
  5
3C4
330
1F
100
AcDbEntity
  8
0
  6
Continuous
 62
     7
370
    15
100
AcDbLine
 10
-4.9661046274
 20
-0.9166814223
 30
0.0
 11
-4.94011644
 21
-0.9197143903
 31
0.0
  0
LINE
  5
3C5
330
1F
100
AcDbEntity
  8
0
  6
Continuous
 62
     7
370
    15
100
AcDbLine
 10
-4.967320841
 20
-0.91
 30
0.0
 11
-4.9661046274
 21
-0.9166814223
 31
0.0
  0
LINE
  5
3C6
330
1F
100
AcDbEntity
  8
0
  6
Continuous
 62
     7
370
    15
100
AcDbLine
 10
-4.9164926523
 20
-0.91
 30
0.0
 11
-4.967320841
 21
-0.91
 31
0.0
  0
LINE
  5
3C7
330
1F
100
AcDbEntity
  8
0
  6
Continuous
 62
     7
370
    15
100
AcDbLine
 10
-4.9164926523
 20
-0.91
 30
0.0
 11
-4.9164926523
 21
1.09
 31
0.0
  0
LINE
  5
3C8
330
1F
100
AcDbEntity
  8
0
  6
Continuous
 62
     7
370
    15
100
AcDbLine
 10
-4.9164926523
 20
1.09
 30
0.0
 11
4.9164926523
 21
1.09
 31
0.0
  0
LINE
  5
3C9
330
1F
100
AcDbEntity
  8
0
  6
Continuous
 62
     7
370
    15
100
AcDbLine
 10
4.9164926523
 20
1.09
 30
0.0
 11
4.9164926523
 21
-0.91
 31
0.0
  0
LINE
  5
3CA
330
1F
100
AcDbEntity
  8
0
  6
Continuous
 62
     7
370
    15
100
AcDbLine
 10
4.9242348432
 20
-0.91
 30
0.0
 11
4.9164926523
 21
-0.91
 31
0.0
  0
LINE
  5
3CB
330
1F
100
AcDbEntity
  8
0
  6
Continuous
 62
     7
370
    15
100
AcDbLine
 10
4.9402969763
 20
-0.9187441355
 30
0.0
 11
4.9242348432
 21
-0.91
 31
0.0
  0
LINE
  5
3CC
330
1F
100
AcDbEntity
  8
0
  6
Continuous
 62
     7
370
    15
100
AcDbLine
 10
4.9634549111
 20
-0.9309217721
 30
0.0
 11
4.9402969763
 21
-0.9187441355
 31
0.0
  0
LINE
  5
3CD
330
1F
100
AcDbEntity
  8
0
  6
Continuous
 62
     7
370
    15
100
AcDbLine
 10
4.9587855087
 20
-0.9554822232
 30
0.0
 11
4.9634549111
 21
-0.9309217721
 31
0.0
  0
LINE
  5
3CE
330
1F
100
AcDbEntity
  8
0
  6
Continuous
 62
     7
370
    15
100
AcDbLine
 10
4.9328271276
 20
-0.958040463
 30
0.0
 11
4.9587855087
 21
-0.9554822232
 31
0.0
  0
LINE
  5
3CF
330
1F
100
AcDbEntity
  8
0
  6
Continuous
 62
     7
370
    15
100
AcDbLine
 10
4.9067809038
 20
-0.9609896786
 30
0.0
 11
4.9328271276
 21
-0.958040463
 31
0.0
  0
LINE
  5
3D0
330
1F
100
AcDbEntity
  8
0
  6
Continuous
 62
     7
370
    15
100
AcDbLine
 10
4.8992276943
 20
-0.9987832595
 30
0.0
 11
4.9067809038
 21
-0.9609896786
 31
0.0
  0
LINE
  5
3D1
330
1F
100
AcDbEntity
  8
0
  6
Continuous
 62
     7
370
    15
100
AcDbLine
 10
4.9220833608
 20
-1.0117906846
 30
0.0
 11
4.8992276943
 21
-0.9987832595
 31
0.0
  0
LINE
  5
3D2
330
1F
100
AcDbEntity
  8
0
  6
Continuous
 62
     7
370
    15
100
AcDbLine
 10
4.9450074142
 20
-1.0244030814
 30
0.0
 11
4.9220833608
 21
-1.0117906846
 31
0.0
  0
LINE
  5
3D3
330
1F
100
AcDbEntity
  8
0
  6
Continuous
 62
     7
370
    15
100
AcDbLine
 10
4.9398754535
 20
-1.0488710616
 30
0.0
 11
4.9450074142
 21
-1.0244030814
 31
0.0
  0
LINE
  5
3D4
330
1F
100
AcDbEntity
  8
0
  6
Continuous
 62
     7
370
    15
100
AcDbLine
 10
4.913873426
 20
-1.0509390814
 30
0.0
 11
4.9398754535
 21
-1.0488710616
 31
0.0
  0
LINE
  5
3D5
330
1F
100
AcDbEntity
  8
0
  6
Continuous
 62
     7
370
    15
100
AcDbLine
 10
4.8877761947
 20
-1.05339635
 30
0.0
 11
4.913873426
 21
-1.0509390814
 31
0.0
  0
LINE
  5
3D6
330
1F
100
AcDbEntity
  8
0
  6
Continuous
 62
     7
370
    15
100
AcDbLine
 10
4.8795112667
 20
-1.0910406948
 30
0.0
 11
4.8877761947
 21
-1.05339635
 31
0.0
  0
LINE
  5
3D7
330
1F
100
AcDbEntity
  8
0
  6
Continuous
 62
     7
370
    15
100
AcDbLine
 10
4.9021174498
 20
-1.1044770293
 30
0.0
 11
4.8795112667
 21
-1.0910406948
 31
0.0
  0
LINE
  5
3D8
330
1F
100
AcDbEntity
  8
0
  6
Continuous
 62
     7
370
    15
100
AcDbLine
 10
4.9247994608
 20
-1.1175196962
 30
0.0
 11
4.9021174498
 21
-1.1044770293
 31
0.0
  0
LINE
  5
3D9
330
1F
100
AcDbEntity
  8
0
  6
Continuous
 62
     7
370
    15
100
AcDbLine
 10
4.9192067687
 20
-1.1418864948
 30
0.0
 11
4.9247994608
 21
-1.1175196962
 31
0.0
  0
LINE
  5
3DA
330
1F
100
AcDbEntity
  8
0
  6
Continuous
 62
     7
370
    15
100
AcDbLine
 10
4.8931703517
 20
-1.1434635582
 30
0.0
 11
4.9192067687
 21
-1.1418864948
 31
0.0
  0
LINE
  5
3DB
330
1F
100
AcDbEntity
  8
0
  6
Continuous
 62
     7
370
    15
100
AcDbLine
 10
4.8670314038
 20
-1.145428005
 30
0.0
 11
4.8931703517
 21
-1.1434635582
 31
0.0
  0
LINE
  5
3DC
330
1F
100
AcDbEntity
  8
0
  6
Continuous
 62
     7
370
    15
100
AcDbLine
 10
4.8580576996
 20
-1.1829097121
 30
0.0
 11
4.8670314038
 21
-1.145428005
 31
0.0
  0
LINE
  5
3DD
330
1F
100
AcDbEntity
  8
0
  6
Continuous
 62
     7
370
    15
100
AcDbLine
 10
4.8804063513
 20
-1.1967701726
 30
0.0
 11
4.8580576996
 21
-1.1829097121
 31
0.0
  0
LINE
  5
3DE
330
1F
100
AcDbEntity
  8
0
  6
Continuous
 62
     7
370
    15
100
AcDbLine
 10
4.9028382448
 20
-1.2102384663
 30
0.0
 11
4.8804063513
 21
-1.1967701726
 31
0.0
  0
LINE
  5
3DF
330
1F
100
AcDbEntity
  8
0
  6
Continuous
 62
     7
370
    15
100
AcDbLine
 10
4.8967868124
 20
-1.2344954085
 30
0.0
 11
4.9028382448
 21
-1.2102384663
 31
0.0
  0
LINE
  5
3E0
330
1F
100
AcDbEntity
  8
0
  6
Continuous
 62
     7
370
    15
100
AcDbLine
 10
4.8707252751
 20
-1.2355809542
 30
0.0
 11
4.8967868124
 21
-1.2344954085
 31
0.0
  0
LINE
  5
3E1
330
1F
100
AcDbEntity
  8
0
  6
Continuous
 62
     7
370
    15
100
AcDbLine
 10
4.8445539162
 20
-1.2370518798
 30
0.0
 11
4.8707252751
 21
-1.2355809542
 31
0.0
  0
LINE
  5
3E2
330
1F
100
AcDbEntity
  8
0
  6
Continuous
 62
     7
370
    15
100
AcDbLine
 10
4.8348746306
 20
-1.2743576054
 30
0.0
 11
4.8445539162
 21
-1.2370518798
 31
0.0
  0
LINE
  5
3E3
330
1F
100
AcDbEntity
  8
0
  6
Continuous
 62
     7
370
    15
100
AcDbLine
 10
4.8569577946
 20
-1.2886372575
 30
0.0
 11
4.8348746306
 21
-1.2743576054
 31
0.0
  0
LINE
  5
3E4
330
1F
100
AcDbEntity
  8
0
  6
Continuous
 62
     7
370
    15
100
AcDbLine
 10
4.8791315847
 20
-1.3025263831
 30
0.0
 11
4.8569577946
 21
-1.2886372575
 31
0.0
  0
LINE
  5
3E5
330
1F
100
AcDbEntity
  8
0
  6
Continuous
 62
     7
370
    15
100
AcDbLine
 10
4.8726235664
 20
-1.3266648333
 30
0.0
 11
4.8791315847
 21
-1.3025263831
 31
0.0
  0
LINE
  5
3E6
330
1F
100
AcDbEntity
  8
0
  6
Continuous
 62
     7
370
    15
100
AcDbLine
 10
4.8465461868
 20
-1.3272584748
 30
0.0
 11
4.8726235664
 21
-1.3266648333
 31
0.0
  0
LINE
  5
3E7
330
1F
100
AcDbEntity
  8
0
  6
Continuous
 62
     7
370
    15
100
AcDbLine
 10
4.8203517341
 20
-1.3282353556
 30
0.0
 11
4.8465461868
 21
-1.3272584748
 31
0.0
  0
LINE
  5
3E8
330
1F
100
AcDbEntity
  8
0
  6
Continuous
 62
     7
370
    15
100
AcDbLine
 10
4.809970313
 20
-1.3653518186
 30
0.0
 11
4.8203517341
 21
-1.3282353556
 31
0.0
  0
LINE
  5
3E9
330
1F
100
AcDbEntity
  8
0
  6
Continuous
 62
     7
370
    15
100
AcDbLine
 10
4.8317801275
 20
-1.3800455787
 30
0.0
 11
4.809970313
 21
-1.3653518186
 31
0.0
  0
LINE
  5
3EA
330
1F
100
AcDbEntity
  8
0
  6
Continuous
 62
     7
370
    15
100
AcDbLine
 10
4.8536879203
 20
-1.3943505917
 30
0.0
 11
4.8317801275
 21
-1.3800455787
 31
0.0
  0
LINE
  5
3EB
330
1F
100
AcDbEntity
  8
0
  6
Continuous
 62
     7
370
    15
100
AcDbLine
 10
4.8467256329
 20
-1.4183619563
 30
0.0
 11
4.8536879203
 21
-1.3943505917
 31
0.0
  0
LINE
  5
3EC
330
1F
100
AcDbEntity
  8
0
  6
Continuous
 62
     7
370
    15
100
AcDbLine
 10
4.8206416948
 20
-1.4184634823
 30
0.0
 11
4.8467256329
 21
-1.4183619563
 31
0.0
  0
LINE
  5
3ED
330
1F
100
AcDbEntity
  8
0
  6
Continuous
 62
     7
370
    15
100
AcDbLine
 10
4.7944334736
 20
-1.4189459704
 30
0.0
 11
4.8206416948
 21
-1.4184634823
 31
0.0
  0
LINE
  5
3EE
330
1F
100
AcDbEntity
  8
0
  6
Continuous
 62
     7
370
    15
100
AcDbLine
 10
4.7833536128
 20
-1.4558599572
 30
0.0
 11
4.7944334736
 21
-1.4189459704
 31
0.0
  0
LINE
  5
3EF
330
1F
100
AcDbEntity
  8
0
  6
Continuous
 62
     7
370
    15
100
AcDbLine
 10
4.8048823135
 20
-1.4709625942
 30
0.0
 11
4.7833536128
 21
-1.4558599572
 31
0.0
  0
LINE
  5
3F0
330
1F
100
AcDbEntity
  8
0
  6
Continuous
 62
     7
370
    15
100
AcDbLine
 10
4.8265163096
 20
-1.4856784018
 30
0.0
 11
4.8048823135
 21
-1.4709625942
 31
0.0
  0
LINE
  5
3F1
330
1F
100
AcDbEntity
  8
0
  6
Continuous
 62
     7
370
    15
100
AcDbLine
 10
4.8191022318
 20
-1.5095541327
 30
0.0
 11
4.8265163096
 21
-1.4856784018
 31
0.0
  0
LINE
  5
3F2
330
1F
100
AcDbEntity
  8
0
  6
Continuous
 62
     7
370
    15
100
AcDbLine
 10
4.7930210211
 20
-1.509163507
 30
0.0
 11
4.8191022318
 21
-1.5095541327
 31
0.0
  0
LINE
  5
3F3
330
1F
100
AcDbEntity
  8
0
  6
Continuous
 62
     7
370
    15
100
AcDbLine
 10
4.7668083619
 20
-1.5091514308
 30
0.0
 11
4.7930210211
 21
-1.509163507
 31
0.0
  0
LINE
  5
3F4
330
1F
100
AcDbEntity
  8
0
  6
Continuous
 62
     7
370
    15
100
AcDbLine
 10
4.7550340059
 20
-1.5458497996
 30
0.0
 11
4.7668083619
 21
-1.5091514308
 31
0.0
  0
LINE
  5
3F5
330
1F
100
AcDbEntity
  8
0
  6
Continuous
 62
     7
370
    15
100
AcDbLine
 10
4.7762739283
 20
-1.5613559368
 30
0.0
 11
4.7550340059
 21
-1.5458497996
 31
0.0
  0
LINE
  5
3F6
330
1F
100
AcDbEntity
  8
0
  6
Continuous
 62
     7
370
    15
100
AcDbLine
 10
4.7976264259
 20
-1.5764773002
 30
0.0
 11
4.7762739283
 21
-1.5613559368
 31
0.0
  0
LINE
  5
3F7
330
1F
100
AcDbEntity
  8
0
  6
Continuous
 62
     7
370
    15
100
AcDbLine
 10
4.7897631971
 20
-1.6002088975
 30
0.0
 11
4.7976264259
 21
-1.5764773002
 31
0.0
  0
LINE
  5
3F8
330
1F
100
AcDbEntity
  8
0
  6
Continuous
 62
     7
370
    15
100
AcDbLine
 10
4.7636939991
 20
-1.5993262592
 30
0.0
 11
4.7897631971
 21
-1.6002088975
 31
0.0
  0
LINE
  5
3F9
330
1F
100
AcDbEntity
  8
0
  6
Continuous
 62
     7
370
    15
100
AcDbLine
 10
4.7374862336
 20
-1.5988196229
 30
0.0
 11
4.7636939991
 21
-1.5993262592
 31
0.0
  0
LINE
  5
3FA
330
1F
100
AcDbEntity
  8
0
  6
Continuous
 62
     7
370
    15
100
AcDbLine
 10
4.7250215742
 20
-1.6352893089
 30
0.0
 11
4.7374862336
 21
-1.5988196229
 31
0.0
  0
LINE
  5
3FB
330
1F
100
AcDbEntity
  8
0
  6
Continuous
 62
     7
370
    15
100
AcDbLine
 10
4.7459651568
 20
-1.6511934261
 30
0.0
 11
4.7250215742
 21
-1.6352893089
 31
0.0
  0
LINE
  5
3FC
330
1F
100
AcDbEntity
  8
0
  6
Continuous
 62
     7
370
    15
100
AcDbLine
 10
4.7670285541
 20
-1.6667149618
 30
0.0
 11
4.7459651568
 21
-1.6511934261
 31
0.0
  0
LINE
  5
3FD
330
1F
100
AcDbEntity
  8
0
  6
Continuous
 62
     7
370
    15
100
AcDbLine
 10
4.7587189738
 20
-1.6902939769
 30
0.0
 11
4.7670285541
 21
-1.6667149618
 31
0.0
  0
LINE
  5
3FE
330
1F
100
AcDbEntity
  8
0
  6
Continuous
 62
     7
370
    15
100
AcDbLine
 10
4.7326710692
 20
-1.6889196402
 30
0.0
 11
4.7587189738
 21
-1.6902939769
 31
0.0
  0
LINE
  5
3FF
330
1F
100
AcDbEntity
  8
0
  6
Continuous
 62
     7
370
    15
100
AcDbLine
 10
4.7064775276
 20
-1.6879186241
 30
0.0
 11
4.7326710692
 21
-1.6889196402
 31
0.0
  0
LINE
  5
400
330
1F
100
AcDbEntity
  8
0
  6
Continuous
 62
     7
370
    15
100
AcDbLine
 10
4.6933270023
 20
-1.7241466439
 30
0.0
 11
4.7064775276
 21
-1.6879186241
 31
0.0
  0
LINE
  5
401
330
1F
100
AcDbEntity
  8
0
  6
Continuous
 62
     7
370
    15
100
AcDbLine
 10
4.7139667891
 20
-1.7404430791
 30
0.0
 11
4.6933270023
 21
-1.7241466439
 31
0.0
  0
LINE
  5
402
330
1F
100
AcDbEntity
  8
0
  6
Continuous
 62
     7
370
    15
100
AcDbLine
 10
4.7347335875
 20
-1.7563592615
 30
0.0
 11
4.7139667891
 21
-1.7404430791
 31
0.0
  0
LINE
  5
403
330
1F
100
AcDbEntity
  8
0
  6
Continuous
 62
     7
370
    15
100
AcDbLine
 10
4.7259806138
 20
-1.7797773
 30
0.0
 11
4.7347335875
 21
-1.7563592615
 31
0.0
  0
LINE
  5
404
330
1F
100
AcDbEntity
  8
0
  6
Continuous
 62
     7
370
    15
100
AcDbLine
 10
4.6999632758
 20
-1.7779117542
 30
0.0
 11
4.7259806138
 21
-1.7797773
 31
0.0
  0
LINE
  5
405
330
1F
100
AcDbEntity
  8
0
  6
Continuous
 62
     7
370
    15
100
AcDbLine
 10
4.6737932833
 20
-1.7764167148
 30
0.0
 11
4.6999632758
 21
-1.7779117542
 31
0.0
  0
LINE
  5
406
330
1F
100
AcDbEntity
  8
0
  6
Continuous
 62
     7
370
    15
100
AcDbLine
 10
4.6599615737
 20
-1.8123901709
 30
0.0
 11
4.6737932833
 21
-1.7764167148
 31
0.0
  0
LINE
  5
407
330
1F
100
AcDbEntity
  8
0
  6
Continuous
 62
     7
370
    15
100
AcDbLine
 10
4.6802902168
 20
-1.8290731224
 30
0.0
 11
4.6599615737
 21
-1.8123901709
 31
0.0
  0
LINE
  5
408
330
1F
100
AcDbEntity
  8
0
  6
Continuous
 62
     7
370
    15
100
AcDbLine
 10
4.7007530232
 20
-1.8453782852
 30
0.0
 11
4.6802902168
 21
-1.8290731224
 31
0.0
  0
LINE
  5
409
330
1F
100
AcDbEntity
  8
0
  6
Continuous
 62
     7
370
    15
100
AcDbLine
 10
4.6915597723
 20
-1.8686270102
 30
0.0
 11
4.7007530232
 21
-1.8453782852
 31
0.0
  0
LINE
  5
40A
330
1F
100
AcDbEntity
  8
0
  6
Continuous
 62
     7
370
    15
100
AcDbLine
 10
4.6655822633
 20
-1.8662709194
 30
0.0
 11
4.6915597723
 21
-1.8686270102
 31
0.0
  0
LINE
  5
40B
330
1F
100
AcDbEntity
  8
0
  6
Continuous
 62
     7
370
    15
100
AcDbLine
 10
4.6394451365
 20
-1.8642823889
 30
0.0
 11
4.6655822633
 21
-1.8662709194
 31
0.0
  0
LINE
  5
40C
330
1F
100
AcDbEntity
  8
0
  6
Continuous
 62
     7
370
    15
100
AcDbLine
 10
4.6249371668
 20
-1.8999884745
 30
0.0
 11
4.6394451365
 21
-1.8642823889
 31
0.0
  0
LINE
  5
40D
330
1F
100
AcDbEntity
  8
0
  6
Continuous
 62
     7
370
    15
100
AcDbLine
 10
4.6449474289
 20
-1.9170520031
 30
0.0
 11
4.6249371668
 21
-1.8999884745
 31
0.0
  0
LINE
  5
40E
330
1F
100
AcDbEntity
  8
0
  6
Continuous
 62
     7
370
    15
100
AcDbLine
 10
4.6650989584
 20
-1.9337403415
 30
0.0
 11
4.6449474289
 21
-1.9170520031
 31
0.0
  0
LINE
  5
40F
330
1F
100
AcDbEntity
  8
0
  6
Continuous
 62
     7
370
    15
100
AcDbLine
 10
4.6554687032
 20
-1.9568114763
 30
0.0
 11
4.6650989584
 21
-1.9337403415
 31
0.0
  0
LINE
  5
410
330
1F
100
AcDbEntity
  8
0
  6
Continuous
 62
     7
370
    15
100
AcDbLine
 10
4.6295402713
 20
-1.9539656793
 30
0.0
 11
4.6554687032
 21
-1.9568114763
 31
0.0
  0
LINE
  5
411
330
1F
100
AcDbEntity
  8
0
  6
Continuous
 62
     7
370
    15
100
AcDbLine
 10
4.6034453153
 20
-1.9514843656
 30
0.0
 11
4.6295402713
 21
-1.9539656793
 31
0.0
  0
LINE
  5
412
330
1F
100
AcDbEntity
  8
0
  6
Continuous
 62
     7
370
    15
100
AcDbLine
 10
4.5882662504
 20
-1.9869103691
 30
0.0
 11
4.6034453153
 21
-1.9514843656
 31
0.0
  0
LINE
  5
413
330
1F
100
AcDbEntity
  8
0
  6
Continuous
 62
     7
370
    15
100
AcDbLine
 10
4.6079510079
 20
-2.0043484001
 30
0.0
 11
4.5882662504
 21
-1.9869103691
 31
0.0
  0
LINE
  5
414
330
1F
100
AcDbEntity
  8
0
  6
Continuous
 62
     7
370
    15
100
AcDbLine
 10
4.6277840864
 20
-2.021413973
 30
0.0
 11
4.6079510079
 21
-2.0043484001
 31
0.0
  0
LINE
  5
415
330
1F
100
AcDbEntity
  8
0
  6
Continuous
 62
     7
370
    15
100
AcDbLine
 10
4.6177202552
 20
-2.0442993041
 30
0.0
 11
4.6277840864
 21
-2.021413973
 31
0.0
  0
LINE
  5
416
330
1F
100
AcDbEntity
  8
0
  6
Continuous
 62
     7
370
    15
100
AcDbLine
 10
4.5918501313
 20
-2.040964814
 30
0.0
 11
4.6177202552
 21
-2.0442993041
 31
0.0
  0
LINE
  5
417
330
1F
100
AcDbEntity
  8
0
  6
Continuous
 62
     7
370
    15
100
AcDbLine
 10
4.5658066359
 20
-2.0379916005
 30
0.0
 11
4.5918501313
 21
-2.040964814
 31
0.0
  0
LINE
  5
418
330
1F
100
AcDbEntity
  8
0
  6
Continuous
 62
     7
370
    15
100
AcDbLine
 10
4.5499618798
 20
-2.07312491
 30
0.0
 11
4.5658066359
 21
-2.0379916005
 31
0.0
  0
LINE
  5
419
330
1F
100
AcDbEntity
  8
0
  6
Continuous
 62
     7
370
    15
100
AcDbLine
 10
4.5693141246
 20
-2.0909312353
 30
0.0
 11
4.5499618798
 21
-2.07312491
 31
0.0
  0
LINE
  5
41A
330
1F
100
AcDbEntity
  8
0
  6
Continuous
 62
     7
370
    15
100
AcDbLine
 10
4.5888216914
 20
-2.1083679672
 30
0.0
 11
4.5693141246
 21
-2.0909312353
 31
0.0
  0
LINE
  5
41B
330
1F
100
AcDbEntity
  8
0
  6
Continuous
 62
     7
370
    15
100
AcDbLine
 10
4.5783278671
 20
-2.1310593472
 30
0.0
 11
4.5888216914
 21
-2.1083679672
 31
0.0
  0
LINE
  5
41C
330
1F
100
AcDbEntity
  8
0
  6
Continuous
 62
     7
370
    15
100
AcDbLine
 10
4.5525252609
 20
-2.1272373512
 30
0.0
 11
4.5783278671
 21
-2.1310593472
 31
0.0
  0
LINE
  5
41D
330
1F
100
AcDbEntity
  8
0
  6
Continuous
 62
     7
370
    15
100
AcDbLine
 10
4.5265424979
 20
-2.1237732964
 30
0.0
 11
4.5525252609
 21
-2.1272373512
 31
0.0
  0
LINE
  5
41E
330
1F
100
AcDbEntity
  8
0
  6
Continuous
 62
     7
370
    15
100
AcDbLine
 10
4.5100376914
 20
-2.1586014042
 30
0.0
 11
4.5265424979
 21
-2.1237732964
 31
0.0
  0
LINE
  5
41F
330
1F
100
AcDbEntity
  8
0
  6
Continuous
 62
     7
370
    15
100
AcDbLine
 10
4.5290505341
 20
-2.1767696846
 30
0.0
 11
4.5100376914
 21
-2.1586014042
 31
0.0
  0
LINE
  5
420
330
1F
100
AcDbEntity
  8
0
  6
Continuous
 62
     7
370
    15
100
AcDbLine
 10
4.5482256443
 20
-2.1945713679
 30
0.0
 11
4.5290505341
 21
-2.1767696846
 31
0.0
  0
LINE
  5
421
330
1F
100
AcDbEntity
  8
0
  6
Continuous
 62
     7
370
    15
100
AcDbLine
 10
4.5373055628
 20
-2.2170607186
 30
0.0
 11
4.5482256443
 21
-2.1945713679
 31
0.0
  0
LINE
  5
422
330
1F
100
AcDbEntity
  8
0
  6
Continuous
 62
     7
370
    15
100
AcDbLine
 10
4.5115796603
 20
-2.2127525773
 30
0.0
 11
4.5373055628
 21
-2.2170607186
 31
0.0
  0
LINE
  5
423
330
1F
100
AcDbEntity
  8
0
  6
Continuous
 62
     7
370
    15
100
AcDbLine
 10
4.4856668797
 20
-2.2087989144
 30
0.0
 11
4.5115796603
 21
-2.2127525773
 31
0.0
  0
LINE
  5
424
330
1F
100
AcDbEntity
  8
0
  6
Continuous
 62
     7
370
    15
100
AcDbLine
 10
4.4685078986
 20
-2.2433094215
 30
0.0
 11
4.4856668797
 21
-2.2087989144
 31
0.0
  0
LINE
  5
425
330
1F
100
AcDbEntity
  8
0
  6
Continuous
 62
     7
370
    15
100
AcDbLine
 10
4.4871745704
 20
-2.2618331889
 30
0.0
 11
4.4685078986
 21
-2.2433094215
 31
0.0
  0
LINE
  5
426
330
1F
100
AcDbEntity
  8
0
  6
Continuous
 62
     7
370
    15
100
AcDbLine
 10
4.5060103976
 20
-2.2799934861
 30
0.0
 11
4.4871745704
 21
-2.2618331889
 31
0.0
  0
LINE
  5
427
330
1F
100
AcDbEntity
  8
0
  6
Continuous
 62
     7
370
    15
100
AcDbLine
 10
4.4946679465
 20
-2.3022728011
 30
0.0
 11
4.5060103976
 21
-2.2799934861
 31
0.0
  0
LINE
  5
428
330
1F
100
AcDbEntity
  8
0
  6
Continuous
 62
     7
370
    15
100
AcDbLine
 10
4.4690279064
 20
-2.2974800482
 30
0.0
 11
4.4946679465
 21
-2.3022728011
 31
0.0
  0
LINE
  5
429
330
1F
100
AcDbEntity
  8
0
  6
Continuous
 62
     7
370
    15
100
AcDbLine
 10
4.4431943333
 20
-2.2930381848
 30
0.0
 11
4.4690279064
 21
-2.2974800482
 31
0.0
  0
LINE
  5
42A
330
1F
100
AcDbEntity
  8
0
  6
Continuous
 62
     7
370
    15
100
AcDbLine
 10
4.4253872862
 20
-2.3272188051
 30
0.0
 11
4.4431943333
 21
-2.2930381848
 31
0.0
  0
LINE
  5
42B
330
1F
100
AcDbEntity
  8
0
  6
Continuous
 62
     7
370
    15
100
AcDbLine
 10
4.4437011418
 20
-2.346091465
 30
0.0
 11
4.4253872862
 21
-2.3272188051
 31
0.0
  0
LINE
  5
42C
330
1F
100
AcDbEntity
  8
0
  6
Continuous
 62
     7
370
    15
100
AcDbLine
 10
4.4621909803
 20
-2.3646039109
 30
0.0
 11
4.4437011418
 21
-2.346091465
 31
0.0
  0
LINE
  5
42D
330
1F
100
AcDbEntity
  8
0
  6
Continuous
 62
     7
370
    15
100
AcDbLine
 10
4.4504301975
 20
-2.3866652587
 30
0.0
 11
4.4621909803
 21
-2.3646039109
 31
0.0
  0
LINE
  5
42E
330
1F
100
AcDbEntity
  8
0
  6
Continuous
 62
     7
370
    15
100
AcDbLine
 10
4.4248851477
 20
-2.3813896005
 30
0.0
 11
4.4504301975
 21
-2.3866652587
 31
0.0
  0
LINE
  5
42F
330
1F
100
AcDbEntity
  8
0
  6
Continuous
 62
     7
370
    15
100
AcDbLine
 10
4.3991399791
 20
-2.3764611178
 30
0.0
 11
4.4248851477
 21
-2.3813896005
 31
0.0
  0
LINE
  5
430
330
1F
100
AcDbEntity
  8
0
  6
Continuous
 62
     7
370
    15
100
AcDbLine
 10
4.3806912056
 20
-2.4102996829
 30
0.0
 11
4.3991399791
 21
-2.3764611178
 31
0.0
  0
LINE
  5
431
330
1F
100
AcDbEntity
  8
0
  6
Continuous
 62
     7
370
    15
100
AcDbLine
 10
4.398645725
 20
-2.4295145165
 30
0.0
 11
4.3806912056
 21
-2.4102996829
 31
0.0
  0
LINE
  5
432
330
1F
100
AcDbEntity
  8
0
  6
Continuous
 62
     7
370
    15
100
AcDbLine
 10
4.4167829923
 20
-2.4483725205
 30
0.0
 11
4.398645725
 21
-2.4295145165
 31
0.0
  0
LINE
  5
433
330
1F
100
AcDbEntity
  8
0
  6
Continuous
 62
     7
370
    15
100
AcDbLine
 10
4.4046080648
 20
-2.470208047
 30
0.0
 11
4.4167829923
 21
-2.4483725205
 31
0.0
  0
LINE
  5
434
330
1F
100
AcDbEntity
  8
0
  6
Continuous
 62
     7
370
    15
100
AcDbLine
 10
4.3791670996
 20
-2.4644513617
 30
0.0
 11
4.4046080648
 21
-2.470208047
 31
0.0
  0
LINE
  5
435
330
1F
100
AcDbEntity
  8
0
  6
Continuous
 62
     7
370
    15
100
AcDbLine
 10
4.3535195008
 20
-2.4590380143
 30
0.0
 11
4.3791670996
 21
-2.4644513617
 31
0.0
  0
LINE
  5
436
330
1F
100
AcDbEntity
  8
0
  6
Continuous
 62
     7
370
    15
100
AcDbLine
 10
4.3344355687
 20
-2.4925224774
 30
0.0
 11
4.3535195008
 21
-2.4590380143
 31
0.0
  0
LINE
  5
437
330
1F
100
AcDbEntity
  8
0
  6
Continuous
 62
     7
370
    15
100
AcDbLine
 10
4.3520243601
 20
-2.5120726441
 30
0.0
 11
4.3344355687
 21
-2.4925224774
 31
0.0
  0
LINE
  5
438
330
1F
100
AcDbEntity
  8
0
  6
Continuous
 62
     7
370
    15
100
AcDbLine
 10
4.3698025991
 20
-2.5312694927
 30
0.0
 11
4.3520243601
 21
-2.5120726441
 31
0.0
  0
LINE
  5
439
330
1F
100
AcDbEntity
  8
0
  6
Continuous
 62
     7
370
    15
100
AcDbLine
 10
4.3572178613
 20
-2.5528714243
 30
0.0
 11
4.3698025991
 21
-2.5312694927
 31
0.0
  0
LINE
  5
43A
330
1F
100
AcDbEntity
  8
0
  6
Continuous
 62
     7
370
    15
100
AcDbLine
 10
4.3318900378
 20
-2.5466357612
 30
0.0
 11
4.3572178613
 21
-2.5528714243
 31
0.0
  0
LINE
  5
43B
330
1F
100
AcDbEntity
  8
0
  6
Continuous
 62
     7
370
    15
100
AcDbLine
 10
4.3063491397
 20
-2.5407394764
 30
0.0
 11
4.3318900378
 21
-2.5466357612
 31
0.0
  0
LINE
  5
43C
330
1F
100
AcDbEntity
  8
0
  6
Continuous
 62
     7
370
    15
100
AcDbLine
 10
4.286636843
 20
-2.5738579168
 30
0.0
 11
4.3063491397
 21
-2.5407394764
 31
0.0
  0
LINE
  5
43D
330
1F
100
AcDbEntity
  8
0
  6
Continuous
 62
     7
370
    15
100
AcDbLine
 10
4.3038536446
 20
-2.5937364566
 30
0.0
 11
4.286636843
 21
-2.5738579168
 31
0.0
  0
LINE
  5
43E
330
1F
100
AcDbEntity
  8
0
  6
Continuous
 62
     7
370
    15
100
AcDbLine
 10
4.3212665262
 20
-2.6132653155
 30
0.0
 11
4.3038536446
 21
-2.5937364566
 31
0.0
  0
LINE
  5
43F
330
1F
100
AcDbEntity
  8
0
  6
Continuous
 62
     7
370
    15
100
AcDbLine
 10
4.3082764583
 20
-2.6346259619
 30
0.0
 11
4.3212665262
 21
-2.6132653155
 31
0.0
  0
LINE
  5
440
330
1F
100
AcDbEntity
  8
0
  6
Continuous
 62
     7
370
    15
100
AcDbLine
 10
4.2830707934
 20
-2.627913541
 30
0.0
 11
4.3082764583
 21
-2.6346259619
 31
0.0
  0
LINE
  5
441
330
1F
100
AcDbEntity
  8
0
  6
Continuous
 62
     7
370
    15
100
AcDbLine
 10
4.2576456887
 20
-2.6215364178
 30
0.0
 11
4.2830707934
 21
-2.627913541
 31
0.0
  0
LINE
  5
442
330
1F
100
AcDbEntity
  8
0
  6
Continuous
 62
     7
370
    15
100
AcDbLine
 10
4.2373120452
 20
-2.6542770451
 30
0.0
 11
4.2576456887
 21
-2.6215364178
 31
0.0
  0
LINE
  5
443
330
1F
100
AcDbEntity
  8
0
  6
Continuous
 62
     7
370
    15
100
AcDbLine
 10
4.2541507276
 20
-2.674476881
 30
0.0
 11
4.2373120452
 21
-2.6542770451
 31
0.0
  0
LINE
  5
444
330
1F
100
AcDbEntity
  8
0
  6
Continuous
 62
     7
370
    15
100
AcDbLine
 10
4.2711920528
 20
-2.6943307979
 30
0.0
 11
4.2541507276
 21
-2.674476881
 31
0.0
  0
LINE
  5
445
330
1F
100
AcDbEntity
  8
0
  6
Continuous
 62
     7
370
    15
100
AcDbLine
 10
4.2578012793
 20
-2.7154425544
 30
0.0
 11
4.2711920528
 21
-2.6943307979
 31
0.0
  0
LINE
  5
446
330
1F
100
AcDbEntity
  8
0
  6
Continuous
 62
     7
370
    15
100
AcDbLine
 10
4.2327267463
 20
-2.7082557654
 30
0.0
 11
4.2578012793
 21
-2.7154425544
 31
0.0
  0
LINE
  5
447
330
1F
100
AcDbEntity
  8
0
  6
Continuous
 62
     7
370
    15
100
AcDbLine
 10
4.2074264865
 20
-2.7014000742
 30
0.0
 11
4.2327267463
 21
-2.7082557654
 31
0.0
  0
LINE
  5
448
330
1F
100
AcDbEntity
  8
0
  6
Continuous
 62
     7
370
    15
100
AcDbLine
 10
4.1864787351
 20
-2.7337512324
 30
0.0
 11
4.2074264865
 21
-2.7014000742
 31
0.0
  0
LINE
  5
449
330
1F
100
AcDbEntity
  8
0
  6
Continuous
 62
     7
370
    15
100
AcDbLine
 10
4.2029333037
 20
-2.7542651733
 30
0.0
 11
4.1864787351
 21
-2.7337512324
 31
0.0
  0
LINE
  5
44A
330
1F
100
AcDbEntity
  8
0
  6
Continuous
 62
     7
370
    15
100
AcDbLine
 10
4.2195970055
 20
-2.77443708
 30
0.0
 11
4.2029333037
 21
-2.7542651733
 31
0.0
  0
LINE
  5
44B
330
1F
100
AcDbEntity
  8
0
  6
Continuous
 62
     7
370
    15
100
AcDbLine
 10
4.2058102937
 20
-2.7952924307
 30
0.0
 11
4.2195970055
 21
-2.77443708
 31
0.0
  0
LINE
  5
44C
330
1F
100
AcDbEntity
  8
0
  6
Continuous
 62
     7
370
    15
100
AcDbLine
 10
4.1808758195
 20
-2.7876338321
 30
0.0
 11
4.2058102937
 21
-2.7952924307
 31
0.0
  0
LINE
  5
44D
330
1F
100
AcDbEntity
  8
0
  6
Continuous
 62
     7
370
    15
100
AcDbLine
 10
4.1557094116
 20
-2.7803020135
 30
0.0
 11
4.1808758195
 21
-2.7876338321
 31
0.0
  0
LINE
  5
44E
330
1F
100
AcDbEntity
  8
0
  6
Continuous
 62
     7
370
    15
100
AcDbLine
 10
4.1341550098
 20
-2.8122521856
 30
0.0
 11
4.1557094116
 21
-2.7803020135
 31
0.0
  0
LINE
  5
44F
330
1F
100
AcDbEntity
  8
0
  6
Continuous
 62
     7
370
    15
100
AcDbLine
 10
4.1502196066
 20
-2.8330729283
 30
0.0
 11
4.1341550098
 21
-2.8122521856
 31
0.0
  0
LINE
  5
450
330
1F
100
AcDbEntity
  8
0
  6
Continuous
 62
     7
370
    15
100
AcDbLine
 10
4.1664997528
 20
-2.8535556434
 30
0.0
 11
4.1502196066
 21
-2.8330729283
 31
0.0
  0
LINE
  5
451
330
1F
100
AcDbEntity
  8
0
  6
Continuous
 62
     7
370
    15
100
AcDbLine
 10
4.1523220108
 20
-2.8741471638
 30
0.0
 11
4.1664997528
 21
-2.8535556434
 31
0.0
  0
LINE
  5
452
330
1F
100
AcDbEntity
  8
0
  6
Continuous
 62
     7
370
    15
100
AcDbLine
 10
4.1275364721
 20
-2.8660194821
 30
0.0
 11
4.1523220108
 21
-2.8741471638
 31
0.0
  0
LINE
  5
453
330
1F
100
AcDbEntity
  8
0
  6
Continuous
 62
     7
370
    15
100
AcDbLine
 10
4.1025128755
 20
-2.8582141463
 30
0.0
 11
4.1275364721
 21
-2.8660194821
 31
0.0
  0
LINE
  5
454
330
1F
100
AcDbEntity
  8
0
  6
Continuous
 62
     7
370
    15
100
AcDbLine
 10
4.0803594968
 20
-2.8897519576
 30
0.0
 11
4.1025128755
 21
-2.8582141463
 31
0.0
  0
LINE
  5
455
330
1F
100
AcDbEntity
  8
0
  6
Continuous
 62
     7
370
    15
100
AcDbLine
 10
4.0960284028
 20
-2.9108720898
 30
0.0
 11
4.0803594968
 21
-2.8897519576
 31
0.0
  0
LINE
  5
456
330
1F
100
AcDbEntity
  8
0
  6
Continuous
 62
     7
370
    15
100
AcDbLine
 10
4.1119191974
 20
-2.9316583214
 30
0.0
 11
4.0960284028
 21
-2.9108720898
 31
0.0
  0
LINE
  5
457
330
1F
100
AcDbEntity
  8
0
  6
Continuous
 62
     7
370
    15
100
AcDbLine
 10
4.0973554726
 20
-2.9519786806
 30
0.0
 11
4.1119191974
 21
-2.9316583214
 31
0.0
  0
LINE
  5
458
330
1F
100
AcDbEntity
  8
0
  6
Continuous
 62
     7
370
    15
100
AcDbLine
 10
4.0727276933
 20
-2.9433848094
 30
0.0
 11
4.0973554726
 21
-2.9519786806
 31
0.0
  0
LINE
  5
459
330
1F
100
AcDbEntity
  8
0
  6
Continuous
 62
     7
370
    15
100
AcDbLine
 10
4.0478558167
 20
-2.9351087352
 30
0.0
 11
4.0727276933
 21
-2.9433848094
 31
0.0
  0
LINE
  5
45A
330
1F
100
AcDbEntity
  8
0
  6
Continuous
 62
     7
370
    15
100
AcDbLine
 10
4.0251113479
 20
-2.9662229581
 30
0.0
 11
4.0478558167
 21
-2.9351087352
 31
0.0
  0
LINE
  5
45B
330
1F
100
AcDbEntity
  8
0
  6
Continuous
 62
     7
370
    15
100
AcDbLine
 10
4.0403789848
 20
-2.9876349608
 30
0.0
 11
4.0251113479
 21
-2.9662229581
 31
0.0
  0
LINE
  5
45C
330
1F
100
AcDbEntity
  8
0
  6
Continuous
 62
     7
370
    15
100
AcDbLine
 10
4.0558747706
 20
-3.0087173089
 30
0.0
 11
4.0403789848
 21
-2.9876349608
 31
0.0
  0
LINE
  5
45D
330
1F
100
AcDbEntity
  8
0
  6
Continuous
 62
     7
370
    15
100
AcDbLine
 10
4.0409302478
 20
-3.0287592728
 30
0.0
 11
4.0558747706
 21
-3.0087173089
 31
0.0
  0
LINE
  5
45E
330
1F
100
AcDbEntity
  8
0
  6
Continuous
 62
     7
370
    15
100
AcDbLine
 10
4.0164689955
 20
-3.0197022715
 30
0.0
 11
4.0409302478
 21
-3.0287592728
 31
0.0
  0
LINE
  5
45F
330
1F
100
AcDbEntity
  8
0
  6
Continuous
 62
     7
370
    15
100
AcDbLine
 10
3.9917576934
 20
-3.0109584051
 30
0.0
 11
4.0164689955
 21
-3.0197022715
 31
0.0
  0
LINE
  5
460
330
1F
100
AcDbEntity
  8
0
  6
Continuous
 62
     7
370
    15
100
AcDbLine
 10
3.9684302316
 20
-3.0416379628
 30
0.0
 11
3.9917576934
 21
-3.0109584051
 31
0.0
  0
LINE
  5
461
330
1F
100
AcDbEntity
  8
0
  6
Continuous
 62
     7
370
    15
100
AcDbLine
 10
3.983291164
 20
-3.0633342133
 30
0.0
 11
3.9684302316
 21
-3.0416379628
 31
0.0
  0
LINE
  5
462
330
1F
100
AcDbEntity
  8
0
  6
Continuous
 62
     7
370
    15
100
AcDbLine
 10
3.9983864245
 20
-3.0847051724
 30
0.0
 11
3.983291164
 21
-3.0633342133
 31
0.0
  0
LINE
  5
463
330
1F
100
AcDbEntity
  8
0
  6
Continuous
 62
     7
370
    15
100
AcDbLine
 10
3.983066424
 20
-3.1044616058
 30
0.0
 11
3.9983864245
 21
-3.0847051724
 31
0.0
  0
LINE
  5
464
330
1F
100
AcDbEntity
  8
0
  6
Continuous
 62
     7
370
    15
100
AcDbLine
 10
3.9587804071
 20
-3.0949446988
 30
0.0
 11
3.983066424
 21
-3.1044616058
 31
0.0
  0
LINE
  5
465
330
1F
100
AcDbEntity
  8
0
  6
Continuous
 62
     7
370
    15
100
AcDbLine
 10
3.9342384769
 20
-3.0857361532
 30
0.0
 11
3.9587804071
 21
-3.0949446988
 31
0.0
  0
LINE
  5
466
330
1F
100
AcDbEntity
  8
0
  6
Continuous
 62
     7
370
    15
100
AcDbLine
 10
3.9103363269
 20
-3.1159701235
 30
0.0
 11
3.9342384769
 21
-3.0857361532
 31
0.0
  0
LINE
  5
467
330
1F
100
AcDbEntity
  8
0
  6
Continuous
 62
     7
370
    15
100
AcDbLine
 10
3.9247852643
 20
-3.1379428977
 30
0.0
 11
3.9103363269
 21
-3.1159701235
 31
0.0
  0
LINE
  5
468
330
1F
100
AcDbEntity
  8
0
  6
Continuous
 62
     7
370
    15
100
AcDbLine
 10
3.9394746253
 20
-3.1595948596
 30
0.0
 11
3.9247852643
 21
-3.1379428977
 31
0.0
  0
LINE
  5
469
330
1F
100
AcDbEntity
  8
0
  6
Continuous
 62
     7
370
    15
100
AcDbLine
 10
3.9237846012
 20
-3.1790587292
 30
0.0
 11
3.9394746253
 21
-3.1595948596
 31
0.0
  0
LINE
  5
46A
330
1F
100
AcDbEntity
  8
0
  6
Continuous
 62
     7
370
    15
100
AcDbLine
 10
3.8996824656
 20
-3.1690853045
 30
0.0
 11
3.9237846012
 21
-3.1790587292
 31
0.0
  0
LINE
  5
46B
330
1F
100
AcDbEntity
  8
0
  6
Continuous
 62
     7
370
    15
100
AcDbLine
 10
3.8753186444
 20
-3.159415358
 30
0.0
 11
3.8996824656
 21
-3.1690853045
 31
0.0
  0
LINE
  5
46C
330
1F
100
AcDbEntity
  8
0
  6
Continuous
 62
     7
370
    15
100
AcDbLine
 10
3.8508503156
 20
-3.1891929774
 30
0.0
 11
3.8753186444
 21
-3.159415358
 31
0.0
  0
LINE
  5
46D
330
1F
100
AcDbEntity
  8
0
  6
Continuous
 62
     7
370
    15
100
AcDbLine
 10
3.864882114
 20
-3.2114344529
 30
0.0
 11
3.8508503156
 21
-3.1891929774
 31
0.0
  0
LINE
  5
46E
330
1F
100
AcDbEntity
  8
0
  6
Continuous
 62
     7
370
    15
100
AcDbLine
 10
3.8791603461
 20
-3.2333597093
 30
0.0
 11
3.864882114
 21
-3.2114344529
 31
0.0
  0
LINE
  5
46F
330
1F
100
AcDbEntity
  8
0
  6
Continuous
 62
     7
370
    15
100
AcDbLine
 10
3.8631058841
 20
-3.2525240858
 30
0.0
 11
3.8791603461
 21
-3.2333597093
 31
0.0
  0
LINE
  5
470
330
1F
100
AcDbEntity
  8
0
  6
Continuous
 62
     7
370
    15
100
AcDbLine
 10
3.8391962104
 20
-3.2420976941
 30
0.0
 11
3.8631058841
 21
-3.2525240858
 31
0.0
  0
LINE
  5
471
330
1F
100
AcDbEntity
  8
0
  6
Continuous
 62
     7
370
    15
100
AcDbLine
 10
3.8150191719
 20
-3.2319697892
 30
0.0
 11
3.8391962104
 21
-3.2420976941
 31
0.0
  0
LINE
  5
472
330
1F
100
AcDbEntity
  8
0
  6
Continuous
 62
     7
370
    15
100
AcDbLine
 10
3.7899933751
 20
-3.2612804567
 30
0.0
 11
3.8150191719
 21
-3.2319697892
 31
0.0
  0
LINE
  5
473
330
1F
100
AcDbEntity
  8
0
  6
Continuous
 62
     7
370
    15
100
AcDbLine
 10
3.803603039
 20
-3.2837827153
 30
0.0
 11
3.7899933751
 21
-3.2612804567
 31
0.0
  0
LINE
  5
474
330
1F
100
AcDbEntity
  8
0
  6
Continuous
 62
     7
370
    15
100
AcDbLine
 10
3.8174650591
 20
-3.3059734607
 30
0.0
 11
3.803603039
 21
-3.2837827153
 31
0.0
  0
LINE
  5
475
330
1F
100
AcDbEntity
  8
0
  6
Continuous
 62
     7
370
    15
100
AcDbLine
 10
3.8010518747
 20
-3.3248315214
 30
0.0
 11
3.8174650591
 21
-3.3059734607
 31
0.0
  0
LINE
  5
476
330
1F
100
AcDbEntity
  8
0
  6
Continuous
 62
     7
370
    15
100
AcDbLine
 10
3.777343175
 20
-3.3139558746
 30
0.0
 11
3.8010518747
 21
-3.3248315214
 31
0.0
  0
LINE
  5
477
330
1F
100
AcDbEntity
  8
0
  6
Continuous
 62
     7
370
    15
100
AcDbLine
 10
3.7533615263
 20
-3.303373617
 30
0.0
 11
3.777343175
 21
-3.3139558746
 31
0.0
  0
LINE
  5
478
330
1F
100
AcDbEntity
  8
0
  6
Continuous
 62
     7
370
    15
100
AcDbLine
 10
3.7277871708
 20
-3.3322068977
 30
0.0
 11
3.7533615263
 21
-3.303373617
 31
0.0
  0
LINE
  5
479
330
1F
100
AcDbEntity
  8
0
  6
Continuous
 62
     7
370
    15
100
AcDbLine
 10
3.7409698553
 20
-3.3549619285
 30
0.0
 11
3.7277871708
 21
-3.3322068977
 31
0.0
  0
LINE
  5
47A
330
1F
100
AcDbEntity
  8
0
  6
Continuous
 62
     7
370
    15
100
AcDbLine
 10
3.7544107283
 20
-3.3774102628
 30
0.0
 11
3.7409698553
 21
-3.3549619285
 31
0.0
  0
LINE
  5
47B
330
1F
100
AcDbEntity
  8
0
  6
Continuous
 62
     7
370
    15
100
AcDbLine
 10
3.7376446647
 20
-3.3959552942
 30
0.0
 11
3.7544107283
 21
-3.3774102628
 31
0.0
  0
LINE
  5
47C
330
1F
100
AcDbEntity
  8
0
  6
Continuous
 62
     7
370
    15
100
AcDbLine
 10
3.7141453794
 20
-3.384634264
 30
0.0
 11
3.7376446647
 21
-3.3959552942
 31
0.0
  0
LINE
  5
47D
330
1F
100
AcDbEntity
  8
0
  6
Continuous
 62
     7
370
    15
100
AcDbLine
 10
3.6903676582
 20
-3.373601421
 30
0.0
 11
3.7141453794
 21
-3.384634264
 31
0.0
  0
LINE
  5
47E
330
1F
100
AcDbEntity
  8
0
  6
Continuous
 62
     7
370
    15
100
AcDbLine
 10
3.6642538488
 20
-3.4019470501
 30
0.0
 11
3.6903676582
 21
-3.373601421
 31
0.0
  0
LINE
  5
47F
330
1F
100
AcDbEntity
  8
0
  6
Continuous
 62
     7
370
    15
100
AcDbLine
 10
3.6770048605
 20
-3.4249467522
 30
0.0
 11
3.6642538488
 21
-3.4019470501
 31
0.0
  0
LINE
  5
480
330
1F
100
AcDbEntity
  8
0
  6
Continuous
 62
     7
370
    15
100
AcDbLine
 10
3.6900198015
 20
-3.4476446837
 30
0.0
 11
3.6770048605
 21
-3.4249467522
 31
0.0
  0
LINE
  5
481
330
1F
100
AcDbEntity
  8
0
  6
Continuous
 62
     7
370
    15
100
AcDbLine
 10
3.6729068275
 20
-3.4658700836
 30
0.0
 11
3.6900198015
 21
-3.4476446837
 31
0.0
  0
LINE
  5
482
330
1F
100
AcDbEntity
  8
0
  6
Continuous
 62
     7
370
    15
100
AcDbLine
 10
3.6496253225
 20
-3.4541077003
 30
0.0
 11
3.6729068275
 21
-3.4658700836
 31
0.0
  0
LINE
  5
483
330
1F
100
AcDbEntity
  8
0
  6
Continuous
 62
     7
370
    15
100
AcDbLine
 10
3.6260599938
 20
-3.4426281997
 30
0.0
 11
3.6496253225
 21
-3.4541077003
 31
0.0
  0
LINE
  5
484
330
1F
100
AcDbEntity
  8
0
  6
Continuous
 62
     7
370
    15
100
AcDbLine
 10
3.5994160271
 20
-3.470476086
 30
0.0
 11
3.6260599938
 21
-3.4426281997
 31
0.0
  0
LINE
  5
485
330
1F
100
AcDbEntity
  8
0
  6
Continuous
 62
     7
370
    15
100
AcDbLine
 10
3.6117308268
 20
-3.4937122713
 30
0.0
 11
3.5994160271
 21
-3.470476086
 31
0.0
  0
LINE
  5
486
330
1F
100
AcDbEntity
  8
0
  6
Continuous
 62
     7
370
    15
100
AcDbLine
 10
3.6243152022
 20
-3.5166517193
 30
0.0
 11
3.6117308268
 21
-3.4937122713
 31
0.0
  0
LINE
  5
487
330
1F
100
AcDbEntity
  8
0
  6
Continuous
 62
     7
370
    15
100
AcDbLine
 10
3.6068614103
 20
-3.5345509993
 30
0.0
 11
3.6243152022
 21
-3.5166517193
 31
0.0
  0
LINE
  5
488
330
1F
100
AcDbEntity
  8
0
  6
Continuous
 62
     7
370
    15
100
AcDbLine
 10
3.5838059739
 20
-3.5223514506
 30
0.0
 11
3.6068614103
 21
-3.5345509993
 31
0.0
  0
LINE
  5
489
330
1F
100
AcDbEntity
  8
0
  6
Continuous
 62
     7
370
    15
100
AcDbLine
 10
3.5604614272
 20
-3.5104293791
 30
0.0
 11
3.5838059739
 21
-3.5223514506
 31
0.0
  0
LINE
  5
48A
330
1F
100
AcDbEntity
  8
0
  6
Continuous
 62
     7
370
    15
100
AcDbLine
 10
3.5332967886
 20
-3.5377696086
 30
0.0
 11
3.5604614272
 21
-3.5104293791
 31
0.0
  0
LINE
  5
48B
330
1F
100
AcDbEntity
  8
0
  6
Continuous
 62
     7
370
    15
100
AcDbLine
 10
3.545170992
 20
-3.5612340048
 30
0.0
 11
3.5332967886
 21
-3.5377696086
 31
0.0
  0
LINE
  5
48C
330
1F
100
AcDbEntity
  8
0
  6
Continuous
 62
     7
370
    15
100
AcDbLine
 10
3.5573203218
 20
-3.5844068028
 30
0.0
 11
3.545170992
 21
-3.5612340048
 31
0.0
  0
LINE
  5
48D
330
1F
100
AcDbEntity
  8
0
  6
Continuous
 62
     7
370
    15
100
AcDbLine
 10
3.5395319256
 20
-3.6019735907
 30
0.0
 11
3.5573203218
 21
-3.5844068028
 31
0.0
  0
LINE
  5
48E
330
1F
100
AcDbEntity
  8
0
  6
Continuous
 62
     7
370
    15
100
AcDbLine
 10
3.5167107657
 20
-3.5893412195
 30
0.0
 11
3.5395319256
 21
-3.6019735907
 31
0.0
  0
LINE
  5
48F
330
1F
100
AcDbEntity
  8
0
  6
Continuous
 62
     7
370
    15
100
AcDbLine
 10
3.4935953118
 20
-3.5769808215
 30
0.0
 11
3.5167107657
 21
-3.5893412195
 31
0.0
  0
LINE
  5
490
330
1F
100
AcDbEntity
  8
0
  6
Continuous
 62
     7
370
    15
100
AcDbLine
 10
3.4659196722
 20
-3.6038036608
 30
0.0
 11
3.4935953118
 21
-3.5769808215
 31
0.0
  0
LINE
  5
491
330
1F
100
AcDbEntity
  8
0
  6
Continuous
 62
     7
370
    15
100
AcDbLine
 10
3.477349052
 20
-3.6274879146
 30
0.0
 11
3.4659196722
 21
-3.6038036608
 31
0.0
  0
LINE
  5
492
330
1F
100
AcDbEntity
  8
0
  6
Continuous
 62
     7
370
    15
100
AcDbLine
 10
3.489059011
 20
-3.6508858128
 30
0.0
 11
3.477349052
 21
-3.6274879146
 31
0.0
  0
LINE
  5
493
330
1F
100
AcDbEntity
  8
0
  6
Continuous
 62
     7
370
    15
100
AcDbLine
 10
3.4709423432
 20
-3.6681138546
 30
0.0
 11
3.489059011
 21
-3.6508858128
 31
0.0
  0
LINE
  5
494
330
1F
100
AcDbEntity
  8
0
  6
Continuous
 62
     7
370
    15
100
AcDbLine
 10
3.4483635844
 20
-3.6550531583
 30
0.0
 11
3.4709423432
 21
-3.6681138546
 31
0.0
  0
LINE
  5
495
330
1F
100
AcDbEntity
  8
0
  6
Continuous
 62
     7
370
    15
100
AcDbLine
 10
3.4254854524
 20
-3.6422588342
 30
0.0
 11
3.4483635844
 21
-3.6550531583
 31
0.0
  0
LINE
  5
496
330
1F
100
AcDbEntity
  8
0
  6
Continuous
 62
     7
370
    15
100
AcDbLine
 10
3.3973086645
 20
-3.6685547342
 30
0.0
 11
3.4254854524
 21
-3.6422588342
 31
0.0
  0
LINE
  5
497
330
1F
100
AcDbEntity
  8
0
  6
Continuous
 62
     7
370
    15
100
AcDbLine
 10
3.4082891519
 20
-3.6924504137
 30
0.0
 11
3.3973086645
 21
-3.6685547342
 31
0.0
  0
LINE
  5
498
330
1F
100
AcDbEntity
  8
0
  6
Continuous
 62
     7
370
    15
100
AcDbLine
 10
3.4195555711
 20
-3.7160650823
 30
0.0
 11
3.4082891519
 21
-3.6924504137
 31
0.0
  0
LINE
  5
499
330
1F
100
AcDbEntity
  8
0
  6
Continuous
 62
     7
370
    15
100
AcDbLine
 10
3.4011170814
 20
-3.7329482448
 30
0.0
 11
3.4195555711
 21
-3.7160650823
 31
0.0
  0
LINE
  5
49A
330
1F
100
AcDbEntity
  8
0
  6
Continuous
 62
     7
370
    15
100
AcDbLine
 10
3.3787887618
 20
-3.719463873
 30
0.0
 11
3.4011170814
 21
-3.7329482448
 31
0.0
  0
LINE
  5
49B
330
1F
100
AcDbEntity
  8
0
  6
Continuous
 62
     7
370
    15
100
AcDbLine
 10
3.3561560967
 20
-3.7062401777
 30
0.0
 11
3.3787887618
 21
-3.719463873
 31
0.0
  0
LINE
  5
49C
330
1F
100
AcDbEntity
  8
0
  6
Continuous
 62
     7
370
    15
100
AcDbLine
 10
3.3274881916
 20
-3.7319997769
 30
0.0
 11
3.3561560967
 21
-3.7062401777
 31
0.0
  0
LINE
  5
49D
330
1F
100
AcDbEntity
  8
0
  6
Continuous
 62
     7
370
    15
100
AcDbLine
 10
3.3380158773
 20
-3.756098375
 30
0.0
 11
3.3274881916
 21
-3.7319997769
 31
0.0
  0
LINE
  5
49E
330
1F
100
AcDbEntity
  8
0
  6
Continuous
 62
     7
370
    15
100
AcDbLine
 10
3.348834746
 20
-3.7799214072
 30
0.0
 11
3.3380158773
 21
-3.756098375
 31
0.0
  0
LINE
  5
49F
330
1F
100
AcDbEntity
  8
0
  6
Continuous
 62
     7
370
    15
100
AcDbLine
 10
3.3300809986
 20
-3.7964536798
 30
0.0
 11
3.348834746
 21
-3.7799214072
 31
0.0
  0
LINE
  5
4A0
330
1F
100
AcDbEntity
  8
0
  6
Continuous
 62
     7
370
    15
100
AcDbLine
 10
3.3080110673
 20
-3.7825504331
 30
0.0
 11
3.3300809986
 21
-3.7964536798
 31
0.0
  0
LINE
  5
4A1
330
1F
100
AcDbEntity
  8
0
  6
Continuous
 62
     7
370
    15
100
AcDbLine
 10
3.2856319263
 20
-3.7689020742
 30
0.0
 11
3.3080110673
 21
-3.7825504331
 31
0.0
  0
LINE
  5
4A2
330
1F
100
AcDbEntity
  8
0
  6
Continuous
 62
     7
370
    15
100
AcDbLine
 10
3.2564831101
 20
-3.794116202
 30
0.0
 11
3.2856319263
 21
-3.7689020742
 31
0.0
  0
LINE
  5
4A3
330
1F
100
AcDbEntity
  8
0
  6
Continuous
 62
     7
370
    15
100
AcDbLine
 10
3.2665542462
 20
-3.8184091395
 30
0.0
 11
3.2564831101
 21
-3.794116202
 31
0.0
  0
LINE
  5
4A4
330
1F
100
AcDbEntity
  8
0
  6
Continuous
 62
     7
370
    15
100
AcDbLine
 10
3.2769217126
 20
-3.842432054
 30
0.0
 11
3.2665542462
 21
-3.8184091395
 31
0.0
  0
LINE
  5
4A5
330
1F
100
AcDbEntity
  8
0
  6
Continuous
 62
     7
370
    15
100
AcDbLine
 10
3.2578593841
 20
-3.8586075511
 30
0.0
 11
3.2769217126
 21
-3.842432054
 31
0.0
  0
LINE
  5
4A6
330
1F
100
AcDbEntity
  8
0
  6
Continuous
 62
     7
370
    15
100
AcDbLine
 10
3.2360556981
 20
-3.8442903791
 30
0.0
 11
3.2578593841
 21
-3.8586075511
 31
0.0
  0
LINE
  5
4A7
330
1F
100
AcDbEntity
  8
0
  6
Continuous
 62
     7
370
    15
100
AcDbLine
 10
3.2139380484
 20
-3.8302222156
 30
0.0
 11
3.2360556981
 21
-3.8442903791
 31
0.0
  0
LINE
  5
4A8
330
1F
100
AcDbEntity
  8
0
  6
Continuous
 62
     7
370
    15
100
AcDbLine
 10
3.1843186981
 20
-3.8548818956
 30
0.0
 11
3.2139380484
 21
-3.8302222156
 31
0.0
  0
LINE
  5
4A9
330
1F
100
AcDbEntity
  8
0
  6
Continuous
 62
     7
370
    15
100
AcDbLine
 10
3.1939296993
 20
-3.8793605241
 30
0.0
 11
3.1843186981
 21
-3.8548818956
 31
0.0
  0
LINE
  5
4AA
330
1F
100
AcDbEntity
  8
0
  6
Continuous
 62
     7
370
    15
100
AcDbLine
 10
3.2038420726
 20
-3.9035747686
 30
0.0
 11
3.1939296993
 21
-3.8793605241
 31
0.0
  0
LINE
  5
4AB
330
1F
100
AcDbEntity
  8
0
  6
Continuous
 62
     7
370
    15
100
AcDbLine
 10
3.1844779492
 20
-3.9193877317
 30
0.0
 11
3.2038420726
 21
-3.9035747686
 31
0.0
  0
LINE
  5
4AC
330
1F
100
AcDbEntity
  8
0
  6
Continuous
 62
     7
370
    15
100
AcDbLine
 10
3.1629482708
 20
-3.9046617314
 30
0.0
 11
3.1844779492
 21
-3.9193877317
 31
0.0
  0
LINE
  5
4AD
330
1F
100
AcDbEntity
  8
0
  6
Continuous
 62
     7
370
    15
100
AcDbLine
 10
3.1410999865
 20
-3.8901787716
 30
0.0
 11
3.1629482708
 21
-3.9046617314
 31
0.0
  0
LINE
  5
4AE
330
1F
100
AcDbEntity
  8
0
  6
Continuous
 62
     7
370
    15
100
AcDbLine
 10
3.1110206468
 20
-3.9142752248
 30
0.0
 11
3.1410999865
 21
-3.8901787716
 31
0.0
  0
LINE
  5
4AF
330
1F
100
AcDbEntity
  8
0
  6
Continuous
 62
     7
370
    15
100
AcDbLine
 10
3.1201680914
 20
-3.9389308297
 30
0.0
 11
3.1110206468
 21
-3.9142752248
 31
0.0
  0
LINE
  5
4B0
330
1F
100
AcDbEntity
  8
0
  6
Continuous
 62
     7
370
    15
100
AcDbLine
 10
3.1296218428
 20
-3.9633277837
 30
0.0
 11
3.1201680914
 21
-3.9389308297
 31
0.0
  0
LINE
  5
4B1
330
1F
100
AcDbEntity
  8
0
  6
Continuous
 62
     7
370
    15
100
AcDbLine
 10
3.1099628183
 20
-3.9787725832
 30
0.0
 11
3.1296218428
 21
-3.9633277837
 31
0.0
  0
LINE
  5
4B2
330
1F
100
AcDbEntity
  8
0
  6
Continuous
 62
     7
370
    15
100
AcDbLine
 10
3.0887148121
 20
-3.9636429972
 30
0.0
 11
3.1099628183
 21
-3.9787725832
 31
0.0
  0
LINE
  5
4B3
330
1F
100
AcDbEntity
  8
0
  6
Continuous
 62
     7
370
    15
100
AcDbLine
 10
3.0671436713
 20
-3.9487503972
 30
0.0
 11
3.0887148121
 21
-3.9636429972
 31
0.0
  0
LINE
  5
4B4
330
1F
100
AcDbEntity
  8
0
  6
Continuous
 62
     7
370
    15
100
AcDbLine
 10
3.0366150507
 20
-3.9722750451
 30
0.0
 11
3.0671436713
 21
-3.9487503972
 31
0.0
  0
LINE
  5
4B5
330
1F
100
AcDbEntity
  8
0
  6
Continuous
 62
     7
370
    15
100
AcDbLine
 10
3.0452956823
 20
-3.9970988488
 30
0.0
 11
3.0366150507
 21
-3.9722750451
 31
0.0
  0
LINE
  5
4B6
330
1F
100
AcDbEntity
  8
0
  6
Continuous
 62
     7
370
    15
100
AcDbLine
 10
3.0542874461
 20
-4.0216698269
 30
0.0
 11
3.0452956823
 21
-3.9970988488
 31
0.0
  0
LINE
  5
4B7
330
1F
100
AcDbEntity
  8
0
  6
Continuous
 62
     7
370
    15
100
AcDbLine
 10
3.0343405192
 20
-4.0367409644
 30
0.0
 11
3.0542874461
 21
-4.0216698269
 31
0.0
  0
LINE
  5
4B8
330
1F
100
AcDbEntity
  8
0
  6
Continuous
 62
     7
370
    15
100
AcDbLine
 10
3.0133817498
 20
-4.0212131789
 30
0.0
 11
3.0343405192
 21
-4.0367409644
 31
0.0
  0
LINE
  5
4B9
330
1F
100
AcDbEntity
  8
0
  6
Continuous
 62
     7
370
    15
100
AcDbLine
 10
2.992095432
 20
-4.0059162405
 30
0.0
 11
3.0133817498
 21
-4.0212131789
 31
0.0
  0
LINE
  5
4BA
330
1F
100
AcDbEntity
  8
0
  6
Continuous
 62
     7
370
    15
100
AcDbLine
 10
2.9611283989
 20
-4.0288607081
 30
0.0
 11
2.992095432
 21
-4.0059162405
 31
0.0
  0
LINE
  5
4BB
330
1F
100
AcDbEntity
  8
0
  6
Continuous
 62
     7
370
    15
100
AcDbLine
 10
2.969339127
 20
-4.0538438733
 30
0.0
 11
2.9611283989
 21
-4.0288607081
 31
0.0
  0
LINE
  5
4BC
330
1F
100
AcDbEntity
  8
0
  6
Continuous
 62
     7
370
    15
100
AcDbLine
 10
2.9778657021
 20
-4.078580128
 30
0.0
 11
2.969339127
 21
-4.0538438733
 31
0.0
  0
LINE
  5
4BD
330
1F
100
AcDbEntity
  8
0
  6
Continuous
 62
     7
370
    15
100
AcDbLine
 10
2.957637974
 20
-4.093272238
 30
0.0
 11
2.9778657021
 21
-4.078580128
 31
0.0
  0
LINE
  5
4BE
330
1F
100
AcDbEntity
  8
0
  6
Continuous
 62
     7
370
    15
100
AcDbLine
 10
2.9369759028
 20
-4.077351781
 30
0.0
 11
2.957637974
 21
-4.093272238
 31
0.0
  0
LINE
  5
4BF
330
1F
100
AcDbEntity
  8
0
  6
Continuous
 62
     7
370
    15
100
AcDbLine
 10
2.915981986
 20
-4.0616559501
 30
0.0
 11
2.9369759028
 21
-4.077351781
 31
0.0
  0
LINE
  5
4C0
330
1F
100
AcDbEntity
  8
0
  6
Continuous
 62
     7
370
    15
100
AcDbLine
 10
2.8845875649
 20
-4.0840120691
 30
0.0
 11
2.915981986
 21
-4.0616559501
 31
0.0
  0
LINE
  5
4C1
330
1F
100
AcDbEntity
  8
0
  6
Continuous
 62
     7
370
    15
100
AcDbLine
 10
2.8923254665
 20
-4.1091457015
 30
0.0
 11
2.8845875649
 21
-4.0840120691
 31
0.0
  0
LINE
  5
4C2
330
1F
100
AcDbEntity
  8
0
  6
Continuous
 62
     7
370
    15
100
AcDbLine
 10
2.9003838174
 20
-4.1340384265
 30
0.0
 11
2.8923254665
 21
-4.1091457015
 31
0.0
  0
LINE
  5
4C3
330
1F
100
AcDbEntity
  8
0
  6
Continuous
 62
     7
370
    15
100
AcDbLine
 10
2.8798824894
 20
-4.1483462786
 30
0.0
 11
2.9003838174
 21
-4.1340384265
 31
0.0
  0
LINE
  5
4C4
330
1F
100
AcDbEntity
  8
0
  6
Continuous
 62
     7
370
    15
100
AcDbLine
 10
2.8595244723
 20
-4.1320388179
 30
0.0
 11
2.8798824894
 21
-4.1483462786
 31
0.0
  0
LINE
  5
4C5
330
1F
100
AcDbEntity
  8
0
  6
Continuous
 62
     7
370
    15
100
AcDbLine
 10
2.8388304305
 20
-4.1159496823
 30
0.0
 11
2.8595244723
 21
-4.1320388179
 31
0.0
  0
LINE
  5
4C6
330
1F
100
AcDbEntity
  8
0
  6
Continuous
 62
     7
370
    15
100
AcDbLine
 10
2.807019798
 20
-4.1377094937
 30
0.0
 11
2.8388304305
 21
-4.1159496823
 31
0.0
  0
LINE
  5
4C7
330
1F
100
AcDbEntity
  8
0
  6
Continuous
 62
     7
370
    15
100
AcDbLine
 10
2.8142821183
 20
-4.1629846455
 30
0.0
 11
2.807019798
 21
-4.1377094937
 31
0.0
  0
LINE
  5
4C8
330
1F
100
AcDbEntity
  8
0
  6
Continuous
 62
     7
370
    15
100
AcDbLine
 10
2.8218693761
 20
-4.1880249789
 30
0.0
 11
2.8142821183
 21
-4.1629846455
 31
0.0
  0
LINE
  5
4C9
330
1F
100
AcDbEntity
  8
0
  6
Continuous
 62
     7
370
    15
100
AcDbLine
 10
2.8011017469
 20
-4.2019434794
 30
0.0
 11
2.8218693761
 21
-4.1880249789
 31
0.0
  0
LINE
  5
4CA
330
1F
100
AcDbEntity
  8
0
  6
Continuous
 62
     7
370
    15
100
AcDbLine
 10
2.7810550313
 20
-4.1852548205
 30
0.0
 11
2.8011017469
 21
-4.2019434794
 31
0.0
  0
LINE
  5
4CB
330
1F
100
AcDbEntity
  8
0
  6
Continuous
 62
     7
370
    15
100
AcDbLine
 10
2.7606682318
 20
-4.168778108
 30
0.0
 11
2.7810550313
 21
-4.1852548205
 31
0.0
  0
LINE
  5
4CC
330
1F
100
AcDbEntity
  8
0
  6
Continuous
 62
     7
370
    15
100
AcDbLine
 10
2.7284527127
 20
-4.1899338652
 30
0.0
 11
2.7606682318
 21
-4.168778108
 31
0.0
  0
LINE
  5
4CD
330
1F
100
AcDbEntity
  8
0
  6
Continuous
 62
     7
370
    15
100
AcDbLine
 10
2.7352368662
 20
-4.2153415384
 30
0.0
 11
2.7284527127
 21
-4.1899338652
 31
0.0
  0
LINE
  5
4CE
330
1F
100
AcDbEntity
  8
0
  6
Continuous
 62
     7
370
    15
100
AcDbLine
 10
2.7423503299
 20
-4.2405205657
 30
0.0
 11
2.7352368662
 21
-4.2153415384
 31
0.0
  0
LINE
  5
4CF
330
1F
100
AcDbEntity
  8
0
  6
Continuous
 62
     7
370
    15
100
AcDbLine
 10
2.7213237928
 20
-4.2540447594
 30
0.0
 11
2.7423503299
 21
-4.2405205657
 31
0.0
  0
LINE
  5
4D0
330
1F
100
AcDbEntity
  8
0
  6
Continuous
 62
     7
370
    15
100
AcDbLine
 10
2.7015955157
 20
-4.2369808437
 30
0.0
 11
2.7213237928
 21
-4.2540447594
 31
0.0
  0
LINE
  5
4D1
330
1F
100
AcDbEntity
  8
0
  6
Continuous
 62
     7
370
    15
100
AcDbLine
 10
2.6815232162
 20
-4.2201224201
 30
0.0
 11
2.7015955157
 21
-4.2369808437
 31
0.0
  0
LINE
  5
4D2
330
1F
100
AcDbEntity
  8
0
  6
Continuous
 62
     7
370
    15
100
AcDbLine
 10
2.6489142794
 20
-4.2406665915
 30
0.0
 11
2.6815232162
 21
-4.2201224201
 31
0.0
  0
LINE
  5
4D3
330
1F
100
AcDbEntity
  8
0
  6
Continuous
 62
     7
370
    15
100
AcDbLine
 10
2.6552178511
 20
-4.2661977408
 30
0.0
 11
2.6489142794
 21
-4.2406665915
 31
0.0
  0
LINE
  5
4D4
330
1F
100
AcDbEntity
  8
0
  6
Continuous
 62
     7
370
    15
100
AcDbLine
 10
2.6618549882
 20
-4.2915064979
 30
0.0
 11
2.6552178511
 21
-4.2661977408
 31
0.0
  0
LINE
  5
4D5
330
1F
100
AcDbEntity
  8
0
  6
Continuous
 62
     7
370
    15
100
AcDbLine
 10
2.6405770288
 20
-4.3046315702
 30
0.0
 11
2.6618549882
 21
-4.2915064979
 31
0.0
  0
LINE
  5
4D6
330
1F
100
AcDbEntity
  8
0
  6
Continuous
 62
     7
370
    15
100
AcDbLine
 10
2.6211742134
 20
-4.2871984725
 30
0.0
 11
2.6405770288
 21
-4.3046315702
 31
0.0
  0
LINE
  5
4D7
330
1F
100
AcDbEntity
  8
0
  6
Continuous
 62
     7
370
    15
100
AcDbLine
 10
2.6014235599
 20
-4.2699643397
 30
0.0
 11
2.6211742134
 21
-4.2871984725
 31
0.0
  0
LINE
  5
4D8
330
1F
100
AcDbEntity
  8
0
  6
Continuous
 62
     7
370
    15
100
AcDbLine
 10
2.5684328145
 20
-4.2898896113
 30
0.0
 11
2.6014235599
 21
-4.2699643397
 31
0.0
  0
LINE
  5
4D9
330
1F
100
AcDbEntity
  8
0
  6
Continuous
 62
     7
370
    15
100
AcDbLine
 10
2.5742535601
 20
-4.3155351474
 30
0.0
 11
2.5684328145
 21
-4.2898896113
 31
0.0
  0
LINE
  5
4DA
330
1F
100
AcDbEntity
  8
0
  6
Continuous
 62
     7
370
    15
100
AcDbLine
 10
2.5804120078
 20
-4.3409646244
 30
0.0
 11
2.5742535601
 21
-4.3155351474
 31
0.0
  0
LINE
  5
4DB
330
1F
100
AcDbEntity
  8
0
  6
Continuous
 62
     7
370
    15
100
AcDbLine
 10
2.5588902012
 20
-4.3536859026
 30
0.0
 11
2.5804120078
 21
-4.3409646244
 31
0.0
  0
LINE
  5
4DC
330
1F
100
AcDbEntity
  8
0
  6
Continuous
 62
     7
370
    15
100
AcDbLine
 10
2.5398197552
 20
-4.3358898292
 30
0.0
 11
2.5588902012
 21
-4.3536859026
 31
0.0
  0
LINE
  5
4DD
330
1F
100
AcDbEntity
  8
0
  6
Continuous
 62
     7
370
    15
100
AcDbLine
 10
2.520397779
 20
-4.3182861225
 30
0.0
 11
2.5398197552
 21
-4.3358898292
 31
0.0
  0
LINE
  5
4DE
330
1F
100
AcDbEntity
  8
0
  6
Continuous
 62
     7
370
    15
100
AcDbLine
 10
2.4870369699
 20
-4.337585401
 30
0.0
 11
2.520397779
 21
-4.3182861225
 31
0.0
  0
LINE
  5
4DF
330
1F
100
AcDbEntity
  8
0
  6
Continuous
 62
     7
370
    15
100
AcDbLine
 10
2.4923728172
 20
-4.3633361938
 30
0.0
 11
2.4870369699
 21
-4.337585401
 31
0.0
  0
LINE
  5
4E0
330
1F
100
AcDbEntity
  8
0
  6
Continuous
 62
     7
370
    15
100
AcDbLine
 10
2.4980503829
 20
-4.3888773376
 30
0.0
 11
2.4923728172
 21
-4.3633361938
 31
0.0
  0
LINE
  5
4E1
330
1F
100
AcDbEntity
  8
0
  6
Continuous
 62
     7
370
    15
100
AcDbLine
 10
2.4762923911
 20
-4.4011902929
 30
0.0
 11
2.4980503829
 21
-4.3888773376
 31
0.0
  0
LINE
  5
4E2
330
1F
100
AcDbEntity
  8
0
  6
Continuous
 62
     7
370
    15
100
AcDbLine
 10
2.4575611036
 20
-4.3830375794
 30
0.0
 11
2.4762923911
 21
-4.4011902929
 31
0.0
  0
LINE
  5
4E3
330
1F
100
AcDbEntity
  8
0
  6
Continuous
 62
     7
370
    15
100
AcDbLine
 10
2.4384747191
 20
-4.3650705658
 30
0.0
 11
2.4575611036
 21
-4.3830375794
 31
0.0
  0
LINE
  5
4E4
330
1F
100
AcDbEntity
  8
0
  6
Continuous
 62
     7
370
    15
100
AcDbLine
 10
2.4047557229
 20
-4.3837369804
 30
0.0
 11
2.4384747191
 21
-4.3650705658
 31
0.0
  0
LINE
  5
4E5
330
1F
100
AcDbEntity
  8
0
  6
Continuous
 62
     7
370
    15
100
AcDbLine
 10
2.4096047725
 20
-4.4095838625
 30
0.0
 11
2.4047557229
 21
-4.3837369804
 31
0.0
  0
LINE
  5
4E6
330
1F
100
AcDbEntity
  8
0
  6
Continuous
 62
     7
370
    15
100
AcDbLine
 10
2.414799435
 20
-4.4352275803
 30
0.0
 11
2.4096047725
 21
-4.4095838625
 31
0.0
  0
LINE
  5
4E7
330
1F
100
AcDbEntity
  8
0
  6
Continuous
 62
     7
370
    15
100
AcDbLine
 10
2.3928130038
 20
-4.4471278291
 30
0.0
 11
2.414799435
 21
-4.4352275803
 31
0.0
  0
LINE
  5
4E8
330
1F
100
AcDbEntity
  8
0
  6
Continuous
 62
     7
370
    15
100
AcDbLine
 10
2.3744275434
 20
-4.428624938
 30
0.0
 11
2.3928130038
 21
-4.4471278291
 31
0.0
  0
LINE
  5
4E9
330
1F
100
AcDbEntity
  8
0
  6
Continuous
 62
     7
370
    15
100
AcDbLine
 10
2.3556835454
 20
-4.410301014
 30
0.0
 11
2.3744275434
 21
-4.428624938
 31
0.0
  0
LINE
  5
4EA
330
1F
100
AcDbEntity
  8
0
  6
Continuous
 62
     7
370
    15
100
AcDbLine
 10
2.3216183665
 20
-4.4283279193
 30
0.0
 11
2.3556835454
 21
-4.410301014
 31
0.0
  0
LINE
  5
4EB
330
1F
100
AcDbEntity
  8
0
  6
Continuous
 62
     7
370
    15
100
AcDbLine
 10
2.3259788918
 20
-4.4542616891
 30
0.0
 11
2.3216183665
 21
-4.4283279193
 31
0.0
  0
LINE
  5
4EC
330
1F
100
AcDbEntity
  8
0
  6
Continuous
 62
     7
370
    15
100
AcDbLine
 10
2.3306888018
 20
-4.4799988515
 30
0.0
 11
2.3259788918
 21
-4.4542616891
 31
0.0
  0
LINE
  5
4ED
330
1F
100
AcDbEntity
  8
0
  6
Continuous
 62
     7
370
    15
100
AcDbLine
 10
2.3084817587
 20
-4.4914821573
 30
0.0
 11
2.3306888018
 21
-4.4799988515
 31
0.0
  0
LINE
  5
4EE
330
1F
100
AcDbEntity
  8
0
  6
Continuous
 62
     7
370
    15
100
AcDbLine
 10
2.2904486706
 20
-4.4726356757
 30
0.0
 11
2.3084817587
 21
-4.4914821573
 31
0.0
  0
LINE
  5
4EF
330
1F
100
AcDbEntity
  8
0
  6
Continuous
 62
     7
370
    15
100
AcDbLine
 10
2.2720537322
 20
-4.4539613647
 30
0.0
 11
2.2904486706
 21
-4.4726356757
 31
0.0
  0
LINE
  5
4F0
330
1F
100
AcDbEntity
  8
0
  6
Continuous
 62
     7
370
    15
100
AcDbLine
 10
2.2376544979
 20
-4.471342343
 30
0.0
 11
2.2720537322
 21
-4.4539613647
 31
0.0
  0
LINE
  5
4F1
330
1F
100
AcDbEntity
  8
0
  6
Continuous
 62
     7
370
    15
100
AcDbLine
 10
2.2415249467
 20
-4.4973537679
 30
0.0
 11
2.2376544979
 21
-4.471342343
 31
0.0
  0
LINE
  5
4F2
330
1F
100
AcDbEntity
  8
0
  6
Continuous
 62
     7
370
    15
100
AcDbLine
 10
2.2457484274
 20
-4.5231752122
 30
0.0
 11
2.2415249467
 21
-4.4973537679
 31
0.0
  0
LINE
  5
4F3
330
1F
100
AcDbEntity
  8
0
  6
Continuous
 62
     7
370
    15
100
AcDbLine
 10
2.2233286782
 20
-4.534237487
 30
0.0
 11
2.2457484274
 21
-4.5231752122
 31
0.0
  0
LINE
  5
4F4
330
1F
100
AcDbEntity
  8
0
  6
Continuous
 62
     7
370
    15
100
AcDbLine
 10
2.2056543824
 20
-4.5150541243
 30
0.0
 11
2.2233286782
 21
-4.534237487
 31
0.0
  0
LINE
  5
4F5
330
1F
100
AcDbEntity
  8
0
  6
Continuous
 62
     7
370
    15
100
AcDbLine
 10
2.1876150523
 20
-4.4960360745
 30
0.0
 11
2.2056543824
 21
-4.5150541243
 31
0.0
  0
LINE
  5
4F6
330
1F
100
AcDbEntity
  8
0
  6
Continuous
 62
     7
370
    15
100
AcDbLine
 10
2.1528940089
 20
-4.5127649381
 30
0.0
 11
2.1876150523
 21
-4.4960360745
 31
0.0
  0
LINE
  5
4F7
330
1F
100
AcDbEntity
  8
0
  6
Continuous
 62
     7
370
    15
100
AcDbLine
 10
2.1562730033
 20
-4.5388447578
 30
0.0
 11
2.1528940089
 21
-4.5127649381
 31
0.0
  0
LINE
  5
4F8
330
1F
100
AcDbEntity
  8
0
  6
Continuous
 62
     7
370
    15
100
AcDbLine
 10
2.1600085512
 20
-4.5647412916
 30
0.0
 11
2.1562730033
 21
-4.5388447578
 31
0.0
  0
LINE
  5
4F9
330
1F
100
AcDbEntity
  8
0
  6
Continuous
 62
     7
370
    15
100
AcDbLine
 10
2.1373840775
 20
-4.5753785969
 30
0.0
 11
2.1600085512
 21
-4.5647412916
 31
0.0
  0
LINE
  5
4FA
330
1F
100
AcDbEntity
  8
0
  6
Continuous
 62
     7
370
    15
100
AcDbLine
 10
2.1200748661
 20
-4.5558651826
 30
0.0
 11
2.1373840775
 21
-4.5753785969
 31
0.0
  0
LINE
  5
4FB
330
1F
100
AcDbEntity
  8
0
  6
Continuous
 62
     7
370
    15
100
AcDbLine
 10
2.1023975663
 20
-4.5365101645
 30
0.0
 11
2.1200748661
 21
-4.5558651826
 31
0.0
  0
LINE
  5
4FC
330
1F
100
AcDbEntity
  8
0
  6
Continuous
 62
     7
370
    15
100
AcDbLine
 10
2.0673670749
 20
-4.5525809579
 30
0.0
 11
2.1023975663
 21
-4.5365101645
 31
0.0
  0
LINE
  5
4FD
330
1F
100
AcDbEntity
  8
0
  6
Continuous
 62
     7
370
    15
100
AcDbLine
 10
2.0702534119
 20
-4.5787198878
 30
0.0
 11
2.0673670749
 21
-4.5525809579
 31
0.0
  0
LINE
  5
4FE
330
1F
100
AcDbEntity
  8
0
  6
Continuous
 62
     7
370
    15
100
AcDbLine
 10
2.073499697
 20
-4.6046822916
 30
0.0
 11
2.0702534119
 21
-4.5787198878
 31
0.0
  0
LINE
  5
4FF
330
1F
100
AcDbEntity
  8
0
  6
Continuous
 62
     7
370
    15
100
AcDbLine
 10
2.0506785533
 20
-4.6148908407
 30
0.0
 11
2.073499697
 21
-4.6046822916
 31
0.0
  0
LINE
  5
500
330
1F
100
AcDbEntity
  8
0
  6
Continuous
 62
     7
370
    15
100
AcDbLine
 10
2.0337405885
 20
-4.5950543216
 30
0.0
 11
2.0506785533
 21
-4.6148908407
 31
0.0
  0
LINE
  5
501
330
1F
100
AcDbEntity
  8
0
  6
Continuous
 62
     7
370
    15
100
AcDbLine
 10
2.0164316124
 20
-4.5753692258
 30
0.0
 11
2.0337405885
 21
-4.5950543216
 31
0.0
  0
LINE
  5
502
330
1F
100
AcDbEntity
  8
0
  6
Continuous
 62
     7
370
    15
100
AcDbLine
 10
1.9811041439
 20
-4.5907762275
 30
0.0
 11
2.0164316124
 21
-4.5753692258
 31
0.0
  0
LINE
  5
503
330
1F
100
AcDbEntity
  8
0
  6
Continuous
 62
     7
370
    15
100
AcDbLine
 10
1.983496796
 20
-4.616964962
 30
0.0
 11
1.9811041439
 21
-4.5907762275
 31
0.0
  0
LINE
  5
504
330
1F
100
AcDbEntity
  8
0
  6
Continuous
 62
     7
370
    15
100
AcDbLine
 10
1.9862526627
 20
-4.6429839931
 30
0.0
 11
1.983496796
 21
-4.616964962
 31
0.0
  0
LINE
  5
505
330
1F
100
AcDbEntity
  8
0
  6
Continuous
 62
     7
370
    15
100
AcDbLine
 10
1.9632429734
 20
-4.6527601515
 30
0.0
 11
1.9862526627
 21
-4.6429839931
 31
0.0
  0
LINE
  5
506
330
1F
100
AcDbEntity
  8
0
  6
Continuous
 62
     7
370
    15
100
AcDbLine
 10
1.9466822853
 20
-4.6326075897
 30
0.0
 11
1.9632429734
 21
-4.6527601515
 31
0.0
  0
LINE
  5
507
330
1F
100
AcDbEntity
  8
0
  6
Continuous
 62
     7
370
    15
100
AcDbLine
 10
1.929747795
 20
-4.6125994242
 30
0.0
 11
1.9466822853
 21
-4.6326075897
 31
0.0
  0
LINE
  5
508
330
1F
100
AcDbEntity
  8
0
  6
Continuous
 62
     7
370
    15
100
AcDbLine
 10
1.8941359263
 20
-4.6273371492
 30
0.0
 11
1.929747795
 21
-4.6125994242
 31
0.0
  0
LINE
  5
509
330
1F
100
AcDbEntity
  8
0
  6
Continuous
 62
     7
370
    15
100
AcDbLine
 10
1.8960340416
 20
-4.6535663649
 30
0.0
 11
1.8941359263
 21
-4.6273371492
 31
0.0
  0
LINE
  5
50A
330
1F
100
AcDbEntity
  8
0
  6
Continuous
 62
     7
370
    15
100
AcDbLine
 10
1.8982985088
 20
-4.6796327603
 30
0.0
 11
1.8960340416
 21
-4.6535663649
 31
0.0
  0
LINE
  5
50B
330
1F
100
AcDbEntity
  8
0
  6
Continuous
 62
     7
370
    15
100
AcDbLine
 10
1.8751084655
 20
-4.6889730478
 30
0.0
 11
1.8982985088
 21
-4.6796327603
 31
0.0
  0
LINE
  5
50C
330
1F
100
AcDbEntity
  8
0
  6
Continuous
 62
     7
370
    15
100
AcDbLine
 10
1.8589309498
 20
-4.6685116176
 30
0.0
 11
1.8751084655
 21
-4.6889730478
 31
0.0
  0
LINE
  5
50D
330
1F
100
AcDbEntity
  8
0
  6
Continuous
 62
     7
370
    15
100
AcDbLine
 10
1.8423769741
 20
-4.6481875054
 30
0.0
 11
1.8589309498
 21
-4.6685116176
 31
0.0
  0
LINE
  5
50E
330
1F
100
AcDbEntity
  8
0
  6
Continuous
 62
     7
370
    15
100
AcDbLine
 10
1.8064933832
 20
-4.6622507071
 30
0.0
 11
1.8423769741
 21
-4.6481875054
 31
0.0
  0
LINE
  5
50F
330
1F
100
AcDbEntity
  8
0
  6
Continuous
 62
     7
370
    15
100
AcDbLine
 10
1.8078962861
 20
-4.6885110663
 30
0.0
 11
1.8064933832
 21
-4.6622507071
 31
0.0
  0
LINE
  5
510
330
1F
100
AcDbEntity
  8
0
  6
Continuous
 62
     7
370
    15
100
AcDbLine
 10
1.8096685476
 20
-4.7146155461
 30
0.0
 11
1.8078962861
 21
-4.6885110663
 31
0.0
  0
LINE
  5
511
330
1F
100
AcDbEntity
  8
0
  6
Continuous
 62
     7
370
    15
100
AcDbLine
 10
1.7863064061
 20
-4.7235166374
 30
0.0
 11
1.8096685476
 21
-4.7146155461
 31
0.0
  0
LINE
  5
512
330
1F
100
AcDbEntity
  8
0
  6
Continuous
 62
     7
370
    15
100
AcDbLine
 10
1.7705178221
 20
-4.7027536233
 30
0.0
 11
1.7863064061
 21
-4.7235166374
 31
0.0
  0
LINE
  5
513
330
1F
100
AcDbEntity
  8
0
  6
Continuous
 62
     7
370
    15
100
AcDbLine
 10
1.7543502543
 20
-4.6821208
 30
0.0
 11
1.7705178221
 21
-4.7027536233
 31
0.0
  0
LINE
  5
514
330
1F
100
AcDbEntity
  8
0
  6
Continuous
 62
     7
370
    15
100
AcDbLine
 10
1.7182077161
 20
-4.6955044717
 30
0.0
 11
1.7543502543
 21
-4.6821208
 31
0.0
  0
LINE
  5
515
330
1F
100
AcDbEntity
  8
0
  6
Continuous
 62
     7
370
    15
100
AcDbLine
 10
1.7191149071
 20
-4.7217866254
 30
0.0
 11
1.7182077161
 21
-4.6955044717
 31
0.0
  0
LINE
  5
516
330
1F
100
AcDbEntity
  8
0
  6
Continuous
 62
     7
370
    15
100
AcDbLine
 10
1.7203943319
 20
-4.7479198964
 30
0.0
 11
1.7191149071
 21
-4.7217866254
 31
0.0
  0
LINE
  5
517
330
1F
100
AcDbEntity
  8
0
  6
Continuous
 62
     7
370
    15
100
AcDbLine
 10
1.6968684094
 20
-4.7563786226
 30
0.0
 11
1.7203943319
 21
-4.7479198964
 31
0.0
  0
LINE
  5
518
330
1F
100
AcDbEntity
  8
0
  6
Continuous
 62
     7
370
    15
100
AcDbLine
 10
1.6814743779
 20
-4.7353214164
 30
0.0
 11
1.6968684094
 21
-4.7563786226
 31
0.0
  0
LINE
  5
519
330
1F
100
AcDbEntity
  8
0
  6
Continuous
 62
     7
370
    15
100
AcDbLine
 10
1.6656989737
 20
-4.7143872273
 30
0.0
 11
1.6814743779
 21
-4.7353214164
 31
0.0
  0
LINE
  5
51A
330
1F
100
AcDbEntity
  8
0
  6
Continuous
 62
     7
370
    15
100
AcDbLine
 10
1.6293103553
 20
-4.7270866045
 30
0.0
 11
1.6656989737
 21
-4.7143872273
 31
0.0
  0
LINE
  5
51B
330
1F
100
AcDbEntity
  8
0
  6
Continuous
 62
     7
370
    15
100
AcDbLine
 10
1.6297215113
 20
-4.7533811961
 30
0.0
 11
1.6293103553
 21
-4.7270866045
 31
0.0
  0
LINE
  5
51C
330
1F
100
AcDbEntity
  8
0
  6
Continuous
 62
     7
370
    15
100
AcDbLine
 10
1.630507644
 20
-4.7795339546
 30
0.0
 11
1.6297215113
 21
-4.7533811961
 31
0.0
  0
LINE
  5
51D
330
1F
100
AcDbEntity
  8
0
  6
Continuous
 62
     7
370
    15
100
AcDbLine
 10
1.6068263159
 20
-4.7875473043
 30
0.0
 11
1.630507644
 21
-4.7795339546
 31
0.0
  0
LINE
  5
51E
330
1F
100
AcDbEntity
  8
0
  6
Continuous
 62
     7
370
    15
100
AcDbLine
 10
1.5918323173
 20
-4.7662034025
 30
0.0
 11
1.6068263159
 21
-4.7875473043
 31
0.0
  0
LINE
  5
51F
330
1F
100
AcDbEntity
  8
0
  6
Continuous
 62
     7
370
    15
100
AcDbLine
 10
1.5764546929
 20
-4.7449753004
 30
0.0
 11
1.5918323173
 21
-4.7662034025
 31
0.0
  0
LINE
  5
520
330
1F
100
AcDbEntity
  8
0
  6
Continuous
 62
     7
370
    15
100
AcDbLine
 10
1.5398329487
 20
-4.7569858619
 30
0.0
 11
1.5764546929
 21
-4.7449753004
 31
0.0
  0
LINE
  5
521
330
1F
100
AcDbEntity
  8
0
  6
Continuous
 62
     7
370
    15
100
AcDbLine
 10
1.5397479235
 20
-4.7832835304
 30
0.0
 11
1.5398329487
 21
-4.7569858619
 31
0.0
  0
LINE
  5
522
330
1F
100
AcDbEntity
  8
0
  6
Continuous
 62
     7
370
    15
100
AcDbLine
 10
1.5400404842
 20
-4.8094464658
 30
0.0
 11
1.5397479235
 21
-4.7832835304
 31
0.0
  0
LINE
  5
523
330
1F
100
AcDbEntity
  8
0
  6
Continuous
 62
     7
370
    15
100
AcDbLine
 10
1.5162121811
 20
-4.8170115862
 30
0.0
 11
1.5400404842
 21
-4.8094464658
 31
0.0
  0
LINE
  5
524
330
1F
100
AcDbEntity
  8
0
  6
Continuous
 62
     7
370
    15
100
AcDbLine
 10
1.5016235534
 20
-4.7953885874
 30
0.0
 11
1.5162121811
 21
-4.8170115862
 31
0.0
  0
LINE
  5
525
330
1F
100
AcDbEntity
  8
0
  6
Continuous
 62
     7
370
    15
100
AcDbLine
 10
1.4866491833
 20
-4.7738741296
 30
0.0
 11
1.5016235534
 21
-4.7953885874
 31
0.0
  0
LINE
  5
526
330
1F
100
AcDbEntity
  8
0
  6
Continuous
 62
     7
370
    15
100
AcDbLine
 10
1.4498073511
 20
-4.7851915996
 30
0.0
 11
1.4866491833
 21
-4.7738741296
 31
0.0
  0
LINE
  5
527
330
1F
100
AcDbEntity
  8
0
  6
Continuous
 62
     7
370
    15
100
AcDbLine
 10
1.4492261749
 20
-4.8114829828
 30
0.0
 11
1.4498073511
 21
-4.7851915996
 31
0.0
  0
LINE
  5
528
330
1F
100
AcDbEntity
  8
0
  6
Continuous
 62
     7
370
    15
100
AcDbLine
 10
1.4490250594
 20
-4.8376467809
 30
0.0
 11
1.4492261749
 21
-4.8114829828
 31
0.0
  0
LINE
  5
529
330
1F
100
AcDbEntity
  8
0
  6
Continuous
 62
     7
370
    15
100
AcDbLine
 10
1.4250582644
 20
-4.8447609789
 30
0.0
 11
1.4490250594
 21
-4.8376467809
 31
0.0
  0
LINE
  5
52A
330
1F
100
AcDbEntity
  8
0
  6
Continuous
 62
     7
370
    15
100
AcDbLine
 10
1.4108802012
 20
-4.822866581
 30
0.0
 11
1.4250582644
 21
-4.8447609789
 31
0.0
  0
LINE
  5
52B
330
1F
100
AcDbEntity
  8
0
  6
Continuous
 62
     7
370
    15
100
AcDbLine
 10
1.3963144165
 20
-4.8010734269
 30
0.0
 11
1.4108802012
 21
-4.822866581
 31
0.0
  0
LINE
  5
52C
330
1F
100
AcDbEntity
  8
0
  6
Continuous
 62
     7
370
    15
100
AcDbLine
 10
1.359265612
 20
-4.8116937762
 30
0.0
 11
1.3963144165
 21
-4.8010734269
 31
0.0
  0
LINE
  5
52D
330
1F
100
AcDbEntity
  8
0
  6
Continuous
 62
     7
370
    15
100
AcDbLine
 10
1.3581884917
 20
-4.8379695143
 30
0.0
 11
1.359265612
 21
-4.8116937762
 31
0.0
  0
LINE
  5
52E
330
1F
100
AcDbEntity
  8
0
  6
Continuous
 62
     7
370
    15
100
AcDbLine
 10
1.3574937717
 20
-4.8641248606
 30
0.0
 11
1.3581884917
 21
-4.8379695143
 31
0.0
  0
LINE
  5
52F
330
1F
100
AcDbEntity
  8
0
  6
Continuous
 62
     7
370
    15
100
AcDbLine
 10
1.3333970171
 20
-4.8707856035
 30
0.0
 11
1.3574937717
 21
-4.8641248606
 31
0.0
  0
LINE
  5
530
330
1F
100
AcDbEntity
  8
0
  6
Continuous
 62
     7
370
    15
100
AcDbLine
 10
1.319634566
 20
-4.8486276009
 30
0.0
 11
1.3333970171
 21
-4.8707856035
 31
0.0
  0
LINE
  5
531
330
1F
100
AcDbEntity
  8
0
  6
Continuous
 62
     7
370
    15
100
AcDbLine
 10
1.3054825521
 20
-4.826563509
 30
0.0
 11
1.319634566
 21
-4.8486276009
 31
0.0
  0
LINE
  5
532
330
1F
100
AcDbEntity
  8
0
  6
Continuous
 62
     7
370
    15
100
AcDbLine
 10
1.268239965
 20
-4.8364829568
 30
0.0
 11
1.3054825521
 21
-4.826563509
 31
0.0
  0
LINE
  5
533
330
1F
100
AcDbEntity
  8
0
  6
Continuous
 62
     7
370
    15
100
AcDbLine
 10
1.2666672841
 20
-4.8627336953
 30
0.0
 11
1.268239965
 21
-4.8364829568
 31
0.0
  0
LINE
  5
534
330
1F
100
AcDbEntity
  8
0
  6
Continuous
 62
     7
370
    15
100
AcDbLine
 10
1.2654792069
 20
-4.8888712784
 30
0.0
 11
1.2666672841
 21
-4.8627336953
 31
0.0
  0
LINE
  5
535
330
1F
100
AcDbEntity
  8
0
  6
Continuous
 62
     7
370
    15
100
AcDbLine
 10
1.2412610713
 20
-4.8950761948
 30
0.0
 11
1.2654792069
 21
-4.8888712784
 31
0.0
  0
LINE
  5
536
330
1F
100
AcDbEntity
  8
0
  6
Continuous
 62
     7
370
    15
100
AcDbLine
 10
1.2279191318
 20
-4.8726624761
 30
0.0
 11
1.2412610713
 21
-4.8950761948
 31
0.0
  0
LINE
  5
537
330
1F
100
AcDbEntity
  8
0
  6
Continuous
 62
     7
370
    15
100
AcDbLine
 10
1.2141859269
 20
-4.8503353013
 30
0.0
 11
1.2279191318
 21
-4.8726624761
 31
0.0
  0
LINE
  5
538
330
1F
100
AcDbEntity
  8
0
  6
Continuous
 62
     7
370
    15
100
AcDbLine
 10
1.1767628159
 20
-4.8595503161
 30
0.0
 11
1.2141859269
 21
-4.8503353013
 31
0.0
  0
LINE
  5
539
330
1F
100
AcDbEntity
  8
0
  6
Continuous
 62
     7
370
    15
100
AcDbLine
 10
1.1746951343
 20
-4.8857667097
 30
0.0
 11
1.1767628159
 21
-4.8595503161
 31
0.0
  0
LINE
  5
53A
330
1F
100
AcDbEntity
  8
0
  6
Continuous
 62
     7
370
    15
100
AcDbLine
 10
1.1730141228
 20
-4.9118772244
 30
0.0
 11
1.1746951343
 21
-4.8857667097
 31
0.0
  0
LINE
  5
53B
330
1F
100
AcDbEntity
  8
0
  6
Continuous
 62
     7
370
    15
100
AcDbLine
 10
1.1486832281
 20
-4.9176241054
 30
0.0
 11
1.1730141228
 21
-4.9118772244
 31
0.0
  0
LINE
  5
53C
330
1F
100
AcDbEntity
  8
0
  6
Continuous
 62
     7
370
    15
100
AcDbLine
 10
1.1357665499
 20
-4.8949626499
 30
0.0
 11
1.1486832281
 21
-4.9176241054
 31
0.0
  0
LINE
  5
53D
330
1F
100
AcDbEntity
  8
0
  6
Continuous
 62
     7
370
    15
100
AcDbLine
 10
1.1224570432
 20
-4.8723803409
 30
0.0
 11
1.1357665499
 21
-4.8949626499
 31
0.0
  0
LINE
  5
53E
330
1F
100
AcDbEntity
  8
0
  6
Continuous
 62
     7
370
    15
100
AcDbLine
 10
1.0848667312
 20
-4.8808876422
 30
0.0
 11
1.1224570432
 21
-4.8723803409
 31
0.0
  0
LINE
  5
53F
330
1F
100
AcDbEntity
  8
0
  6
Continuous
 62
     7
370
    15
100
AcDbLine
 10
1.0823047849
 20
-4.9070603575
 30
0.0
 11
1.0848667312
 21
-4.8808876422
 31
0.0
  0
LINE
  5
540
330
1F
100
AcDbEntity
  8
0
  6
Continuous
 62
     7
370
    15
100
AcDbLine
 10
1.0801314376
 20
-4.9331345084
 30
0.0
 11
1.0823047849
 21
-4.9070603575
 31
0.0
  0
LINE
  5
541
330
1F
100
AcDbEntity
  8
0
  6
Continuous
 62
     7
370
    15
100
AcDbLine
 10
1.0556964457
 20
-4.9384213079
 30
0.0
 11
1.0801314376
 21
-4.9331345084
 31
0.0
  0
LINE
  5
542
330
1F
100
AcDbEntity
  8
0
  6
Continuous
 62
     7
370
    15
100
AcDbLine
 10
1.0432096273
 20
-4.9155201834
 30
0.0
 11
1.0556964457
 21
-4.9384213079
 31
0.0
  0
LINE
  5
543
330
1F
100
AcDbEntity
  8
0
  6
Continuous
 62
     7
370
    15
100
AcDbLine
 10
1.0303285571
 20
-4.8926907796
 30
0.0
 11
1.0432096273
 21
-4.9155201834
 31
0.0
  0
LINE
  5
544
330
1F
100
AcDbEntity
  8
0
  6
Continuous
 62
     7
370
    15
100
AcDbLine
 10
0.9925844264
 20
-4.9004873387
 30
0.0
 11
1.0303285571
 21
-4.8926907796
 31
0.0
  0
LINE
  5
545
330
1F
100
AcDbEntity
  8
0
  6
Continuous
 62
     7
370
    15
100
AcDbLine
 10
0.9895291276
 20
-4.9266070582
 30
0.0
 11
0.9925844264
 21
-4.9004873387
 31
0.0
  0
LINE
  5
546
330
1F
100
AcDbEntity
  8
0
  6
Continuous
 62
     7
370
    15
100
AcDbLine
 10
0.9868642182
 20
-4.9526355625
 30
0.0
 11
0.9895291276
 21
-4.9266070582
 31
0.0
  0
LINE
  5
547
330
1F
100
AcDbEntity
  8
0
  6
Continuous
 62
     7
370
    15
100
AcDbLine
 10
0.9623338281
 20
-4.9574603986
 30
0.0
 11
0.9868642182
 21
-4.9526355625
 31
0.0
  0
LINE
  5
548
330
1F
100
AcDbEntity
  8
0
  6
Continuous
 62
     7
370
    15
100
AcDbLine
 10
0.9502813149
 20
-4.9343277579
 30
0.0
 11
0.9623338281
 21
-4.9574603986
 31
0.0
  0
LINE
  5
549
330
1F
100
AcDbEntity
  8
0
  6
Continuous
 62
     7
370
    15
100
AcDbLine
 10
0.9378332669
 20
-4.9112593867
 30
0.0
 11
0.9502813149
 21
-4.9343277579
 31
0.0
  0
LINE
  5
54A
330
1F
100
AcDbEntity
  8
0
  6
Continuous
 62
     7
370
    15
100
AcDbLine
 10
0.8999487548
 20
-4.918342428
 30
0.0
 11
0.9378332669
 21
-4.9112593867
 31
0.0
  0
LINE
  5
54B
330
1F
100
AcDbEntity
  8
0
  6
Continuous
 62
     7
370
    15
100
AcDbLine
 10
0.8964011911
 20
-4.9443998528
 30
0.0
 11
0.8999487548
 21
-4.918342428
 31
0.0
  0
LINE
  5
54C
330
1F
100
AcDbEntity
  8
0
  6
Continuous
 62
     7
370
    15
100
AcDbLine
 10
0.8932456683
 20
-4.9703734443
 30
0.0
 11
0.8964011911
 21
-4.9443998528
 31
0.0
  0
LINE
  5
54D
330
1F
100
AcDbEntity
  8
0
  6
Continuous
 62
     7
370
    15
100
AcDbLine
 10
0.8686286131
 20
-4.9747345992
 30
0.0
 11
0.8932456683
 21
-4.9703734443
 31
0.0
  0
LINE
  5
54E
330
1F
100
AcDbEntity
  8
0
  6
Continuous
 62
     7
370
    15
100
AcDbLine
 10
0.8570146959
 20
-4.9513786778
 30
0.0
 11
0.8686286131
 21
-4.9747345992
 31
0.0
  0
LINE
  5
54F
330
1F
100
AcDbEntity
  8
0
  6
Continuous
 62
     7
370
    15
100
AcDbLine
 10
0.8450041016
 20
-4.9280795517
 30
0.0
 11
0.8570146959
 21
-4.9513786778
 31
0.0
  0
LINE
  5
550
330
1F
100
AcDbEntity
  8
0
  6
Continuous
 62
     7
370
    15
100
AcDbLine
 10
0.8069926952
 20
-4.9344465536
 30
0.0
 11
0.8450041016
 21
-4.9280795517
 31
0.0
  0
LINE
  5
551
330
1F
100
AcDbEntity
  8
0
  6
Continuous
 62
     7
370
    15
100
AcDbLine
 10
0.8029541296
 20
-4.9604324071
 30
0.0
 11
0.8069926952
 21
-4.9344465536
 31
0.0
  0
LINE
  5
552
330
1F
100
AcDbEntity
  8
0
  6
Continuous
 62
     7
370
    15
100
AcDbLine
 10
0.7993091168
 20
-4.986341839
 30
0.0
 11
0.8029541296
 21
-4.9604324071
 31
0.0
  0
LINE
  5
553
330
1F
100
AcDbEntity
  8
0
  6
Continuous
 62
     7
370
    15
100
AcDbLine
 10
0.7746141603
 20
-4.9902377601
 30
0.0
 11
0.7993091168
 21
-4.986341839
 31
0.0
  0
LINE
  5
554
330
1F
100
AcDbEntity
  8
0
  6
Continuous
 62
     7
370
    15
100
AcDbLine
 10
0.7634429737
 20
-4.9666668729
 30
0.0
 11
0.7746141603
 21
-4.9902377601
 31
0.0
  0
LINE
  5
555
330
1F
100
AcDbEntity
  8
0
  6
Continuous
 62
     7
370
    15
100
AcDbLine
 10
0.7518741091
 20
-4.9431452866
 30
0.0
 11
0.7634429737
 21
-4.9666668729
 31
0.0
  0
LINE
  5
556
330
1F
100
AcDbEntity
  8
0
  6
Continuous
 62
     7
370
    15
100
AcDbLine
 10
0.7137493406
 20
-4.9487939823
 30
0.0
 11
0.7518741091
 21
-4.9431452866
 31
0.0
  0
LINE
  5
557
330
1F
100
AcDbEntity
  8
0
  6
Continuous
 62
     7
370
    15
100
AcDbLine
 10
0.7092212109
 20
-4.9746990134
 30
0.0
 11
0.7137493406
 21
-4.9487939823
 31
0.0
  0
LINE
  5
558
330
1F
100
AcDbEntity
  8
0
  6
Continuous
 62
     7
370
    15
100
AcDbLine
 10
0.7050880058
 20
-5.0005350618
 30
0.0
 11
0.7092212109
 21
-4.9746990134
 31
0.0
  0
LINE
  5
559
330
1F
100
AcDbEntity
  8
0
  6
Continuous
 62
     7
370
    15
100
AcDbLine
 10
0.6803239396
 20
-5.0039643621
 30
0.0
 11
0.7050880058
 21
-5.0005350618
 31
0.0
  0
LINE
  5
55A
330
1F
100
AcDbEntity
  8
0
  6
Continuous
 62
     7
370
    15
100
AcDbLine
 10
0.6695994606
 20
-4.9801869003
 30
0.0
 11
0.6803239396
 21
-5.0039643621
 31
0.0
  0
LINE
  5
55B
330
1F
100
AcDbEntity
  8
0
  6
Continuous
 62
     7
370
    15
100
AcDbLine
 10
0.6584764442
 20
-4.9564512277
 30
0.0
 11
0.6695994606
 21
-4.9801869003
 31
0.0
  0
LINE
  5
55C
330
1F
100
AcDbEntity
  8
0
  6
Continuous
 62
     7
370
    15
100
AcDbLine
 10
0.6202518864
 20
-4.9613796063
 30
0.0
 11
0.6584764442
 21
-4.9564512277
 31
0.0
  0
LINE
  5
55D
330
1F
100
AcDbEntity
  8
0
  6
Continuous
 62
     7
370
    15
100
AcDbLine
 10
0.6152358046
 20
-4.9871945926
 30
0.0
 11
0.6202518864
 21
-4.9613796063
 31
0.0
  0
LINE
  5
55E
330
1F
100
AcDbEntity
  8
0
  6
Continuous
 62
     7
370
    15
100
AcDbLine
 10
0.6106158786
 20
-5.0129480597
 30
0.0
 11
0.6152358046
 21
-4.9871945926
 31
0.0
  0
LINE
  5
55F
330
1F
100
AcDbEntity
  8
0
  6
Continuous
 62
     7
370
    15
100
AcDbLine
 10
0.5857915188
 20
-5.0159095184
 30
0.0
 11
0.6106158786
 21
-5.0129480597
 31
0.0
  0
LINE
  5
560
330
1F
100
AcDbEntity
  8
0
  6
Continuous
 62
     7
370
    15
100
AcDbLine
 10
0.5755175654
 20
-4.9919339471
 30
0.0
 11
0.5857915188
 21
-5.0159095184
 31
0.0
  0
LINE
  5
561
330
1F
100
AcDbEntity
  8
0
  6
Continuous
 62
     7
370
    15
100
AcDbLine
 10
0.5648443571
 20
-4.9679926381
 30
0.0
 11
0.5755175654
 21
-4.9919339471
 31
0.0
  0
LINE
  5
562
330
1F
100
AcDbEntity
  8
0
  6
Continuous
 62
     7
370
    15
100
AcDbLine
 10
0.5265336183
 20
-4.972198945
 30
0.0
 11
0.5648443571
 21
-4.9679926381
 31
0.0
  0
LINE
  5
563
330
1F
100
AcDbEntity
  8
0
  6
Continuous
 62
     7
370
    15
100
AcDbLine
 10
0.5210313701
 20
-4.9979146963
 30
0.0
 11
0.5265336183
 21
-4.972198945
 31
0.0
  0
LINE
  5
564
330
1F
100
AcDbEntity
  8
0
  6
Continuous
 62
     7
370
    15
100
AcDbLine
 10
0.515926368
 20
-5.0235764136
 30
0.0
 11
0.5210313701
 21
-4.9979146963
 31
0.0
  0
LINE
  5
565
330
1F
100
AcDbEntity
  8
0
  6
Continuous
 62
     7
370
    15
100
AcDbLine
 10
0.4910505523
 20
-5.0260689764
 30
0.0
 11
0.515926368
 21
-5.0235764136
 31
0.0
  0
LINE
  5
566
330
1F
100
AcDbEntity
  8
0
  6
Continuous
 62
     7
370
    15
100
AcDbLine
 10
0.4812307821
 20
-5.001903831
 30
0.0
 11
0.4910505523
 21
-5.0260689764
 31
0.0
  0
LINE
  5
567
330
1F
100
AcDbEntity
  8
0
  6
Continuous
 62
     7
370
    15
100
AcDbLine
 10
0.4710111816
 20
-4.977765409
 30
0.0
 11
0.4812307821
 21
-5.001903831
 31
0.0
  0
LINE
  5
568
330
1F
100
AcDbEntity
  8
0
  6
Continuous
 62
     7
370
    15
100
AcDbLine
 10
0.4326279005
 20
-4.9812481468
 30
0.0
 11
0.4710111816
 21
-4.977765409
 31
0.0
  0
LINE
  5
569
330
1F
100
AcDbEntity
  8
0
  6
Continuous
 62
     7
370
    15
100
AcDbLine
 10
0.4266414449
 20
-5.006855508
 30
0.0
 11
0.4326279005
 21
-4.9812481468
 31
0.0
  0
LINE
  5
56A
330
1F
100
AcDbEntity
  8
0
  6
Continuous
 62
     7
370
    15
100
AcDbLine
 10
0.421053184
 20
-5.0324163397
 30
0.0
 11
0.4266414449
 21
-5.006855508
 31
0.0
  0
LINE
  5
56B
330
1F
100
AcDbEntity
  8
0
  6
Continuous
 62
     7
370
    15
100
AcDbLine
 10
0.3961347683
 20
-5.0344391192
 30
0.0
 11
0.421053184
 21
-5.0324163397
 31
0.0
  0
LINE
  5
56C
330
1F
100
AcDbEntity
  8
0
  6
Continuous
 62
     7
370
    15
100
AcDbLine
 10
0.3867726773
 20
-5.0100930027
 30
0.0
 11
0.3961347683
 21
-5.0344391192
 31
0.0
  0
LINE
  5
56D
330
1F
100
AcDbEntity
  8
0
  6
Continuous
 62
     7
370
    15
100
AcDbLine
 10
0.3770103229
 20
-4.9857660611
 30
0.0
 11
0.3867726773
 21
-5.0100930027
 31
0.0
  0
LINE
  5
56E
330
1F
100
AcDbEntity
  8
0
  6
Continuous
 62
     7
370
    15
100
AcDbLine
 10
0.3385681643
 20
-4.9885239899
 30
0.0
 11
0.3770103229
 21
-4.9857660611
 31
0.0
  0
LINE
  5
56F
330
1F
100
AcDbEntity
  8
0
  6
Continuous
 62
     7
370
    15
100
AcDbLine
 10
0.3320996323
 20
-5.0140138446
 30
0.0
 11
0.3385681643
 21
-4.9885239899
 31
0.0
  0
LINE
  5
570
330
1F
100
AcDbEntity
  8
0
  6
Continuous
 62
     7
370
    15
100
AcDbLine
 10
0.3260301022
 20
-5.0394646911
 30
0.0
 11
0.3320996323
 21
-5.0140138446
 31
0.0
  0
LINE
  5
571
330
1F
100
AcDbEntity
  8
0
  6
Continuous
 62
     7
370
    15
100
AcDbLine
 10
0.3010779577
 20
-5.0410169672
 30
0.0
 11
0.3260301022
 21
-5.0394646911
 31
0.0
  0
LINE
  5
572
330
1F
100
AcDbEntity
  8
0
  6
Continuous
 62
     7
370
    15
100
AcDbLine
 10
0.2921768787
 20
-5.0164985469
 30
0.0
 11
0.3010779577
 21
-5.0410169672
 31
0.0
  0
LINE
  5
573
330
1F
100
AcDbEntity
  8
0
  6
Continuous
 62
     7
370
    15
100
AcDbLine
 10
0.2828752459
 20
-4.9919917463
 30
0.0
 11
0.2921768787
 21
-5.0164985469
 31
0.0
  0
LINE
  5
574
330
1F
100
AcDbEntity
  8
0
  6
Continuous
 62
     7
370
    15
100
AcDbLine
 10
0.2443878954
 20
-4.9940238843
 30
0.0
 11
0.2828752459
 21
-4.9919917463
 31
0.0
  0
LINE
  5
575
330
1F
100
AcDbEntity
  8
0
  6
Continuous
 62
     7
370
    15
100
AcDbLine
 10
0.2374395901
 20
-5.0193871579
 30
0.0
 11
0.2443878954
 21
-4.9940238843
 31
0.0
  0
LINE
  5
576
330
1F
100
AcDbEntity
  8
0
  6
Continuous
 62
     7
370
    15
100
AcDbLine
 10
0.2308909515
 20
-5.0447189583
 30
0.0
 11
0.2374395901
 21
-5.0193871579
 31
0.0
  0
LINE
  5
577
330
1F
100
AcDbEntity
  8
0
  6
Continuous
 62
     7
370
    15
100
AcDbLine
 10
0.2059139613
 20
-5.0458001784
 30
0.0
 11
0.2308909515
 21
-5.0447189583
 31
0.0
  0
LINE
  5
578
330
1F
100
AcDbEntity
  8
0
  6
Continuous
 62
     7
370
    15
100
AcDbLine
 10
0.1974770632
 20
-5.0211181832
 30
0.0
 11
0.2059139613
 21
-5.0458001784
 31
0.0
  0
LINE
  5
579
330
1F
100
AcDbEntity
  8
0
  6
Continuous
 62
     7
370
    15
100
AcDbLine
 10
0.1886394634
 20
-4.9964402481
 30
0.0
 11
0.1974770632
 21
-5.0211181832
 31
0.0
  0
LINE
  5
57A
330
1F
100
AcDbEntity
  8
0
  6
Continuous
 62
     7
370
    15
100
AcDbLine
 10
0.1501206228
 20
-4.9977458718
 30
0.0
 11
0.1886394634
 21
-4.9964402481
 31
0.0
  0
LINE
  5
57B
330
1F
100
AcDbEntity
  8
0
  6
Continuous
 62
     7
370
    15
100
AcDbLine
 10
0.1426950177
 20
-5.0229735349
 30
0.0
 11
0.1501206228
 21
-4.9977458718
 31
0.0
  0
LINE
  5
57C
330
1F
100
AcDbEntity
  8
0
  6
Continuous
 62
     7
370
    15
100
AcDbLine
 10
0.135669602
 20
-5.048177271
 30
0.0
 11
0.1426950177
 21
-5.0229735349
 31
0.0
  0
LINE
  5
57D
330
1F
100
AcDbEntity
  8
0
  6
Continuous
 62
     7
370
    15
100
AcDbLine
 10
0.110676658
 20
-5.0487870501
 30
0.0
 11
0.135669602
 21
-5.048177271
 31
0.0
  0
LINE
  5
57E
330
1F
100
AcDbEntity
  8
0
  6
Continuous
 62
     7
370
    15
100
AcDbLine
 10
0.1027069445
 20
-5.0239502668
 30
0.0
 11
0.110676658
 21
-5.0487870501
 31
0.0
  0
LINE
  5
57F
330
1F
100
AcDbEntity
  8
0
  6
Continuous
 62
     7
370
    15
100
AcDbLine
 10
0.0943365239
 20
-4.9991099828
 30
0.0
 11
0.1027069445
 21
-5.0239502668
 31
0.0
  0
LINE
  5
580
330
1F
100
AcDbEntity
  8
0
  6
Continuous
 62
     7
370
    15
100
AcDbLine
 10
0.0557999062
 20
-4.9996886274
 30
0.0
 11
0.0943365239
 21
-4.9991099828
 31
0.0
  0
LINE
  5
581
330
1F
100
AcDbEntity
  8
0
  6
Continuous
 62
     7
370
    15
100
AcDbLine
 10
0.0478996448
 20
-5.0247716987
 30
0.0
 11
0.0557999062
 21
-4.9996886274
 31
0.0
  0
LINE
  5
582
330
1F
100
AcDbEntity
  8
0
  6
Continuous
 62
     7
370
    15
100
AcDbLine
 10
0.0403999531
 20
-5.0498383978
 30
0.0
 11
0.0478996448
 21
-5.0247716987
 31
0.0
  0
LINE
  5
583
330
1F
100
AcDbEntity
  8
0
  6
Continuous
 62
     7
370
    15
100
AcDbLine
 10
0.0153999531
 20
-5.0499765189
 30
0.0
 11
0.0403999531
 21
-5.0498383978
 31
0.0
  0
LINE
  5
584
330
1F
100
AcDbEntity
  8
0
  6
Continuous
 62
     7
370
    15
100
AcDbLine
 10
0.0079002614
 20
-5.0249937896
 30
0.0
 11
0.0153999531
 21
-5.0499765189
 31
0.0
  0
LINE
  5
585
330
1F
100
AcDbEntity
  8
0
  6
Continuous
 62
     7
370
    15
100
AcDbLine
 10
0.0
 20
-5.0
 30
0.0
 11
0.0079002614
 21
-5.0249937896
 31
0.0
  0
LINE
  5
586
330
1F
100
AcDbEntity
  8
0
  6
Continuous
 62
     7
370
    15
100
AcDbLine
 10
-0.0385406755
 20
-4.9998514594
 30
0.0
 11
0.0
 21
-5.0
 31
0.0
  0
LINE
  5
587
330
1F
100
AcDbEntity
  8
0
  6
Continuous
 62
     7
370
    15
100
AcDbLine
 10
-0.0469127806
 20
-5.0247810093
 30
0.0
 11
-0.0385406755
 21
-4.9998514594
 31
0.0
  0
LINE
  5
588
330
1F
100
AcDbEntity
  8
0
  6
Continuous
 62
     7
370
    15
100
AcDbLine
 10
-0.0548840784
 20
-5.0497017474
 30
0.0
 11
-0.0469127806
 21
-5.0247810093
 31
0.0
  0
LINE
  5
589
330
1F
100
AcDbEntity
  8
0
  6
Continuous
 62
     7
370
    15
100
AcDbLine
 10
-0.0798822343
 20
-5.0493681613
 30
0.0
 11
-0.0548840784
 21
-5.0497017474
 31
0.0
  0
LINE
  5
58A
330
1F
100
AcDbEntity
  8
0
  6
Continuous
 62
     7
370
    15
100
AcDbLine
 10
-0.0869092342
 20
-5.0242483801
 30
0.0
 11
-0.0798822343
 21
-5.0493681613
 31
0.0
  0
LINE
  5
58B
330
1F
100
AcDbEntity
  8
0
  6
Continuous
 62
     7
370
    15
100
AcDbLine
 10
-0.0943365239
 20
-4.9991099828
 30
0.0
 11
-0.0869092342
 21
-5.0242483801
 31
0.0
  0
LINE
  5
58C
330
1F
100
AcDbEntity
  8
0
  6
Continuous
 62
     7
370
    15
100
AcDbLine
 10
-0.1328675365
 20
-4.99823431
 30
0.0
 11
-0.0943365239
 21
-4.9991099828
 31
0.0
  0
LINE
  5
58D
330
1F
100
AcDbEntity
  8
0
  6
Continuous
 62
     7
370
    15
100
AcDbLine
 10
-0.1417085047
 20
-5.0230014632
 30
0.0
 11
-0.1328675365
 21
-4.99823431
 31
0.0
  0
LINE
  5
58E
330
1F
100
AcDbEntity
  8
0
  6
Continuous
 62
     7
370
    15
100
AcDbLine
 10
-0.1501485708
 20
-5.0477673685
 30
0.0
 11
-0.1417085047
 21
-5.0230014632
 31
0.0
  0
LINE
  5
58F
330
1F
100
AcDbEntity
  8
0
  6
Continuous
 62
     7
370
    15
100
AcDbLine
 10
-0.175135983
 20
-5.046962194
 30
0.0
 11
-0.1501485708
 21
-5.0477673685
 31
0.0
  0
LINE
  5
590
330
1F
100
AcDbEntity
  8
0
  6
Continuous
 62
     7
370
    15
100
AcDbLine
 10
-0.1816877896
 20
-5.0217143036
 30
0.0
 11
-0.175135983
 21
-5.046962194
 31
0.0
  0
LINE
  5
591
330
1F
100
AcDbEntity
  8
0
  6
Continuous
 62
     7
370
    15
100
AcDbLine
 10
-0.1886394634
 20
-4.9964402481
 30
0.0
 11
-0.1816877896
 21
-5.0217143036
 31
0.0
  0
LINE
  5
592
330
1F
100
AcDbEntity
  8
0
  6
Continuous
 62
     7
370
    15
100
AcDbLine
 10
-0.2271470957
 20
-4.9948377548
 30
0.0
 11
-0.1886394634
 21
-4.9964402481
 31
0.0
  0
LINE
  5
593
330
1F
100
AcDbEntity
  8
0
  6
Continuous
 62
     7
370
    15
100
AcDbLine
 10
-0.2364537797
 20
-5.0194336942
 30
0.0
 11
-0.2271470957
 21
-4.9948377548
 31
0.0
  0
LINE
  5
594
330
1F
100
AcDbEntity
  8
0
  6
Continuous
 62
     7
370
    15
100
AcDbLine
 10
-0.2453596092
 20
-5.0440359497
 30
0.0
 11
-0.2364537797
 21
-5.0194336942
 31
0.0
  0
LINE
  5
595
330
1F
100
AcDbEntity
  8
0
  6
Continuous
 62
     7
370
    15
100
AcDbLine
 10
-0.2703273822
 20
-5.0427594734
 30
0.0
 11
-0.2453596092
 21
-5.0440359497
 31
0.0
  0
LINE
  5
596
330
1F
100
AcDbEntity
  8
0
  6
Continuous
 62
     7
370
    15
100
AcDbLine
 10
-0.2764016629
 20
-5.0173924623
 30
0.0
 11
-0.2703273822
 21
-5.0427594734
 31
0.0
  0
LINE
  5
597
330
1F
100
AcDbEntity
  8
0
  6
Continuous
 62
     7
370
    15
100
AcDbLine
 10
-0.2828752459
 20
-4.9919917463
 30
0.0
 11
-0.2764016629
 21
-5.0173924623
 31
0.0
  0
LINE
  5
598
330
1F
100
AcDbEntity
  8
0
  6
Continuous
 62
     7
370
    15
100
AcDbLine
 10
-0.321345789
 20
-4.989663003
 30
0.0
 11
-0.2828752459
 21
-4.9919917463
 31
0.0
  0
LINE
  5
599
330
1F
100
AcDbEntity
  8
0
  6
Continuous
 62
     7
370
    15
100
AcDbLine
 10
-0.3311148754
 20
-5.0140789722
 30
0.0
 11
-0.321345789
 21
-4.989663003
 31
0.0
  0
LINE
  5
59A
330
1F
100
AcDbEntity
  8
0
  6
Continuous
 62
     7
370
    15
100
AcDbLine
 10
-0.340483298
 20
-5.0385088195
 30
0.0
 11
-0.3311148754
 21
-5.0140789722
 31
0.0
  0
LINE
  5
59B
330
1F
100
AcDbEntity
  8
0
  6
Continuous
 62
     7
370
    15
100
AcDbLine
 10
-0.3654225429
 20
-5.0367614958
 30
0.0
 11
-0.340483298
 21
-5.0385088195
 31
0.0
  0
LINE
  5
59C
330
1F
100
AcDbEntity
  8
0
  6
Continuous
 62
     7
370
    15
100
AcDbLine
 10
-0.3710171352
 20
-5.0112843948
 30
0.0
 11
-0.3654225429
 21
-5.0367614958
 31
0.0
  0
LINE
  5
59D
330
1F
100
AcDbEntity
  8
0
  6
Continuous
 62
     7
370
    15
100
AcDbLine
 10
-0.3770103229
 20
-4.9857660611
 30
0.0
 11
-0.3710171352
 21
-5.0112843948
 31
0.0
  0
LINE
  5
59E
330
1F
100
AcDbEntity
  8
0
  6
Continuous
 62
     7
370
    15
100
AcDbLine
 10
-0.415430081
 20
-4.9827118969
 30
0.0
 11
-0.3770103229
 21
-4.9857660611
 31
0.0
  0
LINE
  5
59F
330
1F
100
AcDbEntity
  8
0
  6
Continuous
 62
     7
370
    15
100
AcDbLine
 10
-0.425658092
 20
-5.0069392036
 30
0.0
 11
-0.415430081
 21
-4.9827118969
 31
0.0
  0
LINE
  5
5A0
330
1F
100
AcDbEntity
  8
0
  6
Continuous
 62
     7
370
    15
100
AcDbLine
 10
-0.4354857723
 20
-5.0311879454
 30
0.0
 11
-0.425658092
 21
-5.0069392036
 31
0.0
  0
LINE
  5
5A1
330
1F
100
AcDbEntity
  8
0
  6
Continuous
 62
     7
370
    15
100
AcDbLine
 10
-0.4603876107
 20
-5.0289703964
 30
0.0
 11
-0.4354857723
 21
-5.0311879454
 31
0.0
  0
LINE
  5
5A2
330
1F
100
AcDbEntity
  8
0
  6
Continuous
 62
     7
370
    15
100
AcDbLine
 10
-0.4655005229
 20
-5.0033922756
 30
0.0
 11
-0.4603876107
 21
-5.0289703964
 31
0.0
  0
LINE
  5
5A3
330
1F
100
AcDbEntity
  8
0
  6
Continuous
 62
     7
370
    15
100
AcDbLine
 10
-0.4710111816
 20
-4.977765409
 30
0.0
 11
-0.4655005229
 21
-5.0033922756
 31
0.0
  0
LINE
  5
5A4
330
1F
100
AcDbEntity
  8
0
  6
Continuous
 62
     7
370
    15
100
AcDbLine
 10
-0.509366477
 20
-4.9739869111
 30
0.0
 11
-0.4710111816
 21
-4.977765409
 31
0.0
  0
LINE
  5
5A5
330
1F
100
AcDbEntity
  8
0
  6
Continuous
 62
     7
370
    15
100
AcDbLine
 10
-0.5200497714
 20
-4.9980169303
 30
0.0
 11
-0.509366477
 21
-4.9739869111
 31
0.0
  0
LINE
  5
5A6
330
1F
100
AcDbEntity
  8
0
  6
Continuous
 62
     7
370
    15
100
AcDbLine
 10
-0.5303332108
 20
-5.0220759339
 30
0.0
 11
-0.5200497714
 21
-4.9980169303
 31
0.0
  0
LINE
  5
5A7
330
1F
100
AcDbEntity
  8
0
  6
Continuous
 62
     7
370
    15
100
AcDbLine
 10
-0.5551887773
 20
-5.019388949
 30
0.0
 11
-0.5303332108
 21
-5.0220759339
 31
0.0
  0
LINE
  5
5A8
330
1F
100
AcDbEntity
  8
0
  6
Continuous
 62
     7
370
    15
100
AcDbLine
 10
-0.5598181893
 20
-4.9937189143
 30
0.0
 11
-0.5551887773
 21
-5.019388949
 31
0.0
  0
LINE
  5
5A9
330
1F
100
AcDbEntity
  8
0
  6
Continuous
 62
     7
370
    15
100
AcDbLine
 10
-0.5648443571
 20
-4.9679926381
 30
0.0
 11
-0.5598181893
 21
-4.9937189143
 31
0.0
  0
LINE
  5
5AA
330
1F
100
AcDbEntity
  8
0
  6
Continuous
 62
     7
370
    15
100
AcDbLine
 10
-0.6031215351
 20
-4.9634911518
 30
0.0
 11
-0.5648443571
 21
-4.9679926381
 31
0.0
  0
LINE
  5
5AB
330
1F
100
AcDbEntity
  8
0
  6
Continuous
 62
     7
370
    15
100
AcDbLine
 10
-0.6142563095
 20
-4.9873153285
 30
0.0
 11
-0.6031215351
 21
-4.9634911518
 31
0.0
  0
LINE
  5
5AC
330
1F
100
AcDbEntity
  8
0
  6
Continuous
 62
     7
370
    15
100
AcDbLine
 10
-0.6249918469
 20
-5.0111760288
 30
0.0
 11
-0.6142563095
 21
-4.9873153285
 31
0.0
  0
LINE
  5
5AD
330
1F
100
AcDbEntity
  8
0
  6
Continuous
 62
     7
370
    15
100
AcDbLine
 10
-0.649792293
 20
-5.0080205647
 30
0.0
 11
-0.6249918469
 21
-5.0111760288
 31
0.0
  0
LINE
  5
5AE
330
1F
100
AcDbEntity
  8
0
  6
Continuous
 62
     7
370
    15
100
AcDbLine
 10
-0.6539365565
 20
-4.9822677548
 30
0.0
 11
-0.649792293
 21
-5.0080205647
 31
0.0
  0
LINE
  5
5AF
330
1F
100
AcDbEntity
  8
0
  6
Continuous
 62
     7
370
    15
100
AcDbLine
 10
-0.6584764442
 20
-4.9564512277
 30
0.0
 11
-0.6539365565
 21
-4.9822677548
 31
0.0
  0
LINE
  5
5B0
330
1F
100
AcDbEntity
  8
0
  6
Continuous
 62
     7
370
    15
100
AcDbLine
 10
-0.6966618778
 20
-4.9512283555
 30
0.0
 11
-0.6584764442
 21
-4.9564512277
 31
0.0
  0
LINE
  5
5B1
330
1F
100
AcDbEntity
  8
0
  6
Continuous
 62
     7
370
    15
100
AcDbLine
 10
-0.7082441681
 20
-4.9748382083
 30
0.0
 11
-0.6966618778
 21
-4.9512283555
 31
0.0
  0
LINE
  5
5B2
330
1F
100
AcDbEntity
  8
0
  6
Continuous
 62
     7
370
    15
100
AcDbLine
 10
-0.7194279817
 20
-4.9984921105
 30
0.0
 11
-0.7082441681
 21
-4.9748382083
 31
0.0
  0
LINE
  5
5B3
330
1F
100
AcDbEntity
  8
0
  6
Continuous
 62
     7
370
    15
100
AcDbLine
 10
-0.7441644781
 20
-4.9948692905
 30
0.0
 11
-0.7194279817
 21
-4.9984921105
 31
0.0
  0
LINE
  5
5B4
330
1F
100
AcDbEntity
  8
0
  6
Continuous
 62
     7
370
    15
100
AcDbLine
 10
-0.7478221178
 20
-4.9690428737
 30
0.0
 11
-0.7441644781
 21
-4.9948692905
 31
0.0
  0
LINE
  5
5B5
330
1F
100
AcDbEntity
  8
0
  6
Continuous
 62
     7
370
    15
100
AcDbLine
 10
-0.7518741091
 20
-4.9431452866
 30
0.0
 11
-0.7478221178
 21
-4.9690428737
 31
0.0
  0
LINE
  5
5B6
330
1F
100
AcDbEntity
  8
0
  6
Continuous
 62
     7
370
    15
100
AcDbLine
 10
-0.789954204
 20
-4.9372028878
 30
0.0
 11
-0.7518741091
 21
-4.9431452866
 31
0.0
  0
LINE
  5
5B7
330
1F
100
AcDbEntity
  8
0
  6
Continuous
 62
     7
370
    15
100
AcDbLine
 10
-0.801979887
 20
-4.9605900114
 30
0.0
 11
-0.789954204
 21
-4.9372028878
 31
0.0
  0
LINE
  5
5B8
330
1F
100
AcDbEntity
  8
0
  6
Continuous
 62
     7
370
    15
100
AcDbLine
 10
-0.8136079951
 20
-4.9840286948
 30
0.0
 11
-0.801979887
 21
-4.9605900114
 31
0.0
  0
LINE
  5
5B9
330
1F
100
AcDbEntity
  8
0
  6
Continuous
 62
     7
370
    15
100
AcDbLine
 10
-0.8382717355
 20
-4.9799398086
 30
0.0
 11
-0.8136079951
 21
-4.9840286948
 31
0.0
  0
LINE
  5
5BA
330
1F
100
AcDbEntity
  8
0
  6
Continuous
 62
     7
370
    15
100
AcDbLine
 10
-0.8414414492
 20
-4.9540489791
 30
0.0
 11
-0.8382717355
 21
-4.9799398086
 31
0.0
  0
LINE
  5
5BB
330
1F
100
AcDbEntity
  8
0
  6
Continuous
 62
     7
370
    15
100
AcDbLine
 10
-0.8450041016
 20
-4.9280795517
 30
0.0
 11
-0.8414414492
 21
-4.9540489791
 31
0.0
  0
LINE
  5
5BC
330
1F
100
AcDbEntity
  8
0
  6
Continuous
 62
     7
370
    15
100
AcDbLine
 10
-0.8829653011
 20
-4.921419742
 30
0.0
 11
-0.8450041016
 21
-4.9280795517
 31
0.0
  0
LINE
  5
5BD
330
1F
100
AcDbEntity
  8
0
  6
Continuous
 62
     7
370
    15
100
AcDbLine
 10
-0.8954300954
 20
-4.9445758103
 30
0.0
 11
-0.8829653011
 21
-4.921419742
 31
0.0
  0
LINE
  5
5BE
330
1F
100
AcDbEntity
  8
0
  6
Continuous
 62
     7
370
    15
100
AcDbLine
 10
-0.9074983586
 20
-4.9677909305
 30
0.0
 11
-0.8954300954
 21
-4.9445758103
 31
0.0
  0
LINE
  5
5BF
330
1F
100
AcDbEntity
  8
0
  6
Continuous
 62
     7
370
    15
100
AcDbLine
 10
-0.9320805624
 20
-4.9632374339
 30
0.0
 11
-0.9074983586
 21
-4.9677909305
 31
0.0
  0
LINE
  5
5C0
330
1F
100
AcDbEntity
  8
0
  6
Continuous
 62
     7
370
    15
100
AcDbLine
 10
-0.9347612218
 20
-4.9372914091
 30
0.0
 11
-0.9320805624
 21
-4.9632374339
 31
0.0
  0
LINE
  5
5C1
330
1F
100
AcDbEntity
  8
0
  6
Continuous
 62
     7
370
    15
100
AcDbLine
 10
-0.9378332669
 20
-4.9112593867
 30
0.0
 11
-0.9347612218
 21
-4.9372914091
 31
0.0
  0
LINE
  5
5C2
330
1F
100
AcDbEntity
  8
0
  6
Continuous
 62
     7
370
    15
100
AcDbLine
 10
-0.9756620565
 20
-4.9038845369
 30
0.0
 11
-0.9378332669
 21
-4.9112593867
 31
0.0
  0
LINE
  5
5C3
330
1F
100
AcDbEntity
  8
0
  6
Continuous
 62
     7
370
    15
100
AcDbLine
 10
-0.9885615246
 20
-4.9268013063
 30
0.0
 11
-0.9756620565
 21
-4.9038845369
 31
0.0
  0
LINE
  5
5C4
330
1F
100
AcDbEntity
  8
0
  6
Continuous
 62
     7
370
    15
100
AcDbLine
 10
-1.0010656463
 20
-4.9497845985
 30
0.0
 11
-0.9885615246
 21
-4.9268013063
 31
0.0
  0
LINE
  5
5C5
330
1F
100
AcDbEntity
  8
0
  6
Continuous
 62
     7
370
    15
100
AcDbLine
 10
-1.0255575623
 20
-4.9447681125
 30
0.0
 11
-1.0010656463
 21
-4.9497845985
 31
0.0
  0
LINE
  5
5C6
330
1F
100
AcDbEntity
  8
0
  6
Continuous
 62
     7
370
    15
100
AcDbLine
 10
-1.0277482129
 20
-4.9187761294
 30
0.0
 11
-1.0255575623
 21
-4.9447681125
 31
0.0
  0
LINE
  5
5C7
330
1F
100
AcDbEntity
  8
0
  6
Continuous
 62
     7
370
    15
100
AcDbLine
 10
-1.0303285571
 20
-4.8926907796
 30
0.0
 11
-1.0277482129
 21
-4.9187761294
 31
0.0
  0
LINE
  5
5C8
330
1F
100
AcDbEntity
  8
0
  6
Continuous
 62
     7
370
    15
100
AcDbLine
 10
-1.0680114695
 20
-4.8846035152
 30
0.0
 11
-1.0303285571
 21
-4.8926907796
 31
0.0
  0
LINE
  5
5C9
330
1F
100
AcDbEntity
  8
0
  6
Continuous
 62
     7
370
    15
100
AcDbLine
 10
-1.0813410192
 20
-4.9072728272
 30
0.0
 11
-1.0680114695
 21
-4.8846035152
 31
0.0
  0
LINE
  5
5CA
330
1F
100
AcDbEntity
  8
0
  6
Continuous
 62
     7
370
    15
100
AcDbLine
 10
-1.0942765478
 20
-4.9300161092
 30
0.0
 11
-1.0813410192
 21
-4.9072728272
 31
0.0
  0
LINE
  5
5CB
330
1F
100
AcDbEntity
  8
0
  6
Continuous
 62
     7
370
    15
100
AcDbLine
 10
-1.1186694565
 20
-4.9245384197
 30
0.0
 11
-1.0942765478
 21
-4.9300161092
 31
0.0
  0
LINE
  5
5CC
330
1F
100
AcDbEntity
  8
0
  6
Continuous
 62
     7
370
    15
100
AcDbLine
 10
-1.1203693186
 20
-4.8985097315
 30
0.0
 11
-1.1186694565
 21
-4.9245384197
 31
0.0
  0
LINE
  5
5CD
330
1F
100
AcDbEntity
  8
0
  6
Continuous
 62
     7
370
    15
100
AcDbLine
 10
-1.1224570432
 20
-4.8723803409
 30
0.0
 11
-1.1203693186
 21
-4.8985097315
 31
0.0
  0
LINE
  5
5CE
330
1F
100
AcDbEntity
  8
0
  6
Continuous
 62
     7
370
    15
100
AcDbLine
 10
-1.159980663
 20
-4.8635835411
 30
0.0
 11
-1.1224570432
 21
-4.8723803409
 31
0.0
  0
LINE
  5
5CF
330
1F
100
AcDbEntity
  8
0
  6
Continuous
 62
     7
370
    15
100
AcDbLine
 10
-1.1737355488
 20
-4.8859973252
 30
0.0
 11
-1.159980663
 21
-4.8635835411
 31
0.0
  0
LINE
  5
5D0
330
1F
100
AcDbEntity
  8
0
  6
Continuous
 62
     7
370
    15
100
AcDbLine
 10
-1.1870978794
 20
-4.9084925002
 30
0.0
 11
-1.1737355488
 21
-4.8859973252
 31
0.0
  0
LINE
  5
5D1
330
1F
100
AcDbEntity
  8
0
  6
Continuous
 62
     7
370
    15
100
AcDbLine
 10
-1.2113830968
 20
-4.9025555573
 30
0.0
 11
-1.1870978794
 21
-4.9084925002
 31
0.0
  0
LINE
  5
5D2
330
1F
100
AcDbEntity
  8
0
  6
Continuous
 62
     7
370
    15
100
AcDbLine
 10
-1.2125915651
 20
-4.8764994306
 30
0.0
 11
-1.2113830968
 21
-4.9025555573
 31
0.0
  0
LINE
  5
5D3
330
1F
100
AcDbEntity
  8
0
  6
Continuous
 62
     7
370
    15
100
AcDbLine
 10
-1.2141859269
 20
-4.8503353013
 30
0.0
 11
-1.2125915651
 21
-4.8764994306
 31
0.0
  0
LINE
  5
5D4
330
1F
100
AcDbEntity
  8
0
  6
Continuous
 62
     7
370
    15
100
AcDbLine
 10
-1.2515368955
 20
-4.8408320978
 30
0.0
 11
-1.2141859269
 21
-4.8503353013
 31
0.0
  0
LINE
  5
5D5
330
1F
100
AcDbEntity
  8
0
  6
Continuous
 62
     7
370
    15
100
AcDbLine
 10
-1.2657122206
 20
-4.8629823745
 30
0.0
 11
-1.2515368955
 21
-4.8408320978
 31
0.0
  0
LINE
  5
5D6
330
1F
100
AcDbEntity
  8
0
  6
Continuous
 62
     7
370
    15
100
AcDbLine
 10
-1.2794965959
 20
-4.8852214342
 30
0.0
 11
-1.2657122206
 21
-4.8629823745
 31
0.0
  0
LINE
  5
5D7
330
1F
100
AcDbEntity
  8
0
  6
Continuous
 62
     7
370
    15
100
AcDbLine
 10
-1.3036654764
 20
-4.8788273515
 30
0.0
 11
-1.2794965959
 21
-4.8852214342
 31
0.0
  0
LINE
  5
5D8
330
1F
100
AcDbEntity
  8
0
  6
Continuous
 62
     7
370
    15
100
AcDbLine
 10
-1.3043821206
 20
-4.8527530623
 30
0.0
 11
-1.3036654764
 21
-4.8788273515
 31
0.0
  0
LINE
  5
5D9
330
1F
100
AcDbEntity
  8
0
  6
Continuous
 62
     7
370
    15
100
AcDbLine
 10
-1.3054825521
 20
-4.826563509
 30
0.0
 11
-1.3043821206
 21
-4.8527530623
 31
0.0
  0
LINE
  5
5DA
330
1F
100
AcDbEntity
  8
0
  6
Continuous
 62
     7
370
    15
100
AcDbLine
 10
-1.3426475722
 20
-4.816357285
 30
0.0
 11
-1.3054825521
 21
-4.826563509
 31
0.0
  0
LINE
  5
5DB
330
1F
100
AcDbEntity
  8
0
  6
Continuous
 62
     7
370
    15
100
AcDbLine
 10
-1.3572382901
 20
-4.8382361687
 30
0.0
 11
-1.3426475722
 21
-4.816357285
 31
0.0
  0
LINE
  5
5DC
330
1F
100
AcDbEntity
  8
0
  6
Continuous
 62
     7
370
    15
100
AcDbLine
 10
-1.3714398029
 20
-4.8602111957
 30
0.0
 11
-1.3572382901
 21
-4.8382361687
 31
0.0
  0
LINE
  5
5DD
330
1F
100
AcDbEntity
  8
0
  6
Continuous
 62
     7
370
    15
100
AcDbLine
 10
-1.3954837421
 20
-4.8533622496
 30
0.0
 11
-1.3714398029
 21
-4.8602111957
 31
0.0
  0
LINE
  5
5DE
330
1F
100
AcDbEntity
  8
0
  6
Continuous
 62
     7
370
    15
100
AcDbLine
 10
-1.3957083072
 20
-4.8272790805
 30
0.0
 11
-1.3954837421
 21
-4.8533622496
 31
0.0
  0
LINE
  5
5DF
330
1F
100
AcDbEntity
  8
0
  6
Continuous
 62
     7
370
    15
100
AcDbLine
 10
-1.3963144165
 20
-4.8010734269
 30
0.0
 11
-1.3957083072
 21
-4.8272790805
 31
0.0
  0
LINE
  5
5E0
330
1F
100
AcDbEntity
  8
0
  6
Continuous
 62
     7
370
    15
100
AcDbLine
 10
-1.4332802572
 20
-4.7901678159
 30
0.0
 11
-1.3963144165
 21
-4.8010734269
 31
0.0
  0
LINE
  5
5E1
330
1F
100
AcDbEntity
  8
0
  6
Continuous
 62
     7
370
    15
100
AcDbLine
 10
-1.4482811734
 20
-4.8117675175
 30
0.0
 11
-1.4332802572
 21
-4.7901678159
 31
0.0
  0
LINE
  5
5E2
330
1F
100
AcDbEntity
  8
0
  6
Continuous
 62
     7
370
    15
100
AcDbLine
 10
-1.4628947678
 20
-4.8334706887
 30
0.0
 11
-1.4482811734
 21
-4.8117675175
 31
0.0
  0
LINE
  5
5E3
330
1F
100
AcDbEntity
  8
0
  6
Continuous
 62
     7
370
    15
100
AcDbLine
 10
-1.486805206
 20
-4.8261693173
 30
0.0
 11
-1.4628947678
 21
-4.8334706887
 31
0.0
  0
LINE
  5
5E4
330
1F
100
AcDbEntity
  8
0
  6
Continuous
 62
     7
370
    15
100
AcDbLine
 10
-1.486537612
 20
-4.8000865542
 30
0.0
 11
-1.486805206
 21
-4.8261693173
 31
0.0
  0
LINE
  5
5E5
330
1F
100
AcDbEntity
  8
0
  6
Continuous
 62
     7
370
    15
100
AcDbLine
 10
-1.4866491833
 20
-4.7738741296
 30
0.0
 11
-1.486537612
 21
-4.8000865542
 31
0.0
  0
LINE
  5
5E6
330
1F
100
AcDbEntity
  8
0
  6
Continuous
 62
     7
370
    15
100
AcDbLine
 10
-1.5234026845
 20
-4.7622730141
 30
0.0
 11
-1.4866491833
 21
-4.7738741296
 31
0.0
  0
LINE
  5
5E7
330
1F
100
AcDbEntity
  8
0
  6
Continuous
 62
     7
370
    15
100
AcDbLine
 10
-1.5388084587
 20
-4.7835858441
 30
0.0
 11
-1.5234026845
 21
-4.7622730141
 31
0.0
  0
LINE
  5
5E8
330
1F
100
AcDbEntity
  8
0
  6
Continuous
 62
     7
370
    15
100
AcDbLine
 10
-1.5538289322
 20
-4.8050094328
 30
0.0
 11
-1.5388084587
 21
-4.7835858441
 31
0.0
  0
LINE
  5
5E9
330
1F
100
AcDbEntity
  8
0
  6
Continuous
 62
     7
370
    15
100
AcDbLine
 10
-1.577597357
 20
-4.7972582356
 30
0.0
 11
-1.5538289322
 21
-4.8050094328
 31
0.0
  0
LINE
  5
5EA
330
1F
100
AcDbEntity
  8
0
  6
Continuous
 62
     7
370
    15
100
AcDbLine
 10
-1.5768376992
 20
-4.7711851641
 30
0.0
 11
-1.577597357
 21
-4.7972582356
 31
0.0
  0
LINE
  5
5EB
330
1F
100
AcDbEntity
  8
0
  6
Continuous
 62
     7
370
    15
100
AcDbLine
 10
-1.5764546929
 20
-4.7449753004
 30
0.0
 11
-1.5768376992
 21
-4.7711851641
 31
0.0
  0
LINE
  5
5EC
330
1F
100
AcDbEntity
  8
0
  6
Continuous
 62
     7
370
    15
100
AcDbLine
 10
-1.61298277
 20
-4.7326828104
 30
0.0
 11
-1.5764546929
 21
-4.7449753004
 31
0.0
  0
LINE
  5
5ED
330
1F
100
AcDbEntity
  8
0
  6
Continuous
 62
     7
370
    15
100
AcDbLine
 10
-1.6287879176
 20
-4.7537011811
 30
0.0
 11
-1.61298277
 21
-4.7326828104
 31
0.0
  0
LINE
  5
5EE
330
1F
100
AcDbEntity
  8
0
  6
Continuous
 62
     7
370
    15
100
AcDbLine
 10
-1.6442099227
 20
-4.7748375606
 30
0.0
 11
-1.6287879176
 21
-4.7537011811
 31
0.0
  0
LINE
  5
5EF
330
1F
100
AcDbEntity
  8
0
  6
Continuous
 62
     7
370
    15
100
AcDbLine
 10
-1.6678278725
 20
-4.766639297
 30
0.0
 11
-1.6442099227
 21
-4.7748375606
 31
0.0
  0
LINE
  5
5F0
330
1F
100
AcDbEntity
  8
0
  6
Continuous
 62
     7
370
    15
100
AcDbLine
 10
-1.6665764214
 20
-4.7405851993
 30
0.0
 11
-1.6678278725
 21
-4.766639297
 31
0.0
  0
LINE
  5
5F1
330
1F
100
AcDbEntity
  8
0
  6
Continuous
 62
     7
370
    15
100
AcDbLine
 10
-1.6656989737
 20
-4.7143872273
 30
0.0
 11
-1.6665764214
 21
-4.7405851993
 31
0.0
  0
LINE
  5
5F2
330
1F
100
AcDbEntity
  8
0
  6
Continuous
 62
     7
370
    15
100
AcDbLine
 10
-1.7019886226
 20
-4.701407739
 30
0.0
 11
-1.6656989737
 21
-4.7143872273
 31
0.0
  0
LINE
  5
5F3
330
1F
100
AcDbEntity
  8
0
  6
Continuous
 62
     7
370
    15
100
AcDbLine
 10
-1.7181875168
 20
-4.7221241679
 30
0.0
 11
-1.7019886226
 21
-4.701407739
 31
0.0
  0
LINE
  5
5F4
330
1F
100
AcDbEntity
  8
0
  6
Continuous
 62
     7
370
    15
100
AcDbLine
 10
-1.7340055633
 20
-4.7429658133
 30
0.0
 11
-1.7181875168
 21
-4.7221241679
 31
0.0
  0
LINE
  5
5F5
330
1F
100
AcDbEntity
  8
0
  6
Continuous
 62
     7
370
    15
100
AcDbLine
 10
-1.7574646298
 20
-4.734323402
 30
0.0
 11
-1.7340055633
 21
-4.7429658133
 31
0.0
  0
LINE
  5
5F6
330
1F
100
AcDbEntity
  8
0
  6
Continuous
 62
     7
370
    15
100
AcDbLine
 10
-1.7557218309
 20
-4.7082975535
 30
0.0
 11
-1.7574646298
 21
-4.734323402
 31
0.0
  0
LINE
  5
5F7
330
1F
100
AcDbEntity
  8
0
  6
Continuous
 62
     7
370
    15
100
AcDbLine
 10
-1.7543502543
 20
-4.6821208
 30
0.0
 11
-1.7557218309
 21
-4.7082975535
 31
0.0
  0
LINE
  5
5F8
330
1F
100
AcDbEntity
  8
0
  6
Continuous
 62
     7
370
    15
100
AcDbLine
 10
-1.7903885555
 20
-4.6684589342
 30
0.0
 11
-1.7543502543
 21
-4.6821208
 31
0.0
  0
LINE
  5
5F9
330
1F
100
AcDbEntity
  8
0
  6
Continuous
 62
     7
370
    15
100
AcDbLine
 10
-1.8069754294
 20
-4.688866046
 30
0.0
 11
-1.7903885555
 21
-4.6684589342
 31
0.0
  0
LINE
  5
5FA
330
1F
100
AcDbEntity
  8
0
  6
Continuous
 62
     7
370
    15
100
AcDbLine
 10
-1.8231838859
 20
-4.7094055377
 30
0.0
 11
-1.8069754294
 21
-4.688866046
 31
0.0
  0
LINE
  5
5FB
330
1F
100
AcDbEntity
  8
0
  6
Continuous
 62
     7
370
    15
100
AcDbLine
 10
-1.8464757176
 20
-4.7003220554
 30
0.0
 11
-1.8231838859
 21
-4.7094055377
 31
0.0
  0
LINE
  5
5FC
330
1F
100
AcDbEntity
  8
0
  6
Continuous
 62
     7
370
    15
100
AcDbLine
 10
-1.8442421913
 20
-4.6743337215
 30
0.0
 11
-1.8464757176
 21
-4.7003220554
 31
0.0
  0
LINE
  5
5FD
330
1F
100
AcDbEntity
  8
0
  6
Continuous
 62
     7
370
    15
100
AcDbLine
 10
-1.8423769741
 20
-4.6481875054
 30
0.0
 11
-1.8442421913
 21
-4.6743337215
 31
0.0
  0
LINE
  5
5FE
330
1F
100
AcDbEntity
  8
0
  6
Continuous
 62
     7
370
    15
100
AcDbLine
 10
-1.8781510978
 20
-4.6338481259
 30
0.0
 11
-1.8423769741
 21
-4.6481875054
 31
0.0
  0
LINE
  5
5FF
330
1F
100
AcDbEntity
  8
0
  6
Continuous
 62
     7
370
    15
100
AcDbLine
 10
-1.8951200463
 20
-4.6539386556
 30
0.0
 11
-1.8781510978
 21
-4.6338481259
 31
0.0
  0
LINE
  5
600
330
1F
100
AcDbEntity
  8
0
  6
Continuous
 62
     7
370
    15
100
AcDbLine
 10
-1.9117131425
 20
-4.6741686812
 30
0.0
 11
-1.8951200463
 21
-4.6539386556
 31
0.0
  0
LINE
  5
601
330
1F
100
AcDbEntity
  8
0
  6
Continuous
 62
     7
370
    15
100
AcDbLine
 10
-1.9348294474
 20
-4.6646473617
 30
0.0
 11
-1.9117131425
 21
-4.6741686812
 31
0.0
  0
LINE
  5
602
330
1F
100
AcDbEntity
  8
0
  6
Continuous
 62
     7
370
    15
100
AcDbLine
 10
-1.9321059888
 20
-4.6387057945
 30
0.0
 11
-1.9348294474
 21
-4.6646473617
 31
0.0
  0
LINE
  5
603
330
1F
100
AcDbEntity
  8
0
  6
Continuous
 62
     7
370
    15
100
AcDbLine
 10
-1.929747795
 20
-4.6125994242
 30
0.0
 11
-1.9321059888
 21
-4.6387057945
 31
0.0
  0
LINE
  5
604
330
1F
100
AcDbEntity
  8
0
  6
Continuous
 62
     7
370
    15
100
AcDbLine
 10
-1.9652450053
 20
-4.5975876358
 30
0.0
 11
-1.929747795
 21
-4.6125994242
 31
0.0
  0
LINE
  5
605
330
1F
100
AcDbEntity
  8
0
  6
Continuous
 62
     7
370
    15
100
AcDbLine
 10
-1.9825899875
 20
-4.617354431
 30
0.0
 11
-1.9652450053
 21
-4.5975876358
 31
0.0
  0
LINE
  5
606
330
1F
100
AcDbEntity
  8
0
  6
Continuous
 62
     7
370
    15
100
AcDbLine
 10
-1.9995618161
 20
-4.6372677886
 30
0.0
 11
-1.9825899875
 21
-4.617354431
 31
0.0
  0
LINE
  5
607
330
1F
100
AcDbEntity
  8
0
  6
Continuous
 62
     7
370
    15
100
AcDbLine
 10
-2.0224943646
 20
-4.6273120216
 30
0.0
 11
-1.9995618161
 21
-4.6372677886
 31
0.0
  0
LINE
  5
608
330
1F
100
AcDbEntity
  8
0
  6
Continuous
 62
     7
370
    15
100
AcDbLine
 10
-2.0192819433
 20
-4.6014264564
 30
0.0
 11
-2.0224943646
 21
-4.6273120216
 31
0.0
  0
LINE
  5
609
330
1F
100
AcDbEntity
  8
0
  6
Continuous
 62
     7
370
    15
100
AcDbLine
 10
-2.0164316124
 20
-4.5753692258
 30
0.0
 11
-2.0192819433
 21
-4.6014264564
 31
0.0
  0
LINE
  5
60A
330
1F
100
AcDbEntity
  8
0
  6
Continuous
 62
     7
370
    15
100
AcDbLine
 10
-2.0516392722
 20
-4.5596903729
 30
0.0
 11
-2.0164316124
 21
-4.5753692258
 31
0.0
  0
LINE
  5
60B
330
1F
100
AcDbEntity
  8
0
  6
Continuous
 62
     7
370
    15
100
AcDbLine
 10
-2.069354113
 20
-4.5791263965
 30
0.0
 11
-2.0516392722
 21
-4.5596903729
 31
0.0
  0
LINE
  5
60C
330
1F
100
AcDbEntity
  8
0
  6
Continuous
 62
     7
370
    15
100
AcDbLine
 10
-2.086698632
 20
-4.5987159968
 30
0.0
 11
-2.069354113
 21
-4.5791263965
 31
0.0
  0
LINE
  5
60D
330
1F
100
AcDbEntity
  8
0
  6
Continuous
 62
     7
370
    15
100
AcDbLine
 10
-2.1094392599
 20
-4.5883293265
 30
0.0
 11
-2.086698632
 21
-4.5987159968
 31
0.0
  0
LINE
  5
60E
330
1F
100
AcDbEntity
  8
0
  6
Continuous
 62
     7
370
    15
100
AcDbLine
 10
-2.1057390196
 20
-4.5625089788
 30
0.0
 11
-2.1094392599
 21
-4.5883293265
 31
0.0
  0
LINE
  5
60F
330
1F
100
AcDbEntity
  8
0
  6
Continuous
 62
     7
370
    15
100
AcDbLine
 10
-2.1023975663
 20
-4.5365101645
 30
0.0
 11
-2.1057390196
 21
-4.5625089788
 31
0.0
  0
LINE
  5
610
330
1F
100
AcDbEntity
  8
0
  6
Continuous
 62
     7
370
    15
100
AcDbLine
 10
-2.1373031413
 20
-4.5201698289
 30
0.0
 11
-2.1023975663
 21
-4.5365101645
 31
0.0
  0
LINE
  5
611
330
1F
100
AcDbEntity
  8
0
  6
Continuous
 62
     7
370
    15
100
AcDbLine
 10
-2.1553815342
 20
-4.5392681615
 30
0.0
 11
-2.1373031413
 21
-4.5201698289
 31
0.0
  0
LINE
  5
612
330
1F
100
AcDbEntity
  8
0
  6
Continuous
 62
     7
370
    15
100
AcDbLine
 10
-2.1730925688
 20
-4.5585270305
 30
0.0
 11
-2.1553815342
 21
-4.5392681615
 31
0.0
  0
LINE
  5
613
330
1F
100
AcDbEntity
  8
0
  6
Continuous
 62
     7
370
    15
100
AcDbLine
 10
-2.1956331803
 20
-4.5477131547
 30
0.0
 11
-2.1730925688
 21
-4.5585270305
 31
0.0
  0
LINE
  5
614
330
1F
100
AcDbEntity
  8
0
  6
Continuous
 62
     7
370
    15
100
AcDbLine
 10
-2.1914464383
 20
-4.5219672166
 30
0.0
 11
-2.1956331803
 21
-4.5477131547
 31
0.0
  0
LINE
  5
615
330
1F
100
AcDbEntity
  8
0
  6
Continuous
 62
     7
370
    15
100
AcDbLine
 10
-2.1876150523
 20
-4.4960360745
 30
0.0
 11
-2.1914464383
 21
-4.5219672166
 31
0.0
  0
LINE
  5
616
330
1F
100
AcDbEntity
  8
0
  6
Continuous
 62
     7
370
    15
100
AcDbLine
 10
-2.2222061158
 20
-4.4790400734
 30
0.0
 11
-2.1876150523
 21
-4.4960360745
 31
0.0
  0
LINE
  5
617
330
1F
100
AcDbEntity
  8
0
  6
Continuous
 62
     7
370
    15
100
AcDbLine
 10
-2.2406416248
 20
-4.4977939158
 30
0.0
 11
-2.2222061158
 21
-4.4790400734
 31
0.0
  0
LINE
  5
618
330
1F
100
AcDbEntity
  8
0
  6
Continuous
 62
     7
370
    15
100
AcDbLine
 10
-2.2587128697
 20
-4.5167151972
 30
0.0
 11
-2.2406416248
 21
-4.4977939158
 31
0.0
  0
LINE
  5
619
330
1F
100
AcDbEntity
  8
0
  6
Continuous
 62
     7
370
    15
100
AcDbLine
 10
-2.2810454402
 20
-4.5054779657
 30
0.0
 11
-2.2587128697
 21
-4.5167151972
 31
0.0
  0
LINE
  5
61A
330
1F
100
AcDbEntity
  8
0
  6
Continuous
 62
     7
370
    15
100
AcDbLine
 10
-2.276373687
 20
-4.479815603
 30
0.0
 11
-2.2810454402
 21
-4.5054779657
 31
0.0
  0
LINE
  5
61B
330
1F
100
AcDbEntity
  8
0
  6
Continuous
 62
     7
370
    15
100
AcDbLine
 10
-2.2720537322
 20
-4.4539613647
 30
0.0
 11
-2.276373687
 21
-4.479815603
 31
0.0
  0
LINE
  5
61C
330
1F
100
AcDbEntity
  8
0
  6
Continuous
 62
     7
370
    15
100
AcDbLine
 10
-2.3063179697
 20
-4.4363157487
 30
0.0
 11
-2.2720537322
 21
-4.4539613647
 31
0.0
  0
LINE
  5
61D
330
1F
100
AcDbEntity
  8
0
  6
Continuous
 62
     7
370
    15
100
AcDbLine
 10
-2.3251040316
 20
-4.4547184246
 30
0.0
 11
-2.3063179697
 21
-4.4363157487
 31
0.0
  0
LINE
  5
61E
330
1F
100
AcDbEntity
  8
0
  6
Continuous
 62
     7
370
    15
100
AcDbLine
 10
-2.3435290533
 20
-4.4732953822
 30
0.0
 11
-2.3251040316
 21
-4.4547184246
 31
0.0
  0
LINE
  5
61F
330
1F
100
AcDbEntity
  8
0
  6
Continuous
 62
     7
370
    15
100
AcDbLine
 10
-2.3656456323
 20
-4.4616387956
 30
0.0
 11
-2.3435290533
 21
-4.4732953822
 31
0.0
  0
LINE
  5
620
330
1F
100
AcDbEntity
  8
0
  6
Continuous
 62
     7
370
    15
100
AcDbLine
 10
-2.360490531
 20
-4.4360691443
 30
0.0
 11
-2.3656456323
 21
-4.4616387956
 31
0.0
  0
LINE
  5
621
330
1F
100
AcDbEntity
  8
0
  6
Continuous
 62
     7
370
    15
100
AcDbLine
 10
-2.3556835454
 20
-4.410301014
 30
0.0
 11
-2.360490531
 21
-4.4360691443
 31
0.0
  0
LINE
  5
622
330
1F
100
AcDbEntity
  8
0
  6
Continuous
 62
     7
370
    15
100
AcDbLine
 10
-2.3896087585
 20
-4.3920120652
 30
0.0
 11
-2.3556835454
 21
-4.410301014
 31
0.0
  0
LINE
  5
623
330
1F
100
AcDbEntity
  8
0
  6
Continuous
 62
     7
370
    15
100
AcDbLine
 10
-2.4087386853
 20
-4.410057023
 30
0.0
 11
-2.3896087585
 21
-4.3920120652
 31
0.0
  0
LINE
  5
624
330
1F
100
AcDbEntity
  8
0
  6
Continuous
 62
     7
370
    15
100
AcDbLine
 10
-2.4275109244
 20
-4.4282830433
 30
0.0
 11
-2.4087386853
 21
-4.410057023
 31
0.0
  0
LINE
  5
625
330
1F
100
AcDbEntity
  8
0
  6
Continuous
 62
     7
370
    15
100
AcDbLine
 10
-2.4494036382
 20
-4.4162112514
 30
0.0
 11
-2.4275109244
 21
-4.4282830433
 31
0.0
  0
LINE
  5
626
330
1F
100
AcDbEntity
  8
0
  6
Continuous
 62
     7
370
    15
100
AcDbLine
 10
-2.4437670242
 20
-4.3907434144
 30
0.0
 11
-2.4494036382
 21
-4.4162112514
 31
0.0
  0
LINE
  5
627
330
1F
100
AcDbEntity
  8
0
  6
Continuous
 62
     7
370
    15
100
AcDbLine
 10
-2.4384747191
 20
-4.3650705658
 30
0.0
 11
-2.4437670242
 21
-4.3907434144
 31
0.0
  0
LINE
  5
628
330
1F
100
AcDbEntity
  8
0
  6
Continuous
 62
     7
370
    15
100
AcDbLine
 10
-2.4720488302
 20
-4.3461447952
 30
0.0
 11
-2.4384747191
 21
-4.3650705658
 31
0.0
  0
LINE
  5
629
330
1F
100
AcDbEntity
  8
0
  6
Continuous
 62
     7
370
    15
100
AcDbLine
 10
-2.4915158115
 20
-4.3638256107
 30
0.0
 11
-2.4720488302
 21
-4.3461447952
 31
0.0
  0
LINE
  5
62A
330
1F
100
AcDbEntity
  8
0
  6
Continuous
 62
     7
370
    15
100
AcDbLine
 10
-2.510628585
 20
-4.3816942052
 30
0.0
 11
-2.4915158115
 21
-4.3638256107
 31
0.0
  0
LINE
  5
62B
330
1F
100
AcDbEntity
  8
0
  6
Continuous
 62
     7
370
    15
100
AcDbLine
 10
-2.5322896396
 20
-4.3692115056
 30
0.0
 11
-2.510628585
 21
-4.3816942052
 31
0.0
  0
LINE
  5
62C
330
1F
100
AcDbEntity
  8
0
  6
Continuous
 62
     7
370
    15
100
AcDbLine
 10
-2.5261735195
 20
-4.3438545497
 30
0.0
 11
-2.5322896396
 21
-4.3692115056
 31
0.0
  0
LINE
  5
62D
330
1F
100
AcDbEntity
  8
0
  6
Continuous
 62
     7
370
    15
100
AcDbLine
 10
-2.520397779
 20
-4.3182861225
 30
0.0
 11
-2.5261735195
 21
-4.3438545497
 31
0.0
  0
LINE
  5
62E
330
1F
100
AcDbEntity
  8
0
  6
Continuous
 62
     7
370
    15
100
AcDbLine
 10
-2.5536088355
 20
-4.2987302678
 30
0.0
 11
-2.520397779
 21
-4.3182861225
 31
0.0
  0
LINE
  5
62F
330
1F
100
AcDbEntity
  8
0
  6
Continuous
 62
     7
370
    15
100
AcDbLine
 10
-2.573405941
 20
-4.3160406466
 30
0.0
 11
-2.5536088355
 21
-4.2987302678
 31
0.0
  0
LINE
  5
630
330
1F
100
AcDbEntity
  8
0
  6
Continuous
 62
     7
370
    15
100
AcDbLine
 10
-2.5928524445
 20
-4.3335454539
 30
0.0
 11
-2.573405941
 21
-4.3160406466
 31
0.0
  0
LINE
  5
631
330
1F
100
AcDbEntity
  8
0
  6
Continuous
 62
     7
370
    15
100
AcDbLine
 10
-2.6142741285
 20
-4.3206562905
 30
0.0
 11
-2.5928524445
 21
-4.3335454539
 31
0.0
  0
LINE
  5
632
330
1F
100
AcDbEntity
  8
0
  6
Continuous
 62
     7
370
    15
100
AcDbLine
 10
-2.6076806797
 20
-4.295419243
 30
0.0
 11
-2.6142741285
 21
-4.3206562905
 31
0.0
  0
LINE
  5
633
330
1F
100
AcDbEntity
  8
0
  6
Continuous
 62
     7
370
    15
100
AcDbLine
 10
-2.6014235599
 20
-4.2699643397
 30
0.0
 11
-2.6076806797
 21
-4.295419243
 31
0.0
  0
LINE
  5
634
330
1F
100
AcDbEntity
  8
0
  6
Continuous
 62
     7
370
    15
100
AcDbLine
 10
-2.6342597385
 20
-4.2497853628
 30
0.0
 11
-2.6014235599
 21
-4.2699643397
 31
0.0
  0
LINE
  5
635
330
1F
100
AcDbEntity
  8
0
  6
Continuous
 62
     7
370
    15
100
AcDbLine
 10
-2.6543799202
 20
-4.2667191423
 30
0.0
 11
-2.6342597385
 21
-4.2497853628
 31
0.0
  0
LINE
  5
636
330
1F
100
AcDbEntity
  8
0
  6
Continuous
 62
     7
370
    15
100
AcDbLine
 10
-2.6741532307
 20
-4.2838539306
 30
0.0
 11
-2.6543799202
 21
-4.2667191423
 31
0.0
  0
LINE
  5
637
330
1F
100
AcDbEntity
  8
0
  6
Continuous
 62
     7
370
    15
100
AcDbLine
 10
-2.6953279178
 20
-4.2705628921
 30
0.0
 11
-2.6741532307
 21
-4.2838539306
 31
0.0
  0
LINE
  5
638
330
1F
100
AcDbEntity
  8
0
  6
Continuous
 62
     7
370
    15
100
AcDbLine
 10
-2.6882594876
 20
-4.2454547374
 30
0.0
 11
-2.6953279178
 21
-4.2705628921
 31
0.0
  0
LINE
  5
639
330
1F
100
AcDbEntity
  8
0
  6
Continuous
 62
     7
370
    15
100
AcDbLine
 10
-2.6815232162
 20
-4.2201224201
 30
0.0
 11
-2.6882594876
 21
-4.2454547374
 31
0.0
  0
LINE
  5
63A
330
1F
100
AcDbEntity
  8
0
  6
Continuous
 62
     7
370
    15
100
AcDbLine
 10
-2.7139728269
 20
-4.199327505
 30
0.0
 11
-2.6815232162
 21
-4.2201224201
 31
0.0
  0
LINE
  5
63B
330
1F
100
AcDbEntity
  8
0
  6
Continuous
 62
     7
370
    15
100
AcDbLine
 10
-2.7344089219
 20
-4.2158786567
 30
0.0
 11
-2.7139728269
 21
-4.199327505
 31
0.0
  0
LINE
  5
63C
330
1F
100
AcDbEntity
  8
0
  6
Continuous
 62
     7
370
    15
100
AcDbLine
 10
-2.754502
 20
-4.2326373258
 30
0.0
 11
-2.7344089219
 21
-4.2158786567
 31
0.0
  0
LINE
  5
63D
330
1F
100
AcDbEntity
  8
0
  6
Continuous
 62
     7
370
    15
100
AcDbLine
 10
-2.7754221519
 20
-4.2189491439
 30
0.0
 11
-2.754502
 21
-4.2326373258
 31
0.0
  0
LINE
  5
63E
330
1F
100
AcDbEntity
  8
0
  6
Continuous
 62
     7
370
    15
100
AcDbLine
 10
-2.7678812566
 20
-4.1939788208
 30
0.0
 11
-2.7754221519
 21
-4.2189491439
 31
0.0
  0
LINE
  5
63F
330
1F
100
AcDbEntity
  8
0
  6
Continuous
 62
     7
370
    15
100
AcDbLine
 10
-2.7606682318
 20
-4.168778108
 30
0.0
 11
-2.7678812566
 21
-4.1939788208
 31
0.0
  0
LINE
  5
640
330
1F
100
AcDbEntity
  8
0
  6
Continuous
 62
     7
370
    15
100
AcDbLine
 10
-2.7927197224
 20
-4.1473746578
 30
0.0
 11
-2.7606682318
 21
-4.168778108
 31
0.0
  0
LINE
  5
641
330
1F
100
AcDbEntity
  8
0
  6
Continuous
 62
     7
370
    15
100
AcDbLine
 10
-2.8134644553
 20
-4.1635372892
 30
0.0
 11
-2.7927197224
 21
-4.1473746578
 31
0.0
  0
LINE
  5
642
330
1F
100
AcDbEntity
  8
0
  6
Continuous
 62
     7
370
    15
100
AcDbLine
 10
-2.8338701477
 20
-4.179913873
 30
0.0
 11
-2.8134644553
 21
-4.1635372892
 31
0.0
  0
LINE
  5
643
330
1F
100
AcDbEntity
  8
0
  6
Continuous
 62
     7
370
    15
100
AcDbLine
 10
-2.8545283166
 20
-4.1658334208
 30
0.0
 11
-2.8338701477
 21
-4.179913873
 31
0.0
  0
LINE
  5
644
330
1F
100
AcDbEntity
  8
0
  6
Continuous
 62
     7
370
    15
100
AcDbLine
 10
-2.8465176409
 20
-4.1410098189
 30
0.0
 11
-2.8545283166
 21
-4.1658334208
 31
0.0
  0
LINE
  5
645
330
1F
100
AcDbEntity
  8
0
  6
Continuous
 62
     7
370
    15
100
AcDbLine
 10
-2.8388304305
 20
-4.1159496823
 30
0.0
 11
-2.8465176409
 21
-4.1410098189
 31
0.0
  0
LINE
  5
646
330
1F
100
AcDbEntity
  8
0
  6
Continuous
 62
     7
370
    15
100
AcDbLine
 10
-2.8704723904
 20
-4.0939453167
 30
0.0
 11
-2.8388304305
 21
-4.1159496823
 31
0.0
  0
LINE
  5
647
330
1F
100
AcDbEntity
  8
0
  6
Continuous
 62
     7
370
    15
100
AcDbLine
 10
-2.891518376
 20
-4.1097136739
 30
0.0
 11
-2.8704723904
 21
-4.0939453167
 31
0.0
  0
LINE
  5
648
330
1F
100
AcDbEntity
  8
0
  6
Continuous
 62
     7
370
    15
100
AcDbLine
 10
-2.9122294181
 20
-4.1257023422
 30
0.0
 11
-2.891518376
 21
-4.1097136739
 31
0.0
  0
LINE
  5
649
330
1F
100
AcDbEntity
  8
0
  6
Continuous
 62
     7
370
    15
100
AcDbLine
 10
-2.9326182496
 20
-4.1112346324
 30
0.0
 11
-2.9122294181
 21
-4.1257023422
 31
0.0
  0
LINE
  5
64A
330
1F
100
AcDbEntity
  8
0
  6
Continuous
 62
     7
370
    15
100
AcDbLine
 10
-2.9241406454
 20
-4.086566589
 30
0.0
 11
-2.9326182496
 21
-4.1112346324
 31
0.0
  0
LINE
  5
64B
330
1F
100
AcDbEntity
  8
0
  6
Continuous
 62
     7
370
    15
100
AcDbLine
 10
-2.915981986
 20
-4.0616559501
 30
0.0
 11
-2.9241406454
 21
-4.086566589
 31
0.0
  0
LINE
  5
64C
330
1F
100
AcDbEntity
  8
0
  6
Continuous
 62
     7
370
    15
100
AcDbLine
 10
-2.9472031505
 20
-4.0390585029
 30
0.0
 11
-2.915981986
 21
-4.0616559501
 31
0.0
  0
LINE
  5
64D
330
1F
100
AcDbEntity
  8
0
  6
Continuous
 62
     7
370
    15
100
AcDbLine
 10
-2.9685428962
 20
-4.0544269722
 30
0.0
 11
-2.9472031505
 21
-4.0390585029
 31
0.0
  0
LINE
  5
64E
330
1F
100
AcDbEntity
  8
0
  6
Continuous
 62
     7
370
    15
100
AcDbLine
 10
-2.9895519148
 20
-4.070022033
 30
0.0
 11
-2.9685428962
 21
-4.0544269722
 31
0.0
  0
LINE
  5
64F
330
1F
100
AcDbEntity
  8
0
  6
Continuous
 62
     7
370
    15
100
AcDbLine
 10
-3.0096641503
 20
-4.0551722161
 30
0.0
 11
-2.9895519148
 21
-4.070022033
 31
0.0
  0
LINE
  5
650
330
1F
100
AcDbEntity
  8
0
  6
Continuous
 62
     7
370
    15
100
AcDbLine
 10
-3.0007226356
 20
-4.0306685133
 30
0.0
 11
-3.0096641503
 21
-4.0551722161
 31
0.0
  0
LINE
  5
651
330
1F
100
AcDbEntity
  8
0
  6
Continuous
 62
     7
370
    15
100
AcDbLine
 10
-2.992095432
 20
-4.0059162405
 30
0.0
 11
-3.0007226356
 21
-4.0306685133
 31
0.0
  0
LINE
  5
652
330
1F
100
AcDbEntity
  8
0
  6
Continuous
 62
     7
370
    15
100
AcDbLine
 10
-3.022884686
 20
-3.9827337565
 30
0.0
 11
-2.992095432
 21
-4.0059162405
 31
0.0
  0
LINE
  5
653
330
1F
100
AcDbEntity
  8
0
  6
Continuous
 62
     7
370
    15
100
AcDbLine
 10
-3.0445105948
 20
-3.9976968667
 30
0.0
 11
-3.022884686
 21
-3.9827337565
 31
0.0
  0
LINE
  5
654
330
1F
100
AcDbEntity
  8
0
  6
Continuous
 62
     7
370
    15
100
AcDbLine
 10
-3.0658101104
 20
-4.0128927679
 30
0.0
 11
-3.0445105948
 21
-3.9976968667
 31
0.0
  0
LINE
  5
655
330
1F
100
AcDbEntity
  8
0
  6
Continuous
 62
     7
370
    15
100
AcDbLine
 10
-3.0856385899
 20
-3.9976661307
 30
0.0
 11
-3.0658101104
 21
-4.0128927679
 31
0.0
  0
LINE
  5
656
330
1F
100
AcDbEntity
  8
0
  6
Continuous
 62
     7
370
    15
100
AcDbLine
 10
-3.076236348
 20
-3.9733354919
 30
0.0
 11
-3.0856385899
 21
-3.9976661307
 31
0.0
  0
LINE
  5
657
330
1F
100
AcDbEntity
  8
0
  6
Continuous
 62
     7
370
    15
100
AcDbLine
 10
-3.0671436713
 20
-3.9487503972
 30
0.0
 11
-3.076236348
 21
-3.9733354919
 31
0.0
  0
LINE
  5
658
330
1F
100
AcDbEntity
  8
0
  6
Continuous
 62
     7
370
    15
100
AcDbLine
 10
-3.0974900538
 20
-3.9249911295
 30
0.0
 11
-3.0671436713
 21
-3.9487503972
 31
0.0
  0
LINE
  5
659
330
1F
100
AcDbEntity
  8
0
  6
Continuous
 62
     7
370
    15
100
AcDbLine
 10
-3.1193944267
 20
-3.9395435536
 30
0.0
 11
-3.0974900538
 21
-3.9249911295
 31
0.0
  0
LINE
  5
65A
330
1F
100
AcDbEntity
  8
0
  6
Continuous
 62
     7
370
    15
100
AcDbLine
 10
-3.1409768566
 20
-3.9543348855
 30
0.0
 11
-3.1193944267
 21
-3.9395435536
 31
0.0
  0
LINE
  5
65B
330
1F
100
AcDbEntity
  8
0
  6
Continuous
 62
     7
370
    15
100
AcDbLine
 10
-3.1605145209
 20
-3.9387368487
 30
0.0
 11
-3.1409768566
 21
-3.9543348855
 31
0.0
  0
LINE
  5
65C
330
1F
100
AcDbEntity
  8
0
  6
Continuous
 62
     7
370
    15
100
AcDbLine
 10
-3.1506548991
 20
-3.9145879358
 30
0.0
 11
-3.1605145209
 21
-3.9387368487
 31
0.0
  0
LINE
  5
65D
330
1F
100
AcDbEntity
  8
0
  6
Continuous
 62
     7
370
    15
100
AcDbLine
 10
-3.1410999865
 20
-3.8901787716
 30
0.0
 11
-3.1506548991
 21
-3.9145879358
 31
0.0
  0
LINE
  5
65E
330
1F
100
AcDbEntity
  8
0
  6
Continuous
 62
     7
370
    15
100
AcDbLine
 10
-3.1709926939
 20
-3.8658511787
 30
0.0
 11
-3.1410999865
 21
-3.8901787716
 31
0.0
  0
LINE
  5
65F
330
1F
100
AcDbEntity
  8
0
  6
Continuous
 62
     7
370
    15
100
AcDbLine
 10
-3.1931677327
 20
-3.8799877359
 30
0.0
 11
-3.1709926939
 21
-3.8658511787
 31
0.0
  0
LINE
  5
660
330
1F
100
AcDbEntity
  8
0
  6
Continuous
 62
     7
370
    15
100
AcDbLine
 10
-3.2150253934
 20
-3.8943692326
 30
0.0
 11
-3.1931677327
 21
-3.8799877359
 31
0.0
  0
LINE
  5
661
330
1F
100
AcDbEntity
  8
0
  6
Continuous
 62
     7
370
    15
100
AcDbLine
 10
-3.234265287
 20
-3.8784053492
 30
0.0
 11
-3.2150253934
 21
-3.8943692326
 31
0.0
  0
LINE
  5
662
330
1F
100
AcDbEntity
  8
0
  6
Continuous
 62
     7
370
    15
100
AcDbLine
 10
-3.2239517954
 20
-3.8544467594
 30
0.0
 11
-3.234265287
 21
-3.8784053492
 31
0.0
  0
LINE
  5
663
330
1F
100
AcDbEntity
  8
0
  6
Continuous
 62
     7
370
    15
100
AcDbLine
 10
-3.2139380484
 20
-3.8302222156
 30
0.0
 11
-3.2239517954
 21
-3.8544467594
 31
0.0
  0
LINE
  5
664
330
1F
100
AcDbEntity
  8
0
  6
Continuous
 62
     7
370
    15
100
AcDbLine
 10
-3.2433664387
 20
-3.8053349582
 30
0.0
 11
-3.2139380484
 21
-3.8302222156
 31
0.0
  0
LINE
  5
665
330
1F
100
AcDbEntity
  8
0
  6
Continuous
 62
     7
370
    15
100
AcDbLine
 10
-3.265804249
 20
-3.8190506159
 30
0.0
 11
-3.2433664387
 21
-3.8053349582
 31
0.0
  0
LINE
  5
666
330
1F
100
AcDbEntity
  8
0
  6
Continuous
 62
     7
370
    15
100
AcDbLine
 10
-3.2879293591
 20
-3.8330171575
 30
0.0
 11
-3.265804249
 21
-3.8190506159
 31
0.0
  0
LINE
  5
667
330
1F
100
AcDbEntity
  8
0
  6
Continuous
 62
     7
370
    15
100
AcDbLine
 10
-3.3068646325
 20
-3.8166931108
 30
0.0
 11
-3.2879293591
 21
-3.8330171575
 31
0.0
  0
LINE
  5
668
330
1F
100
AcDbEntity
  8
0
  6
Continuous
 62
     7
370
    15
100
AcDbLine
 10
-3.2961009427
 20
-3.7929333735
 30
0.0
 11
-3.3068646325
 21
-3.8166931108
 31
0.0
  0
LINE
  5
669
330
1F
100
AcDbEntity
  8
0
  6
Continuous
 62
     7
370
    15
100
AcDbLine
 10
-3.2856319263
 20
-3.7689020742
 30
0.0
 11
-3.2961009427
 21
-3.7929333735
 31
0.0
  0
LINE
  5
66A
330
1F
100
AcDbEntity
  8
0
  6
Continuous
 62
     7
370
    15
100
AcDbLine
 10
-3.3145855228
 20
-3.7434640124
 30
0.0
 11
-3.2856319263
 21
-3.7689020742
 31
0.0
  0
LINE
  5
66B
330
1F
100
AcDbEntity
  8
0
  6
Continuous
 62
     7
370
    15
100
AcDbLine
 10
-3.3372781166
 20
-3.7567538877
 30
0.0
 11
-3.3145855228
 21
-3.7434640124
 31
0.0
  0
LINE
  5
66C
330
1F
100
AcDbEntity
  8
0
  6
Continuous
 62
     7
370
    15
100
AcDbLine
 10
-3.3596627993
 20
-3.7703005019
 30
0.0
 11
-3.3372781166
 21
-3.7567538877
 31
0.0
  0
LINE
  5
66D
330
1F
100
AcDbEntity
  8
0
  6
Continuous
 62
     7
370
    15
100
AcDbLine
 10
-3.3782867114
 20
-3.7536221034
 30
0.0
 11
-3.3596627993
 21
-3.7703005019
 31
0.0
  0
LINE
  5
66E
330
1F
100
AcDbEntity
  8
0
  6
Continuous
 62
     7
370
    15
100
AcDbLine
 10
-3.3670766554
 20
-3.7300696772
 30
0.0
 11
-3.3782867114
 21
-3.7536221034
 31
0.0
  0
LINE
  5
66F
330
1F
100
AcDbEntity
  8
0
  6
Continuous
 62
     7
370
    15
100
AcDbLine
 10
-3.3561560967
 20
-3.7062401777
 30
0.0
 11
-3.3670766554
 21
-3.7300696772
 31
0.0
  0
LINE
  5
670
330
1F
100
AcDbEntity
  8
0
  6
Continuous
 62
     7
370
    15
100
AcDbLine
 10
-3.3846245916
 20
-3.6802603677
 30
0.0
 11
-3.3561560967
 21
-3.7062401777
 31
0.0
  0
LINE
  5
671
330
1F
100
AcDbEntity
  8
0
  6
Continuous
 62
     7
370
    15
100
AcDbLine
 10
-3.4075638902
 20
-3.6931197292
 30
0.0
 11
-3.3846245916
 21
-3.6802603677
 31
0.0
  0
LINE
  5
672
330
1F
100
AcDbEntity
  8
0
  6
Continuous
 62
     7
370
    15
100
AcDbLine
 10
-3.4302001765
 20
-3.7062415935
 30
0.0
 11
-3.4075638902
 21
-3.6931197292
 31
0.0
  0
LINE
  5
673
330
1F
100
AcDbEntity
  8
0
  6
Continuous
 62
     7
370
    15
100
AcDbLine
 10
-3.4485060971
 20
-3.6892147808
 30
0.0
 11
-3.4302001765
 21
-3.7062415935
 31
0.0
  0
LINE
  5
674
330
1F
100
AcDbEntity
  8
0
  6
Continuous
 62
     7
370
    15
100
AcDbLine
 10
-3.4368536656
 20
-3.6658780505
 30
0.0
 11
-3.4485060971
 21
-3.6892147808
 31
0.0
  0
LINE
  5
675
330
1F
100
AcDbEntity
  8
0
  6
Continuous
 62
     7
370
    15
100
AcDbLine
 10
-3.4254854524
 20
-3.6422588342
 30
0.0
 11
-3.4368536656
 21
-3.6658780505
 31
0.0
  0
LINE
  5
676
330
1F
100
AcDbEntity
  8
0
  6
Continuous
 62
     7
370
    15
100
AcDbLine
 10
-3.4534587109
 20
-3.6157465249
 30
0.0
 11
-3.4254854524
 21
-3.6422588342
 31
0.0
  0
LINE
  5
677
330
1F
100
AcDbEntity
  8
0
  6
Continuous
 62
     7
370
    15
100
AcDbLine
 10
-3.4766365477
 20
-3.6281707947
 30
0.0
 11
-3.4534587109
 21
-3.6157465249
 31
0.0
  0
LINE
  5
678
330
1F
100
AcDbEntity
  8
0
  6
Continuous
 62
     7
370
    15
100
AcDbLine
 10
-3.4995163788
 20
-3.6408632375
 30
0.0
 11
-3.4766365477
 21
-3.6281707947
 31
0.0
  0
LINE
  5
679
330
1F
100
AcDbEntity
  8
0
  6
Continuous
 62
     7
370
    15
100
AcDbLine
 10
-3.5174977908
 20
-3.6234940723
 30
0.0
 11
-3.4995163788
 21
-3.6408632375
 31
0.0
  0
LINE
  5
67A
330
1F
100
AcDbEntity
  8
0
  6
Continuous
 62
     7
370
    15
100
AcDbLine
 10
-3.5054071323
 20
-3.600381346
 30
0.0
 11
-3.5174977908
 21
-3.6234940723
 31
0.0
  0
LINE
  5
67B
330
1F
100
AcDbEntity
  8
0
  6
Continuous
 62
     7
370
    15
100
AcDbLine
 10
-3.4935953118
 20
-3.5769808215
 30
0.0
 11
-3.5054071323
 21
-3.600381346
 31
0.0
  0
LINE
  5
67C
330
1F
100
AcDbEntity
  8
0
  6
Continuous
 62
     7
370
    15
100
AcDbLine
 10
-3.5210633751
 20
-3.5499454515
 30
0.0
 11
-3.4935953118
 21
-3.5769808215
 31
0.0
  0
LINE
  5
67D
330
1F
100
AcDbEntity
  8
0
  6
Continuous
 62
     7
370
    15
100
AcDbLine
 10
-3.5444714986
 20
-3.5619302065
 30
0.0
 11
-3.5210633751
 21
-3.5499454515
 31
0.0
  0
LINE
  5
67E
330
1F
100
AcDbEntity
  8
0
  6
Continuous
 62
     7
370
    15
100
AcDbLine
 10
-3.5675867293
 20
-3.5741887092
 30
0.0
 11
-3.5444714986
 21
-3.5619302065
 31
0.0
  0
LINE
  5
67F
330
1F
100
AcDbEntity
  8
0
  6
Continuous
 62
     7
370
    15
100
AcDbLine
 10
-3.5852372311
 20
-3.556483375
 30
0.0
 11
-3.5675867293
 21
-3.5741887092
 31
0.0
  0
LINE
  5
680
330
1F
100
AcDbEntity
  8
0
  6
Continuous
 62
     7
370
    15
100
AcDbLine
 10
-3.57271265
 20
-3.533602881
 30
0.0
 11
-3.5852372311
 21
-3.556483375
 31
0.0
  0
LINE
  5
681
330
1F
100
AcDbEntity
  8
0
  6
Continuous
 62
     7
370
    15
100
AcDbLine
 10
-3.5604614272
 20
-3.5104293791
 30
0.0
 11
-3.57271265
 21
-3.533602881
 31
0.0
  0
LINE
  5
682
330
1F
100
AcDbEntity
  8
0
  6
Continuous
 62
     7
370
    15
100
AcDbLine
 10
-3.5874145165
 20
-3.4828805732
 30
0.0
 11
-3.5604614272
 21
-3.5104293791
 31
0.0
  0
LINE
  5
683
330
1F
100
AcDbEntity
  8
0
  6
Continuous
 62
     7
370
    15
100
AcDbLine
 10
-3.6110445933
 20
-3.4944215466
 30
0.0
 11
-3.5874145165
 21
-3.4828805732
 31
0.0
  0
LINE
  5
684
330
1F
100
AcDbEntity
  8
0
  6
Continuous
 62
     7
370
    15
100
AcDbLine
 10
-3.6343869943
 20
-3.5062417452
 30
0.0
 11
-3.6110445933
 21
-3.4944215466
 31
0.0
  0
LINE
  5
685
330
1F
100
AcDbEntity
  8
0
  6
Continuous
 62
     7
370
    15
100
AcDbLine
 10
-3.6517003024
 20
-3.4882065451
 30
0.0
 11
-3.6343869943
 21
-3.5062417452
 31
0.0
  0
LINE
  5
686
330
1F
100
AcDbEntity
  8
0
  6
Continuous
 62
     7
370
    15
100
AcDbLine
 10
-3.6387462574
 20
-3.4655664291
 30
0.0
 11
-3.6517003024
 21
-3.4882065451
 31
0.0
  0
LINE
  5
687
330
1F
100
AcDbEntity
  8
0
  6
Continuous
 62
     7
370
    15
100
AcDbLine
 10
-3.6260599938
 20
-3.4426281997
 30
0.0
 11
-3.6387462574
 21
-3.4655664291
 31
0.0
  0
LINE
  5
688
330
1F
100
AcDbEntity
  8
0
  6
Continuous
 62
     7
370
    15
100
AcDbLine
 10
-3.6524885137
 20
-3.4145757654
 30
0.0
 11
-3.6260599938
 21
-3.4426281997
 31
0.0
  0
LINE
  5
689
330
1F
100
AcDbEntity
  8
0
  6
Continuous
 62
     7
370
    15
100
AcDbLine
 10
-3.6763321313
 20
-3.4256688486
 30
0.0
 11
-3.6524885137
 21
-3.4145757654
 31
0.0
  0
LINE
  5
68A
330
1F
100
AcDbEntity
  8
0
  6
Continuous
 62
     7
370
    15
100
AcDbLine
 10
-3.6998933926
 20
-3.437046535
 30
0.0
 11
-3.6763321313
 21
-3.4256688486
 31
0.0
  0
LINE
  5
68B
330
1F
100
AcDbEntity
  8
0
  6
Continuous
 62
     7
370
    15
100
AcDbLine
 10
-3.7168633432
 20
-3.4186878898
 30
0.0
 11
-3.6998933926
 21
-3.437046535
 31
0.0
  0
LINE
  5
68C
330
1F
100
AcDbEntity
  8
0
  6
Continuous
 62
     7
370
    15
100
AcDbLine
 10
-3.7034844461
 20
-3.3962962117
 30
0.0
 11
-3.7168633432
 21
-3.4186878898
 31
0.0
  0
LINE
  5
68D
330
1F
100
AcDbEntity
  8
0
  6
Continuous
 62
     7
370
    15
100
AcDbLine
 10
-3.6903676582
 20
-3.373601421
 30
0.0
 11
-3.7034844461
 21
-3.3962962117
 31
0.0
  0
LINE
  5
68E
330
1F
100
AcDbEntity
  8
0
  6
Continuous
 62
     7
370
    15
100
AcDbLine
 10
-3.7162621998
 20
-3.3450553452
 30
0.0
 11
-3.6903676582
 21
-3.373601421
 31
0.0
  0
LINE
  5
68F
330
1F
100
AcDbEntity
  8
0
  6
Continuous
 62
     7
370
    15
100
AcDbLine
 10
-3.7403108698
 20
-3.3556965889
 30
0.0
 11
-3.7162621998
 21
-3.3450553452
 31
0.0
  0
LINE
  5
690
330
1F
100
AcDbEntity
  8
0
  6
Continuous
 62
     7
370
    15
100
AcDbLine
 10
-3.7640826034
 20
-3.3666277126
 30
0.0
 11
-3.7403108698
 21
-3.3556965889
 31
0.0
  0
LINE
  5
691
330
1F
100
AcDbEntity
  8
0
  6
Continuous
 62
     7
370
    15
100
AcDbLine
 10
-3.7807031551
 20
-3.3479521581
 30
0.0
 11
-3.7640826034
 21
-3.3666277126
 31
0.0
  0
LINE
  5
692
330
1F
100
AcDbEntity
  8
0
  6
Continuous
 62
     7
370
    15
100
AcDbLine
 10
-3.7669041689
 20
-3.3258168894
 30
0.0
 11
-3.7807031551
 21
-3.3479521581
 31
0.0
  0
LINE
  5
693
330
1F
100
AcDbEntity
  8
0
  6
Continuous
 62
     7
370
    15
100
AcDbLine
 10
-3.7533615263
 20
-3.303373617
 30
0.0
 11
-3.7669041689
 21
-3.3258168894
 31
0.0
  0
LINE
  5
694
330
1F
100
AcDbEntity
  8
0
  6
Continuous
 62
     7
370
    15
100
AcDbLine
 10
-3.7787128711
 20
-3.2743440622
 30
0.0
 11
-3.7533615263
 21
-3.303373617
 31
0.0
  0
LINE
  5
695
330
1F
100
AcDbEntity
  8
0
  6
Continuous
 62
     7
370
    15
100
AcDbLine
 10
-3.8029580319
 20
-3.2845296783
 30
0.0
 11
-3.7787128711
 21
-3.2743440622
 31
0.0
  0
LINE
  5
696
330
1F
100
AcDbEntity
  8
0
  6
Continuous
 62
     7
370
    15
100
AcDbLine
 10
-3.8269317749
 20
-3.2950103475
 30
0.0
 11
-3.8029580319
 21
-3.2845296783
 31
0.0
  0
LINE
  5
697
330
1F
100
AcDbEntity
  8
0
  6
Continuous
 62
     7
370
    15
100
AcDbLine
 10
-3.8431970108
 20
-3.2760245323
 30
0.0
 11
-3.8269317749
 21
-3.2950103475
 31
0.0
  0
LINE
  5
698
330
1F
100
AcDbEntity
  8
0
  6
Continuous
 62
     7
370
    15
100
AcDbLine
 10
-3.828982848
 20
-3.2541535536
 30
0.0
 11
-3.8431970108
 21
-3.2760245323
 31
0.0
  0
LINE
  5
699
330
1F
100
AcDbEntity
  8
0
  6
Continuous
 62
     7
370
    15
100
AcDbLine
 10
-3.8150191719
 20
-3.2319697892
 30
0.0
 11
-3.828982848
 21
-3.2541535536
 31
0.0
  0
LINE
  5
69A
330
1F
100
AcDbEntity
  8
0
  6
Continuous
 62
     7
370
    15
100
AcDbLine
 10
-3.8398182946
 20
-3.2024670903
 30
0.0
 11
-3.8150191719
 21
-3.2319697892
 31
0.0
  0
LINE
  5
69B
330
1F
100
AcDbEntity
  8
0
  6
Continuous
 62
     7
370
    15
100
AcDbLine
 10
-3.8642513149
 20
-3.2121934524
 30
0.0
 11
-3.8398182946
 21
-3.2024670903
 31
0.0
  0
LINE
  5
69C
330
1F
100
AcDbEntity
  8
0
  6
Continuous
 62
     7
370
    15
100
AcDbLine
 10
-3.8884185324
 20
-3.2222199362
 30
0.0
 11
-3.8642513149
 21
-3.2121934524
 31
0.0
  0
LINE
  5
69D
330
1F
100
AcDbEntity
  8
0
  6
Continuous
 62
     7
370
    15
100
AcDbLine
 10
-3.9043226618
 20
-3.2029306194
 30
0.0
 11
-3.8884185324
 21
-3.2222199362
 31
0.0
  0
LINE
  5
69E
330
1F
100
AcDbEntity
  8
0
  6
Continuous
 62
     7
370
    15
100
AcDbLine
 10
-3.8896983828
 20
-3.1813317166
 30
0.0
 11
-3.9043226618
 21
-3.2029306194
 31
0.0
  0
LINE
  5
69F
330
1F
100
AcDbEntity
  8
0
  6
Continuous
 62
     7
370
    15
100
AcDbLine
 10
-3.8753186444
 20
-3.159415358
 30
0.0
 11
-3.8896983828
 21
-3.1813317166
 31
0.0
  0
LINE
  5
6A0
330
1F
100
AcDbEntity
  8
0
  6
Continuous
 62
     7
370
    15
100
AcDbLine
 10
-3.8995567164
 20
-3.1294500181
 30
0.0
 11
-3.8753186444
 21
-3.159415358
 31
0.0
  0
LINE
  5
6A1
330
1F
100
AcDbEntity
  8
0
  6
Continuous
 62
     7
370
    15
100
AcDbLine
 10
-3.9241688977
 20
-3.1387136636
 30
0.0
 11
-3.8995567164
 21
-3.1294500181
 31
0.0
  0
LINE
  5
6A2
330
1F
100
AcDbEntity
  8
0
  6
Continuous
 62
     7
370
    15
100
AcDbLine
 10
-3.9485209861
 20
-3.1482823924
 30
0.0
 11
-3.9241688977
 21
-3.1387136636
 31
0.0
  0
LINE
  5
6A3
330
1F
100
AcDbEntity
  8
0
  6
Continuous
 62
     7
370
    15
100
AcDbLine
 10
-3.9640583472
 20
-3.1286964411
 30
0.0
 11
-3.9485209861
 21
-3.1482823924
 31
0.0
  0
LINE
  5
6A4
330
1F
100
AcDbEntity
  8
0
  6
Continuous
 62
     7
370
    15
100
AcDbLine
 10
-3.9490291582
 20
-3.1073773037
 30
0.0
 11
-3.9640583472
 21
-3.1286964411
 31
0.0
  0
LINE
  5
6A5
330
1F
100
AcDbEntity
  8
0
  6
Continuous
 62
     7
370
    15
100
AcDbLine
 10
-3.9342384769
 20
-3.0857361532
 30
0.0
 11
-3.9490291582
 21
-3.1073773037
 31
0.0
  0
LINE
  5
6A6
330
1F
100
AcDbEntity
  8
0
  6
Continuous
 62
     7
370
    15
100
AcDbLine
 10
-3.9579068692
 20
-3.0553188401
 30
0.0
 11
-3.9342384769
 21
-3.0857361532
 31
0.0
  0
LINE
  5
6A7
330
1F
100
AcDbEntity
  8
0
  6
Continuous
 62
     7
370
    15
100
AcDbLine
 10
-3.9826894495
 20
-3.0641164712
 30
0.0
 11
-3.9579068692
 21
-3.0553188401
 31
0.0
  0
LINE
  5
6A8
330
1F
100
AcDbEntity
  8
0
  6
Continuous
 62
     7
370
    15
100
AcDbLine
 10
-4.0072177392
 20
-3.0732240384
 30
0.0
 11
-3.9826894495
 21
-3.0641164712
 31
0.0
  0
LINE
  5
6A9
330
1F
100
AcDbEntity
  8
0
  6
Continuous
 62
     7
370
    15
100
AcDbLine
 10
-4.0223828005
 20
-3.0533484253
 30
0.0
 11
-4.0072177392
 21
-3.0732240384
 31
0.0
  0
LINE
  5
6AA
330
1F
100
AcDbEntity
  8
0
  6
Continuous
 62
     7
370
    15
100
AcDbLine
 10
-4.0069540521
 20
-3.0323166432
 30
0.0
 11
-4.0223828005
 21
-3.0533484253
 31
0.0
  0
LINE
  5
6AB
330
1F
100
AcDbEntity
  8
0
  6
Continuous
 62
     7
370
    15
100
AcDbLine
 10
-3.9917576934
 20
-3.0109584051
 30
0.0
 11
-4.0069540521
 21
-3.0323166432
 31
0.0
  0
LINE
  5
6AC
330
1F
100
AcDbEntity
  8
0
  6
Continuous
 62
     7
370
    15
100
AcDbLine
 10
-4.0148479799
 20
-2.9800999476
 30
0.0
 11
-3.9917576934
 21
-3.0109584051
 31
0.0
  0
LINE
  5
6AD
330
1F
100
AcDbEntity
  8
0
  6
Continuous
 62
     7
370
    15
100
AcDbLine
 10
-4.0397921364
 20
-2.9884284322
 30
0.0
 11
-4.0148479799
 21
-2.9800999476
 31
0.0
  0
LINE
  5
6AE
330
1F
100
AcDbEntity
  8
0
  6
Continuous
 62
     7
370
    15
100
AcDbLine
 10
-4.0644878953
 20
-2.9970715955
 30
0.0
 11
-4.0397921364
 21
-2.9884284322
 31
0.0
  0
LINE
  5
6AF
330
1F
100
AcDbEntity
  8
0
  6
Continuous
 62
     7
370
    15
100
AcDbLine
 10
-4.0792752579
 20
-2.9769133966
 30
0.0
 11
-4.0644878953
 21
-2.9970715955
 31
0.0
  0
LINE
  5
6B0
330
1F
100
AcDbEntity
  8
0
  6
Continuous
 62
     7
370
    15
100
AcDbLine
 10
-4.0634524428
 20
-2.956176457
 30
0.0
 11
-4.0792752579
 21
-2.9769133966
 31
0.0
  0
LINE
  5
6B1
330
1F
100
AcDbEntity
  8
0
  6
Continuous
 62
     7
370
    15
100
AcDbLine
 10
-4.0478558167
 20
-2.9351087352
 30
0.0
 11
-4.0634524428
 21
-2.956176457
 31
0.0
  0
LINE
  5
6B2
330
1F
100
AcDbEntity
  8
0
  6
Continuous
 62
     7
370
    15
100
AcDbLine
 10
-4.0703597772
 20
-2.9038201191
 30
0.0
 11
-4.0478558167
 21
-2.9351087352
 31
0.0
  0
LINE
  5
6B3
330
1F
100
AcDbEntity
  8
0
  6
Continuous
 62
     7
370
    15
100
AcDbLine
 10
-4.0954566296
 20
-2.9116764922
 30
0.0
 11
-4.0703597772
 21
-2.9038201191
 31
0.0
  0
LINE
  5
6B4
330
1F
100
AcDbEntity
  8
0
  6
Continuous
 62
     7
370
    15
100
AcDbLine
 10
-4.1203110658
 20
-2.9198521746
 30
0.0
 11
-4.0954566296
 21
-2.9116764922
 31
0.0
  0
LINE
  5
6B5
330
1F
100
AcDbEntity
  8
0
  6
Continuous
 62
     7
370
    15
100
AcDbLine
 10
-4.1347154652
 20
-2.8994185661
 30
0.0
 11
-4.1203110658
 21
-2.9198521746
 31
0.0
  0
LINE
  5
6B6
330
1F
100
AcDbEntity
  8
0
  6
Continuous
 62
     7
370
    15
100
AcDbLine
 10
-4.1185042165
 20
-2.8789838517
 30
0.0
 11
-4.1347154652
 21
-2.8994185661
 31
0.0
  0
LINE
  5
6B7
330
1F
100
AcDbEntity
  8
0
  6
Continuous
 62
     7
370
    15
100
AcDbLine
 10
-4.1025128755
 20
-2.8582141463
 30
0.0
 11
-4.1185042165
 21
-2.8789838517
 31
0.0
  0
LINE
  5
6B8
330
1F
100
AcDbEntity
  8
0
  6
Continuous
 62
     7
370
    15
100
AcDbLine
 10
-4.1244224984
 20
-2.8265065106
 30
0.0
 11
-4.1025128755
 21
-2.8582141463
 31
0.0
  0
LINE
  5
6B9
330
1F
100
AcDbEntity
  8
0
  6
Continuous
 62
     7
370
    15
100
AcDbLine
 10
-4.1496631121
 20
-2.8338879753
 30
0.0
 11
-4.1244224984
 21
-2.8265065106
 31
0.0
  0
LINE
  5
6BA
330
1F
100
AcDbEntity
  8
0
  6
Continuous
 62
     7
370
    15
100
AcDbLine
 10
-4.1746673771
 20
-2.8415932662
 30
0.0
 11
-4.1496631121
 21
-2.8338879753
 31
0.0
  0
LINE
  5
6BB
330
1F
100
AcDbEntity
  8
0
  6
Continuous
 62
     7
370
    15
100
AcDbLine
 10
-4.1886836854
 20
-2.8208915228
 30
0.0
 11
-4.1746673771
 21
-2.8415932662
 31
0.0
  0
LINE
  5
6BC
330
1F
100
AcDbEntity
  8
0
  6
Continuous
 62
     7
370
    15
100
AcDbLine
 10
-4.1720897744
 20
-2.8007663084
 30
0.0
 11
-4.1886836854
 21
-2.8208915228
 31
0.0
  0
LINE
  5
6BD
330
1F
100
AcDbEntity
  8
0
  6
Continuous
 62
     7
370
    15
100
AcDbLine
 10
-4.1557094116
 20
-2.7803020135
 30
0.0
 11
-4.1720897744
 21
-2.8007663084
 31
0.0
  0
LINE
  5
6BE
330
1F
100
AcDbEntity
  8
0
  6
Continuous
 62
     7
370
    15
100
AcDbLine
 10
-4.1770168968
 20
-2.7481866464
 30
0.0
 11
-4.1557094116
 21
-2.7803020135
 31
0.0
  0
LINE
  5
6BF
330
1F
100
AcDbEntity
  8
0
  6
Continuous
 62
     7
370
    15
100
AcDbLine
 10
-4.2023922859
 20
-2.7550905748
 30
0.0
 11
-4.1770168968
 21
-2.7481866464
 31
0.0
  0
LINE
  5
6C0
330
1F
100
AcDbEntity
  8
0
  6
Continuous
 62
     7
370
    15
100
AcDbLine
 10
-4.2275374782
 20
-2.762322731
 30
0.0
 11
-4.2023922859
 21
-2.7550905748
 31
0.0
  0
LINE
  5
6C1
330
1F
100
AcDbEntity
  8
0
  6
Continuous
 62
     7
370
    15
100
AcDbLine
 10
-4.2411607055
 20
-2.7413602227
 30
0.0
 11
-4.2275374782
 21
-2.762322731
 31
0.0
  0
LINE
  5
6C2
330
1F
100
AcDbEntity
  8
0
  6
Continuous
 62
     7
370
    15
100
AcDbLine
 10
-4.2241900397
 20
-2.721551673
 30
0.0
 11
-4.2411607055
 21
-2.7413602227
 31
0.0
  0
LINE
  5
6C3
330
1F
100
AcDbEntity
  8
0
  6
Continuous
 62
     7
370
    15
100
AcDbLine
 10
-4.2074264865
 20
-2.7014000742
 30
0.0
 11
-4.2241900397
 21
-2.721551673
 31
0.0
  0
LINE
  5
6C4
330
1F
100
AcDbEntity
  8
0
  6
Continuous
 62
     7
370
    15
100
AcDbLine
 10
-4.2281242485
 20
-2.6688884089
 30
0.0
 11
-4.2074264865
 21
-2.7014000742
 31
0.0
  0
LINE
  5
6C5
330
1F
100
AcDbEntity
  8
0
  6
Continuous
 62
     7
370
    15
100
AcDbLine
 10
-4.2536253792
 20
-2.6753123431
 30
0.0
 11
-4.2281242485
 21
-2.6688884089
 31
0.0
  0
LINE
  5
6C6
330
1F
100
AcDbEntity
  8
0
  6
Continuous
 62
     7
370
    15
100
AcDbLine
 10
-4.2789025469
 20
-2.68206879
 30
0.0
 11
-4.2536253792
 21
-2.6753123431
 31
0.0
  0
LINE
  5
6C7
330
1F
100
AcDbEntity
  8
0
  6
Continuous
 62
     7
370
    15
100
AcDbLine
 10
-4.2921278431
 20
-2.6608529795
 30
0.0
 11
-4.2789025469
 21
-2.68206879
 31
0.0
  0
LINE
  5
6C8
330
1F
100
AcDbEntity
  8
0
  6
Continuous
 62
     7
370
    15
100
AcDbLine
 10
-4.2747864642
 20
-2.6413681465
 30
0.0
 11
-4.2921278431
 21
-2.6608529795
 31
0.0
  0
LINE
  5
6C9
330
1F
100
AcDbEntity
  8
0
  6
Continuous
 62
     7
370
    15
100
AcDbLine
 10
-4.2576456887
 20
-2.6215364178
 30
0.0
 11
-4.2747864642
 21
-2.6413681465
 31
0.0
  0
LINE
  5
6CA
330
1F
100
AcDbEntity
  8
0
  6
Continuous
 62
     7
370
    15
100
AcDbLine
 10
-4.2777263589
 20
-2.5886400287
 30
0.0
 11
-4.2576456887
 21
-2.6215364178
 31
0.0
  0
LINE
  5
6CB
330
1F
100
AcDbEntity
  8
0
  6
Continuous
 62
     7
370
    15
100
AcDbLine
 10
-4.3033441527
 20
-2.5945816818
 30
0.0
 11
-4.2777263589
 21
-2.5886400287
 31
0.0
  0
LINE
  5
6CC
330
1F
100
AcDbEntity
  8
0
  6
Continuous
 62
     7
370
    15
100
AcDbLine
 10
-4.3287442968
 20
-2.600860014
 30
0.0
 11
-4.3033441527
 21
-2.5945816818
 31
0.0
  0
LINE
  5
6CD
330
1F
100
AcDbEntity
  8
0
  6
Continuous
 62
     7
370
    15
100
AcDbLine
 10
-4.3415669538
 20
-2.5793984543
 30
0.0
 11
-4.3287442968
 21
-2.600860014
 31
0.0
  0
LINE
  5
6CE
330
1F
100
AcDbEntity
  8
0
  6
Continuous
 62
     7
370
    15
100
AcDbLine
 10
-4.3238610354
 20
-2.5602442748
 30
0.0
 11
-4.3415669538
 21
-2.5793984543
 31
0.0
  0
LINE
  5
6CF
330
1F
100
AcDbEntity
  8
0
  6
Continuous
 62
     7
370
    15
100
AcDbLine
 10
-4.3063491397
 20
-2.5407394764
 30
0.0
 11
-4.3238610354
 21
-2.5602442748
 31
0.0
  0
LINE
  5
6D0
330
1F
100
AcDbEntity
  8
0
  6
Continuous
 62
     7
370
    15
100
AcDbLine
 10
-4.3258055693
 20
-2.5074700749
 30
0.0
 11
-4.3063491397
 21
-2.5407394764
 31
0.0
  0
LINE
  5
6D1
330
1F
100
AcDbEntity
  8
0
  6
Continuous
 62
     7
370
    15
100
AcDbLine
 10
-4.351530906
 20
-2.5129273317
 30
0.0
 11
-4.3258055693
 21
-2.5074700749
 31
0.0
  0
LINE
  5
6D2
330
1F
100
AcDbEntity
  8
0
  6
Continuous
 62
     7
370
    15
100
AcDbLine
 10
-4.3770449841
 20
-2.518725314
 30
0.0
 11
-4.351530906
 21
-2.5129273317
 31
0.0
  0
LINE
  5
6D3
330
1F
100
AcDbEntity
  8
0
  6
Continuous
 62
     7
370
    15
100
AcDbLine
 10
-4.3894604367
 20
-2.4970256455
 30
0.0
 11
-4.3770449841
 21
-2.518725314
 31
0.0
  0
LINE
  5
6D4
330
1F
100
AcDbEntity
  8
0
  6
Continuous
 62
     7
370
    15
100
AcDbLine
 10
-4.3713962823
 20
-2.4782089385
 30
0.0
 11
-4.3894604367
 21
-2.4970256455
 31
0.0
  0
LINE
  5
6D5
330
1F
100
AcDbEntity
  8
0
  6
Continuous
 62
     7
370
    15
100
AcDbLine
 10
-4.3535195008
 20
-2.4590380143
 30
0.0
 11
-4.3713962823
 21
-2.4782089385
 31
0.0
  0
LINE
  5
6D6
330
1F
100
AcDbEntity
  8
0
  6
Continuous
 62
     7
370
    15
100
AcDbLine
 10
-4.3723447632
 20
-2.4254074445
 30
0.0
 11
-4.3535195008
 21
-2.4590380143
 31
0.0
  0
LINE
  5
6D7
330
1F
100
AcDbEntity
  8
0
  6
Continuous
 62
     7
370
    15
100
AcDbLine
 10
-4.3981684844
 20
-2.4303783621
 30
0.0
 11
-4.3723447632
 21
-2.4254074445
 31
0.0
  0
LINE
  5
6D8
330
1F
100
AcDbEntity
  8
0
  6
Continuous
 62
     7
370
    15
100
AcDbLine
 10
-4.4237874132
 20
-2.4356939305
 30
0.0
 11
-4.3981684844
 21
-2.4303783621
 31
0.0
  0
LINE
  5
6D9
330
1F
100
AcDbEntity
  8
0
  6
Continuous
 62
     7
370
    15
100
AcDbLine
 10
-4.4357912416
 20
-2.4137638785
 30
0.0
 11
-4.4237874132
 21
-2.4356939305
 31
0.0
  0
LINE
  5
6DA
330
1F
100
AcDbEntity
  8
0
  6
Continuous
 62
     7
370
    15
100
AcDbLine
 10
-4.4173752821
 20
-2.3952913428
 30
0.0
 11
-4.4357912416
 21
-2.4137638785
 31
0.0
  0
LINE
  5
6DB
330
1F
100
AcDbEntity
  8
0
  6
Continuous
 62
     7
370
    15
100
AcDbLine
 10
-4.3991399791
 20
-2.3764611178
 30
0.0
 11
-4.4173752821
 21
-2.3952913428
 31
0.0
  0
LINE
  5
6DC
330
1F
100
AcDbEntity
  8
0
  6
Continuous
 62
     7
370
    15
100
AcDbLine
 10
-4.4173273723
 20
-2.3424813523
 30
0.0
 11
-4.3991399791
 21
-2.3764611178
 31
0.0
  0
LINE
  5
6DD
330
1F
100
AcDbEntity
  8
0
  6
Continuous
 62
     7
370
    15
100
AcDbLine
 10
-4.4432402846
 20
-2.3469641611
 30
0.0
 11
-4.4173273723
 21
-2.3424813523
 31
0.0
  0
LINE
  5
6DE
330
1F
100
AcDbEntity
  8
0
  6
Continuous
 62
     7
370
    15
100
AcDbLine
 10
-4.4689549436
 20
-2.3517954232
 30
0.0
 11
-4.4432402846
 21
-2.3469641611
 31
0.0
  0
LINE
  5
6DF
330
1F
100
AcDbEntity
  8
0
  6
Continuous
 62
     7
370
    15
100
AcDbLine
 10
-4.4805428743
 20
-2.3296427949
 30
0.0
 11
-4.4689549436
 21
-2.3517954232
 31
0.0
  0
LINE
  5
6E0
330
1F
100
AcDbEntity
  8
0
  6
Continuous
 62
     7
370
    15
100
AcDbLine
 10
-4.4617816659
 20
-2.3115210069
 30
0.0
 11
-4.4805428743
 21
-2.3296427949
 31
0.0
  0
LINE
  5
6E1
330
1F
100
AcDbEntity
  8
0
  6
Continuous
 62
     7
370
    15
100
AcDbLine
 10
-4.4431943333
 20
-2.2930381848
 30
0.0
 11
-4.4617816659
 21
-2.3115210069
 31
0.0
  0
LINE
  5
6E2
330
1F
100
AcDbEntity
  8
0
  6
Continuous
 62
     7
370
    15
100
AcDbLine
 10
-4.4607373825
 20
-2.2587213207
 30
0.0
 11
-4.4431943333
 21
-2.2930381848
 31
0.0
  0
LINE
  5
6E3
330
1F
100
AcDbEntity
  8
0
  6
Continuous
 62
     7
370
    15
100
AcDbLine
 10
-4.4867302607
 20
-2.2627144247
 30
0.0
 11
-4.4607373825
 21
-2.2587213207
 31
0.0
  0
LINE
  5
6E4
330
1F
100
AcDbEntity
  8
0
  6
Continuous
 62
     7
370
    15
100
AcDbLine
 10
-4.5125314953
 20
-2.2670596605
 30
0.0
 11
-4.4867302607
 21
-2.2627144247
 31
0.0
  0
LINE
  5
6E5
330
1F
100
AcDbEntity
  8
0
  6
Continuous
 62
     7
370
    15
100
AcDbLine
 10
-4.5236994029
 20
-2.2446923425
 30
0.0
 11
-4.5125314953
 21
-2.2670596605
 31
0.0
  0
LINE
  5
6E6
330
1F
100
AcDbEntity
  8
0
  6
Continuous
 62
     7
370
    15
100
AcDbLine
 10
-4.5045996248
 20
-2.2269277537
 30
0.0
 11
-4.5236994029
 21
-2.2446923425
 31
0.0
  0
LINE
  5
6E7
330
1F
100
AcDbEntity
  8
0
  6
Continuous
 62
     7
370
    15
100
AcDbLine
 10
-4.4856668797
 20
-2.2087989144
 30
0.0
 11
-4.5045996248
 21
-2.2269277537
 31
0.0
  0
LINE
  5
6E8
330
1F
100
AcDbEntity
  8
0
  6
Continuous
 62
     7
370
    15
100
AcDbLine
 10
-4.5025593394
 20
-2.1741571688
 30
0.0
 11
-4.4856668797
 21
-2.2087989144
 31
0.0
  0
LINE
  5
6E9
330
1F
100
AcDbEntity
  8
0
  6
Continuous
 62
     7
370
    15
100
AcDbLine
 10
-4.52862293
 20
-2.1776591465
 30
0.0
 11
-4.5025593394
 21
-2.1741571688
 31
0.0
  0
LINE
  5
6EA
330
1F
100
AcDbEntity
  8
0
  6
Continuous
 62
     7
370
    15
100
AcDbLine
 10
-4.5545015547
 20
-2.181516809
 30
0.0
 11
-4.52862293
 21
-2.1776591465
 31
0.0
  0
LINE
  5
6EB
330
1F
100
AcDbEntity
  8
0
  6
Continuous
 62
     7
370
    15
100
AcDbLine
 10
-4.5652454634
 20
-2.1589427641
 30
0.0
 11
-4.5545015547
 21
-2.181516809
 31
0.0
  0
LINE
  5
6EC
330
1F
100
AcDbEntity
  8
0
  6
Continuous
 62
     7
370
    15
100
AcDbLine
 10
-4.5458139153
 20
-2.1415416988
 30
0.0
 11
-4.5652454634
 21
-2.1589427641
 31
0.0
  0
LINE
  5
6ED
330
1F
100
AcDbEntity
  8
0
  6
Continuous
 62
     7
370
    15
100
AcDbLine
 10
-4.5265424979
 20
-2.1237732964
 30
0.0
 11
-4.5458139153
 21
-2.1415416988
 31
0.0
  0
LINE
  5
6EE
330
1F
100
AcDbEntity
  8
0
  6
Continuous
 62
     7
370
    15
100
AcDbLine
 10
-4.5427783544
 20
-2.088819002
 30
0.0
 11
-4.5265424979
 21
-2.1237732964
 31
0.0
  0
LINE
  5
6EF
330
1F
100
AcDbEntity
  8
0
  6
Continuous
 62
     7
370
    15
100
AcDbLine
 10
-4.5689033784
 20
-2.0918286066
 30
0.0
 11
-4.5427783544
 21
-2.088819002
 31
0.0
  0
LINE
  5
6F0
330
1F
100
AcDbEntity
  8
0
  6
Continuous
 62
     7
370
    15
100
AcDbLine
 10
-4.5948501803
 20
-2.0951973226
 30
0.0
 11
-4.5689033784
 21
-2.0918286066
 31
0.0
  0
LINE
  5
6F1
330
1F
100
AcDbEntity
  8
0
  6
Continuous
 62
     7
370
    15
100
AcDbLine
 10
-4.6051662652
 20
-2.0724245873
 30
0.0
 11
-4.5948501803
 21
-2.0951973226
 31
0.0
  0
LINE
  5
6F2
330
1F
100
AcDbEntity
  8
0
  6
Continuous
 62
     7
370
    15
100
AcDbLine
 10
-4.5854098647
 20
-2.0553932404
 30
0.0
 11
-4.6051662652
 21
-2.0724245873
 31
0.0
  0
LINE
  5
6F3
330
1F
100
AcDbEntity
  8
0
  6
Continuous
 62
     7
370
    15
100
AcDbLine
 10
-4.5658066359
 20
-2.0379916005
 30
0.0
 11
-4.5854098647
 21
-2.0553932404
 31
0.0
  0
LINE
  5
6F4
330
1F
100
AcDbEntity
  8
0
  6
Continuous
 62
     7
370
    15
100
AcDbLine
 10
-4.5813801089
 20
-2.0027372013
 30
0.0
 11
-4.5658066359
 21
-2.0379916005
 31
0.0
  0
LINE
  5
6F5
330
1F
100
AcDbEntity
  8
0
  6
Continuous
 62
     7
370
    15
100
AcDbLine
 10
-4.6075572657
 20
-2.0052533613
 30
0.0
 11
-4.5813801089
 21
-2.0027372013
 31
0.0
  0
LINE
  5
6F6
330
1F
100
AcDbEntity
  8
0
  6
Continuous
 62
     7
370
    15
100
AcDbLine
 10
-4.6335630077
 20
-2.0081319315
 30
0.0
 11
-4.6075572657
 21
-2.0052533613
 31
0.0
  0
LINE
  5
6F7
330
1F
100
AcDbEntity
  8
0
  6
Continuous
 62
     7
370
    15
100
AcDbLine
 10
-4.6434475961
 20
-1.9851686131
 30
0.0
 11
-4.6335630077
 21
-2.0081319315
 31
0.0
  0
LINE
  5
6F8
330
1F
100
AcDbEntity
  8
0
  6
Continuous
 62
     7
370
    15
100
AcDbLine
 10
-4.6233733767
 20
-1.9685130479
 30
0.0
 11
-4.6434475961
 21
-1.9851686131
 31
0.0
  0
LINE
  5
6F9
330
1F
100
AcDbEntity
  8
0
  6
Continuous
 62
     7
370
    15
100
AcDbLine
 10
-4.6034453153
 20
-1.9514843656
 30
0.0
 11
-4.6233733767
 21
-1.9685130479
 31
0.0
  0
LINE
  5
6FA
330
1F
100
AcDbEntity
  8
0
  6
Continuous
 62
     7
370
    15
100
AcDbLine
 10
-4.6183508607
 20
-1.9159424123
 30
0.0
 11
-4.6034453153
 21
-1.9514843656
 31
0.0
  0
LINE
  5
6FB
330
1F
100
AcDbEntity
  8
0
  6
Continuous
 62
     7
370
    15
100
AcDbLine
 10
-4.644570831
 20
-1.9179642321
 30
0.0
 11
-4.6183508607
 21
-1.9159424123
 31
0.0
  0
LINE
  5
6FC
330
1F
100
AcDbEntity
  8
0
  6
Continuous
 62
     7
370
    15
100
AcDbLine
 10
-4.6706262547
 20
-1.9203516316
 30
0.0
 11
-4.644570831
 21
-1.9179642321
 31
0.0
  0
LINE
  5
6FD
330
1F
100
AcDbEntity
  8
0
  6
Continuous
 62
     7
370
    15
100
AcDbLine
 10
-4.6800758277
 20
-1.8972059052
 30
0.0
 11
-4.6706262547
 21
-1.9203516316
 31
0.0
  0
LINE
  5
6FE
330
1F
100
AcDbEntity
  8
0
  6
Continuous
 62
     7
370
    15
100
AcDbLine
 10
-4.659690936
 20
-1.8809320511
 30
0.0
 11
-4.6800758277
 21
-1.8972059052
 31
0.0
  0
LINE
  5
6FF
330
1F
100
AcDbEntity
  8
0
  6
Continuous
 62
     7
370
    15
100
AcDbLine
 10
-4.6394451365
 20
-1.8642823889
 30
0.0
 11
-4.659690936
 21
-1.8809320511
 31
0.0
  0
LINE
  5
700
330
1F
100
AcDbEntity
  8
0
  6
Continuous
 62
     7
370
    15
100
AcDbLine
 10
-4.6536774478
 20
-1.8284655347
 30
0.0
 11
-4.6394451365
 21
-1.8642823889
 31
0.0
  0
LINE
  5
701
330
1F
100
AcDbEntity
  8
0
  6
Continuous
 62
     7
370
    15
100
AcDbLine
 10
-4.6799308972
 20
-1.8299922944
 30
0.0
 11
-4.6536774478
 21
-1.8284655347
 31
0.0
  0
LINE
  5
702
330
1F
100
AcDbEntity
  8
0
  6
Continuous
 62
     7
370
    15
100
AcDbLine
 10
-4.7060267267
 20
-1.8318876733
 30
0.0
 11
-4.6799308972
 21
-1.8299922944
 31
0.0
  0
LINE
  5
703
330
1F
100
AcDbEntity
  8
0
  6
Continuous
 62
     7
370
    15
100
AcDbLine
 10
-4.7150379202
 20
-1.808567779
 30
0.0
 11
-4.7060267267
 21
-1.8318876733
 31
0.0
  0
LINE
  5
704
330
1F
100
AcDbEntity
  8
0
  6
Continuous
 62
     7
370
    15
100
AcDbLine
 10
-4.6943496133
 20
-1.7926814297
 30
0.0
 11
-4.7150379202
 21
-1.808567779
 31
0.0
  0
LINE
  5
705
330
1F
100
AcDbEntity
  8
0
  6
Continuous
 62
     7
370
    15
100
AcDbLine
 10
-4.6737932833
 20
-1.7764167148
 30
0.0
 11
-4.6943496133
 21
-1.7926814297
 31
0.0
  0
LINE
  5
706
330
1F
100
AcDbEntity
  8
0
  6
Continuous
 62
     7
370
    15
100
AcDbLine
 10
-4.6873472938
 20
-1.7403377108
 30
0.0
 11
-4.6737932833
 21
-1.7764167148
 31
0.0
  0
LINE
  5
707
330
1F
100
AcDbEntity
  8
0
  6
Continuous
 62
     7
370
    15
100
AcDbLine
 10
-4.7136248758
 20
-1.7413688669
 30
0.0
 11
-4.6873472938
 21
-1.7403377108
 31
0.0
  0
LINE
  5
708
330
1F
100
AcDbEntity
  8
0
  6
Continuous
 62
     7
370
    15
100
AcDbLine
 10
-4.7397518208
 20
-1.7427715504
 30
0.0
 11
-4.7136248758
 21
-1.7413688669
 31
0.0
  0
LINE
  5
709
330
1F
100
AcDbEntity
  8
0
  6
Continuous
 62
     7
370
    15
100
AcDbLine
 10
-4.7483214267
 20
-1.7192857902
 30
0.0
 11
-4.7397518208
 21
-1.7427715504
 31
0.0
  0
LINE
  5
70A
330
1F
100
AcDbEntity
  8
0
  6
Continuous
 62
     7
370
    15
100
AcDbLine
 10
-4.7273370698
 20
-1.7037926013
 30
0.0
 11
-4.7483214267
 21
-1.7192857902
 31
0.0
  0
LINE
  5
70B
330
1F
100
AcDbEntity
  8
0
  6
Continuous
 62
     7
370
    15
100
AcDbLine
 10
-4.7064775276
 20
-1.6879186241
 30
0.0
 11
-4.7273370698
 21
-1.7037926013
 31
0.0
  0
LINE
  5
70C
330
1F
100
AcDbEntity
  8
0
  6
Continuous
 62
     7
370
    15
100
AcDbLine
 10
-4.7193484119
 20
-1.6515903146
 30
0.0
 11
-4.7064775276
 21
-1.6879186241
 31
0.0
  0
LINE
  5
70D
330
1F
100
AcDbEntity
  8
0
  6
Continuous
 62
     7
370
    15
100
AcDbLine
 10
-4.7456407715
 20
-1.6521255001
 30
0.0
 11
-4.7193484119
 21
-1.6515903146
 31
0.0
  0
LINE
  5
70E
330
1F
100
AcDbEntity
  8
0
  6
Continuous
 62
     7
370
    15
100
AcDbLine
 10
-4.7717895307
 20
-1.6530349889
 30
0.0
 11
-4.7456407715
 21
-1.6521255001
 31
0.0
  0
LINE
  5
70F
330
1F
100
AcDbEntity
  8
0
  6
Continuous
 62
     7
370
    15
100
AcDbLine
 10
-4.7799144982
 20
-1.6293917239
 30
0.0
 11
-4.7717895307
 21
-1.6530349889
 31
0.0
  0
LINE
  5
710
330
1F
100
AcDbEntity
  8
0
  6
Continuous
 62
     7
370
    15
100
AcDbLine
 10
-4.7586415619
 20
-1.614297211
 30
0.0
 11
-4.7799144982
 21
-1.6293917239
 31
0.0
  0
LINE
  5
711
330
1F
100
AcDbEntity
  8
0
  6
Continuous
 62
     7
370
    15
100
AcDbLine
 10
-4.7374862336
 20
-1.5988196229
 30
0.0
 11
-4.7586415619
 21
-1.614297211
 31
0.0
  0
LINE
  5
712
330
1F
100
AcDbEntity
  8
0
  6
Continuous
 62
     7
370
    15
100
AcDbLine
 10
-4.7496694095
 20
-1.562254941
 30
0.0
 11
-4.7374862336
 21
-1.5988196229
 31
0.0
  0
LINE
  5
713
330
1F
100
AcDbEntity
  8
0
  6
Continuous
 62
     7
370
    15
100
AcDbLine
 10
-4.7759671865
 20
-1.5622939652
 30
0.0
 11
-4.7496694095
 21
-1.562254941
 31
0.0
  0
LINE
  5
714
330
1F
100
AcDbEntity
  8
0
  6
Continuous
 62
     7
370
    15
100
AcDbLine
 10
-4.8021284507
 20
-1.5627099355
 30
0.0
 11
-4.7759671865
 21
-1.5622939652
 31
0.0
  0
LINE
  5
715
330
1F
100
AcDbEntity
  8
0
  6
Continuous
 62
     7
370
    15
100
AcDbLine
 10
-4.8098058873
 20
-1.5389175828
 30
0.0
 11
-4.8021284507
 21
-1.5627099355
 31
0.0
  0
LINE
  5
716
330
1F
100
AcDbEntity
  8
0
  6
Continuous
 62
     7
370
    15
100
AcDbLine
 10
-4.7882519448
 20
-1.5242271199
 30
0.0
 11
-4.8098058873
 21
-1.5389175828
 31
0.0
  0
LINE
  5
717
330
1F
100
AcDbEntity
  8
0
  6
Continuous
 62
     7
370
    15
100
AcDbLine
 10
-4.7668083619
 20
-1.5091514308
 30
0.0
 11
-4.7882519448
 21
-1.5242271199
 31
0.0
  0
LINE
  5
718
330
1F
100
AcDbEntity
  8
0
  6
Continuous
 62
     7
370
    15
100
AcDbLine
 10
-4.7782994921
 20
-1.4723633939
 30
0.0
 11
-4.7668083619
 21
-1.5091514308
 31
0.0
  0
LINE
  5
719
330
1F
100
AcDbEntity
  8
0
  6
Continuous
 62
     7
370
    15
100
AcDbLine
 10
-4.8045933243
 20
-1.471906243
 30
0.0
 11
-4.7782994921
 21
-1.4723633939
 31
0.0
  0
LINE
  5
71A
330
1F
100
AcDbEntity
  8
0
  6
Continuous
 62
     7
370
    15
100
AcDbLine
 10
-4.83075778
 20
-1.4718285467
 30
0.0
 11
-4.8045933243
 21
-1.471906243
 31
0.0
  0
LINE
  5
71B
330
1F
100
AcDbEntity
  8
0
  6
Continuous
 62
     7
370
    15
100
AcDbLine
 10
-4.8379849524
 20
-1.4478955766
 30
0.0
 11
-4.83075778
 21
-1.4718285467
 31
0.0
  0
LINE
  5
71C
330
1F
100
AcDbEntity
  8
0
  6
Continuous
 62
     7
370
    15
100
AcDbLine
 10
-4.8161576771
 20
-1.4336143934
 30
0.0
 11
-4.8379849524
 21
-1.4478955766
 31
0.0
  0
LINE
  5
71D
330
1F
100
AcDbEntity
  8
0
  6
Continuous
 62
     7
370
    15
100
AcDbLine
 10
-4.7944334736
 20
-1.4189459704
 30
0.0
 11
-4.8161576771
 21
-1.4336143934
 31
0.0
  0
LINE
  5
71E
330
1F
100
AcDbEntity
  8
0
  6
Continuous
 62
     7
370
    15
100
AcDbLine
 10
-4.8052284673
 20
-1.3819476753
 30
0.0
 11
-4.7944334736
 21
-1.4189459704
 31
0.0
  0
LINE
  5
71F
330
1F
100
AcDbEntity
  8
0
  6
Continuous
 62
     7
370
    15
100
AcDbLine
 10
-4.8315089939
 20
-1.380994512
 30
0.0
 11
-4.8052284673
 21
-1.3819476753
 31
0.0
  0
LINE
  5
720
330
1F
100
AcDbEntity
  8
0
  6
Continuous
 62
     7
370
    15
100
AcDbLine
 10
-4.8576673263
 20
-1.3804231768
 30
0.0
 11
-4.8315089939
 21
-1.380994512
 31
0.0
  0
LINE
  5
721
330
1F
100
AcDbEntity
  8
0
  6
Continuous
 62
     7
370
    15
100
AcDbLine
 10
-4.8644416615
 20
-1.3563581096
 30
0.0
 11
-4.8576673263
 21
-1.3804231768
 31
0.0
  0
LINE
  5
722
330
1F
100
AcDbEntity
  8
0
  6
Continuous
 62
     7
370
    15
100
AcDbLine
 10
-4.8423488242
 20
-1.3424912903
 30
0.0
 11
-4.8644416615
 21
-1.3563581096
 31
0.0
  0
LINE
  5
723
330
1F
100
AcDbEntity
  8
0
  6
Continuous
 62
     7
370
    15
100
AcDbLine
 10
-4.8203517341
 20
-1.3282353556
 30
0.0
 11
-4.8423488242
 21
-1.3424912903
 31
0.0
  0
LINE
  5
724
330
1F
100
AcDbEntity
  8
0
  6
Continuous
 62
     7
370
    15
100
AcDbLine
 10
-4.8304467481
 20
-1.2910399738
 30
0.0
 11
-4.8203517341
 21
-1.3282353556
 31
0.0
  0
LINE
  5
725
330
1F
100
AcDbEntity
  8
0
  6
Continuous
 62
     7
370
    15
100
AcDbLine
 10
-4.856704613
 20
-1.2895911374
 30
0.0
 11
-4.8304467481
 21
-1.2910399738
 31
0.0
  0
LINE
  5
726
330
1F
100
AcDbEntity
  8
0
  6
Continuous
 62
     7
370
    15
100
AcDbLine
 10
-4.8828475096
 20
-1.2885263667
 30
0.0
 11
-4.856704613
 21
-1.2895911374
 31
0.0
  0
LINE
  5
727
330
1F
100
AcDbEntity
  8
0
  6
Continuous
 62
     7
370
    15
100
AcDbLine
 10
-4.8891665961
 20
-1.2643377697
 30
0.0
 11
-4.8828475096
 21
-1.2885263667
 31
0.0
  0
LINE
  5
728
330
1F
100
AcDbEntity
  8
0
  6
Continuous
 62
     7
370
    15
100
AcDbLine
 10
-4.8668160618
 20
-1.2508902511
 30
0.0
 11
-4.8891665961
 21
-1.2643377697
 31
0.0
  0
LINE
  5
729
330
1F
100
AcDbEntity
  8
0
  6
Continuous
 62
     7
370
    15
100
AcDbLine
 10
-4.8445539162
 20
-1.2370518798
 30
0.0
 11
-4.8668160618
 21
-1.2508902511
 31
0.0
  0
LINE
  5
72A
330
1F
100
AcDbEntity
  8
0
  6
Continuous
 62
     7
370
    15
100
AcDbLine
 10
-4.8539453566
 20
-1.1996726532
 30
0.0
 11
-4.8445539162
 21
-1.2370518798
 31
0.0
  0
LINE
  5
72B
330
1F
100
AcDbEntity
  8
0
  6
Continuous
 62
     7
370
    15
100
AcDbLine
 10
-4.880171212
 20
-1.1977286596
 30
0.0
 11
-4.8539453566
 21
-1.1996726532
 31
0.0
  0
LINE
  5
72C
330
1F
100
AcDbEntity
  8
0
  6
Continuous
 62
     7
370
    15
100
AcDbLine
 10
-4.9062893657
 20
-1.1961708324
 30
0.0
 11
-4.880171212
 21
-1.1977286596
 31
0.0
  0
LINE
  5
72D
330
1F
100
AcDbEntity
  8
0
  6
Continuous
 62
     7
370
    15
100
AcDbLine
 10
-4.9121509537
 20
-1.171867317
 30
0.0
 11
-4.9062893657
 21
-1.1961708324
 31
0.0
  0
LINE
  5
72E
330
1F
100
AcDbEntity
  8
0
  6
Continuous
 62
     7
370
    15
100
AcDbLine
 10
-4.8895506795
 20
-1.1588438864
 30
0.0
 11
-4.9121509537
 21
-1.171867317
 31
0.0
  0
LINE
  5
72F
330
1F
100
AcDbEntity
  8
0
  6
Continuous
 62
     7
370
    15
100
AcDbLine
 10
-4.8670314038
 20
-1.145428005
 30
0.0
 11
-4.8895506795
 21
-1.1588438864
 31
0.0
  0
LINE
  5
730
330
1F
100
AcDbEntity
  8
0
  6
Continuous
 62
     7
370
    15
100
AcDbLine
 10
-4.8708684031
 20
-1.129
 30
0.0
 11
-4.8670314038
 21
-1.145428005
 31
0.0
  0
LINE
  5
731
330
1F
100
AcDbEntity
  8
0
  6
Continuous
 62
     7
370
    15
100
AcDbLine
 10
-4.8757159273
 20
-1.1078782409
 30
0.0
 11
-4.8708684031
 21
-1.129
 31
0.0
  0
LINE
  5
732
330
1F
100
AcDbEntity
  8
0
  6
Continuous
 62
     7
370
    15
100
AcDbLine
 10
-4.9019004364
 20
-1.1054397821
 30
0.0
 11
-4.8757159273
 21
-1.1078782409
 31
0.0
  0
LINE
  5
733
330
1F
100
AcDbEntity
  8
0
  6
Continuous
 62
     7
370
    15
100
AcDbLine
 10
-4.927984549
 20
-1.1033894531
 30
0.0
 11
-4.9019004364
 21
-1.1054397821
 31
0.0
  0
LINE
  5
734
330
1F
100
AcDbEntity
  8
0
  6
Continuous
 62
     7
370
    15
100
AcDbLine
 10
-4.9333865517
 20
-1.0789796713
 30
0.0
 11
-4.927984549
 21
-1.1033894531
 31
0.0
  0
LINE
  5
735
330
1F
100
AcDbEntity
  8
0
  6
Continuous
 62
     7
370
    15
100
AcDbLine
 10
-4.9105445834
 20
-1.0663849653
 30
0.0
 11
-4.9333865517
 21
-1.0789796713
 31
0.0
  0
LINE
  5
736
330
1F
100
AcDbEntity
  8
0
  6
Continuous
 62
     7
370
    15
100
AcDbLine
 10
-4.8877761947
 20
-1.05339635
 30
0.0
 11
-4.9105445834
 21
-1.0663849653
 31
0.0
  0
LINE
  5
737
330
1F
100
AcDbEntity
  8
0
  6
Continuous
 62
     7
370
    15
100
AcDbLine
 10
-4.8957507095
 20
-1.0156894163
 30
0.0
 11
-4.8877761947
 21
-1.05339635
 31
0.0
  0
LINE
  5
738
330
1F
100
AcDbEntity
  8
0
  6
Continuous
 62
     7
370
    15
100
AcDbLine
 10
-4.9218845505
 20
-1.0127573605
 30
0.0
 11
-4.8957507095
 21
-1.0156894163
 31
0.0
  0
LINE
  5
739
330
1F
100
AcDbEntity
  8
0
  6
Continuous
 62
     7
370
    15
100
AcDbLine
 10
-4.9479253359
 20
-1.0102152595
 30
0.0
 11
-4.9218845505
 21
-1.0127573605
 31
0.0
  0
LINE
  5
73A
330
1F
100
AcDbEntity
  8
0
  6
Continuous
 62
     7
370
    15
100
AcDbLine
 10
-4.9528658303
 20
-0.9857079016
 30
0.0
 11
-4.9479253359
 21
-1.0102152595
 31
0.0
  0
LINE
  5
73B
330
1F
100
AcDbEntity
  8
0
  6
Continuous
 62
     7
370
    15
100
AcDbLine
 10
-4.9297902998
 20
-0.9735464038
 30
0.0
 11
-4.9528658303
 21
-0.9857079016
 31
0.0
  0
LINE
  5
73C
330
1F
100
AcDbEntity
  8
0
  6
Continuous
 62
     7
370
    15
100
AcDbLine
 10
-4.9067809038
 20
-0.9609896786
 30
0.0
 11
-4.9297902998
 21
-0.9735464038
 31
0.0
  0
LINE
  5
73D
330
1F
100
AcDbEntity
  8
0
  6
Continuous
 62
     7
370
    15
100
AcDbLine
 10
-4.9119477446
 20
-0.9342212555
 30
0.0
 11
-4.9067809038
 21
-0.9609896786
 31
0.0
  0
LINE
  5
73E
330
1F
100
AcDbEntity
  8
0
  6
Continuous
 62
     7
370
    15
100
AcDbLine
 10
-4.9140425708
 20
-0.9231389993
 30
0.0
 11
-4.9119477446
 21
-0.9342212555
 31
0.0
  0
ENDSEC
  0
SECTION
  2
OBJECTS
  0
DICTIONARY
  5
C
330
0
100
AcDbDictionary
281
     1
  3
ACAD_GROUP
350
D
  3
ACAD_LAYOUT
350
1A
  3
ACAD_MLINESTYLE
350
17
  3
ACAD_PLOTSETTINGS
350
19
  3
ACAD_PLOTSTYLENAME
350
E
  0
DICTIONARY
  5
D
102
{ACAD_REACTORS
330
C
102
}
330
C
100
AcDbDictionary
281
     1
  0
DICTIONARY
  5
1A
102
{ACAD_REACTORS
330
C
102
}
330
C
100
AcDbDictionary
281
     1
  3
Layout1
350
1E
  3
Layout2
350
26
  3
Model
350
22
  0
DICTIONARY
  5
17
102
{ACAD_REACTORS
330
C
102
}
330
C
100
AcDbDictionary
281
     1
  3
Standard
350
18
  0
DICTIONARY
  5
19
102
{ACAD_REACTORS
330
C
102
}
330
C
100
AcDbDictionary
281
     1
  0
ACDBDICTIONARYWDFLT
  5
E
102
{ACAD_REACTORS
330
C
102
}
330
C
100
AcDbDictionary
281
     1
  3
Normal
350
F
100
AcDbDictionaryWithDefault
340
F
  0
LAYOUT
  5
1E
102
{ACAD_REACTORS
330
1A
102
}
330
1A
100
AcDbPlotSettings
  1

  2
none_device
  4

  6

 40
0.0
 41
0.0
 42
0.0
 43
0.0
 44
0.0
 45
0.0
 46
0.0
 47
0.0
 48
0.0
 49
0.0
140
0.0
141
0.0
142
1.0
143
1.0
 70
   688
 72
     0
 73
     0
 74
     5
  7

 75
    16
147
1.0
148
0.0
149
0.0
100
AcDbLayout
  1
Layout1
 70
     1
 71
     1
 10
0.0
 20
0.0
 11
12.0
 21
9.0
 12
0.0
 22
0.0
 32
0.0
 14
1.0000000000E+20
 24
1.0000000000E+20
 34
1.0000000000E+20
 15
-1.0000000000E+20
 25
-1.0000000000E+20
 35
-1.0000000000E+20
146
0.0
 13
0.0
 23
0.0
 33
0.0
 16
1.0
 26
0.0
 36
0.0
 17
0.0
 27
1.0
 37
0.0
 76
     0
330
1B
  0
LAYOUT
  5
26
102
{ACAD_REACTORS
330
1A
102
}
330
1A
100
AcDbPlotSettings
  1

  2
none_device
  4

  6

 40
0.0
 41
0.0
 42
0.0
 43
0.0
 44
0.0
 45
0.0
 46
0.0
 47
0.0
 48
0.0
 49
0.0
140
0.0
141
0.0
142
1.0
143
1.0
 70
   688
 72
     0
 73
     0
 74
     5
  7

 75
    16
147
1.0
148
0.0
149
0.0
100
AcDbLayout
  1
Layout2
 70
     1
 71
     2
 10
0.0
 20
0.0
 11
0.0
 21
0.0
 12
0.0
 22
0.0
 32
0.0
 14
0.0
 24
0.0
 34
0.0
 15
0.0
 25
0.0
 35
0.0
146
0.0
 13
0.0
 23
0.0
 33
0.0
 16
1.0
 26
0.0
 36
0.0
 17
0.0
 27
1.0
 37
0.0
 76
     0
330
23
  0
LAYOUT
  5
22
102
{ACAD_REACTORS
330
1A
102
}
330
1A
100
AcDbPlotSettings
  1

  2
none_device
  4
ANSI_A_(11.00_x_8.50_Inches)
  6

 40
6.35
 41
19.05
 42
6.35000508
 43
19.05000254
 44
279.4
 45
215.9
 46
133.4038371321
 47
144.049429768
 48
0.0
 49
0.0
140
0.0
141
0.0
142
1.0965910692
143
1.0
 70
  1696
 72
     0
 73
     0
 74
     0
  7

 75
     0
147
0.5913241897
148
0.0
149
0.0
100
AcDbLayout
  1
Model
 70
     1
 71
     0
 10
0.0
 20
0.0
 11
12.0
 21
9.0
 12
0.0
 22
0.0
 32
0.0
 14
-4.967320841
 24
-5.0499765189
 34
0.0
 15
4.9634549111
 25
1.09
 35
0.0
146
0.0
 13
0.0
 23
0.0
 33
0.0
 16
1.0
 26
0.0
 36
0.0
 17
0.0
 27
1.0
 37
0.0
 76
     0
330
1F
331
29
  0
MLINESTYLE
  5
18
102
{ACAD_REACTORS
330
17
102
}
330
17
100
AcDbMlineStyle
  2
Standard
 70
     0
  3

 62
   256
 51
90.0
 52
90.0
 71
     2
 49
0.5
 62
   256
  6
BYLAYER
 49
-0.5
 62
   256
  6
BYLAYER
  0
ACDBPLACEHOLDER
  5
F
102
{ACAD_REACTORS
330
E
102
}
330
E
  0
ENDSEC
  0
EOF
