  0
SECTION
  2
HEADER
  9
$ACADVER
  1
AC1015
  9
$ACADMAINTVER
 70
     6
  9
$DWGCODEPAGE
  3
ANSI_1252
  9
$INSBASE
 10
0.0
 20
0.0
 30
0.0
  9
$EXTMIN
 10
-5.3169010935
 20
-3.9905872543
 30
0.0
  9
$EXTMAX
 10
5.3169010935
 20
6.0004776521
 30
0.0
  9
$LIMMIN
 10
0.0
 20
0.0
  9
$LIMMAX
 10
12.0
 20
9.0
  9
$ORTHOMODE
 70
     0
  9
$REGENMODE
 70
     1
  9
$FILLMODE
 70
     1
  9
$QTEXTMODE
 70
     0
  9
$MIRRTEXT
 70
     1
  9
$LTSCALE
 40
1.0
  9
$ATTMODE
 70
     1
  9
$TEXTSIZE
 40
0.125
  9
$TRACEWID
 40
0.05
  9
$TEXTSTYLE
  7
Standard
  9
$CLAYER
  8
0
  9
$CELTYPE
  6
ByLayer
  9
$CECOLOR
 62
   256
  9
$CELTSCALE
 40
1.0
  9
$DISPSILH
 70
     0
  9
$DIMSCALE
 40
1.0
  9
$DIMASZ
 40
0.13
  9
$DIMEXO
 40
0.05
  9
$DIMDLI
 40
0.38
  9
$DIMRND
 40
0.0
  9
$DIMDLE
 40
0.0
  9
$DIMEXE
 40
0.125
  9
$DIMTP
 40
0.0
  9
$DIMTM
 40
0.0
  9
$DIMTXT
 40
0.125
  9
$DIMCEN
 40
0.09
  9
$DIMTSZ
 40
0.0
  9
$DIMTOL
 70
     0
  9
$DIMLIM
 70
     0
  9
$DIMTIH
 70
     1
  9
$DIMTOH
 70
     1
  9
$DIMSE1
 70
     0
  9
$DIMSE2
 70
     0
  9
$DIMTAD
 70
     0
  9
$DIMZIN
 70
     0
  9
$DIMBLK
  1

  9
$DIMASO
 70
     1
  9
$DIMSHO
 70
     1
  9
$DIMPOST
  1

  9
$DIMAPOST
  1

  9
$DIMALT
 70
     0
  9
$DIMALTD
 70
     2
  9
$DIMALTF
 40
25.4
  9
$DIMLFAC
 40
1.0
  9
$DIMTOFL
 70
     0
  9
$DIMTVP
 40
0.0
  9
$DIMTIX
 70
     0
  9
$DIMSOXD
 70
     0
  9
$DIMSAH
 70
     0
  9
$DIMBLK1
  1

  9
$DIMBLK2
  1

  9
$DIMSTYLE
  2
Standard
  9
$DIMCLRD
 70
     0
  9
$DIMCLRE
 70
     0
  9
$DIMCLRT
 70
     0
  9
$DIMTFAC
 40
1.0
  9
$DIMGAP
 40
0.06
  9
$DIMJUST
 70
     0
  9
$DIMSD1
 70
     0
  9
$DIMSD2
 70
     0
  9
$DIMTOLJ
 70
     1
  9
$DIMTZIN
 70
     0
  9
$DIMALTZ
 70
     0
  9
$DIMALTTZ
 70
     0
  9
$DIMUPT
 70
     0
  9
$DIMDEC
 70
     3
  9
$DIMTDEC
 70
     3
  9
$DIMALTU
 70
     2
  9
$DIMALTTD
 70
     2
  9
$DIMTXSTY
  7
Standard
  9
$DIMAUNIT
 70
     0
  9
$DIMADEC
 70
     2
  9
$DIMALTRND
 40
0.0
  9
$DIMAZIN
 70
     0
  9
$DIMDSEP
 70
    46
  9
$DIMATFIT
 70
     3
  9
$DIMFRAC
 70
     0
  9
$DIMLDRBLK
  1

  9
$DIMLUNIT
 70
     2
  9
$DIMLWD
 70
    -2
  9
$DIMLWE
 70
    -2
  9
$DIMTMOVE
 70
     0
  9
$LUNITS
 70
     2
  9
$LUPREC
 70
     2
  9
$SKETCHINC
 40
0.1
  9
$FILLETRAD
 40
0.5
  9
$AUNITS
 70
     0
  9
$AUPREC
 70
     2
  9
$MENU
  1
.
  9
$ELEVATION
 40
0.0
  9
$PELEVATION
 40
0.0
  9
$THICKNESS
 40
0.0
  9
$LIMCHECK
 70
     0
  9
$CHAMFERA
 40
0.5
  9
$CHAMFERB
 40
0.5
  9
$CHAMFERC
 40
1.0
  9
$CHAMFERD
 40
0.0
  9
$SKPOLY
 70
     0
  9
$TDCREATE
 40
2456797.677195498
  9
$TDUCREATE
 40
2456797.927195498
  9
$TDUPDATE
 40
2456797.677235798
  9
$TDUUPDATE
 40
2456797.927235798
  9
$TDINDWG
 40
0.0000000116
  9
$TDUSRTIMER
 40
0.0000000116
  9
$USRTIMER
 70
     1
  9
$ANGBASE
 50
0.0
  9
$ANGDIR
 70
     0
  9
$PDMODE
 70
     0
  9
$PDSIZE
 40
-1.0
  9
$PLINEWID
 40
0.0
  9
$SPLFRAME
 70
     0
  9
$SPLINETYPE
 70
     6
  9
$SPLINESEGS
 70
     8
  9
$HANDSEED
  5
74
  9
$SURFTAB1
 70
     6
  9
$SURFTAB2
 70
     6
  9
$SURFTYPE
 70
     6
  9
$SURFU
 70
     6
  9
$SURFV
 70
     6
  9
$UCSBASE
  2

  9
$UCSNAME
  2

  9
$UCSORG
 10
0.0
 20
0.0
 30
0.0
  9
$UCSXDIR
 10
1.0
 20
0.0
 30
0.0
  9
$UCSYDIR
 10
0.0
 20
1.0
 30
0.0
  9
$UCSORTHOREF
  2

  9
$UCSORTHOVIEW
 70
     0
  9
$UCSORGTOP
 10
0.0
 20
0.0
 30
0.0
  9
$UCSORGBOTTOM
 10
0.0
 20
0.0
 30
0.0
  9
$UCSORGLEFT
 10
0.0
 20
0.0
 30
0.0
  9
$UCSORGRIGHT
 10
0.0
 20
0.0
 30
0.0
  9
$UCSORGFRONT
 10
0.0
 20
0.0
 30
0.0
  9
$UCSORGBACK
 10
0.0
 20
0.0
 30
0.0
  9
$PUCSBASE
  2

  9
$PUCSNAME
  2

  9
$PUCSORG
 10
0.0
 20
0.0
 30
0.0
  9
$PUCSXDIR
 10
1.0
 20
0.0
 30
0.0
  9
$PUCSYDIR
 10
0.0
 20
1.0
 30
0.0
  9
$PUCSORTHOREF
  2

  9
$PUCSORTHOVIEW
 70
     0
  9
$PUCSORGTOP
 10
0.0
 20
0.0
 30
0.0
  9
$PUCSORGBOTTOM
 10
0.0
 20
0.0
 30
0.0
  9
$PUCSORGLEFT
 10
0.0
 20
0.0
 30
0.0
  9
$PUCSORGRIGHT
 10
0.0
 20
0.0
 30
0.0
  9
$PUCSORGFRONT
 10
0.0
 20
0.0
 30
0.0
  9
$PUCSORGBACK
 10
0.0
 20
0.0
 30
0.0
  9
$USERI1
 70
     0
  9
$USERI2
 70
     0
  9
$USERI3
 70
     0
  9
$USERI4
 70
     0
  9
$USERI5
 70
     0
  9
$USERR1
 40
0.0
  9
$USERR2
 40
0.0
  9
$USERR3
 40
0.0
  9
$USERR4
 40
0.0
  9
$USERR5
 40
0.0
  9
$WORLDVIEW
 70
     1
  9
$SHADEDGE
 70
     3
  9
$SHADEDIF
 70
    70
  9
$TILEMODE
 70
     1
  9
$MAXACTVP
 70
    64
  9
$PINSBASE
 10
0.0
 20
0.0
 30
0.0
  9
$PLIMCHECK
 70
     0
  9
$PEXTMIN
 10
1.0000000000E+20
 20
1.0000000000E+20
 30
1.0000000000E+20
  9
$PEXTMAX
 10
-1.0000000000E+20
 20
-1.0000000000E+20
 30
-1.0000000000E+20
  9
$PLIMMIN
 10
0.0
 20
0.0
  9
$PLIMMAX
 10
12.0
 20
9.0
  9
$UNITMODE
 70
     0
  9
$VISRETAIN
 70
     1
  9
$PLINEGEN
 70
     0
  9
$PSLTSCALE
 70
     1
  9
$TREEDEPTH
 70
  3020
  9
$CMLSTYLE
  2
Standard
  9
$CMLJUST
 70
     0
  9
$CMLSCALE
 40
1.0
  9
$PROXYGRAPHICS
 70
     1
  9
$MEASUREMENT
 70
     0
  9
$CELWEIGHT
370
    -1
  9
$ENDCAPS
280
     0
  9
$JOINSTYLE
280
     0
  9
$LWDISPLAY
290
     1
  9
$INSUNITS
 70
     1
  9
$HYPERLINKBASE
  1

  9
$STYLESHEET
  1

  9
$XEDIT
290
     1
  9
$CEPSNTYPE
380
     0
  9
$PSTYLEMODE
290
     1
  9
$FINGERPRINTGUID
  2
{A45E8F48-4BBE-415B-92A5-F1B45633A4B4}
  9
$VERSIONGUID
  2
{FAEB1C32-E019-11D5-929B-00C0DF256EC4}
  9
$EXTNAMES
290
     1
  9
$PSVPSCALE
 40
0.0
  9
$OLESTARTUP
290
     0
  0
ENDSEC
  0
SECTION
  2
CLASSES
  0
CLASS
  1
ACDBDICTIONARYWDFLT
  2
AcDbDictionaryWithDefault
  3
ObjectDBX Classes
 90
        0
280
     0
281
     0
  0
CLASS
  1
VISUALSTYLE
  2
AcDbVisualStyle
  3
ObjectDBX Classes
 90
     4095
280
     0
281
     0
  0
CLASS
  1
MATERIAL
  2
AcDbMaterial
  3
ObjectDBX Classes
 90
     1153
280
     0
281
     0
  0
CLASS
  1
ACDBPLACEHOLDER
  2
AcDbPlaceHolder
  3
ObjectDBX Classes
 90
        0
280
     0
281
     0
  0
CLASS
  1
LAYOUT
  2
AcDbLayout
  3
ObjectDBX Classes
 90
        0
280
     0
281
     0
  0
ENDSEC
  0
SECTION
  2
TABLES
  0
TABLE
  2
VPORT
  5
8
330
0
100
AcDbSymbolTable
 70
     1
  0
VPORT
  5
29
330
8
100
AcDbSymbolTableRecord
100
AcDbViewportTableRecord
  2
*Active
 70
     0
 10
0.0
 20
0.0
 11
1.0
 21
1.0
 12
0.0
 22
1.0049451989
 13
0.0
 23
0.0
 14
0.5
 24
0.5
 15
0.5
 25
0.5
 16
0.0
 26
0.0
 36
1.0
 17
0.0
 27
0.0
 37
0.0
 40
10.1908862045
 41
1.0643312086
 42
50.0
 43
0.0
 44
0.0
 50
0.0
 51
0.0
 71
     0
 72
   100
 73
     1
 74
     3
 75
     0
 76
     0
 77
     0
 78
     0
281
     0
 65
     1
110
0.0
120
0.0
130
0.0
111
1.0
121
0.0
131
0.0
112
0.0
122
1.0
132
0.0
 79
     0
146
0.0
  0
ENDTAB
  0
TABLE
  2
LTYPE
  5
5
330
0
100
AcDbSymbolTable
 70
     6
  0
LTYPE
  5
14
330
5
100
AcDbSymbolTableRecord
100
AcDbLinetypeTableRecord
  2
ByBlock
 70
     0
  3

 72
    65
 73
     0
 40
0.0
  0
LTYPE
  5
15
330
5
100
AcDbSymbolTableRecord
100
AcDbLinetypeTableRecord
  2
ByLayer
 70
     0
  3

 72
    65
 73
     0
 40
0.0
  0
LTYPE
  5
16
330
5
100
AcDbSymbolTableRecord
100
AcDbLinetypeTableRecord
  2
Continuous
 70
     0
  3
Solid line
 72
    65
 73
     0
 40
0.0
  0
LTYPE
  5
3F
330
5
100
AcDbSymbolTableRecord
100
AcDbLinetypeTableRecord
  2
HIDDEN
 70
     0
  3
Hidden __ __ __ __ __ __ __ __ __ __ __ __ __ __
 72
    65
 73
     2
 40
0.075
 49
0.05
 74
     0
 49
-0.025
 74
     0
  0
LTYPE
  5
40
330
5
100
AcDbSymbolTableRecord
100
AcDbLinetypeTableRecord
  2
PHANTOM
 70
     0
  3
Phantom ______  __  __  ______  __  __  ______
 72
    65
 73
     6
 40
0.5
 49
0.25
 74
     0
 49
-0.05
 74
     0
 49
0.05
 74
     0
 49
-0.05
 74
     0
 49
0.05
 74
     0
 49
-0.05
 74
     0
  0
LTYPE
  5
41
330
5
100
AcDbSymbolTableRecord
100
AcDbLinetypeTableRecord
  2
CENTER
 70
     0
  3
Center ____ _ ____ _ ____ _ ____ _ ____ _ ____
 72
    65
 73
     4
 40
0.4
 49
0.25
 74
     0
 49
-0.05
 74
     0
 49
0.05
 74
     0
 49
-0.05
 74
     0
  0
LTYPE
  5
42
330
5
100
AcDbSymbolTableRecord
100
AcDbLinetypeTableRecord
  2
CENTERX2
 70
     0
  3
Center (2x) ________  __  ________  __  _____
 72
    65
 73
     4
 40
0.8
 49
0.5
 74
     0
 49
-0.1
 74
     0
 49
0.1
 74
     0
 49
-0.1
 74
     0
  0
LTYPE
  5
43
330
5
100
AcDbSymbolTableRecord
100
AcDbLinetypeTableRecord
  2
DOT2
 70
     0
  3
Dot (.5x) ........................................
 72
    65
 73
     2
 40
0.025
 49
0.0
 74
     0
 49
-0.025
 74
     0
  0
ENDTAB
  0
TABLE
  2
LAYER
  5
2
330
0
100
AcDbSymbolTable
 70
     1
  0
LAYER
  5
10
330
2
100
AcDbSymbolTableRecord
100
AcDbLayerTableRecord
  2
0
 70
     0
 62
     7
  6
Continuous
370
    -3
390
F
  0
ENDTAB
  0
TABLE
  2
STYLE
  5
3
330
0
100
AcDbSymbolTable
 70
     1
  0
STYLE
  5
11
330
3
100
AcDbSymbolTableRecord
100
AcDbTextStyleTableRecord
  2
Standard
 70
     0
 40
0.0
 41
1.0
 50
0.0
 71
     0
 42
0.125
  3
txt
  4

  0
ENDTAB
  0
TABLE
  2
VIEW
  5
6
330
0
100
AcDbSymbolTable
 70
     0
  0
ENDTAB
  0
TABLE
  2
UCS
  5
7
330
0
100
AcDbSymbolTable
 70
     0
  0
ENDTAB
  0
TABLE
  2
APPID
  5
9
330
0
100
AcDbSymbolTable
 70
     1
  0
APPID
  5
12
330
9
100
AcDbSymbolTableRecord
100
AcDbRegAppTableRecord
  2
ACAD
 70
     0
  0
ENDTAB
  0
TABLE
  2
DIMSTYLE
  5
A
330
0
100
AcDbSymbolTable
 70
     1
100
AcDbDimStyleTable
  0
DIMSTYLE
105
27
330
A
100
AcDbSymbolTableRecord
100
AcDbDimStyleTableRecord
  2
Standard
 70
     0
178
     0
340
11
  0
ENDTAB
  0
TABLE
  2
BLOCK_RECORD
  5
1
330
0
100
AcDbSymbolTable
 70
     1
  0
BLOCK_RECORD
  5
1F
330
1
100
AcDbSymbolTableRecord
100
AcDbBlockTableRecord
  2
*Model_Space
340
22
  0
BLOCK_RECORD
  5
1B
330
1
100
AcDbSymbolTableRecord
100
AcDbBlockTableRecord
  2
*Paper_Space
340
1E
  0
BLOCK_RECORD
  5
23
330
1
100
AcDbSymbolTableRecord
100
AcDbBlockTableRecord
  2
*Paper_Space0
340
26
  0
ENDTAB
  0
ENDSEC
  0
SECTION
  2
BLOCKS
  0
BLOCK
  5
20
330
1F
100
AcDbEntity
  8
0
100
AcDbBlockBegin
  2
*Model_Space
 70
     0
 10
0.0
 20
0.0
 30
0.0
  3
*Model_Space
  1

  0
ENDBLK
  5
21
330
1F
100
AcDbEntity
  8
0
100
AcDbBlockEnd
  0
BLOCK
  5
1C
330
1B
100
AcDbEntity
 67
     1
  8
0
100
AcDbBlockBegin
  2
*Paper_Space
 70
     0
 10
0.0
 20
0.0
 30
0.0
  3
*Paper_Space
  1

  0
ENDBLK
  5
1D
330
1B
100
AcDbEntity
 67
     1
  8
0
100
AcDbBlockEnd
  0
BLOCK
  5
24
330
23
100
AcDbEntity
  8
0
100
AcDbBlockBegin
  2
*Paper_Space0
 70
     0
 10
0.0
 20
0.0
 30
0.0
  3
*Paper_Space0
  1

  0
ENDBLK
  5
25
330
23
100
AcDbEntity
  8
0
100
AcDbBlockEnd
  0
ENDSEC
  0
SECTION
  2
ENTITIES
  0
CIRCLE
  5
44
330
1F
100
AcDbEntity
  8
0
  6
Continuous
 62
     7
370
    15
100
AcDbCircle
 10
-5.0212351014
 20
-1.3841115686
 30
0.0
 40
0.1042499999999993
  0
CIRCLE
  5
45
330
1F
100
AcDbEntity
  8
0
  6
Continuous
 62
     7
370
    15
100
AcDbCircle
 10
-4.9845139936
 20
2.3853358213
 30
0.0
 40
0.1042500000000004
  0
CIRCLE
  5
46
330
1F
100
AcDbEntity
  8
0
  6
Continuous
 62
     7
370
    15
100
AcDbCircle
 10
-3.5332423106
 20
5.5273406018
 30
0.0
 40
0.1042499999999995
  0
CIRCLE
  5
47
330
1F
100
AcDbEntity
  8
0
  6
Continuous
 62
     7
370
    15
100
AcDbCircle
 10
-0.7936179935
 20
3.7794861095
 30
0.0
 40
0.10425
  0
CIRCLE
  5
48
330
1F
100
AcDbEntity
  8
0
  6
Continuous
 62
     7
370
    15
100
AcDbCircle
 10
1.2621168204
 20
5.4393325968
 30
0.0
 40
0.1042500000000022
  0
CIRCLE
  5
49
330
1F
100
AcDbEntity
  8
0
  6
Continuous
 62
     7
370
    15
100
AcDbCircle
 10
4.4274137298
 20
3.8106639151
 30
0.0
 40
0.1042499999999995
  0
CIRCLE
  5
4A
330
1F
100
AcDbEntity
  8
0
  6
Continuous
 62
     7
370
    15
100
AcDbCircle
 10
5.0131331915
 20
0.3853268883
 30
0.0
 40
0.1042500000000004
  0
CIRCLE
  5
4B
330
1F
100
AcDbEntity
  8
0
  6
Continuous
 62
     7
370
    15
100
AcDbCircle
 10
4.7166245431
 20
-3.3841180279
 30
0.0
 40
0.1042499999999991
  0
CIRCLE
  5
4C
330
1F
100
AcDbEntity
  8
0
  6
Continuous
 62
     7
370
    15
100
AcDbCircle
 10
0.7166218
 20
-3.7005872544
 30
0.0
 40
0.1042500000000004
  0
CIRCLE
  5
4D
330
1F
100
AcDbEntity
  8
0
  6
Continuous
 62
     7
370
    15
100
AcDbCircle
 10
0.129999616
 20
4.5494861095
 30
0.0
 40
0.3125000000000089
  0
CIRCLE
  5
4E
330
1F
100
AcDbEntity
  8
0
  6
Continuous
 62
     7
370
    15
100
AcDbCircle
 10
-2.7166308847
 20
-3.7005872543
 30
0.0
 40
0.1042500000000008
  0
SPLINE
  5
50
330
1F
100
AcDbEntity
  8
0
  6
Continuous
 62
     7
370
    15
100
AcDbSpline
210
0.0
220
0.0
230
1.0
 70
     8
 71
     3
 72
    31
 73
    27
 74
     0
 42
0.00000001
 43
0.00000001
 12
1.0
 22
0.0
 32
0.0
 13
1.0
 23
0.0
 33
0.0
 40
0.0
 40
0.0
 40
0.0
 40
0.0
 40
0.0139087115255397
 40
0.0278035311954923
 40
0.0416882154184526
 40
0.0555665288330227
 40
0.0694422412632275
 40
0.0833191246528559
 40
0.097200949991187
 40
0.1110914842425912
 40
0.1249944872925049
 40
0.1872742170951293
 40
0.2495804982114138
 40
0.312226595307243
 40
0.3749005467330619
 40
0.4992338328643394
 40
0.6245480321274317
 40
0.6867633414854566
 40
0.7490090913926671
 40
0.8116103327460626
 40
0.8742423840188189
 40
0.8994021067902737
 40
0.9245353944225071
 40
0.9496645827546909
 40
0.9748120185489392
 40
1.0
 40
1.0
 40
1.0
 40
1.0
 10
4.197581492862818
 20
5.149007345218982
 30
0.0
 10
4.194730412750094
 20
5.155941799976302
 30
0.0
 10
4.189031100149544
 20
5.169803783440038
 30
0.0
 10
4.180054407101616
 20
5.190406794841531
 30
0.0
 10
4.170770988938045
 20
5.210854614656321
 30
0.0
 10
4.161149817503455
 20
5.231134653790359
 30
0.0
 10
4.151199205234058
 20
5.251250272866515
 30
0.0
 10
4.140916913108827
 20
5.271200579262312
 30
0.0
 10
4.130303602295797
 20
5.290985757807823
 30
0.0
 10
4.11935888129737
 20
5.310605935878597
 30
0.0
 10
4.095011536541678
 20
5.352615301630077
 30
0.0
 10
4.054665735460218
 20
5.415519348956776
 30
0.0
 10
3.9939786468382
 20
5.496272828087414
 30
0.0
 10
3.927353841454459
 20
5.572498390569096
 30
0.0
 10
3.831416174368055
 20
5.66702181560067
 30
0.0
 10
3.698657342834655
 20
5.771609592587436
 30
0.0
 10
3.552100025862273
 20
5.855306202511674
 30
0.0
 10
3.428412704341736
 20
5.908758937925615
 30
0.0
 10
3.33305679371687
 20
5.941843588942448
 30
0.0
 10
3.235313986061438
 20
5.967875220900901
 30
0.0
 10
3.155558039179932
 20
5.982867128808718
 30
0.0
 10
3.095225475907817
 20
5.991003036241985
 30
0.0
 10
3.054783322741939
 20
5.995239926863253
 30
0.0
 10
3.014240107557127
 20
5.998244884885681
 30
0.0
 10
2.973595181896849
 20
6.000127326761246
 30
0.0
 10
2.946460785568656
 20
6.00036081428762
 30
0.0
 10
2.932882658897541
 20
6.000477652089019
 30
0.0
  0
SPLINE
  5
52
330
1F
100
AcDbEntity
  8
0
  6
Continuous
 62
     7
370
    15
100
AcDbSpline
210
0.0
220
0.0
230
1.0
 70
     8
 71
     3
 72
    24
 73
    20
 74
     0
 42
0.00000001
 43
0.00000001
 12
1.0
 22
0.0
 32
0.0
 13
1.0
 23
0.0
 33
0.0
 40
0.0
 40
0.0
 40
0.0
 40
0.0
 40
0.0455554160250314
 40
0.0910499088052949
 40
0.1364970599586891
 40
0.1819104935779576
 40
0.2273038641151918
 40
0.2726908441301212
 40
0.3180851119568744
 40
0.3635003393446646
 40
0.4089501791281989
 40
0.4544482529832431
 40
0.5000081393219507
 40
0.5834297435491868
 40
0.6667035379799267
 40
0.7499134230399773
 40
0.8331434924277139
 40
0.916477778736739
 40
1.0
 40
1.0
 40
1.0
 40
1.0
 10
5.294904410335965
 20
2.18313764303263
 30
0.0
 10
5.294828555379785
 20
2.191035162460393
 30
0.0
 10
5.294676946911567
 20
2.206819639618736
 30
0.0
 10
5.293932311770215
 20
2.230473439594419
 30
0.0
 10
5.292808950282148
 20
2.254086768377009
 30
0.0
 10
5.291269867290586
 20
2.277659448870668
 30
0.0
 10
5.28932496122361
 20
2.301191520248213
 30
0.0
 10
5.286971582335157
 20
2.324682964248969
 30
0.0
 10
5.28421044161285
 20
2.348133776275036
 30
0.0
 10
5.281041347405986
 20
2.371543954622446
 30
0.0
 10
5.277464361958433
 20
2.394913472720337
 30
0.0
 10
5.273479437110987
 20
2.418242401311094
 30
0.0
 10
5.267872425825328
 20
2.447968010116889
 30
0.0
 10
5.260172156579122
 20
2.483957675768943
 30
0.0
 10
5.249765290007714
 20
2.526021016936901
 30
0.0
 10
5.238042138766276
 20
2.567703248790085
 30
0.0
 10
5.224972002207456
 20
2.608991524603872
 30
0.0
 10
5.210669676116416
 20
2.649932329384145
 30
0.0
 10
5.200042574596317
 20
2.676839096377298
 30
0.0
 10
5.194723039041707
 20
2.690307632780097
 30
0.0
  0
SPLINE
  5
54
330
1F
100
AcDbEntity
  8
0
  6
Continuous
 62
     7
370
    15
100
AcDbSpline
210
0.0
220
0.0
230
1.0
 70
     8
 71
     3
 72
    37
 73
    33
 74
     0
 42
0.00000001
 43
0.00000001
 12
1.0
 22
0.0
 32
0.0
 13
1.0
 23
0.0
 33
0.0
 40
0.0
 40
0.0
 40
0.0
 40
0.0
 40
0.0104368720579603
 40
0.020858634270041
 40
0.0312680662078252
 40
0.0416679573294132
 40
0.0520611047749993
 40
0.0624503111316849
 40
0.0728383821763597
 40
0.083228124605694
 40
0.0936223437624134
 40
0.1040238413670477
 40
0.1144354132643072
 40
0.1248598471930968
 40
0.1874425508332449
 40
0.2500257424310069
 40
0.3122726816397751
 40
0.3745345345794646
 40
0.4371355606604768
 40
0.4997664914774839
 40
0.5620597193171523
 40
0.624396327996778
 40
0.6868755550928672
 40
0.7494083319093177
 40
0.8119114717488398
 40
0.874473350873859
 40
0.8954129045630647
 40
0.9163151818070261
 40
0.9372025920760148
 40
0.9580975926739574
 40
0.9790226164663507
 40
1.0
 40
1.0
 40
1.0
 40
1.0
 10
3.957280840802834
 20
-3.99058725429712
 30
0.0
 10
3.964742803419497
 20
-3.990551796108895
 30
0.0
 10
3.979655925693422
 20
-3.990480931066574
 30
0.0
 10
4.002005435726223
 20
-3.989912788959341
 30
0.0
 10
4.024316589155322
 20
-3.989006362363656
 30
0.0
 10
4.046589379934885
 20
-3.987728633166014
 30
0.0
 10
4.068823803693078
 20
-3.986088433313451
 30
0.0
 10
4.09101985495083
 20
-3.984083399306806
 30
0.0
 10
4.113177530808899
 20
-3.981714163055258
 30
0.0
 10
4.135296819135116
 20
-3.978980559838726
 30
0.0
 10
4.157377742301724
 20
-3.975882620142011
 30
0.0
 10
4.179420194087538
 20
-3.972420391933612
 30
0.0
 10
4.201424549154287
 20
-3.968593659575052
 30
0.0
 10
4.260008563170098
 20
-3.957417107117088
 30
0.0
 10
4.354214821602908
 20
-3.933790481325084
 30
0.0
 10
4.480493138578215
 20
-3.888361891680781
 30
0.0
 10
4.601523191956537
 20
-3.830894174458433
 30
0.0
 10
4.716276050456226
 20
-3.761718571955512
 30
0.0
 10
4.8239289838212
 20
-3.681475163721839
 30
0.0
 10
4.923072932419056
 20
-3.590895724675045
 30
0.0
 10
5.012749078556448
 20
-3.491192746372079
 30
0.0
 10
5.092057171451269
 20
-3.383194379022825
 30
0.0
 10
5.160539572122897
 20
-3.267827428040781
 30
0.0
 10
5.217319278999955
 20
-3.146139375494171
 30
0.0
 10
5.261994890146088
 20
-3.019453807990179
 30
0.0
 10
5.286868771776467
 20
-2.917880083645795
 30
0.0
 10
5.299891400113647
 20
-2.844372693092789
 30
0.0
 10
5.306266229279821
 20
-2.799970845731436
 30
0.0
 10
5.311185451366983
 20
-2.755416436998555
 30
0.0
 10
5.314614129926595
 20
-2.710708493125805
 30
0.0
 10
5.31668417726115
 20
-2.665846904370153
 30
0.0
 10
5.316828727907803
 20
-2.635886318395313
 30
0.0
 10
5.316901093543773
 20
-2.620887306572511
 30
0.0
  0
SPLINE
  5
56
330
1F
100
AcDbEntity
  8
0
  6
Continuous
 62
     7
370
    15
100
AcDbSpline
210
0.0
220
0.0
230
1.0
 70
     8
 71
     3
 72
    36
 73
    32
 74
     0
 42
0.00000001
 43
0.00000001
 12
1.0
 22
0.0
 32
0.0
 13
1.0
 23
0.0
 33
0.0
 40
0.0
 40
0.0
 40
0.0
 40
0.0
 40
0.0113857650283254
 40
0.0227538860376076
 40
0.034107914228666
 40
0.0454514140380367
 40
0.0567879598332646
 40
0.068121132561568
 40
0.079454516367477
 40
0.0907916951953319
 40
0.1021362493927277
 40
0.1134917523309848
 40
0.1248617670585086
 40
0.1874512862720054
 40
0.2500219723081977
 40
0.3122812737859196
 40
0.3745271011803709
 40
0.4371480709367921
 40
0.4997651619890358
 40
0.5620547284264295
 40
0.6243542027405723
 40
0.6868677207164823
 40
0.7494061193305178
 40
0.8118982522848257
 40
0.8744297056468926
 40
0.8953791474720519
 40
0.9162897419335974
 40
0.9371842897631383
 40
0.9580856442068828
 40
0.9790166362158964
 40
1.0
 40
1.0
 40
1.0
 40
1.0
 10
-5.316901093543773
 20
-2.620887306572509
 30
0.0
 10
-5.316896566014349
 20
-2.629027810378989
 30
0.0
 10
-5.316887517971613
 20
-2.645296203011414
 30
0.0
 10
-5.316328702697728
 20
-2.66967730133792
 30
0.0
 10
-5.315370370369391
 20
-2.694014789732789
 30
0.0
 10
-5.313973560245532
 20
-2.718308838330685
 30
0.0
 10
-5.312148693528917
 20
-2.742559391894849
 30
0.0
 10
-5.30989297997179
 20
-2.766766458078413
 30
0.0
 10
-5.307207171604616
 20
-2.790930017783997
 30
0.0
 10
-5.30409105150303
 20
-2.815050096155644
 30
0.0
 10
-5.300544741736463
 20
-2.839126568335833
 30
0.0
 10
-5.296567979838523
 20
-2.863159866468912
 30
0.0
 10
-5.285548287501799
 20
-2.923152892179169
 30
0.0
 10
-5.262381296411282
 20
-3.018163089313495
 30
0.0
 10
-5.217870292126655
 20
-3.144769952925873
 30
0.0
 10
-5.161359247239409
 20
-3.266234356151581
 30
0.0
 10
-5.093134691912568
 20
-3.381566503643724
 30
0.0
 10
-5.013827182438755
 20
-3.489900824314882
 30
0.0
 10
-4.924121170091756
 20
-3.589837347249418
 30
0.0
 10
-4.825239490816478
 20
-3.680360892646524
 30
0.0
 10
-4.717935750742832
 20
-3.760599651964919
 30
0.0
 10
-4.603141730616098
 20
-3.830045871142377
 30
0.0
 10
-4.481882901718455
 20
-3.887790101897785
 30
0.0
 10
-4.355547791658138
 20
-3.933379590145899
 30
0.0
 10
-4.254160316315848
 20
-3.958920389195701
 30
0.0
 10
-4.180742605403622
 20
-3.972391859768743
 30
0.0
 10
-4.136360790767481
 20
-3.979029254032331
 30
0.0
 10
-4.091818875637447
 20
-3.984198624810439
 30
0.0
 10
-4.047115715897041
 20
-3.987864734336462
 30
0.0
 10
-4.002251815300462
 20
-3.990160679031018
 30
0.0
 10
-3.972283647326699
 20
-3.990444944145812
 30
0.0
 10
-3.957280840802834
 20
-3.99058725429712
 30
0.0
  0
SPLINE
  5
58
330
1F
100
AcDbEntity
  8
0
  6
Continuous
 62
     7
370
    15
100
AcDbSpline
210
0.0
220
0.0
230
1.0
 70
     8
 71
     3
 72
    24
 73
    20
 74
     0
 42
0.00000001
 43
0.00000001
 12
1.0
 22
0.0
 32
0.0
 13
1.0
 23
0.0
 33
0.0
 40
0.0
 40
0.0
 40
0.0
 40
0.0
 40
0.0455735778284157
 40
0.0910826950197567
 40
0.1365408827904239
 40
0.1819617178736433
 40
0.2273588105154291
 40
0.2727457923208139
 40
0.3181363040042448
 40
0.3635439830989818
 40
0.4089824516808274
 40
0.4544653041613201
 40
0.5000060952048088
 40
0.5834597672536656
 40
0.6667526686538467
 40
0.7499688733312462
 40
0.8331926876525609
 40
0.916508394884116
 40
1.0
 40
1.0
 40
1.0
 40
1.0
 10
-5.194723039041707
 20
2.690307632780093
 30
0.0
 10
-5.197655695637001
 20
2.682971024569522
 30
0.0
 10
-5.203516860790028
 20
2.668308185267354
 30
0.0
 10
-5.211822025297313
 20
2.646139733480754
 30
0.0
 10
-5.219761452010303
 20
2.623866709665834
 30
0.0
 10
-5.227300924691656
 20
2.601475245408322
 30
0.0
 10
-5.234449593952875
 20
2.578969058402284
 30
0.0
 10
-5.241205007485857
 20
2.556347160667385
 30
0.0
 10
-5.247567819507456
 20
2.533609825978067
 30
0.0
 10
-5.253537852499541
 20
2.510756983192033
 30
0.0
 10
-5.259115153588039
 20
2.487788680467478
 30
0.0
 10
-5.264299705566367
 20
2.464704833979238
 30
0.0
 10
-5.270418626006804
 20
2.435080765772371
 30
0.0
 10
-5.276984793790017
 20
2.398861356420093
 30
0.0
 10
-5.283356981210803
 20
2.355990763521424
 30
0.0
 10
-5.288364314595705
 20
2.312978476153905
 30
0.0
 10
-5.291973430975595
 20
2.269824709183546
 30
0.0
 10
-5.294308456120097
 20
2.226530098003171
 30
0.0
 10
-5.294705619328145
 20
2.197611959390551
 30
0.0
 10
-5.294904410335962
 20
2.183137643032631
 30
0.0
  0
SPLINE
  5
5A
330
1F
100
AcDbEntity
  8
0
  6
Continuous
 62
     7
370
    15
100
AcDbSpline
210
0.0
220
0.0
230
1.0
 70
     8
 71
     3
 72
    31
 73
    27
 74
     0
 42
0.00000001
 43
0.00000001
 12
1.0
 22
0.0
 32
0.0
 13
1.0
 23
0.0
 33
0.0
 40
0.0
 40
0.0
 40
0.0
 40
0.0
 40
0.0139093951749411
 40
0.0278047921238554
 40
0.0416899345390346
 40
0.0555685744110984
 40
0.0694444690054575
 40
0.0833213778174304
 40
0.097203059518311
 40
0.1110932689047834
 40
0.1249957538640337
 40
0.1872771517370973
 40
0.2495807117436872
 40
0.3122307879160118
 40
0.3749032866092502
 40
0.4992338644373548
 40
0.6245478977441649
 40
0.6867666042826106
 40
0.7490103907532493
 40
0.811609906215732
 40
0.8742357845563535
 40
0.8993978933461465
 40
0.9245329565427998
 40
0.949663386686012
 40
0.9748116087026645
 40
1.0
 40
1.0
 40
1.0
 40
1.0
 10
-2.932882658897535
 20
6.000477652089027
 30
0.0
 10
-2.940380628755802
 20
6.000441787694534
 30
0.0
 10
-2.955369022617503
 20
6.000370094998986
 30
0.0
 10
-2.977836253245917
 20
5.99979558365316
 30
0.0
 10
-3.000274793159231
 20
5.998879084962826
 30
0.0
 10
-3.022684637368896
 20
5.997587171313506
 30
0.0
 10
-3.045065776150706
 20
5.995928793320592
 30
0.0
 10
-3.06741822378927
 20
5.993901544827064
 30
0.0
 10
-3.089741903277807
 20
5.991506106708255
 30
0.0
 10
-3.112037079193324
 20
5.988742164869334
 30
0.0
 10
-3.160119117956806
 20
5.981978997110246
 30
0.0
 10
-3.233577740160176
 20
5.968254035431901
 30
0.0
 10
-3.331230561103286
 20
5.942403547840864
 30
0.0
 10
-3.426922863898525
 20
5.909356167649585
 30
0.0
 10
-3.550601052968709
 20
5.856042532570992
 30
0.0
 10
-3.697463683112668
 20
5.772412900012879
 30
0.0
 10
-3.830168241860337
 20
5.668134785552694
 30
0.0
 10
-3.926238914902382
 20
5.573655108656528
 30
0.0
 10
-3.992771603646805
 20
5.497755521062051
 30
0.0
 10
-4.053658376840951
 20
5.416989998190791
 30
0.0
 10
-4.097545041366824
 20
5.348731067100634
 30
0.0
 10
-4.127770742487048
 20
5.295887061986494
 30
0.0
 10
-4.146904154738812
 20
5.260002938110229
 30
0.0
 10
-4.164931674536118
 20
5.223561771711359
 30
0.0
 10
-4.181955130344815
 20
5.186604159148509
 30
0.0
 10
-4.192369934973037
 20
5.161546282034196
 30
0.0
 10
-4.19758149286281
 20
5.149007345218985
 30
0.0
  0
SPLINE
  5
5C
330
1F
100
AcDbEntity
  8
0
  6
Continuous
 62
     7
370
    15
100
AcDbSpline
210
0.0
220
0.0
230
1.0
 70
     8
 71
     3
 72
    31
 73
    27
 74
     0
 42
0.00000001
 43
0.00000001
 12
1.0
 22
0.0
 32
0.0
 13
1.0
 23
0.0
 33
0.0
 40
0.0
 40
0.0
 40
0.0
 40
0.0
 40
0.0138901379154561
 40
0.0277723089268397
 40
0.0416504821644263
 40
0.0555286301885684
 40
0.0694107255812609
 40
0.083300737537626
 40
0.0972026284718985
 40
0.1111203506523842
 40
0.1250578428795491
 40
0.1873311008911032
 40
0.2496920113808637
 40
0.3123196920552965
 40
0.3748941687762923
 40
0.4995029953668821
 40
0.6244477790913876
 40
0.6869264317161444
 40
0.7494776000659131
 40
0.8117894737721212
 40
0.8742446250934478
 40
0.8993833865408939
 40
0.9245048998032691
 40
0.9496325849637767
 40
0.9747898448684902
 40
1.0
 40
1.0
 40
1.0
 40
1.0
 10
-0.6974103974879055
 20
5.113396601019224
 30
0.0
 10
-0.7001252458166813
 20
5.120566976197037
 30
0.0
 10
-0.70555338533086
 20
5.13490361387275
 30
0.0
 10
-0.7141531709471148
 20
5.156226164142134
 30
0.0
 10
-0.7230839144058631
 20
5.177404161731259
 30
0.0
 10
-0.7323786856759072
 20
5.198425265335961
 30
0.0
 10
-0.7420286144817919
 20
5.219292772862512
 30
0.0
 10
-0.7520361074936128
 20
5.240005799652202
 30
0.0
 10
-0.7624003925370123
 20
5.260564556550974
 30
0.0
 10
-0.7731221328037273
 20
5.280969057099232
 30
0.0
 10
-0.7969974405184986
 20
5.324614546679857
 30
0.0
 10
-0.8368112675126684
 20
5.3900217052129
 30
0.0
 10
-0.8971727580909139
 20
5.474043950469887
 30
0.0
 10
-0.9638068640568614
 20
5.55341623486796
 30
0.0
 10
-1.060352059480986
 20
5.652020895576498
 30
0.0
 10
-1.19458009449806
 20
5.761139875007979
 30
0.0
 10
-1.343732449857446
 20
5.848669782152104
 30
0.0
 10
-1.469981947929161
 20
5.904611244406436
 30
0.0
 10
-1.567525893599571
 20
5.939248156419226
 30
0.0
 10
-1.66738195218204
 20
5.966425796968689
 30
0.0
 10
-1.748725579708076
 20
5.982054168329944
 30
0.0
 10
-1.810363138552654
 20
5.990562926107645
 30
0.0
 10
-1.851745706141549
 20
5.994996580916623
 30
0.0
 10
-1.893253693592133
 20
5.998141506752221
 30
0.0
 10
-1.934887916735468
 20
6.000111270021977
 30
0.0
 10
-1.962690258075458
 20
6.000355439258855
 30
0.0
 10
-1.976606027580331
 20
6.000477652089027
 30
0.0
  0
SPLINE
  5
5D
330
1F
100
AcDbEntity
  8
0
  6
Continuous
 62
     7
370
    15
100
AcDbSpline
210
0.0
220
0.0
230
1.0
 70
     8
 71
     3
 72
    26
 73
    22
 74
     0
 42
0.00000001
 43
0.00000001
 12
1.0
 22
0.0
 32
0.0
 13
1.0
 23
0.0
 33
0.0
 40
0.0
 40
0.0
 40
0.0
 40
0.0
 40
0.0316341975728077
 40
0.0629792079650431
 40
0.0941271554299868
 40
0.1251719186026059
 40
0.1562083124650515
 40
0.1873312284900835
 40
0.2186347713278078
 40
0.2502114307594342
 40
0.3125334043219769
 40
0.374919693743296
 40
0.4373759653894497
 40
0.4998966768363085
 40
0.6249210470701063
 40
0.6872041258509975
 40
0.7495706665990819
 40
0.8120633435210883
 40
0.8746517044969119
 40
0.9372473696733165
 40
0.9999999999999999
 40
0.9999999999999999
 40
0.9999999999999999
 40
0.9999999999999999
 10
-0.5156875040020497
 20
5.050395810356473
 30
0.0
 10
-0.5176879471845098
 20
5.049233484882682
 30
0.0
 10
-0.5216705462980309
 20
5.046919459449653
 30
0.0
 10
-0.5278466931230681
 20
5.043871003001692
 30
0.0
 10
-0.5341283852954852
 20
5.041159079657135
 30
0.0
 10
-0.5405322705771252
 20
5.038811689967727
 30
0.0
 10
-0.5470537397084564
 20
5.036821569324744
 30
0.0
 10
-0.5536936899696895
 20
5.035190481606859
 30
0.0
 10
-0.5604520233119228
 20
5.033918872996485
 30
0.0
 10
-0.5695299919775387
 20
5.032709751765336
 30
0.0
 10
-0.5809667960801268
 20
5.03211649072585
 30
0.0
 10
-0.5946548563157968
 20
5.032919141026072
 30
0.0
 10
-0.6081926347711454
 20
5.035202265420908
 30
0.0
 10
-0.6258008195465037
 20
5.040215352449426
 30
0.0
 10
-0.6424698738045771
 20
5.048108303906548
 30
0.0
 10
-0.6574858889557429
 20
5.058540595772125
 30
0.0
 10
-0.6678150845444678
 20
5.06755881056206
 30
0.0
 10
-0.6771206802267565
 20
5.07766193577193
 30
0.0
 10
-0.6852305388519914
 20
5.088758895536059
 30
0.0
 10
-0.6921907469454396
 20
5.100656442596864
 30
0.0
 10
-0.6956690620878755
 20
5.109146337772221
 30
0.0
 10
-0.6974103974879057
 20
5.113396601019224
 30
0.0
  0
SPLINE
  5
5F
330
1F
100
AcDbEntity
  8
0
  6
Continuous
 62
     7
370
    15
100
AcDbSpline
210
0.0
220
0.0
230
1.0
 70
     8
 71
     3
 72
    24
 73
    20
 74
     0
 42
0.00000001
 43
0.00000001
 12
1.0
 22
0.0
 32
0.0
 13
1.0
 23
0.0
 33
0.0
 40
0.0
 40
0.0
 40
0.0
 40
0.0
 40
0.0312929185372466
 40
0.0624754291653908
 40
0.093641829713221
 40
0.1248865638724041
 40
0.1874595435051756
 40
0.2501278409732435
 40
0.312448216504795
 40
0.3748774577071091
 40
0.4996274575646482
 40
0.5621793744913433
 40
0.6248581149618095
 40
0.6871378237353338
 40
0.7495455884477117
 40
0.8124507791301102
 40
0.8746553826792381
 40
0.9369192271736897
 40
1.0
 40
1.0
 40
1.0
 40
1.0
 10
0.697412571557456
 20
5.113412562095781
 30
0.0
 10
0.6965784440876817
 20
5.111281203658005
 30
0.0
 10
0.6949131321229068
 20
5.107026006657224
 30
0.0
 10
0.6919791667985611
 20
5.100833458331149
 30
0.0
 10
0.6887341488492223
 20
5.094804697993642
 30
0.0
 10
0.6839572711258991
 20
5.087008714254887
 30
0.0
 10
0.6771857847597368
 20
5.077753449866224
 30
0.0
 10
0.6678887152126863
 20
5.067634090002256
 30
0.0
 10
0.6575491472882968
 20
5.058594937540916
 30
0.0
 10
0.6425501813824214
 20
5.048159397787084
 30
0.0
 10
0.6258936027122336
 20
5.040256897708131
 30
0.0
 10
0.6082909685994922
 20
5.035226677253496
 30
0.0
 10
0.5947437681775223
 20
5.032931771974924
 30
0.0
 10
0.5810400384987479
 20
5.032118307415016
 30
0.0
 10
0.5673148842405665
 20
5.032825473068205
 30
0.0
 10
0.5537445009362163
 20
5.034980002565161
 30
0.0
 10
0.5405154906135049
 20
5.038630648614343
 30
0.0
 10
0.5277086162256168
 20
5.043650616543923
 30
0.0
 10
0.5197075401157303
 20
5.048139793844878
 30
0.0
 10
0.5156809287203468
 20
5.050399011508561
 30
0.0
  0
SPLINE
  5
60
330
1F
100
AcDbEntity
  8
0
  6
Continuous
 62
     7
370
    15
100
AcDbSpline
210
0.0
220
0.0
230
1.0
 70
     8
 71
     3
 72
    31
 73
    27
 74
     0
 42
0.00000001
 43
0.00000001
 12
1.0
 22
0.0
 32
0.0
 13
1.0
 23
0.0
 33
0.0
 40
0.0
 40
0.0
 40
0.0
 40
0.0
 40
0.0139232167987446
 40
0.0278283170735383
 40
0.0417192119724542
 40
0.0555998246515407
 40
0.069474086989205
 40
0.0833459362637348
 40
0.0972193118079074
 40
0.1110981516548632
 40
0.1249863891895065
 40
0.1876278390403363
 40
0.2501509831179933
 40
0.3126701009171987
 40
0.3751291854721626
 40
0.5000824093910486
 40
0.6252009645554044
 40
0.6874697139269742
 40
0.7498349509258121
 40
0.8125450965492587
 40
0.8752131393329338
 40
0.9002280108240738
 40
0.9251911690084692
 40
0.9501255441455048
 40
0.9750541459218579
 40
1.0
 40
1.0
 40
1.0
 40
1.0
 10
1.976606027580327
 20
6.00047765208902
 30
0.0
 10
1.968920821237818
 20
6.000440143615128
 30
0.0
 10
1.953560408341407
 20
6.000365175472382
 30
0.0
 10
1.930539103302096
 20
5.999764051528367
 30
0.0
 10
1.907554263550184
 20
5.998805010189502
 30
0.0
 10
1.884605894141737
 20
5.997453101823917
 30
0.0
 10
1.861694006875215
 20
5.995717674545883
 30
0.0
 10
1.838818582700634
 20
5.993596237639605
 30
0.0
 10
1.81597971930652
 20
5.991089415217171
 30
0.0
 10
1.793177078020376
 20
5.988197203163583
 30
0.0
 10
1.743783533856478
 20
5.981084475916906
 30
0.0
 10
1.668314581873492
 20
5.966652015692428
 30
0.0
 10
1.568249250406425
 20
5.939478475540737
 30
0.0
 10
1.470606234879348
 20
5.904860053715222
 30
0.0
 10
1.344351373075832
 20
5.848992931873411
 30
0.0
 10
1.194916425245625
 20
5.761403554321255
 30
0.0
 10
1.060569773070977
 20
5.652235207161756
 30
0.0
 10
0.9640429074175831
 20
5.553661717753055
 30
0.0
 10
0.8974531735977448
 20
5.474413105411136
 30
0.0
 10
0.8369026677110781
 20
5.390197599340293
 30
0.0
 10
0.7937021466019827
 20
5.319207294158656
 30
0.0
 10
0.7642409250744345
 20
5.264446275020616
 30
0.0
 10
0.7457504042957218
 20
5.227453764762881
 30
0.0
 10
0.7284348998814277
 20
5.189952141367711
 30
0.0
 10
0.7121867303945864
 20
5.151980972461207
 30
0.0
 10
0.7023384267271319
 20
5.126271663292608
 30
0.0
 10
0.6974125715574577
 20
5.11341256209578
 30
0.0
  0
CIRCLE
  5
61
330
1F
100
AcDbEntity
  8
0
  6
Continuous
 62
     7
370
    15
100
AcDbCircle
 10
-4.7166308847
 20
-3.3841115686
 30
0.0
 40
0.1042499999999995
  0
CIRCLE
  5
62
330
1F
100
AcDbEntity
  8
0
  6
Continuous
 62
     7
370
    15
100
AcDbCircle
 10
-0.3500006144
 20
4.8794861095
 30
0.0
 40
0.1250000000000142
  0
CIRCLE
  5
63
330
1F
100
AcDbEntity
  8
0
  6
Continuous
 62
     7
370
    15
100
AcDbCircle
 10
-0.7166308847
 20
-3.7005872544
 30
0.0
 40
0.1042500000000004
  0
CIRCLE
  5
64
330
1F
100
AcDbEntity
  8
0
  6
Continuous
 62
     7
370
    15
100
AcDbCircle
 10
2.7166218
 20
-3.7005872544
 30
0.0
 40
0.1042499999999995
  0
CIRCLE
  5
65
330
1F
100
AcDbEntity
  8
0
  6
Continuous
 62
     7
370
    15
100
AcDbCircle
 10
5.0212351309
 20
-1.3841180279
 30
0.0
 40
0.1042499999999993
  0
CIRCLE
  5
66
330
1F
100
AcDbEntity
  8
0
  6
Continuous
 62
     7
370
    15
100
AcDbCircle
 10
4.9845157604
 20
2.3853268883
 30
0.0
 40
0.10425
  0
CIRCLE
  5
67
330
1F
100
AcDbEntity
  8
0
  6
Continuous
 62
     7
370
    15
100
AcDbCircle
 10
3.5332498799
 20
5.5273355141
 30
0.0
 40
0.1042500000000013
  0
CIRCLE
  5
68
330
1F
100
AcDbEntity
  8
0
  6
Continuous
 62
     7
370
    15
100
AcDbCircle
 10
0.7936179935
 20
3.7794861095
 30
0.0
 40
0.1042500000000004
  0
CIRCLE
  5
69
330
1F
100
AcDbEntity
  8
0
  6
Continuous
 62
     7
370
    15
100
AcDbCircle
 10
-1.2621100174
 20
5.4393265754
 30
0.0
 40
0.1042499999999986
  0
CIRCLE
  5
6A
330
1F
100
AcDbEntity
  8
0
  6
Continuous
 62
     7
370
    15
100
AcDbCircle
 10
-4.4274103056
 20
3.8106723581
 30
0.0
 40
0.1042500000000004
  0
CIRCLE
  5
6B
330
1F
100
AcDbEntity
  8
0
  6
Continuous
 62
     7
370
    15
100
AcDbCircle
 10
-5.0131331505
 20
0.3853358213
 30
0.0
 40
0.1042500000000005
  0
LINE
  5
6C
330
1F
100
AcDbEntity
  8
0
  6
Continuous
 62
     7
370
    15
100
AcDbLine
 10
2.9328826589
 20
6.0004776521
 30
0.0
 11
1.9766060276
 21
6.0004776521
 31
0.0
  0
LINE
  5
6D
330
1F
100
AcDbEntity
  8
0
  6
Continuous
 62
     7
370
    15
100
AcDbLine
 10
5.194723039
 20
2.6903076328
 30
0.0
 11
4.1975814929
 21
5.1490073452
 31
0.0
  0
LINE
  5
6E
330
1F
100
AcDbEntity
  8
0
  6
Continuous
 62
     7
370
    15
100
AcDbLine
 10
5.3169010935
 20
-2.6208873066
 30
0.0
 11
5.2949044103
 21
2.183137643
 31
0.0
  0
LINE
  5
6F
330
1F
100
AcDbEntity
  8
0
  6
Continuous
 62
     7
370
    15
100
AcDbLine
 10
-3.9572808408
 20
-3.9905872543
 30
0.0
 11
3.9572808408
 21
-3.9905872543
 31
0.0
  0
LINE
  5
70
330
1F
100
AcDbEntity
  8
0
  6
Continuous
 62
     7
370
    15
100
AcDbLine
 10
-5.2949044103
 20
2.183137643
 30
0.0
 11
-5.3169010935
 21
-2.6208873066
 31
0.0
  0
LINE
  5
71
330
1F
100
AcDbEntity
  8
0
  6
Continuous
 62
     7
370
    15
100
AcDbLine
 10
-4.1975814929
 20
5.1490073452
 30
0.0
 11
-5.194723039
 21
2.6903076328
 31
0.0
  0
LINE
  5
72
330
1F
100
AcDbEntity
  8
0
  6
Continuous
 62
     7
370
    15
100
AcDbLine
 10
-1.9766060276
 20
6.0004776521
 30
0.0
 11
-2.9328826589
 21
6.0004776521
 31
0.0
  0
ARC
  5
73
330
1F
100
AcDbEntity
  8
0
  6
Continuous
 62
     7
370
    15
100
AcDbCircle
 10
-0.0000006284
 20
4.1936186828
 30
0.0
 40
0.9999999999999989
100
AcDbArc
 50
58.9569779015
 51
121.0433777668
  0
ENDSEC
  0
SECTION
  2
OBJECTS
  0
DICTIONARY
  5
C
330
0
100
AcDbDictionary
281
     1
  3
ACAD_GROUP
350
D
  3
ACAD_LAYOUT
350
1A
  3
ACAD_MLINESTYLE
350
17
  3
ACAD_PLOTSETTINGS
350
19
  3
ACAD_PLOTSTYLENAME
350
E
  0
DICTIONARY
  5
D
102
{ACAD_REACTORS
330
C
102
}
330
C
100
AcDbDictionary
281
     1
  0
DICTIONARY
  5
1A
102
{ACAD_REACTORS
330
C
102
}
330
C
100
AcDbDictionary
281
     1
  3
Layout1
350
1E
  3
Layout2
350
26
  3
Model
350
22
  0
DICTIONARY
  5
17
102
{ACAD_REACTORS
330
C
102
}
330
C
100
AcDbDictionary
281
     1
  3
Standard
350
18
  0
DICTIONARY
  5
19
102
{ACAD_REACTORS
330
C
102
}
330
C
100
AcDbDictionary
281
     1
  0
ACDBDICTIONARYWDFLT
  5
E
102
{ACAD_REACTORS
330
C
102
}
330
C
100
AcDbDictionary
281
     1
  3
Normal
350
F
100
AcDbDictionaryWithDefault
340
F
  0
LAYOUT
  5
1E
102
{ACAD_REACTORS
330
1A
102
}
330
1A
100
AcDbPlotSettings
  1

  2
none_device
  4

  6

 40
0.0
 41
0.0
 42
0.0
 43
0.0
 44
0.0
 45
0.0
 46
0.0
 47
0.0
 48
0.0
 49
0.0
140
0.0
141
0.0
142
1.0
143
1.0
 70
   688
 72
     0
 73
     0
 74
     5
  7

 75
    16
147
1.0
148
0.0
149
0.0
100
AcDbLayout
  1
Layout1
 70
     1
 71
     1
 10
0.0
 20
0.0
 11
12.0
 21
9.0
 12
0.0
 22
0.0
 32
0.0
 14
1.0000000000E+20
 24
1.0000000000E+20
 34
1.0000000000E+20
 15
-1.0000000000E+20
 25
-1.0000000000E+20
 35
-1.0000000000E+20
146
0.0
 13
0.0
 23
0.0
 33
0.0
 16
1.0
 26
0.0
 36
0.0
 17
0.0
 27
1.0
 37
0.0
 76
     0
330
1B
  0
LAYOUT
  5
26
102
{ACAD_REACTORS
330
1A
102
}
330
1A
100
AcDbPlotSettings
  1

  2
none_device
  4

  6

 40
0.0
 41
0.0
 42
0.0
 43
0.0
 44
0.0
 45
0.0
 46
0.0
 47
0.0
 48
0.0
 49
0.0
140
0.0
141
0.0
142
1.0
143
1.0
 70
   688
 72
     0
 73
     0
 74
     5
  7

 75
    16
147
1.0
148
0.0
149
0.0
100
AcDbLayout
  1
Layout2
 70
     1
 71
     2
 10
0.0
 20
0.0
 11
0.0
 21
0.0
 12
0.0
 22
0.0
 32
0.0
 14
0.0
 24
0.0
 34
0.0
 15
0.0
 25
0.0
 35
0.0
146
0.0
 13
0.0
 23
0.0
 33
0.0
 16
1.0
 26
0.0
 36
0.0
 17
0.0
 27
1.0
 37
0.0
 76
     0
330
23
  0
LAYOUT
  5
22
102
{ACAD_REACTORS
330
1A
102
}
330
1A
100
AcDbPlotSettings
  1

  2
none_device
  4
ANSI_A_(11.00_x_8.50_Inches)
  6

 40
6.35
 41
19.05
 42
6.35000508
 43
19.05000254
 44
279.4
 45
215.9
 46
133.34999746
 47
67.4009899887
 48
0.0
 49
0.0
140
0.0
141
0.0
142
0.8422525605
143
1.0
 70
  1696
 72
     0
 73
     0
 74
     0
  7

 75
     0
147
0.5913241897
148
0.0
149
0.0
100
AcDbLayout
  1
Model
 70
     1
 71
     0
 10
0.0
 20
0.0
 11
12.0
 21
9.0
 12
0.0
 22
0.0
 32
0.0
 14
-5.3169010935
 24
-3.9905872543
 34
0.0
 15
5.3169010935
 25
6.0004776521
 35
0.0
146
0.0
 13
0.0
 23
0.0
 33
0.0
 16
1.0
 26
0.0
 36
0.0
 17
0.0
 27
1.0
 37
0.0
 76
     0
330
1F
331
29
  0
MLINESTYLE
  5
18
102
{ACAD_REACTORS
330
17
102
}
330
17
100
AcDbMlineStyle
  2
Standard
 70
     0
  3

 62
   256
 51
90.0
 52
90.0
 71
     2
 49
0.5
 62
   256
  6
BYLAYER
 49
-0.5
 62
   256
  6
BYLAYER
  0
ACDBPLACEHOLDER
  5
F
102
{ACAD_REACTORS
330
E
102
}
330
E
  0
ENDSEC
  0
EOF
