999
DXF file: splinequad_polyline.dxf
999
Pro/ENGINEER 2012480 by Parametric Technology Corporation
  0
SECTION
  2
HEADER
  9
$ACADVER
  1
AC1021
  9
$DWGCODEPAGE
  3
ANSI_1252
  9
$EXTMAX
 10
8.0
 20
8.0
 30
0.0
  9
$EXTMIN
 10
0.0
 20
0.0
 30
0.0
  9
$LIMMIN
 10
0.0
 20
0.0
  9
$LIMMAX
 10
8.0
 20
8.0
  9
$VIEWCTR
 10
4.0
 20
4.0
  9
$VIEWSIZE
 40
8.0
  9
$CLAYER
  8
0
  9
$LTSCALE
 40
0.5214814815
  9
$CELTYPE
  6
BYLAYER
  9
$DIMSCALE
 40
1.0
  9
$DIMASZ
 40
0.1875
  9
$DIMEXO
 40
0.0625
  9
$DIMDLI
 40
0.3602962963
  9
$DIMEXE
 40
0.125
  9
$DIMCEN
 40
0.0853333333
  9
$DIMLFAC
 40
1.0
  9
$DIMBLK
  1
_CLOSED
  9
$DIMTXT
 40
0.15625
  9
$DIMTOL
 70
0
  9
$DIMLIM
 70
0
  9
$DIMTFAC
 40
1.0
  9
$DIMGAP
 40
0.09
  9
$DIMDSEP
 70
46
  9
$PDMODE
 70
3
  9
$PDSIZE
 40
0.3125
  9
$HANDSEED
  5
335
  9
$TILEMODE
 70
1
  9
$MEASUREMENT
 70
0
  9
$INSUNITS
 70
1
  0
ENDSEC
  0
SECTION
  2
CLASSES
  0
CLASS
  1
ACDBDICTIONARYWDFLT
  2
AcDbDictionaryWithDefault
  3
AutoCAD 2000
 90
0
 91
1
280
0
281
0
  0
CLASS
  1
ACDBPLACEHOLDER
  2
AcDbPlaceHolder
  3
AutoCAD 2000
 90
0
 91
1
280
0
281
0
  0
CLASS
  1
LAYOUT
  2
AcDbLayout
  3
AutoCAD 2000
 90
0
 91
0
280
0
281
0
  0
ENDSEC
  0
SECTION
  2
TABLES
  0
TABLE
  2
VPORT
  5
8
100
AcDbSymbolTable
 70
2
  0
VPORT
  5
1F4
100
AcDbSymbolTableRecord
100
AcDbViewportTableRecord
  2
*ACTIVE
 70
0
 10
0.0
 20
0.0
 11
1.0
 21
1.0
 12
4.0
 22
4.0
 13
0.0
 23
0.0
 14
1.0
 24
1.0
 15
0.0
 25
0.0
 16
0.0
 26
0.0
 36
1.0
 17
0.0
 27
0.0
 37
0.0
 40
8.0
 41
1.0
 42
50.0
 43
0.0
 44
0.0
 50
0.0
 51
0.0
 71
0
 72
100
 73
1
 74
1
 75
0
 76
0
 77
0
 78
0
  0
ENDTAB
  0
TABLE
  2
LTYPE
  5
5
100
AcDbSymbolTable
 70
6
  0
LTYPE
  5
14
100
AcDbSymbolTableRecord
100
AcDbLinetypeTableRecord
  2
BYBLOCK
 70
0
  3

 72
65
 73
0
 40
0.0
  0
LTYPE
  5
15
100
AcDbSymbolTableRecord
100
AcDbLinetypeTableRecord
  2
BYLAYER
 70
0
  3

 72
65
 73
0
 40
0.0
  0
LTYPE
  5
16
100
AcDbSymbolTableRecord
100
AcDbLinetypeTableRecord
  2
CONTINUOUS
 70
64
  3
Solid line
 72
65
 73
0
 40
0.0
  0
LTYPE
  5
1F5
100
AcDbSymbolTableRecord
100
AcDbLinetypeTableRecord
  2
CENTER
 70
64
  3
____ _ ____ _ ____ _ ____ _ ____ _ ____ _ ____
 72
65
 73
4
 40
0.6
 49
0.375
 74
0
 49
-0.075
 74
0
 49
0.075
 74
0
 49
-0.075
 74
0
  0
LTYPE
  5
1F6
100
AcDbSymbolTableRecord
100
AcDbLinetypeTableRecord
  2
HIDDEN
 70
64
  3
- - - - - - - - - - - - - - - - - - - -
 72
65
 73
2
 40
0.2
 49
0.1
 74
0
 49
-0.1
 74
0
  0
LTYPE
  5
1F7
100
AcDbSymbolTableRecord
100
AcDbLinetypeTableRecord
  2
PHANTOM
 70
64
  3
_____ _ _ _____ _ _ _____ _ _ _____
 72
65
 73
6
 40
0.8
 49
0.45
 74
0
 49
-0.05
 74
0
 49
0.1
 74
0
 49
-0.05
 74
0
 49
0.1
 74
0
 49
-0.05
 74
0
  0
LTYPE
  5
1F8
100
AcDbSymbolTableRecord
100
AcDbLinetypeTableRecord
  2
DOT
 70
64
  3
. . . . . . . . . . . . . . . . . . . .
 72
65
 73
2
 40
0.2
 49
0.1
 74
0
 49
-0.1
 74
0
  0
LTYPE
  5
1F9
100
AcDbSymbolTableRecord
100
AcDbLinetypeTableRecord
  2
DASHED
 70
64
  3
- - - - - - - - - - - - - - - - - - - -
 72
65
 73
2
 40
0.2
 49
0.1
 74
0
 49
-0.1
 74
0
  0
ENDTAB
  0
TABLE
  2
LAYER
  5
2
100
AcDbSymbolTable
 70
36
  0
LAYER
  5
10
100
AcDbSymbolTableRecord
100
AcDbLayerTableRecord
  2
0
 70
0
 62
7
  6
CONTINUOUS
370
-3
390
F
  0
LAYER
  5
1FA
100
AcDbSymbolTableRecord
100
AcDbLayerTableRecord
  2
DEFAULT_1
 70
0
 62
7
  6
CENTER
370
-3
390
F
  0
LAYER
  5
1FB
100
AcDbSymbolTableRecord
100
AcDbLayerTableRecord
  2
DEFAULT_2
 70
0
 62
8
  6
HIDDEN
370
-3
390
F
  0
LAYER
  5
1FC
100
AcDbSymbolTableRecord
100
AcDbLayerTableRecord
  2
DEFAULT_3
 70
0
 62
7
  6
PHANTOM
370
-3
390
F
  0
LAYER
  5
1FD
100
AcDbSymbolTableRecord
100
AcDbLayerTableRecord
  2
01___PRT_ALL_DTM_PLN
 70
0
 62
7
  6
CONTINUOUS
370
-3
390
F
  0
LAYER
  5
1FE
100
AcDbSymbolTableRecord
100
AcDbLayerTableRecord
  2
01___PRT_DEF_DTMS
 70
0
 62
7
  6
CONTINUOUS
370
-3
390
F
  0
LAYER
  5
1FF
100
AcDbSymbolTableRecord
100
AcDbLayerTableRecord
  2
01___PRT_GDT_DATUM
 70
0
 62
7
  6
CONTINUOUS
370
-3
390
F
  0
LAYER
  5
200
100
AcDbSymbolTableRecord
100
AcDbLayerTableRecord
  2
01___PRT_XSEC_DTM
 70
0
 62
7
  6
CONTINUOUS
370
-3
390
F
  0
LAYER
  5
201
100
AcDbSymbolTableRecord
100
AcDbLayerTableRecord
  2
02___PRT_ALL_AXES
 70
0
 62
7
  6
CONTINUOUS
370
-3
390
F
  0
LAYER
  5
202
100
AcDbSymbolTableRecord
100
AcDbLayerTableRecord
  2
03___PRT_ALL_CURVES
 70
0
 62
7
  6
CONTINUOUS
370
-3
390
F
  0
LAYER
  5
203
100
AcDbSymbolTableRecord
100
AcDbLayerTableRecord
  2
04___PRT_ALL_DTM_PNT
 70
0
 62
7
  6
CONTINUOUS
370
-3
390
F
  0
LAYER
  5
204
100
AcDbSymbolTableRecord
100
AcDbLayerTableRecord
  2
05___PRT_ALL_DTM_CSYS
 70
0
 62
7
  6
CONTINUOUS
370
-3
390
F
  0
LAYER
  5
205
100
AcDbSymbolTableRecord
100
AcDbLayerTableRecord
  2
06___PRT_ALL_SURFS
 70
0
 62
7
  6
CONTINUOUS
370
-3
390
F
  0
LAYER
  5
206
100
AcDbSymbolTableRecord
100
AcDbLayerTableRecord
  2
07___PRT_COSMETIC
 70
0
 62
7
  6
CONTINUOUS
370
-3
390
F
  0
LAYER
  5
207
100
AcDbSymbolTableRecord
100
AcDbLayerTableRecord
  2
08___PRT_ANNOTATIONS
 70
0
 62
7
  6
CONTINUOUS
370
-3
390
F
  0
LAYER
  5
208
100
AcDbSymbolTableRecord
100
AcDbLayerTableRecord
  2
09___PRT_INHERITANCE
 70
0
 62
7
  6
CONTINUOUS
370
-3
390
F
  0
LAYER
  5
209
100
AcDbSymbolTableRecord
100
AcDbLayerTableRecord
  2
10___2D_DRAFT
 70
0
 62
7
  6
CONTINUOUS
370
-3
390
F
  0
ENDTAB
  0
TABLE
  2
STYLE
  5
3
100
AcDbSymbolTable
 70
1
  0
STYLE
  5
11
100
AcDbSymbolTableRecord
100
AcDbTextStyleTableRecord
  2
STANDARD
 70
0
 40
0.0
 41
0.8
 50
0.0
 71
0
 42
0.2
  3
txt
  4

  0
STYLE
  5
20A
100
AcDbSymbolTableRecord
100
AcDbTextStyleTableRecord
  2
TEXTSTYLE_1
 70
0
 40
0.0
 41
0.8
 50
0.0
 71
0
 42
0.2
  3
gdt
  4

  0
ENDTAB
  0
TABLE
  2
VIEW
  5
6
100
AcDbSymbolTable
 70
0
  0
ENDTAB
  0
TABLE
  2
UCS
  5
7
100
AcDbSymbolTable
 70
0
  0
ENDTAB
  0
TABLE
  2
APPID
  5
9
100
AcDbSymbolTable
 70
1
  0
APPID
  5
20B
100
AcDbSymbolTableRecord
100
AcDbRegAppTableRecord
  2
ACAD
 70
0
  0
ENDTAB
  0
TABLE
  2
BLOCK_RECORD
  5
1
100
AcDbSymbolTable
 70
0
  0
BLOCK_RECORD
  5
20C
100
AcDbSymbolTableRecord
100
AcDbBlockTableRecord
  2
*Model_Space
  0
BLOCK_RECORD
  5
20D
100
AcDbSymbolTableRecord
100
AcDbBlockTableRecord
  2
*Paper_Space
  0
ENDTAB
  0
TABLE
  2
DIMSTYLE
  5
A
100
AcDbSymbolTable
 70
1
100
AcDbDimStyleTable
 71
0
  0
DIMSTYLE
105
20E
100
AcDbSymbolTableRecord
100
AcDbDimStyleTableRecord
  2
STANDARD
 70
0
  3

  4

 40
1.0
 41
0.1875
 42
0.0625
 43
0.38
 44
0.125
 45
0.0
 46
0.0
 47
0.001
 48
0.001
140
0.15625
141
0.09
142
0.0
143
25.4
144
1.0
145
0.0
146
1.0
147
0.09
 71
0.0
 72
0.0
 73
1
 74
1
 75
0
 76
0
 77
0
 78
4
170
0
171
2
172
0
173
0
174
0
175
0
176
0
177
0
178
0
270
2
271
3
272
3
273
2
274
2
275
0
280
0
281
0
282
0
283
1
284
4
285
0
286
0
287
3
288
0
340
11
278
46
  0
ENDTAB
  0
ENDSEC
  0
SECTION
  2
BLOCKS
  0
BLOCK
  5
20
100
AcDbEntity
  8
0
100
AcDbBlockBegin
  2
*Model_Space
 70
0
 10
0.0
 20
0.0
 30
0.0
  3
*Model_Space
  1

  0
ENDBLK
  5
21
100
AcDbEntity
  8
0
100
AcDbBlockEnd
  0
BLOCK
  5
1C
100
AcDbEntity
  8
0
100
AcDbBlockBegin
  2
*Paper_Space
 70
0
 10
0.0
 20
0.0
 30
0.0
  3
*Paper_Space
  1

  0
ENDBLK
  5
1D
100
AcDbEntity
  8
0
100
AcDbBlockEnd
  0
ENDSEC
  0
SECTION
  2
ENTITIES
  0
LINE
  5
20F
100
AcDbEntity
  8
0
100
AcDbLine
 62
7
  6
CONTINUOUS
 10
0.0
 20
0.0
 11
0.0
 21
8.0
  0
LINE
  5
210
100
AcDbEntity
  8
0
100
AcDbLine
 62
7
  6
CONTINUOUS
 10
0.0
 20
0.0
 11
8.0
 21
0.0
  0
LINE
  5
211
100
AcDbEntity
  8
0
100
AcDbLine
 62
7
  6
CONTINUOUS
 10
8.0
 20
0.0
 11
8.0
 21
8.0
  0
LINE
  5
212
100
AcDbEntity
  8
0
100
AcDbLine
 62
7
  6
CONTINUOUS
 10
0.0
 20
8.0
 11
8.0
 21
8.0
  0
LWPOLYLINE
  5
213
100
AcDbEntity
  8
0
100
AcDbPolyline
 62
7
  6
CONTINUOUS
 90
18
 70
0
 10
0.5653611866
 20
7.2552343006
 10
0.5240242891
 20
7.0840609266
 10
0.5138522971
 20
7.0225044246
 10
0.5132860124
 20
6.9733959565
 10
0.5222541356
 20
6.9332581731
 10
0.5426777493
 20
6.8976626305
 10
0.5796966077
 20
6.8642289733
 10
0.6357227377
 20
6.8301359962
 10
0.7046368765
 20
6.792231646
 10
0.7707006285
 20
6.7479056662
 10
0.8217931631
 20
6.6946516196
 10
0.8605703039
 20
6.6291804499
 10
0.8912554507
 20
6.5461273248
 10
0.9138030305
 20
6.4479335103
 10
0.9295927429
 20
6.339633042
 10
0.9387890647
 20
6.221877112
 10
0.9419139666
 20
6.0946898853
 10
0.9408976586
 20
5.9579993987
  0
LWPOLYLINE
  5
214
100
AcDbEntity
  8
0
100
AcDbPolyline
 62
7
  6
CONTINUOUS
 90
18
 70
0
 10
7.3754786708
 20
0.4410174349
 10
7.2006942037
 20
0.3989321862
 10
7.1379677551
 20
0.3895313978
 10
7.0881675575
 20
0.3907266283
 10
7.0484178599
 20
0.4021675293
 10
7.0143215036
 20
0.4251112334
 10
6.9828544944
 20
0.4632978882
 10
6.9505859577
 20
0.5178846944
 10
6.9141330811
 20
0.583972236
 10
6.8686617857
 20
0.650557022
 10
6.8081702131
 20
0.7054295075
 10
6.7307848466
 20
0.746602429
 10
6.6355779491
 20
0.7766981554
 10
6.525659191
 20
0.7978452093
 10
6.4059466437
 20
0.8113611075
 10
6.2763971152
 20
0.8175636208
 10
6.1372815904
 20
0.8179823927
 10
4.7384974116
 20
0.7983420747
  0
LINE
  5
215
100
AcDbEntity
  8
0
100
AcDbLine
 62
7
  6
CONTINUOUS
 10
7.4910060207
 20
0.4593518288
 11
7.3754786708
 21
0.4410174349
  0
LWPOLYLINE
  5
216
100
AcDbEntity
  8
0
100
AcDbPolyline
 62
7
  6
CONTINUOUS
 90
3
 70
0
 10
0.6401042274
 20
0.4593518288
 10
0.7556379016
 20
0.4410160654
 10
0.9304389234
 20
0.3989274564
  0
LWPOLYLINE
  5
217
100
AcDbEntity
  8
0
100
AcDbPolyline
 62
7
  6
CONTINUOUS
 90
17
 70
0
 10
0.5240328766
 20
0.7997739137
 10
0.5138551338
 20
0.8613414202
 10
0.5132848137
 20
0.9104661817
 10
0.5222564114
 20
0.9506225899
 10
0.5426976122
 20
0.9862365805
 10
0.5797530042
 20
1.0196858966
 10
0.6358222103
 20
1.0537934884
 10
0.7047615943
 20
1.0917152636
 10
0.7708232166
 20
1.136068697
 10
0.8219040066
 20
1.189371482
 10
0.8606702554
 20
1.2549073899
 10
0.8913356643
 20
1.3380247931
 10
0.9138591669
 20
1.436247377
 10
0.9296267123
 20
1.5445491424
 10
0.9388030526
 20
1.6622847845
 10
0.9419150376
 20
1.789426817
 10
0.9408953327
 20
1.9260421484
  0
LINE
  5
218
100
AcDbEntity
  8
0
100
AcDbLine
 62
7
  6
CONTINUOUS
 10
0.5829695885
 20
7.367388261
 11
0.5653611866
 21
7.2552343006
  0
LWPOLYLINE
  5
219
100
AcDbEntity
  8
0
100
AcDbPolyline
 62
7
  6
CONTINUOUS
 90
16
 70
0
 10
0.9304389234
 20
0.3989274564
 10
0.9931585919
 20
0.3895302092
 10
1.0429488074
 20
0.3907275154
 10
1.0826870925
 20
0.4021650956
 10
1.1167735137
 20
0.4250970649
 10
1.1482342442
 20
0.4632659135
 10
1.1804987297
 20
0.5178378739
 10
1.2169443041
 20
0.5839159387
 10
1.2623949217
 20
0.6504929082
 10
1.3228439508
 20
0.7053631579
 10
1.4001765931
 20
0.7465414941
 10
1.4953334912
 20
0.776649828
 10
1.6052232161
 20
0.7978108364
 10
1.7249209428
 20
0.8113421314
 10
1.8544692793
 20
0.817558332
 10
1.9935999937
 20
0.81798476
  0
LWPOLYLINE
  5
21A
100
AcDbEntity
  8
0
100
AcDbPolyline
 62
7
  6
CONTINUOUS
 90
3
 70
0
 10
0.5829695885
 20
0.5164864676
 10
0.5653642542
 20
0.6286260849
 10
0.5240328766
 20
0.7997739137
  0
LWPOLYLINE
  5
21B
100
AcDbEntity
  8
0
100
AcDbPolyline
 62
7
  6
CONTINUOUS
 90
11
 70
0
 10
1.6013737781
 20
6.4061187103
 10
1.6135108506
 20
6.4219629096
 10
1.6199237594
 20
6.4398807053
 10
1.6208545037
 20
6.4617968118
 10
1.6149060496
 20
6.4887367487
 10
1.6006439514
 20
6.5209804822
 10
1.577249483
 20
6.5583078136
 10
1.545002892
 20
6.5997796666
 10
1.505926159
 20
6.6433798324
 10
1.4623503481
 20
6.6875090537
 10
1.3650062996
 20
6.779935325
  0
LWPOLYLINE
  5
21C
100
AcDbEntity
  8
0
100
AcDbPolyline
 62
7
  6
CONTINUOUS
 90
33
 70
0
 10
1.6013737781
 20
6.4061187103
 10
1.5833496378
 20
6.3928510202
 10
1.5624467141
 20
6.3867653075
 10
1.5364997935
 20
6.387922246
 10
1.5046986906
 20
6.3979953609
 10
1.4670908093
 20
6.4182420418
 10
1.4244698194
 20
6.4487917024
 10
1.3787205493
 20
6.4879831119
 10
1.3324416169
 20
6.5324880433
 10
1.285843104
 20
6.5808509188
 10
1.2375947436
 20
6.6320522521
 10
1.1847201843
 20
6.6847111352
 10
1.1292979851
 20
6.7310101028
 10
1.0747264507
 20
6.7655738313
 10
1.0203844645
 20
6.7899009716
 10
0.9692456712
 20
6.8084492749
 10
0.9257217126
 20
6.826573348
 10
0.8922517485
 20
6.8468616318
 10
0.8694822628
 20
6.8698680553
 10
0.8552632531
 20
6.8976221695
 10
0.8463579607
 20
6.9334811663
 10
0.8397042291
 20
6.9734803348
 10
0.8315326637
 20
7.0091704094
 10
0.8194946174
 20
7.0369349898
 10
0.8017387372
 20
7.0581948055
 10
0.7761828549
 20
7.0767020888
 10
0.7439991373
 20
7.0957961032
 10
0.7126915957
 20
7.1176776612
 10
0.6880153565
 20
7.1456599425
 10
0.6700782611
 20
7.1837513084
 10
0.6601567902
 20
7.2262315578
 10
0.6573688803
 20
7.263868393
 10
0.6590638606
 20
7.2937638714
  0
LWPOLYLINE
  5
21D
100
AcDbEntity
  8
0
100
AcDbPolyline
 62
7
  6
CONTINUOUS
 90
33
 70
0
 10
1.6013737781
 20
1.4777560183
 10
1.5833386079
 20
1.4910291504
 10
1.5624205679
 20
1.497112478
 10
1.5364571764
 20
1.4959445819
 10
1.5046436065
 20
1.4858555515
 10
1.4670308748
 20
1.4655947764
 10
1.4244155907
 20
1.4350400682
 10
1.3786834866
 20
1.3958577336
 10
1.3324311937
 20
1.3513762039
 10
1.2858672213
 20
1.3030494059
 10
1.2376646209
 20
1.2518955993
 10
1.1848548352
 20
1.1992887667
 10
1.1294622733
 20
1.1529854046
 10
1.0749145415
 20
1.1184014894
 10
1.0205868261
 20
1.0940503605
 10
0.9694325727
 20
1.0754945065
 10
0.9258713621
 20
1.0573745679
 10
0.8923531934
 20
1.0370913892
 10
0.8695384144
 20
1.0140835774
 10
0.8552920246
 20
0.9863347553
 10
0.8463741388
 20
0.9504822513
 10
0.8397187157
 20
0.9104770749
 10
0.8315526625
 20
0.8747687846
 10
0.8195186428
 20
0.846979722
 10
0.80176426
 20
0.8257027371
 10
0.7762070727
 20
0.8071876747
 10
0.7440220698
 20
0.7880925076
 10
0.7127032756
 20
0.7662069969
 10
0.6880116651
 20
0.7382090729
 10
0.6700718482
 20
0.7001043257
 10
0.6601553001
 20
0.6576328022
 10
0.6573688775
 20
0.6200057444
 10
0.6590638606
 20
0.5901108572
  0
LWPOLYLINE
  5
21E
100
AcDbEntity
  8
0
100
AcDbPolyline
 62
7
  6
CONTINUOUS
 90
31
 70
0
 10
1.6013737781
 20
1.4777560183
 10
1.6153418278
 20
1.458263878
 10
1.6210553505
 20
1.4352602593
 10
1.6181906816
 20
1.4064572884
 10
1.6049447037
 20
1.3712395862
 10
1.5803003867
 20
1.3299395176
 10
1.5448088442
 20
1.283864626
 10
1.5013809568
 20
1.2357109652
 10
1.4533458013
 20
1.1876365233
 10
1.4018272591
 20
1.1389218947
 10
1.3482373562
 20
1.0874454114
 10
1.2958021963
 20
1.0304198498
 10
1.254785298
 20
0.9735145909
 10
1.2255622682
 20
0.9168036162
 10
1.2047650301
 20
0.861407133
 10
1.1859024192
 20
0.8128035895
 10
1.1650118315
 20
0.7746099199
 10
1.1409352546
 20
0.7483872409
 10
1.1124474707
 20
0.7325747967
 10
1.0754097377
 20
0.7229972752
 10
1.0318298692
 20
0.7156997659
 10
0.9924062406
 20
0.705958117
 10
0.9626188422
 20
0.6905256143
 10
0.9402100099
 20
0.6667385543
 10
0.9197413753
 20
0.6339934538
 10
0.8965421685
 20
0.5975317132
 10
0.868265435
 20
0.5688268347
 10
0.8300516651
 20
0.5486959535
 10
0.785767146
 20
0.5372258374
 10
0.7455886986
 20
0.53376763
 10
0.713728617
 20
0.5354461008
  0
LWPOLYLINE
  5
21F
100
AcDbEntity
  8
0
100
AcDbPolyline
 62
7
  6
CONTINUOUS
 90
4
 70
0
 10
1.0987489912
 20
1.9161715635
 10
1.1007140711
 20
1.8135984819
 10
1.1037870514
 20
1.723667287
 10
1.1081177996
 20
1.6472232621
  0
LINE
  5
220
100
AcDbEntity
  8
0
100
AcDbLine
 62
7
  6
CONTINUOUS
 10
0.9209430445
 20
3.335525105
 11
0.9111883531
 21
3.9419373643
  0
LINE
  5
221
100
AcDbEntity
  8
0
100
AcDbLine
 62
7
  6
CONTINUOUS
 10
0.9408953327
 20
1.9260421484
 11
0.9343690652
 21
2.4001910469
  0
LINE
  5
222
100
AcDbEntity
  8
0
100
AcDbLine
 62
7
  6
CONTINUOUS
 10
0.936693011
 20
2.2302161428
 11
0.9209430445
 21
3.335525105
  0
LINE
  5
223
100
AcDbEntity
  8
0
100
AcDbLine
 62
7
  6
CONTINUOUS
 10
1.0952306817
 20
2.2749408721
 11
1.0987489912
 21
1.9161715635
  0
LINE
  5
224
100
AcDbEntity
  8
0
100
AcDbLine
 62
7
  6
CONTINUOUS
 10
1.0932810646
 20
2.5478547769
 11
1.0952306817
 21
2.2749408721
  0
LINE
  5
225
100
AcDbEntity
  8
0
100
AcDbLine
 62
7
  6
CONTINUOUS
 10
1.091854878
 20
2.852900895
 11
1.0932810646
 21
2.5478547769
  0
LINE
  5
226
100
AcDbEntity
  8
0
100
AcDbLine
 62
7
  6
CONTINUOUS
 10
1.0911462012
 20
3.2074562673
 11
1.091854878
 21
2.852900895
  0
LINE
  5
227
100
AcDbEntity
  8
0
100
AcDbLine
 62
7
  6
CONTINUOUS
 10
0.9701883531
 20
7.3473041353
 11
0.9701883531
 21
7.2853041353
  0
LINE
  5
228
100
AcDbEntity
  8
0
100
AcDbLine
 62
7
  6
CONTINUOUS
 10
0.9701883531
 20
1.2845705934
 11
0.9701883531
 21
1.2225705934
  0
LINE
  5
229
100
AcDbEntity
  8
0
100
AcDbLine
 62
7
  6
CONTINUOUS
 10
0.9701883531
 20
0.5365705934
 11
0.9701883531
 21
0.5985705934
  0
LINE
  5
22A
100
AcDbEntity
  8
0
100
AcDbLine
 62
7
  6
CONTINUOUS
 10
0.9701883531
 20
6.5993041353
 11
0.9701883531
 21
6.6613041353
  0
LINE
  5
22B
100
AcDbEntity
  8
0
100
AcDbLine
 62
7
  6
CONTINUOUS
 10
1.0911462012
 20
3.2074562673
 11
1.0914038024
 21
4.8618873291
  0
LINE
  5
22C
100
AcDbEntity
  8
0
100
AcDbLine
 62
7
  6
CONTINUOUS
 10
1.0911461667
 20
4.6763767412
 11
1.0918553169
 21
5.0311046674
  0
LINE
  5
22D
100
AcDbEntity
  8
0
100
AcDbLine
 62
7
  6
CONTINUOUS
 10
1.0918553169
 20
5.0311046674
 11
1.0932823765
 21
5.3362383407
  0
LINE
  5
22E
100
AcDbEntity
  8
0
100
AcDbLine
 62
7
  6
CONTINUOUS
 10
1.0932823765
 20
5.3362383407
 11
1.0952326591
 21
5.6091739849
  0
LWPOLYLINE
  5
22F
100
AcDbEntity
  8
0
100
AcDbPolyline
 62
7
  6
CONTINUOUS
 90
6
 70
0
 10
1.0952326591
 20
5.6091739849
 10
1.0974758427
 20
5.8551697796
 10
1.0987511954
 20
5.9678599055
 10
1.1007167764
 20
6.0703816633
 10
1.1037893082
 20
6.160258287
 10
1.1081177996
 20
6.2366514665
  0
LINE
  5
230
100
AcDbEntity
  8
0
100
AcDbLine
 62
7
  6
CONTINUOUS
 10
0.9408976586
 20
5.9579993987
 11
0.9253470748
 21
4.8418516474
  0
LWPOLYLINE
  5
231
100
AcDbEntity
  8
0
100
AcDbPolyline
 62
7
  6
CONTINUOUS
 90
3
 70
0
 10
0.9253470748
 20
4.8418516474
 10
0.9161423575
 20
4.2432999722
 10
0.9111883531
 20
3.9419373643
  0
LWPOLYLINE
  5
232
100
AcDbEntity
  8
0
100
AcDbPolyline
 62
7
  6
CONTINUOUS
 90
4
 70
0
 10
6.0846351147
 20
0.9750388746
 10
6.1894159939
 20
0.9769829835
 10
6.281660084
 20
0.9800738385
 10
6.3602692263
 20
0.9845000399
  0
LINE
  5
233
100
AcDbEntity
  8
0
100
AcDbLine
 62
7
  6
CONTINUOUS
 10
4.7384974116
 20
0.7983420747
 11
4.0655551241
 21
0.7875705934
  0
LINE
  5
234
100
AcDbEntity
  8
0
100
AcDbLine
 62
7
  6
CONTINUOUS
 10
5.7224867522
 20
0.9715304382
 11
6.0846351147
 21
0.9750388746
  0
LINE
  5
235
100
AcDbEntity
  8
0
100
AcDbLine
 62
7
  6
CONTINUOUS
 10
5.4498442222
 20
0.969604899
 11
5.7224867522
 21
0.9715304382
  0
LINE
  5
236
100
AcDbEntity
  8
0
100
AcDbLine
 62
7
  6
CONTINUOUS
 10
5.1472160628
 20
0.9682126093
 11
5.4498442222
 21
0.969604899
  0
LINE
  5
237
100
AcDbEntity
  8
0
100
AcDbLine
 62
7
  6
CONTINUOUS
 10
4.7977261555
 20
0.9675265472
 11
5.1472160628
 21
0.9682126093
  0
LINE
  5
238
100
AcDbEntity
  8
0
100
AcDbLine
 62
7
  6
CONTINUOUS
 10
7.470921895
 20
0.8465705934
 11
7.408921895
 21
0.8465705934
  0
LINE
  5
239
100
AcDbEntity
  8
0
100
AcDbLine
 62
7
  6
CONTINUOUS
 10
1.4081883531
 20
0.8465705934
 11
1.3461883531
 21
0.8465705934
  0
LINE
  5
23A
100
AcDbEntity
  8
0
100
AcDbLine
 62
7
  6
CONTINUOUS
 10
0.6601883531
 20
0.8465705934
 11
0.7221883531
 21
0.8465705934
  0
LINE
  5
23B
100
AcDbEntity
  8
0
100
AcDbLine
 62
7
  6
CONTINUOUS
 10
6.722921895
 20
0.8465705934
 11
6.784921895
 21
0.8465705934
  0
LINE
  5
23C
100
AcDbEntity
  8
0
100
AcDbLine
 62
7
  6
CONTINUOUS
 10
4.7977261555
 20
0.9675265472
 11
3.1508129375
 21
0.9677756614
  0
LINE
  5
23D
100
AcDbEntity
  8
0
100
AcDbLine
 62
7
  6
CONTINUOUS
 10
3.3333994261
 20
0.9675265347
 11
2.9838141714
 21
0.9682128727
  0
LINE
  5
23E
100
AcDbEntity
  8
0
100
AcDbLine
 62
7
  6
CONTINUOUS
 10
2.9838141714
 20
0.9682128727
 11
2.6811364825
 21
0.9696056661
  0
LINE
  5
23F
100
AcDbEntity
  8
0
100
AcDbLine
 62
7
  6
CONTINUOUS
 10
2.6811364825
 20
0.9696056661
 11
2.4084806435
 21
0.9715316036
  0
LWPOLYLINE
  5
240
100
AcDbEntity
  8
0
100
AcDbPolyline
 62
7
  6
CONTINUOUS
 90
6
 70
0
 10
2.4084806435
 20
0.9715316036
 10
2.1607574746
 20
0.9737743677
 10
2.0463803191
 20
0.9750401621
 10
1.9416295729
 20
0.9769845985
 10
1.8494184718
 20
0.9800752266
 10
1.7708410218
 20
0.9845000399
  0
LINE
  5
241
100
AcDbEntity
  8
0
100
AcDbLine
 62
7
  6
CONTINUOUS
 10
1.9935999937
 20
0.81798476
 11
3.1055349626
 21
0.802605813
  0
LWPOLYLINE
  5
242
100
AcDbEntity
  8
0
100
AcDbPolyline
 62
7
  6
CONTINUOUS
 90
3
 70
0
 10
3.1055349626
 20
0.802605813
 10
3.7287651189
 20
0.7930935717
 10
4.0655551241
 20
0.7875705934
  0
LINE
  5
243
100
AcDbEntity
  8
0
100
AcDbLine
 62
7
  6
CONTINUOUS
 10
1.0981883531
 20
6.6613041353
 11
1.0981883531
 21
6.5993041353
  0
LINE
  5
244
100
AcDbEntity
  8
0
100
AcDbLine
 62
7
  6
CONTINUOUS
 10
1.0981883531
 20
0.5985705934
 11
1.0981883531
 21
0.5365705934
  0
LINE
  5
245
100
AcDbEntity
  8
0
100
AcDbLine
 62
7
  6
CONTINUOUS
 10
1.0981883531
 20
1.2225705934
 11
1.0981883531
 21
1.2845705934
  0
LINE
  5
246
100
AcDbEntity
  8
0
100
AcDbLine
 62
7
  6
CONTINUOUS
 10
1.0981883531
 20
7.2853041353
 11
1.0981883531
 21
7.3473041353
  0
LINE
  5
247
100
AcDbEntity
  8
0
100
AcDbLine
 62
7
  6
CONTINUOUS
 10
6.784921895
 20
0.9745705934
 11
6.722921895
 21
0.9745705934
  0
LINE
  5
248
100
AcDbEntity
  8
0
100
AcDbLine
 62
7
  6
CONTINUOUS
 10
0.7221883531
 20
0.9745705934
 11
0.6601883531
 21
0.9745705934
  0
LINE
  5
249
100
AcDbEntity
  8
0
100
AcDbLine
 62
7
  6
CONTINUOUS
 10
1.3461883531
 20
0.9745705934
 11
1.4081883531
 21
0.9745705934
  0
LINE
  5
24A
100
AcDbEntity
  8
0
100
AcDbLine
 62
7
  6
CONTINUOUS
 10
7.408921895
 20
0.9745705934
 11
7.470921895
 21
0.9745705934
  0
LWPOLYLINE
  5
24B
100
AcDbEntity
  8
0
100
AcDbPolyline
 62
7
  6
CONTINUOUS
 90
12
 70
0
 10
3.0232061497
 20
4.4349601417
 10
3.0183397885
 20
4.4928092564
 10
3.0197153746
 20
4.5338811741
 10
3.0267049824
 20
4.5621881181
 10
3.0376980704
 20
4.581045878
 10
3.0521791388
 20
4.5933393389
 10
3.0714318083
 20
4.6004682554
 10
3.0978331672
 20
4.6016732706
 10
3.1338766143
 20
4.5946025263
 10
3.1824617099
 20
4.5759866664
 10
3.2479241979
 20
4.5411857516
 10
3.334487908
 20
4.484813026
  0
LWPOLYLINE
  5
24C
100
AcDbEntity
  8
0
100
AcDbPolyline
 62
7
  6
CONTINUOUS
 90
4
 70
0
 10
3.0655551241
 20
3.9419373643
 10
3.0603927118
 20
4.1023610176
 10
3.0480250882
 20
4.2420109544
 10
3.0232061497
 20
4.4349601417
  0
LWPOLYLINE
  5
24D
100
AcDbEntity
  8
0
100
AcDbPolyline
 62
7
  6
CONTINUOUS
 90
3
 70
0
 10
3.0655551241
 20
3.9419373643
 10
3.0603705177
 20
3.7811606724
 10
3.0479661752
 20
3.6413420297
  0
LWPOLYLINE
  5
24E
100
AcDbEntity
  8
0
100
AcDbPolyline
 62
7
  6
CONTINUOUS
 90
13
 70
0
 10
3.0479661752
 20
3.6413420297
 10
3.023184444
 20
3.4487274447
 10
3.0183363623
 20
3.3909699922
 10
3.0197219971
 20
3.3499425616
 10
3.0267164221
 20
3.3216580439
 10
3.0377133475
 20
3.3028105551
 10
3.0522010841
 20
3.2905225703
 10
3.0714658712
 20
3.2833996964
 10
3.0978812907
 20
3.2822053105
 10
3.133935978
 20
3.2892895819
 10
3.1825107926
 20
3.3079105984
 10
3.2479270227
 20
3.3426906518
 10
3.334487908
 20
3.3990617026
  0
LWPOLYLINE
  5
24F
100
AcDbEntity
  8
0
100
AcDbPolyline
 62
7
  6
CONTINUOUS
 90
14
 70
0
 10
1.7147342886
 20
1.0646252291
 10
1.734106764
 20
1.1195178387
 10
1.7584386577
 20
1.1715239253
 10
1.7876883832
 20
1.2243848683
 10
1.8231152212
 20
1.2817863455
 10
1.8647227217
 20
1.3440836628
 10
1.9094255802
 20
1.4070694832
 10
1.9532379711
 20
1.465940282
 10
1.9947003345
 20
1.5195728024
 10
2.0344488479
 20
1.5693466374
 10
2.0733655551
 20
1.616647997
 10
2.1122011774
 20
1.6624864028
 10
2.1514411993
 20
1.707397367
 10
2.1915334654
 20
1.7517228606
  0
LWPOLYLINE
  5
250
100
AcDbEntity
  8
0
100
AcDbPolyline
 62
7
  6
CONTINUOUS
 90
7
 70
0
 10
1.7147342886
 20
1.0646252291
 10
1.746592418
 20
1.1475569892
 10
1.8003593916
 20
1.2455291451
 10
1.879720997
 20
1.3655998512
 10
1.9818113039
 20
1.5030972455
 10
2.0925718144
 20
1.6394875182
 10
2.1915334654
 20
1.7517228606
  0
LWPOLYLINE
  5
251
100
AcDbEntity
  8
0
100
AcDbPolyline
 62
7
  6
CONTINUOUS
 90
15
 70
0
 10
4.0655551241
 20
2.9419373643
 10
3.8826067191
 20
2.9352640363
 10
3.7338973913
 20
2.9206935516
 10
3.6261623721
 20
2.9064652724
 10
3.5501163068
 20
2.8971931891
 10
3.4964928173
 20
2.8945266011
 10
3.4592150884
 20
2.8987144118
 10
3.4341937216
 20
2.9085758846
 10
3.4180859164
 20
2.922731515
 10
3.4085942908
 20
2.9414753617
 10
3.4054631671
 20
2.9672955522
 10
3.4109941772
 20
3.0034106052
 10
3.4287691597
 20
3.052774823
 10
3.463465477
 20
3.1194827065
 10
3.5226794623
 20
3.2108701482
  0
LWPOLYLINE
  5
252
100
AcDbEntity
  8
0
100
AcDbPolyline
 62
7
  6
CONTINUOUS
 90
15
 70
0
 10
4.0655551241
 20
2.9419373643
 10
4.2487377856
 20
2.9352473129
 10
4.3973832028
 20
2.9206727468
 10
4.5050253611
 20
2.9064547843
 10
4.5810287309
 20
2.8971898502
 10
4.6346358756
 20
2.8945269373
 10
4.671908918
 20
2.8987177201
 10
4.6969291274
 20
2.9085835023
 10
4.7130351784
 20
2.9227455405
 10
4.7225229291
 20
2.9414986654
 10
4.7256463045
 20
2.9673310471
 10
4.7201037365
 20
3.0034579274
 10
4.7023157727
 20
3.0528320114
 10
4.667625559
 20
3.1195155411
 10
4.6084307858
 20
3.2108701482
  0
LWPOLYLINE
  5
253
100
AcDbEntity
  8
0
100
AcDbPolyline
 62
7
  6
CONTINUOUS
 90
14
 70
0
 10
6.9428672592
 20
1.5911165288
 10
6.8879746497
 20
1.6104890043
 10
6.8359685631
 20
1.6348208979
 10
6.78310762
 20
1.6640706235
 10
6.7257061429
 20
1.6994974615
 10
6.6634088255
 20
1.741104962
 10
6.6004230052
 20
1.7858078204
 10
6.5415522064
 20
1.8296202113
 10
6.487919686
 20
1.8710825748
 10
6.438145851
 20
1.9108310881
 10
6.3908444914
 20
1.9497477954
 10
6.3450060856
 20
1.9885834177
 10
6.3000951214
 20
2.0278234396
 10
6.2557696278
 20
2.0679157057
  0
LWPOLYLINE
  5
254
100
AcDbEntity
  8
0
100
AcDbPolyline
 62
7
  6
CONTINUOUS
 90
7
 70
0
 10
6.9428672592
 20
1.5911165288
 10
6.8599354992
 20
1.6229746583
 10
6.7619633433
 20
1.6767416318
 10
6.6418926372
 20
1.7561032373
 10
6.5043952429
 20
1.8581935441
 10
6.3680049702
 20
1.9689540546
 10
6.2557696278
 20
2.0679157057
  0
LWPOLYLINE
  5
255
100
AcDbEntity
  8
0
100
AcDbPolyline
 62
7
  6
CONTINUOUS
 90
12
 70
0
 10
3.174875273
 20
3.0512575133
 10
3.1436043214
 20
3.0741333745
 10
3.1146132338
 20
3.0853142144
 10
3.0851280139
 20
3.0879312863
 10
3.0525342401
 20
3.0818904872
 10
3.0157652876
 20
3.0656200332
 10
2.9742946752
 20
3.037302613
 10
2.9271233791
 20
2.9940962073
 10
2.872250517
 20
2.9322796317
 10
2.8063783517
 20
2.8470053813
 10
2.7247673037
 20
2.7326384774
 10
2.6242320045
 20
2.5883542099
  0
LWPOLYLINE
  5
256
100
AcDbEntity
  8
0
100
AcDbPolyline
 62
7
  6
CONTINUOUS
 90
11
 70
0
 10
3.174875273
 20
3.0512575133
 10
3.1996403601
 20
3.0163868149
 10
3.210336765
 20
2.9838357712
 10
3.2104225644
 20
2.950047773
 10
3.1992064547
 20
2.9121296632
 10
3.174772572
 20
2.8691821529
 10
3.1342605161
 20
2.8202580856
 10
3.0736417162
 20
2.7634852196
 10
2.9877765653
 20
2.6954901112
 10
2.8701432918
 20
2.6108737475
 10
2.7119719696
 20
2.5006142448
  0
LINE
  5
257
100
AcDbEntity
  8
0
100
AcDbLine
 62
7
  6
CONTINUOUS
 10
3.6278585333
 20
4.7646782462
 11
3.5937957541
 21
4.7182292777
  0
LINE
  5
258
100
AcDbEntity
  8
0
100
AcDbLine
 62
7
  6
CONTINUOUS
 10
3.6366703285
 20
4.6070663159
 11
3.6716761187
 21
4.6548012009
  0
LINE
  5
259
100
AcDbEntity
  8
0
100
AcDbLine
 62
7
  6
CONTINUOUS
 10
5.2755551241
 20
5.4513471482
 11
5.055631899
 21
5.341697473
  0
LWPOLYLINE
  5
25A
100
AcDbEntity
  8
0
100
AcDbPolyline
 62
7
  6
CONTINUOUS
 90
11
 70
0
 10
2.6225551241
 20
5.2969373643
 10
2.6014241919
 20
5.3390182986
 10
2.5956743051
 20
5.3804424584
 10
2.605611895
 20
5.424500294
 10
2.6271697144
 20
5.458335558
 10
2.6568906819
 20
5.480996963
 10
2.68923889
 20
5.4899847205
 10
2.7249208603
 20
5.4896368014
 10
2.7640072593
 20
5.4823125186
 10
2.8035282618
 20
5.47059892
 10
2.8555551241
 20
5.4513471482
  0
LINE
  5
25B
100
AcDbEntity
  8
0
100
AcDbLine
 62
7
  6
CONTINUOUS
 10
3.6400551241
 20
5.1702810265
 11
3.6400551241
 21
4.8019343009
  0
LINE
  5
25C
100
AcDbEntity
  8
0
100
AcDbLine
 62
7
  6
CONTINUOUS
 10
3.7400551241
 20
4.8435451462
 11
3.7400551241
 21
5.1420261043
  0
LWPOLYLINE
  5
25D
100
AcDbEntity
  8
0
100
AcDbPolyline
 62
7
  6
CONTINUOUS
 90
14
 70
0
 10
1.8789542013
 20
2.0715300831
 10
1.9825592973
 20
2.1860932613
 10
2.0955995537
 20
2.3163217711
 10
2.2180413029
 20
2.464345113
 10
2.3484252061
 20
2.6315438019
 10
2.4773257813
 20
2.8094288166
 10
2.5905215946
 20
2.9801609775
 10
2.6813473514
 20
3.1320209464
 10
2.7520762551
 20
3.2650532807
 10
2.8060620557
 20
3.3864990747
 10
2.8447326159
 20
3.5097242909
 10
2.8702686759
 20
3.6430016096
 10
2.8848036166
 20
3.7878213373
 10
2.8905551241
 20
3.9419373643
  0
LWPOLYLINE
  5
25E
100
AcDbEntity
  8
0
100
AcDbPolyline
 62
7
  6
CONTINUOUS
 90
4
 70
0
 10
5.9359624053
 20
6.1285382871
 10
5.8343092241
 20
6.036411349
 10
5.7198415822
 20
5.9363528384
 10
5.5912130975
 20
5.828500959
  0
LWPOLYLINE
  5
25F
100
AcDbEntity
  8
0
100
AcDbPolyline
 62
7
  6
CONTINUOUS
 90
13
 70
0
 10
5.9359624053
 20
1.7553364415
 10
5.8198437034
 20
1.860321202
 10
5.6872103695
 20
1.9753415691
 10
5.5370295095
 20
2.0993444412
 10
5.3680917967
 20
2.230720398
 10
5.181706684
 20
2.3650189968
 10
4.9970503959
 20
2.4857998203
 10
4.8323032327
 20
2.5816504449
 10
4.6904549814
 20
2.6532776916
 10
4.5548828036
 20
2.7052424615
 10
4.4080831268
 20
2.7398396153
 10
4.2443441756
 20
2.7594483223
 10
4.0655551241
 20
2.7669373643
  0
LWPOLYLINE
  5
260
100
AcDbEntity
  8
0
100
AcDbPolyline
 62
7
  6
CONTINUOUS
 90
14
 70
0
 10
1.8789542013
 20
5.8123446456
 10
1.9827653958
 20
5.6975491498
 10
2.0960444231
 20
5.5670288767
 10
2.2187945331
 20
5.4185940704
 10
2.3494799498
 20
5.2509313394
 10
2.4784688587
 20
5.0727990922
 10
2.59149804
 20
4.9021634992
 10
2.6820498953
 20
4.7506083265
 10
2.7525722012
 20
4.6178223528
 10
2.8063831798
 20
4.4965342844
 10
2.8449172169
 20
4.3734079031
 10
2.8703529293
 20
4.2402760355
 10
2.8848267353
 20
4.0956981173
 10
2.8905551241
 20
3.9419373643
  0
LINE
  5
261
100
AcDbEntity
  8
0
100
AcDbLine
 62
7
  6
CONTINUOUS
 10
3.2725551241
 20
4.9560185988
 11
3.1499689142
 21
5.2694657013
  0
LWPOLYLINE
  5
262
100
AcDbEntity
  8
0
100
AcDbPolyline
 62
7
  6
CONTINUOUS
 90
16
 70
0
 10
3.2725551241
 20
4.9560185988
 10
3.282214947
 20
4.912294021
 10
3.2761381967
 20
4.8785154347
 10
3.2550992732
 20
4.846867769
 10
3.2235360713
 20
4.8191364983
 10
3.1807153946
 20
4.7957950423
 10
3.1314398122
 20
4.7855946051
 10
3.0784113082
 20
4.7910190079
 10
3.0228974228
 20
4.8120142089
 10
2.9701060728
 20
4.8460110835
 10
2.9132952094
 20
4.8976599895
 10
2.8605329714
 20
4.9580293305
 10
2.8065025021
 20
5.0293143121
 10
2.7489489269
 20
5.1117219702
 10
2.6906153516
 20
5.197802981
 10
2.6225551241
 20
5.2969373643
  0
LINE
  5
263
100
AcDbEntity
  8
0
100
AcDbLine
 62
7
  6
CONTINUOUS
 10
3.645993179
 20
3.3717444056
 11
3.5291675591
 21
3.2193344762
  0
LWPOLYLINE
  5
264
100
AcDbEntity
  8
0
100
AcDbPolyline
 62
7
  6
CONTINUOUS
 90
5
 70
0
 10
4.4801711662
 20
4.5056779308
 10
4.4030798835
 20
4.4140275625
 10
4.3158561265
 20
4.3148096792
 10
4.2185452694
 20
4.208023666
 10
4.1112021254
 20
4.0936889447
  0
LWPOLYLINE
  5
265
100
AcDbEntity
  8
0
100
AcDbPolyline
 62
7
  6
CONTINUOUS
 90
14
 70
0
 10
1.8753406203
 20
2.0679157057
 10
1.8313177562
 20
2.0280922626
 10
1.786687796
 20
1.9890854607
 10
1.7412600205
 20
1.9505781229
 10
1.6945874592
 20
1.912147785
 10
1.6455405222
 20
1.8729318574
 10
1.5924828249
 20
1.8318441514
 10
1.5337102172
 20
1.7880119945
 10
1.4701523985
 20
1.7427983731
 10
1.4068516946
 20
1.7004303183
 10
1.3484979166
 20
1.6643618159
 10
1.2950342621
 20
1.6347656113
 10
1.2428583507
 20
1.6103736287
 10
1.1882429889
 20
1.5911165288
  0
LWPOLYLINE
  5
266
100
AcDbEntity
  8
0
100
AcDbPolyline
 62
7
  6
CONTINUOUS
 90
7
 70
0
 10
1.8753406203
 20
2.0679157057
 10
1.7631052779
 20
1.9689540546
 10
1.6267150052
 20
1.8581935441
 10
1.489217611
 20
1.7561032373
 10
1.3691469048
 20
1.6767416318
 10
1.2711747489
 20
1.6229746583
 10
1.1882429889
 20
1.5911165288
  0
LWPOLYLINE
  5
267
100
AcDbEntity
  8
0
100
AcDbPolyline
 62
7
  6
CONTINUOUS
 90
7
 70
0
 10
6.2557696278
 20
5.815959023
 10
6.3680049702
 20
5.914920674
 10
6.5043952429
 20
6.0256811845
 10
6.6418926372
 20
6.1277714913
 10
6.7619633433
 20
6.2071330968
 10
6.8599354992
 20
6.2609000703
 10
6.9428672592
 20
6.2927581998
  0
LWPOLYLINE
  5
268
100
AcDbEntity
  8
0
100
AcDbPolyline
 62
7
  6
CONTINUOUS
 90
4
 70
0
 10
3.5018145575
 20
3.5273213222
 10
3.6257351253
 20
3.6323974065
 10
3.7630578502
 20
3.75541503
 10
3.9138035437
 20
3.896290363
  0
LINE
  5
269
100
AcDbEntity
  8
0
100
AcDbLine
 62
7
  6
CONTINUOUS
 10
3.3429522359
 20
3.4055497993
 11
3.4953621654
 21
3.5223754193
  0
LINE
  5
26A
100
AcDbEntity
  8
0
100
AcDbLine
 62
7
  6
CONTINUOUS
 10
4.7881580122
 20
4.4783249293
 11
4.6357480828
 21
4.3614993093
  0
LINE
  5
26B
100
AcDbEntity
  8
0
100
AcDbLine
 62
7
  6
CONTINUOUS
 10
3.4953621654
 20
4.3614993093
 11
3.3429522359
 21
4.4783249293
  0
LINE
  5
26C
100
AcDbEntity
  8
0
100
AcDbLine
 62
7
  6
CONTINUOUS
 10
4.6357480828
 20
3.5223754193
 11
4.7881580122
 21
3.4055497993
  0
LWPOLYLINE
  5
26D
100
AcDbEntity
  8
0
100
AcDbPolyline
 62
7
  6
CONTINUOUS
 90
4
 70
0
 10
3.5018145575
 20
4.3565534064
 10
3.6257338252
 20
4.2514784575
 10
3.7630567991
 20
4.1284606617
 10
3.9138035437
 20
3.9875843657
  0
LWPOLYLINE
  5
26E
100
AcDbEntity
  8
0
100
AcDbPolyline
 62
7
  6
CONTINUOUS
 90
25
 70
0
 10
1.3650062996
 20
6.779935325
 10
1.3142305747
 20
6.8321192225
 10
1.2718813379
 20
6.8845593021
 10
1.2402956563
 20
6.9358332117
 10
1.2178213975
 20
6.9865012527
 10
1.2005936901
 20
7.0340251243
 10
1.1841467944
 20
7.0749587097
 10
1.1662887268
 20
7.1074040341
 10
1.1464717131
 20
7.1307574068
 10
1.1242749836
 20
7.146174474
 10
1.0966510921
 20
7.1562319159
 10
1.0621255549
 20
7.1631816342
 10
1.0258499306
 20
7.1692842119
 10
0.9943378716
 20
7.1772501233
 10
0.9698618897
 20
7.1884200931
 10
0.9507950467
 20
7.2041109237
 10
0.9339769011
 20
7.2262789562
 10
0.9169865428
 20
7.2545945161
 10
0.8982700039
 20
7.2839941415
 10
0.8768334864
 20
7.3081403442
 10
0.849881766
 20
7.3264095758
 10
0.814266424
 20
7.3403540981
 10
0.7750931575
 20
7.3481501561
 10
0.7409328028
 20
7.3501224588
 10
0.713728617
 20
7.3484286278
  0
LWPOLYLINE
  5
26F
100
AcDbEntity
  8
0
100
AcDbPolyline
 62
7
  6
CONTINUOUS
 90
14
 70
0
 10
5.9395767827
 20
1.7517228606
 10
5.9794002258
 20
1.7076999964
 10
6.0184070277
 20
1.6630700362
 10
6.0569143655
 20
1.6176422608
 10
6.0953447034
 20
1.5709696994
 10
6.134560631
 20
1.5219227624
 10
6.175648337
 20
1.4688650652
 10
6.2194804938
 20
1.4100924575
 10
6.2646941153
 20
1.3465346388
 10
6.3070621701
 20
1.2832339349
 10
6.3431306725
 20
1.2248801568
 10
6.3727268771
 20
1.1714165024
 10
6.3971188597
 20
1.119240591
 10
6.4163759596
 20
1.0646252291
  0
LWPOLYLINE
  5
270
100
AcDbEntity
  8
0
100
AcDbPolyline
 62
7
  6
CONTINUOUS
 90
7
 70
0
 10
5.9395767827
 20
1.7517228606
 10
6.0385384338
 20
1.6394875182
 10
6.1492989443
 20
1.5030972455
 10
6.2513892511
 20
1.3655998512
 10
6.3307508566
 20
1.2455291451
 10
6.3845178301
 20
1.1475569892
 10
6.4163759596
 20
1.0646252291
  0
LWPOLYLINE
  5
271
100
AcDbEntity
  8
0
100
AcDbPolyline
 62
7
  6
CONTINUOUS
 90
7
 70
0
 10
2.1915334654
 20
6.132151868
 10
2.0925718144
 20
6.2443872105
 10
1.9818113039
 20
6.3807774832
 10
1.879720997
 20
6.5182748774
 10
1.8003593916
 20
6.6383455836
 10
1.746592418
 20
6.7363177395
 10
1.7147342886
 20
6.8192494995
  0
LWPOLYLINE
  5
272
100
AcDbEntity
  8
0
100
AcDbPolyline
 62
7
  6
CONTINUOUS
 90
4
 70
0
 10
4.4801711662
 20
3.3781967978
 10
4.3751414272
 20
3.5020642935
 10
4.2520569977
 20
3.6394624231
 10
4.1112021254
 20
3.790185784
  0
LINE
  5
273
100
AcDbEntity
  8
0
100
AcDbLine
 62
7
  6
CONTINUOUS
 10
4.6019426891
 20
3.2193344762
 11
4.4851170691
 21
3.3717444056
  0
LWPOLYLINE
  5
274
100
AcDbEntity
  8
0
100
AcDbPolyline
 62
7
  6
CONTINUOUS
 90
4
 70
0
 10
3.4217005962
 20
4.8480277188
 10
3.437473298
 20
4.8124693269
 10
3.460247358
 20
4.7699359595
 10
3.4901025051
 20
4.7212557421
  0
LINE
  5
275
100
AcDbEntity
  8
0
100
AcDbLine
 62
7
  6
CONTINUOUS
 10
3.4217005962
 20
4.8480277188
 11
3.2861270265
 21
5.1946860944
  0
LINE
  5
276
100
AcDbEntity
  8
0
100
AcDbLine
 62
7
  6
CONTINUOUS
 10
4.3910551241
 20
5.1420261043
 11
4.3910551241
 21
4.8435451462
  0
LINE
  5
277
100
AcDbEntity
  8
0
100
AcDbLine
 62
7
  6
CONTINUOUS
 10
4.8449856653
 20
5.1946874522
 11
4.7094788932
 21
4.8481852589
  0
LINE
  5
278
100
AcDbEntity
  8
0
100
AcDbLine
 62
7
  6
CONTINUOUS
 10
4.9811413339
 20
5.2694657013
 11
4.8585551241
 21
4.9560185988
  0
LWPOLYLINE
  5
279
100
AcDbEntity
  8
0
100
AcDbPolyline
 62
7
  6
CONTINUOUS
 90
5
 70
0
 10
4.7094788932
 20
4.8481852589
 10
4.6984351896
 20
4.8225021308
 10
4.683521186
 20
4.7927337026
 10
4.6644440203
 20
4.7589624563
 10
4.641007743
 20
4.7212557421
  0
LWPOLYLINE
  5
27A
100
AcDbEntity
  8
0
100
AcDbPolyline
 62
7
  6
CONTINUOUS
 90
4
 70
0
 10
3.650939082
 20
3.3781967978
 10
3.7559732056
 20
3.5020693147
 10
3.8790549091
 20
3.6394642335
 10
4.0199081227
 20
3.790185784
  0
LWPOLYLINE
  5
27B
100
AcDbEntity
  8
0
100
AcDbPolyline
 62
7
  6
CONTINUOUS
 90
13
 70
0
 10
6.2521560469
 20
5.8123446456
 10
6.1472946853
 20
5.6963651046
 10
6.032421696
 20
5.5639119895
 10
5.9085958743
 20
5.4139690839
 10
5.7774045863
 20
5.2453157229
 10
5.6431813808
 20
5.0591166615
 10
5.5222642027
 20
4.8743574524
 10
5.4262264202
 20
4.7093921884
 10
5.3544649746
 20
4.5673861853
 10
5.3023974128
 20
4.4317431817
 10
5.267720919
 20
4.2848608843
 10
5.248062686
 20
4.1209704671
 10
5.2405551241
 20
3.9419373643
  0
LWPOLYLINE
  5
27C
100
AcDbEntity
  8
0
100
AcDbPolyline
 62
7
  6
CONTINUOUS
 90
14
 70
0
 10
6.2557696278
 20
5.815959023
 10
6.299792492
 20
5.855782466
 10
6.3444224522
 20
5.8947892679
 10
6.3898502276
 20
5.9332966058
 10
6.436522789
 20
5.9717269436
 10
6.485569726
 20
6.0109428712
 10
6.5386274232
 20
6.0520305772
 10
6.5974000309
 20
6.0958627341
 10
6.6609578496
 20
6.1410763555
 10
6.7242585535
 20
6.1834444104
 10
6.7826123316
 20
6.2195129127
 10
6.836075986
 20
6.2491091173
 10
6.8882518974
 20
6.2735010999
 10
6.9428672592
 20
6.2927581998
  0
LWPOLYLINE
  5
27D
100
AcDbEntity
  8
0
100
AcDbPolyline
 62
7
  6
CONTINUOUS
 90
13
 70
0
 10
2.1951478428
 20
1.7553364415
 10
2.3114075049
 20
1.8604461906
 10
2.4442233704
 20
1.9756158017
 10
2.5946454022
 20
2.0997980627
 10
2.7638712959
 20
2.2313610485
 10
2.9504425539
 20
2.3657342538
 10
3.1349926924
 20
2.4863759549
 10
3.2995198762
 20
2.582037916
 10
3.4412095017
 20
2.6535299849
 10
3.5767103823
 20
2.7053910742
 10
3.7234265555
 20
2.7399082159
 10
3.8870124554
 20
2.759466992
 10
4.0655551241
 20
2.7669373643
  0
LWPOLYLINE
  5
27E
100
AcDbEntity
  8
0
100
AcDbPolyline
 62
7
  6
CONTINUOUS
 90
4
 70
0
 10
4.6292956906
 20
4.3565534064
 10
4.5054333627
 20
4.2515281802
 10
4.3680319779
 20
4.1284409903
 10
4.2173067044
 20
3.9875843657
  0
LWPOLYLINE
  5
27F
100
AcDbEntity
  8
0
100
AcDbPolyline
 62
7
  6
CONTINUOUS
 90
4
 70
0
 10
4.6292956906
 20
3.5273213222
 10
4.5054281949
 20
3.6323510611
 10
4.3680300653
 20
3.7554354907
 10
4.2173067044
 20
3.896290363
  0
LWPOLYLINE
  5
280
100
AcDbEntity
  8
0
100
AcDbPolyline
 62
7
  6
CONTINUOUS
 90
4
 70
0
 10
2.1951478428
 20
6.1285382871
 10
2.2964165627
 20
6.036753929
 10
2.4109553853
 20
5.9366214352
 10
2.5398971507
 20
5.828500959
  0
LWPOLYLINE
  5
281
100
AcDbEntity
  8
0
100
AcDbPolyline
 62
7
  6
CONTINUOUS
 90
14
 70
0
 10
2.1915334654
 20
6.132151868
 10
2.1517100223
 20
6.1761747322
 10
2.1127032204
 20
6.2208046924
 10
2.0741958826
 20
6.2662324679
 10
2.0357655448
 20
6.3129050292
 10
1.9965496171
 20
6.3619519662
 10
1.9554619112
 20
6.4150096635
 10
1.9116297543
 20
6.4737822712
 10
1.8664161329
 20
6.5373400899
 10
1.824048078
 20
6.6006407938
 10
1.7879795757
 20
6.6589945718
 10
1.7583833711
 20
6.7124582263
 10
1.7339913885
 20
6.7646341377
 10
1.7147342886
 20
6.8192494995
  0
LWPOLYLINE
  5
282
100
AcDbEntity
  8
0
100
AcDbPolyline
 62
7
  6
CONTINUOUS
 90
13
 70
0
 10
6.2521560469
 20
2.0715300831
 10
6.1471712864
 20
2.187648785
 10
6.0321509193
 20
2.3202821189
 10
5.9081480472
 20
2.4704629789
 10
5.7767720903
 20
2.6394006917
 10
5.6424734915
 20
2.8257858043
 10
5.5216926681
 20
3.0104420925
 10
5.4258420435
 20
3.1751892557
 10
5.3542147968
 20
3.317037507
 10
5.3022500269
 20
3.4526096848
 10
5.2676528731
 20
3.5994093616
 10
5.2480441661
 20
3.7631483128
 10
5.2405551241
 20
3.9419373643
  0
LWPOLYLINE
  5
283
100
AcDbEntity
  8
0
100
AcDbPolyline
 62
7
  6
CONTINUOUS
 90
5
 70
0
 10
3.650939082
 20
4.5056779308
 10
3.7280214376
 20
4.414037931
 10
3.8152505077
 20
4.3148137134
 10
3.9125626839
 20
4.2080261453
 10
4.0199081227
 20
4.0936889447
  0
LINE
  5
284
100
AcDbEntity
  8
0
100
AcDbLine
 62
7
  6
CONTINUOUS
 10
4.4910551241
 20
4.8019343009
 11
4.4910551241
 21
5.1702810265
  0
LWPOLYLINE
  5
285
100
AcDbEntity
  8
0
100
AcDbPolyline
 62
7
  6
CONTINUOUS
 90
16
 70
0
 10
4.8585551241
 20
4.9560185988
 10
4.8488947372
 20
4.9122820389
 10
4.8549771686
 20
4.8785015296
 10
4.8760267325
 20
4.8468506669
 10
4.9076007061
 20
4.8191173241
 10
4.9504415465
 20
4.7957744087
 10
4.9997300605
 20
4.7855821511
 10
5.0527619668
 20
4.791027546
 10
5.1082440991
 20
4.81206516
 10
5.1609923683
 20
4.8461332375
 10
5.2177413629
 20
4.8978724685
 10
5.2704151592
 20
4.9582744666
 10
5.3243908543
 20
5.0295703262
 10
5.3819299833
 20
5.1119365989
 10
5.4403246587
 20
5.1979405738
 10
5.5085551241
 20
5.2969373643
  0
LWPOLYLINE
  5
286
100
AcDbEntity
  8
0
100
AcDbPolyline
 62
7
  6
CONTINUOUS
 90
11
 70
0
 10
5.5085551241
 20
5.2969373643
 10
5.5297057144
 20
5.3389260207
 10
5.535485086
 20
5.3803225421
 10
5.5255755562
 20
5.4243626154
 10
5.504034024
 20
5.4582309645
 10
5.4743065977
 20
5.4809584989
 10
5.4419387451
 20
5.4899869409
 10
5.4062528352
 20
5.489654084
 10
5.3671396975
 20
5.4823282641
 10
5.327608529
 20
5.4706102218
 10
5.2755551241
 20
5.4513471482
  0
LWPOLYLINE
  5
287
100
AcDbEntity
  8
0
100
AcDbPolyline
 62
7
  6
CONTINUOUS
 90
15
 70
0
 10
5.0655551241
 20
3.9419373643
 10
5.0722451755
 20
3.7587547028
 10
5.0868197416
 20
3.6101092856
 10
5.1010377041
 20
3.5024671273
 10
5.1103026382
 20
3.4264637574
 10
5.1129655511
 20
3.3728566128
 10
5.1087747683
 20
3.3355835704
 10
5.0989089861
 20
3.310563361
 10
5.0847469479
 20
3.29445731
 10
5.0659938229
 20
3.2849695593
 10
5.0401614413
 20
3.2818461839
 10
5.004034561
 20
3.2873887519
 10
4.954660477
 20
3.3051767157
 10
4.8879769473
 20
3.3398669294
 10
4.7966223402
 20
3.3990617026
  0
LWPOLYLINE
  5
288
100
AcDbEntity
  8
0
100
AcDbPolyline
 62
7
  6
CONTINUOUS
 90
15
 70
0
 10
5.0655551241
 20
3.9419373643
 10
5.0722617377
 20
4.1253517386
 10
5.0868402824
 20
4.2739335635
 10
5.1010480543
 20
4.3814840726
 10
5.1103059371
 20
4.4574453575
 10
5.1129652171
 20
4.5110363721
 10
5.1087714891
 20
4.5483047882
 10
5.0989014355
 20
4.5733238511
 10
5.0847330493
 20
4.58942816
 10
5.0659707298
 20
4.5989120687
 10
5.0401262777
 20
4.6020277642
 10
5.0039876777
 20
4.5964737459
 10
4.9546038178
 20
4.5786729225
 10
4.8879441658
 20
4.5439886164
 10
4.7966223402
 20
4.484813026
  0
LINE
  5
289
100
AcDbEntity
  8
0
100
AcDbLine
 62
7
  6
CONTINUOUS
 10
3.722479528
 20
4.6805451462
 11
4.4086307202
 21
4.6805451462
  0
LINE
  5
28A
100
AcDbEntity
  8
0
100
AcDbLine
 62
7
  6
CONTINUOUS
 10
4.3280551241
 20
4.7805451462
 11
3.8030551241
 21
4.7805451462
  0
LINE
  5
28B
100
AcDbEntity
  8
0
100
AcDbLine
 62
7
  6
CONTINUOUS
 10
3.0754783492
 20
5.341697473
 11
2.8555551241
 21
5.4513471482
  0
LINE
  5
28C
100
AcDbEntity
  8
0
100
AcDbLine
 62
7
  6
CONTINUOUS
 10
4.4594341294
 20
4.6548012009
 11
4.4944399196
 21
4.6070663159
  0
LINE
  5
28D
100
AcDbEntity
  8
0
100
AcDbLine
 62
7
  6
CONTINUOUS
 10
4.537314494
 20
4.7182292777
 11
4.5032517148
 21
4.7646782462
  0
LWPOLYLINE
  5
28E
100
AcDbEntity
  8
0
100
AcDbPolyline
 62
7
  6
CONTINUOUS
 90
14
 70
0
 10
6.4163759596
 20
6.8192494995
 10
6.3970034841
 20
6.76435689
 10
6.3726715905
 20
6.7123508033
 10
6.3434218649
 20
6.6594898603
 10
6.3079950269
 20
6.6020883832
 10
6.2663875264
 20
6.5397910658
 10
6.221684668
 20
6.4768052455
 10
6.1778722771
 20
6.4179344467
 10
6.1364099136
 20
6.3643019262
 10
6.0966614003
 20
6.3145280913
 10
6.057744693
 20
6.2672267316
 10
6.0189090707
 20
6.2213883258
 10
5.9796690488
 20
6.1764773617
 10
5.9395767827
 20
6.132151868
  0
LWPOLYLINE
  5
28F
100
AcDbEntity
  8
0
100
AcDbPolyline
 62
7
  6
CONTINUOUS
 90
7
 70
0
 10
6.4163759596
 20
6.8192494995
 10
6.3845178301
 20
6.7363177395
 10
6.3307508566
 20
6.6383455836
 10
6.2513892511
 20
6.5182748774
 10
6.1492989443
 20
6.3807774832
 10
6.0385384338
 20
6.2443872105
 10
5.9395767827
 20
6.132151868
  0
LWPOLYLINE
  5
290
100
AcDbEntity
  8
0
100
AcDbPolyline
 62
7
  6
CONTINUOUS
 90
11
 70
0
 10
4.9562349751
 20
3.0512575133
 10
4.9314643218
 20
3.0163757786
 10
4.9207695855
 20
2.9838114815
 10
4.9206935586
 20
2.9500079179
 10
4.9319277499
 20
2.9120745023
 10
4.9563846116
 20
2.8691148261
 10
4.9969222989
 20
2.8201817333
 10
5.0575628965
 20
2.7634047011
 10
5.1434337932
 20
2.6954152407
 10
5.2610282365
 20
2.6108307713
 10
5.4191382785
 20
2.5006142448
  0
LWPOLYLINE
  5
291
100
AcDbEntity
  8
0
100
AcDbPolyline
 62
7
  6
CONTINUOUS
 90
11
 70
0
 10
4.9562349751
 20
3.0512575133
 10
4.9911167098
 20
3.0760281666
 10
5.0236810069
 20
3.0867229029
 10
5.0574845705
 20
3.0867989298
 10
5.0954179861
 20
3.0755647385
 10
5.1383776623
 20
3.0511078768
 10
5.187310755
 20
3.0105701895
 10
5.2440877873
 20
2.9499295919
 10
5.3120772476
 20
2.8640586952
 10
5.3966617171
 20
2.7464642519
 10
5.5068782436
 20
2.5883542099
  0
LWPOLYLINE
  5
292
100
AcDbEntity
  8
0
100
AcDbPolyline
 62
7
  6
CONTINUOUS
 90
14
 70
0
 10
1.1882429889
 20
6.2927581998
 10
1.2431355984
 20
6.2733857244
 10
1.2951416851
 20
6.2490538307
 10
1.3480026281
 20
6.2198041052
 10
1.4054041052
 20
6.1843772672
 10
1.4677014226
 20
6.1427697667
 10
1.5306872429
 20
6.0980669082
 10
1.5895580417
 20
6.0542545173
 10
1.6431905621
 20
6.0127921539
 10
1.6929643971
 20
5.9730436405
 10
1.7402657568
 20
5.9341269333
 10
1.7861041625
 20
5.895291311
 10
1.8310151267
 20
5.8560512891
 10
1.8753406203
 20
5.815959023
  0
LWPOLYLINE
  5
293
100
AcDbEntity
  8
0
100
AcDbPolyline
 62
7
  6
CONTINUOUS
 90
7
 70
0
 10
1.1882429889
 20
6.2927581998
 10
1.2711747489
 20
6.2609000703
 10
1.3691469048
 20
6.2071330968
 10
1.489217611
 20
6.1277714913
 10
1.6267150052
 20
6.0256811845
 10
1.7631052779
 20
5.914920674
 10
1.8753406203
 20
5.815959023
  0
LWPOLYLINE
  5
294
100
AcDbEntity
  8
0
100
AcDbPolyline
 62
7
  6
CONTINUOUS
 90
19
 70
0
 10
6.9052615835
 20
6.966393476
 10
6.9418856766
 20
7.0633691114
 10
6.9602014199
 20
7.1001929138
 10
6.980810921
 20
7.1270792194
 10
7.0037303352
 20
7.1445375501
 10
7.0322260756
 20
7.1556325521
 10
7.0681423231
 20
7.163042717
 10
7.1070538436
 20
7.1696334564
 10
7.1411878521
 20
7.1788164713
 10
7.1670639094
 20
7.1922934237
 10
7.1869755502
 20
7.2119242332
 10
7.2049762147
 20
7.2389877071
 10
7.2242561089
 20
7.2713044857
 10
7.246798917
 20
7.3009178631
 10
7.274912251
 20
7.3229325859
 10
7.3116184441
 20
7.3387916706
 10
7.3525614557
 20
7.3477115263
 10
7.3887136639
 20
7.3501265103
 10
7.4173816311
 20
7.3484286278
  0
LWPOLYLINE
  5
295
100
AcDbEntity
  8
0
100
AcDbPolyline
 62
7
  6
CONTINUOUS
 90
4
 70
0
 10
7.032454888
 20
5.9609234714
 10
7.0305111029
 20
6.0657342069
 10
7.0274200237
 20
6.158010954
 10
7.0229924485
 20
6.2366514665
  0
LINE
  5
296
100
AcDbEntity
  8
0
100
AcDbLine
 62
7
  6
CONTINUOUS
 10
7.035963204
 20
5.5987275296
 11
7.032454888
 21
5.9609234714
  0
LINE
  5
297
100
AcDbEntity
  8
0
100
AcDbLine
 62
7
  6
CONTINUOUS
 10
7.0378883495
 20
5.3260980945
 11
7.035963204
 21
5.5987275296
  0
LINE
  5
298
100
AcDbEntity
  8
0
100
AcDbLine
 62
7
  6
CONTINUOUS
 10
7.0392801408
 20
5.0235188105
 11
7.0378883495
 21
5.3260980945
  0
LINE
  5
299
100
AcDbEntity
  8
0
100
AcDbLine
 62
7
  6
CONTINUOUS
 10
7.0399659293
 20
4.6741230052
 11
7.0392801408
 21
5.0235188105
  0
LINE
  5
29A
100
AcDbEntity
  8
0
100
AcDbLine
 62
7
  6
CONTINUOUS
 10
7.032921895
 20
6.6613041353
 11
7.032921895
 21
6.5993041353
  0
LINE
  5
29B
100
AcDbEntity
  8
0
100
AcDbLine
 62
7
  6
CONTINUOUS
 10
7.032921895
 20
0.5985705934
 11
7.032921895
 21
0.5365705934
  0
LINE
  5
29C
100
AcDbEntity
  8
0
100
AcDbLine
 62
7
  6
CONTINUOUS
 10
7.032921895
 20
1.2225705934
 11
7.032921895
 21
1.2845705934
  0
LINE
  5
29D
100
AcDbEntity
  8
0
100
AcDbLine
 62
7
  6
CONTINUOUS
 10
7.032921895
 20
7.2853041353
 11
7.032921895
 21
7.3473041353
  0
LINE
  5
29E
100
AcDbEntity
  8
0
100
AcDbLine
 62
7
  6
CONTINUOUS
 10
7.0399659293
 20
4.6741230052
 11
7.0399659412
 21
3.2097663329
  0
LINE
  5
29F
100
AcDbEntity
  8
0
100
AcDbLine
 62
7
  6
CONTINUOUS
 10
7.0400385987
 20
3.4152501747
 11
7.0397169008
 21
3.0272325565
  0
LINE
  5
2A0
100
AcDbEntity
  8
0
100
AcDbLine
 62
7
  6
CONTINUOUS
 10
7.0397169008
 20
3.0272325565
 11
7.0386635401
 21
2.7045985632
  0
LINE
  5
2A1
100
AcDbEntity
  8
0
100
AcDbLine
 62
7
  6
CONTINUOUS
 10
7.0386635401
 20
2.7045985632
 11
7.0369776933
 21
2.4180194458
  0
LINE
  5
2A2
100
AcDbEntity
  8
0
100
AcDbLine
 62
7
  6
CONTINUOUS
 10
7.0369776933
 20
2.4180194458
 11
7.0348682413
 21
2.1582299024
  0
LWPOLYLINE
  5
2A3
100
AcDbEntity
  8
0
100
AcDbPolyline
 62
7
  6
CONTINUOUS
 90
5
 70
0
 10
7.0348682413
 20
2.1582299024
 10
7.0324536138
 20
1.9228573737
 10
7.0305095049
 20
1.8180764945
 10
7.0274186499
 20
1.7258324044
 10
7.0229924485
 20
1.6472232621
  0
LWPOLYLINE
  5
2A4
100
AcDbEntity
  8
0
100
AcDbPolyline
 62
7
  6
CONTINUOUS
 90
4
 70
0
 10
2.0395109254
 20
6.9087395809
 10
1.9365306597
 20
6.906760792
 10
1.8466947381
 20
6.9036791929
 10
1.7708410218
 20
6.8993746887
  0
LINE
  5
2A5
100
AcDbEntity
  8
0
100
AcDbLine
 62
7
  6
CONTINUOUS
 10
2.2737856712
 20
6.9111770048
 11
2.0395109254
 21
6.9087395809
  0
LINE
  5
2A6
100
AcDbEntity
  8
0
100
AcDbLine
 62
7
  6
CONTINUOUS
 10
2.6816631077
 20
6.9142721803
 11
2.2737856712
 21
6.9111770048
  0
LINE
  5
2A7
100
AcDbEntity
  8
0
100
AcDbLine
 62
7
  6
CONTINUOUS
 10
2.9987435874
 20
6.9157100816
 11
2.6816631077
 21
6.9142721803
  0
LINE
  5
2A8
100
AcDbEntity
  8
0
100
AcDbLine
 62
7
  6
CONTINUOUS
 10
3.3728676121
 20
6.9163762797
 11
2.9987435874
 21
6.9157100816
  0
LINE
  5
2A9
100
AcDbEntity
  8
0
100
AcDbLine
 62
7
  6
CONTINUOUS
 10
6.784921895
 20
6.9093041353
 11
6.722921895
 21
6.9093041353
  0
LINE
  5
2AA
100
AcDbEntity
  8
0
100
AcDbLine
 62
7
  6
CONTINUOUS
 10
0.7221883531
 20
6.9093041353
 11
0.6601883531
 21
6.9093041353
  0
LINE
  5
2AB
100
AcDbEntity
  8
0
100
AcDbLine
 62
7
  6
CONTINUOUS
 10
1.3461883531
 20
6.9093041353
 11
1.4081883531
 21
6.9093041353
  0
LINE
  5
2AC
100
AcDbEntity
  8
0
100
AcDbLine
 62
7
  6
CONTINUOUS
 10
7.408921895
 20
6.9093041353
 11
7.470921895
 21
6.9093041353
  0
LINE
  5
2AD
100
AcDbEntity
  8
0
100
AcDbLine
 62
7
  6
CONTINUOUS
 10
3.3728676121
 20
6.9163762797
 11
4.7863914393
 21
6.9163570659
  0
LINE
  5
2AE
100
AcDbEntity
  8
0
100
AcDbLine
 62
7
  6
CONTINUOUS
 10
4.5678978078
 20
6.916419643
 11
4.9775708033
 21
6.9161044235
  0
LINE
  5
2AF
100
AcDbEntity
  8
0
100
AcDbLine
 62
7
  6
CONTINUOUS
 10
4.9775708033
 20
6.9161044235
 11
5.3113458394
 21
6.915006283
  0
LINE
  5
2B0
100
AcDbEntity
  8
0
100
AcDbLine
 62
7
  6
CONTINUOUS
 10
5.3113458394
 20
6.915006283
 11
5.6037117409
 21
6.9132579866
  0
LINE
  5
2B1
100
AcDbEntity
  8
0
100
AcDbLine
 62
7
  6
CONTINUOUS
 10
5.6037117409
 20
6.9132579866
 11
5.8640871022
 21
6.9111150218
  0
LWPOLYLINE
  5
2B2
100
AcDbEntity
  8
0
100
AcDbPolyline
 62
7
  6
CONTINUOUS
 90
5
 70
0
 10
5.8640871022
 20
6.9111150218
 10
6.0956391454
 20
6.9086820952
 10
6.1968424705
 20
6.9067020906
 10
6.28526974
 20
6.9036410478
 10
6.3602692263
 20
6.8993746887
  0
LINE
  5
2B3
100
AcDbEntity
  8
0
100
AcDbLine
 62
7
  6
CONTINUOUS
 10
7.2091385522
 20
4.61566002
 11
7.219921895
 21
3.9419373643
  0
LINE
  5
2B4
100
AcDbEntity
  8
0
100
AcDbLine
 62
7
  6
CONTINUOUS
 10
7.1960485393
 20
5.5343444918
 11
7.2091385522
 21
4.61566002
  0
LINE
  5
2B5
100
AcDbEntity
  8
0
100
AcDbLine
 62
7
  6
CONTINUOUS
 10
7.160921895
 20
7.3473041353
 11
7.160921895
 21
7.2853041353
  0
LINE
  5
2B6
100
AcDbEntity
  8
0
100
AcDbLine
 62
7
  6
CONTINUOUS
 10
7.160921895
 20
1.2845705934
 11
7.160921895
 21
1.2225705934
  0
LINE
  5
2B7
100
AcDbEntity
  8
0
100
AcDbLine
 62
7
  6
CONTINUOUS
 10
7.160921895
 20
0.5365705934
 11
7.160921895
 21
0.5985705934
  0
LINE
  5
2B8
100
AcDbEntity
  8
0
100
AcDbLine
 62
7
  6
CONTINUOUS
 10
7.160921895
 20
6.5993041353
 11
7.160921895
 21
6.6613041353
  0
LINE
  5
2B9
100
AcDbEntity
  8
0
100
AcDbLine
 62
7
  6
CONTINUOUS
 10
7.1895100957
 20
1.870210898
 11
7.2048806052
 21
2.9814989716
  0
LWPOLYLINE
  5
2BA
100
AcDbEntity
  8
0
100
AcDbPolyline
 62
7
  6
CONTINUOUS
 90
3
 70
0
 10
7.2048806052
 20
2.9814989716
 10
7.2143898933
 20
3.6045840385
 10
7.219921895
 20
3.9419373643
  0
LINE
  5
2BB
100
AcDbEntity
  8
0
100
AcDbLine
 62
7
  6
CONTINUOUS
 10
3.3225598844
 20
7.0844738377
 11
4.0655551241
 21
7.0963041353
  0
LINE
  5
2BC
100
AcDbEntity
  8
0
100
AcDbLine
 62
7
  6
CONTINUOUS
 10
7.470921895
 20
7.0373041353
 11
7.408921895
 21
7.0373041353
  0
LINE
  5
2BD
100
AcDbEntity
  8
0
100
AcDbLine
 62
7
  6
CONTINUOUS
 10
1.4081883531
 20
7.0373041353
 11
1.3461883531
 21
7.0373041353
  0
LINE
  5
2BE
100
AcDbEntity
  8
0
100
AcDbLine
 62
7
  6
CONTINUOUS
 10
0.6601883531
 20
7.0373041353
 11
0.7221883531
 21
7.0373041353
  0
LINE
  5
2BF
100
AcDbEntity
  8
0
100
AcDbLine
 62
7
  6
CONTINUOUS
 10
6.722921895
 20
7.0373041353
 11
6.784921895
 21
7.0373041353
  0
LINE
  5
2C0
100
AcDbEntity
  8
0
100
AcDbLine
 62
7
  6
CONTINUOUS
 10
6.1604730738
 20
7.0656861992
 11
4.8568148838
 21
7.0837513502
  0
LWPOLYLINE
  5
2C1
100
AcDbEntity
  8
0
100
AcDbPolyline
 62
7
  6
CONTINUOUS
 90
3
 70
0
 10
4.8568148838
 20
7.0837513502
 10
4.3263329081
 20
7.0920055132
 10
4.0655551241
 20
7.0963041353
  0
LWPOLYLINE
  5
2C2
100
AcDbEntity
  8
0
100
AcDbPolyline
 62
7
  6
CONTINUOUS
 90
31
 70
0
 10
6.5297364701
 20
1.4777560183
 10
6.5157650509
 20
1.4582565656
 10
6.5100537184
 20
1.43524272
 10
6.5129264465
 20
1.4064290378
 10
6.5261831723
 20
1.3712037608
 10
6.5508359093
 20
1.3299017258
 10
6.5863287147
 20
1.283832208
 10
6.6297482499
 20
1.2356911132
 10
6.6777666411
 20
1.1876344082
 10
6.7292607641
 20
1.1389427606
 10
6.7828195844
 20
1.0874987292
 10
6.8352383657
 20
1.0305041638
 10
6.876261648
 20
0.9736175362
 10
6.9054975248
 20
0.9169232247
 10
6.9263021236
 20
0.8615275523
 10
6.945161918
 20
0.812906965
 10
6.9660461935
 20
0.7746849394
 10
6.9901207199
 20
0.7484304325
 10
7.0186030324
 20
0.7325970271
 10
7.055633383
 20
0.7230097244
 10
7.0992146355
 20
0.715711543
 10
7.1386571474
 20
0.7059746215
 10
7.1684657515
 20
0.6905449918
 10
7.1908854574
 20
0.6667590072
 10
7.2113575406
 20
0.6340128811
 10
7.2345587919
 20
0.5975441472
 10
7.2628411718
 20
0.5688295072
 10
7.3010653487
 20
0.5486934289
 10
7.3453487394
 20
0.537224929
 10
7.3855220273
 20
0.5337676242
 10
7.4173816311
 20
0.5354461008
  0
LWPOLYLINE
  5
2C3
100
AcDbEntity
  8
0
100
AcDbPolyline
 62
7
  6
CONTINUOUS
 90
31
 70
0
 10
6.5297364701
 20
1.4777560183
 10
6.5492359228
 20
1.4917274375
 10
6.5722497684
 20
1.49743877
 10
6.6010634506
 20
1.4945660419
 10
6.6362887276
 20
1.4813093161
 10
6.6775907626
 20
1.4566565791
 10
6.7236602804
 20
1.4211637737
 10
6.7718013752
 20
1.3777442385
 10
6.8198580802
 20
1.3297258473
 10
6.8685497277
 20
1.2782317243
 10
6.9199937592
 20
1.224672904
 10
6.9769883246
 20
1.1722541227
 10
7.0338749522
 20
1.1312308404
 10
7.0905692637
 20
1.1019949636
 10
7.1459649361
 20
1.0811903648
 10
7.1945855234
 20
1.0623305704
 10
7.232807549
 20
1.0414462949
 10
7.2590620559
 20
1.0173717685
 10
7.2748954613
 20
0.988889456
 10
7.284482764
 20
0.9518591054
 10
7.2917809454
 20
0.9082778529
 10
7.3015178669
 20
0.868835341
 10
7.3169474966
 20
0.8390267369
 10
7.3407334812
 20
0.816607031
 10
7.3734796073
 20
0.7961349478
 10
7.4099483412
 20
0.7729336965
 10
7.4386629812
 20
0.7446513166
 10
7.4587990595
 20
0.7064271397
 10
7.4702675594
 20
0.6621437489
 10
7.4737248642
 20
0.6219704611
 10
7.4720463876
 20
0.5901108572
  0
LWPOLYLINE
  5
2C4
100
AcDbEntity
  8
0
100
AcDbPolyline
 62
7
  6
CONTINUOUS
 90
31
 70
0
 10
6.5297364701
 20
6.4061187103
 10
6.5492431574
 20
6.3921439587
 10
6.5722671206
 20
6.3864347961
 10
6.6010913939
 20
6.3893154987
 10
6.6363241571
 20
6.4025828528
 10
6.6776281309
 20
6.4272439111
 10
6.7236923311
 20
6.4627379591
 10
6.7718210011
 20
6.5061492337
 10
6.8198601767
 20
6.5541510563
 10
6.8685291192
 20
6.6056210535
 10
6.9199411076
 20
6.6591491768
 10
6.9769049877
 20
6.7115517022
 10
7.0337731915
 20
6.7525812763
 10
7.0904510134
 20
6.7818298425
 10
7.1458458299
 20
6.8026417438
 10
7.1944832324
 20
6.8214987669
 10
7.23273328
 20
6.8423767957
 10
7.2590192719
 20
6.8664492735
 10
7.274873445
 20
6.8949261881
 10
7.2844704432
 20
6.9319492426
 10
7.2917693013
 20
6.9755318296
 10
7.3015015479
 20
7.0149930065
 10
7.3169283291
 20
7.0448225957
 10
7.3407132455
 20
7.0672530693
 10
7.3734603885
 20
7.0877285702
 10
7.4099360357
 20
7.1109318419
 10
7.4386603353
 20
7.1392198073
 10
7.4588015549
 20
7.1774542773
 10
7.4702684566
 20
7.221736548
 10
7.4737248699
 20
7.2619047373
 10
7.4720463876
 20
7.2937638714
  0
LWPOLYLINE
  5
2C5
100
AcDbEntity
  8
0
100
AcDbPolyline
 62
7
  6
CONTINUOUS
 90
15
 70
0
 10
6.5297364701
 20
6.4061187103
 10
6.517029005
 20
6.4230360165
 10
6.510741125
 20
6.4424194605
 10
6.5107928872
 20
6.4664093115
 10
6.5188039536
 20
6.495937076
 10
6.536203154
 20
6.5311477874
 10
6.5635371051
 20
6.5715514263
 10
6.5998711702
 20
6.6157265814
 10
6.6423349916
 20
6.6611872366
 10
6.6890268399
 20
6.7070275568
 10
6.7390990678
 20
6.7541839678
 10
6.7914256997
 20
6.8050720213
 10
6.8403826095
 20
6.8596807321
 10
6.8781628224
 20
6.9133770076
 10
6.9052615835
 20
6.966393476
  0
LWPOLYLINE
  5
2C6
100
AcDbEntity
  8
0
100
AcDbPolyline
 62
7
  6
CONTINUOUS
 90
16
 70
0
 10
7.6085603022
 20
0.8067982847
 10
7.6179610906
 20
0.8695247333
 10
7.6167658601
 20
0.9193249308
 10
7.6053249591
 20
0.9590746285
 10
7.582381255
 20
0.9931709848
 10
7.5441946002
 20
1.024637994
 10
7.489607794
 20
1.0569065307
 10
7.4235202524
 20
1.0933594073
 10
7.3569354664
 20
1.1388307027
 10
7.3020629809
 20
1.1993222753
 10
7.2608900594
 20
1.2767076418
 10
7.230794333
 20
1.3719145393
 10
7.2096472791
 20
1.4818332974
 10
7.1961313809
 20
1.6015458446
 10
7.1899288676
 20
1.7310953731
 10
7.1895100957
 20
1.870210898
  0
LWPOLYLINE
  5
2C7
100
AcDbEntity
  8
0
100
AcDbPolyline
 62
7
  6
CONTINUOUS
 90
3
 70
0
 10
7.5481406596
 20
0.5164864676
 10
7.5664750535
 20
0.6320138176
 10
7.6085603022
 20
0.8067982847
  0
LWPOLYLINE
  5
2C8
100
AcDbEntity
  8
0
100
AcDbPolyline
 62
7
  6
CONTINUOUS
 90
19
 70
0
 10
0.9207658517
 20
7.482890348
 10
0.9820178399
 20
7.4933363032
 10
1.0310706243
 20
7.4944706694
 10
1.0695458658
 20
7.486908053
 10
1.1008830475
 20
7.4714590832
 10
1.1286880109
 20
7.4464099544
 10
1.1556369609
 20
7.409184657
 10
1.1846044159
 20
7.3584870894
 10
1.2184289977
 20
7.2974252361
 10
1.259144125
 20
7.237337968
 10
1.3078525224
 20
7.1895049638
 10
1.3665362981
 20
7.1526644125
 10
1.4409973748
 20
7.1224677459
 10
1.5307049079
 20
7.0993033498
 10
1.6311784884
 20
7.0823729466
 10
1.7411227447
 20
7.0713329069
 10
1.8608037977
 20
7.0661855313
 10
1.9904579746
 20
7.0658580538
 10
3.3225598844
 20
7.0844738377
  0
LWPOLYLINE
  5
2C9
100
AcDbEntity
  8
0
100
AcDbPolyline
 62
7
  6
CONTINUOUS
 90
3
 70
0
 10
0.6401042274
 20
7.4245228998
 10
0.7497399007
 20
7.441595261
 10
0.9207658517
 20
7.482890348
  0
LWPOLYLINE
  5
2CA
100
AcDbEntity
  8
0
100
AcDbPolyline
 62
7
  6
CONTINUOUS
 90
21
 70
0
 10
7.4910060207
 20
7.4245228998
 10
7.3826879699
 20
7.4413168499
 10
7.2893893692
 20
7.4635956727
 10
7.214638578
 20
7.4819432713
 10
7.1539364805
 20
7.4927896616
 10
7.1047878748
 20
7.4947917073
 10
7.0652428575
 20
7.4880856419
 10
7.0328260223
 20
7.4731740121
 10
7.0049220111
 20
7.4492188781
 10
6.9789369926
 20
7.4146325736
 10
6.9520266033
 20
7.3686244984
 10
6.9218149363
 20
7.3133108549
 10
6.8859015546
 20
7.2557265139
 10
6.8406225171
 20
7.2040839353
 10
6.7825887472
 20
7.1623661117
 10
6.7094105445
 20
7.1290583765
 10
6.620534379
 20
7.1036510283
 10
6.5195850931
 20
7.0851262018
 10
6.4093550819
 20
7.0727830159
 10
6.2896645957
 20
7.0666289119
 10
6.1604730738
 20
7.0656861992
  0
LINE
  5
2CB
100
AcDbEntity
  8
0
100
AcDbLine
 62
7
  6
CONTINUOUS
 10
7.5481406596
 20
7.367388261
 11
7.5664737015
 21
7.2518671548
  0
LWPOLYLINE
  5
2CC
100
AcDbEntity
  8
0
100
AcDbPolyline
 62
7
  6
CONTINUOUS
 90
18
 70
0
 10
7.5664737015
 20
7.2518671548
 10
7.6085556285
 20
7.0770990485
 10
7.6179599161
 20
7.0143658909
 10
7.6167667331
 20
6.9645558188
 10
7.6053225376
 20
6.9247948314
 10
7.582367208
 20
6.8906886479
 10
7.5441629188
 20
6.8592154273
 10
7.4895614064
 20
6.8269428749
 10
7.4234644659
 20
6.7904827509
 10
7.3568719383
 20
6.7449909466
 10
7.3019972652
 20
6.6844572171
 10
7.2608297422
 20
6.6070196547
 10
7.2307465159
 20
6.5117632899
 10
7.2096132798
 20
6.4018158346
 10
7.1961126235
 20
6.2820886273
 10
7.1899236511
 20
6.1525379187
 10
7.1895124457
 20
6.0134374095
 10
7.198591473
 20
5.3487671912
  0
ARC
  5
2CD
100
AcDbEntity
  8
0
100
AcDbCircle
 62
7
  6
CONTINUOUS
 10
1.0341883531
 20
0.5365705934
 40
0.064
100
AcDbArc
 50
180.0
 51
360.0
  0
ARC
  5
2CE
100
AcDbEntity
  8
0
100
AcDbCircle
 62
7
  6
CONTINUOUS
 10
1.0341883531
 20
0.5985705934
 40
0.064
100
AcDbArc
 50
0.0
 51
180.0
  0
ARC
  5
2CF
100
AcDbEntity
  8
0
100
AcDbCircle
 62
7
  6
CONTINUOUS
 10
1.4081883531
 20
0.9105705934
 40
0.064
100
AcDbArc
 50
270.0
 51
90.0
  0
ARC
  5
2D0
100
AcDbEntity
  8
0
100
AcDbCircle
 62
7
  6
CONTINUOUS
 10
1.3461883531
 20
0.9105705934
 40
0.064
100
AcDbArc
 50
90.0
 51
270.0
  0
ARC
  5
2D1
100
AcDbEntity
  8
0
100
AcDbCircle
 62
7
  6
CONTINUOUS
 10
0.7221883531
 20
0.9105705934
 40
0.064
100
AcDbArc
 50
270.0
 51
90.0
  0
ARC
  5
2D2
100
AcDbEntity
  8
0
100
AcDbCircle
 62
7
  6
CONTINUOUS
 10
0.6601883531
 20
0.9105705934
 40
0.064
100
AcDbArc
 50
90.0
 51
270.0
  0
ARC
  5
2D3
100
AcDbEntity
  8
0
100
AcDbCircle
 62
7
  6
CONTINUOUS
 10
1.0341883531
 20
1.2225705934
 40
0.064
100
AcDbArc
 50
180.0
 51
360.0
  0
ARC
  5
2D4
100
AcDbEntity
  8
0
100
AcDbCircle
 62
7
  6
CONTINUOUS
 10
1.0341883531
 20
1.2845705934
 40
0.064
100
AcDbArc
 50
0.0
 51
180.0
  0
ARC
  5
2D5
100
AcDbEntity
  8
0
100
AcDbCircle
 62
7
  6
CONTINUOUS
 10
0.6457188953
 20
0.5221011356
 40
0.063
100
AcDbArc
 50
185.1130819388
 51
264.8869180612
  0
ARC
  5
2D6
100
AcDbEntity
  8
0
100
AcDbCircle
 62
7
  6
CONTINUOUS
 10
2.2378468128
 20
1.709013683
 40
0.063
100
AcDbArc
 50
132.6689598598
 51
137.3184132038
  0
ARC
  5
2D7
100
AcDbEntity
  8
0
100
AcDbCircle
 62
7
  6
CONTINUOUS
 10
1.8326314427
 20
2.1142290531
 40
0.063
100
AcDbArc
 50
312.6815867962
 51
317.3310401402
  0
ARC
  5
2D8
100
AcDbEntity
  8
0
100
AcDbCircle
 62
7
  6
CONTINUOUS
 10
1.1709586042
 20
1.6516991175
 40
0.063
100
AcDbArc
 50
184.0740293172
 51
285.9235986896
  0
ARC
  5
2D9
100
AcDbEntity
  8
0
100
AcDbCircle
 62
7
  6
CONTINUOUS
 10
1.7753168772
 20
1.0473408445
 40
0.063
100
AcDbArc
 50
164.0764013104
 51
265.9259706828
  0
ARC
  5
2DA
100
AcDbEntity
  8
0
100
AcDbCircle
 62
7
  6
CONTINUOUS
 10
0.7215735198
 20
0.5979557601
 40
0.063
100
AcDbArc
 50
187.1531681638
 51
262.8468318362
  0
ARC
  5
2DB
100
AcDbEntity
  8
0
100
AcDbCircle
 62
7
  6
CONTINUOUS
 10
3.6250409054
 20
3.1391266121
 40
0.125
100
AcDbArc
 50
140.084069243
 51
144.9739865578
  0
ARC
  5
2DC
100
AcDbEntity
  8
0
100
AcDbCircle
 62
7
  6
CONTINUOUS
 10
3.7476213664
 20
3.2989658955
 40
0.125
100
AcDbArc
 50
140.665462851
 51
144.3925929498
  0
ARC
  5
2DD
100
AcDbEntity
  8
0
100
AcDbCircle
 62
7
  6
CONTINUOUS
 10
3.2627443719
 20
3.5014231457
 40
0.125
100
AcDbArc
 50
305.0260134422
 51
309.915930757
  0
ARC
  5
2DE
100
AcDbEntity
  8
0
100
AcDbCircle
 62
7
  6
CONTINUOUS
 10
3.4225836553
 20
3.6240036067
 40
0.125
100
AcDbArc
 50
305.6074070502
 51
309.334537149
  0
ARC
  5
2DF
100
AcDbEntity
  8
0
100
AcDbCircle
 62
7
  6
CONTINUOUS
 10
3.4225836553
 20
4.259871122
 40
0.125
100
AcDbArc
 50
50.665462851
 51
54.3925929498
  0
ARC
  5
2E0
100
AcDbEntity
  8
0
100
AcDbCircle
 62
7
  6
CONTINUOUS
 10
3.8703829119
 20
3.9419373643
 40
0.063
100
AcDbArc
 50
313.5681103503
 51
46.4318896497
  0
ARC
  5
2E1
100
AcDbEntity
  8
0
100
AcDbCircle
 62
7
  6
CONTINUOUS
 10
2.6758430872
 20
2.5522253275
 40
0.063
100
AcDbArc
 50
145.0071419863
 51
304.9928580137
  0
CIRCLE
  5
2E2
100
AcDbEntity
  8
0
100
AcDbCircle
 62
7
  6
CONTINUOUS
 10
3.4645143601
 20
3.3408966003
 40
0.06
  0
ARC
  5
2E3
100
AcDbEntity
  8
0
100
AcDbCircle
 62
7
  6
CONTINUOUS
 10
1.8326314427
 20
5.7696456756
 40
0.063
100
AcDbArc
 50
42.6689598598
 51
47.3184132038
  0
ARC
  5
2E4
100
AcDbEntity
  8
0
100
AcDbCircle
 62
7
  6
CONTINUOUS
 10
0.6601883531
 20
6.9733041353
 40
0.064
100
AcDbArc
 50
90.0
 51
270.0
  0
ARC
  5
2E5
100
AcDbEntity
  8
0
100
AcDbCircle
 62
7
  6
CONTINUOUS
 10
0.7221883531
 20
6.9733041353
 40
0.064
100
AcDbArc
 50
270.0
 51
90.0
  0
ARC
  5
2E6
100
AcDbEntity
  8
0
100
AcDbCircle
 62
7
  6
CONTINUOUS
 10
1.0341883531
 20
6.5993041353
 40
0.064
100
AcDbArc
 50
180.0
 51
360.0
  0
ARC
  5
2E7
100
AcDbEntity
  8
0
100
AcDbCircle
 62
7
  6
CONTINUOUS
 10
1.0341883531
 20
6.6613041353
 40
0.064
100
AcDbArc
 50
0.0
 51
180.0
  0
ARC
  5
2E8
100
AcDbEntity
  8
0
100
AcDbCircle
 62
7
  6
CONTINUOUS
 10
1.0341883531
 20
7.2853041353
 40
0.064
100
AcDbArc
 50
180.0
 51
360.0
  0
ARC
  5
2E9
100
AcDbEntity
  8
0
100
AcDbCircle
 62
7
  6
CONTINUOUS
 10
1.0341883531
 20
7.3473041353
 40
0.064
100
AcDbArc
 50
0.0
 51
180.0
  0
ARC
  5
2EA
100
AcDbEntity
  8
0
100
AcDbCircle
 62
7
  6
CONTINUOUS
 10
1.3461883531
 20
6.9733041353
 40
0.064
100
AcDbArc
 50
90.0
 51
270.0
  0
ARC
  5
2EB
100
AcDbEntity
  8
0
100
AcDbCircle
 62
7
  6
CONTINUOUS
 10
1.4081883531
 20
6.9733041353
 40
0.064
100
AcDbArc
 50
270.0
 51
90.0
  0
ARC
  5
2EC
100
AcDbEntity
  8
0
100
AcDbCircle
 62
7
  6
CONTINUOUS
 10
0.6457188953
 20
7.361773593
 40
0.063
100
AcDbArc
 50
95.1130819388
 51
174.8869180612
  0
ARC
  5
2ED
100
AcDbEntity
  8
0
100
AcDbCircle
 62
7
  6
CONTINUOUS
 10
0.7215735198
 20
7.2859189686
 40
0.063
100
AcDbArc
 50
97.1531681638
 51
172.8468318362
  0
ARC
  5
2EE
100
AcDbEntity
  8
0
100
AcDbCircle
 62
7
  6
CONTINUOUS
 10
1.7753168772
 20
6.8365338842
 40
0.063
100
AcDbArc
 50
94.0740293172
 51
195.9235986896
  0
ARC
  5
2EF
100
AcDbEntity
  8
0
100
AcDbCircle
 62
7
  6
CONTINUOUS
 10
1.1709586042
 20
6.2321756112
 40
0.063
100
AcDbArc
 50
74.0764013104
 51
175.9259706828
  0
ARC
  5
2F0
100
AcDbEntity
  8
0
100
AcDbCircle
 62
7
  6
CONTINUOUS
 10
3.0335551241
 20
5.2239373643
 40
0.125
100
AcDbArc
 50
21.36
 51
70.4040000001
  0
ARC
  5
2F1
100
AcDbEntity
  8
0
100
AcDbCircle
 62
7
  6
CONTINUOUS
 10
3.2627443719
 20
4.382451583
 40
0.125
100
AcDbArc
 50
50.084069243
 51
54.9739865578
  0
ARC
  5
2F2
100
AcDbEntity
  8
0
100
AcDbCircle
 62
7
  6
CONTINUOUS
 10
3.7476213664
 20
4.5849088331
 40
0.125
100
AcDbArc
 50
194.8207016256
 51
219.334537149
  0
ARC
  5
2F3
100
AcDbEntity
  8
0
100
AcDbCircle
 62
7
  6
CONTINUOUS
 10
3.5429923449
 20
4.7554853324
 40
0.063
100
AcDbArc
 50
212.9103990508
 51
323.746
  0
ARC
  5
2F4
100
AcDbEntity
  8
0
100
AcDbCircle
 62
7
  6
CONTINUOUS
 10
3.6874737377
 20
4.5698102612
 40
0.063
100
AcDbArc
 50
143.746
 51
195.5383406125
  0
ARC
  5
2F5
100
AcDbEntity
  8
0
100
AcDbCircle
 62
7
  6
CONTINUOUS
 10
3.3447996488
 20
5.2176321918
 40
0.063
100
AcDbArc
 50
76.2343248533
 51
201.3598199105
  0
ARC
  5
2F6
100
AcDbEntity
  8
0
100
AcDbCircle
 62
7
  6
CONTINUOUS
 10
3.5770551241
 20
5.1702810265
 40
0.063
100
AcDbArc
 50
0.0
 51
80.7191283326
  0
ARC
  5
2F7
100
AcDbEntity
  8
0
100
AcDbCircle
 62
7
  6
CONTINUOUS
 10
3.5770551241
 20
4.8019343009
 40
0.063
100
AcDbArc
 50
323.746
 51
360.0
  0
ARC
  5
2F8
100
AcDbEntity
  8
0
100
AcDbCircle
 62
7
  6
CONTINUOUS
 10
3.722479528
 20
4.6175451462
 40
0.063
100
AcDbArc
 50
90.0
 51
143.746
  0
ARC
  5
2F9
100
AcDbEntity
  8
0
100
AcDbCircle
 62
7
  6
CONTINUOUS
 10
3.8030551241
 20
4.8435451462
 40
0.063
100
AcDbArc
 50
180.0
 51
270.0
  0
ARC
  5
2FA
100
AcDbEntity
  8
0
100
AcDbCircle
 62
7
  6
CONTINUOUS
 10
3.8030551241
 20
5.1420261043
 40
0.063
100
AcDbArc
 50
85.0283815942
 51
180.0
  0
CIRCLE
  5
2FB
100
AcDbEntity
  8
0
100
AcDbCircle
 62
7
  6
CONTINUOUS
 10
3.4645143601
 20
4.5429781283
 40
0.06
  0
ARC
  5
2FC
100
AcDbEntity
  8
0
100
AcDbCircle
 62
7
  6
CONTINUOUS
 10
2.2378468128
 20
6.1748610457
 40
0.063
100
AcDbArc
 50
222.6815867962
 51
227.3310401402
  0
ARC
  5
2FD
100
AcDbEntity
  8
0
100
AcDbCircle
 62
7
  6
CONTINUOUS
 10
4.7085265929
 20
4.259871122
 40
0.125
100
AcDbArc
 50
125.6074070502
 51
129.334537149
  0
ARC
  5
2FE
100
AcDbEntity
  8
0
100
AcDbCircle
 62
7
  6
CONTINUOUS
 10
4.3834888817
 20
3.2989658955
 40
0.125
100
AcDbArc
 50
35.6074070502
 51
39.334537149
  0
ARC
  5
2FF
100
AcDbEntity
  8
0
100
AcDbCircle
 62
7
  6
CONTINUOUS
 10
4.5060693427
 20
3.1391266121
 40
0.125
100
AcDbArc
 50
35.0260134422
 51
39.915930757
  0
ARC
  5
300
100
AcDbEntity
  8
0
100
AcDbCircle
 62
7
  6
CONTINUOUS
 10
4.7085265929
 20
3.6240036067
 40
0.125
100
AcDbArc
 50
230.665462851
 51
234.3925929498
  0
ARC
  5
301
100
AcDbEntity
  8
0
100
AcDbCircle
 62
7
  6
CONTINUOUS
 10
4.8683658763
 20
3.5014231457
 40
0.125
100
AcDbArc
 50
230.084069243
 51
234.9739865578
  0
ARC
  5
302
100
AcDbEntity
  8
0
100
AcDbCircle
 62
7
  6
CONTINUOUS
 10
4.0655551241
 20
3.7467651522
 40
0.063
100
AcDbArc
 50
43.5681103503
 51
136.4318896497
  0
ARC
  5
303
100
AcDbEntity
  8
0
100
AcDbCircle
 62
7
  6
CONTINUOUS
 10
4.2607273362
 20
3.9419373643
 40
0.063
100
AcDbArc
 50
133.5681103503
 51
226.4318896497
  0
ARC
  5
304
100
AcDbEntity
  8
0
100
AcDbCircle
 62
7
  6
CONTINUOUS
 10
4.0655551241
 20
4.1371095765
 40
0.063
100
AcDbArc
 50
223.5681103503
 51
316.4318896497
  0
ARC
  5
305
100
AcDbEntity
  8
0
100
AcDbCircle
 62
7
  6
CONTINUOUS
 10
5.4552671609
 20
2.5522253275
 40
0.063
100
AcDbArc
 50
235.0071419863
 51
34.9928580137
  0
CIRCLE
  5
306
100
AcDbEntity
  8
0
100
AcDbCircle
 62
7
  6
CONTINUOUS
 10
4.6665958881
 20
3.3408966003
 40
0.06
  0
ARC
  5
307
100
AcDbEntity
  8
0
100
AcDbCircle
 62
7
  6
CONTINUOUS
 10
7.470921895
 20
0.9105705934
 40
0.064
100
AcDbArc
 50
270.0
 51
90.0
  0
ARC
  5
308
100
AcDbEntity
  8
0
100
AcDbCircle
 62
7
  6
CONTINUOUS
 10
7.408921895
 20
0.9105705934
 40
0.064
100
AcDbArc
 50
90.0
 51
270.0
  0
ARC
  5
309
100
AcDbEntity
  8
0
100
AcDbCircle
 62
7
  6
CONTINUOUS
 10
7.096921895
 20
1.2845705934
 40
0.064
100
AcDbArc
 50
0.0
 51
180.0
  0
ARC
  5
30A
100
AcDbEntity
  8
0
100
AcDbCircle
 62
7
  6
CONTINUOUS
 10
7.096921895
 20
1.2225705934
 40
0.064
100
AcDbArc
 50
180.0
 51
360.0
  0
ARC
  5
30B
100
AcDbEntity
  8
0
100
AcDbCircle
 62
7
  6
CONTINUOUS
 10
7.096921895
 20
0.5985705934
 40
0.064
100
AcDbArc
 50
0.0
 51
180.0
  0
ARC
  5
30C
100
AcDbEntity
  8
0
100
AcDbCircle
 62
7
  6
CONTINUOUS
 10
7.096921895
 20
0.5365705934
 40
0.064
100
AcDbArc
 50
180.0
 51
360.0
  0
ARC
  5
30D
100
AcDbEntity
  8
0
100
AcDbCircle
 62
7
  6
CONTINUOUS
 10
6.784921895
 20
0.9105705934
 40
0.064
100
AcDbArc
 50
270.0
 51
90.0
  0
ARC
  5
30E
100
AcDbEntity
  8
0
100
AcDbCircle
 62
7
  6
CONTINUOUS
 10
6.722921895
 20
0.9105705934
 40
0.064
100
AcDbArc
 50
90.0
 51
270.0
  0
ARC
  5
30F
100
AcDbEntity
  8
0
100
AcDbCircle
 62
7
  6
CONTINUOUS
 10
7.4853913528
 20
0.5221011356
 40
0.063
100
AcDbArc
 50
275.1130819388
 51
354.8869180612
  0
ARC
  5
310
100
AcDbEntity
  8
0
100
AcDbCircle
 62
7
  6
CONTINUOUS
 10
5.8932634353
 20
1.709013683
 40
0.063
100
AcDbArc
 50
42.6815867962
 51
47.3310401402
  0
ARC
  5
311
100
AcDbEntity
  8
0
100
AcDbCircle
 62
7
  6
CONTINUOUS
 10
6.2984788054
 20
2.1142290531
 40
0.063
100
AcDbArc
 50
222.6689598598
 51
227.3184132038
  0
ARC
  5
312
100
AcDbEntity
  8
0
100
AcDbCircle
 62
7
  6
CONTINUOUS
 10
6.9601516439
 20
1.6516991175
 40
0.063
100
AcDbArc
 50
254.0764013104
 51
355.9259706828
  0
ARC
  5
313
100
AcDbEntity
  8
0
100
AcDbCircle
 62
7
  6
CONTINUOUS
 10
6.3557933709
 20
1.0473408445
 40
0.063
100
AcDbArc
 50
274.0740293172
 51
15.9235986896
  0
ARC
  5
314
100
AcDbEntity
  8
0
100
AcDbCircle
 62
7
  6
CONTINUOUS
 10
7.4095367283
 20
0.5979557601
 40
0.063
100
AcDbArc
 50
277.1531681638
 51
352.8468318362
  0
ARC
  5
315
100
AcDbEntity
  8
0
100
AcDbCircle
 62
7
  6
CONTINUOUS
 10
5.0975551241
 20
5.2239373643
 40
0.125
100
AcDbArc
 50
109.596
 51
158.64
  0
ARC
  5
316
100
AcDbEntity
  8
0
100
AcDbCircle
 62
7
  6
CONTINUOUS
 10
4.8683658763
 20
4.382451583
 40
0.125
100
AcDbArc
 50
125.0260134422
 51
129.915930757
  0
ARC
  5
317
100
AcDbEntity
  8
0
100
AcDbCircle
 62
7
  6
CONTINUOUS
 10
4.3834888817
 20
4.5849088331
 40
0.125
100
AcDbArc
 50
320.665462851
 51
345.1792983744
  0
ARC
  5
318
100
AcDbEntity
  8
0
100
AcDbCircle
 62
7
  6
CONTINUOUS
 10
4.5881179033
 20
4.7554853324
 40
0.063
100
AcDbArc
 50
216.254
 51
327.0896009492
  0
ARC
  5
319
100
AcDbEntity
  8
0
100
AcDbCircle
 62
7
  6
CONTINUOUS
 10
4.4086307202
 20
4.6175451462
 40
0.063
100
AcDbArc
 50
36.254
 51
90.0
  0
ARC
  5
31A
100
AcDbEntity
  8
0
100
AcDbCircle
 62
7
  6
CONTINUOUS
 10
4.5540551241
 20
4.8019343009
 40
0.063
100
AcDbArc
 50
180.0
 51
216.254
  0
ARC
  5
31B
100
AcDbEntity
  8
0
100
AcDbCircle
 62
7
  6
CONTINUOUS
 10
4.5540551241
 20
5.1702810265
 40
0.063
100
AcDbArc
 50
99.2808716674
 51
180.0
  0
ARC
  5
31C
100
AcDbEntity
  8
0
100
AcDbCircle
 62
7
  6
CONTINUOUS
 10
4.7863127146
 20
5.2176327101
 40
0.063
100
AcDbArc
 50
338.641
 51
103.7657163413
  0
ARC
  5
31D
100
AcDbEntity
  8
0
100
AcDbCircle
 62
7
  6
CONTINUOUS
 10
4.4436365104
 20
4.5698102612
 40
0.063
100
AcDbArc
 50
344.4616593875
 51
36.254
  0
ARC
  5
31E
100
AcDbEntity
  8
0
100
AcDbCircle
 62
7
  6
CONTINUOUS
 10
4.3280551241
 20
4.8435451462
 40
0.063
100
AcDbArc
 50
270.0
 51
360.0
  0
ARC
  5
31F
100
AcDbEntity
  8
0
100
AcDbCircle
 62
7
  6
CONTINUOUS
 10
4.3280551241
 20
5.1420261043
 40
0.063
100
AcDbArc
 50
0.0
 51
94.9716184058
  0
CIRCLE
  5
320
100
AcDbEntity
  8
0
100
AcDbCircle
 62
7
  6
CONTINUOUS
 10
4.6665958881
 20
4.5429781283
 40
0.06
  0
ARC
  5
321
100
AcDbEntity
  8
0
100
AcDbCircle
 62
7
  6
CONTINUOUS
 10
4.0655551241
 20
8.159630245
 40
2.966
100
AcDbArc
 50
265.0283815942
 51
274.9716184058
  0
ARC
  5
322
100
AcDbEntity
  8
0
100
AcDbCircle
 62
7
  6
CONTINUOUS
 10
4.0655551241
 20
8.159630245
 40
2.966
100
AcDbArc
 50
256.2343248533
 51
260.7191283326
  0
ARC
  5
323
100
AcDbEntity
  8
0
100
AcDbCircle
 62
7
  6
CONTINUOUS
 10
4.0655551241
 20
8.159630245
 40
2.966
100
AcDbArc
 50
279.2808716674
 51
283.7657163413
  0
ARC
  5
324
100
AcDbEntity
  8
0
100
AcDbCircle
 62
7
  6
CONTINUOUS
 10
4.0655551241
 20
8.159630245
 40
2.786
100
AcDbArc
 50
236.7963911385
 51
303.2036088615
  0
ARC
  5
325
100
AcDbEntity
  8
0
100
AcDbCircle
 62
7
  6
CONTINUOUS
 10
5.8932634353
 20
6.1748610457
 40
0.063
100
AcDbArc
 50
312.6689598598
 51
317.3184132038
  0
ARC
  5
326
100
AcDbEntity
  8
0
100
AcDbCircle
 62
7
  6
CONTINUOUS
 10
6.2984788054
 20
5.7696456756
 40
0.063
100
AcDbArc
 50
132.6815867962
 51
137.3310401402
  0
ARC
  5
327
100
AcDbEntity
  8
0
100
AcDbCircle
 62
7
  6
CONTINUOUS
 10
6.9601516439
 20
6.2321756112
 40
0.063
100
AcDbArc
 50
4.0740293172
 51
105.9235986896
  0
ARC
  5
328
100
AcDbEntity
  8
0
100
AcDbCircle
 62
7
  6
CONTINUOUS
 10
7.408921895
 20
6.9733041353
 40
0.064
100
AcDbArc
 50
90.0
 51
270.0
  0
ARC
  5
329
100
AcDbEntity
  8
0
100
AcDbCircle
 62
7
  6
CONTINUOUS
 10
7.470921895
 20
6.9733041353
 40
0.064
100
AcDbArc
 50
270.0
 51
90.0
  0
ARC
  5
32A
100
AcDbEntity
  8
0
100
AcDbCircle
 62
7
  6
CONTINUOUS
 10
7.096921895
 20
6.6613041353
 40
0.064
100
AcDbArc
 50
0.0
 51
180.0
  0
ARC
  5
32B
100
AcDbEntity
  8
0
100
AcDbCircle
 62
7
  6
CONTINUOUS
 10
7.096921895
 20
6.5993041353
 40
0.064
100
AcDbArc
 50
180.0
 51
360.0
  0
ARC
  5
32C
100
AcDbEntity
  8
0
100
AcDbCircle
 62
7
  6
CONTINUOUS
 10
6.722921895
 20
6.9733041353
 40
0.064
100
AcDbArc
 50
90.0
 51
270.0
  0
ARC
  5
32D
100
AcDbEntity
  8
0
100
AcDbCircle
 62
7
  6
CONTINUOUS
 10
6.784921895
 20
6.9733041353
 40
0.064
100
AcDbArc
 50
270.0
 51
90.0
  0
ARC
  5
32E
100
AcDbEntity
  8
0
100
AcDbCircle
 62
7
  6
CONTINUOUS
 10
7.096921895
 20
7.3473041353
 40
0.064
100
AcDbArc
 50
0.0
 51
180.0
  0
ARC
  5
32F
100
AcDbEntity
  8
0
100
AcDbCircle
 62
7
  6
CONTINUOUS
 10
7.096921895
 20
7.2853041353
 40
0.064
100
AcDbArc
 50
180.0
 51
360.0
  0
ARC
  5
330
100
AcDbEntity
  8
0
100
AcDbCircle
 62
7
  6
CONTINUOUS
 10
7.4853913528
 20
7.361773593
 40
0.063
100
AcDbArc
 50
5.1130819388
 51
84.8869180612
  0
ARC
  5
331
100
AcDbEntity
  8
0
100
AcDbCircle
 62
7
  6
CONTINUOUS
 10
7.4095367283
 20
7.2859189686
 40
0.063
100
AcDbArc
 50
7.1531681638
 51
82.8468318362
  0
ARC
  5
332
100
AcDbEntity
  8
0
100
AcDbCircle
 62
7
  6
CONTINUOUS
 10
6.3557933709
 20
6.8365338842
 40
0.063
100
AcDbArc
 50
344.0764013104
 51
85.9259706828
  0
ENDSEC
  0
SECTION
  2
OBJECTS
  0
DICTIONARY
  5
C
100
AcDbDictionary
280
0
281
1
  3
ACAD_GROUP
350
D
  3
ACAD_MLINESTYLE
350
17
  3
ACAD_LAYOUT
350
1A
  3
ACAD_PLOTSETTINGS
350
19
  3
ACAD_PLOTSTYLENAME
350
E
  0
DICTIONARY
  5
D
102
{ACAD_REACTORS
330
C
102
}
100
AcDbDictionary
280
0
281
1
  0
ACDBDICTIONARYWDFLT
  5
E
102
{ACAD_REACTORS
330
C
102
}
100
AcDbDictionary
281
1
  3
Normal
350
F
100
AcDbDictionaryWithDefault
340
F
  0
DICTIONARY
  5
17
102
{ACAD_REACTORS
330
C
102
}
100
AcDbDictionary
280
0
281
1
  3
Standard
350
18
  0
DICTIONARY
  5
19
102
{ACAD_REACTORS
330
C
102
}
100
AcDbDictionary
281
1
  0
DICTIONARY
  5
1A
102
{ACAD_REACTORS
330
C
102
}
100
AcDbDictionary
281
1
  3
Model
350
333
  3
Layout1
350
334
  0
ACDBPLACEHOLDER
  5
F
102
{ACAD_REACTORS
330
E
102
}
  0
MLINESTYLE
  5
18
102
{ACAD_REACTORS
330
17
102
}
100
AcDbMlineStyle
  2
STANDARD
 70
0
  3

 62
256
 51
90.0
 52
90.0
 71
2
 49
0.5
 62
256
  6
BYLAYER
 49
-0.5
 62
256
  6
BYLAYER
  0
LAYOUT
  5
333
102
{ACAD_REACTORS
330
1A
102
}
100
AcDbPlotSettings
  1

  2
none_device
  4

  6

 40
0.0
 41
0.0
 42
0.0
 43
0.0
 44
203.2
 45
203.2
 46
0.0
 47
0.0
 48
0.0
 49
0.0
140
0.0
141
0.0
142
1.0
143
1.0
 70
1024
 72
0
 73
0
 74
0
  7

 75
0
147
1.0
148
0.0
149
0.0
100
AcDbLayout
  1
Model
 70
0
 71
0
 10
0.0
 20
0.0
 11
8.0
 21
8.0
 12
0.0
 22
0.0
 32
0.0
 14
0.0
 24
0.0
 34
0.0
 15
0.0
 25
0.0
 35
0.0
146
0.0
 13
0.0
 23
0.0
 33
0.0
 16
1.0
 26
0.0
 36
0.0
 17
0.0
 27
1.0
 37
0.0
 76
0
330
20C
345
0
346
0
  0
LAYOUT
  5
334
102
{ACAD_REACTORS
330
1A
102
}
100
AcDbPlotSettings
  1

  2
none_device
  4

  6

 40
0.0
 41
0.0
 42
0.0
 43
0.0
 44
203.2
 45
203.2
 46
0.0
 47
0.0
 48
0.0
 49
0.0
140
0.0
141
0.0
142
1.0
143
1.0
 70
0
 72
0
 73
0
 74
0
  7

 75
0
147
1.0
148
0.0
149
0.0
100
AcDbLayout
  1
Layout1
 70
0
 71
1
 10
0.0
 20
0.0
 11
8.0
 21
8.0
 12
0.0
 22
0.0
 32
0.0
 14
0.0
 24
0.0
 34
0.0
 15
0.0
 25
0.0
 35
0.0
146
0.0
 13
0.0
 23
0.0
 33
0.0
 16
1.0
 26
0.0
 36
0.0
 17
0.0
 27
1.0
 37
0.0
 76
0
330
20D
345
0
346
0
  0
ENDSEC
  0
EOF
