  0
SECTION
  2
HEADER
  9
$ACADVER
  1
AC1015
  9
$ACADMAINTVER
 70
     6
  9
$DWGCODEPAGE
  3
ANSI_1252
  9
$INSBASE
 10
0.0
 20
0.0
 30
0.0
  9
$EXTMIN
 10
-15.15
 20
-2.29000034
 30
0.0
  9
$EXTMAX
 10
15.15
 20
2.29000034
 30
0.0
  9
$LIMMIN
 10
0.0
 20
0.0
  9
$LIMMAX
 10
12.0
 20
9.0
  9
$ORTHOMODE
 70
     0
  9
$REGENMODE
 70
     1
  9
$FILLMODE
 70
     1
  9
$QTEXTMODE
 70
     0
  9
$MIRRTEXT
 70
     1
  9
$LTSCALE
 40
1.0
  9
$ATTMODE
 70
     1
  9
$TEXTSIZE
 40
0.125
  9
$TRACEWID
 40
0.05
  9
$TEXTSTYLE
  7
Standard
  9
$CLAYER
  8
0
  9
$CELTYPE
  6
ByLayer
  9
$CECOLOR
 62
   256
  9
$CELTSCALE
 40
1.0
  9
$DISPSILH
 70
     0
  9
$DIMSCALE
 40
1.0
  9
$DIMASZ
 40
0.13
  9
$DIMEXO
 40
0.05
  9
$DIMDLI
 40
0.38
  9
$DIMRND
 40
0.0
  9
$DIMDLE
 40
0.0
  9
$DIMEXE
 40
0.125
  9
$DIMTP
 40
0.0
  9
$DIMTM
 40
0.0
  9
$DIMTXT
 40
0.125
  9
$DIMCEN
 40
0.09
  9
$DIMTSZ
 40
0.0
  9
$DIMTOL
 70
     0
  9
$DIMLIM
 70
     0
  9
$DIMTIH
 70
     1
  9
$DIMTOH
 70
     1
  9
$DIMSE1
 70
     0
  9
$DIMSE2
 70
     0
  9
$DIMTAD
 70
     0
  9
$DIMZIN
 70
     0
  9
$DIMBLK
  1

  9
$DIMASO
 70
     1
  9
$DIMSHO
 70
     1
  9
$DIMPOST
  1

  9
$DIMAPOST
  1

  9
$DIMALT
 70
     0
  9
$DIMALTD
 70
     2
  9
$DIMALTF
 40
25.4
  9
$DIMLFAC
 40
1.0
  9
$DIMTOFL
 70
     0
  9
$DIMTVP
 40
0.0
  9
$DIMTIX
 70
     0
  9
$DIMSOXD
 70
     0
  9
$DIMSAH
 70
     0
  9
$DIMBLK1
  1

  9
$DIMBLK2
  1

  9
$DIMSTYLE
  2
Standard
  9
$DIMCLRD
 70
     0
  9
$DIMCLRE
 70
     0
  9
$DIMCLRT
 70
     0
  9
$DIMTFAC
 40
1.0
  9
$DIMGAP
 40
0.06
  9
$DIMJUST
 70
     0
  9
$DIMSD1
 70
     0
  9
$DIMSD2
 70
     0
  9
$DIMTOLJ
 70
     1
  9
$DIMTZIN
 70
     0
  9
$DIMALTZ
 70
     0
  9
$DIMALTTZ
 70
     0
  9
$DIMUPT
 70
     0
  9
$DIMDEC
 70
     2
  9
$DIMTDEC
 70
     2
  9
$DIMALTU
 70
     2
  9
$DIMALTTD
 70
     2
  9
$DIMTXSTY
  7
Standard
  9
$DIMAUNIT
 70
     0
  9
$DIMADEC
 70
     2
  9
$DIMALTRND
 40
0.0
  9
$DIMAZIN
 70
     0
  9
$DIMDSEP
 70
    46
  9
$DIMATFIT
 70
     3
  9
$DIMFRAC
 70
     0
  9
$DIMLDRBLK
  1

  9
$DIMLUNIT
 70
     2
  9
$DIMLWD
 70
    -2
  9
$DIMLWE
 70
    -2
  9
$DIMTMOVE
 70
     0
  9
$LUNITS
 70
     2
  9
$LUPREC
 70
     2
  9
$SKETCHINC
 40
0.1
  9
$FILLETRAD
 40
0.5
  9
$AUNITS
 70
     0
  9
$AUPREC
 70
     2
  9
$MENU
  1
.
  9
$ELEVATION
 40
0.0
  9
$PELEVATION
 40
0.0
  9
$THICKNESS
 40
0.0
  9
$LIMCHECK
 70
     0
  9
$CHAMFERA
 40
0.0
  9
$CHAMFERB
 40
0.0
  9
$CHAMFERC
 40
0.0
  9
$CHAMFERD
 40
0.0
  9
$SKPOLY
 70
     0
  9
$TDCREATE
 40
2456911.769691898
  9
$TDUCREATE
 40
2456912.019691898
  9
$TDUPDATE
 40
2456911.769728727
  9
$TDUUPDATE
 40
2456912.019728727
  9
$TDINDWG
 40
0.0000000116
  9
$TDUSRTIMER
 40
0.0000000116
  9
$USRTIMER
 70
     1
  9
$ANGBASE
 50
0.0
  9
$ANGDIR
 70
     0
  9
$PDMODE
 70
     0
  9
$PDSIZE
 40
-1.0
  9
$PLINEWID
 40
0.0
  9
$SPLFRAME
 70
     0
  9
$SPLINETYPE
 70
     6
  9
$SPLINESEGS
 70
     8
  9
$HANDSEED
  5
11A
  9
$SURFTAB1
 70
     6
  9
$SURFTAB2
 70
     6
  9
$SURFTYPE
 70
     6
  9
$SURFU
 70
     6
  9
$SURFV
 70
     6
  9
$UCSBASE
  2

  9
$UCSNAME
  2

  9
$UCSORG
 10
0.0
 20
0.0
 30
0.0
  9
$UCSXDIR
 10
1.0
 20
0.0
 30
0.0
  9
$UCSYDIR
 10
0.0
 20
1.0
 30
0.0
  9
$UCSORTHOREF
  2

  9
$UCSORTHOVIEW
 70
     0
  9
$UCSORGTOP
 10
0.0
 20
0.0
 30
0.0
  9
$UCSORGBOTTOM
 10
0.0
 20
0.0
 30
0.0
  9
$UCSORGLEFT
 10
0.0
 20
0.0
 30
0.0
  9
$UCSORGRIGHT
 10
0.0
 20
0.0
 30
0.0
  9
$UCSORGFRONT
 10
0.0
 20
0.0
 30
0.0
  9
$UCSORGBACK
 10
0.0
 20
0.0
 30
0.0
  9
$PUCSBASE
  2

  9
$PUCSNAME
  2

  9
$PUCSORG
 10
0.0
 20
0.0
 30
0.0
  9
$PUCSXDIR
 10
1.0
 20
0.0
 30
0.0
  9
$PUCSYDIR
 10
0.0
 20
1.0
 30
0.0
  9
$PUCSORTHOREF
  2

  9
$PUCSORTHOVIEW
 70
     0
  9
$PUCSORGTOP
 10
0.0
 20
0.0
 30
0.0
  9
$PUCSORGBOTTOM
 10
0.0
 20
0.0
 30
0.0
  9
$PUCSORGLEFT
 10
0.0
 20
0.0
 30
0.0
  9
$PUCSORGRIGHT
 10
0.0
 20
0.0
 30
0.0
  9
$PUCSORGFRONT
 10
0.0
 20
0.0
 30
0.0
  9
$PUCSORGBACK
 10
0.0
 20
0.0
 30
0.0
  9
$USERI1
 70
     0
  9
$USERI2
 70
     0
  9
$USERI3
 70
     0
  9
$USERI4
 70
     0
  9
$USERI5
 70
     0
  9
$USERR1
 40
0.0
  9
$USERR2
 40
0.0
  9
$USERR3
 40
0.0
  9
$USERR4
 40
0.0
  9
$USERR5
 40
0.0
  9
$WORLDVIEW
 70
     1
  9
$SHADEDGE
 70
     3
  9
$SHADEDIF
 70
    70
  9
$TILEMODE
 70
     1
  9
$MAXACTVP
 70
    64
  9
$PINSBASE
 10
0.0
 20
0.0
 30
0.0
  9
$PLIMCHECK
 70
     0
  9
$PEXTMIN
 10
1.0000000000E+20
 20
1.0000000000E+20
 30
1.0000000000E+20
  9
$PEXTMAX
 10
-1.0000000000E+20
 20
-1.0000000000E+20
 30
-1.0000000000E+20
  9
$PLIMMIN
 10
0.0
 20
0.0
  9
$PLIMMAX
 10
12.0
 20
9.0
  9
$UNITMODE
 70
     0
  9
$VISRETAIN
 70
     1
  9
$PLINEGEN
 70
     0
  9
$PSLTSCALE
 70
     1
  9
$TREEDEPTH
 70
  3020
  9
$CMLSTYLE
  2
Standard
  9
$CMLJUST
 70
     0
  9
$CMLSCALE
 40
1.0
  9
$PROXYGRAPHICS
 70
     1
  9
$MEASUREMENT
 70
     0
  9
$CELWEIGHT
370
    -1
  9
$ENDCAPS
280
     0
  9
$JOINSTYLE
280
     0
  9
$LWDISPLAY
290
     1
  9
$INSUNITS
 70
     1
  9
$HYPERLINKBASE
  1

  9
$STYLESHEET
  1

  9
$XEDIT
290
     1
  9
$CEPSNTYPE
380
     0
  9
$PSTYLEMODE
290
     1
  9
$FINGERPRINTGUID
  2
{39735921-1BD8-48AB-9089-A324CEADEE95}
  9
$VERSIONGUID
  2
{FAEB1C32-E019-11D5-929B-00C0DF256EC4}
  9
$EXTNAMES
290
     1
  9
$PSVPSCALE
 40
0.0
  9
$OLESTARTUP
290
     0
  0
ENDSEC
  0
SECTION
  2
CLASSES
  0
CLASS
  1
ACDBDICTIONARYWDFLT
  2
AcDbDictionaryWithDefault
  3
ObjectDBX Classes
 90
        0
280
     0
281
     0
  0
CLASS
  1
VISUALSTYLE
  2
AcDbVisualStyle
  3
ObjectDBX Classes
 90
     4095
280
     0
281
     0
  0
CLASS
  1
MATERIAL
  2
AcDbMaterial
  3
ObjectDBX Classes
 90
     1153
280
     0
281
     0
  0
CLASS
  1
SCALE
  2
AcDbScale
  3
ObjectDBX Classes
 90
     1153
280
     0
281
     0
  0
CLASS
  1
SUN
  2
AcDbSun
  3
SCENEOE
 90
     1153
280
     0
281
     0
  0
CLASS
  1
ACDBPLACEHOLDER
  2
AcDbPlaceHolder
  3
ObjectDBX Classes
 90
        0
280
     0
281
     0
  0
CLASS
  1
LAYOUT
  2
AcDbLayout
  3
ObjectDBX Classes
 90
        0
280
     0
281
     0
  0
ENDSEC
  0
SECTION
  2
TABLES
  0
TABLE
  2
VPORT
  5
8
330
0
100
AcDbSymbolTable
 70
     1
  0
VPORT
  5
29
330
8
100
AcDbSymbolTableRecord
100
AcDbViewportTableRecord
  2
*Active
 70
     0
 10
0.0
 20
0.0
 11
1.0
 21
1.0
 12
0.0
 22
0.0
 13
0.0
 23
0.0
 14
0.5
 24
0.5
 15
0.5
 25
0.5
 16
0.0
 26
0.0
 36
1.0
 17
0.0
 27
0.0
 37
0.0
 40
4.6716006936
 41
6.6157195418
 42
50.0
 43
0.0
 44
0.0
 50
0.0
 51
0.0
 71
     0
 72
   100
 73
     1
 74
     3
 75
     0
 76
     0
 77
     0
 78
     0
281
     0
 65
     1
110
0.0
120
0.0
130
0.0
111
1.0
121
0.0
131
0.0
112
0.0
122
1.0
132
0.0
 79
     0
146
0.0
  0
ENDTAB
  0
TABLE
  2
LTYPE
  5
5
330
0
100
AcDbSymbolTable
 70
     6
  0
LTYPE
  5
14
330
5
100
AcDbSymbolTableRecord
100
AcDbLinetypeTableRecord
  2
ByBlock
 70
     0
  3

 72
    65
 73
     0
 40
0.0
  0
LTYPE
  5
15
330
5
100
AcDbSymbolTableRecord
100
AcDbLinetypeTableRecord
  2
ByLayer
 70
     0
  3

 72
    65
 73
     0
 40
0.0
  0
LTYPE
  5
16
330
5
100
AcDbSymbolTableRecord
100
AcDbLinetypeTableRecord
  2
Continuous
 70
     0
  3
Solid line
 72
    65
 73
     0
 40
0.0
  0
LTYPE
  5
6A
330
5
100
AcDbSymbolTableRecord
100
AcDbLinetypeTableRecord
  2
HIDDEN
 70
     0
  3
Hidden __ __ __ __ __ __ __ __ __ __ __ __ __ __
 72
    65
 73
     2
 40
0.075
 49
0.05
 74
     0
 49
-0.025
 74
     0
  0
LTYPE
  5
6B
330
5
100
AcDbSymbolTableRecord
100
AcDbLinetypeTableRecord
  2
PHANTOM
 70
     0
  3
Phantom ______  __  __  ______  __  __  ______
 72
    65
 73
     6
 40
0.5
 49
0.25
 74
     0
 49
-0.05
 74
     0
 49
0.05
 74
     0
 49
-0.05
 74
     0
 49
0.05
 74
     0
 49
-0.05
 74
     0
  0
LTYPE
  5
6C
330
5
100
AcDbSymbolTableRecord
100
AcDbLinetypeTableRecord
  2
CENTER
 70
     0
  3
Center ____ _ ____ _ ____ _ ____ _ ____ _ ____
 72
    65
 73
     4
 40
0.4
 49
0.25
 74
     0
 49
-0.05
 74
     0
 49
0.05
 74
     0
 49
-0.05
 74
     0
  0
LTYPE
  5
6D
330
5
100
AcDbSymbolTableRecord
100
AcDbLinetypeTableRecord
  2
CENTERX2
 70
     0
  3
Center (2x) ________  __  ________  __  _____
 72
    65
 73
     4
 40
0.8
 49
0.5
 74
     0
 49
-0.1
 74
     0
 49
0.1
 74
     0
 49
-0.1
 74
     0
  0
LTYPE
  5
6E
330
5
100
AcDbSymbolTableRecord
100
AcDbLinetypeTableRecord
  2
DOT2
 70
     0
  3
Dot (.5x) ........................................
 72
    65
 73
     2
 40
0.025
 49
0.0
 74
     0
 49
-0.025
 74
     0
  0
ENDTAB
  0
TABLE
  2
LAYER
  5
2
330
0
100
AcDbSymbolTable
 70
     1
  0
LAYER
  5
10
330
2
100
AcDbSymbolTableRecord
100
AcDbLayerTableRecord
  2
0
 70
     0
 62
     7
  6
Continuous
370
    -3
390
F
  0
ENDTAB
  0
TABLE
  2
STYLE
  5
3
330
0
100
AcDbSymbolTable
 70
     1
  0
STYLE
  5
11
330
3
100
AcDbSymbolTableRecord
100
AcDbTextStyleTableRecord
  2
Standard
 70
     0
 40
0.0
 41
1.0
 50
0.0
 71
     0
 42
0.125
  3
txt
  4

  0
ENDTAB
  0
TABLE
  2
VIEW
  5
6
330
0
100
AcDbSymbolTable
 70
     0
  0
ENDTAB
  0
TABLE
  2
UCS
  5
7
330
0
100
AcDbSymbolTable
 70
     0
  0
ENDTAB
  0
TABLE
  2
APPID
  5
9
330
0
100
AcDbSymbolTable
 70
     1
  0
APPID
  5
12
330
9
100
AcDbSymbolTableRecord
100
AcDbRegAppTableRecord
  2
ACAD
 70
     0
  0
ENDTAB
  0
TABLE
  2
DIMSTYLE
  5
A
330
0
100
AcDbSymbolTable
 70
     1
100
AcDbDimStyleTable
  0
DIMSTYLE
105
27
330
A
100
AcDbSymbolTableRecord
100
AcDbDimStyleTableRecord
  2
Standard
 70
     0
178
     0
340
11
  0
ENDTAB
  0
TABLE
  2
BLOCK_RECORD
  5
1
330
0
100
AcDbSymbolTable
 70
     1
  0
BLOCK_RECORD
  5
1F
330
1
100
AcDbSymbolTableRecord
100
AcDbBlockTableRecord
  2
*Model_Space
340
22
  0
BLOCK_RECORD
  5
1B
330
1
100
AcDbSymbolTableRecord
100
AcDbBlockTableRecord
  2
*Paper_Space
340
1E
  0
BLOCK_RECORD
  5
23
330
1
100
AcDbSymbolTableRecord
100
AcDbBlockTableRecord
  2
*Paper_Space0
340
26
  0
ENDTAB
  0
ENDSEC
  0
SECTION
  2
BLOCKS
  0
BLOCK
  5
20
330
1F
100
AcDbEntity
  8
0
100
AcDbBlockBegin
  2
*Model_Space
 70
     0
 10
0.0
 20
0.0
 30
0.0
  3
*Model_Space
  1
*Model_Space
  0
ENDBLK
  5
21
330
1F
100
AcDbEntity
  8
0
100
AcDbBlockEnd
  0
BLOCK
  5
1C
330
1B
100
AcDbEntity
 67
     1
  8
0
100
AcDbBlockBegin
  2
*Paper_Space
 70
     0
 10
0.0
 20
0.0
 30
0.0
  3
*Paper_Space
  1
*Paper_Space
  0
ENDBLK
  5
1D
330
1B
100
AcDbEntity
 67
     1
  8
0
100
AcDbBlockEnd
  0
BLOCK
  5
24
330
23
100
AcDbEntity
  8
0
100
AcDbBlockBegin
  2
*Paper_Space0
 70
     0
 10
0.0
 20
0.0
 30
0.0
  3
*Paper_Space0
  1
*Paper_Space0
  0
ENDBLK
  5
25
330
23
100
AcDbEntity
  8
0
100
AcDbBlockEnd
  0
ENDSEC
  0
SECTION
  2
ENTITIES
  0
SPLINE
  5
6F
330
1F
100
AcDbEntity
  8
0
  6
Continuous
 62
     7
370
    15
100
AcDbSpline
210
0.0
220
0.0
230
1.0
 70
     8
 71
     3
 72
    15
 73
    11
 74
     0
 42
0.000000001
 43
0.00000001
 40
0.0
 40
0.0
 40
0.0
 40
0.0
 40
0.1054324257577892
 40
0.2126926066359907
 40
0.325664062529989
 40
0.4428219635096686
 40
0.5669158351674681
 40
0.7017792760429945
 40
0.8456966330967289
 40
1.0
 40
1.0
 40
1.0
 40
1.0
 10
-7.973763345594656
 20
0.5263053797468359
 30
0.0
 10
-7.981177750119907
 20
0.5310365610417238
 30
0.0
 10
-7.996135093781452
 20
0.5405809424295609
 30
0.0
 10
-8.020932896634466
 20
0.5517901174918376
 30
0.0
 10
-8.04752990518665
 20
0.5610308314251157
 30
0.0
 10
-8.076344414121973
 20
0.5675842783319263
 30
0.0
 10
-8.107204858503641
 20
0.5731603063617907
 30
0.0
 10
-8.140646084262553
 20
0.5763308611728911
 30
0.0
 10
-8.176648238964157
 20
0.5789926570685328
 30
0.0
 10
-8.201506547716846
 20
0.5790725739788686
 30
0.0
 10
-8.214368567113642
 20
0.5791139240506333
 30
0.0
  0
SPLINE
  5
70
330
1F
100
AcDbEntity
  8
0
  6
Continuous
 62
     7
370
    15
100
AcDbSpline
210
0.0
220
0.0
230
1.0
 70
     8
 71
     3
 72
    15
 73
    11
 74
     0
 42
0.000000001
 43
0.00000001
 40
0.0
 40
0.0
 40
0.0
 40
0.0
 40
0.1356710519307715
 40
0.2660335683250637
 40
0.388828912446285
 40
0.5089869504386773
 40
0.6268374756191892
 40
0.7465047924043865
 40
0.870360450595191
 40
0.9999999999999999
 40
0.9999999999999999
 40
0.9999999999999999
 40
0.9999999999999999
 10
-7.877046573442758
 20
0.3266416139240511
 30
0.0
 10
-7.877355399190681
 20
0.3371349999247901
 30
0.0
 10
-7.877960966955813
 20
0.3577111868258344
 30
0.0
 10
-7.881975766132775
 20
0.3876029660334476
 30
0.0
 10
-7.889331340028344
 20
0.4155741771431878
 30
0.0
 10
-7.898884281409541
 20
0.4418695934615978
 30
0.0
 10
-7.912179098346215
 20
0.4662542951030741
 30
0.0
 10
-7.928925518977691
 20
0.4887453408814447
 30
0.0
 10
-7.949583667552319
 20
0.5091103748185074
 30
0.0
 10
-7.965581778903337
 20
0.5204871848423223
 30
0.0
 10
-7.973763345594656
 20
0.5263053797468359
 30
0.0
  0
SPLINE
  5
71
330
1F
100
AcDbEntity
  8
0
  6
Continuous
 62
     7
370
    15
100
AcDbSpline
210
0.0
220
0.0
230
1.0
 70
     8
 71
     3
 72
    15
 73
    11
 74
     0
 42
0.000000001
 43
0.00000001
 40
0.0
 40
0.0
 40
0.0
 40
0.0
 40
0.1170339869329143
 40
0.2303551988589827
 40
0.3426861898780819
 40
0.4547596653596029
 40
0.5726627487835118
 40
0.7022310727779927
 40
0.8446465788022205
 40
1.0
 40
1.0
 40
1.0
 40
1.0
 10
-7.964863029138959
 20
0.0884098101265827
 30
0.0
 10
-7.957646987107144
 20
0.0956560216520776
 30
0.0
 10
-7.943443824070693
 20
0.1099185665817522
 30
0.0
 10
-7.925680609769964
 20
0.1340878427462787
 30
0.0
 10
-7.91036453344035
 20
0.1593142996751439
 30
0.0
 10
-7.89797531893763
 20
0.1865802756595613
 30
0.0
 10
-7.888370297680536
 20
0.2165185321743229
 30
0.0
 10
-7.881622340846298
 20
0.2499351088018571
 30
0.0
 10
-7.877979154102064
 20
0.2871028016983617
 30
0.0
 10
-7.87736630959453
 20
0.3130856951511661
 30
0.0
 10
-7.877046573442756
 20
0.326641613924051
 30
0.0
  0
SPLINE
  5
76
330
1F
100
AcDbEntity
  8
0
  6
Continuous
 62
     7
370
    15
100
AcDbSpline
210
0.0
220
0.0
230
1.0
 70
     8
 71
     3
 72
    23
 73
    19
 74
     0
 42
0.000000001
 43
0.00000001
 40
0.0
 40
0.0
 40
0.0
 40
0.0
 40
0.0703830305476865
 40
0.1379489199197074
 40
0.2034888084440791
 40
0.2668116458442019
 40
0.3289395236564632
 40
0.3896346109119578
 40
0.449566490769071
 40
0.5094054054689512
 40
0.5688230343965491
 40
0.6282063740288434
 40
0.6879203520712706
 40
0.748310414416669
 40
0.809317904920333
 40
0.871253151261671
 40
0.9346509967026084
 40
1.0
 40
1.0
 40
1.0
 40
1.0
 10
-7.668185813949085
 20
0.3385087025316459
 30
0.0
 10
-7.668375046016076
 20
0.3251476450452921
 30
0.0
 10
-7.668745935974248
 20
0.2989603178602422
 30
0.0
 10
-7.672800736679203
 20
0.2605112294979487
 30
0.0
 10
-7.678938283136791
 20
0.2237254769230037
 30
0.0
 10
-7.687495668465519
 20
0.1884603754336396
 30
0.0
 10
-7.698829283180255
 20
0.1549651328842173
 30
0.0
 10
-7.712401219117972
 20
0.12299999777801
 30
0.0
 10
-7.728912476855197
 20
0.0929393416731205
 30
0.0
 10
-7.747579412827288
 20
0.0644824142643126
 30
0.0
 10
-7.768382758178472
 20
0.0376602482634767
 30
0.0
 10
-7.79141002663066
 20
0.0127766082107048
 30
0.0
 10
-7.815994298248577
 20
-0.0108416788864492
 30
0.0
 10
-7.842790027338171
 20
-0.0324225963953304
 30
0.0
 10
-7.871318104623257
 20
-0.0523892754565038
 30
0.0
 10
-7.901766654436654
 20
-0.0704078118487593
 30
0.0
 10
-7.933816284007725
 20
-0.0872851244437248
 30
0.0
 10
-7.956377988025511
 20
-0.0966899365840277
 30
0.0
 10
-7.967829801290858
 20
-0.1014636075949364
 30
0.0
  0
SPLINE
  5
77
330
1F
100
AcDbEntity
  8
0
  6
Continuous
 62
     7
370
    15
100
AcDbSpline
210
0.0
220
0.0
230
1.0
 70
     8
 71
     3
 72
    15
 73
    11
 74
     0
 42
0.000000001
 43
0.00000001
 40
0.0
 40
0.0
 40
0.0
 40
0.0
 40
0.1204601605038177
 40
0.2373845007654847
 40
0.3534929525856126
 40
0.4690032709078606
 40
0.5878575309050473
 40
0.7148212612045091
 40
0.8513778055921196
 40
1.0
 40
1.0
 40
1.0
 40
1.0
 10
-7.838775212683263
 20
0.6687104430379751
 30
0.0
 10
-7.825880402923801
 20
0.6598172942554154
 30
0.0
 10
-7.800469279740724
 20
0.6422920338278051
 30
0.0
 10
-7.766733574860146
 20
0.6109235752827196
 30
0.0
 10
-7.737155458495489
 20
0.5765120507496316
 30
0.0
 10
-7.712232285649226
 20
0.538281929733087
 30
0.0
 10
-7.691682277360077
 20
0.4958579135947698
 30
0.0
 10
-7.678318390106043
 20
0.447841672452323
 30
0.0
 10
-7.669343858147834
 20
0.3949173651772331
 30
0.0
 10
-7.668582565216465
 20
0.3578345697309003
 30
0.0
 10
-7.668185813949085
 20
0.3385087025316459
 30
0.0
  0
SPLINE
  5
78
330
1F
100
AcDbEntity
  8
0
  6
Continuous
 62
     7
370
    15
100
AcDbSpline
210
0.0
220
0.0
230
1.0
 70
     8
 71
     3
 72
    15
 73
    11
 74
     0
 42
0.000000001
 43
0.00000001
 40
0.0
 40
0.0
 40
0.0
 40
0.0
 40
0.1610519726672522
 40
0.3088852512014129
 40
0.4423350676483667
 40
0.56317694659493
 40
0.6760013357488847
 40
0.7853868612953507
 40
0.8934793501665295
 40
1.0
 40
1.0
 40
1.0
 40
1.0
 10
-8.222675529138959
 20
0.7500000000000004
 30
0.0
 10
-8.201311517617558
 20
0.7497576668514627
 30
0.0
 10
-8.160336992710054
 20
0.7492928905794257
 30
0.0
 10
-8.10171135397728
 20
0.7462057281195061
 30
0.0
 10
-8.048653856719026
 20
0.7405241549611818
 30
0.0
 10
-8.000489624182018
 20
0.733067186043696
 30
0.0
 10
-7.95623184896094
 20
0.7222292176732064
 30
0.0
 10
-7.914625156314034
 20
0.7083253312966202
 30
0.0
 10
-7.875357200501379
 20
0.6905895893659167
 30
0.0
 10
-7.85090952322195
 20
0.6759677948577988
 30
0.0
 10
-7.838775212683263
 20
0.6687104430379751
 30
0.0
  0
SPLINE
  5
AD
330
1F
100
AcDbEntity
  8
0
  6
Continuous
 62
     7
370
    15
100
AcDbSpline
210
0.0
220
0.0
230
1.0
 70
     8
 71
     3
 72
    21
 73
    17
 74
     0
 42
0.000000001
 43
0.00000001
 40
0.0
 40
0.0
 40
0.0
 40
0.0
 40
0.0598674487041947
 40
0.1188706264363467
 40
0.1777586045063502
 40
0.236266862520958
 40
0.2946260999497627
 40
0.3534652195829037
 40
0.4128879891485004
 40
0.4732259736501677
 40
0.5341856897438492
 40
0.596239045701746
 40
0.6589353526087572
 40
0.7234094633862864
 40
0.7897318060773049
 40
0.8271445292768164
 40
0.8271445292768164
 40
0.8271445292768164
 40
0.8271445292768164
 10
-6.280033124075668
 20
0.6310324367088612
 30
0.0
 10
-6.267668847506791
 20
0.62287182845218
 30
0.0
 10
-6.243118790121906
 20
0.6066684218168585
 30
0.0
 10
-6.208204029185735
 20
0.5798494157773952
 30
0.0
 10
-6.175661967081822
 20
0.5507180469154063
 30
0.0
 10
-6.14506832304151
 20
0.5197943832649081
 30
0.0
 10
-6.116278466422084
 20
0.4871615680935727
 30
0.0
 10
-6.090399290354143
 20
0.451907232068398
 30
0.0
 10
-6.065866757958598
 20
0.4151333369920491
 30
0.0
 10
-6.043697307807087
 20
0.3762656922069278
 30
0.0
 10
-6.023655759060841
 20
0.3355329518095002
 30
0.0
 10
-6.006565817015531
 20
0.2928378909976771
 30
0.0
 10
-5.992003691618811
 20
0.2483215432693455
 30
0.0
 10
-5.979694593056244
 20
0.2020229105486912
 30
0.0
 10
-5.972047618379074
 20
0.1610792086859731
 30
0.0
 10
-5.968454096833508
 20
0.1356655472166414
 30
0.0
 10
-5.967281996091987
 20
0.1264833860759388
 30
0.0
  0
SPLINE
  5
AE
330
1F
100
AcDbEntity
  8
0
  6
Continuous
 62
     7
370
    15
100
AcDbSpline
210
0.0
220
0.0
230
1.0
 70
     8
 71
     3
 72
    19
 73
    15
 74
     0
 42
0.000000001
 43
0.00000001
 40
0.0096861354978626
 40
0.0096861354978626
 40
0.0096861354978626
 40
0.0096861354978626
 40
0.0907501610598935
 40
0.1769440913990596
 40
0.2586140175873916
 40
0.3353283593324232
 40
0.4071088772836446
 40
0.4750252839015405
 40
0.5382240596869639
 40
0.5967268241624385
 40
0.70681061682414
 40
0.8103414832971785
 40
0.9075517035334798
 40
1.0
 40
1.0
 40
1.0
 40
1.0
 10
-6.836302902556679
 20
0.7499589524134018
 30
0.0
 10
-6.820577800796953
 20
0.7498430095663283
 30
0.0
 10
-6.788133137660509
 20
0.7495666776461943
 30
0.0
 10
-6.739865102482834
 20
0.7480877812895251
 30
0.0
 10
-6.692467535252534
 20
0.7458740850072434
 30
0.0
 10
-6.647957436238933
 20
0.7422638520039682
 30
0.0
 10
-6.606213653294791
 20
0.7377949939021679
 30
0.0
 10
-6.567185426695393
 20
0.732639003485781
 30
0.0
 10
-6.530973612513443
 20
0.7260969879781662
 30
0.0
 10
-6.487098934480014
 20
0.7162462043848764
 30
0.0
 10
-6.436145426952714
 20
0.702230588421733
 30
0.0
 10
-6.379461172234024
 20
0.6815925847118357
 30
0.0
 10
-6.327209102559761
 20
0.6588563648851178
 30
0.0
 10
-6.295493008918568
 20
0.6401505247550288
 30
0.0
 10
-6.280033124075669
 20
0.6310324367088613
 30
0.0
  0
SPLINE
  5
B0
330
1F
100
AcDbEntity
  8
0
  6
Continuous
 62
     7
370
    15
100
AcDbSpline
210
0.0
220
0.0
230
1.0
 70
     8
 71
     3
 72
    15
 73
    11
 74
     0
 42
0.000000001
 43
0.00000001
 40
0.0
 40
0.0
 40
0.0
 40
0.0
 40
0.1147555726946638
 40
0.2288657298149074
 40
0.3426718380148248
 40
0.4571509651366687
 40
0.5769238107718269
 40
0.7073368814712722
 40
0.8480541876830566
 40
1.0
 40
1.0
 40
1.0
 40
1.0
 10
-6.411461130404781
 20
0.4895174050632916
 30
0.0
 10
-6.426262582742879
 20
0.4975043070304068
 30
0.0
 10
-6.455782240151527
 20
0.5134331905237396
 30
0.0
 10
-6.502326736132901
 20
0.5324001544683202
 30
0.0
 10
-6.549870502229531
 20
0.5485066516014697
 30
0.0
 10
-6.59962592499014
 20
0.5599173960124546
 30
0.0
 10
-6.652354684847717
 20
0.568565948935387
 30
0.0
 10
-6.709310134844631
 20
0.5746093715391882
 30
0.0
 10
-6.771175038364309
 20
0.5785895810445436
 30
0.0
 10
-6.814045350936307
 20
0.5789347289907378
 30
0.0
 10
-6.836302902556681
 20
0.5791139240506333
 30
0.0
  0
SPLINE
  5
B1
330
1F
100
AcDbEntity
  8
0
  6
Continuous
 62
     7
370
    15
100
AcDbSpline
210
0.0
220
0.0
230
1.0
 70
     8
 71
     3
 72
    20
 73
    16
 74
     0
 42
0.000000001
 43
0.00000001
 40
0.2185360761239903
 40
0.2185360761239903
 40
0.2185360761239903
 40
0.2185360761239903
 40
0.2849882748122749
 40
0.3498219042794984
 40
0.4131116544301635
 40
0.4739880993463879
 40
0.5336784034578592
 40
0.5922316021916985
 40
0.6501675284499172
 40
0.7077633395046362
 40
0.7649118700585831
 40
0.8223194096317029
 40
0.8810367254076336
 40
0.9398790999876045
 40
1.0
 40
1.0
 40
1.0
 40
1.0
 10
-6.176846389643811
 20
0.1264833861233134
 30
0.0
 10
-6.178660649090761
 20
0.1390654489909736
 30
0.0
 10
-6.18284783541888
 20
0.1638411803822582
 30
0.0
 10
-6.191465209718065
 20
0.2000740223047196
 30
0.0
 10
-6.202061684972567
 20
0.2346671683420325
 30
0.0
 10
-6.214668754660997
 20
0.2675180193535178
 30
0.0
 10
-6.228761751705637
 20
0.2987818603784089
 30
0.0
 10
-6.245255088948401
 20
0.3282088601632071
 30
0.0
 10
-6.263360470580445
 20
0.3561801616938748
 30
0.0
 10
-6.283221907627533
 20
0.3826053890824389
 30
0.0
 10
-6.304927469847946
 20
0.4074199548832395
 30
0.0
 10
-6.32893733608288
 20
0.4303207552756108
 30
0.0
 10
-6.354593852671544
 20
0.4518279153178402
 30
0.0
 10
-6.381982741040837
 20
0.4720338879009916
 30
0.0
 10
-6.401564849488909
 20
0.4836479596502645
 30
0.0
 10
-6.411461130404783
 20
0.4895174050632916
 30
0.0
  0
SPLINE
  5
B3
330
1F
100
AcDbEntity
  8
0
  6
Continuous
 62
     7
370
    15
100
AcDbSpline
210
0.0
220
0.0
230
1.0
 70
     8
 71
     3
 72
    19
 73
    15
 74
     0
 42
0.000000001
 43
0.00000001
 40
0.0
 40
0.0
 40
0.0
 40
0.0
 40
0.1041262426546459
 40
0.2091078811380778
 40
0.3161659953852163
 40
0.4258428303362083
 40
0.4830423625591795
 40
0.5446064679504292
 40
0.609940509362992
 40
0.6797048522385012
 40
0.7534804203781967
 40
0.8312372453827347
 40
0.9135803720840006
 40
1.0
 40
1.0
 40
1.0
 40
1.0
 10
-6.282109864581998
 20
-0.630142405063291
 30
0.0
 10
-6.299326527677096
 20
-0.6403879314417416
 30
0.0
 10
-6.333901288547175
 20
-0.6609631510743931
 30
0.0
 10
-6.389623896846683
 20
-0.6855548195364572
 30
0.0
 10
-6.447866526290896
 20
-0.7064788520033879
 30
0.0
 10
-6.498822789421958
 20
-0.720098731774546
 30
0.0
 10
-6.541908535511635
 20
-0.7286291521867595
 30
0.0
 10
-6.576789460585275
 20
-0.7346777054501741
 30
0.0
 10
-6.614326351453624
 20
-0.7393103285355682
 30
0.0
 10
-6.654310207108018
 20
-0.7430206659995899
 30
0.0
 10
-6.696720287122696
 20
-0.7464970025578941
 30
0.0
 10
-6.741653488873037
 20
-0.7482744356617644
 30
0.0
 10
-6.789019128635055
 20
-0.7500197342287347
 30
0.0
 10
-6.821467090903924
 20
-0.7500066831600501
 30
0.0
 10
-6.83808296584782
 20
-0.7499999999999997
 30
0.0
  0
SPLINE
  5
B4
330
1F
100
AcDbEntity
  8
0
  6
Continuous
 62
     7
370
    15
100
AcDbSpline
210
0.0
220
0.0
230
1.0
 70
     8
 71
     3
 72
    21
 73
    17
 74
     0
 42
0.000000001
 43
0.00000001
 40
0.1659288197178183
 40
0.1659288197178183
 40
0.1659288197178183
 40
0.1659288197178183
 40
0.201600807116764
 40
0.2664344549214411
 40
0.3306313081060935
 40
0.3943489273340886
 40
0.4582034757011545
 40
0.5218741162960938
 40
0.5847278837797605
 40
0.6463012407759456
 40
0.7067104048141316
 40
0.7660361871380219
 40
0.8249090263716288
 40
0.8832907902337283
 40
0.9417735882201725
 40
1.0
 40
1.0
 40
1.0
 40
1.0
 10
-5.967774693236045
 20
-0.1235166139240831
 30
0.0
 10
-5.96897879805113
 20
-0.1322060665682131
 30
0.0
 10
-5.972736692418247
 20
-0.1566366796677599
 30
0.0
 10
-5.980705150648841
 20
-0.1963750466990541
 30
0.0
 10
-5.993244502533373
 20
-0.2421205429046828
 30
0.0
 10
-6.008481530982081
 20
-0.2867666032028989
 30
0.0
 10
-6.026077442653671
 20
-0.3304216069591946
 30
0.0
 10
-6.047026046448935
 20
-0.3723203012242967
 30
0.0
 10
-6.069615454629907
 20
-0.412717933160425
 30
0.0
 10
-6.094800274384109
 20
-0.4505817745280176
 30
0.0
 10
-6.120929618894044
 20
-0.4867453828783655
 30
0.0
 10
-6.149727300982671
 20
-0.5199627232919017
 30
0.0
 10
-6.179907014356781
 20
-0.5512108727267846
 30
0.0
 10
-6.212074795274906
 20
-0.5801209167031433
 30
0.0
 10
-6.2461318694566
 20
-0.6065411926231945
 30
0.0
 10
-6.270134776028452
 20
-0.622286864254079
 30
0.0
 10
-6.282109864581997
 20
-0.6301424050632908
 30
0.0
  0
SPLINE
  5
B6
330
1F
100
AcDbEntity
  8
0
  6
Continuous
 62
     7
370
    15
100
AcDbSpline
210
0.0
220
0.0
230
1.0
 70
     8
 71
     3
 72
    20
 73
    16
 74
     0
 42
0.000000001
 43
0.00000001
 40
0.0
 40
0.0
 40
0.0
 40
0.0
 40
0.0591644844287316
 40
0.1173525460023289
 40
0.174490034169691
 40
0.2312083938211861
 40
0.2878132838596517
 40
0.3449207575853521
 40
0.401759901813005
 40
0.4596204736526843
 40
0.5190018992695952
 40
0.5796992913092119
 40
0.6431405024864664
 40
0.7087755954010269
 40
0.7741804921846048
 40
0.7741804921846048
 40
0.7741804921846048
 40
0.7741804921846048
 10
-6.390693725341492
 20
-0.4794303797468351
 30
0.0
 10
-6.381597319106243
 20
-0.473334013471262
 30
0.0
 10
-6.363554629450701
 20
-0.4612418924850135
 30
0.0
 10
-6.338432935105245
 20
-0.4409131899216942
 30
0.0
 10
-6.31481697510827
 20
-0.419550210165645
 30
0.0
 10
-6.293092346490011
 20
-0.3966404355228594
 30
0.0
 10
-6.273206958247544
 20
-0.3721471593525221
 30
0.0
 10
-6.254763941095816
 20
-0.346509739229475
 30
0.0
 10
-6.238450090107014
 20
-0.3192003002686652
 30
0.0
 10
-6.223452521209086
 20
-0.2906766514773346
 30
0.0
 10
-6.210475450169902
 20
-0.2603855933537464
 30
0.0
 10
-6.199190668508401
 20
-0.2283507204163233
 30
0.0
 10
-6.189274769876788
 20
-0.1946388547674658
 30
0.0
 10
-6.181943583508928
 20
-0.1593943607835117
 30
0.0
 10
-6.177780103224998
 20
-0.1354994832037341
 30
0.0
 10
-6.176116605089839
 20
-0.1235166139240139
 30
0.0
  0
SPLINE
  5
B7
330
1F
100
AcDbEntity
  8
0
  6
Continuous
 62
     7
370
    15
100
AcDbSpline
210
0.0
220
0.0
230
1.0
 70
     8
 71
     3
 72
    15
 73
    11
 74
     0
 42
0.000000001
 43
0.00000001
 40
0.0
 40
0.0
 40
0.0
 40
0.0
 40
0.1498896791721587
 40
0.2897977112053561
 40
0.4205724927236391
 40
0.5419731502303212
 40
0.6581633684752947
 40
0.7725981074301659
 40
0.8860825965173236
 40
1.0
 40
1.0
 40
1.0
 40
1.0
 10
-6.836302902556681
 20
-0.5791139240506326
 30
0.0
 10
-6.813154337788958
 20
-0.5789613813266128
 30
0.0
 10
-6.768398747381223
 20
-0.5786664542007015
 30
0.0
 10
-6.703572644964074
 20
-0.5742832421201177
 30
0.0
 10
-6.643354301956823
 20
-0.5679505230037322
 30
0.0
 10
-6.587130396322019
 20
-0.5590010649057529
 30
0.0
 10
-6.534340049938883
 20
-0.5457688256521831
 30
0.0
 10
-6.483963673107397
 20
-0.5286792787084674
 30
0.0
 10
-6.43583868613769
 20
-0.5066852329337324
 30
0.0
 10
-6.405761132235003
 20
-0.488526853761815
 30
0.0
 10
-6.390693725341491
 20
-0.4794303797468351
 30
0.0
  0
SPLINE
  5
CB
330
1F
100
AcDbEntity
  8
0
  6
Continuous
 62
     7
370
    15
100
AcDbSpline
210
0.0
220
0.0
230
1.0
 70
     8
 71
     3
 72
    15
 73
    11
 74
     0
 42
0.000000001
 43
0.00000001
 40
0.0
 40
0.0
 40
0.0
 40
0.0
 40
0.1513319284937293
 40
0.293069867294964
 40
0.4247940391227071
 40
0.5487050035246485
 40
0.6656715592400181
 40
0.779017239787778
 40
0.8895904654055422
 40
0.9999999999999999
 40
0.9999999999999999
 40
0.9999999999999999
 40
0.9999999999999999
 10
-8.247003060784529
 20
0.0094936708860763
 30
0.0
 10
-8.231870275165694
 20
0.009771740646351
 30
0.0
 10
-8.202564077080078
 20
0.0103102513793708
 30
0.0
 10
-8.160122471618712
 20
0.0130070303929458
 30
0.0
 10
-8.120770052678793
 20
0.0186483324096769
 30
0.0
 10
-8.084029497495056
 20
0.0251900684596375
 30
0.0
 10
-8.050152435185051
 20
0.0358304432725748
 30
0.0
 10
-8.018717302859294
 20
0.0492383555338924
 30
0.0
 10
-7.990198129349281
 20
0.0669978847343424
 30
0.0
 10
-7.973303891123265
 20
0.0812760271316956
 30
0.0
 10
-7.964863029138959
 20
0.0884098101265827
 30
0.0
  0
LINE
  5
CC
330
1F
100
AcDbEntity
  8
0
  6
Continuous
 62
     7
370
    15
100
AcDbLine
 10
-8.1333756874
 20
-0.1613924051
 30
0.0
 11
-8.2466668266
 21
-0.1613924051
 31
0.0
  0
LINE
  5
CD
330
1F
100
AcDbEntity
  8
0
  6
Continuous
 62
     7
370
    15
100
AcDbLine
 10
-7.6308044848
 20
-0.75
 30
0.0
 11
-8.1333756874
 21
-0.1613924051
 31
0.0
  0
LINE
  5
CE
330
1F
100
AcDbEntity
  8
0
  6
Continuous
 62
     7
370
    15
100
AcDbLine
 10
-7.4023630291
 20
-0.75
 30
0.0
 11
-7.6308044848
 21
-0.75
 31
0.0
  0
LINE
  5
CF
330
1F
100
AcDbEntity
  8
0
  6
Continuous
 62
     7
370
    15
100
AcDbLine
 10
-7.9678298013
 20
-0.1014636076
 30
0.0
 11
-7.4023630291
 21
-0.75
 31
0.0
  0
LINE
  5
D0
330
1F
100
AcDbEntity
  8
0
  6
Continuous
 62
     7
370
    15
100
AcDbLine
 10
-8.2466668266
 20
0.75
 30
0.0
 11
-8.2226755291
 21
0.75
 31
0.0
  0
LINE
  5
D1
330
1F
100
AcDbEntity
  8
0
  6
Continuous
 62
     7
370
    15
100
AcDbLine
 10
-8.2466668266
 20
0.75
 30
0.0
 11
-8.2466668266
 21
0.5791139241
 31
0.0
  0
LINE
  5
D2
330
1F
100
AcDbEntity
  8
0
  6
Continuous
 62
     7
370
    15
100
AcDbLine
 10
-8.2143685671
 20
0.5791139241
 30
0.0
 11
-8.2466668266
 21
0.5791139241
 31
0.0
  0
LINE
  5
D3
330
1F
100
AcDbEntity
  8
0
  6
Continuous
 62
     7
370
    15
100
AcDbLine
 10
-8.6365402443
 20
-0.75
 30
0.0
 11
-8.6365402443
 21
0.75
 31
0.0
  0
LINE
  5
D4
330
1F
100
AcDbEntity
  8
0
  6
Continuous
 62
     7
370
    15
100
AcDbLine
 10
-8.4466668266
 20
-0.75
 30
0.0
 11
-8.6365402443
 21
-0.75
 31
0.0
  0
LINE
  5
D5
330
1F
100
AcDbEntity
  8
0
  6
Continuous
 62
     7
370
    15
100
AcDbLine
 10
-8.4466668266
 20
0.75
 30
0.0
 11
-8.4466668266
 21
-0.75
 31
0.0
  0
LINE
  5
D6
330
1F
100
AcDbEntity
  8
0
  6
Continuous
 62
     7
370
    15
100
AcDbLine
 10
-8.6365402443
 20
0.75
 30
0.0
 11
-8.4466668266
 21
0.75
 31
0.0
  0
LINE
  5
D7
330
1F
100
AcDbEntity
  8
0
  6
Continuous
 62
     7
370
    15
100
AcDbLine
 10
-9.2147641367
 20
-0.332278481
 30
0.0
 11
-9.2770663519
 21
-0.1613924051
 31
0.0
  0
LINE
  5
D8
330
1F
100
AcDbEntity
  8
0
  6
Continuous
 62
     7
370
    15
100
AcDbLine
 10
-9.0667222064
 20
-0.75
 30
0.0
 11
-9.2147641367
 21
-0.332278481
 31
0.0
  0
LINE
  5
D9
330
1F
100
AcDbEntity
  8
0
  6
Continuous
 62
     7
370
    15
100
AcDbLine
 10
-8.8643883456
 20
-0.75
 30
0.0
 11
-9.0667222064
 21
-0.75
 31
0.0
  0
LINE
  5
DA
330
1F
100
AcDbEntity
  8
0
  6
Continuous
 62
     7
370
    15
100
AcDbLine
 10
-9.4141312253
 20
0.75
 30
0.0
 11
-8.8643883456
 21
-0.75
 31
0.0
  0
LINE
  5
DB
330
1F
100
AcDbEntity
  8
0
  6
Continuous
 62
     7
370
    15
100
AcDbLine
 10
-9.4787787745
 20
0.4
 30
0.0
 11
-9.4141312253
 21
0.75
 31
0.0
  0
LINE
  5
DC
330
1F
100
AcDbEntity
  8
0
  6
Continuous
 62
     7
370
    15
100
AcDbLine
 10
-9.2770663519
 20
-0.1613924051
 30
0.0
 11
-9.4787787745
 21
0.4
 31
0.0
  0
LINE
  5
DD
330
1F
100
AcDbEntity
  8
0
  6
Continuous
 62
     7
370
    15
100
AcDbLine
 10
-10.2314769532
 20
-0.75
 30
0.0
 11
-9.6817340734
 21
0.75
 31
0.0
  0
LINE
  5
DE
330
1F
100
AcDbEntity
  8
0
  6
Continuous
 62
     7
370
    15
100
AcDbLine
 10
-10.0291430924
 20
-0.75
 30
0.0
 11
-10.2314769532
 21
-0.75
 31
0.0
  0
LINE
  5
DF
330
1F
100
AcDbEntity
  8
0
  6
Continuous
 62
     7
370
    15
100
AcDbLine
 10
-9.8811011621
 20
-0.332278481
 30
0.0
 11
-10.0291430924
 21
-0.75
 31
0.0
  0
LINE
  5
E0
330
1F
100
AcDbEntity
  8
0
  6
Continuous
 62
     7
370
    15
100
AcDbLine
 10
-9.8196889785
 20
-0.1613924051
 30
0.0
 11
-9.8811011621
 21
-0.332278481
 31
0.0
  0
LINE
  5
E1
330
1F
100
AcDbEntity
  8
0
  6
Continuous
 62
     7
370
    15
100
AcDbLine
 10
-9.617313755
 20
0.4
 30
0.0
 11
-9.8196889785
 21
-0.1613924051
 31
0.0
  0
LINE
  5
E2
330
1F
100
AcDbEntity
  8
0
  6
Continuous
 62
     7
370
    15
100
AcDbLine
 10
-9.6817340734
 20
0.75
 30
0.0
 11
-9.617313755
 21
0.4
 31
0.0
  0
LINE
  5
E3
330
1F
100
AcDbEntity
  8
0
  6
Continuous
 62
     7
370
    15
100
AcDbLine
 10
-9.6196889785
 20
-0.1613924051
 30
0.0
 11
-9.4770663519
 21
-0.1613924051
 31
0.0
  0
LINE
  5
E4
330
1F
100
AcDbEntity
  8
0
  6
Continuous
 62
     7
370
    15
100
AcDbLine
 10
-9.6811011621
 20
-0.332278481
 30
0.0
 11
-9.6196889785
 21
-0.1613924051
 31
0.0
  0
LINE
  5
E5
330
1F
100
AcDbEntity
  8
0
  6
Continuous
 62
     7
370
    15
100
AcDbLine
 10
-9.4147641367
 20
-0.332278481
 30
0.0
 11
-9.6811011621
 21
-0.332278481
 31
0.0
  0
LINE
  5
E6
330
1F
100
AcDbEntity
  8
0
  6
Continuous
 62
     7
370
    15
100
AcDbLine
 10
-9.4770663519
 20
-0.1613924051
 30
0.0
 11
-9.4147641367
 21
-0.332278481
 31
0.0
  0
LINE
  5
E7
330
1F
100
AcDbEntity
  8
0
  6
Continuous
 62
     7
370
    15
100
AcDbLine
 10
-11.1618567
 20
0.75
 30
0.0
 11
-10.8506423013
 21
-0.5090981013
 31
0.0
  0
LINE
  5
E8
330
1F
100
AcDbEntity
  8
0
  6
Continuous
 62
     7
370
    15
100
AcDbLine
 10
-11.3627071747
 20
0.75
 30
0.0
 11
-11.1618567
 21
0.75
 31
0.0
  0
LINE
  5
E9
330
1F
100
AcDbEntity
  8
0
  6
Continuous
 62
     7
370
    15
100
AcDbLine
 10
-11.6709548013
 20
-0.4972310127
 30
0.0
 11
-11.3627071747
 21
0.75
 31
0.0
  0
LINE
  5
EA
330
1F
100
AcDbEntity
  8
0
  6
Continuous
 62
     7
370
    15
100
AcDbLine
 10
-11.9910695165
 20
0.75
 30
0.0
 11
-11.6709548013
 21
-0.4972310127
 31
0.0
  0
LINE
  5
EB
330
1F
100
AcDbEntity
  8
0
  6
Continuous
 62
     7
370
    15
100
AcDbLine
 10
-12.1871731557
 20
0.75
 30
0.0
 11
-11.9910695165
 21
0.75
 31
0.0
  0
LINE
  5
EC
330
1F
100
AcDbEntity
  8
0
  6
Continuous
 62
     7
370
    15
100
AcDbLine
 10
-11.7928891367
 20
-0.75
 30
0.0
 11
-12.1871731557
 21
0.75
 31
0.0
  0
LINE
  5
ED
330
1F
100
AcDbEntity
  8
0
  6
Continuous
 62
     7
370
    15
100
AcDbLine
 10
-11.5748313836
 20
-0.75
 30
0.0
 11
-11.7928891367
 21
-0.75
 31
0.0
  0
LINE
  5
EE
330
1F
100
AcDbEntity
  8
0
  6
Continuous
 62
     7
370
    15
100
AcDbLine
 10
-11.2686604975
 20
0.4951542722
 30
0.0
 11
-11.5748313836
 21
-0.75
 31
0.0
  0
LINE
  5
EF
330
1F
100
AcDbEntity
  8
0
  6
Continuous
 62
     7
370
    15
100
AcDbLine
 10
-10.9556660355
 20
-0.75
 30
0.0
 11
-11.2686604975
 21
0.4951542722
 31
0.0
  0
LINE
  5
F0
330
1F
100
AcDbEntity
  8
0
  6
Continuous
 62
     7
370
    15
100
AcDbLine
 10
-10.7325647696
 20
-0.75
 30
0.0
 11
-10.9556660355
 21
-0.75
 31
0.0
  0
LINE
  5
F1
330
1F
100
AcDbEntity
  8
0
  6
Continuous
 62
     7
370
    15
100
AcDbLine
 10
-10.3454010038
 20
0.75
 30
0.0
 11
-10.7325647696
 21
-0.75
 31
0.0
  0
LINE
  5
F2
330
1F
100
AcDbEntity
  8
0
  6
Continuous
 62
     7
370
    15
100
AcDbLine
 10
-10.5415046431
 20
0.75
 30
0.0
 11
-10.3454010038
 21
0.75
 31
0.0
  0
LINE
  5
F3
330
1F
100
AcDbEntity
  8
0
  6
Continuous
 62
     7
370
    15
100
AcDbLine
 10
-10.8506423013
 20
-0.5090981013
 30
0.0
 11
-10.5415046431
 21
0.75
 31
0.0
  0
LINE
  5
F4
330
1F
100
AcDbEntity
  8
0
  6
Continuous
 62
     7
370
    15
100
AcDbLine
 10
-15.15
 20
-2.29000034
 30
0.0
 11
15.15
 21
-2.29000034
 31
0.0
  0
LINE
  5
F5
330
1F
100
AcDbEntity
  8
0
  6
Continuous
 62
     7
370
    15
100
AcDbLine
 10
-15.15
 20
-2.29000034
 30
0.0
 11
-13.15
 21
2.29000034
 31
0.0
  0
LINE
  5
F6
330
1F
100
AcDbEntity
  8
0
  6
Continuous
 62
     7
370
    15
100
AcDbLine
 10
13.15
 20
2.29000034
 30
0.0
 11
-13.15
 21
2.29000034
 31
0.0
  0
LINE
  5
F7
330
1F
100
AcDbEntity
  8
0
  6
Continuous
 62
     7
370
    15
100
AcDbLine
 10
13.15
 20
2.29000034
 30
0.0
 11
15.15
 21
-2.29000034
 31
0.0
  0
LINE
  5
F8
330
1F
100
AcDbEntity
  8
0
  6
Continuous
 62
     7
370
    15
100
AcDbLine
 10
6.35
 20
-0.01500034
 30
0.0
 11
6.35
 21
0.23499966
 31
0.0
  0
LINE
  5
F9
330
1F
100
AcDbEntity
  8
0
  6
Continuous
 62
     7
370
    15
100
AcDbLine
 10
7.35
 20
0.23499966
 30
0.0
 11
7.35
 21
-0.01500034
 31
0.0
  0
LINE
  5
FA
330
1F
100
AcDbEntity
  8
0
  6
Continuous
 62
     7
370
    15
100
AcDbLine
 10
-3.65
 20
-0.01500034
 30
0.0
 11
-3.65
 21
0.23499966
 31
0.0
  0
LINE
  5
FB
330
1F
100
AcDbEntity
  8
0
  6
Continuous
 62
     7
370
    15
100
AcDbLine
 10
-2.65
 20
0.23499966
 30
0.0
 11
-2.65
 21
-0.01500034
 31
0.0
  0
LINE
  5
FC
330
1F
100
AcDbEntity
  8
0
  6
Continuous
 62
     7
370
    15
100
AcDbLine
 10
-7.2124896114
 20
0.75
 30
0.0
 11
-7.0226161937
 21
0.75
 31
0.0
  0
LINE
  5
FD
330
1F
100
AcDbEntity
  8
0
  6
Continuous
 62
     7
370
    15
100
AcDbLine
 10
-7.2124896114
 20
-0.75
 30
0.0
 11
-7.2124896114
 21
0.75
 31
0.0
  0
LINE
  5
FE
330
1F
100
AcDbEntity
  8
0
  6
Continuous
 62
     7
370
    15
100
AcDbLine
 10
-7.0226161937
 20
-0.75
 30
0.0
 11
-7.2124896114
 21
-0.75
 31
0.0
  0
LINE
  5
FF
330
1F
100
AcDbEntity
  8
0
  6
Continuous
 62
     7
370
    15
100
AcDbLine
 10
-7.0226161937
 20
0.75
 30
0.0
 11
-7.0226161937
 21
-0.75
 31
0.0
  0
LINE
  5
100
330
1F
100
AcDbEntity
  8
0
  6
Continuous
 62
     7
370
    15
100
AcDbLine
 10
-6.8363029026
 20
0.7499589524
 30
0.0
 11
-6.8363029026
 21
0.5791139241
 31
0.0
  0
LINE
  5
101
330
1F
100
AcDbEntity
  8
0
  6
Continuous
 62
     7
370
    15
100
AcDbLine
 10
-5.9672819961
 20
0.1264833861
 30
0.0
 11
-6.1768463896
 21
0.1264833861
 31
0.0
  0
LINE
  5
102
330
1F
100
AcDbEntity
  8
0
  6
Continuous
 62
     7
370
    15
100
AcDbLine
 10
-6.1761166051
 20
-0.1235166139
 30
0.0
 11
-5.9677746932
 21
-0.1235166139
 31
0.0
  0
LINE
  5
103
330
1F
100
AcDbEntity
  8
0
  6
Continuous
 62
     7
370
    15
100
AcDbLine
 10
-6.8380829658
 20
-0.5791139241
 30
0.0
 11
-6.8363029026
 21
-0.5791139241
 31
0.0
  0
LINE
  5
104
330
1F
100
AcDbEntity
  8
0
  6
Continuous
 62
     7
370
    15
100
AcDbLine
 10
-6.8380829658
 20
-0.75
 30
0.0
 11
-6.8380829658
 21
-0.5791139241
 31
0.0
  0
LINE
  5
105
330
1F
100
AcDbEntity
  8
0
  6
Continuous
 62
     7
370
    15
100
AcDbLine
 10
-4.11875
 20
1.1000000012
 30
0.0
 11
-4.36875
 21
1.1000000012
 31
0.0
  0
LINE
  5
106
330
1F
100
AcDbEntity
  8
0
  6
Continuous
 62
     7
370
    15
100
AcDbLine
 10
-4.36875
 20
1.1000000012
 30
0.0
 11
-4.36875
 21
-1.0999999988
 31
0.0
  0
LINE
  5
107
330
1F
100
AcDbEntity
  8
0
  6
Continuous
 62
     7
370
    15
100
AcDbLine
 10
-4.36875
 20
-1.0999999988
 30
0.0
 11
-4.11875
 21
-1.0999999988
 31
0.0
  0
LINE
  5
108
330
1F
100
AcDbEntity
  8
0
  6
Continuous
 62
     7
370
    15
100
AcDbLine
 10
-4.11875
 20
-1.0999999988
 30
0.0
 11
-4.11875
 21
1.1000000012
 31
0.0
  0
LINE
  5
109
330
1F
100
AcDbEntity
  8
0
  6
Continuous
 62
     7
370
    15
100
AcDbLine
 10
-1.93125
 20
1.1000000012
 30
0.0
 11
-2.18125
 21
1.1000000012
 31
0.0
  0
LINE
  5
10A
330
1F
100
AcDbEntity
  8
0
  6
Continuous
 62
     7
370
    15
100
AcDbLine
 10
-2.18125
 20
1.1000000012
 30
0.0
 11
-2.18125
 21
-1.0999999988
 31
0.0
  0
LINE
  5
10B
330
1F
100
AcDbEntity
  8
0
  6
Continuous
 62
     7
370
    15
100
AcDbLine
 10
-2.18125
 20
-1.0999999988
 30
0.0
 11
-1.93125
 21
-1.0999999988
 31
0.0
  0
LINE
  5
10C
330
1F
100
AcDbEntity
  8
0
  6
Continuous
 62
     7
370
    15
100
AcDbLine
 10
-1.93125
 20
-1.0999999988
 30
0.0
 11
-1.93125
 21
1.1000000012
 31
0.0
  0
LINE
  5
10D
330
1F
100
AcDbEntity
  8
0
  6
Continuous
 62
     7
370
    15
100
AcDbLine
 10
8.06875
 20
1.1000000012
 30
0.0
 11
7.81875
 21
1.1000000012
 31
0.0
  0
LINE
  5
10E
330
1F
100
AcDbEntity
  8
0
  6
Continuous
 62
     7
370
    15
100
AcDbLine
 10
7.81875
 20
1.1000000012
 30
0.0
 11
7.81875
 21
-1.0999999988
 31
0.0
  0
LINE
  5
10F
330
1F
100
AcDbEntity
  8
0
  6
Continuous
 62
     7
370
    15
100
AcDbLine
 10
7.81875
 20
-1.0999999988
 30
0.0
 11
8.06875
 21
-1.0999999988
 31
0.0
  0
LINE
  5
110
330
1F
100
AcDbEntity
  8
0
  6
Continuous
 62
     7
370
    15
100
AcDbLine
 10
8.06875
 20
-1.0999999988
 30
0.0
 11
8.06875
 21
1.1000000012
 31
0.0
  0
LINE
  5
111
330
1F
100
AcDbEntity
  8
0
  6
Continuous
 62
     7
370
    15
100
AcDbLine
 10
5.88125
 20
1.1000000012
 30
0.0
 11
5.63125
 21
1.1000000012
 31
0.0
  0
LINE
  5
112
330
1F
100
AcDbEntity
  8
0
  6
Continuous
 62
     7
370
    15
100
AcDbLine
 10
5.63125
 20
1.1000000012
 30
0.0
 11
5.63125
 21
-1.0999999988
 31
0.0
  0
LINE
  5
113
330
1F
100
AcDbEntity
  8
0
  6
Continuous
 62
     7
370
    15
100
AcDbLine
 10
5.63125
 20
-1.0999999988
 30
0.0
 11
5.88125
 21
-1.0999999988
 31
0.0
  0
LINE
  5
114
330
1F
100
AcDbEntity
  8
0
  6
Continuous
 62
     7
370
    15
100
AcDbLine
 10
5.88125
 20
-1.0999999988
 30
0.0
 11
5.88125
 21
1.1000000012
 31
0.0
  0
LINE
  5
115
330
1F
100
AcDbEntity
  8
0
  6
Continuous
 62
     7
370
    15
100
AcDbLine
 10
-8.2466668266
 20
0.0094936709
 30
0.0
 11
-8.2466668266
 21
-0.1613924051
 31
0.0
  0
ARC
  5
116
330
1F
100
AcDbEntity
  8
0
  6
Continuous
 62
     7
370
    15
100
AcDbCircle
 10
6.85
 20
0.23499966
 30
0.0
 40
0.5000000000000009
100
AcDbArc
 50
0.0
 51
180.0
  0
ARC
  5
117
330
1F
100
AcDbEntity
  8
0
  6
Continuous
 62
     7
370
    15
100
AcDbCircle
 10
6.85
 20
-0.01500034
 30
0.0
 40
0.5000000000000009
100
AcDbArc
 50
180.0
 51
0.0
  0
ARC
  5
118
330
1F
100
AcDbEntity
  8
0
  6
Continuous
 62
     7
370
    15
100
AcDbCircle
 10
-3.15
 20
0.23499966
 30
0.0
 40
0.5000000000000009
100
AcDbArc
 50
0.0
 51
180.0
  0
ARC
  5
119
330
1F
100
AcDbEntity
  8
0
  6
Continuous
 62
     7
370
    15
100
AcDbCircle
 10
-3.15
 20
-0.01500034
 30
0.0
 40
0.5000000000000009
100
AcDbArc
 50
180.0
 51
0.0
  0
ENDSEC
  0
SECTION
  2
OBJECTS
  0
DICTIONARY
  5
C
330
0
100
AcDbDictionary
281
     1
  3
ACAD_GROUP
350
D
  3
ACAD_LAYOUT
350
1A
  3
ACAD_MLINESTYLE
350
17
  3
ACAD_PLOTSETTINGS
350
19
  3
ACAD_PLOTSTYLENAME
350
E
  3
ACAD_SCALELIST
350
47
  0
DICTIONARY
  5
D
102
{ACAD_REACTORS
330
C
102
}
330
C
100
AcDbDictionary
281
     1
  0
DICTIONARY
  5
1A
102
{ACAD_REACTORS
330
C
102
}
330
C
100
AcDbDictionary
281
     1
  3
Layout1
350
1E
  3
Layout2
350
26
  3
Model
350
22
  0
DICTIONARY
  5
17
102
{ACAD_REACTORS
330
C
102
}
330
C
100
AcDbDictionary
281
     1
  3
Standard
350
18
  0
DICTIONARY
  5
19
102
{ACAD_REACTORS
330
C
102
}
330
C
100
AcDbDictionary
281
     1
  0
ACDBDICTIONARYWDFLT
  5
E
102
{ACAD_REACTORS
330
C
102
}
330
C
100
AcDbDictionary
281
     1
  3
Normal
350
F
100
AcDbDictionaryWithDefault
340
F
  0
DICTIONARY
  5
47
102
{ACAD_REACTORS
330
C
102
}
330
C
100
AcDbDictionary
281
     1
  3
A0
350
48
  3
A1
350
49
  3
A2
350
4A
  3
A3
350
4B
  3
A4
350
4C
  3
A5
350
4D
  3
A6
350
4E
  3
A7
350
4F
  3
A8
350
50
  3
A9
350
51
  3
B0
350
52
  3
B1
350
53
  3
B2
350
54
  3
B3
350
55
  3
B4
350
56
  3
B5
350
57
  3
B6
350
58
  3
B7
350
59
  3
B8
350
5A
  3
B9
350
5B
  3
C0
350
5C
  3
C1
350
5D
  3
C2
350
5E
  3
C3
350
5F
  3
C4
350
60
  3
C5
350
61
  3
C6
350
62
  3
C7
350
63
  3
C8
350
64
  3
C9
350
65
  3
D0
350
66
  3
D1
350
67
  3
D2
350
68
  0
LAYOUT
  5
1E
102
{ACAD_REACTORS
330
1A
102
}
330
1A
100
AcDbPlotSettings
  1

  2
none_device
  4

  6

 40
0.0
 41
0.0
 42
0.0
 43
0.0
 44
0.0
 45
0.0
 46
0.0
 47
0.0
 48
0.0
 49
0.0
140
0.0
141
0.0
142
1.0
143
1.0
 70
   688
 72
     0
 73
     0
 74
     5
  7

 75
    16
147
1.0
148
0.0
149
0.0
100
AcDbLayout
  1
Layout1
 70
     1
 71
     1
 10
0.0
 20
0.0
 11
12.0
 21
9.0
 12
0.0
 22
0.0
 32
0.0
 14
1.0000000000E+20
 24
1.0000000000E+20
 34
1.0000000000E+20
 15
-1.0000000000E+20
 25
-1.0000000000E+20
 35
-1.0000000000E+20
146
0.0
 13
0.0
 23
0.0
 33
0.0
 16
1.0
 26
0.0
 36
0.0
 17
0.0
 27
1.0
 37
0.0
 76
     0
330
1B
  0
LAYOUT
  5
26
102
{ACAD_REACTORS
330
1A
102
}
330
1A
100
AcDbPlotSettings
  1

  2
none_device
  4

  6

 40
0.0
 41
0.0
 42
0.0
 43
0.0
 44
0.0
 45
0.0
 46
0.0
 47
0.0
 48
0.0
 49
0.0
140
0.0
141
0.0
142
1.0
143
1.0
 70
   688
 72
     0
 73
     0
 74
     5
  7

 75
    16
147
1.0
148
0.0
149
0.0
100
AcDbLayout
  1
Layout2
 70
     1
 71
     2
 10
0.0
 20
0.0
 11
0.0
 21
0.0
 12
0.0
 22
0.0
 32
0.0
 14
0.0
 24
0.0
 34
0.0
 15
0.0
 25
0.0
 35
0.0
146
0.0
 13
0.0
 23
0.0
 33
0.0
 16
1.0
 26
0.0
 36
0.0
 17
0.0
 27
1.0
 37
0.0
 76
     0
330
23
  0
LAYOUT
  5
22
102
{ACAD_REACTORS
330
1A
102
}
330
1A
100
AcDbPlotSettings
  1

  2
none_device
  4
ANSI_A_(11.00_x_8.50_Inches)
  6

 40
6.35
 41
19.05
 42
6.35000508
 43
19.05000254
 44
279.4
 45
215.9
 46
133.34999746
 47
88.89999873
 48
0.0
 49
0.0
140
0.0
141
0.0
142
0.3594059406
143
1.0
 70
  1696
 72
     0
 73
     0
 74
     0
  7

 75
     0
147
0.5913241897
148
-39.4088153714
149
0.0
100
AcDbLayout
  1
Model
 70
     1
 71
     0
 10
0.0
 20
0.0
 11
12.0
 21
9.0
 12
0.0
 22
0.0
 32
0.0
 14
-15.15
 24
-2.29000034
 34
0.0
 15
15.15
 25
2.29000034
 35
0.0
146
0.0
 13
0.0
 23
0.0
 33
0.0
 16
1.0
 26
0.0
 36
0.0
 17
0.0
 27
1.0
 37
0.0
 76
     0
330
1F
331
29
  0
MLINESTYLE
  5
18
102
{ACAD_REACTORS
330
17
102
}
330
17
100
AcDbMlineStyle
  2
Standard
 70
     0
  3

 62
   256
 51
90.0
 52
90.0
 71
     2
 49
0.5
 62
   256
  6
BYLAYER
 49
-0.5
 62
   256
  6
BYLAYER
  0
ACDBPLACEHOLDER
  5
F
102
{ACAD_REACTORS
330
E
102
}
330
E
  0
SCALE
  5
48
102
{ACAD_REACTORS
330
47
102
}
330
47
100
AcDbScale
 70
     0
300
1:1
140
1.0
141
1.0
290
     1
  0
SCALE
  5
49
102
{ACAD_REACTORS
330
47
102
}
330
47
100
AcDbScale
 70
     0
300
1:2
140
1.0
141
2.0
290
     0
  0
SCALE
  5
4A
102
{ACAD_REACTORS
330
47
102
}
330
47
100
AcDbScale
 70
     0
300
1:4
140
1.0
141
4.0
290
     0
  0
SCALE
  5
4B
102
{ACAD_REACTORS
330
47
102
}
330
47
100
AcDbScale
 70
     0
300
1:5
140
1.0
141
5.0
290
     0
  0
SCALE
  5
4C
102
{ACAD_REACTORS
330
47
102
}
330
47
100
AcDbScale
 70
     0
300
1:8
140
1.0
141
8.0
290
     0
  0
SCALE
  5
4D
102
{ACAD_REACTORS
330
47
102
}
330
47
100
AcDbScale
 70
     0
300
1:10
140
1.0
141
10.0
290
     0
  0
SCALE
  5
4E
102
{ACAD_REACTORS
330
47
102
}
330
47
100
AcDbScale
 70
     0
300
1:16
140
1.0
141
16.0
290
     0
  0
SCALE
  5
4F
102
{ACAD_REACTORS
330
47
102
}
330
47
100
AcDbScale
 70
     0
300
1:20
140
1.0
141
20.0
290
     0
  0
SCALE
  5
50
102
{ACAD_REACTORS
330
47
102
}
330
47
100
AcDbScale
 70
     0
300
1:30
140
1.0
141
30.0
290
     0
  0
SCALE
  5
51
102
{ACAD_REACTORS
330
47
102
}
330
47
100
AcDbScale
 70
     0
300
1:40
140
1.0
141
40.0
290
     0
  0
SCALE
  5
52
102
{ACAD_REACTORS
330
47
102
}
330
47
100
AcDbScale
 70
     0
300
1:50
140
1.0
141
50.0
290
     0
  0
SCALE
  5
53
102
{ACAD_REACTORS
330
47
102
}
330
47
100
AcDbScale
 70
     0
300
1:100
140
1.0
141
100.0
290
     0
  0
SCALE
  5
54
102
{ACAD_REACTORS
330
47
102
}
330
47
100
AcDbScale
 70
     0
300
2:1
140
2.0
141
1.0
290
     0
  0
SCALE
  5
55
102
{ACAD_REACTORS
330
47
102
}
330
47
100
AcDbScale
 70
     0
300
4:1
140
4.0
141
1.0
290
     0
  0
SCALE
  5
56
102
{ACAD_REACTORS
330
47
102
}
330
47
100
AcDbScale
 70
     0
300
8:1
140
8.0
141
1.0
290
     0
  0
SCALE
  5
57
102
{ACAD_REACTORS
330
47
102
}
330
47
100
AcDbScale
 70
     0
300
10:1
140
10.0
141
1.0
290
     0
  0
SCALE
  5
58
102
{ACAD_REACTORS
330
47
102
}
330
47
100
AcDbScale
 70
     0
300
100:1
140
100.0
141
1.0
290
     0
  0
SCALE
  5
59
102
{ACAD_REACTORS
330
47
102
}
330
47
100
AcDbScale
 70
     0
300
1/128" = 1'-0"
140
0.0078125
141
12.0
290
     0
  0
SCALE
  5
5A
102
{ACAD_REACTORS
330
47
102
}
330
47
100
AcDbScale
 70
     0
300
1/64" = 1'-0"
140
0.015625
141
12.0
290
     0
  0
SCALE
  5
5B
102
{ACAD_REACTORS
330
47
102
}
330
47
100
AcDbScale
 70
     0
300
1/32" = 1'-0"
140
0.03125
141
12.0
290
     0
  0
SCALE
  5
5C
102
{ACAD_REACTORS
330
47
102
}
330
47
100
AcDbScale
 70
     0
300
1/16" = 1'-0"
140
0.0625
141
12.0
290
     0
  0
SCALE
  5
5D
102
{ACAD_REACTORS
330
47
102
}
330
47
100
AcDbScale
 70
     0
300
3/32" = 1'-0"
140
0.09375
141
12.0
290
     0
  0
SCALE
  5
5E
102
{ACAD_REACTORS
330
47
102
}
330
47
100
AcDbScale
 70
     0
300
1/8" = 1'-0"
140
0.125
141
12.0
290
     0
  0
SCALE
  5
5F
102
{ACAD_REACTORS
330
47
102
}
330
47
100
AcDbScale
 70
     0
300
3/16" = 1'-0"
140
0.1875
141
12.0
290
     0
  0
SCALE
  5
60
102
{ACAD_REACTORS
330
47
102
}
330
47
100
AcDbScale
 70
     0
300
1/4" = 1'-0"
140
0.25
141
12.0
290
     0
  0
SCALE
  5
61
102
{ACAD_REACTORS
330
47
102
}
330
47
100
AcDbScale
 70
     0
300
3/8" = 1'-0"
140
0.375
141
12.0
290
     0
  0
SCALE
  5
62
102
{ACAD_REACTORS
330
47
102
}
330
47
100
AcDbScale
 70
     0
300
1/2" = 1'-0"
140
0.5
141
12.0
290
     0
  0
SCALE
  5
63
102
{ACAD_REACTORS
330
47
102
}
330
47
100
AcDbScale
 70
     0
300
3/4" = 1'-0"
140
0.75
141
12.0
290
     0
  0
SCALE
  5
64
102
{ACAD_REACTORS
330
47
102
}
330
47
100
AcDbScale
 70
     0
300
1" = 1'-0"
140
1.0
141
12.0
290
     0
  0
SCALE
  5
65
102
{ACAD_REACTORS
330
47
102
}
330
47
100
AcDbScale
 70
     0
300
1-1/2" = 1'-0"
140
1.5
141
12.0
290
     0
  0
SCALE
  5
66
102
{ACAD_REACTORS
330
47
102
}
330
47
100
AcDbScale
 70
     0
300
3" = 1'-0"
140
3.0
141
12.0
290
     0
  0
SCALE
  5
67
102
{ACAD_REACTORS
330
47
102
}
330
47
100
AcDbScale
 70
     0
300
6" = 1'-0"
140
6.0
141
12.0
290
     0
  0
SCALE
  5
68
102
{ACAD_REACTORS
330
47
102
}
330
47
100
AcDbScale
 70
     0
300
1'-0" = 1'-0"
140
12.0
141
12.0
290
     0
  0
ENDSEC
  0
EOF
