  0
SECTION
  2
HEADER
  9
$ACADVER
  1
AC1015
  9
$ACADMAINTVER
 70
     6
  9
$DWGCODEPAGE
  3
ANSI_1252
  9
$INSBASE
 10
0.0
 20
0.0
 30
0.0
  9
$EXTMIN
 10
0.0
 20
0.0
 30
0.0
  9
$EXTMAX
 10
11.0
 20
8.5
 30
0.0
  9
$LIMMIN
 10
0.0
 20
0.0
  9
$LIMMAX
 10
11.0
 20
8.5
  9
$ORTHOMODE
 70
     0
  9
$REGENMODE
 70
     1
  9
$FILLMODE
 70
     1
  9
$QTEXTMODE
 70
     0
  9
$MIRRTEXT
 70
     1
  9
$LTSCALE
 40
1.0
  9
$ATTMODE
 70
     1
  9
$TEXTSIZE
 40
0.1377952756
  9
$TRACEWID
 40
0.05
  9
$TEXTSTYLE
  7
Standard
  9
$CLAYER
  8
0
  9
$CELTYPE
  6
ByLayer
  9
$CECOLOR
 62
   256
  9
$CELTSCALE
 40
1.0
  9
$DISPSILH
 70
     0
  9
$DIMSCALE
 40
1.0
  9
$DIMASZ
 40
0.13
  9
$DIMEXO
 40
0.0393700787
  9
$DIMDLI
 40
0.38
  9
$DIMRND
 40
0.0
  9
$DIMDLE
 40
0.0
  9
$DIMEXE
 40
0.0393700787
  9
$DIMTP
 40
0.0
  9
$DIMTM
 40
0.0
  9
$DIMTXT
 40
0.1377952756
  9
$DIMCEN
 40
0.09
  9
$DIMTSZ
 40
0.0
  9
$DIMTOL
 70
     0
  9
$DIMLIM
 70
     0
  9
$DIMTIH
 70
     1
  9
$DIMTOH
 70
     1
  9
$DIMSE1
 70
     0
  9
$DIMSE2
 70
     0
  9
$DIMTAD
 70
     1
  9
$DIMZIN
 70
     0
  9
$DIMBLK
  1

  9
$DIMASO
 70
     1
  9
$DIMSHO
 70
     1
  9
$DIMPOST
  1

  9
$DIMAPOST
  1

  9
$DIMALT
 70
     0
  9
$DIMALTD
 70
     2
  9
$DIMALTF
 40
25.4
  9
$DIMLFAC
 40
1.0
  9
$DIMTOFL
 70
     0
  9
$DIMTVP
 40
0.0
  9
$DIMTIX
 70
     0
  9
$DIMSOXD
 70
     0
  9
$DIMSAH
 70
     0
  9
$DIMBLK1
  1

  9
$DIMBLK2
  1

  9
$DIMSTYLE
  2
Standard
  9
$DIMCLRD
 70
     0
  9
$DIMCLRE
 70
     0
  9
$DIMCLRT
 70
     0
  9
$DIMTFAC
 40
1.0
  9
$DIMGAP
 40
0.06
  9
$DIMJUST
 70
     0
  9
$DIMSD1
 70
     0
  9
$DIMSD2
 70
     0
  9
$DIMTOLJ
 70
     1
  9
$DIMTZIN
 70
     0
  9
$DIMALTZ
 70
     0
  9
$DIMALTTZ
 70
     0
  9
$DIMUPT
 70
     0
  9
$DIMDEC
 70
     3
  9
$DIMTDEC
 70
     3
  9
$DIMALTU
 70
     2
  9
$DIMALTTD
 70
     2
  9
$DIMTXSTY
  7
Standard
  9
$DIMAUNIT
 70
     0
  9
$DIMADEC
 70
     2
  9
$DIMALTRND
 40
0.0
  9
$DIMAZIN
 70
     0
  9
$DIMDSEP
 70
    46
  9
$DIMATFIT
 70
     3
  9
$DIMFRAC
 70
     0
  9
$DIMLDRBLK
  1

  9
$DIMLUNIT
 70
     2
  9
$DIMLWD
 70
    -2
  9
$DIMLWE
 70
    -2
  9
$DIMTMOVE
 70
     0
  9
$LUNITS
 70
     2
  9
$LUPREC
 70
     3
  9
$SKETCHINC
 40
0.1
  9
$FILLETRAD
 40
0.5
  9
$AUNITS
 70
     0
  9
$AUPREC
 70
     2
  9
$MENU
  1
.
  9
$ELEVATION
 40
0.0
  9
$PELEVATION
 40
0.0
  9
$THICKNESS
 40
0.0
  9
$LIMCHECK
 70
     0
  9
$CHAMFERA
 40
0.5
  9
$CHAMFERB
 40
0.5
  9
$CHAMFERC
 40
1.0
  9
$CHAMFERD
 40
0.0
  9
$SKPOLY
 70
     0
  9
$TDCREATE
 40
2456947.484106667
  9
$TDUCREATE
 40
2456947.734106667
  9
$TDUPDATE
 40
2456947.484118947
  9
$TDUUPDATE
 40
2456947.734118947
  9
$TDINDWG
 40
0.0000000116
  9
$TDUSRTIMER
 40
0.0000000116
  9
$USRTIMER
 70
     1
  9
$ANGBASE
 50
0.0
  9
$ANGDIR
 70
     0
  9
$PDMODE
 70
     0
  9
$PDSIZE
 40
-1.0
  9
$PLINEWID
 40
0.0
  9
$SPLFRAME
 70
     0
  9
$SPLINETYPE
 70
     6
  9
$SPLINESEGS
 70
     8
  9
$HANDSEED
  5
F2
  9
$SURFTAB1
 70
     6
  9
$SURFTAB2
 70
     6
  9
$SURFTYPE
 70
     6
  9
$SURFU
 70
     6
  9
$SURFV
 70
     6
  9
$UCSBASE
  2

  9
$UCSNAME
  2

  9
$UCSORG
 10
0.0
 20
0.0
 30
0.0
  9
$UCSXDIR
 10
1.0
 20
0.0
 30
0.0
  9
$UCSYDIR
 10
0.0
 20
1.0
 30
0.0
  9
$UCSORTHOREF
  2

  9
$UCSORTHOVIEW
 70
     0
  9
$UCSORGTOP
 10
0.0
 20
0.0
 30
0.0
  9
$UCSORGBOTTOM
 10
0.0
 20
0.0
 30
0.0
  9
$UCSORGLEFT
 10
0.0
 20
0.0
 30
0.0
  9
$UCSORGRIGHT
 10
0.0
 20
0.0
 30
0.0
  9
$UCSORGFRONT
 10
0.0
 20
0.0
 30
0.0
  9
$UCSORGBACK
 10
0.0
 20
0.0
 30
0.0
  9
$PUCSBASE
  2

  9
$PUCSNAME
  2

  9
$PUCSORG
 10
0.0
 20
0.0
 30
0.0
  9
$PUCSXDIR
 10
1.0
 20
0.0
 30
0.0
  9
$PUCSYDIR
 10
0.0
 20
1.0
 30
0.0
  9
$PUCSORTHOREF
  2

  9
$PUCSORTHOVIEW
 70
     0
  9
$PUCSORGTOP
 10
0.0
 20
0.0
 30
0.0
  9
$PUCSORGBOTTOM
 10
0.0
 20
0.0
 30
0.0
  9
$PUCSORGLEFT
 10
0.0
 20
0.0
 30
0.0
  9
$PUCSORGRIGHT
 10
0.0
 20
0.0
 30
0.0
  9
$PUCSORGFRONT
 10
0.0
 20
0.0
 30
0.0
  9
$PUCSORGBACK
 10
0.0
 20
0.0
 30
0.0
  9
$USERI1
 70
     0
  9
$USERI2
 70
     0
  9
$USERI3
 70
     0
  9
$USERI4
 70
     0
  9
$USERI5
 70
     0
  9
$USERR1
 40
0.0
  9
$USERR2
 40
0.0
  9
$USERR3
 40
0.0
  9
$USERR4
 40
0.0
  9
$USERR5
 40
0.0
  9
$WORLDVIEW
 70
     1
  9
$SHADEDGE
 70
     3
  9
$SHADEDIF
 70
    70
  9
$TILEMODE
 70
     1
  9
$MAXACTVP
 70
    64
  9
$PINSBASE
 10
0.0
 20
0.0
 30
0.0
  9
$PLIMCHECK
 70
     0
  9
$PEXTMIN
 10
1.0000000000E+20
 20
1.0000000000E+20
 30
1.0000000000E+20
  9
$PEXTMAX
 10
-1.0000000000E+20
 20
-1.0000000000E+20
 30
-1.0000000000E+20
  9
$PLIMMIN
 10
0.0
 20
0.0
  9
$PLIMMAX
 10
12.0
 20
9.0
  9
$UNITMODE
 70
     0
  9
$VISRETAIN
 70
     1
  9
$PLINEGEN
 70
     0
  9
$PSLTSCALE
 70
     1
  9
$TREEDEPTH
 70
  3020
  9
$CMLSTYLE
  2
Standard
  9
$CMLJUST
 70
     0
  9
$CMLSCALE
 40
1.0
  9
$PROXYGRAPHICS
 70
     1
  9
$MEASUREMENT
 70
     0
  9
$CELWEIGHT
370
    -1
  9
$ENDCAPS
280
     0
  9
$JOINSTYLE
280
     0
  9
$LWDISPLAY
290
     1
  9
$INSUNITS
 70
     1
  9
$HYPERLINKBASE
  1

  9
$STYLESHEET
  1

  9
$XEDIT
290
     1
  9
$CEPSNTYPE
380
     0
  9
$PSTYLEMODE
290
     1
  9
$FINGERPRINTGUID
  2
{276A2EA8-1AC7-4BB5-B8E3-E299F760166C}
  9
$VERSIONGUID
  2
{FAEB1C32-E019-11D5-929B-00C0DF256EC4}
  9
$EXTNAMES
290
     1
  9
$PSVPSCALE
 40
0.0
  9
$OLESTARTUP
290
     0
  0
ENDSEC
  0
SECTION
  2
CLASSES
  0
CLASS
  1
ACDBDICTIONARYWDFLT
  2
AcDbDictionaryWithDefault
  3
ObjectDBX Classes
 90
        0
280
     0
281
     0
  0
CLASS
  1
VISUALSTYLE
  2
AcDbVisualStyle
  3
ObjectDBX Classes
 90
     4095
280
     0
281
     0
  0
CLASS
  1
MATERIAL
  2
AcDbMaterial
  3
ObjectDBX Classes
 90
     1153
280
     0
281
     0
  0
CLASS
  1
ACDBPLACEHOLDER
  2
AcDbPlaceHolder
  3
ObjectDBX Classes
 90
        0
280
     0
281
     0
  0
CLASS
  1
LAYOUT
  2
AcDbLayout
  3
ObjectDBX Classes
 90
        0
280
     0
281
     0
  0
ENDSEC
  0
SECTION
  2
TABLES
  0
TABLE
  2
VPORT
  5
8
330
0
100
AcDbSymbolTable
 70
     1
  0
VPORT
  5
29
330
8
100
AcDbSymbolTableRecord
100
AcDbViewportTableRecord
  2
*Active
 70
     0
 10
0.0
 20
0.0
 11
1.0
 21
1.0
 12
5.5
 22
4.25
 13
0.0
 23
0.0
 14
0.5
 24
0.5
 15
0.5
 25
0.5
 16
0.0
 26
0.0
 36
1.0
 17
0.0
 27
0.0
 37
0.0
 40
8.5
 41
1.2941176471
 42
50.0
 43
0.0
 44
0.0
 50
0.0
 51
0.0
 71
     0
 72
  2000
 73
     1
 74
     3
 75
     0
 76
     0
 77
     0
 78
     0
281
     0
 65
     1
110
0.0
120
0.0
130
0.0
111
1.0
121
0.0
131
0.0
112
0.0
122
1.0
132
0.0
 79
     0
146
0.0
  0
ENDTAB
  0
TABLE
  2
LTYPE
  5
5
330
0
100
AcDbSymbolTable
 70
     6
  0
LTYPE
  5
14
330
5
100
AcDbSymbolTableRecord
100
AcDbLinetypeTableRecord
  2
ByBlock
 70
     0
  3

 72
    65
 73
     0
 40
0.0
  0
LTYPE
  5
15
330
5
100
AcDbSymbolTableRecord
100
AcDbLinetypeTableRecord
  2
ByLayer
 70
     0
  3

 72
    65
 73
     0
 40
0.0
  0
LTYPE
  5
16
330
5
100
AcDbSymbolTableRecord
100
AcDbLinetypeTableRecord
  2
Continuous
 70
     0
  3
Solid line
 72
    65
 73
     0
 40
0.0
  0
LTYPE
  5
3F
330
5
100
AcDbSymbolTableRecord
100
AcDbLinetypeTableRecord
  2
HIDDEN
 70
     0
  3
Hidden __ __ __ __ __ __ __ __ __ __ __ __ __ __
 72
    65
 73
     2
 40
0.075
 49
0.05
 74
     0
 49
-0.025
 74
     0
  0
LTYPE
  5
40
330
5
100
AcDbSymbolTableRecord
100
AcDbLinetypeTableRecord
  2
PHANTOM
 70
     0
  3
Phantom ______  __  __  ______  __  __  ______
 72
    65
 73
     6
 40
0.5
 49
0.25
 74
     0
 49
-0.05
 74
     0
 49
0.05
 74
     0
 49
-0.05
 74
     0
 49
0.05
 74
     0
 49
-0.05
 74
     0
  0
LTYPE
  5
41
330
5
100
AcDbSymbolTableRecord
100
AcDbLinetypeTableRecord
  2
CENTER
 70
     0
  3
Center ____ _ ____ _ ____ _ ____ _ ____ _ ____
 72
    65
 73
     4
 40
0.4
 49
0.25
 74
     0
 49
-0.05
 74
     0
 49
0.05
 74
     0
 49
-0.05
 74
     0
  0
LTYPE
  5
42
330
5
100
AcDbSymbolTableRecord
100
AcDbLinetypeTableRecord
  2
CENTERX2
 70
     0
  3
Center (2x) ________  __  ________  __  _____
 72
    65
 73
     4
 40
0.8
 49
0.5
 74
     0
 49
-0.1
 74
     0
 49
0.1
 74
     0
 49
-0.1
 74
     0
  0
LTYPE
  5
43
330
5
100
AcDbSymbolTableRecord
100
AcDbLinetypeTableRecord
  2
DOT2
 70
     0
  3
Dot (.5x) ........................................
 72
    65
 73
     2
 40
0.025
 49
0.0
 74
     0
 49
-0.025
 74
     0
  0
ENDTAB
  0
TABLE
  2
LAYER
  5
2
330
0
100
AcDbSymbolTable
 70
     2
  0
LAYER
  5
10
330
2
100
AcDbSymbolTableRecord
100
AcDbLayerTableRecord
  2
0
 70
     0
 62
     7
  6
Continuous
370
    -3
390
F
  0
LAYER
  5
44
330
2
100
AcDbSymbolTableRecord
100
AcDbLayerTableRecord
  2
FORMAT
 70
     0
 62
     7
  6
Continuous
370
    -3
390
F
  0
ENDTAB
  0
TABLE
  2
STYLE
  5
3
330
0
100
AcDbSymbolTable
 70
     5
  0
STYLE
  5
11
330
3
100
AcDbSymbolTableRecord
100
AcDbTextStyleTableRecord
  2
Standard
 70
     0
 40
0.0
 41
1.0
 50
0.0
 71
     0
 42
0.1377952756
  3
txt
  4

  0
STYLE
  5
73
330
3
100
AcDbSymbolTableRecord
100
AcDbTextStyleTableRecord
  2
SLDTEXTSTYLE0
 70
     0
 40
0.0
 41
0.75
 50
0.0
 71
     0
 42
0.2
  3
TXT
  4

  0
STYLE
  5
B5
330
3
100
AcDbSymbolTableRecord
100
AcDbTextStyleTableRecord
  2
SLDTEXTSTYLE1
 70
     0
 40
0.0
 41
0.6875
 50
0.0
 71
     0
 42
0.2
  3
TXT
  4

  0
STYLE
  5
BA
330
3
100
AcDbSymbolTableRecord
100
AcDbTextStyleTableRecord
  2
SLDTEXTSTYLE2
 70
     0
 40
0.0
 41
0.6944444444
 50
0.0
 71
     0
 42
0.2
  3
TXT
  4

  0
STYLE
  5
EB
330
3
100
AcDbSymbolTableRecord
100
AcDbTextStyleTableRecord
  2
SLDTEXTSTYLE3
 70
     0
 40
0.0
 41
0.7
 50
0.0
 71
     0
 42
0.2
  3
TXT
  4

  0
ENDTAB
  0
TABLE
  2
VIEW
  5
6
330
0
100
AcDbSymbolTable
 70
     0
  0
ENDTAB
  0
TABLE
  2
UCS
  5
7
330
0
100
AcDbSymbolTable
 70
     0
  0
ENDTAB
  0
TABLE
  2
APPID
  5
9
330
0
100
AcDbSymbolTable
 70
     1
  0
APPID
  5
12
330
9
100
AcDbSymbolTableRecord
100
AcDbRegAppTableRecord
  2
ACAD
 70
     0
  0
ENDTAB
  0
TABLE
  2
DIMSTYLE
  5
A
330
0
100
AcDbSymbolTable
 70
     4
100
AcDbDimStyleTable
  0
DIMSTYLE
105
27
330
A
100
AcDbSymbolTableRecord
100
AcDbDimStyleTableRecord
  2
Standard
 70
     0
178
     0
340
11
  0
DIMSTYLE
105
74
102
{ACAD_REACTORS
330
72
102
}
330
A
100
AcDbSymbolTableRecord
100
AcDbDimStyleTableRecord
  2
SLDDIMSTYLE0
 70
     0
 41
0.13
 44
0.0
 45
0.000000001
 73
     0
 74
     0
 77
     1
 78
     4
 79
     1
140
0.1377952756
147
0.0344488189
172
     1
173
     1
178
     0
271
     3
272
     3
276
     2
284
    12
289
     0
340
73
  0
DIMSTYLE
105
81
102
{ACAD_REACTORS
330
80
330
9A
330
A6
102
}
330
A
100
AcDbSymbolTableRecord
100
AcDbDimStyleTableRecord
  2
SLDDIMSTYLE1
 70
     0
 41
0.13
 44
0.0
 45
0.000000001
 73
     0
 74
     0
 77
     1
 78
    12
 79
     3
140
0.1377952756
147
0.0344488189
172
     1
173
     1
178
     0
271
     3
272
     3
276
     2
284
    12
289
     0
340
73
  0
DIMSTYLE
105
8E
102
{ACAD_REACTORS
330
8D
102
}
330
A
100
AcDbSymbolTableRecord
100
AcDbDimStyleTableRecord
  2
SLDDIMSTYLE2
 70
     0
 41
0.13
 44
0.0
 45
0.000000001
 73
     0
 74
     0
 77
     1
 78
    12
 79
     3
140
0.1377952756
141
0.0
147
0.0344488189
172
     1
173
     1
178
     0
271
     3
272
     3
276
     2
284
    12
340
73
341
8F
343
8F
  0
ENDTAB
  0
TABLE
  2
BLOCK_RECORD
  5
1
330
0
100
AcDbSymbolTable
 70
    10
  0
BLOCK_RECORD
  5
1F
330
1
100
AcDbSymbolTableRecord
100
AcDbBlockTableRecord
  2
*Model_Space
340
22
  0
BLOCK_RECORD
  5
1B
330
1
100
AcDbSymbolTableRecord
100
AcDbBlockTableRecord
  2
*Paper_Space
340
1E
  0
BLOCK_RECORD
  5
23
330
1
100
AcDbSymbolTableRecord
100
AcDbBlockTableRecord
  2
*Paper_Space0
340
26
  0
BLOCK_RECORD
  5
75
330
1
100
AcDbSymbolTableRecord
100
AcDbBlockTableRecord
  2
_D
340
0
  0
BLOCK_RECORD
  5
82
330
1
100
AcDbSymbolTableRecord
100
AcDbBlockTableRecord
  2
_D_1
340
0
  0
BLOCK_RECORD
  5
8F
330
1
100
AcDbSymbolTableRecord
100
AcDbBlockTableRecord
  2
_NONE
340
0
  0
BLOCK_RECORD
  5
92
330
1
100
AcDbSymbolTableRecord
100
AcDbBlockTableRecord
  2
_D_2
340
0
  0
BLOCK_RECORD
  5
9B
330
1
100
AcDbSymbolTableRecord
100
AcDbBlockTableRecord
  2
_D_3
340
0
  0
BLOCK_RECORD
  5
A7
330
1
100
AcDbSymbolTableRecord
100
AcDbBlockTableRecord
  2
_D_4
340
0
  0
BLOCK_RECORD
  5
C9
330
1
100
AcDbSymbolTableRecord
100
AcDbBlockTableRecord
  2
SW_NOTE_0
340
0
102
{BLKREFS
331
D2
102
}
  0
BLOCK_RECORD
  5
D8
330
1
100
AcDbSymbolTableRecord
100
AcDbBlockTableRecord
  2
SW_NOTE_1
340
0
102
{BLKREFS
331
E7
102
}
  0
BLOCK_RECORD
  5
E8
330
1
100
AcDbSymbolTableRecord
100
AcDbBlockTableRecord
  2
SW_NOTE_2
340
0
102
{BLKREFS
331
F0
102
}
  0
ENDTAB
  0
ENDSEC
  0
SECTION
  2
BLOCKS
  0
BLOCK
  5
20
330
1F
100
AcDbEntity
  8
0
100
AcDbBlockBegin
  2
*Model_Space
 70
     0
 10
0.0
 20
0.0
 30
0.0
  3
*Model_Space
  1

  0
ENDBLK
  5
21
330
1F
100
AcDbEntity
  8
0
100
AcDbBlockEnd
  0
BLOCK
  5
1C
330
1B
100
AcDbEntity
 67
     1
  8
0
100
AcDbBlockBegin
  2
*Paper_Space
 70
     0
 10
0.0
 20
0.0
 30
0.0
  3
*Paper_Space
  1

  0
ENDBLK
  5
1D
330
1B
100
AcDbEntity
 67
     1
  8
0
100
AcDbBlockEnd
  0
BLOCK
  5
24
330
23
100
AcDbEntity
  8
0
100
AcDbBlockBegin
  2
*Paper_Space0
 70
     0
 10
0.0
 20
0.0
 30
0.0
  3
*Paper_Space0
  1

  0
ENDBLK
  5
25
330
23
100
AcDbEntity
  8
0
100
AcDbBlockEnd
  0
BLOCK
  5
76
330
75
100
AcDbEntity
  8
0
100
AcDbBlockBegin
  2
_D
 70
     0
 10
0.0
 20
0.0
 30
0.0
  3
_D
  1

  0
SOLID
  5
78
330
75
100
AcDbEntity
  8
0
  6
Continuous
 62
     7
370
     0
100
AcDbTrace
 10
4.2576253838
 20
6.5350818833
 30
0.0
 11
4.1276253838
 21
6.5550818833
 31
0.0
 12
4.1276253838
 22
6.5150818833
 32
0.0
 13
4.1276253838
 23
6.5150818833
 33
0.0
  0
SOLID
  5
79
330
75
100
AcDbEntity
  8
0
  6
Continuous
 62
     7
370
     0
100
AcDbTrace
 10
4.7576253838
 20
6.5350818833
 30
0.0
 11
4.8876253838
 21
6.5150818833
 31
0.0
 12
4.8876253838
 22
6.5550818833
 32
0.0
 13
4.8876253838
 23
6.5550818833
 33
0.0
  0
LINE
  5
7A
330
75
100
AcDbEntity
  8
0
  6
Continuous
 62
     7
370
     0
100
AcDbLine
 10
4.2576253838
 20
6.2461100992
 30
0.0
 11
4.2576253838
 21
6.5744519621
 31
0.0
  0
LINE
  5
7B
330
75
100
AcDbEntity
  8
0
  6
Continuous
 62
     7
370
     0
100
AcDbLine
 10
4.7576253838
 20
6.2461100992
 30
0.0
 11
4.7576253838
 21
6.5744519621
 31
0.0
  0
LINE
  5
7C
330
75
100
AcDbEntity
  8
0
  6
Continuous
 62
     7
370
     0
100
AcDbLine
 10
4.2576253838
 20
6.5350818833
 30
0.0
 11
4.0076253838
 21
6.5350818833
 31
0.0
  0
LINE
  5
7D
330
75
100
AcDbEntity
  8
0
  6
Continuous
 62
     7
370
     0
100
AcDbLine
 10
4.2576253838
 20
6.5350818833
 30
0.0
 11
4.7576253838
 21
6.5350818833
 31
0.0
  0
LINE
  5
7E
330
75
100
AcDbEntity
  8
0
  6
Continuous
 62
     7
370
     0
100
AcDbLine
 10
4.7576253838
 20
6.5350818833
 30
0.0
 11
5.0076253838
 21
6.5350818833
 31
0.0
  0
MTEXT
  5
7F
330
75
100
AcDbEntity
  8
0
  6
Continuous
 62
     7
370
     0
100
AcDbMText
 10
4.2115551143
 20
6.7127093209
 30
0.0039370079
 40
0.1377952756
 41
0.0
 71
     1
 72
     1
  1
0.500
  7
SLDTEXTSTYLE0
 73
     1
 44
1.0
  0
ENDBLK
  5
77
330
75
100
AcDbEntity
  8
0
100
AcDbBlockEnd
  0
BLOCK
  5
83
330
82
100
AcDbEntity
  8
0
100
AcDbBlockBegin
  2
_D_1
 70
     0
 10
0.0
 20
0.0
 30
0.0
  3
_D_1
  1

  0
SOLID
  5
85
330
82
100
AcDbEntity
  8
0
  6
Continuous
 62
     7
370
     0
100
AcDbTrace
 10
5.5088741044
 20
6.2067400205
 30
0.0
 11
5.5288741044
 21
6.3367400205
 31
0.0
 12
5.4888741044
 22
6.3367400205
 32
0.0
 13
5.4888741044
 23
6.3367400205
 33
0.0
  0
SOLID
  5
86
330
82
100
AcDbEntity
  8
0
  6
Continuous
 62
     7
370
     0
100
AcDbTrace
 10
5.5088741044
 20
5.5817400205
 30
0.0
 11
5.4888741044
 21
5.4517400205
 31
0.0
 12
5.5288741044
 22
5.4517400205
 32
0.0
 13
5.5288741044
 23
5.4517400205
 33
0.0
  0
LINE
  5
87
330
82
100
AcDbEntity
  8
0
  6
Continuous
 62
     7
370
     0
100
AcDbLine
 10
4.7969954626
 20
6.2067400205
 30
0.0
 11
5.5482441831
 21
6.2067400205
 31
0.0
  0
LINE
  5
88
330
82
100
AcDbEntity
  8
0
  6
Continuous
 62
     7
370
     0
100
AcDbLine
 10
4.7969954626
 20
5.5817400205
 30
0.0
 11
5.5482441831
 21
5.5817400205
 31
0.0
  0
LINE
  5
89
330
82
100
AcDbEntity
  8
0
  6
Continuous
 62
     7
370
     0
100
AcDbLine
 10
5.5088741044
 20
6.2067400205
 30
0.0
 11
5.5088741044
 21
6.4567400205
 31
0.0
  0
LINE
  5
8A
330
82
100
AcDbEntity
  8
0
  6
Continuous
 62
     7
370
     0
100
AcDbLine
 10
5.5088741044
 20
6.2067400205
 30
0.0
 11
5.5088741044
 21
5.5817400205
 31
0.0
  0
LINE
  5
8B
330
82
100
AcDbEntity
  8
0
  6
Continuous
 62
     7
370
     0
100
AcDbLine
 10
5.5088741044
 20
5.5817400205
 30
0.0
 11
5.5088741044
 21
5.3317400205
 31
0.0
  0
MTEXT
  5
8C
330
82
100
AcDbEntity
  8
0
  6
Continuous
 62
     7
370
     0
100
AcDbMText
 10
5.3312466668
 20
5.6125362553
 30
0.0039370079
 40
0.1377952756
 41
0.0
 71
     1
 72
     1
  1
0.625
  7
SLDTEXTSTYLE0
 11
-7.044195017643634E-15
 21
1.0
 31
0.0
 73
     1
 44
1.0
  0
ENDBLK
  5
84
330
82
100
AcDbEntity
  8
0
100
AcDbBlockEnd
  0
BLOCK
  5
90
330
8F
100
AcDbEntity
  8
0
100
AcDbBlockBegin
  2
_NONE
 70
     0
 10
0.0
 20
0.0
 30
0.0
  3
_NONE
  1

  0
ENDBLK
  5
91
330
8F
100
AcDbEntity
  8
0
100
AcDbBlockEnd
  0
BLOCK
  5
93
330
92
100
AcDbEntity
  8
0
100
AcDbBlockBegin
  2
_D_2
 70
     0
 10
0.0
 20
0.0
 30
0.0
  3
_D_2
  1

  0
SOLID
  5
95
330
92
100
AcDbEntity
  8
0
  6
Continuous
 62
     7
370
     0
100
AcDbTrace
 10
4.35556209
 20
5.7223650205
 30
0.0
 11
4.2529787875
 21
5.8046855285
 31
0.0
 12
4.2329787875
 22
5.7700445124
 32
0.0
 13
4.2329787875
 23
5.7700445124
 33
0.0
  0
LINE
  5
96
330
92
100
AcDbEntity
  8
0
  6
Continuous
 62
     7
370
     0
100
AcDbLine
 10
4.35556209
 20
5.7223650205
 30
0.0
 11
3.425378397
 21
6.259406826
 31
0.0
  0
LINE
  5
97
330
92
100
AcDbEntity
  8
0
  6
Continuous
 62
     7
370
     0
100
AcDbLine
 10
4.35556209
 20
5.7223650205
 30
0.0
 11
4.4096886777
 21
5.6911150205
 31
0.0
  0
MTEXT
  5
98
330
92
100
AcDbEntity
  8
0
  6
Continuous
 62
     7
370
     0
100
AcDbMText
 10
3.5135619589
 20
6.4121452356
 30
0.0039370079
 40
0.1377952756
 41
0.0
 71
     1
 72
     1
  1
%%c
  7
SLDTEXTSTYLE0
 11
0.8660254037844387
 21
-0.4999999999999998
 31
0.0
 73
     1
 44
1.0
  0
MTEXT
  5
99
330
92
100
AcDbEntity
  8
0
  6
Continuous
 62
     7
370
     0
100
AcDbMText
 10
3.6945854615
 20
6.3100621475
 30
0.0039370079
 40
0.1377952756
 41
0.0
 71
     1
 72
     1
  1
0.063
  7
SLDTEXTSTYLE0
 11
0.8660254037844387
 21
-0.4999999999999998
 31
0.0
 73
     1
 44
1.0
  0
ENDBLK
  5
94
330
92
100
AcDbEntity
  8
0
100
AcDbBlockEnd
  0
BLOCK
  5
9C
330
9B
100
AcDbEntity
  8
0
100
AcDbBlockBegin
  2
_D_3
 70
     0
 10
0.0
 20
0.0
 30
0.0
  3
_D_3
  1

  0
SOLID
  5
9E
330
9B
100
AcDbEntity
  8
0
  6
Continuous
 62
     7
370
     0
100
AcDbTrace
 10
3.7061301969
 20
5.7067400205
 30
0.0
 11
3.7261301969
 21
5.8367400205
 31
0.0
 12
3.6861301969
 22
5.8367400205
 32
0.0
 13
3.6861301969
 23
5.8367400205
 33
0.0
  0
SOLID
  5
9F
330
9B
100
AcDbEntity
  8
0
  6
Continuous
 62
     7
370
     0
100
AcDbTrace
 10
3.7061301969
 20
5.5817400205
 30
0.0
 11
3.6861301969
 21
5.4517400205
 31
0.0
 12
3.7261301969
 22
5.4517400205
 32
0.0
 13
3.7261301969
 23
5.4517400205
 33
0.0
  0
LINE
  5
A0
330
9B
100
AcDbEntity
  8
0
  6
Continuous
 62
     7
370
     0
100
AcDbLine
 10
4.3432553051
 20
5.7067400205
 30
0.0
 11
3.6667601182
 21
5.7067400205
 31
0.0
  0
LINE
  5
A1
330
9B
100
AcDbEntity
  8
0
  6
Continuous
 62
     7
370
     0
100
AcDbLine
 10
4.2182553051
 20
5.5817400205
 30
0.0
 11
3.6667601182
 21
5.5817400205
 31
0.0
  0
LINE
  5
A2
330
9B
100
AcDbEntity
  8
0
  6
Continuous
 62
     7
370
     0
100
AcDbLine
 10
3.7061301969
 20
5.7067400205
 30
0.0
 11
3.7061301969
 21
5.9567400205
 31
0.0
  0
LINE
  5
A3
330
9B
100
AcDbEntity
  8
0
  6
Continuous
 62
     7
370
     0
100
AcDbLine
 10
3.7061301969
 20
5.7067400205
 30
0.0
 11
3.7061301969
 21
5.5817400205
 31
0.0
  0
LINE
  5
A4
330
9B
100
AcDbEntity
  8
0
  6
Continuous
 62
     7
370
     0
100
AcDbLine
 10
3.7061301969
 20
5.5817400205
 30
0.0
 11
3.7061301969
 21
4.9894296955
 31
0.0
  0
MTEXT
  5
A5
330
9B
100
AcDbEntity
  8
0
  6
Continuous
 62
     7
370
     0
100
AcDbMText
 10
3.5285027594
 20
4.9894296955
 30
0.0039370079
 40
0.1377952756
 41
0.0
 71
     1
 72
     1
  1
0.125
  7
SLDTEXTSTYLE0
 11
-7.044195017643634E-15
 21
1.0
 31
0.0
 73
     1
 44
1.0
  0
ENDBLK
  5
9D
330
9B
100
AcDbEntity
  8
0
100
AcDbBlockEnd
  0
BLOCK
  5
A8
330
A7
100
AcDbEntity
  8
0
100
AcDbBlockBegin
  2
_D_4
 70
     0
 10
0.0
 20
0.0
 30
0.0
  3
_D_4
  1

  0
SOLID
  5
AA
330
A7
100
AcDbEntity
  8
0
  6
Continuous
 62
     7
370
     0
100
AcDbTrace
 10
4.3826253838
 20
4.9362515295
 30
0.0
 11
4.5126253838
 21
4.9162515295
 31
0.0
 12
4.5126253838
 22
4.9562515295
 32
0.0
 13
4.5126253838
 23
4.9562515295
 33
0.0
  0
SOLID
  5
AB
330
A7
100
AcDbEntity
  8
0
  6
Continuous
 62
     7
370
     0
100
AcDbTrace
 10
4.2576253838
 20
4.9362515295
 30
0.0
 11
4.1276253838
 21
4.9562515295
 31
0.0
 12
4.1276253838
 22
4.9162515295
 32
0.0
 13
4.1276253838
 23
4.9162515295
 33
0.0
  0
LINE
  5
AC
330
A7
100
AcDbEntity
  8
0
  6
Continuous
 62
     7
370
     0
100
AcDbLine
 10
4.3826253838
 20
5.6673699417
 30
0.0
 11
4.3826253838
 21
4.8968814508
 31
0.0
  0
LINE
  5
AD
330
A7
100
AcDbEntity
  8
0
  6
Continuous
 62
     7
370
     0
100
AcDbLine
 10
4.2576253838
 20
5.5423699417
 30
0.0
 11
4.2576253838
 21
4.8968814508
 31
0.0
  0
LINE
  5
AE
330
A7
100
AcDbEntity
  8
0
  6
Continuous
 62
     7
370
     0
100
AcDbLine
 10
4.3826253838
 20
4.9362515295
 30
0.0
 11
4.9696440235
 21
4.9362515295
 31
0.0
  0
LINE
  5
AF
330
A7
100
AcDbEntity
  8
0
  6
Continuous
 62
     7
370
     0
100
AcDbLine
 10
4.3826253838
 20
4.9362515295
 30
0.0
 11
4.2576253838
 21
4.9362515295
 31
0.0
  0
LINE
  5
B0
330
A7
100
AcDbEntity
  8
0
  6
Continuous
 62
     7
370
     0
100
AcDbLine
 10
4.2576253838
 20
4.9362515295
 30
0.0
 11
4.0076253838
 21
4.9362515295
 31
0.0
  0
MTEXT
  5
B1
330
A7
100
AcDbEntity
  8
0
  6
Continuous
 62
     7
370
     0
100
AcDbMText
 10
4.399516063
 20
5.1138789671
 30
0.0039370079
 40
0.1377952756
 41
0.0
 71
     1
 72
     1
  1
0.125
  7
SLDTEXTSTYLE0
 73
     1
 44
1.0
  0
ENDBLK
  5
A9
330
A7
100
AcDbEntity
  8
0
100
AcDbBlockEnd
  0
BLOCK
  5
CA
330
C9
100
AcDbEntity
  8
0
100
AcDbBlockBegin
  2
SW_NOTE_0
 70
     0
 10
0.0
 20
0.0
 30
0.0
  3
SW_NOTE_0
  1

  0
MTEXT
  5
CC
330
C9
100
AcDbEntity
  8
0
  6
Continuous
 62
     0
370
     0
100
AcDbMText
 10
0.0
 20
0.0773440644
 30
0.0
 40
0.06
 41
0.0
 71
     1
 72
     1
  1
THE INFORMATION CONTAINED IN THIS
  7
SLDTEXTSTYLE0
 73
     1
 44
1.0
  0
MTEXT
  5
CD
330
C9
100
AcDbEntity
  8
0
  6
Continuous
 62
     0
370
     0
100
AcDbMText
 10
0.0
 20
-0.0220260102
 30
0.0
 40
0.06
 41
0.0
 71
     1
 72
     1
  1
DRAWING IS THE SOLE PROPERTY OF
  7
SLDTEXTSTYLE0
 73
     1
 44
1.0
  0
MTEXT
  5
CE
330
C9
100
AcDbEntity
  8
0
  6
Continuous
 62
     0
370
     0
100
AcDbMText
 10
0.0
 20
-0.1213960848
 30
0.0
 40
0.06
 41
0.0
 71
     1
 72
     1
  1
SPORIAN MICROSYSTEMS, INC.  ANY
  7
SLDTEXTSTYLE0
 73
     1
 44
1.0
  0
MTEXT
  5
CF
330
C9
100
AcDbEntity
  8
0
  6
Continuous
 62
     0
370
     0
100
AcDbMText
 10
0.0
 20
-0.2207661593
 30
0.0
 40
0.06
 41
0.0
 71
     1
 72
     1
  1
REPRODUCTION IN PART OR AS A
  7
SLDTEXTSTYLE0
 73
     1
 44
1.0
  0
MTEXT
  5
D0
330
C9
100
AcDbEntity
  8
0
  6
Continuous
 62
     0
370
     0
100
AcDbMText
 10
0.0
 20
-0.3201362339
 30
0.0
 40
0.06
 41
0.0
 71
     1
 72
     1
  1
WHOLE WITHOUT EXPRESS WRITTEN
  7
SLDTEXTSTYLE0
 73
     1
 44
1.0
  0
MTEXT
  5
D1
330
C9
100
AcDbEntity
  8
0
  6
Continuous
 62
     0
370
     0
100
AcDbMText
 10
0.0
 20
-0.4195063085
 30
0.0
 40
0.06
 41
0.0
 71
     1
 72
     1
  1
PERMISSION IS PROHIBITED.
  7
SLDTEXTSTYLE0
 73
     1
 44
1.0
  0
ENDBLK
  5
CB
330
C9
100
AcDbEntity
  8
0
100
AcDbBlockEnd
  0
BLOCK
  5
D9
330
D8
100
AcDbEntity
  8
0
100
AcDbBlockBegin
  2
SW_NOTE_1
 70
     0
 10
0.0
 20
0.0
 30
0.0
  3
SW_NOTE_1
  1

  0
MTEXT
  5
DB
330
D8
100
AcDbEntity
  8
0
  6
Continuous
 62
     0
370
     0
100
AcDbMText
 10
0.0
 20
0.0837894031
 30
0.0
 40
0.065
 41
0.0
 71
     1
 72
     1
  1
DIMENSIONS ARE IN INCHES:
  7
SLDTEXTSTYLE0
 73
     1
 44
1.0
  0
MTEXT
  5
DC
330
D8
100
AcDbEntity
  8
0
  6
Continuous
 62
     0
370
     0
100
AcDbMText
 10
0.0
 20
-0.1249507489
 30
0.0
 40
0.065
 41
0.0
 71
     1
 72
     1
  1
TOLERANCES:
  7
SLDTEXTSTYLE0
 73
     1
 44
1.0
  0
MTEXT
  5
DD
330
D8
100
AcDbEntity
  8
0
  6
Continuous
 62
     0
370
     0
100
AcDbMText
 10
0.0
 20
-0.2293208248
 30
0.0
 40
0.065
 41
0.0
 71
     1
 72
     1
  1
HOLES:  UNILATERAL  +0.005
  7
SLDTEXTSTYLE0
 73
     1
 44
1.0
  0
MTEXT
  5
DE
330
D8
100
AcDbEntity
  8
0
  6
Continuous
 62
     0
370
     0
100
AcDbMText
 10
0.0
 20
-0.3336909008
 30
0.0
 40
0.065
 41
0.0
 71
     1
 72
     1
  1
TWO PLACE DECIMAL
  7
SLDTEXTSTYLE0
 73
     1
 44
1.0
  0
MTEXT
  5
DF
330
D8
100
AcDbEntity
  8
0
  6
Continuous
 62
     0
370
     0
100
AcDbMText
 10
0.9794349188
 20
-0.3336909008
 30
0.0
 40
0.065
 41
0.0
 71
     1
 72
     1
  1
%%p
  7
SLDTEXTSTYLE0
 73
     1
 44
1.0
  0
MTEXT
  5
E0
330
D8
100
AcDbEntity
  8
0
  6
Continuous
 62
     0
370
     0
100
AcDbMText
 10
1.0413474103
 20
-0.3336909008
 30
0.0
 40
0.065
 41
0.0
 71
     1
 72
     1
  1
0.01
  7
SLDTEXTSTYLE0
 73
     1
 44
1.0
  0
MTEXT
  5
E1
330
D8
100
AcDbEntity
  8
0
  6
Continuous
 62
     0
370
     0
100
AcDbMText
 10
0.0
 20
-0.4380609768
 30
0.0
 40
0.065
 41
0.0
 71
     1
 72
     1
  1
THREE PLACE DECIMAL
  7
SLDTEXTSTYLE0
 73
     1
 44
1.0
  0
MTEXT
  5
E2
330
D8
100
AcDbEntity
  8
0
  6
Continuous
 62
     0
370
     0
100
AcDbMText
 10
0.9738037905
 20
-0.4380609768
 30
0.0
 40
0.065
 41
0.0
 71
     1
 72
     1
  1
%%p
  7
SLDTEXTSTYLE0
 73
     1
 44
1.0
  0
MTEXT
  5
E3
330
D8
100
AcDbEntity
  8
0
  6
Continuous
 62
     0
370
     0
100
AcDbMText
 10
1.0357163553
 20
-0.4380609768
 30
0.0
 40
0.065
 41
0.0
 71
     1
 72
     1
  1
0.005
  7
SLDTEXTSTYLE0
 73
     1
 44
1.0
  0
MTEXT
  5
E4
330
D8
100
AcDbEntity
  8
0
  6
Continuous
 62
     0
370
     0
100
AcDbMText
 10
0.0
 20
-0.5424310528
 30
0.0
 40
0.065
 41
0.0
 71
     1
 72
     1
  1
FOUR PLACE DECIMAL
  7
SLDTEXTSTYLE0
 73
     1
 44
1.0
  0
MTEXT
  5
E5
330
D8
100
AcDbEntity
  8
0
  6
Continuous
 62
     0
370
     0
100
AcDbMText
 10
0.9831363027
 20
-0.5424310528
 30
0.0
 40
0.065
 41
0.0
 71
     1
 72
     1
  1
%%p
  7
SLDTEXTSTYLE0
 73
     1
 44
1.0
  0
MTEXT
  5
E6
330
D8
100
AcDbEntity
  8
0
  6
Continuous
 62
     0
370
     0
100
AcDbMText
 10
1.0450487942
 20
-0.5424310528
 30
0.0
 40
0.065
 41
0.0
 71
     1
 72
     1
  1
0.00075
  7
SLDTEXTSTYLE0
 73
     1
 44
1.0
  0
ENDBLK
  5
DA
330
D8
100
AcDbEntity
  8
0
100
AcDbBlockEnd
  0
BLOCK
  5
E9
330
E8
100
AcDbEntity
  8
0
100
AcDbBlockBegin
  2
SW_NOTE_2
 70
     0
 10
0.0
 20
0.0
 30
0.0
  3
SW_NOTE_2
  1

  0
MTEXT
  5
EC
330
E8
100
AcDbEntity
  8
0
  6
Continuous
 62
     0
370
     0
100
AcDbMText
 10
0.0
 20
0.1477056785
 30
0.0
 40
0.1145833333
 41
0.0
 71
     1
 72
     1
  1
\LSporian Microsystems, Inc.
  7
SLDTEXTSTYLE3
 73
     1
 44
1.0
  0
MTEXT
  5
ED
330
E8
100
AcDbEntity
  8
0
  6
Continuous
 62
     0
370
     0
100
AcDbMText
 10
0.0
 20
-0.0032276984
 30
0.0
 40
0.0729166667
 41
0.0
 71
     1
 72
     1
  1
515 Courtney Way, Suite B
  7
SLDTEXTSTYLE3
 73
     1
 44
1.0
  0
MTEXT
  5
EE
330
E8
100
AcDbEntity
  8
0
  6
Continuous
 62
     0
370
     0
100
AcDbMText
 10
0.0
 20
-0.1004499194
 30
0.0
 40
0.0729166667
 41
0.0
 71
     1
 72
     1
  1
Phone: 303-516-9075; Fax: 303-516-9116
  7
SLDTEXTSTYLE3
 73
     1
 44
1.0
  0
MTEXT
  5
EF
330
E8
100
AcDbEntity
  8
0
  6
Continuous
 62
     0
370
     0
100
AcDbMText
 10
0.0
 20
-0.1976721405
 30
0.0
 40
0.0729166667
 41
0.0
 71
     1
 72
     1
  1
www.sporian.com
  7
SLDTEXTSTYLE3
 73
     1
 44
1.0
  0
ENDBLK
  5
EA
330
E8
100
AcDbEntity
  8
0
100
AcDbBlockEnd
  0
ENDSEC
  0
SECTION
  2
ENTITIES
  0
OLE2FRAME
  5
45
330
1F
100
AcDbEntity
  8
0
100
AcDbOle2Frame
 70
     2
  3
Paintbrush Picture
 10
7.8704637001
 20
2.3482525781
 30
0.0
 11
8.4298943151
 21
1.7888219631
 31
0.0
 71
     2
 72
     0
 73
     2
 90
    35456
310
8055C68911D65A7B1F4090E2CCA538C9024000000000000000004D98901B1BDC
310
204090E2CCA538C9024000000000000000004D98901B1BDC2040CE295BC7039F
310
FC3F0000000000000000C68911D65A7B1F40CE295BC7039FFC3F000000000000
310
00000000000001000000000100000100000001000000000001000000008A0000
310
D0CF11E0A1B11AE1000000000000000000000000000000003E000300FEFF0900
310
0600000000000000000000000100000001000000000000000010000002000000
310
01000000FEFFFFFF0000000000000000FFFFFFFFFFFFFFFFFFFFFFFFFFFFFFFF
310
FFFFFFFFFFFFFFFFFFFFFFFFFFFFFFFFFFFFFFFFFFFFFFFFFFFFFFFFFFFFFFFF
310
FFFFFFFFFFFFFFFFFFFFFFFFFFFFFFFFFFFFFFFFFFFFFFFFFFFFFFFFFFFFFFFF
310
FFFFFFFFFFFFFFFFFFFFFFFFFFFFFFFFFFFFFFFFFFFFFFFFFFFFFFFFFFFFFFFF
310
FFFFFFFFFFFFFFFFFFFFFFFFFFFFFFFFFFFFFFFFFFFFFFFFFFFFFFFFFFFFFFFF
310
FFFFFFFFFFFFFFFFFFFFFFFFFFFFFFFFFFFFFFFFFFFFFFFFFFFFFFFFFFFFFFFF
310
FFFFFFFFFFFFFFFFFFFFFFFFFFFFFFFFFFFFFFFFFFFFFFFFFFFFFFFFFFFFFFFF
310
FFFFFFFFFFFFFFFFFFFFFFFFFFFFFFFFFFFFFFFFFFFFFFFFFFFFFFFFFFFFFFFF
310
FFFFFFFFFFFFFFFFFFFFFFFFFFFFFFFFFFFFFFFFFFFFFFFFFFFFFFFFFFFFFFFF
310
FFFFFFFFFFFFFFFFFFFFFFFFFFFFFFFFFFFFFFFFFFFFFFFFFFFFFFFFFFFFFFFF
310
FFFFFFFFFFFFFFFFFFFFFFFFFFFFFFFFFFFFFFFFFFFFFFFFFFFFFFFFFFFFFFFF
310
FFFFFFFFFFFFFFFFFFFFFFFFFFFFFFFFFFFFFFFFFFFFFFFFFFFFFFFFFFFFFFFF
310
FFFFFFFFFFFFFFFFFFFFFFFFFFFFFFFFFFFFFFFFFFFFFFFFFFFFFFFFFFFFFFFF
310
FFFFFFFFFFFFFFFFFFFFFFFFFFFFFFFFFFFFFFFFFFFFFFFFFFFFFFFFFFFFFFFF
310
FDFFFFFFFEFFFFFFFEFFFFFFFEFFFFFF05000000060000000700000008000000
310
090000000A0000000B0000000C0000000D0000000E0000000F00000010000000
310
1100000012000000130000001400000015000000160000001700000018000000
310
190000001A0000001B0000001C0000001D0000001E0000001F00000020000000
310
2100000022000000230000002400000025000000260000002700000028000000
310
290000002A0000002B0000002C0000002D0000002E0000002F00000030000000
310
3100000032000000330000003400000035000000360000003700000038000000
310
390000003A0000003B0000003C0000003D0000003E0000003F00000040000000
310
410000004200000043000000FEFFFFFFFFFFFFFFFFFFFFFFFFFFFFFFFFFFFFFF
310
FFFFFFFFFFFFFFFFFFFFFFFFFFFFFFFFFFFFFFFFFFFFFFFFFFFFFFFFFFFFFFFF
310
FFFFFFFFFFFFFFFFFFFFFFFFFFFFFFFFFFFFFFFFFFFFFFFFFFFFFFFFFFFFFFFF
310
FFFFFFFFFFFFFFFFFFFFFFFFFFFFFFFFFFFFFFFFFFFFFFFFFFFFFFFFFFFFFFFF
310
FFFFFFFFFFFFFFFFFFFFFFFFFFFFFFFFFFFFFFFFFFFFFFFFFFFFFFFFFFFFFFFF
310
FFFFFFFFFFFFFFFFFFFFFFFFFFFFFFFFFFFFFFFFFFFFFFFFFFFFFFFFFFFFFFFF
310
FFFFFFFFFFFFFFFFFFFFFFFFFFFFFFFFFFFFFFFFFFFFFFFFFFFFFFFFFFFFFFFF
310
FFFFFFFFFFFFFFFFFFFFFFFFFFFFFFFFFFFFFFFFFFFFFFFFFFFFFFFFFFFFFFFF
310
52006F006F007400200045006E00740072007900000000000000000000000000
310
0000000000000000000000000000000000000000000000000000000000000000
310
16000500FFFFFFFFFFFFFFFF020000000A00030000000000C000000000000046
310
00000000000000000000000060C37CCE67E9CF0103000000C000000000000000
310
01004F006C006500310030004E00610074006900760065000000000000000000
310
0000000000000000000000000000000000000000000000000000000000000000
310
1A000200FFFFFFFFFFFFFFFFFFFFFFFF00000000000000000000000000000000
310
000000000000000000000000000000000000000004000000E47E000000000000
310
010043006F006D0070004F0062006A0000000000000000000000000000000000
310
0000000000000000000000000000000000000000000000000000000000000000
310
120002010300000001000000FFFFFFFF00000000000000000000000000000000
310
0000000000000000000000000000000000000000000000004D00000000000000
310
01004F006C006500000000000000000000000000000000000000000000000000
310
0000000000000000000000000000000000000000000000000000000000000000
310
0A000200FFFFFFFFFFFFFFFFFFFFFFFF00000000000000000000000000000000
310
0000000000000000000000000000000000000000020000001400000000000000
310
01000000FEFFFFFFFEFFFFFFFFFFFFFFFFFFFFFFFFFFFFFFFFFFFFFFFFFFFFFF
310
FFFFFFFFFFFFFFFFFFFFFFFFFFFFFFFFFFFFFFFFFFFFFFFFFFFFFFFFFFFFFFFF
310
FFFFFFFFFFFFFFFFFFFFFFFFFFFFFFFFFFFFFFFFFFFFFFFFFFFFFFFFFFFFFFFF
310
FFFFFFFFFFFFFFFFFFFFFFFFFFFFFFFFFFFFFFFFFFFFFFFFFFFFFFFFFFFFFFFF
310
FFFFFFFFFFFFFFFFFFFFFFFFFFFFFFFFFFFFFFFFFFFFFFFFFFFFFFFFFFFFFFFF
310
FFFFFFFFFFFFFFFFFFFFFFFFFFFFFFFFFFFFFFFFFFFFFFFFFFFFFFFFFFFFFFFF
310
FFFFFFFFFFFFFFFFFFFFFFFFFFFFFFFFFFFFFFFFFFFFFFFFFFFFFFFFFFFFFFFF
310
FFFFFFFFFFFFFFFFFFFFFFFFFFFFFFFFFFFFFFFFFFFFFFFFFFFFFFFFFFFFFFFF
310
FFFFFFFFFFFFFFFFFFFFFFFFFFFFFFFFFFFFFFFFFFFFFFFFFFFFFFFFFFFFFFFF
310
FFFFFFFFFFFFFFFFFFFFFFFFFFFFFFFFFFFFFFFFFFFFFFFFFFFFFFFFFFFFFFFF
310
FFFFFFFFFFFFFFFFFFFFFFFFFFFFFFFFFFFFFFFFFFFFFFFFFFFFFFFFFFFFFFFF
310
FFFFFFFFFFFFFFFFFFFFFFFFFFFFFFFFFFFFFFFFFFFFFFFFFFFFFFFFFFFFFFFF
310
FFFFFFFFFFFFFFFFFFFFFFFFFFFFFFFFFFFFFFFFFFFFFFFFFFFFFFFFFFFFFFFF
310
FFFFFFFFFFFFFFFFFFFFFFFFFFFFFFFFFFFFFFFFFFFFFFFFFFFFFFFFFFFFFFFF
310
FFFFFFFFFFFFFFFFFFFFFFFFFFFFFFFFFFFFFFFFFFFFFFFFFFFFFFFFFFFFFFFF
310
FFFFFFFFFFFFFFFFFFFFFFFFFFFFFFFFFFFFFFFFFFFFFFFFFFFFFFFFFFFFFFFF
310
0100FEFF030A0000FFFFFFFF0A00030000000000C00000000000004607000000
310
5042727573680007000000504272757368000700000050427275736800F439B2
310
7100000000000000000000000000000000000000000000000000000000000000
310
0000000000000000000000000000000000000000000000000000000000000000
310
0100000200000000000000000000000000000000000000000000000000000000
310
0000000000000000000000000000000000000000000000000000000000000000
310
0000000000000000000000000000000000000000000000000000000000000000
310
0000000000000000000000000000000000000000000000000000000000000000
310
0000000000000000000000000000000000000000000000000000000000000000
310
0000000000000000000000000000000000000000000000000000000000000000
310
0000000000000000000000000000000000000000000000000000000000000000
310
0000000000000000000000000000000000000000000000000000000000000000
310
0000000000000000000000000000000000000000000000000000000000000000
310
0000000000000000000000000000000000000000000000000000000000000000
310
0000000000000000000000000000000000000000000000000000000000000000
310
0000000000000000000000000000000000000000000000000000000000000000
310
E07E0000424DC67E00000000000036000000280000005A0000005A0000000100
310
20000000000000000000C40E0000C40E00000000000000000000FFFFFFFFFFFF
310
FFFFFFFFFFFFFFFFFFFFFFFFFFFFFFFFFFFFFFFFFFFFFFFFFFFFFFFFFFFFFFFF
310
FFFFFFFFFFFFFFFFFFFFFFFFFFFFFFFFFFFFFFFFFFFFFFFFFFFFFFFFFFFFFFFF
310
FFFFFFFFFFFFFFFFFFFFFFFFFFFFFFFFFFFFFFFFFFFFFFFFFFFFFFFFFFFFFFFF
310
FFFFFFFFFFFFFFFFFFFFFFFFFFFFFFFFFFFFFFFFFFFFFFFFFFFFFFFFFFFFFFFF
310
FFFFFFFFFFFFFFFFFFFFFFFFFFFFFFFFFFFFFFFFFFFFFFFFFFFFFFFFFFFFFFFF
310
FFFFFFFFFFFFFFFFFFFFFFFFFFFFFFFFFFFFFFFFFFFFFFFFFFFFFFFFFFFFFFFF
310
FFFFFFFFFFFFFFFFFFFFFFFFFFFFFFFFFFFFFFFFFFFFFFFFFFFFFFFFFFFFFFFF
310
FFFFFFFFFFFFFFFFFFFFFFFFFFFFFFFFFFFFFFFFFFFFFFFFFFFFFFFFFFFFFFFF
310
FFFFFFFFFFFFFFFFFFFFFFFFFFFFFFFFFFFFFFFFFFFFFFFFFFFFFFFFFFFFFFFF
310
FFFFFFFFFFFFFFFFFFFFFFFFFFFFFFFFFFFFFFFFFFFFFFFFFFFFFFFFFFFFFFFF
310
FFFFFFFFFFFFFFFFFFFFFFFFFFFFFFFFFFFFFFFFFFFFFFFFFFFFFFFFFFFFFFFF
310
FFFFFFFFFFFFFFFFFFFFFFFFFFFFFFFFFFFFFFFFFFFFFFFFFFFFFFFFFFFFFFFF
310
FFFFFFFFFFFFFFFFFFFFFFFFFFFFFFFFFFFFFFFFFFFFFFFFFFFFFFFFFFFFFFFF
310
FFFFFFFFFFFFFFFFFFFFFFFFFFFFFFFFFFFFFFFFFFFFFFFFFFFFFFFFFFFFFFFF
310
FFFFFFFFFFFFFFFFFFFFFFFFFFFFFFFFFFFFFFFFFFFFFFFFFFFFFFFFFFFFFFFF
310
FFFFFFFFFFFFFFFFFFFFFFFFFFFFFFFFFFFFFFFFFFFFFFFFFFFFFFFFFFFFFFFF
310
FFFFFFFFFFFFFFFFFFFFFFFFFFFFFFFFFFFFFFFFFFFFFFFFFFFFFFFFFFFFFFFF
310
FFFFFFFFFFFFFFFFFFFFFFFFFFFFFFFFFFFFFFFFFFFFFFFFFFFFFFFFFFFFFFFF
310
FFFFFFFFFFFFFFFFFFFFFFFFFFFFFFFFFFFFFFFFFFFFFFFFFFFFFFFFFFFFFFFF
310
FFFFFFFFFFFFFFFFFFFFFFFFFFFFFFFFFFFFFFFFFFFFFFFFFFFFFFFFFFFFFFFF
310
FFFFFFFFFFFFFFFFFFFFFFFFFFFFFFFFFFFFFFFFFFFFFFFFFFFFFFFFFFFFFFFF
310
FFFFFFFFFFFFFFFFFFFFFFFFFFFFFFFFFFFFFFFFFFFFFFFFFFFFFFFFFFFFFFFF
310
FFFFFFFFFFFFFFFFFFFFFFFFFFFFFFFFFFFFFFFFFFFFFFFFFFFFFFFFFFFFFFFF
310
FFFFFFFFFFFFFFFFFFFFFFFFFFFFFFFFFFFFFFFFFFFFFFFFFFFFFFFFFFFFFFFF
310
FFFFFFFFFFFFFFFFFFFFFFFFFFFFFFFFFFFFFFFFFFFFFFFFFFFFFFFFFFFFFFFF
310
FFFFFFFFFFFFFFFFFFFFFFFFFFFFFFFFFFFFFFFFFFFFFFFFFFFFFFFFFFFFFFFF
310
FFFFFFFFFFFFFFFFFFFFFFFFFFFFFFFFFFFFFFFFFFFFFFFFFFFFFFFFFFFFFFFF
310
FFFFFFFFFFFFFFFFFFFFFFFFFFFFFFFFFFFFFFFFFFFFFFFFFFFFFFFFFFFFFFFF
310
FFFFFFFFFFFFFFFFFFFFFFFFFFFFFFFFFFFFFFFFFFFFFFFFFFFFFFFFFFFFFFFF
310
FFFFFFFFFFFFFFFFFFFFFFFFFFFFFFFFFFFFFFFFFFFFFFFFFFFFFFFFFFFFFFFF
310
FFFFFFFFFFFFFFFFFFFFFFFFFFFFFFFFFFFFFFFFFFFFFFFFFFFFFFFFFFFFFFFF
310
FFFFFFFFFFFFFFFFFFFFFFFFFFFFFFFFFFFFFFFFFFFFFFFFFFFFFFFFFFFFFFFF
310
FFFFFFFFFFFFFFFFFFFFFFFFFFFFFFFFFFFFFFFFFFFFFFFFFFFFFFFFFFFFFFFF
310
FFFFFFFFFFFFFFFFFFFFFFFFFFFFFFFFFFFFFFFFFFFFFFFFFFFFFFFFFFFFFFFF
310
FFFFFFFFFFFFFFFFFFFFFFFFFFFFFFFFFFFFFFFFFFFFFFFFFFFFFFFFFFFFFFFF
310
FFFFFFFFFFFFFFFFFFFFFFFFFFFFFFFFFFFFFFFFFFFFFFFFFFFFFFFFFFFFFFFF
310
FFFFFFFFFFFFFFFFFFFFFFFFFFFFFFFFFFFFFFFFFFFFFFFFFFFFFFFFFFFFFFFF
310
FFFFFFFFFFFFFFFFFFFFFFFFFFFFFFFFFFFFFFFFFFFFFFFFFFFFFFFFFFFFFFFF
310
FFFFFFFFFFFFFFFFFFFFFFFFFFFFFFFFFFFFFFFFFFFFFFFFFFFFFFFFFFFFFFFF
310
FFFFFFFFFFFFFFFFFFFFFFFFFFFFFFFFFFFFFFFFFFFFFFFFFFFFFFFFFFFFFFFF
310
FFFFFFFFFFFFFFFFFFFFFFFFFFFFFFFFFFFFFFFFFFFFFFFFFFFFFFFFFFFFFFFF
310
FFFFFFFFFFFFFFFFFFFFFFFFFFFFFFFFFFFFFFFFFFFFFFFFFFFFFFFFFFFFFFFF
310
FFFFFFFFFFFFFFFFFFFFFFFFFFFFFFFFFFFFFFFFFFFFFFFFFFFFFFFFFFFFFFFF
310
FFFFFFFFFFFFFFFFFFFFFFFFFFFFFFFFFFFFFFFFFFFFFFFFFFFFFFFFFFFFFFFF
310
FFFFFFFFFFFFFFFFFFFFFFFFFFFFFFFFFFFFFFFFFFFFFFFFFFFFFFFFFFFFFFFF
310
FFFFFFFFFFFFFFFFFFFFFFFFFFFFFFFFFFFFFFFFFFFFFFFFFFFFFFFFFFFFFFFF
310
FFFFFFFFFFFFFFFFFFFFFFFFFFFFFFFFFFFFFFFFFFFFFFFFFFFFFFFFFFFFFFFF
310
FFFFFFFFFFFFFFFFFFFFFFFFFFFFFFFFFFFFFFFFFFFFFFFFFFFFFFFFFFFFFFFF
310
FFFFFFFFFFFFFFFFFFFFFFFFFFFFFFFFFFFFFFFFFFFFFFFFFFFFFFFFFFFFFFFF
310
FFFFFFFFFFFFFFFFFFFFFFFFFFFFFFFFFFFFFFFFFFFFFFFFFFFFFFFFFFFFFFFF
310
FFFFFFFFFFFFFFFFFFFFFFFFFFFFFFFFFFFFFFFFFFFFFFFFFFFFFFFFFFFFFFFF
310
FFFFFFFFFFFFFFFFFFFFFFFFFFFFFFFFFFFFFFFFFFFFFFFFFFFFFFFFFFFFFFFF
310
FFFFFFFFFFFFFFFFFFFFFFFFFFFFFFFFFFFFFFFFFFFFFFFFFFFFFFFFFFFFFFFF
310
FFFFFFFFFFFFFFFFFFFFFFFFFFFFFFFFFFFFFFFFFFFFFFFFFFFFFFFFFFFFFFFF
310
FFFFFFFFFFFFFFFFFFFFFFFFFFFFFFFFFFFFFFFFFFFFFFFFFFFFFFFFFFFFFFFF
310
FFFFFFFFFFFFFFFFFFFFFFFFFFFFFFFFFFFFFFFFFFFFFFFFFFFFFFFFFFFFFFFF
310
FFFFFFFFFFFFFFFFFFFFFFFFFFFFFFFFFFFFFFFFFFFFFFFFFFFFFFFFFFFFFFFF
310
FFFFFFFFFFFFFFFFFFFFFFFFFFFFFFFFFFFFFFFFFFFFFFFFFFFFFFFFFFFFFFFF
310
FFFFFFFFFFFFFFFFFFFFFFFFFFFFFFFFFFFFFFFFFFFFFFFFFFFFFFFFFFFFFFFF
310
FFFFFFFFFFFFFFFFFFFFFFFFFFFFFFFFFFFFFFFFFFFFFFFFFFFFFFFFFFFFFFFF
310
FFFFFFFFFFFFFFFFFFFFFFFFFFFFFFFFFFFFFFFFFFFFFFFFFFFFFFFFFFFFFFFF
310
FFFFFFFFFFFFFFFFFFFFFFFFFFFFFFFFFFFFFFFFFFFFFFFFFFFFFFFFFFFFFFFF
310
FFFFFFFFFFFFFFFFFFFFFFFFFFFFFFFFFFFFFFFFFFFFFFFFFFFFFFFFFFFFFFFF
310
FFFFFFFFFFFFFFFFFFFFFFFFFFFFFFFFFFFFFFFFFFFFFFFFFFFFFFFFFFFFFFFF
310
FFFFFFFFFFFFFFFFFFFFFFFFFFFFFFFFFFFFFFFFFFFFFFFFFFFFFFFFFFFFFFFF
310
FFFFFFFFFFFFFFFFFFFFFFFFFFFFFFFFFFFFFFFFFFFFFFFFFFFFFFFFFFFFFFFF
310
FFFFFFFFFFFFFFFFFFFFFFFFFFFFFFFFFFFFFFFFFFFFFFFFFFFFFFFFFFFFFFFF
310
FFFFFFFFFFFFFFFFFFFFFFFFFFFFFFFFFFFFFFFFFFFFFFFFFFFFFFFFFFFFFFFF
310
FFFFFFFFFFFFFFFFFFFFFFFFFFFFFFFFFFFFFFFFFFFFFFFFFFFFFFFFFFFFFFFF
310
FFFFFFFFFFFFFFFFFFFFFFFFFFFFFFFFFFFFFFFFFFFFFFFFFFFFFFFFFFFFFFFF
310
FFFFFFFFFFFFFFFFFFFFFFFFFFFFFFFFFFFFFFFFFFFFFFFFFFFFFFFFFFFFFFFF
310
FFFFFFFFFFFFFFFFFFFFFFFFFFFFFFFFFFFFFFFFFFFFFFFFFFFFFFFFFFFFFFFF
310
FFFFFFFFFFFFFFFFFFFFFFFFFFFFFFFFFFFFFFFFFFFFFFFFFFFFFFFFFFFFFFFF
310
FFFFFFFFFFFFFFFFFFFFFFFFFFFFFFFFFFFFFFFFFFFFFFFFFFFFFFFFFFFFFFFF
310
FFFFFFFFFFFFFFFFFFFFFFFFFFFFFFFFFFFFFFFFFFFFFFFFFFFFFFFFFFFFFFFF
310
FFFFFFFFFFFFFFFFFFFFFFFFFFFFFFFFFFFFFFFFFFFFFFFFFFFFFFFFFFFFFFFF
310
FFFFFFFFFFFFFFFFFFFFFFFFFFFFFFFFFFFFFFFFFFFFFFFFFFFFFFFFFFFFFFFF
310
FFFFFFFFFFFFFFFFFFFFFFFFFFFFFFFFFFFFFFFFFFFFFFFFFFFFFFFFFFFFFFFF
310
FFFFFFFFFFFFFFFFFFFFFFFFFFFFFFFFFFFFFFFFFFFFFFFFFFFFFFFFFFFFFFFF
310
FFFFFFFFFFFFFFFFFFFFFFFFFFFFFFFFFFFFFFFFFFFFFFFFFFFFFFFFFFFFFFFF
310
FFFFFFFFFFFFFFFFFFFFFFFFFFFFFFFFFFFFFFFFFFFFFFFFFFFFFFFFFFFFFFFF
310
FFFFFFFFFFFFFFFFFFFFFFFFFFFFFFFFFFFFFFFFFFFFFFFFFFFFFFFFFFFFFFFF
310
FFFFFFFFFFFFFFFFFFFFFFFFFFFFFFFFFFFFFFFFFFFFFFFFFFFFFFFFFFFFFFFF
310
FFFFFFFFFFFFFFFFFFFFFFFFFFFFFFFFFFFFFFFFFFFFFFFFFFFFFFFFFFFFFFFF
310
FFFFFFFFFFFFFFFFFFFFFFFFFFFFFFFFFFFFFFFFFFFFFFFFFFFFFFFFFFFFFFFF
310
FFFFFFFFFFFFFFFFFFFFFFFFFFFFFFFFFFFFFFFFFFFFFFFFFFFFFFFFFFFFFFFF
310
FFFFFFFFFFFFFFFFFFFFFFFFFFFFFFFFFFFFFFFFFFFFFFFFFFFFFFFFFFFFFFFF
310
FFFFFFFFFFFFFFFFFFFFFFFFFFFFFFFFFFFFFFFFFFFFFFFFFFFFFFFFFFFFFFFF
310
FFFFFFFFFFFFFFFFFFFFFFFFFFFFFFFFFFFFFFFFFFFFFFFFFFFFFFFFFFFFFFFF
310
FFFFFFFFFFFFFFFFFFFFFFFFFFFFFFFFFFFFFFFFFFFFFFFFFFFFFFFFFFFFFFFF
310
FFFFFFFFFFFFFFFFFFFFFFFFFFFFFFFFFFFFFFFFFFFFFFFFFFFFFFFFFFFFFFFF
310
FFFFFFFFFFFFFFFFFFFFFFFFFFFFFFFFFFFFFFFFFFFFFFFFFFFFFFFFFFFFFFFF
310
FFFFFFFFFFFFFFFFFFFFFFFFFFFFFFFFFFFFFFFFFFFFFFFFFFFFFFFFFFFFFFFF
310
FFFFFFFFFFFFFFFFFFFFFFFFFFFFFFFFFFFFFFFFFFFFFFFFFFFFFFFFFFFFFFFF
310
FFFFFFFFFFFFFFFFFFFFFFFFFFFFFFFFFFFFFFFFFFFFFFFFFFFFFFFFFFFFFFFF
310
FFFFFFFFFFFFFFFFFFFFFFFFFFFFFFFFFFFFFFFFFFFFFFFFFFFFFFFFFFFFFFFF
310
FFFFFFFFFFFFFFFFFFFFFFFFFFFFFFFFFFFFFFFFFFFFFFFFFFFFFFFFFFFFFFFF
310
FFFFFFFFFFFFFFFFFFFFFFFFFFFFFFFFFFFFFFFFFFFFFFFFFFFFFFFFFFFFFFFF
310
FFFFFFFFFFFFFFFFFFFFFFFFFFFFFFFFFFFFFFFFFFFFFFFFFFFFFFFFFFFFFFFF
310
FFFFFFFFFFFFFFFFFFFFFFFFFFFFFFFFFFFFFFFFFFFFFFFFFFFFFFFFFFFFFFFF
310
FFFFFFFFFFFFFFFFFFFFFFFFFFFFFFFFFFFFFFFFFFFFFFFFFFFFFFFFFFFFFFFF
310
FFFFFFFFFFFFFFFFFFFFFFFFFFFFFFFFFFFFFFFFFFFFFFFFFFFFFFFFFFFFFFFF
310
FFFFFFFFFFFFFFFFFFFFFFFFFFFFFFFFFFFFFFFFFFFFFFFFFFFFFFFFFFFFFFFF
310
FFFFFFFFFFFFFFFFFFFFFFFFFFFFFFFFFFFFFFFFFFFFFFFFFFFFFFFFFFFFFFFF
310
FFFFFFFFFFFFFFFFFFFFFFFFFFFFFFFFFFFFFFFFFFFFFFFFFFFFFFFFFFFFFFFF
310
FFFFFFFFFFFFFFFFFFFFFFFFFFFFFFFFFFFFFFFFFFFFFFFFFFFFFFFFFFFFFFFF
310
FFFFFFFFFFFFFFFFFFFFFFFFFFFFFFFFFFFFFFFFFFFFFFFFFFFFFFFFFFFFFFFF
310
FFFFFFFFFFFFFFFFFFFFFFFFFFFFFFFFFFFFFFFFFFFFFFFFFFFFFFFFFFFFFFFF
310
FFFFFFFFFFFFFFFFFFFFFFFFFFFFFFFFFFFFFFFFFFFFFFFFFFFFFFFFFFFFFFFF
310
FFFFFFFFFFFFFFFFFFFFFFFFFFFFFFFFFFFFFFFFFFFFFFFFFFFFFFFFFFFFFFFF
310
FFFFFFFFFFFFFFFFFFFFFFFFFFFFFFFFFFFFFFFFFFFFFFFFFFFFFFFFFFFFFFFF
310
FFFFFFFFFFFFFFFFFFFFFFFFFFFFFFFFFFFFFFFFFFFFFFFFFFFFFFFFFFFFFFFF
310
FFFFFFFFFFFFFFFFFFFFFFFFFFFFFFFFFFFFFFFFFFFFFFFFFFFFFFFFFFFFFFFF
310
FFFFFFFFFFFFFFFFFFFFFFFFFFFFFFFFFFFFFFFFFFFFFFFFFFFFFFFFFFFFFFFF
310
FFFFFFFFFFFFFFFFFFFFFFFFFFFFFFFFFFFFFFFFFFFFFFFFFFFFFFFFFFFFFFFF
310
FFFFFFFFFFFFFFFFFFFFFFFFFFFFFFFFFFFFFFFFFFFFFFFFFFFFFFFFFFFFFFFF
310
FFFFFFFFFFFFFFFFFFFFFFFFFFFFFFFFFFFFFFFFFFFFFFFFFFFFFFFFFFFFFFFF
310
FFFFFFFFFFFFFFFFFFFFFFFFFFFFFFFFFFFFFFFFFFFFFFFFFFFFFFFFFFFFFFFF
310
FFFFFFFFFFFFFFFFFFFFFFFFFFFFFFFFFFFFFFFFFFFFFFFFFFFFFFFFFFFFFFFF
310
FFFFFFFFFFFFFFFFFFFFFFFFFFFFFFFFFFFFFFFFFFFFFFFFFFFFFFFFFFFFFFFF
310
FFFFFFFFFFFFFFFFFFFFFFFFFFFFFFFFFFFFFFFFFFFFFFFFFFFFFFFFFFFFFFFF
310
FFFFFFFFFFFFFFFFFFFFFFFFFFFFFFFFFFFFFFFFFFFFFFFFFFFFFFFFFFFFFFFF
310
FFFFFFFFFFFFFFFFFFFFFFFFFFFFFFFFFFFFFFFFFFFFFFFFFFFFFFFFFFFFFFFF
310
FFFFFFFFFFFFFFFFFFFFFFFFFFFFFFFFFFFFFFFFFFFFFFFFFFFFFFFFFFFFFFFF
310
FFFFFFFFFFFFFFFFFFFFFFFFFFFFFFFFFFFFFFFFFFFFFFFFFFFFFFFFFFFFFFFF
310
FFFFFFFFFFFFFFFFFFFFFFFFFFFFFFFFFFFFFFFFFFFFFFFFFFFFFFFFFFFFFFFF
310
FFFFFFFFFFFFFFFFFFFFFFFFFFFFFFFFFFFFFFFFFFFFFFFFFFFFFFFFFFFFFFFF
310
FFFFFFFFFFFFFFFFFFFFFFFFFFFFFFFFFFFFFFFFFFFFFFFFFFFFFFFFFFFFFFFF
310
FFFFFFFFFFFFFFFFFFFFFFFFFFFFFFFFFFFFFFFFFFFFFFFFFFFFFFFFFFFFFFFF
310
FFFFFFFFFFFFFFFFFFFFFFFFFFFFFFFFFFFFFFFFFFFFFFFFFFFFFFFFFFFFFFFF
310
FFFFFFFFFFFFFFFFFFFFFFFFFFFFFFFFFFFFFFFFFFFFFFFFFFFFFFFFFFFFFFFF
310
FFFFFFFFFFFFFFFFFFFFFFFFFFFFFFFFFFFFFFFFFFFFFFFFFFFFFFFFFFFFFFFF
310
FFFFFFFFFFFFFFFFFFFFFFFFFFFFFFFFFFFFFFFFFFFFFFFFFFFFFFFFFFFFFFFF
310
FFFFFFFFFFFFFFFFFFFFFFFFFFFFFFFFFFFFFFFFFFFFFFFFFFFFFFFFFFFFFFFF
310
FFFFFFFFFFFFFFFFFFFFFFFFFFFFFFFFFFFFFFFFFFFFFFFFFFFFFFFFFFFFFFFF
310
FFFFFFFFFFFFFFFFFFFFFFFFFFFFFFFFFFFFFFFFFFFFFFFFFFFFFFFFFFFFFFFF
310
FFFFFFFFFFFFFFFFFFFFFFFFFFFFFFFFFFFFFFFFFFFFFFFFFFFFFFFFFFFFFFFF
310
FFFFFFFFFFFFFFFFFFFFFFFFFFFFFFFFFFFFFFFFFFFFFFFFFFFFFFFFFFFFFFFF
310
FFFFFFFFFFFFFFFFFFFFFFFFFFFFFFFFFFFFFFFFFFFFFFFFFFFFFFFFFFFFFFFF
310
FFFFFFFFFFFFFFFFFFFFFFFFFFFFFFFFFFFFFFFFFFFFFFFFFFFFFFFFFFFFFFFF
310
FFFFFFFFFFFFFFFFFFFFFFFFFFFFFFFFFFFFFFFFFFFFFFFFFFFFFFFFFFFFFFFF
310
FFFFFFFFFFFFFFFFFFFFFFFFFFFFFFFFFFFFFFFFFFFFFFFFFFFFFFFFFFFFFFFF
310
FFFFFFFFFFFFFFFFFFFFFFFFFFFFFFFFFFFFFFFFFFFFFFFFFFFFFFFFFFFFFFFF
310
FFFFFFFFFFFFFFFFFFFFFFFFFFFFFFFFFFFFFFFFFFFFFFFFFFFFFFFFFFFFFFFF
310
FFFFFFFFFFFFFFFFFFFFFFFFFFFFFFFFFFFFFFFFFFFFFFFFFFFFFFFFFFFFFFFF
310
FFFFFFFFFFFFFFFFFFFFFFFFFFFFFFFFFFFFFFFFFFFFFFFFFFFFFFFFFFFFFFFF
310
FFFFFFFFFFFFFFFFFFFFFFFFFFFFFFFFFFFFFFFFFFFFFFFFFFFFFFFFFFFFFFFF
310
FFFFFFFFFFFFFFFFFFFFFFFFFFFFFFFFFFFFFFFFFFFFFFFFFFFFFFFFFFFFFFFF
310
FFFFB43404FFB43404FFB43404FFB43404FFB43404FFB43404FFB43404FFB434
310
04FFB43404FFB43404FFB43404FFB43404FFB43404FFB43404FFB43404FFB434
310
04FFB43404FFB43404FFB43404FFB43404FFB43404FFB43404FFB43404FFB434
310
04FFB43404FFB43404FFB43404FFB43404FFB43404FFB43404FFB43404FFB434
310
04FFB43404FFB43404FFB43404FFB43404FFB43404FFB43404FFB43404FFB434
310
04FFB43404FFB43404FFB43404FFB43404FFB43404FFB43404FFB43404FFB434
310
04FFB43404FFB43404FFB43404FFB43404FFB43404FFB43404FFB43404FFB434
310
04FFFFFFFFFFFFFFFFFFFFFFFFFFFFFFFFFFFFFFFFFFFFFFFFFFFFFFFFFFFFFF
310
FFFFFFFFFFFFFFFFFFFFFFFFFFFFFFFFFFFFFFFFFFFFFFFFFFFFFFFFFFFFFFFF
310
FFFFFFFFFFFFFFFFFFFFFFFFFFFFFFFFFFFFFFFFFFFFFFFFFFFFFFFFFFFFFFFF
310
FFFFFFFFFFFFFFFFFFFFFFFFFFFFFFFFFFFFFFFFFFFFFFFFFFFFFFFFFFFFFFFF
310
FFFFFFFFFFFFFFFFFFFFB43404FFE4E4E4FFE4E4E4FFE4E4E4FFE4E4E4FFE4E4
310
E4FFE4E4E4FFE4E4E4FFE4E4E4FFE4E4E4FFE4E4E4FFE4E4E4FFE4E4E4FFE4E4
310
E4FFE4E4E4FFE4E4E4FFE4E4E4FFE4E4E4FFE4E4E4FFE4E4E4FFE4E4E4FFE4E4
310
E4FFE4E4E4FFE4E4E4FFE4E4E4FFE4E4E4FFE4E4E4FFE4E4E4FFE4E4E4FFE4E4
310
E4FFE4E4E4FFE4E4E4FFE4E4E4FFE4E4E4FFE4E4E4FFE4E4E4FFE4E4E4FFE4E4
310
E4FFE4E4E4FFE4E4E4FFE4E4E4FFE4E4E4FFE4E4E4FFE4E4E4FFE4E4E4FFE4E4
310
E4FFE4E4E4FFE4E4E4FFE4E4E4FFE4E4E4FFE4E4E4FFE4E4E4FFE4E4E4FFE4E4
310
E4FFE4E4E4FFB43404FFFFFFFFFFFFFFFFFFFFFFFFFFFFFFFFFFFFFFFFFFFFFF
310
FFFFFFFFFFFFFFFFFFFFFFFFFFFFFFFFFFFFFFFFFFFFFFFFFFFFFFFFFFFFFFFF
310
FFFFFFFFFFFFFFFFFFFFFFFFFFFFFFFFFFFFFFFFFFFFFFFFFFFFFFFFFFFFFFFF
310
FFFFFFFFFFFFFFFFFFFFFFFFFFFFFFFFFFFFFFFFFFFFFFFFFFFFFFFFFFFFFFFF
310
FFFFFFFFFFFFFFFFFFFFFFFFFFFFFFFFFFFFB43404FFE4DCDCFFE4E4E4FFE4E4
310
E4FFE4E4E4FFE4E4E4FFE4E4E4FFE4E4E4FFE4E4E4FFE4E4E4FFE4E4E4FFE4E4
310
E4FFE4E4E4FFE4E4E4FFE4E4E4FFE4E4E4FFE4E4E4FFE4E4E4FFE4E4E4FFE4E4
310
E4FFE4E4E4FFE4E4E4FFE4E4E4FFE4E4E4FFE4E4E4FFE4E4E4FFE4E4E4FFE4E4
310
E4FFE4E4E4FFE4E4E4FFE4E4E4FFE4E4E4FFE4E4E4FFE4E4E4FFE4E4E4FFE4E4
310
E4FFE4E4E4FFE4E4E4FFE4E4E4FFE4E4E4FFE4E4E4FFE4E4E4FFE4E4E4FFE4E4
310
E4FFE4E4E4FFE4E4E4FFE4E4E4FFE4E4E4FFE4E4E4FFE4E4E4FFE4E4E4FFE4E4
310
E4FFE4E4E4FFE4E4E4FFE4E4E4FFB43404FFFFFFFFFFFFFFFFFFFFFFFFFFFFFF
310
FFFFFFFFFFFFFFFFFFFFFFFFFFFFFFFFFFFFFFFFFFFFFFFFFFFFFFFFFFFFFFFF
310
FFFFFFFFFFFFFFFFFFFFFFFFFFFFFFFFFFFFFFFFFFFFFFFFFFFFFFFFFFFFFFFF
310
FFFFFFFFFFFFFFFFFFFFFFFFFFFFFFFFFFFFFFFFFFFFFFFFFFFFFFFFFFFFFFFF
310
FFFFFFFFFFFFFFFFFFFFFFFFFFFFFFFFFFFFFFFFFFFFFFFFFFFFB43404FFE4E4
310
E4FFE4E4E4FFE4E4E4FFE4E4E4FFE4E4E4FFE4E4E4FFE4E4E4FFE4E4E4FFE4E4
310
E4FFE4E4E4FFE4E4E4FFE4E4E4FFE4E4E4FFE4E4E4FFE4E4E4FFE4E4E4FFE4E4
310
E4FFE4E4E4FFE4E4E4FFE4E4E4FFE4E4E4FFE4E4E4FFE4E4E4FFE4E4E4FFE4E4
310
E4FFE4E4E4FFE4E4E4FFE4E4E4FFE4E4E4FFE4E4E4FFE4E4E4FFE4E4E4FFE4E4
310
E4FFE4E4E4FFE4E4E4FFE4E4E4FFE4E4E4FFE4E4E4FFE4E4E4FFE4E4E4FFE4E4
310
E4FFE4E4E4FFE4E4E4FFE4E4E4FFE4E4E4FFE4E4E4FFE4E4E4FFE4E4E4FFE4E4
310
E4FFE4E4E4FFE4E4E4FFE4E4E4FFE4E4E4FFE4E4E4FFB43404FFFFFFFFFFFFFF
310
FFFFFFFFFFFFFFFFFFFFFFFFFFFFFFFFFFFFFFFFFFFFFFFFFFFFFFFFFFFFFFFF
310
FFFFFFFFFFFFFFFFFFFFFFFFFFFFFFFFFFFFFFFFFFFFFFFFFFFFFFFFFFFFFFFF
310
FFFFFFFFFFFFFFFFFFFFFFFFFFFFFFFFFFFFFFFFFFFFFFFFFFFFFFFFFFFFFFFF
310
FFFFFFFFFFFFFFFFFFFFFFFFFFFFFFFFFFFFFFFFFFFFFFFFFFFFFFFFFFFFFFFF
310
FFFFB43404FFE4DCDCFFE4E4E4FFE4E4E4FFE4E4E4FFE4E4E4FFE4E4E4FFE4E4
310
E4FFE4E4E4FFE4E4E4FFE4E4E4FFE4E4E4FFE4E4E4FFE4E4E4FFE4E4E4FFE4E4
310
E4FFE4E4E4FFE4E4E4FFE4E4E4FFE4E4E4FFE4E4E4FFE4E4E4FFE4E4E4FFE4E4
310
E4FFE4E4E4FFE4E4E4FFE4E4E4FFE4E4E4FFE4E4E4FFE4E4E4FFE4E4E4FFE4E4
310
E4FFE4E4E4FFE4E4E4FFE4E4E4FFE4E4E4FFE4E4E4FFE4E4E4FFE4E4E4FFE4E4
310
E4FFE4E4E4FFE4E4E4FFE4E4E4FFE4E4E4FFE4E4E4FFE4E4E4FFE4E4E4FFE4E4
310
E4FFE4E4E4FFE4E4E4FFE4E4E4FFE4E4E4FFE4E4E4FFE4E4E4FFE4E4E4FFB434
310
04FFFFFFFFFFFFFFFFFFFFFFFFFFFFFFFFFFFFFFFFFFFFFFFFFFFFFFFFFFFFFF
310
FFFFFFFFFFFFFFFFFFFFFFFFFFFFFFFFFFFFFFFFFFFFFFFFFFFFFFFFFFFFFFFF
310
FFFFFFFFFFFFFFFFFFFFFFFFFFFFFFFFFFFFFFFFFFFFFFFFFFFFFFFFFFFFFFFF
310
FFFFFFFFFFFFFFFFFFFFFFFFFFFFFFFFFFFFFFFFFFFFFFFFFFFFFFFFFFFFFFFF
310
FFFFFFFFFFFFFFFFFFFFB43404FFE4E4E4FFE4E4E4FFE4E4E4FFE4E4E4FFE4E4
310
E4FFE4E4E4FFE4E4E4FFE4E4E4FFE4E4E4FFE4E4E4FFE4E4E4FFE4E4E4FFE4E4
310
E4FFE4E4E4FFE4E4E4FFE4E4E4FFE4E4E4FFE4E4E4FFE4E4E4FFE4E4E4FFE4E4
310
E4FFE4E4E4FFE4E4E4FFE4E4E4FFE4E4E4FFE4E4E4FFE4E4E4FFE4E4E4FFE4E4
310
E4FFE4E4E4FFE4E4E4FFE4E4E4FFE4E4E4FFE4E4E4FFE4E4E4FFE4E4E4FFE4E4
310
E4FFE4E4E4FFE4E4E4FFE4E4E4FFE4E4E4FFE4E4E4FFE4E4E4FFE4E4E4FFE4E4
310
E4FFE4E4E4FFE4E4E4FFE4E4E4FFE4E4E4FFE4E4E4FFE4E4E4FFE4E4E4FFE4E4
310
E4FFE4E4E4FFB43404FFFFFFFFFFFFFFFFFFFFFFFFFFFFFFFFFFFFFFFFFFFFFF
310
FFFFFFFFFFFFFFFFFFFFFFFFFFFFFFFFFFFFFFFFFFFFFFFFFFFFFFFFFFFFFFFF
310
FFFFFFFFFFFFFFFFFFFFFFFFFFFFFFFFFFFFFFFFFFFFFFFFFFFFFFFFFFFFFFFF
310
FFFFFFFFFFFFFFFFFFFFFFFFFFFFFFFFFFFFFFFFFFFFFFFFFFFFFFFFFFFFFFFF
310
FFFFFFFFFFFFFFFFFFFFFFFFFFFFFFFFFFFFB43404FFE4DCDCFFE4E4E4FFE4E4
310
E4FFE4E4E4FFE4E4E4FFE4E4E4FFE4E4E4FFE4E4E4FFE4E4E4FFE4E4E4FFE4E4
310
E4FFE4E4E4FFE4E4E4FFE4E4E4FFE4E4E4FFE4E4E4FFE4E4E4FFE4E4E4FFE4E4
310
E4FFE4E4E4FFE4E4E4FFE4E4E4FFE4E4E4FFE4E4E4FFE4E4E4FFE4E4E4FFE4E4
310
E4FFE4E4E4FFE4E4E4FFE4E4E4FFE4E4E4FFE4E4E4FFE4E4E4FFE4E4E4FFE4E4
310
E4FFE4E4E4FFE4E4E4FFE4E4E4FFE4E4E4FFE4E4E4FFE4E4E4FFE4E4E4FFE4E4
310
E4FFE4E4E4FFE4E4E4FFE4E4E4FFE4E4E4FFE4E4E4FFE4E4E4FFE4E4E4FFE4E4
310
E4FFE4E4E4FFE4E4E4FFE4E4E4FFB43404FFFFFFFFFFFFFFFFFFFFFFFFFFFFFF
310
FFFFFFFFFFFFFFFFFFFFFFFFFFFFFFFFFFFFFFFFFFFFFFFFFFFFFFFFFFFFFFFF
310
FFFFFFFFFFFFFFFFFFFFFFFFFFFFFFFFFFFFFFFFFFFFFFFFFFFFFFFFFFFFFFFF
310
FFFFFFFFFFFFFFFFFFFFFFFFFFFFFFFFFFFFFFFFFFFFFFFFFFFFFFFFFFFFFFFF
310
FFFFFFFFFFFFFFFFFFFFFFFFFFFFFFFFFFFFFFFFFFFFFFFFFFFFB43404FFE4E4
310
E4FFE4E4E4FFE4E4E4FFE4E4E4FFE4E4E4FFE4E4E4FFE4E4E4FFE4E4E4FFE4E4
310
E4FFE4E4E4FFE4E4E4FFE4E4E4FFE4E4E4FFE4E4E4FFE4E4E4FFE4E4E4FFE4E4
310
E4FFE4E4E4FFE4E4E4FFE4E4E4FFE4E4E4FFE4E4E4FFE4E4E4FFE4E4E4FFE4E4
310
E4FFE4E4E4FFE4E4E4FFE4E4E4FFE4E4E4FFE4E4E4FFE4E4E4FFE4E4E4FFE4E4
310
E4FFE4E4E4FFE4E4E4FFE4E4E4FFE4E4E4FFE4E4E4FFE4E4E4FFE4E4E4FFE4E4
310
E4FFE4E4E4FFE4E4E4FFE4E4E4FFE4E4E4FFE4E4E4FFE4E4E4FFE4E4E4FFE4E4
310
E4FFE4E4E4FFE4E4E4FFE4E4E4FFE4E4E4FFE4E4E4FFB43404FFFFFFFFFFFFFF
310
FFFFFFFFFFFFFFFFFFFFFFFFFFFFFFFFFFFFFFFFFFFFFFFFFFFFFFFFFFFFFFFF
310
FFFFFFFFFFFFFFFFFFFFFFFFFFFFFFFFFFFFFFFFFFFFFFFFFFFFFFFFFFFFFFFF
310
FFFFFFFFFFFFFFFFFFFFFFFFFFFFFFFFFFFFFFFFFFFFFFFFFFFFFFFFFFFFFFFF
310
FFFFFFFFFFFFFFFFFFFFFFFFFFFFFFFFFFFFFFFFFFFFFFFFFFFFFFFFFFFFFFFF
310
FFFFB43404FFE4DCDCFFE4E4E4FFE4E4E4FFE4E4E4FFE4E4E4FFE4E4E4FFE4E4
310
E4FFE4E4E4FFE4E4E4FFE4E4E4FFE4E4E4FFE4E4E4FFE4E4E4FFE4E4E4FFE4E4
310
E4FFE4E4E4FFE4E4E4FFE4E4E4FFE4E4E4FFE4E4E4FFE4E4E4FFE4E4E4FFE4E4
310
E4FFE4E4E4FFE4E4E4FFE4E4E4FFE4E4E4FFE4E4E4FFE4E4E4FFE4E4E4FFE4E4
310
E4FFE4E4E4FFE4E4E4FFE4E4E4FFE4E4E4FFE4E4E4FFE4E4E4FFE4E4E4FFE4E4
310
E4FFE4E4E4FFE4E4E4FFE4E4E4FFE4E4E4FFE4E4E4FFE4E4E4FFE4E4E4FFE4E4
310
E4FFE4E4E4FFE4E4E4FFE4E4E4FFE4E4E4FFE4E4E4FFE4E4E4FFE4E4E4FFB434
310
04FFFFFFFFFFFFFFFFFFFFFFFFFFFFFFFFFFFFFFFFFFFFFFFFFFFFFFFFFFFFFF
310
FFFFFFFFFFFFFFFFFFFFFFFFFFFFFFFFFFFFFFFFFFFFFFFFFFFFFFFFFFFFFFFF
310
FFFFFFFFFFFFFFFFFFFFFFFFFFFFFFFFFFFFFFFFFFFFFFFFFFFFFFFFFFFFFFFF
310
FFFFFFFFFFFFFFFFFFFFFFFFFFFFFFFFFFFFFFFFFFFFFFFFFFFFFFFFFFFFFFFF
310
FFFFFFFFFFFFFFFFFFFFB43404FFE4E4E4FFE4E4E4FFE4E4E4FFE4E4E4FFE4E4
310
E4FFE4E4E4FFE4E4E4FFE4E4E4FFE4E4E4FFE4E4E4FFE4E4E4FFE4E4E4FFE4E4
310
E4FFE4E4E4FFE4E4E4FFE4E4E4FFE4E4E4FFE4E4E4FFE4E4E4FFE4E4E4FFE4E4
310
E4FFE4E4E4FFE4E4E4FFE4E4E4FFE4E4E4FFE4E4E4FFE4E4E4FFE4E4E4FFE4E4
310
E4FFE4E4E4FFE4E4E4FFE4E4E4FFE4E4E4FFE4E4E4FFE4E4E4FFE4E4E4FFE4E4
310
E4FFE4E4E4FFE4E4E4FFE4E4E4FFE4E4E4FFE4E4E4FFE4E4E4FFE4E4E4FFE4E4
310
E4FFE4E4E4FFE4E4E4FFE4E4E4FFE4E4E4FFE4E4E4FFE4E4E4FFE4E4E4FFE4E4
310
E4FFE4E4E4FFB43404FFFFFFFFFFFFFFFFFFFFFFFFFFFFFFFFFFFFFFFFFFFFFF
310
FFFFFFFFFFFFFFFFFFFFFFFFFFFFFFFFFFFFFFFFFFFFFFFFFFFFFFFFFFFFFFFF
310
FFFFFFFFFFFFFFFFFFFFFFFFFFFFFFFFFFFFFFFFFFFFFFFFFFFFFFFFFFFFFFFF
310
FFFFFFFFFFFFFFFFFFFFFFFFFFFFFFFFFFFFFFFFFFFFFFFFFFFFFFFFFFFFFFFF
310
FFFFFFFFFFFFFFFFFFFFFFFFFFFFFFFFFFFFB43404FFDCDCDCFFE4E4E4FFE4E4
310
E4FFE4E4E4FFE4E4E4FFE4E4E4FFE4E4E4FFE4E4E4FFE4E4E4FFE4E4E4FFE4E4
310
E4FFE4E4E4FFE4E4E4FFE4E4E4FFE4E4E4FFE4E4E4FFE4E4E4FFE4E4E4FFE4E4
310
E4FFE4E4E4FFE4E4E4FFE4E4E4FFE4E4E4FFE4E4E4FFE4E4E4FFE4E4E4FFE4E4
310
E4FFE4E4E4FFE4E4E4FFE4E4E4FFE4E4E4FFE4E4E4FFE4E4E4FFE4E4E4FFE4E4
310
E4FFE4E4E4FFE4E4E4FFE4E4E4FFE4E4E4FFE4E4E4FFE4E4E4FFE4E4E4FFE4E4
310
E4FFE4E4E4FFE4E4E4FFE4E4E4FFE4E4E4FFE4E4E4FFE4E4E4FFE4E4E4FFE4E4
310
E4FFE4E4E4FFDCDCDCFFDCDCDCFFB43404FFFFFFFFFFFFFFFFFFFFFFFFFFFFFF
310
FFFFFFFFFFFFFFFFFFFFFFFFFFFFFFFFFFFFFFFFFFFFFFFFFFFFFFFFFFFFFFFF
310
FFFFFFFFFFFFFFFFFFFFFFFFFFFFFFFFFFFFFFFFFFFFFFFFFFFFFFFFFFFFFFFF
310
FFFFFFFFFFFFFFFFFFFFFFFFFFFFFFFFFFFFFFFFFFFFFFFFFFFFFFFFFFFFFFFF
310
FFFFFFFFFFFFFFFFFFFFFFFFFFFFFFFFFFFFFFFFFFFFFFFFFFFFB43404FFE4DC
310
DCFFE4DCDCFFE4DCDCFFE4DCDCFFE4DCDCFFE4E4E4FFE4E4E4FFE4DCDCFFE4E4
310
E4FFE4DCDCFFE4DCDCFFE4E4E4FFE4DCDCFFE4E4E4FFE4DCDCFFE4E4E4FFE4DC
310
DCFFE4E4E4FFE4DCDCFFE4E4E4FFE4DCDCFFE4E4E4FFE4E4E4FFE4DCDCFFE4E4
310
E4FFE4E4E4FFE4E4E4FFE4E4E4FFE4E4E4FFE4DCDCFFE4E4E4FFE4DCDCFFE4E4
310
E4FFE4DCDCFFE4E4E4FFE4E4E4FFE4DCDCFFE4E4E4FFE4E4E4FFE4DCDCFFE4E4
310
E4FFE4DCDCFFE4E4E4FFE4E4E4FFE4DCDCFFE4E4E4FFE4DCDCFFE4E4E4FFE4DC
310
DCFFE4DCDCFFE4E4E4FFE4DCDCFFE4E4E4FFE4E4E4FFB43404FFFFFFFFFFFFFF
310
FFFFFFFFFFFFFFFFFFFFFFFFFFFFFFFFFFFFFFFFFFFFFFFFFFFFFFFFFFFFFFFF
310
FFFFFFFFFFFFFFFFFFFFFFFFFFFFFFFFFFFFFFFFFFFFFFFFFFFFFFFFFFFFFFFF
310
FFFFFFFFFFFFFFFFFFFFFFFFFFFFFFFFFFFFFFFFFFFFFFFFFFFFFFFFFFFFFFFF
310
FFFFFFFFFFFFFFFFFFFFFFFFFFFFFFFFFFFFFFFFFFFFFFFFFFFFFFFFFFFFFFFF
310
FFFFB43404FFB43404FFB43404FFB43404FFB43404FFB43404FFB43404FFB434
310
04FFB43404FFB43404FFB43404FFB43404FFB43404FFB43404FFB43404FFB434
310
04FFB43404FFB43404FFB43404FFB43404FFB43404FFB43404FFB43404FFB434
310
04FFB43404FFB43404FFB43404FFB43404FFB43404FFB43404FFB43404FFB434
310
04FFB43404FFB43404FFB43404FFB43404FFB43404FFB43404FFB43404FFB434
310
04FFB43404FFB43404FFB43404FFB43404FFB43404FFB43404FFB43404FFB434
310
04FFB43404FFB43404FFB43404FFB43404FFB43404FFB43404FFB43404FFB434
310
04FFF4F4F4FFFFFFFFFFFFFFFFFFFFFFFFFFFFFFFFFFFFFFFFFFFFFFFFFFFFFF
310
FFFFFFFFFFFFFFFFFFFFFFFFFFFFFFFFFFFFFFFFFFFFFFFFFFFFFFFFFFFFFFFF
310
FFFFFFFFFFFFFFFFFFFFFFFFFFFFFFFFFFFFFFFFFFFFFFFFFFFFFFFFFFFFFFFF
310
FFFFFFFFFFFFFFFFFFFFFFFFFFFFFFFFFFFFFFFFFFFFFFFFFFFFFFFFFFFFFFFF
310
FFFFFFFFFFFFFFFFFFFFFFFFFFFFFFFFFFFFFFFFFFFFFFFFFFFFFFFFFFFFB434
310
04FFFFFFFFFFFFFFFFFFFFFFFFFFFFFFFFFFFFFFFFFFFFFFFFFFFFFFFFFFFFFF
310
FFFFFFFFFFFFFFFFFFFFFFFFFFFFFFFFFFFFB43404FFFFFFFFFFFFFFFFFFB434
310
04FFFFFFFFFFFFFFFFFFFFFFFFFFFFFFFFFFFFFFFFFFFFFFFFFFFFFFFFFFFFFF
310
FFFFFFFFFFFFFFFFFFFFFFFFFFFFFFFFFFFFB43404FFFFFFFFFFFFFFFFFFB434
310
04FFFFFFFFFFFFFFFFFFFFFFFFFFFFFFFFFFFFFFFFFFFFFFFFFFFFFFFFFFFFFF
310
FFFFFFFFFFFFFFFFFFFFFFFFFFFFFFFFFFFFB43404FFFFFFFFFFFFFFFFFFFFFF
310
FFFFFFFFFFFFFFFFFFFFFFFFFFFFFFFFFFFFFFFFFFFFFFFFFFFFFFFFFFFFFFFF
310
FFFFFFFFFFFFFFFFFFFFFFFFFFFFFFFFFFFFFFFFFFFFFFFFFFFFFFFFFFFFFFFF
310
FFFFFFFFFFFFFFFFFFFFFFFFFFFFFFFFFFFFFFFFFFFFFFFFFFFFFFFFFFFFFFFF
310
FFFFFFFFFFFFFFFFFFFFFFFFFFFFFFFFFFFFFFFFFFFFFFFFFFFFFFFFFFFFFFFF
310
FFFFFFFFFFFFFFFFFFFFFFFFFFFFFFFFFFFFFFFFFFFFFFFFFFFFFFFFFFFFFFFF
310
FFFFFFFFFFFFB43404FFFFFFFFFFB43404FFB43404FFB43404FFB43404FFB434
310
04FFB43404FFB43404FFB43404FFB43404FFB43404FFFFFFFFFFB43404FFECEC
310
ECFFF4F4F4FFB43404FFFFFFFFFFB43404FFB43404FFB43404FFB43404FFB434
310
04FFB43404FFB43404FFB43404FFB43404FFB43404FFFFFFFFFFB43404FFFFFF
310
FFFFFFFFFFFFB43404FFFFFFFFFFB43404FFB43404FFB43404FFB43404FFB434
310
04FFB43404FFB43404FFB43404FFB43404FFB43404FFFFFFFFFFB43404FFFFFF
310
FFFFFFFFFFFFFFFFFFFFFFFFFFFFFFFFFFFFFFFFFFFFFFFFFFFFFFFFFFFFFFFF
310
FFFFFFFFFFFFFFFFFFFFFFFFFFFFFFFFFFFFFFFFFFFFFFFFFFFFFFFFFFFFFFFF
310
FFFFFFFFFFFFFFFFFFFFFFFFFFFFFFFFFFFFFFFFFFFFFFFFFFFFFFFFFFFFFFFF
310
FFFFFFFFFFFFFFFFFFFFFFFFFFFFFFFFFFFFFFFFFFFFFFFFFFFFFFFFFFFFFFFF
310
FFFFFFFFFFFFFFFFFFFFFFFFFFFFFFFFFFFFFFFFFFFFFFFFFFFFFFFFFFFFFFFF
310
FFFFFFFFFFFFFFFFFFFFFFFFFFFFB43404FFB43404FFB43404FFE4E4E4FFE4E4
310
E4FFE4E4E4FFE4E4E4FFE4E4E4FFE4E4E4FFE4E4E4FFE4E4E4FFB43404FFB434
310
04FFB43404FFECECECFFF4F4F4FFB43404FFB43404FFB43404FFDCDCDCFFE4E4
310
E4FFE4E4E4FFE4E4E4FFE4E4E4FFE4E4E4FFE4E4E4FFE4E4E4FFB43404FFB434
310
04FFB43404FFFFFFFFFFF4F4F4FFB43404FFB43404FFB43404FFDCDCDCFFE4E4
310
E4FFE4E4E4FFE4E4E4FFE4E4E4FFE4E4E4FFE4E4E4FFE4E4E4FFB43404FFB434
310
04FFB43404FFFFFFFFFFFFFFFFFFFFFFFFFFFFFFFFFFFFFFFFFFFFFFFFFFFFFF
310
FFFFFFFFFFFFFFFFFFFFFFFFFFFFFFFFFFFFFFFFFFFFFFFFFFFFFFFFFFFFFFFF
310
FFFFFFFFFFFFFFFFFFFFFFFFFFFFFFFFFFFFFFFFFFFFFFFFFFFFFFFFFFFFFFFF
310
FFFFFFFFFFFFFFFFFFFFFFFFFFFFFFFFFFFFFFFFFFFFFFFFFFFFFFFFFFFFFFFF
310
FFFFFFFFFFFFFFFFFFFFFFFFFFFFFFFFFFFFFFFFFFFFFFFFFFFFFFFFFFFFFFFF
310
FFFFFFFFFFFFFFFFFFFFFFFFFFFFFFFFFFFFFFFFFFFFFFFFFFFFFFFFFFFFB434
310
04FFE4DCDCFFE4E4E4FFE4E4E4FFE4E4E4FFE4E4E4FFE4E4E4FFE4E4E4FFE4E4
310
E4FFB43404FFFFFFFFFFFFFFFFFFFFFFFFFFFFFFFFFFFFFFFFFFFFFFFFFFB434
310
04FFE4E4E4FFE4E4E4FFE4E4E4FFE4E4E4FFE4E4E4FFE4E4E4FFE4E4E4FFE4E4
310
E4FFB43404FFFFFFFFFFFFFFFFFFFFFFFFFFFFFFFFFFFFFFFFFFFFFFFFFFB434
310
04FFE4E4E4FFE4E4E4FFE4E4E4FFE4E4E4FFE4E4E4FFE4E4E4FFE4E4E4FFE4E4
310
E4FFB43404FFFFFFFFFFFFFFFFFFFFFFFFFFFFFFFFFFFFFFFFFFFFFFFFFFFFFF
310
FFFFFFFFFFFFFFFFFFFFFFFFFFFFFFFFFFFFFFFFFFFFFFFFFFFFFFFFFFFFFFFF
310
FFFFFFFFFFFFFFFFFFFFFFFFFFFFFFFFFFFFFFFFFFFFFFFFFFFFFFFFFFFFFFFF
310
FFFFFFFFFFFFFFFFFFFFFFFFFFFFFFFFFFFFFFFFFFFFFFFFFFFFFFFFFFFFFFFF
310
FFFFFFFFFFFFFFFFFFFFFFFFFFFFFFFFFFFFFFFFFFFFFFFFFFFFFFFFFFFFFFFF
310
FFFFFFFFFFFFFFFFFFFFFFFFFFFFFFFFFFFFFFFFFFFFFFFFFFFFFFFFFFFFFFFF
310
FFFFFFFFFFFFB43404FFDCDCDCFFE4E4E4FFDCDCDCFFE4E4E4FFE4DCDCFFE4E4
310
E4FFE4E4E4FFDCDCDCFFB43404FFFFFFFFFFFFFFFFFFFFFFFFFFFFFFFFFFFFFF
310
FFFFFFFFFFFFB43404FFE4DCDCFFE4E4E4FFE4E4E4FFE4E4E4FFE4DCDCFFE4E4
310
E4FFE4DCDCFFE4E4E4FFB43404FFFFFFFFFFFFFFFFFFFFFFFFFFFFFFFFFFFFFF
310
FFFFFFFFFFFFB43404FFE4DCDCFFE4E4E4FFE4E4E4FFE4E4E4FFE4E4E4FFE4DC
310
DCFFE4E4E4FFE4E4E4FFB43404FFFFFFFFFFFFFFFFFFFFFFFFFFFFFFFFFFFFFF
310
FFFFFFFFFFFFFFFFFFFFFFFFFFFFFFFFFFFFFFFFFFFFFFFFFFFFFFFFFFFFFFFF
310
FFFFFFFFFFFFFFFFFFFFFFFFFFFFFFFFFFFFFFFFFFFFFFFFFFFFFFFFFFFFFFFF
310
FFFFFFFFFFFFFFFFFFFFFFFFFFFFFFFFFFFFFFFFFFFFFFFFFFFFFFFFFFFFFFFF
310
FFFFFFFFFFFFFFFFFFFFFFFFFFFFFFFFFFFFFFFFFFFFFFFFFFFFFFFFFFFFFFFF
310
FFFFFFFFFFFFFFFFFFFFFFFFFFFFFFFFFFFFFFFFFFFFFFFFFFFFFFFFFFFFFFFF
310
FFFFFFFFFFFFFFFFFFFFFFFFFFFFB43404FFB43404FFB43404FFB43404FFB434
310
04FFB43404FFB43404FFB43404FFB43404FFB43404FFFFFFFFFFFFFFFFFFFFFF
310
FFFFFFFFFFFFFFFFFFFFFFFFFFFFB43404FFB43404FFB43404FFB43404FFB434
310
04FFB43404FFB43404FFB43404FFB43404FFB43404FFFFFFFFFFFFFFFFFFFFFF
310
FFFFFFFFFFFFFFFFFFFFFFFFFFFFB43404FFB43404FFB43404FFB43404FFB434
310
04FFB43404FFB43404FFB43404FFB43404FFB43404FFFFFFFFFFFFFFFFFFFFFF
310
FFFFFFFFFFFFFFFFFFFFFFFFFFFFFFFFFFFFFFFFFFFFFFFFFFFFFFFFFFFFFFFF
310
FFFFFFFFFFFFFFFFFFFFFFFFFFFFFFFFFFFFFFFFFFFFFFFFFFFFFFFFFFFFFFFF
310
FFFFFFFFFFFFFFFFFFFFFFFFFFFFFFFFFFFFFFFFFFFFFFFFFFFFFFFFFFFFFFFF
310
FFFFFFFFFFFFFFFFFFFFFFFFFFFFFFFFFFFFFFFFFFFFFFFFFFFFFFFFFFFFFFFF
310
FFFFFFFFFFFFFFFFFFFFFFFFFFFFFFFFFFFFFFFFFFFFFFFFFFFFFFFFFFFFFFFF
310
FFFFFFFFFFFFFFFFFFFFFFFFFFFFFFFFFFFFFFFFFFFFFFFFFFFFFFFFFFFFFFFF
310
FFFFFFFFFFFFFFFFFFFFFFFFFFFFFFFFFFFFFFFFFFFFFFFFFFFFFFFFFFFFFFFF
310
FFFFFFFFFFFFFFFFFFFFFFFFFFFFFFFFFFFFFFFFFFFFFFFFFFFFFFFFFFFFFFFF
310
FFFFFFFFFFFFFFFFFFFFFFFFFFFFFFFFFFFFFFFFFFFFFFFFFFFFFFFFFFFFFFFF
310
FFFFFFFFFFFFFFFFFFFFFFFFFFFFFFFFFFFFFFFFFFFFFFFFFFFFFFFFFFFFFFFF
310
FFFFFFFFFFFFFFFFFFFFFFFFFFFFFFFFFFFFFFFFFFFFFFFFFFFFFFFFFFFFFFFF
310
FFFFFFFFFFFFFFFFFFFFFFFFFFFFFFFFFFFFFFFFFFFFFFFFFFFFFFFFFFFFFFFF
310
FFFFFFFFFFFFFFFFFFFFFFFFFFFFFFFFFFFFFFFFFFFFFFFFFFFFFFFFFFFFFFFF
310
FFFFFFFFFFFFFFFFFFFFFFFFFFFFFFFFFFFFFFFFFFFFFFFFFFFFFFFFFFFFFFFF
310
FFFFFFFFFFFFFFFFFFFFFFFFFFFFFFFFFFFFFFFFFFFFFFFFFFFFFFFFFFFFFFFF
310
FFFFFFFFFFFFFFFFFFFFFFFFFFFFFFFFFFFFFFFFFFFFFFFFFFFFFFFFFFFFFFFF
310
FFFFFFFFFFFFFFFFFFFFFFFFFFFFFFFFFFFFFFFFFFFFFFFFFFFFFFFFFFFFFFFF
310
FFFFFFFFFFFFFFFFFFFFFFFFFFFFFFFFFFFFFFFFFFFFFFFFFFFFFFFFFFFFFFFF
310
FFFFFFFFFFFFFFFFFFFFFFFFFFFFFFFFFFFFFFFFFFFFFFFFFFFFFFFFFFFFFFFF
310
FFFFFFFFFFFFFFFFFFFFFFFFFFFFFFFFFFFFFFFFFFFFFFFFFFFFFFFFFFFFFFFF
310
FFFFFFFFFFFFFFFFFFFFFFFFFFFFFFFFFFFFFFFFFFFFFFFFFFFFFFFFFFFFFFFF
310
FFFFFFFFFFFFFFFFFFFFFFFFFFFFFFFFFFFFFFFFFFFFFFFFFFFFFFFFFFFFFFFF
310
FFFFFFFFFFFFFFFFFFFFFFFFFFFFFFFFFFFFFFFFFFFFFFFFFFFFFFFFFFFFFFFF
310
FFFFFFFFFFFFFFFFFFFFFFFFFFFFFFFFFFFFFFFFFFFFFFFFFFFFFFFFFFFFFFFF
310
FFFFFFFFFFFFFFFFFFFFFFFFFFFFFFFFFFFFFFFFFFFFFFFFFFFFFFFFFFFFFFFF
310
FFFFFFFFFFFFFFFFFFFFFFFFFFFFFFFFFFFFFFFFFFFFFFFFFFFFFFFFFFFFFFFF
310
FFFFFFFFFFFFFFFFFFFFFFFFFFFFFFFFFFFFFFFFFFFFFFFFFFFFFFFFFFFFFFFF
310
FFFFFFFFFFFFFFFFFFFFFFFFFFFFFFFFFFFFFFFFFFFFFFFFFFFFFFFFFFFFFFFF
310
FFFFFFFFFFFFFFFFFFFFFFFFFFFFFFFFFFFFFFFFFFFFFFFFFFFFFFFFFFFFFFFF
310
FFFFFFFFFFFFFFFFFFFFFFFFFFFFFFFFFFFFFFFFFFFFFFFFFFFFFFFFFFFFFFFF
310
FFFFFFFFFFFFFFFFFFFFFFFFFFFFFFFFFFFFFFFFFFFFFFFFFFFFFFFFFFFFFFFF
310
FFFFFFFFFFFFFFFFFFFFFFFFFFFFFFFFFFFFFFFFFFFFFFFFFFFFFFFFFFFFFFFF
310
FFFFFFFFFFFFFFFFFFFFFFFFFFFFFFFFFFFFFFFFFFFFFFFFFFFFFFFFFFFFFFFF
310
FFFFFFFFFFFFFFFFFFFFFFFFFFFFFFFFFFFFFFFFFFFFFFFFFFFFFFFFFFFFFFFF
310
FFFFFFFFFFFFFFFFFFFFFFFFFFFFFFFFFFFFFFFFFFFFFFFFFFFFFFFFFFFFFFFF
310
FFFFFFFFFFFFFFFFFFFFFFFFFFFFFFFFFFFFFFFFFFFFFFFFFFFFFFFFFFFFFFFF
310
FFFFFFFFFFFFFFFFFFFFFFFFFFFFFFFFFFFFFFFFFFFFFFFFFFFFFFFFFFFFFFFF
310
FFFFFFFFFFFFFFFFFFFFFFFFFFFFFFFFFFFFFFFFFFFFFFFFFFFFFFFFFFFFFFFF
310
FFFFFFFFFFFFFFFFFFFFFFFFFFFFFFFFFFFFFFFFFFFFFFFFFFFFFFFFFFFFFFFF
310
FFFFFFFFFFFFFFFFFFFFFFFFFFFFB43404FFB43404FFB43404FFB43404FFB434
310
04FFB43404FFB43404FFB43404FFB43404FFB43404FFFFFFFFFFFFFFFFFFFFFF
310
FFFFFFFFFFFFFFFFFFFFFFFFFFFFB43404FFB43404FFB43404FFB43404FFB434
310
04FFB43404FFB43404FFB43404FFB43404FFB43404FFFFFFFFFFFFFFFFFFFFFF
310
FFFFFFFFFFFFFFFFFFFFFFFFFFFFB43404FFB43404FFB43404FFB43404FFB434
310
04FFB43404FFB43404FFB43404FFB43404FFB43404FFFFFFFFFFFFFFFFFFFFFF
310
FFFFFFFFFFFFFFFFFFFFFFFFFFFFFFFFFFFFFFFFFFFFFFFFFFFFFFFFFFFFFFFF
310
FFFFFFFFFFFFFFFFFFFFFFFFFFFFFFFFFFFFFFFFFFFFFFFFFFFFFFFFFFFFFFFF
310
FFFFFFFFFFFFFFFFFFFFFFFFFFFFFFFFFFFFFFFFFFFFFFFFFFFFFFFFFFFFFFFF
310
FFFFFFFFFFFFFFFFFFFFFFFFFFFFFFFFFFFFFFFFFFFFFFFFFFFFFFFFFFFFFFFF
310
FFFFFFFFFFFFFFFFFFFFFFFFFFFFFFFFFFFFFFFFFFFFFFFFFFFFFFFFFFFFFFFF
310
FFFFFFFFFFFFFFFFFFFFFFFFFFFFFFFFFFFFFFFFFFFFB43404FFE4DCDCFFE4E4
310
E4FFE4E4E4FFE4E4E4FFE4E4E4FFE4E4E4FFE4E4E4FFE4E4E4FFB43404FFFFFF
310
FFFFFFFFFFFFFFFFFFFFFFFFFFFFFFFFFFFFFFFFFFFFB43404FFDCDCDCFFE4E4
310
E4FFE4E4E4FFE4E4E4FFE4E4E4FFE4E4E4FFE4E4E4FFE4E4E4FFB43404FFFFFF
310
FFFFFFFFFFFFFFFFFFFFFFFFFFFFFFFFFFFFFFFFFFFFB43404FFE4E4E4FFE4E4
310
E4FFE4E4E4FFE4E4E4FFE4E4E4FFE4E4E4FFE4E4E4FFE4E4E4FFB43404FFFFFF
310
FFFFFFFFFFFFFFFFFFFFFFFFFFFFFFFFFFFFFFFFFFFFFFFFFFFFFFFFFFFFFFFF
310
FFFFFFFFFFFFFFFFFFFFFFFFFFFFFFFFFFFFFFFFFFFFFFFFFFFFFFFFFFFFFFFF
310
FFFFFFFFFFFFFFFFFFFFFFFFFFFFFFFFFFFFFFFFFFFFFFFFFFFFFFFFFFFFFFFF
310
FFFFFFFFFFFFFFFFFFFFFFFFFFFFFFFFFFFFFFFFFFFFFFFFFFFFFFFFFFFFFFFF
310
FFFFFFFFFFFFFFFFFFFFFFFFFFFFFFFFFFFFFFFFFFFFFFFFFFFFFFFFFFFFFFFF
310
FFFFFFFFFFFFFFFFFFFFFFFFFFFFFFFFFFFFFFFFFFFFFFFFFFFFFFFFFFFFB434
310
04FFE4E4E4FFE4E4E4FFE4E4E4FFE4E4E4FFE4E4E4FFE4E4E4FFE4E4E4FFE4E4
310
E4FFB43404FFFFFFFFFFFFFFFFFFFFFFFFFFFFFFFFFFFFFFFFFFFFFFFFFFB434
310
04FFE4E4E4FFE4E4E4FFE4E4E4FFE4E4E4FFE4E4E4FFE4E4E4FFE4E4E4FFE4E4
310
E4FFB43404FFFFFFFFFFFFFFFFFFFFFFFFFFFFFFFFFFFFFFFFFFFFFFFFFFB434
310
04FFE4E4E4FFE4E4E4FFE4E4E4FFE4E4E4FFE4E4E4FFE4E4E4FFE4E4E4FFE4E4
310
E4FFB43404FFFFFFFFFFFFFFFFFFFFFFFFFFFFFFFFFFFFFFFFFFFFFFFFFFFFFF
310
FFFFFFFFFFFFFFFFFFFFFFFFFFFFFFFFFFFFFFFFFFFFFFFFFFFFFFFFFFFFFFFF
310
FFFFFFFFFFFFFFFFFFFFFFFFFFFFFFFFFFFFFFFFFFFFFFFFFFFFFFFFFFFFFFFF
310
FFFFFFFFFFFFFFFFFFFFFFFFFFFFFFFFFFFFFFFFFFFFFFFFFFFFFFFFFFFFFFFF
310
FFFFFFFFFFFFFFFFFFFFFFFFFFFFFFFFFFFFFFFFFFFFFFFFFFFFFFFFFFFFFFFF
310
FFFFFFFFFFFFFFFFFFFFFFFFFFFFFFFFFFFFFFFFFFFFFFFFFFFFFFFFFFFFFFFF
310
FFFFFFFFFFFFB43404FFDCDCDCFFE4E4E4FFE4E4E4FFE4E4E4FFE4E4E4FFE4E4
310
E4FFE4DCDCFFE4E4E4FFB43404FFFFFFFFFFFFFFFFFFFFFFFFFFFFFFFFFFFFFF
310
FFFFFFFFFFFFB43404FFDCDCDCFFE4E4E4FFE4E4E4FFE4DCDCFFE4E4E4FFE4DC
310
DCFFE4E4E4FFE4E4E4FFB43404FFFFFFFFFFFFFFFFFFFFFFFFFFFFFFFFFFFFFF
310
FFFFFFFFFFFFB43404FFE4DCDCFFE4E4E4FFE4E4E4FFE4E4E4FFE4E4E4FFE4E4
310
E4FFE4E4E4FFE4DCDCFFB43404FFFFFFFFFFFFFFFFFFFFFFFFFFFFFFFFFFFFFF
310
FFFFFFFFFFFFFFFFFFFFFFFFFFFFFFFFFFFFFFFFFFFFFFFFFFFFFFFFFFFFFFFF
310
FFFFFFFFFFFFFFFFFFFFFFFFFFFFFFFFFFFFFFFFFFFFFFFFFFFFFFFFFFFFFFFF
310
FFFFFFFFFFFFFFFFFFFFFFFFFFFFFFFFFFFFFFFFFFFFFFFFFFFFFFFFFFFFFFFF
310
FFFFFFFFFFFFFFFFFFFFFFFFFFFFFFFFFFFFFFFFFFFFFFFFFFFFFFFFFFFFFFFF
310
FFFFFFFFFFFFFFFFFFFFFFFFFFFFFFFFFFFFFFFFFFFFFFFFFFFFFFFFFFFFFFFF
310
FFFFFFFFFFFFFFFFFFFFFFFFFFFFB43404FFB43404FFB43404FFB43404FFB434
310
04FFB43404FFB43404FFB43404FFB43404FFB43404FFFFFFFFFFFFFFFFFFFFFF
310
FFFFFFFFFFFFFFFFFFFFFFFFFFFFB43404FFB43404FFB43404FFB43404FFB434
310
04FFB43404FFB43404FFB43404FFB43404FFB43404FFFFFFFFFFFFFFFFFFFFFF
310
FFFFFFFFFFFFFFFFFFFFFFFFFFFFB43404FFB43404FFB43404FFB43404FFB434
310
04FFB43404FFB43404FFB43404FFB43404FFB43404FFFFFFFFFFFFFFFFFFFFFF
310
FFFFFFFFFFFFFFFFFFFFFFFFFFFFFFFFFFFFFFFFFFFFFFFFFFFFFFFFFFFFFFFF
310
FFFFFFFFFFFFFFFFFFFFFFFFFFFFFFFFFFFFFFFFFFFFFFFFFFFFFFFFFFFFFFFF
310
FFFFFFFFFFFFFFFFFFFFFFFFFFFFFFFFFFFFFFFFFFFFFFFFFFFFFFFFFFFFFFFF
310
FFFFFFFFFFFFFFFFFFFFFFFFFFFFFFFFFFFFFFFFFFFFFFFFFFFFFFFFFFFFFFFF
310
FFFFFFFFFFFFFFFFFFFFFFFFFFFFFFFFFFFFFFFFFFFFFFFFFFFFFFFFFFFFFFFF
310
FFFFFFFFFFFFFFFFFFFFFFFFFFFFFFFFFFFFFFFFFFFFFFFFFFFFFFFFFFFFFFFF
310
FFFFFFFFFFFFFFFFFFFFFFFFFFFFFFFFFFFFFFFFFFFFFFFFFFFFFFFFFFFFFFFF
310
FFFFFFFFFFFFFFFFFFFFFFFFFFFFFFFFFFFFFFFFFFFFFFFFFFFFFFFFFFFFFFFF
310
FFFFFFFFFFFFFFFFFFFFFFFFFFFFFFFFFFFFFFFFFFFFFFFFFFFFFFFFFFFFFFFF
310
FFFFFFFFFFFFFFFFFFFFFFFFFFFFFFFFFFFFFFFFFFFFFFFFFFFFFFFFFFFFFFFF
310
FFFFFFFFFFFFFFFFFFFFFFFFFFFFFFFFFFFFFFFFFFFFFFFFFFFFFFFFFFFFFFFF
310
FFFFFFFFFFFFFFFFFFFFFFFFFFFFFFFFFFFFFFFFFFFFFFFFFFFFFFFFFFFFFFFF
310
FFFFFFFFFFFFFFFFFFFFFFFFFFFFFFFFFFFFFFFFFFFFFFFFFFFFFFFFFFFFFFFF
310
FFFFFFFFFFFFFFFFFFFFFFFFFFFFFFFFFFFFFFFFFFFFFFFFFFFFFFFFFFFFFFFF
310
FFFFFFFFFFFFFFFFFFFFFFFFFFFFFFFFFFFFFFFFFFFFFFFFFFFFFFFFFFFFFFFF
310
FFFFFFFFFFFFFFFFFFFFFFFFFFFFFFFFFFFFFFFFFFFFFFFFFFFFFFFFFFFFFFFF
310
FFFFFFFFFFFFFFFFFFFFFFFFFFFFFFFFFFFFFFFFFFFFFFFFFFFFFFFFFFFFFFFF
310
FFFFFFFFFFFFFFFFFFFFFFFFFFFFFFFFFFFFFFFFFFFFFFFFFFFFFFFFFFFFFFFF
310
FFFFFFFFFFFFFFFFFFFFFFFFFFFFFFFFFFFFFFFFFFFFFFFFFFFFFFFFFFFFFFFF
310
FFFFFFFFFFFFFFFFFFFFFFFFFFFFFFFFFFFFFFFFFFFFFFFFFFFFFFFFFFFFFFFF
310
FFFFFFFFFFFFFFFFFFFFFFFFFFFFFFFFFFFFFFFFFFFFFFFFFFFFFFFFFFFFFFFF
310
FFFFFFFFFFFFFFFFFFFFFFFFFFFFFFFFFFFFFFFFFFFFFFFFFFFFFFFFFFFFFFFF
310
FFFFFFFFFFFFFFFFFFFFFFFFFFFFFFFFFFFFFFFFFFFFFFFFFFFFFFFFFFFFFFFF
310
FFFFFFFFFFFFFFFFFFFFFFFFFFFFFFFFFFFFFFFFFFFFFFFFFFFFFFFFFFFFFFFF
310
FFFFFFFFFFFFFFFFFFFFFFFFFFFFFFFFFFFFFFFFFFFFFFFFFFFFFFFFFFFFFFFF
310
FFFFFFFFFFFFFFFFFFFFFFFFFFFFFFFFFFFFFFFFFFFFFFFFFFFFFFFFFFFFFFFF
310
FFFFFFFFFFFFFFFFFFFFFFFFFFFFFFFFFFFFFFFFFFFFFFFFFFFFFFFFFFFFFFFF
310
FFFFFFFFFFFFFFFFFFFFFFFFFFFFFFFFFFFFFFFFFFFFFFFFFFFFFFFFFFFFFFFF
310
FFFFFFFFFFFFFFFFFFFFFFFFFFFFFFFFFFFFFFFFFFFFFFFFFFFFFFFFFFFFFFFF
310
FFFFFFFFFFFFFFFFFFFFFFFFFFFFFFFFFFFFFFFFFFFFFFFFFFFFFFFFFFFFFFFF
310
FFFFFFFFFFFFFFFFFFFFFFFFFFFFFFFFFFFFFFFFFFFFFFFFFFFFFFFFFFFFFFFF
310
FFFFFFFFFFFFFFFFFFFFFFFFFFFFFFFFFFFFFFFFFFFFFFFFFFFFFFFFFFFFFFFF
310
FFFFFFFFFFFFFFFFFFFFFFFFFFFFFFFFFFFFFFFFFFFFFFFFFFFFFFFFFFFFFFFF
310
FFFFFFFFFFFFFFFFFFFFFFFFFFFFFFFFFFFFFFFFFFFFFFFFFFFFFFFFFFFFFFFF
310
FFFFFFFFFFFFFFFFFFFFFFFFFFFFFFFFFFFFFFFFFFFFFFFFFFFFFFFFFFFFFFFF
310
FFFFFFFFFFFFFFFFFFFFFFFFFFFFFFFFFFFFFFFFFFFFFFFFFFFFFFFFFFFFFFFF
310
FFFFFFFFFFFFFFFFFFFFFFFFFFFFFFFFFFFFFFFFFFFFFFFFFFFFFFFFFFFFFFFF
310
FFFFFFFFFFFFFFFFFFFFFFFFFFFFFFFFFFFFFFFFFFFFFFFFFFFFFFFFFFFFFFFF
310
FFFFFFFFFFFFFFFFFFFFFFFFFFFFFFFFFFFFFFFFFFFFFFFFFFFFFFFFFFFFFFFF
310
FFFFFFFFFFFFFFFFFFFFFFFFFFFFB43404FFB43404FFB43404FFB43404FFB434
310
04FFB43404FFB43404FFB43404FFB43404FFB43404FFFFFFFFFFFFFFFFFFFFFF
310
FFFFFFFFFFFFFFFFFFFFFFFFFFFFB43404FFB43404FFB43404FFB43404FFB434
310
04FFB43404FFB43404FFB43404FFB43404FFB43404FFFFFFFFFFFFFFFFFFFFFF
310
FFFFFFFFFFFFFFFFFFFFFFFFFFFFB43404FFB43404FFB43404FFB43404FFB434
310
04FFB43404FFB43404FFB43404FFB43404FFB43404FFFFFFFFFFFFFFFFFFFFFF
310
FFFFFFFFFFFFFFFFFFFFFFFFFFFFFFFFFFFFFFFFFFFFFFFFFFFFFFFFFFFFFFFF
310
FFFFFFFFFFFFFFFFFFFFFFFFFFFFFFFFFFFFFFFFFFFFFFFFFFFFFFFFFFFFFFFF
310
FFFFFFFFFFFFFFFFFFFFFFFFFFFFFFFFFFFFFFFFFFFFFFFFFFFFFFFFFFFFFFFF
310
FFFFFFFFFFFFFFFFFFFFFFFFFFFFFFFFFFFFFFFFFFFFFFFFFFFFFFFFFFFFFFFF
310
FFFFFFFFFFFFFFFFFFFFFFFFFFFFFFFFFFFFFFFFFFFFFFFFFFFFFFFFFFFFFFFF
310
FFFFFFFFFFFFFFFFFFFFFFFFFFFFFFFFFFFFFFFFFFFFB43404FFE4DCDCFFE4E4
310
E4FFE4E4E4FFE4E4E4FFE4E4E4FFE4E4E4FFE4E4E4FFE4E4E4FFB43404FFFFFF
310
FFFFFFFFFFFFFFFFFFFFFFFFFFFFFFFFFFFFFFFFFFFFB43404FFE4E4E4FFE4E4
310
E4FFE4E4E4FFE4E4E4FFE4E4E4FFE4E4E4FFE4E4E4FFE4E4E4FFB43404FFFFFF
310
FFFFFFFFFFFFFFFFFFFFFFFFFFFFFFFFFFFFFFFFFFFFB43404FFE4DCDCFFE4E4
310
E4FFE4E4E4FFE4E4E4FFE4E4E4FFE4E4E4FFE4E4E4FFE4E4E4FFB43404FFFFFF
310
FFFFFFFFFFFFFFFFFFFFFFFFFFFFFFFFFFFFFFFFFFFFFFFFFFFFFFFFFFFFFFFF
310
FFFFFFFFFFFFFFFFFFFFFFFFFFFFFFFFFFFFFFFFFFFFFFFFFFFFFFFFFFFFFFFF
310
FFFFFFFFFFFFFFFFFFFFFFFFFFFFFFFFFFFFFFFFFFFFFFFFFFFFFFFFFFFFFFFF
310
FFFFFFFFFFFFFFFFFFFFFFFFFFFFFFFFFFFFFFFFFFFFFFFFFFFFFFFFFFFFFFFF
310
FFFFFFFFFFFFFFFFFFFFFFFFFFFFFFFFFFFFFFFFFFFFFFFFFFFFFFFFFFFFFFFF
310
FFFFFFFFFFFFFFFFFFFFFFFFFFFFFFFFFFFFFFFFFFFFFFFFFFFFFFFFFFFFB434
310
04FFE4E4E4FFE4E4E4FFE4E4E4FFE4E4E4FFE4E4E4FFE4E4E4FFE4E4E4FFDCDC
310
DCFFB43404FFFFFFFFFFFFFFFFFFFFFFFFFFFFFFFFFFFFFFFFFFFFFFFFFFB434
310
04FFE4E4E4FFE4E4E4FFE4E4E4FFE4E4E4FFE4E4E4FFE4E4E4FFE4E4E4FFE4E4
310
E4FFB43404FFFFFFFFFFFFFFFFFFFFFFFFFFFFFFFFFFFFFFFFFFFFFFFFFFB434
310
04FFE4E4E4FFE4E4E4FFE4E4E4FFE4E4E4FFE4E4E4FFE4E4E4FFE4E4E4FFE4E4
310
E4FFB43404FFFFFFFFFFFFFFFFFFFFFFFFFFFFFFFFFFFFFFFFFFFFFFFFFFFFFF
310
FFFFFFFFFFFFFFFFFFFFFFFFFFFFFFFFFFFFFFFFFFFFFFFFFFFFFFFFFFFFFFFF
310
FFFFFFFFFFFFFFFFFFFFFFFFFFFFFFFFFFFFFFFFFFFFFFFFFFFFFFFFFFFFFFFF
310
FFFFFFFFFFFFFFFFFFFFFFFFFFFFFFFFFFFFFFFFFFFFFFFFFFFFFFFFFFFFFFFF
310
FFFFFFFFFFFFFFFFFFFFFFFFFFFFFFFFFFFFFFFFFFFFFFFFFFFFFFFFFFFFFFFF
310
FFFFFFFFFFFFFFFFFFFFFFFFFFFFFFFFFFFFFFFFFFFFFFFFFFFFFFFFFFFFB434
310
04FFB43404FFB43404FFDCDCDCFFE4E4E4FFE4E4E4FFE4E4E4FFDCDCDCFFE4E4
310
E4FFE4E4E4FFE4E4E4FFB43404FFB43404FFB43404FFFFFFFFFFFFFFFFFFB434
310
04FFB43404FFB43404FFDCDCDCFFE4E4E4FFE4DCDCFFE4E4E4FFE4E4E4FFE4E4
310
E4FFE4DCDCFFE4E4E4FFB43404FFB43404FFB43404FFFFFFFFFFFFFFFFFFB434
310
04FFB43404FFB43404FFDCDCDCFFE4E4E4FFE4DCDCFFE4E4E4FFDCDCDCFFE4E4
310
E4FFE4DCDCFFE4E4E4FFB43404FFB43404FFB43404FFFFFFFFFFFFFFFFFFFFFF
310
FFFFFFFFFFFFFFFFFFFFFFFFFFFFFFFFFFFFFFFFFFFFFFFFFFFFFFFFFFFFFFFF
310
FFFFFFFFFFFFFFFFFFFFFFFFFFFFFFFFFFFFFFFFFFFFFFFFFFFFFFFFFFFFFFFF
310
FFFFFFFFFFFFFFFFFFFFFFFFFFFFFFFFFFFFFFFFFFFFFFFFFFFFFFFFFFFFFFFF
310
FFFFFFFFFFFFFFFFFFFFFFFFFFFFFFFFFFFFFFFFFFFFFFFFFFFFFFFFFFFFFFFF
310
FFFFFFFFFFFFFFFFFFFFFFFFFFFFFFFFFFFFFFFFFFFFFFFFFFFFFFFFFFFFFFFF
310
FFFFFFFFFFFFB43404FFFFFFFFFFB43404FFB43404FFB43404FFB43404FFB434
310
04FFB43404FFB43404FFB43404FFB43404FFB43404FFFFFFFFFFB43404FFFFFF
310
FFFFFFFFFFFFB43404FFFFFFFFFFB43404FFB43404FFB43404FFB43404FFB434
310
04FFB43404FFB43404FFB43404FFB43404FFB43404FFFFFFFFFFB43404FFFFFF
310
FFFFFFFFFFFFB43404FFFFFFFFFFB43404FFB43404FFB43404FFB43404FFB434
310
04FFB43404FFB43404FFB43404FFB43404FFB43404FFFFFFFFFFB43404FFFFFF
310
FFFFFFFFFFFFFFFFFFFFFFFFFFFFFFFFFFFFFFFFFFFFFFFFFFFFFFFFFFFFFFFF
310
FFFFFFFFFFFFFFFFFFFFFFFFFFFFFFFFFFFFFFFFFFFFFFFFFFFFFFFFFFFFFFFF
310
FFFFFFFFFFFFFFFFFFFFFFFFFFFFFFFFFFFFFFFFFFFFFFFFFFFFFFFFFFFFFFFF
310
FFFFFFFFFFFFFFFFFFFFFFFFFFFFFFFFFFFFFFFFFFFFFFFFFFFFFFFFFFFFFFFF
310
FFFFFFFFFFFFFFFFFFFFFFFFFFFFFFFFFFFFFFFFFFFFFFFFFFFFFFFFFFFFFFFF
310
FFFFFFFFFFFFFFFFFFFFFFFFFFFFB43404FFFFFFFFFFFFFFFFFFFFFFFFFFFFFF
310
FFFFFFFFFFFFFFFFFFFFFFFFFFFFFFFFFFFFFFFFFFFFFFFFFFFFFFFFFFFFFFFF
310
FFFFB43404FFFFFFFFFFFFFFFFFFB43404FFFFFFFFFFFFFFFFFFFFFFFFFFFFFF
310
FFFFFFFFFFFFFFFFFFFFFFFFFFFFFFFFFFFFFFFFFFFFFFFFFFFFFFFFFFFFFFFF
310
FFFFB43404FFFFFFFFFFFFFFFFFFB43404FFFFFFFFFFFFFFFFFFFFFFFFFFFFFF
310
FFFFFFFFFFFFFFFFFFFFFFFFFFFFFFFFFFFFFFFFFFFFFFFFFFFFFFFFFFFFFFFF
310
FFFFB43404FFFFFFFFFFFFFFFFFFFFFFFFFFFFFFFFFFFFFFFFFFFFFFFFFFFFFF
310
FFFFFFFFFFFFFFFFFFFFFFFFFFFFFFFFFFFFFFFFFFFFFFFFFFFFFFFFFFFFFFFF
310
FFFFFFFFFFFFFFFFFFFFFFFFFFFFFFFFFFFFFFFFFFFFFFFFFFFFFFFFFFFFFFFF
310
FFFFFFFFFFFFFFFFFFFFFFFFFFFFFFFFFFFFFFFFFFFFFFFFFFFFFFFFFFFFFFFF
310
FFFFFFFFFFFFFFFFFFFFFFFFFFFFFFFFFFFFFFFFFFFFFFFFFFFFFFFFFFFFFFFF
310
FFFFB43404FFB43404FFB43404FFB43404FFB43404FFB43404FFB43404FFB434
310
04FFB43404FFB43404FFB43404FFB43404FFB43404FFB43404FFB43404FFB434
310
04FFB43404FFB43404FFB43404FFB43404FFB43404FFB43404FFB43404FFB434
310
04FFB43404FFB43404FFB43404FFB43404FFB43404FFB43404FFB43404FFB434
310
04FFB43404FFB43404FFB43404FFB43404FFB43404FFB43404FFB43404FFB434
310
04FFB43404FFB43404FFB43404FFB43404FFB43404FFB43404FFB43404FFB434
310
04FFB43404FFB43404FFB43404FFB43404FFB43404FFB43404FFB43404FFB434
310
04FFFFFFFFFFFFFFFFFFFFFFFFFFFFFFFFFFFFFFFFFFFFFFFFFFFFFFFFFFFFFF
310
FFFFFFFFFFFFFFFFFFFFFFFFFFFFFFFFFFFFFFFFFFFFFFFFFFFFFFFFFFFFFFFF
310
FFFFFFFFFFFFFFFFFFFFFFFFFFFFFFFFFFFFFFFFFFFFFFFFFFFFFFFFFFFFFFFF
310
FFFFFFFFFFFFFFFFFFFFFFFFFFFFFFFFFFFFFFFFFFFFFFFFFFFFFFFFFFFFFFFF
310
FFFFFFFFFFFFFFFFFFFFB43404FFE4E4E4FFE4E4E4FFE4E4E4FFE4E4E4FFE4E4
310
E4FFE4E4E4FFE4E4E4FFE4E4E4FFE4E4E4FFE4E4E4FFE4E4E4FFE4E4E4FFE4E4
310
E4FFE4E4E4FFE4E4E4FFE4E4E4FFE4E4E4FFE4E4E4FFE4E4E4FFE4E4E4FFE4E4
310
E4FFE4E4E4FFE4E4E4FFE4E4E4FFE4E4E4FFE4E4E4FFE4E4E4FFE4E4E4FFE4E4
310
E4FFE4E4E4FFE4E4E4FFE4E4E4FFE4E4E4FFE4E4E4FFE4E4E4FFE4E4E4FFE4E4
310
E4FFE4E4E4FFE4E4E4FFE4E4E4FFE4E4E4FFE4E4E4FFE4E4E4FFE4E4E4FFE4E4
310
E4FFE4E4E4FFE4E4E4FFE4E4E4FFE4E4E4FFE4E4E4FFE4E4E4FFE4E4E4FFE4E4
310
E4FFE4E4E4FFB43404FFFFFFFFFFFFFFFFFFFFFFFFFFFFFFFFFFFFFFFFFFFFFF
310
FFFFFFFFFFFFFFFFFFFFFFFFFFFFFFFFFFFFFFFFFFFFFFFFFFFFFFFFFFFFFFFF
310
FFFFFFFFFFFFFFFFFFFFFFFFFFFFFFFFFFFFFFFFFFFFFFFFFFFFFFFFFFFFFFFF
310
FFFFFFFFFFFFFFFFFFFFFFFFFFFFFFFFFFFFFFFFFFFFFFFFFFFFFFFFFFFFFFFF
310
FFFFFFFFFFFFFFFFFFFFFFFFFFFFFFFFFFFFB43404FFE4DCDCFFE4E4E4FFE4E4
310
E4FFE4E4E4FFE4E4E4FFE4E4E4FFE4E4E4FFE4E4E4FFE4E4E4FFE4E4E4FFE4E4
310
E4FFE4E4E4FFE4E4E4FFE4E4E4FFE4E4E4FFE4E4E4FFE4E4E4FFE4E4E4FFE4E4
310
E4FFE4E4E4FFE4E4E4FFE4E4E4FFE4E4E4FFE4E4E4FFE4E4E4FFE4E4E4FFE4E4
310
E4FFE4E4E4FFE4E4E4FFE4E4E4FFE4E4E4FFE4E4E4FFE4E4E4FFE4E4E4FFE4E4
310
E4FFE4E4E4FFE4E4E4FFE4E4E4FFE4E4E4FFE4E4E4FFE4E4E4FFE4E4E4FFE4E4
310
E4FFE4E4E4FFE4E4E4FFE4E4E4FFE4E4E4FFE4E4E4FFE4E4E4FFE4E4E4FFE4E4
310
E4FFE4E4E4FFE4E4E4FFE4E4E4FFB43404FFFFFFFFFFFFFFFFFFFFFFFFFFFFFF
310
FFFFFFFFFFFFFFFFFFFFFFFFFFFFFFFFFFFFFFFFFFFFFFFFFFFFFFFFFFFFFFFF
310
FFFFFFFFFFFFFFFFFFFFFFFFFFFFFFFFFFFFFFFFFFFFFFFFFFFFFFFFFFFFFFFF
310
FFFFFFFFFFFFFFFFFFFFFFFFFFFFFFFFFFFFFFFFFFFFFFFFFFFFFFFFFFFFFFFF
310
FFFFFFFFFFFFFFFFFFFFFFFFFFFFFFFFFFFFFFFFFFFFFFFFFFFFB43404FFE4E4
310
E4FFE4E4E4FFE4E4E4FFE4E4E4FFE4E4E4FFE4E4E4FFE4E4E4FFE4E4E4FFE4E4
310
E4FFE4E4E4FFE4E4E4FFE4E4E4FFE4E4E4FFE4E4E4FFE4E4E4FFE4E4E4FFE4E4
310
E4FFE4E4E4FFE4E4E4FFE4E4E4FFE4E4E4FFE4E4E4FFE4E4E4FFE4E4E4FFE4E4
310
E4FFE4E4E4FFE4E4E4FFE4E4E4FFE4E4E4FFE4E4E4FFE4E4E4FFE4E4E4FFE4E4
310
E4FFE4E4E4FFE4E4E4FFE4E4E4FFE4E4E4FFE4E4E4FFE4E4E4FFE4E4E4FFE4E4
310
E4FFE4E4E4FFE4E4E4FFE4E4E4FFE4E4E4FFE4E4E4FFE4E4E4FFE4E4E4FFE4E4
310
E4FFE4E4E4FFE4E4E4FFE4E4E4FFE4E4E4FFE4E4E4FFB43404FFFFFFFFFFFFFF
310
FFFFFFFFFFFFFFFFFFFFFFFFFFFFFFFFFFFFFFFFFFFFFFFFFFFFFFFFFFFFFFFF
310
FFFFFFFFFFFFFFFFFFFFFFFFFFFFFFFFFFFFFFFFFFFFFFFFFFFFFFFFFFFFFFFF
310
FFFFFFFFFFFFFFFFFFFFFFFFFFFFFFFFFFFFFFFFFFFFFFFFFFFFFFFFFFFFFFFF
310
FFFFFFFFFFFFFFFFFFFFFFFFFFFFFFFFFFFFFFFFFFFFFFFFFFFFFFFFFFFFFFFF
310
FFFFB43404FFE4DCDCFFE4E4E4FFE4E4E4FFE4E4E4FFE4E4E4FFE4E4E4FFE4E4
310
E4FFE4E4E4FFE4E4E4FFE4E4E4FFE4E4E4FFE4E4E4FFE4E4E4FFE4E4E4FFE4E4
310
E4FFE4E4E4FFE4E4E4FFE4E4E4FFE4E4E4FFE4E4E4FFE4E4E4FFE4E4E4FFE4E4
310
E4FFE4E4E4FFE4E4E4FFE4E4E4FFE4E4E4FFE4E4E4FFE4E4E4FFE4E4E4FFE4E4
310
E4FFE4E4E4FFE4E4E4FFE4E4E4FFE4E4E4FFE4E4E4FFE4E4E4FFE4E4E4FFE4E4
310
E4FFE4E4E4FFE4E4E4FFE4E4E4FFE4E4E4FFE4E4E4FFE4E4E4FFE4E4E4FFE4E4
310
E4FFE4E4E4FFE4E4E4FFE4E4E4FFE4E4E4FFE4E4E4FFE4E4E4FFE4E4E4FFB434
310
04FFFFFFFFFFFFFFFFFFFFFFFFFFFFFFFFFFFFFFFFFFFFFFFFFFFFFFFFFFFFFF
310
FFFFFFFFFFFFFFFFFFFFFFFFFFFFFFFFFFFFFFFFFFFFFFFFFFFFFFFFFFFFFFFF
310
FFFFFFFFFFFFFFFFFFFFFFFFFFFFFFFFFFFFFFFFFFFFFFFFFFFFFFFFFFFFFFFF
310
FFFFFFFFFFFFFFFFFFFFFFFFFFFFFFFFFFFFFFFFFFFFFFFFFFFFFFFFFFFFFFFF
310
FFFFFFFFFFFFFFFFFFFFB43404FFE4E4E4FFE4E4E4FFE4E4E4FFE4E4E4FFE4E4
310
E4FFE4E4E4FFE4E4E4FFE4E4E4FFE4E4E4FFE4E4E4FFE4E4E4FFE4E4E4FFE4E4
310
E4FFE4E4E4FFE4E4E4FFE4E4E4FFE4E4E4FFE4E4E4FFE4E4E4FFE4E4E4FFE4E4
310
E4FFE4E4E4FFE4E4E4FFE4E4E4FFE4E4E4FFE4E4E4FFE4E4E4FFE4E4E4FFE4E4
310
E4FFE4E4E4FFE4E4E4FFE4E4E4FFE4E4E4FFE4E4E4FFE4E4E4FFE4E4E4FFE4E4
310
E4FFE4E4E4FFE4E4E4FFE4E4E4FFE4E4E4FFE4E4E4FFE4E4E4FFE4E4E4FFE4E4
310
E4FFE4E4E4FFE4E4E4FFE4E4E4FFE4E4E4FFE4E4E4FFE4E4E4FFE4E4E4FFE4E4
310
E4FFE4E4E4FFB43404FFFFFFFFFFFFFFFFFFFFFFFFFFFFFFFFFFFFFFFFFFFFFF
310
FFFFFFFFFFFFFFFFFFFFFFFFFFFFFFFFFFFFFFFFFFFFFFFFFFFFFFFFFFFFFFFF
310
FFFFFFFFFFFFFFFFFFFFFFFFFFFFFFFFFFFFFFFFFFFFFFFFFFFFFFFFFFFFFFFF
310
FFFFFFFFFFFFFFFFFFFFFFFFFFFFFFFFFFFFFFFFFFFFFFFFFFFFFFFFFFFFFFFF
310
FFFFFFFFFFFFFFFFFFFFFFFFFFFFFFFFFFFFB43404FFE4DCDCFFE4E4E4FFE4E4
310
E4FFE4E4E4FFE4E4E4FFE4E4E4FFE4E4E4FFE4E4E4FFE4E4E4FFE4E4E4FFE4E4
310
E4FFE4E4E4FFE4E4E4FFE4E4E4FFE4E4E4FFE4E4E4FFE4E4E4FFE4E4E4FFE4E4
310
E4FFE4E4E4FFE4E4E4FFE4E4E4FFE4E4E4FFE4E4E4FFE4E4E4FFE4E4E4FFE4E4
310
E4FFE4E4E4FFE4E4E4FFE4E4E4FFE4E4E4FFE4E4E4FFE4E4E4FFE4E4E4FFE4E4
310
E4FFE4E4E4FFE4E4E4FFE4E4E4FFE4E4E4FFE4E4E4FFE4E4E4FFE4E4E4FFE4E4
310
E4FFE4E4E4FFE4E4E4FFE4E4E4FFE4E4E4FFE4E4E4FFE4E4E4FFE4E4E4FFE4E4
310
E4FFE4E4E4FFE4E4E4FFE4E4E4FFB43404FFFFFFFFFFFFFFFFFFFFFFFFFFFFFF
310
FFFFFFFFFFFFFFFFFFFFFFFFFFFFFFFFFFFFFFFFFFFFFFFFFFFFFFFFFFFFFFFF
310
FFFFFFFFFFFFFFFFFFFFFFFFFFFFFFFFFFFFFFFFFFFFFFFFFFFFFFFFFFFFFFFF
310
FFFFFFFFFFFFFFFFFFFFFFFFFFFFFFFFFFFFFFFFFFFFFFFFFFFFFFFFFFFFFFFF
310
FFFFFFFFFFFFFFFFFFFFFFFFFFFFFFFFFFFFFFFFFFFFFFFFFFFFB43404FFE4E4
310
E4FFE4E4E4FFE4E4E4FFE4E4E4FFE4E4E4FFE4E4E4FFE4E4E4FFE4E4E4FFE4E4
310
E4FFE4E4E4FFE4E4E4FFE4E4E4FFE4E4E4FFE4DCDCFFE4E4E4FFE4E4E4FFE4E4
310
E4FFE4E4E4FFE4E4E4FFE4E4E4FFE4E4E4FFE4E4E4FFE4E4E4FFE4E4E4FFE4E4
310
E4FFE4E4E4FFE4E4E4FFE4E4E4FFE4DCDCFFDCDCDCFFE4E4E4FFE4E4E4FFE4E4
310
E4FFE4E4E4FFE4E4E4FFE4E4E4FFE4E4E4FFE4E4E4FFE4E4E4FFE4E4E4FFE4E4
310
E4FFE4E4E4FFE4E4E4FFE4E4E4FFE4DCDCFFE4E4E4FFE4E4E4FFE4E4E4FFE4E4
310
E4FFE4E4E4FFE4E4E4FFE4E4E4FFE4E4E4FFE4E4E4FFB43404FFFFFFFFFFFFFF
310
FFFFFFFFFFFFFFFFFFFFFFFFFFFFFFFFFFFFFFFFFFFFFFFFFFFFFFFFFFFFFFFF
310
FFFFFFFFFFFFFFFFFFFFFFFFFFFFFFFFFFFFFFFFFFFFFFFFFFFFFFFFFFFFFFFF
310
FFFFFFFFFFFFFFFFFFFFFFFFFFFFFFFFFFFFFFFFFFFFFFFFFFFFFFFFFFFFFFFF
310
FFFFFFFFFFFFFFFFFFFFFFFFFFFFFFFFFFFFFFFFFFFFFFFFFFFFFFFFFFFFFFFF
310
FFFFB43404FFE4DCDCFFE4E4E4FFE4E4E4FFE4E4E4FFE4E4E4FFE4E4E4FFE4E4
310
E4FFE4E4E4FFB43404FFB43404FFB43404FFB43404FFB43404FFB43404FFB434
310
04FFDCD4D4FFE4E4E4FFE4E4E4FFE4E4E4FFE4E4E4FFE4E4E4FFE4E4E4FFE4E4
310
E4FFB43404FFB43404FFB43404FFB43404FFB43404FFB43404FFB43404FFB434
310
04FFE4DCDCFFE4E4E4FFE4E4E4FFE4E4E4FFE4E4E4FFE4E4E4FFE4E4E4FFE4E4
310
E4FFB43404FFB43404FFB43404FFB43404FFB43404FFB43404FFB43404FFE4DC
310
DCFFE4E4E4FFE4E4E4FFE4E4E4FFE4E4E4FFE4E4E4FFE4E4E4FFE4E4E4FFB434
310
04FFFFFFFFFFFFFFFFFFFFFFFFFFFFFFFFFFFFFFFFFFFFFFFFFFFFFFFFFFFFFF
310
FFFFFFFFFFFFFFFFFFFFFFFFFFFFFFFFFFFFFFFFFFFFFFFFFFFFFFFFFFFFFFFF
310
FFFFFFFFFFFFFFFFFFFFFFFFFFFFFFFFFFFFFFFFFFFFFFFFFFFFFFFFFFFFFFFF
310
FFFFFFFFFFFFFFFFFFFFFFFFFFFFFFFFFFFFFFFFFFFFFFFFFFFFFFFFFFFFFFFF
310
FFFFFFFFFFFFFFFFFFFFB43404FFE4E4E4FFE4E4E4FFE4E4E4FFE4E4E4FFE4E4
310
E4FFE4E4E4FFE4E4E4FFE4DCDCFFB43404FFFFFFFFFFFFFFFFFFFFFFFFFFFFFF
310
FFFFFFFFFFFFB43404FFE4E4E4FFE4E4E4FFE4E4E4FFE4E4E4FFE4E4E4FFE4E4
310
E4FFE4E4E4FFE4E4E4FFB43404FFFFFFFFFFFFFFFFFFFFFFFFFFFFFFFFFFFFFF
310
FFFFFFFFFFFFB43404FFE4E4E4FFE4E4E4FFE4E4E4FFE4E4E4FFE4E4E4FFE4E4
310
E4FFE4E4E4FFE4E4E4FFB43404FFFFFFFFFFFFFFFFFFFFFFFFFFFFFFFFFFFFFF
310
FFFFB43404FFE4E4E4FFE4E4E4FFE4E4E4FFE4E4E4FFE4E4E4FFE4E4E4FFE4E4
310
E4FFE4DCDCFFB43404FFFFFFFFFFFFFFFFFFFFFFFFFFFFFFFFFFFFFFFFFFFFFF
310
FFFFFFFFFFFFFFFFFFFFFFFFFFFFFFFFFFFFFFFFFFFFFFFFFFFFFFFFFFFFFFFF
310
FFFFFFFFFFFFFFFFFFFFFFFFFFFFFFFFFFFFFFFFFFFFFFFFFFFFFFFFFFFFFFFF
310
FFFFFFFFFFFFFFFFFFFFFFFFFFFFFFFFFFFFFFFFFFFFFFFFFFFFFFFFFFFFFFFF
310
FFFFFFFFFFFFFFFFFFFFFFFFFFFFFFFFFFFFB43404FFE4DCDCFFE4E4E4FFE4E4
310
E4FFE4E4E4FFE4E4E4FFE4E4E4FFE4E4E4FFE4E4E4FFB43404FFFFFFFFFFFFFF
310
FFFFFFFFFFFFFFFFFFFFFFFFFFFFB43404FFDCDCDCFFE4E4E4FFE4E4E4FFE4E4
310
E4FFE4E4E4FFE4E4E4FFE4E4E4FFE4DCDCFFB43404FFFFFFFFFFFFFFFFFFFFFF
310
FFFFFFFFFFFFFFFFFFFFFFFFFFFFB43404FFE4DCDCFFE4E4E4FFE4E4E4FFE4E4
310
E4FFE4E4E4FFE4E4E4FFE4E4E4FFE4E4E4FFB43404FFFFFFFFFFFFFFFFFFFFFF
310
FFFFFFFFFFFFFFFFFFFFB43404FFDCDCDCFFE4E4E4FFE4E4E4FFE4E4E4FFE4E4
310
E4FFE4E4E4FFE4E4E4FFE4E4E4FFB43404FFFFFFFFFFFFFFFFFFFFFFFFFFFFFF
310
FFFFFFFFFFFFFFFFFFFFFFFFFFFFFFFFFFFFFFFFFFFFFFFFFFFFFFFFFFFFFFFF
310
FFFFFFFFFFFFFFFFFFFFFFFFFFFFFFFFFFFFFFFFFFFFFFFFFFFFFFFFFFFFFFFF
310
FFFFFFFFFFFFFFFFFFFFFFFFFFFFFFFFFFFFFFFFFFFFFFFFFFFFFFFFFFFFFFFF
310
FFFFFFFFFFFFFFFFFFFFFFFFFFFFFFFFFFFFFFFFFFFFFFFFFFFFB43404FFE4E4
310
E4FFE4E4E4FFE4E4E4FFE4E4E4FFE4E4E4FFE4E4E4FFE4E4E4FFE4E4E4FFB434
310
04FFFFFFFFFFFFFFFFFFFFFFFFFFFFFFFFFFFFFFFFFFB43404FFE4E4E4FFE4E4
310
E4FFE4E4E4FFE4E4E4FFE4E4E4FFE4E4E4FFE4E4E4FFE4E4E4FFB43404FFFFFF
310
FFFFFFFFFFFFFFFFFFFFFFFFFFFFFFFFFFFFFFFFFFFFB43404FFE4E4E4FFE4E4
310
E4FFE4E4E4FFE4E4E4FFE4E4E4FFE4E4E4FFE4E4E4FFE4DCDCFFB43404FFFFFF
310
FFFFFFFFFFFFFFFFFFFFFFFFFFFFFFFFFFFFB43404FFE4E4E4FFE4E4E4FFE4E4
310
E4FFE4E4E4FFE4E4E4FFE4E4E4FFE4E4E4FFE4E4E4FFB43404FFFFFFFFFFFFFF
310
FFFFFFFFFFFFFFFFFFFFFFFFFFFFFFFFFFFFFFFFFFFFFFFFFFFFFFFFFFFFFFFF
310
FFFFFFFFFFFFFFFFFFFFFFFFFFFFFFFFFFFFFFFFFFFFFFFFFFFFFFFFFFFFFFFF
310
FFFFFFFFFFFFFFFFFFFFFFFFFFFFFFFFFFFFFFFFFFFFFFFFFFFFFFFFFFFFFFFF
310
FFFFFFFFFFFFFFFFFFFFFFFFFFFFFFFFFFFFFFFFFFFFFFFFFFFFFFFFFFFFFFFF
310
FFFFB43404FFE4DCDCFFE4E4E4FFE4E4E4FFE4E4E4FFE4E4E4FFE4E4E4FFE4E4
310
E4FFE4E4E4FFB43404FFFFFFFFFFFFFFFFFFFFFFFFFFFFFFFFFFFFFFFFFFB434
310
04FFE4DCDCFFE4E4E4FFE4E4E4FFE4E4E4FFE4E4E4FFE4E4E4FFE4E4E4FFE4E4
310
E4FFB43404FFFFFFFFFFFFFFFFFFFFFFFFFFFFFFFFFFFFFFFFFFFFFFFFFFB434
310
04FFDCDCDCFFE4E4E4FFE4E4E4FFE4E4E4FFE4E4E4FFE4E4E4FFE4E4E4FFE4E4
310
E4FFB43404FFFFFFFFFFFFFFFFFFFFFFFFFFFFFFFFFFFFFFFFFFB43404FFE4DC
310
DCFFE4E4E4FFE4E4E4FFE4E4E4FFE4E4E4FFE4E4E4FFE4E4E4FFE4E4E4FFB434
310
04FFFFFFFFFFFFFFFFFFFFFFFFFFFFFFFFFFFFFFFFFFFFFFFFFFFFFFFFFFFFFF
310
FFFFFFFFFFFFFFFFFFFFFFFFFFFFFFFFFFFFFFFFFFFFFFFFFFFFFFFFFFFFFFFF
310
FFFFFFFFFFFFFFFFFFFFFFFFFFFFFFFFFFFFFFFFFFFFFFFFFFFFFFFFFFFFFFFF
310
FFFFFFFFFFFFFFFFFFFFFFFFFFFFFFFFFFFFFFFFFFFFFFFFFFFFFFFFFFFFFFFF
310
FFFFFFFFFFFFFFFFFFFFB43404FFB43404FFB43404FFB43404FFB43404FFB434
310
04FFB43404FFB43404FFB43404FFB43404FFFFFFFFFFFFFFFFFFFFFFFFFFFFFF
310
FFFFF4F4F4FFB43404FFB43404FFB43404FFB43404FFB43404FFB43404FFB434
310
04FFB43404FFB43404FFB43404FFFFFFFFFFFFFFFFFFFFFFFFFFFFFFFFFFFFFF
310
FFFFFFFFFFFFB43404FFB43404FFB43404FFB43404FFB43404FFB43404FFB434
310
04FFB43404FFB43404FFB43404FFFFFFFFFFFFFFFFFFFFFFFFFFFFFFFFFFF4F4
310
F4FFB43404FFB43404FFB43404FFB43404FFB43404FFB43404FFB43404FFB434
310
04FFB43404FFB43404FFFFFFFFFFFFFFFFFFFFFFFFFFFFFFFFFFFFFFFFFFFFFF
310
FFFFFFFFFFFFFFFFFFFFFFFFFFFFFFFFFFFFFFFFFFFFFFFFFFFFFFFFFFFFFFFF
310
FFFFFFFFFFFFFFFFFFFFFFFFFFFFFFFFFFFFFFFFFFFFFFFFFFFFFFFFFFFFFFFF
310
FFFFFFFFFFFFFFFFFFFFFFFFFFFFFFFFFFFFFFFFFFFFFFFFFFFFFFFFFFFFFFFF
310
FFFFFFFFFFFFFFFFFFFFFFFFFFFFFFFFFFFFFFFFFFFFFFFFFFFFFFFFFFFFFFFF
310
FFFFFFFFFFFFFFFFFFFFFFFFFFFFFFFFFFFFFFFFFFFFFFFFFFFFFFFFFFFFFFFF
310
FFFFFFFFFFFFFFFFFFFFFFFFFFFFFFFFFFFFFFFFFFFFFFFFFFFFFFFFFFFFFFFF
310
FFFFFFFFFFFFFFFFFFFFFFFFFFFFFFFFFFFFFFFFFFFFFFFFFFFFFFFFFFFFFFFF
310
FFFFFFFFFFFFFFFFFFFFFFFFFFFFFFFFFFFFFFFFFFFFFFFFFFFFFFFFFFFFFFFF
310
FFFFFFFFFFFFFFFFFFFFFFFFFFFFFFFFFFFFFFFFFFFFFFFFFFFFFFFFFFFFFFFF
310
FFFFFFFFFFFFFFFFFFFFFFFFFFFFFFFFFFFFFFFFFFFFFFFFFFFFFFFFFFFFFFFF
310
FFFFFFFFFFFFFFFFFFFFFFFFFFFFFFFFFFFFFFFFFFFFFFFFFFFFFFFFFFFFFFFF
310
FFFFFFFFFFFFFFFFFFFFFFFFFFFFFFFFFFFFFFFFFFFFFFFFFFFFFFFFFFFFFFFF
310
FFFFFFFFFFFFFFFFFFFFFFFFFFFFFFFFFFFFFFFFFFFFFFFFFFFFFFFFFFFFFFFF
310
FFFFFFFFFFFFFFFFFFFFFFFFFFFFFFFFFFFFFFFFFFFFFFFFFFFFFFFFFFFFFFFF
310
FFFFFFFFFFFFFFFFFFFFFFFFFFFFFFFFFFFFFFFFFFFFFFFFFFFFFFFFFFFFFFFF
310
FFFFFFFFFFFFFFFFFFFFFFFFFFFFFFFFFFFFFFFFFFFFFFFFFFFFFFFFFFFFFFFF
310
FFFFFFFFFFFFFFFFFFFFFFFFFFFFFFFFFFFFFFFFFFFFFFFFFFFFFFFFFFFFFFFF
310
FFFFFFFFFFFFFFFFFFFFFFFFFFFFFFFFFFFFFFFFFFFFFFFFFFFFFFFFFFFFFFFF
310
FFFFFFFFFFFFFFFFFFFFFFFFFFFFFFFFFFFFFFFFFFFFFFFFFFFFFFFFFFFFFFFF
310
FFFFFFFFFFFFFFFFFFFFFFFFFFFFFFFFFFFFFFFFFFFFFFFFFFFFFFFFFFFFFFFF
310
FFFFFFFFFFFFFFFFFFFFFFFFFFFFFFFFFFFFFFFFFFFFFFFFFFFFFFFFFFFFFFFF
310
FFFFFFFFFFFFFFFFFFFFFFFFFFFFFFFFFFFFFFFFFFFFFFFFFFFFFFFFFFFFFFFF
310
FFFFFFFFFFFFFFFFFFFFFFFFFFFFFFFFFFFFFFFFFFFFFFFFFFFFFFFFFFFFFFFF
310
FFFFFFFFFFFFFFFFFFFFFFFFFFFFFFFFFFFFFFFFFFFFFFFFFFFFFFFFFFFFFFFF
310
FFFFFFFFFFFFFFFFFFFFFFFFFFFFFFFFFFFFFFFFFFFFFFFFFFFFFFFFFFFFFFFF
310
FFFFFFFFFFFFFFFFFFFFFFFFFFFFFFFFFFFFFFFFFFFFFFFFFFFFFFFFFFFFFFFF
310
FFFFB43404FFB43404FFB43404FFB43404FFB43404FFB43404FFB43404FFB434
310
04FFB43404FFB43404FFFFFFFFFFFFFFFFFFFFFFFFFFFFFFFFFFFFFFFFFFB434
310
04FFB43404FFB43404FFB43404FFB43404FFB43404FFB43404FFB43404FFB434
310
04FFB43404FFFFFFFFFFFFFFFFFFFFFFFFFFFFFFFFFFFFFFFFFFFFFFFFFFB434
310
04FFB43404FFB43404FFB43404FFB43404FFB43404FFB43404FFB43404FFB434
310
04FFB43404FFFFFFFFFFFFFFFFFFFFFFFFFFFFFFFFFFFFFFFFFFB43404FFB434
310
04FFB43404FFB43404FFB43404FFB43404FFB43404FFB43404FFB43404FFB434
310
04FFFFFFFFFFFFFFFFFFFFFFFFFFFFFFFFFFFFFFFFFFFFFFFFFFFFFFFFFFFFFF
310
FFFFFFFFFFFFFFFFFFFFFFFFFFFFFFFFFFFFFFFFFFFFFFFFFFFFFFFFFFFFFFFF
310
FFFFFFFFFFFFFFFFFFFFFFFFFFFFFFFFFFFFFFFFFFFFFFFFFFFFFFFFFFFFFFFF
310
FFFFFFFFFFFFFFFFFFFFFFFFFFFFFFFFFFFFFFFFFFFFFFFFFFFFFFFFFFFFFFFF
310
FFFFFFFFFFFFFFFFFFFFB43404FFE4DCDCFFE4E4E4FFE4E4E4FFE4E4E4FFE4E4
310
E4FFE4E4E4FFE4E4E4FFE4E4E4FFB43404FFFFFFFFFFFFFFFFFFFFFFFFFFFFFF
310
FFFFFFFFFFFFB43404FFE4E4E4FFE4E4E4FFE4E4E4FFE4E4E4FFE4E4E4FFE4E4
310
E4FFE4E4E4FFE4E4E4FFB43404FFFFFFFFFFFFFFFFFFFFFFFFFFFFFFFFFFFFFF
310
FFFFFFFFFFFFB43404FFE4E4E4FFE4E4E4FFE4E4E4FFE4E4E4FFE4E4E4FFE4E4
310
E4FFE4E4E4FFE4E4E4FFB43404FFFFFFFFFFFFFFFFFFFFFFFFFFFFFFFFFFFFFF
310
FFFFB43404FFE4E4E4FFE4E4E4FFE4E4E4FFE4E4E4FFE4E4E4FFE4E4E4FFE4E4
310
E4FFE4E4E4FFB43404FFFFFFFFFFFFFFFFFFFFFFFFFFFFFFFFFFFFFFFFFFFFFF
310
FFFFFFFFFFFFFFFFFFFFFFFFFFFFFFFFFFFFFFFFFFFFFFFFFFFFFFFFFFFFFFFF
310
FFFFFFFFFFFFFFFFFFFFFFFFFFFFFFFFFFFFFFFFFFFFFFFFFFFFFFFFFFFFFFFF
310
FFFFFFFFFFFFFFFFFFFFFFFFFFFFFFFFFFFFFFFFFFFFFFFFFFFFFFFFFFFFFFFF
310
FFFFFFFFFFFFFFFFFFFFFFFFFFFFFFFFFFFFB43404FFE4E4E4FFE4E4E4FFE4E4
310
E4FFE4E4E4FFE4E4E4FFE4E4E4FFE4E4E4FFE4DCDCFFB43404FFFFFFFFFFFFFF
310
FFFFFFFFFFFFFFFFFFFFFFFFFFFFB43404FFE4DCDCFFE4E4E4FFE4E4E4FFE4E4
310
E4FFE4E4E4FFE4E4E4FFE4E4E4FFE4E4E4FFB43404FFFFFFFFFFFFFFFFFFFFFF
310
FFFFFFFFFFFFFFFFFFFFFFFFFFFFB43404FFE4DCDCFFE4E4E4FFE4E4E4FFE4E4
310
E4FFE4E4E4FFE4E4E4FFE4E4E4FFE4E4E4FFB43404FFFFFFFFFFFFFFFFFFFFFF
310
FFFFFFFFFFFFFFFFFFFFB43404FFE4DCDCFFE4E4E4FFE4E4E4FFE4E4E4FFE4E4
310
E4FFE4E4E4FFE4E4E4FFE4E4E4FFB43404FFFFFFFFFFFFFFFFFFFFFFFFFFFFFF
310
FFFFFFFFFFFFFFFFFFFFFFFFFFFFFFFFFFFFFFFFFFFFFFFFFFFFFFFFFFFFFFFF
310
FFFFFFFFFFFFFFFFFFFFFFFFFFFFFFFFFFFFFFFFFFFFFFFFFFFFFFFFFFFFFFFF
310
FFFFFFFFFFFFFFFFFFFFFFFFFFFFFFFFFFFFFFFFFFFFFFFFFFFFFFFFFFFFFFFF
310
FFFFFFFFFFFFFFFFFFFFFFFFFFFFFFFFFFFFFFFFFFFFFFFFFFFFB43404FFE4DC
310
DCFFE4E4E4FFE4E4E4FFE4E4E4FFE4E4E4FFE4E4E4FFE4E4E4FFE4E4E4FFB434
310
04FFFFFFFFFFFFFFFFFFFFFFFFFFFFFFFFFFFFFFFFFFB43404FFE4E4E4FFE4E4
310
E4FFE4E4E4FFE4E4E4FFE4E4E4FFE4E4E4FFE4E4E4FFE4E4E4FFB43404FFFFFF
310
FFFFFFFFFFFFFFFFFFFFFFFFFFFFFFFFFFFFFFFFFFFFB43404FFE4E4E4FFE4E4
310
E4FFE4E4E4FFE4E4E4FFE4E4E4FFE4E4E4FFE4E4E4FFE4E4E4FFB43404FFFFFF
310
FFFFFFFFFFFFFFFFFFFFFFFFFFFFFFFFFFFFB43404FFE4E4E4FFE4E4E4FFE4E4
310
E4FFE4E4E4FFE4E4E4FFE4E4E4FFE4E4E4FFE4E4E4FFB43404FFFFFFFFFFFFFF
310
FFFFFFFFFFFFFFFFFFFFFFFFFFFFFFFFFFFFFFFFFFFFFFFFFFFFFFFFFFFFFFFF
310
FFFFFFFFFFFFFFFFFFFFFFFFFFFFFFFFFFFFFFFFFFFFFFFFFFFFFFFFFFFFFFFF
310
FFFFFFFFFFFFFFFFFFFFFFFFFFFFFFFFFFFFFFFFFFFFFFFFFFFFFFFFFFFFFFFF
310
FFFFFFFFFFFFFFFFFFFFFFFFFFFFFFFFFFFFFFFFFFFFFFFFFFFFFFFFFFFFFFFF
310
FFFFB43404FFDCDCDCFFE4E4E4FFE4DCDCFFE4E4E4FFE4E4E4FFE4E4E4FFE4E4
310
E4FFE4E4E4FFB43404FFFFFFFFFFFFFFFFFFFFFFFFFFFFFFFFFFFFFFFFFFB434
310
04FFE4DCDCFFE4E4E4FFE4DCDCFFE4E4E4FFE4DCDCFFE4E4E4FFE4E4E4FFE4E4
310
E4FFB43404FFFFFFFFFFFFFFFFFFFFFFFFFFFFFFFFFFFFFFFFFFFFFFFFFFB434
310
04FFE4DCDCFFE4E4E4FFE4E4E4FFE4E4E4FFE4DCDCFFE4E4E4FFE4E4E4FFE4E4
310
E4FFB43404FFFFFFFFFFFFFFFFFFFFFFFFFFFFFFFFFFFFFFFFFFB43404FFE4DC
310
DCFFE4E4E4FFE4DCDCFFE4E4E4FFE4DCDCFFE4E4E4FFE4E4E4FFE4E4E4FFB434
310
04FFFFFFFFFFFFFFFFFFFFFFFFFFFFFFFFFFFFFFFFFFFFFFFFFFFFFFFFFFFFFF
310
FFFFFFFFFFFFFFFFFFFFFFFFFFFFFFFFFFFFFFFFFFFFFFFFFFFFFFFFFFFFFFFF
310
FFFFFFFFFFFFFFFFFFFFFFFFFFFFFFFFFFFFFFFFFFFFFFFFFFFFFFFFFFFFFFFF
310
FFFFFFFFFFFFFFFFFFFFFFFFFFFFFFFFFFFFFFFFFFFFFFFFFFFFFFFFFFFFFFFF
310
FFFFFFFFFFFFFFFFFFFFB43404FFB43404FFB43404FFB43404FFB43404FFB434
310
04FFB43404FFB43404FFB43404FFB43404FFFFFFFFFFFFFFFFFFFFFFFFFFFFFF
310
FFFFFFFFFFFFB43404FFB43404FFB43404FFB43404FFB43404FFB43404FFB434
310
04FFB43404FFB43404FFB43404FFFFFFFFFFFFFFFFFFFFFFFFFFFFFFFFFFFFFF
310
FFFFFFFFFFFFB43404FFB43404FFB43404FFB43404FFB43404FFB43404FFB434
310
04FFB43404FFB43404FFB43404FFFFFFFFFFFFFFFFFFFFFFFFFFFFFFFFFFFFFF
310
FFFFB43404FFB43404FFB43404FFB43404FFB43404FFB43404FFB43404FFB434
310
04FFB43404FFB43404FFFFFFFFFFFFFFFFFFFFFFFFFFFFFFFFFFFFFFFFFFFFFF
310
FFFFFFFFFFFFFFFFFFFFFFFFFFFFFFFFFFFFFFFFFFFFFFFFFFFFFFFFFFFFFFFF
310
FFFFFFFFFFFFFFFFFFFFFFFFFFFFFFFFFFFFFFFFFFFFFFFFFFFFFFFFFFFFFFFF
310
FFFFFFFFFFFFFFFFFFFFFFFFFFFFFFFFFFFFFFFFFFFFFFFFFFFFFFFFFFFFFFFF
310
FFFFFFFFFFFFFFFFFFFFFFFFFFFFFFFFFFFFFFFFFFFFFFFFFFFFFFFFFFFFFFFF
310
FFFFFFFFFFFFFFFFFFFFFFFFFFFFFFFFFFFFFFFFFFFFFFFFFFFFFFFFFFFFFFFF
310
FFFFFFFFFFFFFFFFFFFFFFFFFFFFFFFFFFFFFFFFFFFFFFFFFFFFFFFFFFFFFFFF
310
FFFFFFFFFFFFFFFFFFFFFFFFFFFFFFFFFFFFFFFFFFFFFFFFFFFFFFFFFFFFFFFF
310
FFFFFFFFFFFFFFFFFFFFFFFFFFFFFFFFFFFFFFFFFFFFFFFFFFFFFFFFFFFFFFFF
310
FFFFFFFFFFFFFFFFFFFFFFFFFFFFFFFFFFFFFFFFFFFFFFFFFFFFFFFFFFFFFFFF
310
FFFFFFFFFFFFFFFFFFFFFFFFFFFFFFFFFFFFFFFFFFFFFFFFFFFFFFFFFFFFFFFF
310
FFFFFFFFFFFFFFFFFFFFFFFFFFFFFFFFFFFFFFFFFFFFFFFFFFFFFFFFFFFFFFFF
310
FFFFFFFFFFFFFFFFFFFFFFFFFFFFFFFFFFFFFFFFFFFFFFFFFFFFFFFFFFFFFFFF
310
FFFFFFFFFFFFFFFFFFFFFFFFFFFFFFFFFFFFFFFFFFFFFFFFFFFFFFFFFFFFFFFF
310
FFFFFFFFFFFFFFFFFFFFFFFFFFFFFFFFFFFFFFFFFFFFFFFFFFFFFFFFFFFFFFFF
310
FFFFFFFFFFFFFFFFFFFFFFFFFFFFFFFFFFFFFFFFFFFFFFFFFFFFB43404FFB434
310
04FFB43404FFB43404FFB43404FFB43404FFB43404FFB43404FFB43404FFB434
310
04FFFFFFFFFFFFFFFFFFFFFFFFFFFFFFFFFFFFFFFFFFB43404FFB43404FFB434
310
04FFB43404FFB43404FFB43404FFB43404FFB43404FFB43404FFB43404FFFFFF
310
FFFFFFFFFFFFFFFFFFFFFFFFFFFFFFFFFFFFFFFFFFFFB43404FFB43404FFB434
310
04FFB43404FFB43404FFB43404FFB43404FFB43404FFB43404FFB43404FFFFFF
310
FFFFFFFFFFFFFFFFFFFFFFFFFFFFFFFFFFFFB43404FFB43404FFB43404FFB434
310
04FFB43404FFB43404FFB43404FFB43404FFB43404FFB43404FFFFFFFFFFFFFF
310
FFFFFFFFFFFFFFFFFFFFFFFFFFFFFFFFFFFFFFFFFFFFFFFFFFFFFFFFFFFFFFFF
310
FFFFFFFFFFFFFFFFFFFFFFFFFFFFFFFFFFFFFFFFFFFFFFFFFFFFFFFFFFFFFFFF
310
FFFFFFFFFFFFFFFFFFFFFFFFFFFFFFFFFFFFFFFFFFFFFFFFFFFFFFFFFFFFFFFF
310
FFFFFFFFFFFFFFFFFFFFFFFFFFFFFFFFFFFFFFFFFFFFFFFFFFFFFFFFFFFFFFFF
310
FFFFB43404FFE4E4E4FFE4E4E4FFE4E4E4FFE4E4E4FFE4E4E4FFE4E4E4FFE4E4
310
E4FFE4E4E4FFB43404FFFFFFFFFFFFFFFFFFFFFFFFFFFFFFFFFFFFFFFFFFB434
310
04FFE4DCDCFFE4E4E4FFE4E4E4FFE4E4E4FFE4E4E4FFE4E4E4FFE4E4E4FFE4E4
310
E4FFB43404FFFFFFFFFFFFFFFFFFFFFFFFFFFFFFFFFFFFFFFFFFFFFFFFFFB434
310
04FFE4E4E4FFE4E4E4FFE4E4E4FFE4E4E4FFE4E4E4FFE4E4E4FFE4E4E4FFE4E4
310
E4FFB43404FFFFFFFFFFFFFFFFFFFFFFFFFFFFFFFFFFFFFFFFFFB43404FFE4DC
310
DCFFE4E4E4FFE4E4E4FFE4E4E4FFE4E4E4FFE4E4E4FFE4E4E4FFE4E4E4FFB434
310
04FFFFFFFFFFFFFFFFFFFFFFFFFFFFFFFFFFFFFFFFFFFFFFFFFFFFFFFFFFFFFF
310
FFFFFFFFFFFFFFFFFFFFFFFFFFFFFFFFFFFFFFFFFFFFFFFFFFFFFFFFFFFFFFFF
310
FFFFFFFFFFFFFFFFFFFFFFFFFFFFFFFFFFFFFFFFFFFFFFFFFFFFFFFFFFFFFFFF
310
FFFFFFFFFFFFFFFFFFFFFFFFFFFFFFFFFFFFFFFFFFFFFFFFFFFFFFFFFFFFFFFF
310
FFFFFFFFFFFFFFFFFFFFB43404FFE4DCDCFFE4E4E4FFE4E4E4FFE4E4E4FFE4E4
310
E4FFE4E4E4FFE4E4E4FFE4E4E4FFB43404FFFFFFFFFFFFFFFFFFFFFFFFFFFFFF
310
FFFFFFFFFFFFB43404FFE4E4E4FFE4E4E4FFE4E4E4FFE4E4E4FFE4E4E4FFE4E4
310
E4FFE4E4E4FFE4E4E4FFB43404FFFFFFFFFFFFFFFFFFFFFFFFFFFFFFFFFFFFFF
310
FFFFFFFFFFFFB43404FFE4DCDCFFE4E4E4FFE4E4E4FFE4E4E4FFE4E4E4FFE4E4
310
E4FFE4E4E4FFE4E4E4FFB43404FFFFFFFFFFFFFFFFFFFFFFFFFFFFFFFFFFFFFF
310
FFFFB43404FFE4E4E4FFE4E4E4FFE4E4E4FFE4E4E4FFE4E4E4FFE4E4E4FFE4E4
310
E4FFE4E4E4FFB43404FFFFFFFFFFFFFFFFFFFFFFFFFFFFFFFFFFFFFFFFFFFFFF
310
FFFFFFFFFFFFFFFFFFFFFFFFFFFFFFFFFFFFFFFFFFFFFFFFFFFFFFFFFFFFFFFF
310
FFFFFFFFFFFFFFFFFFFFFFFFFFFFFFFFFFFFFFFFFFFFFFFFFFFFFFFFFFFFFFFF
310
FFFFFFFFFFFFFFFFFFFFFFFFFFFFFFFFFFFFFFFFFFFFFFFFFFFFFFFFFFFFFFFF
310
FFFFFFFFFFFFFFFFFFFFFFFFFFFFFFFFFFFFB43404FFE4DCDCFFE4E4E4FFE4E4
310
E4FFE4E4E4FFE4E4E4FFE4E4E4FFE4E4E4FFE4E4E4FFB43404FFFFFFFFFFFFFF
310
FFFFFFFFFFFFFFFFFFFFFFFFFFFFB43404FFDCDCDCFFE4DCDCFFE4E4E4FFE4E4
310
E4FFE4E4E4FFE4E4E4FFE4E4E4FFE4E4E4FFB43404FFFFFFFFFFFFFFFFFFFFFF
310
FFFFFFFFFFFFFFFFFFFFFFFFFFFFB43404FFE4DCDCFFE4E4E4FFE4E4E4FFE4E4
310
E4FFE4E4E4FFE4E4E4FFE4E4E4FFE4E4E4FFB43404FFFFFFFFFFFFFFFFFFFFFF
310
FFFFFFFFFFFFFFFFFFFFB43404FFDCDCDCFFE4DCDCFFE4E4E4FFE4E4E4FFE4E4
310
E4FFE4E4E4FFE4E4E4FFE4E4E4FFB43404FFFFFFFFFFFFFFFFFFFFFFFFFFFFFF
310
FFFFFFFFFFFFFFFFFFFFFFFFFFFFFFFFFFFFFFFFFFFFFFFFFFFFFFFFFFFFFFFF
310
FFFFFFFFFFFFFFFFFFFFFFFFFFFFFFFFFFFFFFFFFFFFFFFFFFFFFFFFFFFFFFFF
310
FFFFFFFFFFFFFFFFFFFFFFFFFFFFFFFFFFFFFFFFFFFFFFFFFFFFFFFFFFFFFFFF
310
FFFFFFFFFFFFFFFFFFFFFFFFFFFFFFFFFFFFFFFFFFFFFFFFFFFFB43404FFB434
310
04FFB43404FFB43404FFB43404FFB43404FFB43404FFB43404FFB43404FFB434
310
04FFFFFFFFFFFFFFFFFFFFFFFFFFFFFFFFFFFFFFFFFFB43404FFB43404FFB434
310
04FFB43404FFB43404FFB43404FFB43404FFB43404FFB43404FFB43404FFFFFF
310
FFFFFFFFFFFFFFFFFFFFFFFFFFFFFFFFFFFFFFFFFFFFB43404FFB43404FFB434
310
04FFB43404FFB43404FFB43404FFB43404FFB43404FFB43404FFB43404FFFFFF
310
FFFFFFFFFFFFFFFFFFFFFFFFFFFFFFFFFFFFB43404FFB43404FFB43404FFB434
310
04FFB43404FFB43404FFB43404FFB43404FFB43404FFB43404FFFFFFFFFFFFFF
310
FFFFFFFFFFFFFFFFFFFFFFFFFFFFFFFFFFFFFFFFFFFFFFFFFFFFFFFFFFFFFFFF
310
FFFFFFFFFFFFFFFFFFFFFFFFFFFFFFFFFFFFFFFFFFFFFFFFFFFFFFFFFFFFFFFF
310
FFFFFFFFFFFFFFFFFFFFFFFFFFFFFFFFFFFFFFFFFFFFFFFFFFFFFFFFFFFFFFFF
310
FFFFFFFFFFFFFFFFFFFFFFFFFFFFFFFFFFFFFFFFFFFFFFFFFFFFFFFFFFFFFFFF
310
FFFFFFFFFFFFFFFFFFFFFFFFFFFFFFFFFFFFFFFFFFFFFFFFFFFFFFFFFFFFFFFF
310
FFFFFFFFFFFFFFFFFFFFFFFFFFFFFFFFFFFFFFFFFFFFFFFFFFFFFFFFFFFFFFFF
310
FFFFFFFFFFFFFFFFFFFFFFFFFFFFFFFFFFFFFFFFFFFFFFFFFFFFFFFFFFFFFFFF
310
FFFFFFFFFFFFFFFFFFFFFFFFFFFFFFFFFFFFFFFFFFFFFFFFFFFFFFFFFFFFFFFF
310
FFFFFFFFFFFFFFFFFFFFFFFFFFFFFFFFFFFFFFFFFFFFFFFFFFFFFFFFFFFFFFFF
310
FFFFFFFFFFFFFFFFFFFFFFFFFFFFFFFFFFFFFFFFFFFFFFFFFFFFFFFFFFFFFFFF
310
FFFFFFFFFFFFFFFFFFFFFFFFFFFFFFFFFFFFFFFFFFFFFFFFFFFFFFFFFFFFFFFF
310
FFFFFFFFFFFFFFFFFFFFFFFFFFFFFFFFFFFFFFFFFFFFFFFFFFFFFFFFFFFFFFFF
310
FFFFFFFFFFFFFFFFFFFFFFFFFFFFFFFFFFFFFFFFFFFFFFFFFFFFFFFFFFFFFFFF
310
FFFFFFFFFFFFFFFFFFFFFFFFFFFFFFFFFFFFFFFFFFFFFFFFFFFFFFFFFFFFFFFF
310
FFFFFFFFFFFFFFFFFFFFFFFFFFFFFFFFFFFFFFFFFFFFFFFFFFFFFFFFFFFFFFFF
310
FFFFFFFFFFFFFFFFFFFFB43404FFB43404FFB43404FFB43404FFB43404FFB434
310
04FFB43404FFB43404FFB43404FFB43404FFFFFFFFFFFFFFFFFFFFFFFFFFFFFF
310
FFFFFFFFFFFFB43404FFB43404FFB43404FFB43404FFB43404FFB43404FFB434
310
04FFB43404FFB43404FFB43404FFFFFFFFFFFFFFFFFFFFFFFFFFFFFFFFFFFFFF
310
FFFFFFFFFFFFB43404FFB43404FFB43404FFB43404FFB43404FFB43404FFB434
310
04FFB43404FFB43404FFB43404FFFFFFFFFFFFFFFFFFFFFFFFFFFFFFFFFFFFFF
310
FFFFB43404FFB43404FFB43404FFB43404FFB43404FFB43404FFB43404FFB434
310
04FFB43404FFB43404FFFFFFFFFFFFFFFFFFFFFFFFFFFFFFFFFFFFFFFFFFFFFF
310
FFFFFFFFFFFFFFFFFFFFFFFFFFFFFFFFFFFFFFFFFFFFFFFFFFFFFFFFFFFFFFFF
310
FFFFFFFFFFFFFFFFFFFFFFFFFFFFFFFFFFFFFFFFFFFFFFFFFFFFFFFFFFFFFFFF
310
FFFFFFFFFFFFFFFFFFFFFFFFFFFFFFFFFFFFFFFFFFFFFFFFFFFFFFFFFFFFFFFF
310
FFFFFFFFFFFFFFFFFFFFFFFFFFFFFFFFFFFFB43404FFE4DCDCFFE4E4E4FFE4DC
310
DCFFE4E4E4FFE4DCDCFFE4E4E4FFE4DCDCFFE4E4E4FFB43404FFFFFFFFFFFFFF
310
FFFFFFFFFFFFFFFFFFFFFFFFFFFFB43404FFE4DCDCFFE4E4E4FFE4DCDCFFE4E4
310
E4FFE4DCDCFFE4E4E4FFE4DCDCFFE4E4E4FFB43404FFFFFFFFFFFFFFFFFFFFFF
310
FFFFFFFFFFFFFFFFFFFFFFFFFFFFB43404FFE4DCDCFFE4E4E4FFE4DCDCFFE4E4
310
E4FFE4DCDCFFE4E4E4FFE4DCDCFFE4E4E4FFB43404FFFFFFFFFFFFFFFFFFFFFF
310
FFFFFFFFFFFFFFFFFFFFB43404FFE4DCDCFFE4E4E4FFE4DCDCFFE4E4E4FFE4DC
310
DCFFE4E4E4FFE4DCDCFFE4E4E4FFB43404FFFFFFFFFFFFFFFFFFFFFFFFFFFFFF
310
FFFFFFFFFFFFFFFFFFFFFFFFFFFFFFFFFFFFFFFFFFFFFFFFFFFFFFFFFFFFFFFF
310
FFFFFFFFFFFFFFFFFFFFFFFFFFFFFFFFFFFFFFFFFFFFFFFFFFFFFFFFFFFFFFFF
310
FFFFFFFFFFFFFFFFFFFFFFFFFFFFFFFFFFFFFFFFFFFFFFFFFFFFFFFFFFFFFFFF
310
FFFFFFFFFFFFFFFFFFFFFFFFFFFFFFFFFFFFFFFFFFFFFFFFFFFFB43404FFB434
310
04FFB43404FFB43404FFB43404FFB43404FFB43404FFB43404FFB43404FFB434
310
04FFFFFFFFFFFFFFFFFFFFFFFFFFFFFFFFFFFFFFFFFFB43404FFB43404FFB434
310
04FFB43404FFB43404FFB43404FFB43404FFB43404FFB43404FFB43404FFFFFF
310
FFFFFFFFFFFFFFFFFFFFFFFFFFFFFFFFFFFFFFFFFFFFB43404FFB43404FFB434
310
04FFB43404FFB43404FFB43404FFB43404FFB43404FFB43404FFB43404FFFFFF
310
FFFFFFFFFFFFFFFFFFFFFFFFFFFFFFFFFFFFB43404FFB43404FFB43404FFB434
310
04FFB43404FFB43404FFB43404FFB43404FFB43404FFB43404FFFFFFFFFFFFFF
310
FFFFFFFFFFFFFFFFFFFFFFFFFFFFFFFFFFFFFFFFFFFFFFFFFFFFFFFFFFFFFFFF
310
FFFFFFFFFFFFFFFFFFFFFFFFFFFFFFFFFFFFFFFFFFFFFFFFFFFFFFFFFFFFFFFF
310
FFFFFFFFFFFFFFFFFFFFFFFFFFFFFFFFFFFFFFFFFFFFFFFFFFFFFFFFFFFFFFFF
310
FFFFFFFFFFFFFFFFFFFFFFFFFFFFFFFFFFFFFFFFFFFFFFFFFFFFFFFFFFFFFFFF
310
FFFFFFFFFFFFFFFFFFFFFFFFFFFFFFFFFFFFFFFFFFFFFFFFFFFFFFFFFFFFFFFF
310
FFFFFFFFFFFFFFFFFFFFFFFFFFFFFFFFFFFFFFFFFFFFFFFFFFFFFFFFFFFFFFFF
310
FFFFFFFFFFFFFFFFFFFFFFFFFFFFFFFFFFFFFFFFFFFFFFFFFFFFFFFFFFFFFFFF
310
FFFFFFFFFFFFFFFFFFFFFFFFFFFFFFFFFFFFFFFFFFFFFFFFFFFFFFFFFFFFFFFF
310
FFFFFFFFFFFFFFFFFFFFFFFFFFFFFFFFFFFFFFFFFFFFFFFFFFFFFFFFFFFFFFFF
310
FFFFFFFFFFFFFFFFFFFFFFFFFFFFFFFFFFFFFFFFFFFFFFFFFFFFFFFFFFFFFFFF
310
FFFFFFFFFFFFFFFFFFFFFFFFFFFFFFFFFFFFFFFFFFFFFFFFFFFFFFFFFFFFFFFF
310
FFFFFFFFFFFFFFFFFFFFFFFFFFFFFFFFFFFFFFFFFFFFFFFFFFFFFFFFFFFFFFFF
310
FFFFFFFFFFFFFFFFFFFFFFFFFFFFFFFFFFFFFFFFFFFFFFFFFFFFFFFFFFFFFFFF
310
FFFFFFFFFFFFFFFFFFFFFFFFFFFFFFFFFFFFFFFFFFFFFFFFFFFFFFFFFFFFFFFF
310
FFFFFFFFFFFFFFFFFFFFFFFFFFFFFFFFFFFFFFFFFFFFFFFFFFFFFFFFFFFFFFFF
310
FFFFFFFFFFFFFFFFFFFFFFFFFFFFFFFFFFFFFFFFFFFFFFFFFFFFFFFFFFFFFFFF
310
FFFFFFFFFFFFFFFFFFFFFFFFFFFFFFFFFFFFFFFFFFFFFFFFFFFFFFFFFFFFFFFF
310
FFFFFFFFFFFFFFFFFFFFFFFFFFFFFFFFFFFFFFFFFFFFFFFFFFFFFFFFFFFFFFFF
310
FFFFFFFFFFFFFFFFFFFFFFFFFFFFFFFFFFFFFFFFFFFFFFFFFFFFFFFFFFFFFFFF
310
FFFFFFFFFFFFFFFFFFFFFFFFFFFFFFFFFFFFFFFFFFFFFFFFFFFFFFFFFFFFFFFF
310
FFFFFFFFFFFFFFFFFFFFFFFFFFFFFFFFFFFFFFFFFFFFFFFFFFFFFFFFFFFFFFFF
310
FFFFFFFFFFFFFFFFFFFFFFFFFFFFFFFFFFFFFFFFFFFFFFFFFFFFFFFFFFFFFFFF
310
FFFFFFFFFFFFFFFFFFFFFFFFFFFFFFFFFFFFFFFFFFFFFFFFFFFFFFFFFFFFFFFF
310
FFFFFFFFFFFFFFFFFFFFFFFFFFFFFFFFFFFFFFFFFFFFFFFFFFFFFFFFFFFFFFFF
310
FFFFFFFFFFFFFFFFFFFFFFFFFFFFFFFFFFFFFFFFFFFFFFFFFFFFFFFFFFFFFFFF
310
FFFFFFFFFFFFFFFFFFFFFFFFFFFFFFFFFFFFFFFFFFFFFFFFFFFFFFFFFFFFFFFF
310
FFFFFFFFFFFFFFFFFFFFFFFFFFFFFFFFFFFFFFFFFFFFFFFFFFFFFFFFFFFFFFFF
310
FFFFFFFFFFFFFFFFFFFFFFFFFFFFFFFFFFFFFFFFFFFFFFFFFFFFFFFFFFFFFFFF
310
FFFFFFFFFFFFFFFFFFFFFFFFFFFFFFFFFFFFFFFFFFFFFFFFFFFFFFFFFFFFFFFF
310
FFFFFFFFFFFFFFFFFFFFFFFFFFFFFFFFFFFFFFFFFFFFFFFFFFFFFFFFFFFFFFFF
310
FFFFFFFFFFFFFFFFFFFFFFFFFFFFFFFFFFFFFFFFFFFFFFFFFFFFFFFFFFFFFFFF
310
FFFFFFFFFFFFFFFFFFFFFFFFFFFFFFFFFFFFFFFFFFFFFFFFFFFFFFFFFFFFFFFF
310
FFFFFFFFFFFFFFFFFFFFFFFFFFFFFFFFFFFFFFFFFFFFFFFFFFFFFFFFFFFFFFFF
310
FFFFFFFFFFFFFFFFFFFFFFFFFFFFFFFFFFFFFFFFFFFFFFFFFFFFFFFFFFFFFFFF
310
FFFFFFFFFFFFFFFFFFFFFFFFFFFFFFFFFFFFFFFFFFFFFFFFFFFFFFFFFFFFFFFF
310
FFFFFFFFFFFFFFFFFFFFFFFFFFFFFFFFFFFFFFFFFFFFFFFFFFFFFFFFFFFFFFFF
310
FFFFFFFFFFFFFFFFFFFFFFFFFFFFFFFFFFFFFFFFFFFFFFFFFFFFFFFFFFFFFFFF
310
FFFFFFFFFFFFFFFFFFFFFFFFFFFFFFFFFFFFFFFFFFFFFFFFFFFFFFFFFFFFFFFF
310
FFFFFFFFFFFFFFFFFFFFFFFFFFFFFFFFFFFFFFFFFFFFFFFFFFFFFFFFFFFFFFFF
310
FFFFFFFFFFFFFFFFFFFFFFFFFFFFFFFFFFFFFFFFFFFFFFFFFFFFFFFFFFFFFFFF
310
FFFFFFFFFFFFFFFFFFFFFFFFFFFFFFFFFFFFFFFFFFFFFFFFFFFFFFFFFFFFFFFF
310
FFFFFFFFFFFFFFFFFFFFFFFFFFFFFFFFFFFFFFFFFFFFFFFFFFFFFFFFFFFFFFFF
310
FFFFFFFFFFFFFFFFFFFFFFFFFFFFFFFFFFFFFFFFFFFFFFFFFFFFFFFFFFFFFFFF
310
FFFFFFFFFFFFFFFFFFFFFFFFFFFFFFFFFFFFFFFFFFFFFFFFFFFFFFFFFFFFFFFF
310
FFFFFFFFFFFFFFFFFFFFFFFFFFFFFFFFFFFFFFFFFFFFFFFFFFFFFFFFFFFFFFFF
310
FFFFFFFFFFFFFFFFFFFFFFFFFFFFFFFFFFFFFFFFFFFFFFFFFFFFFFFFFFFFFFFF
310
FFFFFFFFFFFFFFFFFFFFFFFFFFFFFFFFFFFFFFFFFFFFFFFFFFFFFFFFFFFFFFFF
310
FFFFFFFFFFFFFFFFFFFFFFFFFFFFFFFFFFFFFFFFFFFFFFFFFFFFFFFFFFFFFFFF
310
FFFFFFFFFFFFFFFFFFFFFFFFFFFFFFFFFFFFFFFFFFFFFFFFFFFFFFFFFFFFFFFF
310
FFFFFFFFFFFFFFFFFFFFFFFFFFFFFFFFFFFFFFFFFFFFFFFFFFFFFFFFFFFFFFFF
310
FFFFFFFFFFFFFFFFFFFFFFFFFFFFFFFFFFFFFFFFFFFFFFFFFFFFFFFFFFFFFFFF
310
FFFFFFFFFFFFFFFFFFFFFFFFFFFFFFFFFFFFFFFFFFFFFFFFFFFFFFFFFFFFFFFF
310
FFFFFFFFFFFFFFFFFFFFFFFFFFFFFFFFFFFFFFFFFFFFFFFFFFFFFFFFFFFFFFFF
310
FFFFFFFFFFFFFFFFFFFFFFFFFFFFFFFFFFFFFFFFFFFFFFFFFFFFFFFFFFFFFFFF
310
FFFFFFFFFFFFFFFFFFFFFFFFFFFFFFFFFFFFFFFFFFFFFFFFFFFFFFFFFFFFFFFF
310
FFFFFFFFFFFFFFFFFFFFFFFFFFFFFFFFFFFFFFFFFFFFFFFFFFFFFFFFFFFFFFFF
310
FFFFFFFFFFFFFFFFFFFFFFFFFFFFFFFFFFFFFFFFFFFFFFFFFFFFFFFFFFFFFFFF
310
FFFFFFFFFFFFFFFFFFFFFFFFFFFFFFFFFFFFFFFFFFFFFFFFFFFFFFFFFFFFFFFF
310
FFFFFFFFFFFFFFFFFFFFFFFFFFFFFFFFFFFFFFFFFFFFFFFFFFFFFFFFFFFFFFFF
310
FFFFFFFFFFFFFFFFFFFFFFFFFFFFFFFFFFFFFFFFFFFFFFFFFFFFFFFFFFFFFFFF
310
FFFFFFFFFFFFFFFFFFFFFFFFFFFFFFFFFFFFFFFFFFFFFFFFFFFFFFFFFFFFFFFF
310
FFFFFFFFFFFFFFFFFFFFFFFFFFFFFFFFFFFFFFFFFFFFFFFFFFFFFFFFFFFFFFFF
310
FFFFFFFFFFFFFFFFFFFFFFFFFFFFFFFFFFFFFFFFFFFFFFFFFFFFFFFFFFFFFFFF
310
FFFFFFFFFFFFFFFFFFFFFFFFFFFFFFFFFFFFFFFFFFFFFFFFFFFFFFFFFFFFFFFF
310
FFFFFFFFFFFFFFFFFFFFFFFFFFFFFFFFFFFFFFFFFFFFFFFFFFFFFFFFFFFFFFFF
310
FFFFFFFFFFFFFFFFFFFFFFFFFFFFFFFFFFFFFFFFFFFFFFFFFFFFFFFFFFFFFFFF
310
FFFFFFFFFFFFFFFFFFFFFFFFFFFFFFFFFFFFFFFFFFFFFFFFFFFFFFFFFFFFFFFF
310
FFFFFFFFFFFFFFFFFFFFFFFFFFFFFFFFFFFFFFFFFFFFFFFFFFFFFFFFFFFFFFFF
310
FFFFFFFFFFFFFFFFFFFFFFFFFFFFFFFFFFFFFFFFFFFFFFFFFFFFFFFFFFFFFFFF
310
FFFFFFFFFFFFFFFFFFFFFFFFFFFFFFFFFFFFFFFFFFFFFFFFFFFFFFFFFFFFFFFF
310
FFFFFFFFFFFFFFFFFFFFFFFFFFFFFFFFFFFFFFFFFFFFFFFFFFFFFFFFFFFFFFFF
310
FFFFFFFFFFFFFFFFFFFFFFFFFFFFFFFFFFFFFFFFFFFFFFFFFFFFFFFFFFFFFFFF
310
FFFFFFFFFFFFFFFFFFFFFFFFFFFFFFFFFFFFFFFFFFFFFFFFFFFFFFFFFFFFFFFF
310
FFFFFFFFFFFFFFFFFFFFFFFFFFFFFFFFFFFFFFFFFFFFFFFFFFFFFFFFFFFFFFFF
310
FFFFFFFFFFFFFFFFFFFFFFFFFFFFFFFFFFFFFFFFFFFFFFFFFFFFFFFFFFFFFFFF
310
FFFFFFFFFFFFFFFFFFFFFFFFFFFFFFFFFFFFFFFFFFFFFFFFFFFFFFFFFFFFFFFF
310
FFFFFFFFFFFFFFFFFFFFFFFFFFFFFFFFFFFFFFFFFFFFFFFFFFFFFFFFFFFFFFFF
310
FFFFFFFFFFFFFFFFFFFFFFFFFFFFFFFFFFFFFFFFFFFFFFFFFFFFFFFFFFFFFFFF
310
FFFFFFFFFFFFFFFFFFFFFFFFFFFFFFFFFFFFFFFFFFFFFFFFFFFFFFFFFFFFFFFF
310
FFFFFFFFFFFFFFFFFFFFFFFFFFFFFFFFFFFFFFFFFFFFFFFFFFFFFFFFFFFFFFFF
310
FFFFFFFFFFFFFFFFFFFFFFFFFFFFFFFFFFFFFFFFFFFFFFFFFFFFFFFFFFFFFFFF
310
FFFFFFFFFFFFFFFFFFFFFFFFFFFFFFFFFFFFFFFFFFFFFFFFFFFFFFFFFFFFFFFF
310
FFFFFFFFFFFFFFFFFFFFFFFFFFFFFFFFFFFFFFFFFFFFFFFFFFFFFFFFFFFFFFFF
310
FFFFFFFFFFFFFFFFFFFFFFFFFFFFFFFFFFFFFFFFFFFFFFFFFFFFFFFFFFFFFFFF
310
FFFFFFFFFFFFFFFFFFFFFFFFFFFFFFFFFFFFFFFFFFFFFFFFFFFFFFFFFFFFFFFF
310
FFFFFFFFFFFFFFFFFFFFFFFFFFFFFFFFFFFFFFFFFFFFFFFFFFFFFFFFFFFFFFFF
310
FFFFFFFFFFFFFFFFFFFFFFFFFFFFFFFFFFFFFFFFFFFFFFFFFFFFFFFFFFFFFFFF
310
FFFFFFFFFFFFFFFFFFFFFFFFFFFFFFFFFFFFFFFFFFFFFFFFFFFFFFFFFFFFFFFF
310
FFFFFFFFFFFFFFFFFFFFFFFFFFFFFFFFFFFFFFFFFFFFFFFFFFFFFFFFFFFFFFFF
310
FFFFFFFFFFFFFFFFFFFFFFFFFFFFFFFFFFFFFFFFFFFFFFFFFFFFFFFFFFFFFFFF
310
FFFFFFFFFFFFFFFFFFFFFFFFFFFFFFFFFFFFFFFFFFFFFFFFFFFFFFFFFFFFFFFF
310
FFFFFFFFFFFFFFFFFFFFFFFFFFFFFFFFFFFFFFFFFFFFFFFFFFFFFFFFFFFFFFFF
310
FFFFFFFFFFFFFFFFFFFFFFFFFFFFFFFFFFFFFFFFFFFFFFFFFFFFFFFFFFFFFFFF
310
FFFFFFFFFFFFFFFFFFFFFFFFFFFFFFFFFFFFFFFFFFFFFFFFFFFFFFFFFFFFFFFF
310
FFFFFFFFFFFFFFFFFFFFFFFFFFFFFFFFFFFFFFFFFFFFFFFFFFFFFFFFFFFFFFFF
310
FFFFFFFFFFFFFFFFFFFFFFFFFFFFFFFFFFFFFFFFFFFFFFFFFFFFFFFFFFFFFFFF
310
FFFFFFFFFFFFFFFFFFFFFFFFFFFFFFFFFFFFFFFFFFFFFFFFFFFFFFFFFFFFFFFF
310
FFFFFFFFFFFFFFFFFFFFFFFFFFFFFFFFFFFFFFFFFFFFFFFFFFFFFFFFFFFFFFFF
310
FFFFFFFFFFFFFFFFFFFFFFFFFFFFFFFFFFFFFFFFFFFFFFFFFFFFFFFFFFFFFFFF
310
FFFFFFFFFFFFFFFFFFFFFFFFFFFFFFFFFFFFFFFFFFFFFFFFFFFFFFFFFFFFFFFF
310
FFFFFFFFFFFFFFFFFFFFFFFFFFFFFFFFFFFFFFFFFFFFFFFFFFFFFFFFFFFFFFFF
310
FFFFFFFFFFFFFFFFFFFFFFFFFFFFFFFFFFFFFFFFFFFFFFFFFFFFFFFFFFFFFFFF
310
FFFFFFFFFFFFFFFFFFFFFFFFFFFFFFFFFFFFFFFFFFFFFFFFFFFFFFFFFFFFFFFF
310
FFFFFFFFFFFFFFFFFFFF00000000000000000000000000000000000000000000
310
0000000000000000000000000000000000000000000000000000000000000000
310
0000000000000000000000000000000000000000000000000000000000000000
310
0000000000000000000000000000000000000000000000000000000000000000
310
0000000000000000000000000000000000000000000000000000000000000000
310
0000000000000000000000000000000000000000000000000000000000000000
310
0000000000000000000000000000000000000000000000000000000000000000
310
0000000000000000000000000000000000000000000000000000000000000000
310
0000000000000000000000000000000000000000000000000000000000000000
310
0000000000000000000000000000000000000000000000000000000000000000
  1
OLE
  0
LINE
  5
46
330
1F
100
AcDbEntity
  8
0
  6
Continuous
 62
     7
370
     0
100
AcDbLine
 10
4.2576253838
 20
6.2067400205
 30
0.0
 11
4.7576253838
 21
6.2067400205
 31
0.0
  0
LINE
  5
47
330
1F
100
AcDbEntity
  8
0
  6
Continuous
 62
     7
370
     0
100
AcDbLine
 10
4.2576253838
 20
6.2067400205
 30
0.0
 11
4.2576253838
 21
5.5817400205
 31
0.0
  0
LINE
  5
48
330
1F
100
AcDbEntity
  8
0
  6
Continuous
 62
     7
370
     0
100
AcDbLine
 10
4.2576253838
 20
5.5817400205
 30
0.0
 11
4.7576253838
 21
5.5817400205
 31
0.0
  0
LINE
  5
49
330
1F
100
AcDbEntity
  8
0
  6
Continuous
 62
     7
370
     0
100
AcDbLine
 10
4.7576253838
 20
6.2067400205
 30
0.0
 11
4.7576253838
 21
5.5817400205
 31
0.0
  0
LINE
  5
4A
330
1F
100
AcDbEntity
  8
0
  6
Continuous
 62
     7
370
     0
100
AcDbLine
 10
0.3276115015
 20
8.1920731707
 30
0.0
 11
10.629927
 21
8.1920731707
 31
0.0
  0
LINE
  5
4B
330
1F
100
AcDbEntity
  8
0
  6
Continuous
 62
     7
370
     0
100
AcDbLine
 10
0.3276115015
 20
8.1920731707
 30
0.0
 11
0.3276115015
 21
0.3920731707
 31
0.0
  0
LINE
  5
4C
330
1F
100
AcDbEntity
  8
0
  6
Continuous
 62
     7
370
     0
100
AcDbLine
 10
10.629927
 20
0.3920731707
 30
0.0
 11
0.3276115015
 21
0.3920731707
 31
0.0
  0
LINE
  5
4D
330
1F
100
AcDbEntity
  8
0
  6
Continuous
 62
     7
370
     0
100
AcDbLine
 10
10.629927
 20
0.3920731707
 30
0.0
 11
10.629927
 21
8.1920731707
 31
0.0
  0
LINE
  5
4E
330
1F
100
AcDbEntity
  8
0
  6
Continuous
 62
     7
370
     0
100
AcDbLine
 10
4.2132571119
 20
0.3920731707
 30
0.0
 11
4.2132571119
 21
2.3488213753
 31
0.0
  0
LINE
  5
4F
330
1F
100
AcDbEntity
  8
0
  6
Continuous
 62
     7
370
     0
100
AcDbLine
 10
4.2132571119
 20
2.3488213753
 30
0.0
 11
7.8712070044
 21
2.3488213753
 31
0.0
  0
LINE
  5
50
330
1F
100
AcDbEntity
  8
0
  6
Continuous
 62
     7
370
     0
100
AcDbLine
 10
6.1746030001
 20
2.3488213753
 30
0.0
 11
6.1746030001
 21
0.3920731707
 31
0.0
  0
LINE
  5
51
330
1F
100
AcDbEntity
  8
0
  6
Continuous
 62
     7
370
     0
100
AcDbLine
 10
7.8712070044
 20
2.3488213753
 30
0.0
 11
7.8712070044
 21
0.3920731707
 31
0.0
  0
LINE
  5
52
330
1F
100
AcDbEntity
  8
0
  6
Continuous
 62
     7
370
     0
100
AcDbLine
 10
7.8712070044
 20
0.6049590101
 30
0.0
 11
10.629927
 21
0.6049590101
 31
0.0
  0
LINE
  5
53
330
1F
100
AcDbEntity
  8
0
  6
Continuous
 62
     7
370
     0
100
AcDbLine
 10
7.8712070044
 20
1.1119362457
 30
0.0
 11
10.629927
 21
1.1119362457
 31
0.0
  0
LINE
  5
54
330
1F
100
AcDbEntity
  8
0
  6
Continuous
 62
     7
370
     0
100
AcDbLine
 10
7.8712070044
 20
1.7873139425
 30
0.0
 11
10.629927
 21
1.7873139425
 31
0.0
  0
LINE
  5
55
330
1F
100
AcDbEntity
  8
0
  6
Continuous
 62
     7
370
     0
100
AcDbLine
 10
8.266751752
 20
1.1119362457
 30
0.0
 11
8.266751752
 21
0.6049590101
 31
0.0
  0
LINE
  5
56
330
1F
100
AcDbEntity
  8
0
  6
Continuous
 62
     7
370
     0
100
AcDbLine
 10
8.6943435176
 20
0.6049590101
 30
0.0
 11
8.6943435176
 21
0.3920731707
 31
0.0
  0
LINE
  5
57
330
1F
100
AcDbEntity
  8
0
  6
Continuous
 62
     7
370
     0
100
AcDbLine
 10
10.0579917045
 20
1.1119362457
 30
0.0
 11
10.0579917045
 21
0.6049590101
 31
0.0
  0
LINE
  5
58
330
1F
100
AcDbEntity
  8
0
  6
Continuous
 62
     7
370
     0
100
AcDbLine
 10
9.6662556631
 20
0.6049590101
 30
0.0
 11
9.6662556631
 21
0.3920731707
 31
0.0
  0
LINE
  5
59
330
1F
100
AcDbEntity
  8
0
  6
Continuous
 62
     7
370
     0
100
AcDbLine
 10
4.2132571119
 20
0.6049590101
 30
0.0
 11
6.1746030001
 21
0.6049590101
 31
0.0
  0
LINE
  5
5A
330
1F
100
AcDbEntity
  8
0
  6
Continuous
 62
     7
370
     0
100
AcDbLine
 10
6.1746030001
 20
1.7873139425
 30
0.0
 11
7.8712070044
 21
1.7873139425
 31
0.0
  0
LINE
  5
5B
330
1F
100
AcDbEntity
  8
0
  6
Continuous
 62
     7
370
     0
100
AcDbLine
 10
6.1746030001
 20
1.9814211366
 30
0.0
 11
7.8712070044
 21
1.9814211366
 31
0.0
  0
LINE
  5
5C
330
1F
100
AcDbEntity
  8
0
  6
Continuous
 62
     7
370
     0
100
AcDbLine
 10
7.8712070044
 20
2.3488213753
 30
0.0
 11
10.5930585286
 21
2.3488213753
 31
0.0
  0
LINE
  5
5D
330
1F
100
AcDbEntity
  8
0
  6
Continuous
 62
     7
370
     0
100
AcDbLine
 10
6.1746030001
 20
2.1689211366
 30
0.0
 11
7.8712070044
 21
2.1689211366
 31
0.0
  0
LINE
  5
5E
330
1F
100
AcDbEntity
  8
0
  6
Continuous
 62
     7
370
     0
100
AcDbLine
 10
7.8712070044
 20
1.2314211366
 30
0.0
 11
6.1796352514
 21
1.2314211366
 31
0.0
  0
LINE
  5
5F
330
1F
100
AcDbEntity
  8
0
  6
Continuous
 62
     7
370
     0
100
AcDbLine
 10
7.3921580388
 20
2.3488213753
 30
0.0
 11
7.3921580388
 21
1.2314211366
 31
0.0
  0
LINE
  5
60
330
1F
100
AcDbEntity
  8
0
  6
Continuous
 62
     7
370
     0
100
AcDbLine
 10
6.9236308342
 20
2.3488213753
 30
0.0
 11
6.9236308342
 21
1.2314211366
 31
0.0
  0
LINE
  5
61
330
1F
100
AcDbEntity
  8
0
  6
Continuous
 62
     7
370
     0
100
AcDbLine
 10
4.2132571119
 20
0.8557965305
 30
0.0
 11
6.1746030001
 21
0.8557965305
 31
0.0
  0
LINE
  5
62
330
1F
100
AcDbEntity
  8
0
  6
Continuous
 62
     7
370
     0
100
AcDbLine
 10
4.2132571119
 20
1.1257965305
 30
0.0
 11
6.1796352514
 21
1.1257965305
 31
0.0
  0
LINE
  5
63
330
1F
100
AcDbEntity
  8
0
  6
Continuous
 62
     7
370
     0
100
AcDbLine
 10
0.3276115015
 20
2.3471165909
 30
0.0
 11
0.3276115015
 21
0.3920731707
 31
0.0
  0
LINE
  5
64
330
1F
100
AcDbEntity
  8
0
  6
Continuous
 62
     7
370
     0
100
AcDbLine
 10
0.3276115015
 20
0.3920731707
 30
0.0
 11
4.2132571119
 21
0.3920731707
 31
0.0
  0
LINE
  5
65
330
1F
100
AcDbEntity
  8
0
  6
Continuous
 62
     7
370
     0
100
AcDbLine
 10
4.2132571119
 20
2.3471165909
 30
0.0
 11
4.2132571119
 21
0.3920731707
 31
0.0
  0
LINE
  5
66
330
1F
100
AcDbEntity
  8
0
  6
Continuous
 62
     7
370
     0
100
AcDbLine
 10
6.1746030001
 20
2.1671697262
 30
0.0
 11
4.2132571119
 21
2.1671697262
 31
0.0
  0
LINE
  5
67
330
1F
100
AcDbEntity
  8
0
  6
Continuous
 62
     7
370
     0
100
AcDbLine
 10
7.8712070044
 20
1.6064211366
 30
0.0
 11
6.1746030001
 21
1.6064211366
 31
0.0
  0
LINE
  5
68
330
1F
100
AcDbEntity
  8
0
  6
Continuous
 62
     7
370
     0
100
AcDbLine
 10
7.8712070044
 20
1.4189211366
 30
0.0
 11
6.1746030001
 21
1.4189211366
 31
0.0
  0
LINE
  5
69
330
1F
100
AcDbEntity
  8
0
  6
Continuous
 62
     7
370
     0
100
AcDbLine
 10
0.3276115015
 20
0.3920731707
 30
0.0
 11
0.3276115015
 21
1.441075886
 31
0.0
  0
LINE
  5
6A
330
1F
100
AcDbEntity
  8
0
  6
Continuous
 62
     7
370
     0
100
AcDbLine
 10
8.660927
 20
0.3920731707
 30
0.0
 11
8.660927
 21
0.3072739649
 31
0.0
  0
LINE
  5
6B
330
1F
100
AcDbEntity
  8
0
  6
Continuous
 62
     7
370
     0
100
AcDbLine
 10
6.692177
 20
0.3920731707
 30
0.0
 11
6.692177
 21
0.3072739649
 31
0.0
  0
LINE
  5
6C
330
1F
100
AcDbEntity
  8
0
  6
Continuous
 62
     7
370
     0
100
AcDbLine
 10
4.723427
 20
0.3920731707
 30
0.0
 11
4.723427
 21
0.3072739649
 31
0.0
  0
LINE
  5
6D
330
1F
100
AcDbEntity
  8
0
  6
Continuous
 62
     7
370
     0
100
AcDbLine
 10
2.754677
 20
0.3920731707
 30
0.0
 11
2.754677
 21
0.3072739649
 31
0.0
  0
LINE
  5
6E
330
1F
100
AcDbEntity
  8
0
  6
Continuous
 62
     7
370
     0
100
AcDbLine
 10
2.754677
 20
0.3920731707
 30
0.0
 11
2.7672319738
 21
0.3575
 31
0.0
  0
LINE
  5
6F
330
1F
100
AcDbEntity
  8
0
  6
Continuous
 62
     7
370
     0
100
AcDbLine
 10
2.7672319738
 20
0.3575
 30
0.0
 11
2.7414258825
 21
0.3575
 31
0.0
  0
LINE
  5
70
330
1F
100
AcDbEntity
  8
0
  6
Continuous
 62
     7
370
     0
100
AcDbLine
 10
2.7414258825
 20
0.3575
 30
0.0
 11
2.754677
 21
0.3920731707
 31
0.0
  0
CIRCLE
  5
71
330
1F
100
AcDbEntity
  8
0
  6
Continuous
 62
     7
370
     0
100
AcDbCircle
 10
4.3826253838
 20
5.7067400205
 30
0.0
 40
0.0312499999999997
  0
DIMENSION
  5
72
330
1F
100
AcDbEntity
  8
0
  6
Continuous
 62
     7
370
     0
100
AcDbDimension
  2
_D
 10
4.7576253838
 20
6.5350818833
 30
0.0
 11
4.4966190945
 21
6.5350818833
 31
0.0
 70
   160
  1
<>
 71
     2
 42
-1.0
  3
SLDDIMSTYLE0
100
AcDbAlignedDimension
 13
4.2576253838
 23
6.2067400205
 33
0.0
 14
4.7576253838
 24
6.2067400205
 34
0.0
100
AcDbRotatedDimension
  0
DIMENSION
  5
80
330
1F
100
AcDbEntity
  8
0
  6
Continuous
 62
     7
370
     0
100
AcDbDimension
  2
_D_1
 10
5.5088741044
 20
5.5817400205
 30
0.0
 11
5.5088741044
 21
5.8976002355
 31
0.0
 70
   160
  1
<>
 71
     2
 42
-1.0
  3
SLDDIMSTYLE1
100
AcDbAlignedDimension
 13
4.7576253838
 23
6.2067400205
 33
0.0
 14
4.7576253838
 24
5.5817400205
 34
0.0
 50
90.0
100
AcDbRotatedDimension
  0
DIMENSION
  5
8D
330
1F
100
AcDbEntity
  8
0
  6
Continuous
 62
     7
370
     0
100
AcDbDimension
  2
_D_2
 10
4.4096886777
 20
5.6911150205
 30
0.0
 11
3.7550746047
 21
6.0690572527
 31
0.0
 70
   163
  1
<>
 71
     1
 42
-1.0
  3
SLDDIMSTYLE2
100
AcDbDiametricDimension
 15
4.35556209
 25
5.7223650205
 35
0.0
 40
0.0
  0
DIMENSION
  5
9A
330
1F
100
AcDbEntity
  8
0
  6
Continuous
 62
     7
370
     0
100
AcDbDimension
  2
_D_3
 10
3.7061301969
 20
5.5817400205
 30
0.0
 11
3.7061301969
 21
5.2744936758
 31
0.0
 70
   160
  1
<>
 71
     2
 42
-1.0
  3
SLDDIMSTYLE1
100
AcDbAlignedDimension
 13
4.3826253838
 23
5.7067400205
 33
0.0
 14
4.2576253838
 24
5.5817400205
 34
0.0
 50
90.0
100
AcDbRotatedDimension
  0
DIMENSION
  5
A6
330
1F
100
AcDbEntity
  8
0
  6
Continuous
 62
     7
370
     0
100
AcDbDimension
  2
_D_4
 10
4.2576253838
 20
4.9362515295
 30
0.0
 11
4.6845800432
 21
4.9362515295
 31
0.0
 70
   160
  1
<>
 71
     2
 42
-1.0
  3
SLDDIMSTYLE1
100
AcDbAlignedDimension
 13
4.3826253838
 23
5.7067400205
 33
0.0
 14
4.2576253838
 24
5.5817400205
 34
0.0
100
AcDbRotatedDimension
  0
MTEXT
  5
B2
330
1F
100
AcDbEntity
  8
0
  6
Continuous
 62
     7
370
     0
100
AcDbMText
 10
4.2950828144
 20
6.1742681781
 30
0.0
 40
0.0833333333
 41
0.0
 71
     1
 72
     1
  1
HA214
  7
SLDTEXTSTYLE0
 73
     1
 44
1.0
  0
MTEXT
  5
B3
330
1F
100
AcDbEntity
  8
0
  6
Continuous
 62
     7
370
     0
100
AcDbMText
 10
7.9493951549
 20
1.6332275652
 30
0.0
 40
0.15625
 41
0.0
 71
     1
 72
     1
  1
CHIP DRAWING
  7
SLDTEXTSTYLE0
 73
     1
 44
1.0
  0
MTEXT
  5
B4
330
1F
100
AcDbEntity
  8
0
  6
Continuous
 62
     7
370
     0
100
AcDbMText
 10
4.7619187951
 20
0.5217932971
 30
0.0
 40
0.0625
 41
0.0
 71
     2
 72
     1
  1
DO NOT SCALE DRAWING
  7
SLDTEXTSTYLE0
 73
     1
 44
1.0
  0
MTEXT
  5
B6
330
1F
100
AcDbEntity
  8
0
  6
Continuous
 62
     7
370
     0
100
AcDbMText
 10
9.7571278483
 20
0.5524239532
 30
0.0
 40
0.1
 41
0.0
 71
     1
 72
     1
  1
SHEET 1 OF 1
  7
SLDTEXTSTYLE1
 73
     1
 44
1.0
  0
MTEXT
  5
B7
330
1F
100
AcDbEntity
  8
0
  6
Continuous
 62
     7
370
     0
100
AcDbMText
 10
4.4529583649
 20
2.2956725763
 30
0.0
 40
0.07
 41
0.0
 71
     1
 72
     1
  1
UNLESS OTHERWISE SPECIFIED:
  7
SLDTEXTSTYLE0
 73
     1
 44
1.0
  0
MTEXT
  5
B8
330
1F
100
AcDbEntity
  8
0
  6
Continuous
 62
     7
370
     0
100
AcDbMText
 10
7.9586139647
 20
0.5520987879
 30
0.0
 40
0.1
 41
0.0
 71
     1
 72
     1
  1
SCALE: 1:1
  7
SLDTEXTSTYLE0
 73
     1
 44
1.0
  0
MTEXT
  5
B9
330
1F
100
AcDbEntity
  8
0
  6
Continuous
 62
     7
370
     0
100
AcDbMText
 10
10.2277580983
 20
1.081966299
 30
0.0
 40
0.1
 41
0.0
 71
     1
 72
     1
  1
REV
  7
SLDTEXTSTYLE0
 73
     1
 44
1.0
  0
MTEXT
  5
BB
330
1F
100
AcDbEntity
  8
0
  6
Continuous
 62
     7
370
     0
100
AcDbMText
 10
8.2984570898
 20
1.0858725293
 30
0.0
 40
0.1
 41
0.0
 71
     1
 72
     1
  1
DWG.  NO.
  7
SLDTEXTSTYLE2
 73
     1
 44
1.0
  0
MTEXT
  5
BC
330
1F
100
AcDbEntity
  8
0
  6
Continuous
 62
     7
370
     0
100
AcDbMText
 10
7.9598482632
 20
0.9442140814
 30
0.0
 40
0.25
 41
0.0
 71
     1
 72
     1
  1
A
  7
SLDTEXTSTYLE0
 73
     1
 44
1.0
  0
MTEXT
  5
BD
330
1F
100
AcDbEntity
  8
0
  6
Continuous
 62
     7
370
     0
100
AcDbMText
 10
7.9519581822
 20
1.0872713483
 30
0.0
 40
0.1
 41
0.0
 71
     1
 72
     1
  1
SIZE
  7
SLDTEXTSTYLE0
 73
     1
 44
1.0
  0
MTEXT
  5
BE
330
1F
100
AcDbEntity
  8
0
  6
Continuous
 62
     7
370
     0
100
AcDbMText
 10
7.9493951549
 20
1.7675896467
 30
0.0
 40
0.1
 41
0.0
 71
     1
 72
     1
  1
TITLE:
  7
SLDTEXTSTYLE0
 73
     1
 44
1.0
  0
MTEXT
  5
BF
330
1F
100
AcDbEntity
  8
0
  6
Continuous
 62
     7
370
     0
100
AcDbMText
 10
7.0363774929
 20
2.2906161274
 30
0.0
 40
0.065
 41
0.0
 71
     1
 72
     1
  1
NAME
  7
SLDTEXTSTYLE0
 73
     1
 44
1.0
  0
MTEXT
  5
C0
330
1F
100
AcDbEntity
  8
0
  6
Continuous
 62
     7
370
     0
100
AcDbMText
 10
7.5281510634
 20
2.2888799118
 30
0.0
 40
0.065
 41
0.0
 71
     1
 72
     1
  1
DATE
  7
SLDTEXTSTYLE0
 73
     1
 44
1.0
  0
MTEXT
  5
C1
330
1F
100
AcDbEntity
  8
0
  6
Continuous
 62
     7
370
     0
100
AcDbMText
 10
6.2268411461
 20
1.3638337284
 30
0.0
 40
0.065
 41
0.0
 71
     1
 72
     1
  1
Q.A.
  7
SLDTEXTSTYLE0
 73
     1
 44
1.0
  0
MTEXT
  5
C2
330
1F
100
AcDbEntity
  8
0
  6
Continuous
 62
     7
370
     0
100
AcDbMText
 10
6.2284654509
 20
1.5395328424
 30
0.0
 40
0.065
 41
0.0
 71
     1
 72
     1
  1
MFG APPR.
  7
SLDTEXTSTYLE0
 73
     1
 44
1.0
  0
MTEXT
  5
C3
330
1F
100
AcDbEntity
  8
0
  6
Continuous
 62
     7
370
     0
100
AcDbMText
 10
6.2235171344
 20
1.7267501785
 30
0.0
 40
0.065
 41
0.0
 71
     1
 72
     1
  1
ENG APPR.
  7
SLDTEXTSTYLE0
 73
     1
 44
1.0
  0
MTEXT
  5
C4
330
1F
100
AcDbEntity
  8
0
  6
Continuous
 62
     7
370
     0
100
AcDbMText
 10
6.2264103951
 20
1.9092699088
 30
0.0
 40
0.065
 41
0.0
 71
     1
 72
     1
  1
CHECKED
  7
SLDTEXTSTYLE0
 73
     1
 44
1.0
  0
MTEXT
  5
C5
330
1F
100
AcDbEntity
  8
0
  6
Continuous
 62
     7
370
     0
100
AcDbMText
 10
6.2242794356
 20
2.1016301232
 30
0.0
 40
0.065
 41
0.0
 71
     1
 72
     1
  1
DRAWN
  7
SLDTEXTSTYLE0
 73
     1
 44
1.0
  0
MTEXT
  5
C6
330
1F
100
AcDbEntity
  8
0
  6
Continuous
 62
     7
370
     0
100
AcDbMText
 10
4.2531297326
 20
0.8184169625
 30
0.0
 40
0.06
 41
0.0
 71
     1
 72
     1
  1
FINISH
  7
SLDTEXTSTYLE0
 73
     1
 44
1.0
  0
MTEXT
  5
C7
330
1F
100
AcDbEntity
  8
0
  6
Continuous
 62
     7
370
     0
100
AcDbMText
 10
4.2531297326
 20
1.1042417953
 30
0.0
 40
0.06
 41
0.0
 71
     1
 72
     1
  1
MATERIAL
  7
SLDTEXTSTYLE0
 73
     1
 44
1.0
  0
MTEXT
  5
C8
330
1F
100
AcDbEntity
  8
0
  6
Continuous
 62
     7
370
     0
100
AcDbMText
 10
6.2323432836
 20
1.161963867
 30
0.0
 40
0.06
 41
0.0
 71
     1
 72
     1
  1
PROPRIETARY AND CONFIDENTIAL
  7
SLDTEXTSTYLE0
 73
     1
 44
1.0
  0
INSERT
  5
D2
330
1F
100
AcDbEntity
  8
0
  6
Continuous
 62
     7
370
     0
100
AcDbBlockReference
  2
SW_NOTE_0
 10
6.2323432836
 20
0.9398130473
 30
0.0
  0
MTEXT
  5
D3
330
1F
100
AcDbEntity
  8
0
  6
Continuous
 62
     7
370
     0
100
AcDbMText
 10
1.7387909509
 20
0.3105864247
 30
0.0
 40
0.09375
 41
0.0
 71
     1
 72
     1
  1
5
  7
SLDTEXTSTYLE0
 73
     1
 44
1.0
  0
MTEXT
  5
D4
330
1F
100
AcDbEntity
  8
0
  6
Continuous
 62
     7
370
     0
100
AcDbMText
 10
3.723800327
 20
0.3137237518
 30
0.0
 40
0.09375
 41
0.0
 71
     1
 72
     1
  1
4
  7
SLDTEXTSTYLE0
 73
     1
 44
1.0
  0
MTEXT
  5
D5
330
1F
100
AcDbEntity
  8
0
  6
Continuous
 62
     7
370
     0
100
AcDbMText
 10
5.6324457277
 20
0.3116191842
 30
0.0
 40
0.09375
 41
0.0
 71
     1
 72
     1
  1
3
  7
SLDTEXTSTYLE0
 73
     1
 44
1.0
  0
MTEXT
  5
D6
330
1F
100
AcDbEntity
  8
0
  6
Continuous
 62
     7
370
     0
100
AcDbMText
 10
7.6059721724
 20
0.3124391351
 30
0.0
 40
0.09375
 41
0.0
 71
     1
 72
     1
  1
2
  7
SLDTEXTSTYLE0
 73
     1
 44
1.0
  0
MTEXT
  5
D7
330
1F
100
AcDbEntity
  8
0
  6
Continuous
 62
     7
370
     0
100
AcDbMText
 10
9.6619921328
 20
0.301372012
 30
0.0
 40
0.09375
 41
0.0
 71
     1
 72
     1
  1
1
  7
SLDTEXTSTYLE0
 73
     1
 44
1.0
  0
INSERT
  5
E7
330
1F
100
AcDbEntity
  8
0
  6
Continuous
 62
     7
370
     0
100
AcDbBlockReference
  2
SW_NOTE_1
 10
4.2531297326
 20
1.9448946941
 30
0.0
  0
INSERT
  5
F0
330
1F
100
AcDbEntity
  8
0
  6
Continuous
 62
     7
370
     0
100
AcDbBlockReference
  2
SW_NOTE_2
 10
8.6276506845
 20
2.1126345193
 30
0.0
  0
OLE2FRAME
  5
F1
330
1F
100
AcDbEntity
  8
0
100
AcDbOle2Frame
 70
     2
  3
Microsoft Excel 97-2003 Worksheet
 10
7.028715161
 20
8.1860892115
 30
0.0
 11
10.6314658781
 21
7.6237086118
 31
0.0
 71
     2
 72
     0
 73
     1
 90
    22656
310
80551765D581671D1C404573CB15475F20400000000000000000834ADE7E4F43
310
25404573CB15475F20400000000000000000834ADE7E4F432540E2926778AD7E
310
1E4000000000000000001765D581671D1C40E2926778AD7E1E40000000000000
310
0000000000000100000000010000020000000100000000000100000000580000
310
D0CF11E0A1B11AE1000000000000000000000000000000003E000300FEFF0900
310
0600000000000000000000000100000001000000000000000010000002000000
310
01000000FEFFFFFF0000000000000000FFFFFFFFFFFFFFFFFFFFFFFFFFFFFFFF
310
FFFFFFFFFFFFFFFFFFFFFFFFFFFFFFFFFFFFFFFFFFFFFFFFFFFFFFFFFFFFFFFF
310
FFFFFFFFFFFFFFFFFFFFFFFFFFFFFFFFFFFFFFFFFFFFFFFFFFFFFFFFFFFFFFFF
310
FFFFFFFFFFFFFFFFFFFFFFFFFFFFFFFFFFFFFFFFFFFFFFFFFFFFFFFFFFFFFFFF
310
FFFFFFFFFFFFFFFFFFFFFFFFFFFFFFFFFFFFFFFFFFFFFFFFFFFFFFFFFFFFFFFF
310
FFFFFFFFFFFFFFFFFFFFFFFFFFFFFFFFFFFFFFFFFFFFFFFFFFFFFFFFFFFFFFFF
310
FFFFFFFFFFFFFFFFFFFFFFFFFFFFFFFFFFFFFFFFFFFFFFFFFFFFFFFFFFFFFFFF
310
FFFFFFFFFFFFFFFFFFFFFFFFFFFFFFFFFFFFFFFFFFFFFFFFFFFFFFFFFFFFFFFF
310
FFFFFFFFFFFFFFFFFFFFFFFFFFFFFFFFFFFFFFFFFFFFFFFFFFFFFFFFFFFFFFFF
310
FFFFFFFFFFFFFFFFFFFFFFFFFFFFFFFFFFFFFFFFFFFFFFFFFFFFFFFFFFFFFFFF
310
FFFFFFFFFFFFFFFFFFFFFFFFFFFFFFFFFFFFFFFFFFFFFFFFFFFFFFFFFFFFFFFF
310
FFFFFFFFFFFFFFFFFFFFFFFFFFFFFFFFFFFFFFFFFFFFFFFFFFFFFFFFFFFFFFFF
310
FFFFFFFFFFFFFFFFFFFFFFFFFFFFFFFFFFFFFFFFFFFFFFFFFFFFFFFFFFFFFFFF
310
FFFFFFFFFFFFFFFFFFFFFFFFFFFFFFFFFFFFFFFFFFFFFFFFFFFFFFFFFFFFFFFF
310
FDFFFFFF24000000FEFFFFFF2500000005000000060000000700000008000000
310
090000000A0000000B0000000C0000000D0000000E0000000F00000010000000
310
1100000012000000130000001400000015000000160000001700000018000000
310
190000001A0000001B0000001C0000001D0000001E0000001F00000020000000
310
210000002200000023000000FEFFFFFFFEFFFFFF260000002700000028000000
310
290000002A000000FEFFFFFFFFFFFFFFFFFFFFFFFFFFFFFFFFFFFFFFFFFFFFFF
310
FFFFFFFFFFFFFFFFFFFFFFFFFFFFFFFFFFFFFFFFFFFFFFFFFFFFFFFFFFFFFFFF
310
FFFFFFFFFFFFFFFFFFFFFFFFFFFFFFFFFFFFFFFFFFFFFFFFFFFFFFFFFFFFFFFF
310
FFFFFFFFFFFFFFFFFFFFFFFFFFFFFFFFFFFFFFFFFFFFFFFFFFFFFFFFFFFFFFFF
310
FFFFFFFFFFFFFFFFFFFFFFFFFFFFFFFFFFFFFFFFFFFFFFFFFFFFFFFFFFFFFFFF
310
FFFFFFFFFFFFFFFFFFFFFFFFFFFFFFFFFFFFFFFFFFFFFFFFFFFFFFFFFFFFFFFF
310
FFFFFFFFFFFFFFFFFFFFFFFFFFFFFFFFFFFFFFFFFFFFFFFFFFFFFFFFFFFFFFFF
310
FFFFFFFFFFFFFFFFFFFFFFFFFFFFFFFFFFFFFFFFFFFFFFFFFFFFFFFFFFFFFFFF
310
FFFFFFFFFFFFFFFFFFFFFFFFFFFFFFFFFFFFFFFFFFFFFFFFFFFFFFFFFFFFFFFF
310
FFFFFFFFFFFFFFFFFFFFFFFFFFFFFFFFFFFFFFFFFFFFFFFFFFFFFFFFFFFFFFFF
310
FFFFFFFFFFFFFFFFFFFFFFFFFFFFFFFFFFFFFFFFFFFFFFFFFFFFFFFFFFFFFFFF
310
52006F006F007400200045006E00740072007900000000000000000000000000
310
0000000000000000000000000000000000000000000000000000000000000000
310
16000500FFFFFFFFFFFFFFFF020000002008020000000000C000000000000046
310
00000000000000000000000050B5E0CE67E9CF0103000000400C000000000000
310
01004F006C006500000000000000000000000000000000000000000000000000
310
0000000000000000000000000000000000000000000000000000000000000000
310
0A000201FFFFFFFFFFFFFFFFFFFFFFFF00000000000000000000000000000000
310
0000000000000000000000000000000000000000000000001400000000000000
310
010043006F006D0070004F0062006A0000000000000000000000000000000000
310
0000000000000000000000000000000000000000000000000000000000000000
310
120002010100000004000000FFFFFFFF00000000000000000000000000000000
310
0000000000000000000000000000000000000000010000006B00000000000000
310
57006F0072006B0062006F006F006B0000000000000000000000000000000000
310
0000000000000000000000000000000000000000000000000000000000000000
310
12000201FFFFFFFFFFFFFFFFFFFFFFFF00000000000000000000000000000000
310
000000000000000000000000000000000000000004000000323F000000000000
310
FEFFFFFF02000000FEFFFFFF0400000005000000060000000700000008000000
310
090000000A0000000B0000000C0000000D0000000E0000000F00000010000000
310
1100000012000000130000001400000015000000160000001700000018000000
310
190000001A0000001B0000001C0000001D0000001E0000001F00000020000000
310
21000000220000002300000024000000250000002600000027000000FEFFFFFF
310
290000002A0000002B000000FEFFFFFF2D0000002E0000002F00000030000000
310
FEFFFFFFFFFFFFFFFFFFFFFFFFFFFFFFFFFFFFFFFFFFFFFFFFFFFFFFFFFFFFFF
310
FFFFFFFFFFFFFFFFFFFFFFFFFFFFFFFFFFFFFFFFFFFFFFFFFFFFFFFFFFFFFFFF
310
FFFFFFFFFFFFFFFFFFFFFFFFFFFFFFFFFFFFFFFFFFFFFFFFFFFFFFFFFFFFFFFF
310
FFFFFFFFFFFFFFFFFFFFFFFFFFFFFFFFFFFFFFFFFFFFFFFFFFFFFFFFFFFFFFFF
310
FFFFFFFFFFFFFFFFFFFFFFFFFFFFFFFFFFFFFFFFFFFFFFFFFFFFFFFFFFFFFFFF
310
FFFFFFFFFFFFFFFFFFFFFFFFFFFFFFFFFFFFFFFFFFFFFFFFFFFFFFFFFFFFFFFF
310
FFFFFFFFFFFFFFFFFFFFFFFFFFFFFFFFFFFFFFFFFFFFFFFFFFFFFFFFFFFFFFFF
310
FFFFFFFFFFFFFFFFFFFFFFFFFFFFFFFFFFFFFFFFFFFFFFFFFFFFFFFFFFFFFFFF
310
FFFFFFFFFFFFFFFFFFFFFFFFFFFFFFFFFFFFFFFFFFFFFFFFFFFFFFFFFFFFFFFF
310
FFFFFFFFFFFFFFFFFFFFFFFFFFFFFFFFFFFFFFFFFFFFFFFFFFFFFFFFFFFFFFFF
310
0100000200000000000000000000000000000000000000000000000000000000
310
0000000000000000000000000000000000000000000000000000000000000000
310
0100FEFF030A0000FFFFFFFF2008020000000000C0000000000000461F000000
310
4D6963726F736F667420457863656C203230303320576F726B73686565740006
310
0000004269666638000E000000457863656C2E53686565742E3800F439B27100
310
0000000000000000000000000000000000000000000000000000000000000000
310
FFFFFFFF030000000400000001000000FFFFFFFF020000000000000082310000
310
DB070000FE0800000100090000037F0400000700250000000000040000000301
310
0800050000000B0200000000050000000C024D00E00105000000090200000000
310
050000000102FFFFFF000400000004010D000400000002010200030000001E00
310
040000002701FFFF030000001E00040000002701FFFF030000001E0005000000
310
0102FFFFFF0005000000090200000000040000002701FFFF030000001E000500
310
00000102FFFFFF00050000000902000000000700000016044C00DF0100000000
310
040000002701FFFF030000001E00050000000102FFFFFF000500000009020000
310
00000700000016044C00DF0101000100040000002701FFFF030000001E000500
310
00000102FFFFFF00050000000902000000000700000016044C00DF0101000100
310
09081000000605006732CD07C180010006060000E1000200B004C10002000000
310
E20000005C0070000E0000546F6464204265726E6174736B7920202020202020
310
2020202020202020202020202020202020202020202020202020202020202020
310
2020202020202020202020202020202020202020202020202020202020202020
310
20202020202020202020202020202020202020202020202042000200B0046101
310
02000000C00100003D01020001009C0002001100DE000800E00F000003000004
310
190002000000120002000000130002000000AF0102000000BC01020000003D00
310
12002D002D0054422F0D3C0000000000010058024000020000008D0002000000
310
2200020000000E0002000100B70102000000DA000200000031001A00C8000000
310
FF7F9001000000000000050141007200690061006C0031001A00C8000000FF7F
310
9001000000000000050141007200690061006C0031001A00C8000000FF7F9001
310
000000000000050141007200690061006C0031001A00C8000000FF7F90010000
310
00000000050141007200690061006C0031002C00B4000100FF7FBC0200000002
310
00000E01430065006E007400750072007900200047006F007400680069006300
310
31002C00B4000000FF7F90010000000200000E01430065006E00740075007200
310
7900200047006F00740068006900630031002C00A0000000FF7F900100000002
310
00000E01430065006E007400750072007900200047006F007400680069006300
310
31001A00C8000000FF7F9001000000000000050141007200690061006C003100
310
1E00DC000000080090010000000200000701430061006C006900620072006900
310
31001E00DC000000090090010000000200000701430061006C00690062007200
310
690031001E00DC000000140090010000000200000701430061006C0069006200
310
7200690031001E00DC0001003400BC020000000200000701430061006C006900
310
62007200690031001E00DC0001000900BC020000000200000701430061006C00
310
690062007200690031001E00DC00020017009001000000020000070143006100
310
6C00690062007200690031001E00DC0000001100900100000002000007014300
310
61006C00690062007200690031001E002C0101003800BC020000000200000701
310
430061006C00690062007200690031001E00040101003800BC02000000020000
310
0701430061006C00690062007200690031001E00DC0001003800BC0200000002
310
00000701430061006C00690062007200690031001E00DC0000003E0090010000
310
000200000701430061006C00690062007200690031001E00DC00000034009001
310
0000000200000701430061006C00690062007200690031001E00DC0000003C00
310
90010000000200000701430061006C00690062007200690031001E00DC000100
310
3F00BC020000000200000701430061006C00690062007200690031001E006801
310
01003800BC020000000200000701430061006D00620072006900610031001E00
310
DC0001000800BC020000000200000701430061006C0069006200720069003100
310
1E00DC0000000A0090010000000200000701430061006C006900620072006900
310
1E041C000500170000222422232C2323305F293B5C28222422232C2323305C29
310
1E04210006001C0000222422232C2323305F293B5B5265645D5C28222422232C
310
2323305C291E04220007001D0000222422232C2323302E30305F293B5C282224
310
22232C2323302E30305C291E0427000800220000222422232C2323302E30305F
310
293B5B5265645D5C28222422232C2323302E30305C291E0437002A003200005F
310
282224222A20232C2323305F293B5F282224222A205C28232C2323305C293B5F
310
282224222A20222D225F293B5F28405F291E042E0029002900005F282A20232C
310
2323305F293B5F282A205C28232C2323305C293B5F282A20222D225F293B5F28
310
405F291E043F002C003A00005F282224222A20232C2323302E30305F293B5F28
310
2224222A205C28232C2323302E30305C293B5F282224222A20222D223F3F5F29
310
3B5F28405F291E0436002B003100005F282A20232C2323302E30305F293B5F28
310
2A205C28232C2323302E30305C293B5F282A20222D223F3F5F293B5F28405F29
310
1E040D00A4000800006D6D2F64642F79791E041100A5000C0000645C2D6D6D6D
310
5C2D797979791E042400A6001F00005B242D3430395D646464645C2C5C206D6D
310
6D6D5C2064645C2C5C20797979791E040F00A7000A00006D2F642F797979793B
310
40E000140000000000F5FF200000000000000000000000C020E0001400010000
310
00F5FF200000F40000000000000000C020E000140001000000F5FF200000F400
310
00000000000000C020E000140002000000F5FF200000F40000000000000000C0
310
20E000140002000000F5FF200000F40000000000000000C020E0001400000000
310
00F5FF200000F40000000000000000C020E000140000000000F5FF200000F400
310
00000000000000C020E000140000000000F5FF200000F40000000000000000C0
310
20E000140000000000F5FF200000F40000000000000000C020E0001400000000
310
00F5FF200000F40000000000000000C020E000140000000000F5FF200000F400
310
00000000000000C020E000140000000000F5FF200000F40000000000000000C0
310
20E000140000000000F5FF200000F40000000000000000C020E0001400000000
310
00F5FF200000F40000000000000000C020E000140000000000F5FF200000F400
310
00000000000000C020E0001400000000000100200000000000000000000000C0
310
20E000140009000000F5FF200000B400000000000000049F20E0001400090000
310
00F5FF200000B40000000000000004AD20E000140009000000F5FF200000B400
310
00000000000004AA20E000140009000000F5FF200000B40000000000000004AE
310
20E000140009000000F5FF200000B400000000000000049B20E0001400090000
310
00F5FF200000B40000000000000004AF20E000140009000000F5FF200000B400
310
00000000000004AC20E000140009000000F5FF200000B400000000000000049D
310
20E000140009000000F5FF200000B400000000000000048B20E0001400090000
310
00F5FF200000B40000000000000004AE20E000140009000000F5FF200000B400
310
00000000000004AC20E000140009000000F5FF200000B40000000000000004B3
310
20E00014000A000000F5FF200000B400000000000000049E20E00014000A0000
310
00F5FF200000B400000000000000049D20E00014000A000000F5FF200000B400
310
000000000000048B20E00014000A000000F5FF200000B40000000000000004A4
310
20E00014000A000000F5FF200000B40000000000000004B120E00014000A0000
310
00F5FF200000B40000000000000004B420E00014000A000000F5FF200000B400
310
00000000000004BE20E00014000A000000F5FF200000B400000000000000048A
310
20E00014000A000000F5FF200000B40000000000000004B920E00014000A0000
310
00F5FF200000B40000000000000004A420E00014000A000000F5FF200000B400
310
00000000000004B120E00014000A000000F5FF200000B40000000000000004B5
310
20E00014000B000000F5FF200000B40000000000000004AD20E00014000C0000
310
00F5FF200000941111970B970B00049620E00014000D000000F5FF2000009466
310
66BF1FBF1F0004B720E000140001002B00F5FF200000F80000000000000000C0
310
20E000140001002900F5FF200000F80000000000000000C020E000140001002C
310
00F5FF200000F80000000000000000C020E000140001002A00F5FF200000F800
310
00000000000000C020E00014000E000000F5FF200000F40000000000000000C0
310
20E00014000F000000F5FF200000B40000000000000004AA20E0001400100000
310
00F5FF200000D400500000001F0000C020E000140011000000F5FF200000D400
310
500000000B0000C020E000140012000000F5FF200000D400200000000F0000C0
310
20E000140012000000F5FF200000F40000000000000000C020E0001400130000
310
00F5FF200000941111970B970B0004AF20E000140014000000F5FF200000D400
310
600000001A0000C020E000140015000000F5FF200000B40000000000000004AB
310
20E000140008000000F5FF2000009C1111160B160B00049A20E0001400160000
310
00F5FF200000941111BF1FBF1F00049620E000140001000900F5FF200000F800
310
00000000000000C020E000140017000000F5FF200000F40000000000000000C0
310
20E000140018000000F5FF200000D4006100003E1F0000C020E0001400190000
310
00F5FF200000F40000000000000000C020E00014000600000001002000000800
310
00000000000000C020E0001400070000000100200000080000000000000000C0
310
20E0001400070000000100120000381110402000200000C020E0001400070000
310
000100190000381110402000200000C020E00014000700000001001000001800
310
00000000000000C020E00014000700000001001A0000381110402000200000C0
310
20E0001400070000000100120000381111402040200000C020E0001400070000
310
000100190000381111402040200000C020E00014000700000001001200003800
310
01000040000000C020E0001400070000000100190000380001000040000000C0
310
20E0001400070000000100120000180000000000000000C020E0001400070000
310
000100190000180000000000000000C020E00014000500000001001200003811
310
20402000200000C020E00014000500000001001A0000381120402000200000C0
310
20E0001400070000000100120000380101400040000000C020E0001400070000
310
000100120000380100400000000000C020E00014000700000001001200003810
310
01002040000000C020E0001400070000000100120000381000002000000000C0
310
20E0001400070000000900120000381110402000200000C020E00014000500A7
310
0001001200003C1120402000200000C020E00014000700A70001001200003C11
310
10402000200000C020E00014000700A70001001200003C1111402040200000C0
310
20E00014000700A70001001A00003C1110402000200000C020E00014000700A7
310
0001001200003C0001000040000000C020E00014000700A70001001200001C00
310
00000000000000C0207C0814007C080000000000000000000000005700F89E37
310
C27D0841007D080000000000000000000000001000000003000D001400030000
310
0001000000797979793B5F282A0E000500020400140003006566040000003B5F
310
28405F2920207D0841007D080000000000000000000000001100000003000D00
310
14000300000001000000797979793B5F282A0E00050002040014000300656605
310
0000003B5F28405F2920207D0841007D08000000000000000000000000120000
310
0003000D0014000300000001000000797979793B5F282A0E0005000204001400
310
03006566060000003B5F28405F2920207D0841007D0800000000000000000000
310
00001300000003000D0014000300000001000000797979793B5F282A0E000500
310
020400140003006566070000003B5F28405F2920207D0841007D080000000000
310
000000000000001400000003000D0014000300000001000000797979793B5F28
310
2A0E000500020400140003006566080000003B5F28405F2920207D0841007D08
310
0000000000000000000000001500000003000D00140003000000010000007979
310
79793B5F282A0E000500020400140003006566090000003B5F28405F2920207D
310
0841007D080000000000000000000000001600000003000D0014000300000001
310
000000797979793B5F282A0E00050002040014000300CC4C040000003B5F2840
310
5F2920207D0841007D080000000000000000000000001700000003000D001400
310
0300000001000000797979793B5F282A0E00050002040014000300CC4C050000
310
003B5F28405F2920207D0841007D080000000000000000000000001800000003
310
000D0014000300000001000000797979793B5F282A0E00050002040014000300
310
CC4C060000003B5F28405F2920207D0841007D08000000000000000000000000
310
1900000003000D0014000300000001000000797979793B5F282A0E0005000204
310
0014000300CC4C070000003B5F28405F2920207D0841007D0800000000000000
310
00000000001A00000003000D0014000300000001000000797979793B5F282A0E
310
00050002040014000300CC4C080000003B5F28405F2920207D0841007D080000
310
000000000000000000001B00000003000D001400030000000100000079797979
310
3B5F282A0E00050002040014000300CC4C090000003B5F28405F2920207D0841
310
007D080000000000000000000000001C00000003000D00140003000000000000
310
00797979793B5F282A0E000500020400140003003233040000003B5F28405F29
310
20207D0841007D080000000000000000000000001D00000003000D0014000300
310
000000000000797979793B5F282A0E000500020400140003003233050000003B
310
5F28405F2920207D0841007D080000000000000000000000001E00000003000D
310
0014000300000000000000797979793B5F282A0E000500020400140003003233
310
060000003B5F28405F2920207D0841007D080000000000000000000000001F00
310
000003000D0014000300000000000000797979793B5F282A0E00050002040014
310
0003003233070000003B5F28405F2920207D0841007D08000000000000000000
310
0000002000000003000D0014000300000000000000797979793B5F282A0E0005
310
00020400140003003233080000003B5F28405F2920207D0841007D0800000000
310
00000000000000002100000003000D0014000300000000000000797979793B5F
310
282A0E000500020400140003003233090000003B5F28405F2920207D0841007D
310
080000000000000000000000002200000003000D001400030000000000000079
310
7979793B5F282A0E000500020400140003000000040000003B5F28405F292020
310
7D0841007D080000000000000000000000002300000003000D00140003000000
310
00000000797979793B5F282A0E000500020400140003000000050000003B5F28
310
405F2920207D0841007D080000000000000000000000002400000003000D0014
310
000300000000000000797979793B5F282A0E0005000204001400030000000600
310
00003B5F28405F2920207D0841007D0800000000000000000000000025000000
310
03000D0014000300000000000000797979793B5F282A0E000500020400140003
310
000000070000003B5F28405F2920207D0841007D080000000000000000000000
310
002600000003000D0014000300000000000000797979793B5F282A0E00050002
310
0400140003000000080000003B5F28405F2920207D0841007D08000000000000
310
0000000000002700000003000D0014000300000000000000797979793B5F282A
310
0E000500020400140003000000090000003B5F28405F2920207D0841007D0800
310
00000000000000000000002800000003000D001400020000009C0006FF797979
310
793B5F282A0E000500020400140002000000FFC7CEFF3B5F28405F2920207D08
310
91007D080000000000000000000000002900000007000D00140002000000FA7D
310
00FF797979793B5F282A0E000500020400140002000000F2F2F2FF3B5F28405F
310
29202007001400020000007F7F7FFF202020202020202008001400020000007F
310
7F7FFF202020202020202009001400020000007F7F7FFF00000000000000000A
310
001400020000007F7F7FFF00000000000000007D0891007D0800000000000000
310
00000000002A00000007000D0014000300000000000000797979793B5F282A0E
310
000500020400140002000000A5A5A5FF3B5F28405F2920200700140002000000
310
3F3F3FFF202020202020202008001400020000003F3F3FFF2020202020202020
310
09001400020000003F3F3FFF00000000000000000A001400020000003F3F3FFF
310
00000000000000007D082D007D080000000000000000000000002F0000000200
310
0D001400020000007F7F7FFF797979793B5F282A0E000500027D0841007D0800
310
00000000000000000000003000000003000D00140002000000006100FF797979
310
793B5F282A0E000500020400140002000000C6EFCEFF3B5F28405F2920207D08
310
41007D080000000000000000000000003100000003000D001400030000000300
310
0000797979793B5F282A0E000500020800140003000000040000003B5F28405F
310
2920207D0841007D080000000000000000000000003200000003000D00140003
310
00000003000000797979793B5F282A0E00050002080014000300FF3F04000000
310
3B5F28405F2920207D0841007D08000000000000000000000000330000000300
310
0D0014000300000003000000797979793B5F282A0E0005000208001400030032
310
33040000003B5F28405F2920207D082D007D0800000000000000000000000034
310
00000002000D0014000300000003000000797979793B5F282A0E000500027D08
310
91007D080000000000000000000000003500000007000D001400020000003F3F
310
76FF797979793B5F282A0E000500020400140002000000FFCC99FF3B5F28405F
310
29202007001400020000007F7F7FFF202020202020202008001400020000007F
310
7F7FFF202020202020202009001400020000007F7F7FFF00000000000000000A
310
001400020000007F7F7FFF00000000000000007D0841007D0800000000000000
310
00000000003600000003000D00140002000000FA7D00FF797979793B5F282A0E
310
000500020800140002000000FF8001FF3B5F28405F2920207D0841007D080000
310
000000000000000000003700000003000D001400020000009C6500FF79797979
310
3B5F282A0E000500020400140002000000FFEB9CFF3B5F28405F2920207D0878
310
007D080000000000000000000000003800000005000400140002000000FFFFCC
310
FF797979793B5F282A0700140002000000B2B2B2FF00FFEB9CFF3B5F28080014
310
0002000000B2B2B2FF007F7F7FFF2020200900140002000000B2B2B2FF007F7F
310
7FFF2020200A00140002000000B2B2B2FF007F7F7FFF0000007D0891007D0800
310
00000000000000000000003900000007000D001400020000003F3F3FFF797979
310
793B5F282A0E000500020400140002000000F2F2F2FF3B5F2808001400020700
310
1400020000003F3F3FFF202020090014000208001400020000003F3F3FFF2020
310
200A0014000209001400020000003F3F3FFF00000000000000000A0014000200
310
00003F3F3FFF00000000000000007D082D007D08000000000000000000000000
310
3B00000002000D0014000300000003000000797979793B5F282A0E000500017D
310
0855007D080000000000000000000000003C00000004000D0014000300000001
310
000000797979793B5F282A0E000500020700140003000000040000003B5F2808
310
0014000208001400030000000400000020202009001400027D082D007D080000
310
000000000000000000003D00000002000D00140002000000FF0000FF79797979
310
3B5F282A0E000500029302120010000D0000323025202D20416363656E743192
310
084D0092080000000000000000000001041EFF0D0032003000250020002D0020
310
0041006300630065006E00740031000000030001000C0007046566DCE6F1FF05
310
000C0007010000000000FF25000500029302120011000D0000323025202D2041
310
6363656E743292084D00920800000000000000000000010422FF0D0032003000
310
250020002D00200041006300630065006E00740032000000030001000C000705
310
6566F2DCDBFF05000C0007010000000000FF25000500029302120012000D0000
310
323025202D20416363656E743392084D00920800000000000000000000010426
310
FF0D0032003000250020002D00200041006300630065006E0074003300000003
310
0001000C0007066566EBF1DEFF05000C0007010000000000FF25000500029302
310
120013000D0000323025202D20416363656E743492084D009208000000000000
310
0000000001042AFF0D0032003000250020002D00200041006300630065006E00
310
740034000000030001000C0007076566E4DFECFF05000C0007010000000000FF
310
25000500029302120014000D0000323025202D20416363656E743592084D0092
310
080000000000000000000001042EFF0D0032003000250020002D002000410063
310
00630065006E00740035000000030001000C0007086566DAEEF3FF05000C0007
310
010000000000FF25000500029302120015000D0000323025202D20416363656E
310
743692084D00920800000000000000000000010432FF0D003200300025002000
310
2D00200041006300630065006E00740036000000030001000C0007096566FDE9
310
D9FF05000C0007010000000000FF25000500029302120016000D000034302520
310
2D20416363656E743192084D0092080000000000000000000001041FFF0D0034
310
003000250020002D00200041006300630065006E00740031000000030001000C
310
000704CC4CB8CCE4FF05000C0007010000000000FF2500050002930212001700
310
0D0000343025202D20416363656E743292084D00920800000000000000000000
310
010423FF0D0034003000250020002D00200041006300630065006E0074003200
310
0000030001000C000705CC4CE6B8B7FF05000C0007010000000000FF25000500
310
029302120018000D0000343025202D20416363656E743392084D009208000000
310
00000000000000010427FF0D0034003000250020002D00200041006300630065
310
006E00740033000000030001000C000706CC4CD8E4BCFF05000C000701000000
310
0000FF25000500029302120019000D0000343025202D20416363656E74349208
310
4D0092080000000000000000000001042BFF0D0034003000250020002D002000
310
41006300630065006E00740034000000030001000C000707CC4CCCC0DAFF0500
310
0C0007010000000000FF2500050002930212001A000D0000343025202D204163
310
63656E743592084D0092080000000000000000000001042FFF0D003400300025
310
0020002D00200041006300630065006E00740035000000030001000C000708CC
310
4CB7DEE8FF05000C0007010000000000FF2500050002930212001B000D000034
310
3025202D20416363656E743692084D00920800000000000000000000010433FF
310
0D0034003000250020002D00200041006300630065006E007400360000000300
310
01000C000709CC4CFCD5B4FF05000C0007010000000000FF2500050002930212
310
001C000D0000363025202D20416363656E743192084D00920800000000000000
310
000000010420FF0D0036003000250020002D00200041006300630065006E0074
310
0031000000030001000C000704323395B3D7FF05000C0007000000FFFFFFFF25
310
00050002930212001D000D0000363025202D20416363656E743292084D009208
310
00000000000000000000010424FF0D0036003000250020002D00200041006300
310
630065006E00740032000000030001000C0007053233DA9694FF05000C000700
310
0000FFFFFFFF2500050002930212001E000D0000363025202D20416363656E74
310
3392084D00920800000000000000000000010428FF0D0036003000250020002D
310
00200041006300630065006E00740033000000030001000C0007063233C4D79B
310
FF05000C0007000000FFFFFFFF2500050002930212001F000D0000363025202D
310
20416363656E743492084D0092080000000000000000000001042CFF0D003600
310
3000250020002D00200041006300630065006E00740034000000030001000C00
310
07073233B1A0C7FF05000C0007000000FFFFFFFF25000500029302120020000D
310
0000363025202D20416363656E743592084D0092080000000000000000000001
310
0430FF0D0036003000250020002D00200041006300630065006E007400350000
310
00030001000C000708323392CDDCFF05000C0007000000FFFFFFFF2500050002
310
9302120021000D0000363025202D20416363656E743692084D00920800000000
310
000000000000010434FF0D0036003000250020002D0020004100630063006500
310
6E00740036000000030001000C0007093233FABF8FFF05000C0007000000FFFF
310
FFFF250005000293020C002200070000416363656E7431920841009208000000
310
0000000000000001041DFF070041006300630065006E00740031000000030001
310
000C00070400004F81BDFF05000C0007000000FFFFFFFF250005000293020C00
310
2300070000416363656E743292084100920800000000000000000000010421FF
310
070041006300630065006E00740032000000030001000C0007050000C0504DFF
310
05000C0007000000FFFFFFFF250005000293020C002400070000416363656E74
310
3392084100920800000000000000000000010425FF070041006300630065006E
310
00740033000000030001000C00070600009BBB59FF05000C0007000000FFFFFF
310
FF250005000293020C002500070000416363656E743492084100920800000000
310
000000000000010429FF070041006300630065006E0074003400000003000100
310
0C00070700008064A2FF05000C0007000000FFFFFFFF250005000293020C0026
310
00070000416363656E74359208410092080000000000000000000001042DFF07
310
0041006300630065006E00740035000000030001000C00070800004BACC6FF05
310
000C0007000000FFFFFFFF250005000293020C002700070000416363656E7436
310
92084100920800000000000000000000010431FF070041006300630065006E00
310
740036000000030001000C0007090000F79646FF05000C0007000000FFFFFFFF
310
2500050002930208002800030000426164920839009208000000000000000000
310
0001011BFF03004200610064000000030001000C0005FF0000FFC7CEFF05000C
310
0005FF00009C0006FF25000500029302100029000B000043616C63756C617469
310
6F6E92088100920800000000000000000000010216FF0B00430061006C006300
310
75006C006100740069006F006E000000070001000C0005FF0000F2F2F2FF0500
310
0C0005FF0000FA7D00FF250005000206000E0005FF00007F7F7FFF010007000E
310
0005FF00007F7F7FFF010008000E0005FF00007F7F7FFF010009000E0005FF00
310
007F7F7FFF010093020F002A000A0000436865636B2043656C6C92087F009208
310
00000000000000000000010217FF0A0043006800650063006B00200043006500
310
6C006C000000070001000C0005FF0000A5A5A5FF05000C0007000000FFFFFFFF
310
250005000206000E0005FF00003F3F3FFF060007000E0005FF00003F3F3FFF06
310
0008000E0005FF00003F3F3FFF060009000E0005FF00003F3F3FFF0600930204
310
002B8003FF92082000920800000000000000000000010503FF050043006F006D
310
006D00610000000000930204002C8006FF920828009208000000000000000000
310
00010506FF090043006F006D006D00610020005B0030005D0000000000930204
310
002D8004FF92082600920800000000000000000000010504FF08004300750072
310
00720065006E006300790000000000930204002E8007FF92082E009208000000
310
00000000000000010507FF0C00430075007200720065006E006300790020005B
310
0030005D0000000000930215002F001000004578706C616E61746F7279205465
310
787492084700920800000000000000000000010235FF10004500780070006C00
310
61006E00610074006F0072007900200054006500780074000000020005000C00
310
05FF00007F7F7FFF2500050002930209003000040000476F6F6492083B009208
310
0000000000000000000001011AFF040047006F006F0064000000030001000C00
310
05FF0000C6EFCEFF05000C0005FF0000006100FF250005000293020E00310009
310
000048656164696E67203192084700920800000000000000000000010310FF09
310
00480065006100640069006E006700200031000000030005000C00070300001F
310
497DFF250005000207000E00070400004F81BDFF050093020E00320009000048
310
656164696E67203292084700920800000000000000000000010311FF09004800
310
65006100640069006E006700200032000000030005000C00070300001F497DFF
310
250005000207000E000704FF3FA7BFDEFF050093020E00330009000048656164
310
696E67203392084700920800000000000000000000010312FF09004800650061
310
00640069006E006700200033000000030005000C00070300001F497DFF250005
310
000207000E000704323395B3D7FF020093020E00340009000048656164696E67
310
203492083900920800000000000000000000010313FF09004800650061006400
310
69006E006700200034000000020005000C00070300001F497DFF250005000293
310
020A003500050000496E70757492087500920800000000000000000000010214
310
FF050049006E007000750074000000070001000C0005FF0000FFCC99FF05000C
310
0005FF00003F3F76FF250005000206000E0005FF00007F7F7FFF010007000E00
310
05FF00007F7F7FFF010008000E0005FF00007F7F7FFF010009000E0005FF0000
310
7F7F7FFF01009302100036000B00004C696E6B65642043656C6C92084B009208
310
00000000000000000000010218FF0B004C0069006E006B006500640020004300
310
65006C006C000000030005000C0005FF0000FA7D00FF250005000207000E0005
310
FF0000FF8001FF060093020C0037000700004E65757472616C92084100920800
310
00000000000000000001011CFF07004E00650075007400720061006C00000003
310
0001000C0005FF0000FFEB9CFF05000C0005FF00009C6500FF25000500029302
310
0400008000FF92082200920800000000000000000000010100FF06004E006F00
310
72006D0061006C00000000009302090038000400004E6F746592086200920800
310
00000000000000000001020AFF04004E006F00740065000000050001000C0005
310
FF0000FFFFCCFF06000E0005FF0000B2B2B2FF010007000E0005FF0000B2B2B2
310
FF010008000E0005FF0000B2B2B2FF010009000E0005FF0000B2B2B2FF010093
310
020B0039000600004F7574707574920877009208000000000000000000000102
310
15FF06004F00750074007000750074000000070001000C0005FF0000F2F2F2FF
310
05000C0005FF00003F3F3FFF250005000206000E0005FF00003F3F3FFF010007
310
000E0005FF00003F3F3FFF010008000E0005FF00003F3F3FFF010009000E0005
310
FF00003F3F3FFF0100930204003A8005FF920824009208000000000000000000
310
00010505FF0700500065007200630065006E0074000000000093020A003B0005
310
00005469746C659208310092080000000000000000000001030FFF0500540069
310
0074006C0065000000020005000C00070300001F497DFF250005000193020A00
310
3C00050000546F74616C92084D00920800000000000000000000010319FF0500
310
54006F00740061006C000000040005000C0007010000000000FF250005000206
310
000E00070400004F81BDFF010007000E00070400004F81BDFF0600930211003D
310
000C00005761726E696E67205465787492083F00920800000000000000000000
310
01020BFF0C005700610072006E0069006E006700200054006500780074000000
310
020005000C0005FF0000FF0000FF25000500028E0858008E0800000000000000
310
00000090000000110011005400610062006C0065005300740079006C0065004D
310
0065006400690075006D0032005000690076006F0074005300740079006C0065
310
004C0069006700680074003100360060010200000085000E00632D0000000006
310
005368656574319A0818009A0800000000000000000000010000000000000008
310
000000A3081000A30800000000000000000000000000008C00040001000100C1
310
010800C1010000D5380200FC0054000800000008000000030000524556030000
310
4443410400004441544502000042590300004E2F410F0000494E495449414C20
310
52454C4541534502000030301400005245564953494F4E204445534352495054
310
494F4EFF000A000800D72C00000C000000630816006308000000000000000000
310
00160000000000000002008C0810008C0800000000000000000000000000000A
310
00000009081000000610006732CD07C1800100060600000D00020001000C0002
310
0064000F000200010011000200000010000800FCA9F1D24D62503F5F00020001
310
002A00020000002B000200000082000200010080000800000000000000000025
310
02040000000E0181000200C10414000000150000008300020000008400020000
310
0026000800000000000000E83F27000800000000000000E83F28000800000000
310
000000F03F29000800000000000000F03F4D00460D0000430061006E006F006E
310
0020004D00460038003300300030004300200053006500720069006500730020
310
005500460052004900490020004C00540000000000000001043714DC00680C03
310
5F810101000100EA0A6F086400010007005802010002000000010000004C0065
310
0074007400650072000000000000000000000000000000000000000000000000
310
0000000000000000000000000000000000000000000000000000000000000000
310
0000000000000000000000000000000000000001000000020000000100000002
310
0000000000000000000000000000000000000043616E6F6E0000009C10000000
310
000000000100000100000003060000B1047A04006009041F04430061006E006F
310
006E0020004D0046003800330030003000430020005300650072006900650073
310
0020005500460052004900490020004C005400000000000000000002000000FF
310
070000C502BD010000016401030201030304020502066401010201030F041005
310
0600076401010201030F0410050600080309010A010B020C020D020E020F0300
310
0A640101020203020402050206020702080209640103020203020401000A6401
310
02020103010401050A066401070207030704020508200000000B640101020203
310
0204020502060207020802001464010D02080000030800000408000005200620
310
0720000D64010302020402050206020701000E64010302020302040205010604
310
80070440080440000F6401030208200308200464010702070307040205082000
310
050A060E07010010640103020203010401050106010701080812090200116401
310
0100126401082000136401020204220065640164016401030202030204020502
310
06020701080209020A020B020C030D010E010F03100211011201130114021502
310
16021702180319021A021B021C021D021E021F02200221022202230224022502
310
26022702280229022A022B012C012D012E012F01300131013201330134013501
310
3601000264010302060302040205042206020702080209040A040B020C04400D
310
030E030F0110011103120213021401150216021702180219021A021B041C041D
310
041E041F0620022101220123012402250226022701280129012A012B012C022D
310
642E642F6430023101320133013401350136013701380239023A023B033C013D
310
013E013F0140014101420243014402450646024702480249024A040003640103
310
020103010401050106010701080109010A010B010C010D010E010F0110011101
310
120113011406150616061706180719071A011B011C011D011E011F0364200221
310
0122012301000464010821020811000564010302020301000664010202020308
310
1004081000076401010203030304030503060207020008640101020103010403
310
05082106060706080609060A060B060C060D060E02000964010202020D030204
310
0819000002640164010300000000483800200100010004000000010001006F08
310
0000EA0A000032000000320000003D080000B80A0000B29B010001006F080000
310
EA0A000032000000320000003D080000B80A0000B29B01028200580258020001
310
011801000000640000000000000000040000000F006400010100010001000000
310
00000B00000000000000900100000041007200690061006C0000000000000000
310
0000000000000000000000000000000000000000000000000000000000000000
310
0000000000000000000000000000000700020100010002C80000000000000000
310
0000000000000000000000000000000000000000000000000000000000020100
310
5C434E5A53524742432E49434300000000000000000000000000000000000000
310
0000000000000000000000000000000000000000000001005C434E5A53524742
310
432E494343000000000000000000000000000000000000000000000000000000
310
000000000000000000000000000401005C434E5A53524742432E494343000000
310
0000000201010101020200000000000000000000000000000000000000000000
310
0000000000000000000000000000000000000000000000000000000000000000
310
0000000000000000000000000000000000000000000000000000000000000000
310
0000000000000000000000000000000000000000000000000000000000000000
310
0000000000000000000000000000000000000000000000000000000000000000
310
00000000000000000000000000000000000000000000000000000000FFFF0000
310
0000000000000000000000000000000000000000000000000000000000000000
310
0000000000000000000000000000000000000000000000000000000000000000
310
0000000000000000000000000000000000000000000000000000000000000000
310
0000000000000000000000000000000000000000000000000000000000000000
310
0000000000000000000000000000000000000000000000000000000000000000
310
0000000000000000000000000000000000000000000000000000000000000000
310
0000000000000000000000000000000000000000000000000000000000000000
310
0000000000000000000000000000000000000000000000000000000000000000
310
000000000000009200000043004F004E0046004900440045004E005400490041
310
004C000000000000000000000000000000000000000000000000000000000000
310
000000000000000000000043004F004E0046004900440045004E005400490041
310
004C000000000000000000000000000000000000000000000000000000000000
310
0000000000000000000000480000000000000090010000004100720069006100
310
6C00000000000000000000000000000000000000000000000000000000000000
310
0000000000000000000000000000000000000000000000008080800000000000
310
00000000C2010000000000070007000700040007000000000000000000000000
310
0000000000000000000000000000000000000000000000000002000044006500
310
6600610075006C0074002000530065007400740069006E006700730000000000
310
0000000000000000000000000000000000000000000000000000000000000000
310
0000000000000000000000000000000000000000000000000000000000000000
310
00000007010101185802020000010102820007000700000000000CFBFFFBFFFB
310
FF0C01C801010000000002000700000002010009090909000000000000000000
310
0000000000000000000000000000000000000000000600000000000000000000
310
0000000000000000000000000000000000000000000000000000000000010000
310
0000000000000000000000000000000000000000000000000000000000000000
310
0000000000000000000000000000000000000000000000000000000000000000
310
0000000000000000000000070002000100000000000000000000000000000000
310
0001000000001100010000000001000100000000000000000000000000000000
310
0000000000000000000000000000000000000000000000000000000000000000
310
0000000400000000000000000000000000000000000101000100000000000000
310
0000000200000002000000020000000200000002000000040000000000000002
310
000000020000000000010001007F0000007F0000000000000001000100000000
310
0000000000000000000000000000000000000000000000000000000000000000
310
0000000000000000000000000000000000000000000000000000000000000000
310
0000000000000000000000000000000000000000000000000000000000000000
310
0000000000000000000000000000000000000000000000000000000000000000
310
0000000000000000000000000000000000000000000000000000000000000000
310
0000000000000000000000000000000000000000000000000000000000000000
310
0000000000000000000000000000000000000000000000000000000000000000
310
0000000000000000000000000000000000000000000000000000000000000000
310
0000000000000000000000000000000000000000000000000000000000000000
310
0000000000000000000000000000000000000000000000000000000000000000
310
0000000000000000000000000000000000000000000000000000000000000000
310
0000000000000000000000000000000000000000000000000000000000000000
310
0000000000000000000000000000000500000100010000000000000000000000
310
0000000000000000000000000000000000000000000000000000000000000000
310
0000000000000000000000000000000000000000000000000000000000000000
310
0000000000000000000000000000000000000000000000000000020000000000
310
0000000000000000000000000000000000000000000000000000000000000000
310
0000000000000000000000000000000000000000000000000000000000000000
310
0000000200000000000000000000000000000000000000000000000000000000
310
0000000000000000000000000000000000000000000000000000000000000000
310
0000000000000000000000000000000000000000000000000000000000000000
310
0000000000000000000000000000000000000000010100000000000000000000
310
0000000000000000000000000000000000000000000000000000000000000000
310
000000000000000000000000000000000000000000000000000000A100220001
310
006400010001000100020058022C01000000000000E03F000000000000E03F01
310
009C0826009C0800000000000000000000000000000000000000000000000000
310
00040000000000000000005500020008007D000C000000000092054D00020000
310
007D000C0001000100B6064800020000007D000C000200020024294900020000
310
007D000C000300030049095600020000007D000C000400040092054F00020000
310
007D000C000500000124093F000000000000020E00000000000D000000000005
310
000000080210000000000005003F0100000000C0013E20080210000100000005
310
000E010000000080014200080210000200000005000E01000000008001420008
310
0210000300000005000E010000000080014200080210000400000005000E0100
310
00000000010F00080210000500000005000E010000000000010F000802100006
310
00000005000E010000000000010F00080210000700000005000E010000000000
310
010F00080210000800000005000E010000000000010F00080210000900000005
310
000E010000000000010F00080210000A00000005000E010000000000010F0008
310
0210000B00000005000E010000000000010F00080210000C00000005000E0100
310
00000000010F00FD000A00000000004A0000000000FD000A00000001004A0001
310
000000FD000A00000002004B0007000000FD000A0000000300510002000000FD
310
000A00000004004A0003000000FD000A0001000000500006000000FD000A0001
310
000100400004000000FD000A0001000200410005000000BE000A000100030052
310
0040000400BE00100002000000400040004100520040000400BE001000030000
310
00440044004500530044000400BE001000040000004000400041005200400004
310
00BE00100005000000430043004100540043000400BE00100006000000440044
310
004500530044000400BE00100007000000440044004500530044000400BE0010
310
0008000000440044004500530044000400BE0010000900000044004400450053
310
0044000400BE0010000A000000440044004500530044000400BE0010000B0000
310
00440044004500530044000400BE0010000C0000004C004600470055004E0004
310
00D7001E005E020000F000460038001400140014001400140014001400140014
310
0014003E021200BC07000000004000000000000000550000008B0810008B0800
310
00000000000000000000005200A0000400DF00640041000A0000000100010000
310
0002001D000F000300000000000001000000000000001D000F00020000000000
310
0001000000FF3F00FFEF00060000003700000067081700670800000000000000
310
000000020001FFFFFFFF034400000A0000000000000000000000000000000000
310
0000000000000000000000000000000000000000000000000000000000000000
310
0000000000000000000000000000000000000000000000000000000000000000
310
0000000000000000000000000000000000000000000000000000000000000000
310
0000000000000000000000000000000000000000000000000000000000000000
310
0000000000000000000000000000000000000000000000000000000000000000
310
0000000000000000000000000000000000000000000000000000000000000000
310
02004F006C006500500072006500730030003000300000000000000000000000
310
0000000000000000000000000000000000000000000000000000000000000000
310
180002000300000005000000FFFFFFFF00000000000000000000000000000000
310
0000000000000000000000000000000000000000030000004009000000000000
310
0500530075006D006D0061007200790049006E0066006F0072006D0061007400
310
69006F006E000000000000000000000000000000000000000000000000000000
310
28000201FFFFFFFF06000000FFFFFFFF00000000000000000000000000000000
310
000000000000000000000000000000000000000028000000E400000000000000
310
050044006F00630075006D0065006E007400530075006D006D00610072007900
310
49006E0066006F0072006D006100740069006F006E0000000000000000000000
310
38000200FFFFFFFFFFFFFFFFFFFFFFFF00000000000000000000000000000000
310
00000000000000000000000000000000000000002C0000000C01000000000000
310
0000000000000000000000000000000000000000000000000000000000000000
310
0000000000000000000000000000000000000000000000000000000000000000
310
00000000FFFFFFFFFFFFFFFFFFFFFFFF00000000000000000000000000000000
310
0000000000000000000000000000000000000000000000000000000000000000
310
040000002701FFFF030000001E00050000000102FFFFFF000500000009020000
310
00000700000016044C00DF01010001001C000000FB02F4FF000000000000BC02
310
000000000000002043656E7475727920476F7468696300000000000000000000
310
0000000000000000040000002D0100000400000004010D000400000002010100
310
0C000000320A02000A0003000000524556000700060008000C000000320A0200
310
320003000000444341000800090009001C000000FB021000070000000000BC02
310
000000000102022253797374656D0000000000000CB03A0800000000E0733608
310
000000000D2917FF040000002D010100040000002701FFFF030000001E000400
310
00002D010000050000000102FFFFFF0005000000090200000000070000001604
310
1500DF01010001000400000004010D00040000000201010025000000320A0200
310
A400140000005245564953494F4E204445534352495054494F4E070006000800
310
0400060004000A00090003000800060006000900070004000700060004000A00
310
0900040000002D010100040000002D0100000D000000320A0200890104000000
310
4441544508000900060006000A000000320A0200C40102000000425907000700
310
040000002D010100040000002701FFFF030000001E00040000002D0100000500
310
00000102FFFFFF00050000000902000000000700000016044C00DF0101000100
310
1C000000FB02F5FF0000000000009001000000000000002043656E7475727920
310
476F74686963000000000000000000000000000000000000040000002D010200
310
0400000004010D0004000000020101000A000000320A16000E00020000003030
310
060006000C000000320A16003500030000004E2F410008000500070004000000
310
2D010100040000002701FFFF030000001E00040000002D010200050000000102
310
FFFFFF00050000000902000000000700000016042700DF011600010004000000
310
04010D0004000000020101001E000000320A160059000F000000494E49544941
310
4C2052454C454153450003000800030005000300070005000300070006000500
310
0600070006000600040000002D010100040000002D010200040000002D010100
310
040000002701FFFF030000001E00040000002D010200050000000102FFFFFF00
310
050000000902000000000700000016044C00DF0101000100040000002D010100
310
040000002701FFFF030000001E00040000002D010200050000000102FFFFFF00
310
050000000902000000000700000016044C00DF010000000007000000FC020000
310
000000000000040000002D0103000400000004010D0004000000020102000800
310
0000FA0200000000000000000000040000002D01040005000000140200000000
310
0500000013021400000008000000FA0200000000000000000000040000002D01
310
05000C00000040092100F0000000000000001400010000000000040000002D01
310
04000500000014020000270005000000130214002700040000002D0105000C00
310
000040092100F0000000000000001400010000002700040000002D0104000500
310
000014020000560005000000130214005600040000002D0105000C0000004009
310
2100F0000000000000001400010000005600040000002D010400050000001402
310
0000760105000000130214007601040000002D0105000C00000040092100F000
310
0000000000001400010000007601040000002D0104000500000014020000B701
310
0500000013021400B701040000002D0105000C00000040092100F00000000000
310
0000140001000000B701040000002D0104000500000014020000DE0105000000
310
13021400DE01040000002D0105000C00000040092100F0000000000000001400
310
01000000DE01040000002D010400050000001402160000000500000013024D00
310
0000040000002D0105000C00000040092100F000000000000000370001001600
310
0000040000002D010400050000001402160027000500000013024D0027000400
310
00002D0105000C00000040092100F00000000000000037000100160027000400
310
00002D010400050000001402160056000500000013024D005600040000002D01
310
05000C00000040092100F0000000000000003700010016005600040000002D01
310
0400050000001402160076010500000013024D007601040000002D0105000C00
310
000040092100F0000000000000003700010016007601040000002D0104000500
310
000014021600B7010500000013024D00B701040000002D0105000C0000004009
310
2100F000000000000000370001001600B701040000002D010400050000001402
310
1600DE010500000013024D00DE01040000002D0105000C00000040092100F000
310
000000000000370001001600DE010C00000040092100F0000000000000000200
310
DF0114000000040000002D010400050000001402270001000500000013022700
310
DF01040000002D0105000C00000040092100F0000000000000000100DE012700
310
0100040000002D010400050000001402390001000500000013023900DF010400
310
00002D0105000C00000040092100F0000000000000000100DE01390001000400
310
00002D0104000500000014024B0001000500000013024B00DF01040000002D01
310
05000C00000040092100F0000000000000000100DE014B00010007000000FC02
310
0000000000000000040000002D01060004000000F0010300040000002D010100
310
040000002701FFFF030000001E00040000002D010200050000000102FFFFFF00
310
050000000902000000000700000016044C00DF0101000100040000002701FFFF
310
0300000000000000000000000000000000000000000000004E414E4900000000
310
FEFF0000060102000000000000000000000000000000000001000000E0859FF2
310
F94F6810AB9108002B27B3D930000000B4000000070000000100000040000000
310
04000000480000000800000064000000120000007C0000000C00000094000000
310
0D000000A000000013000000AC00000002000000E40400001E00000014000000
310
446172696E205472697070656E736565000000001E00000010000000546F6464
310
204265726E6174736B7900001E000000100000004D6963726F736F6674204578
310
63656C004000000080E0A67A993DBE0140000000809EA05393DDCF0103000000
310
0000000000000000000000000000000000000000000000000000000000000000
310
FEFF000006010200000000000000000000000000000000000100000002D5CDD5
310
9C2E1B10939708002B2CF9AE30000000DC000000090000000100000050000000
310
0F00000058000000170000007C0000000B00000084000000100000008C000000
310
1300000094000000160000009C0000000D000000A40000000C000000B7000000
310
02000000E40400001E0000001C00000044656C6C20436F6D707574657220436F
310
72706F726174696F6E0000000300000000000E000B000000000000000B000000
310
000000000B000000000000000B000000000000001E1000000100000007000000
310
536865657431000C100000020000001E0000000B000000576F726B7368656574
310
7300030000000100000000000000000000000000000000000000000000000000
310
0000000000000000000000000000000000000000000000000000000000000000
310
0000000000000000000000000000000000000000000000000000000000000000
310
0000000000000000000000000000000000000000000000000000000000000000
310
0000000000000000000000000000000000000000000000000000000000000000
310
0000000000000000000000000000000000000000000000000000000000000000
310
0000000000000000000000000000000000000000000000000000000000000000
310
0000000000000000000000000000000000000000000000000000000000000000
310
0000000000000000000000000000000000000000000000000000000000000000
310
0000000000000000000000000000000000000000000000000000000000000000
310
0000000000000000000000000000000000000000000000000000000000000000
310
0000000000000000000000000000000000000000000000000000000000000000
310
0000000000000000000000000000000000000000000000000000000000000000
310
0000000000000000000000000000000000000000000000000000000000000000
310
0000000000000000000000000000000000000000000000000000000000000000
310
0000000000000000000000000000000000000000000000000000000000000000
  1
OLE
  0
ENDSEC
  0
SECTION
  2
OBJECTS
  0
DICTIONARY
  5
C
330
0
100
AcDbDictionary
281
     1
  3
ACAD_GROUP
350
D
  3
ACAD_LAYOUT
350
1A
  3
ACAD_MLINESTYLE
350
17
  3
ACAD_PLOTSETTINGS
350
19
  3
ACAD_PLOTSTYLENAME
350
E
  0
DICTIONARY
  5
D
102
{ACAD_REACTORS
330
C
102
}
330
C
100
AcDbDictionary
281
     1
  0
DICTIONARY
  5
1A
102
{ACAD_REACTORS
330
C
102
}
330
C
100
AcDbDictionary
281
     1
  3
Layout1
350
1E
  3
Layout2
350
26
  3
Model
350
22
  0
DICTIONARY
  5
17
102
{ACAD_REACTORS
330
C
102
}
330
C
100
AcDbDictionary
281
     1
  3
Standard
350
18
  0
DICTIONARY
  5
19
102
{ACAD_REACTORS
330
C
102
}
330
C
100
AcDbDictionary
281
     1
  0
ACDBDICTIONARYWDFLT
  5
E
102
{ACAD_REACTORS
330
C
102
}
330
C
100
AcDbDictionary
281
     1
  3
Normal
350
F
100
AcDbDictionaryWithDefault
340
F
  0
LAYOUT
  5
1E
102
{ACAD_REACTORS
330
1A
102
}
330
1A
100
AcDbPlotSettings
  1

  2
none_device
  4

  6

 40
0.0
 41
0.0
 42
0.0
 43
0.0
 44
0.0
 45
0.0
 46
0.0
 47
0.0
 48
0.0
 49
0.0
140
0.0
141
0.0
142
1.0
143
1.0
 70
   688
 72
     0
 73
     0
 74
     5
  7

 75
    16
147
1.0
148
0.0
149
0.0
100
AcDbLayout
  1
Layout1
 70
     1
 71
     1
 10
0.0
 20
0.0
 11
12.0
 21
9.0
 12
0.0
 22
0.0
 32
0.0
 14
1.0000000000E+20
 24
1.0000000000E+20
 34
1.0000000000E+20
 15
-1.0000000000E+20
 25
-1.0000000000E+20
 35
-1.0000000000E+20
146
0.0
 13
0.0
 23
0.0
 33
0.0
 16
1.0
 26
0.0
 36
0.0
 17
0.0
 27
1.0
 37
0.0
 76
     0
330
1B
  0
LAYOUT
  5
26
102
{ACAD_REACTORS
330
1A
102
}
330
1A
100
AcDbPlotSettings
  1

  2
none_device
  4

  6

 40
0.0
 41
0.0
 42
0.0
 43
0.0
 44
0.0
 45
0.0
 46
0.0
 47
0.0
 48
0.0
 49
0.0
140
0.0
141
0.0
142
1.0
143
1.0
 70
   688
 72
     0
 73
     0
 74
     5
  7

 75
    16
147
1.0
148
0.0
149
0.0
100
AcDbLayout
  1
Layout2
 70
     1
 71
     2
 10
0.0
 20
0.0
 11
0.0
 21
0.0
 12
0.0
 22
0.0
 32
0.0
 14
0.0
 24
0.0
 34
0.0
 15
0.0
 25
0.0
 35
0.0
146
0.0
 13
0.0
 23
0.0
 33
0.0
 16
1.0
 26
0.0
 36
0.0
 17
0.0
 27
1.0
 37
0.0
 76
     0
330
23
  0
LAYOUT
  5
22
102
{ACAD_REACTORS
330
1A
102
}
330
1A
100
AcDbPlotSettings
  1

  2
none_device
  4

  6

 40
0.0
 41
0.0
 42
0.0
 43
0.0
 44
0.0
 45
0.0
 46
0.0
 47
0.0
 48
0.0
 49
0.0
140
0.0
141
0.0
142
1.0
143
1.0
 70
  1712
 72
     0
 73
     0
 74
     0
  7

 75
     0
147
1.0
148
0.0
149
0.0
100
AcDbLayout
  1
Model
 70
     1
 71
     0
 10
0.0
 20
0.0
 11
11.0
 21
8.5
 12
0.0
 22
0.0
 32
0.0
 14
0.0
 24
0.0
 34
0.0
 15
11.0
 25
8.5
 35
0.0
146
0.0
 13
0.0
 23
0.0
 33
0.0
 16
1.0
 26
0.0
 36
0.0
 17
0.0
 27
1.0
 37
0.0
 76
     0
330
1F
331
29
  0
MLINESTYLE
  5
18
102
{ACAD_REACTORS
330
17
102
}
330
17
100
AcDbMlineStyle
  2
Standard
 70
     0
  3

 62
   256
 51
90.0
 52
90.0
 71
     2
 49
0.5
 62
   256
  6
BYLAYER
 49
-0.5
 62
   256
  6
BYLAYER
  0
ACDBPLACEHOLDER
  5
F
102
{ACAD_REACTORS
330
E
102
}
330
E
  0
ENDSEC
  0
EOF
