  0
SECTION
  2
HEADER
  9
$ACADVER
  1
AC1015
  9
$ACADMAINTVER
 70
     6
  9
$DWGCODEPAGE
  3
ANSI_1252
  9
$INSBASE
 10
0.0
 20
0.0
 30
0.0
  9
$EXTMIN
 10
-5.297803395
 20
-3.9704558072
 30
0.0
  9
$EXTMAX
 10
5.297803395
 20
5.9813797533
 30
0.0
  9
$LIMMIN
 10
0.0
 20
0.0
  9
$LIMMAX
 10
12.0
 20
9.0
  9
$ORTHOMODE
 70
     0
  9
$REGENMODE
 70
     1
  9
$FILLMODE
 70
     1
  9
$QTEXTMODE
 70
     0
  9
$MIRRTEXT
 70
     1
  9
$LTSCALE
 40
1.0
  9
$ATTMODE
 70
     1
  9
$TEXTSIZE
 40
0.125
  9
$TRACEWID
 40
0.05
  9
$TEXTSTYLE
  7
Standard
  9
$CLAYER
  8
0
  9
$CELTYPE
  6
ByLayer
  9
$CECOLOR
 62
   256
  9
$CELTSCALE
 40
1.0
  9
$DISPSILH
 70
     0
  9
$DIMSCALE
 40
1.0
  9
$DIMASZ
 40
0.13
  9
$DIMEXO
 40
0.05
  9
$DIMDLI
 40
0.38
  9
$DIMRND
 40
0.0
  9
$DIMDLE
 40
0.0
  9
$DIMEXE
 40
0.125
  9
$DIMTP
 40
0.0
  9
$DIMTM
 40
0.0
  9
$DIMTXT
 40
0.125
  9
$DIMCEN
 40
0.09
  9
$DIMTSZ
 40
0.0
  9
$DIMTOL
 70
     0
  9
$DIMLIM
 70
     0
  9
$DIMTIH
 70
     1
  9
$DIMTOH
 70
     1
  9
$DIMSE1
 70
     0
  9
$DIMSE2
 70
     0
  9
$DIMTAD
 70
     0
  9
$DIMZIN
 70
     0
  9
$DIMBLK
  1

  9
$DIMASO
 70
     1
  9
$DIMSHO
 70
     1
  9
$DIMPOST
  1

  9
$DIMAPOST
  1

  9
$DIMALT
 70
     0
  9
$DIMALTD
 70
     2
  9
$DIMALTF
 40
25.4
  9
$DIMLFAC
 40
1.0
  9
$DIMTOFL
 70
     0
  9
$DIMTVP
 40
0.0
  9
$DIMTIX
 70
     0
  9
$DIMSOXD
 70
     0
  9
$DIMSAH
 70
     0
  9
$DIMBLK1
  1

  9
$DIMBLK2
  1

  9
$DIMSTYLE
  2
Standard
  9
$DIMCLRD
 70
     0
  9
$DIMCLRE
 70
     0
  9
$DIMCLRT
 70
     0
  9
$DIMTFAC
 40
1.0
  9
$DIMGAP
 40
0.06
  9
$DIMJUST
 70
     0
  9
$DIMSD1
 70
     0
  9
$DIMSD2
 70
     0
  9
$DIMTOLJ
 70
     1
  9
$DIMTZIN
 70
     0
  9
$DIMALTZ
 70
     0
  9
$DIMALTTZ
 70
     0
  9
$DIMUPT
 70
     0
  9
$DIMDEC
 70
     3
  9
$DIMTDEC
 70
     3
  9
$DIMALTU
 70
     2
  9
$DIMALTTD
 70
     2
  9
$DIMTXSTY
  7
Standard
  9
$DIMAUNIT
 70
     0
  9
$DIMADEC
 70
     2
  9
$DIMALTRND
 40
0.0
  9
$DIMAZIN
 70
     0
  9
$DIMDSEP
 70
    46
  9
$DIMATFIT
 70
     3
  9
$DIMFRAC
 70
     0
  9
$DIMLDRBLK
  1

  9
$DIMLUNIT
 70
     2
  9
$DIMLWD
 70
    -2
  9
$DIMLWE
 70
    -2
  9
$DIMTMOVE
 70
     0
  9
$LUNITS
 70
     2
  9
$LUPREC
 70
     2
  9
$SKETCHINC
 40
0.1
  9
$FILLETRAD
 40
0.5
  9
$AUNITS
 70
     0
  9
$AUPREC
 70
     2
  9
$MENU
  1
.
  9
$ELEVATION
 40
0.0
  9
$PELEVATION
 40
0.0
  9
$THICKNESS
 40
0.0
  9
$LIMCHECK
 70
     0
  9
$CHAMFERA
 40
0.5
  9
$CHAMFERB
 40
0.5
  9
$CHAMFERC
 40
1.0
  9
$CHAMFERD
 40
0.0
  9
$SKPOLY
 70
     0
  9
$TDCREATE
 40
2456797.679523368
  9
$TDUCREATE
 40
2456797.929523368
  9
$TDUPDATE
 40
2456797.68011985
  9
$TDUUPDATE
 40
2456797.93011985
  9
$TDINDWG
 40
0.0000000116
  9
$TDUSRTIMER
 40
0.0000000116
  9
$USRTIMER
 70
     1
  9
$ANGBASE
 50
0.0
  9
$ANGDIR
 70
     0
  9
$PDMODE
 70
     0
  9
$PDSIZE
 40
-1.0
  9
$PLINEWID
 40
0.0
  9
$SPLFRAME
 70
     0
  9
$SPLINETYPE
 70
     6
  9
$SPLINESEGS
 70
     8
  9
$HANDSEED
  5
A0
  9
$SURFTAB1
 70
     6
  9
$SURFTAB2
 70
     6
  9
$SURFTYPE
 70
     6
  9
$SURFU
 70
     6
  9
$SURFV
 70
     6
  9
$UCSBASE
  2

  9
$UCSNAME
  2

  9
$UCSORG
 10
0.0
 20
0.0
 30
0.0
  9
$UCSXDIR
 10
1.0
 20
0.0
 30
0.0
  9
$UCSYDIR
 10
0.0
 20
1.0
 30
0.0
  9
$UCSORTHOREF
  2

  9
$UCSORTHOVIEW
 70
     0
  9
$UCSORGTOP
 10
0.0
 20
0.0
 30
0.0
  9
$UCSORGBOTTOM
 10
0.0
 20
0.0
 30
0.0
  9
$UCSORGLEFT
 10
0.0
 20
0.0
 30
0.0
  9
$UCSORGRIGHT
 10
0.0
 20
0.0
 30
0.0
  9
$UCSORGFRONT
 10
0.0
 20
0.0
 30
0.0
  9
$UCSORGBACK
 10
0.0
 20
0.0
 30
0.0
  9
$PUCSBASE
  2

  9
$PUCSNAME
  2

  9
$PUCSORG
 10
0.0
 20
0.0
 30
0.0
  9
$PUCSXDIR
 10
1.0
 20
0.0
 30
0.0
  9
$PUCSYDIR
 10
0.0
 20
1.0
 30
0.0
  9
$PUCSORTHOREF
  2

  9
$PUCSORTHOVIEW
 70
     0
  9
$PUCSORGTOP
 10
0.0
 20
0.0
 30
0.0
  9
$PUCSORGBOTTOM
 10
0.0
 20
0.0
 30
0.0
  9
$PUCSORGLEFT
 10
0.0
 20
0.0
 30
0.0
  9
$PUCSORGRIGHT
 10
0.0
 20
0.0
 30
0.0
  9
$PUCSORGFRONT
 10
0.0
 20
0.0
 30
0.0
  9
$PUCSORGBACK
 10
0.0
 20
0.0
 30
0.0
  9
$USERI1
 70
     0
  9
$USERI2
 70
     0
  9
$USERI3
 70
     0
  9
$USERI4
 70
     0
  9
$USERI5
 70
     0
  9
$USERR1
 40
0.0
  9
$USERR2
 40
0.0
  9
$USERR3
 40
0.0
  9
$USERR4
 40
0.0
  9
$USERR5
 40
0.0
  9
$WORLDVIEW
 70
     1
  9
$SHADEDGE
 70
     3
  9
$SHADEDIF
 70
    70
  9
$TILEMODE
 70
     1
  9
$MAXACTVP
 70
    64
  9
$PINSBASE
 10
0.0
 20
0.0
 30
0.0
  9
$PLIMCHECK
 70
     0
  9
$PEXTMIN
 10
1.0000000000E+20
 20
1.0000000000E+20
 30
1.0000000000E+20
  9
$PEXTMAX
 10
-1.0000000000E+20
 20
-1.0000000000E+20
 30
-1.0000000000E+20
  9
$PLIMMIN
 10
0.0
 20
0.0
  9
$PLIMMAX
 10
12.0
 20
9.0
  9
$UNITMODE
 70
     0
  9
$VISRETAIN
 70
     1
  9
$PLINEGEN
 70
     0
  9
$PSLTSCALE
 70
     1
  9
$TREEDEPTH
 70
  3020
  9
$CMLSTYLE
  2
Standard
  9
$CMLJUST
 70
     0
  9
$CMLSCALE
 40
1.0
  9
$PROXYGRAPHICS
 70
     1
  9
$MEASUREMENT
 70
     0
  9
$CELWEIGHT
370
    -1
  9
$ENDCAPS
280
     0
  9
$JOINSTYLE
280
     0
  9
$LWDISPLAY
290
     1
  9
$INSUNITS
 70
     1
  9
$HYPERLINKBASE
  1

  9
$STYLESHEET
  1

  9
$XEDIT
290
     1
  9
$CEPSNTYPE
380
     0
  9
$PSTYLEMODE
290
     1
  9
$FINGERPRINTGUID
  2
{8C28717F-B932-43E1-B740-B6105F536119}
  9
$VERSIONGUID
  2
{FAEB1C32-E019-11D5-929B-00C0DF256EC4}
  9
$EXTNAMES
290
     1
  9
$PSVPSCALE
 40
0.0
  9
$OLESTARTUP
290
     0
  0
ENDSEC
  0
SECTION
  2
CLASSES
  0
CLASS
  1
ACDBDICTIONARYWDFLT
  2
AcDbDictionaryWithDefault
  3
ObjectDBX Classes
 90
        0
280
     0
281
     0
  0
CLASS
  1
VISUALSTYLE
  2
AcDbVisualStyle
  3
ObjectDBX Classes
 90
     4095
280
     0
281
     0
  0
CLASS
  1
MATERIAL
  2
AcDbMaterial
  3
ObjectDBX Classes
 90
     1153
280
     0
281
     0
  0
CLASS
  1
ACDBPLACEHOLDER
  2
AcDbPlaceHolder
  3
ObjectDBX Classes
 90
        0
280
     0
281
     0
  0
CLASS
  1
LAYOUT
  2
AcDbLayout
  3
ObjectDBX Classes
 90
        0
280
     0
281
     0
  0
ENDSEC
  0
SECTION
  2
TABLES
  0
TABLE
  2
VPORT
  5
8
330
0
100
AcDbSymbolTable
 70
     1
  0
VPORT
  5
29
330
8
100
AcDbSymbolTableRecord
100
AcDbViewportTableRecord
  2
*Active
 70
     0
 10
0.0
 20
0.0
 11
1.0
 21
1.0
 12
0.0
 22
1.0054619731
 13
0.0
 23
0.0
 14
0.5
 24
0.5
 15
0.5
 25
0.5
 16
0.0
 26
0.0
 36
1.0
 17
0.0
 27
0.0
 37
0.0
 40
10.1508722717
 41
1.0646886924
 42
50.0
 43
0.0
 44
0.0
 50
0.0
 51
0.0
 71
     0
 72
   100
 73
     1
 74
     3
 75
     0
 76
     0
 77
     0
 78
     0
281
     0
 65
     1
110
0.0
120
0.0
130
0.0
111
1.0
121
0.0
131
0.0
112
0.0
122
1.0
132
0.0
 79
     0
146
0.0
  0
ENDTAB
  0
TABLE
  2
LTYPE
  5
5
330
0
100
AcDbSymbolTable
 70
     6
  0
LTYPE
  5
14
330
5
100
AcDbSymbolTableRecord
100
AcDbLinetypeTableRecord
  2
ByBlock
 70
     0
  3

 72
    65
 73
     0
 40
0.0
  0
LTYPE
  5
15
330
5
100
AcDbSymbolTableRecord
100
AcDbLinetypeTableRecord
  2
ByLayer
 70
     0
  3

 72
    65
 73
     0
 40
0.0
  0
LTYPE
  5
16
330
5
100
AcDbSymbolTableRecord
100
AcDbLinetypeTableRecord
  2
Continuous
 70
     0
  3
Solid line
 72
    65
 73
     0
 40
0.0
  0
LTYPE
  5
3F
330
5
100
AcDbSymbolTableRecord
100
AcDbLinetypeTableRecord
  2
HIDDEN
 70
     0
  3
Hidden __ __ __ __ __ __ __ __ __ __ __ __ __ __
 72
    65
 73
     2
 40
0.075
 49
0.05
 74
     0
 49
-0.025
 74
     0
  0
LTYPE
  5
40
330
5
100
AcDbSymbolTableRecord
100
AcDbLinetypeTableRecord
  2
PHANTOM
 70
     0
  3
Phantom ______  __  __  ______  __  __  ______
 72
    65
 73
     6
 40
0.5
 49
0.25
 74
     0
 49
-0.05
 74
     0
 49
0.05
 74
     0
 49
-0.05
 74
     0
 49
0.05
 74
     0
 49
-0.05
 74
     0
  0
LTYPE
  5
41
330
5
100
AcDbSymbolTableRecord
100
AcDbLinetypeTableRecord
  2
CENTER
 70
     0
  3
Center ____ _ ____ _ ____ _ ____ _ ____ _ ____
 72
    65
 73
     4
 40
0.4
 49
0.25
 74
     0
 49
-0.05
 74
     0
 49
0.05
 74
     0
 49
-0.05
 74
     0
  0
LTYPE
  5
42
330
5
100
AcDbSymbolTableRecord
100
AcDbLinetypeTableRecord
  2
CENTERX2
 70
     0
  3
Center (2x) ________  __  ________  __  _____
 72
    65
 73
     4
 40
0.8
 49
0.5
 74
     0
 49
-0.1
 74
     0
 49
0.1
 74
     0
 49
-0.1
 74
     0
  0
LTYPE
  5
43
330
5
100
AcDbSymbolTableRecord
100
AcDbLinetypeTableRecord
  2
DOT2
 70
     0
  3
Dot (.5x) ........................................
 72
    65
 73
     2
 40
0.025
 49
0.0
 74
     0
 49
-0.025
 74
     0
  0
ENDTAB
  0
TABLE
  2
LAYER
  5
2
330
0
100
AcDbSymbolTable
 70
     1
  0
LAYER
  5
10
330
2
100
AcDbSymbolTableRecord
100
AcDbLayerTableRecord
  2
0
 70
     0
 62
     7
  6
Continuous
370
    -3
390
F
  0
ENDTAB
  0
TABLE
  2
STYLE
  5
3
330
0
100
AcDbSymbolTable
 70
     1
  0
STYLE
  5
11
330
3
100
AcDbSymbolTableRecord
100
AcDbTextStyleTableRecord
  2
Standard
 70
     0
 40
0.0
 41
1.0
 50
0.0
 71
     0
 42
0.125
  3
txt
  4

  0
ENDTAB
  0
TABLE
  2
VIEW
  5
6
330
0
100
AcDbSymbolTable
 70
     0
  0
ENDTAB
  0
TABLE
  2
UCS
  5
7
330
0
100
AcDbSymbolTable
 70
     0
  0
ENDTAB
  0
TABLE
  2
APPID
  5
9
330
0
100
AcDbSymbolTable
 70
     1
  0
APPID
  5
12
330
9
100
AcDbSymbolTableRecord
100
AcDbRegAppTableRecord
  2
ACAD
 70
     0
  0
ENDTAB
  0
TABLE
  2
DIMSTYLE
  5
A
330
0
100
AcDbSymbolTable
 70
     1
100
AcDbDimStyleTable
  0
DIMSTYLE
105
27
330
A
100
AcDbSymbolTableRecord
100
AcDbDimStyleTableRecord
  2
Standard
 70
     0
178
     0
340
11
  0
ENDTAB
  0
TABLE
  2
BLOCK_RECORD
  5
1
330
0
100
AcDbSymbolTable
 70
     1
  0
BLOCK_RECORD
  5
1F
330
1
100
AcDbSymbolTableRecord
100
AcDbBlockTableRecord
  2
*Model_Space
340
22
  0
BLOCK_RECORD
  5
1B
330
1
100
AcDbSymbolTableRecord
100
AcDbBlockTableRecord
  2
*Paper_Space
340
1E
  0
BLOCK_RECORD
  5
23
330
1
100
AcDbSymbolTableRecord
100
AcDbBlockTableRecord
  2
*Paper_Space0
340
26
  0
ENDTAB
  0
ENDSEC
  0
SECTION
  2
BLOCKS
  0
BLOCK
  5
20
330
1F
100
AcDbEntity
  8
0
100
AcDbBlockBegin
  2
*Model_Space
 70
     0
 10
0.0
 20
0.0
 30
0.0
  3
*Model_Space
  1

  0
ENDBLK
  5
21
330
1F
100
AcDbEntity
  8
0
100
AcDbBlockEnd
  0
BLOCK
  5
1C
330
1B
100
AcDbEntity
 67
     1
  8
0
100
AcDbBlockBegin
  2
*Paper_Space
 70
     0
 10
0.0
 20
0.0
 30
0.0
  3
*Paper_Space
  1

  0
ENDBLK
  5
1D
330
1B
100
AcDbEntity
 67
     1
  8
0
100
AcDbBlockEnd
  0
BLOCK
  5
24
330
23
100
AcDbEntity
  8
0
100
AcDbBlockBegin
  2
*Paper_Space0
 70
     0
 10
0.0
 20
0.0
 30
0.0
  3
*Paper_Space0
  1

  0
ENDBLK
  5
25
330
23
100
AcDbEntity
  8
0
100
AcDbBlockEnd
  0
ENDSEC
  0
SECTION
  2
ENTITIES
  0
CIRCLE
  5
44
330
1F
100
AcDbEntity
  8
0
  6
Continuous
 62
     7
370
    15
100
AcDbCircle
 10
1.9963322175
 20
0.7467406247
 30
0.0
 40
1.379499999999999
  0
CIRCLE
  5
45
330
1F
100
AcDbEntity
  8
0
  6
Continuous
 62
     7
370
    15
100
AcDbCircle
 10
1.9963322175
 20
0.7467406247
 30
0.0
 40
1.255
  0
CIRCLE
  5
46
330
1F
100
AcDbEntity
  8
0
  6
Continuous
 62
     7
370
    15
100
AcDbCircle
 10
-1.7952729052
 20
-0.6350345493
 30
0.0
 40
1.422499999999999
  0
CIRCLE
  5
47
330
1F
100
AcDbEntity
  8
0
  6
Continuous
 62
     7
370
    15
100
AcDbCircle
 10
-1.7952729052
 20
-0.6350345493
 30
0.0
 40
1.610000000000002
  0
CIRCLE
  5
48
330
1F
100
AcDbEntity
  8
0
  6
Continuous
 62
     7
370
    15
100
AcDbCircle
 10
-5.0131331505
 20
0.3853358213
 30
0.0
 40
0.1042500000000004
  0
CIRCLE
  5
49
330
1F
100
AcDbEntity
  8
0
  6
Continuous
 62
     7
370
    15
100
AcDbCircle
 10
-4.4274103056
 20
3.8106723581
 30
0.0
 40
0.1042499999999986
  0
CIRCLE
  5
4A
330
1F
100
AcDbEntity
  8
0
  6
Continuous
 62
     7
370
    15
100
AcDbCircle
 10
-1.2621100174
 20
5.4393265754
 30
0.0
 40
0.1042499999999986
  0
CIRCLE
  5
4B
330
1F
100
AcDbEntity
  8
0
  6
Continuous
 62
     7
370
    15
100
AcDbCircle
 10
0.7936179935
 20
3.7794861095
 30
0.0
 40
0.1042500000000004
  0
CIRCLE
  5
4C
330
1F
100
AcDbEntity
  8
0
  6
Continuous
 62
     7
370
    15
100
AcDbCircle
 10
3.5332498799
 20
5.5273355141
 30
0.0
 40
0.1042500000000013
  0
CIRCLE
  5
4D
330
1F
100
AcDbEntity
  8
0
  6
Continuous
 62
     7
370
    15
100
AcDbCircle
 10
4.9845157604
 20
2.3853268883
 30
0.0
 40
0.10425
  0
CIRCLE
  5
4E
330
1F
100
AcDbEntity
  8
0
  6
Continuous
 62
     7
370
    15
100
AcDbCircle
 10
5.0212351309
 20
-1.3841180279
 30
0.0
 40
0.1042499999999993
  0
CIRCLE
  5
4F
330
1F
100
AcDbEntity
  8
0
  6
Continuous
 62
     7
370
    15
100
AcDbCircle
 10
2.7166218
 20
-3.7005872544
 30
0.0
 40
0.1042499999999995
  0
CIRCLE
  5
50
330
1F
100
AcDbEntity
  8
0
  6
Continuous
 62
     7
370
    15
100
AcDbCircle
 10
-0.7166308847
 20
-3.7005872544
 30
0.0
 40
0.1042500000000004
  0
CIRCLE
  5
51
330
1F
100
AcDbEntity
  8
0
  6
Continuous
 62
     7
370
    15
100
AcDbCircle
 10
-0.3500006144
 20
4.8794861095
 30
0.0
 40
0.1250000000000142
  0
CIRCLE
  5
52
330
1F
100
AcDbEntity
  8
0
  6
Continuous
 62
     7
370
    15
100
AcDbCircle
 10
-5.0212351014
 20
-1.3841115686
 30
0.0
 40
0.1042499999999993
  0
SPLINE
  5
68
330
1F
100
AcDbEntity
  8
0
  6
Continuous
 62
     7
370
    15
100
AcDbSpline
210
0.0
220
0.0
230
1.0
 70
     8
 71
     3
 72
    24
 73
    20
 74
     0
 42
0.00000001
 43
0.00000001
 12
1.0
 22
0.0
 32
0.0
 13
1.0
 23
0.0
 33
0.0
 40
0.0
 40
0.0
 40
0.0
 40
0.0
 40
0.0455806906605854
 40
0.0910975235500078
 40
0.1365640477985113
 40
0.1819938575489798
 40
0.2274005799197547
 40
0.2727978628199155
 40
0.3181993626711957
 40
0.3636187320915596
 40
0.409069607595872
 40
0.4545655973690643
 40
0.5001202691661928
 40
0.5835717770553502
 40
0.6668558444203357
 40
0.7500564728436947
 40
0.8332579166324413
 40
0.9165444276190795
 40
0.9999999999999999
 40
0.9999999999999999
 40
0.9999999999999999
 40
0.9999999999999999
 10
-5.177025197253011
 20
2.683130158753503
 30
0.0
 10
-5.179917511657873
 20
2.675895059301019
 30
0.0
 10
-5.185698088384388
 20
2.66143499664714
 30
0.0
 10
-5.19388887030451
 20
2.63957284560725
 30
0.0
 10
-5.20171887867408
 20
2.617607188455576
 30
0.0
 10
-5.209154348745849
 20
2.595524338575415
 30
0.0
 10
-5.21620431057157
 20
2.573327965017775
 30
0.0
 10
-5.222866344182965
 20
2.551017092739017
 30
0.0
 10
-5.22914109494908
 20
2.528591991897967
 30
0.0
 10
-5.235028388704
 20
2.50605259249849
 30
0.0
 10
-5.240528268198096
 20
2.483398941298705
 30
0.0
 10
-5.245640730571252
 20
2.460630958493138
 30
0.0
 10
-5.251673357561561
 20
2.431416505324826
 30
0.0
 10
-5.258146130779676
 20
2.395702616942871
 30
0.0
 10
-5.264427260027451
 20
2.35343561077203
 30
0.0
 10
-5.269362737588197
 20
2.311032424561986
 30
0.0
 10
-5.272919683659136
 20
2.268493275236792
 30
0.0
 10
-5.275220496658979
 20
2.225818784571475
 30
0.0
 10
-5.275611174690257
 20
2.197316026885883
 30
0.0
 10
-5.275806711761994
 20
2.183050198433672
 30
0.0
  0
SPLINE
  5
6A
330
1F
100
AcDbEntity
  8
0
  6
Continuous
 62
     7
370
    15
100
AcDbSpline
210
0.0
220
0.0
230
1.0
 70
     8
 71
     3
 72
    31
 73
    27
 74
     0
 42
0.00000001
 43
0.00000001
 12
1.0
 22
0.0
 32
0.0
 13
1.0
 23
0.0
 33
0.0
 40
0.0
 40
0.0
 40
0.0
 40
0.0
 40
0.013965561379445
 40
0.0279174505978447
 40
0.0418594746982517
 40
0.0557954488086082
 40
0.0697291930264101
 40
0.083664529282998
 40
0.0976052782003094
 40
0.1115552559530288
 40
0.1255182711489496
 40
0.1882318010486156
 40
0.2509530997153212
 40
0.3131212181199463
 40
0.3752977761161136
 40
0.5004787155721502
 40
0.6248959231127218
 40
0.687350493137144
 40
0.7498240781125429
 40
0.8123469569193136
 40
0.8748899727324632
 40
0.8999255859840777
 40
0.9249324023473634
 40
0.9499324116370241
 40
0.9749476216191995
 40
1.0
 40
1.0
 40
1.0
 40
1.0
 10
4.179883651074118
 20
5.141829871192394
 30
0.0
 10
4.177061040549529
 20
5.148695248561427
 30
0.0
 10
4.171418582811084
 20
5.162419282155784
 30
0.0
 10
4.162529338552177
 20
5.182816624233527
 30
0.0
 10
4.153334798261372
 20
5.203060086987199
 30
0.0
 10
4.143804096304812
 20
5.223137148324614
 30
0.0
 10
4.133945501607224
 20
5.243051150792431
 30
0.0
 10
4.123756788046236
 20
5.262801207367412
 30
0.0
 10
4.113238608644609
 20
5.282387498282363
 30
0.0
 10
4.102390591949383
 20
5.301810163638658
 30
0.0
 10
4.078211450615527
 20
5.343471463954358
 30
0.0
 10
4.038115188192068
 20
5.405868702679016
 30
0.0
 10
3.978046583283789
 20
5.485566970630231
 30
0.0
 10
3.912449793695465
 20
5.560411119106359
 30
0.0
 10
3.817834534383516
 20
5.653490744428733
 30
0.0
 10
3.68705219748628
 20
5.75631297294167
 30
0.0
 10
3.542390312919367
 20
5.838744972640569
 30
0.0
 10
3.420613338864145
 20
5.891291864028301
 30
0.0
 10
3.326368680262667
 20
5.923902691329342
 30
0.0
 10
3.229939320621759
 20
5.949489029889664
 30
0.0
 10
3.151440166571389
 20
5.964178259737727
 30
0.0
 10
3.092125354124338
 20
5.972134478558216
 30
0.0
 10
3.052447831248283
 20
5.976269758536512
 30
0.0
 10
3.012676573923243
 20
5.979202248997995
 30
0.0
 10
2.972810958775445
 20
5.981038904610991
 30
0.0
 10
2.946198677527457
 20
5.98126608086801
 30
0.0
 10
2.932882658897449
 20
5.981379753320311
 30
0.0
  0
SPLINE
  5
6C
330
1F
100
AcDbEntity
  8
0
  6
Continuous
 62
     7
370
    15
100
AcDbSpline
210
0.0
220
0.0
230
1.0
 70
     8
 71
     3
 72
    24
 73
    20
 74
     0
 42
0.00000001
 43
0.00000001
 12
1.0
 22
0.0
 32
0.0
 13
1.0
 23
0.0
 33
0.0
 40
0.0
 40
0.0
 40
0.0
 40
0.0
 40
0.0455619613103531
 40
0.0910636567995009
 40
0.1365186865191846
 40
0.1819406924385413
 40
0.2273433462943257
 40
0.2727403373074819
 40
0.3181453598208454
 40
0.3635721009137215
 40
0.409034228049278
 40
0.4545453768103183
 40
0.5001191387781428
 40
0.5835386673157242
 40
0.6668038939921992
 40
0.7499986461406115
 40
0.8332069640907023
 40
0.916512847116025
 40
0.9999999999999999
 40
0.9999999999999999
 40
0.9999999999999999
 40
0.9999999999999999
 10
5.275806711761986
 20
2.18305019843567
 30
0.0
 10
5.27573212286216
 20
2.190838440695344
 30
0.0
 10
5.275583043722905
 20
2.206404623533156
 30
0.0
 10
5.274849032459724
 20
2.229731478240429
 30
0.0
 10
5.273741296038871
 20
2.253018764974623
 30
0.0
 10
5.272223326408819
 20
2.276266310086421
 30
0.0
 10
5.270304891893081
 20
2.299474151919569
 30
0.0
 10
5.267983377602933
 20
2.322642272539481
 30
0.0
 10
5.265259484961286
 20
2.345770667329974
 30
0.0
 10
5.262133025855082
 20
2.368859334801575
 30
0.0
 10
5.258604057950797
 20
2.391908248015032
 30
0.0
 10
5.254672547880451
 20
2.41491747945093
 30
0.0
 10
5.249141432491231
 20
2.444231417654244
 30
0.0
 10
5.241546919531052
 20
2.479718143511852
 30
0.0
 10
5.231285203683926
 20
2.52118886058655
 30
0.0
 10
5.219727043986711
 20
2.562280660633642
 30
0.0
 10
5.206842187118051
 20
2.602980878502258
 30
0.0
 10
5.192743827322723
 20
2.643335355810443
 30
0.0
 10
5.182268535441223
 20
2.669855617076609
 30
0.0
 10
5.177025197252386
 20
2.683130158755048
 30
0.0
  0
SPLINE
  5
6E
330
1F
100
AcDbEntity
  8
0
  6
Continuous
 62
     7
370
    15
100
AcDbSpline
210
0.0
220
0.0
230
1.0
 70
     8
 71
     3
 72
    36
 73
    32
 74
     0
 42
0.00000001
 43
0.00000001
 12
1.0
 22
0.0
 32
0.0
 13
1.0
 23
0.0
 33
0.0
 40
0.0
 40
0.0
 40
0.0
 40
0.0
 40
0.0114290444434392
 40
0.022843797711503
 40
0.034247769211787
 40
0.0456444783120388
 40
0.0570374511102226
 40
0.0684302171734953
 40
0.0798263062611032
 40
0.0912292450463826
 40
0.1026425538530744
 40
0.1140697434209821
 40
0.1255143117157167
 40
0.1880009414437921
 40
0.2505338897475557
 40
0.3129570568197554
 40
0.37545461134186
 40
0.4377331598498014
 40
0.5000743379772854
 40
0.5626121918561798
 40
0.625228268245645
 40
0.6874250831641773
 40
0.7496597955735544
 40
0.8122646305493263
 40
0.8749406027696351
 40
0.8957995185005465
 40
0.916624047769504
 40
0.9374352644665679
 40
0.9582542829084788
 40
0.9791021937076722
 40
1.0
 40
1.0
 40
1.0
 40
1.0
 10
4.010151808623219
 20
-3.970455807170752
 30
0.0
 10
4.017999698246602
 20
-3.970108477785
 30
0.0
 10
4.033685664287417
 20
-3.969414253323222
 30
0.0
 10
4.057174641848483
 20
-3.967851784619167
 30
0.0
 10
4.080611989544681
 20
-3.96590850364039
 30
0.0
 10
4.103996237922069
 20
-3.9635470786702
 30
0.0
 10
4.127327771204284
 20
-3.960777500589243
 30
0.0
 10
4.150606479695734
 20
-3.957597093230834
 30
0.0
 10
4.17383237787043
 20
-3.954006581761059
 30
0.0
 10
4.197005477472103
 20
-3.950005747151353
 30
0.0
 10
4.220125677496179
 20
-3.945594749626383
 30
0.0
 10
4.243193332188927
 20
-3.940773178713074
 30
0.0
 10
4.300402935959513
 20
-3.927770382795508
 30
0.0
 10
4.39070284500665
 20
-3.901796266959467
 30
0.0
 10
4.510669045222065
 20
-3.854307236955033
 30
0.0
 10
4.62556394910423
 20
-3.795562373599169
 30
0.0
 10
4.734070115448561
 20
-3.72604648938235
 30
0.0
 10
4.835406484717054
 20
-3.646535564313939
 30
0.0
 10
4.928618820761011
 20
-3.557598899766159
 30
0.0
 10
5.013074492802495
 20
-3.459998278279742
 30
0.0
 10
5.087609788370814
 20
-3.354748536689291
 30
0.0
 10
5.151699915770463
 20
-3.243077426367139
 30
0.0
 10
5.204774715605918
 20
-3.125775757603154
 30
0.0
 10
5.24658648201994
 20
-3.00366184844087
 30
0.0
 10
5.269857846993856
 20
-2.905773005432649
 30
0.0
 10
5.28200793394113
 20
-2.835074076658065
 30
0.0
 10
5.287933498372625
 20
-2.792523272183695
 30
0.0
 10
5.292504604809541
 20
-2.749833439831735
 30
0.0
 10
5.295688581908404
 20
-2.70700366568621
 30
0.0
 10
5.297608271448358
 20
-2.664033831680928
 30
0.0
 10
5.297738301990763
 20
-2.635339210175303
 30
0.0
 10
5.297803394969794
 20
-2.620974751168849
 30
0.0
  0
SPLINE
  5
70
330
1F
100
AcDbEntity
  8
0
  6
Continuous
 62
     7
370
    15
100
AcDbSpline
210
0.0
220
0.0
230
1.0
 70
     8
 71
     3
 72
    36
 73
    32
 74
     0
 42
0.00000001
 43
0.00000001
 12
1.0
 22
0.0
 32
0.0
 13
1.0
 23
0.0
 33
0.0
 40
0.0
 40
0.0
 40
0.0
 40
0.0
 40
0.0114036901198097
 40
0.0227901493815814
 40
0.0341627708663209
 40
0.045524960052133
 40
0.0568801318032358
 40
0.0682317073169578
 40
0.0795831110422365
 40
0.0909377675834381
 40
0.1022990986034754
 40
0.1136705197402076
 40
0.1250554375499597
 40
0.1876962848352952
 40
0.2503295677411192
 40
0.3125588958395192
 40
0.3747565826222317
 40
0.437362205037046
 40
0.4999114656623255
 40
0.5622573355541398
 40
0.6245361251782158
 40
0.6870172923727448
 40
0.7494593729585085
 40
0.8119641075051318
 40
0.8744840225946628
 40
0.8954514468120036
 40
0.9163707035285157
 40
0.93726344841241
 40
0.9581514195907317
 40
0.9790563700824226
 40
1.0
 40
1.0
 40
1.0
 40
1.0
 10
-5.297803394969792
 20
-2.620974751168947
 30
0.0
 10
-5.297800195415839
 20
-2.628812891248424
 30
0.0
 10
-5.297793801142421
 20
-2.64447732805864
 30
0.0
 10
-5.297271404282723
 20
-2.6679539279878
 30
0.0
 10
-5.296373264659612
 20
-2.69138975265106
 30
0.0
 10
-5.295062735172048
 20
-2.714784963603612
 30
0.0
 10
-5.293349618430734
 20
-2.738139509080113
 30
0.0
 10
-5.291231289953866
 20
-2.761453396799216
 30
0.0
 10
-5.288708456270774
 20
-2.784726609341568
 30
0.0
 10
-5.285780916131775
 20
-2.807959170449196
 30
0.0
 10
-5.28244877329952
 20
-2.831150964514532
 30
0.0
 10
-5.278711821402826
 20
-2.854302393189778
 30
0.0
 10
-5.268359031314635
 20
-2.912077454978858
 30
0.0
 10
-5.246592113189723
 20
-3.003618888931311
 30
0.0
 10
-5.204792004067085
 20
-3.125725837030927
 30
0.0
 10
-5.151728075604796
 20
-3.243051290146521
 30
0.0
 10
-5.087636534167612
 20
-3.354710559916019
 30
0.0
 10
-5.01309264803569
 20
-3.459955103637609
 30
0.0
 10
-4.928645448330967
 20
-3.557567383829282
 30
0.0
 10
-4.835438301180266
 20
-3.646526425032749
 30
0.0
 10
-4.734103538056093
 20
-3.726028202162029
 30
0.0
 10
-4.625587127813677
 20
-3.79553058017942
 30
0.0
 10
-4.510716615792593
 20
-3.854282070207769
 30
0.0
 10
-4.390738333098613
 20
-3.901791443325835
 30
0.0
 10
-4.294135783912155
 20
-3.929570645801242
 30
0.0
 10
-4.224039657560172
 20
-3.944971479102655
 30
0.0
 10
-4.181612001491934
 20
-3.952873993714417
 30
0.0
 10
-4.139006685048994
 20
-3.95940284495877
 30
0.0
 10
-4.09622147120385
 20
-3.964525345210939
 30
0.0
 10
-4.053261685820081
 20
-3.968366549957762
 30
0.0
 10
-4.02452969882027
 20
-3.969758959111992
 30
0.0
 10
-4.010150427250347
 20
-3.970455807170753
 30
0.0
  0
CIRCLE
  5
71
330
1F
100
AcDbEntity
  8
0
  6
Continuous
 62
     7
370
    15
100
AcDbCircle
 10
-4.7166308847
 20
-3.3841115686
 30
0.0
 40
0.1042499999999995
  0
CIRCLE
  5
72
330
1F
100
AcDbEntity
  8
0
  6
Continuous
 62
     7
370
    15
100
AcDbCircle
 10
0.129999616
 20
4.5494861095
 30
0.0
 40
0.3125000000000089
  0
CIRCLE
  5
73
330
1F
100
AcDbEntity
  8
0
  6
Continuous
 62
     7
370
    15
100
AcDbCircle
 10
-2.7166308847
 20
-3.7005872543
 30
0.0
 40
0.1042500000000008
  0
CIRCLE
  5
74
330
1F
100
AcDbEntity
  8
0
  6
Continuous
 62
     7
370
    15
100
AcDbCircle
 10
0.7166218
 20
-3.7005872544
 30
0.0
 40
0.1042500000000004
  0
CIRCLE
  5
75
330
1F
100
AcDbEntity
  8
0
  6
Continuous
 62
     7
370
    15
100
AcDbCircle
 10
4.7166245431
 20
-3.3841180279
 30
0.0
 40
0.1042499999999991
  0
CIRCLE
  5
76
330
1F
100
AcDbEntity
  8
0
  6
Continuous
 62
     7
370
    15
100
AcDbCircle
 10
5.0131331915
 20
0.3853268883
 30
0.0
 40
0.1042500000000005
  0
CIRCLE
  5
77
330
1F
100
AcDbEntity
  8
0
  6
Continuous
 62
     7
370
    15
100
AcDbCircle
 10
4.4274137298
 20
3.8106639151
 30
0.0
 40
0.1042499999999995
  0
CIRCLE
  5
78
330
1F
100
AcDbEntity
  8
0
  6
Continuous
 62
     7
370
    15
100
AcDbCircle
 10
1.2621168204
 20
5.4393325968
 30
0.0
 40
0.1042500000000022
  0
CIRCLE
  5
79
330
1F
100
AcDbEntity
  8
0
  6
Continuous
 62
     7
370
    15
100
AcDbCircle
 10
-0.7936179935
 20
3.7794861095
 30
0.0
 40
0.10425
  0
CIRCLE
  5
7A
330
1F
100
AcDbEntity
  8
0
  6
Continuous
 62
     7
370
    15
100
AcDbCircle
 10
-3.5332423106
 20
5.5273406018
 30
0.0
 40
0.1042500000000022
  0
CIRCLE
  5
7B
330
1F
100
AcDbEntity
  8
0
  6
Continuous
 62
     7
370
    15
100
AcDbCircle
 10
-4.9845139936
 20
2.3853358213
 30
0.0
 40
0.1042500000000004
  0
SPLINE
  5
7C
330
1F
100
AcDbEntity
  8
0
  6
Continuous
 62
     7
370
    15
100
AcDbSpline
210
0.0
220
0.0
230
1.0
 70
     8
 71
     3
 72
    31
 73
    27
 74
     0
 42
0.00000001
 43
0.00000001
 12
1.0
 22
0.0
 32
0.0
 13
1.0
 23
0.0
 33
0.0
 40
0.0
 40
0.0
 40
0.0
 40
0.0
 40
0.0139656322743899
 40
0.0279174842503861
 40
0.0418593493896263
 40
0.0557950293093666
 40
0.0697283306896621
 40
0.0836630621598718
 40
0.0976030311771826
 40
0.1115520409099329
 40
0.1255138871384634
 40
0.188230660400017
 40
0.2509507171902421
 40
0.3131231926842863
 40
0.3752987222592346
 40
0.5004772447756535
 40
0.6248995400014111
 40
0.6873574249562777
 40
0.7498288415123682
 40
0.8123526709594838
 40
0.8748921652075553
 40
0.89992839826787
 40
0.9249352326318045
 40
0.9499347300785967
 40
0.9749489718002913
 40
1.0
 40
1.0
 40
1.0
 40
1.0
 10
-2.932882658897535
 20
5.98137975332031
 30
0.0
 10
-2.940305584798511
 20
5.981344313719149
 30
0.0
 10
-2.955144112182071
 20
5.981273469486126
 30
0.0
 10
-2.977386892788435
 20
5.980702759024659
 30
0.0
 10
-2.999601662306558
 20
5.979791914352897
 30
0.0
 10
-3.021788416756471
 20
5.978507687141337
 30
0.0
 10
-3.043947146018921
 20
5.976858979950507
 30
0.0
 10
-3.066077864719062
 20
5.974843400934262
 30
0.0
 10
-3.088180494660703
 20
5.972461621616721
 30
0.0
 10
-3.110255304652394
 20
5.969713351302936
 30
0.0
 10
-3.157951785099885
 20
5.962975635988694
 30
0.0
 10
-3.230848378025521
 20
5.949291859628599
 30
0.0
 10
-3.32729286811797
 20
5.923618095484786
 30
0.0
 10
-3.421319978435014
 20
5.891004040956253
 30
0.0
 10
-3.543163939474656
 20
5.838373308141806
 30
0.0
 10
-3.687650630875367
 20
5.755910305640974
 30
0.0
 10
-3.818473197395448
 20
5.652911311467386
 30
0.0
 10
-3.912987846232522
 20
5.559859085326907
 30
0.0
 10
-3.978664377743937
 20
5.484809960673489
 30
0.0
 10
-4.038646054159112
 20
5.405091574475669
 30
0.0
 10
-4.081780237553509
 20
5.337881435276587
 30
0.0
 10
-4.111456123203125
 20
5.285913088369052
 30
0.0
 10
-4.130206344531119
 20
5.250701689715894
 30
0.0
 10
-4.147875100282556
 20
5.214951072803113
 30
0.0
 10
-4.164561912306354
 20
5.178700925571125
 30
0.0
 10
-4.174773903661943
 20
5.154126241568595
 30
0.0
 10
-4.179883651074184
 20
5.141829871192228
 30
0.0
  0
SPLINE
  5
7E
330
1F
100
AcDbEntity
  8
0
  6
Continuous
 62
     7
370
    15
100
AcDbSpline
210
0.0
220
0.0
230
1.0
 70
     8
 71
     3
 72
    31
 73
    27
 74
     0
 42
0.00000001
 43
0.00000001
 12
1.0
 22
0.0
 32
0.0
 13
1.0
 23
0.0
 33
0.0
 40
0.0
 40
0.0
 40
0.0
 40
0.0
 40
0.0139446777139374
 40
0.0278771154842793
 40
0.041801300320576
 40
0.0557212263239061
 40
0.0696408912614365
 40
0.0835642931252076
 40
0.0974954266899616
 40
0.1114382800848007
 40
0.1253968313933347
 40
0.1880984379762168
 40
0.2508850487198557
 40
0.3130579204086309
 40
0.3752973875999258
 40
0.5003881503939972
 40
0.6249095197257629
 40
0.6873165416978333
 40
0.7497545430071978
 40
0.8123096657380463
 40
0.8748875621801442
 40
0.8999683342637724
 40
0.9249970634803708
 40
0.9499966166901131
 40
0.9749899408343249
 40
1.0
 40
1.0
 40
1.0
 40
1.0
 10
-0.7151012317713584
 20
5.106166063917688
 30
0.0
 10
-0.7177873463717329
 20
5.113267253670816
 30
0.0
 10
-0.7231572178348652
 20
5.127463400106378
 30
0.0
 10
-0.7316638142755154
 20
5.148573956608665
 30
0.0
 10
-0.740495677419872
 20
5.169535019025725
 30
0.0
 10
-0.7496855173240679
 20
5.190334392120952
 30
0.0
 10
-0.7592245658906202
 20
5.210975332332879
 30
0.0
 10
-0.7691151964486656
 20
5.231456969075252
 30
0.0
 10
-0.7793566660235706
 20
5.251779498999722
 30
0.0
 10
-0.7899495566361278
 20
5.271942977088058
 30
0.0
 10
-0.8136231748178137
 20
5.315219897303591
 30
0.0
 10
-0.8531635090763725
 20
5.380130520509802
 30
0.0
 10
-0.9128974313947115
 20
5.463136396159765
 30
0.0
 10
-0.9785750109882517
 20
5.541205013734198
 30
0.0
 10
-1.073719040840647
 20
5.638309316883657
 30
0.0
 10
-1.206056969879064
 20
5.745788599463181
 30
0.0
 10
-1.353231697008838
 20
5.832001768886806
 30
0.0
 10
-1.477471795606409
 20
5.887010409333849
 30
0.0
 10
-1.573723712662754
 20
5.921160631884933
 30
0.0
 10
-1.67235951502502
 20
5.947975927204821
 30
0.0
 10
-1.752772204008692
 20
5.96335758636136
 30
0.0
 10
-1.813562212607794
 20
5.97168701462712
 30
0.0
 10
-1.854231486616078
 20
5.976022437714438
 30
0.0
 10
-1.894965251553538
 20
5.979096401686342
 30
0.0
 10
-1.935764054645844
 20
5.981022134497705
 30
0.0
 10
-1.962988999407323
 20
5.981260520451946
 30
0.0
 10
-1.976606027580139
 20
5.98137975332031
 30
0.0
  0
SPLINE
  5
7F
330
1F
100
AcDbEntity
  8
0
  6
Continuous
 62
     7
370
    15
100
AcDbSpline
210
0.0
220
0.0
230
1.0
 70
     8
 71
     3
 72
    24
 73
    20
 74
     0
 42
0.00000001
 43
0.00000001
 12
1.0
 22
0.0
 32
0.0
 13
1.0
 23
0.0
 33
0.0
 40
0.0
 40
0.0
 40
0.0
 40
0.0
 40
0.0312977464473434
 40
0.0624880116946296
 40
0.0936632926589876
 40
0.1249162193013491
 40
0.1875220183025683
 40
0.2501875048523752
 40
0.3125293075097128
 40
0.3749272469143727
 40
0.499737983716747
 40
0.6247915749463552
 40
0.6870946978792143
 40
0.7494732553531973
 40
0.8119802489100791
 40
0.8745749904971246
 40
0.9163569862169626
 40
0.9580893520109545
 40
1.0
 40
1.0
 40
1.0
 40
1.0
 10
-0.5077328820772729
 20
5.034397386898912
 30
0.0
 10
-0.5099896281885478
 20
5.033082764047391
 30
0.0
 10
-0.5144953704032603
 20
5.030458032958266
 30
0.0
 10
-0.5215068367271111
 20
5.026995415412357
 30
0.0
 10
-0.5286793373252674
 20
5.023895900268551
 30
0.0
 10
-0.5384734480819398
 20
5.020293078306616
 30
0.0
 10
-0.5510812192217185
 20
5.016784752495145
 30
0.0
 10
-0.5665609740814959
 20
5.014271639796055
 30
0.0
 10
-0.5822065799146131
 20
5.013449628088306
 30
0.0
 10
-0.6030262878066788
 20
5.014647751596836
 30
0.0
 10
-0.6286609225492003
 20
5.020412182813858
 30
0.0
 10
-0.65240306353708
 20
5.031654560621265
 30
0.0
 10
-0.6695462053365666
 20
5.043556793425327
 30
0.0
 10
-0.6813371602363101
 20
5.053847032215017
 30
0.0
 10
-0.6919488070302545
 20
5.065378941556101
 30
0.0
 10
-0.7002020410178842
 20
5.076630802839067
 30
0.0
 10
-0.706476843369555
 20
5.087090002203858
 30
0.0
 10
-0.7112339735978018
 20
5.096426478874615
 30
0.0
 10
-0.7138103152524203
 20
5.102914925603295
 30
0.0
 10
-0.7151012317713579
 20
5.106166063917688
 30
0.0
  0
SPLINE
  5
81
330
1F
100
AcDbEntity
  8
0
  6
Continuous
 62
     7
370
    15
100
AcDbSpline
210
0.0
220
0.0
230
1.0
 70
     8
 71
     3
 72
    24
 73
    20
 74
     0
 42
0.00000001
 43
0.00000001
 12
1.0
 22
0.0
 32
0.0
 13
1.0
 23
0.0
 33
0.0
 40
0.0
 40
0.0
 40
0.0
 40
0.0
 40
0.0312964790304497
 40
0.0624837860887012
 40
0.0936564998938886
 40
0.1249093316536867
 40
0.1874996759058711
 40
0.2501729751619139
 40
0.3125128731576243
 40
0.3749492716642303
 40
0.4997166552391977
 40
0.6247802577170601
 40
0.6870802816243297
 40
0.7494961494466471
 40
0.8119599307505639
 40
0.8745345702694042
 40
0.9163285782903811
 40
0.9580760109950299
 40
1.0
 40
1.0
 40
1.0
 40
1.0
 10
0.715100058738501
 20
5.106185639429035
 30
0.0
 10
0.7141493158919239
 20
5.103753020063583
 30
0.0
 10
0.7122511466891488
 20
5.098896267074911
 30
0.0
 10
0.7089054394717769
 20
5.09182818562065
 30
0.0
 10
0.7052040529901386
 20
5.084946814954677
 30
0.0
 10
0.6997540559352199
 20
5.076048092565361
 30
0.0
 10
0.692027855102952
 20
5.065484430720565
 30
0.0
 10
0.6814173927387308
 20
5.053935292506622
 30
0.0
 10
0.6696175411075087
 20
5.043620855821655
 30
0.0
 10
0.652494119537648
 20
5.031715339403861
 30
0.0
 10
0.6287531238906515
 20
5.020450159836263
 30
0.0
 10
0.6031310112772261
 20
5.01466659451341
 30
0.0
 10
0.5822918977611631
 20
5.013453605161441
 30
0.0
 10
0.5666632700818123
 20
5.014263779545378
 30
0.0
 10
0.5511944395071807
 20
5.016764104958816
 30
0.0
 10
0.5377500269733023
 20
5.020486336636964
 30
0.0
 10
0.5263405523765725
 20
5.024801607595418
 30
0.0
 10
0.5168124060130012
 20
5.029171168985314
 30
0.0
 10
0.5107593632644936
 20
5.032654945136136
 30
0.0
 10
0.507726455582875
 20
5.034400508795251
 30
0.0
  0
SPLINE
  5
82
330
1F
100
AcDbEntity
  8
0
  6
Continuous
 62
     7
370
    15
100
AcDbSpline
210
0.0
220
0.0
230
1.0
 70
     8
 71
     3
 72
    31
 73
    27
 74
     0
 42
0.00000001
 43
0.00000001
 12
1.0
 22
0.0
 32
0.0
 13
1.0
 23
0.0
 33
0.0
 40
0.0
 40
0.0
 40
0.0
 40
0.0
 40
0.0139677769557198
 40
0.0279173765189573
 40
0.0418527531869379
 40
0.0557778735740704
 40
0.0696967130633217
 40
0.0836132524202431
 40
0.0975314743839786
 40
0.1114553602498091
 40
0.1253888864578918
 40
0.1881530071596483
 40
0.2508761361314836
 40
0.3131106654411082
 40
0.3752994514792971
 40
0.5003825515928694
 40
0.6249151952876498
 40
0.6872962432166876
 40
0.749762041976015
 40
0.8123071991371491
 40
0.8748904273533332
 40
0.8999521474741438
 40
0.9249707380460012
 40
0.9499694045615649
 40
0.9749714079908182
 40
1.0
 40
1.0
 40
1.0
 40
1.0
 10
1.976606027580329
 20
5.981379753320311
 30
0.0
 10
1.969001373699921
 20
5.981342728355229
 30
0.0
 10
1.953801962487333
 20
5.981268726608632
 30
0.0
 10
1.931021978392345
 20
5.980672277205787
 30
0.0
 10
1.908278121370393
 20
5.979720271681549
 30
0.0
 10
1.885570395516966
 20
5.978377990698646
 30
0.0
 10
1.862898812603257
 20
5.976654722361314
 30
0.0
 10
1.840263354816229
 20
5.974547986174817
 30
0.0
 10
1.817664115090475
 20
5.972058425322913
 30
0.0
 10
1.795100772693427
 20
5.969185949261993
 30
0.0
 10
1.746269704615124
 20
5.962128497871411
 30
0.0
 10
1.671643469643194
 20
5.947798644729875
 30
0.0
 10
1.572945535581457
 20
5.920905616538497
 30
0.0
 10
1.476841871057784
 20
5.88675546971377
 30
0.0
 10
1.352548436896249
 20
5.831682784861918
 30
0.0
 10
1.205541607977663
 20
5.74540275733477
 30
0.0
 10
1.073194566525496
 20
5.637828062154179
 30
0.0
 10
0.9781263936400831
 20
5.540742678091041
 30
0.0
 10
0.9124381464998154
 20
5.462545746328698
 30
0.0
 10
0.8527832569977916
 20
5.379529257318094
 30
0.0
 10
0.8102300182696889
 20
5.309602105573651
 30
0.0
 10
0.7811583758813925
 20
5.255583641962594
 30
0.0
 10
0.7628819454487128
 20
5.219013197977298
 30
0.0
 10
0.7457656390034821
 20
5.181924242022226
 30
0.0
 10
0.7297033662415097
 20
5.144355588537272
 30
0.0
 10
0.7199695522396458
 20
5.118913462840501
 30
0.0
 10
0.7151000587384999
 20
5.106185639429035
 30
0.0
  0
LINE
  5
84
330
1F
100
AcDbEntity
  8
0
  6
Continuous
 62
     7
370
    15
100
AcDbLine
 10
-3.9396556895
 20
-3.3067616091
 30
0.0
 11
3.9396556895
 21
-3.3067616091
 31
0.0
  0
LINE
  5
85
330
1F
100
AcDbEntity
  8
0
  6
Continuous
 62
     7
370
    15
100
AcDbLine
 10
4.6436959635
 20
-2.5952302828
 30
0.0
 11
4.6217815659
 21
2.1908236794
 31
0.0
  0
LINE
  5
86
330
1F
100
AcDbEntity
  8
0
  6
Continuous
 62
     7
370
    15
100
AcDbLine
 10
4.5695970097
 20
2.4548729299
 30
0.0
 11
3.5797408049
 21
4.8956088268
 31
0.0
  0
LINE
  5
87
330
1F
100
AcDbEntity
  8
0
  6
Continuous
 62
     7
370
    15
100
AcDbLine
 10
2.9220498273
 20
5.3381869586
 30
0.0
 11
1.9927813806
 21
5.3381869586
 31
0.0
  0
LINE
  5
88
330
1F
100
AcDbEntity
  8
0
  6
Continuous
 62
     7
370
    15
100
AcDbLine
 10
1.2873713024
 20
4.7121122605
 30
0.0
 11
1.164448694
 21
3.6629160673
 31
0.0
  0
LINE
  5
89
330
1F
100
AcDbEntity
  8
0
  6
Continuous
 62
     7
370
    15
100
AcDbLine
 10
0.8763234508
 20
3.407195416
 30
0.0
 11
-0.8763234508
 21
3.407195416
 31
0.0
  0
LINE
  5
8A
330
1F
100
AcDbEntity
  8
0
  6
Continuous
 62
     7
370
    15
100
AcDbLine
 10
-1.164448694
 20
3.6629160673
 30
0.0
 11
-1.2873713024
 21
4.7121122605
 31
0.0
  0
LINE
  5
8B
330
1F
100
AcDbEntity
  8
0
  6
Continuous
 62
     7
370
    15
100
AcDbLine
 10
-1.9927813806
 20
5.3381869586
 30
0.0
 11
-2.9220498273
 21
5.3381869586
 31
0.0
  0
LINE
  5
8C
330
1F
100
AcDbEntity
  8
0
  6
Continuous
 62
     7
370
    15
100
AcDbLine
 10
-3.5797408049
 20
4.8956088268
 30
0.0
 11
-4.5695970097
 21
2.4548729299
 31
0.0
  0
LINE
  5
8D
330
1F
100
AcDbEntity
  8
0
  6
Continuous
 62
     7
370
    15
100
AcDbLine
 10
-4.6217815659
 20
2.1908236794
 30
0.0
 11
-4.6436959635
 21
-2.5952302828
 31
0.0
  0
LINE
  5
8E
330
1F
100
AcDbEntity
  8
0
  6
Continuous
 62
     7
370
    15
100
AcDbLine
 10
-5.2758067118
 20
2.1830501984
 30
0.0
 11
-5.297803395
 21
-2.6209747512
 31
0.0
  0
LINE
  5
8F
330
1F
100
AcDbEntity
  8
0
  6
Continuous
 62
     7
370
    15
100
AcDbLine
 10
-4.1798836511
 20
5.1418298712
 30
0.0
 11
-5.1770251973
 21
2.6831301588
 31
0.0
  0
LINE
  5
90
330
1F
100
AcDbEntity
  8
0
  6
Continuous
 62
     7
370
    15
100
AcDbLine
 10
5.1770251973
 20
2.6831301588
 30
0.0
 11
4.1798836511
 21
5.1418298712
 31
0.0
  0
LINE
  5
91
330
1F
100
AcDbEntity
  8
0
  6
Continuous
 62
     7
370
    15
100
AcDbLine
 10
5.297803395
 20
-2.6209747512
 30
0.0
 11
5.2758067118
 21
2.1830501984
 31
0.0
  0
LINE
  5
92
330
1F
100
AcDbEntity
  8
0
  6
Continuous
 62
     7
370
    15
100
AcDbLine
 10
-4.0101504273
 20
-3.9704558072
 30
0.0
 11
4.0101518086
 21
-3.9704558072
 31
0.0
  0
LINE
  5
93
330
1F
100
AcDbEntity
  8
0
  6
Continuous
 62
     7
370
    15
100
AcDbLine
 10
-1.9766060276
 20
5.9813797533
 30
0.0
 11
-2.9328826589
 21
5.9813797533
 31
0.0
  0
LINE
  5
94
330
1F
100
AcDbEntity
  8
0
  6
Continuous
 62
     7
370
    15
100
AcDbLine
 10
2.9328826589
 20
5.9813797533
 30
0.0
 11
1.9766060276
 21
5.9813797533
 31
0.0
  0
ARC
  5
95
330
1F
100
AcDbEntity
  8
0
  6
Continuous
 62
     7
370
    15
100
AcDbCircle
 10
3.938891742
 20
-2.6019259974
 30
0.0
 40
0.7048360257408739
100
AcDbArc
 50
270.0621009341
 51
0.5442995824
  0
ARC
  5
96
330
1F
100
AcDbEntity
  8
0
  6
Continuous
 62
     7
370
    15
100
AcDbCircle
 10
3.9105189448
 20
2.187436785
 30
0.0
 40
0.7112706848902699
100
AcDbArc
 50
0.2728293046
 51
22.0859905018
  0
ARC
  5
97
330
1F
100
AcDbEntity
  8
0
  6
Continuous
 62
     7
370
    15
100
AcDbCircle
 10
2.9224265097
 20
4.6287784966
 30
0.0
 40
0.7094085620068499
100
AcDbArc
 50
22.0942134853
 51
90.030422963
  0
ARC
  5
98
330
1F
100
AcDbEntity
  8
0
  6
Continuous
 62
     7
370
    15
100
AcDbCircle
 10
1.9916936083
 20
4.6289758551
 30
0.0
 40
0.7092119376753411
100
AcDbArc
 50
89.9121210765
 51
173.2681020748
  0
ARC
  5
99
330
1F
100
AcDbEntity
  8
0
  6
Continuous
 62
     7
370
    15
100
AcDbCircle
 10
0.8767677522
 20
3.6968731906
 30
0.0
 40
0.2896781153885225
100
AcDbArc
 50
269.9121210765
 51
353.2681020748
  0
ARC
  5
9A
330
1F
100
AcDbEntity
  8
0
  6
Continuous
 62
     7
370
    15
100
AcDbCircle
 10
-0.8767677522
 20
3.6968731906
 30
0.0
 40
0.2896781153885209
100
AcDbArc
 50
186.7318979252
 51
270.0878789236
  0
ARC
  5
9B
330
1F
100
AcDbEntity
  8
0
  6
Continuous
 62
     7
370
    15
100
AcDbCircle
 10
-1.9916936083
 20
4.6289758551
 30
0.0
 40
0.7092119376753429
100
AcDbArc
 50
6.7318979252
 51
90.0878789235
  0
ARC
  5
9C
330
1F
100
AcDbEntity
  8
0
  6
Continuous
 62
     7
370
    15
100
AcDbCircle
 10
-2.9224265097
 20
4.6287784966
 30
0.0
 40
0.7094085620068525
100
AcDbArc
 50
89.969577037
 51
157.9057865147
  0
ARC
  5
9D
330
1F
100
AcDbEntity
  8
0
  6
Continuous
 62
     7
370
    15
100
AcDbCircle
 10
-3.9105189448
 20
2.187436785
 30
0.0
 40
0.7112706848902693
100
AcDbArc
 50
157.9140094982
 51
179.7271706954
  0
ARC
  5
9E
330
1F
100
AcDbEntity
  8
0
  6
Continuous
 62
     7
370
    15
100
AcDbCircle
 10
-3.9390126768
 20
-2.6020456589
 30
0.0
 40
0.7047162435406187
100
AcDbArc
 50
179.4458785692
 51
269.9477209142
  0
ARC
  5
9F
330
1F
100
AcDbEntity
  8
0
  6
Continuous
 62
     7
370
    15
100
AcDbCircle
 10
-0.0000006284
 20
4.1936186828
 30
0.0
 40
0.9821918706229843
100
AcDbArc
 50
58.8732737337
 51
121.127078563
  0
ENDSEC
  0
SECTION
  2
OBJECTS
  0
DICTIONARY
  5
C
330
0
100
AcDbDictionary
281
     1
  3
ACAD_GROUP
350
D
  3
ACAD_LAYOUT
350
1A
  3
ACAD_MLINESTYLE
350
17
  3
ACAD_PLOTSETTINGS
350
19
  3
ACAD_PLOTSTYLENAME
350
E
  0
DICTIONARY
  5
D
102
{ACAD_REACTORS
330
C
102
}
330
C
100
AcDbDictionary
281
     1
  0
DICTIONARY
  5
1A
102
{ACAD_REACTORS
330
C
102
}
330
C
100
AcDbDictionary
281
     1
  3
Layout1
350
1E
  3
Layout2
350
26
  3
Model
350
22
  0
DICTIONARY
  5
17
102
{ACAD_REACTORS
330
C
102
}
330
C
100
AcDbDictionary
281
     1
  3
Standard
350
18
  0
DICTIONARY
  5
19
102
{ACAD_REACTORS
330
C
102
}
330
C
100
AcDbDictionary
281
     1
  0
ACDBDICTIONARYWDFLT
  5
E
102
{ACAD_REACTORS
330
C
102
}
330
C
100
AcDbDictionary
281
     1
  3
Normal
350
F
100
AcDbDictionaryWithDefault
340
F
  0
LAYOUT
  5
1E
102
{ACAD_REACTORS
330
1A
102
}
330
1A
100
AcDbPlotSettings
  1

  2
none_device
  4

  6

 40
0.0
 41
0.0
 42
0.0
 43
0.0
 44
0.0
 45
0.0
 46
0.0
 47
0.0
 48
0.0
 49
0.0
140
0.0
141
0.0
142
1.0
143
1.0
 70
   688
 72
     0
 73
     0
 74
     5
  7

 75
    16
147
1.0
148
0.0
149
0.0
100
AcDbLayout
  1
Layout1
 70
     1
 71
     1
 10
0.0
 20
0.0
 11
12.0
 21
9.0
 12
0.0
 22
0.0
 32
0.0
 14
1.0000000000E+20
 24
1.0000000000E+20
 34
1.0000000000E+20
 15
-1.0000000000E+20
 25
-1.0000000000E+20
 35
-1.0000000000E+20
146
0.0
 13
0.0
 23
0.0
 33
0.0
 16
1.0
 26
0.0
 36
0.0
 17
0.0
 27
1.0
 37
0.0
 76
     0
330
1B
  0
LAYOUT
  5
26
102
{ACAD_REACTORS
330
1A
102
}
330
1A
100
AcDbPlotSettings
  1

  2
none_device
  4

  6

 40
0.0
 41
0.0
 42
0.0
 43
0.0
 44
0.0
 45
0.0
 46
0.0
 47
0.0
 48
0.0
 49
0.0
140
0.0
141
0.0
142
1.0
143
1.0
 70
   688
 72
     0
 73
     0
 74
     5
  7

 75
    16
147
1.0
148
0.0
149
0.0
100
AcDbLayout
  1
Layout2
 70
     1
 71
     2
 10
0.0
 20
0.0
 11
0.0
 21
0.0
 12
0.0
 22
0.0
 32
0.0
 14
0.0
 24
0.0
 34
0.0
 15
0.0
 25
0.0
 35
0.0
146
0.0
 13
0.0
 23
0.0
 33
0.0
 16
1.0
 26
0.0
 36
0.0
 17
0.0
 27
1.0
 37
0.0
 76
     0
330
23
  0
LAYOUT
  5
22
102
{ACAD_REACTORS
330
1A
102
}
330
1A
100
AcDbPlotSettings
  1

  2
none_device
  4
ANSI_A_(11.00_x_8.50_Inches)
  6

 40
6.35
 41
19.05
 42
6.35000508
 43
19.05000254
 44
279.4
 45
215.9
 46
133.34999746
 47
67.3051435618
 48
0.0
 49
0.0
140
0.0
141
0.0
142
0.8455726533
143
1.0
 70
  1696
 72
     0
 73
     0
 74
     0
  7

 75
     0
147
0.5913241897
148
0.0
149
0.0
100
AcDbLayout
  1
Model
 70
     1
 71
     0
 10
0.0
 20
0.0
 11
12.0
 21
9.0
 12
0.0
 22
0.0
 32
0.0
 14
-5.297803395
 24
-3.9704558072
 34
0.0
 15
5.297803395
 25
5.9813797533
 35
0.0
146
0.0
 13
0.0
 23
0.0
 33
0.0
 16
1.0
 26
0.0
 36
0.0
 17
0.0
 27
1.0
 37
0.0
 76
     0
330
1F
331
29
  0
MLINESTYLE
  5
18
102
{ACAD_REACTORS
330
17
102
}
330
17
100
AcDbMlineStyle
  2
Standard
 70
     0
  3

 62
   256
 51
90.0
 52
90.0
 71
     2
 49
0.5
 62
   256
  6
BYLAYER
 49
-0.5
 62
   256
  6
BYLAYER
  0
ACDBPLACEHOLDER
  5
F
102
{ACAD_REACTORS
330
E
102
}
330
E
  0
ENDSEC
  0
EOF
