  0
SECTION
  2
HEADER
  9
$ACADVER
  1
AC1015
  9
$ACADMAINTVER
 70
     6
  9
$DWGCODEPAGE
  3
ANSI_932
  9
$INSBASE
 10
0.0
 20
0.0
 30
0.0
  9
$EXTMIN
 10
0.50574
 20
0.447862
 30
1.000000E+20
  9
$EXTMAX
 10
203.043248
 20
202.799508
 30
-1.000000E+20
  9
$LIMMIN
 10
0.50574
 20
0.447862
  9
$LIMMAX
 10
203.043248
 20
202.799508
  9
$ORTHOMODE
 70
     0
  9
$REGENMODE
 70
     1
  9
$FILLMODE
 70
     1
  9
$QTEXTMODE
 70
     0
  9
$MIRRTEXT
 70
     1
  9
$LTSCALE
 40
1.0
  9
$ATTMODE
 70
     1
  9
$TEXTSIZE
 40
0.2
  9
$TRACEWID
 40
0.05
  9
$TEXTSTYLE
  7
Standard
  9
$CLAYER
  8
0
  9
$CELTYPE
  6
Continuous
  9
$CECOLOR
 62
   256
  9
$CELTSCALE
 40
1.0
  9
$DISPSILH
 70
     0
  9
$DIMSCALE
 40
1.0
  9
$DIMASZ
 40
0.18
  9
$DIMEXO
 40
0.0625
  9
$DIMDLI
 40
0.38
  9
$DIMRND
 40
0.0
  9
$DIMDLE
 40
0.0
  9
$DIMEXE
 40
0.18
  9
$DIMTP
 40
0.0
  9
$DIMTM
 40
0.0
  9
$DIMTXT
 40
0.18
  9
$DIMCEN
 40
0.09
  9
$DIMTSZ
 40
0.0
  9
$DIMTOL
 70
     0
  9
$DIMLIM
 70
     0
  9
$DIMTIH
 70
     1
  9
$DIMTOH
 70
     1
  9
$DIMSE1
 70
     0
  9
$DIMSE2
 70
     0
  9
$DIMTAD
 70
     0
  9
$DIMZIN
 70
     0
  9
$DIMBLK
  1

  9
$DIMASO
 70
     1
  9
$DIMSHO
 70
     1
  9
$DIMPOST
  1

  9
$DIMAPOST
  1

  9
$DIMALT
 70
     0
  9
$DIMALTD
 70
     2
  9
$DIMALTF
 40
25.4
  9
$DIMLFAC
 40
1.0
  9
$DIMTOFL
 70
     0
  9
$DIMTVP
 40
0.0
  9
$DIMTIX
 70
     0
  9
$DIMSOXD
 70
     0
  9
$DIMSAH
 70
     0
  9
$DIMBLK1
  1

  9
$DIMBLK2
  1

  9
$DIMSTYLE
  2
Standard
  9
$DIMCLRD
 70
     0
  9
$DIMCLRE
 70
     0
  9
$DIMCLRT
 70
     0
  9
$DIMTFAC
 40
1.0
  9
$DIMGAP
 40
0.09
  9
$DIMJUST
 70
     0
  9
$DIMSD1
 70
     0
  9
$DIMSD2
 70
     0
  9
$DIMTOLJ
 70
     1
  9
$DIMTZIN
 70
     0
  9
$DIMALTZ
 70
     0
  9
$DIMALTTZ
 70
     0
  9
$DIMUPT
 70
     0
  9
$DIMDEC
 70
     4
  9
$DIMTDEC
 70
     4
  9
$DIMALTU
 70
     2
  9
$DIMALTTD
 70
     2
  9
$DIMTXSTY
  7
Standard
  9
$DIMAUNIT
 70
     0
  9
$DIMADEC
 70
     0
  9
$DIMALTRND
 40
0.0
  9
$DIMAZIN
 70
     0
  9
$DIMDSEP
 70
     0
  9
$DIMATFIT
 70
     3
  9
$DIMFRAC
 70
     0
  9
$DIMLDRBLK
  1

  9
$DIMLUNIT
 70
     2
  9
$DIMLWD
 70
     0
  9
$DIMLWE
 70
     0
  9
$DIMTMOVE
 70
     0
  9
$LUNITS
 70
     2
  9
$LUPREC
 70
     4
  9
$SKETCHINC
 40
0.1
  9
$FILLETRAD
 40
0.0
  9
$AUNITS
 70
     0
  9
$AUPREC
 70
     0
  9
$MENU
  1
acad
  9
$ELEVATION
 40
0.0
  9
$PELEVATION
 40
0.0
  9
$THICKNESS
 40
0.0
  9
$LIMCHECK
 70
     0
  9
$CHAMFERA
 40
0.0
  9
$CHAMFERB
 40
0.0
  9
$CHAMFERC
 40
0.0
  9
$CHAMFERD
 40
0.0
  9
$SKPOLY
 70
     0
  9
$TDCREATE
 40
0.000000000
  9
$TDUCREATE
 40
0.000000000
  9
$TDUPDATE
 40
0.000000000
  9
$TDUUPDATE
 40
0.000000000
  9
$TDINDWG
 40
0.0000000000
  9
$TDUSRTIMER
 40
0.0000000000
  9
$USRTIMER
 70
     1
  9
$ANGBASE
 50
0.0
  9
$ANGDIR
 70
     0
  9
$PDMODE
 70
     0
  9
$PDSIZE
 40
0.0
  9
$PLINEWID
 40
0.0
  9
$SPLFRAME
 70
     0
  9
$SPLINETYPE
 70
     6
  9
$SPLINESEGS
 70
     8
  9
$HANDSEED
  5
41
  9
$SURFTAB1
 70
     6
  9
$SURFTAB2
 70
     6
  9
$SURFTYPE
 70
     6
  9
$SURFU
 70
     6
  9
$SURFV
 70
     6
  9
$UCSBASE
  2

  9
$UCSNAME
  2

  9
$UCSORG
 10
0.0
 20
0.0
 30
0.0
  9
$UCSXDIR
 10
1.0
 20
0.0
 30
0.0
  9
$UCSYDIR
 10
0.0
 20
1.0
 30
0.0
  9
$UCSORTHOREF
  2

  9
$UCSORTHOVIEW
 70
     0
  9
$UCSORGTOP
 10
0.0
 20
0.0
 30
0.0
  9
$UCSORGBOTTOM
 10
0.0
 20
0.0
 30
0.0
  9
$UCSORGLEFT
 10
0.0
 20
0.0
 30
0.0
  9
$UCSORGRIGHT
 10
0.0
 20
0.0
 30
0.0
  9
$UCSORGFRONT
 10
0.0
 20
0.0
 30
0.0
  9
$UCSORGBACK
 10
0.0
 20
0.0
 30
0.0
  9
$PUCSBASE
  2

  9
$PUCSNAME
  2

  9
$PUCSORG
 10
0.0
 20
0.0
 30
0.0
  9
$PUCSXDIR
 10
1.0
 20
0.0
 30
0.0
  9
$PUCSYDIR
 10
0.0
 20
1.0
 30
0.0
  9
$PUCSORTHOREF
  2

  9
$PUCSORTHOVIEW
 70
     0
  9
$PUCSORGTOP
 10
0.0
 20
0.0
 30
0.0
  9
$PUCSORGBOTTOM
 10
0.0
 20
0.0
 30
0.0
  9
$PUCSORGLEFT
 10
0.0
 20
0.0
 30
0.0
  9
$PUCSORGRIGHT
 10
0.0
 20
0.0
 30
0.0
  9
$PUCSORGFRONT
 10
0.0
 20
0.0
 30
0.0
  9
$PUCSORGBACK
 10
0.0
 20
0.0
 30
0.0
  9
$USERI1
 70
     0
  9
$USERI2
 70
     0
  9
$USERI3
 70
     0
  9
$USERI4
 70
     0
  9
$USERI5
 70
     0
  9
$USERR1
 40
0.0
  9
$USERR2
 40
0.0
  9
$USERR3
 40
0.0
  9
$USERR4
 40
0.0
  9
$USERR5
 40
0.0
  9
$WORLDVIEW
 70
     1
  9
$SHADEDGE
 70
     3
  9
$SHADEDIF
 70
    70
  9
$TILEMODE
 70
     1
  9
$MAXACTVP
 70
    16
  9
$PINSBASE
 10
0.0
 20
0.0
 30
0.0
  9
$PLIMCHECK
 70
     0
  9
$PEXTMIN
 10
1.000000E+20
 20
1.000000E+20
 30
1.000000E+20
  9
$PEXTMAX
 10
-1.000000E+20
 20
-1.000000E+20
 30
-1.000000E+20
  9
$PLIMMIN
 10
0.0
 20
0.0
  9
$PLIMMAX
 10
12.0
 20
9.0
  9
$UNITMODE
 70
     0
  9
$VISRETAIN
 70
     0
  9
$PLINEGEN
 70
     1
  9
$PSLTSCALE
 70
     0
  9
$TREEDEPTH
 70
  3020
  9
$CMLSTYLE
  2
Standard
  9
$CMLJUST
 70
     0
  9
$CMLSCALE
 40
1.0
  9
$PROXYGRAPHICS
 70
     0
  9
$MEASUREMENT
 70
     1
  9
$CELWEIGHT
370
     0
  9
$ENDCAPS
280
     0
  9
$JOINSTYLE
280
     0
  9
$LWDISPLAY
290
     0
  9
$INSUNITS
 70
     0
  9
$HYPERLINKBASE
  1

  9
$STYLESHEET
  1

  9
$XEDIT
290
     1
  9
$CEPSNTYPE
380
     0
  9
$PSTYLEMODE
290
     1
  9
$FINGERPRINTGUID
  2

  9
$VERSIONGUID
  2

  9
$EXTNAMES
290
     1
  9
$PSVPSCALE
 40
0.0
  0
ENDSEC
  0
SECTION
  2
CLASSES
  0
CLASS
  1
LWPOLYLINE
  2
AcDbPolyline
  3
AutoCAD 2000
 90
        0
280
     0
281
     1
  0
CLASS
  1
IMAGE
  2
AcDbRasterImage
  3
ISM
 90
      127
280
     0
281
     1
  0
CLASS
  1
OLE2FRAME
  2
AcDbOle2Frame
  3
AutoCAD 2000
 90
        0
280
     0
281
     1
  0
CLASS
  1
HATCH
  2
AcDbHatch
  3
AutoCAD 2000
 90
        0
280
     0
281
     1
  0
CLASS
  1
DICTIONARYVAR
  2
AcDbDictionaryVar
  3
AutoCAD 2000
 90
        0
280
     0
281
     0
  0
CLASS
  1
RASTERVARIABLES
  2
AcDbRasterVariables
  3
ISM
 90
        0
280
     0
281
     0
  0
CLASS
  1
IMAGEDEF
  2
AcDbRasterImageDef
  3
ISM
 90
        0
280
     0
281
     0
  0
CLASS
  1
IMAGEDEF_REACTOR
  2
AcDbRasterImageDefReactor
  3
ISM
 90
        1
280
     0
281
     0
  0
CLASS
  1
IDBUFFER
  2
AcDbIdBuffer
  3
AutoCAD 2000
 90
        0
280
     0
281
     0
  0
CLASS
  1
SPATIAL_FILTER
  2
AcDbSpatialFilter
  3
AutoCAD 2000
 90
        0
280
     0
281
     0
  0
CLASS
  1
XRECORD
  2
AcDbXrecord
  3
AutoCAD 2000
 90
        0
280
     0
281
     0
  0
CLASS
  1
SORTENTSTABLE
  2
AcDbSortentsTable
  3
AutoCAD 2000
 90
        0
280
     0
281
     0
  0
CLASS
  1
LAYER_INDEX
  2
AcDbLayerIndex
  3
AutoCAD 2000
 90
        0
280
     0
281
     0
  0
CLASS
  1
SPATIAL_INDEX
  2
AcDbSpatialIndex
  3
AutoCAD 2000
 90
        0
280
     0
281
     0
  0
CLASS
  1
OBJECT_PTR
  2
CAseDLPNTableRecord
  3
"ASE-LPNTableRecord"
 90
        1
280
     0
281
     0
  0
CLASS
  1
LAYOUT
  2
AcDbLayout
  3
AutoCAD 2000
 90
        0
280
     0
281
     0
  0
CLASS
  1
PLOTSETTINGS
  2
AcDbPlotSettings
  3
AutoCAD 2000
 90
        0
280
     0
281
     0
  0
CLASS
  1
ACDBDICTIONARYWDFLT
  2
AcDbDictionaryWithDefault
  3
AutoCAD 2000
 90
        0
280
     0
281
     0
  0
CLASS
  1
ACDBPLACEHOLDER
  2
AcDbPlaceHolder
  3
AutoCAD 2000
 90
        0
280
     0
281
     0
  0
CLASS
  1
VBA_PROJECT
  2
AcDbVbaProject
  3
acadvba
 90
        0
280
     0
281
     0
  0
CLASS
  1
WIPEOUT
  2
AcDbWipeout
  3
WipeOut|AutoCAD Express Tool|expresstools@autodesk.com
 90
      127
280
     0
281
     1
  0
CLASS
  1
WIPEOUTVARIABLES
  2
AcDbWipeoutVariables
  3
WipeOut|AutoCAD Express Tool|expresstools@autodesk.com
 90
        0
280
     0
281
     0
  0
CLASS
  1
RTEXT
  2
RText
  3
RText|AutoCAD Express Tool|expresstools@autodesk.com
 90
        0
280
     0
281
     1
  0
CLASS
  1
ARCALIGNEDTEXT
  2
AcDbArcAlignedText
  3
ATEXT|AutoCAD Express Tool|expresstools@autodesk.com
 90
        0
280
     0
281
     1
  0
ENDSEC
  0
SECTION
  2
TABLES
  0
TABLE
  2
VPORT
  5
7
100
AcDbSymbolTable
 70
     1
  0
VPORT
  5
15
100
AcDbSymbolTableRecord
100
AcDbViewportTableRecord
  2
*ACTIVE
 70
     0
 10
0.0
 20
0.0
 11
1.0
 21
1.0
 12
6.591288
 22
4.579184
 13
0.0
 23
0.0
 14
1.0
 24
1.0
 15
0.0
 25
0.0
 16
0.0
 26
0.0
 36
1.0
 17
0.0
 27
0.0
 37
0.0
 40
9.158369
 41
0.688564
 42
50.0
 43
0.0
 44
0.0
 50
0.0
 51
0.0
 71
     0
 72
   100
 73
     1
 74
     1
 75
     0
 76
     0
 77
     0
 78
     0
281
     0
 65
     0
110
0.0
120
0.0
130
0.0
111
1.0
121
0.0
131
0.0
112
0.0
122
1.0
132
0.0
345
0
346
0
 79
     0
146
0.0
  0
ENDTAB
  0
TABLE
  2
LTYPE
  5
4
100
AcDbSymbolTable
 70
     3
  0
LTYPE
  5
11
100
AcDbSymbolTableRecord
100
AcDbLinetypeTableRecord
  2
ByBlock
 70
    64
  3

 72
    65
 73
     0
 40
0.0
  0
LTYPE
  5
12
100
AcDbSymbolTableRecord
100
AcDbLinetypeTableRecord
  2
ByLayer
 70
    64
  3

 72
    65
 73
     0
 40
0.0
  0
LTYPE
  5
13
100
AcDbSymbolTableRecord
100
AcDbLinetypeTableRecord
  2
Continuous
 70
    64
  3
Solid line
 72
    65
 73
     0
 40
0.0
  0
ENDTAB
  0
TABLE
  2
LAYER
  5
2
100
AcDbSymbolTable
 70
     2
  0
LAYER
  5
14
100
AcDbSymbolTableRecord
100
AcDbLayerTableRecord
  2
0
 70
     0
 62
     7
  6
Continuous
290
     1
370
    -3
390
1D
  0
LAYER
  5
28
100
AcDbSymbolTableRecord
100
AcDbLayerTableRecord
  2
LAYER_2
 70
     0
 62
     1
  6
Continuous
290
     1
370
    -3
390
1D
  0
ENDTAB
  0
TABLE
  2
STYLE
  5
3
100
AcDbSymbolTable
 70
     5
  0
STYLE
  5
17
100
AcDbSymbolTableRecord
100
AcDbTextStyleTableRecord
  2
Standard
 70
     0
 40
0.0
 41
1.0
 50
0.0
 71
     0
 42
0.0
  3
txt
  4

  0
STYLE
  5
24
100
AcDbSymbolTableRecord
100
AcDbTextStyleTableRecord
  2
STD
 70
     0
 40
0.0
 41
1.0
 50
0.0
 71
     0
 42
0.0
  3
txt
  4

  0
STYLE
  5
25
100
AcDbSymbolTableRecord
100
AcDbTextStyleTableRecord
  2
TATESTD
 70
     4
 40
0.0
 41
1.0
 50
0.0
 71
     0
 42
0.0
  3
txt
  4

  0
STYLE
  5
26
100
AcDbSymbolTableRecord
100
AcDbTextStyleTableRecord
  2
KANJISTD
 70
     0
 40
0.0
 41
1.0
 50
0.0
 71
     0
 42
0.0
  3
txt
  4
extfont
  0
STYLE
  5
27
100
AcDbSymbolTableRecord
100
AcDbTextStyleTableRecord
  2
KANJITATE
 70
     4
 40
0.0
 41
1.0
 50
0.0
 71
     0
 42
0.0
  3
txt
  4
extfont
  0
ENDTAB
  0
TABLE
  2
VIEW
  5
5
100
AcDbSymbolTable
 70
     0
  0
ENDTAB
  0
TABLE
  2
UCS
  5
6
100
AcDbSymbolTable
 70
     0
  0
ENDTAB
  0
TABLE
  2
APPID
  5
8
100
AcDbSymbolTable
 70
     1
  0
APPID
  5
16
100
AcDbSymbolTableRecord
100
AcDbRegAppTableRecord
  2
ACAD
 70
     0
  0
ENDTAB
  0
TABLE
  2
DIMSTYLE
  5
9
100
AcDbSymbolTable
 70
     1
100
AcDbDimStyleTable
 71
     0
  0
DIMSTYLE
105
18
100
AcDbSymbolTableRecord
100
AcDbDimStyleTableRecord
  2
Standard
 70
     0
  3

  4

 40
1.0
 41
0.18
 42
0.0625
 43
0.38
 44
0.18
 45
0.0
 46
0.0
 47
0.0
 48
0.0
 71
     0
 72
     0
 73
     1
 74
     1
 75
     0
 76
     0
 77
     0
 78
     0
 79
     0
140
0.18
141
0.09
142
0.0
143
25.4
144
1.0
145
0.0
146
1.0
147
0.09
148
0.0
170
     0
171
     2
172
     0
173
     0
174
     0
175
     0
176
     0
177
     0
178
     0
179
     0
271
     4
272
     4
273
     2
274
     2
275
     0
276
     0
277
     2
278
    46
279
     0
280
     0
281
     0
282
     0
283
     1
284
     0
285
     0
286
     0
288
     0
289
     3
340
17
341
0
342
0
343
0
344
0
371
    -2
372
    -2
  0
ENDTAB
  0
TABLE
  2
BLOCK_RECORD
  5
1
100
AcDbSymbolTable
 70
     3
  0
BLOCK_RECORD
  5
A
100
AcDbSymbolTableRecord
100
AcDbBlockTableRecord
  2
*MODEL_SPACE
340
20
  0
BLOCK_RECORD
  5
B
100
AcDbSymbolTableRecord
100
AcDbBlockTableRecord
  2
*PAPER_SPACE
340
21
  0
BLOCK_RECORD
  5
32
100
AcDbSymbolTableRecord
100
AcDbBlockTableRecord
  2
AI9-BLK1
340
0
102
{BLKREFS
331
33
102
}
  0
BLOCK_RECORD
  5
37
100
AcDbSymbolTableRecord
100
AcDbBlockTableRecord
  2
AI9-BLK2
340
0
102
{BLKREFS
331
38
102
}
  0
BLOCK_RECORD
  5
3C
100
AcDbSymbolTableRecord
100
AcDbBlockTableRecord
  2
AI9-BLK3
340
0
102
{BLKREFS
331
3D
102
}
  0
ENDTAB
  0
ENDSEC
  0
SECTION
  2
BLOCKS
  0
BLOCK
  5
D
100
AcDbEntity
  8
0
390
0
100
AcDbBlockBegin
  2
*MODEL_SPACE
 70
     0
 10
0.0
 20
0.0
 30
0.0
  3
*MODEL_SPACE
  1

  0
ENDBLK
  5
E
100
AcDbEntity
  8
0
390
0
100
AcDbBlockEnd
  0
BLOCK
  5
F
100
AcDbEntity
 67
     1
  8
0
390
0
100
AcDbBlockBegin
  2
*PAPER_SPACE
 70
     0
 10
0.0
 20
0.0
 30
0.0
  3
*PAPER_SPACE
  1

  0
ENDBLK
  5
10
100
AcDbEntity
 67
     1
  8
0
390
0
100
AcDbBlockEnd
  0
BLOCK
  5
34
100
AcDbEntity
  8
LAYER_2
390
0
 62
     7
100
AcDbBlockBegin
  2
AI9-BLK1
 70
     0
 10
0.0
 20
0.0
 30
0.0
  3
AI9-BLK1
  1

  0
SPLINE
  5
35
100
AcDbEntity
  8
LAYER_2
390
0
 62
     7
100
AcDbSpline
210
0.0
220
0.0
230
1.0
 70
     8
 71
     3
 72
    35
 73
    31
 74
     0
 42
0.00000001
 43
0.00000001
 40
0.0
 40
0.0
 40
0.0
 40
0.0
 40
1.0
 40
1.0
 40
1.0
 40
2.0
 40
2.0
 40
2.0
 40
3.0
 40
3.0
 40
3.0
 40
4.0
 40
4.0
 40
4.0
 40
5.0
 40
5.0
 40
5.0
 40
6.0
 40
6.0
 40
6.0
 40
7.0
 40
7.0
 40
7.0
 40
8.0
 40
8.0
 40
8.0
 40
9.0
 40
9.0
 40
9.0
 40
10.0
 40
10.0
 40
10.0
 40
10.0
 10
-29.4431640624999957
 20
-40.1173617892795136
 30
0.0
 10
-1.9161621093749999
 20
-40.1173617892795136
 30
0.0
 10
19.0872070312499993
 20
-2.0697272406684024
 30
0.0
 10
19.0872070312499993
 20
56.0018358018663136
 30
0.0
 10
19.0872070312499993
 20
56.0018358018663136
 30
0.0
 10
37.3655056423611072
 20
56.0018358018663136
 30
0.0
 10
37.3655056423611072
 20
56.0018358018663136
 30
0.0
 10
37.3655056423611072
 20
56.0018358018663136
 30
0.0
 10
37.3655056423611072
 20
47.048032633463535
 30
0.0
 10
37.3655056423611072
 20
47.048032633463535
 30
0.0
 10
37.3655056423611072
 20
51.0951585557725636
 30
0.0
 10
33.09634331597222
 20
54.2272671169704807
 30
0.0
 10
28.9250217013888857
 20
54.2272671169704807
 30
0.0
 10
24.7530110677083321
 20
54.2272671169704807
 30
0.0
 10
21.0199055989583314
 20
50.9461581759982565
 30
0.0
 10
21.0199055989583314
 20
46.899032253689235
 30
0.0
 10
21.0199055989583314
 20
46.899032253689235
 30
0.0
 10
21.0199055989583314
 20
45.9685119628906236
 30
0.0
 10
21.0199055989583314
 20
45.9685119628906236
 30
0.0
 10
21.3520128038194414
 20
38.4380499945746479
 30
0.0
 10
23.3970214843749993
 20
32.561750623914925
 30
0.0
 10
23.3970214843749993
 20
25.0493754069010386
 30
0.0
 10
23.3970214843749993
 20
-15.4482387966579839
 30
0.0
 10
-2.7030219184027775
 20
-56.7173821343315936
 30
0.0
 10
-29.4135362413194414
 20
-55.9925340440538122
 30
0.0
 10
-33.7977647569444386
 20
-56.0008022732204793
 30
0.0
 10
-37.3562038845486057
 20
-52.4547654893663164
 30
0.0
 10
-37.3651611328124957
 20
-48.0722595214843693
 30
0.0
 10
-37.3730848524305515
 20
-43.6869974772135379
 30
0.0
 10
-33.8267035590277771
 20
-40.1282138400607593
 30
0.0
 10
-29.4431640624999957
 20
-40.1173617892795136
 30
0.0
  0
ENDBLK
  5
36
100
AcDbEntity
  8
LAYER_2
390
0
100
AcDbBlockEnd
  0
BLOCK
  5
39
100
AcDbEntity
  8
LAYER_2
390
0
 62
     7
100
AcDbBlockBegin
  2
AI9-BLK2
 70
     0
 10
0.0
 20
0.0
 30
0.0
  3
AI9-BLK2
  1

  0
SPLINE
  5
3A
100
AcDbEntity
  8
LAYER_2
390
0
 62
     7
100
AcDbSpline
210
0.0
220
0.0
230
1.0
 70
     8
 71
     3
 72
    41
 73
    37
 74
     0
 42
0.00000001
 43
0.00000001
 40
0.0
 40
0.0
 40
0.0
 40
0.0
 40
1.0
 40
1.0
 40
1.0
 40
2.0
 40
2.0
 40
2.0
 40
3.0
 40
3.0
 40
3.0
 40
4.0
 40
4.0
 40
4.0
 40
5.0
 40
5.0
 40
5.0
 40
6.0
 40
6.0
 40
6.0
 40
7.0
 40
7.0
 40
7.0
 40
8.0
 40
8.0
 40
8.0
 40
9.0
 40
9.0
 40
9.0
 40
10.0
 40
10.0
 40
10.0
 40
11.0
 40
11.0
 40
11.0
 40
12.0
 40
12.0
 40
12.0
 40
12.0
 10
-40.0355407714843707
 20
29.0893527560763872
 30
0.0
 10
-37.3607686360677036
 20
2.387451171875
 30
0.0
 10
-1.6303053114149304
 20
-18.9411349826388857
 30
0.0
 10
55.9289720323350679
 20
-18.9411349826388857
 30
0.0
 10
55.9289720323350679
 20
-18.9411349826388857
 30
0.0
 10
55.9220818413628393
 20
-37.0020480685763857
 30
0.0
 10
55.9220818413628393
 20
-37.0020480685763857
 30
0.0
 10
55.9220818413628393
 20
-37.0020480685763857
 30
0.0
 10
46.980681016710065
 20
-37.0141059027777715
 30
0.0
 10
46.980681016710065
 20
-37.0141059027777715
 30
0.0
 10
51.0266011555989536
 20
-37.0141059027777715
 30
0.0
 10
54.3083991156684007
 20
-32.9268446180555543
 30
0.0
 10
54.3083991156684007
 20
-28.75552300347222
 30
0.0
 10
54.3083991156684007
 20
-24.5835123697916629
 30
0.0
 10
51.0266011555989536
 20
-20.4976291232638879
 30
0.0
 10
46.980681016710065
 20
-20.4976291232638879
 30
0.0
 10
46.980681016710065
 20
-20.4976291232638879
 30
0.0
 10
46.0498162163628422
 20
-20.4976291232638879
 30
0.0
 10
46.0498162163628422
 20
-20.4976291232638879
 30
0.0
 10
38.5188374837239564
 20
-20.8283582899305522
 30
0.0
 10
32.6421936035156222
 20
-23.2268337673611107
 30
0.0
 10
25.1298183865017322
 20
-23.2268337673611107
 30
0.0
 10
-15.4706319173177071
 20
-23.2268337673611107
 30
0.0
 10
-56.847089979383675
 20
2.8311794704861111
 30
0.0
 10
-55.9134691026475679
 20
29.0586914062499986
 30
0.0
 10
-55.9134691026475679
 20
29.0586914062499986
 30
0.0
 10
-55.9203592936197893
 20
29.0593804253472179
 30
0.0
 10
-55.9203592936197893
 20
29.0593804253472179
 30
0.0
 10
-55.9281107584635393
 20
33.4442979600694414
 30
0.0
 10
-52.3817294650607579
 20
37.00308159722222
 30
0.0
 10
-47.9981899685329836
 20
37.0141059027777715
 30
0.0
 10
-43.6139614529079793
 20
37.0223741319444386
 30
0.0
 10
-40.054488796657985
 20
33.4746148003472186
 30
0.0
 10
-40.045531548394095
 20
29.0883192274305529
 30
0.0
 10
-40.045531548394095
 20
29.0883192274305529
 30
0.0
 10
-40.0355407714843707
 20
29.0893527560763872
 30
0.0
 10
-40.0355407714843707
 20
29.0893527560763872
 30
0.0
  0
ENDBLK
  5
3B
100
AcDbEntity
  8
LAYER_2
390
0
100
AcDbBlockEnd
  0
BLOCK
  5
3E
100
AcDbEntity
  8
LAYER_2
390
0
 62
     7
100
AcDbBlockBegin
  2
AI9-BLK3
 70
     0
 10
0.0
 20
0.0
 30
0.0
  3
AI9-BLK3
  1

  0
SPLINE
  5
3F
100
AcDbEntity
  8
LAYER_2
390
0
 62
     7
100
AcDbSpline
210
0.0
220
0.0
230
1.0
 70
     8
 71
     3
 72
    41
 73
    37
 74
     0
 42
0.00000001
 43
0.00000001
 40
0.0
 40
0.0
 40
0.0
 40
0.0
 40
1.0
 40
1.0
 40
1.0
 40
2.0
 40
2.0
 40
2.0
 40
3.0
 40
3.0
 40
3.0
 40
4.0
 40
4.0
 40
4.0
 40
5.0
 40
5.0
 40
5.0
 40
6.0
 40
6.0
 40
6.0
 40
7.0
 40
7.0
 40
7.0
 40
8.0
 40
8.0
 40
8.0
 40
9.0
 40
9.0
 40
9.0
 40
10.0
 40
10.0
 40
10.0
 40
11.0
 40
11.0
 40
11.0
 40
12.0
 40
12.0
 40
12.0
 40
12.0
 10
39.8840426974826343
 20
-29.5427273220486093
 30
0.0
 10
38.5027316623263829
 20
-2.7149074978298611
 30
0.0
 10
1.1108710394965278
 20
19.1798800998263879
 30
0.0
 10
-55.8797932942708258
 20
19.1797078450520821
 30
0.0
 10
-55.8797932942708258
 20
19.1797078450520821
 30
0.0
 10
-55.8797932942708258
 20
37.4623128255208329
 30
0.0
 10
-55.8797932942708258
 20
37.4623128255208329
 30
0.0
 10
-55.8797932942708258
 20
37.4623128255208329
 30
0.0
 10
-47.0718899197048586
 20
37.4623128255208329
 30
0.0
 10
-47.0718899197048586
 20
37.4623128255208329
 30
0.0
 10
-51.1188435872395814
 20
37.4623128255208329
 30
0.0
 10
-54.2590481228298529
 20
33.5185397677951329
 30
0.0
 10
-54.2590481228298529
 20
29.3472181532118022
 30
0.0
 10
-54.2590481228298529
 20
25.17555202907986
 30
0.0
 10
-50.6248168945312429
 20
20.7355129665798579
 30
0.0
 10
-46.57786322699652
 20
20.7355129665798579
 30
0.0
 10
-46.57786322699652
 20
20.7355129665798579
 30
0.0
 10
-45.6469984266493043
 20
20.7355129665798579
 30
0.0
 10
-45.6469984266493043
 20
20.7355129665798579
 30
0.0
 10
-38.68394368489583
 20
21.0419542100694414
 30
0.0
 10
-33.1618001302083272
 20
23.464545355902775
 30
0.0
 10
-25.0811564127604143
 20
23.464545355902775
 30
0.0
 10
15.4028496636284711
 20
23.464545355902775
 30
0.0
 10
57.3239773220486057
 20
-1.5384073893229164
 30
0.0
 10
55.8415527343749929
 20
-29.5162000868055543
 30
0.0
 10
55.8415527343749929
 20
-29.5162000868055543
 30
0.0
 10
55.79676649305555
 20
-29.5130995008680515
 30
0.0
 10
55.79676649305555
 20
-29.5130995008680515
 30
0.0
 10
55.8043457031249943
 20
-33.8940551757812472
 30
0.0
 10
52.2572753906249972
 20
-37.4540445963541657
 30
0.0
 10
47.8737358940972157
 20
-37.4623128255208329
 30
0.0
 10
43.4895073784722186
 20
-37.4705810546875
 30
0.0
 10
39.9310682508680515
 20
-33.9247165256076357
 30
0.0
 10
39.9221110026041615
 20
-29.5420383029513864
 30
0.0
 10
39.9221110026041615
 20
-29.5420383029513864
 30
0.0
 10
39.8840426974826343
 20
-29.5427273220486093
 30
0.0
 10
39.8840426974826343
 20
-29.5427273220486093
 30
0.0
  0
ENDBLK
  5
40
100
AcDbEntity
  8
LAYER_2
390
0
100
AcDbBlockEnd
  0
ENDSEC
  0
SECTION
  2
ENTITIES
  0
INSERT
  5
3D
100
AcDbEntity
  8
LAYER_2
390
0
 62
     7
100
AcDbBlockReference
  2
AI9-BLK3
 10
56.517825
 20
165.204903
 30
0.0
  0
INSERT
  5
38
100
AcDbEntity
  8
LAYER_2
390
0
 62
     7
100
AcDbBlockReference
  2
AI9-BLK2
 10
146.981984
 20
37.59426
 30
0.0
  0
INSERT
  5
33
100
AcDbEntity
  8
LAYER_2
390
0
 62
     7
100
AcDbBlockReference
  2
AI9-BLK1
 10
165.477927
 20
146.66538
 30
0.0
  0
CIRCLE
  5
31
100
AcDbEntity
  8
LAYER_2
390
0
 62
     7
100
AcDbCircle
 10
8.972751
 20
10.224182
 30
0.0
 40
5.158695
  0
CIRCLE
  5
30
100
AcDbEntity
  8
LAYER_2
390
0
 62
     7
100
AcDbCircle
 10
11.024392
 20
194.401915
 30
0.0
 40
5.158782
  0
CIRCLE
  5
2F
100
AcDbEntity
  8
LAYER_2
390
0
 62
     7
100
AcDbCircle
 10
192.440622
 20
8.880078
 30
0.0
 40
5.158694
  0
CIRCLE
  5
2E
100
AcDbEntity
  8
LAYER_2
390
0
 62
     7
100
AcDbCircle
 10
194.683379
 20
192.70245
 30
0.0
 40
5.158695
  0
CIRCLE
  5
2D
100
AcDbEntity
  8
LAYER_2
390
0
 62
     7
100
AcDbCircle
 10
101.604392
 20
101.148865
 30
0.0
 40
5.158781
  0
SPLINE
  5
2C
100
AcDbEntity
  8
LAYER_2
390
0
 62
     7
100
AcDbSpline
210
0.0
220
0.0
230
1.0
 70
     8
 71
     3
 72
    41
 73
    37
 74
     0
 42
0.00000001
 43
0.00000001
 40
0.0
 40
0.0
 40
0.0
 40
0.0
 40
1.0
 40
1.0
 40
1.0
 40
2.0
 40
2.0
 40
2.0
 40
3.0
 40
3.0
 40
3.0
 40
4.0
 40
4.0
 40
4.0
 40
5.0
 40
5.0
 40
5.0
 40
6.0
 40
6.0
 40
6.0
 40
7.0
 40
7.0
 40
7.0
 40
8.0
 40
8.0
 40
8.0
 40
9.0
 40
9.0
 40
9.0
 40
10.0
 40
10.0
 40
10.0
 40
11.0
 40
11.0
 40
11.0
 40
12.0
 40
12.0
 40
12.0
 40
12.0
 10
66.9960828993055486
 20
95.8335991753472172
 30
0.0
 10
40.1946180555555515
 20
94.3990614149305429
 30
0.0
 10
19.06739773220486
 20
55.47361653645833
 30
0.0
 10
19.06739773220486
 20
0.5922119140625
 30
0.0
 10
19.06739773220486
 20
0.5922119140625
 30
0.0
 10
0.7022827148437499
 20
0.5922119140625
 30
0.0
 10
0.7022827148437499
 20
0.5922119140625
 30
0.0
 10
0.7022827148437499
 20
0.5922119140625
 30
0.0
 10
0.7462076822916666
 20
9.3920193142361104
 30
0.0
 10
0.7462076822916666
 20
9.3920193142361104
 30
0.0
 10
0.7462076822916666
 20
5.344721137152777
 30
0.0
 10
4.4808634440104163
 20
2.0636121961805554
 30
0.0
 10
8.6518405490451382
 20
2.0636121961805554
 30
0.0
 10
12.8235066731770821
 20
2.0636121961805554
 30
0.0
 10
16.9107679578993029
 20
5.344721137152777
 30
0.0
 10
16.9107679578993029
 20
9.3920193142361104
 30
0.0
 10
16.9107679578993029
 20
9.3920193142361104
 30
0.0
 10
16.9107679578993029
 20
10.3228841145833332
 30
0.0
 10
16.9107679578993029
 20
10.3228841145833332
 30
0.0
 10
16.57917751736111
 20
17.8531738281249979
 30
0.0
 10
14.5343410915798597
 20
23.7298177083333321
 30
0.0
 10
14.5343410915798597
 20
31.2415039062499957
 30
0.0
 10
14.5343410915798597
 20
71.6579861111111001
 30
0.0
 10
41.30514458550347
 20
112.6739149305555401
 30
0.0
 10
67.1366427951388829
 20
111.6896511501736029
 30
0.0
 10
67.1366427951388829
 20
111.6896511501736029
 30
0.0
 10
67.1361260308159729
 20
111.70928819444444
 30
0.0
 10
67.1361260308159729
 20
111.70928819444444
 30
0.0
 10
71.52035454644097
 20
111.7175564236111001
 30
0.0
 10
75.0798272026909643
 20
108.1696248372395672
 30
0.0
 10
75.0887844509548472
 20
103.7835015190972143
 30
0.0
 10
75.0963636610242986
 20
99.4027180989583172
 30
0.0
 10
71.5492933485243015
 20
95.8425564236111001
 30
0.0
 10
67.1655815972222143
 20
95.83428819444444
 30
0.0
 10
67.1655815972222143
 20
95.83428819444444
 30
0.0
 10
66.9960828993055486
 20
95.8335991753472172
 30
0.0
 10
66.9960828993055486
 20
95.8335991753472172
 30
0.0
  0
LINE
  5
2B
100
AcDbEntity
  8
LAYER_2
390
0
 62
     7
100
AcDbLine
 10
0.702283
 20
2887.18811
 30
0.0
 11
0.702283
 21
-2892.369878
 31
0.0
  0
LINE
  5
2A
100
AcDbEntity
  8
LAYER_2
390
0
 62
     7
100
AcDbLine
 10
-2691.729584
 20
202.638794
 30
0.0
 11
3087.826682
 21
202.638794
 31
0.0
  0
LINE
  5
29
100
AcDbEntity
  8
LAYER_2
390
0
 62
     7
100
AcDbLine
 10
202.904066
 20
2887.18811
 30
0.0
 11
202.904066
 21
-2892.369878
 31
0.0
  0
ENDSEC
  0
SECTION
  2
OBJECTS
  0
DICTIONARY
  5
19
100
AcDbDictionary
280
     0
281
     1
  3
ACAD_GROUP
350
1A
  3
ACAD_MLINESTYLE
350
1B
  3
ACAD_LAYOUT
350
1E
  3
ACAD_PLOTSETTINGS
350
22
  3
ACAD_PLOTSTYLENAME
350
1F
  3
ACAD_WIPEOUT_VARS
350
23
  0
DICTIONARY
  5
1A
102
{ACAD_REACTORS
330
19
102
}
100
AcDbDictionary
280
     0
281
     1
  0
DICTIONARY
  5
1B
102
{ACAD_REACTORS
330
19
102
}
100
AcDbDictionary
280
     0
281
     1
  3
Standard
350
1C
  0
MLINESTYLE
  5
1C
102
{ACAD_REACTORS
330
1B
102
}
100
AcDbMlineStyle
  2
Standard
 70
     0
  3

 62
     0
 51
90.0
 52
90.0
 71
     2
 49
0.5
 62
   256
  6
ByLayer
 49
-0.5
 62
   256
  6
ByLayer
  0
ACDBDICTIONARYWDFLT
  5
1F
102
{ACAD_REACTORS
330
19
102
}
100
AcDbDictionary
281
     1
  3
Normal
350
1D
100
AcDbDictionaryWithDefault
340
1D
  0
ACDBPLACEHOLDER
  5
1D
102
{ACAD_REACTORS
330
1F
102
}
  0
LAYOUT
  5
20
102
{ACAD_REACTORS
330
1E
102
}
100
AcDbPlotSettings
  1

  2

  4

  6

 40
0.0
 41
0.0
 42
0.0
 43
0.0
 44
0.0
 45
0.0
 46
0.0
 47
0.0
 48
0.0
 49
0.0
140
0.0
141
0.0
142
1.0
143
1.0
 70
  1024
 72
     0
 73
     0
 74
     0
  7

 75
     0
147
1.0
148
0.0
149
0.0
100
AcDbLayout
  1
Model
 70
     0
 71
     0
 10
0.0
 20
0.0
 11
0.0
 21
0.0
 12
0.0
 22
0.0
 32
0.0
 14
0.0
 24
0.0
 34
0.0
 15
0.0
 25
0.0
 35
0.0
146
0.0
 13
0.0
 23
0.0
 33
0.0
 16
0.0
 26
0.0
 36
0.0
 17
0.0
 27
0.0
 37
0.0
 76
     0
330
A
331
0
345
0
346
0
  0
LAYOUT
  5
21
102
{ACAD_REACTORS
330
1E
102
}
100
AcDbPlotSettings
  1

  2

  4

  6

 40
0.0
 41
0.0
 42
0.0
 43
0.0
 44
0.0
 45
0.0
 46
0.0
 47
0.0
 48
0.0
 49
0.0
140
0.0
141
0.0
142
1.0
143
1.0
 70
     0
 72
     0
 73
     0
 74
     0
  7

 75
     0
147
1.0
148
0.0
149
0.0
100
AcDbLayout
  1
Layout1
 70
     0
 71
     0
 10
0.0
 20
0.0
 11
0.0
 21
0.0
 12
0.0
 22
0.0
 32
0.0
 14
0.0
 24
0.0
 34
0.0
 15
0.0
 25
0.0
 35
0.0
146
0.0
 13
0.0
 23
0.0
 33
0.0
 16
0.0
 26
0.0
 36
0.0
 17
0.0
 27
0.0
 37
0.0
 76
     0
330
B
331
0
345
0
346
0
  0
DICTIONARY
  5
1E
102
{ACAD_REACTORS
330
19
102
}
100
AcDbDictionary
280
     0
281
     1
  3
Layout1
350
21
  3
Model
350
20
  0
DICTIONARY
  5
22
102
{ACAD_REACTORS
330
19
102
}
100
AcDbDictionary
280
     0
281
     1
  0
WIPEOUTVARIABLES
  5
23
100
AcDbWipeoutVariables
 70
     1
  0
ENDSEC
  0
EOF
